<svg xmlns="http://www.w3.org/2000/svg" version="1.2" baseProfile="tiny" width="600" height="600" stroke-linecap="round" stroke-linejoin="round"><rect id="backgroundrect" width="100%" height="100%" x="0" y="0" fill="none" stroke="none" class="" style=""/>































































































































































































































































































































































































































































































































































































































<g class="currentLayer" style=""><title>Layer 1</title><g class="city city-5" id="amasya" title="Amasya">
	<path id="amasya-merkez" title="Merkez" class="district" d="M420.96080959478047,195.79268964538778 L421.26082134703097,197.98060955871966 L425.96131895752524,201.16543493091888 L429.1692816124663,203.1616422560072 L430.7727927020808,205.01406513991245 L432.04149443808683,207.8657898900383 L435.65950450362686,214.75665923372472 L436.77867060136384,217.56165404046635 L436.8162896298595,219.08217450597476 L436.4429207720426,222.1711435840523 L435.65950450362686,225.9730438496612 L435.6971235321224,228.06390926519492 L436.4429207720426,233.33960005292758 L436.2567065809909,234.3844336588558 L433.90645777574355,237.1415003185363 L432.56345845845965,239.18443758700903 L430.62419753952395,244.93461703064528 L429.8031622426132,250.5901383838362 L428.94544839291905,252.63427385598507 L426.5575805591766,255.39014231198925 L425.58795009970845,257.00651907161927 L424.80453383129316,259.00272639670715 L424.812057636992,262.9376272704106 L425.3039264345688,264.97457352050037 L425.152509844875,267.82150545592026 L425.492962052758,269.55770258320257 L428.1441630859681,271.5850632038803 L432.1590539021346,273.2733321841022 L436.8172301055715,277.3268552217808 L439.92362138357544,278.2926073850587 L442.00583461079293,279.49800028364166 L442.3848463228836,280.70459138590064 L443.74853610584057,281.8632543410989 L446.81636787963635,282.58696936171896 L449.9218186819277,281.28332376166145 L452.45922215393955,281.1395393204789 L455.41419684224934,283.2136298845405 L460.79183696565997,283.40654067646113 L463.17782384797806,284.0343994029594 L467.57172637623535,286.92925948544007 L469.5410825179672,287.5571182119384 L470.032951315544,290.45197829441906 L472.38131916936595,292.72017785407803 L473.1769616220429,294.4563749813607 L478.06273294787684,296.86955718587865 L480.98196955911635,295.8343092093626 L483.51843255541564,294.17000430267126 L485.3514197188514,293.7470384048587 L486.88721655717404,295.18128820565727 L488.3647039013292,298.4619698719786 L491.79932120295507,302.9144947339397 L495.49256932548633,306.00346381201746 L497.7299610452477,307.66776871870854 L499.85637663094724,308.47535799668526 L505.4888856724142,310.9460539776765 L506.9814206279674,312.2772582622942 L508.43633655502504,314.22553744032155 L509.41443129590414,316.175014822025 L507.4290870670619,316.77411666028684 L504.8550050422673,318.9608383699422 L503.5496247534785,320.8611894009082 L502.76620848506275,324.66308966651735 L503.2138749241577,327.8479150387165 L503.73583894453077,329.93878045425043 L506.08608774977756,337.6372390759135 L508.51063413630345,343.34068857616535 L509.3683479859973,345.0037952791798 L509.6504906997126,347.6158792940014 L507.2513371574212,349.7774387264496 L504.78635031526335,353.2953647207224 L503.74054132309266,353.832159967805 L501.60848288311854,354.20599951488026 L499.9137456494027,353.89686296633755 L496.4236402807462,351.3171304507822 L494.4542841390148,352.2589185405297 L492.8357254380023,354.3593695854753 L492.2827257191203,357.2674099083979 L491.1344048742998,359.1318148290682 L489.6964175100645,360.0292693827845 L482.2901712750422,363.42258219469863 L478.66839930665185,364.90116553152853 L474.6741989561581,367.63067350664926 L472.0117122143995,368.2022166603511 L462.0135149160467,370.6477503641352 L459.25886155447483,371.7956294862449 L457.59233859213043,372.7338229649627 L455.16214935133064,373.6672236289745 L452.25890082720196,374.10576617458236 L450.2255923370278,374.8366704172614 L447.6543317393707,376.66752563498966 L441.8224418468782,381.1224469043038 L440.4230139868512,382.50517394701154 L437.1285275663705,384.8224998574079 L436.1090518941468,385.89369394422 L431.1818996369677,381.8904954609553 L421.20533328000033,377.4918897644377 L410.7068029026593,375.7089626937705 L406.08436477629266,373.5150517620561 L406.8865905589562,367.57315973017614 L402.04972397016616,362.52273123363005 L391.25964612198686,358.3350093841799 L388.9206830252879,359.9741520136643 L388.3610999764197,360.02208016072524 L386.68235082981437,362.30226175714944 L381.08652034113084,368.3855418228591 L378.4014621822748,370.2391629104411 L375.2301780801165,371.71295343256486 L372.39558428299165,372.75778703849335 L367.6950866724974,373.3281319885184 L365.5319925340144,372.47261456348093 L364.63665965582527,371.6650252855037 L363.06982711899366,369.3836454854029 L361.95066102125713,368.1482974949074 L360.64528073246834,367.29278006986993 L358.96653158586287,366.81709321029 L355.6466523211477,366.95967944779613 L352.36439208492834,368.2908837324137 L350.12605988945484,369.7167461074766 L347.253847063835,372.663128948048 L343.4486823315299,377.70037720415263 L340.05450548553654,380.83727442929114 L336.02550753368405,383.9741716544299 L333.6009611471587,385.2574477919865 L331.2883313704069,386.20762330746936 L328.11798774396084,386.7300401104338 L325.17617971562424,387.5196563332627 L322.93314514158897,388.5357330509546 L318.75461155146763,390.86504099811583 L316.06955339261174,392.00573089816663 L313.8688402256338,392.38556146362447 L310.2498896843804,392.6707339386371 L307.07954605793486,392.5760758481917 L301.6332512075196,391.6259003327086 L298.6491217721259,390.5798685231034 L295.62737330823654,389.91486548263293 L292.64324387284285,390.20003795764535 L291.37266118541265,390.7655900929647 L288.4628293312966,385.8289909456877 L287.71703209137627,384.07002794855157 L286.44833035537044,379.22329407701415 L286.1878185830403,376.27691123644297 L286.15019955454466,371.5715653987353 L285.9263663349974,370.4788036457457 L284.3228552453829,367.3898345676682 L283.46420091997663,366.62897523307555 L281.18919017172027,365.53621348008613 L278.3912749273783,364.6327679079877 L275.07139566266324,363.8719085733951 L272.0129686459911,363.9677648675168 L269.43888662119684,364.4422535234202 L263.9925917707818,364.395523580036 L259.85261768486805,366.43846084850856 L257.80049968044693,367.6750070426806 L253.3990733464904,370.00311678616595 L251.98177644792824,370.43087549868454 L249.48199200441186,370.00311678616595 L248.6618971832132,368.76776879566984 L246.72169578856546,363.77725048294974 L245.9016009673668,362.8750031145276 L238.21697392147814,357.55138417973376 L237.0978078237416,356.8863811392633 L233.3302621199321,356.45862242674457 L230.01038285521705,356.8384529922025 L226.61620600922367,356.268108042177 L224.30357623247173,354.79551572372986 L219.45448345942066,352.65672216113535 L216.39511596703636,351.0882735485663 L214.24518848852665,350.33460343603315 L211.66640408517063,348.91233567199953 L210.97609491228042,348.94588537494224 L208.13209635803193,350.36815313897534 L206.11195452783176,351.0115885132685 L204.35796732423572,349.96196209263417 L203.76076524687218,348.80929015581836 L206.85304938918978,345.38841865934404 L208.6173818256221,344.49695512401024 L210.96763063086905,341.835744758452 L212.23539189116278,338.12850258328814 L213.01880815957858,335.1353897993326 L214.6232597249052,330.2395295770579 L213.87652200927224,328.9562534395012 L212.53352269198854,329.47986844614184 L211.0043091836524,329.4319402990809 L209.94063115294594,328.8400276828783 L208.48007237161383,329.5924995917349 L206.68188280953606,329.87887027042433 L204.29495545150579,328.80527977625906 L203.53599155161228,329.41276904025653 L201.59861158410146,329.0557043446525 L200.0816242600265,329.5206073711438 L198.2834346979487,328.48296298727416 L195.1657577113963,328.3032324357958 L189.52008200995616,326.2998358886486 L187.81123764055445,326.5215035688055 L186.8152738611402,324.3671333584163 L184.78102489525415,322.44641286494885 L183.0655971958657,320.2596911552935 L181.760216907077,316.98020769264895 L181.94643109812927,312.51330438656936 L181.94643109812927,308.09313102387415 L181.760216907077,305.47984880537655 L181.4611456305391,304.67225952739983 L177.61930234545116,300.25208616470485 L171.12907945429015,298.4931231675682 L165.30941574605933,296.212941571144 L161.35565585119744,294.0262198614884 L165.87182022206477,290.56341123633575 L168.52019982813735,288.377887730357 L170.34848461301183,285.90599354568917 L170.6842344423325,282.48512204921474 L170.31086558451625,279.91856977410134 L169.6769849543694,278.3021930144711 L167.96061677926943,275.11856584594835 L165.49939183996068,269.7482169677699 L165.12602298214443,267.75200964268197 L165.2379395919179,266.3740754146799 L165.9837368318381,264.7109687116652 L166.8047721287495,264.092695614579 L169.37885415354364,263.33303448366314 L170.64661541383748,263.3797644270478 L173.40691162968398,264.37786808959163 L174.93612513802,265.3280436050749 L176.242445902521,265.7090723742093 L179.74853935828833,265.0428711300623 L182.2107047733091,265.2333855146294 L184.1123466637492,264.4257962366528 L185.45534598103305,264.2352818520855 L187.50746398545473,265.66114422714827 L188.402796863644,266.992348511766 L190.49159342084852,271.0794212523873 L192.76660416910488,273.78736156133056 L195.71405505171583,275.11856584594835 L198.95869625944025,275.4983964114062 L202.01806375182468,276.6870144585175 L204.3306935285765,276.6870144585175 L206.71762088660677,275.6409826489125 L208.4706676144902,274.50029274886214 L213.4692960258102,272.7892578987862 L219.81092375441452,270.0813175898432 L220.89247082365597,269.3683864023119 L223.6593503694891,268.8160145074347 L226.30772997556164,268.578770179483 L229.14232377268652,269.3396295140756 L230.70915630951814,270.6696355950165 L232.23836981785428,273.33084596057523 L233.91711896445923,275.0898089577114 L235.37203489151747,275.37498143272404 L237.46083144872154,275.1377371047726 L239.5872470344217,274.3289496231193 L241.0045439329839,274.23429153267386 L245.48120832393084,274.5194640076863 L247.60762390963097,274.804636482699 L250.3679201254775,275.4696395231694 L254.13546582928714,276.6103294232198 L257.64155928505386,277.27533246369023 L260.73760533022164,277.1806743732451 L263.2740683265207,276.89550189823245 L268.75798220543095,275.28032334227896 L269.6899936364034,273.56928849220344 L269.9138268559508,269.29170136701435 L270.24957668527145,268.0084252294579 L271.07061198218264,266.8210053860234 L273.5318369214908,265.4418729543445 L275.43441928764366,265.2992867168384 L280.3954286704683,266.20273228893706 L282.0374992642903,265.9654879609854 L283.67862938240023,264.44376929180044 L284.6482598418679,262.16358769537624 L284.98400967118914,260.2620384607338 L285.91696157787374,258.1232448981391 L286.84897300884643,256.6506525796919 L292.295267859261,253.3232409699861 L295.9508969532966,249.42668261393183 L299.4203118562806,246.28978538879335 L301.65770357604197,243.29547440116121 L302.21728662491046,241.10995089518235 L303.89603577151536,236.73770567954813 L304.6418330114358,235.16925706697901 L308.40937871524534,230.65442561383844 L311.95309119950764,227.23235591368731 L312.81174552491404,225.9023498327462 L314.93722063490134,224.04872874516465 L316.35545800917623,223.24113946718742 L320.64496773335884,222.19510765758287 L329.5973560395407,220.38941471706158 L335.7894481298762,218.39320739197373 L337.5424948577596,217.25251749192336 L339.10932739459054,215.3042383138962 L341.34765959006404,212.9749303667345 L345.5628717329689,210.6468206232493 L347.6516682901729,209.74337505115065 L349.8900004856464,209.0783720106802 L351.6430472135303,208.12819649519713 L353.91805796178664,206.27457540761512 L355.3729738888444,202.28216075743913 L358.95430540160226,199.3357779168679 L359.81201925129596,198.38560240138483 L360.07347149933867,194.15594342325693 L360.37160230016434,192.77800919525484 L361.2669351783536,191.25629052606996 L364.4372788047997,189.30801134804278 L365.5188258740411,187.40766031707682 L367.1608964678634,180.89662153884794 L367.2351940491417,179.7080034917366 L367.9885150947613,177.46496620928497 L371.9403940381977,179.0897303946506 L375.63176120930416,179.7259765468845 L376.78478443268705,179.62772384540972 L381.55205581876044,181.2441006050396 L385.08918497303614,182.95873006614485 L387.93506447870936,183.84060797206604 L389.81883733061443,183.84060797206604 L390.8571225170865,184.18329422355197 L393.85535908816576,186.92718064279097 L397.1620716929075,187.41604774281237 L399.85371318175,188.2487992979963 L402.3911166537614,189.81724791056538 L405.0056391341885,190.69792761281002 L407.96531620106066,189.71899520909017 L411.84854041749327,190.35524136132435 L414.5401819063359,192.3634307231776 L416.07785969608346,194.2745655872327 L418.15443006902694,195.2534979909523 L420.96080959478047,195.79268964538778 z"/>
	<path id="amasya-gumushacikoy" title="Gümüşhacıköy" class="district" d="M104.2894705751716,99.71832245438253 L103.69226849780753,103.42556462954607 L103.65558994502467,105.18332942300619 L104.84905362404011,107.74988169811935 L106.19205294132392,108.98522968861487 L109.88436058814298,111.02936516076416 L111.82456198279078,113.83316176382903 L112.34652600316376,115.97195532642345 L111.97315714534757,118.77575192948832 L112.83181147075386,121.6262784759376 L114.69677480841118,125.71335121655922 L116.52411911757294,128.8502484416979 L118.24048729267297,130.70386952927944 L121.03840253701497,133.12783556688655 L123.49962747632365,134.55369794194954 L128.31204169659185,136.54990526703764 L129.65504101387563,137.5947388729659 L132.00434934341038,138.92594315758376 L134.87750264474295,141.39663913857527 L137.00297775473038,142.870429660699 L139.01747673065657,143.91526326662725 L139.53944075102962,144.86663698578687 L140.28617846666256,148.0502641543098 L140.3980950764365,152.8981962295237 L139.95042863734133,154.75181731710572 L138.15976288096297,157.5556139201708 L137.7863940231462,160.02630990116208 L137.37634661254717,166.34683429482345 L137.41396564104215,168.39096976697226 L138.3835961005102,173.0963156046799 L139.01747673065657,175.47235349522623 L140.32285701944542,178.8932249917008 L140.65860684876665,182.40995278229732 L140.3980950764365,184.69133258239785 L139.31560753148233,189.8723652796854 L138.01022724269347,193.43582301366627 L136.85438259217418,196.00237528877946 L135.47376424639432,198.18909699843462 L132.63917044926944,200.32669235735273 L128.53587491613914,202.18031344493428 L125.47650742375428,202.56134221406933 L123.98491294391377,202.03772720742842 L121.70896171994468,200.65979297942633 L117.00940458516251,200.85030736399338 L115.66640526787879,201.42065231401847 L113.72714434894309,203.17841710747854 L111.4511931249746,204.22444891708358 L109.06426576694432,206.2673861855561 L107.27360001056542,207.26548984810015 L105.70676747373379,207.74117670768007 L103.17030447743457,207.59859047017352 L101.60347194060348,207.26548984810015 L95.85904628936267,207.02824552014843 L94.14361858997485,207.59859047017352 L93.5464165126108,209.45221155775553 L94.36651133380947,214.1563591917866 L94.59034455335728,217.53050074487675 L94.96371341117352,218.38601816991473 L96.79199819604743,220.66739797001546 L98.13405703761954,223.4711945730801 L99.5522944118939,225.8951606106872 L100.1118774607624,230.98033701385282 L100.03663940377186,234.8768953699071 L99.51467538339888,239.4396549701084 L99.17892555407767,241.1027616731231 L98.2092950946101,243.76397203868189 L97.1277480253686,245.42827694537291 L96.38101030973566,247.5191423609064 L96.19479611868391,250.51345334853855 L95.80261774661993,252.29997503023517 L93.79188067354335,251.57026899123213 L92.36705996928187,251.59782767579216 L89.71303750893426,252.32393910376572 L88.09071690507258,253.07880741997545 L83.50777875862612,254.41959733400495 L79.51734031098141,257.1814568083918 L76.56048467124684,260.02479413278206 L72.12049883308266,262.2115158424374 L66.82373962093698,264.53962558592235 L62.160861038937675,266.2985885830588 L62.90477732743364,257.6870987598848 L62.8304797461553,253.83846855089124 L62.942396355928636,250.60571503163084 L63.42768182351877,248.89587838523192 L64.02394342517013,248.08709090357837 L64.58352647403866,245.56846677552616 L64.95689533185484,242.28898331288158 L64.54590744554312,240.0088017164571 L62.644265555102955,236.96656258176426 L61.44986140037543,234.63845283827908 L61.860849286687156,232.54638921906908 L63.016693937207044,231.45362746607967 L64.39731228298638,230.6939663351636 L65.47885935222781,229.50534828805252 L68.05294137702259,227.36655472545831 L68.91065522671674,223.8498269348616 L68.61252442589105,222.61447894436566 L66.03844240109633,219.33499548172102 L65.55315693350623,218.0996474912255 L65.85222821004459,214.96275026608683 L66.33657320192202,213.1570573255662 L66.56040642146931,210.8277493784043 L64.95689533185484,208.64222587242566 L63.57627698607556,207.97722283195523 L61.89752783947054,208.11980906946133 L60.48023094090782,209.06998458494465 L57.19797070468838,209.4030852070178 L53.13229420005313,208.45171148785838 L49.700498325564745,208.97532649449906 L47.61076129264747,209.06998458494465 L45.26145296311273,209.68825768203067 L43.13503737741313,209.11791273200538 L42.83690657658744,208.16653901284573 L42.761668519596356,205.8384292693608 L43.097418348917586,202.13118709419703 L43.39648962545596,200.8958391037015 L44.70186991424421,198.28135868152694 L46.007250203032996,196.33307950349976 L46.38061906084971,195.04980336594303 L45.89533359325959,193.5292829004351 L43.17265640590807,189.82204072527134 L41.530585812085974,188.11220407887245 L38.06211138481473,183.88254510074452 L36.979623839860544,183.07375761909123 L35.077981949420916,179.93805859762927 L33.36161377432042,177.5140925600222 L33.10110200198973,173.66426414735207 L33.511149412589305,172.0011574443376 L34.03311343296228,167.96081464710045 L33.399232802815426,166.3456360911469 L26.498022025343104,161.21253154092034 L28.586818582547696,157.8863181348911 L31.646186074931997,155.17717962227138 L32.80203072545189,152.89579982217086 L33.24969716454647,151.09010688165006 L33.69736360364111,147.76389347562082 L33.511149412589305,144.43648186591503 L32.913947335225295,142.630788925394 L31.981935904253227,140.8730241319344 L30.937067387794592,138.11595747225368 L29.482151460736915,135.78784772876853 L27.281438293758914,134.5045715912118 L25.602689147153416,132.79353674113636 L23.663428228218248,130.13232637557786 L20.679298792824437,124.71404935033858 L19.858263495913086,121.86232460021277 L18.329049987577015,119.39162861922149 L16.426467621424763,116.98923024779195 L16.43116999998652,113.70375576676442 L18.627180788402704,108.03265776577891 L20.09432289972153,105.17134738624077 L22.586583537538566,103.725115548677 L23.611702064037313,102.38432563464701 L24.88604665431715,101.74927768608963 L26.40867683266663,101.71333157579409 L27.627533355915926,101.11303153385595 L30.2307701277947,100.97284170370247 L31.948078778607353,100.23115362793455 L33.16693530185671,100.3377937551451 L34.13656576132473,99.63205178967272 L35.82566014076602,99.24383379847913 L37.84768292239107,97.6202678167898 L38.40162311698509,96.45561384320882 L39.53677730183235,95.46829401375366 L40.36815783157996,94.02086397251334 L42.555704338584654,90.98701226355603 L42.724989966813496,86.6471185471875 L41.60582386907699,79.94676358806856 L41.04624082020853,77.76004187841318 L39.21795603533409,73.1972822782119 L39.06936087277782,71.72468995976423 L41.90395466990269,70.58400005971386 L44.44041766620192,70.34675573176261 L47.163094853552835,70.34675573176261 L48.8794630286534,69.91899701924342 L51.82597343555219,69.96572696262805 L53.50190115502018,70.21255691999185 L60.368314331134464,72.10452052522226 L67.5676559094324,76.2395214129048 L71.26090403196363,79.04331801596989 L76.45138948860988,83.77622253823748 L80.53493503178078,88.47198274653321 L84.30342121130255,92.59260519009723 L87.42956247926644,95.59410539978889 L90.03750162970704,97.49685283810791 L95.1132490494424,98.91073317640553 L98.3578902571669,99.4798799227543 L104.2894705751716,99.71832245438253 z"/>
	<path id="amasya-goynucek" title="Göynücek" class="district" d="M182.13170481346893,493.43007750484924 L178.2146234713899,491.98983668566785 L174.56933961019047,491.16187794519044 L168.7769496976184,488.172359772264 L161.63591761348792,486.9633722626519 L156.8423129074675,487.023282446478 L154.71589732176793,486.11983687437976 L151.20886339028846,484.02897145884583 L150.33328050205918,483.0644174992445 L151.69038695502897,479.4386531740843 L152.41831515641417,476.5725499798405 L155.0140281225931,464.40119703371477 L155.42407553319268,461.64532857771087 L156.8423129074675,457.1772270679549 L156.91661048874593,451.23653323975134 L156.69277726919864,449.1935959712791 L154.08201669162108,444.67876451813856 L150.0153997112731,442.58789910260504 L147.96422218256404,440.63842172090136 L147.25510349542657,438.690142542874 L146.73313947505366,433.27306372131153 L146.807437056332,430.9437557741498 L147.47893671497386,428.3772034990366 L148.97147167052714,425.6692631900935 L151.50793466682623,420.44150054942173 L152.66377931734613,418.53995131477876 L156.26486082006394,416.51858171248375 L159.7888233143658,413.978389918254 L160.7960728023289,412.5992574865754 L161.87761987157032,407.7525236150378 L161.8400008430753,406.4213193304206 L162.84725033103842,401.66924354932814 L164.33978528659122,398.58027447125085 L164.82413027846914,392.7821668805538 L164.71315414440792,391.2616464150454 L165.15988010778977,387.83957671489406 L166.91386731138593,384.65475134269485 L170.94192478752558,380.2357761836765 L173.14263795450418,377.24146519604386 L180.6410508093404,369.01939156773994 L185.68576253056693,362.8726067071748 L190.22731974566872,356.8540296399971 L193.02523499001072,354.80989416784803 L195.56169798630995,353.47868988323046 L201.6042544383759,349.96196209263417 L203.76076524687218,348.80929015581836 L204.35796732423572,349.96196209263417 L206.11195452783176,351.0115885132685 L208.13209635803193,350.36815313897534 L210.97609491228042,348.94588537494224 L211.66640408517063,348.91233567199953 L214.24518848852665,350.33460343603315 L216.39511596703636,351.0882735485663 L219.45448345942066,352.65672216113535 L224.30357623247173,354.79551572372986 L226.61620600922367,356.268108042177 L230.01038285521705,356.8384529922025 L233.3302621199321,356.45862242674457 L237.0978078237416,356.8863811392633 L238.21697392147814,357.55138417973376 L245.9016009673668,362.8750031145276 L246.72169578856546,363.77725048294974 L248.6618971832132,368.76776879566984 L249.48199200441186,370.00311678616595 L251.98177644792824,370.43087549868454 L253.3990733464904,370.00311678616595 L257.80049968044693,367.6750070426806 L259.85261768486805,366.43846084850856 L263.9925917707818,364.395523580036 L269.43888662119684,364.4422535234202 L272.0129686459911,363.9677648675168 L275.07139566266324,363.8719085733951 L278.3912749273783,364.6327679079877 L281.18919017172027,365.53621348008613 L283.46420091997663,366.62897523307555 L284.3228552453829,367.3898345676682 L285.9263663349974,370.4788036457457 L286.15019955454466,371.5715653987353 L286.1878185830403,376.27691123644297 L286.44833035537044,379.22329407701415 L287.71703209137627,384.07002794855157 L288.4628293312966,385.8289909456877 L291.37266118541265,390.7655900929647 L290.4049116773692,391.5300440385867 L289.8086500757179,394.19125440414507 L290.1443999050391,399.4190170448172 L289.2114479983545,408.2114356231466 L288.9509362260243,416.81333981690875 L288.3913531771558,419.95023704204726 L287.2721870794188,422.75403364511186 L286.19064001017716,424.08403972605277 L284.4742718350767,425.55783024817697 L283.31748670884474,426.1761033452628 L278.3197987732374,427.7433537541558 L272.5377540935016,428.5042130887479 L266.2704239461757,428.97989994832807 L261.9066166407147,429.7395610792437 L260.3021650753875,430.35783417632996 L258.96010623381585,431.9262827888991 L257.2437380587154,434.92059377653123 L252.80469269626386,441.0985319326862 L251.089264996876,442.33387992318177 L249.44719440305389,443.09473925777456 L241.5020555848351,444.80457590417353 L235.16136833194352,446.3730245167428 L231.0947513515955,448.36923184183075 L227.96202675364492,449.3673355043748 L224.67882604171334,449.93768045440027 L219.9040308499406,451.1262985015114 L216.80798480477296,451.74337339492087 L211.58646364961783,454.0247531950217 L210.13154772256007,455.07078500462666 L206.88596603912347,459.4430302202609 L203.37987258335673,462.38941306083206 L200.02237429014622,464.81337909843893 L195.54570989919912,469.1376961670124 L193.00924690290003,471.1806334354849 L189.46553441863767,474.50804504519044 L188.42160637789175,475.7913211827472 L188.0858565485705,478.4046034012448 L188.16015412984885,483.347193566904 L187.71248769075427,484.9635703265341 L185.325560332724,489.71564610762636 L182.13170481346893,493.43007750484924 z"/>
	<path id="amasya-hamamozu" title="Hamamözü" class="district" d="M26.498022025343104,161.21253154092034 L33.399232802815426,166.3456360911469 L34.03311343296228,167.96081464710045 L33.511149412589305,172.0011574443376 L33.10110200198973,173.66426414735207 L33.36161377432042,177.5140925600222 L35.077981949420916,179.93805859762927 L36.979623839860544,183.07375761909123 L38.06211138481473,183.88254510074452 L41.530585812085974,188.11220407887245 L43.17265640590807,189.82204072527134 L45.89533359325959,193.5292829004351 L46.38061906084971,195.04980336594303 L46.007250203032996,196.33307950349976 L44.70186991424421,198.28135868152694 L43.39648962545596,200.8958391037015 L43.097418348917586,202.13118709419703 L42.761668519596356,205.8384292693608 L42.83690657658744,208.16653901284573 L43.13503737741313,209.11791273200538 L45.26145296311273,209.68825768203067 L47.61076129264747,209.06998458494465 L49.700498325564745,208.97532649449906 L53.13229420005313,208.45171148785838 L57.19797070468838,209.4030852070178 L60.48023094090782,209.06998458494465 L61.89752783947054,208.11980906946133 L63.57627698607556,207.97722283195523 L64.95689533185484,208.64222587242566 L66.56040642146931,210.8277493784043 L66.33657320192202,213.1570573255662 L65.85222821004459,214.96275026608683 L65.55315693350623,218.0996474912255 L66.03844240109633,219.33499548172102 L68.61252442589105,222.61447894436566 L68.91065522671674,223.8498269348616 L68.05294137702259,227.36655472545831 L65.47885935222781,229.50534828805252 L64.39731228298638,230.6939663351636 L63.016693937207044,231.45362746607967 L61.860849286687156,232.54638921906908 L61.44986140037543,234.63845283827908 L62.644265555102955,236.96656258176426 L64.54590744554312,240.0088017164571 L64.95689533185484,242.28898331288158 L64.58352647403866,245.56846677552616 L64.02394342517013,248.08709090357837 L63.42768182351877,248.89587838523192 L62.942396355928636,250.60571503163084 L62.8304797461553,253.83846855089124 L62.90477732743364,257.6870987598848 L62.160861038937675,266.2985885830588 L60.63070705488945,266.2985885830588 L55.222031232969876,265.3184579756626 L52.23319941901425,265.4454675653743 L48.99137963842728,265.20582683006955 L42.31400208050185,264.96738429844135 L36.23382659994028,264.25445311091 L29.74266323306706,262.7339326454015 L27.90309273964468,262.12644338140416 L24.44496354520922,259.21720485480483 L21.7589649106411,255.31944829507444 L21.0188105249948,253.69947692441477 L17.431836157963023,248.9509957543519 L13.209100209359494,242.26142462832115 L11.689291458147057,239.2000142348038 L9.302364100117307,233.5444928816129 L6.33234180040895,228.40899192403347 L4.787140204962592,225.07798570329808 L3.5203194203814974,223.46999636940356 L2.5873675136967407,221.7110333722674 L2.4387723511400012,217.19620191912685 L3.5569979731643557,209.11791273200538 L4.228497631806222,206.21825983481858 L5.497199367812149,202.08325894713607 L6.094401445175675,199.3753186381931 L6.876877237879334,194.00496976001457 L8.136174216761095,189.58839100834925 L9.674792482221337,187.49393098178618 L10.381089742221286,184.35224094194197 L10.383911169358269,181.9809958661018 L9.861006673273142,177.32357817545468 L10.383911169358269,175.3273708503668 L11.763589039425396,173.28443358189432 L14.03954026339448,171.62012867520303 L17.247502918335517,170.2421944472012 L19.70966833335635,168.53115959712576 L21.275560394475814,166.63080856615957 L22.058976662891624,165.11028810065116 L23.999178057539474,162.92356639099577 L26.498022025343104,161.21253154092034 z"/>
	<path id="amasya-merzifon" title="Merzifon" class="district" d="M120.18915296873226,266.84736586690656 L117.41380914148766,267.93533480519005 L114.20584648654655,268.17257913314177 L112.11704992934196,267.6980904772384 L110.294407998742,266.8581496999954 L107.16544530364112,264.33712916458967 L105.37289859583792,262.45115657774176 L104.4361847863035,260.98455527767703 L102.6069595257169,260.36987679162064 L101.97119794414522,259.448458164374 L100.65547242252012,258.8062209937576 L100.08554414081588,257.8560454782743 L101.22634117993763,257.01730290470795 L99.3839492593772,254.81021173255158 L96.7308672747428,253.8887931053053 L95.80261774661993,252.29997503023517 L96.19479611868391,250.51345334853855 L96.38101030973566,247.5191423609064 L97.1277480253686,245.42827694537291 L98.2092950946101,243.76397203868189 L99.17892555407767,241.1027616731231 L99.51467538339888,239.4396549701084 L100.03663940377186,234.8768953699071 L100.1118774607624,230.98033701385282 L99.5522944118939,225.8951606106872 L98.13405703761954,223.4711945730801 L96.79199819604743,220.66739797001546 L94.96371341117352,218.38601816991473 L94.59034455335728,217.53050074487675 L94.36651133380947,214.1563591917866 L93.5464165126108,209.45221155775553 L94.14361858997485,207.59859047017352 L95.85904628936267,207.02824552014843 L101.60347194060348,207.26548984810015 L103.17030447743457,207.59859047017352 L105.70676747373379,207.74117670768007 L107.27360001056542,207.26548984810015 L109.06426576694432,206.2673861855561 L111.4511931249746,204.22444891708358 L113.72714434894309,203.17841710747854 L115.66640526787879,201.42065231401847 L117.00940458516251,200.85030736399338 L121.70896171994468,200.65979297942633 L123.98491294391377,202.03772720742842 L125.47650742375428,202.56134221406933 L128.53587491613914,202.18031344493428 L132.63917044926944,200.32669235735273 L135.47376424639432,198.18909699843462 L136.85438259217418,196.00237528877946 L138.01022724269347,193.43582301366627 L139.31560753148233,189.8723652796854 L140.3980950764365,184.69133258239785 L140.65860684876665,182.40995278229732 L140.32285701944542,178.8932249917008 L139.01747673065657,175.47235349522623 L138.3835961005102,173.0963156046799 L137.41396564104215,168.39096976697226 L137.37634661254717,166.34683429482345 L137.7863940231462,160.02630990116208 L138.15976288096297,157.5556139201708 L139.95042863734133,154.75181731710572 L140.3980950764365,152.8981962295237 L140.28617846666256,148.0502641543098 L139.53944075102962,144.86663698578687 L139.01747673065657,143.91526326662725 L137.00297775473038,142.870429660699 L134.87750264474295,141.39663913857527 L132.00434934341038,138.92594315758376 L129.65504101387563,137.5947388729659 L128.31204169659185,136.54990526703764 L123.49962747632365,134.55369794194954 L121.03840253701497,133.12783556688655 L118.24048729267297,130.70386952927944 L116.52411911757294,128.8502484416979 L114.69677480841118,125.71335121655922 L112.83181147075386,121.6262784759376 L111.97315714534757,118.77575192948832 L112.34652600316376,115.97195532642345 L111.82456198279078,113.83316176382903 L109.88436058814298,111.02936516076416 L106.19205294132392,108.98522968861487 L104.84905362404011,107.74988169811935 L103.65558994502467,105.18332942300619 L103.69226849780753,103.42556462954607 L104.2894705751716,99.71832245438253 L107.75888547815552,99.24263559480259 L112.22332368484139,98.12710797195912 L115.71531000492274,96.89894920352262 L117.71852327229999,95.34607723874831 L121.11364059400604,93.74647533058958 L123.99619865246217,92.97483216290834 L127.97629186727067,90.97383202311407 L131.1099569409334,90.64073140104047 L134.84928837337156,90.59400145765605 L138.17387001664835,91.40997816136839 L138.59802456293338,92.67048842907127 L140.1074880813096,94.42825322253113 L142.17935607569117,96.0865671108397 L143.1066651281015,97.33629354545394 L144.45248587252274,99.93280091248018 L143.9907122977427,102.67548912804237 L145.52839008749035,105.22287014433134 L146.45099676133873,105.809989945828 L146.91277033611922,106.98542775249739 L149.181197754389,108.25911826064174 L152.41079135071485,107.96555835989331 L153.41051703297907,108.20999190990447 L156.06359901761348,107.23105950618462 L157.44703879053034,107.91643200915604 L159.17751410131635,109.7784405224736 L162.09957213969332,109.92462137100908 L164.17520203692422,109.58193511952362 L164.90595166544634,108.50475001432899 L168.9810329272057,108.1129374121058 L172.55672158568905,105.71293544802933 L174.40287540909856,105.02636474138136 L175.47877962406557,104.97723839064409 L178.24754012132354,103.80180058397471 L180.78494359333493,104.2918658876722 L185.12900090883593,104.53629943768338 L188.71221337301802,104.82147191269581 L190.09659362164703,105.89865701789043 L190.3270101711815,111.972351454188 L190.01947461323167,113.24604196233261 L187.90528521179326,115.20510497344839 L186.3290479178374,117.21329433530168 L186.21336940521442,118.24255129343557 L186.90555952952892,120.59342690677433 L186.67514297999503,124.16886667752041 L187.21309508747876,125.73731529008978 L189.13542744359088,128.92094245861267 L191.32673585344529,132.0063169256606 L193.01865166002412,133.25125054556864 L194.9409840161363,135.9448124103931 L197.51694699235588,138.24656167299483 L201.746266270946,140.54950913927286 L205.89846654112026,141.37267506504466 L206.82107321496875,141.81361401800513 L207.936477409856,143.42999077763545 L209.85880976596889,145.04636753726552 L211.319368547301,145.33992743801375 L214.93361670999198,144.50717588283007 L215.7414853469295,144.60542858430506 L218.27888881894086,145.97617359024764 L222.59191043593356,144.16448963134437 L225.93718254488246,142.0089212172786 L228.82068107905133,140.441670808386 L234.35726159785506,141.27442236356947 L238.2404858142877,140.93173611208397 L239.77816360403517,141.02879060988244 L241.27728188957508,141.95979486654107 L243.0463167045693,142.2533547672893 L247.93679040896504,141.8615421650661 L249.47446819871251,142.2533547672893 L251.3968005548254,146.36798619247085 L251.58959807586427,149.4545588631953 L251.35824105061764,150.97268292135064 L251.63003853149678,153.64587532367457 L252.71158560073775,155.35691017375 L253.34546623088457,157.02001687676474 L253.97276353104488,159.74113742614944 L252.74826415352106,161.77329086153307 L251.0328364541328,163.05656699908977 L249.24217069775386,164.86225993961082 L247.86249282768668,167.80864278018203 L245.73607724198703,170.56451123618592 L243.1619952171923,173.27364974880547 L241.74469831863013,175.5550295489064 L240.9612820502143,177.36072248942722 L239.73019934270394,179.16641542994805 L239.05869968406205,181.16262275503615 L239.1329972653404,185.8200404456828 L238.31290244414126,189.29003829289533 L236.33602249671054,194.89763149902464 L235.25353495175696,196.65539629248474 L233.4638096710907,198.27177305211504 L232.90422662222215,199.3166066580435 L232.3813221261365,204.5443692987152 L231.52360827644284,207.9664389988666 L229.88247815833287,212.43334230494597 L228.27802659300625,215.61816767714538 L224.10043347859707,221.9866202178677 L222.30976772221817,224.2200718709073 L219.88522133569285,230.0649094049887 L219.81092375441452,232.25163111464408 L221.414434844029,233.67749348970713 L223.31701721018126,234.91284148020287 L225.4810518243764,235.24594210227625 L227.9798957921806,237.43146560825508 L229.65864493878559,237.95388241121947 L230.33014459742745,238.62008365536641 L230.25584701614912,240.94819339885157 L229.4724307477333,245.36836676154653 L227.49555080030257,248.26682145505697 L225.55534940565474,250.78544558310946 L224.17567153558755,253.5425122427899 L223.6160884867196,258.8649329739073 L223.09318399063395,260.76648220854975 L222.94458882807717,263.7595949925055 L221.89972031161906,267.7052796992974 L220.89247082365597,269.3683864023119 L219.81092375441452,270.0813175898432 L213.4692960258102,272.7892578987862 L208.4706676144902,274.50029274886214 L206.71762088660677,275.6409826489125 L204.3306935285765,276.6870144585175 L202.01806375182468,276.6870144585175 L198.95869625944025,275.4983964114062 L195.71405505171583,275.11856584594835 L192.76660416910488,273.78736156133056 L190.49159342084852,271.0794212523873 L188.402796863644,266.992348511766 L187.50746398545473,265.66114422714827 L185.45534598103305,264.2352818520855 L184.1123466637492,264.4257962366528 L182.2107047733091,265.2333855146294 L179.74853935828833,265.0428711300623 L176.242445902521,265.7090723742093 L174.93612513802,265.3280436050749 L173.40691162968398,264.37786808959163 L170.64661541383748,263.3797644270478 L169.37885415354364,263.33303448366314 L166.8047721287495,264.092695614579 L165.9837368318381,264.7109687116652 L165.2379395919179,266.3740754146799 L165.12602298214443,267.75200964268197 L165.49939183996068,269.7482169677699 L167.96061677926943,275.11856584594835 L169.6769849543694,278.3021930144711 L170.31086558451625,279.91856977410134 L170.6842344423325,282.48512204921474 L170.34848461301183,285.90599354568917 L168.52019982813735,288.377887730357 L165.87182022206477,290.56341123633575 L161.35565585119744,294.0262198614884 L160.27410878195587,292.9801880518839 L157.5881101473878,291.07983702091735 L155.49931359018314,289.93914712086706 L152.8876125368934,289.2262159333354 L151.28410144727894,289.0836296958293 L149.26960247135278,289.4634602612871 L144.3828906698067,290.98517893047205 L142.70414152320114,290.70000645545963 L139.83192869758128,289.65397464585465 L137.7055131118812,288.18138232740694 L136.66158507113525,286.56500556777706 L135.95246638399777,283.95052514560274 L136.06438299377172,281.62241540211784 L136.43493042445098,279.42850447040297 L136.10200202226673,275.01671853344357 L135.24428817257305,271.21481826783463 L134.75900270498295,269.9794702773391 L132.93165839582116,267.6501623301771 L131.17767119222512,265.9391274801017 L129.20079124479443,264.70377948960623 L125.95615003706992,264.65585134254525 L121.59140225589684,265.9391274801017 L120.18915296873226,266.84736586690656 z"/>
	<path id="amasya-suluova" title="Suluova" class="district" d="M253.97276353104488,159.74113742614944 L257.279476135786,160.52476263059586 L258.89427293394897,161.40664053651702 L262.50852109664004,164.29670780429169 L264.27661543592194,165.96221091465924 L265.776674197174,168.1165811250485 L272.42771843515254,175.0242253202065 L277.6219657946484,178.25697883946668 L279.0063460432774,178.45228603873989 L281.389511498458,178.01134708577965 L283.8507364377666,177.91429258798098 L287.58724644306733,176.97130629455714 L290.3560069403254,176.10141042540113 L292.81629140392124,175.70959782317794 L296.9299321698884,175.4160379224295 L299.04506204703944,175.0242253202065 L302.1204176265346,174.82771991725653 L305.46568973548415,174.92597261873152 L312.6161265767381,174.28852826282127 L314.8469349665129,175.75872417391517 L316.7307078184173,176.34584397541184 L318.9605757324799,176.4932230276241 L321.0362056297107,177.22772188133325 L323.42031156060386,177.17859553059574 L326.07339354523833,178.20785248872917 L328.18758294667725,178.35523154094167 L329.6105226995139,176.00315772392614 L330.4945698691547,175.12127981800472 L332.3012237126444,174.1914737650226 L334.9157461930712,174.28852826282127 L336.953757061807,175.17040616874246 L340.2604696665487,175.17040616874246 L342.72075413014466,174.2406001157601 L344.56596747784204,174.14234741428535 L346.25788328442025,173.50490305837465 L349.48747688074616,174.33765461355856 L351.83302330743174,175.95403137318866 L355.06261690375754,176.39497032614932 L359.8684477940392,176.54234937836185 L362.75194632820796,177.17859553059574 L366.4423730236023,177.13066738353456 L367.9885150947613,177.46496620928497 L367.2351940491417,179.7080034917366 L367.1608964678634,180.89662153884794 L365.5188258740411,187.40766031707682 L364.4372788047997,189.30801134804278 L361.2669351783536,191.25629052606996 L360.37160230016434,192.77800919525484 L360.07347149933867,194.15594342325693 L359.81201925129596,198.38560240138483 L358.95430540160226,199.3357779168679 L355.3729738888444,202.28216075743913 L353.91805796178664,206.27457540761512 L351.6430472135303,208.12819649519713 L349.8900004856464,209.0783720106802 L347.6516682901729,209.74337505115065 L345.5628717329689,210.6468206232493 L341.34765959006404,212.9749303667345 L339.10932739459054,215.3042383138962 L337.5424948577596,217.25251749192336 L335.7894481298762,218.39320739197373 L329.5973560395407,220.38941471706158 L320.64496773335884,222.19510765758287 L316.35545800917623,223.24113946718742 L314.93722063490134,224.04872874516465 L312.81174552491404,225.9023498327462 L311.95309119950764,227.23235591368731 L308.40937871524534,230.65442561383844 L304.6418330114358,235.16925706697901 L303.89603577151536,236.73770567954813 L302.21728662491046,241.10995089518235 L301.65770357604197,243.29547440116121 L299.4203118562806,246.28978538879335 L295.9508969532966,249.42668261393183 L292.295267859261,253.3232409699861 L286.84897300884643,256.6506525796919 L285.91696157787374,258.1232448981391 L284.98400967118914,260.2620384607338 L284.6482598418679,262.16358769537624 L283.67862938240023,264.44376929180044 L282.0374992642903,265.9654879609854 L280.3954286704683,266.20273228893706 L275.43441928764366,265.2992867168384 L273.5318369214908,265.4418729543445 L271.07061198218264,266.8210053860234 L270.24957668527145,268.0084252294579 L269.9138268559508,269.29170136701435 L269.6899936364034,273.56928849220344 L268.75798220543095,275.28032334227896 L263.2740683265207,276.89550189823245 L260.73760533022164,277.1806743732451 L257.64155928505386,277.27533246369023 L254.13546582928714,276.6103294232198 L250.3679201254775,275.4696395231694 L247.60762390963097,274.804636482699 L245.48120832393084,274.5194640076863 L241.0045439329839,274.23429153267386 L239.5872470344217,274.3289496231193 L237.46083144872154,275.1377371047726 L235.37203489151747,275.37498143272404 L233.91711896445923,275.0898089577114 L232.23836981785428,273.33084596057523 L230.70915630951814,270.6696355950165 L229.14232377268652,269.3396295140756 L226.30772997556164,268.578770179483 L223.6593503694891,268.8160145074347 L220.89247082365597,269.3683864023119 L221.89972031161906,267.7052796992974 L222.94458882807717,263.7595949925055 L223.09318399063395,260.76648220854975 L223.6160884867196,258.8649329739073 L224.17567153558755,253.5425122427899 L225.55534940565474,250.78544558310946 L227.49555080030257,248.26682145505697 L229.4724307477333,245.36836676154653 L230.25584701614912,240.94819339885157 L230.33014459742745,238.62008365536641 L229.65864493878559,237.95388241121947 L227.9798957921806,237.43146560825508 L225.4810518243764,235.24594210227625 L223.31701721018126,234.91284148020287 L221.414434844029,233.67749348970713 L219.81092375441452,232.25163111464408 L219.88522133569285,230.0649094049887 L222.30976772221817,224.2200718709073 L224.10043347859707,221.9866202178677 L228.27802659300625,215.61816767714538 L229.88247815833287,212.43334230494597 L231.52360827644284,207.9664389988666 L232.3813221261365,204.5443692987152 L232.90422662222215,199.3166066580435 L233.4638096710907,198.27177305211504 L235.25353495175696,196.65539629248474 L236.33602249671054,194.89763149902464 L238.31290244414126,189.29003829289533 L239.1329972653404,185.8200404456828 L239.05869968406205,181.16262275503615 L239.73019934270394,179.16641542994805 L240.9612820502143,177.36072248942722 L241.74469831863013,175.5550295489064 L243.1619952171923,173.27364974880547 L245.73607724198703,170.56451123618592 L247.86249282768668,167.80864278018203 L249.24217069775386,164.86225993961082 L251.0328364541328,163.05656699908977 L252.74826415352106,161.77329086153307 L253.97276353104488,159.74113742614944 z"/>
	<path id="amasya-tasova" title="Taşova" class="district" d="M529.0271118019564,313.4958314013188 L524.0284833906364,313.4958314013188 L521.3801037845637,314.44600691680165 L520.1866401055485,315.53876866979135 L517.0905940603807,316.63153042278054 L512.9496794987549,316.822044807348 L511.15901374237603,316.1091136198164 L509.41443129590414,316.175014822025 L508.43633655502504,314.22553744032155 L506.9814206279674,312.2772582622942 L505.4888856724142,310.9460539776765 L499.85637663094724,308.47535799668526 L497.7299610452477,307.66776871870854 L495.49256932548633,306.00346381201746 L491.79932120295507,302.9144947339397 L488.3647039013292,298.4619698719786 L486.88721655717404,295.18128820565727 L485.3514197188514,293.7470384048587 L483.51843255541564,294.17000430267126 L480.98196955911635,295.8343092093626 L478.06273294787684,296.86955718587865 L473.1769616220429,294.4563749813607 L472.38131916936595,292.72017785407803 L470.032951315544,290.45197829441906 L469.5410825179672,287.5571182119384 L467.57172637623535,286.92925948544007 L463.17782384797806,284.0343994029594 L460.79183696565997,283.40654067646113 L455.41419684224934,283.2136298845405 L452.45922215393955,281.1395393204789 L449.9218186819277,281.28332376166145 L446.81636787963635,282.58696936171896 L443.74853610584057,281.8632543410989 L442.3848463228836,280.70459138590064 L442.00583461079293,279.49800028364166 L439.92362138357544,278.2926073850587 L436.8172301055715,277.3268552217808 L432.1590539021346,273.2733321841022 L428.1441630859681,271.5850632038803 L425.492962052758,269.55770258320257 L425.152509844875,267.82150545592026 L425.3039264345688,264.97457352050037 L424.812057636992,262.9376272704106 L424.80453383129316,259.00272639670715 L425.58795009970845,257.00651907161927 L426.5575805591766,255.39014231198925 L428.94544839291905,252.63427385598507 L429.8031622426132,250.5901383838362 L430.62419753952395,244.93461703064528 L432.56345845845965,239.18443758700903 L433.90645777574355,237.1415003185363 L436.2567065809909,234.3844336588558 L436.4429207720426,233.33960005292758 L435.6971235321224,228.06390926519492 L435.65950450362686,225.9730438496612 L436.4429207720426,222.1711435840523 L436.8162896298595,219.08217450597476 L436.77867060136384,217.56165404046635 L435.65950450362686,214.75665923372472 L432.04149443808683,207.8657898900383 L430.7727927020808,205.01406513991245 L429.1692816124663,203.1616422560072 L425.96131895752524,201.16543493091888 L421.26082134703097,197.98060955871966 L420.96080959478047,195.79268964538778 L422.07621378966724,196.62544120057166 L424.38320071214514,196.4780621483592 L430.1878168089779,194.2745655872327 L433.0336963146516,192.85349602687583 L437.99282474605127,192.0698708224294 L441.299537350793,191.13886656577074 L445.8749516915401,188.0043657479856 L447.79728404765297,185.89792368465703 L450.4879850607829,183.79148162132878 L451.37297270613624,182.76342286687142 L451.7952463009965,181.29322695577707 L453.17962654962537,179.82422924835947 L454.5254472940468,176.4440966768866 L454.486887789839,175.26865887021722 L455.5251729763105,173.3587222098387 L457.94689793569944,170.32127588985176 L458.331552502064,169.09671173244465 L460.561420416126,165.66745281023475 L461.2150510362329,162.63120469392413 L462.71510979748484,159.25107212245123 L463.5991569671261,156.06744495392834 L463.56059746291794,154.35281549282348 L464.1371090746094,150.6791230206024 L465.7519058727722,148.62180730801137 L466.9820481045706,146.17267899319765 L467.05916711298585,145.48730649022622 L469.09717798172176,143.23348537468524 L470.09690366398604,137.84516344135955 L471.4041649041992,132.40771515729585 L471.94211701168285,131.13522285282804 L471.4041649041992,128.78794185051868 L468.53571398142833,127.50346750928544 L466.4234055314147,125.89667637906746 L465.19326329961643,123.80820737088683 L465.3512632192969,122.12113659434198 L466.9275005132521,121.117041913415 L470.9442722808434,120.92173471414176 L475.5018175830554,120.2998670060261 L478.1868757419114,119.72952205600103 L486.690657133286,120.24834424793553 L491.2077619798655,120.76596823619394 L493.56741554223663,120.24834424793553 L496.8628424384293,118.22577644196397 L498.53124635219865,118.17425368387364 L500.4846144068197,117.70815245370608 L501.66397095014906,118.1227309257833 L505.6628736792053,118.60800341477508 L509.54327646850095,116.04744215804439 L511.31231128349464,115.55857505802275 L514.2719883503667,115.95038766024592 L515.2096426356132,117.15098774412245 L515.6573090747078,120.05064064130924 L516.9260108107137,121.90426172889126 L519.896033110422,124.360579265764 L522.719341198998,124.80151821872472 L525.8454824669619,125.93981171142248 L528.0142194597192,128.17446156813833 L530.6296824158587,133.6202972779378 L532.6394790132226,136.05983996333944 L534.3304543440888,137.4006298773692 L541.0247604648372,139.35490007377905 L542.4326526062756,139.92045220909796 L545.6227462226817,142.1143631408126 L551.7010407518184,149.18136842494806 L553.2575280558137,151.756308125797 L553.2575280558137,152.83469143466817 L554.7961463212736,156.41013120541405 L555.179860411926,158.27094151505528 L556.2181455983979,160.18207637911036 L556.5642406605549,161.60194773579045 L558.2561564671337,164.10020240134193 L557.9486209091839,165.7657055117095 L556.6028001647626,167.13764872132865 L555.065122375015,171.10490109429816 L554.3729322507006,172.03590535095682 L554.2572537380776,173.84878751353693 L556.7137762988239,175.67245350920584 L556.7711453172793,177.32597458280802 L558.2994183499032,179.0897303946506 L559.0781322397573,179.34614598142693 L561.3268096680665,179.2359112431865 L563.0281302317688,178.28094291299726 L564.8347840752587,178.11079799093096 L564.8535935895059,180.40415982779666 L563.980832128414,181.89232879403892 L561.8421903584529,182.1870868984639 L560.5575005353367,182.7921797551084 L559.8653104110222,183.96042833971833 L558.7903466717678,190.33966471352952 L558.5759182093442,192.54316127465626 L558.4903349195174,199.6017791330559 L558.8176204674265,201.9969882824267 L559.5286201059888,203.22634525453975 L565.1235101189602,208.72370372242932 L566.8925449339542,210.26818826146783 L570.8171500817322,212.61067644907152 L574.2856245090035,214.31572028076448 L582.4028703825884,217.18421988236142 L584.6807025579818,218.81617328978655 L586.7939514837086,221.23295010533414 L587.9535580370776,221.75896151932812 L593.4440552459745,222.29336035905763 L594.7720069518606,222.95117417746906 L596.6877559779862,225.06121085182673 L596.8739701690384,226.0820803842246 L596.493077505523,228.5395961247744 L594.4522452096503,229.84563813218512 L590.8088422998752,230.75986753737223 L588.9946646506867,230.24104534543773 L587.5152963551067,229.18303149906754 L586.8569633564381,229.43345606746095 L584.4117265042403,231.47160052122732 L583.127036681124,232.15697302419875 L581.9852991662901,232.25762213302656 L579.5137289941451,231.66331310947112 L576.4948019573934,230.26381121529175 L571.8441495596552,230.65322741016192 L570.0995671131832,231.19721187930355 L569.1205318965915,233.37195155219374 L568.0794252829826,234.7379037434304 L567.0025805923034,237.90595426415848 L565.0172363634608,239.6062052811453 L562.8231065264694,242.11404557610913 L561.8901546197845,243.5866378945563 L558.9436442128859,249.621989813205 L558.1969064972534,250.85853600737758 L555.7723601107276,256.56078730395245 L554.952265289529,259.93492885704285 L554.8770272325385,262.2163086571434 L553.6092659722452,272.6718339384873 L551.3333147482762,279.27753080716104 L548.4244233698729,288.21253562299654 L546.9695074428151,294.8661606387318 L546.5961385849989,299.71289451026894 L546.2603887556777,301.13875688533193 L545.1788416864363,303.7532373075061 L543.3138783487796,306.5570339105712 L541.9708790314952,309.7406610790941 L540.9260105150365,311.07186536371177 L539.0610471773798,311.9741127321339 L537.0841672299485,312.5923858292201 L532.3093720381759,313.54256134470296 L529.0271118019564,313.4958314013188 z"/>
	
</g></g></svg>