<svg xmlns="http://www.w3.org/2000/svg" version="1.2" baseProfile="tiny" width="600" height="600" stroke-linecap="round" stroke-linejoin="round"><rect id="backgroundrect" width="100%" height="100%" x="0" y="0" fill="none" stroke="none" class="" style=""/>































































































































































































































































































































































































































































































































































































































<g class="currentLayer" style=""><title>Layer 1</title><g class="city city-8" id="artvin" title="Artvin">
	<path id="artvin-savsat" title="Şavşat" class="district" d="M381.29270559524065,96.2715734489425 L383.73390583765723,95.20366155151626 L385.99024037817696,96.70935721927574 L388.6834417616001,97.93555249361874 L392.1725386405585,96.30262904821109 L394.4483327286469,96.71236259985035 L396.33785479750736,97.83136596704058 L398.2351606853964,98.64983127679429 L400.6306309910284,98.44847077831137 L401.953880225658,97.78728705194997 L403.0163715228755,97.706141776442 L406.31573781304513,98.48854251930294 L409.5285091165362,98.34829142583241 L411.2613818274742,98.06778923889128 L412.52625241939984,97.18621093707598 L414.29804422547414,96.64424064016455 L416.1865933169575,95.20165796446686 L418.192872671227,95.14155035297945 L419.1463905020629,94.69975940854704 L420.9765609508423,96.20345148925693 L422.5342977336672,96.90570875013468 L425.63031175175036,97.62700008798343 L426.4086936544732,98.54965192431516 L427.42156310539235,100.77463534287378 L428.35562138866055,101.67624951518486 L428.82362350767283,103.6006948763066 L429.9911963617582,104.44320323065513 L431.2959590261994,104.28291626668859 L432.67564094877673,102.73113809678891 L434.06018775824595,102.28033101063326 L436.0158722888389,102.30437405522844 L438.2469094175199,101.31560384626056 L439.72291610055936,102.10301355674551 L441.51805936371505,101.77642886766402 L445.2562384515455,103.24004920738233 L450.39647794165523,103.05972637292021 L453.53141105487373,104.18273691420981 L455.6923938123105,104.2428445256972 L456.919318286478,103.28012094837392 L458.30191914119087,103.13986985490334 L459.46949199527626,103.74094596977716 L462.09847687172527,103.6006948763066 L464.6875696756588,104.96413586354595 L466.0108189102884,104.97816097289295 L467.0246613385868,106.2073616278105 L468.1143960023994,106.32757685078526 L469.53591595224754,107.81123306099938 L471.32716730589055,108.07169937744467 L473.15733775466884,108.81302658578942 L475.5333485127322,109.41510449418824 L476.4771365697853,110.73045939223756 L478.72568729127755,112.04080532266295 L479.95261176544494,113.86507133130573 L480.8681834785237,114.10550177725526 L483.1848426165049,113.50442566238124 L485.4820422069173,112.66191730803274 L488.3640012017511,112.68195317852853 L489.8828188894407,113.4413126703193 L491.5096370661326,113.81999062268994 L492.1216398371491,114.5062191871711 L493.67937661997405,114.64647028064186 L495.66327749454143,115.42786922997817 L496.7812285023272,115.18142802287971 L499.32556434685534,115.28861993003225 L501.85725148546305,114.28582461171756 L502.8302288638676,116.029947138377 L503.6874219342413,116.07001887936856 L505.9846215246548,114.94801013160355 L508.1456042820905,115.00811774309093 L509.4698264940994,114.76768729714144 L509.9173960881648,115.44890689399858 L511.0402119828437,115.55108983352736 L514.3668216396084,118.30602202669984 L516.3234791475795,118.07460772247347 L517.7449990974287,119.5382280621918 L519.5557099986395,120.44084402802751 L519.5167909035033,120.82152556744778 L522.8268599448347,124.2496630092794 L524.615192366342,124.18554822369285 L525.2943305764682,125.17031125856147 L527.8182338960494,125.1422610398673 L530.195217631491,126.68903024214313 L532.2696054022492,126.18412630564893 L534.1143705117033,127.1408391218234 L535.2508080896798,126.98355753843148 L536.91557238413,127.64073409069383 L538.0938479893771,127.69783632160664 L539.8130990170187,126.66999616517217 L542.862410120938,126.48165898251162 L543.8645768206941,125.40773632393663 L545.1479339828093,125.62312193176655 L546.0138838495898,124.23663969345701 L547.8401623888542,123.84994739288813 L550.9283925879099,125.62312193176655 L552.4725076874372,124.95692923778117 L554.2666779732158,126.01983216758342 L556.0199832090996,126.10598641071536 L557.7771803544981,127.28109021529417 L559.4234580787588,124.6153176458277 L559.4886475631122,124.17452849492022 L562.1332000776151,125.40873811746141 L566.330624488051,128.27286580483624 L567.2413313142379,130.59001422767565 L568.0761459049083,135.82338360117907 L567.5127920028133,138.32386023905482 L567.1508444180456,141.34727309687136 L566.9494381007169,145.03387326809874 L568.1160379774228,150.91540305214116 L569.488909058352,154.65209289960808 L569.6854504887901,155.1409681397057 L576.9263481388753,161.39516511496998 L579.1797637472594,163.71531891838382 L585.2540615206385,169.26525504572072 L588.1905072486627,172.41289030061125 L590.7659783692984,174.9404153636564 L595.1910794862824,178.33649541269466 L596.5590856803185,180.28298023136182 L596.8003840701631,181.56727953014274 L596.2769222405814,184.67384125051652 L592.3344179032865,193.6208592204167 L590.6044641244841,196.97586573493854 L587.4899635362115,200.59334215295553 L585.8981725451422,202.44365479324267 L582.6795633773797,205.46706765105904 L580.5069048914029,206.83451581239757 L578.8577082350077,207.45562779776736 L571.5360534625152,209.40211261643452 L567.3522507353757,210.9759302438798 L562.0816322765593,213.70982477303187 L558.3405342565945,217.52064734133313 L557.013393112451,219.0944649687782 L556.0073345031813,220.8345803213386 L555.4040885285704,222.40839794878391 L554.156731529456,224.76962528671407 L552.6281840679826,226.6339630363483 L550.5761747769275,228.62152138953158 L548.2030829509997,230.15426548246066 L538.8693109599656,236.61583371735648 L527.323961387819,246.05974127555228 L520.5247954675292,252.81182963263737 L511.5130789887478,263.04214510779326 L507.37014131150227,268.84152782280313 L505.4368352606124,271.76977029576454 L503.8362874731374,270.7248996494084 L497.7775573378133,267.30778193634967 L493.2240232068811,265.55965223559105 L489.943143486901,265.4805105471325 L487.0874548812842,265.63979571757403 L483.61392564038084,266.23486107129946 L480.7582370347641,267.1094268184411 L478.7519576804945,267.46706710679103 L475.7415656717115,267.38792541833266 L471.45851925197536,265.91729252394094 L469.490186015463,264.84437165889074 L466.8271469307705,262.5001748108821 L462.7746961497159,256.7388602498144 L461.2315540275667,254.31552171334727 L458.76116446379746,251.692826265447 L455.6739072421211,248.6724187882048 L453.4749783669272,245.17615938668737 L451.50664513041477,242.3551088208787 L449.499392798766,238.9379911078199 L448.22576541043463,237.34814478397806 L444.5216405308498,233.69260021201907 L442.8617411232916,230.99076307566017 L440.8934078867803,228.1306425623846 L438.2790176710069,225.06916155062618 L436.1228998004631,223.6105501785319 L435.07694911867884,221.8884671094177 L434.7636504028317,219.8077419584288 L435.00786772481183,218.8750721868493 L432.4294776720403,217.29624559178026 L432.11520597881486,216.50683229424567 L430.96611969492017,215.93280460454088 L426.81929010816077,215.21552044079112 L426.22674688471193,214.6054281841941 L425.46004071052926,211.484841354473 L426.08761111960075,211.05407013881333 L426.0175567483555,208.64976567931717 L425.7392852181319,207.93248151556742 L423.5442482524507,206.31859214713074 L422.6792713630495,204.92509735414762 L422.01278185884286,204.62155391613632 L421.06412891489884,202.85639372545612 L419.32055345279787,201.90569167043046 L416.27124234887845,202.22927097893773 L411.67976210018816,201.60415181946854 L408.9476416216286,201.98483335888884 L409.09456120576726,199.00549941616325 L408.82504647194946,194.39624740860418 L409.94397045711463,190.58141766620372 L410.17553907317534,187.91965227083642 L409.4419141298579,185.41617025238622 L402.4179904351566,171.62848597070035 L399.60122092467617,167.4560159399499 L396.59082891589316,164.43661025623274 L394.0445471166087,162.1715550966823 L391.65102276573407,161.0585624906405 L384.628072048411,159.23129110142352 L378.7619914340112,158.07922854791494 L375.63581511719724,157.28380448923158 L372.58747699065714,156.7678808239648 L368.9212982288294,157.2447345417648 L366.4518816424384,157.28380448923158 L364.67619792685036,156.9662359418733 L362.6884051427703,155.65889539202215 L360.1469882303789,151.9682880466956 L359.3131466170855,150.44456009548995 L357.64351743574343,148.7465200709707 L357.1502179048924,147.866945356205 L357.0558390991876,144.82149304084322 L361.13358729207994,140.7011162733818 L361.8166174117198,139.34669142786566 L364.24419597083886,136.37837721391267 L364.6489545602552,133.9309956328505 L364.3200882063552,130.80640162903035 L364.9272260904787,129.08832573401534 L365.53339099722507,128.5934397327691 L370.03535732710264,126.56280425801961 L371.8052031784195,126.17210478335153 L373.65094126525275,124.76558667454621 L374.5869455032774,123.20379056939856 L375.95203276517896,122.29215846183969 L380.65637838976454,120.78245561998098 L382.6539009476285,118.7257735135869 L383.2357414199143,116.56390308709001 L383.26103883175307,115.52303961483315 L382.7550905949826,113.12775129706019 L381.79378894511916,111.30448708194221 L380.93367694261,108.77896560594645 L381.23724588467223,105.49809181225896 L380.8830821189324,104.30094855013498 L380.7575680371187,101.2544944412482 L381.21194847283346,98.23408696400644 L381.29270559524065,96.2715734489425 z"/>
	<path id="artvin-ardanuc" title="Ardanuç" class="district" d="M408.9476416216286,201.98483335888884 L411.67976210018816,201.60415181946854 L416.27124234887845,202.22927097893773 L419.32055345279787,201.90569167043046 L421.06412891489884,202.85639372545612 L422.01278185884286,204.62155391613632 L422.6792713630495,204.92509735414762 L423.5442482524507,206.31859214713074 L425.7392852181319,207.93248151556742 L426.0175567483555,208.64976567931717 L426.08761111960075,211.05407013881333 L425.46004071052926,211.484841354473 L426.22674688471193,214.6054281841941 L426.81929010816077,215.21552044079112 L430.96611969492017,215.93280460454088 L432.11520597881486,216.50683229424567 L432.4294776720403,217.29624559178026 L435.00786772481183,218.8750721868493 L434.7636504028317,219.8077419584288 L435.07694911867884,221.8884671094177 L436.1228998004631,223.6105501785319 L438.2790176710069,225.06916155062618 L440.8934078867803,228.1306425623846 L442.8617411232916,230.99076307566017 L444.5216405308498,233.69260021201907 L448.22576541043463,237.34814478397806 L449.499392798766,238.9379911078199 L451.50664513041477,242.3551088208787 L453.4749783669272,245.17615938668737 L455.6739072421211,248.6724187882048 L458.76116446379746,251.692826265447 L461.2315540275667,254.31552171334727 L462.7746961497159,256.7388602498144 L466.8271469307705,262.5001748108821 L469.490186015463,264.84437165889074 L471.45851925197536,265.91729252394094 L475.7415656717115,267.38792541833266 L478.7519576804945,267.46706710679103 L480.7582370347641,267.1094268184411 L483.61392564038084,266.23486107129946 L487.0874548812842,265.63979571757403 L489.943143486901,265.4805105471325 L493.2240232068811,265.55965223559105 L497.7775573378133,267.30778193634967 L503.8362874731374,270.7248996494084 L505.4368352606124,271.76977029576454 L501.8183323903266,279.36236342014837 L500.32967700136885,282.1373314838168 L498.4790740276437,285.99022938015946 L497.75517885811,289.0136422379757 L497.5936646132956,292.61709354664566 L498.11712644287627,295.80680412957713 L499.20296919717623,298.95443938446755 L501.4563848055604,302.22729882995657 L502.42157836493743,305.2096381532568 L503.10558146195547,308.5646446677787 L502.94406721714114,310.8427231431511 L502.0187657302785,317.4695873096374 L500.69162458613516,321.9435971913499 L495.94446795689936,332.04969026943195 L494.2544062506115,334.53514000443624 L492.36391120437185,336.8963673423662 L490.59406535305385,338.7607050920006 L488.0594592823106,340.66611637615136 L485.4042040166446,342.4463034697032 L478.4493617158103,340.37860163453644 L476.17259465034374,339.86167617574483 L466.56347006122274,339.2656090284946 L461.4689605078976,338.748683569703 L454.9470931404529,337.71583444564453 L447.1905174798135,335.3315658566442 L441.9422775007002,332.03366157303526 L435.3046258252247,328.77582903041804 L430.5963882911264,326.7892724707595 L428.7058932448867,326.11406363505085 L424.61452336869564,325.1994261469174 L419.5589329105068,324.64343074065897 L414.1569625056056,324.7225724291176 L409.64137449243043,325.0802127174675 L405.35735509531617,325.9948502056007 L403.5057791442128,326.19320532350923 L401.22803910136804,325.91470672361777 L398.1028357619335,324.36493214076734 L395.7482305061953,323.7297950460505 L386.1011597993149,323.4512964461588 L383.36028252434977,323.9682219049506 L379.6172385496285,324.36493214076734 L377.1857680809957,324.28579045230913 L368.85027088020604,323.5304381346174 L364.33565584440913,323.8880784229672 L360.5536927745516,324.4450756227505 L357.2728130545715,325.0802127174675 L354.22447492803144,326.19320532350923 L351.9477078625648,326.55084561185936 L348.8604506408872,326.7892724707595 L345.4637866128773,326.55084561185936 L340.9491715770815,326.07399189405913 L338.015644781192,326.19320532350923 L334.7620084278082,326.9415450865274 L332.5659984847498,323.91612864166143 L331.75064344164593,321.8173712072263 L331.5181018482082,318.6106301343732 L330.3242586049058,314.6535457114525 L327.9375450956795,312.61489588850486 L326.5977552456166,312.07593097216767 L323.94833784422184,309.46826242713917 L323.483254657344,307.9395255083095 L323.30811872923204,305.6313932271934 L323.4540653359926,300.89491344198586 L321.82335524978686,296.51907932570293 L321.88173389249084,294.2700528625491 L322.4927636861292,291.9919743871767 L322.0276804992514,290.0434859814599 L318.91220693360054,286.8968525200944 L318.1260412118503,284.1389149463473 L318.3011771399622,283.15014473737966 L320.25102380628516,281.41103117834405 L321.124757492092,279.7620790365396 L322.37697937809827,278.38361114642845 L323.30811872923204,276.73465900462406 L325.66661589448404,273.1983278621151 L325.75321088116135,270.3201750653934 L324.2110417363914,265.9443409491103 L323.33730805058354,264.4747098482432 L321.2707040988525,262.4370618188203 L320.42615973439825,259.0800517172487 L319.66918333399946,257.370991963957 L319.1739378483909,254.58300058446616 L319.0610724724966,252.61247272120409 L319.6750211982695,250.3524265292778 L320.472862648561,249.1893442469964 L321.9576261280061,248.60028965442 L324.94272072495147,246.04371257915568 L326.50726834942566,245.13508585217116 L329.0905232890891,244.59311555525957 L334.1538975663054,242.70673834808 L335.6444989100207,241.62880851540595 L335.3633084476615,240.25434779939405 L335.5890391994522,239.3587443882317 L338.5410525655301,234.3838377441242 L339.4644080976364,233.12257969641342 L343.6978326710742,227.9342910315258 L344.7885403122649,226.96856207362814 L347.4807687183099,225.4187874907781 L354.3042590730604,223.15273053770284 L356.8972437865077,222.47151094084566 L358.69725193655637,222.23608946251994 L363.7839776708541,221.94456754680604 L365.6151210970105,221.40460083694424 L367.6428059536062,219.64945858151208 L369.91373515480166,217.4044392924574 L373.52542718343915,215.574162522666 L376.97268603512555,214.1796659361583 L379.1395066568324,213.67275841261448 L382.2900074081047,213.6356920521973 L383.75920324949607,213.2520051322026 L387.5586799121649,211.0931400862801 L392.3972964149699,209.7847977429042 L395.17709278507135,208.72790557425094 L396.40109832710436,207.99158733353 L399.11959712236626,205.80467206891333 L401.1891200062317,204.51235842193418 L404.0564843403898,203.25711113537218 L408.9476416216286,201.98483335888884 z"/>
	<path id="artvin-arhavi" title="Arhavi" class="district" d="M101.83414296993378,272.95389024206634 L101.50722257079013,270.5375642602726 L101.00224731139781,268.8866085314187 L100.34937949048863,264.8804362257833 L100.4972720520066,259.9866748571838 L99.90375585117955,255.6449017207438 L98.00255805377675,251.91322084090072 L90.63711929925609,242.55546752583686 L89.77506134198941,241.2711682270559 L87.66661936298763,237.23494211567663 L85.67688062415016,233.10655100001688 L84.63676780663592,229.40592571944248 L82.8552462267778,226.13406806747807 L80.7166419490453,223.5644676763915 L77.80549363285898,220.69032205376888 L74.56839789490826,217.99950464618277 L70.7660023001038,214.26782376633986 L69.60815921980233,212.0358277931076 L68.92512910016244,209.74172062133837 L68.68674964245348,207.9074366774478 L67.7964753412135,205.12445426558097 L66.42944212455559,202.9836215031045 L64.85613770367463,201.27155636923828 L61.35050020928424,198.24313454379788 L59.56897862942614,197.1431652535785 L57.75729475083731,196.4088505999073 L53.56862713680593,193.01377234439386 L51.965160417195385,191.1794884005033 L50.71780341808103,188.09095896357556 L49.7380151980282,186.25567322616018 L48.78741629932681,181.91289829619524 L48.13357550103947,180.38416137736553 L44.598748685295426,175.64367441805894 L43.14414750458098,174.17604690424147 L42.69755088789376,172.79056645945695 L46.266431911881156,168.7182757811853 L47.90687177187065,167.46603387519772 L49.65044723397166,166.66560084889062 L52.0858096121171,165.09679218906933 L55.68485293483521,163.85456821832955 L60.59449678626356,162.69950028424657 L62.009205894463484,162.8437585518165 L63.490077464394886,161.90006905146421 L65.86122333556737,161.56747360123376 L70.53735261617867,158.83157548503226 L75.23294144435756,156.99128077999288 L77.17986917854492,155.96143703650884 L78.22679283770852,155.13195199798253 L79.05868849624451,156.81897229372913 L80.67966880866527,159.26234670069192 L83.34270789335882,161.22886738985483 L84.78952525504577,162.65942854325516 L86.58466851820145,165.90824494414926 L87.5109429824433,167.2195926680994 L90.66533564322938,169.15605955151858 L92.60447955838924,171.39106090532522 L93.70394399598676,172.2856625229627 L95.29670796443423,172.82162205872532 L97.14828391553868,172.3147145351817 L97.87217908507124,171.51027433477518 L99.75391733490528,170.70583413436884 L100.6510024777946,169.72207289302497 L100.91176041520679,168.59004621001216 L100.30364955370403,167.01021782141845 L100.62181315644204,166.1466718030492 L107.22054573678007,165.25207018541192 L109.53623189738305,164.80527027335543 L118.3932449729982,164.03088387869272 L121.28785267375137,164.83532407909905 L124.90538256665894,165.40133742060544 L126.75793149514044,166.44420447991206 L131.93903603514408,167.69644638589963 L136.51202971364495,169.8713401282187 L138.50857929413064,171.3620088931062 L141.31853796296173,175.2159085829737 L138.95322995606156,177.10028220310366 L138.06587458695606,179.84219108045414 L136.4059751793978,187.8284890600806 L135.44078162002072,190.61046967842248 L134.8239139621123,191.72246049093954 L134.8239139621123,192.71623966753117 L136.05862225530836,196.01414395114006 L140.11107303636194,202.13309880055795 L141.69313425364746,205.43100308416666 L142.96676164197876,209.0865476561256 L145.55196253639951,214.8478622171933 L147.28872715685125,218.2649799302521 L149.75814374324221,222.47752170199448 L150.68441820748296,226.7281316276786 L151.14755543960337,230.42374794062897 L151.34117793790588,235.7082087838966 L151.41804315079935,241.2711682270559 L151.18647453473972,244.37071739275623 L150.22128097536265,248.0663337057068 L147.8676486970014,254.38364367303302 L143.8930361062206,261.0986656697008 L141.22999702152705,264.7942819826513 L140.0332348460903,266.8199084897768 L129.9998921199842,267.49611911900996 L127.49155643845683,268.131256213727 L122.01174784328393,270.9923785205272 L119.65714258754569,271.7076590972276 L110.74272384660472,273.25743368007767 L107.65546662492717,273.5359322799693 L101.83414296993378,272.95389024206634 z"/>
	<path id="artvin-merkez" title="Merkez" class="district" d="M334.7620084278082,326.9415450865274 L327.48024572782913,332.0737333140271 L323.838391400462,330.35064845138805 L321.56065135761725,329.6754396156795 L319.9017249274383,329.6754396156795 L318.3576098279099,330.31057671039633 L316.2744652607458,330.6682169987466 L312.2220144796923,330.62914705127963 L309.4052449692118,329.79465304512945 L307.4748578504576,329.516154445238 L303.5771104725691,329.3177993273294 L296.707890181034,328.60251875062943 L294.62474561386995,329.19858589787947 L291.0743511600731,332.4964901814883 L290.53337573768005,333.56941104653856 L288.4502311705159,334.7615453410388 L285.8251382035817,334.4039050526885 L283.85777794444743,333.8078379054385 L279.99797668431717,331.26428414599656 L277.79904780912324,330.469861880838 L275.44444255338504,330.35064845138805 L273.0129720847522,330.469861880838 L268.9225751859405,329.7155113566713 L267.7647321056389,328.7217321800794 L266.0279674851873,325.66225475537044 L264.8321782871286,322.56270558967014 L265.0248278080519,320.29765043011986 L266.95424194942797,317.3183164873941 L266.9162958316698,315.649328475094 L265.2174773289763,311.3977167558849 L263.36590137787294,307.46367358403427 L257.53776688123025,302.49678128812513 L251.0937377040584,299.8750876337496 L247.73599277118484,298.36438299836607 L242.68040231299602,296.8947518974991 L241.56147832783088,295.9410444618989 L240.13314753633338,294.15284302014874 L237.74059616283697,291.64936100169837 L235.42588297961214,290.1797299008313 L231.95235373870878,288.70909700643955 L228.67244699610794,288.0739599117228 L222.3043100544514,287.557034452931 L221.06960176125534,287.59710619392257 L218.7539156006535,288.31238677062277 L215.8593078999003,289.46444932413135 L210.2257688789394,289.78201787148964 L209.33744053245573,289.62373449457283 L205.5554774625982,288.11302985918945 L202.50713933605698,286.6433987583225 L201.19459285258932,286.6033270173309 L197.45154887786813,287.67624788238095 L191.46968395543738,287.437821023481 L187.49507136465547,287.9547464822728 L186.1445787634307,287.7553895708395 L181.47526032446763,286.24568672898084 L179.46800799281996,285.4512644638223 L177.3838904482777,285.05355243448065 L172.86927541248085,285.2919792933808 L169.9357486165913,284.37834359877206 L167.9294692623218,280.6035855973633 L166.92632958518755,279.45152304385454 L165.61378310171992,278.4908030535809 L166.58676048012342,273.33056460738743 L167.75822524372245,269.79623705192824 L168.8469869301569,264.79728736322573 L170.5633190256628,262.12450223908564 L171.48375562563345,261.1768055646345 L173.11641166659544,260.443492704488 L177.7633516258553,256.6507024196328 L179.18584455308272,255.3153116510877 L179.93990202134594,252.34098667598616 L182.66034677136426,251.65175273093035 L186.92977150780283,250.18612880416265 L188.52058952149397,248.41896502643286 L188.93896979420794,245.661027452686 L189.65118923520032,244.66925186314373 L190.153245562456,243.20362793637585 L189.86037937155677,239.23852916525678 L191.07465513980594,236.3513602268118 L193.04201539893907,233.9380396255926 L194.59002240798014,232.4724156988247 L199.5298285581392,228.85193390023352 L201.53902684454428,226.65399890684424 L203.0043307764218,224.54221815658678 L205.26455722645534,220.49096514233557 L206.7716991856037,218.93918697243583 L210.0788492947996,217.0858689515741 L212.9248081266326,215.1033195660148 L213.84621770398147,214.06846685490655 L214.5574641675957,212.47461335696565 L215.22687260393693,209.629519746562 L215.7299019085729,208.37928142762388 L217.94829033133445,205.92288370483868 L218.40850863131922,205.061341273519 L218.4503466585912,202.21624766311533 L217.36255794953496,200.06138979129187 L217.02688075398564,198.46653449982622 L217.56785617637874,196.16441297985858 L220.50138297226715,195.48820235062544 L227.60217187986296,194.89213520337523 L233.19776478306682,193.58178927294986 L237.44286508504473,191.55516097229955 L240.72277182764557,189.44939098319085 L243.03845798824855,188.29632663615746 L251.4508204019328,185.5944894997988 L253.1496389046263,185.2368492114487 L257.9736607467555,185.39613438189025 L267.8143539519373,187.1041923416573 L269.8595524013432,187.58104605945732 L279.70024560652604,189.48846093065765 L282.86436804109707,190.95909382504956 L284.75583606471486,192.3896549784499 L289.15466679248084,193.74007264986662 L292.01035539809766,194.3361397971168 L295.25231602294133,194.61463839700835 L297.99222032052836,194.3762115381084 L299.65211972808544,193.66093096140824 L302.1984015273699,191.31673411339963 L304.32143816704854,188.4956835475908 L305.28565874904746,186.54819693539886 L307.98761692887626,182.6942972455314 L309.9938962831458,180.6676689448811 L313.1589916950949,178.36354383786406 L315.2041901445019,177.32969292028082 L318.56096209999623,176.29684379622216 L324.813314733623,175.38320810161366 L331.83723842832427,173.7933617777718 L337.20126271546735,171.25080981185445 L340.3653851500383,168.98575465230425 L343.8389143909429,166.72069949275402 L348.5082328299047,163.93972066793694 L352.63754882385285,161.91309236728642 L358.31000693995117,158.53604639521916 L362.6884051427703,155.65889539202215 L364.67619792685036,156.9662359418733 L366.4518816424384,157.28380448923158 L368.9212982288294,157.2447345417648 L372.58747699065714,156.7678808239648 L375.63581511719724,157.28380448923158 L378.7619914340112,158.07922854791494 L384.628072048411,159.23129110142352 L391.65102276573407,161.0585624906405 L394.0445471166087,162.1715550966823 L396.59082891589316,164.43661025623274 L399.60122092467617,167.4560159399499 L402.4179904351566,171.62848597070035 L409.4419141298579,185.41617025238622 L410.17553907317534,187.91965227083642 L409.94397045711463,190.58141766620372 L408.82504647194946,194.39624740860418 L409.09456120576726,199.00549941616325 L408.9476416216286,201.98483335888884 L404.0564843403898,203.25711113537218 L401.1891200062317,204.51235842193418 L399.11959712236626,205.80467206891333 L396.40109832710436,207.99158733353 L395.17709278507135,208.72790557425094 L392.3972964149699,209.7847977429042 L387.5586799121649,211.0931400862801 L383.75920324949607,213.2520051322026 L382.2900074081047,213.6356920521973 L379.1395066568324,213.67275841261448 L376.97268603512555,214.1796659361583 L373.52542718343915,215.574162522666 L369.91373515480166,217.4044392924574 L367.6428059536062,219.64945858151208 L365.6151210970105,221.40460083694424 L363.7839776708541,221.94456754680604 L358.69725193655637,222.23608946251994 L356.8972437865077,222.47151094084566 L354.3042590730604,223.15273053770284 L347.4807687183099,225.4187874907781 L344.7885403122649,226.96856207362814 L343.6978326710742,227.9342910315258 L339.4644080976364,233.12257969641342 L338.5410525655301,234.3838377441242 L335.5890391994522,239.3587443882317 L335.3633084476615,240.25434779939405 L335.6444989100207,241.62880851540595 L334.1538975663054,242.70673834808 L329.0905232890891,244.59311555525957 L326.50726834942566,245.13508585217116 L324.94272072495147,246.04371257915568 L321.9576261280061,248.60028965442 L320.472862648561,249.1893442469964 L319.6750211982695,250.3524265292778 L319.0610724724966,252.61247272120409 L319.1739378483909,254.58300058446616 L319.66918333399946,257.370991963957 L320.42615973439825,259.0800517172487 L321.2707040988525,262.4370618188203 L323.33730805058354,264.4747098482432 L324.2110417363914,265.9443409491103 L325.75321088116135,270.3201750653934 L325.66661589448404,273.1983278621151 L323.30811872923204,276.73465900462406 L322.37697937809827,278.38361114642845 L321.124757492092,279.7620790365396 L320.25102380628516,281.41103117834405 L318.3011771399622,283.15014473737966 L318.1260412118503,284.1389149463473 L318.91220693360054,286.8968525200944 L322.0276804992514,290.0434859814599 L322.4927636861292,291.9919743871767 L321.88173389249084,294.2700528625491 L321.82335524978686,296.51907932570293 L323.4540653359926,300.89491344198586 L323.30811872923204,305.6313932271934 L323.483254657344,307.9395255083095 L323.94833784422184,309.46826242713917 L326.5977552456166,312.07593097216767 L327.9375450956795,312.61489588850486 L330.3242586049058,314.6535457114525 L331.5181018482082,318.6106301343732 L331.75064344164593,321.8173712072263 L332.5659984847498,323.91612864166143 L334.7620084278082,326.9415450865274 z"/>
	<path id="artvin-borcka" title="Borçka" class="district" d="M381.29270559524065,96.2715734489425 L381.21194847283346,98.23408696400644 L380.7575680371187,101.2544944412482 L380.8830821189324,104.30094855013498 L381.23724588467223,105.49809181225896 L380.93367694261,108.77896560594645 L381.79378894511916,111.30448708194221 L382.7550905949826,113.12775129706019 L383.26103883175307,115.52303961483315 L383.2357414199143,116.56390308709001 L382.6539009476285,118.7257735135869 L380.65637838976454,120.78245561998098 L375.95203276517896,122.29215846183969 L374.5869455032774,123.20379056939856 L373.65094126525275,124.76558667454621 L371.8052031784195,126.17210478335153 L370.03535732710264,126.56280425801961 L365.53339099722507,128.5934397327691 L364.9272260904787,129.08832573401534 L364.3200882063552,130.80640162903035 L364.6489545602552,133.9309956328505 L364.24419597083886,136.37837721391267 L361.8166174117198,139.34669142786566 L361.13358729207994,140.7011162733818 L357.0558390991876,144.82149304084322 L357.1502179048924,147.866945356205 L357.64351743574343,148.7465200709707 L359.3131466170855,150.44456009548995 L360.1469882303789,151.9682880466956 L362.6884051427703,155.65889539202215 L358.31000693995117,158.53604639521916 L352.63754882385285,161.91309236728642 L348.5082328299047,163.93972066793694 L343.8389143909429,166.72069949275402 L340.3653851500383,168.98575465230425 L337.20126271546735,171.25080981185445 L331.83723842832427,173.7933617777718 L324.813314733623,175.38320810161366 L318.56096209999623,176.29684379622216 L315.2041901445019,177.32969292028082 L313.1589916950949,178.36354383786406 L309.9938962831458,180.6676689448811 L307.98761692887626,182.6942972455314 L305.28565874904746,186.54819693539886 L304.32143816704854,188.4956835475908 L302.1984015273699,191.31673411339963 L299.65211972808544,193.66093096140824 L297.99222032052836,194.3762115381084 L295.25231602294133,194.61463839700835 L292.01035539809766,194.3361397971168 L289.15466679248084,193.74007264986662 L284.75583606471486,192.3896549784499 L282.86436804109707,190.95909382504956 L279.70024560652604,189.48846093065765 L269.8595524013432,187.58104605945732 L267.8143539519373,187.1041923416573 L257.9736607467555,185.39613438189025 L253.1496389046263,185.2368492114487 L251.4508204019328,185.5944894997988 L243.03845798824855,188.29632663615746 L240.72277182764557,189.44939098319085 L237.44286508504473,191.55516097229955 L233.19776478306682,193.58178927294986 L227.60217187986296,194.89213520337523 L220.50138297226715,195.48820235062544 L217.56785617637874,196.16441297985858 L216.10157926712304,194.57456665601674 L215.29108911091208,193.3032906730582 L213.67010879849022,188.4956835475908 L211.7796137522505,185.19777926398174 L210.19755253496504,182.019088409823 L209.1934398804515,180.50838377443955 L206.68510419892527,177.76747669061402 L205.4893150008667,176.85283920248054 L203.09676362737025,175.54249327205522 L202.32421958891643,174.3894289250218 L199.8158839073902,172.3638024178965 L197.3075482258639,171.17166812339627 L193.98872238812675,170.41631580570453 L190.94038426158554,170.65474266460464 L186.4247962484105,173.23736637151336 L182.52704887052312,174.58878583645512 L180.3281199953292,174.0718603776633 L177.9735147395899,173.99271868920493 L174.3842011906567,173.59500665986346 L171.1042944480559,172.80058439470494 L167.5538999942579,171.09152464141312 L166.2423264881684,171.29088155284623 L163.65615261636944,172.3237306769047 L161.10889783970686,172.64129922426318 L157.17320434406125,172.48201405382164 L154.78065297056483,172.8396543421717 L151.44334056263816,172.89775836660948 L152.5895079143984,171.54433531461817 L155.2866012073353,167.72549839811825 L156.46682276734,166.61450937912622 L157.00682521235382,165.12183702718914 L159.2320244767647,160.64381997137747 L159.29915991587544,156.72079652829956 L158.1529925641152,153.11033266495625 L157.88347783029621,148.00719644967555 L158.65894080088458,146.89620743068352 L159.46845797971733,144.50091911291034 L159.6027288579377,142.8339346876599 L158.82726588734943,140.89045524956714 L158.76013044823867,140.02190026357408 L160.00748744735301,136.55068570017662 L160.51051675198903,133.60240735671943 L161.0865193600036,132.83603531025489 L165.6721617444239,132.00254309762957 L167.729035922371,131.76010906463046 L169.48234115825585,131.09992713179386 L172.41586795414423,130.44074699248193 L173.96679389532093,129.6072547798566 L174.43868792384694,128.70463881402094 L177.77697330915285,126.03185368988099 L179.49622433679326,123.53237884552983 L179.29384504208505,121.10202775438889 L181.01309606972544,118.63661388988069 L180.7095271276631,114.71459224032763 L180.47406660208972,113.53347767460005 L180.81071677501723,112.35336490239743 L183.9135416347487,110.82562977709257 L186.20587633827026,109.88895283141387 L188.76869875298675,107.56278826685146 L191.16222310386132,106.72929605422613 L192.713149045038,106.5559857744374 L193.08385342621102,105.51412050865557 L193.25315149005291,103.04970843767218 L193.85250555515003,101.96176066975016 L194.96267274390948,103.22301871746075 L196.23435417748337,104.06252169123486 L196.37640887473125,104.75175563629041 L198.48095894421928,106.19133293141373 L203.37114324808005,106.5129086528714 L207.96554242890596,106.95269601025424 L210.2179850599119,107.57881696324806 L211.29312506304876,108.1237926407337 L213.77519035535803,107.28228607991015 L215.01379055806675,107.40250130288494 L217.29542251042528,106.08714640483576 L220.1608408898259,106.17830961559152 L222.50377041702404,105.36385147993722 L225.33610756555944,103.75797645969857 L227.29957591517888,102.2312431279185 L229.44109912504695,102.1510996459353 L230.52013103769755,102.91045913772625 L232.14694921438945,104.80685428015381 L231.4230540448569,107.04486101453485 L231.18662054190426,109.03943192239196 L228.90012370265384,110.84266026701394 L229.4070449168025,111.77933721269264 L230.77602408821778,111.63708253217249 L234.45971644285686,111.8624860752504 L236.26750841193194,112.49061061529358 L239.81303797883797,112.26520707221584 L241.57412703375027,112.46656757069879 L242.94797109205643,113.02156118343221 L244.0600842355733,112.76710562813571 L245.6684158420758,113.51845077172824 L247.43631573863635,113.42328038687327 L248.76151092802343,114.49720304544812 L255.21429690160087,117.1279128415468 L256.11430097662475,116.05198659592239 L258.1264181951654,116.3244744346651 L260.44891519741657,117.03975501136544 L260.74664627520775,119.13851244580056 L261.32264888322345,119.84076970667833 L261.1708644121928,121.37351379960717 L261.8461107128052,121.9525504569358 L263.75801126137,122.68185614298291 L266.00850793761856,122.40936830424002 L267.9680843777253,123.08758252052283 L269.00138635359133,124.40093383152276 L270.84031359877525,125.93768509855062 L270.81793511907205,127.22498977790579 L271.77826379155726,128.20975281277447 L275.020224416401,129.08031138581697 L276.11482396710545,128.82785941757 L277.3699647852473,128.00338334666776 L279.6924617874985,127.70184349570584 L281.72014664409306,126.8493172061095 L284.25669866959373,125.420759639759 L284.852160825177,123.98518951873488 L284.6332409150357,122.36629118267425 L287.0540086325055,122.04571725474116 L288.74115140665873,120.84957578614195 L289.7637506313617,120.76642692358419 L291.863435813959,119.8197320426577 L293.3170640172952,119.43604512266324 L294.4885287808943,118.68169459849629 L295.8682107034716,118.55647040789752 L298.53027681078584,117.39939888676493 L299.80585015387345,115.99889153910841 L300.2582846348319,114.0333726434703 L301.234180945371,113.33011358906771 L301.52023629462195,112.47758729947138 L304.3778708549962,111.19529158774003 L304.07430191293395,109.5463394459356 L303.4457585264843,109.02941398714414 L305.3810105321304,107.58883489849585 L306.87647676273866,105.14946766563209 L308.6443766592992,104.4572283400023 L310.3714115059671,102.99761517438301 L310.6623317421099,101.48390515842534 L312.31639328539706,100.43102016387088 L313.6775886377848,100.36490179123471 L316.34451963199103,97.86242156630917 L317.53933585267146,97.31844768234812 L319.67891310778316,97.3755499132613 L321.55481349334724,96.5741150934292 L323.4949303858852,94.24494514829239 L324.4338535560454,93.66089952333957 L326.2105102490116,93.41145293566687 L327.75559832591824,92.12715363688609 L328.7023053151059,90.98010005100147 L331.62221042769664,90.38603649080109 L333.20329866760403,90.6925853093868 L335.78168872037554,91.89974650675879 L337.84440076259267,91.8406406887962 L338.63153946172224,91.38883180911579 L340.6582513409387,91.5451115989831 L341.55825541596244,92.1602128232041 L341.82971610453774,93.06282878904 L343.4331828241483,94.02054339873928 L343.14226258800534,96.30162725468631 L343.7338328340749,96.70935721927574 L343.7338328340749,97.95859374468914 L344.7068102124795,98.90027965799162 L345.52119227820316,98.64382051564547 L347.0195774409458,98.95437650833038 L353.65820209379956,99.45427147720062 L356.4263227353598,100.1074408553638 L358.3391962613027,101.06014649743908 L359.85217608472226,102.6489910277561 L362.7866758579899,103.2330366527087 L364.5711163699836,103.21700795631213 L366.30301610354337,102.80426902409852 L367.42972390773497,101.53499662818952 L370.72714424314813,101.2394675383764 L375.39646268211015,97.84739466343738 L377.8269601733648,97.47973643983929 L381.29270559524065,96.2715734489425 z"/>
	<path id="artvin-hopa" title="Hopa" class="district" d="M160.51051675198903,133.60240735671943 L160.00748744735301,136.55068570017662 L158.76013044823867,140.02190026357408 L158.82726588734943,140.89045524956714 L159.6027288579377,142.8339346876599 L159.46845797971733,144.50091911291034 L158.65894080088458,146.89620743068352 L157.88347783029621,148.00719644967555 L158.1529925641152,153.11033266495625 L159.29915991587544,156.72079652829956 L159.2320244767647,160.64381997137747 L157.00682521235382,165.12183702718914 L156.46682276734,166.61450937912622 L155.2866012073353,167.72549839811825 L152.5895079143984,171.54433531461817 L151.44334056263816,172.89775836660948 L148.25392071622832,173.167240824778 L145.78353115246028,173.60402280158647 L143.12049206776672,174.3593751192782 L141.31853796296173,175.2159085829737 L138.50857929413064,171.3620088931062 L136.51202971364495,169.8713401282187 L131.93903603514408,167.69644638589963 L126.75793149514044,166.44420447991206 L124.90538256665894,165.40133742060544 L121.28785267375137,164.83532407909905 L118.3932449729982,164.03088387869272 L109.53623189738305,164.80527027335543 L107.22054573678007,165.25207018541192 L100.62181315644204,166.1466718030492 L100.30364955370403,167.01021782141845 L100.91176041520679,168.59004621001216 L100.6510024777946,169.72207289302497 L99.75391733490528,170.70583413436884 L97.87217908507124,171.51027433477518 L97.14828391553868,172.3147145351817 L95.29670796443423,172.82162205872532 L93.70394399598676,172.2856625229627 L92.60447955838924,171.39106090532522 L90.66533564322938,169.15605955151858 L87.5109429824433,167.2195926680994 L86.58466851820145,165.90824494414926 L84.78952525504577,162.65942854325516 L83.34270789335882,161.22886738985483 L80.67966880866527,159.26234670069192 L79.05868849624451,156.81897229372913 L78.22679283770852,155.13195199798253 L80.28853190254753,153.76851101074317 L84.32055015865531,152.7867533564491 L87.16261708097457,151.75190064534087 L90.24695537051544,151.33916171312742 L93.63388962474151,151.3571939965736 L95.84935911536857,151.70381455615092 L98.31974867913662,150.95647658665757 L101.03143663275034,150.6819851608652 L104.42810066076025,149.6501378303314 L106.41394749008286,148.32476499703404 L111.45202435546156,144.378700302886 L114.83895860968653,140.719148556828 L116.5815610944094,138.3719463282448 L118.64913802351849,135.20126982228427 L118.86805793365983,134.23453907086184 L120.36547011902327,132.55753671036337 L122.2355326403172,129.79358837546772 L123.04796875128442,129.0833167663914 L124.46754274637627,126.9695324290843 L125.60495330173089,126.03085189635621 L127.10625739660918,123.6686227649012 L129.49394388321372,121.17716226874828 L131.60141288483732,120.27955527053633 L133.16693348668966,121.22324477088863 L136.66867907156742,124.11442088343266 L139.50588110699476,125.7533550899893 L140.6053455445912,126.82627595503953 L142.13973087033577,127.60066234970208 L143.61573755337525,127.98835644379574 L145.98882937930298,127.77998339063961 L148.91262640140872,128.4061043436334 L152.87750921840572,131.38543828635898 L156.0319018791929,132.458359151409 L160.51051675198903,133.60240735671943 z"/>
	<path id="artvin-murgul" title="Murgul" class="district" d="M141.31853796296173,175.2159085829737 L143.12049206776672,174.3593751192782 L145.78353115246028,173.60402280158647 L148.25392071622832,173.167240824778 L151.44334056263816,172.89775836660948 L154.78065297056483,172.8396543421717 L157.17320434406125,172.48201405382164 L161.10889783970686,172.64129922426318 L163.65615261636944,172.3237306769047 L166.2423264881684,171.29088155284623 L167.5538999942579,171.09152464141312 L171.1042944480559,172.80058439470494 L174.3842011906567,173.59500665986346 L177.9735147395899,173.99271868920493 L180.3281199953292,174.0718603776633 L182.52704887052312,174.58878583645512 L186.4247962484105,173.23736637151336 L190.94038426158554,170.65474266460464 L193.98872238812675,170.41631580570453 L197.3075482258639,171.17166812339627 L199.8158839073902,172.3638024178965 L202.32421958891643,174.3894289250218 L203.09676362737025,175.54249327205522 L205.4893150008667,176.85283920248054 L206.68510419892527,177.76747669061402 L209.1934398804515,180.50838377443955 L210.19755253496504,182.019088409823 L211.7796137522505,185.19777926398174 L213.67010879849022,188.4956835475908 L215.29108911091208,193.3032906730582 L216.10157926712304,194.57456665601674 L217.56785617637874,196.16441297985858 L217.02688075398564,198.46653449982622 L217.36255794953496,200.06138979129187 L218.4503466585912,202.21624766311533 L218.40850863131922,205.061341273519 L217.94829033133445,205.92288370483868 L215.7299019085729,208.37928142762388 L215.22687260393693,209.629519746562 L214.5574641675957,212.47461335696565 L213.84621770398147,214.06846685490655 L212.9248081266326,215.1033195660148 L210.0788492947996,217.0858689515741 L206.7716991856037,218.93918697243583 L205.26455722645534,220.49096514233557 L203.0043307764218,224.54221815658678 L201.53902684454428,226.65399890684424 L199.5298285581392,228.85193390023352 L194.59002240798014,232.4724156988247 L193.04201539893907,233.9380396255926 L191.07465513980594,236.3513602268118 L189.86037937155677,239.23852916525678 L190.153245562456,243.20362793637585 L189.65118923520032,244.66925186314373 L188.93896979420794,245.661027452686 L188.52058952149397,248.41896502643286 L186.92977150780283,250.18612880416265 L182.66034677136426,251.65175273093035 L179.93990202134594,252.34098667598616 L179.18584455308272,255.3153116510877 L177.7633516258553,256.6507024196328 L173.11641166659544,260.443492704488 L171.48375562563345,261.1768055646345 L170.5633190256628,262.12450223908564 L168.8469869301569,264.79728736322573 L167.75822524372245,269.79623705192824 L166.58676048012342,273.33056460738743 L165.61378310171992,278.4908030535809 L162.87387880413291,277.02718271386277 L161.21495237395285,276.59040073705415 L157.31720499606547,276.55032899606255 L154.46151639044865,276.0344053307957 L152.53112927169443,275.35919649508713 L149.9459283772736,273.53092331234535 L148.01651423589755,272.4580024472953 L143.5787644129952,268.9617430457779 L140.0332348460903,266.8199084897768 L141.22999702152705,264.7942819826513 L143.8930361062206,261.0986656697008 L147.8676486970014,254.38364367303302 L150.22128097536265,248.0663337057068 L151.18647453473972,244.37071739275623 L151.41804315079935,241.2711682270559 L151.34117793790588,235.7082087838966 L151.14755543960337,230.42374794062897 L150.68441820748296,226.7281316276786 L149.75814374324221,222.47752170199448 L147.28872715685125,218.2649799302521 L145.55196253639951,214.8478622171933 L142.96676164197876,209.0865476561256 L141.69313425364746,205.43100308416666 L140.11107303636194,202.13309880055795 L136.05862225530836,196.01414395114006 L134.8239139621123,192.71623966753117 L134.8239139621123,191.72246049093954 L135.44078162002072,190.61046967842248 L136.4059751793978,187.8284890600806 L138.06587458695606,179.84219108045414 L138.95322995606156,177.10028220310366 L141.31853796296173,175.2159085829737 z"/>
	<path id="artvin-yusufeli" title="Yusufeli" class="district" d="M77.15846367621988,490.75482226019807 L76.44429828047116,489.16297234930676 L75.9042958354573,486.0233514426147 L75.63478110163948,483.28244435878895 L74.97802137121546,480.5004637404469 L73.70439398288416,477.99698172199675 L72.16125186073499,473.1102329080706 L70.77184016437387,470.2491106012704 L69.84556570013312,468.89869292985327 L69.38242846801275,466.83199288821135 L69.150859851952,459.9576857211021 L69.57507798893603,457.6134888730933 L68.91929123589239,455.2302220776177 L67.7235020378327,454.2765146420176 L66.41095555436502,452.48831320026727 L66.83517369135014,450.5808983290671 L67.87723246362071,448.51419828742513 L69.03507554392219,446.9253537571081 L70.26978383711715,443.3489508736075 L72.04546755270519,441.28325262549055 L74.09066600211106,440.09111833099047 L76.83057029969805,439.05826920693175 L81.19145490970693,437.07171264727305 L85.2818518085187,434.6073005762895 L87.4428345659544,432.8201009280643 L88.17645950927187,431.7071083220224 L88.94803057034643,428.56848920885494 L89.41116780246679,425.90572201996326 L89.45008689760316,424.316877489646 L88.8322462623155,423.0445997131626 L87.40488844819728,421.0981148944955 L86.17018015500123,419.8268389115371 L85.05028319245795,419.4291268821954 L80.99880538878253,419.07148659384535 L77.64106045590898,417.2442152046284 L75.55694291136676,415.21758690397786 L73.9359625989449,413.9853808684863 L68.30242357798397,411.2444737846606 L66.6036050752894,410.76762006686056 L63.78683556480894,410.5291932079603 L60.352225419040835,409.6546274608189 L58.2681078744986,409.33705891346045 L53.29035560658245,407.98563944851855 L49.893691578572536,406.5160083476514 L47.73270882113684,405.00530371226796 L45.53280696856367,402.3435383169009 L43.68123101746033,400.91297716350067 L42.06025070503846,400.2377683277922 L37.15936365001578,399.00556229230034 L31.94906978866073,397.4958594504417 L24.346224553808142,394.7539505730914 L21.258967332131686,393.5227463311242 L15.393859695110049,391.7746166303657 L11.959249549341932,390.85997914223253 L8.794154137392765,390.2639119949824 L3.5459141582795137,388.39656886477354 L4.201700911324269,381.64247692063907 L5.514247394791936,377.8276471782386 L7.288958133001821,374.2121743472712 L8.254151692378931,372.6623997644209 L11.534058434979759,368.5690714221289 L14.081313211642367,366.30501805610334 L15.779158736957694,365.3112388795116 L18.094844897560673,364.39760318490295 L22.571513815599353,359.94763634778565 L23.883087321687757,357.72165113570196 L26.04504305650272,352.000408315626 L27.511319965758418,349.4969262971758 L28.1281876236668,347.86801002586697 L28.707109163816998,343.7756834770997 L31.640635959706525,341.3914148880993 L33.2616162721284,338.64950601074884 L34.148971641232784,335.39167346813156 L33.2616162721284,332.76897802023126 L33.53113100594623,330.7824214605725 L35.22897653126155,328.79786848796357 L37.34228339715634,327.09882666991956 L39.10726436158131,326.0269075983941 L42.29181932109921,323.6125852036499 L43.544041207105465,322.3352984595428 L47.12362498225483,319.5903842016179 L49.11433669847047,317.8472634684833 L53.6883033543495,315.27766307739677 L59.331572149095315,312.52573626479847 L64.08359366522188,309.1006042035413 L74.80580437523798,303.0457641397101 L78.28127957089876,300.84382197222163 L82.45924443376707,297.8745059647439 L83.77568282674847,296.4399376372444 L87.66661936298763,291.6082874671822 L89.30024838132891,290.0174393498154 L91.82512467828829,288.36648362096156 L94.02308057610293,287.571059562278 L96.45844295424948,286.4400346727899 L98.5075333131691,284.60474893537463 L99.5768354520359,281.8828759285201 L101.24062676910675,277.1433907627383 L101.83414296993378,272.95389024206634 L107.65546662492717,273.5359322799693 L110.74272384660472,273.25743368007767 L119.65714258754569,271.7076590972276 L122.01174784328393,270.9923785205272 L127.49155643845683,268.131256213727 L129.9998921199842,267.49611911900996 L140.0332348460903,266.8199084897768 L143.5787644129952,268.9617430457779 L148.01651423589755,272.4580024472953 L149.9459283772736,273.53092331234535 L152.53112927169443,275.35919649508713 L154.46151639044865,276.0344053307957 L157.31720499606547,276.55032899606255 L161.21495237395285,276.59040073705415 L162.87387880413291,277.02718271386277 L165.61378310171992,278.4908030535809 L166.92632958518755,279.45152304385454 L167.9294692623218,280.6035855973633 L169.9357486165913,284.37834359877206 L172.86927541248085,285.2919792933808 L177.3838904482777,285.05355243448065 L179.46800799281996,285.4512644638223 L181.47526032446763,286.24568672898084 L186.1445787634307,287.7553895708395 L187.49507136465547,287.9547464822728 L191.46968395543738,287.437821023481 L197.45154887786813,287.67624788238095 L201.19459285258932,286.6033270173309 L202.50713933605698,286.6433987583225 L205.5554774625982,288.11302985918945 L209.33744053245573,289.62373449457283 L210.2257688789394,289.78201787148964 L215.8593078999003,289.46444932413135 L218.7539156006535,288.31238677062277 L221.06960176125534,287.59710619392257 L222.3043100544514,287.557034452931 L228.67244699610794,288.0739599117228 L231.95235373870878,288.70909700643955 L235.42588297961214,290.1797299008313 L237.74059616283697,291.64936100169837 L240.13314753633338,294.15284302014874 L241.56147832783088,295.9410444618989 L242.68040231299602,296.8947518974991 L247.73599277118484,298.36438299836607 L251.0937377040584,299.8750876337496 L257.53776688123025,302.49678128812513 L263.36590137787294,307.46367358403427 L265.2174773289763,311.3977167558849 L266.9162958316698,315.649328475094 L266.95424194942797,317.3183164873941 L265.0248278080519,320.29765043011986 L264.8321782871286,322.56270558967014 L266.0279674851873,325.66225475537044 L267.7647321056389,328.7217321800794 L268.9225751859405,329.7155113566713 L273.0129720847522,330.469861880838 L275.44444255338504,330.35064845138805 L277.79904780912324,330.469861880838 L279.99797668431717,331.26428414599656 L283.85777794444743,333.8078379054385 L285.8251382035817,334.4039050526885 L288.4502311705159,334.7615453410388 L290.53337573768005,333.56941104653856 L291.0743511600731,332.4964901814883 L294.62474561386995,329.19858589787947 L296.707890181034,328.60251875062943 L303.5771104725691,329.3177993273294 L307.4748578504576,329.516154445238 L309.4052449692118,329.79465304512945 L312.2220144796923,330.62914705127963 L316.2744652607458,330.6682169987466 L318.3576098279099,330.31057671039633 L319.9017249274383,329.6754396156795 L321.56065135761725,329.6754396156795 L323.838391400462,330.35064845138805 L327.48024572782913,332.0737333140271 L325.8981845105437,333.06751249061875 L322.1940596309588,335.96770474488596 L317.7173907129201,341.4114507585951 L314.97748641533315,343.9149327770454 L312.93131498854905,345.26535044846264 L304.7894402860609,349.15932187932145 L301.2390458322629,351.2260219209634 L299.19287440547885,352.854938192272 L297.8044356864959,354.2854993456721 L294.83296277284927,357.8218304881811 L292.74884522830706,361.0005213423399 L289.0048282762066,365.88727015626586 L288.61952923435894,366.7618359034075 L289.0048282762066,372.04629674667495 L290.4720781628404,375.344201030284 L291.8225707640663,376.6355128837384 L295.2951270275915,378.87051423754497 L297.3218389068068,380.86708873245146 L298.652871960465,382.5060229390082 L298.88444057652464,383.84742446870206 L298.56627697378667,388.1391079289026 L298.5078983310827,391.44602835423456 L297.5825968442201,393.0859643543158 L296.13480650515385,394.8140581845788 L293.5875517284912,396.12540590852893 L290.7805119917946,397.04905953838545 L287.481145701625,397.85349973879175 L286.335951327243,398.487635039984 L285.8601653892032,399.0155802275484 L284.44156437149064,403.3964233114553 L283.6310742152797,406.4358648656683 L282.0976618669144,409.476308213406 L280.5632765411697,411.65120195572547 L279.9269493356938,413.2901361622819 L277.81364246979894,416.8965928515261 L276.65579938949855,418.23699258769517 L276.4534200947904,418.95227316439525 L276.25104080008214,422.4094626184457 L276.2802301214336,425.98586550194636 L275.67211925993087,428.84598601522185 L274.83243978236845,430.66424126271585 L274.10854461283594,433.5544155817352 L276.36682510811204,437.6377259887795 L277.9002374564774,439.96188696629247 L278.0744004072122,442.25699593158635 L276.9739629922365,443.9249821503619 L272.97989085388696,447.35211779866864 L267.8571649565874,450.8593969289586 L264.76990773490985,453.7195174422344 L262.45422157430795,454.8725817892676 L260.91107945215884,454.4347980189342 L258.3249055803598,453.123450294984 L252.575582251368,449.9447594408253 L249.21783731849447,449.42883577555847 L247.67372221896716,449.9447594408253 L243.99586772859817,450.3755306564851 L240.61185240650767,450.3424714701671 L236.9456736446799,449.82554601137537 L234.7846908872442,449.22947886412544 L226.87341182343744,445.3355074332663 L216.87801521508948,441.32232257295726 L208.85095184325402,437.78599143044863 L203.17849372715563,435.79943487078964 L198.1997684818602,434.6874440582729 L196.46300386140854,434.44901719937275 L192.7968250995808,435.36265289398125 L190.32740851319087,437.07171264727305 L188.55269777498103,437.86613491243156 L187.31701650440792,438.0644900303399 L182.22347992846085,438.26284514824846 L180.33201190484297,438.66055717759025 L172.03543379918852,441.9183897202074 L169.0639608855419,443.2297374441576 L167.01876243613495,445.0179388859077 L164.70307627553305,447.71977602226644 L163.7768018112923,449.348692293575 L162.07895628597583,450.5017566406087 L157.9107211968925,451.53460576466733 L157.40866486963574,451.9313160004842 L155.40238551536513,454.59408318937614 L154.36032674309453,455.3494355070678 L149.6520892089951,457.8128457845266 L146.83531969851467,458.80562316759347 L143.01443753352078,460.4746111798939 L138.5377686154821,462.9780931983439 L135.83678341303144,465.1630048759113 L132.36325417212808,468.18341235315336 L126.61295786575808,471.16274629587866 L123.5646197392169,472.51416576082084 L121.75098990587176,473.03109121961245 L120.51628161267682,474.02386860267933 L120.51628161267682,477.36184462728005 L119.20373512920915,479.1891160164967 L117.66059300706,480.93724571725556 L114.3417671693217,484.156008312406 L110.08207220666806,487.91273403036877 L108.3842266813516,488.94558315442725 L104.60226361149405,488.985654895419 L102.51814606695181,488.72518857897353 L99.0436438486703,489.33528083557064 L95.08459889594222,490.67267519116507 L88.91008445258822,492.3015914624737 L84.47136165230775,492.3807331509323 L78.99155305713376,491.42802750885676 L77.15846367621988,490.75482226019807 z"/>
	<path id="artvin-kemalpasa" title="Kemalpaşa" class="district" d="M160.51051675198903,133.60240735671943 L156.0319018791929,132.458359151409 L152.87750921840572,131.38543828635898 L148.91262640140872,128.4061043436334 L145.98882937930298,127.77998339063961 L143.61573755337525,127.98835644379574 L142.13973087033577,127.60066234970208 L140.6053455445912,126.82627595503953 L139.50588110699476,125.7533550899893 L136.66867907156742,124.11442088343266 L133.16693348668966,121.22324477088863 L131.60141288483732,120.27955527053633 L132.90325661714303,119.06437972496617 L133.76628755178677,116.94057745241109 L134.7616434098946,116.45170221231366 L137.9812255550351,115.58414901984537 L139.681990012486,113.86206595073114 L140.6228591374025,113.3150866861959 L142.92881552422162,112.5687505102272 L145.1063388970905,112.73905540944153 L146.48893975180337,111.29747452726859 L148.28213706020273,109.92101022420728 L149.81554940856807,109.52530178191522 L151.1650690324147,108.6347073383767 L152.46399383258478,108.39427689242719 L153.5838907951281,107.09695427782401 L155.1776277409537,104.59347225937366 L156.78595934745616,101.72032843027583 L158.22791182225234,98.3092214783656 L159.3662953549851,96.66527830418497 L161.46695351496047,95.65246505062234 L162.33971422338917,93.48157848240223 L163.4070704074985,92.54389974319875 L165.6342156266657,93.3403255954069 L167.92363139805173,93.37639016229949 L172.4557600266588,92.66511675969832 L175.88453230815574,93.86326181534731 L177.1824841309477,95.16759698462405 L177.36151196857452,96.51801465604103 L178.38508417065557,97.35451224924071 L182.0950469145116,97.76925476850377 L185.31949394654404,99.2248607600237 L187.1934483773506,99.38915489808922 L189.22113323394512,100.04833503740119 L190.96178976391062,100.0543457985498 L192.6304459678745,100.68046675154362 L193.85250555515003,101.96176066975016 L193.25315149005291,103.04970843767218 L193.08385342621102,105.51412050865557 L192.713149045038,106.5559857744374 L191.16222310386132,106.72929605422613 L188.76869875298675,107.56278826685146 L186.20587633827026,109.88895283141387 L183.9135416347487,110.82562977709257 L180.81071677501723,112.35336490239743 L180.47406660208972,113.53347767460005 L180.7095271276631,114.71459224032763 L181.01309606972544,118.63661388988069 L179.29384504208505,121.10202775438889 L179.49622433679326,123.53237884552983 L177.77697330915285,126.03185368988099 L174.43868792384694,128.70463881402094 L173.96679389532093,129.6072547798566 L172.41586795414423,130.44074699248193 L169.48234115825585,131.09992713179386 L167.729035922371,131.76010906463046 L165.6721617444239,132.00254309762957 L161.0865193600036,132.83603531025489 L160.51051675198903,133.60240735671943 z"/>
	
</g></g></svg>