<svg xmlns="http://www.w3.org/2000/svg" version="1.2" baseProfile="tiny" width="600" height="600" stroke-linecap="round" stroke-linejoin="round"><rect id="backgroundrect" width="100%" height="100%" x="0" y="0" fill="none" stroke="none" class="" style=""/>































































































































































































































































































































































































































































































































































































































<g class="currentLayer" style=""><title>Layer 1</title><g class="city city-14" id="bolu" title="Bolu">
	<path id="bolu-merkez" title="Merkez" class="district" d="M355.06755345396346,169.41474107435073 L355.74736206716153,171.57692984722615 L356.4697474202261,172.7995918937192 L358.30338568379966,174.4941461403968 L359.94259016865107,175.24420637437424 L361.6378540276602,176.5782775568507 L362.55467315944696,178.49565007549506 L363.4438174103212,179.07895141166298 L365.30513055480816,180.82956503249778 L367.5283459881584,182.52411927917532 L369.0284664561135,184.13564888311373 L369.38965913264576,184.96944337216155 L369.41733401355873,186.35886431646412 L369.19522535392315,187.10892455044157 L368.13932220523924,188.46996100150002 L366.4447679585619,189.99846596269913 L365.83308212914966,191.0543691113826 L365.4718894526178,192.5821644602507 L365.38886480987844,194.4718620979819 L365.6386483504275,196.1671259569906 L367.5283459881584,198.11146374421693 L371.6682243278224,200.7235467350126 L372.91856125522844,201.33523256442473 L376.6972469183597,203.86358130015012 L378.97652172586766,205.84978621491163 L380.6228223340299,207.0788347723846 L382.03991815924564,207.45421969553894 L386.04071248201296,207.80831624876004 L387.64443635030915,208.38877913560353 L388.31218155387825,209.1005203037014 L388.39591580894853,209.95489355035113 L388.27102403867445,212.14262836714633 L388.7294336045678,214.16431389846304 L388.7918794897051,217.72798702526998 L389.6249643664216,219.4778910337737 L390.60493899567695,220.18679375254703 L395.5849983353683,221.47899780748827 L396.6479976073631,221.22850465460843 L399.58650227046655,218.97832395267608 L401.44071929164267,218.22755410636748 L405.81689853756444,218.14452946362823 L406.5513473002576,219.6233615616501 L407.95921816516886,221.36616944684275 L409.25497028176557,223.6901498312099 L410.3051965318004,225.1647242552452 L410.8636614363794,226.50589156103268 L410.8189558595202,227.98046598506778 L411.3554227818348,229.924094159963 L412.11541758844777,231.39937819632934 L413.25505499220196,234.1030011778375 L413.94763662735994,235.0858142564173 L415.2880943208163,236.47097752673332 L418.08112845604353,238.99648781313417 L419.3995881672355,240.5377657962931 L421.05298489870904,242.99586291123924 L421.70086095700736,245.07360781671323 L423.0860242273234,246.81641570190587 L425.6782380728485,249.09569050941357 L426.7284643228829,251.3749653169212 L426.90728663032115,252.89424531781594 L426.10258624684894,254.4135253187107 L424.74013057112825,256.2237463753583 L424.0468393236389,258.79325262628765 L423.646617968896,261.1576809135278 L422.17062432019884,262.31931629954596 L420.20783661236356,264.49143964505686 L419.15335268834235,265.878022140035 L417.1018634391191,267.9685400674689 L415.12914115864885,269.04147391209904 L413.62263417971377,269.59639075502264 L405.62672243282816,271.49389412839616 L399.4949622797541,272.53063774413977 L398.2403676783616,272.92234375090953 L395.0513698623778,274.23086888946625 L393.7329101511858,275.3258007163604 L391.7594782583842,279.01507522577276 L388.34056604712254,282.5901021498773 L387.49186969912165,284.1540877276316 L387.26834181482377,285.4278418619642 L385.4134151813163,287.52829436203365 L380.81086960177254,293.024951478769 L379.22417642942304,294.47681830820886 L378.06254104340496,297.4486747508746 L375.7385606590378,296.4211560954352 L374.1298695044235,294.56622946192806 L373.6608157535638,292.9802459019095 L374.0631659452999,289.2711022472263 L373.59340258210887,288.15346282573665 L371.80588912005635,284.95878811110424 L370.8450740237408,283.9752654201934 L368.5657992162333,282.47798340156277 L366.93511007935507,281.6292870535618 L364.8793631561455,281.09282013124675 L361.63927325232197,281.1375257081064 L360.5670490200232,280.80258868782505 L358.53330007907795,279.9084771506334 L357.14813680876193,279.08177878489664 L353.8633413280793,276.8252115719843 L351.27183709488503,275.4620462839326 L349.37220488451834,274.8808737847579 L348.03174719106204,274.8808737847579 L346.0654114215713,275.1491072459155 L344.9037760355536,275.953807629388 L343.272377286344,276.0205111885118 L342.46767690287186,275.8196908988092 L341.0158100734318,275.99851320624754 L340.1664041131,276.3128714689269 L338.4015982456432,277.24955974598487 L337.3733699778727,278.0989657063169 L337.1051365167147,279.37271984064944 L335.8540899769777,280.6684719572463 L334.714452573224,281.45046474612343 L332.03282757397994,283.5729152284571 L331.06136829269815,283.09179806796817 L330.23112186530574,282.97967931965366 L329.88341182306425,283.6190400299788 L328.5316003323103,283.66942250548726 L327.9312683001961,284.43793266007344 L326.94419754762987,285.2007659160108 L325.90035780857494,285.1000009649939 L324.2008362755795,285.6329198256535 L322.0187783574331,286.69308064832364 L322.0975453261857,287.08549626742433 L320.67264376532773,287.88168130292354 L321.11047457361946,288.38692528267006 L321.42412322396757,289.452763003989 L320.9309426538499,290.3390688055385 L319.56210046714966,290.36106678780277 L318.8106210085098,290.94436812397066 L317.51983617823043,291.2927877785429 L316.71229734543374,291.7412627718011 L315.3328109737668,290.70877683004403 L314.49121074907674,291.1579614356332 L315.52298707850264,292.88586746187264 L315.2873957845758,293.5585799517596 L315.6578134214125,294.2092944593825 L316.33123552363026,293.97370316545585 L317.4751306013708,294.40018017644957 L315.62446164185053,296.27355673056553 L314.3790920007621,297.159862532115 L313.2905466848475,298.3605265963439 L312.51635963161243,299.79607234216826 L311.09216768308585,300.23390315045975 L308.80295830294295,299.8521317163256 L308.4332502784375,300.0657250279879 L305.49758406465816,300.46097909641315 L303.8065778796358,301.016605551668 L303.3524259877292,301.40334427211997 L301.92184752822266,302.00083785490995 L300.4664326371272,301.9334246834551 L299.827071926802,301.5041092231368 L297.00778213532396,300.8143660373032 L295.2486531665158,300.99886524339036 L294.5773599012908,301.49630348749463 L292.27892556084305,302.14134109646864 L291.8219352196119,302.6380697282419 L290.74758215031994,303.04183914464033 L288.55700888419994,303.5385677764134 L286.500552348659,304.3986179217121 L285.4254896670361,304.533444264622 L284.4178401568673,305.3665291413386 L282.6757418840058,305.87390195807836 L281.13162545152284,304.8449640779768 L278.6941070941783,303.92388727220316 L277.77373990073613,303.3278129140755 L276.8796283635446,302.29887503397384 L275.931586289189,300.80939875098557 L274.6585417671876,299.563319497566 L274.06317702139074,299.3738530051611 L272.7354923498939,298.4258109308055 L268.07688739619323,295.6632901258157 L267.3190214265735,295.33828767816976 L264.96239887497563,295.28364752867475 L261.30647614512486,296.4488309763483 L259.84325551838765,297.017230453563 L257.6228785343615,297.28830236404497 L255.59125843040945,296.4757962449303 L254.3451791769897,295.52775417057467 L250.987293626203,292.27772969411603 L250.2017527756707,291.03165044069647 L249.57871314896082,290.59807730639164 L246.08458203060243,290.30074973965884 L244.75760697143693,290.02967782917693 L243.59313313609428,289.4066382024672 L241.69704898738303,286.96911984512326 L240.4509697339637,284.80267339826116 L240.01810621198968,282.771053294309 L238.2029178690242,276.59600678903746 L237.55291297373267,275.3768928042 L236.33450860122633,273.7518805659706 L234.52499715690988,270.6267478597865 L236.3210259669355,269.1848156029821 L237.76295822373973,267.3128582735284 L239.0026509661791,266.5535730792466 L240.79867977620475,264.80792674472946 L243.48030477544833,261.56996567789963 L246.3641692890576,257.016383349202 L248.10981562357455,253.5506367240876 L249.425436885442,249.90748701619705 L250.51327258902563,245.9613328429249 L251.3222306464846,241.53406150916382 L252.20782683570297,237.81498328184517 L252.99194846157346,234.88073629272805 L253.54899414149023,233.868829108573 L254.40904428678922,231.74354017691508 L255.5217164219609,229.6437972891768 L256.7869552083205,228.2018650323725 L258.10257647018796,226.02619362520605 L260.1263908384982,223.1423291115973 L261.16810174055956,220.88008500003616 L262.3524447211729,217.98131862747422 L263.1621123909632,217.3235079965403 L267.03233804480743,215.24931115272193 L268.7779843793244,214.61704656570782 L270.42215615049344,214.3133324879951 L272.2437310044385,214.16147544913872 L276.74693085762794,213.63068542547248 L278.44219471663655,212.99771122612722 L281.32605923024505,211.35353945495817 L283.653587676268,209.00046496501554 L284.56402029707533,207.78631826649575 L285.3736879668656,204.5987396751744 L287.09378825746273,202.6763998702122 L289.3957706595655,201.96820676376998 L291.26772798901965,201.74042120548535 L293.2915423573295,201.08261057455152 L294.37937806091276,200.52627450696556 L296.9850745407287,200.3233253802697 L300.2485816514779,199.66551474933587 L302.5761100975005,198.78062817244853 L304.49915951479426,198.19874606094277 L305.81407116433076,197.51538938608923 L306.5733563586124,195.94714613434826 L307.4837889794196,194.88485647468485 L309.5331493916493,194.9600753817818 L310.34281706143963,194.78338191133673 L311.5825098038794,194.04964276097473 L312.87258502182704,192.68363902359857 L312.89813106574684,192.27915999486902 L312.2147743908933,190.9883751645899 L312.16439191538507,190.25534562655903 L312.6703455074622,188.53453572363054 L313.4800131772525,186.99183851580938 L315.2249498994385,185.2710286128809 L318.0080494620304,183.7531678366484 L319.7033133210391,181.42634900295667 L321.06931705841566,180.59113528924667 L323.67501353823116,180.28742121153394 L325.62289938711297,179.1747490763621 L326.6348065712681,179.25067759579028 L329.7464566431612,178.99734599358598 L331.01098581718946,177.7576532511464 L332.8070146272151,177.52986769286184 L333.84446785529,177.04946014470408 L334.3000389718589,176.46757803319838 L335.3878746754421,175.86014987777293 L337.89209659190976,175.02564577639407 L341.1556037026594,174.79786021810952 L341.6871033386568,174.6211667476645 L343.229800546478,173.53333104408125 L344.3935647694893,172.97628536416426 L345.2287784831994,172.9259028886558 L345.3295434342159,172.24254621380217 L346.164757147926,172.14178126278532 L347.733000399667,171.53435310735986 L348.7449075838221,171.4584245879317 L349.7319783363884,170.92763456426553 L351.0724360298447,170.54799196712463 L351.9580322190635,170.52244592320483 L353.55182151472434,170.14280332606393 L355.06755345396346,169.41474107435073 z"/>
	<path id="bolu-dortdivan" title="Dörtdivan" class="district" d="M473.11582240718474,312.8841621770598 L469.34920015368203,314.6830294364097 L467.3821547718604,315.38554564420315 L465.8082346214704,316.39745282835815 L465.10571841367744,317.1283535293958 L464.8807713047173,317.8592542304335 L464.5713803283551,320.27619383017543 L463.98098286887677,322.83363667147603 L462.71645369484804,324.71694779822735 L462.4915065858879,325.6727956082252 L462.5880138629181,328.5836253904158 L462.03877391864313,330.2199914259429 L461.0140937125281,331.5774798153458 L459.3237971398371,333.4728543517259 L457.71013869890555,334.6770664776103 L455.7381260307658,335.496668720036 L452.15174530936355,336.23963283070236 L448.51427250012256,336.9052491972784 L444.41626128799413,337.1358732048874 L442.69970905905245,337.3664972124963 L440.4970723833035,338.31382967452083 L439.4723921771893,338.9290635655885 L438.19508998120074,340.100633524242 L437.186730858701,338.99150945072563 L436.1081201154218,337.4658429388509 L435.08202068464584,334.93962304011893 L434.89752147855813,333.5714904657494 L436.6601985090213,332.04511434154364 L437.60753097104606,330.44068086091636 L438.2915972582309,327.9407166184352 L438.1340633207257,325.7309838193758 L437.7395188646314,324.20460769517 L436.4501532590147,323.1785082643929 L428.161881231714,319.8901647220546 L426.477971170003,318.8640652912775 L424.0574835086056,317.9692441417547 L420.82094166643805,317.4427117920751 L418.7949984611346,316.89063339847587 L415.7167001688031,316.3903567050471 L407.0608489539906,316.1270905302074 L403.403506999478,314.91720150567414 L399.8511876699687,313.9698690436496 L398.7463212704392,313.57532458755554 L396.9311329274737,312.60173646928024 L394.5369009223271,310.94408206382 L393.66833542905493,310.20750446413365 L391.9581697110932,309.3389389708617 L389.93222650578974,309.3126833146108 L388.09078250657393,308.89188320226583 L385.9328514076851,308.18156125883024 L383.0915636339423,306.68144079087534 L380.6185646600431,305.6028300475965 L380.11828796661456,305.1820299352514 L379.74999916677143,303.603142498544 L379.6449765417681,301.498432324488 L379.3291990544264,299.7882666065261 L378.06254104340496,297.4486747508746 L379.22417642942304,294.47681830820886 L380.81086960177254,293.024951478769 L385.4134151813163,287.52829436203365 L387.26834181482377,285.4278418619642 L387.49186969912165,284.1540877276316 L388.34056604712254,282.5901021498773 L391.7594782583842,279.01507522577276 L393.7329101511858,275.3258007163604 L395.0513698623778,274.23086888946625 L398.2403676783616,272.92234375090953 L399.4949622797541,272.53063774413977 L405.62672243282816,271.49389412839616 L413.62263417971377,269.59639075502264 L415.12914115864885,269.04147391209904 L417.1018634391191,267.9685400674689 L419.15335268834235,265.878022140035 L420.20783661236356,264.49143964505686 L422.17062432019884,262.31931629954596 L423.646617968896,261.1576809135278 L424.0468393236389,258.79325262628765 L424.74013057112825,256.2237463753583 L426.10258624684894,254.4135253187107 L426.90728663032115,252.89424531781594 L426.7284643228829,251.3749653169212 L425.6782380728485,249.09569050941357 L423.0860242273234,246.81641570190587 L421.70086095700736,245.07360781671323 L421.05298489870904,242.99586291123924 L424.16179652127806,241.8313890758967 L425.63849978230655,241.3857525319631 L429.83372788379603,239.58120837396436 L431.2870139378979,239.18240624388358 L433.6542806744629,239.06532020925138 L437.23995178353425,238.5969760707224 L439.23254320927566,238.10450511293587 L440.8965841257151,237.98741907830356 L443.87269824236733,238.33867718220026 L445.9121240819621,238.47918042375898 L447.78691986073983,238.36209438912678 L451.65430706525996,237.51836532744343 L453.6461888786705,236.72147067961313 L456.6698470215061,235.80748999715055 L458.12313307560794,235.24476741858464 L459.74317802752034,234.31517526483773 L462.4453817843664,238.8141174440403 L464.5309324254818,241.84771015951216 L466.20987520087556,243.77004996447414 L467.970423394346,245.61220357602147 L468.91846546870164,247.72471948571953 L468.9993612744474,253.95369652815495 L469.4329344087523,256.0392471692711 L470.54347770693124,259.2353411085659 L471.49151978128606,261.4564277049229 L472.4934923928058,263.35251185363416 L474.33493639202203,266.00646197196494 L475.0665467053911,267.57754367303045 L475.41851442161845,268.9584492693597 L475.50011983969597,270.55649623900706 L474.87708021298613,274.6736669840755 L473.9560034072121,277.7881555052931 L473.3059985119206,278.7361975796488 L472.8184948404524,279.90067141499117 L471.9243833032601,283.50266360767773 L471.6809862736918,287.2678666365182 L470.86848015457616,289.0284148299885 L468.8098947820425,292.2784393064471 L468.07899408100434,293.0639801569798 L467.5914904095361,294.0659527684993 L467.21184781239447,295.74489554389265 L467.1309520066495,298.7515229907824 L468.07899408100434,301.8929767805821 L468.43096179723256,303.38316267590153 L469.2434679163474,305.6035396599275 L471.4645545127044,308.5562365696534 L473.11582240718474,312.8841621770598 z"/>
	<path id="bolu-gerede" title="Gerede" class="district" d="M597.9373410607977,239.59114294659972 L596.9673010041786,241.48864631997324 L596.250592549763,242.2897986417902 L594.8803311384005,243.15410646107554 L588.9571970106704,245.59872094173045 L586.2592509278114,247.6856908075089 L584.8677011465155,250.00470390555836 L584.0033933272301,251.73331954412896 L582.7601525231349,253.3980700729001 L580.9861216953736,254.87406372159748 L579.1304854495357,256.1385928956257 L577.3883871766742,257.12211558653655 L575.2801289409628,258.75280472341467 L572.4416796165449,260.5232874895205 L569.378283183166,261.36630693887264 L565.9210519060247,261.9283199051074 L564.7970259735557,262.2093263882247 L562.4361457479707,263.5866839228986 L561.4802979379733,264.40202849133766 L557.6576163103138,268.1118817583521 L556.4775310036862,269.4047954256245 L555.447173898923,270.89356209628176 L555.4372393262868,272.97414545108006 L556.0276367857659,274.66018434978446 L557.2084317047244,277.10550844277054 L558.7262924809567,279.55083253575674 L559.1194177123882,280.8721306962733 L558.669523494468,282.81079158485073 L558.4445763855078,284.6096588442007 L558.5013453719965,288.23577785614475 L557.9109479125173,290.42777034692654 L557.095603344078,291.52412139848303 L555.3251205779729,293.26621967134463 L551.2214324671955,295.1779152913401 L546.3875532677108,296.47082895861257 L544.3637388994014,296.69506645524154 L541.834680551345,296.3863850912112 L540.3444946560252,296.02093474069227 L537.5621047057641,294.9806430632931 L535.0046618644642,293.5756106477062 L533.3746823399173,292.45158471523666 L529.214934854983,289.75292902004617 L527.7254585719941,289.0504128122528 L526.0387100609586,288.9659689448513 L523.8467175701769,289.5563664043302 L520.4455456671924,290.5966580817295 L518.0286060674505,290.87766456484684 L516.4270110361479,291.29917428952285 L511.56474734342055,293.4351074061475 L505.63380748004863,294.92458368913583 L502.6264704208275,295.7399282575749 L501.24982249848506,296.02093474069227 L497.28663762926567,296.18911286316415 L492.3122551882238,297.6509142652393 L490.0074343367965,298.5223182078356 L487.7870573527704,299.6747286335494 L486.29758106978244,300.91158292666455 L485.17284552498177,302.51317795796746 L483.6273098678352,306.6168660687448 L481.96894585004395,308.72441469212515 L480.7888605434182,309.76470636952445 L476.8256756741988,311.53518913563016 L473.11582240718474,312.8841621770598 L471.4645545127044,308.5562365696534 L469.2434679163474,305.6035396599275 L468.43096179723256,303.38316267590153 L468.07899408100434,301.8929767805821 L467.1309520066495,298.7515229907824 L467.21184781239447,295.74489554389265 L467.5914904095361,294.0659527684993 L468.07899408100434,293.0639801569798 L468.8098947820425,292.2784393064471 L470.86848015457616,289.0284148299885 L471.6809862736918,287.2678666365182 L471.9243833032601,283.50266360767773 L472.8184948404524,279.90067141499117 L473.3059985119206,278.7361975796488 L473.9560034072121,277.7881555052931 L474.87708021298613,274.6736669840755 L475.50011983969597,270.55649623900706 L475.41851442161845,268.9584492693597 L475.0665467053911,267.57754367303045 L474.33493639202203,266.00646197196494 L472.4934923928058,263.35251185363416 L471.49151978128606,261.4564277049229 L470.54347770693124,259.2353411085659 L469.4329344087523,256.0392471692711 L468.9993612744474,253.95369652815495 L468.91846546870164,247.72471948571953 L467.970423394346,245.61220357602147 L466.20987520087556,243.77004996447414 L464.5309324254818,241.84771015951216 L462.4453817843664,238.8141174440403 L459.74317802752034,234.31517526483773 L459.05982135266635,233.04496919216066 L458.92428539742554,230.4179843424118 L459.16768242699465,229.68637402904307 L460.1703646508453,227.8179647612449 L461.52430497859245,226.4093842840025 L462.661813545353,225.62384343346974 L464.6657587683917,224.54026540387318 L465.99344343988895,223.45739698660776 L467.64542094670026,221.69684879313743 L468.89150020012,220.6672013007048 L469.81186739356224,219.20469028629847 L470.92241069174116,216.60467070513147 L471.30205328888195,215.304660914548 L472.2770606318192,213.35464622867283 L474.10644122140644,210.41330311624475 L479.1290773009643,212.16391673707946 L482.23363124954653,212.6429050605751 L485.4226290655299,213.60159131989724 L486.7354118780737,213.8102173452419 L490.86109797111556,212.47614616276545 L492.6322903495514,211.60119415851358 L493.5285307237374,210.95473732487739 L495.1329642043636,210.24654421843508 L496.82113194006183,209.83000178007683 L498.3219620203479,209.76755589493956 L503.4482015002468,209.14238743123653 L509.19960944384917,206.9745217597123 L512.4503435326385,205.97467798518593 L516.5973179956138,205.01599172586378 L519.0355459652883,204.9322574707935 L522.1408095262013,204.28651024948832 L525.6413271555407,203.36969111770134 L528.1838681378871,202.36913773084405 L529.2674461674844,201.79435174264927 L530.2736764529905,203.26253965570461 L531.686514604219,204.24109506029765 L532.7466754268893,204.70305268784668 L535.6007362225916,205.43679183820882 L537.8296285545912,206.95891028842786 L538.8897893772614,207.23069181124094 L540.4353250344063,207.24417444553188 L545.7432252710684,206.77512069467187 L547.0730387795584,206.80563402490935 L551.0638985296904,206.39334926053755 L552.5008635001768,206.13292153502223 L554.9163838752561,205.47582051641953 L557.0572842781983,205.72063677065054 L558.1117682022203,205.59787383736943 L560.8026181617684,204.2680603288796 L561.9188383585963,203.5343211785176 L564.6480073840232,202.56073306024217 L567.2402212295484,201.4281917797994 L568.523909936516,200.7235467350126 L570.3100041739063,199.99406525863728 L571.5433104053661,199.7173164495064 L574.5378744426274,199.59100545456982 L577.2053071952492,199.7173164495064 L580.5518389487378,199.74215288109508 L581.9362926067229,200.92507663704635 L582.3890252739677,201.52895673081625 L583.7983153635416,204.6242857190941 L585.383589311228,208.8514463754837 L585.785939502965,209.4553264692536 L587.2207756364579,210.86461655882715 L588.7052846331286,212.75218535956517 L593.7634013292417,216.82890820176058 L595.2727467575012,217.96144948220325 L596.9843317001248,220.4273523327915 L597.13547912665,221.3832001427892 L597.0091681317137,223.97541398831402 L597.5612465253132,225.86511162604532 L597.4193240590924,227.71507097323476 L597.4760930455802,230.0213110493243 L597.3618454602729,233.03929229351183 L597.4477085523359,234.61817973021945 L597.2412113639847,235.3753360875079 L596.5883680193687,236.40853164159606 L596.1661486823618,237.79937181056087 L596.6089467769713,239.06461059692026 L597.9373410607977,239.59114294659972 z"/>
	<path id="bolu-goynuk" title="Göynük" class="district" d="M4.4126200386715375,378.37073615303916 L3.2318251197139958,375.54647907524327 L3.062937384910736,374.6395945160916 L3.294980617181732,372.7640891249825 L4.580798161143456,370.59267539180263 L6.984255126594114,368.12606292888336 L7.4476319788056315,367.0722886171932 L7.805986206013404,362.75074952076676 L7.932297200949744,360.0528034379074 L7.63780808354149,359.16791686102005 L6.6259008993867745,358.6619632689426 L5.360662113027168,357.65005608478754 L3.8853780766609383,355.1621552519352 L3.4638683519849955,354.10838094024496 L3.042358627309053,352.19029880926945 L3.3375573570482224,350.31408380582917 L4.812841393414455,348.60675653719176 L5.7190163402349405,347.25778349576206 L5.592705345298167,344.89690327017735 L5.508261477896969,340.80740740602204 L5.592705345298167,338.9524807725149 L5.846036947502629,338.06688458329654 L8.712870765164805,334.50463068115187 L9.934823199326576,332.6497040476447 L10.293177426534783,329.7828702299825 L11.05246262081638,327.21123514205976 L11.0553010701409,326.10991680418556 L11.450555138566124,324.78152252035795 L11.71878859972366,323.10612780662024 L12.572452234042274,321.1142459932098 L14.928365173309187,319.390597640957 L17.22041300277658,317.2880163038943 L18.65950681025671,316.1022540986187 L21.29926468196558,313.68389527421454 L22.832736929482287,312.64005553515983 L24.14551974202564,312.29234549291857 L26.011090560499404,312.18164596926636 L30.959217345291005,313.00408666101646 L33.4726642220631,313.6675741905992 L38.50026758793908,314.22107180886076 L40.634781479901285,314.1259837564927 L44.66608913290567,314.284227306329 L49.58299297512886,314.63193734857015 L54.12025422021125,314.74263687222253 L61.01342840456056,314.189139253961 L63.700730302453174,313.9045847091881 L66.62575233126583,312.62444406387556 L68.00098102894644,312.59251150897586 L69.10726665313817,312.166034497982 L73.0598073373904,311.5806043248208 L75.82658581636696,311.7544593459414 L78.2137216982027,312.43426795913956 L79.38387243219395,313.03530960358506 L80.8222566273423,313.4305636720103 L83.36763605901459,313.50933064076287 L88.8380375194991,312.81391055628046 L89.75485665128632,312.4030450165709 L92.56917915644661,309.5887225114104 L94.89315954081377,307.40737420559526 L96.03137771990569,307.2015866295749 L96.83323965405336,307.44498365914376 L98.35110043028607,308.4093468171148 L100.30040550383012,309.0252903205135 L104.01451644483139,309.4148674902899 L111.70884295099744,310.7077811575623 L117.02242008630768,311.17967335774676 L119.34143318435757,311.17967335774676 L120.69537351210471,311.0356220545325 L123.24004333144566,310.99446453932853 L125.80458229605736,311.6104080427272 L127.384179345096,312.390271994611 L128.34854250306697,313.0466634008827 L129.1695639701549,314.19552576494095 L130.74916101919354,319.0584990700001 L131.2827894921841,320.2279401916603 L131.40555242546543,321.64361679221383 L131.17989570417393,322.7101641258639 L130.64697684351432,323.8185785870491 L130.56466181310628,325.3570181208837 L132.35004643816518,328.1685021767197 L133.58051422030053,328.96823527387454 L135.40705636056367,330.5691206928463 L137.0278109248061,331.26666961432204 L139.1821939620395,331.77971932971053 L140.6596068353989,332.8051091481566 L143.71661675779694,336.4163263011474 L143.8599584486804,337.48358324712865 L143.42922376369998,338.61186685358473 L141.43947078728306,341.3616146366147 L139.63350740462204,344.78762297118726 L138.30014583447655,346.6141651114503 L138.11493701605798,347.8453425059166 L138.87422221034,350.3893027129262 L139.40785068333054,350.90235242831477 L143.26530331521485,352.9538416775379 L146.67144250451662,354.36951827809145 L149.29771774193424,355.16996098757727 L150.22092338470097,355.76461612104293 L151.82109919134172,357.3655015400147 L154.42679567115766,358.98625610425734 L155.72893429873426,360.0400304159475 L153.7810484498525,362.88486625134556 L152.8110083932325,365.3720574718668 L150.95608175972546,371.92745618661024 L149.7121313432993,374.0562931799237 L148.86911189394698,376.62863788017756 L148.59520153414041,378.54672001115307 L148.55333440660527,380.23275890985735 L148.13182468192934,383.9639005468049 L148.40573504173545,386.19846977745294 L148.76408926894368,387.27353245907625 L150.0917739404401,388.5380616331045 L150.95608175972546,389.5712571871927 L151.0618139970601,392.79644523206264 L150.7666152673205,393.8083524162177 L149.7965752107005,395.0941699601791 L148.84782352401396,395.8946126696649 L147.2880956202461,396.90651985381993 L146.10801031361947,397.2442953234257 L142.27113643933728,397.4969173132989 L140.8377195305062,397.81340441297147 L136.4956016764778,398.129181900313 L131.16286500822727,398.33993676265106 L127.30541237634341,397.7076721756369 L122.70996292011054,397.05411921868966 L120.55628949520847,397.37060631836226 L119.03842871897575,397.9042347913529 L118.08258090897792,398.43857287667464 L116.22765427547088,401.4459099358955 L115.5535225609214,402.03630739537437 L111.36539058274273,404.986875468107 L109.56652332339257,406.3358485095366 L104.70425963066486,408.05098151381617 L100.54451214573011,409.0905635788843 L97.70606282131226,409.17500744628575 L96.1037581776779,409.37157006200175 L95.17629486092481,409.76540490576474 L92.67491139378129,411.2825560696661 L91.18543511079288,412.32284774706534 L88.88061425936559,413.7278801626522 L86.35155591130906,416.17320425563844 L84.24329767559757,417.7755088992724 L81.60141096689553,418.8434754575846 L80.65478811720172,418.91869436468176 L74.79977677325873,418.6185283486246 L72.70925884582482,418.0841902633028 L70.07446826043366,416.84094945920776 L68.89438295380702,416.63019459686967 L63.49778117575741,416.3349958671302 L59.02864271446089,415.80775390511957 L57.468914810693455,416.3349958671302 L56.33069663160197,416.3768629946653 L53.71719441614382,415.93406490005617 L52.66271049212219,415.97664163992243 L50.95538322348496,416.3768629946653 L48.468192002963576,417.1780153164824 L45.580069815368375,417.89472377089794 L41.912793288220364,418.2317896281726 L36.36859214530052,417.3887701788204 L33.94455642224774,416.503173989602 L32.215940783677055,416.46130686206686 L30.571769012508426,417.4732140462219 L29.41226246348348,416.29241912726394 L27.641779697377647,414.96473445576737 L25.702409196468984,413.1516749497954 L24.205836790169727,411.35990381375655 L23.784327065493784,409.56813267771764 L23.995081927831322,407.29169631953437 L23.742459937958643,402.0426939063543 L22.89873087627498,400.2722111402486 L21.697357199714887,399.76625754817115 L18.409013657376768,398.96510522635407 L16.89115288114448,398.2909735118048 L16.427776028933398,396.87884497290685 L16.46964315646854,395.9513816561532 L17.333950975753453,393.8218350505086 L17.692305202961222,392.5785942464136 L18.029371060235967,390.3858921433007 L17.48155034062325,388.8687409793992 L15.057514617570046,387.6460789329061 L13.202587984063015,386.9712376060258 L12.001214307502924,386.69732724621946 L10.10371093412984,385.8543077968672 L8.839181760101578,385.11631097251853 L7.510787476273802,383.43027207381425 L6.11994730730877,380.2256627865463 L4.4126200386715375,378.37073615303916 z"/>
	<path id="bolu-kibriscik" title="Kıbrısçık" class="district" d="M378.06254104340496,297.4486747508746 L379.3291990544264,299.7882666065261 L379.6449765417681,301.498432324488 L379.74999916677143,303.603142498544 L380.11828796661456,305.1820299352514 L380.6185646600431,305.6028300475965 L383.0915636339423,306.68144079087534 L385.9328514076851,308.18156125883024 L388.09078250657393,308.89188320226583 L389.93222650578974,309.3126833146108 L391.9581697110932,309.3389389708617 L393.66833542905493,310.20750446413365 L394.5369009223271,310.94408206382 L396.9311329274737,312.60173646928024 L398.7463212704392,313.57532458755554 L399.8511876699687,313.9698690436496 L403.403506999478,314.91720150567414 L407.0608489539906,316.1270905302074 L415.7167001688031,316.3903567050471 L418.7949984611346,316.89063339847587 L420.82094166643805,317.4427117920751 L424.0574835086056,317.9692441417547 L426.477971170003,318.8640652912775 L428.161881231714,319.8901647220546 L436.4501532590147,323.1785082643929 L437.7395188646314,324.20460769517 L438.1340633207257,325.7309838193758 L438.2915972582309,327.9407166184352 L437.60753097104606,330.44068086091636 L436.6601985090213,332.04511434154364 L434.89752147855813,333.5714904657494 L435.08202068464584,334.93962304011893 L436.1081201154218,337.4658429388509 L437.186730858701,338.99150945072563 L438.19508998120074,340.100633524242 L436.2450752953253,342.69426659442894 L434.11907675133665,344.2057408596816 L432.37697847847517,346.15220748390124 L431.506284148209,346.8951715945676 L431.0450361329915,348.76500008702806 L430.456057898175,349.8152263370627 L429.89262570727743,350.3020203962004 L427.74959646734254,350.58799416563556 L424.4818316826061,351.7262123447271 L419.9921144637079,353.64500408803366 L415.4392417473415,356.1321953085551 L413.05707315182343,356.89077089050573 L410.80121555124214,357.2072579901784 L407.36527264403423,358.23974393193544 L403.2764863922103,360.32671379771375 L401.4002713887698,361.170442859397 L397.8585962442272,363.4468792175803 L396.34073546799493,364.62696452420704 L392.9047925607866,366.6926460200523 L390.7340884399378,367.7045532042073 L387.4244565276667,368.9903707481687 L385.1898872970184,369.4331688427779 L381.796521129677,368.9697919905667 L377.91778012785966,367.4093544744678 L376.7369852089017,367.17802085452774 L372.1841124925353,366.6926460200523 L368.20034886571426,366.96726599218977 L366.23968999487255,366.2505575377742 L363.49916717214717,364.85900775647826 L360.1058010048053,363.615057340052 L357.11265619220677,363.0672366204394 L355.69981804097733,363.02536949290413 L353.8030242799352,363.95283280965776 L352.2298137418765,359.7043837833351 L352.2298137418765,358.1169809986543 L352.67970795979676,355.8412542528021 L352.41573217262555,353.43283000103344 L352.12408150454183,351.87168287260357 L351.43646715570156,350.0195946884208 L350.4309464825268,348.7493886157437 L349.081263828766,346.6063593758081 L348.28720763026007,344.6215736857088 L347.8373134123398,342.55731141452577 L348.18147539292545,337.5297080486503 L347.7848020998375,335.09502814063086 L347.0439668261649,332.92574324444433 L346.646583920746,328.55949857115826 L346.9375249764993,325.70118010146933 L347.5726280128373,322.737839006777 L349.10751948501667,319.29763842558225 L349.3984605407695,318.4248152583238 L349.70004578148865,316.2903013663614 L349.4651640998931,314.1728181703455 L348.5242181488488,310.8333825401678 L347.1596336361349,307.06959873598953 L344.996025638597,303.54140622573783 L344.0550796875527,301.70705834983266 L342.314400639353,295.40286240030025 L341.93830610386766,292.9568286949831 L341.185407420566,290.65200784355557 L340.4325087372639,287.0294368932671 L340.2912958833745,283.9717173585377 L340.15079264181554,278.70284580008683 L340.1664041131,276.3128714689269 L341.0158100734318,275.99851320624754 L342.46767690287186,275.8196908988092 L343.272377286344,276.0205111885118 L344.9037760355536,275.953807629388 L346.0654114215713,275.1491072459155 L348.03174719106204,274.8808737847579 L349.37220488451834,274.8808737847579 L351.27183709488503,275.4620462839326 L353.8633413280793,276.8252115719843 L357.14813680876193,279.08177878489664 L358.53330007907795,279.9084771506334 L360.5670490200232,280.80258868782505 L361.63927325232197,281.1375257081064 L364.8793631561455,281.09282013124675 L366.93511007935507,281.6292870535618 L368.5657992162333,282.47798340156277 L370.8450740237408,283.9752654201934 L371.80588912005635,284.95878811110424 L373.59340258210887,288.15346282573665 L374.0631659452999,289.2711022472263 L373.6608157535638,292.9802459019095 L374.1298695044235,294.56622946192806 L375.7385606590378,296.4211560954352 L378.06254104340496,297.4486747508746 z"/>
	<path id="bolu-mengen" title="Mengen" class="district" d="M355.06755345396346,169.41474107435073 L355.31520815751884,169.31539534799606 L355.87934996074694,167.7904384484525 L357.0679506153471,165.89293507507904 L359.57288214414564,162.73090252767736 L360.6855542793177,160.25577471678486 L362.06575026331603,160.77024365683562 L363.1621013148724,161.46779257831136 L370.1652654105427,162.68903540014222 L375.49871169112413,163.21272930049733 L376.5950627426809,163.98549712907013 L377.8532054057292,164.08484285542477 L378.3641262841245,163.43696679712633 L379.9344983728586,163.4866396603037 L381.65388905112485,163.9351146535617 L382.97447759931043,163.5866949989894 L384.4199579177701,164.20973462569918 L385.0678339760684,163.8854417903844 L385.84060180464127,164.2345710572878 L386.7375517911573,164.10967928701345 L387.1987998063752,164.69510946017465 L391.84676057510995,164.60853675577988 L393.91528052027945,164.45880855391687 L395.3359244071506,163.83576892720708 L399.19834432535265,163.01332823545695 L400.44442357877193,162.58968967378757 L402.61299886262753,162.31577931398124 L407.0487855443616,161.36844685195672 L409.0420865824344,160.67089793048103 L411.43489936291877,159.32476333837576 L415.72095784278986,158.5023226466256 L418.4877363217664,158.30292158158528 L420.9798948286055,157.92966549542433 L425.2659533084766,156.70842267359342 L428.3314785788482,156.4841851769644 L430.15021498346914,157.05684232816574 L432.04487990751767,157.92966549542433 L439.02249795926906,159.2254176120211 L442.3619335894459,159.49932797182746 L443.08431894251135,159.99747582826282 L446.0256620549385,161.29393755719073 L447.59532453134216,161.81692184521478 L452.5548051134314,162.58968967378757 L455.27120111690016,163.1126739618116 L458.26150748017415,163.33691145844062 L461.7258348806264,163.31207502685197 L466.4859143976753,163.03816466704563 L468.7786718394736,163.28723859526332 L470.07442395607114,162.66419896855353 L470.6761752128467,162.11141096262313 L471.65473061744024,161.7580240217331 L474.3455805769883,161.15982082661202 L476.8462544318005,161.21446097610706 L480.0806674369754,162.08444569404116 L481.1947587968097,162.19301638070013 L484.45684668289624,162.02980554454612 L486.73966955206004,162.24765653019517 L488.61517494316877,161.78498929031508 L490.5992510209375,161.02428487137104 L494.81221943070506,159.71930779446984 L496.6330846723196,158.4150403298998 L498.590195481505,157.2193435519887 L499.92213782698775,156.56650020737254 L502.42281168180085,156.1045425798235 L504.89652026803054,156.1861479979005 L508.45664533318205,156.13150784840545 L511.20213544222514,156.53953493879058 L512.2346213839828,156.94756202917563 L513.5126331923024,158.17022407566873 L514.2186974617507,159.17574474884378 L515.931701629037,160.80714349805305 L517.5347158850022,161.97587500738217 L520.0084244712319,165.31885869921547 L522.5907037441217,168.3900608682358 L523.6231896858794,169.2870108547519 L524.6287103590537,170.672883737399 L525.0637027180213,171.5698337239151 L525.444764539824,173.11962705504732 L525.7165460626373,176.0545836564956 L526.4502852129992,177.6313422562098 L527.29259505002,178.20187057041778 L529.6300580686782,178.28347598849484 L533.3264287014014,177.57670210671475 L535.2835395105885,176.73439226969373 L536.2620949151811,176.73439226969373 L536.9688687969613,178.22954545133086 L537.1590449016971,179.126495437847 L536.9142286474663,181.16450205277914 L536.0719188104454,183.09464759338334 L534.0332025831815,186.13888449382168 L533.2178580147431,188.55795293055698 L533.1092873280838,192.41753439943443 L532.2123373415678,194.99981367232374 L531.4785981912061,196.30408113689379 L530.1643961540004,198.26119194608003 L529.5122624217154,199.97348650103515 L529.2674461674844,201.79435174264927 L528.1838681378871,202.36913773084405 L525.6413271555407,203.36969111770134 L522.1408095262013,204.28651024948832 L519.0355459652883,204.9322574707935 L516.5973179956138,205.01599172586378 L512.4503435326385,205.97467798518593 L509.19960944384917,206.9745217597123 L503.4482015002468,209.14238743123653 L498.3219620203479,209.76755589493956 L496.82113194006183,209.83000178007683 L495.1329642043636,210.24654421843508 L493.5285307237374,210.95473732487739 L492.6322903495514,211.60119415851358 L490.86109797111556,212.47614616276545 L486.7354118780737,213.8102173452419 L485.4226290655299,213.60159131989724 L482.23363124954653,212.6429050605751 L479.1290773009643,212.16391673707946 L474.10644122140644,210.41330311624475 L470.6059235920681,209.16296618883854 L466.62570802690243,208.45406347006508 L462.7490958620787,208.35046006972382 L458.4360721136256,207.72529160602076 L457.03955504601237,207.72529160602076 L452.3717251320064,208.37103882732592 L450.6416902687739,208.43348471246307 L446.36982403552497,207.85018337629518 L444.8902823251724,207.95449638896758 L443.89043855064534,208.2248586871184 L440.91006676000677,208.70455662294503 L436.179790960864,209.97547230795323 L433.0958157698843,210.4551702437799 L432.0328164978887,211.16336335022208 L430.511407660001,212.47614616276545 L428.2605173457378,212.9970016137962 L426.82284276291995,212.9970016137962 L422.40479638946346,213.83079610284392 L419.9665684197881,214.87250700490546 L417.1955322668252,215.43522958347123 L415.71599055647215,215.8524816341607 L413.52754612734583,216.68556651087732 L410.6514873493792,217.4150479872528 L407.40075326058945,217.97777056581867 L405.81689853756444,218.14452946362823 L401.44071929164267,218.22755410636748 L399.58650227046655,218.97832395267608 L396.6479976073631,221.22850465460843 L395.5849983353683,221.47899780748827 L390.60493899567695,220.18679375254703 L389.6249643664216,219.4778910337737 L388.7918794897051,217.72798702526998 L388.7294336045678,214.16431389846304 L388.27102403867445,212.14262836714633 L388.39591580894853,209.95489355035113 L388.31218155387825,209.1005203037014 L387.64443635030915,208.38877913560353 L386.04071248201296,207.80831624876004 L382.03991815924564,207.45421969553894 L380.6228223340299,207.0788347723846 L378.97652172586766,205.84978621491163 L376.6972469183597,203.86358130015012 L372.91856125522844,201.33523256442473 L371.6682243278224,200.7235467350126 L367.5283459881584,198.11146374421693 L365.6386483504275,196.1671259569906 L365.38886480987844,194.4718620979819 L365.4718894526178,192.5821644602507 L365.83308212914966,191.0543691113826 L366.4447679585619,189.99846596269913 L368.13932220523924,188.46996100150002 L369.19522535392315,187.10892455044157 L369.41733401355873,186.35886431646412 L369.38965913264576,184.96944337216155 L369.0284664561135,184.13564888311373 L367.5283459881584,182.52411927917532 L365.30513055480816,180.82956503249778 L363.4438174103212,179.07895141166298 L362.55467315944696,178.49565007549506 L361.6378540276602,176.5782775568507 L359.94259016865107,175.24420637437424 L358.30338568379966,174.4941461403968 L356.4697474202261,172.7995918937192 L355.74736206716153,171.57692984722615 L355.06755345396346,169.41474107435073 z"/>
	<path id="bolu-mudurnu" title="Mudurnu" class="district" d="M152.3596949506504,265.41819334947934 L157.2900814271644,265.44090094407466 L160.32580297962897,266.07316553108876 L167.05505671549315,266.98359815189593 L174.74583516000374,267.33769470511703 L176.39000693117325,267.5910263073214 L178.16048969727908,267.6165723512411 L180.96913530379078,268.1473623749073 L182.2336644778186,268.6788620109045 L183.29595413748245,269.61484067563134 L186.55946124823168,273.1820618640937 L187.7487715151628,274.0669484409811 L190.15222848061387,276.49595145035187 L191.56861469349872,277.53269506609547 L195.768100468975,277.96342975107586 L197.13410420635114,278.0138122265844 L199.23384709408953,277.6086235855237 L200.8276363897503,276.59671640136867 L201.78916109839676,275.6103552611334 L202.6236651997755,275.25625870791225 L205.83678983501648,274.52251955755014 L208.9228938629906,274.29473399926565 L213.37571124067094,274.16842300432904 L215.27321461404446,274.26989756767694 L216.61367230750122,274.57290203305854 L217.92929356936867,275.1547841445643 L219.42160830168115,275.58480921721366 L220.83870412689689,275.45849822227706 L222.8873549267961,275.05401919354745 L224.2029761886635,274.54806560146983 L225.1141184218017,273.81432645110783 L226.9860757512554,272.7009447036048 L229.23767567785035,271.6890375194499 L230.72999041016283,271.309394922309 L233.1838298511222,271.0063904569273 L234.52499715690988,270.6267478597865 L236.33450860122633,273.7518805659706 L237.55291297373267,275.3768928042 L238.2029178690242,276.59600678903746 L240.01810621198968,282.771053294309 L240.4509697339637,284.80267339826116 L241.69704898738303,286.96911984512326 L243.59313313609428,289.4066382024672 L244.75760697143693,290.02967782917693 L246.08458203060243,290.30074973965884 L249.57871314896082,290.59807730639164 L250.2017527756707,291.03165044069647 L250.987293626203,292.27772969411603 L254.3451791769897,295.52775417057467 L255.59125843040945,296.4757962449303 L257.6228785343615,297.28830236404497 L259.84325551838765,297.017230453563 L261.30647614512486,296.4488309763483 L264.96239887497563,295.28364752867475 L267.3190214265735,295.33828767816976 L268.07688739619323,295.6632901258157 L272.7354923498939,298.4258109308055 L274.06317702139074,299.3738530051611 L274.6585417671876,299.563319497566 L275.931586289189,300.80939875098557 L276.8796283635446,302.29887503397384 L277.77373990073613,303.3278129140755 L278.6941070941783,303.92388727220316 L281.13162545152284,304.8449640779768 L282.6757418840058,305.87390195807836 L282.3777047049421,306.957479987675 L281.83627049630934,307.6883806887126 L281.7007345410685,308.7449934497272 L279.37107725805237,310.18053919555166 L278.6132112884326,311.3180477623121 L277.3401667664312,311.37197829947604 L275.33551193106075,312.86145458246443 L272.7901324993889,312.99699053770536 L271.27298133548754,314.7575387311757 L271.46244782789245,315.48914904454443 L270.46047521637314,316.1661192084181 L269.9729715449045,317.4930942675835 L269.946006276322,318.22470458095233 L269.2690361124489,318.5220321476851 L269.0795696200439,319.6872155953587 L269.78350505249955,319.9845431620914 L269.8920757391583,320.9056199678651 L271.13744538024673,322.1247339527027 L271.5170879773875,323.532604817614 L272.1401276040974,324.04778336999595 L272.2749539470073,324.67011338437453 L272.3026288279203,326.83726944356766 L270.9749441564238,330.0333633828624 L267.6440238742192,333.4998196203079 L266.0459769045721,334.8544695603864 L264.3663245168474,337.15645196248937 L263.68935435297385,338.61896297689583 L263.47292259198684,341.3545185133036 L263.4998878605689,342.7354241096331 L263.7709597710509,343.9006075573066 L264.1768580244425,347.06902661568824 L264.01435680062,348.55850289867664 L263.60845854722766,349.96708337591906 L262.74131227861824,351.07762667409764 L260.17038680302653,353.8295032941209 L259.3742017675275,353.36399760491634 L255.83323623531584,352.1200471884901 L250.55230126723626,351.7333084680382 L244.22894578476362,351.79007745452657 L243.35754184216742,352.0426994443998 L242.17674692320986,352.8012750263504 L238.49527814943926,353.8131822105055 L237.0058018664513,353.7294479554352 L232.0030349321642,353.7294479554352 L229.88484212381735,353.9260105711511 L227.05277931037946,355.2118281151125 L225.15527593700594,355.54889397238713 L219.86440639629055,356.8347115163484 L215.58544403973073,357.6990193356338 L213.8994051410261,357.97292969544014 L211.3909255505717,358.6690593922537 L209.5778660445998,359.53265759920777 L208.20760463323688,360.4182537884263 L206.56343286206783,361.7459384599228 L204.58219523362402,362.46264691433834 L203.57028804946887,362.61024627920807 L200.36638837453197,362.54709078173977 L197.49955455686978,361.9779816921939 L193.76841291992227,360.81847514316917 L192.4194398784928,359.8491446988804 L191.2173565896018,359.343191106803 L188.77274210894691,359.11114787453175 L186.17981865109087,358.4370161599825 L183.94524942044305,358.0573735628416 L182.51183251161194,358.0155064353064 L179.26535609680855,358.2262612976444 L177.66376106550555,358.0786619327747 L176.1246119193398,357.72030770556694 L173.7218645662205,356.328757924271 L172.24658052985382,355.00107325277446 L171.3822727105689,354.72716289296807 L169.65365707199823,354.5369867882321 L167.39779947141693,354.49511966069696 L165.7749160701809,354.72716289296807 L164.32021079141634,355.2118281151125 L161.5591092110888,355.8859598296618 L159.15565224563773,357.2562212410246 L155.72893429873426,360.0400304159475 L154.42679567115766,358.98625610425734 L151.82109919134172,357.3655015400147 L150.22092338470097,355.76461612104293 L149.29771774193424,355.16996098757727 L146.67144250451662,354.36951827809145 L143.26530331521485,352.9538416775379 L139.40785068333054,350.90235242831477 L138.87422221034,350.3893027129262 L138.11493701605798,347.8453425059166 L138.30014583447655,346.6141651114503 L139.63350740462204,344.78762297118726 L141.43947078728306,341.3616146366147 L143.42922376369998,338.61186685358473 L143.8599584486804,337.48358324712865 L143.71661675779694,336.4163263011474 L140.6596068353989,332.8051091481566 L139.1821939620395,331.77971932971053 L137.0278109248061,331.26666961432204 L135.40705636056367,330.5691206928463 L133.58051422030053,328.96823527387454 L132.35004643816518,328.1685021767197 L130.56466181310628,325.3570181208837 L130.64697684351432,323.8185785870491 L131.17989570417393,322.7101641258639 L131.40555242546543,321.64361679221383 L131.2827894921841,320.2279401916603 L130.74916101919354,319.0584990700001 L129.1695639701549,314.19552576494095 L128.34854250306697,313.0466634008827 L127.384179345096,312.390271994611 L125.80458229605736,311.6104080427272 L123.24004333144566,310.99446453932853 L120.69537351210471,311.0356220545325 L119.34143318435757,311.17967335774676 L117.02242008630768,311.17967335774676 L111.70884295099744,310.7077811575623 L104.01451644483139,309.4148674902899 L100.30040550383012,309.0252903205135 L98.35110043028607,308.4093468171148 L96.83323965405336,307.44498365914376 L96.03137771990569,307.2015866295749 L96.85310879932454,306.0953010053829 L96.5841657258361,304.940761742676 L98.41851360174101,303.2334344740385 L97.99132697841647,302.3797708397198 L95.5098126565437,301.33664071299614 L95.14578153068689,299.66053638692733 L95.77804611770124,296.7355143581146 L95.79436720131658,294.75924401598843 L95.95190113882175,293.8587459678169 L96.93258538040806,293.2420928520871 L98.94007866510302,292.8305177000464 L99.55673178083293,292.182641641748 L98.94007866510302,291.2814339812453 L97.23629945812121,289.9395570631267 L95.9710606717616,288.58348789838595 L95.65883124607576,285.96927607059695 L96.01363741162767,284.1817626085448 L96.47417581451467,283.20746487793826 L98.09138231710209,280.8480038770157 L99.55957023015702,279.50328850957277 L102.30080266521378,276.476791917412 L102.65418960610386,275.933938484117 L102.96358058246562,274.48703894099486 L102.70812014326755,271.8089620034065 L102.86778291776635,271.19372811233893 L103.78389243722222,270.515338723803 L106.82812933766034,269.6538693538422 L107.64915080474873,271.71032588938306 L108.60074094075979,272.4916090659291 L110.61533034876561,273.05504125682603 L114.23293401273583,273.68801545617134 L120.86071318525211,273.3083728590303 L124.09867425208196,272.7264907475246 L128.09592051319385,270.8545334180709 L131.0053310707221,270.1463403116287 L133.23138495339722,270.1207942677089 L135.96339242814952,269.7666977144877 L137.70903876266644,268.6533159669848 L139.12613458788218,268.0210513799708 L144.16012446473724,266.8572871569593 L148.28368172078592,265.8453799728043 L151.4208778365988,265.44090094407466 L152.3596949506504,265.41819334947934 z"/>
	<path id="bolu-seben" title="Seben" class="district" d="M338.83588099227904,369.9923433596882 L337.6777936679163,370.04414505985886 L335.35381328354873,370.87368187492007 L332.8510105917434,371.5158810345696 L330.6171509734265,372.2631028192226 L328.2598188094973,372.63635890538364 L325.4760096345745,374.1059660431011 L322.580791323668,376.0453365440096 L321.2034337889938,376.6917933776459 L318.0555934882146,377.84420380335956 L311.98485999561547,380.79477187609217 L308.275006728601,382.1437449175218 L306.307251734448,382.64969850959926 L303.91869662795045,382.81858624440224 L299.53400203405596,381.9471823018058 L294.0536660009356,380.4016466446602 L291.49551354730386,379.2492362189466 L289.7534152744424,378.57439489206615 L286.8581969635363,377.1409779832351 L284.019747639118,375.51099845868794 L282.64593816609965,374.99085261998835 L281.42327611960656,373.9583666782313 L278.97795202662076,372.3354832769954 L277.4395124927859,371.47117545771 L273.37130499856363,368.5198977726464 L270.4618944410354,366.6855498967413 L267.00537277622493,365.0207993679701 L266.0566210895384,364.3246696711566 L265.0028467778481,362.1539655503078 L263.54814149908395,358.2752245484906 L262.5993898123975,356.63105277732143 L261.33486063836915,354.9868810061524 L260.17038680302653,353.8295032941209 L262.74131227861824,351.07762667409764 L263.60845854722766,349.96708337591906 L264.01435680062,348.55850289867664 L264.1768580244425,347.06902661568824 L263.7709597710509,343.9006075573066 L263.4998878605689,342.7354241096331 L263.47292259198684,341.3545185133036 L263.68935435297385,338.61896297689583 L264.3663245168474,337.15645196248937 L266.0459769045721,334.8544695603864 L267.6440238742192,333.4998196203079 L270.9749441564238,330.0333633828624 L272.3026288279203,326.83726944356766 L272.2749539470073,324.67011338437453 L272.1401276040974,324.04778336999595 L271.5170879773875,323.532604817614 L271.13744538024673,322.1247339527027 L269.8920757391583,320.9056199678651 L269.78350505249955,319.9845431620914 L269.0795696200439,319.6872155953587 L269.2690361124489,318.5220321476851 L269.946006276322,318.22470458095233 L269.9729715449045,317.4930942675835 L270.46047521637314,316.1661192084181 L271.46244782789245,315.48914904454443 L271.27298133548754,314.7575387311757 L272.7901324993889,312.99699053770536 L275.33551193106075,312.86145458246443 L277.3401667664312,311.37197829947604 L278.6132112884326,311.3180477623121 L279.37107725805237,310.18053919555166 L281.7007345410685,308.7449934497272 L281.83627049630934,307.6883806887126 L282.3777047049421,306.957479987675 L282.6757418840058,305.87390195807836 L284.4178401568673,305.3665291413386 L285.4254896670361,304.533444264622 L286.500552348659,304.3986179217121 L288.55700888419994,303.5385677764134 L290.74758215031994,303.04183914464033 L291.8219352196119,302.6380697282419 L292.27892556084305,302.14134109646864 L294.5773599012908,301.49630348749463 L295.2486531665158,300.99886524339036 L297.00778213532396,300.8143660373032 L299.827071926802,301.5041092231368 L300.4664326371272,301.9334246834551 L301.92184752822266,302.00083785490995 L303.3524259877292,301.40334427211997 L303.8065778796358,301.016605551668 L305.49758406465816,300.46097909641315 L308.4332502784375,300.0657250279879 L308.80295830294295,299.8521317163256 L311.09216768308585,300.23390315045975 L312.51635963161243,299.79607234216826 L313.2905466848475,298.3605265963439 L314.3790920007621,297.159862532115 L315.62446164185053,296.27355673056553 L317.4751306013708,294.40018017644957 L316.33123552363026,293.97370316545585 L315.6578134214125,294.2092944593825 L315.2873957845758,293.5585799517596 L315.52298707850264,292.88586746187264 L314.49121074907674,291.1579614356332 L315.3328109737668,290.70877683004403 L316.71229734543374,291.7412627718011 L317.51983617823043,291.2927877785429 L318.8106210085098,290.94436812397066 L319.56210046714966,290.36106678780277 L320.9309426538499,290.3390688055385 L321.42412322396757,289.452763003989 L321.11047457361946,288.38692528267006 L320.67264376532773,287.88168130292354 L322.0975453261857,287.08549626742433 L322.0187783574331,286.69308064832364 L324.2008362755795,285.6329198256535 L325.90035780857494,285.1000009649939 L326.94419754762987,285.2007659160108 L327.9312683001961,284.43793266007344 L328.5316003323103,283.66942250548726 L329.88341182306425,283.6190400299788 L330.23112186530574,282.97967931965366 L331.06136829269815,283.09179806796817 L332.03282757397994,283.5729152284571 L334.714452573224,281.45046474612343 L335.8540899769777,280.6684719572463 L337.1051365167147,279.37271984064944 L337.3733699778727,278.0989657063169 L338.4015982456432,277.24955974598487 L340.1664041131,276.3128714689269 L340.15079264181554,278.70284580008683 L340.2912958833745,283.9717173585377 L340.4325087372639,287.0294368932671 L341.185407420566,290.65200784355557 L341.93830610386766,292.9568286949831 L342.314400639353,295.40286240030025 L344.0550796875527,301.70705834983266 L344.996025638597,303.54140622573783 L347.1596336361349,307.06959873598953 L348.5242181488488,310.8333825401678 L349.4651640998931,314.1728181703455 L349.70004578148865,316.2903013663614 L349.3984605407695,318.4248152583238 L349.10751948501667,319.29763842558225 L347.5726280128373,322.737839006777 L346.9375249764993,325.70118010146933 L346.646583920746,328.55949857115826 L347.0439668261649,332.92574324444433 L347.7848020998375,335.09502814063086 L348.18147539292545,337.5297080486503 L347.8373134123398,342.55731141452577 L348.28720763026007,344.6215736857088 L349.081263828766,346.6063593758081 L350.4309464825268,348.7493886157437 L351.43646715570156,350.0195946884208 L352.12408150454183,351.87168287260357 L352.41573217262555,353.43283000103344 L352.67970795979676,355.8412542528021 L352.2298137418765,358.1169809986543 L352.2298137418765,359.7043837833351 L353.8030242799352,363.95283280965776 L351.8636537790265,365.21736198368603 L349.54464068097707,367.3043318494644 L346.95242683545194,368.50570552602426 L344.4226588750645,369.264281107975 L341.12934804640867,369.9249301882333 L338.83588099227904,369.9923433596882 z"/>
	<path id="bolu-yenicaga" title="Yeniçağa" class="district" d="M421.05298489870904,242.99586291123924 L419.3995881672355,240.5377657962931 L418.08112845604353,238.99648781313417 L415.2880943208163,236.47097752673332 L413.94763662735994,235.0858142564173 L413.25505499220196,234.1030011778375 L412.11541758844777,231.39937819632934 L411.3554227818348,229.924094159963 L410.8189558595202,227.98046598506778 L410.8636614363794,226.50589156103268 L410.3051965318004,225.1647242552452 L409.25497028176557,223.6901498312099 L407.95921816516886,221.36616944684275 L406.5513473002576,219.6233615616501 L405.81689853756444,218.14452946362823 L407.40075326058945,217.97777056581867 L410.6514873493792,217.4150479872528 L413.52754612734583,216.68556651087732 L415.71599055647215,215.8524816341607 L417.1955322668252,215.43522958347123 L419.9665684197881,214.87250700490546 L422.40479638946346,213.83079610284392 L426.82284276291995,212.9970016137962 L428.2605173457378,212.9970016137962 L430.511407660001,212.47614616276545 L432.0328164978887,211.16336335022208 L433.0958157698843,210.4551702437799 L436.179790960864,209.97547230795323 L440.91006676000677,208.70455662294503 L443.89043855064534,208.2248586871184 L444.8902823251724,207.95449638896758 L446.36982403552497,207.85018337629518 L450.6416902687739,208.43348471246307 L452.3717251320064,208.37103882732592 L457.03955504601237,207.72529160602076 L458.4360721136256,207.72529160602076 L462.7490958620787,208.35046006972382 L466.62570802690243,208.45406347006508 L470.6059235920681,209.16296618883854 L474.10644122140644,210.41330311624475 L472.2770606318192,213.35464622867283 L471.30205328888195,215.304660914548 L470.92241069174116,216.60467070513147 L469.81186739356224,219.20469028629847 L468.89150020012,220.6672013007048 L467.64542094670026,221.69684879313743 L465.99344343988895,223.45739698660776 L464.6657587683917,224.54026540387318 L462.661813545353,225.62384343346974 L461.52430497859245,226.4093842840025 L460.1703646508453,227.8179647612449 L459.16768242699465,229.68637402904307 L458.92428539742554,230.4179843424118 L459.05982135266635,233.04496919216066 L459.74317802752034,234.31517526483773 L458.12313307560794,235.24476741858464 L456.6698470215061,235.80748999715055 L453.6461888786705,236.72147067961313 L451.65430706525996,237.51836532744343 L447.78691986073983,238.36209438912678 L445.9121240819621,238.47918042375898 L443.87269824236733,238.33867718220026 L440.8965841257151,237.98741907830356 L439.23254320927566,238.10450511293587 L437.23995178353425,238.5969760707224 L433.6542806744629,239.06532020925138 L431.2870139378979,239.18240624388358 L429.83372788379603,239.58120837396436 L425.63849978230655,241.3857525319631 L424.16179652127806,241.8313890758967 L421.05298489870904,242.99586291123924 z"/>
	
</g></g></svg>