<svg xmlns="http://www.w3.org/2000/svg" version="1.2" baseProfile="tiny" width="600" height="600" stroke-linecap="round" stroke-linejoin="round"><rect id="backgroundrect" width="100%" height="100%" x="0" y="0" fill="none" stroke="none" class="" style=""/>































































































































































































































































































































































































































































































































































































































<g class="currentLayer" style=""><title>Layer 1</title><g class="city city-16" id="bursa" title="Bursa">
	<path id="bursa-inegol" title="İnegöl" class="district" d="M524.171780869958,384.45966278804246 L523.6569589245315,384.5186612046482 L520.6323799951533,384.09786367444514 L516.3804469398567,382.6150946453386 L513.5644329251159,381.9973465185254 L511.02366257095764,381.8116750309719 L509.3675486019356,381.16269244830846 L505.9157604979638,380.39050728979186 L502.27168949871253,379.71029025127825 L498.73771596369454,379.4942519316484 L493.1878733652606,379.2782136120185 L491.8620517889367,379.55585321957517 L489.04603777419635,381.132325616232 L487.27905100668715,381.96611206267517 L484.4351249587607,382.6150946453386 L482.41925589534526,383.29444406007843 L480.7080931942072,383.41851425970555 L477.80834307990955,382.5222589015618 L470.57447447926796,381.19392690415856 L466.81953068152836,381.0698567045316 L462.7056071236508,381.25552819208525 L456.90765756356546,381.2242937362351 L451.27485419982895,381.65723799926843 L447.3539888714853,381.7500737430452 L445.47690463974317,381.9045107747485 L444.0409855991879,382.3365874140084 L443.2679773467928,383.1096401962986 L442.41200832909664,384.5924092254051 L440.0371595055416,389.35045799990536 L437.5801252509404,392.6561045773754 L436.22716697568615,395.25203490802915 L433.80812409958725,392.9719196309708 L432.52882257857374,391.4344903041267 L430.8703826067872,388.8359571021521 L429.4011241932585,386.13157379979697 L428.761473432752,384.30175526124447 L428.31100423050424,382.34005790910294 L428.3823349819785,378.60146706859945 L428.0977873103349,376.6128733794758 L425.8229566056961,373.45732571484115 L423.6907874040067,369.74563121131956 L420.8708967179902,367.62429108483303 L419.40163830446255,366.11289047119715 L418.5728059856957,364.97283283266796 L415.0659691496085,357.6015012520421 L413.52615531886147,353.385717336051 L413.12298150617744,351.84742038543305 L411.7963845955992,349.67315520875576 L408.2732657401533,346.2972311056232 L405.0827652801704,345.1302771301121 L402.0814463784464,342.0198459017054 L400.6284699842765,340.2516286510797 L397.9109234199412,337.9185883238312 L396.3943696168483,335.7972481973447 L395.38410908237535,333.1102173704614 L395.32053167345236,329.362950292222 L393.04570096881355,325.0855650883041 L391.30817690300006,322.2571115863218 L389.4442733535954,320.5600394851324 L389.15972568195184,319.5353758084943 L389.0651349028235,315.50439575628263 L388.7805872311789,314.47973207964435 L387.48577902506236,311.3892561980307 L389.73967570481204,308.45582021944125 L390.1591315368533,308.22156180056527 L394.22188303389106,308.01593496621905 L397.3930001374948,308.280560217171 L399.3321111096493,307.84067496394886 L400.73158944021344,306.9478901008998 L405.21844877482346,304.43698690006045 L408.27249040589743,303.081758565675 L412.1189236457461,300.77995269427686 L414.1495240600097,299.37526980479555 L418.36966841084455,297.58189146473495 L419.91878625265406,296.3264398643152 L421.2539118400388,294.83239172615157 L421.8152538407748,293.188244675153 L422.2959610789741,290.04918186221676 L422.2959610789741,288.0172069844124 L422.02924609519886,285.71540111301385 L422.0556074598739,284.19098614277374 L422.4828166344674,280.8731928324732 L423.5248658734026,277.4955334817933 L425.15384314349325,274.44670354131324 L426.9968126680087,273.01165381975517 L430.17568311416375,271.3085083521507 L434.7431772113108,268.1399463309119 L437.2808462284482,266.10710382933377 L438.5361123875527,265.44944500893405 L439.7386558173053,264.37359152965274 L440.1387282929675,263.4469693394326 L440.24572442017904,262.16201853071016 L440.05886886468664,260.87620009821387 L438.91370016981506,258.1952426377461 L440.7287576611443,256.3142342965508 L442.7477280615806,255.2774238870817 L444.813993851582,254.7455705138561 L446.6189719975941,254.61282407649338 L452.2478986900539,254.79936318782046 L454.62274751360894,255.19760249990904 L455.7872995648587,255.70255953615248 L456.76034405508506,256.57972717127666 L457.9008607444243,258.1214946169889 L461.2495293924601,263.41052914094087 L462.0093569625167,264.20787538889215 L464.0996581144281,265.53620738629564 L466.759829943881,266.9721247316269 L469.6812894173233,268.965056539619 L471.6762244558505,269.5229386260527 L473.4098718503874,270.3740775479683 L474.7876408218069,271.7293058823535 L477.2338203968356,276.646129807425 L478.9674677913735,277.97532942860215 L482.26884104984407,278.9314508271246 L483.4326177668395,278.8516294399524 L485.87879734186816,278.18789725313746 L488.0163938833438,277.9484330916199 L490.272616565859,277.8955080414294 L493.17081601164705,278.50631517805385 L494.99905418531324,279.6758720248856 L496.1868662642187,281.69570016985944 L498.2058366646545,284.5128745627846 L498.9896995966215,285.3102208107361 L500.29613781656593,285.9748206213244 L502.26703749318204,286.6923454821035 L504.2387125040531,287.091452417966 L507.2547627566257,287.46366301684645 L509.01244551307263,287.5426167802453 L514.1187969175553,286.6923454821035 L517.7527885714894,285.469863585081 L521.8612847895818,284.3003067382492 L525.9341156319363,283.9549924763507 L526.172143248271,285.70412200395697 L527.6925737226395,288.7347318451913 L527.8352352255879,290.0110064161776 L527.4312860786497,291.12763821281914 L527.098667683187,293.5734696306376 L527.5258768577795,296.95026135754387 L528.1911136487072,298.0937894911673 L530.115493270014,299.9010498116054 L531.4459668518684,300.69926368333057 L534.8915522817986,301.68228141883543 L536.9105226822347,302.693063115096 L538.3603977393839,303.6500521373924 L539.8094974622767,304.97925175856926 L540.0723357747762,306.9253318827858 L538.4076931289482,312.3705386859883 L537.7664916999304,314.09884524302794 L537.7184209761114,315.6145839755317 L538.0991100953945,317.9536976691957 L538.5503546318976,319.7618256134075 L540.3561081121649,322.8991531787964 L541.1640064060415,324.09560636261034 L541.5679555529799,326.1163021313575 L541.1872664336962,328.74867266050296 L539.9048635756624,332.89591429837884 L539.14426067135,337.4153665351348 L539.12022530944,339.33021220350156 L540.3561081121649,345.6577923844696 L540.6646911457184,346.8273492313015 L541.1640064060415,350.38981244576115 L541.3772233262104,353.04907931188865 L541.7098417216745,354.9101323062912 L541.7672164565558,357.28308332712584 L541.6625463321093,358.8977311698216 L540.3561081121649,363.28443696921494 L539.8094974622767,366.5015859217764 L538.2417715983439,369.5061670498023 L535.6994505756746,372.88295877670856 L533.584338727599,377.6149788380002 L531.6599591062926,380.43388847847274 L529.8542056260242,381.4169062139775 L528.7617596605044,381.73619176266743 L525.1262173380602,383.5443197068795 L524.171780869958,384.45966278804246 z"/>
	<path id="bursa-iznik" title="İznik" class="district" d="M458.28775253775,206.26448929184377 L460.1594094297059,204.40517154498863 L461.2766660913909,202.34803557774947 L462.58232897708035,198.0611065123218 L463.80192976044657,195.5233069745004 L464.11128812825496,193.54512477066012 L464.15470684654457,185.75906902624652 L464.6028500460268,175.72413246062513 L462.43811680561987,159.40673215026342 L461.59920514153777,155.68115566636416 L461.2844194339426,149.9305452948495 L460.42612441348103,146.0730899973609 L460.2888902503168,143.41122025991268 L461.8333560865953,143.29842916934274 L463.20027037844284,142.5618165855444 L467.7832711606925,140.66345576887664 L471.12496180043075,140.63482418434722 L475.40403155465873,139.72815734092057 L478.4929632272158,139.19023060127967 L484.1901193341301,139.27525773109386 L488.64596529853367,139.04794030240708 L490.36798267924314,138.6800678223945 L491.32086847883517,138.23410920275694 L493.6592765923976,137.8861920695376 L495.68522500113016,136.81033859025604 L499.0525016712897,135.87504016229997 L500.4194159631362,135.2798502536006 L503.2555886685105,133.6365708263755 L504.85045123137496,132.2483727885927 L507.8385894507611,129.3296864141547 L510.2940730368522,128.1115426360004 L511.18028009050045,127.2335073771029 L514.4552919842951,124.44756744002783 L515.8726030027275,123.04982554073537 L516.6494879263972,121.57660037313853 L516.9534189544204,119.34767489872371 L517.1557811950166,116.55219110013877 L517.594620383437,115.72100752501643 L520.902971650204,113.18928135361033 L522.2869432956641,112.47175649283145 L524.8509736774774,111.41412311279578 L525.8992255904543,111.41412311279578 L528.4314672678064,112.62272302944027 L530.3217321818855,113.30294006795387 L532.4151346708181,113.680356409476 L536.5337102342273,113.98315710646732 L538.5255439357328,114.32326562572398 L541.4958494672503,115.49369009632966 L549.7330005940679,119.57412470363704 L551.117747573784,120.14068302780703 L553.0080124878634,120.40530827875939 L556.4179325420563,120.25434174215056 L559.3207839933752,119.9142332228937 L562.3593189393464,119.12035747003678 L564.5201755084772,118.70476568247562 L566.3429863423582,118.66745786021019 L568.267365963665,118.21369062661002 L571.1368780420112,118.21369062661002 L573.4659821445111,119.30949945268469 L574.9174078701703,120.59358263763363 L576.3021548498864,121.23649185388172 L579.4748226219997,122.2941252339174 L581.8047020587557,122.86068355808744 L584.5726453496763,123.99380020642757 L587.1723411072271,126.03358369819455 L589.3665370493293,127.58315975786935 L590.6156005343922,128.1497180820395 L591.9662328068811,129.50928453529286 L592.3376179151028,130.41595137871963 L592.3709572880741,134.64735252263586 L592.6074342358976,139.6717617956356 L593.046273424318,141.2959534998413 L593.7890436407615,142.80735411347712 L594.3294516166081,143.29842916934274 L599.7048440076314,146.24574712831014 L599.0644179128691,146.41406614039118 L593.2432083251285,149.0993617197271 L591.4614902067717,149.84378291748808 L588.9191691841024,150.66802550242153 L586.8994234494113,151.99722512359844 L584.1198501446628,153.43314246892996 L579.8431063932007,155.9587952739208 L576.8735761959394,158.11223748003115 L576.0656779020627,159.89346908726097 L576.0416425401528,162.57876466659678 L576.3982962975258,165.07838875837928 L577.1588992018378,167.28475601468003 L577.6574391279056,167.97625216225055 L581.0789891959256,171.30011883896645 L582.5994196702943,172.46967568579834 L584.1671455342268,174.0643681817012 L585.4030283369518,175.76664602553214 L585.8069774838912,177.7335491203155 L585.6402806190312,179.6483947886819 L585.2130714444377,181.05741579703135 L584.4051731505616,182.35971908122613 L582.7661165351542,183.82253276353978 L578.418042032218,184.91226822319913 L575.2577796081862,186.29439289456647 L573.0007815914158,188.3688813372779 L572.502241665348,189.08640619805684 L569.4606053823552,192.22373376344575 L568.0355410213721,193.20761912272422 L564.7566524563008,195.01574706693614 L562.2143314336314,196.07858618961347 L558.864112117086,197.93963918401587 L557.5096031733218,199.16298870481177 L555.0789302833954,198.97731721725833 L551.1766729771765,200.2631356497546 L547.7776076025551,201.7363608173514 L546.0059688295145,202.0851455743443 L544.4258376174992,202.05824923736233 L539.5900778680674,202.62046944266424 L532.455452052086,204.0407695600707 L530.5884471656607,203.18355727173991 L529.1517527908494,202.80874380153858 L523.7174349964348,203.5045780679771 L522.5683896302869,203.9071554989341 L519.7430716044853,205.4870983906856 L516.8464228272078,207.57720406132208 L515.9129203839954,208.05960287945152 L514.8592411312333,208.13942426662396 L510.9329484631038,207.52341138735792 L506.4080977499905,208.03270654246938 L503.6075904203537,208.19321694058812 L499.39364874355977,207.71081812245865 L496.5210353281924,207.04101256922846 L492.8816163344715,205.1391812574662 L491.2541897328914,204.44247936725404 L489.7221292446951,204.12145857101677 L487.8062783001958,204.60298976537266 L484.07226852734595,205.29969165558484 L480.0257990496665,205.21987026841225 L473.58587272630865,205.67450512578617 L472.17321371340756,205.70140146276822 L468.7741483387868,206.558613751099 L467.1940171267709,206.82670949714577 L461.59222713324135,206.7468881099732 L458.28775253775,206.26448929184377 z"/>
	<path id="bursa-buyukorhan" title="Büyükorhan" class="district" d="M216.6788672790908,395.25029966048186 L219.8778964158807,395.7734767959711 L221.20681932922494,395.71100788427077 L223.67005625786726,395.89667937182435 L227.29629456925022,395.989515115601 L229.31604030394172,395.61817214049404 L230.58991448516954,394.96745431028353 L233.77266160260018,391.3442574316708 L236.01492826852297,390.3221966263533 L237.56482144458727,389.9196191953964 L240.27694066913628,389.4545728527391 L241.3841179855051,389.5161741406656 L245.14836579430602,389.0207609659319 L247.97135781734323,388.3709107594951 L249.5770750597788,387.8130286730611 L252.31710631751343,386.6052963801903 L255.47271673601426,385.02535348843867 L256.60703075131346,384.12736288274806 L258.23988469267977,383.7863867397177 L260.12239626420813,384.4371045699282 L261.36758307799494,384.65401051333185 L263.27800668270896,385.55200111902263 L264.24639916740347,386.5428274684899 L266.3777930348375,389.79554899576954 L267.40200958590384,390.87921108901355 L270.7227662007539,393.94539350496615 L272.1896986115161,395.5869376846439 L274.5428380759266,397.91043415038286 L275.78802488971246,399.52074387421067 L277.3658300989629,401.9674429158027 L278.22412511942497,403.6402215513307 L279.30339040260765,407.9453707160041 L281.90541216292434,412.40582453615457 L283.2893838083845,413.3350495976954 L287.41338671157985,413.365416429772 L288.7415342906682,413.4894866293986 L290.07045720401294,414.2330402033862 L290.78996739280075,415.81211547136377 L289.98749643871037,418.19721322502915 L289.87662364022265,419.25050848619685 L290.45734899733765,419.96282760433405 L295.2737253903905,424.1751410252308 L298.7890909032852,427.1172532415565 L302.8022210079928,430.2146701133591 L304.573859781033,431.17512963075 L309.0847544775525,432.6926036108011 L312.3233256613559,433.52899292856523 L312.7156447944663,433.46999451195956 L312.62105401533694,434.9605721550285 L312.0651393543868,435.55229156863356 L310.42375673621393,436.5301035614964 L307.51237660808886,438.6332235887375 L303.75278080481837,440.4994823257816 L298.9348537432549,444.4393618817634 L296.39330805484093,447.2244341950649 L295.46678361992537,448.5874711434126 L294.59375724861513,450.8684540442442 L292.55462815754447,454.5116062696502 L291.60174235795347,455.6377819278015 L289.08733336847024,457.38517620786035 L286.5923077353652,458.14347938599917 L284.9059557303931,458.8098144441346 L284.5741126691843,460.20755634342714 L283.92980990314635,461.4838309144137 L281.8712974556972,464.4806034284771 L279.5863874057411,468.86383873277583 L278.9963580375643,469.59437795015884 L277.3728081072593,470.17481825470696 L269.8683478515674,469.96398567771837 L258.0925711841994,471.21596678304377 L253.75922803211137,472.03760649665657 L247.63098607932795,472.39419986761163 L241.4732814248477,472.37337689704526 L229.64710803089469,467.35764386178175 L226.82721734487825,465.05063224774136 L223.27541112199134,461.83435091895365 L221.93330752630965,461.19491219779997 L220.78271149165224,458.7751094931902 L220.14306073114568,456.8993068946366 L219.38710983236476,453.543338138297 L218.496250773186,448.4937677758623 L215.78180554587152,445.25319298141324 L211.83535418710767,444.05847504514674 L209.51012675588336,442.21477452621673 L209.0790409100142,438.6401645789261 L208.2641646078412,436.3175357369611 L208.1021197485132,434.64302185388595 L208.13390845297445,429.80428406843953 L208.21997055529678,428.36576385178734 L208.88288134345902,425.10783658186625 L209.26822246827354,422.4546430821537 L209.52718410949646,419.068307493738 L209.0643095591666,417.5317457906672 L208.06490370426516,416.36132132006173 L206.7103947605008,415.15098615586993 L204.37043597842833,414.3258759471629 L202.93296626936188,413.5155153426072 L201.35128438883584,411.56683234706975 L198.20962998692835,406.08518534537546 L197.73047341723918,404.703060674008 L196.4899386089838,400.30160527046354 L197.4149123753892,400.00314269234013 L200.99307996295212,400.00140744479296 L204.2456071633478,400.75276963274274 L209.75590771476925,400.6625367602869 L211.71827871457842,400.45257180707245 L214.56763210229113,398.4067149488901 L216.6788672790908,395.25029966048186 z"/>
	<path id="bursa-gemlik" title="Gemlik" class="district" d="M403.58404416494596,214.89040484911584 L401.71083660448045,214.62317672684267 L397.4371941900393,214.78368712496123 L393.77451516866313,214.4418433581573 L388.0471210257983,214.60235375627587 L383.28889470188113,215.60706208612115 L380.84659179812803,216.39052635369472 L378.1716886178265,216.57185972238008 L375.3347405781965,216.2300159555761 L371.86899645763197,215.10470792119855 L370.306697933485,214.78368712496123 L365.8182879303648,212.43242669846697 L361.0957269821861,210.18267825348534 L359.13878332216274,209.37839101534504 L357.09190088854035,209.11723625948713 L356.0327942959925,209.17796992364015 L352.9081972476981,210.02130023159302 L350.6457718911415,210.36314399839713 L347.3064072541676,210.5644327138755 L343.104870925457,210.38309934519015 L335.85084363418144,209.07732556590094 L334.41414925937033,208.67561575871756 L328.9736287909135,208.8361261568362 L323.80292464325254,209.57967973082353 L317.7336080938607,210.90540885690598 L314.77105590489526,211.4277183686217 L311.66506687872464,211.64896243089325 L307.89461639588205,211.44854133918832 L303.33410030703243,211.64896243089325 L301.4484873984832,211.06678687879818 L296.95930206110773,211.62900708410018 L295.06903714702815,211.5283627263609 L295.4512769348219,210.58438806066872 L295.6668198577562,208.2331276341743 L295.35203415016156,204.62294511216572 L297.74238965881955,204.27416035517285 L298.7363681739342,204.3643932276288 L299.52565844568653,204.04163718384433 L302.53860736123795,203.7987025272323 L305.58954765529217,203.23127657928868 L306.3493752253488,202.69248221587426 L307.5790553540326,202.58229399662528 L309.85931339845723,202.7861855834246 L312.4101630979336,203.20090974721214 L313.4692696904814,203.1974392521177 L314.9772948167682,202.69682033474234 L317.0280539216657,201.1507147701619 L318.5562377385859,198.85671751272605 L319.0446983193364,197.11539659908246 L319.1703024686723,195.8269752952653 L318.7989173604506,194.11688883747183 L318.222844008867,193.27529377706605 L319.54866558519046,191.90618346230292 L320.8597558106657,189.75621175128703 L322.00104783426076,186.7776593364696 L323.34392676419725,186.32996546928462 L324.22238047529385,185.11182169113033 L326.567766597152,183.05902384275925 L327.71371062627907,182.75014977935263 L329.7195003443772,183.84942910052172 L331.07788595941724,184.109716232606 L331.69040002099354,183.4659393925844 L334.26993708791025,183.07290582313703 L335.8818570043878,183.31670810352267 L336.6238518865756,182.59050700500757 L339.1956356109406,182.1124463057462 L340.28575557369584,181.3072914438323 L342.2698359326496,181.69945738950588 L343.7941430782936,181.0556805494841 L345.4060629947713,181.5589023381804 L346.40391818116154,181.0322547075966 L346.42252620328577,178.99160359205598 L345.7200733681112,177.7118585259752 L345.44560504178475,176.4104228655539 L341.3378841579472,174.57713383190716 L340.8191855412456,173.994958279812 L339.32434109729724,173.3069326273361 L338.8855019088769,172.34820835749238 L337.39530947046,171.09275675707266 L336.34318088620756,170.59907882988622 L335.69345078038384,169.60738485664527 L333.8473799188483,169.2221599011606 L333.2620025562028,168.56016296189296 L330.92824644817136,167.18497928071446 L329.69779098523276,165.5755371806601 L328.36033939508195,165.16515113574067 L326.6724367215987,163.05422249453733 L325.7459122866826,162.4920022892355 L323.86107471238927,162.24906763262348 L323.46410357374737,161.66602445675474 L321.4001637865124,161.5410866333543 L319.0950950459215,161.8725189148749 L318.2212933403564,161.42048692882193 L316.8931457612675,161.2391535601366 L316.14494820503825,161.74324297260634 L314.2740666473372,161.09773088503746 L312.9420423969732,161.35281227447996 L309.6678058374329,160.89730979333257 L309.15143322349627,161.1107452416416 L306.84403848014085,160.7732395937057 L306.40287328895505,161.0959956374902 L304.67930523973445,161.04914395371503 L303.2968842627844,161.96882515374605 L301.802039818836,164.17258953872607 L298.6293720467221,164.50749231534112 L297.3058764731641,164.33570280816554 L296.7080937624361,165.00637598516929 L295.5660264045857,164.95345093497883 L294.60073525691155,165.63019747839792 L293.28034102037435,165.69440163764523 L291.2985866641857,161.83000534996788 L291.5932136811464,159.24535412837122 L292.3305565578031,156.9348720192367 L295.27915273017624,151.68314531755018 L296.50805752460474,149.1253904329355 L297.933121885589,143.92832402898676 L298.4487191652699,140.79359933491875 L298.7193108203211,138.40156059106448 L299.65591460055384,135.79955689399554 L300.3413100821149,134.13892499129804 L301.9873447058193,132.2145354614219 L304.4940003527512,131.52650980894583 L307.98377983522573,130.37170256626538 L309.9004061139814,129.84939305454958 L313.5615344668458,129.73920483530065 L318.3290648018238,131.1968127749725 L321.3024716703616,131.66446198895048 L327.17562865319786,131.55427376970144 L330.0505680713302,130.89401207798105 L332.2207286515224,131.05018435723161 L333.7365071203605,131.66446198895048 L335.2111928736744,132.54423249539525 L337.5945703740355,133.6166154795823 L342.16516580820286,135.04645945849848 L345.58128853643734,136.2567946226902 L348.8004763638611,137.60421434311297 L350.86441615109663,138.62106940578883 L353.02682338873757,140.381478042452 L354.86979291325247,142.25120727459046 L356.36851402847645,143.57086303425766 L360.22657728215194,144.4506335407024 L360.710385857371,146.16679336491123 L363.05267064221,149.52449736879808 L364.68474924932104,151.08622016130352 L367.0805320977642,152.23495403756868 L368.34432693367535,153.03056503797293 L369.71279189403253,154.82741387312785 L370.79205717721567,162.54492733942584 L370.6346643234181,166.1681242180387 L370.02912827013785,168.93757930341505 L369.87096008208493,170.6459305136613 L369.97640554078686,173.68001084999008 L370.6083029587422,177.36220614520866 L370.79205717721567,180.83877460608062 L371.31928447072437,183.72535890089503 L373.21420139033444,190.05901244827834 L374.3461894028681,192.5039762423231 L376.1627975627075,195.3619289526082 L377.53126252306464,198.60163612328344 L377.97940572254697,198.95562662291803 L381.1117561133926,199.2792502904761 L386.7189734467089,200.42798416674128 L388.5092202418728,200.39935258221195 L391.1151186734651,200.75247545807298 L393.4581787925579,200.6639778331643 L395.87954767142276,200.04536208257747 L396.66961327743047,199.19075266556752 L399.85468639762706,197.18827699606595 L401.72401728681746,196.83428649643136 L402.61875301727173,197.33490541380672 L403.8298251238318,198.69013374819218 L405.4355423662673,199.78073683162512 L407.4103187141602,200.45748337504415 L410.38450091695347,201.04746754110184 L412.99117468280053,202.40182825171348 L414.96517569643754,203.9635510442191 L417.46640400358376,208.14636525681294 L418.7030621405635,210.82732271728068 L419.79163143480804,214.03319256078507 L417.110525580465,214.5424877158965 L415.88937412858763,215.42659634120932 L414.62092728714657,215.96192020952927 L413.1121268266059,215.98881654651137 L410.3116194969681,215.66779575027405 L405.0207385397571,214.78368712496123 L403.58404416494596,214.89040484911584 z"/>
	<path id="bursa-gursu" title="Gürsu" class="district" d="M371.86899645763197,215.10470792119855 L375.3347405781965,216.2300159555761 L378.1716886178265,216.57185972238008 L380.84659179812803,216.39052635369472 L383.28889470188113,215.60706208612115 L388.0471210257983,214.60235375627587 L393.77451516866313,214.4418433581573 L397.4371941900393,214.78368712496123 L397.004557675659,216.90155675635341 L395.18950018433077,219.531324414178 L392.6130644544342,221.39931839876928 L389.6474109284475,225.11708626870598 L387.57339179589434,228.3993070042886 L386.0335779651478,230.62910010247677 L385.239635687864,234.16553460372816 L383.9107127745203,235.8886354181259 L381.9173284045042,238.95308258653102 L381.09082208850333,241.83619638625123 L380.7667323698468,245.04640434862367 L379.551783592011,248.03797112004497 L378.4655403005325,249.50685816877396 L376.50471996923244,251.30197175638156 L372.43731646666424,254.04106000968173 L371.01147677142563,254.7837459598954 L369.1964192800959,255.3824063636891 L366.83087446760373,255.74507310105972 L365.64771439422924,256.16240013616823 L364.73979798143745,256.8512934124178 L361.1259650181377,260.56906128235437 L360.16997788152486,261.6752815937125 L359.1814267061965,262.382394969208 L357.46406133101743,262.18284150127704 L356.37859337379365,262.2843534827896 L354.35884763910263,262.52468526808104 L354.1200446885131,261.53559416616065 L354.2154108018978,260.3053036551758 L353.61840342542456,259.32922690985976 L353.37882514058026,258.15272907283907 L354.5139144901342,257.5774945109331 L354.57361522778154,256.68210677656305 L353.7734702764567,255.42491992859618 L352.6383809269027,254.4618575398845 L351.5032915773483,254.2345401111974 L351.1086464414718,253.2853597028636 L346.1860492554618,253.17864197870915 L344.03527203164913,252.36307563151186 L342.7567458448904,251.37311690581805 L341.70461726063803,251.0928744269405 L339.4104031996206,249.86258391595572 L334.9824692684026,248.15249745816214 L333.33953598171865,247.04020378038882 L334.17612164303563,246.64890545848866 L335.87177765907063,246.3946916928199 L340.8548509169829,242.8313608545864 L341.41309158069805,242.55372124703 L344.65864077279684,242.25265579758596 L346.87066940276804,238.6893249593524 L348.23603302610496,237.51022425101084 L351.08926308509274,235.82096076378392 L353.301291715064,232.88231904255287 L354.2107587963664,232.39644972932885 L358.9457250926278,230.63777634021304 L361.88191591691816,228.69429908731732 L363.9497323754298,227.19070708764391 L365.50040088574883,225.73309914797204 L367.6504027753077,223.21091683807578 L369.2010712856268,220.8744060157328 L370.1934991322318,219.87924154739736 L371.66120687724936,216.70981190238473 L371.86899645763197,215.10470792119855 z"/>
	<path id="bursa-harmancik" title="Harmancık" class="district" d="M291.8475233168394,475.4117953522418 L287.83826988340735,473.754633944639 L282.70943378552437,471.1300720294561 L277.3728081072593,470.17481825470696 L278.9963580375643,469.59437795015884 L279.5863874057411,468.86383873277583 L281.8712974556972,464.4806034284771 L283.92980990314635,461.4838309144137 L284.5741126691843,460.20755634342714 L284.9059557303931,458.8098144441346 L286.5923077353652,458.14347938599917 L289.08733336847024,457.38517620786035 L291.60174235795347,455.6377819278015 L292.55462815754447,454.5116062696502 L294.59375724861513,450.8684540442442 L295.46678361992537,448.5874711434126 L296.39330805484093,447.2244341950649 L298.9348537432549,444.4393618817634 L303.75278080481837,440.4994823257816 L307.51237660808886,438.6332235887375 L310.42375673621393,436.5301035614964 L312.0651393543868,435.55229156863356 L312.62105401533694,434.9605721550285 L312.7156447944663,433.46999451195956 L313.7631213731873,433.3120869851616 L315.285102516066,432.3516274677707 L317.3606723171288,430.18430328128267 L320.3774979039563,427.7992055276173 L322.01112717957795,426.74591026644964 L331.61519259824314,419.06483699864356 L332.83324271309965,417.4232928189655 L334.6041061518845,414.4499461467897 L335.96094109841385,413.3038151418456 L339.8911104378194,410.36170292551964 L341.93334086591034,409.3795528137882 L343.742195683198,408.8390232028267 L350.2705101116441,407.2217724888099 L350.8016140764289,409.6979707387049 L350.5659124628602,411.4948195738599 L350.9047335323649,412.6921403814472 L351.9987301663952,414.6616463475516 L353.01907004618585,415.94659715627415 L353.6858575056231,417.47882074047686 L356.14599309724576,418.33082728616574 L361.89354593074603,419.14726125713685 L364.60644048954987,418.9121352144872 L368.16057271520276,419.0526902658129 L369.44375090749236,419.2652580903483 L372.36753638369964,419.4058131416738 L376.2790977009815,420.44175592736923 L378.1298205680481,421.33627603796526 L380.19143435251806,422.5830514006488 L383.9138141115401,424.3018140961786 L385.3443058123106,424.53694013882796 L390.0343027217733,426.51425471889456 L391.59039857187764,427.3376296800544 L393.50469884786827,428.7024018759495 L395.4670698476769,430.57126348431456 L390.8491790239458,434.4556151187851 L387.9122128654001,437.03853109283443 L386.3111476284949,437.72655674531035 L383.6564031388273,439.18503230875586 L381.2893076578245,440.8612814393787 L379.670409733051,442.5045608666037 L377.9925864048849,446.5962745829683 L376.9435591576538,448.3740356951035 L374.93544343679014,452.331267726558 L373.5568991311152,455.6846336115766 L372.29775630073556,457.5968764086223 L370.02059959333127,460.4140508015475 L368.97157234609966,463.12971321295987 L366.9332185892848,471.48059203399595 L365.4949735459631,474.06350800804546 L364.4761843346831,475.57230575036056 L362.64794616101585,477.5175182508035 L360.60959240420107,479.22760470859686 L358.96123177773126,480.3685299708996 L357.1337689383193,482.1454234592615 L354.8558368966591,484.1574429902727 L352.877959211747,485.2983682525752 L350.7496666813332,485.49965696805396 L345.29519019628356,484.99643517935755 L341.4596116360074,484.8619534944473 L340.2004688056283,484.56002042122964 L337.1735638734841,483.3193184249614 L336.1245366262525,483.11802970948287 L331.9889037092298,481.5753946399968 L327.19346134106627,480.60278838977536 L321.7095221543208,479.69698917012215 L318.86249476937354,479.3282490663363 L313.4840010413295,478.8675408425471 L310.3299412913393,478.168236081014 L303.1883374670617,477.1487781470174 L299.2922828348838,476.7800380432314 L298.0936160764069,476.8468450737997 L296.2723559110365,476.49632506925957 L291.8475233168394,475.4117953522418 z"/>
	<path id="bursa-karacabey" title="Karacabey" class="district" d="M150.83670699666126,129.84939305454958 L151.61746859160704,130.25717622814835 L151.3336962542183,131.04671386213718 L149.84427915005676,132.66830269502202 L148.68825577561358,133.62789458863926 L147.0422211519087,134.0912056837492 L146.42117841352544,135.08897302340563 L147.26861875441557,137.8679719702917 L147.4291129452334,139.0123677276888 L148.68050243306132,143.057229760278 L149.03715619043496,144.8332556248663 L148.65956840817213,145.9524902928286 L147.61054116094104,147.90290853591324 L146.94297836724837,148.22219408460325 L142.43208367072833,149.17658023557885 L140.87521248636764,148.0356549732762 L139.9393840403892,146.6344425788893 L139.7362464655376,145.72604048791527 L141.6497714072724,142.90279272857478 L142.2180914163042,141.49203647267814 L142.30260285011641,140.16630734659572 L143.10119713293116,137.5148490944307 L143.55554300645497,134.8998310407577 L143.35085476309314,133.2123028010781 L141.4675678573095,129.82596721266202 L142.62824323728358,129.9057885998345 L148.16645582189065,129.17004363980965 L150.83670699666126,129.84939305454958 zM159.6762928397389,198.75173503611873 L158.51406679125415,203.83514272572404 L157.45883686998144,207.70214188472244 L156.77964406246144,209.6568982466752 L155.11732741939835,213.84838869700516 L153.25730054127033,217.83859043185677 L151.55389118268408,221.24054324819792 L154.10086421088383,223.43476377166812 L155.3956724170013,223.82085635092642 L156.85640215372246,223.87898714375865 L160.2384101747296,223.73756446865954 L161.9162335028957,223.36795674109982 L163.9018645303595,221.98843494105338 L166.3255594119894,221.54421156896285 L170.08282921249443,223.20224060033962 L171.2148172250276,223.46773347506547 L172.1940643892946,223.1354335697713 L172.71353834025203,221.9277012769003 L172.47318472115188,220.17510125419972 L173.5330666479555,219.81416976437623 L175.59623110093565,220.30784769156264 L176.135863742527,220.62453036893183 L176.11105304636166,221.8756438504835 L175.09381450359228,223.92323595621295 L174.86276489555505,225.18215805172713 L175.09614050635778,226.0810162811914 L175.634222479439,226.4497563849774 L178.25950426740982,226.75602757706318 L180.9173500940978,227.4614057050115 L182.78357964626787,228.55894977863343 L183.1541894202343,229.3389435511126 L182.9867172211195,230.17706811642384 L183.90238697646353,231.64335229383187 L183.44649043442908,233.41504003955194 L183.90858965050512,234.21412153505042 L187.7682035726903,236.21399433323114 L188.3582329408671,236.41268017738872 L188.79397079226666,237.86074425555074 L188.84359218459684,238.89234892237798 L188.6334766014488,242.19018688588565 L188.96454432840173,244.73058929502793 L189.42586821022198,245.9990552520518 L190.80518785015167,247.4722804196485 L191.94182786821577,247.88873983098335 L192.14108877179177,249.76280718199 L193.21647738369887,251.72884265299987 L193.12576327584506,252.25809315490426 L192.010832616925,254.75424675159255 L188.85057019289326,260.19164494083225 L185.26619993128978,263.8764431073719 L183.75274746521768,265.0650876772233 L182.79676032860536,266.31273066368044 L182.3718771567778,268.89824950905074 L183.08906134280065,273.44459808278896 L184.43426627550312,277.53457655160577 L180.5040969360976,279.35745409996923 L177.70746627773633,280.38732351924915 L172.53831279858554,280.2684590622643 L165.13852266733983,277.9310806161475 L161.27968407940895,276.1880244549568 L158.16439104217693,274.1673286862094 L156.88974152669434,272.5431369820037 L154.65910487459888,270.9579883476106 L151.4375910444101,269.2149321864198 L146.44521377543597,266.99641819728845 L137.84210488018186,264.2720795481398 L132.87686431013853,262.548978733742 L128.70789202014396,261.71692753484604 L125.17624448789047,261.5390646612552 L122.38814250633575,262.3711158601512 L120.95377413429011,263.41052914094087 L118.9627157670395,266.79859997690426 L115.19226528419752,271.6711750895214 L111.1031524224837,275.5043369213488 L107.35906330431719,278.6538112195682 L102.68534841421331,282.7247019653659 L96.55167912164364,285.99304072057043 L90.60331471605767,292.9461776423144 L87.36396819799995,295.8284238182607 L86.2490375390794,296.95806997150635 L79.69048507468268,299.5132219848 L75.76031573527763,300.55350288936353 L72.30852763130589,300.73136576295434 L68.90946225668513,300.07804506142287 L63.51933851481374,297.4925262160527 L60.81109596154032,296.4531129352629 L56.802617862363626,296.4600539254518 L53.402777153488046,299.15662861384465 L53.21747226650433,300.2125267463331 L52.29637517137454,301.0714742822111 L50.20297268244279,301.8774967678985 L49.34545299623651,302.5013182611273 L48.69184621913668,303.45310154078186 L48.629819478723824,306.26073207219736 L47.40401602131608,307.5977403073369 L44.98187180819635,308.8176193330386 L42.153452445373844,309.4622637968338 L41.03231911241222,310.10083489421385 L39.99182054198768,311.10988134292705 L38.85905719519919,310.05571845798585 L36.5687198054574,307.466729117521 L33.38984935930137,304.09254026193577 L30.328054385675138,301.31961468146454 L27.772552680668852,298.4252217726878 L22.879418196354557,291.973571392093 L22.567733825780188,289.8817304739093 L20.865099801449265,282.03927918421067 L19.888178639947714,277.2925095187675 L19.077954343305624,274.2931341333834 L18.485598972363817,271.6078385540477 L15.837057156737757,261.8783055567385 L14.184819858992338,258.4260305615275 L10.632238301849604,253.09014435380055 L8.139538671510483,251.34622056883592 L5.770892521997554,248.83531736799645 L4.835839410274449,244.85986523729656 L4.306286114000306,242.20927460890508 L4.462128299287743,239.66366645712114 L5.365392706548592,238.30410000386777 L6.051563522364997,237.9553152468749 L8.23257878213025,237.8503327702675 L14.746161859727724,238.7222946627499 L19.081055680326415,239.1569741733305 L26.68165738365832,240.1174336907214 L28.86344797767839,239.4545691276801 L29.704685644526904,238.19911752726043 L30.265252311007472,236.0369990834139 L30.109410125720537,233.49139093163004 L30.278432993344964,231.46115130137278 L30.576936681581834,230.10852583830825 L30.670752126456435,225.26111181512601 L30.919634422362122,221.8088368199152 L31.761647423465966,220.5186802685509 L34.690860239459965,215.46216891592758 L35.563111276514896,212.67189085998436 L35.53209790630847,210.96353964973812 L35.064571350447174,209.15020596288446 L34.379175868885596,204.4771843181986 L33.568951572243506,201.75631616414455 L32.78974064580783,196.0378078722536 L32.78974064580783,193.5616096223587 L31.77870477707907,190.66461384226102 L33.3704660029228,190.49803007772712 L38.018594862606015,190.36181314526974 L39.5351486656984,190.5735133460316 L40.02050790942864,190.33318156074054 L41.70298324312566,190.28893274828602 L43.24667374514886,190.4667956218771 L45.064832573498926,190.4051943339504 L48.62439213893756,189.4612196682582 L51.27681062583974,189.10289104975556 L54.519258480917735,188.957997879562 L55.6241097945211,189.14453699088907 L58.060210024233115,189.08380332673602 L60.13965649657207,189.44213194523866 L60.5746190137168,189.26166620032697 L61.93688130003238,189.76315274147595 L66.37489457656706,190.57871908867315 L67.13394681236883,190.47894235470758 L69.28860070745759,191.13313068001267 L72.65820338038307,190.44597265131026 L74.90279604907033,190.31496146149448 L75.19974906879655,190.07549729997706 L77.87000024356715,190.28893274828602 L80.45573998452554,189.22956412070323 L82.36306225221874,189.3059150127812 L83.49194892773112,189.02654015767746 L84.83017585213722,189.0629803561694 L90.12183214360303,190.28372700564444 L92.477297610779,190.29413849092776 L93.53407820056181,190.01996937846573 L97.13938248705502,190.9370477071759 L102.86134929013464,191.678866033616 L106.74267257146536,191.90531583852928 L111.10082641971874,191.92093306645435 L114.69605136089474,191.70836524191884 L117.3779325494927,191.41337315889015 L118.52620258138462,191.4602248426652 L123.48756648015234,191.08714662001123 L125.82209792243904,191.06979414453883 L128.8862188988303,191.2138196909588 L136.13714485308546,191.18779097775032 L140.25184374521842,191.63895534002975 L151.6384026164963,196.1210997545205 L153.96052871069983,196.96182719115268 L159.6762928397389,198.75173503611873 z"/>
	<path id="bursa-keles" title="Keles" class="district" d="M436.22716697568615,395.25203490802915 L434.6261017387811,396.7660383929855 L431.3123231322273,400.31895774593585 L428.9103376097425,401.89456251881916 L426.03927486288575,403.40856600377566 L422.9464665190531,404.8297337449558 L419.13647398919755,408.4138875537559 L415.54745172206265,411.5034958115957 L413.75255292136774,413.171936328256 L410.43877431481405,416.1383420102428 L408.5896021162586,417.92998510275595 L407.5397995347712,419.7528626511195 L406.3736968150108,420.9744769243682 L401.18903665075703,425.09916034412987 L395.4670698476769,430.57126348431456 L393.50469884786827,428.7024018759495 L391.59039857187764,427.3376296800544 L390.0343027217733,426.51425471889456 L385.3443058123106,424.53694013882796 L383.9138141115401,424.3018140961786 L380.19143435251806,422.5830514006488 L378.1298205680481,421.33627603796526 L376.2790977009815,420.44175592736923 L372.36753638369964,419.4058131416738 L369.44375090749236,419.2652580903483 L368.16057271520276,419.0526902658129 L364.60644048954987,418.9121352144872 L361.89354593074603,419.14726125713685 L356.14599309724576,418.33082728616574 L353.6858575056231,417.47882074047686 L353.01907004618585,415.94659715627415 L351.9987301663952,414.6616463475516 L350.9047335323649,412.6921403814472 L350.5659124628602,411.4948195738599 L350.8016140764289,409.6979707387049 L350.2705101116441,407.2217724888099 L349.24474289206717,405.3121325630852 L349.2036501765441,404.75858859551926 L350.3658762250289,403.2558642196197 L349.08192269848433,401.2074044901166 L345.9441449678525,399.4339814968492 L344.37564376966395,399.22922228627635 L342.6699084083122,399.46695120024657 L341.64956852852157,398.82404198399854 L340.97967973206346,396.457164329579 L340.58270859342156,395.92617858012727 L337.74110854826057,393.16453210871316 L334.80414238971537,390.9295332678833 L332.97435354753844,389.87537038294187 L330.72898554459533,387.3488499541774 L330.0048233502757,384.53688130389395 L328.98991081027174,383.78204862084976 L326.3188843012459,383.4662335672541 L325.6800088749942,382.596006922319 L325.60247544947833,381.6407531475699 L325.64279283074666,377.13171239609704 L326.1863021436141,374.97913781376013 L327.13298526916356,372.612260159341 L327.99903363217743,371.0132295445701 L328.9643247798516,368.5778096120348 L330.2009829168314,364.7186190669993 L332.44324958275365,360.47160069515763 L333.1674117770734,357.26746609920076 L333.65044501803766,352.75061673376536 L333.65044501803766,349.2471519359111 L333.107711039426,347.71232548038785 L331.839264197984,346.0039742701418 L329.2519737885159,344.0353359278112 L327.9323548862336,342.53000868059047 L326.2832189255085,339.28769863859424 L327.8098520739186,338.76972724574665 L330.87629905307523,335.8371588909308 L332.86813275458115,334.45850471465775 L335.436815141926,333.37310737386656 L338.2148377781635,332.9922205372499 L340.41368572579717,333.97263540143393 L342.8249752593438,334.64764669730573 L344.31826903478157,333.7670085670872 L346.572941048787,333.4451201470765 L348.30271177204867,333.88500540029895 L348.90514648830765,334.7352766984407 L349.2982409556735,335.9968016652756 L350.42557696267625,336.11393087471373 L351.8669233430183,335.70354482979417 L354.7503914379577,335.5855479965827 L357.292712460627,336.3186900852866 L359.88698087839197,336.4366869184981 L362.35099314129013,336.8175737551148 L364.211795353674,336.9347029645526 L365.33835602642034,337.9029710959062 L365.8888433475842,339.1636284389675 L366.7013936469923,339.8091405265366 L367.3046036975056,339.01700002122675 L368.61491858872654,338.4894847668692 L370.0043175739725,338.4599855585665 L372.3892457428442,337.34595663324586 L373.2537434373474,336.7004445456767 L373.6731992693892,335.67404562149136 L373.35841356179407,335.0285335339225 L372.3101616488182,334.50101827956496 L367.8550910186695,332.97573568555123 L366.8324251361139,331.65607992588406 L366.88514786546483,330.3945549590492 L368.56219585937515,326.7279768917556 L368.77231144252363,325.70157796756996 L370.6850610500031,323.032767239933 L371.8651197863564,322.6223811950134 L376.66133748877525,322.32912435953193 L378.10268386911775,321.0970986009999 L378.99354292829594,319.27855917150436 L380.2519104244208,317.28475973973894 L381.66301876881226,316.0310433868665 L387.48577902506236,311.3892561980307 L388.7805872311789,314.47973207964435 L389.0651349028235,315.50439575628263 L389.15972568195184,319.5353758084943 L389.4442733535954,320.5600394851324 L391.30817690300006,322.2571115863218 L393.04570096881355,325.0855650883041 L395.32053167345236,329.362950292222 L395.38410908237535,333.1102173704614 L396.3943696168483,335.7972481973447 L397.9109234199412,337.9185883238312 L400.6284699842765,340.2516286510797 L402.0814463784464,342.0198459017054 L405.0827652801704,345.1302771301121 L408.2732657401533,346.2972311056232 L411.7963845955992,349.67315520875576 L413.12298150617744,351.84742038543305 L413.52615531886147,353.385717336051 L415.0659691496085,357.6015012520421 L418.5728059856957,364.97283283266796 L419.40163830446255,366.11289047119715 L420.8708967179902,367.62429108483303 L423.6907874040067,369.74563121131956 L425.8229566056961,373.45732571484115 L428.0977873103349,376.6128733794758 L428.3823349819785,378.60146706859945 L428.31100423050424,382.34005790910294 L428.761473432752,384.30175526124447 L429.4011241932585,386.13157379979697 L430.8703826067872,388.8359571021521 L432.52882257857374,391.4344903041267 L433.80812409958725,392.9719196309708 L436.22716697568615,395.25203490802915 z"/>
	<path id="bursa-kestel" title="Kestel" class="district" d="M397.4371941900393,214.78368712496123 L401.71083660448045,214.62317672684267 L403.58404416494596,214.89040484911584 L406.6109490970901,217.40391092127606 L408.78421101430314,219.477531740214 L411.24279593741505,222.26780979615705 L412.3290392288937,222.94542396334975 L414.00376122003996,223.64299347733555 L417.69047560332405,224.79953596756326 L419.8459048326686,225.69665894948028 L424.4242536093879,227.29135144538316 L426.4905193993892,228.70644582014785 L427.8085876331609,230.34104900963698 L429.4298115606994,232.7530431002843 L430.19584180479717,234.8657069890349 L430.30206259775485,237.19787969250976 L429.8035226716872,239.1118577371025 L428.1412060286245,241.829255396062 L426.5975155266009,243.47687294215552 L425.8849833461089,245.04466910107635 L425.71828648125,247.30396140756767 L425.95631409758363,248.50041459138157 L426.787472419115,249.9354643129393 L428.3784583107029,252.11493523225786 L431.8224930721234,255.88909864747956 L433.41347896371127,257.21743064488305 L435.5751108670965,258.09459828000695 L438.4252395890645,258.4138838286967 L438.91370016981506,258.1952426377461 L440.05886886468664,260.87620009821387 L440.24572442017904,262.16201853071016 L440.1387282929675,263.4469693394326 L439.7386558173053,264.37359152965274 L438.5361123875527,265.44944500893405 L437.2808462284482,266.10710382933377 L434.7431772113108,268.1399463309119 L430.17568311416375,271.3085083521507 L426.9968126680087,273.01165381975517 L425.15384314349325,274.44670354131324 L423.5248658734026,277.4955334817933 L422.4828166344674,280.8731928324732 L422.0556074598739,284.19098614277374 L422.02924609519886,285.71540111301385 L422.2959610789741,288.0172069844124 L422.2959610789741,290.04918186221676 L421.8152538407748,293.188244675153 L421.2539118400388,294.83239172615157 L419.91878625265406,296.3264398643152 L418.36966841084455,297.58189146473495 L414.1495240600097,299.37526980479555 L412.1189236457461,300.77995269427686 L408.27249040589743,303.081758565675 L405.21844877482346,304.43698690006045 L400.73158944021344,306.9478901008998 L399.3321111096493,307.84067496394886 L397.3930001374948,308.280560217171 L394.22188303389106,308.01593496621905 L390.1591315368533,308.22156180056527 L389.73967570481204,308.45582021944125 L387.48577902506236,311.3892561980307 L381.66301876881226,316.0310433868665 L377.96544970595363,314.10231573812234 L375.95733398508986,312.9475084954419 L368.31176289495875,308.8757501258704 L364.67311923549363,306.73618990013784 L361.9524713341376,304.4326487811925 L359.26981481128433,301.06019517315394 L357.557876775892,298.68117078590404 L359.7931654335174,295.4588160907009 L360.34520342319087,293.7469943853602 L361.68343034759744,292.5106305079601 L362.89450245415657,291.1085504897995 L363.06430065603735,290.44308305543757 L362.8735684292674,288.89784511463074 L363.0433666311476,286.9960138028685 L363.7551234773847,284.8686003099664 L364.37616621576694,283.8161726725725 L364.9972089541502,280.85670798077456 L364.9817022690472,279.0919612252434 L364.4878143485104,276.810110700638 L364.4878143485104,273.4584800631667 L364.61496916635645,271.26512716346986 L364.2327293785632,269.32164991057414 L362.08195215474956,266.808143838414 L361.5244868252892,266.4697705667044 L359.6644599471612,266.4289922493447 L357.8718871492313,263.46085131981044 L356.35455801188357,262.95329141224636 L356.37859337379365,262.2843534827896 L357.46406133101743,262.18284150127704 L359.1814267061965,262.382394969208 L360.16997788152486,261.6752815937125 L361.1259650181377,260.56906128235437 L364.73979798143745,256.8512934124178 L365.64771439422924,256.16240013616823 L366.83087446760373,255.74507310105972 L369.1964192800959,255.3824063636891 L371.01147677142563,254.7837459598954 L372.43731646666424,254.04106000968173 L376.50471996923244,251.30197175638156 L378.4655403005325,249.50685816877396 L379.551783592011,248.03797112004497 L380.7667323698468,245.04640434862367 L381.09082208850333,241.83619638625123 L381.9173284045042,238.95308258653102 L383.9107127745203,235.8886354181259 L385.239635687864,234.16553460372816 L386.0335779651478,230.62910010247677 L387.57339179589434,228.3993070042886 L389.6474109284475,225.11708626870598 L392.6130644544342,221.39931839876928 L395.18950018433077,219.531324414178 L397.004557675659,216.90155675635341 L397.4371941900393,214.78368712496123 z"/>
	<path id="bursa-mudanya" title="Mudanya" class="district" d="M295.35203415016156,204.62294511216572 L295.6668198577562,208.2331276341743 L295.4512769348219,210.58438806066872 L295.06903714702815,211.5283627263609 L293.42222718906845,213.9594445400278 L291.6986591398478,215.60706208612115 L290.8186547602422,216.71241477370558 L287.4614574353999,219.06280757642634 L286.5636203679248,219.1834072809588 L284.2290889256381,220.40935967307558 L282.86450063655695,222.45868702635218 L282.36208403921313,223.66468407167588 L281.33864282240216,224.88976884001912 L279.45302991385347,227.6227837269038 L278.04812424350416,230.00094049038026 L275.9911624645646,232.53006379046542 L274.23813171364816,232.83980547764585 L273.64345033994096,233.63628410182346 L272.5688370622891,234.23494450561736 L267.874188147296,235.04790798149395 L265.6993755615729,234.8891328309225 L261.54901129370205,233.25626488898067 L258.738424618748,233.8141469754146 L255.05093490120754,233.42198102974083 L253.62509520596848,233.58249142785962 L250.16012641965926,234.8587659988457 L248.9955743684085,235.79579967434907 L245.91517137265905,236.450855623428 L240.13815583746293,237.0017967196728 L235.47141895565548,238.25724832009251 L232.84768783619478,238.1080170310309 L230.84267345235136,239.05285932049676 L229.9603430699792,239.15350367823584 L225.3858709645367,238.66589911746482 L224.39344311793167,238.4004062427389 L222.69391043062106,237.43560860648 L221.18898664135602,235.92767848793858 L220.38651568726564,233.79679449994222 L218.2256591181353,232.71573527801888 L215.21813754236967,231.8784783364813 L213.01851426048168,231.96437309006896 L211.94157498006442,232.41900794744282 L211.44303505399674,233.0541085497285 L210.9080544179363,234.90388243507368 L209.76521172583062,235.32641521282395 L205.1511975733741,235.91813462642875 L203.7749792704657,235.8695476951065 L202.93529227212733,235.10517115055245 L201.27452629757485,232.8857895376472 L199.81999923489533,232.6515311187715 L197.94756700868416,233.29096983992517 L195.98054400334357,233.30224894898197 L194.82529596315572,231.94875586214383 L193.99801431290004,231.9036394259159 L189.94689282968955,235.99622076605388 L188.3582329408671,236.41268017738872 L187.7682035726903,236.21399433323114 L183.90858965050512,234.21412153505042 L183.44649043442908,233.41504003955194 L183.90238697646353,231.64335229383187 L182.9867172211195,230.17706811642384 L183.1541894202343,229.3389435511126 L182.78357964626787,228.55894977863343 L180.9173500940978,227.4614057050115 L178.25950426740982,226.75602757706318 L175.634222479439,226.4497563849774 L175.09614050635778,226.0810162811914 L174.86276489555505,225.18215805172713 L175.09381450359228,223.92323595621295 L176.11105304636166,221.8756438504835 L176.135863742527,220.62453036893183 L175.59623110093565,220.30784769156264 L173.5330666479555,219.81416976437623 L172.47318472115188,220.17510125419972 L172.71353834025203,221.9277012769003 L172.1940643892946,223.1354335697713 L171.2148172250276,223.46773347506547 L170.08282921249443,223.20224060033962 L166.3255594119894,221.54421156896285 L163.9018645303595,221.98843494105338 L161.9162335028957,223.36795674109982 L160.2384101747296,223.73756446865954 L156.85640215372246,223.87898714375865 L155.3956724170013,223.82085635092642 L154.10086421088383,223.43476377166812 L151.55389118268408,221.24054324819792 L153.25730054127033,217.83859043185677 L155.11732741939835,213.84838869700516 L156.77964406246144,209.6568982466752 L157.45883686998144,207.70214188472244 L158.51406679125415,203.83514272572404 L159.6762928397389,198.75173503611873 L163.69097361295616,199.8484114859671 L168.9795285674017,201.03098268940306 L172.54063880135098,201.70425873772774 L177.6997129351846,202.4634295396402 L178.28586563208532,202.28122854718117 L179.41630297610834,203.02217924984765 L181.7415304073332,203.26858440155408 L183.05184529855313,203.08378053777432 L184.2357807061819,203.58353183137604 L188.36521094916353,203.54709163288425 L190.03683160328802,203.22867370796789 L191.34094382046692,202.62914568040043 L192.4907645208695,201.62790784564967 L192.1604721281714,200.01152475540653 L191.21921634240718,199.35560118255418 L192.18915949561182,198.7144272138533 L194.77644990508034,198.4307142398814 L197.1427700518283,198.58515127158478 L199.84015792552972,197.71492462664978 L200.1285822684489,197.9942994817535 L203.73233588643146,198.08019423534137 L205.2822290624962,197.53012076286993 L206.54679923266215,197.48153383154755 L207.74934266241468,196.83081600133696 L208.60918835138747,195.7341395514886 L210.16993620702428,196.15059896282335 L211.0111738738723,195.93369301941988 L212.18580527044023,194.74504844956857 L213.06270831302507,194.7407103307004 L214.73587963566072,193.92080586463504 L215.14680679089545,194.0544199257716 L216.7122066520632,193.23104496461167 L219.04751342860476,193.08615179441813 L220.58887792786248,192.60722347138318 L222.3434593472885,191.78298088644965 L224.66403477298246,191.61726474568945 L225.83478949827372,192.0085630675893 L230.8752374910679,191.7248500936176 L233.19426224825116,192.91609753478977 L234.90620028364398,192.63932555100692 L236.76932849879327,192.93258238648846 L237.39657391121762,193.392422986504 L240.45061554229213,194.74244557824758 L241.35543061806362,194.89861785749812 L241.5391848365367,195.51636598431148 L243.6667020326957,195.53371845978373 L245.5430109301819,196.3102417371684 L247.15493084665957,196.23562609263755 L249.02891374138093,196.45687015490932 L251.13472157839482,195.49727826129194 L253.1668726611685,194.90469122391352 L254.30816468476405,195.21530053486737 L254.72374384552973,195.71765469978996 L257.49168713645054,196.25037569678904 L258.740750621513,197.078088776817 L260.8341531104452,199.08663781273378 L262.49879575627335,200.22843069881003 L263.6586958019921,200.2319011939044 L263.9517721504427,200.8314292214719 L265.1186502044584,201.00495397619468 L267.7439319924293,203.187895390608 L269.9474319455939,204.4338031295179 L272.73243259012776,205.6319915608791 L273.85976859712997,205.4237618552117 L274.552142086988,205.69966621522096 L277.4759275631957,205.40467413219213 L278.8901372446075,205.51659759898843 L279.718194229118,205.28494205143338 L281.109143882875,204.4502879812166 L285.06489925270023,204.57349055706987 L287.70413705726503,205.54436155974398 L289.33466499586586,205.63285918465266 L290.4488203205306,205.39860076577685 L291.85760266215607,205.43851145936316 L294.1440633806228,204.66979679594095 L295.35203415016156,204.62294511216572 z"/>
	<path id="bursa-mustafakemalpasa" title="Mustafakemalpaşa" class="district" d="M39.99182054198768,311.10988134292705 L41.03231911241222,310.10083489421385 L42.153452445373844,309.4622637968338 L44.98187180819635,308.8176193330386 L47.40401602131608,307.5977403073369 L48.629819478723824,306.26073207219736 L48.69184621913668,303.45310154078186 L49.34545299623651,302.5013182611273 L50.20297268244279,301.8774967678985 L52.29637517137454,301.0714742822111 L53.21747226650433,300.2125267463331 L53.402777153488046,299.15662861384465 L56.802617862363626,296.4600539254518 L60.81109596154032,296.4531129352629 L63.51933851481374,297.4925262160527 L68.90946225668513,300.07804506142287 L72.30852763130589,300.73136576295434 L75.76031573527763,300.55350288936353 L79.69048507468268,299.5132219848 L86.2490375390794,296.95806997150635 L87.36396819799995,295.8284238182607 L90.60331471605767,292.9461776423144 L96.55167912164364,285.99304072057043 L102.68534841421331,282.7247019653659 L107.35906330431719,278.6538112195682 L111.1031524224837,275.5043369213488 L115.19226528419752,271.6711750895214 L118.9627157670395,266.79859997690426 L120.95377413429011,263.41052914094087 L122.38814250633575,262.3711158601512 L125.17624448789047,261.5390646612552 L128.70789202014396,261.71692753484604 L132.87686431013853,262.548978733742 L137.84210488018186,264.2720795481398 L146.44521377543597,266.99641819728845 L151.4375910444101,269.2149321864198 L154.65910487459888,270.9579883476106 L156.88974152669434,272.5431369820037 L158.16439104217693,274.1673286862094 L161.27968407940895,276.1880244549568 L165.13852266733983,277.9310806161475 L172.53831279858554,280.2684590622643 L177.70746627773633,280.38732351924915 L180.5040969360976,279.35745409996923 L184.43426627550312,277.53457655160577 L189.3808988234227,286.42164686473603 L191.07422883669227,288.73733471651195 L192.8481936124979,291.4746877222647 L194.2461212745514,293.09887942647043 L195.85881652528334,294.6632050902969 L198.06309181270328,296.10693104959074 L200.99307996295212,296.6179614522494 L203.89593141427062,297.49079096850534 L205.96607387554715,299.71624594782566 L209.94431393877224,305.19095195933124 L212.3362201159409,309.9134281591131 L216.5563644667758,313.07157869506875 L220.18492878092366,316.68089359330367 L221.50222168044053,319.3878797669799 L222.33570600473732,322.3959313901002 L223.15445897818594,324.7931758765961 L223.94219858142867,325.70244559134386 L225.71693869148964,326.0173930211657 L228.31275777776423,325.978349951353 L230.1960446835479,326.1310517355092 L231.34121337841955,326.4329848087268 L231.55210429582291,328.28622918916676 L232.24215178291448,329.12608900202514 L234.3464089514187,329.4904909869433 L235.03025376446968,330.06746079639635 L235.3411628007887,331.72288695645244 L235.05661512914514,336.96854029172374 L235.07057114573797,341.74220629414873 L234.69686003475076,344.75372841236344 L233.30823638375966,347.22645616716403 L230.61472518133436,350.94162116577985 L228.92139516806532,353.04734406434136 L227.38933467986897,354.4008371511795 L225.3726902821987,356.6566589625763 L223.70649696785998,358.1307517539468 L218.97540734287418,361.7400666521817 L214.56763210229113,365.9211456172285 L211.9330463032579,369.34999477055146 L210.07844676491513,371.4253508370367 L208.5735229756501,373.9822380978777 L208.1432124640363,375.4259640571718 L207.98194293896307,377.02065655307456 L208.1967105276421,378.1936838950008 L209.1379663134068,379.9983413441184 L210.26685298891914,381.32146759887996 L211.8524115407213,382.40426206835036 L213.8419192394607,383.3968236653651 L218.0620635902961,385.2622147786354 L219.27158502834558,387.0365053956764 L219.4057178544885,388.33013244213527 L219.37858115555767,392.0001810045232 L218.54587216551622,393.4439069638171 L216.6788672790908,395.25029966048186 L214.56763210229113,398.4067149488901 L211.71827871457842,400.45257180707245 L209.75590771476925,400.6625367602869 L204.2456071633478,400.75276963274274 L200.99307996295212,400.00140744479296 L197.4149123753892,400.00314269234013 L196.4899386089838,400.30160527046354 L197.73047341723918,404.703060674008 L198.20962998692835,406.08518534537546 L201.35128438883584,411.56683234706975 L202.93296626936188,413.5155153426072 L199.67811306620072,414.86293506302985 L196.60236207598217,415.02865120379033 L195.2525051377487,415.49977091286263 L193.90264819951528,416.4211873604408 L192.14961744859883,417.91176500351014 L188.88390956586565,421.63734148740923 L187.52164727955005,423.8948985463534 L186.69824230056946,424.8761810343112 L183.22707084021965,427.1710459155207 L181.59654290161828,427.6222102777999 L179.82645479708822,429.30887089370583 L178.6518234005213,430.07411506203334 L175.6722138579413,430.3491517982691 L172.67399629323856,430.1721565484518 L168.69498089575762,429.25074010087354 L165.71537135317917,428.07337464007924 L163.70648029805963,426.71467581059954 L161.72317527336077,426.2947459041703 L159.2816477038625,426.3468033305869 L156.9153275571145,425.8956389683077 L155.02196130601408,425.3273453965903 L146.46769846883532,423.11056665500627 L144.6797776764364,423.1305220017992 L143.277198008853,422.97348209877504 L141.5419999458045,422.306279416866 L138.45616961026872,420.48166662095537 L136.38835315175712,417.853634210678 L135.51145010917128,417.02939162574455 L132.4085624200214,415.3427310098386 L130.25235785642198,413.5962043535532 L129.28861737725842,412.16462512709 L125.6949431045926,409.1244714243458 L122.03148874896215,404.72995701099023 L120.6816318107287,402.3561383663817 L120.19084522721272,400.33631022140804 L120.06291507511143,399.0513594126853 L119.81093144218441,393.55496280683974 L119.24958944144855,391.3060819856315 L118.59520733009388,389.5014245365143 L117.1461076072001,387.9318931300462 L115.55667238412232,386.72936657981705 L113.17329488376126,385.578029832231 L112.40183729987682,385.3949612159986 L105.45949437917571,384.7147441774849 L101.08893518283963,385.44701864241506 L97.34949807020355,385.31687507637315 L90.85219701196387,383.4853212902737 L86.38782237075372,382.0736974106032 L81.64975473747153,379.9237256995875 L78.04367511672302,378.12427399311156 L75.3323312264293,376.34564525720276 L71.84952975225114,373.5987483899403 L67.4557105282604,372.76235907217614 L64.06517383044618,370.2132804252977 L60.724258524962636,366.51112978328587 L59.158083329539565,364.60148985756103 L59.04178319126511,363.8952441058394 L59.29841882972305,358.35112819244483 L59.88302085811412,354.9769393368595 L60.11639646891686,352.07387019034627 L59.88302085811412,349.5889957027151 L59.088303246574995,348.69968133476095 L56.70415041195861,346.89502388564324 L54.27347752203183,345.3775499055923 L50.1052805662926,342.6219768005935 L48.61741413064116,341.24505787186786 L46.74730790719544,339.8065376552155 L42.25967323833063,336.90346850870276 L38.52023612569453,333.5822047033074 L36.32293884657149,331.4461149726694 L35.619710677141484,329.16339682429043 L35.57474129034174,328.27234720878903 L36.167096661284056,327.0524681830874 L36.13608329107763,325.55928766869744 L35.5227938952466,324.85304191697526 L35.6274640196927,324.22488230487875 L37.36343741699553,323.5975903165555 L38.432623354861015,322.205054159905 L36.67261459564869,321.1855962259085 L35.187074162762215,320.0863169047391 L34.241166371467095,317.5294296438983 L34.41251524185748,316.39891586687907 L37.361886748485375,314.7270048551245 L38.320199887863176,313.64073989055953 L39.41807319316962,311.6842482810597 L39.99182054198768,311.10988134292705 z"/>
	<path id="bursa-nilufer" title="Nilüfer" class="district" d="M188.3582329408671,236.41268017738872 L189.94689282968955,235.99622076605388 L193.99801431290004,231.9036394259159 L194.82529596315572,231.94875586214383 L195.98054400334357,233.30224894898197 L197.94756700868416,233.29096983992517 L199.81999923489533,232.6515311187715 L201.27452629757485,232.8857895376472 L202.93529227212733,235.10517115055245 L203.7749792704657,235.8695476951065 L205.1511975733741,235.91813462642875 L209.76521172583062,235.32641521282395 L210.9080544179363,234.90388243507368 L211.44303505399674,233.0541085497285 L211.94157498006442,232.41900794744282 L213.01851426048168,231.96437309006896 L215.21813754236967,231.8784783364813 L218.2256591181353,232.71573527801888 L220.38651568726564,233.79679449994222 L221.18898664135602,235.92767848793858 L222.69391043062106,237.43560860648 L224.39344311793167,238.4004062427389 L225.3858709645367,238.66589911746482 L229.9603430699792,239.15350367823584 L230.84267345235136,239.05285932049676 L232.84768783619478,238.1080170310309 L235.47141895565548,238.25724832009251 L240.13815583746293,237.0017967196728 L245.91517137265905,236.450855623428 L248.9955743684085,235.79579967434907 L250.16012641965926,234.8587659988457 L253.62509520596848,233.58249142785962 L255.05093490120754,233.42198102974083 L258.738424618748,233.8141469754146 L261.54901129370205,233.25626488898067 L265.6993755615729,234.8891328309225 L267.874188147296,235.04790798149395 L272.5688370622891,234.23494450561736 L273.64345033994096,233.63628410182346 L274.23813171364816,232.83980547764585 L275.9911624645646,232.53006379046542 L275.91595504181424,233.1443414221844 L279.4173645381162,236.74324483513584 L279.770916958469,237.34103761515615 L281.6092344774529,242.1415999545631 L282.30858597560683,243.1792779878056 L290.18055466824535,249.88687738161673 L293.5904747224381,252.4984249401955 L297.2678850946613,256.45478934787604 L298.7131081462795,257.1671084660135 L299.6326545728991,257.1757847037494 L298.5247019222755,258.6177754154962 L297.0159014617343,259.4350770102408 L296.1831924716929,260.25237860498527 L296.0257996178953,261.56249050314284 L295.5784317526679,262.51253853525026 L295.45282760333214,263.98055796020554 L296.1754391291411,264.6833332168327 L296.1676857865894,267.15432572408605 L295.33497679654795,268.10350613241985 L293.8184229934551,268.3672637595987 L292.52206411882787,269.1585366411347 L291.32804936588195,268.9477040641466 L290.51704973498505,269.21059406755177 L290.4736310166959,269.8370184321011 L289.7642001732243,270.77578735515146 L288.21508233141486,272.29239371142904 L286.96679418060774,274.2428119545138 L286.32094074605965,275.5668058330491 L285.76192474808965,277.3489050640526 L283.9546205993117,281.7789920521266 L283.394829267086,282.9103734529194 L283.0079374737618,285.51064190244097 L283.28783313987384,288.5924415463185 L284.24769694776234,291.5510386143429 L284.1709388565013,293.3392112117616 L284.64621875491434,296.38890877601557 L285.42387901283985,297.2851641341589 L283.2056477088276,298.47120583268935 L279.76781562144873,299.13407039573065 L278.38151797322257,299.76309763160083 L274.5955608052771,302.70694509547377 L273.4387620965781,303.972808181177 L272.90533212902835,305.2638323563148 L271.5368671686716,305.8329935518056 L270.5956113829074,306.5626651454151 L269.0371895300361,306.96350732882496 L266.3979517254719,307.316630204686 L264.30377390228534,307.15611980656723 L262.6685939581531,306.8350990103299 L258.738424618748,304.97231076838034 L256.8450583676476,304.330269175906 L252.0255806375735,304.330269175906 L248.20938543367694,304.6833920517669 L242.07028880132097,305.5831179050048 L240.17692255022058,306.5140782140927 L237.27949843868836,307.7339572397942 L234.41076169459706,307.6697530805468 L231.5707123179462,307.15611980656723 L228.7593503087368,306.96350732882496 L225.11605464374077,307.316630204686 L222.64894104382182,308.40810091189235 L220.84163689504476,308.5365092303873 L217.80077594630777,308.50440715076354 L215.41972444871163,308.69701962850587 L213.35423399296553,309.33906122098045 L212.3362201159409,309.9134281591131 L209.94431393877224,305.19095195933124 L205.96607387554715,299.71624594782566 L203.89593141427062,297.49079096850534 L200.99307996295212,296.6179614522494 L198.06309181270328,296.10693104959074 L195.85881652528334,294.6632050902969 L194.2461212745514,293.09887942647043 L192.8481936124979,291.4746877222647 L191.07422883669227,288.73733471651195 L189.3808988234227,286.42164686473603 L184.43426627550312,277.53457655160577 L183.08906134280065,273.44459808278896 L182.3718771567778,268.89824950905074 L182.79676032860536,266.31273066368044 L183.75274746521768,265.0650876772233 L185.26619993128978,263.8764431073719 L188.85057019289326,260.19164494083225 L192.010832616925,254.75424675159255 L193.12576327584506,252.25809315490426 L193.21647738369887,251.72884265299987 L192.14108877179177,249.76280718199 L191.94182786821577,247.88873983098335 L190.80518785015167,247.4722804196485 L189.42586821022198,245.9990552520518 L188.96454432840173,244.73058929502793 L188.6334766014488,242.19018688588565 L188.84359218459684,238.89234892237798 L188.79397079226666,237.86074425555074 L188.3582329408671,236.41268017738872 z"/>
	<path id="bursa-orhaneli" title="Orhaneli" class="district" d="M312.7156447944663,433.46999451195956 L312.3233256613559,433.52899292856523 L309.0847544775525,432.6926036108011 L304.573859781033,431.17512963075 L302.8022210079928,430.2146701133591 L298.7890909032852,427.1172532415565 L295.2737253903905,424.1751410252308 L290.45734899733765,419.96282760433405 L289.87662364022265,419.25050848619685 L289.98749643871037,418.19721322502915 L290.78996739280075,415.81211547136377 L290.07045720401294,414.2330402033862 L288.7415342906682,413.4894866293986 L287.41338671157985,413.365416429772 L283.2893838083845,413.3350495976954 L281.90541216292434,412.40582453615457 L279.30339040260765,407.9453707160041 L278.22412511942497,403.6402215513307 L277.3658300989629,401.9674429158027 L275.78802488971246,399.52074387421067 L274.5428380759266,397.91043415038286 L272.1896986115161,395.5869376846439 L270.7227662007539,393.94539350496615 L267.40200958590384,390.87921108901355 L266.3777930348375,389.79554899576954 L264.24639916740347,386.5428274684899 L263.27800668270896,385.55200111902263 L261.36758307799494,384.65401051333185 L260.12239626420813,384.4371045699282 L258.23988469267977,383.7863867397177 L256.60703075131346,384.12736288274806 L255.47271673601426,385.02535348843867 L252.31710631751343,386.6052963801903 L249.5770750597788,387.8130286730611 L247.97135781734323,388.3709107594951 L245.14836579430602,389.0207609659319 L241.3841179855051,389.5161741406656 L240.27694066913628,389.4545728527391 L237.56482144458727,389.9196191953964 L236.01492826852297,390.3221966263533 L233.77266160260018,391.3442574316708 L230.58991448516954,394.96745431028353 L229.31604030394172,395.61817214049404 L227.29629456925022,395.989515115601 L223.67005625786726,395.89667937182435 L221.20681932922494,395.71100788427077 L219.8778964158807,395.7734767959711 L216.6788672790908,395.25029966048186 L218.54587216551622,393.4439069638171 L219.37858115555767,392.0001810045232 L219.4057178544885,388.33013244213527 L219.27158502834558,387.0365053956764 L218.0620635902961,385.2622147786354 L213.8419192394607,383.3968236653651 L211.8524115407213,382.40426206835036 L210.26685298891914,381.32146759887996 L209.1379663134068,379.9983413441184 L208.1967105276421,378.1936838950008 L207.98194293896307,377.02065655307456 L208.1432124640363,375.4259640571718 L208.5735229756501,373.9822380978777 L210.07844676491513,371.4253508370367 L211.9330463032579,369.34999477055146 L214.56763210229113,365.9211456172285 L218.97540734287418,361.7400666521817 L223.70649696785998,358.1307517539468 L225.3726902821987,356.6566589625763 L227.38933467986897,354.4008371511795 L228.92139516806532,353.04734406434136 L230.61472518133436,350.94162116577985 L233.30823638375966,347.22645616716403 L234.69686003475076,344.75372841236344 L235.07057114573797,341.74220629414873 L235.05661512914514,336.96854029172374 L235.3411628007887,331.72288695645244 L235.03025376446968,330.06746079639635 L234.3464089514187,329.4904909869433 L232.24215178291448,329.12608900202514 L231.55210429582291,328.28622918916676 L231.34121337841955,326.4329848087268 L230.1960446835479,326.1310517355092 L228.31275777776423,325.978349951353 L225.71693869148964,326.0173930211657 L223.94219858142867,325.70244559134386 L223.15445897818594,324.7931758765961 L222.33570600473732,322.3959313901002 L221.50222168044053,319.3878797669799 L220.18492878092366,316.68089359330367 L216.5563644667758,313.07157869506875 L212.3362201159409,309.9134281591131 L213.35423399296553,309.33906122098045 L215.41972444871163,308.69701962850587 L217.80077594630777,308.50440715076354 L220.84163689504476,308.5365092303873 L222.64894104382182,308.40810091189235 L225.11605464374077,307.316630204686 L228.7593503087368,306.96350732882496 L231.5707123179462,307.15611980656723 L234.41076169459706,307.6697530805468 L237.27949843868836,307.7339572397942 L240.17692255022058,306.5140782140927 L242.07028880132097,305.5831179050048 L248.20938543367694,304.6833920517669 L252.0255806375735,304.330269175906 L256.8450583676476,304.330269175906 L258.738424618748,304.97231076838034 L262.6685939581531,306.8350990103299 L264.30377390228534,307.15611980656723 L266.3979517254719,307.316630204686 L269.2465297789293,310.50601519649155 L272.0966585008969,312.0017985822021 L274.90104250181037,313.14532671582595 L278.02021221031805,314.14309405548204 L281.50611502151696,314.6411101015368 L285.830929496798,315.843636651766 L289.18580081887535,317.19279161973594 L291.02024166658316,317.808804499002 L292.48794941160077,318.80657183865833 L294.1130500104164,319.6273439284972 L297.4849786861063,320.2919437390858 L300.60414839461447,321.81722633309937 L303.59228661400056,322.2276123780189 L304.95454890031607,322.2866107946247 L306.16019366708997,322.0523523757489 L307.20922091432107,320.9669550349576 L307.75893290122957,319.7644284847281 L308.46681307619053,318.88465797828354 L310.1182750396811,318.0048874718389 L312.97460643568974,316.8023609216097 L315.51692745835857,314.9543222838114 L317.771599472364,314.5439362388918 L319.73707180919394,314.9543222838114 L320.28755913035786,316.8604917144416 L320.0518575167891,318.2096466824117 L320.68065359772356,320.82032661721695 L321.3094496786581,322.2571115863218 L321.85993699982197,324.2222794335578 L321.9382457595931,327.1843469966767 L321.5978740215778,328.8857572167341 L320.83804645152117,330.90905585680247 L319.5796789553964,333.2854773727314 L319.7897945385449,334.1652478791762 L320.575983473277,335.39640601393495 L323.09194313127085,338.06608436534566 L326.2832189255085,339.28769863859424 L327.9323548862336,342.53000868059047 L329.2519737885159,344.0353359278112 L331.839264197984,346.0039742701418 L333.107711039426,347.71232548038785 L333.65044501803766,349.2471519359111 L333.65044501803766,352.75061673376536 L333.1674117770734,357.26746609920076 L332.44324958275365,360.47160069515763 L330.2009829168314,364.7186190669993 L328.9643247798516,368.5778096120348 L327.99903363217743,371.0132295445701 L327.13298526916356,372.612260159341 L326.1863021436141,374.97913781376013 L325.64279283074666,377.13171239609704 L325.60247544947833,381.6407531475699 L325.6800088749942,382.596006922319 L326.3188843012459,383.4662335672541 L328.98991081027174,383.78204862084976 L330.0048233502757,384.53688130389395 L330.72898554459533,387.3488499541774 L332.97435354753844,389.87537038294187 L334.80414238971537,390.9295332678833 L337.74110854826057,393.16453210871316 L340.58270859342156,395.92617858012727 L340.97967973206346,396.457164329579 L341.64956852852157,398.82404198399854 L342.6699084083122,399.46695120024657 L344.37564376966395,399.22922228627635 L345.9441449678525,399.4339814968492 L349.08192269848433,401.2074044901166 L350.3658762250289,403.2558642196197 L349.2036501765441,404.75858859551926 L349.24474289206717,405.3121325630852 L350.2705101116441,407.2217724888099 L343.742195683198,408.8390232028267 L341.93334086591034,409.3795528137882 L339.8911104378194,410.36170292551964 L335.96094109841385,413.3038151418456 L334.6041061518845,414.4499461467897 L332.83324271309965,417.4232928189655 L331.61519259824314,419.06483699864356 L322.01112717957795,426.74591026644964 L320.3774979039563,427.7992055276173 L317.3606723171288,430.18430328128267 L315.285102516066,432.3516274677707 L313.7631213731873,433.3120869851616 L312.7156447944663,433.46999451195956 z"/>
	<path id="bursa-orhangazi" title="Orhangazi" class="district" d="M426.17263235477327,135.15664767774743 L427.718648859562,135.37615649247178 L430.3478073188089,136.36611521816565 L431.9519738927348,137.1660643374378 L433.4801577096551,137.60421434311297 L436.7241562332437,135.98175788645455 L439.77121985602236,133.9463125135557 L441.442065175891,133.2044941871156 L447.58581381377843,133.67127577731995 L451.3694449789579,133.2044941871156 L452.13159855178094,135.6242968917254 L452.74566328186677,136.22903066193464 L455.7686915427349,137.35607394385937 L456.45641302706196,137.76906286009972 L456.7184760053061,138.70869940692387 L456.97201030674324,141.825204001746 L457.5031142715276,142.61821213082922 L460.2888902503168,143.41122025991268 L460.42612441348103,146.0730899973609 L461.2844194339426,149.9305452948495 L461.59920514153777,155.68115566636416 L462.43811680561987,159.40673215026342 L464.6028500460268,175.72413246062513 L464.15470684654457,185.75906902624652 L464.11128812825496,193.54512477066012 L463.80192976044657,195.5233069745004 L462.58232897708035,198.0611065123218 L461.2766660913909,202.34803557774947 L460.1594094297059,204.40517154498863 L458.28775253775,206.26448929184377 L455.72682349295644,205.7820904737143 L453.14108375199856,205.46020205370345 L450.38787181192595,204.81729283745534 L447.10820791259994,204.89798184840149 L445.1923569680991,205.1391812574662 L443.4447535569695,205.9157045348509 L441.7211855077493,207.20152296734707 L438.39345088460277,209.29162863798356 L436.28686771333355,210.25555865046897 L432.2171382079993,211.03294955162715 L430.3493579873191,211.2203562867279 L427.64421677106697,211.00605321464528 L425.68107043700195,211.43465935881062 L424.7235326318795,212.2380789731773 L421.9222499679863,213.63148275360172 L419.79163143480804,214.03319256078507 L418.7030621405635,210.82732271728068 L417.46640400358376,208.14636525681294 L414.96517569643754,203.9635510442191 L412.99117468280053,202.40182825171348 L410.38450091695347,201.04746754110184 L407.4103187141602,200.45748337504415 L405.4355423662673,199.78073683162512 L403.8298251238318,198.69013374819218 L402.61875301727173,197.33490541380672 L401.72401728681746,196.83428649643136 L399.85468639762706,197.18827699606595 L396.66961327743047,199.19075266556752 L395.87954767142276,200.04536208257747 L393.4581787925579,200.6639778331643 L391.1151186734651,200.75247545807298 L388.5092202418728,200.39935258221195 L386.7189734467089,200.42798416674128 L381.1117561133926,199.2792502904761 L377.97940572254697,198.95562662291803 L377.53126252306464,198.60163612328344 L376.1627975627075,195.3619289526082 L374.3461894028681,192.5039762423231 L373.21420139033444,190.05901244827834 L371.31928447072437,183.72535890089503 L370.79205717721567,180.83877460608062 L370.6083029587422,177.36220614520866 L369.97640554078686,173.68001084999008 L369.87096008208493,170.6459305136613 L370.02912827013785,168.93757930341505 L370.6346643234181,166.1681242180387 L370.79205717721567,162.54492733942584 L369.71279189403253,154.82741387312785 L368.34432693367535,153.03056503797293 L367.0805320977642,152.23495403756868 L364.68474924932104,151.08622016130352 L363.05267064221,149.52449736879808 L360.710385857371,146.16679336491123 L360.22657728215194,144.4506335407024 L364.96929692096455,144.53305779919577 L368.70485736232456,144.23112472597805 L371.43248327197756,144.01074828747994 L375.65883029685403,143.295826298022 L379.9099880178948,141.92151024061712 L382.51511111523223,141.17882429040338 L386.47086648505746,139.83140456998066 L389.56755150016573,138.64883336654447 L392.90924213990513,137.19122542687273 L394.67855491017986,136.22903066193464 L397.1363644990369,135.12888371699182 L400.01130391716976,134.44172568828938 L402.8125865810615,133.9740764743114 L405.8844609000054,132.40628031539057 L408.61208680965797,131.25147307271013 L412.003398841727,130.6189753417454 L416.6499770329001,129.88236275794688 L418.0975260872832,130.59207900476326 L421.4640274231874,133.50642726033334 L422.6921568833611,134.2213492497914 L425.2236232264569,135.18441163850312 L426.17263235477327,135.15664767774743 z"/>
	<path id="bursa-osmangazi" title="Osmangazi" class="district" d="M295.06903714702815,211.5283627263609 L296.95930206110773,211.62900708410018 L301.4484873984832,211.06678687879818 L303.33410030703243,211.64896243089325 L307.89461639588205,211.44854133918832 L311.66506687872464,211.64896243089325 L314.77105590489526,211.4277183686217 L317.7336080938607,210.90540885690598 L323.80292464325254,209.57967973082353 L328.9736287909135,208.8361261568362 L334.41414925937033,208.67561575871756 L335.85084363418144,209.07732556590094 L343.104870925457,210.38309934519015 L347.3064072541676,210.5644327138755 L350.6457718911415,210.36314399839713 L352.9081972476981,210.02130023159302 L356.0327942959925,209.17796992364015 L357.09190088854035,209.11723625948713 L359.13878332216274,209.37839101534504 L361.0957269821861,210.18267825348534 L365.8182879303648,212.43242669846697 L370.306697933485,214.78368712496123 L371.86899645763197,215.10470792119855 L371.66120687724936,216.70981190238473 L370.1934991322318,219.87924154739736 L369.2010712856268,220.8744060157328 L367.6504027753077,223.21091683807578 L365.50040088574883,225.73309914797204 L363.9497323754298,227.19070708764391 L361.88191591691816,228.69429908731732 L358.9457250926278,230.63777634021304 L354.2107587963664,232.39644972932885 L353.301291715064,232.88231904255287 L351.08926308509274,235.82096076378392 L348.23603302610496,237.51022425101084 L346.87066940276804,238.6893249593524 L344.65864077279684,242.25265579758596 L341.41309158069805,242.55372124703 L340.8548509169829,242.8313608545864 L335.87177765907063,246.3946916928199 L334.17612164303563,246.64890545848866 L333.33953598171865,247.04020378038882 L331.9020662726522,247.64406992682441 L328.9247827328381,247.8748578506055 L328.25024193084903,249.02792984573875 L328.1106817649204,249.89989173822116 L327.3663608799673,250.56362392503604 L325.98238923450714,250.4595090722023 L325.28458840486286,258.3071661045424 L324.47048743694467,262.0943438763684 L323.1911859159311,264.59310034437704 L322.1328546576382,266.0897513538614 L320.9814832887254,267.35214394447024 L320.3302025143911,267.6644885029713 L318.88808079979367,269.21319693887244 L317.318028933095,269.9810439785211 L316.35118711691115,272.2134399480302 L316.90942778062623,274.2957370047043 L318.21198932929497,276.44744396326735 L319.98983077637627,280.1495946052789 L320.83804645152117,281.352988779282 L321.1481801535849,282.71776097517704 L321.91265972917296,282.97197474084595 L324.8077578379392,282.6023670132864 L327.1849326642597,282.48610542762196 L328.50842823781767,282.62492523140014 L335.1452894619855,283.04138464273495 L339.13593487329376,283.22705613028864 L341.2037513318048,283.50469573784505 L343.3126605058395,284.1753689148486 L347.67469102536904,284.4070244624036 L350.2387214071828,284.9848618956307 L351.54128295585105,285.86463240207553 L353.1950709221072,287.57645410741634 L353.719196878595,290.11945938787954 L355.0791331621457,293.7383181476243 L356.9903321011146,297.89336839946236 L357.557876775892,298.68117078590404 L359.26981481128433,301.06019517315394 L361.9524713341376,304.4326487811925 L364.67311923549363,306.73618990013784 L368.31176289495875,308.8757501258704 L375.95733398508986,312.9475084954419 L377.96544970595363,314.10231573812234 L381.66301876881226,316.0310433868665 L380.2519104244208,317.28475973973894 L378.99354292829594,319.27855917150436 L378.10268386911775,321.0970986009999 L376.66133748877525,322.32912435953193 L371.8651197863564,322.6223811950134 L370.6850610500031,323.032767239933 L368.77231144252363,325.70157796756996 L368.56219585937515,326.7279768917556 L366.88514786546483,330.3945549590492 L366.8324251361139,331.65607992588406 L367.8550910186695,332.97573568555123 L372.3101616488182,334.50101827956496 L373.35841356179407,335.0285335339225 L373.6731992693892,335.67404562149136 L373.2537434373474,336.7004445456767 L372.3892457428442,337.34595663324586 L370.0043175739725,338.4599855585665 L368.61491858872654,338.4894847668692 L367.3046036975056,339.01700002122675 L366.7013936469923,339.8091405265366 L365.8888433475842,339.1636284389675 L365.33835602642034,337.9029710959062 L364.211795353674,336.9347029645526 L362.35099314129013,336.8175737551148 L359.88698087839197,336.4366869184981 L357.292712460627,336.3186900852866 L354.7503914379577,335.5855479965827 L351.8669233430183,335.70354482979417 L350.42557696267625,336.11393087471373 L349.2982409556735,335.9968016652756 L348.90514648830765,334.7352766984407 L348.30271177204867,333.88500540029895 L346.572941048787,333.4451201470765 L344.31826903478157,333.7670085670872 L342.8249752593438,334.64764669730573 L340.41368572579717,333.97263540143393 L338.2148377781635,332.9922205372499 L335.436815141926,333.37310737386656 L332.86813275458115,334.45850471465775 L330.87629905307523,335.8371588909308 L327.8098520739186,338.76972724574665 L326.2832189255085,339.28769863859424 L323.09194313127085,338.06608436534566 L320.575983473277,335.39640601393495 L319.7897945385449,334.1652478791762 L319.5796789553964,333.2854773727314 L320.83804645152117,330.90905585680247 L321.5978740215778,328.8857572167341 L321.9382457595931,327.1843469966767 L321.85993699982197,324.2222794335578 L321.3094496786581,322.2571115863218 L320.68065359772356,320.82032661721695 L320.0518575167891,318.2096466824117 L320.28755913035786,316.8604917144416 L319.73707180919394,314.9543222838114 L317.771599472364,314.5439362388918 L315.51692745835857,314.9543222838114 L312.97460643568974,316.8023609216097 L310.1182750396811,318.0048874718389 L308.46681307619053,318.88465797828354 L307.75893290122957,319.7644284847281 L307.20922091432107,320.9669550349576 L306.16019366708997,322.0523523757489 L304.95454890031607,322.2866107946247 L303.59228661400056,322.2276123780189 L300.60414839461447,321.81722633309937 L297.4849786861063,320.2919437390858 L294.1130500104164,319.6273439284972 L292.48794941160077,318.80657183865833 L291.02024166658316,317.808804499002 L289.18580081887535,317.19279161973594 L285.830929496798,315.843636651766 L281.50611502151696,314.6411101015368 L278.02021221031805,314.14309405548204 L274.90104250181037,313.14532671582595 L272.0966585008969,312.0017985822021 L269.2465297789293,310.50601519649155 L266.3979517254719,307.316630204686 L269.0371895300361,306.96350732882496 L270.5956113829074,306.5626651454151 L271.5368671686716,305.8329935518056 L272.90533212902835,305.2638323563148 L273.4387620965781,303.972808181177 L274.5955608052771,302.70694509547377 L278.38151797322257,299.76309763160083 L279.76781562144873,299.13407039573065 L283.2056477088276,298.47120583268935 L285.42387901283985,297.2851641341589 L284.64621875491434,296.38890877601557 L284.1709388565013,293.3392112117616 L284.24769694776234,291.5510386143429 L283.28783313987384,288.5924415463185 L283.0079374737618,285.51064190244097 L283.394829267086,282.9103734529194 L283.9546205993117,281.7789920521266 L285.76192474808965,277.3489050640526 L286.32094074605965,275.5668058330491 L286.96679418060774,274.2428119545138 L288.21508233141486,272.29239371142904 L289.7642001732243,270.77578735515146 L290.4736310166959,269.8370184321011 L290.51704973498505,269.21059406755177 L291.32804936588195,268.9477040641466 L292.52206411882787,269.1585366411347 L293.8184229934551,268.3672637595987 L295.33497679654795,268.10350613241985 L296.1676857865894,267.15432572408605 L296.1754391291411,264.6833332168327 L295.45282760333214,263.98055796020554 L295.5784317526679,262.51253853525026 L296.0257996178953,261.56249050314284 L296.1831924716929,260.25237860498527 L297.0159014617343,259.4350770102408 L298.5247019222755,258.6177754154962 L299.6326545728991,257.1757847037494 L298.7131081462795,257.1671084660135 L297.2678850946613,256.45478934787604 L293.5904747224381,252.4984249401955 L290.18055466824535,249.88687738161673 L282.30858597560683,243.1792779878056 L281.6092344774529,242.1415999545631 L279.770916958469,237.34103761515615 L279.4173645381162,236.74324483513584 L275.91595504181424,233.1443414221844 L275.9911624645646,232.53006379046542 L278.04812424350416,230.00094049038026 L279.45302991385347,227.6227837269038 L281.33864282240216,224.88976884001912 L282.36208403921313,223.66468407167588 L282.86450063655695,222.45868702635218 L284.2290889256381,220.40935967307558 L286.5636203679248,219.1834072809588 L287.4614574353999,219.06280757642634 L290.8186547602422,216.71241477370558 L291.6986591398478,215.60706208612115 L293.42222718906845,213.9594445400278 L295.06903714702815,211.5283627263609 z"/>
	<path id="bursa-yenisehir" title="Yenişehir" class="district" d="M557.5096031733218,199.16298870481177 L557.2250555016776,200.22669545126283 L557.2723508912428,201.47607368526718 L558.0802491851194,204.02862282724007 L559.2680612640244,205.51746522276196 L562.2375914612867,206.26188642052293 L563.2362219819322,206.71391840657589 L564.779912483956,207.9901929775624 L565.5878107778326,209.1068247742038 L566.5383705746576,211.8450454037301 L566.6810320776076,213.86574117247753 L566.5856659642228,215.56715139253495 L565.9684998971156,217.88023637299028 L566.0871260381552,222.42658494672852 L565.7382256233328,224.90798893926504 L564.3286679474525,227.42496550651975 L564.1860064445024,228.38195452881627 L564.3759633370166,230.66901079606313 L563.4975096259205,232.92830310255445 L563.0454897551633,234.86917748412944 L563.0454897551633,236.25216977927022 L562.7369067216098,240.05409715524766 L562.4515837157097,241.59586460095997 L561.7150161733089,242.84524283496418 L558.982738258125,246.59424516075111 L557.7476307896559,247.68398062041044 L554.2314899425063,250.02396193784787 L552.401701100328,253.05457177908215 L551.689168919837,254.7030569489493 L551.0952628803835,258.42516293775384 L550.9285660155246,261.56249050314284 L550.619982981971,263.37061844735456 L549.4554309307214,266.00298897650003 L547.9109650944428,268.42192405733624 L547.0325113833468,269.43270575359696 L545.8206639425313,270.2829770517388 L543.8962843212246,270.9744731993093 L542.7790276595396,271.1341159736544 L537.267176439608,269.96455912682234 L535.3187614563916,269.9376627898405 L532.5391881516433,270.89465181213683 L530.4008162759123,273.07499035522915 L529.3789257276117,274.5109077005603 L528.5718027679903,276.0795714832551 L527.9538613666278,278.15319230219274 L526.9560061802371,280.12096302074997 L526.0767771348862,282.566794438568 L525.9341156319363,283.9549924763507 L521.8612847895818,284.3003067382492 L517.7527885714894,285.469863585081 L514.1187969175553,286.6923454821035 L509.01244551307263,287.5426167802453 L507.2547627566257,287.46366301684645 L504.2387125040531,287.091452417966 L502.26703749318204,286.6923454821035 L500.29613781656593,285.9748206213244 L498.9896995966215,285.3102208107361 L498.2058366646545,284.5128745627846 L496.1868662642187,281.69570016985944 L494.99905418531324,279.6758720248856 L493.17081601164705,278.50631517805385 L490.272616565859,277.8955080414294 L488.0163938833438,277.9484330916199 L485.87879734186816,278.18789725313746 L483.4326177668395,278.8516294399524 L482.26884104984407,278.9314508271246 L478.9674677913735,277.97532942860215 L477.2338203968356,276.646129807425 L474.7876408218069,271.7293058823535 L473.4098718503874,270.3740775479683 L471.6762244558505,269.5229386260527 L469.6812894173233,268.965056539619 L466.759829943881,266.9721247316269 L464.0996581144281,265.53620738629564 L462.0093569625167,264.20787538889215 L461.2495293924601,263.41052914094087 L457.9008607444243,258.1214946169889 L456.76034405508506,256.57972717127666 L455.7872995648587,255.70255953615248 L454.62274751360894,255.19760249990904 L452.2478986900539,254.79936318782046 L446.6189719975941,254.61282407649338 L444.813993851582,254.7455705138561 L442.7477280615806,255.2774238870817 L440.7287576611443,256.3142342965508 L438.91370016981506,258.1952426377461 L438.4252395890645,258.4138838286967 L435.5751108670965,258.09459828000695 L433.41347896371127,257.21743064488305 L431.8224930721234,255.88909864747956 L428.3784583107029,252.11493523225786 L426.787472419115,249.9354643129393 L425.95631409758363,248.50041459138157 L425.71828648125,247.30396140756767 L425.8849833461089,245.04466910107635 L426.5975155266009,243.47687294215552 L428.1412060286245,241.829255396062 L429.8035226716872,239.1118577371025 L430.30206259775485,237.19787969250976 L430.19584180479717,234.8657069890349 L429.4298115606994,232.7530431002843 L427.8085876331609,230.34104900963698 L426.4905193993892,228.70644582014785 L424.4242536093879,227.29135144538316 L419.8459048326686,225.69665894948028 L417.69047560332405,224.79953596756326 L414.00376122003996,223.64299347733555 L412.3290392288937,222.94542396334975 L411.24279593741505,222.26780979615705 L408.78421101430314,219.477531740214 L406.6109490970901,217.40391092127606 L403.58404416494596,214.89040484911584 L405.0207385397571,214.78368712496123 L410.3116194969681,215.66779575027405 L413.1121268266059,215.98881654651137 L414.62092728714657,215.96192020952927 L415.88937412858763,215.42659634120932 L417.110525580465,214.5424877158965 L419.79163143480804,214.03319256078507 L421.9222499679863,213.63148275360172 L424.7235326318795,212.2380789731773 L425.68107043700195,211.43465935881062 L427.64421677106697,211.00605321464528 L430.3493579873191,211.2203562867279 L432.2171382079993,211.03294955162715 L436.28686771333355,210.25555865046897 L438.39345088460277,209.29162863798356 L441.7211855077493,207.20152296734707 L443.4447535569695,205.9157045348509 L445.1923569680991,205.1391812574662 L447.10820791259994,204.89798184840149 L450.38787181192595,204.81729283745534 L453.14108375199856,205.46020205370345 L455.72682349295644,205.7820904737143 L458.28775253775,206.26448929184377 L461.59222713324135,206.7468881099732 L467.1940171267709,206.82670949714577 L468.7741483387868,206.558613751099 L472.17321371340756,205.70140146276822 L473.58587272630865,205.67450512578617 L480.0257990496665,205.21987026841225 L484.07226852734595,205.29969165558484 L487.8062783001958,204.60298976537266 L489.7221292446951,204.12145857101677 L491.2541897328914,204.44247936725404 L492.8816163344715,205.1391812574662 L496.5210353281924,207.04101256922846 L499.39364874355977,207.71081812245865 L503.6075904203537,208.19321694058812 L506.4080977499905,208.03270654246938 L510.9329484631038,207.52341138735792 L514.8592411312333,208.13942426662396 L515.9129203839954,208.05960287945152 L516.8464228272078,207.57720406132208 L519.7430716044853,205.4870983906856 L522.5683896302869,203.9071554989341 L523.7174349964348,203.5045780679771 L529.1517527908494,202.80874380153858 L530.5884471656607,203.18355727173991 L532.455452052086,204.0407695600707 L539.5900778680674,202.62046944266424 L544.4258376174992,202.05824923736233 L546.0059688295145,202.0851455743443 L547.7776076025551,201.7363608173514 L551.1766729771765,200.2631356497546 L555.0789302833954,198.97731721725833 L557.5096031733218,199.16298870481177 z"/>
	<path id="bursa-yildirim" title="Yıldırım" class="district" d="M356.37859337379365,262.2843534827896 L356.35455801188357,262.95329141224636 L357.8718871492313,263.46085131981044 L359.6644599471612,266.4289922493447 L361.5244868252892,266.4697705667044 L362.08195215474956,266.808143838414 L364.2327293785632,269.32164991057414 L364.61496916635645,271.26512716346986 L364.4878143485104,273.4584800631667 L364.4878143485104,276.810110700638 L364.9817022690472,279.0919612252434 L364.9972089541502,280.85670798077456 L364.37616621576694,283.8161726725725 L363.7551234773847,284.8686003099664 L363.0433666311476,286.9960138028685 L362.8735684292674,288.89784511463074 L363.06430065603735,290.44308305543757 L362.89450245415657,291.1085504897995 L361.68343034759744,292.5106305079601 L360.34520342319087,293.7469943853602 L359.7931654335174,295.4588160907009 L357.557876775892,298.68117078590404 L356.9903321011146,297.89336839946236 L355.0791331621457,293.7383181476243 L353.719196878595,290.11945938787954 L353.1950709221072,287.57645410741634 L351.54128295585105,285.86463240207553 L350.2387214071828,284.9848618956307 L347.67469102536904,284.4070244624036 L343.3126605058395,284.1753689148486 L341.2037513318048,283.50469573784505 L339.13593487329376,283.22705613028864 L335.1452894619855,283.04138464273495 L328.50842823781767,282.62492523140014 L327.1849326642597,282.48610542762196 L324.8077578379392,282.6023670132864 L321.91265972917296,282.97197474084595 L321.1481801535849,282.71776097517704 L320.83804645152117,281.352988779282 L319.98983077637627,280.1495946052789 L318.21198932929497,276.44744396326735 L316.90942778062623,274.2957370047043 L316.35118711691115,272.2134399480302 L317.318028933095,269.9810439785211 L318.88808079979367,269.21319693887244 L320.3302025143911,267.6644885029713 L320.9814832887254,267.35214394447024 L322.1328546576382,266.0897513538614 L323.1911859159311,264.59310034437704 L324.47048743694467,262.0943438763684 L325.28458840486286,258.3071661045424 L325.98238923450714,250.4595090722023 L327.3663608799673,250.56362392503604 L328.1106817649204,249.89989173822116 L328.25024193084903,249.02792984573875 L328.9247827328381,247.8748578506055 L331.9020662726522,247.64406992682441 L333.33953598171865,247.04020378038882 L334.9824692684026,248.15249745816214 L339.4104031996206,249.86258391595572 L341.70461726063803,251.0928744269405 L342.7567458448904,251.37311690581805 L344.03527203164913,252.36307563151186 L346.1860492554618,253.17864197870915 L351.1086464414718,253.2853597028636 L351.5032915773483,254.2345401111974 L352.6383809269027,254.4618575398845 L353.7734702764567,255.42491992859618 L354.57361522778154,256.68210677656305 L354.5139144901342,257.5774945109331 L353.37882514058026,258.15272907283907 L353.61840342542456,259.32922690985976 L354.2154108018978,260.3053036551758 L354.1200446885131,261.53559416616065 L354.35884763910263,262.52468526808104 L356.37859337379365,262.2843534827896 z"/>
	
</g></g></svg>