<svg xmlns="http://www.w3.org/2000/svg" version="1.2" baseProfile="tiny" width="600" height="600" stroke-linecap="round" stroke-linejoin="round"><rect id="backgroundrect" width="100%" height="100%" x="0" y="0" fill="none" stroke="none" class="" style=""/>































































































































































































































































































































































































































































































































































































































<g class="currentLayer" style=""><title>Layer 1</title><g class="city city-18" id="cankiri" title="Çankırı">
	<path id="cankiri-sabanozu" title="Şabanözü" class="district" d="M301.9315928148346,332.4620201703109 L305.0822606279345,334.43118755349826 L309.16137749681815,337.4410732640897 L312.8751737199518,340.56411927226725 L315.8859504565083,343.5748960088239 L317.03893805553275,344.4186975979093 L318.44586805465156,346.44399961690704 L318.4743808855398,348.10398099015515 L319.1774003721165,351.1708923625222 L320.78124710955467,354.2939383706996 L322.41271565191465,356.71307386633487 L324.60731260430845,361.5807487144584 L324.88887680932555,362.84689661106904 L326.01424260342725,365.82916051673794 L327.3365251358488,368.3605652839938 L328.6588076682693,370.3021108622587 L330.12187230319864,373.2843747679277 L330.1494941081215,378.1796714209738 L329.6148785289754,381.9496022799179 L328.4333780990627,385.1011611189829 L328.03954462242547,386.7041168304555 L327.7339227163471,389.05375230080176 L326.0881977585427,393.674612956553 L324.96996017216276,395.2151968504585 L324.48435102110506,399.14016622735477 L322.12135016128013,402.9804881375529 L321.5056512192969,404.1753539569441 L319.3377850458606,403.658558897103 L314.64564231288983,402.96088556631753 L310.6511729107044,402.5055712980782 L306.4152354719383,402.2373724825401 L300.1147908717034,402.4253789612063 L293.8945386083413,402.3442955983693 L291.61529418924874,402.5590328559929 L287.43281830839743,405.1332068695805 L286.22636915145813,407.4917525995792 L284.778451957938,412.8004853004981 L284.51114416836475,414.24840249401836 L280.1941233667619,420.1737251628855 L277.6475711580971,423.5516045971225 L274.6448136552272,424.5433164964382 L266.1996695566523,427.14422128898303 L262.8752516803299,428.02901007246953 L261.10567411335677,428.2437473300932 L258.79969891530726,428.2704781090505 L257.9416409107784,428.05574085142683 L256.413531380386,426.76909935761563 L255.01907574478082,423.95345730744714 L251.29280515813355,418.6179938275709 L247.45872042969222,412.6124788218318 L246.03753401512904,410.03919583420947 L244.42923214786492,405.6954442536489 L243.062398317182,400.7627245100625 L241.8826799392001,398.51110189589303 L239.8449035566888,395.85673554543365 L237.67347327939137,393.38948464767515 L236.57394723828122,392.5323176691112 L233.86611932990695,391.00420813871915 L232.33800979951508,389.7701371768573 L229.52236774934664,385.96367425333835 L228.12880313970635,383.57750671841717 L224.21452607439323,378.5637036119937 L219.5491141203794,373.7379069842365 L217.83299811132116,371.56647670693894 L216.7343630961759,370.4402198868715 L215.7087922101813,370.1764762011595 L218.429985508034,368.3534370762719 L222.61780754467674,366.9732378561102 L224.35976330672753,366.65870569037935 L231.5485607943093,366.36823122571013 L235.97695984156832,365.59392966191376 L238.9538775914462,364.50509593238655 L241.25361560773837,363.07678131010164 L241.97980176941144,362.1572425139708 L242.1009813006845,361.0194023563553 L241.37479513901144,357.7769588688352 L241.0602629732811,355.3560413212695 L240.4793140439424,354.7029192887462 L238.34887096104575,353.10530973306516 L236.3164407343258,350.3948087467953 L234.76694658076843,348.60384655665655 L233.7752346814524,346.6435894331215 L234.30717718270273,345.4335761723213 L235.1064274735259,344.85262724298263 L237.719806629584,344.1264410813095 L240.18883957927324,344.3197937157673 L242.99646239575407,346.2559931382407 L246.14267507902747,347.36977559479465 L247.8365154389553,347.5390705281909 L251.6126834796558,346.83694206757934 L253.88747276892184,346.08669820484454 L258.5101154766036,344.0052615500364 L262.3825143215505,341.9238248952283 L265.69802193821994,337.73689388455057 L266.85991979689743,336.86547049054275 L271.7008638660635,334.759976134673 L273.5399414583257,333.7914309104537 L278.21159059409575,331.68593655458403 L280.60755941463486,330.45186559272224 L283.24499627175476,328.9023714391643 L285.9073818559008,326.3371076852291 L287.6742863449782,322.80329870707465 L287.95406849806506,321.76525345756636 L289.9464025563486,321.939894546754 L291.94319174445855,322.4745101258999 L295.37631478854047,323.7967926583208 L297.5138860791588,325.7374472106204 L299.90539976987196,330.0143718437878 L301.9315928148346,332.4620201703109 z"/>
	<path id="cankiri-merkez" title="Merkez" class="district" d="M597.7192453148614,372.292662868612 L591.9756919429035,374.1798558629972 L590.4511465163727,374.4658751978402 L588.654838170441,373.36724018269535 L587.0394080954558,373.10973367874004 L583.4120413909517,374.2172789535374 L581.6148420190552,374.1246122531521 L580.7166878460905,372.62056042382153 L579.6216169348063,371.53618182412066 L576.7061799765304,370.0339120467206 L575.3705320546309,369.56077725917646 L570.2881199488851,368.3115588559055 L567.3165483547975,368.053161325985 L564.0856882048258,367.57913551247555 L557.323692154595,367.3207379825551 L555.471249172855,366.9759109340059 L550.8628628806176,367.0195712063029 L549.2260481824657,367.14876997126316 L541.4295709865878,367.36350722888676 L535.7875945746672,368.95755268070684 L533.6339848166747,369.34514897558756 L531.0500095174697,369.5171169868795 L527.5607518375778,369.38791822191934 L525.277943314624,369.0439821993354 L521.8376920628195,368.90409112279224 L515.1184652589208,368.8711231620782 L511.8555281742008,369.1945655874615 L509.59410427441367,369.5821618823423 L506.8488532754992,370.26023264189234 L505.00710260534083,370.51863017181284 L502.7777556403031,371.10047012711675 L499.2243440909135,372.9413297713091 L493.9592716622906,375.4290742662681 L490.7934564077815,377.9488956959758 L488.91962880287576,380.4687171256836 L488.20948110857637,383.1177373203516 L488.24155804332577,386.4769052093185 L488.8554749333782,390.77343241372114 L489.9211419878087,393.9392476682302 L490.3372511135768,396.9999218588406 L490.79702051164304,402.91187913822915 L490.94314876994326,406.83684851512544 L490.84602693973136,408.6777081593179 L490.5065460469734,410.6887537628717 L490.57961017612297,413.8385305500064 L491.1605591054623,417.0123650382027 L491.13650140440006,417.9577435873257 L490.5288216961038,420.6138919897157 L487.5510129202611,421.10573832252993 L482.0854596494603,422.22130283101444 L476.3080472908223,423.5257648441305 L475.34039309256946,423.99533552781355 L474.3326427258793,425.09664362085425 L473.26519361951694,425.649079719305 L466.2394538835755,426.2852722584886 L462.99611937009024,426.3173491932374 L460.13414396972814,428.09049086407134 L458.01172012052007,428.53778589862344 L456.11650789244686,428.9360745050871 L452.7858528343687,428.9708245177316 L444.6053434474699,429.69790170537 L443.3579070961303,429.1169527760315 L441.15083578022194,428.47184997719546 L439.5131300561052,428.30701017362543 L438.68982206421975,428.9120168040255 L437.6170268020681,428.89419628472075 L433.2768393253689,427.81872794467216 L431.26044756602363,427.4542983248877 L425.54986215477896,426.73969550076265 L423.8987910411847,426.6550480340645 L422.2209891486316,427.64586890741487 L421.00028357624785,427.924760034536 L416.9826474989666,427.5353816877248 L415.41355077417194,427.75635612710505 L411.6525301748822,429.83066457419136 L406.546951394038,427.0462084328064 L403.07996936327646,425.5804707199813 L400.2554170534551,425.0440730889049 L397.53867888543033,424.15037404576594 L394.4289982667297,423.9356367881423 L392.24776670381544,423.54269433747004 L387.5297842178527,421.4692769163492 L385.20598850049777,421.1119755042866 L381.2382498772708,420.8615972080533 L378.87881312130696,420.82595616944354 L374.62505516323483,421.2188986201158 L369.7992585354785,422.6489952943311 L366.54612273637537,422.68463633294084 L360.29022943440333,422.07695662464494 L354.99931725278844,420.7546740922241 L352.8563998063792,419.94829559367895 L353.1700409461447,417.80448712130396 L354.6794389312662,409.8797021864309 L354.9814967334835,406.8234831256467 L354.9057595264382,404.937181157227 L354.3016439220036,401.72948768235153 L354.3016439220036,400.5221474994469 L355.8110419071252,398.89869819077387 L356.9809589994897,398.3328967028444 L361.54746707136087,395.61615853481794 L363.0568650564834,394.21992084728186 L364.33994244643293,391.99324696013906 L365.69786601746387,390.44642588447687 L367.32042430017134,388.93702789935503 L375.09462584691886,384.7108917462065 L377.712460132803,383.11595526842115 L380.9949997887587,380.3707042695069 L382.5231093191511,379.3807744221217 L383.8248982543715,378.8996204008904 L386.343828658114,377.6254532705925 L387.2500020647668,376.91797865418954 L388.1125151991217,375.2579972809415 L388.79236801060256,374.50329828838045 L391.9617473689733,372.5029449964095 L394.905697158136,371.3330279040452 L396.22619763862616,370.5034827304037 L398.377134318723,368.3525460503066 L398.90551271611224,367.37152646257385 L398.82977550906696,366.31476966779553 L397.58412120965613,364.20125607823866 L396.6414157384295,363.10707619292003 L395.3957614390196,361.14503701745446 L394.905697158136,359.4093184371608 L390.0371312840465,355.82382995302214 L387.9245087204553,355.14486816750684 L384.75423833611967,354.4659063819915 L382.2263976727252,353.78605357051094 L379.5845056857788,352.8050339827781 L376.79203031070676,350.3146164099234 L374.07529214268004,347.2200832326339 L372.7164775456842,345.8995827521435 L369.77341878248643,343.9375435766779 L368.1508604997789,342.1260877893385 L367.84880269756064,340.5409525971709 L367.69821930943493,338.1636953219021 L368.0751232927326,336.4279767416083 L370.60385498209297,331.5977249840249 L371.6222976603659,329.2962049158018 L371.96177855312294,326.4663064501894 L372.07493885070994,323.29603606585414 L371.6606117768715,319.8620219958069 L370.864925589909,316.16159116215186 L370.151213791749,312.805987377046 L369.4713609802682,307.4099341315332 L369.4713609802682,301.7492461743432 L370.5655408655874,296.7300969121284 L371.43429118169956,294.6174743485367 L372.4901569505122,292.6928582636114 L374.2641896473123,288.4667221104629 L376.1504916157315,285.14586833800155 L376.9809278153381,282.95661754139905 L378.3014282958283,280.2024562828323 L382.9427825487809,274.16486434234446 L384.6410780385337,269.6740934775188 L384.90571275021125,266.8816181024466 L384.71681524558,265.0327392245669 L383.7357956578467,260.9571864595446 L383.7357956578467,260.01358996235206 L385.13203334538326,256.9947939921081 L386.5656941234595,255.0701779071828 L388.86721419168197,252.5423372437878 L392.4527026758209,253.14645284822276 L397.58412120965613,254.2780558240816 L405.9241242443326,254.9953317261024 L408.75402270994533,254.61753671683925 L410.41489510915846,254.2406327335414 L412.1880367799937,253.37277344339452 L413.4711141699432,252.99497843413144 L415.6594739405807,252.69292063191403 L419.432968903385,252.65549754137376 L420.64209113822005,252.4603628549855 L420.66436678735147,254.58635080805578 L420.0005524432458,255.25016515216197 L419.1433854646813,256.8272811106424 L419.11576365975844,258.1825316037773 L418.67292375503234,259.15018580203144 L419.19862907452494,261.3349814688077 L421.10720669207757,263.65877718616196 L422.9605406997826,266.4245217822768 L425.2558235862498,269.30164462404707 L425.9481507612442,270.4635424827243 L425.97577256616603,271.98452380539436 L424.45390021753093,278.2635837824631 L424.3157911929178,279.5359688608304 L424.5091438273746,282.2188480421777 L424.78625290256673,283.0483932158191 L425.67104168605204,283.60172034023515 L429.6539277506903,284.9017272235249 L431.6177489780856,285.75889420208887 L432.945377666298,286.6445740115406 L434.21776274466475,288.4970169932812 L434.2730063545104,290.0465111468392 L434.9091988936943,296.82276361251354 L435.40728240826604,297.9570396662682 L436.6796674866318,299.6446428444388 L440.1644700366983,303.32279802896267 L441.52061155579844,303.9589905681464 L445.50349762043567,303.57228529923077 L447.16258796771797,302.9084709551246 L448.54546026577606,301.0275151424962 L450.78639056836255,299.8379954788966 L453.60737877432325,299.8656172838191 L455.2397383426477,300.22559177377735 L459.9693041661591,301.96754753582786 L463.56548496188077,304.0694777878365 L470.12076298817544,308.3847165375093 L473.6884309530084,312.56184626256936 L477.1465027241169,315.71429612759977 L479.5522728302734,318.5637971644475 L482.20753020669827,322.1314651292812 L482.92658816064954,323.4590938174937 L488.3484811591544,327.52573632286357 L493.1609123974333,330.48483355343615 L498.11234368628925,332.72576385602287 L501.6800116511232,334.1362579590028 L505.884763181106,335.18677757202454 L509.4800529508627,335.46388664721525 L515.621003903318,334.96580313264417 L519.7696207974902,334.16387976392537 L523.3658015932118,333.3343345902839 L525.5505972599877,332.61527663633274 L529.7277269850487,330.0981282845206 L534.4296710036373,326.00386397422824 L538.1363390190483,321.6895162505207 L540.8744618102405,319.89142585265984 L542.9487702573261,318.2590662843344 L549.3935610639314,316.1018924224806 L554.0402614726744,314.2485584147747 L556.3088135801837,312.2294935775336 L557.359333193206,310.9571084991664 L558.3002566125008,309.2695053209958 L563.6660149751962,306.36565170026824 L568.3403371888619,303.5446634943082 L570.3594020261038,301.93992573090526 L570.9403509554421,300.80564967715065 L572.655575938535,298.34463596114904 L573.6793647726003,297.5694433713874 L576.9975454671649,296.26587238423656 L580.1820722669439,298.54422577736347 L581.4446560596938,299.6963223504229 L582.460425660071,302.0575411583174 L582.652887268564,304.5550869388941 L582.6252654636411,307.053523745436 L582.295585856501,309.7711529394277 L581.8563100556365,311.58260872676703 L581.2798162561237,312.2963205249269 L578.4249690634848,314.4650777243288 L577.6292828765223,315.42560371486104 L575.2689550945936,318.99416270565996 L575.0764934861007,319.57065650517234 L575.1041152910225,323.9901452927786 L572.8533837028192,327.09180667779015 L572.3864860970318,329.0128586588545 L572.2768899033065,330.71471825246897 L572.5513259006019,332.71863564830085 L573.4022556974091,336.14997664045245 L574.7200831000036,337.4954258479696 L577.5196866827979,338.9228494442892 L580.9234058700267,340.1025678222713 L585.7402922381311,341.1272476823009 L586.5457797107115,342.04233134860567 L586.6188438398611,344.8971785412449 L586.3987604264464,346.40568550040155 L585.4293241762618,348.5432567910201 L583.5243106625718,350.3511484744985 L583.547477337668,351.5745271247774 L583.9279454248274,352.51812362196995 L584.9597534925778,353.541021430069 L590.0466207281521,357.55776648138533 L593.2979744753245,359.77285703098 L594.632731371258,361.1414729135935 L595.5264304143974,363.23003777612354 L597.8404248461344,365.1252500041958 L598.7376879931332,366.1223080593029 L598.9292585756602,367.9266356389204 L597.4038221231635,369.80759145154883 L597.0385014774146,370.83405336350904 L597.7192453148614,372.292662868612 z"/>
	<path id="cankiri-atkaracalar" title="Atkaracalar" class="district" d="M226.75573212726664,208.243199329792 L226.49555254541553,210.1259371943509 L226.7851359841198,214.58463112442786 L226.5819820640441,217.85647846880087 L226.81364881500747,224.2255320683592 L227.48013623700888,229.40863010817878 L227.7697196757136,232.7669069711804 L227.1326361105643,238.87578098888773 L226.90096935960094,242.2349488778546 L227.74031581885998,254.59793414560394 L227.68239913111915,256.0743641700119 L229.56424596971283,260.62037864468266 L230.37507959808414,263.05198850383135 L230.54882966130668,264.4125851527577 L230.02757947163963,266.90300272561245 L228.72489951045384,268.6690161887244 L226.4376358576742,269.42193312935495 L225.0191225210072,270.1169333822446 L223.31013471967066,271.8829468453566 L220.6236914344629,275.9121662601864 L218.17604310793973,273.408383297853 L216.7406002779332,272.45142141118174 L214.65916362312493,271.55148518628613 L210.63529036408687,270.7353054021234 L206.7816030644098,270.81995286882153 L201.43544727295074,270.7353054021234 L198.4531833672815,270.81995286882153 L194.90868207754386,270.25682445878783 L193.61936750583703,268.09074033728166 L190.73066132651905,265.2394572485034 L188.25539119507354,263.4012706822067 L184.87929381276706,261.11311600346215 L180.1149779766116,257.43763389683403 L174.9381171185486,253.6106773761145 L171.44975046462153,251.24767651628952 L170.02410892023187,249.74718879081996 L169.19901887641672,247.87157913398306 L168.86132003559,245.24572561441136 L168.71073664746433,242.61987209483965 L168.97358930721063,239.8060120966017 L169.836102441566,235.26712582965285 L171.03720544271394,231.028515312991 L173.43762939307905,226.75248170578888 L174.11302707473342,225.17625677327374 L174.37498870851482,223.30064711643672 L174.6004182777209,218.08725419379886 L174.52557209664053,216.77388192103035 L175.6509378907432,209.00859063393597 L175.87547643398437,208.1835005901208 L178.42648377247568,203.57422327191767 L183.235350906893,203.50917837645488 L184.24666537744426,203.34522959885018 L186.32275587646066,202.33213307636873 L187.47485244952026,202.02027398853357 L194.13883564357434,201.27983141141644 L196.2746248822619,201.2245878015714 L200.26998531041266,201.80019057511856 L202.04134492931558,202.2127355970261 L203.69865322466865,203.78183232181937 L205.45575642812815,204.47683257470905 L208.8487833037737,204.9936276345501 L215.76225376809612,207.55443625865902 L224.1869042694704,207.72907734784673 L226.75573212726664,208.243199329792 z"/>
	<path id="cankiri-bayramoren" title="Bayramören" class="district" d="M199.1570938798236,156.36499455543762 L203.5979672905957,157.57233473834214 L206.82882744056735,158.8571941802228 L208.98511027645657,159.38379052568155 L210.8981430238332,159.10935452838663 L212.4075410089552,158.473161989203 L215.27575359107357,156.8399113949122 L216.9134593151898,155.6993981594009 L219.5072359000132,154.54997466423725 L224.38471203375417,153.90398083943586 L226.18012935371928,153.34976268905461 L229.8965986547487,151.93481345624843 L233.02855492257868,151.22912089177584 L234.74645298356728,151.27634526793372 L236.59889596530786,151.6389928357877 L238.53598641374623,152.25558280373602 L242.06623128804,153.79082054185002 L243.45890487171545,154.54106440458477 L244.6947578855079,156.03531494829764 L247.70820769996004,157.50283471305312 L250.279708635652,158.31901449721587 L254.830178240149,158.64958513032113 L257.7090831338496,159.42834182394373 L258.4842757236115,159.89167532587015 L259.8600198139469,161.32266302605075 L260.9907317638405,161.73342599602782 L265.52694495289313,162.43644548260474 L273.62904405484994,164.77806171926383 L277.76696863743933,166.32131869106507 L279.18280889621064,167.10274846258332 L279.06341141686784,168.6076913178791 L279.65683470972016,169.91037127906463 L284.7098429586144,175.554129742915 L285.966189569607,176.66702117350377 L286.99443353349784,177.1766880256229 L287.4550939575284,178.27621406673296 L286.23438838514517,179.99767623158277 L283.9373234467487,182.32503605279805 L282.36198954019824,183.6954339873421 L277.88369303888646,187.0617300840309 L278.0030905182287,191.363603444225 L278.4958278770081,193.50652089063482 L279.1614242730451,197.58920186337923 L278.2062444383039,201.20765830823177 L277.62707756089594,202.3080753753071 L276.46874380607954,203.37908858552947 L273.776063339115,204.04557600753137 L268.73820253163007,204.91432632364348 L261.8470077164396,206.8826026808657 L258.80682712302945,207.89659022931247 L252.92961985628546,209.11194964590413 L248.6152721325778,209.57528314783065 L245.74884160239026,209.54677031694285 L243.51949463735144,209.34361639686733 L237.52645399512625,207.5196862460146 L230.37507959808414,207.54909010286758 L226.75573212726664,208.243199329792 L224.1869042694704,207.72907734784673 L215.76225376809612,207.55443625865902 L208.8487833037737,204.9936276345501 L205.45575642812815,204.47683257470905 L203.69865322466865,203.78183232181937 L202.04134492931558,202.2127355970261 L200.26998531041266,201.80019057511856 L196.2746248822619,201.2245878015714 L194.13883564357434,201.27983141141644 L187.47485244952026,202.02027398853357 L186.32275587646066,202.33213307636873 L184.24666537744426,203.34522959885018 L183.235350906893,203.50917837645488 L178.42648377247568,203.57422327191767 L180.376939610393,199.74370264733722 L180.7903756582655,197.64266342129383 L180.80374104774447,193.80679664092182 L181.73219010352776,191.89376389354467 L182.8575558976299,190.76839809944252 L183.4206843076637,189.7838144078488 L183.6452228509049,187.5045699887567 L182.9707161952159,185.62005007226736 L181.28222199107998,182.49700406409 L180.04726000325292,181.24511258292324 L181.1200552654061,180.2801314625649 L182.79963920988908,177.6712074363328 L184.94433870822957,172.02299384265626 L185.83803775136838,170.87891650328402 L187.05339716796018,169.87829434431583 L191.70098860266904,167.41104344655744 L194.30991262890117,164.98032461337408 L196.20512485697287,162.76434303781426 L197.38484323495527,160.97694495153638 L198.06380502047023,158.86788649180576 L199.1570938798236,156.36499455543762 z"/>
	<path id="cankiri-eldivan" title="Eldivan" class="district" d="M370.864925589909,316.16159116215186 L371.6606117768715,319.8620219958069 L372.07493885070994,323.29603606585414 L371.96177855312294,326.4663064501894 L371.6222976603659,329.2962049158018 L370.60385498209297,331.5977249840249 L368.0751232927326,336.4279767416083 L367.69821930943493,338.1636953219021 L367.84880269756064,340.5409525971709 L368.1508604997789,342.1260877893385 L369.77341878248643,343.9375435766779 L372.7164775456842,345.8995827521435 L374.07529214268004,347.2200832326339 L376.79203031070676,350.3146164099234 L379.5845056857788,352.8050339827781 L382.2263976727252,353.78605357051094 L384.75423833611967,354.4659063819915 L387.9245087204553,355.14486816750684 L390.0371312840465,355.82382995302214 L394.905697158136,359.4093184371608 L395.3957614390196,361.14503701745446 L396.6414157384295,363.10707619292003 L397.58412120965613,364.20125607823866 L398.82977550906696,366.31476966779553 L398.90551271611224,367.37152646257385 L398.377134318723,368.3525460503066 L396.22619763862616,370.5034827304037 L394.905697158136,371.3330279040452 L391.9617473689733,372.5029449964095 L388.79236801060256,374.50329828838045 L388.1125151991217,375.2579972809415 L387.2500020647668,376.91797865418954 L386.343828658114,377.6254532705925 L383.8248982543715,378.8996204008904 L382.5231093191511,379.3807744221217 L380.9949997887587,380.3707042695069 L377.712460132803,383.11595526842115 L375.09462584691886,384.7108917462065 L367.32042430017134,388.93702789935503 L365.69786601746387,390.44642588447687 L364.33994244643293,391.99324696013906 L363.0568650564834,394.21992084728186 L361.54746707136087,395.61615853481794 L356.9809589994897,398.3328967028444 L355.8110419071252,398.89869819077387 L354.3016439220036,400.5221474994469 L354.3016439220036,401.72948768235153 L354.9057595264382,404.937181157227 L354.9814967334835,406.8234831256467 L354.6794389312662,409.8797021864309 L353.1700409461447,417.80448712130396 L352.8563998063792,419.94829559367895 L345.06170466243157,416.96514066204486 L339.69951040359786,415.17774257576696 L338.48415098700656,414.5344218288614 L337.05494533875583,413.13996619325576 L335.73177178037037,411.5316643259918 L328.8013718227084,407.59956674137356 L324.6990882787289,405.5083288009478 L321.5056512192969,404.1753539569441 L322.12135016128013,402.9804881375529 L324.48435102110506,399.14016622735477 L324.96996017216276,395.2151968504585 L326.0881977585427,393.674612956553 L327.7339227163471,389.05375230080176 L328.03954462242547,386.7041168304555 L328.4333780990627,385.1011611189829 L329.6148785289754,381.9496022799179 L330.1494941081215,378.1796714209738 L330.12187230319864,373.2843747679277 L328.6588076682693,370.3021108622587 L327.3365251358488,368.3605652839938 L326.01424260342725,365.82916051673794 L324.88887680932555,362.84689661106904 L324.60731260430845,361.5807487144584 L322.41271565191465,356.71307386633487 L320.78124710955467,354.2939383706996 L319.1774003721165,351.1708923625222 L318.4743808855398,348.10398099015515 L318.44586805465156,346.44399961690704 L317.03893805553275,344.4186975979093 L315.8859504565083,343.5748960088239 L312.8751737199518,340.56411927226725 L309.16137749681815,337.4410732640897 L305.0822606279345,334.43118755349826 L301.9315928148346,332.4620201703109 L306.22990207116754,330.9918273276596 L309.2816660021258,329.3835254603956 L313.7457060879943,326.5277872417912 L320.9665805103249,321.24311224193383 L323.7243058727529,319.96270792987934 L327.85955737744615,318.5842907616481 L331.4040586671838,317.63267503076844 L334.0628801474692,316.51711052228393 L337.96913797909525,314.18618659720767 L339.9053374015692,313.3655516832187 L344.0735568669767,312.2499871747342 L348.30771225381204,311.9871345149875 L349.687020448009,312.1840512533063 L352.8376882611084,313.52950046082344 L357.13688854340677,315.6964756082949 L360.9121655581429,316.7140272606027 L363.8659166329234,316.97598889438416 L368.65785427400164,316.6151233784607 L370.864925589909,316.16159116215186 z"/>
	<path id="cankiri-cerkes" title="Çerkeş" class="district" d="M178.42648377247568,203.57422327191767 L175.87547643398437,208.1835005901208 L175.6509378907432,209.00859063393597 L174.52557209664053,216.77388192103035 L174.6004182777209,218.08725419379886 L174.37498870851482,223.30064711643672 L174.11302707473342,225.17625677327374 L173.43762939307905,226.75248170578888 L171.03720544271394,231.028515312991 L169.836102441566,235.26712582965285 L168.97358930721063,239.8060120966017 L168.71073664746433,242.61987209483965 L168.86132003559,245.24572561441136 L169.19901887641672,247.87157913398306 L170.02410892023187,249.74718879081996 L171.44975046462153,251.24767651628952 L174.9381171185486,253.6106773761145 L180.1149779766116,257.43763389683403 L184.87929381276706,261.11311600346215 L188.25539119507354,263.4012706822067 L190.73066132651905,265.2394572485034 L193.61936750583703,268.09074033728166 L194.90868207754386,270.25682445878783 L193.68173932340437,273.28185761078845 L193.28077763904497,276.5831088120145 L192.66418767109684,278.4346607677898 L189.54826987064143,281.92035434382115 L185.44420427473113,285.9005673305626 L182.2053248910724,287.9677475699268 L176.06526496458108,290.37440870204864 L174.8623799115028,291.14514616198403 L170.29587183963164,293.5215124112875 L168.96913417738463,294.0454356788506 L166.59365895404613,294.5702499723788 L164.43381201429688,294.8170641647512 L157.30738634428144,295.1868399403271 L156.1347961740217,295.12535914872535 L152.40139737965228,294.4161024803917 L150.45806974945714,294.44639736321005 L145.79889497720012,294.10691647045235 L143.3619389622602,294.2619549884047 L142.37468219277068,294.63173076398056 L138.7339500987871,296.5447635113577 L136.8823981430119,297.007205987319 L132.16174257915344,297.40816767167837 L127.59612553324718,298.2412769491808 L126.23820196221675,299.5680146114279 L124.23339354041917,301.9434898347663 L122.07354660066991,303.42437498900046 L119.63569955976408,305.49155522836463 L117.53822443758216,307.92940226927 L115.47104419821773,309.78006319908013 L113.80482564321323,310.73702508575127 L112.56273544766398,311.97822425533514 L107.32528482396444,310.73346098189035 L105.57441880226168,310.1257812735945 L98.53174957297958,308.874780818393 L89.95295157961755,306.6944402814429 L83.51796205863164,304.335003525479 L80.40828143993303,303.0118299670928 L74.6531447304275,300.0090724642233 L71.14963063509066,298.8293540862412 L68.71891180190752,297.07848806453836 L66.18037882692977,294.7190513085745 L64.64335903688543,292.78819804189243 L63.28543546585449,290.28619713148953 L61.569319456795725,286.7826830361533 L60.3183190015945,283.85209863646844 L58.70912610836545,280.88498217220865 L56.457503494195734,278.63246853207386 L53.526028068545656,276.59469214956266 L49.48700736809836,273.95012708472086 L46.7346281614622,272.9129728611777 L42.51651124200099,272.19837003705277 L36.97522076415336,271.91235070220966 L28.789365221464166,271.76889552180546 L25.250210087517928,271.4828761869624 L22.748209177115484,271.05429269768047 L11.932044985028611,270.95806189343415 L9.312428647213181,271.408030005882 L7.777190909099133,271.3812992269247 L6.109190302164336,270.72015796071423 L5.55319009985223,269.1314586646856 L6.083350549171797,267.385047772809 L6.903094437195591,266.0877139674149 L7.162382993081792,265.13698926250044 L7.054568851286675,263.1544564898343 L7.19802403169119,259.364923059655 L7.126741954471882,256.46908867261465 L7.304947147520409,254.14618398122568 L8.663761744516236,253.43069013113535 L10.915384358685955,252.78736938422972 L13.882500822945431,251.6076510062478 L15.24131541994177,250.4635736668755 L15.991559282676548,249.2838552888935 L17.81459840756402,244.42241762252667 L18.7082974507028,243.52871857938777 L19.99493894451392,242.74283367804327 L22.676036073930277,242.09951293113767 L25.035472829894616,242.09951293113767 L26.894152993391984,241.84913463490432 L29.575250122808853,240.23994174167512 L32.2207062136158,239.56097995615977 L34.90180334303267,238.13088328194448 L36.59386165102919,236.68920327018097 L40.23993990080464,234.15156132116832 L43.81473607336028,233.00748398179604 L48.176308173226005,231.82776560381416 L50.392289748785316,231.43482315314185 L54.57476562963713,230.00472647892656 L56.576900973538514,228.82500810094456 L61.008864124658146,227.43055246533902 L63.19009568757345,226.85851379565287 L66.33541734488196,226.3942892677611 L67.69423194187777,226.00134681708892 L69.08779655151864,224.99983363215551 L70.69698944474717,223.24807658448748 L72.80604790447777,221.60413367861372 L74.95074740281828,219.63763937332203 L77.59620349362524,217.45729883637188 L81.49266003963342,213.31046399413003 L83.81556473102293,209.8078409247591 L84.67362273555233,207.9848017998715 L85.88898215214363,204.19526836969223 L87.17651467192016,198.18975336395314 L89.17775898985616,195.5086562345363 L92.5743499693638,194.11420059893072 L94.86161362214241,193.82818126408768 L97.8643711250123,193.7925402254779 L100.68892343483316,193.9359954058821 L107.50081693911727,195.04354068067937 L111.19857469487678,195.97377178839332 L116.34603169608667,196.0450538656127 L120.02775098447154,195.57993831175577 L132.86119796186907,194.25765577933487 L141.69037425146382,192.89884118233903 L145.15824730819074,192.2911614740432 L151.12812127531961,191.04016101884167 L153.20153869644082,190.5037633877653 L157.9551622210135,189.71787848642083 L162.3167343208787,188.35906388942493 L166.92779369101225,187.10806343422345 L179.08227888289483,181.81715125260936 L180.04726000325292,181.24511258292324 L181.28222199107998,182.49700406409 L182.9707161952159,185.62005007226736 L183.6452228509049,187.5045699887567 L183.4206843076637,189.7838144078488 L182.8575558976299,190.76839809944252 L181.73219010352776,191.89376389354467 L180.80374104774447,193.80679664092182 L180.7903756582655,197.64266342129383 L180.376939610393,199.74370264733722 L178.42648377247568,203.57422327191767 z"/>
	<path id="cankiri-ilgaz" title="Ilgaz" class="district" d="M342.0482548479789,159.72148936650868 L345.6863138640668,158.60859793591996 L347.8310133624073,158.31366834142446 L351.7185596487635,158.31366834142446 L357.80426699137405,160.1634382452693 L358.9572545903985,160.80675899217493 L362.1480185719348,163.3007406688906 L363.5683139605326,164.13117686849728 L367.48259102584575,165.44544016723097 L370.72681656529585,166.70535088208487 L372.60331724809816,167.16155617628937 L379.1184991059564,167.18828695524667 L382.0945258298694,166.08876091413654 L385.9553413372676,164.07771531058268 L389.97654151841147,162.97908029543783 L392.6309078688694,162.4159518854041 L394.400485435843,162.3892211064468 L396.7599221918069,162.06756073299405 L400.004147731257,161.31642584429403 L402.22903956647025,160.94130391292663 L404.80321358005745,160.8334897711322 L409.1728049136092,160.91457313396938 L414.0253323203235,160.56618198155923 L418.51521215918547,159.91216892307074 L420.2723153626445,159.46665594044916 L422.92668171310345,158.31366834142446 L425.15157354831575,157.91181563109978 L428.3156067508941,157.93854641005709 L431.3450950327209,158.15328366768068 L436.0639685446496,159.09153400908176 L438.55705919540003,159.76158553494463 L443.0077338917885,160.27125238706375 L448.50358204540885,159.49338671940646 L451.8547307006887,159.49338671940646 L456.94872614398525,161.15604117055025 L459.75100280467416,162.25556721166032 L462.87404881285227,163.32747144784787 L464.59016482191,164.1587986734198 L470.9975325379736,166.9200881397085 L472.47218051045115,168.4214668911432 L472.74037932598935,169.11824919596341 L472.3652573946224,170.61962794739824 L471.72193664771635,171.87953866225206 L471.61412250592275,175.4454245751553 L470.9975325379736,176.92007254763283 L469.44269222862533,179.27950930359677 L468.6113650030528,180.19102886604057 L463.2429335624619,183.48158775568368 L461.23188795890803,185.94883865344212 L459.67704764955965,192.67786674295868 L460.0254388019697,197.74513140729675 L460.74895188574646,200.96262616778995 L462.2503306371809,203.7506464130359 L462.89454241005194,205.70733943270994 L463.13511942066725,210.56075786538958 L462.51852945272014,215.17181723552312 L460.66875954887473,218.36258121705896 L458.92591276086,220.90913342572404 L458.04112397737276,221.82065298816784 L456.78121326251846,224.12662818621718 L453.26967993349615,229.27408518742715 L452.652198939581,230.61418823915287 L451.92868585580527,233.10816991586861 L452.41251295493066,235.1637668176847 L454.17674436611287,237.73704980530698 L457.6553097344221,240.07242886020938 L454.22575079420017,243.1464684402984 L450.5654161289829,245.67430910369336 L447.31940853760096,247.33518150290666 L444.11260608869054,248.65568198339702 L440.26337391883993,250.01360555442764 L434.4521025735238,251.4855804490095 L429.3197930137237,252.39175385566176 L425.81093276259696,252.5423372437878 L423.3953613708206,252.2777025321106 L420.64209113822005,252.4603628549855 L419.432968903385,252.65549754137376 L415.6594739405807,252.69292063191403 L413.4711141699432,252.99497843413144 L412.1880367799937,253.37277344339452 L410.41489510915846,254.2406327335414 L408.75402270994533,254.61753671683925 L405.9241242443326,254.9953317261024 L397.58412120965613,254.2780558240816 L392.4527026758209,253.14645284822276 L388.86721419168197,252.5423372437878 L385.94464902568484,250.65068911957655 L384.4851484946166,250.04033633338494 L376.8169790377339,247.8644509262611 L370.3418933483111,246.90927109152042 L367.5823859339533,246.2730785523368 L363.09785225088365,246.43168117415007 L360.5245692632614,246.7765082226992 L352.29861755213636,247.49289309875468 L349.37961649000033,247.9972137950824 L347.2037310828759,248.63429736023124 L344.5012493302935,250.76741352102346 L343.8249606226742,250.98660590847325 L341.6161072548361,250.63108654834124 L338.6427536088193,249.16356678358565 L334.5413610908052,247.35745715203774 L333.4872773739223,246.2285272540746 L332.71564888802203,244.09719314521294 L331.3889112257745,241.94714749108104 L329.8492183578345,237.06521622751364 L325.71040274927964,232.52722098652998 L320.08446480473424,229.18409156493755 L316.9533995628696,227.6185589440053 L312.5223274377154,224.6995578818686 L309.78865977634905,222.39090960592347 L308.38262080319515,220.74607567408452 L307.7989987959612,217.2692923577056 L308.09036428659573,211.2994183905762 L308.5679542039659,208.06232105884766 L309.2584993270295,206.01830749457977 L311.7792117827023,203.49759503890678 L314.618020507967,197.1027016863564 L315.7326939904864,195.16561123791763 L318.30686800407403,192.7776616510659 L319.18274652790836,191.53022529972546 L319.8456698460487,189.59313485128672 L319.89913140396357,186.17070411878768 L322.1008565640795,184.86980620953258 L324.4095048400247,182.79995289227264 L324.67503057766714,181.04908687056977 L324.0646777914753,176.80334814618593 L324.2990176203344,176.03082863432007 L325.846729721962,173.51546233443855 L326.97209551606414,172.0942759198757 L329.03660267753236,170.0030379794499 L331.93243706457304,166.035299356222 L333.0319631056827,164.93577331511187 L336.24856684021097,163.03254185335243 L339.81445275311415,160.56618198155923 L342.0482548479789,159.72148936650868 z"/>
	<path id="cankiri-kizilirmak" title="Kızılırmak" class="district" d="M458.01172012052007,428.53778589862344 L460.13414396972814,428.09049086407134 L462.99611937009024,426.3173491932374 L466.2394538835755,426.2852722584886 L473.26519361951694,425.649079719305 L474.3326427258793,425.09664362085425 L475.34039309256946,423.99533552781355 L476.3080472908223,423.5257648441305 L482.0854596494603,422.22130283101444 L487.5510129202611,421.10573832252993 L490.5288216961038,420.6138919897157 L491.13650140440006,417.9577435873257 L491.1605591054623,417.0123650382027 L490.57961017612297,413.8385305500064 L490.5065460469734,410.6887537628717 L490.84602693973136,408.6777081593179 L490.94314876994326,406.83684851512544 L490.79702051164304,402.91187913822915 L490.3372511135768,396.9999218588406 L489.9211419878087,393.9392476682302 L488.8554749333782,390.77343241372114 L488.24155804332577,386.4769052093185 L488.20948110857637,383.1177373203516 L488.91962880287576,380.4687171256836 L490.7934564077815,377.9488956959758 L493.9592716622906,375.4290742662681 L499.2243440909135,372.9413297713091 L502.7777556403031,371.10047012711675 L505.00710260534083,370.51863017181284 L506.8488532754992,370.26023264189234 L509.59410427441367,369.5821618823423 L511.8555281742008,369.1945655874615 L515.1184652589208,368.8711231620782 L521.8376920628195,368.90409112279224 L525.277943314624,369.0439821993354 L527.5607518375778,369.38791822191934 L531.0500095174697,369.5171169868795 L533.6339848166747,369.34514897558756 L535.7875945746672,368.95755268070684 L541.4295709865878,367.36350722888676 L549.2260481824657,367.14876997126316 L550.8628628806176,367.0195712063029 L555.471249172855,366.9759109340059 L557.323692154595,367.3207379825551 L564.0856882048258,367.57913551247555 L567.3165483547975,368.053161325985 L570.2881199488851,368.3115588559055 L575.3705320546309,369.56077725917646 L576.7061799765304,370.0339120467206 L579.6216169348063,371.53618182412066 L580.7166878460905,372.62056042382153 L581.6148420190552,374.1246122531521 L583.4120413909517,374.2172789535374 L587.0394080954558,373.10973367874004 L588.654838170441,373.36724018269535 L590.4511465163727,374.4658751978402 L590.5420311648262,376.09556168827 L591.2120826906892,377.40002370138603 L591.2628711707084,379.19544102135114 L590.0573130397339,381.8088201774093 L590.1366143506418,383.66126315914994 L591.54354434976,388.5235918514821 L592.3944741465683,389.7540987094829 L594.2228594272461,391.7838558583069 L595.6609753351489,392.70072157654215 L596.8594052584011,392.98674091138525 L598.0560531297226,394.46762606561947 L599.078950937822,401.50316708717963 L598.653040526435,402.8129752560872 L597.2924438775094,402.8468342427665 L595.9701613450893,402.5278469472094 L593.6980451337175,402.74525728272874 L589.2161845285456,404.6680913157234 L587.7005493616658,405.79702121368655 L584.4661251078326,408.8888813130805 L583.6437081419141,409.8298047323773 L582.8729706819786,413.07581232375827 L582.1628229876802,414.25909480560125 L580.2711748634687,416.1400506182296 L575.2484614973919,417.6503396293168 L571.6941589220374,419.9429494378876 L570.575030309692,420.7974433385558 L567.0857726298001,423.9071239572546 L564.3030985403449,426.65683008599507 L563.3078225371693,427.79467024361054 L559.2393979798688,431.60647932292096 L556.5369162272855,433.6264351861272 L554.6595245185182,434.7927881746307 L548.2877978410645,437.9496931694872 L536.5396204893328,444.2367723802433 L532.4720869579972,446.85371564016253 L530.6802337418932,448.53151753271544 L529.8836565289657,449.8404346756577 L528.0918033128617,454.6190069272569 L527.3299761125793,458.12430307452365 L525.5880203505285,457.8543222070551 L522.4676474202471,456.8144949056161 L519.7901143946918,455.2284686874832 L517.761248271832,453.30385260255804 L514.6150355885596,451.0941082087549 L513.5493685341281,450.6779990829862 L511.02687402652396,450.10596041330007 L505.9818850113178,449.6114410025902 L501.79584502660396,449.6372807555822 L497.375465213034,449.45551145867273 L491.3681681553634,450.23605020422565 L484.16600527830315,450.4178195011352 L478.21127875258253,450.9381786648373 L476.93711162228396,450.7296785889704 L474.7264762025161,449.3512614207392 L473.0629307254072,447.7652352026063 L471.9446931390278,446.2308884904575 L470.4878656858542,442.6427269284232 L469.7857372252429,438.56004595567885 L469.55228842234874,433.8278070542723 L468.1738712541181,432.1116910452139 L466.6920950739194,431.40956258460227 L462.47932431024867,430.2138057392458 L458.01172012052007,428.53778589862344 z"/>
	<path id="cankiri-korgun" title="Korgun" class="district" d="M301.9315928148346,332.4620201703109 L299.90539976987196,330.0143718437878 L297.5138860791588,325.7374472106204 L295.37631478854047,323.7967926583208 L291.94319174445855,322.4745101258999 L289.9464025563486,321.939894546754 L287.95406849806506,321.76525345756636 L285.8949074923877,321.29211867002215 L281.50571358759964,321.17984939840153 L279.901866850162,320.8982851933847 L274.4719546179701,319.4075987535328 L272.2773576655758,319.01376527689536 L266.96060573096986,315.7499371662095 L271.47008814106556,313.9661031837927 L272.5990180390283,313.32634654074803 L275.1954677017474,310.99274953777615 L277.5664877952594,309.1117937251477 L279.8617706817261,305.79985021233875 L280.57726453181584,304.5577600167898 L281.9316239989862,300.6069508869015 L282.6845409396167,299.40228378189266 L284.67865704983046,297.25758428355226 L287.7268568769276,294.3973909351216 L288.78094059381,292.51554409652806 L290.13530006098034,289.3550749978104 L291.5279736446553,287.3974909521711 L293.8989937381673,284.8767784964981 L295.8182636673012,283.67211139148935 L297.6243732988491,282.24201471727406 L304.9245490320866,276.8985320037106 L310.68235881948834,274.3769285220724 L314.89780266105333,271.8562160663993 L317.00507906885366,270.31295909459817 L321.67138204883236,266.28641275766415 L324.75700496646925,263.99112987119764 L326.45084532639703,262.2598664207301 L327.8052047935664,260.2648592845507 L329.9124812013662,256.5020566333286 L333.22442471417554,250.1802274099282 L334.5413610908052,247.35745715203774 L338.6427536088193,249.16356678358565 L341.6161072548361,250.63108654834124 L343.8249606226742,250.98660590847325 L344.5012493302935,250.76741352102346 L347.2037310828759,248.63429736023124 L349.37961649000033,247.9972137950824 L352.29861755213636,247.49289309875468 L360.5245692632614,246.7765082226992 L363.09785225088365,246.43168117415007 L367.5823859339533,246.2730785523368 L370.3418933483111,246.90927109152042 L376.8169790377339,247.8644509262611 L384.4851484946166,250.04033633338494 L385.94464902568484,250.65068911957655 L388.86721419168197,252.5423372437878 L386.5656941234595,255.0701779071828 L385.13203334538326,256.9947939921081 L383.7357956578467,260.01358996235206 L383.7357956578467,260.9571864595446 L384.71681524558,265.0327392245669 L384.90571275021125,266.8816181024466 L384.6410780385337,269.6740934775188 L382.9427825487809,274.16486434234446 L378.3014282958283,280.2024562828323 L376.9809278153381,282.95661754139905 L376.1504916157315,285.14586833800155 L374.2641896473123,288.4667221104629 L372.4901569505122,292.6928582636114 L371.43429118169956,294.6174743485367 L370.5655408655874,296.7300969121284 L369.4713609802682,301.7492461743432 L369.4713609802682,307.4099341315332 L370.151213791749,312.805987377046 L370.864925589909,316.16159116215186 L368.65785427400164,316.6151233784607 L363.8659166329234,316.97598889438416 L360.9121655581429,316.7140272606027 L357.13688854340677,315.6964756082949 L352.8376882611084,313.52950046082344 L349.687020448009,312.1840512533063 L348.30771225381204,311.9871345149875 L344.0735568669767,312.2499871747342 L339.9053374015692,313.3655516832187 L337.96913797909525,314.18618659720767 L334.0628801474692,316.51711052228393 L331.4040586671838,317.63267503076844 L327.85955737744615,318.5842907616481 L323.7243058727529,319.96270792987934 L320.9665805103249,321.24311224193383 L313.7457060879943,326.5277872417912 L309.2816660021258,329.3835254603956 L306.22990207116754,330.9918273276596 L301.9315928148346,332.4620201703109 z"/>
	<path id="cankiri-kursunlu" title="Kurşunlu" class="district" d="M220.6236914344629,275.9121662601864 L223.31013471967066,271.8829468453566 L225.0191225210072,270.1169333822446 L226.4376358576742,269.42193312935495 L228.72489951045384,268.6690161887244 L230.02757947163963,266.90300272561245 L230.54882966130668,264.4125851527577 L230.37507959808414,263.05198850383135 L229.56424596971283,260.62037864468266 L227.68239913111915,256.0743641700119 L227.74031581885998,254.59793414560394 L226.90096935960094,242.2349488778546 L227.1326361105643,238.87578098888773 L227.7697196757136,232.7669069711804 L227.48013623700888,229.40863010817878 L226.81364881500747,224.2255320683592 L226.5819820640441,217.85647846880087 L226.7851359841198,214.58463112442786 L226.49555254541553,210.1259371943509 L226.75573212726664,208.243199329792 L230.37507959808414,207.54909010286758 L237.52645399512625,207.5196862460146 L243.51949463735144,209.34361639686733 L245.74884160239026,209.54677031694285 L248.6152721325778,209.57528314783065 L252.92961985628546,209.11194964590413 L258.80682712302945,207.89659022931247 L261.8470077164396,206.8826026808657 L268.73820253163007,204.91432632364348 L273.776063339115,204.04557600753137 L276.46874380607954,203.37908858552947 L277.62707756089594,202.3080753753071 L278.2062444383039,201.20765830823177 L279.1614242730451,197.58920186337923 L278.4958278770081,193.50652089063482 L278.0030905182287,191.363603444225 L277.88369303888646,187.0617300840309 L282.36198954019824,183.6954339873421 L283.9373234467487,182.32503605279805 L286.23438838514517,179.99767623158277 L287.249266959557,181.08205483128378 L291.35155050353706,185.0034601043191 L295.2925583478081,186.93342234503584 L301.7435863361687,187.72465340217178 L303.6209780449359,187.75138418112908 L308.80674916265093,187.36467891221352 L311.3274616183242,187.07242239561373 L315.28183485207325,187.12588395352836 L319.89913140396357,186.17070411878768 L319.8456698460487,189.59313485128672 L319.18274652790836,191.53022529972546 L318.30686800407403,192.7776616510659 L315.7326939904864,195.16561123791763 L314.618020507967,197.1027016863564 L311.7792117827023,203.49759503890678 L309.2584993270295,206.01830749457977 L308.5679542039659,208.06232105884766 L308.09036428659573,211.2994183905762 L307.7989987959612,217.2692923577056 L308.38262080319515,220.74607567408452 L309.78865977634905,222.39090960592347 L312.5223274377154,224.6995578818686 L316.9533995628696,227.6185589440053 L320.08446480473424,229.18409156493755 L325.71040274927964,232.52722098652998 L329.8492183578345,237.06521622751364 L331.3889112257745,241.94714749108104 L332.71564888802203,244.09719314521294 L333.4872773739223,246.2285272540746 L334.5413610908052,247.35745715203774 L333.22442471417554,250.1802274099282 L329.9124812013662,256.5020566333286 L327.8052047935664,260.2648592845507 L326.45084532639703,262.2598664207301 L324.75700496646925,263.99112987119764 L321.67138204883236,266.28641275766415 L317.00507906885366,270.31295909459817 L314.89780266105333,271.8562160663993 L310.68235881948834,274.3769285220724 L304.9245490320866,276.8985320037106 L297.6243732988491,282.24201471727406 L295.8182636673012,283.67211139148935 L293.8989937381673,284.8767784964981 L291.5279736446553,287.3974909521711 L290.13530006098034,289.3550749978104 L288.78094059381,292.51554409652806 L287.7268568769276,294.3973909351216 L284.67865704983046,297.25758428355226 L282.6845409396167,299.40228378189266 L281.9316239989862,300.6069508869015 L280.57726453181584,304.5577600167898 L279.8617706817261,305.79985021233875 L277.5664877952594,309.1117937251477 L275.1954677017474,310.99274953777615 L272.5990180390283,313.32634654074803 L271.47008814106556,313.9661031837927 L266.96060573096986,315.7499371662095 L264.6813613118773,314.3430071670905 L260.4329495095981,311.05155725148217 L258.266865388092,307.90088943838225 L256.7191532864644,304.4401445893776 L255.34073611823334,302.41484257037985 L253.31543409923557,300.36102772049435 L249.60163787610196,296.98493033818784 L242.70866100898013,293.97415360163114 L238.6571659450198,292.28565939749524 L237.30726160767642,292.08874265917655 L233.1711190770178,289.89503673274777 L229.40118821807357,287.7565744161641 L225.8566869283365,283.3397587064536 L223.54892967835622,280.8635975490428 L222.93055765847726,279.93514849325936 L221.38284555684965,276.7559678492716 L220.6236914344629,275.9121662601864 z"/>
	<path id="cankiri-orta" title="Orta" class="district" d="M287.95406849806506,321.76525345756636 L287.6742863449782,322.80329870707465 L285.9073818559008,326.3371076852291 L283.24499627175476,328.9023714391643 L280.60755941463486,330.45186559272224 L278.21159059409575,331.68593655458403 L273.5399414583257,333.7914309104537 L271.7008638660635,334.759976134673 L266.85991979689743,336.86547049054275 L265.69802193821994,337.73689388455057 L262.3825143215505,341.9238248952283 L258.5101154766036,344.0052615500364 L253.88747276892184,346.08669820484454 L251.6126834796558,346.83694206757934 L247.8365154389553,347.5390705281909 L246.14267507902747,347.36977559479465 L242.99646239575407,346.2559931382407 L240.18883957927324,344.3197937157673 L237.719806629584,344.1264410813095 L235.1064274735259,344.85262724298263 L234.30717718270273,345.4335761723213 L233.7752346814524,346.6435894331215 L234.76694658076843,348.60384655665655 L236.3164407343258,350.3948087467953 L238.34887096104575,353.10530973306516 L240.4793140439424,354.7029192887462 L241.0602629732811,355.3560413212695 L241.37479513901144,357.7769588688352 L242.1009813006845,361.0194023563553 L241.97980176941144,362.1572425139708 L241.25361560773837,363.07678131010164 L238.9538775914462,364.50509593238655 L235.97695984156832,365.59392966191376 L231.5485607943093,366.36823122571013 L224.35976330672753,366.65870569037935 L222.61780754467674,366.9732378561102 L218.429985508034,368.3534370762719 L215.7087922101813,370.1764762011595 L207.4044302141147,368.40244350436024 L203.4090697859644,368.2420588306165 L199.57587608348848,368.45590506227484 L196.00999017058479,369.3406938457614 L191.55931547419482,370.76188026032435 L189.84319946513654,371.48539334410174 L185.1252169791743,372.0485217541354 L181.02293343519477,372.2097974538445 L175.20453388215648,370.57387378165794 L169.9501537651174,370.0383671765467 L165.84787022113787,369.93055303475245 L164.2395683538737,369.6356234402569 L160.9151504775513,368.0540523519503 L158.26078412709134,366.3379363428918 L155.11991759960935,363.7468328359646 L153.11778225570794,360.67190222991036 L152.22408321256916,358.92103620820745 L150.93744171875804,357.2762022763685 L150.04374267561874,356.8832598256963 L143.93041352808535,355.9895607825574 L140.89201498660606,355.9895607825574 L139.0689758617186,355.5600862673101 L133.7067816028849,353.7014061038128 L129.91813919867133,351.1281231161905 L128.9522670523473,349.8049495578044 L128.05856800920853,347.40987176323074 L126.91538169580141,345.5155505611235 L126.02168265266212,342.15549164619154 L125.77130435642891,339.25965725915125 L125.80694539503881,335.8283162669996 L127.91600385476943,333.79053988448845 L129.559946760643,332.78991772552035 L130.73966513862538,331.61019934753836 L131.31170380831114,330.46612200816605 L131.8837424779974,327.9997621363729 L131.70553728494838,325.2108508651618 L131.13349861526262,323.8529272941311 L128.7740618592988,320.3137721601852 L125.7000222792096,317.5613929535489 L123.44750863907498,316.1312962793336 L121.98177092624994,315.59489864825724 L118.04967334163138,313.8075005619794 L112.56273544766398,311.97822425533514 L113.80482564321323,310.73702508575127 L115.47104419821773,309.78006319908013 L117.53822443758216,307.92940226927 L119.63569955976408,305.49155522836463 L122.07354660066991,303.42437498900046 L124.23339354041917,301.9434898347663 L126.23820196221675,299.5680146114279 L127.59612553324718,298.2412769491808 L132.16174257915344,297.40816767167837 L136.8823981430119,297.007205987319 L138.7339500987871,296.5447635113577 L142.37468219277068,294.63173076398056 L143.3619389622602,294.2619549884047 L145.79889497720012,294.10691647045235 L150.45806974945714,294.44639736321005 L152.40139737965228,294.4161024803917 L156.1347961740217,295.12535914872535 L157.30738634428144,295.1868399403271 L164.43381201429688,294.8170641647512 L166.59365895404613,294.5702499723788 L168.96913417738463,294.0454356788506 L170.29587183963164,293.5215124112875 L174.8623799115028,291.14514616198403 L176.06526496458108,290.37440870204864 L182.2053248910724,287.9677475699268 L185.44420427473113,285.9005673305626 L189.54826987064143,281.92035434382115 L192.66418767109684,278.4346607677898 L193.28077763904497,276.5831088120145 L193.68173932340437,273.28185761078845 L194.90868207754386,270.25682445878783 L198.4531833672815,270.81995286882153 L201.43544727295074,270.7353054021234 L206.7816030644098,270.81995286882153 L210.63529036408687,270.7353054021234 L214.65916362312493,271.55148518628613 L216.7406002779332,272.45142141118174 L218.17604310793973,273.408383297853 L220.6236914344629,275.9121662601864 L221.38284555684965,276.7559678492716 L222.93055765847726,279.93514849325936 L223.54892967835622,280.8635975490428 L225.8566869283365,283.3397587064536 L229.40118821807357,287.7565744161641 L233.1711190770178,289.89503673274777 L237.30726160767642,292.08874265917655 L238.6571659450198,292.28565939749524 L242.70866100898013,293.97415360163114 L249.60163787610196,296.98493033818784 L253.31543409923557,300.36102772049435 L255.34073611823334,302.41484257037985 L256.7191532864644,304.4401445893776 L258.266865388092,307.90088943838225 L260.4329495095981,311.05155725148217 L264.6813613118773,314.3430071670905 L266.96060573096986,315.7499371662095 L272.2773576655758,319.01376527689536 L274.4719546179701,319.4075987535328 L279.901866850162,320.8982851933847 L281.50571358759964,321.17984939840153 L285.8949074923877,321.29211867002215 L287.95406849806506,321.76525345756636 z"/>
	<path id="cankiri-yaprakli" title="Yapraklı" class="district" d="M576.9975454671649,296.26587238423656 L573.6793647726003,297.5694433713874 L572.655575938535,298.34463596114904 L570.9403509554421,300.80564967715065 L570.3594020261038,301.93992573090526 L568.3403371888619,303.5446634943082 L563.6660149751962,306.36565170026824 L558.3002566125008,309.2695053209958 L557.359333193206,310.9571084991664 L556.3088135801837,312.2294935775336 L554.0402614726744,314.2485584147747 L549.3935610639314,316.1018924224806 L542.9487702573261,318.2590662843344 L540.8744618102405,319.89142585265984 L538.1363390190483,321.6895162505207 L534.4296710036373,326.00386397422824 L529.7277269850487,330.0981282845206 L525.5505972599877,332.61527663633274 L523.3658015932118,333.3343345902839 L519.7696207974902,334.16387976392537 L515.621003903318,334.96580313264417 L509.4800529508627,335.46388664721525 L505.884763181106,335.18677757202454 L501.6800116511232,334.1362579590028 L498.11234368628925,332.72576385602287 L493.1609123974333,330.48483355343615 L488.3484811591544,327.52573632286357 L482.92658816064954,323.4590938174937 L482.20753020669827,322.1314651292812 L479.5522728302734,318.5637971644475 L477.1465027241169,315.71429612759977 L473.6884309530084,312.56184626256936 L470.12076298817544,308.3847165375093 L463.56548496188077,304.0694777878365 L459.9693041661591,301.96754753582786 L455.2397383426477,300.22559177377735 L453.60737877432325,299.8656172838191 L450.78639056836255,299.8379954788966 L448.54546026577606,301.0275151424962 L447.16258796771797,302.9084709551246 L445.50349762043567,303.57228529923077 L441.52061155579844,303.9589905681464 L440.1644700366983,303.32279802896267 L436.6796674866318,299.6446428444388 L435.40728240826604,297.9570396662682 L434.9091988936943,296.82276361251354 L434.2730063545104,290.0465111468392 L434.21776274466475,288.4970169932812 L432.945377666298,286.6445740115406 L431.6177489780856,285.75889420208887 L429.6539277506903,284.9017272235249 L425.67104168605204,283.60172034023515 L424.78625290256673,283.0483932158191 L424.5091438273746,282.2188480421777 L424.3157911929178,279.5359688608304 L424.45390021753093,278.2635837824631 L425.97577256616603,271.98452380539436 L425.9481507612442,270.4635424827243 L425.2558235862498,269.30164462404707 L422.9605406997826,266.4245217822768 L421.10720669207757,263.65877718616196 L419.19862907452494,261.3349814688077 L418.67292375503234,259.15018580203144 L419.11576365975844,258.1825316037773 L419.1433854646813,256.8272811106424 L420.0005524432458,255.25016515216197 L420.66436678735147,254.58635080805578 L420.64209113822005,252.4603628549855 L423.3953613708206,252.2777025321106 L425.81093276259696,252.5423372437878 L429.3197930137237,252.39175385566176 L434.4521025735238,251.4855804490095 L440.26337391883993,250.01360555442764 L444.11260608869054,248.65568198339702 L447.31940853760096,247.33518150290666 L450.5654161289829,245.67430910369336 L454.22575079420017,243.1464684402984 L457.6553097344221,240.07242886020938 L462.1656831704837,240.84762144997092 L467.13493497864556,240.8832624885807 L476.893451349988,240.84762144997092 L480.8977220377908,240.0252044840515 L483.93612057927055,239.59572996880428 L489.6556162501662,237.77269084391668 L499.09247224805665,235.84272860319993 L502.59598634339295,234.44827296759433 L504.5259485841102,234.05533051692214 L508.0294626794465,234.01968947831242 L512.8909003458127,233.3041956282221 L517.0733762266641,232.80433006172063 L521.5062304037496,232.9468942161596 L523.329269528636,232.8399711003304 L525.2235907307444,233.12599043517343 L530.5501439509682,234.84121541826661 L535.3759405787255,236.23567105387224 L536.6269410339268,236.9146328393875 L539.5227754209669,238.09435121736948 L540.2017372064829,238.52382573261673 L548.4597658523558,242.27682709822102 L550.389728093072,242.7063016134683 L551.7841837286787,242.77758369068772 L557.2533011033412,242.7063016134683 L559.7909430523534,242.49156435584462 L563.2944571476899,242.5628464330641 L568.0846127368383,243.24180821857942 L570.4921648949246,243.17765434908193 L570.5474085047703,245.45600774220878 L571.315472886809,249.43622072895005 L573.07257609027,252.51026030903907 L573.8691533031954,255.14591511422847 L575.1041152910225,256.95737090156786 L575.3233076784733,259.1804806848497 L576.3114554739277,260.7451222798167 L576.805974884637,262.1181932922565 L576.9155710783633,263.4627514738084 L575.7902052842607,265.9888100852729 L573.9235058870762,268.1842980636321 L572.9353580916218,268.73317005822196 L569.9709147052565,269.3925292725019 L565.3571822572287,271.2841773967132 L561.953463069999,272.4095431908153 L561.0196678584233,272.8488189916802 L558.0276026671371,274.79749277766706 L555.722518495053,275.7580187681993 L554.9811848919712,276.69181397977417 L555.2832426941885,277.6247181653838 L557.5339742823928,279.32657775899827 L559.4274044585343,280.3975909692206 L561.6514052677817,282.3186429502849 L562.1477067304216,284.8741054186024 L562.6965787250115,286.3015290149219 L564.6185217320407,288.27782460583137 L568.7903053013101,291.4890821845678 L570.9314406957891,292.5600953947902 L576.9975454671649,296.26587238423656 z"/>
	
</g></g></svg>