<svg xmlns="http://www.w3.org/2000/svg" version="1.2" baseProfile="tiny" width="600" height="600" stroke-linecap="round" stroke-linejoin="round"><rect id="backgroundrect" width="100%" height="100%" x="0" y="0" fill="none" stroke="none" class="" style=""/>































































































































































































































































































































































































































































































































































































































<g class="currentLayer" style=""><title>Layer 1</title><g class="city city-39" id="kirklareli" title="Kırklareli">
	<path id="kirklareli-babaeski" title="Babaeski" class="district" d="M65.11647700003796,481.43475842026254 L67.28827422567329,468.14749078868437 L70.94104752201272,458.0237939012288 L71.82037706399385,454.86022315710613 L72.17256039788079,451.9603960192699 L71.90842289746534,451.06366775789616 L69.0920850191075,449.1133176026908 L65.92469259959847,447.9528457350306 L57.695793548202246,447.84870082383037 L49.42287158007073,446.0552443010828 L44.054333323769555,444.79062752222234 L37.674396775280485,441.7853029418713 L34.19771514588402,439.4643592065509 L31.73356060141215,437.0920192812875 L30.325956058601115,435.3526640111116 L27.81777859739399,431.39786244812944 L24.869371968828418,428.18154298274953 L20.248094504299644,423.48825932216545 L15.686643054822241,420.0203690323279 L17.50738573930736,416.6174002455758 L21.657956632584142,406.4423071681775 L22.752885587296582,403.45862308885523 L26.337931319427568,397.44391633421054 L30.75376850585458,393.6000223390004 L36.11327642026197,388.6254121650443 L38.981538764514085,383.515548859659 L39.73670110544457,376.0549861300394 L39.47143481229239,371.0343898913974 L39.84958037912698,366.28700497824195 L39.92520949249251,362.3524913849744 L40.8305012674203,358.7344701192503 L41.54728465529915,354.529450263125 L43.81164288535385,349.6454596872261 L45.43484684089721,345.57569296252973 L47.019671843387954,342.6366424165791 L48.22748007178183,338.8373819547403 L50.34170886784021,331.286199627063 L49.548167573858095,328.2105434183692 L52.0134509110667,327.25295124785237 L53.89514840333993,326.87694754248 L59.675696008579436,326.87694754248 L64.69430851646813,327.46665119551005 L73.2979667564868,327.7899061796251 L78.04792659301215,327.84265490088245 L84.41093125045033,328.48781233779846 L88.03999989931657,328.6487635641988 L94.44815626622672,329.6144709226015 L99.7805731549507,330.9575345176908 L108.65288406633175,334.1251628557564 L112.95471318634156,335.414125198274 L116.718108170889,336.2729825828478 L123.52924354484267,336.97088874102093 L131.5052930231917,337.18594121999297 L137.19666600222203,337.82974612559474 L144.23130233806611,340.0844158265151 L147.63687002504295,341.6952806218335 L152.073025480733,344.64785648092715 L153.775244927853,345.34576263910054 L155.52374487718276,345.5080663968152 L162.02107587030116,345.0238601862995 L166.7258839973545,345.23891266527164 L171.02771311736433,345.9909200760165 L174.43328080434117,346.8497774605902 L182.05037419238195,349.4263496143113 L194.47612463926365,354.90680649981164 L193.3055665711837,356.6556294891878 L186.5079767100727,365.4227374684109 L185.1489102549448,367.53133378738806 L179.1911421900246,375.58024763872373 L178.15152407941565,377.6888439577009 L177.23155799890947,380.4669432772511 L174.3926442658151,387.4622352347554 L169.4744943115039,401.1160388525059 L166.95502892292853,407.39313668212276 L163.31692993216748,414.67516527825654 L159.91813500161103,421.14297002318796 L156.95956923841393,431.82661487475906 L155.59937399055028,438.53381766231985 L155.44021421465916,440.68975257729716 L155.6795182748637,450.94329247092435 L156.87942495409953,457.0756694499121 L156.71913638547267,461.3875392798665 L155.79917030496645,466.8977518542811 L155.64001052907537,473.0774674292689 L155.72015481338877,479.2098444082565 L156.83878841557544,485.0067936213008 L158.42812858901308,490.90112508897363 L153.0324993070285,490.2140391813145 L147.18535293031627,490.81726814748754 L142.11030078558738,491.8235514453187 L134.1794030167103,494.7639545225837 L131.55721748908502,495.1670088542419 L127.82768628664135,495.0858569753845 L117.27460299014004,491.94527926360473 L112.50206729887819,490.3749904077149 L103.73134773380934,488.80470155182513 L93.98535124413179,484.2534336792416 L91.26270316292907,484.13305839226973 L80.34050464148794,484.49553678449934 L76.27346441073672,485.26106950838715 L75.23158871465432,485.13934169010093 L73.78673401152935,483.81115593946896 L71.83730895504573,483.48925348666825 L70.42631803402449,482.7237207627803 L67.50274484566886,481.9581880388926 L65.85583624265328,482.119139265293 L65.11647700003796,481.43475842026254 z"/>
	<path id="kirklareli-demirkoy" title="Demirköy" class="district" d="M308.2855235360972,154.31559234019207 L310.8636861469882,156.9029847444275 L311.65045468454986,158.89526337037574 L313.9227144637617,160.84561352558086 L316.30672472391916,161.90870313861245 L317.4422902171577,163.7603185078745 L319.03501676880643,163.77519635233148 L319.4041319937453,165.31302445667853 L321.688808493063,167.32018092708395 L324.0739475459572,167.02127150662602 L327.27520374756995,167.52306062422733 L327.3587344100946,163.300457861016 L326.6916179026356,162.59037892101423 L323.1167313051371,163.23283129530157 L322.3277051821009,161.60979371815438 L323.9136589773284,159.28749745151976 L326.44779867148316,159.02916397049046 L329.088044882899,159.2455689807768 L328.9943550857419,157.30874413871436 L327.94457784050235,156.59866519871255 L324.9724665644627,156.95438093437048 L324.3877519267925,156.33492159242624 L326.2299416732774,155.03649153070847 L326.7457999540024,152.30302574452966 L328.4480194011224,151.7200847480708 L328.2866020397588,149.21384422269284 L329.76870690319964,149.1827360024643 L332.50377170450633,150.04565098098084 L334.09085429247057,149.405903669322 L334.8098952658238,150.20254461343853 L333.64159478321733,151.99870619881443 L335.22077582202445,152.08797326555765 L336.4353568068407,150.47981353286778 L338.64440419279094,149.13404487514975 L339.7946439916078,147.348703540288 L340.6175338967467,144.68286431982364 L341.7892207575624,143.42095260359181 L343.501599339314,143.52780257742054 L344.7116651531823,144.68827444508082 L344.0772836350913,147.7138869951459 L344.7918094374958,148.46454187457658 L346.9963416524991,148.1399343591472 L348.10933129100107,146.39652149502825 L349.3227834830796,146.1070797937703 L351.019358966516,143.7753158079357 L352.1662123871218,143.12745330839107 L351.162715644092,142.0116149741023 L352.6843282533202,141.11623924404282 L351.6977634013423,139.89084587329677 L351.02500293019864,137.9229128110059 L352.5398427830075,136.9139244505459 L354.3718733948618,138.6532797207218 L355.9329937498804,139.3024947515808 L357.1024230252216,139.00629039375139 L357.52797788700263,137.15196996186086 L358.97621896833874,137.31968384483275 L358.7606195556064,138.91296573306545 L359.83635903379263,139.49320166689546 L361.00465951639904,139.11178783626596 L362.77460652772766,136.2552417004871 L364.8572291271547,134.96492682665496 L367.0764356477365,135.1326407096268 L366.89695760258235,137.24799968517527 L368.04381102318905,138.00541722117734 L369.390460758212,137.72003311386223 L371.80833480047323,134.9676318892836 L373.21481055054755,135.23002296425574 L373.96320013505664,136.19302526002963 L373.21142417233636,137.7227381764909 L374.7669005636712,137.76060905329103 L374.98588635461374,134.6092110909969 L378.80572097600236,133.7043676417373 L378.69735687326784,131.64040485613197 L379.8408239156625,129.8117825192126 L383.85255330231115,129.43442628252603 L385.91147125426505,128.28883225932282 L386.6248682639328,128.3659265442374 L387.8473507979061,130.07823118812752 L389.3813801272402,130.27975835395685 L389.0743485028252,127.52059447280658 L388.47721714504917,127.11483507851975 L385.85164523921367,127.32988755749174 L386.90029369171646,126.05039293417411 L390.3939072121648,126.18429353428883 L391.7168522997145,127.80597858012169 L393.5093751657805,126.75641428023303 L396.560501933397,126.99716485417652 L399.4287642776481,127.91282855395045 L402.678558566944,128.55392839692374 L404.06132966954516,128.01291587120787 L403.76445717976264,125.7474259197732 L405.27591065435934,124.94131725645698 L406.23764206612736,125.549956347887 L407.2027598561065,127.19328189474867 L409.770763332366,128.59856193029523 L410.40514485045696,129.70628507669818 L407.98275563724695,130.7801949402438 L408.9027217177531,131.54031753887452 L410.96954121886506,130.57596271178613 L413.6244617358593,130.79372025338677 L418.7807869576384,131.9555446523612 L419.9998831133995,136.04965694071507 L421.4605409148416,135.83189939911458 L422.3071354674547,133.50284047590827 L424.23511346193766,132.79411406722053 L426.9092234554572,133.98569415510957 L427.6847040656507,135.3855640653989 L426.5671992562017,136.769203599917 L424.21592398541225,138.78988538346522 L425.4395353121223,140.03962431786852 L428.37778280605636,139.2091700908947 L430.68842153832077,140.29390020495487 L430.4344431725377,142.39843892998897 L431.497765930619,143.06794193056226 L432.2969511882847,142.1401054489597 L434.5827564803392,141.23661453101442 L437.4532764100638,141.70459036575852 L437.88334644279263,143.57514117342072 L441.04396610587935,145.97588425628442 L441.8691135964927,145.8798545329697 L442.34659292416706,144.24734923662248 L441.0947617790369,142.70140594438976 L440.23800809179227,140.31959829992644 L440.55519885083777,139.635217454896 L443.9043269009734,140.08020025729718 L446.15626841092416,142.85288945159027 L447.28280356226685,143.2275406256483 L451.1037669763931,143.18696468621965 L451.8747324156388,140.10860341489732 L450.75271243524196,136.4324233026589 L449.8045265363157,135.2110875258557 L448.5075436817136,135.3788014088276 L446.6405204950188,136.6393605937451 L443.7779021144503,134.77016231739728 L444.020592552866,133.16065005339306 L445.80521386977296,130.22159950744242 L446.4779743409165,128.41191260892322 L443.2315664298308,127.47325587680646 L442.8252010445761,124.27857691245504 L442.8850270596284,121.40715293221885 L443.693242659189,120.28590447267307 L444.49694308780266,117.93385251712395 L446.7579149396481,117.3198033004366 L447.2320078891103,115.02726272271627 L448.96244715465144,114.48895525962905 L450.2244374344121,115.33158226843123 L450.8249551703983,116.78014330603506 L452.6626297459373,117.92573732923816 L455.3412549104038,118.6642194268402 L457.30422547972904,117.16290966797908 L458.270472062443,114.54711410614351 L457.57287815109044,113.84109276008456 L458.64071608011955,112.66980064190987 L460.9073318956477,113.05527206648225 L460.96941549617253,115.05160828637345 L459.1915669356869,115.5533974039747 L458.6802238259088,116.59214145334902 L459.48166666904905,118.43158404078241 L460.73688419238835,118.39912328923958 L461.1285752720646,117.41448049243688 L462.5926194517159,116.44877313403417 L462.9414164073916,115.13952282180206 L461.953722762677,113.9831085480848 L462.3296107440362,110.49763535116128 L464.76667426282467,110.15409239733188 L465.5963369243859,112.35466084568047 L466.41696924405136,113.4258656465976 L468.57183457863584,113.99798639254212 L469.725460755662,113.53812574568366 L471.78776508582706,116.57320601494888 L473.09716466053504,115.82119860420414 L475.425864076588,116.00243780031872 L477.6337826698016,117.0235989426072 L480.2853168085856,117.3400912701508 L481.4536172911902,117.98389617575259 L481.66921670392344,119.54471731244264 L481.4423293638219,123.80383842113959 L484.6537447000662,126.5170162376039 L485.47099064152155,127.7911007356644 L487.2465816165346,128.54716574035226 L489.119248766915,128.59179927372372 L490.2390111618374,126.9241281632049 L491.022393321188,123.48734609359599 L492.29792911379036,123.50492900068164 L493.3093274059793,125.07792291920006 L493.0745385167206,126.78075984389035 L495.27568435351475,126.74018390446172 L495.45854877687896,125.7623037642305 L496.6076597829592,124.69380402594186 L496.51058360759293,123.16950123473791 L497.04788895031766,121.91299964376323 L499.3449821697394,124.18795731439776 L499.90147698899034,125.36330702651516 L502.17373676820216,126.19917137874585 L504.8184981505659,124.53285279954149 L506.8367795639938,123.94314914651132 L508.19245964091135,124.27857691245504 L507.78948063386804,126.7537092176047 L510.3191051570748,126.18158847166016 L511.3147003509465,124.76413565428497 L512.4615537715532,125.31732096182935 L515.7734316613731,122.79214499805121 L517.3243928817611,122.39450079165005 L516.6674355089326,120.81339168524582 L517.2589229030251,119.31749205164202 L519.0266123288811,120.10466527655838 L520.5200051196892,121.78586170022001 L523.6004804984635,123.41025180868138 L525.1661160244279,124.55990342582716 L529.0660949301309,124.36649144788396 L533.1703853211981,125.62840316411594 L534.6129824388496,124.79794893714212 L536.5217709568072,124.46928382776989 L539.9273386437831,124.76819324822794 L541.3089809536483,124.45711104594123 L541.5336107082735,127.31636224434877 L542.656759481407,129.53992372504047 L545.0125499231444,132.2598641980764 L546.823133472998,132.9794108572782 L548.6980582088519,135.07718692574105 L547.5207273843506,136.4878770865447 L547.7622890300305,138.22182223146365 L548.9407486472667,139.63386492358168 L550.0717989695581,140.22221604529744 L550.0717989695581,141.35698981798618 L550.9906362573265,143.78748858976417 L551.8598066646754,144.54084853182326 L551.1588263751127,147.17152193811597 L549.3866217783105,148.2914178663476 L548.4079584754897,150.9978330262404 L549.63495618041,153.00769455927446 L550.6689303273332,155.9697381375679 L550.1496856683981,157.43993967620054 L550.0977612025048,159.4186929890058 L549.2793864683118,161.39203617655386 L549.4735388190444,162.93256934352945 L550.2569209783958,163.92803239084634 L550.2411178800809,165.5253718730219 L553.4762378637984,170.9598426938365 L554.0474069886267,172.98458207132757 L553.8668001507369,174.2735444138452 L554.6863036776657,176.9813121050525 L555.5904666598557,178.74095534494293 L554.0282175121024,180.13947272391798 L551.2367130739525,180.79274534871976 L549.4103264257827,180.37616570391862 L548.6766111468521,180.91853076094884 L547.3446357174076,179.81486520848858 L543.4807781792827,177.581836008597 L542.2041135939436,177.57507335202553 L542.0144764141589,176.51604133293705 L540.2242111335664,175.82760289396379 L537.7781172728842,173.70142366790083 L535.5261757629335,173.03056813601336 L533.9684417861271,173.29701680492843 L531.5957194533378,174.35469629270267 L528.0942043837315,176.75408684425184 L525.4517005868431,179.475379848602 L523.3995553913096,182.4942297420956 L522.3926722700686,184.62176149947285 L520.0301090719109,191.34925225674783 L520.2073295315917,198.0442822624801 L520.7773698636834,206.79380733461753 L522.3971874410156,213.66196134857856 L524.2495363221319,217.1163263252736 L526.4258487187152,222.82130340894585 L529.3099141612824,227.9379293709024 L532.7685351068902,232.98422370451567 L536.4427554652304,238.02781297550064 L540.0503770520959,243.52450023677252 L543.618490893175,246.5095368474088 L544.7122910551508,247.92157953952687 L542.0551129526831,250.94719208959225 L538.1596492179289,253.94440148205734 L533.4051742104547,256.9429634058366 L526.1131731306174,259.94152532961607 L519.9714118495963,263.3093283021966 L513.8161050557333,265.0811443239155 L511.4569282357859,265.3381252736304 L499.41158094121204,262.55461582882305 L496.30175695128105,261.3116395509911 L492.9763335486176,259.55605390504365 L487.93627397873,257.45692530526657 L484.1119241863946,255.3577967054897 L474.24627566661525,250.4332301901623 L470.63639649427336,248.7195730149577 L466.0602707392176,247.90534916375555 L460.59126992933886,246.70700641929517 L450.6183860995618,247.0059158397531 L439.03697261981875,246.87742536489566 L429.38579472003306,245.97799204089324 L426.91938259008873,245.8495015660357 L420.34190731265693,246.57851594443764 L418.30443642270177,246.3634634654656 L413.6933180928045,244.13719692214553 L411.40525521527564,243.53667301860102 L406.2579603353904,242.93750164637083 L398.85872394555537,242.93750164637083 L394.2476056156581,243.1944825960858 L387.38454577581115,245.33553966660577 L376.80324266088866,245.67908262043528 L370.2980101186113,245.20704919174835 L362.6131891663621,243.27969206888608 L356.0718352565084,240.58139209687891 L353.35483113898937,238.8690874529886 L349.2798893590801,235.7420350543518 L345.6688813940034,233.5576969817744 L341.2011197416811,230.38871611239446 L334.94535039424073,226.14853044209767 L329.40523564194444,220.5801590211686 L327.68947068198173,218.3092589444768 L325.29417249445606,212.270206626175 L322.75664642209205,208.6724733301654 L319.03840314701665,205.28979251312774 L316.60811238464953,203.83311628763826 L310.42458577236647,199.54964961528404 L305.13393421490525,193.08319740166687 L297.48410583749745,189.48546410565712 L294.9104583975534,187.94222587605304 L293.8381052975774,186.4436211798204 L292.37293232518937,183.44505925604116 L292.8018735651796,180.1043069097465 L293.91034803273277,176.97860704242387 L297.16239990750404,171.53872609635238 L300.45170194258833,167.04155947634035 L306.0279380624647,157.14779291231395 L308.2855235360972,154.31559234019207 z"/>
	<path id="kirklareli-merkez" title="Merkez" class="district" d="M215.97172472646818,79.49761762765033 L219.21023108839688,80.56205977199598 L225.51453852351938,80.10490418776618 L228.17623179693396,81.1571735502832 L230.14936150088988,81.35058552822655 L231.0027288099243,82.92087438411644 L232.84040338546225,84.26664304183436 L233.92517320554322,87.06367779978461 L235.65787005655682,87.74805864481506 L234.83949532236477,89.96485746893526 L235.99312149939192,90.55997124722246 L235.1837771070937,91.8800418099689 L237.70888645935366,93.68026098928794 L237.682924226407,96.06477369638003 L238.13557011387041,97.36455628941201 L238.2010400926054,99.8478037824473 L238.75866370459312,101.40862491913708 L241.72400222421152,102.62860816462609 L242.5999453879815,103.50504845628555 L242.29517134904103,105.1186183142326 L243.27496344459854,106.29261549503568 L243.64069229132724,108.16587136532648 L243.03565938439306,109.4223729563013 L243.75808673595554,110.9466757475054 L247.49439069481957,110.36238221973252 L248.16940875143564,111.16578582042024 L252.3335251575541,113.80592694591296 L252.71167072438772,116.60837182912051 L253.43974203963484,118.98747441095529 L255.14647665770173,119.41487430627078 L256.04725326168165,120.26561650295875 L257.5022670994391,120.35894116364467 L257.82848820037947,119.27826864352755 L261.7905507066063,118.84681115426923 L262.0434002796535,120.211515250387 L262.8854796613197,121.01221378844633 L262.6010238916412,122.9152253476516 L264.1011894388707,124.25017375485506 L264.8766700490651,127.43538500000633 L266.9559062702811,128.41326514023757 L268.3544804711973,128.52011511406647 L268.33980616561894,131.36448846801682 L269.66388004590544,132.3667141719052 L270.50595942757064,131.56331057121733 L272.48473309521114,131.96501237156122 L276.3553633897563,131.23194039921646 L277.9266428794054,132.3072027940764 L278.8793439492796,134.85672432151188 L278.5531228483393,136.9639681091745 L281.72728802426866,137.03970986277477 L285.52906196186774,138.80476322792236 L288.57002959485266,139.36876878598105 L288.621954060746,140.54411849809844 L291.0195098337451,140.3263609564978 L292.1426586068786,139.19293971512337 L293.0705262365419,139.7569452731821 L295.394710481648,139.88543574803933 L295.55951422122376,137.3088635943184 L296.3586994788895,136.76514600597397 L298.19411646895395,136.93556495157452 L299.67622133239485,138.4260544599215 L300.3975198912216,140.77675388415622 L302.11215605844654,141.5111783878153 L303.9611185613519,144.34202642862272 L303.8787166915639,144.9533705826816 L305.2264952193236,147.1471763744588 L307.3655574555919,149.0204322447495 L308.060893781471,151.53614048932764 L308.2855235360972,154.31559234019207 L306.0279380624647,157.14779291231395 L300.45170194258833,167.04155947634035 L297.16239990750404,171.53872609635238 L293.91034803273277,176.97860704242387 L292.8018735651796,180.1043069097465 L292.37293232518937,183.44505925604116 L293.8381052975774,186.4436211798204 L294.9104583975534,187.94222587605304 L297.48410583749745,189.48546410565712 L305.13393421490525,193.08319740166687 L310.42458577236647,199.54964961528404 L316.60811238464953,203.83311628763826 L319.03840314701665,205.28979251312774 L322.75664642209205,208.6724733301654 L325.29417249445606,212.270206626175 L327.68947068198173,218.3092589444768 L325.73891683276133,220.9412848820837 L324.29067575142625,223.56519563180507 L321.1469879793904,227.375276344158 L320.08705159951944,228.26388941764597 L313.76355468787057,232.6663788456578 L307.8283624776868,237.53413904578503 L303.02422058979374,240.8775964547083 L298.22007870190157,243.50285973574373 L289.0700847772634,245.87249459837864 L281.15724769217593,248.3273389338137 L273.10218272224927,253.57651296457064 L268.12082037467644,257.59758856195276 L265.08323911990266,260.3486372552172 L260.38520374926964,265.1744689846016 L258.40643008163016,267.883589207123 L257.20539460965665,273.97944784062486 L256.39266383914827,279.65061164143987 L256.3226786894653,285.66126080214167 L255.79214610316194,290.6142304750691 L255.15663579233325,294.5081681289081 L253.70839471099714,302.0011916100709 L250.38748647928168,308.4771115428881 L245.33613898202594,317.0278145118251 L238.90653555311604,324.0109336875008 L233.57186107891954,328.83676541688516 L230.3931807320423,331.88401846797905 L228.59049873134575,335.1016904646732 L225.87123702835325,343.3981175465238 L224.0335624528153,346.9958508425336 L220.2543643699527,353.8951130767232 L215.48521505690107,362.19154015857384 L214.65216601712964,363.1545424543479 L209.1605893525155,361.13115560817096 L204.94793485871486,359.19838836005164 L194.47612463926365,354.90680649981164 L182.05037419238195,349.4263496143113 L174.43328080434117,346.8497774605902 L171.02771311736433,345.9909200760165 L166.7258839973545,345.23891266527164 L162.02107587030116,345.0238601862995 L155.52374487718276,345.5080663968152 L153.775244927853,345.34576263910054 L152.073025480733,344.64785648092715 L147.63687002504295,341.6952806218335 L144.23130233806611,340.0844158265151 L137.19666600222203,337.82974612559474 L131.5052930231917,337.18594121999297 L123.52924354484267,336.97088874102093 L116.718108170889,336.2729825828478 L112.95471318634156,335.414125198274 L108.65288406633175,334.1251628557564 L99.7805731549507,330.9575345176908 L94.44815626622672,329.6144709226015 L88.03999989931657,328.6487635641988 L84.41093125045033,328.48781233779846 L78.04792659301215,327.84265490088245 L73.2979667564868,327.7899061796251 L64.69430851646813,327.46665119551005 L59.675696008579436,326.87694754248 L53.89514840333993,326.87694754248 L52.0134509110667,327.25295124785237 L49.548167573858095,328.2105434183692 L44.71806345301739,324.0501570956153 L40.906130380786834,322.4676954578968 L37.01856819518876,323.37253890715635 L35.396493032384086,324.6831417507028 L29.206193663678725,330.7424820387188 L27.13034382067294,334.13463057495636 L25.73402720523014,335.3559663517596 L23.16828131444509,336.03358454021856 L14.600744442004576,332.6874220686668 L9.430873707382844,328.70827494202763 L6.599861523445604,324.0055235622435 L6.675490636812135,318.26267560177115 L10.184907255576597,308.1322160577443 L11.166956936607612,306.77562714951205 L19.77174396936303,304.06244933304777 L26.791705999627695,302.20812890115707 L31.169164233004054,300.7162868614961 L34.49007246471959,298.9079524942912 L38.00061787622076,295.6510570894826 L39.62269303902643,291.8531491589582 L41.17026788120228,286.9542807386023 L43.53508866483442,277.5487779790344 L47.51069668390298,264.58476533157125 L50.53021725488817,256.7468463652648 L54.85800860784465,249.7529069390747 L56.61892527727936,244.68767716706128 L57.52421705220617,233.53335141811726 L56.61892527727936,219.1829941735076 L54.95847116142208,207.84742922844902 L54.10284626691417,202.84306336557842 L52.8442423653637,198.68267704282457 L51.787692363702874,193.4375606060105 L49.97598002111158,190.03053422531588 L46.80633001612911,182.93109735661122 L45.14587590027182,176.96237666665252 L44.654851059756794,167.872013703314 L43.33416355768051,159.46062145974875 L52.751681360944346,159.17658988374797 L58.20375027977012,158.42728753563162 L64.34889793900153,158.76001023894702 L69.52328384457115,159.42545564557727 L73.62080147921691,160.25861493517945 L75.56458257201594,161.04849322272435 L81.3981834358855,162.00608539324122 L86.81525977986983,163.8360602614747 L89.93975807538033,164.0024216131323 L100.07970323020663,164.04435008387526 L104.24607722179857,164.37707278719031 L107.61439474845955,165.41716936787896 L112.96148594276193,167.5392909999988 L115.67058851112299,168.24666487737204 L122.23226069023963,169.03654316491708 L124.87137810891775,170.07663974560558 L129.83693735817542,172.61534102252665 L134.73364025048787,177.8983283361406 L139.1427046804955,181.31076484209268 L143.4140563966108,183.1826681810689 L147.4415888815727,184.05640341010002 L151.40026500959038,184.2227647617575 L159.6991492106695,182.0587146588946 L164.1432062155176,179.6457987942024 L167.61537267396616,176.85823175545227 L169.52528998466045,173.28078642915696 L171.15752428209763,166.58169882948204 L177.40764966585436,154.64155238693596 L178.62335944340535,152.7696490479595 L181.54015987534063,150.27287624178132 L183.83160913107966,149.3572125420077 L187.30377558952824,143.94843981616458 L188.65832687370826,140.912007015585 L192.408176345415,137.87422168369125 L197.47758452645928,135.503234289742 L201.26242657300742,134.21291941591005 L203.90154399168458,131.34284796698822 L206.12413689047747,124.39354207416962 L211.1585524966813,116.11469789940476 L211.92274517950653,114.07643320877074 L212.16543561792224,110.28934552876078 L211.6450621662494,106.92019002486599 L210.88086948342414,104.21512739628733 L210.42935238869748,100.88654783182135 L208.97095217272985,98.182837734557 L207.65139346339032,92.98235483111468 L208.4844425031617,90.81830472825175 L210.49933753838036,86.65791840549778 L214.110345503458,80.99892738651131 L215.97172472646818,79.49761762765033 z"/>
	<path id="kirklareli-kofcaz" title="Kofçaz" class="district" d="M38.54130959715566,151.23046841229822 L37.459926155284904,146.93753402074412 L36.983575620348276,140.1694673240404 L36.66977123951297,137.70515526940508 L34.33429906703864,129.1828554580681 L31.78887144551566,122.24707487839265 L30.812465728169236,118.65475170764006 L29.732211079036162,113.6517383760839 L32.21781268550682,112.73877973893863 L36.30855756373222,114.05073511379925 L38.38666499221145,115.41679174123163 L40.122748221436225,115.0759538500306 L41.85657386518659,115.44248983620297 L42.36001542580756,114.12512433608534 L41.945748491395776,113.31360554751167 L42.71558513790467,111.88397994830783 L44.14689432818892,111.09274912944848 L44.91560218196109,108.88406549321422 L47.791766075370305,106.46844456589335 L49.384492627019114,103.64571171297176 L51.13073499087541,102.43519618668275 L49.59670566154125,100.25897330199132 L49.19711303270789,98.0881605425569 L50.219799252263996,95.18698087340624 L48.73882318155988,93.90342865614562 L49.58880411238317,92.56712771762786 L52.91987147873023,91.83676080791159 L54.53065871416764,92.24387273351277 L55.79039140845582,91.90844496756904 L56.928214487166784,93.22445793637247 L59.868719566575265,91.64875895522542 L61.75041705884948,91.89627218574037 L64.95280205319897,88.36751798675955 L65.73054024886592,86.68902662572643 L68.62927999701259,82.6030295252585 L70.26264308718648,82.1012404076571 L70.28409014918526,80.62021861851044 L71.67589159368116,79.42863853062141 L71.38917823853019,77.90839333336028 L69.06160761521295,75.89041661244073 L69.62036001993742,72.10062386980198 L68.97356178174051,71.08081525882778 L69.0119407347931,69.01144234796526 L69.65535259477888,67.902366670248 L73.07672338007087,69.24002014008009 L74.87376141708376,67.62239268819005 L78.1912832705891,66.00882283024286 L80.05379128633602,66.69590873790196 L81.80793519935038,66.57553345093008 L85.17512393327559,64.75096870795386 L86.8231613290279,63.175269726806796 L87.91470390553017,62.75463248806282 L89.57628681412515,61.16405566245858 L91.51668152871302,61.92417826108914 L91.398158291347,62.84525208612021 L92.44342036563958,63.59590696555078 L95.101727260844,63.654065812065234 L96.67752192144094,64.55755673001053 L98.68112902929039,63.820427163722776 L100.7456909449289,64.36414475206718 L101.76499078627481,65.30821160944106 L104.32509271337528,64.83347311812547 L107.89659293266456,65.82487857149965 L109.90923038240877,65.07828128601177 L111.71191238310527,68.48666019802087 L115.74057366080487,69.0709537257939 L117.58276340729074,70.79272608888432 L117.89656778812605,72.44146176100286 L118.81540507589457,73.4490975901484 L119.24660390135915,75.29530283415338 L121.57643211014985,76.41249369975633 L124.99554530996744,76.28670828752743 L128.53205295441524,74.71100930638036 L130.39568976290087,73.16100842020478 L131.57979334382154,75.05049466626707 L133.20073971389044,76.85612397084316 L135.44365088194635,77.09552201347243 L139.067075567128,76.71951830809992 L140.12023919057864,75.96886342866951 L140.85282567677262,74.5392378294655 L144.1511580537517,74.13483096649314 L144.5868720501632,74.57846123757997 L145.19642012804428,77.82453639187436 L147.38853562294358,78.62929252387656 L148.07145522871772,79.68832454296503 L151.22981730633103,79.41105562353574 L152.41504967998938,80.13195481405198 L154.32270940520925,80.0115795270801 L155.50342660791975,79.29203286787833 L153.86329076132452,75.00045100763829 L151.26255229569898,72.31297128614545 L151.4273560352747,69.48482830796641 L153.0731358455536,67.49390221333266 L157.37835134377357,66.3131423759581 L159.59417148614418,66.21711265264352 L159.75558884750973,63.647303155493745 L161.53005102978614,60.472912160856794 L161.3855655594734,59.3137928245109 L163.05843639543664,58.23853042965076 L166.48093597346536,57.99913238702162 L170.091943938543,55.139881188613934 L171.3505478400935,54.64891232152698 L172.65656103659134,55.47801401718631 L174.2718634429766,57.48246542496304 L177.0295040990198,58.5252670682802 L178.16168321404714,57.82195078484976 L181.0005969471424,57.878757100049874 L182.9816282002554,56.82378267490423 L184.24023210180684,55.56592855261509 L185.69863231777447,55.22644319272851 L186.3996126073372,56.20838092690256 L186.39171105818014,58.95807708885283 L190.6461308832426,59.902143946226595 L191.32566411080654,60.26732740108479 L194.42194258789593,58.80118345639515 L196.33298869132693,59.14066881628172 L198.3761035449657,63.497172179607695 L201.87648982183538,65.46916283584147 L204.30678058420253,64.58731241892482 L205.30350457081198,65.31226920338392 L207.03733021456233,69.14804801070848 L210.01621424702242,68.52723613744965 L211.67892594835413,68.56375448293545 L211.65747888635437,72.20071118705937 L213.27391008547642,73.28003117586218 L214.78874993828524,75.49277240603956 L216.22118792130524,76.06218808935529 L215.53036676637402,78.80512159473406 L215.97172472646818,79.49761762765033 L214.110345503458,80.99892738651131 L210.49933753838036,86.65791840549778 L208.4844425031617,90.81830472825175 L207.65139346339032,92.98235483111468 L208.97095217272985,98.182837734557 L210.42935238869748,100.88654783182135 L210.88086948342414,104.21512739628733 L211.6450621662494,106.92019002486599 L212.16543561792224,110.28934552876078 L211.92274517950653,114.07643320877074 L211.1585524966813,116.11469789940476 L206.12413689047747,124.39354207416962 L203.90154399168458,131.34284796698822 L201.26242657300742,134.21291941591005 L197.47758452645928,135.503234289742 L192.408176345415,137.87422168369125 L188.65832687370826,140.912007015585 L187.30377558952824,143.94843981616458 L183.83160913107966,149.3572125420077 L181.54015987534063,150.27287624178132 L178.62335944340535,152.7696490479595 L177.40764966585436,154.64155238693596 L171.15752428209763,166.58169882948204 L169.52528998466045,173.28078642915696 L167.61537267396616,176.85823175545227 L164.1432062155176,179.6457987942024 L159.6991492106695,182.0587146588946 L151.40026500959038,184.2227647617575 L147.4415888815727,184.05640341010002 L143.4140563966108,183.1826681810689 L139.1427046804955,181.31076484209268 L134.73364025048787,177.8983283361406 L129.83693735817542,172.61534102252665 L124.87137810891775,170.07663974560558 L122.23226069023963,169.03654316491708 L115.67058851112299,168.24666487737204 L112.96148594276193,167.5392909999988 L107.61439474845955,165.41716936787896 L104.24607722179857,164.37707278719031 L100.07970323020663,164.04435008387526 L89.93975807538033,164.0024216131323 L86.81525977986983,163.8360602614747 L81.3981834358855,162.00608539324122 L75.56458257201594,161.04849322272435 L73.62080147921691,160.25861493517945 L69.52328384457115,159.42545564557727 L64.34889793900153,158.76001023894702 L58.20375027977012,158.42728753563162 L52.751681360944346,159.17658988374797 L43.33416355768051,159.46062145974875 L42.88151767021711,158.33125781231718 L41.10705548794071,156.06982545482532 L39.446601372082455,153.35664763836115 L38.54130959715566,151.23046841229822 z"/>
	<path id="kirklareli-luleburgaz" title="Lüleburgaz" class="district" d="M358.01335876383405,435.0307615583106 L351.9190067777582,440.40031087603916 L350.1851811340069,442.4277553161589 L348.244786419419,444.69459779890775 L345.46682749411184,448.4532823213178 L339.28330088182975,457.1514112035123 L338.1183867774344,460.2121895677491 L337.4456263062908,463.80992286375835 L335.6982551496978,470.4129807401189 L335.11579809750106,477.0173911477938 L334.3990147096212,482.65474166575154 L333.7262542384796,489.7420057526276 L333.00947085060074,493.39384030120874 L332.15836112703977,496.23821365515914 L330.36583826097575,500.3729018829416 L327.184900328624,505.7424512006702 L324.85507211983526,509.2860832441082 L322.2103107374726,514.0645763774924 L319.5666781478466,520.0062464411651 L316.9377198638009,524.3018858953479 L314.3245646780694,527.8509280640433 L309.2043608238666,531.623137899596 L300.69100600279387,538.5494507600717 L296.5686549279372,540.482218008191 L289.39856346367617,542.3067827511675 L283.48368952275547,542.5218352301395 L279.4516418668448,543.0587901619122 L270.44500461978254,545.5826135943762 L260.09397522317084,549.4481480906151 L256.5089294910399,550.5220579541606 L251.6246433188333,551.3809153387343 L245.35081328760435,551.6500690702783 L239.03296033963915,551.0049116333619 L234.50763025774086,550.2001555013599 L231.28154061591817,549.1803468903856 L226.5756036961281,546.9243246581511 L216.94248648013098,541.5020266191652 L209.95187306102414,538.2261957759565 L205.33623956017996,534.6298150112614 L203.49969377737776,532.7497964843992 L200.7206060593348,529.0993144671323 L199.46651732873127,525.3406299447224 L198.16727688865475,520.1861331059656 L196.82288473910523,517.6095609522445 L192.87888291666695,513.1529702716612 L178.63013219982665,500.1592019352837 L173.43204164678386,497.04567484978986 L170.5637793025327,495.6498625334434 L163.17018687638136,492.64318542177807 L158.42812858901308,490.90112508897363 L156.83878841557544,485.0067936213008 L155.72015481338877,479.2098444082565 L155.64001052907537,473.0774674292689 L155.79917030496645,466.8977518542811 L156.71913638547267,461.3875392798665 L156.87942495409953,457.0756694499121 L155.6795182748637,450.94329247092435 L155.44021421465916,440.68975257729716 L155.59937399055028,438.53381766231985 L156.95956923841393,431.82661487475906 L159.91813500161103,421.14297002318796 L163.31692993216748,414.67516527825654 L166.95502892292853,407.39313668212276 L169.4744943115039,401.1160388525059 L174.3926442658151,387.4622352347554 L177.23155799890947,380.4669432772511 L178.15152407941565,377.6888439577009 L179.1911421900246,375.58024763872373 L185.1489102549448,367.53133378738806 L186.5079767100727,365.4227374684109 L193.3055665711837,356.6556294891878 L194.47612463926365,354.90680649981164 L204.94793485871486,359.19838836005164 L209.1605893525155,361.13115560817096 L214.65216601712964,363.1545424543479 L217.1806617475998,363.97688149343577 L226.05297265898085,367.4677648156164 L228.9663867127059,368.3793709214474 L232.46112902589095,368.97042710579177 L236.09132646749492,368.59442340041954 L239.94389607825053,366.9308098838437 L248.18972702069868,361.7763130450871 L252.22177467660947,359.0374371336512 L255.4038414016968,357.2115198593607 L260.87058462610105,355.9766587694145 L265.30674008179204,355.2787526112411 L279.06333716538063,353.5069365895222 L286.2774515463778,352.917232936492 L290.39980262123356,353.024082910321 L296.80795898814273,354.20484274769564 L299.9448740037572,355.4397038376418 L303.97692165966794,357.69572606987623 L306.620554249293,359.62849331799566 L308.14442444399657,361.5071593135436 L309.4436648840721,364.56793767778026 L311.63916675718065,371.01139685905446 L312.80520965431276,375.3597850344946 L314.5074291014338,383.78876018514563 L316.1656256318176,392.91699402528434 L317.24136511000376,396.56747604255105 L319.6152162355307,400.75626552290515 L323.15511025818773,404.24579631377156 L327.81589546850586,407.41342465183703 L333.05800893828297,409.6153456315 L337.98744681996243,410.7961054688746 L341.1469376903134,412.39344495105036 L343.849267502254,414.13280022122626 L347.9354972095305,416.7824090659191 L350.5565539444201,419.19802999323997 L351.8004835403922,420.72909544101526 L353.34580079709457,424.11177625805294 L357.0425970101712,433.1318075930484 L358.01335876383405,435.0307615583106 z"/>
	<path id="kirklareli-pehlivankoy" title="Pehlivanköy" class="district" d="M15.686643054822241,420.0203690323279 L20.248094504299644,423.48825932216545 L24.869371968828418,428.18154298274953 L27.81777859739399,431.39786244812944 L30.325956058601115,435.3526640111116 L31.73356060141215,437.0920192812875 L34.19771514588402,439.4643592065509 L37.674396775280485,441.7853029418713 L44.054333323769555,444.79062752222234 L49.42287158007073,446.0552443010828 L57.695793548202246,447.84870082383037 L65.92469259959847,447.9528457350306 L69.0920850191075,449.1133176026908 L71.90842289746534,451.06366775789616 L72.17256039788079,451.9603960192699 L71.82037706399385,454.86022315710613 L70.94104752201272,458.0237939012288 L67.28827422567329,468.14749078868437 L65.11647700003796,481.43475842026254 L62.39382891883524,481.5551337072344 L60.041424855308065,475.3537776312178 L58.83135904144075,473.5021622619557 L56.74760764927689,473.3006350961266 L53.689708125239136,472.33492773772406 L51.27070529024023,474.6301733780732 L49.11922633386693,474.06616782001447 L48.951036216081036,473.05853199086874 L46.901148606021934,472.7772054774968 L45.75881035636304,473.9444400017284 L45.321967567215765,476.15988629453443 L44.313955653237116,476.15988629453443 L45.38856633868751,478.21302882962544 L45.08604988522045,479.220664658771 L43.72133946640889,480.71791682368934 L39.4206391391358,483.586635741297 L35.07704468786417,491.235200323603 L29.757044519245134,504.4616040460382 L25.809656318596673,514.4757458970363 L24.149202202739396,508.19053287953386 L23.243910427811613,502.2664457229465 L20.94117324470529,497.69894747459165 L18.412677514235128,492.3172253750344 L15.0917692825196,488.20282511696644 L12.751781939098372,484.4941842531851 L10.902819436191201,478.79596982608416 L9.883519594846241,469.70695939405994 L8.638461206136498,465.5925591359918 L6.751119750178667,461.74866514078155 L2.2980324034357835,455.2822129271644 L2.0338949030213023,454.33138341321916 L2.2980324034357835,449.3121397058913 L3.958486519294034,444.65402185947914 L7.279394751009562,438.2335557105478 L12.110627664586048,426.70187372491705 L15.686643054822241,420.0203690323279 z"/>
	<path id="kirklareli-pinarhisar" title="Pınarhisar" class="district" d="M343.849267502254,414.13280022122626 L341.1469376903134,412.39344495105036 L337.98744681996243,410.7961054688746 L333.05800893828297,409.6153456315 L327.81589546850586,407.41342465183703 L323.15511025818773,404.24579631377156 L319.6152162355307,400.75626552290515 L317.24136511000376,396.56747604255105 L316.1656256318176,392.91699402528434 L314.5074291014338,383.78876018514563 L312.80520965431276,375.3597850344946 L311.63916675718065,371.01139685905446 L309.4436648840721,364.56793767778026 L308.14442444399657,361.5071593135436 L306.620554249293,359.62849331799566 L303.97692165966794,357.69572606987623 L299.9448740037572,355.4397038376418 L296.80795898814273,354.20484274769564 L290.39980262123356,353.024082910321 L286.2774515463778,352.917232936492 L279.06333716538063,353.5069365895222 L265.30674008179204,355.2787526112411 L260.87058462610105,355.9766587694145 L255.4038414016968,357.2115198593607 L252.22177467660947,359.0374371336512 L248.18972702069868,361.7763130450871 L239.94389607825053,366.9308098838437 L236.09132646749492,368.59442340041954 L232.46112902589095,368.97042710579177 L228.9663867127059,368.3793709214474 L226.05297265898085,367.4677648156164 L217.1806617475998,363.97688149343577 L214.65216601712964,363.1545424543479 L215.48521505690107,362.19154015857384 L220.2543643699527,353.8951130767232 L224.0335624528153,346.9958508425336 L225.87123702835325,343.3981175465238 L228.59049873134575,335.1016904646732 L230.3931807320423,331.88401846797905 L233.57186107891954,328.83676541688516 L238.90653555311604,324.0109336875008 L245.33613898202594,317.0278145118251 L250.38748647928168,308.4771115428881 L253.70839471099714,302.0011916100709 L255.15663579233325,294.5081681289081 L255.79214610316194,290.6142304750691 L256.3226786894653,285.66126080214167 L256.39266383914827,279.65061164143987 L257.20539460965665,273.97944784062486 L258.40643008163016,267.883589207123 L260.38520374926964,265.1744689846016 L265.08323911990266,260.3486372552172 L268.12082037467644,257.59758856195276 L273.10218272224927,253.57651296457064 L281.15724769217593,248.3273389338137 L289.0700847772634,245.87249459837864 L298.22007870190157,243.50285973574373 L303.02422058979374,240.8775964547083 L307.8283624776868,237.53413904578503 L313.76355468787057,232.6663788456578 L320.08705159951944,228.26388941764597 L321.1469879793904,227.375276344158 L324.29067575142625,223.56519563180507 L325.73891683276133,220.9412848820837 L327.68947068198173,218.3092589444768 L329.40523564194444,220.5801590211686 L334.94535039424073,226.14853044209767 L341.2011197416811,230.38871611239446 L345.6688813940034,233.5576969817744 L349.2798893590801,235.7420350543518 L353.35483113898937,238.8690874529886 L356.0718352565084,240.58139209687891 L362.6131891663621,243.27969206888608 L370.2980101186113,245.20704919174835 L376.80324266088866,245.67908262043528 L376.67456028889217,247.62672771301192 L374.03995804115993,257.01735262812247 L371.63675830447715,261.90945839190715 L367.7830599009838,267.90658223946593 L363.9959602689632,274.8910539464559 L361.5600255429114,279.1528801177814 L358.463747065824,289.37125419723714 L356.71863349470345,293.55463355233417 L351.9438402179681,301.60354740366984 L350.2314616362166,306.2995361268821 L349.0789642519271,310.59923317500795 L348.2560743467873,315.9268540219937 L348.38701430425726,320.26712700954806 L349.21103300213485,325.47572510087616 L349.1444342306621,328.5919572489987 L348.74935677277574,331.2753793765487 L347.9264668676358,333.91957809598426 L346.60916574377165,336.2865078959908 L344.56717968286864,339.0876002478839 L341.60409874872465,342.40265449920696 L340.0892588959168,345.00627727921403 L339.4966427090886,346.7821508948758 L340.28679762485956,352.1476426186614 L341.99917620661114,357.11954772998894 L345.4239333701133,363.5116107213202 L348.519083054465,368.12780009698963 L351.351224031139,372.9820349839741 L352.0759089681759,375.5072109477523 L352.8660638839478,383.55612479908797 L352.3716526652216,388.3305603385292 L351.0543515413564,398.90465015364293 L350.49559913663205,404.58663420497226 L349.7709141995951,407.1916095162935 L345.71967706716,410.7027808081887 L343.849267502254,414.13280022122626 z"/>
	<path id="kirklareli-vize" title="Vize" class="district" d="M358.01335876383405,435.0307615583106 L357.0425970101712,433.1318075930484 L353.34580079709457,424.11177625805294 L351.8004835403922,420.72909544101526 L350.5565539444201,419.19802999323997 L347.9354972095305,416.7824090659191 L343.849267502254,414.13280022122626 L345.71967706716,410.7027808081887 L349.7709141995951,407.1916095162935 L350.49559913663205,404.58663420497226 L351.0543515413564,398.90465015364293 L352.3716526652216,388.3305603385292 L352.8660638839478,383.55612479908797 L352.0759089681759,375.5072109477523 L351.351224031139,372.9820349839741 L348.519083054465,368.12780009698963 L345.4239333701133,363.5116107213202 L341.99917620661114,357.11954772998894 L340.28679762485956,352.1476426186614 L339.4966427090886,346.7821508948758 L340.0892588959168,345.00627727921403 L341.60409874872465,342.40265449920696 L344.56717968286864,339.0876002478839 L346.60916574377165,336.2865078959908 L347.9264668676358,333.91957809598426 L348.74935677277574,331.2753793765487 L349.1444342306621,328.5919572489987 L349.21103300213485,325.47572510087616 L348.38701430425726,320.26712700954806 L348.2560743467873,315.9268540219937 L349.0789642519271,310.59923317500795 L350.2314616362166,306.2995361268821 L351.9438402179681,301.60354740366984 L356.71863349470345,293.55463355233417 L358.463747065824,289.37125419723714 L361.5600255429114,279.1528801177814 L363.9959602689632,274.8910539464559 L367.7830599009838,267.90658223946593 L371.63675830447715,261.90945839190715 L374.03995804115993,257.01735262812247 L376.67456028889217,247.62672771301192 L376.80324266088866,245.67908262043528 L387.38454577581115,245.33553966660577 L394.2476056156581,243.1944825960858 L398.85872394555537,242.93750164637083 L406.2579603353904,242.93750164637083 L411.40525521527564,243.53667301860102 L413.6933180928045,244.13719692214553 L418.30443642270177,246.3634634654656 L420.34190731265693,246.57851594443764 L426.91938259008873,245.8495015660357 L429.38579472003306,245.97799204089324 L439.03697261981875,246.87742536489566 L450.6183860995618,247.0059158397531 L460.59126992933886,246.70700641929517 L466.0602707392176,247.90534916375555 L470.63639649427336,248.7195730149577 L474.24627566661525,250.4332301901623 L484.1119241863946,255.3577967054897 L487.93627397873,257.45692530526657 L492.9763335486176,259.55605390504365 L496.30175695128105,261.3116395509911 L499.41158094121204,262.55461582882305 L511.4569282357859,265.3381252736304 L513.8161050557333,265.0811443239155 L519.9714118495963,263.3093283021966 L526.1131731306174,259.94152532961607 L533.4051742104547,256.9429634058366 L538.1596492179289,253.94440148205734 L542.0551129526831,250.94719208959225 L544.7122910551508,247.92157953952687 L548.0173961885513,252.19016836742406 L549.1044235941055,257.5867683114384 L549.3267957632593,262.7980714653952 L550.3810881794456,266.00627574288944 L556.3828791611012,273.3451106542231 L559.0389284708319,278.14253922600733 L562.2018057193933,283.13337977573514 L565.9832613877301,286.3104758330005 L569.9667709559569,288.64764994409245 L573.673726303664,291.6989605891292 L576.6187465540194,296.7533701106283 L578.543338170293,300.8542450555535 L574.3431003965964,303.34696026778863 L571.0978212782475,307.2476605781992 L572.029075286121,312.1330036854121 L573.4468389635643,315.914681240165 L576.166100666556,320.33069598131965 L580.1687997113089,325.3607599391615 L584.4830455514236,330.0283455047738 L593.1386282573368,338.5655231605682 L594.5902557168829,339.7746861555429 L596.1050955696909,341.9752546038916 L597.6368673135526,344.96705387109944 L596.8184925793595,348.28210812242264 L597.377244984084,348.4633473185372 L593.0449384601797,349.8929729177412 L592.7887025089223,351.16976247843024 L591.8709940138905,351.5647016222027 L591.2467716304309,353.41225939752206 L589.0061180478485,354.7323299602684 L586.9133363137898,358.3408835067921 L584.416446779952,361.0243056343423 L586.6571003625334,361.7276219177727 L587.2801939532561,363.9714713681786 L586.9867078416829,365.731114608069 L585.1874122191965,366.5236979582425 L584.9311762679392,367.71122045218857 L585.9583776584433,368.900095477449 L585.4086555956135,371.62679860705606 L583.3881165967102,372.02309028214285 L581.0898945845518,370.8166323497969 L577.1018698453773,369.9564224339088 L574.9515196817407,369.2585162757355 L573.2481714418839,367.75585398556007 L571.1869959044566,365.3402330582395 L564.0180332329323,358.896773876965 L560.2535094556463,353.903228264609 L557.9090069412771,352.88341965363486 L554.234786582939,353.2594233590072 L552.1284593360385,354.0641794910094 L547.4236512089863,356.6948528973021 L542.1352572369975,361.68839850965827 L535.8625559985053,363.78211698417795 L532.1883356401661,365.8771879900122 L530.1711830194749,366.6819441220144 L528.1551591915186,366.89699660098637 L523.1816983931038,365.9299367112697 L517.8492815043808,363.72936826292096 L515.249671831491,363.67526701034916 L511.17247246610737,365.50118428463986 L509.15644863815294,367.5408015065882 L503.107248361551,376.07797916238223 L500.14981139108966,380.8023710431949 L496.9677446660032,384.0241006338318 L490.4252619634119,388.53479256698705 L480.52236328331674,394.65499676414595 L474.92129372323126,396.69596651740864 L469.32022416314504,397.0706176914666 L462.59939220813624,397.17882019660976 L457.3109982361495,396.7487152386659 L454.398712975161,396.7487152386659 L450.76964432629387,397.28567017043866 L443.2857484811976,399.54033987135904 L439.2085491158158,401.0984559454204 L431.9944347348186,405.17904292063116 L429.43997677140084,406.30570150543406 L423.8840589207874,408.3466712586968 L419.31244833667944,410.3335397593876 L414.5184655834169,411.29924711779023 L408.91739602333155,412.21220575493555 L403.53982742513557,412.6950594341369 L396.14623499898516,414.41277420328424 L390.67949177457905,416.23869147757495 L386.10900998320784,419.1385186154111 L378.84974389273765,422.89720313782124 L371.68078122121335,426.38673392868765 L364.42151513074316,430.7351221041278 L358.01335876383405,435.0307615583106 z"/>
	
</g></g></svg>