<svg xmlns="http://www.w3.org/2000/svg" version="1.2" baseProfile="tiny" width="600" height="600" stroke-linecap="round" stroke-linejoin="round"><rect id="backgroundrect" width="100%" height="100%" x="0" y="0" fill="none" stroke="none" class="" style=""/>































































































































































































































































































































































































































































































































































































































<g class="currentLayer" style=""><title>Layer 1</title><g class="city city-40" id="kirsehir" title="Kırşehir">
	<path id="kirsehir-cicekdagi" title="Çiçekdağı" class="district" d="M559.8403443877263,229.80490996354183 L556.47834518704,230.526287608985 L553.3181983005669,236.00357416241135 L550.1591544322056,245.21877761717676 L540.5551757444179,243.50388584926637 L533.143997060228,243.09496119596113 L524.7941499640355,243.32102165571095 L518.7099020667291,243.07912256502343 L511.2876932014336,241.80771246337363 L495.65351450375385,236.84158172657908 L481.36391488272574,232.90496200074656 L477.65336195913426,231.51260235375295 L475.7043289579479,229.99785328587592 L474.4524034025748,223.57888812941604 L474.91015591841585,219.06631818766058 L475.0149426389094,212.98140415643573 L473.8667007859195,207.62074752173405 L472.3699052100234,203.7604411995112 L469.41271365587545,198.08301194605178 L468.05600138000875,196.8562379861361 L462.87071324272927,193.81378097052388 L460.82461464782324,193.4350937035545 L457.1592854667605,193.19319461286688 L454.60800457726253,193.55604324889822 L447.23101945449673,197.73456206541834 L443.10242266703915,198.40122444034907 L435.40115021979744,198.88502262172432 L432.61713250899254,199.85405886001462 L429.46250071307344,200.03548317803015 L424.71290472942684,199.23347250235759 L419.25627413697407,197.61361252007467 L407.7506922267508,193.67699279424215 L402.833437490313,191.9203446356775 L397.08119804425655,189.49847397772197 L389.19461855445775,184.8347171042867 L379.72962014858786,175.2062693695967 L372.3074112832934,169.33157716718367 L366.4150885372076,164.97163403264798 L362.64497263565016,163.3373752949669 L364.19802213518057,161.13004609244263 L365.7852651961341,157.88600650125713 L368.13248773519655,153.92058926462857 L370.41022013329905,150.72118581517722 L373.3442483071264,146.9818290382981 L375.72676742572355,142.11504971375018 L376.1745927785705,139.6370239097422 L376.0367155147633,135.8976671328632 L373.58580927331775,130.76163108237128 L372.65486198808793,126.66086554500068 L372.481688144746,122.02014668020242 L373.10268734093495,116.29808128500902 L373.31005474570213,109.94391052784026 L374.20791148761833,108.05191406853385 L378.3839380538247,103.81724010596113 L380.90323141811854,102.2852125316065 L382.25001653099235,101.06851770046946 L383.52731150290714,96.06639007517968 L382.8026286043329,94.35437805834893 L378.1423770876343,89.48903860934092 L374.7947171223832,87.59560227449457 L369.82451751664473,85.41851045830616 L367.4078048366235,85.10317771508838 L363.5075327980316,85.19244999855651 L357.57108932752766,85.05710169781467 L355.39593761369775,84.47251222865303 L352.5997867036787,84.20181562716928 L348.28588287366307,83.39116569825781 L343.2461931269658,81.49772936341144 L338.79330901503226,80.1471261070724 L336.75713758312014,78.6597346744518 L335.8250872797809,77.30769154257283 L332.0284989435722,70.77497621846808 L324.05478102304653,60.41075208293661 L322.81278263066645,57.39277295150104 L322.53702810305185,51.57999539729981 L321.46599751779377,47.25460927571935 L320.33430093646007,44.88457413719681 L317.6694091815851,40.3604851911229 L315.21960595825004,36.665764555977994 L311.3877210425077,32.52036287687332 L309.76518140201836,30.26839753261518 L302.89668762817513,24.54489226188182 L295.30351095575867,19.76882509634178 L293.1978493828877,18.64284242421271 L291.26536165335966,17.031621695168454 L294.87112785645854,12.9913309304699 L296.6260296702023,11.865348258340573 L299.1475290707173,10.907831024368996 L302.75329527381507,10.241168649438272 L307.15764658888816,10.575219774673387 L311.5289073606466,11.616249789954125 L313.8264940847371,11.907104648994991 L317.6241854390563,10.616976165327971 L319.53902487881754,9.44923710254432 L321.9965492289254,7.116638728056974 L324.70887076255025,5.575971900463321 L326.0810252919647,5.492459119154417 L330.3706627235492,1.6407920501704658 L333.6190510588584,2.3348120603574563 L342.72115650638597,3.3931205821157757 L350.66619595603913,2.1749858754388836 L355.78089093424916,2.1274699826252474 L358.3663653851703,5.251999904006633 L360.7952112644067,10.62705529410648 L363.26155975939804,12.648640551995696 L371.57059518550517,20.874649510913663 L372.523602832943,21.990553054264208 L376.75257426845195,29.128016105087962 L388.4809658369892,39.61750941258253 L405.2920648585314,47.49362861532728 L424.571718411287,54.9464244093688 L443.424503955294,61.51945624858827 L471.00878086171343,71.0658310775092 L483.2169853083008,72.70728919288919 L489.5427941717974,75.17811561919831 L489.75788270333743,80.24215789269978 L490.27630121525397,86.08949245985626 L487.8904730423261,89.05707594739876 L484.7237080471909,90.41199883035718 L483.038296374406,92.66396417461554 L482.6048102569953,95.1549488584818 L482.8198987885353,96.76760946306574 L483.9868919494026,96.69705556161504 L486.9131989964571,97.43283196245653 L487.75921388718115,98.22188375827088 L486.7124497003532,101.48032210485422 L487.00695553584615,104.71572244280097 L488.56662314403894,107.7481003296347 L490.31711288534143,108.91151976579873 L492.0984871337365,109.57530238964974 L494.9299346232913,110.11525571707755 L498.3989265806923,111.40250444966505 L502.4392819193126,113.43848846295215 L514.6265290218014,118.71419244080528 L516.1222215795868,119.83441561077538 L518.7948344612348,122.4103529514902 L521.2126501593666,125.1936323699372 L522.4855330588382,127.47727497607134 L523.2179370841853,129.72060106709083 L523.1219745085751,130.8005077219462 L521.6582694759927,134.9545486542896 L518.604012328125,141.5175013647303 L517.6179141373724,144.05024243925092 L515.708589788164,151.77661458585587 L514.2448847555816,155.80538634623602 L513.3536461223288,160.33379491892927 L512.8440517552946,165.56630263058827 L511.4123342479162,171.09110507682806 L511.4763092983235,176.5741511324134 L511.98590366535655,179.77211470632508 L514.5625539713942,184.71520743448283 L517.935583353185,187.91317100839436 L520.9898405010539,189.94915502168163 L530.8210409195967,194.62299102389525 L539.2867049173875,200.12475546149827 L547.3365310875355,205.94041276677905 L551.2180518182487,210.21828299554593 L558.4417174236614,223.71855605677723 L559.8403443877263,229.80490996354183 z"/>
	<path id="kirsehir-akcakent" title="Akçakent" class="district" d="M362.64497263565016,163.3373752949669 L360.74667846754636,163.92340463966846 L351.52985913653015,165.2754477715473 L350.3926474646447,162.6606337912576 L346.3324378000366,156.73698582049127 L335.70375528762986,151.54047499732744 L330.8085609134021,149.30722803508655 L320.06075244506565,149.41089907395266 L306.3678856217973,152.52822961763513 L292.55478982448847,151.22946188072902 L287.6242988707261,150.1121184618389 L280.48887471415173,147.8515138643416 L276.578675512565,144.96744315810798 L274.15975679632345,141.65572941655165 L272.1004219840916,135.30299853492286 L271.4187567918262,131.06832457235012 L271.25881916580977,128.15833610640004 L271.33933948787325,122.0791815773346 L271.6967173556628,116.5702177620325 L272.2548445195563,114.28513528035874 L272.89128596929316,105.34638792923631 L272.41367912746307,88.77054071497702 L270.38302278610377,83.73097632565232 L268.8707849566609,80.92465889856823 L267.23942117128814,78.68997206078777 L265.0896388739989,76.29977866470799 L261.94493424107276,73.3912300742975 L257.789865018965,70.49132073712613 L257.9486996268708,69.35381906067838 L258.0126746772779,61.814630734248674 L257.46998976693123,58.23078051566877 L256.193797813127,53.44031459473051 L256.42432859821383,50.46697160502901 L257.2493861448384,48.62249103853603 L260.972072267646,46.28413316188931 L263.0810428948487,43.778749722625015 L263.44283283507946,42.5894125267444 L263.4483479256323,39.61894928812236 L263.88514309737474,37.395781454660096 L264.6693889739128,36.177646747983374 L267.3298686563456,33.804731858381295 L271.70333546432516,32.32022017684018 L280.4469600259536,29.987621802352674 L282.2978244153077,29.028664692841236 L287.6584924321503,24.238198771902965 L290.4347890161813,19.156877991923675 L291.26536165335966,17.031621695168454 L293.1978493828877,18.64284242421271 L295.30351095575867,19.76882509634178 L302.89668762817513,24.54489226188182 L309.76518140201836,30.26839753261518 L311.3877210425077,32.52036287687332 L315.21960595825004,36.665764555977994 L317.6694091815851,40.3604851911229 L320.33430093646007,44.88457413719681 L321.46599751779377,47.25460927571935 L322.53702810305185,51.57999539729981 L322.81278263066645,57.39277295150104 L324.05478102304653,60.41075208293661 L332.0284989435722,70.77497621846808 L335.8250872797809,77.30769154257283 L336.75713758312014,78.6597346744518 L338.79330901503226,80.1471261070724 L343.2461931269658,81.49772936341144 L348.28588287366307,83.39116569825781 L352.5997867036787,84.20181562716928 L355.39593761369775,84.47251222865303 L357.57108932752766,85.05710169781467 L363.5075327980316,85.19244999855651 L367.4078048366235,85.10317771508838 L369.82451751664473,85.41851045830616 L374.7947171223832,87.59560227449457 L378.1423770876343,89.48903860934092 L382.8026286043329,94.35437805834893 L383.52731150290714,96.06639007517968 L382.25001653099235,101.06851770046946 L380.90323141811854,102.2852125316065 L378.3839380538247,103.81724010596113 L374.20791148761833,108.05191406853385 L373.31005474570213,109.94391052784026 L373.10268734093495,116.29808128500902 L372.481688144746,122.02014668020242 L372.65486198808793,126.66086554500068 L373.58580927331775,130.76163108237128 L376.0367155147633,135.8976671328632 L376.1745927785705,139.6370239097422 L375.72676742572355,142.11504971375018 L373.3442483071264,146.9818290382981 L370.41022013329905,150.72118581517722 L368.13248773519655,153.92058926462857 L365.7852651961341,157.88600650125713 L364.19802213518057,161.13004609244263 L362.64497263565016,163.3373752949669 z"/>
	<path id="kirsehir-akpinar" title="Akpınar" class="district" d="M257.789865018965,70.49132073712613 L261.94493424107276,73.3912300742975 L265.0896388739989,76.29977866470799 L267.23942117128814,78.68997206078777 L268.8707849566609,80.92465889856823 L270.38302278610377,83.73097632565232 L272.41367912746307,88.77054071497702 L272.89128596929316,105.34638792923631 L272.2548445195563,114.28513528035874 L271.6967173556628,116.5702177620325 L271.33933948787325,122.0791815773346 L271.25881916580977,128.15833610640004 L271.4187567918262,131.06832457235012 L272.1004219840916,135.30299853492286 L274.15975679632345,141.65572941655165 L276.578675512565,144.96744315810798 L280.48887471415173,147.8515138643416 L287.6242988707261,150.1121184618389 L292.55478982448847,151.22946188072902 L306.3678856217973,152.52822961763513 L320.06075244506565,149.41089907395266 L330.8085609134021,149.30722803508655 L335.70375528762986,151.54047499732744 L346.3324378000366,156.73698582049127 L350.3926474646447,162.6606337912576 L351.52985913653015,165.2754477715473 L345.6629058069861,166.31071828466867 L341.7626337683943,167.75347357555515 L339.0348699812238,169.24086500817597 L332.92635568548826,175.3675354300551 L331.0622550788087,176.53959411945806 L326.36781000068373,178.88227162272426 L322.8591093913068,181.70586755628594 L321.65020154224135,183.50859173212433 L318.6819798069888,187.02332792479345 L315.472197105546,189.63670202954333 L314.6096369431657,193.8267398503819 L314.5401468022057,195.4480397082047 L314.88539147078006,200.58551563423654 L314.71332064554866,208.37956193121218 L313.8154639036325,212.84029635353468 L313.0212908641004,221.9878256579291 L310.22624297219096,231.17855122851782 L308.46582606789445,235.2346806241545 L304.18501278119345,242.8948184959281 L302.3904023154737,246.58953913107294 L298.6280075406892,256.6369906478468 L297.5922735349657,262.13443545883024 L296.59183610877704,264.65709740457237 L295.00349002971296,267.6765164115478 L291.7253202054217,271.7312059316447 L288.65341476778616,276.8672419821364 L286.5477531949151,280.83265921876523 L285.1325809591941,284.887348738862 L281.88750167821644,295.0255124146437 L280.99074795441084,296.15293496231254 L274.05276403960875,298.4049003065709 L270.8484964287176,299.78286119816653 L269.0946976330844,298.031972541761 L264.3484107037695,291.8376279695109 L261.92397689697424,287.3927321781265 L260.6345487258454,277.6303760182341 L260.2220199525331,272.91622350090574 L260.3257036549162,266.5865306279138 L260.0157555658764,261.46921295943935 L259.91317488160394,253.59165388115485 L259.7069104949473,250.5621557454007 L258.8807499302122,245.10790720061163 L257.90126984812093,241.40454731222772 L254.96062356563135,233.66089665914524 L251.1960227546267,229.14976659292964 L246.7596839143506,221.6753726657909 L243.5609313940123,219.11671383155385 L239.7246344058276,217.6681990385079 L237.17225049821909,217.06201143624904 L232.06527664678296,215.24488850501257 L224.67615832480212,213.22474312266303 L221.85243196202123,212.61855552040444 L219.60779010723135,211.6092027669997 L217.01680056575748,209.48826609686384 L214.3088911045748,205.90153612720417 L213.88312611393692,202.5178286086576 L212.52861987429026,196.55962362493585 L209.78210477924122,191.4595844629391 L206.919772782594,187.52008498602703 L204.05633776783614,186.10612720593645 L201.89001019888963,185.7015221792507 L195.89400375042075,185.44954395978445 L190.59400172965468,184.54098249416612 L187.80888100073923,184.38835568694665 L182.43056469412872,184.43875133083986 L172.7593019016031,185.39914831589118 L163.54358558869745,184.64033390641288 L163.7498499753541,181.26094601448557 L162.43064031524221,178.76132207738056 L158.64287612391797,174.09612532840535 L153.28220810707538,169.26390301681278 L151.41038637362183,166.986019912838 L150.85667128217062,165.3762390593337 L151.24824271138434,161.00189716939985 L157.4692648543862,159.19629324248174 L160.14739282658695,157.275499272379 L161.50520812056521,156.7758624600659 L165.59961134659756,155.96377265561478 L170.14073690736734,154.22872263014725 L176.77539084179315,150.9443665238474 L182.06546569956626,148.07325469747184 L184.45460292682574,146.47787259936564 L189.79982869012267,141.74212194894008 L195.07666733056908,138.40017082104796 L197.8231824256181,136.86958312223294 L203.83132207330212,134.0531865663703 L206.595485458118,133.29437215689194 L208.68460175933174,131.91353151421697 L209.6607727870903,123.00934117604997 L210.63914985106987,115.95539090653497 L211.48957681423514,112.62351890742148 L212.6808363735337,109.84599899113348 L214.29786092347024,107.84601186634151 L219.23386696778553,104.34711430461019 L221.23363880205133,102.62502315900099 L224.59563800273864,100.45801047159121 L230.89276839536282,96.0145545557466 L232.38184284448607,94.57035938931998 L232.93445491782668,93.40406020207642 L234.01430964796836,89.14202860424734 L236.85458128240646,85.97574229221165 L239.50292776562523,85.1838107453176 L244.03522918151063,85.30907991728091 L249.61980987477781,82.56035751178912 L255.01246541682343,77.89372088727434 L256.6085326226614,75.93549015313675 L257.2780646157108,74.14428498161665 L257.789865018965,70.49132073712613 z"/>
	<path id="kirsehir-boztepe" title="Boztepe" class="district" d="M395.9528105172546,373.82414120612646 L392.9779706733398,372.48217720302637 L388.9486455158242,371.8414325878123 L384.91932035830854,370.9271116200347 L382.67688453974074,370.69817140920543 L380.01419882108684,369.09702980893974 L374.9336974043009,364.57006111178646 L371.0797521263495,360.08772855636687 L369.1174829078385,356.9315213731097 L368.0663066485683,354.4606949468007 L365.82387083000054,348.24043261483416 L364.8079911502651,344.58170886818436 L361.47908249289236,337.8128539555512 L360.8128595541746,336.07492417900403 L360.77866599274944,331.8215318344139 L361.54967565196284,326.4695144529509 L362.31958229306474,322.39898630191635 L362.8810185112899,317.916653746497 L362.9858052317835,312.3817721714785 L362.49496217262777,307.4890750872138 L361.61916579292176,302.0909816884771 L361.338999192864,297.37970892222836 L361.47908249289236,292.21199560986076 L362.14530543161106,289.0097124093296 L365.6484909504374,282.0119172858673 L368.59134326914807,275.4259265667895 L369.67781610795305,272.6815237879172 L370.69369578768755,268.1084790734899 L371.6753819059988,261.2013961090355 L373.46227124494567,257.26765613428245 L380.01419882108684,248.71479542782834 L391.9620909936054,233.39307980874096 L398.02317551059093,225.29809952394567 L400.26561132915873,221.8208000953116 L403.3485469478988,217.7056358025427 L407.72863186454066,213.54295561696054 L410.1817441422073,211.7589498231395 L415.8578753386414,209.88423187031063 L419.88720049615813,206.95696489788287 L422.79475623533403,203.2060891166855 L424.71290472942684,199.23347250235759 L429.46250071307344,200.03548317803015 L432.61713250899254,199.85405886001462 L435.40115021979744,198.88502262172432 L443.10242266703915,198.40122444034907 L447.23101945449673,197.73456206541834 L454.60800457726253,193.55604324889822 L457.1592854667605,193.19319461286688 L460.82461464782324,193.4350937035545 L462.87071324272927,193.81378097052388 L468.05600138000875,196.8562379861361 L469.41271365587545,198.08301194605178 L472.3699052100234,203.7604411995112 L473.8667007859195,207.62074752173405 L475.0149426389094,212.98140415643573 L474.91015591841585,219.06631818766058 L474.4524034025748,223.57888812941604 L475.7043289579479,229.99785328587592 L477.65336195913426,231.51260235375295 L481.36391488272574,232.90496200074656 L495.65351450375385,236.84158172657908 L511.2876932014336,241.80771246337363 L518.7099020667291,243.07912256502343 L524.7941499640355,243.32102165571095 L533.143997060228,243.09496119596113 L540.5551757444179,243.50388584926637 L550.1591544322056,245.21877761717676 L546.5544912472183,256.0452018009862 L542.8527624685095,265.4547884536256 L542.1115342982789,268.6124355124225 L541.6681210178732,273.05877117934676 L541.1243330894168,276.53895035906066 L542.7534908385676,280.4698105827339 L546.2092465786428,284.91614624965814 L551.8368449782178,288.4611198286631 L557.9144747668605,290.6900471642847 L555.5970337167811,295.1003859427136 L554.291060273995,297.07877493440856 L551.3647532269405,299.8073390823432 L548.4902880310782,303.353752536888 L547.0795278677983,306.2191048611039 L546.8181125756179,309.56249586453623 L546.7464163984379,314.3544016610142 L546.0018791738768,319.06135480064347 L545.2176332973386,322.07933393207907 L543.5322216245539,324.0246057863585 L537.5362151760849,328.2707987532498 L532.8329459530777,329.7034749153577 L530.5596256274164,331.3910090480116 L526.7122984581272,337.2412233662477 L518.2984763115275,342.15263883253 L513.8566223806996,344.33549015087715 L511.7145612101833,343.65298914500875 L503.0194694454151,340.46222494879623 L497.3521623938645,338.52127272113637 L494.4721821074492,337.3088975166186 L489.2703486985136,331.2455816184911 L485.3678706237005,329.91081699308995 L478.5865152805841,328.8193913339162 L469.20314021488815,328.45654269788474 L460.65585287692244,328.45654269788474 L453.9671510550844,330.76034356157606 L444.1194053648852,335.00509665292725 L435.258860883548,337.60695175335877 L430.1629172132165,338.83516558881433 L427.7329683158704,339.75524605875114 L422.8730705211764,343.4902832090106 L416.0542125623041,349.1187566941164 L413.38932080742904,352.5456604788575 L411.4689662771161,354.6435591403563 L407.2752914211409,360.5268905960081 L402.9635936273474,365.08121692841803 L401.6311477499109,365.7464394278087 L399.2795131384062,367.74066705044163 L397.0845070985883,370.96454838406953 L395.9528105172546,373.82414120612646 z"/>
	<path id="kirsehir-kaman" title="Kaman" class="district" d="M126.40606882757177,392.70090953299757 L121.09834568003173,387.89892460774104 L116.62229818777861,383.8399154610246 L109.80344022890631,376.8622785951194 L106.86169092830511,374.4605661947212 L93.36295529247835,366.72843454595727 L90.5237866761507,364.78748231829707 L77.9339379633436,354.89985698644193 L69.02265464892592,348.1540400824458 L67.49056249349407,346.7271234224968 L63.57264216513539,339.5464641054788 L61.760383409646764,336.3096238919926 L57.729955234021595,326.5458278565609 L54.91615603423371,319.38676667263985 L51.58835039497261,312.4566456995483 L51.55305381543788,309.46746407890873 L50.575779769567774,307.0700713051299 L46.77588237902842,302.412073933854 L44.45072020217609,301.0125149091616 L41.30932462358161,300.10683319462294 L37.21161234321762,300.6395871443517 L34.75188195688866,299.9297285032268 L28.127155185456864,296.51146397172454 L26.421889186684048,295.39700030391396 L25.889131439331354,294.4538818253403 L25.726987777092837,291.47189958239983 L24.531316145353063,289.07882643524044 L19.59310406481671,285.9082204965853 L18.64781754415175,283.77432494659115 L19.337203863190144,281.3524542886356 L20.773333443010745,279.55980924157575 L23.83089964521013,279.46333758040873 L27.220474298658317,278.45110507592415 L28.156936674439855,276.1516238388524 L28.166863837433844,272.50729884760074 L27.526010315255817,270.6138625127544 L23.97870407201137,265.712526175251 L21.525591794345754,263.4360829468159 L18.887172474122014,262.18627097826334 L17.276766032847796,260.9882945291438 L14.257805464514853,257.22589974362813 L11.477096808041622,252.4671110845656 L9.0769293996776,247.0402201750326 L8.11840666168594,243.59747775935384 L8.139364005785486,241.01146128986025 L7.669478290729392,239.5024717241424 L10.4700412731906,228.78403820581855 L12.24700344914347,226.46439871118923 L13.808877093557287,225.80781546503727 L16.052415930235597,223.46369808623132 L21.66016000382136,218.55948199764842 L24.18165940433636,217.14264446647823 L28.61689522650196,215.8928324979258 L34.48936364659875,213.7690160767102 L36.11631535952924,213.97635815444235 L39.75517210594169,215.3931956856127 L44.22239545331035,216.8100332167828 L51.27509325160118,218.4759692163395 L54.848871929495914,218.93384963799818 L56.476926660536954,219.5169992316202 L60.91216248270257,222.72504193431027 L65.44446389858898,225.72430268372864 L67.99684780619648,226.43272144931368 L70.70916933982137,225.1411530901066 L72.62400877958252,223.18292235596897 L75.9110027487571,216.76827682612847 L78.62332428238201,213.64374690474693 L82.16621845318423,211.18587935829626 L85.67602208067285,208.43571707726466 L89.63365106100849,205.60348189046422 L93.07947963808991,202.68773392235485 L100.06820238597355,198.60424689146188 L104.82331346017288,195.60498614204377 L108.55702976408502,193.02328929916976 L110.21707202032916,191.0650585650321 L115.4189054292649,182.06727631677748 L117.5885420525421,179.77499445740463 L119.85414125143055,178.19257123915665 L123.58785755534262,176.9010028799496 L127.36900363800459,176.81749009864086 L131.0718354348242,177.81820359880686 L133.92203423225635,179.7620355775463 L135.79385596570887,183.53882911846046 L137.02813323131505,184.92686913883435 L140.0062821295605,187.53736349250468 L144.5595408895454,190.53662424192274 L147.4957750995938,191.53733774208874 L154.2186704828569,193.53588499134108 L157.83546686706026,194.09167694970645 L159.87715338952418,193.98080653314128 L160.85553045350377,193.03624817902798 L161.83501053559291,191.09241620028843 L162.98325238858288,187.64823390906986 L163.54358558869745,184.64033390641288 L172.7593019016031,185.39914831589118 L182.43056469412872,184.43875133083986 L187.80888100073923,184.38835568694665 L190.59400172965468,184.54098249416612 L195.89400375042075,185.44954395978445 L201.89001019888963,185.7015221792507 L204.05633776783614,186.10612720593645 L206.919772782594,187.52008498602703 L209.78210477924122,191.4595844629391 L212.52861987429026,196.55962362493585 L213.88312611393692,202.5178286086576 L214.3088911045748,205.90153612720417 L217.01680056575748,209.48826609686384 L219.60779010723135,211.6092027669997 L221.85243196202123,212.61855552040444 L224.67615832480212,213.22474312266303 L232.06527664678296,215.24488850501257 L237.17225049821909,217.06201143624904 L239.7246344058276,217.6681990385079 L243.5609313940123,219.11671383155385 L246.7596839143506,221.6753726657909 L251.1960227546267,229.14976659292964 L254.96062356563135,233.66089665914524 L257.90126984812093,241.40454731222772 L258.8807499302122,245.10790720061163 L259.7069104949473,250.5621557454007 L259.91317488160394,253.59165388115485 L260.0157555658764,261.46921295943935 L260.3257036549162,266.5865306279138 L260.2220199525331,272.91622350090574 L260.6345487258454,277.6303760182341 L261.92397689697424,287.3927321781265 L264.3484107037695,291.8376279695109 L269.0946976330844,298.031972541761 L270.8484964287176,299.78286119816653 L266.079046119082,301.64893989775635 L263.80131372098066,303.2256036138451 L260.6599181423861,305.83897771859506 L252.6178130990112,311.6517552727963 L247.23287868373833,314.89579486398156 L245.6456356227848,316.02321741165065 L241.88324084800132,322.3759482932794 L240.2959977870468,324.4479291950619 L238.5697744441743,325.9799567694164 L234.01320662985884,330.75602393495683 L231.63179052937218,333.8647152254 L228.8709361988869,336.9287703741095 L227.83520219316344,338.41616180673043 L225.90271446363545,342.8768962290528 L225.62585691790932,346.03022366123025 L225.69534705886932,348.86965822572984 L225.14273498552757,352.6090150026089 L224.00331727742108,355.08704080661676 L219.4820460426392,358.601776999286 L217.37638446976817,361.4412115637856 L212.88930679641152,369.4152423032373 L209.74901423592758,374.2820216277852 L206.3318641297176,376.53542684758315 L203.08678484873994,379.2827093775352 L198.5302170344244,381.0854335533736 L192.6974572663046,381.98679564129293 L187.45150313294963,382.6174611277286 L184.51747495912235,383.3388387731718 L182.5154970886344,384.3294731445591 L171.64304757381626,387.88884547896225 L166.53386768615906,388.2948903811879 L164.04876788328932,387.84420933722834 L158.9064974523174,383.9248681178734 L153.58995015989402,381.53611459733327 L150.65702500417726,381.0854335533736 L144.6852849541386,383.3834749149057 L141.78545034173553,384.82479033025277 L137.19468896599474,387.93492149623603 L126.40606882757177,392.70090953299757 z"/>
	<path id="kirsehir-merkez" title="Merkez" class="district" d="M351.52985913653015,165.2754477715473 L360.74667846754636,163.92340463966846 L362.64497263565016,163.3373752949669 L366.4150885372076,164.97163403264798 L372.3074112832934,169.33157716718367 L379.72962014858786,175.2062693695967 L389.19461855445775,184.8347171042867 L397.08119804425655,189.49847397772197 L402.833437490313,191.9203446356775 L407.7506922267508,193.67699279424215 L419.25627413697407,197.61361252007467 L424.71290472942684,199.23347250235759 L422.79475623533403,203.2060891166855 L419.88720049615813,206.95696489788287 L415.8578753386414,209.88423187031063 L410.1817441422073,211.7589498231395 L407.72863186454066,213.54295561696054 L403.3485469478988,217.7056358025427 L400.26561132915873,221.8208000953116 L398.02317551059093,225.29809952394567 L391.9620909936054,233.39307980874096 L380.01419882108684,248.71479542782834 L373.46227124494567,257.26765613428245 L371.6753819059988,261.2013961090355 L370.69369578768755,268.1084790734899 L369.67781610795305,272.6815237879172 L368.59134326914807,275.4259265667895 L365.6484909504374,282.0119172858673 L362.14530543161106,289.0097124093296 L361.47908249289236,292.21199560986076 L361.338999192864,297.37970892222836 L361.61916579292176,302.0909816884771 L362.49496217262777,307.4890750872138 L362.9858052317835,312.3817721714785 L362.8810185112899,317.916653746497 L362.31958229306474,322.39898630191635 L361.54967565196284,326.4695144529509 L360.77866599274944,331.8215318344139 L360.8128595541746,336.07492417900403 L361.47908249289236,337.8128539555512 L364.8079911502651,344.58170886818436 L365.82387083000054,348.24043261483416 L368.0663066485683,354.4606949468007 L369.1174829078385,356.9315213731097 L371.0797521263495,360.08772855636687 L374.9336974043009,364.57006111178646 L380.01419882108684,369.09702980893974 L382.67688453974074,370.69817140920543 L384.91932035830854,370.9271116200347 L388.9486455158242,371.8414325878123 L392.9779706733398,372.48217720302637 L395.9528105172546,373.82414120612646 L393.98833526252355,377.3086400124597 L390.225940487739,384.4705809474601 L389.40308897733456,387.64262676165515 L388.8934946103015,394.8060075721954 L387.561048732864,403.2479978620846 L385.2877284072026,411.33145914256136 L383.4842937965985,419.9260762396699 L383.5240024485754,422.94549524664535 L384.6998197543273,429.6481158844475 L388.9376153347196,442.6804293952414 L389.2023396812307,446.3261942620329 L389.11409823239325,448.6285552501844 L387.50258877300956,455.253422608837 L385.22926844734826,463.38871940874697 L382.64158796020604,476.02650702163396 L382.2114108971259,490.60668673772034 L383.07286804139676,504.5749193493889 L382.9559481216879,507.38843615417215 L381.85844510177856,512.3689656463648 L381.7194648198607,514.9045864719649 L382.0536793073307,516.2019143333313 L383.1522853453496,517.7181032767481 L385.57451311592274,522.6352782451893 L386.3091231774899,525.048509649906 L387.390080925742,527.3782282733137 L388.5239835432968,528.7821069246255 L395.47851272975635,535.0426857717067 L393.31108214270023,537.7021358937309 L392.015035862908,540.8439443215898 L391.1260032658753,544.8064818071388 L391.1260032658753,548.1412335573323 L391.8672314361057,551.2355260923774 L392.12644069206397,553.7005930165273 L392.12644069206397,557.4212314113886 L391.50544149587387,562.069149653886 L390.6660447138132,566.7487451582595 L389.827750949862,570.4319467890858 L386.81430547208174,575.9581891108651 L385.5723070797016,577.2065612038779 L381.3609839339606,579.094238036565 L378.42474972391216,580.9862344958717 L373.23835856852213,587.6067822279048 L370.30212435847375,590.8421825658512 L366.6180438695326,592.559954084841 L363.7579179091065,593.4929934346359 L359.03369134199966,595.5462559544011 L355.25806034989046,596.9904511208272 L352.0162901232445,597.5879994698474 L348.73701728084177,597.0898025330739 L346.3346438362566,595.5462559544011 L343.0167653599895,591.4642087990479 L341.491291313221,589.2252023346476 L340.72910579889196,585.8400549405612 L340.2327476491846,576.7789181685554 L339.2797400017458,570.6061717294024 L337.5259412061125,566.2750261056626 L335.82839633411146,563.7034083915673 L327.795115435621,558.5256159504211 L323.42164862764133,556.2693309795432 L317.8282437894919,552.6854807609632 L312.1852031363703,547.6401568694794 L308.9301966923988,543.3925240270484 L305.4733379342128,537.3522461375575 L304.2015580528507,531.7108137725935 L303.5408502046848,527.7281180294868 L303.64232787084677,523.0154053876983 L303.1845753550058,518.4366011711116 L302.3209121745148,512.9261974802697 L301.2531906435883,510.0061298855412 L300.08288842838823,508.5460960881769 L295.8120023046812,507.0860622908124 L284.47297612913763,500.11706467814645 L277.3552002623301,493.1466271899401 L274.64729080114745,488.82988032159835 L273.2872694709481,486.3100981269363 L270.897029225578,479.67371176396523 L269.01638334724106,475.02723339700776 L267.8471841501526,472.96965125062343 L266.37244893646556,468.1907043340035 L264.38922237385594,463.1453804425197 L260.7768380620949,457.4204352962465 L258.4693241750093,456.04535415573093 L258.17150928518475,454.18935458491944 L257.97406904341256,448.32618138682517 L257.2262227645187,446.43418492751846 L255.91583724929137,445.56450010147523 L254.4752955970285,445.54434184391766 L250.45810363872795,446.4889001980313 L242.4424710300043,449.45648368557363 L231.78621306483683,453.97913275610745 L230.1019044101625,454.4197346712883 L226.3064190920643,454.31606363242247 L224.57578367674972,453.8869807215601 L218.77832048816458,450.94963462035355 L216.62853819087542,449.10947368047994 L214.38720539041717,446.5824921081186 L213.4562581051884,445.0605436625427 L212.04329190568743,441.1556011985857 L209.20412328935984,436.77262005541286 L204.4843087946952,434.8763039694869 L202.4139438013589,434.7308765399665 L193.27543875618596,434.6185662478614 L182.05333250035113,435.04476940764437 L178.91855503042004,435.0534086608833 L171.59672081317697,434.69343977593144 L166.83609464842482,433.6380110052528 L165.08119283468108,432.66465514034326 L163.52483428082004,430.9324848659553 L161.43682099771584,424.41272842170906 L159.49440610519383,418.8389702071155 L158.31748578133147,417.2291893536112 L155.61398839259,415.35159164970287 L150.754090597897,413.0089141464367 L145.13641936131728,409.8368683322416 L142.18805195205377,407.26381074260644 L132.4704623988879,398.1897150907421 L126.40606882757177,392.70090953299757 L137.19468896599474,387.93492149623603 L141.78545034173553,384.82479033025277 L144.6852849541386,383.3834749149057 L150.65702500417726,381.0854335533736 L153.58995015989402,381.53611459733327 L158.9064974523174,383.9248681178734 L164.04876788328932,387.84420933722834 L166.53386768615906,388.2948903811879 L171.64304757381626,387.88884547896225 L182.5154970886344,384.3294731445591 L184.51747495912235,383.3388387731718 L187.45150313294963,382.6174611277286 L192.6974572663046,381.98679564129293 L198.5302170344244,381.0854335533736 L203.08678484873994,379.2827093775352 L206.3318641297176,376.53542684758315 L209.74901423592758,374.2820216277852 L212.88930679641152,369.4152423032373 L217.37638446976817,361.4412115637856 L219.4820460426392,358.601776999286 L224.00331727742108,355.08704080661676 L225.14273498552757,352.6090150026089 L225.69534705886932,348.86965822572984 L225.62585691790932,346.03022366123025 L225.90271446363545,342.8768962290528 L227.83520219316344,338.41616180673043 L228.8709361988869,336.9287703741095 L231.63179052937218,333.8647152254 L234.01320662985884,330.75602393495683 L238.5697744441743,325.9799567694164 L240.2959977870468,324.4479291950619 L241.88324084800132,322.3759482932794 L245.6456356227848,316.02321741165065 L247.23287868373833,314.89579486398156 L252.6178130990112,311.6517552727963 L260.6599181423861,305.83897771859506 L263.80131372098066,303.2256036138451 L266.079046119082,301.64893989775635 L270.8484964287176,299.78286119816653 L274.05276403960875,298.4049003065709 L280.99074795441084,296.15293496231254 L281.88750167821644,295.0255124146437 L285.1325809591941,284.887348738862 L286.5477531949151,280.83265921876523 L288.65341476778616,276.8672419821364 L291.7253202054217,271.7312059316447 L295.00349002971296,267.6765164115478 L296.59183610877704,264.65709740457237 L297.5922735349657,262.13443545883024 L298.6280075406892,256.6369906478468 L302.3904023154737,246.58953913107294 L304.18501278119345,242.8948184959281 L308.46582606789445,235.2346806241545 L310.22624297219096,231.17855122851782 L313.0212908641004,221.9878256579291 L313.8154639036325,212.84029635353468 L314.71332064554866,208.37956193121218 L314.88539147078006,200.58551563423654 L314.5401468022057,195.4480397082047 L314.6096369431657,193.8267398503819 L315.472197105546,189.63670202954333 L318.6819798069888,187.02332792479345 L321.65020154224135,183.50859173212433 L322.8591093913068,181.70586755628594 L326.36781000068373,178.88227162272426 L331.0622550788087,176.53959411945806 L332.92635568548826,175.3675354300551 L339.0348699812238,169.24086500817597 L341.7626337683943,167.75347357555515 L345.6629058069861,166.31071828466867 L351.52985913653015,165.2754477715473 z"/>
	<path id="kirsehir-mucur" title="Mucur" class="district" d="M557.9144747668605,290.6900471642847 L563.6589930861429,292.76778756822625 L565.0289415793364,292.5748442458921 L571.545572575943,293.1061583200809 L575.2109017570054,293.9758431461245 L576.2841383784848,294.50715722031316 L579.4310490476322,297.35955066467113 L582.1709460340179,302.24072874461706 L584.0229134414824,306.010322907832 L587.502935579988,311.76262568936124 L588.5772752195778,313.01963703561296 L592.464311040844,315.62869151374343 L592.6860176810474,319.25429812297773 L591.9094929312822,321.2355668657523 L590.575944035734,322.49257821200376 L584.1332152525288,325.77837419384355 L579.5799564925438,330.51556471980905 L577.4092168511551,333.2700466274598 L575.3818695641276,334.79343494857585 L570.43924541115,336.93165012518944 L568.5233029532782,338.16418358726423 L566.6900868536922,339.7955625738655 L564.8855492249764,341.86178397348874 L563.9413657224209,343.8545717205818 L561.9967447936777,349.1115573164176 L559.5259842262443,355.310221515287 L558.3589910653769,358.89839136048624 L558.3038401598533,361.43689193716614 L560.0256514302833,365.7133222903932 L561.1915415730411,367.3447012769948 L562.7887117969898,370.6319371343741 L563.676641375911,373.14451995133754 L563.861948418469,375.07827280129857 L563.047921052948,379.76650755891035 L561.6779725597547,382.4734735737477 L560.048814810603,384.06885567185395 L555.9753689286691,386.77438181115144 L552.6431512169647,388.46623557042494 L539.4995874127064,393.97663926126654 L535.4636441465276,399.0032447707331 L533.4649753303723,401.9031541079046 L529.6882413201525,414.8073186956557 L528.4285946380056,419.4955534532676 L525.2452843712131,428.0023381424479 L524.0474067032521,432.3363635172674 L524.3805181726115,433.35147577283124 L527.898042926873,434.8503862097705 L532.933320601129,436.0584417876686 L534.5624783502808,435.76758692862745 L537.0067664830639,434.17364470606105 L538.2653101471002,432.7236900374754 L541.2644163894454,430.83745308032826 L543.5233974796703,429.9677682542847 L545.2264574422221,430.20966734497233 L546.4850011062595,431.4666786912238 L547.3740337032913,434.12468893770756 L548.040256642009,437.17002570439956 L548.151661471166,439.68260852136314 L548.8542840075299,443.8884849731397 L548.5586751539264,448.81861882143914 L548.1880610688112,451.6206166219034 L547.1887266607331,453.3614261495303 L545.5959685092267,454.28006674392736 L543.6336992907159,454.7624250497629 L541.4122208162465,454.23111097557387 L538.7098264456166,453.1195270588429 L534.6738831794378,450.55798847352605 L531.0449535960192,448.62423562356537 L520.1228682662302,445.3859555345389 L517.9013897917608,445.33843964172524 L514.4952698666564,446.25564036058245 L513.0878187577072,448.91509048260616 L512.6444054773015,452.7811563069879 L511.82927509367084,456.4067629162223 L509.2007829364411,462.157625822212 L506.97930446197165,467.5715578518866 L504.6464211583455,469.98766900768294 L500.2398638070524,473.9516463687719 L494.3905587672753,479.8954525970955 L490.50241992789955,483.18268845447506 L487.54081630130935,485.2129129656031 L485.17153340003887,486.32449688233396 L480.8763808779016,487.19418170837764 L478.1364838915159,488.5951806086098 L475.6557961610886,490.86730421042546 L474.24834505213937,492.5591579696991 L472.1007687910712,495.990381381059 L470.17600218831603,501.1624143200462 L468.95385812192495,507.54250283693136 L466.2139611355382,515.5165335763827 L464.39949634382833,522.3804202746436 L462.99314825299086,525.9570711155241 L461.40039010148456,529.1953512045505 L458.9197023710559,532.9649453677653 L454.995163934035,539.9253037271927 L453.8105224833987,544.4205951624707 L451.70044883808646,549.7366156554382 L449.9973888755337,553.1678390667984 L446.18315224955825,559.1620409390156 L444.1833804152924,561.2887371113105 L440.1849397648692,564.2361623412955 L435.3978411654658,565.7077151429786 L431.65750675289144,560.7934199256172 L428.70913934362784,558.6408059936055 L419.0676580400842,549.9223596000733 L417.45394254447945,548.2117874587825 L415.1155441503014,543.5969863537011 L414.2507779516999,542.3730921448648 L412.2267397190029,540.9692134935532 L408.29999524576084,539.1780083220328 L403.50627853769413,537.4947938159985 L400.28656867325725,537.6891770138725 L398.3838624327122,537.4343190433265 L395.47851272975635,535.0426857717067 L388.5239835432968,528.7821069246255 L387.390080925742,527.3782282733137 L386.3091231774899,525.048509649906 L385.57451311592274,522.6352782451893 L383.1522853453496,517.7181032767481 L382.0536793073307,516.2019143333313 L381.7194648198607,514.9045864719649 L381.85844510177856,512.3689656463648 L382.9559481216879,507.38843615417215 L383.07286804139676,504.5749193493889 L382.2114108971259,490.60668673772034 L382.64158796020604,476.02650702163396 L385.22926844734826,463.38871940874697 L387.50258877300956,455.253422608837 L389.11409823239325,448.6285552501844 L389.2023396812307,446.3261942620329 L388.9376153347196,442.6804293952414 L384.6998197543273,429.6481158844475 L383.5240024485754,422.94549524664535 L383.4842937965985,419.9260762396699 L385.2877284072026,411.33145914256136 L387.561048732864,403.2479978620846 L388.8934946103015,394.8060075721954 L389.40308897733456,387.64262676165515 L390.225940487739,384.4705809474601 L393.98833526252355,377.3086400124597 L395.9528105172546,373.82414120612646 L397.0845070985883,370.96454838406953 L399.2795131384062,367.74066705044163 L401.6311477499109,365.7464394278087 L402.9635936273474,365.08121692841803 L407.2752914211409,360.5268905960081 L411.4689662771161,354.6435591403563 L413.38932080742904,352.5456604788575 L416.0542125623041,349.1187566941164 L422.8730705211764,343.4902832090106 L427.7329683158704,339.75524605875114 L430.1629172132165,338.83516558881433 L435.258860883548,337.60695175335877 L444.1194053648852,335.00509665292725 L453.9671510550844,330.76034356157606 L460.65585287692244,328.45654269788474 L469.20314021488815,328.45654269788474 L478.5865152805841,328.8193913339162 L485.3678706237005,329.91081699308995 L489.2703486985136,331.2455816184911 L494.4721821074492,337.3088975166186 L497.3521623938645,338.52127272113637 L503.0194694454151,340.46222494879623 L511.7145612101833,343.65298914500875 L513.8566223806996,344.33549015087715 L518.2984763115275,342.15263883253 L526.7122984581272,337.2412233662477 L530.5596256274164,331.3910090480116 L532.8329459530777,329.7034749153577 L537.5362151760849,328.2707987532498 L543.5322216245539,324.0246057863585 L545.2176332973386,322.07933393207907 L546.0018791738768,319.06135480064347 L546.7464163984379,314.3544016610142 L546.8181125756179,309.56249586453623 L547.0795278677983,306.2191048611039 L548.4902880310782,303.353752536888 L551.3647532269405,299.8073390823432 L554.291060273995,297.07877493440856 L555.5970337167811,295.1003859427136 L557.9144747668605,290.6900471642847 z"/>
	
</g></g></svg>