<svg xmlns="http://www.w3.org/2000/svg" version="1.2" baseProfile="tiny" width="600" height="600" stroke-linecap="round" stroke-linejoin="round" style=""><rect id="backgroundrect" width="100%" height="100%" x="0" y="0" fill="none" stroke="none" class="" style=""/>































































































































































































































































































































































































































































































































































































































<g class="currentLayer" style=""><title>Layer 1</title><g class="city city-56" id="siirt" title="Siirt">
	<path id="siirt-sirvan" title="Åirvan" class="district" d="M229.94737614772043,255.68373547221378 L229.20946761653937,253.74435627128918 L227.19535574104796,251.5363959923372 L224.32318868891255,247.12271361008328 L223.58244204799604,246.49154807671806 L220.29496493792786,245.75630737561752 L215.8665677142646,245.50451261496653 L215.424768632134,242.18753630132557 L215.18352930463305,238.69710137479143 L214.54022443129682,235.93743079805753 L213.97638663054758,235.01754060581288 L210.3029265964771,231.71846969737345 L209.5782625773945,230.86236751116058 L209.09578392239163,228.4193987889343 L209.47136044403092,223.97885829887736 L210.32941562067307,222.29686929772944 L211.48263420978782,221.18673417521498 L213.38700584218208,218.80755345902045 L214.35196315218778,217.03156108056265 L215.82683417797017,212.65368950871232 L215.96117137210942,210.27450879251745 L215.77291009300038,207.4510502097521 L216.2024106996104,203.8028238998769 L217.5703795920292,199.29849540378854 L219.12566372698015,192.6365655808781 L219.20607683614776,188.4176044801943 L220.037642988593,187.783081683354 L223.3894505859949,187.4977142879497 L225.8567139825587,186.48270163057032 L226.50001885589583,185.68926836256344 L227.67972646920748,182.5804423843938 L228.38546975672074,181.71762567123002 L230.04103376898556,183.92558595018198 L231.1933063215215,185.03348289704613 L232.74196820042275,186.0138038318468 L236.01903890812792,186.52410788009934 L238.39642882974084,186.43905720539064 L239.6924989421984,185.58743137047804 L245.67050408134264,180.47543818535235 L248.65997966920185,178.43086472886688 L253.30501926932772,176.00244414836695 L256.22259607722657,174.8945472015031 L259.9320055012781,173.27634620638668 L261.660414330083,172.89249908237215 L263.85711126521346,173.06260043178958 L267.6384194692263,173.02007509443538 L273.58047521838853,174.34059872807117 L277.7222233587846,172.72239773295473 L279.0901922512053,172.59370263306636 L280.782651690029,171.95470348492574 L282.79960167525593,169.74002867902286 L284.8165516604837,167.86555657195515 L287.8410306017461,163.5626638843875 L288.63380925447666,161.56061576525656 L290.5419650331833,158.28056934984403 L291.51449063581657,154.3615237862909 L291.98277874214403,153.72252463815022 L294.10757689731327,152.2318996550967 L298.64476832749585,149.9735804240145 L303.4345515241221,148.7381074650874 L309.4485060532456,147.67273585557777 L315.39150783898657,147.50263450616035 L318.41598678024997,147.54515984351454 L323.78190625314323,148.01405764223807 L326.0864513582161,148.01405764223807 L330.516740655036,148.78063280244194 L333.82976075272234,149.8885297493058 L336.42284701421806,151.2515787202961 L338.36695218290583,152.61462769128605 L339.37542717552014,153.80757531285894 L341.89661465705376,159.04714451004787 L343.08294452641417,162.41671795146942 L342.91738812518685,164.66944174342618 L342.9400930030704,171.0169078874793 L344.1160164700669,175.9453706692861 L345.796177433371,178.64908685476428 L348.026931685325,180.15202180389383 L353.2045898791102,181.3270640202649 L354.8610999279538,183.54285791399263 L355.7976761406069,185.67248204518677 L357.70583191931354,191.42347437845348 L359.6868325145602,195.2999946046521 L361.30739317342363,197.38709339849174 L363.3233971220717,199.56036195486558 L365.196549547377,201.178562949982 L369.62589280761904,204.67235513999128 L372.4346754089986,205.60903164961258 L374.919913500552,206.20550546039902 L377.3323067755663,206.5043019097048 L382.37468173863533,208.42129935412697 L387.01972133876023,208.46382469148122 L388.60433260764256,208.8890780650251 L390.5493838129091,210.03950034924347 L392.566333798136,211.70134576953922 L398.04010144097253,219.02801376056811 L399.12047521354725,220.77490985557262 L401.3531215386579,223.4584824601987 L404.5223440764226,225.84437770334415 L408.33960167041556,227.71884981041217 L411.8692641445626,230.1472703909118 L415.1822842422498,234.79036577731463 L417.66657629722533,237.1762610204601 L414.856847659267,242.20544170652738 L411.60815804891536,246.12336818225538 L409.24306660282303,248.3615438324855 L407.0984016795057,249.74249820867763 L402.49309561567424,251.271172177785 L400.6010224588015,253.0997616840231 L397.91995479551053,258.5463621288583 L395.20766792513245,262.7250360678381 L393.94660116607537,265.262008167374 L390.3440938753883,269.5704962940674 L386.2401871981281,272.4901964297927 L384.9601997075026,272.1007538666527 L383.1400253305902,272.19587633178753 L375.0523586215337,273.7771474286752 L372.49522175001806,274.4318138063673 L366.02149344377443,276.40364655422013 L364.86354467176756,276.3700739194668 L362.4199321896643,275.47704183502486 L360.8788386033915,275.3584185255629 L354.3057764564109,276.53234165410845 L353.03903347788474,277.15679266052274 L350.19713959626046,281.97110848416787 L348.7288908265259,283.829913361684 L346.9030402301426,285.6965518539763 L342.680878980578,291.7552933391494 L341.1416774674609,292.7333760983 L338.6980649853595,293.304110889109 L331.417367477708,293.07357879713516 L329.38906505353935,292.11899688231176 L326.2094361134126,289.3660408325288 L325.0467571585146,287.41435166552776 L324.1622129576756,284.67482466964606 L323.15468400164,284.3066447751833 L321.23517578399156,284.80016250605894 L319.82558128212077,284.82813970168684 L316.18523252829505,284.3558846394881 L315.10958893861243,283.9216785633437 L313.1125057215318,281.71036102091625 L309.51662068689353,278.3855510924992 L304.87347315992434,274.3825739420622 L302.7288082366088,273.39330030466067 L298.1632357090718,272.5830807192772 L296.2238607232752,272.5965097731787 L293.04896196604153,273.6260705722844 L288.867480289351,271.8478400181766 L284.7370845878958,270.48814831066176 L277.46584744602853,266.8667801085893 L273.3969441221716,264.54355378365005 L271.12645633392316,264.12389584923204 L268.61945940106494,263.25660278476795 L264.76341430735636,261.0743815257932 L262.3510210323421,260.51483761323584 L259.3464088592259,260.1791112657013 L254.63987688150274,259.2838410056091 L251.42240647823826,259.115977831842 L244.1842806166175,257.66004457136717 L238.74362425402657,257.1844322456931 L229.94737614772043,255.68373547221378 z"/>
	<path id="siirt-baykan" title="Baykan" class="district" d="M228.38546975672074,181.71762567123002 L227.67972646920748,182.5804423843938 L226.50001885589583,185.68926836256344 L225.8567139825587,186.48270163057032 L223.3894505859949,187.4977142879497 L220.037642988593,187.783081683354 L219.20607683614776,188.4176044801943 L219.12566372698015,192.6365655808781 L217.5703795920292,199.29849540378854 L216.2024106996104,203.8028238998769 L215.77291009300038,207.4510502097521 L215.96117137210942,210.27450879251745 L215.82683417797017,212.65368950871232 L214.35196315218778,217.03156108056265 L213.38700584218208,218.80755345902045 L211.48263420978782,221.18673417521498 L210.32941562067307,222.29686929772944 L209.47136044403092,223.97885829887736 L209.09578392239163,228.4193987889343 L209.5782625773945,230.86236751116058 L210.3029265964771,231.71846969737345 L213.97638663054758,235.01754060581288 L214.54022443129682,235.93743079805753 L215.18352930463305,238.69710137479143 L215.424768632134,242.18753630132557 L215.8665677142646,245.50451261496653 L211.55737109948453,245.33553035337428 L209.45433178561916,245.12514184225265 L205.900072360431,243.79342733036566 L200.5388830704298,242.35763765074302 L197.75469742008954,241.3761976281169 L191.56383405079788,237.8723336476816 L186.76553652496622,234.54416645578908 L183.47805941489804,231.2853827090538 L182.47147649544127,230.79522224165368 L179.83487255133778,230.40913694198883 L177.28814208218517,230.40913694198883 L171.2751335896405,231.4252686871934 L166.45034703961193,231.238381020399 L162.21967146084282,229.44112597326426 L161.77314219581922,229.40643425068583 L160.46193549810562,229.3706234402819 L157.78086783481655,229.79363863817548 L154.9209992582008,230.9921816988738 L149.05178832557772,234.0584823396892 L145.14844140294713,236.3492551176999 L142.61590148247177,237.22997723606545 L139.8752335147411,237.5119873679946 L137.5214945075887,237.26466895864394 L131.65228357496562,236.13774751875312 L129.18028999551066,235.96093164238476 L125.81334581285367,235.9967424527887 L124.23441076344221,236.41975765068227 L123.07267784512206,237.1594747030831 L120.7785391424122,237.44148483501226 L117.50146843470702,237.19416642566188 L115.56493155864683,236.4902601836643 L112.7646632864727,234.76238858168676 L107.72891057945337,232.0497196936077 L105.40544474281211,231.06268423185617 L101.50304385676034,228.5950955774772 L98.5230286346835,225.70561081303003 L97.80877101796295,224.29556015338494 L97.57320790993195,220.64621475568455 L99.14930484960888,218.64864298785392 L99.11240942304991,216.47425534365527 L98.24867802693689,215.45364724715043 L96.29795060220039,211.85801806505543 L95.77290030116676,209.81568278422031 L95.54774359549968,205.46578840799782 L96.03495243339371,203.82408656855415 L98.5116761957417,201.2054210577847 L99.97519478258417,200.3179844124685 L105.26543132920382,198.1872411934492 L109.20567367839335,195.3022327803024 L110.44403555956688,193.4814768888401 L112.43260444744205,189.08793808743826 L112.99549621161158,186.15816616128666 L112.20744774177405,183.71743561471064 L112.1696062786363,182.07461468744182 L111.08166421343313,177.67995679821453 L107.29184168021581,167.5164011705191 L105.9409014462069,164.8082086337406 L104.29006761683512,162.3674780871643 L102.5644968977657,159.12659974563115 L102.33934019209862,156.72951362423453 L103.20212555163194,153.4897543705262 L105.79142766681532,148.25242334898755 L106.57853010007406,145.85533722759092 L110.03061757479077,141.59385078955262 L113.22822120990713,138.89684913102502 L114.75890839381783,136.88920557276865 L118.9612028752343,138.22092008465563 L122.26381657055853,140.39530772885428 L126.35353269914148,142.88192087625993 L128.15478634448453,143.63618607038745 L132.3949222890397,145.76692928940673 L134.15833447124595,147.09864380129375 L135.95958811658994,147.6749740312281 L137.98505243102315,147.9413169336054 L141.84582770762387,148.14163365430102 L148.86825722936078,148.78063280244194 L157.04390534021428,150.69763024686384 L159.31250105530512,151.4216800697135 L164.53367693169895,152.18825522991736 L170.5892570702735,152.65155758951514 L173.64495521862492,152.91342414059187 L174.54558204129597,153.25362683942703 L176.0223451402369,155.80962343198988 L176.9220259263301,159.1747205221111 L178.25499146534753,161.73071711467398 L179.40726401788442,162.5834620374117 L181.63991034299508,163.52013854703296 L184.41274355439356,165.30955997939196 L187.79860846861988,166.80018496244548 L190.53549229003727,167.6529298851832 L195.07268372022077,167.52535387312 L196.8370419390058,167.3116080985229 L199.75461874690558,167.73798055989192 L201.01473946938296,168.46203038274126 L205.12053821979887,171.40187409931895 L209.00969459375406,172.63734705824604 L210.59430586263548,172.63734705824604 L212.79100279776688,170.89045096324122 L213.97922474028303,170.421553164518 L218.26477044060255,170.12387580303738 L220.46146737573304,169.69750334166832 L221.613739928269,170.16640114039188 L224.4953673461877,172.42360128364896 L226.22377617499257,174.38312406542536 L226.69206428131818,175.2783943255176 L227.4479475074907,179.06986387700755 L228.38546975672074,181.71762567123002 z"/>
	<path id="siirt-eruh" title="Eruh" class="district" d="M307.9272792351191,305.77522561219166 L313.0793944412862,304.25886160916065 L314.2449115059206,306.3067923291212 L316.18901667460835,309.14927540491385 L317.28452703243903,310.15197809621685 L322.5851699814208,312.70237924965426 L324.10450472639155,313.8315388651954 L327.531995250068,317.92740030511686 L329.6170598689428,319.39116718036735 L333.82219246009475,320.3099382847869 L337.4265918239394,321.9818554955087 L339.29974424924467,322.60966376539847 L346.1556713331764,322.9442710251078 L349.30029691990086,322.98567727463717 L355.62549748332987,323.69629804358505 L360.43136330179004,324.86686390865555 L363.78884711866283,326.037429773726 L369.01853732426207,328.75457501310564 L371.2805107833051,330.6771678966534 L372.1641089475653,331.80632751219446 L372.6938894314901,333.77032664527144 L372.37602114113486,335.1501619336384 L370.71478090939917,339.1632108745012 L370.0790443286905,345.34952837173773 L370.04404097528817,348.86122596694884 L370.25595316885773,351.87045312868344 L370.85668639616506,354.0448407728821 L371.2455074299028,356.8447985113202 L371.35146352668846,364.41095129692343 L371.1386052965392,370.05451119897896 L371.6693318170428,374.8195871583192 L373.1177138186292,377.03538105204694 L376.0863766017643,379.1258371093621 L376.79306592585726,381.4244435021485 L377.07593086281025,383.8069814818188 L377.28784305637885,387.7786241731522 L378.06548512385524,392.62763171937604 L378.34835006080726,395.8875345539365 L379.65577261220756,401.2390125336368 L380.6093774832724,403.70436301236555 L383.8609052033586,408.09454455029226 L384.46163843066677,410.05854368336924 L386.4757503061591,411.64764839503266 L388.1719938912971,412.1904059902134 L391.70544051175835,413.73698536452264 L393.4726368402789,414.2394557979991 L395.23983316879844,414.4061998839414 L397.3561169947622,414.9825301138758 L396.4621124281399,417.0483662390381 L395.52459017890897,420.0721415424995 L393.9910648852619,422.8933619496145 L391.73382160911194,425.86565921312024 L389.94486643928667,427.8307774340225 L386.9733655464171,429.3684041057304 L384.09836038454716,430.3878931144104 L378.73149487507413,433.41166841787145 L373.715608936202,436.0952410224974 L368.1566980013057,440.66783387591795 L359.24408739585175,449.2456420554253 L356.01715662680397,452.83567579839456 L352.5347959815771,454.6497171629063 L349.75534051412893,455.63227627335726 L346.816950901505,455.8594511018558 L343.366755499945,455.4811994169668 L341.5134698427869,454.76386412106797 L334.5809137960018,453.3650043396741 L326.69002269525885,450.71948072110195 L320.3648221318298,446.1468878676814 L313.4001008413769,440.8189107323084 L310.4295459850852,439.34507206663176 L307.6822557613039,438.47554082651743 L304.58303993034383,437.15277901723135 L302.3787747025867,435.86806619399914 L296.46888419709137,432.8073609923091 L294.8076439653557,432.1269555946391 L293.59293299864265,431.9758787382487 L291.73680923174913,432.4570865030483 L288.86558821619343,432.6562841359187 L284.9357522693669,432.5052072795282 L280.814816933695,433.52469628820825 L278.51405597493635,433.7518711167065 L273.9144261305767,433.18449358937306 L272.41212004401865,433.33557044576355 L268.51539537743594,434.583353370767 L263.6272243766534,435.60396146727214 L258.00492899100215,436.1321709207262 L253.2766381719751,436.4354437213326 L251.1679226386388,436.7745273323423 L249.05920710530256,437.64405857245697 L246.43963181961084,438.02231025734574 L243.75667208316418,438.17338711373617 L239.85900138000358,438.02231025734574 L237.1117111562232,438.0603592433996 L233.6615157546641,437.41800283178355 L231.80823009750512,436.7745273323423 L229.66734932050292,435.5659124812182 L223.5341941824962,431.2193753684709 L220.27509816978068,428.30974702317167 L216.15416283411056,424.2664827110308 L211.52236774608315,420.97860268084247 L207.1772217413211,418.03092534948934 L204.97295651356396,416.70816354020326 L199.54176051675722,412.77792709839895 L197.43399101999884,411.4932142751668 L187.52993408034322,409.1129144711467 L183.7438956934383,403.2119643693148 L181.36650577182633,392.7361832384123 L179.16697072696132,388.6582272036926 L181.069450286198,382.12051612937034 L185.82423012942195,377.76054996272177 L195.5712449970575,373.4017028838984 L206.03251748141267,370.80094277833075 L215.6016774723031,361.5897308898084 L219.6431457353853,357.16038127800266 L228.0231377471799,349.91876396168277 L228.43939384169147,347.38738730127227 L237.59324377464728,338.2477970335572 L242.06421264434042,336.575879822835 L244.22685226264738,336.2558207048523 L247.18889278973273,334.6443342366864 L248.64011290105555,334.6443342366864 L252.1347720218012,335.34488321520854 L254.0306293249891,336.2558207048523 L256.518705526278,336.88698623821716 L261.1987484798061,337.37714670561763 L269.0773411050285,339.54929617416605 L272.83878254089416,340.7758164304921 L279.8877010868279,339.3042159404656 L283.02759649066024,338.2880841952614 L284.74559891710027,337.0615639389352 L286.522255611405,335.34488321520854 L289.78040558754265,330.9300817451292 L295.11226774361245,324.13386138320527 L300.2653289863593,318.56304218978204 L305.33040882731,313.76215542003814 L307.19693899656653,311.6605084844722 L308.23284904995376,309.94382776074553 L308.5592316695145,308.7519992269978 L308.41070392670076,306.47465550288865 L307.9272792351191,305.77522561219166 z"/>
	<path id="siirt-kurtalan" title="Kurtalan" class="district" d="M120.58270957067654,384.36764448220134 L120.09171658646736,383.03257270683923 L121.16168395667904,378.55062596725287 L122.0897458401258,373.9567704451555 L123.9051900341461,365.9676024616587 L124.91839520965254,362.27237446312836 L127.6619012871196,355.73130612533055 L128.5483375611153,353.2838610518037 L130.5747479121273,348.4404489447056 L130.91248297062884,347.19154693187704 L131.1660207736504,343.8465934226079 L131.0392518721387,340.40092200907856 L130.74314242308822,338.0541948398122 L129.85670614909253,335.75670753485093 L127.11320007162638,332.31103612132125 L121.28750682161103,325.7196088313932 L116.68693094067167,322.674570859255 L113.47892090319323,319.8779703842924 L109.80640690570156,317.930757568592 L107.10452643768464,316.88217227645936 L103.17847463717234,315.6332702636307 L100.09723350120284,314.83424155649845 L97.43792467921669,314.68428378793305 L92.4144704477161,313.9356140329311 L87.5177851177272,314.43472720293244 L82.15659582772415,314.0352128493664 L69.78811360124112,313.78565626436574 L63.87822309574484,314.1348116658015 L55.51998992525411,314.2847694343671 L52.058442084754134,314.43472720293244 L45.43145585280371,314.3854873386273 L39.859300405808966,313.3861419107997 L35.341975743773595,311.73884463223 L28.250485551809938,308.29317321870064 L23.14283406482935,305.29737511086756 L19.89225238131921,303.648958744473 L18.49968653786015,302.30045791520934 L17.06360301179337,300.5032028680743 L15.03813869735924,296.5080593324133 L13.265266149368792,291.31549182387914 L11.914325915360795,288.76844793391723 L9.380839958307561,286.57167853321613 L5.750897606844816,284.27419122825484 L4.315760117355904,283.07564816755655 L2.2467781203140547,280.92923771898575 L1.3603418463192902,278.8813069990251 L0.9809811783648428,275.28567781693016 L2.162580864833137,271.2916533690944 L7.312803997843577,266.7470377113018 L9.380839958307561,265.9983679562997 L10.056310075310634,265.2989380656028 L11.280481407807862,265.3985368820381 L12.673993287845711,264.99902252847215 L13.517857915811543,263.00256984846663 L14.193328032815543,262.75301326346596 L14.911369795849392,261.20419571350675 L16.811011245350617,260.60548372707 L18.710652694851838,259.00742631280565 L23.058636809348435,257.6096856192369 L23.56476637881181,256.0608680692777 L25.675373985304716,256.1112270214077 L26.6460075147804,254.5635285592736 L27.026314219312717,253.21502773000998 L28.20791390578009,252.0668436214416 L29.939160844320398,251.8172870364412 L30.958988275874695,251.11785714574427 L32.956071492955274,250.30092303341013 L34.39120898244419,250.79444076428575 L35.357112329028695,250.45535715327605 L36.76670683089951,249.28143402473012 L37.31540804639274,248.01574569452492 L38.35888639240847,247.6755429956901 L39.95106595391836,245.3288158264237 L41.49121350361326,244.52642985581588 L42.30007477817679,241.62463512529246 L42.92729702968004,240.60514611661276 L44.93667872228028,240.35782770726237 L48.512696988772305,235.93743079805753 L50.369766792243674,234.38973233592316 L52.058442084754134,233.59070362879118 L54.29581859275781,232.99087255452926 L59.31927282425748,232.39216056809283 L64.21595815424638,230.3945888002622 L69.58187762714061,228.85808121637933 L71.27055291965108,227.92588105805834 L74.98469252659382,226.54940303316687 L79.0375132286178,222.95489293889705 L81.66371077035922,221.0020846840712 L83.87743636390147,220.77938620687323 L88.04283541875898,220.64621475568455 L89.95666741693745,220.8241497198777 L96.44742438159288,221.0020846840712 L97.57320790993195,220.64621475568455 L97.80877101796295,224.29556015338494 L98.5230286346835,225.70561081303003 L101.50304385676034,228.5950955774772 L105.40544474281211,231.06268423185617 L107.72891057945337,232.0497196936077 L112.7646632864727,234.76238858168676 L115.56493155864683,236.4902601836643 L117.50146843470702,237.19416642566188 L120.7785391424122,237.44148483501226 L123.07267784512206,237.1594747030831 L124.23441076344221,236.41975765068227 L125.81334581285367,235.9967424527887 L129.18028999551066,235.96093164238476 L131.65228357496562,236.13774751875312 L137.5214945075887,237.26466895864394 L139.8752335147411,237.5119873679946 L142.61590148247177,237.22997723606545 L145.14844140294713,236.3492551176999 L149.05178832557772,234.0584823396892 L154.9209992582008,230.9921816988738 L157.78086783481655,229.79363863817548 L160.46193549810562,229.3706234402819 L161.77314219581922,229.40643425068583 L162.82702694419794,230.49642579234785 L162.62835926272683,233.62651443919475 L162.64917206745284,240.65998142004332 L162.55456840960892,242.94292058327824 L162.05789920592974,248.15227440918906 L161.77125012266256,255.90867212506208 L161.33039707711077,258.0617971005835 L160.3976050107719,259.26369742475697 L158.64081508461442,259.8892675189964 L158.02021508915993,261.1918857474304 L157.74113429852122,265.804765762555 L158.60013551174214,269.9341998372298 L158.7486632545568,271.5579962714717 L160.29543306030044,274.610867858386 L161.92829219468354,276.53457982975874 L162.80526810289408,278.18075802050305 L165.6613525331956,285.0284564223824 L166.41912783252386,287.98844371981187 L166.8107869759961,292.68301714616973 L167.58086075084404,299.4613321028922 L165.66324460635227,301.48240471505005 L163.35680742812275,304.5453480923901 L162.79391566395321,306.14116733100434 L163.36721383048575,310.79545359565805 L163.19219706347516,311.4601917637766 L161.43919128363098,313.2126832979069 L161.9254540849481,314.71785642268674 L163.90740071677263,315.9801874894165 L165.77393088602915,316.22191045964144 L167.32826898440126,317.0981562267064 L169.19479915365778,319.3699045116901 L171.3441942598663,326.57571101760647 L172.23157657043987,328.3707278890912 L173.74807320567425,330.2899635091634 L175.78583599562802,332.4632320655369 L178.1584957343479,336.42704114209494 L179.0780432885874,338.275774229185 L180.05056889122065,340.9481559555599 L181.0098499817564,344.5225224689776 L182.9738219185904,348.17634421797834 L181.14134906615925,350.7155544931645 L179.37888292053088,351.8894776217104 L177.28719604560638,352.5374294724519 L175.01292411104373,353.9866482059761 L173.9505250334596,355.38886525084547 L172.75757290805043,358.29513633266924 L172.10575370550788,361.5248237959514 L171.96763236505623,363.10833306848946 L172.29590705777358,365.2849588883384 L171.04146255476707,367.5455162950709 L168.46635098826184,370.1093465024095 L167.66978818921797,371.91443516432037 L166.90822874357548,376.207256061462 L166.4266961251505,380.36802459524006 L166.05111960351212,382.1843041354018 L165.09278454955518,384.26356931446566 L164.2063482755595,385.26739109359386 L162.84310956603184,385.9623446329905 L158.20847636826898,385.53709125944664 L155.710939801195,385.1845785945354 L153.16799347835754,385.57625933332565 L151.9939620845168,385.491208658617 L146.95915541407626,384.38778806305345 L145.40481731570412,384.5411030950942 L142.3377667284109,385.4195870378095 L138.80337407137088,386.9258792504145 L137.48176097129522,387.76631420707594 L137.31147438717582,389.8634847913419 L138.0427606623081,391.9472263217061 L137.95667133367053,394.0992322094023 L136.90373262186966,394.5983453794037 L136.48085427130843,394.7953048366241 L134.671086296759,393.9179399817337 L134.43836129846346,392.38031331002566 L131.00519455531517,391.28248815358756 L130.1234884642116,387.33098904310623 L128.6382110360662,385.57402115767536 L124.64782874822018,384.8600431252521 L122.97712815070028,384.96971373211323 L121.81728730553584,385.6836917645368 L120.58270957067654,384.36764448220134 z"/>
	<path id="siirt-pervari" title="Pervari" class="district" d="M575.9072766626341,409.7049119306329 L570.284035240406,409.85598878702336 L565.3968102762003,409.43968811608045 L557.664853320635,409.3266602457438 L551.9791734842288,409.85598878702336 L549.9026231945603,409.8929186852521 L540.0307314985706,410.5733240829221 L536.6439205477665,410.1961914858582 L532.0442907034068,410.12009351375036 L527.1561197026224,411.9341348782621 L522.7475892471064,412.46346341954165 L520.4156090812596,411.972183864316 L516.7090377669435,410.46029621258555 L513.7384829106509,409.02450653296296 L501.8543714123274,402.25962063014197 L498.2121305853441,400.82383095051927 L492.0146449600046,399.5391181272871 L484.44351422277356,398.2163563180011 L476.1373130640969,396.4023149534894 L468.7572817157112,394.51217561686985 L461.85689091259115,392.5851063820219 L458.5022452054538,391.41342142912623 L455.3074796800738,390.73301603145626 L452.11271415469105,390.61998816111975 L449.58963459999984,391.26234457273574 L442.6570785532138,394.2100219040889 L440.42064808178895,394.852378315705 L431.9224014976908,396.2892870831528 L427.3861561040852,397.838104633112 L419.91057506127686,402.1846417458593 L412.09442085023056,405.91232329131776 L409.41051507720607,407.122057230267 L404.8960285249043,408.78502173838825 L400.63602581220283,411.55588319337335 L397.3561169947622,414.9825301138758 L395.23983316879844,414.4061998839414 L393.4726368402789,414.2394557979991 L391.70544051175835,413.73698536452264 L388.1719938912971,412.1904059902134 L386.4757503061591,411.64764839503266 L384.46163843066677,410.05854368336924 L383.8609052033586,408.09454455029226 L380.6093774832724,403.70436301236555 L379.65577261220756,401.2390125336368 L378.34835006080726,395.8875345539365 L378.06548512385524,392.62763171937604 L377.28784305637885,387.7786241731522 L377.07593086281025,383.8069814818188 L376.79306592585726,381.4244435021485 L376.0863766017643,379.1258371093621 L373.1177138186292,377.03538105204694 L371.6693318170428,374.8195871583192 L371.1386052965392,370.05451119897896 L371.35146352668846,364.41095129692343 L371.2455074299028,356.8447985113202 L370.85668639616506,354.0448407728821 L370.25595316885773,351.87045312868344 L370.04404097528817,348.86122596694884 L370.0790443286905,345.34952837173773 L370.71478090939917,339.1632108745012 L372.37602114113486,335.1501619336384 L372.6938894314901,333.77032664527144 L372.1641089475653,331.80632751219446 L371.2805107833051,330.6771678966534 L369.01853732426207,328.75457501310564 L363.78884711866283,326.037429773726 L360.43136330179004,324.86686390865555 L355.62549748332987,323.69629804358505 L349.30029691990086,322.98567727463717 L346.1556713331764,322.9442710251078 L339.29974424924467,322.60966376539847 L337.4265918239394,321.9818554955087 L333.82219246009475,320.3099382847869 L329.6170598689428,319.39116718036735 L327.531995250068,317.92740030511686 L324.10450472639155,313.8315388651954 L322.5851699814208,312.70237924965426 L317.28452703243903,310.15197809621685 L316.18901667460835,309.14927540491385 L314.2449115059206,306.3067923291212 L313.0793944412862,304.25886160916065 L314.45776973606894,303.1297019936195 L317.4254864826261,299.995136995472 L318.6979056806241,299.24199088916964 L322.16134559428076,298.0714250240992 L323.5747242424658,297.86215560080274 L325.4119272777909,296.6927088235574 L328.2746339641412,293.5984309871141 L329.38906505353935,292.11899688231176 L331.417367477708,293.07357879713516 L338.6980649853595,293.304110889109 L341.1416774674609,292.7333760983 L342.680878980578,291.7552933391494 L346.9030402301426,285.6965518539763 L348.7288908265259,283.829913361684 L350.19713959626046,281.97110848416787 L353.03903347788474,277.15679266052274 L354.3057764564109,276.53234165410845 L360.8788386033915,275.3584185255629 L362.4199321896643,275.47704183502486 L364.86354467176756,276.3700739194668 L366.02149344377443,276.40364655422013 L372.49522175001806,274.4318138063673 L375.0523586215337,273.7771474286752 L383.1400253305902,272.19587633178753 L384.9601997075026,272.1007538666527 L386.2401871981281,272.4901964297927 L390.3440938753883,269.5704962940674 L393.94660116607537,265.262008167374 L395.20766792513245,262.7250360678381 L397.91995479551053,258.5463621288583 L400.6010224588015,253.0997616840231 L402.49309561567424,251.271172177785 L407.0984016795057,249.74249820867763 L409.24306660282303,248.3615438324855 L411.60815804891536,246.12336818225538 L414.856847659267,242.20544170652738 L417.66657629722533,237.1762610204601 L419.8273238423747,238.96568245281907 L421.6645268776998,240.92520523459552 L424.25761313919463,242.33077954294032 L426.23766769786346,242.92725335372643 L431.17124845441134,243.65130317657614 L434.0169264823508,244.24777698736253 L435.99698104101867,244.92930147285733 L439.2021529687626,246.80377357992538 L439.99493162149315,247.99672120149796 L440.39132094785754,249.61492219661437 L440.4632197278188,251.66061474092498 L440.1746785713959,254.51428869496849 L439.63449168510897,257.0702852875313 L439.09430479882116,258.39080892116715 L439.5625929051477,260.8617548390216 L440.8227136276251,262.73622694608935 L442.0837803866813,263.54532744364735 L444.8566135980807,266.74032318435115 L446.26053188048064,267.6781187817976 L449.50165319820564,268.74237130348206 L453.42770499871887,269.8077429129918 L457.2090132027317,271.59716434535073 L461.3498153065499,272.1085874814285 L464.55498723429383,273.2578906778217 L469.8490079272277,273.4291111150643 L473.27082223143327,273.00273865369525 L476.6916904990619,271.7672656947682 L479.06813438409415,271.4270629959334 L485.5503770195442,269.89279358770045 L491.384584598765,270.02036959976374 L493.5453321439153,269.93531892505496 L495.95867145550835,269.29631977691406 L497.65113089433214,268.4021686046473 L501.0001003819986,265.249698201298 L502.94515158726415,262.05470246059417 L506.2297905875978,258.7757751330068 L506.8702573511995,258.2632329091042 L511.62409115784567,255.83481232860427 L517.8537420268528,253.83276420947334 L520.5906258482694,252.51224057583755 L523.3275096696876,251.70314007827918 L526.3169852575487,251.06414093013854 L529.0898184689471,251.319292954265 L532.3309397866731,252.46971523848305 L539.2095717484875,256.6013874888081 L546.7721881565122,263.29017541952123 L548.5724957652774,266.48517116022504 L549.4731225879503,270.7018940852588 L549.6528695378521,273.08778932840426 L548.7172393617788,277.9021051520494 L548.6443945452387,282.1188280770831 L549.1486320415463,284.0783508588596 L550.1211576441796,285.8677722912189 L551.8855158629646,287.1882959248547 L554.9109408408058,289.91551295466013 L559.2324359311046,294.47355766635394 L562.2578609089459,298.1363321179558 L563.2663359015602,299.11665305275676 L565.3911340567294,301.75770032002833 L570.5404111531619,309.5957914471346 L572.9537504647541,313.8136334599936 L575.4020931297486,318.4992541837506 L575.9063306260562,320.5024213907067 L576.6622138522268,328.5531392045849 L577.8154324413407,332.94108256686127 L581.8843357651986,343.46386538641855 L585.1254570829245,349.7251617679378 L587.5028470045356,352.5799548098065 L590.6711235057214,354.6245282662916 L593.7324978735428,356.8828474973741 L598.077643878304,359.21614561273896 L595.4259033489454,367.0385695102938 L594.595283233078,368.96675783296723 L594.3720186005667,370.59167335503423 L594.1165887243885,375.99574846251517 L592.0400384347191,382.19325683800264 L590.4421826537392,385.443087882137 L590.0912030831392,388.6548699402175 L590.3787982029843,391.30039355878966 L590.6663933228293,396.3642659674354 L590.506513141072,400.4836282516842 L590.0912030831392,402.523725356869 L588.0789832808035,405.5094516742763 L585.427242751445,407.4365209091243 L582.9032171601759,408.5332269777373 L575.9072766626341,409.7049119306329 z"/>
	<path id="siirt-merkez" title="Merkez" class="district" d="M215.8665677142646,245.50451261496653 L220.29496493792786,245.75630737561752 L223.58244204799604,246.49154807671806 L224.32318868891255,247.12271361008328 L227.19535574104796,251.5363959923372 L229.20946761653937,253.74435627128918 L229.94737614772043,255.68373547221378 L230.21699657257494,257.66787818614296 L230.69096089837146,265.726429614797 L231.9936532668787,270.87759087380175 L232.9415819184736,272.34919136382825 L235.37100385189962,273.4000148316113 L239.22137272613733,273.96067783199373 L243.6639604984769,275.361775789038 L245.05558030535812,275.95713051199925 L246.09243639532508,276.9038788120466 L246.71492846393625,283.9116067729176 L246.68465529342603,286.539224986288 L246.09243639532508,290.6026328792807 L245.61847206952766,292.8799766033902 L245.70739950790067,296.9098118616296 L246.03378212746134,298.76637856349555 L249.70440405179727,307.95185143204066 L251.21617050413954,310.78314362958173 L252.08084793683048,310.62311407059036 L254.9520689523871,310.82454987911115 L258.9689402644291,311.49824074983053 L262.7786295657954,312.5434687784881 L264.560962479571,311.4613108516014 L267.1521566679092,307.8802298112331 L267.7793789194134,306.23740888396435 L267.72072465154963,302.99988780590627 L267.9449353206388,301.14555927969036 L268.92313714274394,298.7674976513207 L271.0659099929028,296.57072825061994 L273.5123605847406,294.7701159400097 L274.45934319975663,292.68301714616973 L274.630575820453,290.3721007873073 L276.0950404438733,286.1441869840223 L277.0098578152216,284.4331016994211 L280.0069016957112,281.78533990519895 L282.91123399151155,282.2743812847742 L284.0256650809098,283.38004005598776 L288.8031498020173,287.0998879866705 L290.0178607687294,288.3252891551715 L290.99511655425476,289.97258643374096 L293.690374766222,293.58164466973744 L294.7858851240518,295.4382113716035 L296.41496011212064,299.92239628683967 L297.48114333601904,301.4644993098483 L298.8141088750365,302.5858253106136 L300.5623844719876,303.2863742891357 L303.96811615436116,303.5314545228358 L307.61130301792144,305.3186377795448 L307.9272792351191,305.77522561219166 L308.41070392670076,306.47465550288865 L308.5592316695145,308.7519992269978 L308.23284904995376,309.94382776074553 L307.19693899656653,311.6605084844722 L305.33040882731,313.76215542003814 L300.2653289863593,318.56304218978204 L295.11226774361245,324.13386138320527 L289.78040558754265,330.9300817451292 L286.522255611405,335.34488321520854 L284.74559891710027,337.0615639389352 L283.02759649066024,338.2880841952614 L279.8877010868279,339.3042159404656 L272.83878254089416,340.7758164304921 L269.0773411050285,339.54929617416605 L261.1987484798061,337.37714670561763 L256.518705526278,336.88698623821716 L254.0306293249891,336.2558207048523 L252.1347720218012,335.34488321520854 L248.64011290105555,334.6443342366864 L247.18889278973273,334.6443342366864 L244.22685226264738,336.2558207048523 L242.06421264434042,336.575879822835 L237.59324377464728,338.2477970335572 L228.43939384169147,347.38738730127227 L228.0231377471799,349.91876396168277 L219.6431457353853,357.16038127800266 L215.6016774723031,361.5897308898084 L206.03251748141267,370.80094277833075 L195.5712449970575,373.4017028838984 L185.82423012942195,377.76054996272177 L181.069450286198,382.12051612937034 L179.16697072696132,388.6582272036926 L181.36650577182633,392.7361832384123 L183.7438956934383,403.2119643693148 L187.52993408034322,409.1129144711467 L184.30300331129547,408.39446008742283 L179.30698414057053,408.4022937021989 L177.4480222639416,409.4497599065064 L174.8379073440341,409.7742953757898 L169.6678174428755,410.88443049830425 L166.5061631977393,411.9609929860648 L162.40698670337216,413.0386745616508 L158.49512545153524,413.48295242822127 L151.39606696694497,413.73586627669744 L148.31482583097545,414.11635613723655 L145.68957432581374,413.86344228876067 L142.7152353232078,413.1975850328171 L139.7380582108664,410.89226411308005 L139.0985374838435,409.2046796728063 L139.0181243746759,403.24665609189356 L139.2328746779818,401.78848465576846 L138.85729815634252,398.65056239414554 L138.00018901627826,395.38618320828476 L136.90373262186966,394.5983453794037 L137.95667133367053,394.0992322094023 L138.0427606623081,391.9472263217061 L137.31147438717582,389.8634847913419 L137.48176097129522,387.76631420707594 L138.80337407137088,386.9258792504145 L142.3377667284109,385.4195870378095 L145.40481731570412,384.5411030950942 L146.95915541407626,384.38778806305345 L151.9939620845168,385.491208658617 L153.16799347835754,385.57625933332565 L155.710939801195,385.1845785945354 L158.20847636826898,385.53709125944664 L162.84310956603184,385.9623446329905 L164.2063482755595,385.26739109359386 L165.09278454955518,384.26356931446566 L166.05111960351212,382.1843041354018 L166.4266961251505,380.36802459524006 L166.90822874357548,376.207256061462 L167.66978818921797,371.91443516432037 L168.46635098826184,370.1093465024095 L171.04146255476707,367.5455162950709 L172.29590705777358,365.2849588883384 L171.96763236505623,363.10833306848946 L172.10575370550788,361.5248237959514 L172.75757290805043,358.29513633266924 L173.9505250334596,355.38886525084547 L175.01292411104373,353.9866482059761 L177.28719604560638,352.5374294724519 L179.37888292053088,351.8894776217104 L181.14134906615925,350.7155544931645 L182.9738219185904,348.17634421797834 L181.0098499817564,344.5225224689776 L180.05056889122065,340.9481559555599 L179.0780432885874,338.275774229185 L178.1584957343479,336.42704114209494 L175.78583599562802,332.4632320655369 L173.74807320567425,330.2899635091634 L172.23157657043987,328.3707278890912 L171.3441942598663,326.57571101760647 L169.19479915365778,319.3699045116901 L167.32826898440126,317.0981562267064 L165.77393088602915,316.22191045964144 L163.90740071677263,315.9801874894165 L161.9254540849481,314.71785642268674 L161.43919128363098,313.2126832979069 L163.19219706347516,311.4601917637766 L163.36721383048575,310.79545359565805 L162.79391566395321,306.14116733100434 L163.35680742812275,304.5453480923901 L165.66324460635227,301.48240471505005 L167.58086075084404,299.4613321028922 L166.8107869759961,292.68301714616973 L166.41912783252386,287.98844371981187 L165.6613525331956,285.0284564223824 L162.80526810289408,278.18075802050305 L161.92829219468354,276.53457982975874 L160.29543306030044,274.610867858386 L158.7486632545568,271.5579962714717 L158.60013551174214,269.9341998372298 L157.74113429852122,265.804765762555 L158.02021508915993,261.1918857474304 L158.64081508461442,259.8892675189964 L160.3976050107719,259.26369742475697 L161.33039707711077,258.0617971005835 L161.77125012266256,255.90867212506208 L162.05789920592974,248.15227440918906 L162.55456840960892,242.94292058327824 L162.64917206745284,240.65998142004332 L162.62835926272683,233.62651443919475 L162.82702694419794,230.49642579234785 L161.77314219581922,229.40643425068583 L162.21967146084282,229.44112597326426 L166.45034703961193,231.238381020399 L171.2751335896405,231.4252686871934 L177.28814208218517,230.40913694198883 L179.83487255133778,230.40913694198883 L182.47147649544127,230.79522224165368 L183.47805941489804,231.2853827090538 L186.76553652496622,234.54416645578908 L191.56383405079788,237.8723336476816 L197.75469742008954,241.3761976281169 L200.5388830704298,242.35763765074302 L205.900072360431,243.79342733036566 L209.45433178561916,245.12514184225265 L211.55737109948453,245.33553035337428 L215.8665677142646,245.50451261496653 z"/>
	<path id="siirt-tillo" title="Tillo" class="district" d="M313.0793944412862,304.25886160916065 L307.9272792351191,305.77522561219166 L307.61130301792144,305.3186377795448 L303.96811615436116,303.5314545228358 L300.5623844719876,303.2863742891357 L298.8141088750365,302.5858253106136 L297.48114333601904,301.4644993098483 L296.41496011212064,299.92239628683967 L294.7858851240518,295.4382113716035 L293.690374766222,293.58164466973744 L290.99511655425476,289.97258643374096 L290.0178607687294,288.3252891551715 L288.8031498020173,287.0998879866705 L284.0256650809098,283.38004005598776 L282.91123399151155,282.2743812847742 L280.0069016957112,281.78533990519895 L277.0098578152216,284.4331016994211 L276.0950404438733,286.1441869840223 L274.630575820453,290.3721007873073 L274.45934319975663,292.68301714616973 L273.5123605847406,294.7701159400097 L271.0659099929028,296.57072825061994 L268.92313714274394,298.7674976513207 L267.9449353206388,301.14555927969036 L267.72072465154963,302.99988780590627 L267.7793789194134,306.23740888396435 L267.1521566679092,307.8802298112331 L264.560962479571,311.4613108516014 L262.7786295657954,312.5434687784881 L258.9689402644291,311.49824074983053 L254.9520689523871,310.82454987911115 L252.08084793683048,310.62311407059036 L251.21617050413954,310.78314362958173 L249.70440405179727,307.95185143204066 L246.03378212746134,298.76637856349555 L245.70739950790067,296.9098118616296 L245.61847206952766,292.8799766033902 L246.09243639532508,290.6026328792807 L246.68465529342603,286.539224986288 L246.71492846393625,283.9116067729176 L246.09243639532508,276.9038788120466 L245.05558030535812,275.95713051199925 L243.6639604984769,275.361775789038 L239.22137272613733,273.96067783199373 L235.37100385189962,273.4000148316113 L232.9415819184736,272.34919136382825 L231.9936532668787,270.87759087380175 L230.69096089837146,265.726429614797 L230.21699657257494,257.66787818614296 L229.94737614772043,255.68373547221378 L238.74362425402657,257.1844322456931 L244.1842806166175,257.66004457136717 L251.42240647823826,259.115977831842 L254.63987688150274,259.2838410056091 L259.3464088592259,260.1791112657013 L262.3510210323421,260.51483761323584 L264.76341430735636,261.0743815257932 L268.61945940106494,263.25660278476795 L271.12645633392316,264.12389584923204 L273.3969441221716,264.54355378365005 L277.46584744602853,266.8667801085893 L284.7370845878958,270.48814831066176 L288.867480289351,271.8478400181766 L293.04896196604153,273.6260705722844 L296.2238607232752,272.5965097731787 L298.1632357090718,272.5830807192772 L302.7288082366088,273.39330030466067 L304.87347315992434,274.3825739420622 L309.51662068689353,278.3855510924992 L313.1125057215318,281.71036102091625 L315.10958893861243,283.9216785633437 L316.18523252829505,284.3558846394881 L319.82558128212077,284.82813970168684 L321.23517578399156,284.80016250605894 L323.15468400164,284.3066447751833 L324.1622129576756,284.67482466964606 L325.0467571585146,287.41435166552776 L326.2094361134126,289.3660408325288 L329.38906505353935,292.11899688231176 L328.2746339641412,293.5984309871141 L325.4119272777909,296.6927088235574 L323.5747242424658,297.86215560080274 L322.16134559428076,298.0714250240992 L318.6979056806241,299.24199088916964 L317.4254864826261,299.995136995472 L314.45776973606894,303.1297019936195 L313.0793944412862,304.25886160916065 z"/>
	
</g></g></svg>