<svg xmlns="http://www.w3.org/2000/svg" version="1.2" baseProfile="tiny" width="600" height="600" stroke-linecap="round" stroke-linejoin="round"><rect id="backgroundrect" width="100%" height="100%" x="0" y="0" fill="none" stroke="none" class="" style=""/>































































































































































































































































































































































































































































































































































































































<g class="currentLayer" style=""><title>Layer 1</title><g class="city city-57" id="sinop" title="Sinop">
	<path id="sinop-ayancik" title="Ayancık" class="district" d="M109.41614741302627,104.24387248521293 L110.79869027352939,102.9822035471379 L114.22057150392257,102.72592704409138 L115.56454808006785,103.11110001316719 L118.9805859340434,102.80629778173318 L120.97551464315583,102.01775469543622 L123.38649175323201,102.6607205965707 L124.92446842645518,102.41960838364533 L126.99419235371772,100.85920293018464 L127.22325270930352,99.80528476676865 L128.62449437434603,99.33215891499047 L131.26453184000692,95.78523145566652 L132.87613505609795,96.37208948335288 L135.87612450910973,98.16602500467835 L137.41293250704956,100.98051725115349 L136.1110282411142,103.2763907754871 L136.074799307323,104.3742853802543 L139.48849981073084,107.09020974094237 L141.63886233256224,108.04707644758341 L145.10982792486732,108.33519795988421 L145.88816566374751,109.18439820666555 L147.55937131930241,108.9569338548491 L149.54495062614515,109.31177824368268 L150.67856565124194,110.30958853365064 L154.36106146987885,110.95103800577293 L155.52623072763254,111.94126615068046 L157.75606316874942,112.38557985122847 L158.2398947361613,113.19990223073125 L160.36104037590349,113.6745445115215 L161.4525830907893,112.99215145607222 L163.73968062080343,113.57446019672234 L163.94887349656864,114.56468834162976 L165.67266953988428,114.75424196814343 L168.94379165869282,113.58810805783129 L173.61498676725847,114.40091400832192 L176.2491808565028,114.06729962565785 L178.13659143952384,113.12559720913794 L181.75831614341354,112.80714711659488 L184.01970281718735,113.53654947141956 L185.96905319023887,115.56098220258565 L187.65662029976437,115.90066230129818 L192.7216589789055,117.54598777943686 L195.19223852844448,117.7325085479264 L202.59462777479388,117.71279497076895 L205.03014706582496,117.52627420227954 L206.26309949002786,118.02366291825135 L208.5034500086967,117.93722646456116 L210.2424388306997,117.3731148720564 L212.34021096476926,117.53992206338847 L213.24593430956253,118.15710867131706 L216.59185164652223,117.76586998619275 L223.58403586832657,116.55727606354155 L230.33196695585679,114.49341617806058 L232.3829920785821,116.50420104811774 L234.97160783176656,116.6710082394498 L237.26338006291394,116.28583527037401 L242.3330934431894,116.73014897092202 L248.66614480504126,115.42905287853212 L255.11255766940218,113.05280861655667 L257.68013726748063,111.79872182354215 L259.53716229312806,111.65921035442811 L262.71362171396373,110.62348933915737 L267.1802986478996,110.32475282377177 L269.6146492636473,111.63191463221004 L272.964072626457,111.4575252958175 L273.3170125621059,112.41742486048277 L274.11989248194203,117.9721043318397 L273.8136995576374,119.8570255938917 L270.33572191363135,124.5685705345157 L268.1187449006341,128.43546451539476 L268.0427810071996,130.1217335768605 L268.69256446488345,131.61086686675196 L270.10666155804455,133.247093770818 L270.67931244701055,134.78475278909696 L269.9149988115333,140.3394322604538 L268.23327507842754,142.71870938045356 L262.1187659946095,144.95089288627864 L257.14955868872454,147.38172859269014 L254.7035213201404,149.51382778371587 L254.35993078676125,151.44727477415543 L255.65949770212893,152.58914582027393 L259.32796941736285,154.9684229402736 L260.7046689014484,156.6061662733518 L263.99098379894315,164.78881722269426 L265.94033417199574,165.88064611141306 L269.03615499826265,165.68199391082678 L270.71787873136947,166.02925615459978 L271.9029154689448,168.70726978998505 L271.74981900679245,170.04627660767764 L272.13197582453057,173.3687725732095 L271.74981900679245,175.20365167786184 L271.74981900679245,178.72479984398004 L272.246506002324,183.23769258401762 L272.1705421088905,189.53693870032023 L276.48996595709167,194.14839932614507 L281.0372814855952,198.06685189343577 L286.3500793248604,204.01731933695325 L286.8093687113163,206.19946068537877 L286.3500793248604,209.32482087933627 L285.1276449782105,211.45692007036217 L282.2994507918873,214.73089030750643 L277.86549676589385,216.96155738431935 L274.7311096552659,219.19374089014445 L272.246506002324,221.723144482343 L271.74981900679245,224.2025059171419 L272.20910839324836,226.28607937978032 L273.5086753086161,228.91405085776594 L274.76967593962587,232.88254558245637 L277.82693048153493,237.69265840886754 L278.70577429480556,240.86654433121254 L279.16506368126045,244.53630254051745 L279.089099787827,247.3629262190893 L278.4393163301432,251.3314209437798 L277.3688097703613,254.05796030755255 L274.08132619758317,257.92637071744366 L273.2024823843125,259.7612498220961 L271.67385511335794,264.37422687693305 L268.9975887139048,270.3747364778501 L267.77515436725383,272.259657739902 L265.0708397609937,275.02714068700186 L262.4483324245857,274.60708985064747 L256.6505343426253,272.9117222151091 L249.03310884409308,272.0261276720372 L242.49670798289367,271.6576354220947 L234.99381266215482,270.8463459006162 L231.5836181845969,269.8864463359509 L227.03630265609337,266.7898982932235 L225.04604864811523,266.5684996574555 L221.12397439633952,267.08408552157243 L217.99776801269803,267.08408552157243 L207.00053359398146,264.23623183683105 L202.36439874392374,263.4052287381951 L194.30755133875618,263.11559079688226 L191.58921262909206,263.28088155920204 L186.6013065186698,262.32704771058525 L183.18059396355994,266.84903902469557 L181.8062318300411,269.2556118669133 L179.59626686874583,271.038932385154 L178.6157483058014,269.92890634828984 L175.9359758804972,267.936318626378 L168.56747821737235,268.1895622714003 L162.175993091341,268.66117169416634 L158.8814974668598,269.27684187308284 L156.08953221432992,268.9826546447336 L144.825839830952,263.70244882456853 L140.9551872916538,261.70682824463256 L136.63810079402037,260.8060694114395 L135.049871083602,260.8060694114395 L131.8745803380496,261.57793177860316 L128.15351823505273,261.57793177860316 L123.686841301118,259.9037941492345 L119.42000784067872,259.32451826660866 L115.15317438023948,259.5823111986672 L108.80142421385034,258.16596650135693 L100.41501037870546,255.59107003879518 L98.28217798612803,254.81769124261936 L94.01417585040548,254.17472534148496 L90.54087290753375,254.10951889396426 L82.60206170600955,254.4962082920522 L78.18563780926897,257.26520766816407 L71.83388764287983,259.96900059675517 L69.20436825477086,260.6119664978894 L66.52459582946668,259.9037941492345 L64.3917634368882,258.3585529858949 L60.27335173746695,251.01903656728518 L58.98313422436789,249.41010538543716 L53.47516761274153,245.80403719464093 L46.05524823713711,242.25862616432892 L47.44830917519323,237.65323125455268 L48.66022544429114,235.29518414072245 L50.222744298470246,233.63924365949902 L55.48528910054023,230.82626784203606 L57.20791646857259,229.45996530212528 L58.92937516132167,227.1838053549491 L61.95858149642373,219.85945322646054 L63.58537749120103,216.92213023000448 L65.1806192533214,215.1008989864611 L67.85922300334227,212.70190828930407 L72.35511681936836,209.22473656453707 L73.75869583497644,207.73560327464565 L77.9682642065195,201.77755368606756 L79.14862624295947,199.87291884685817 L84.8248820954255,195.2387117858518 L88.36479952946203,192.88066467202157 L90.11898113015238,189.3216057806007 L91.42672877250536,185.0589238275611 L91.96899410409779,182.53558595141106 L92.03210256941267,178.97652705999016 L92.70175350691815,171.32007697784962 L93.97794691661318,168.21746321907372 L97.4851414427095,163.0449238587684 L100.4711067923194,159.87862008148397 L102.86338509785725,158.6381811495784 L104.72859085048896,157.02318425168184 L110.3020032779979,147.34078500936315 L110.9003650232032,143.1205630686626 L111.6167629720529,140.85501812457107 L114.00904127759074,137.65838576704442 L113.88983639866302,135.79621094017398 L112.76557077583593,133.71567033555985 L110.46912384355318,130.82990592551556 L107.81389359920388,128.37784021293464 L106.57042309744907,126.32914461757473 L105.9253143409006,123.4130516272883 L106.85791721721645,121.42652962142499 L110.15825621811419,117.32913843070523 L110.99502772117495,114.44337402066103 L109.63235234049242,107.83325995687599 L109.41614741302627,104.24387248521293 z"/>
	<path id="sinop-boyabat" title="Boyabat" class="district" d="M304.75905239219503,280.4802194145474 L307.17587287868776,281.66909976004115 L309.94680197611376,282.60928574754905 L315.5739734666679,283.05208301908493 L318.1742759726876,282.94138370120095 L322.0344104344328,282.18013633712206 L321.236205215731,288.8387761292945 L321.1228437132219,291.89741344671927 L322.9097482218525,295.39884803568 L325.53225555825946,298.8517568962532 L328.078799001234,299.8389521831363 L331.3487524447592,300.5789695410458 L343.2856017914915,300.48040165525873 L350.65994283103606,300.1846979978973 L356.20998175287133,299.69034213994973 L359.5173328054732,299.00036693943986 L362.74871996463844,296.63322125153695 L368.2227949930402,293.278880276751 L375.06538877854325,291.8473712893197 L382.70618778274707,291.9959813325064 L387.1927321965045,292.53886291884146 L391.56474643246855,293.87028759147364 L394.79496491634944,295.9917717794147 L397.8744242886478,298.654621124679 L402.01854684430936,301.81182632789086 L405.62975347064605,303.1932931579224 L410.305623280346,304.0804041300064 L414.4111795516476,305.31477734586355 L415.39987884157847,306.64620201849567 L415.5518066284453,312.319162952797 L415.3613125572184,316.3634791280928 L414.525709729441,322.4307116055428 L413.72750451074023,324.65076367927094 L410.913334427821,329.2379614409021 L408.2908270914119,332.14798871514006 L404.1093069266758,336.09373700464886 L402.5128964892721,338.46239912156375 L400.5740641937736,342.2110116394982 L397.6465326083464,351.23679711957357 L395.0614228810129,357.1569359828488 L394.1112898754431,358.93267435602894 L392.1724575799425,361.3983879297189 L388.6372148470392,365.04843256186626 L385.1779360075715,369.7842403666842 L382.85928424490044,372.0528181687997 L377.61310089680006,378.91011016155875 L375.82619638816846,381.52443377843537 L374.83749709824076,384.5330289384605 L372.4428814421363,386.8516488979758 L368.6411807445706,387.19739471273664 L365.5243237631977,387.8373277558469 L362.86325014243187,389.2187945858787 L358.90962165799715,392.1788640175163 L358.14881404837195,393.4117208043612 L353.8153660967668,403.57331161450657 L351.91510008562614,409.09766250562126 L350.28012336386354,412.99488506674237 L347.4285556718708,420.9849495315471 L346.28792859507206,425.12935002164215 L344.19716851270454,429.3222762401247 L343.01914382683015,435.09228863120114 L343.3615656849271,437.70661224807776 L346.3638924885055,446.2896004566172 L346.4784226663,448.06533882979744 L345.6042535541636,453.0968502919766 L345.5282896607291,460.3484138278838 L344.6155542642349,463.94993273164374 L344.4262288682903,467.2542315490303 L342.6895773968539,469.37268287894705 L341.9018902557061,468.00941319706055 L338.7885393001832,466.3534727158373 L332.55950003857276,466.4019984442246 L322.0157116298945,467.37554586999886 L314.6998043545326,468.7873412802729 L311.0231519123144,470.2476624189341 L308.58412659543126,472.3418508846574 L303.74347357074265,473.21834685365656 L301.1548578175592,473.1698211252691 L295.45172243357064,472.4874280698199 L291.7376723822768,472.39037661304485 L287.8728632193973,472.5859959556069 L284.27100599532815,473.1212953968816 L278.3423162816037,474.6301422639305 L275.37855576238314,476.0419376742043 L263.9722849944059,483.3935855249109 L260.9325605817508,484.61127802163463 L257.55625768741857,486.6068986015709 L251.32721842580816,490.8422848323924 L240.33349003294262,496.7336115444375 L228.13953212381546,502.52637037069564 L225.21316921367048,504.0852593951441 L218.72234668853304,505.6426319905806 L214.96973035287925,506.0808799750803 L212.83105458388314,507.3470982001916 L209.8672940646636,510.6574627336266 L207.91560634104337,512.2633610574503 L205.8154968564072,513.3354763690118 L196.3597451367648,517.4738111430584 L191.3321040666993,519.810628250719 L188.48053637470446,521.5135780313178 L182.9269914270182,522.0003517442051 L177.11166321580282,522.8768477132044 L175.04778266495788,523.5107150402662 L173.13466122569758,525.0680876357026 L171.8853473475251,527.4367497526173 L168.39334560011508,528.1843492555874 L164.61268105765538,528.6044000919417 L158.2048344776534,525.894541447302 L153.7767238280765,523.6987522377676 L151.4720961688084,521.6910002257348 L150.03228821940803,519.3071738186986 L145.53171970224764,512.9548526869721 L141.1036090526718,507.2545960304529 L136.71055866160282,504.1716958488344 L133.93846088889455,503.19056627799955 L131.09390524860171,503.5181149446152 L124.7211189271076,505.38635548753405 L121.37286423958125,506.18096428987946 L115.90112656174611,508.09621413217366 L114.46716198876337,509.03640011968133 L114.58169216655676,507.1105352743024 L112.7211611150594,499.5784323711549 L111.8282931983847,494.89418315274884 L111.56767861014202,491.94776158222027 L112.64636589690821,488.0368911599899 L114.65648738470796,485.71978762948686 L116.03318686879348,482.04851299116996 L117.03824761269283,478.52433196702754 L119.0845980342838,469.92921232639134 L119.79164658086489,463.21598108978276 L119.3452126225286,460.5121881611916 L117.74529615927389,456.60131773896137 L115.73517467147414,453.5593611406698 L113.42820966163941,450.85405178306655 L111.97671495940273,447.42540578668724 L110.82323245448535,438.2995359918128 L110.78583484540977,429.46330413825086 L111.04644943365457,421.97821053447876 L110.93542528171216,419.5155298188131 L110.37679849614906,417.24543558768517 L107.80921889807061,412.80229858220457 L103.56575894330297,407.9254628792605 L101.51940852171197,406.4287474443086 L99.99311860132514,404.44829115449375 L99.43566049104538,402.42082556530323 L99.36086527289527,400.2477827909505 L100.4033236258702,397.7851020752848 L103.64055416145308,392.5215769742529 L106.72936293601902,388.9958795210984 L109.5949547314168,386.7273017189829 L117.07564522176841,383.25012999421597 L121.50375587134425,381.5608280747261 L123.58750390201189,380.4978113372373 L128.76122938252772,377.21474252602036 L131.06819439236244,375.37986342136793 L132.66811085561608,373.64051934447843 L136.98519735325056,371.03377787266226 L138.47408966456285,370.50151128941184 L143.12541729330684,369.9707611351736 L146.8850456806626,369.1973823389977 L153.39690436090504,366.7832273517195 L158.383641796045,367.70066690404576 L160.72917309023865,366.34952865425623 L161.24923359144276,363.935373666978 L163.48724675954395,363.9823829663533 L164.40816288302454,363.5486842688901 L166.33413975040446,360.3975447817268 L168.3723094450101,356.4502800632058 L169.12493632765108,354.4212980450033 L169.51644254765887,350.4740333264825 L168.2040202041715,346.45398001538047 L168.00885143180932,343.52120630596085 L168.17597199736457,339.1023321646738 L169.2932255684907,335.00949026099056 L170.27023810558313,333.2352683168224 L172.92079364879805,331.7855621812458 L174.5125293850664,331.82195647753656 L178.94998943691195,330.8802540610166 L180.62470111831783,329.57764153961455 L181.21137611068679,328.2735125892003 L181.71390648263593,322.696086682662 L182.55067798569775,319.6177357880798 L183.49964231598318,317.62514806616804 L185.8159567280876,313.89473269637875 L186.96125850601965,310.5631381567743 L186.96125850601965,307.34072650604185 L187.37964425755,299.5174692325692 L188.52377736019872,296.6923619830092 L188.6628497189471,294.84535144626 L186.84906567879392,284.1257147596583 L186.2355111549013,282.1695213340373 L184.22538966710152,278.4755002605387 L182.99711194403403,276.88173336881164 L181.04308686984712,272.86168005770946 L179.59626686874583,271.038932385154 L181.8062318300411,269.2556118669133 L183.18059396355994,266.84903902469557 L186.6013065186698,262.32704771058525 L191.58921262909206,263.28088155920204 L194.30755133875618,263.11559079688226 L202.36439874392374,263.4052287381951 L207.00053359398146,264.23623183683105 L217.99776801269803,267.08408552157243 L221.12397439633952,267.08408552157243 L225.04604864811523,266.5684996574555 L227.03630265609337,266.7898982932235 L231.5836181845969,269.8864463359509 L234.99381266215482,270.8463459006162 L242.49670798289367,271.6576354220947 L249.03310884409308,272.0261276720372 L256.6505343426253,272.9117222151091 L262.4483324245857,274.60708985064747 L265.0708397609937,275.02714068700186 L270.93875835997096,276.5799639954019 L277.4190628075565,277.68695717424174 L282.619667819596,277.9629472544456 L287.18100745150355,278.51644384386555 L300.2269296423777,279.29133906905355 L304.75905239219503,280.4802194145474 z"/>
	<path id="sinop-dikmen" title="Dikmen" class="district" d="M536.0211922129396,269.04179537620587 L541.504616643611,270.4657222185767 L544.3865698929794,270.4414593543828 L548.5599093307313,272.4113006411131 L548.9701143552753,272.8829100638791 L555.1489005796905,275.0938635635346 L556.1691541022772,275.0392721190987 L560.8052889523359,276.90902909102965 L563.6066036071345,277.43977924526797 L566.5762075027748,277.62023429770886 L570.9762699455437,280.22697576952515 L573.9984642289448,280.58030372934644 L576.0039110156081,280.4802194145474 L578.272309741085,280.99428884965243 L579.8570334256514,280.4711208404746 L580.7300338625054,281.086791019391 L579.9178045403995,282.3075163741391 L579.7401658972913,284.20608549730025 L578.586683392374,284.6670799169815 L576.7682246510865,284.03321258991974 L574.1059823550362,285.99092244455306 L571.754607684425,291.6896626720603 L571.0008121265007,292.32201357010996 L570.291426229353,295.54594164985457 L569.3599920283194,297.10028138726676 L568.5606181343331,299.69034213994973 L567.4959549509699,300.3803173404594 L567.0086173577071,301.8770327754115 L565.6774962096825,302.8566459172343 L562.9720129281379,303.4313725128236 L560.887096222187,304.351844923174 L556.2731662025186,307.7486459102992 L553.2568152955362,311.3744276782529 L552.9459476700972,315.8645739831089 L553.78973122486,318.9156291554731 L553.1679959739821,322.3109137135861 L548.6218491207629,326.39768990122104 L546.788197600787,327.6259974010297 L543.5346056112325,330.9257469313799 L543.0028583571931,332.2313923108061 L538.9627479017719,334.34226149566234 L537.1361084335001,334.7425987548593 L534.0180827768429,337.4403259674019 L532.781624326789,340.5019961428508 L534.9448422767422,345.4955968797272 L534.7204566222886,349.5414294840351 L536.4617827948592,350.3800147277318 L537.8384822789448,351.94800232625283 L537.4458073836547,354.7185181313769 L537.8384822789448,355.7011641312238 L539.7200494855482,356.68532656008273 L540.1419412629285,359.2010822911724 L539.6078566583213,360.84185848227474 L540.8162669015683,361.97159809629625 L545.3390402491169,362.9557605251554 L547.0242700080748,365.43360553094215 L546.4901854034666,367.62181259541615 L546.5462818170805,369.8085032308778 L547.5583546126809,371.0474257337712 L548.2887766649335,373.5252707395581 L548.6253551466128,377.1343717883785 L549.0752951308001,377.9729570320749 L551.2583805605739,379.49393533122077 L551.9642604318694,381.92325460862014 L552.5965137602993,387.726628437963 L553.7149360067099,391.00818082016764 L555.7005153135516,394.4580568227168 L557.2490100643278,398.9133252602942 L557.1485039899383,401.70810392961187 L556.6775278506472,404.2845168211858 L557.1040943291617,406.35595885172734 L556.2310938923088,408.25907726192474 L555.1792861370651,414.13978897088515 L553.9673698679672,415.42117148611766 L552.1278749715748,416.17786956316024 L548.8509094763476,416.81931903528243 L543.6012201023962,416.70255400135005 L540.4598209400694,416.12024526069996 L532.5607446981885,416.7601783038101 L525.514801413339,418.0415608190427 L522.0146189389426,418.5086209547723 L517.9756771588079,416.993708371675 L512.0960718069932,412.56876851433975 L509.98778159537176,409.3660704407646 L508.28151568131,407.3856141509496 L505.23010451581865,406.22099666964976 L499.57605349374194,405.17314422228196 L495.76149736805667,404.1252917749144 L488.04239711985065,401.7369160808419 L483.374708037136,399.40768111824195 L475.4312221344785,396.0882180107344 L471.8410516632457,395.09798986582683 L468.38527884962684,394.57482185664924 L462.73122782755013,392.94466066863146 L451.6007644265029,384.0341237934765 L447.83178663687954,378.2701771184485 L444.42042348403834,371.0489421627834 L442.89530223893485,366.624002305448 L441.99775962112585,365.2258547562831 L438.3176011530577,361.2073178741931 L437.4644681960252,359.169237281918 L434.27865937291983,354.6851566931105 L432.3935861404665,350.43460617216766 L431.90040517078603,341.6423507599572 L432.34917647968996,333.0229682551272 L432.2720439109721,328.7314741508575 L434.2880087751895,326.4901920709598 L436.9502510712398,321.26002840819433 L439.2899389890158,317.71158451985815 L442.6358563259745,311.73382135412277 L446.0904604643089,306.78419705859767 L447.4227502876179,304.3109013398472 L451.1648485457175,300.8549596212496 L455.8792846397796,299.12774697645705 L459.76512995776295,297.2595064335382 L463.9758670045883,294.13111338155653 L469.9489663790904,288.24736881457187 L471.35254539469736,285.3054965310796 L471.35254539469736,281.52352257487865 L472.8998714701902,280.2163607664402 L476.57068053599085,278.6286595907617 L477.5067894381598,278.53464099201096 L481.8963338033757,276.24786604174994 L483.87606973380184,274.7056577364345 L484.95592569585233,272.9314357922665 L486.25081791008677,271.9988319498193 L486.6107698974366,270.456623644504 L487.76191505178633,269.66353127117077 L491.072772130236,270.5976515426301 L493.59243604168694,271.9518226504438 L495.858497416595,272.6524128540384 L496.614630325089,273.4925145267471 L496.6870881926716,275.7808059060203 L498.0544382744895,277.36850708169874 L498.95431824286504,279.1882218962302 L501.04157229938164,279.8433192294614 L504.02753764899046,278.1145901556566 L507.05090060767384,276.9469398163323 L509.3531909163743,277.04095841508314 L513.1326867835506,278.3011109241461 L520.2218710538943,281.42950397612776 L522.4879324288036,282.97171228144316 L526.2311993621877,285.95907743529875 L528.102248491237,287.9213365769683 L529.9020084279882,288.94795901816633 L532.6729375254142,289.2284983854066 L534.1478057333215,288.06084804608247 L538.3223138463577,287.874327277593 L540.1220737831089,286.65966763889327 L540.6970620226406,283.344753818422 L540.3371100352907,280.58940230341915 L537.6386388054482,279.5627798622211 L534.9389989003224,276.9469398163323 L534.831480774231,274.9391878042994 L536.0211922129396,269.04179537620587 z"/>
	<path id="sinop-duragan" title="Durağan" class="district" d="M345.2407955409628,514.0375830016184 L340.5894679122188,511.09571071812616 L337.999683483751,509.14861586657753 L336.2735500898676,507.1514788576295 L334.8103686347957,504.2308365803067 L333.6475367276086,497.17185952893715 L332.7850543683086,493.2276276684406 L333.61013911853195,488.2127969253947 L334.21083821430494,485.82745408934653 L338.86333451833434,478.1846518683149 L341.4519502715178,473.3153983104316 L342.6895773968539,469.37268287894705 L344.4262288682903,467.2542315490303 L344.6155542642349,463.94993273164374 L345.5282896607291,460.3484138278838 L345.6042535541636,453.0968502919766 L346.4784226663,448.06533882979744 L346.3638924885055,446.2896004566172 L343.3615656849271,437.70661224807776 L343.01914382683015,435.09228863120114 L344.19716851270454,429.3222762401247 L346.28792859507206,425.12935002164215 L347.4285556718708,420.9849495315471 L350.28012336386354,412.99488506674237 L351.91510008562614,409.09766250562126 L353.8153660967668,403.57331161450657 L358.14881404837195,393.4117208043612 L358.90962165799715,392.1788640175163 L362.86325014243187,389.2187945858787 L365.5243237631977,387.8373277558469 L368.6411807445706,387.19739471273664 L372.4428814421363,386.8516488979758 L374.83749709824076,384.5330289384605 L375.82619638816846,381.52443377843537 L377.61310089680006,378.91011016155875 L382.85928424490044,372.0528181687997 L385.1779360075715,369.7842403666842 L388.6372148470392,365.04843256186626 L392.1724575799425,361.3983879297189 L394.1112898754431,358.93267435602894 L395.0614228810129,357.1569359828488 L397.6465326083464,351.23679711957357 L400.5740641937736,342.2110116394982 L402.5128964892721,338.46239912156375 L404.1093069266758,336.09373700464886 L408.2908270914119,332.14798871514006 L410.913334427821,329.2379614409021 L413.72750451074023,324.65076367927094 L417.5175184554686,324.99499306501986 L424.1754615461623,327.5168145121578 L427.4138607570296,328.35691618486646 L432.2720439109721,328.7314741508575 L432.34917647968996,333.0229682551272 L431.90040517078603,341.6423507599572 L432.3935861404665,350.43460617216766 L434.27865937291983,354.6851566931105 L437.4644681960252,359.169237281918 L438.3176011530577,361.2073178741931 L441.99775962112585,365.2258547562831 L442.89530223893485,366.624002305448 L444.42042348403834,371.0489421627834 L447.83178663687954,378.2701771184485 L451.6007644265029,384.0341237934765 L462.73122782755013,392.94466066863146 L468.38527884962684,394.57482185664924 L471.8410516632457,395.09798986582683 L475.4312221344785,396.0882180107344 L483.374708037136,399.40768111824195 L488.04239711985065,401.7369160808419 L495.76149736805667,404.1252917749144 L499.57605349374194,405.17314422228196 L505.23010451581865,406.22099666964976 L508.28151568131,407.3856141509496 L509.98778159537176,409.3660704407646 L512.0960718069932,412.56876851433975 L517.9756771588079,416.993708371675 L522.0146189389426,418.5086209547723 L525.514801413339,418.0415608190427 L532.5607446981885,416.7601783038101 L540.4598209400694,416.12024526069996 L543.6012201023962,416.70255400135005 L548.8509094763476,416.81931903528243 L552.1278749715748,416.17786956316024 L553.9673698679672,415.42117148611766 L555.1792861370651,414.13978897088515 L556.2310938923088,408.25907726192474 L557.1040943291617,406.35595885172734 L559.6518064474186,407.570618490427 L560.9992890494149,409.56320621233886 L563.5843987767462,411.5072682058631 L567.1652198457093,413.11013367166277 L568.1211962277,414.6053326776026 L569.2162449684357,415.04206423309023 L570.9295229341994,414.35057260356837 L571.2672700911621,413.54838165616246 L573.2329819181832,412.19875983538503 L576.5204654909624,413.0737393753721 L578.7105629724371,412.85537359762844 L579.3568404042699,413.475593063581 L579.5823947340047,416.8284176093551 L581.0140219564207,421.5308639759065 L583.3466978224948,422.8789693676718 L585.902590667738,422.8789693676718 L588.9084234971663,423.97231468540264 L589.1094356459462,431.0191603046753 L589.5593756301356,435.19995509106104 L590.3084964869255,438.6013053652225 L590.2337012687743,440.83652172907165 L592.3303047275605,445.93930535481996 L595.3641857637969,449.43922351476846 L596.0946078160496,451.6501770144241 L596.4568971539682,457.84175667086697 L597.2141987377433,461.141506201217 L598.6201151039191,464.0181720371888 L599.0525249588536,467.0358657712864 L598.3150908548989,474.07967853253473 L597.3415843436565,478.2589568899084 L597.378981952731,482.14708087695703 L597.1125239880686,483.9228192501372 L597.1429095454422,487.5152395798243 L596.3306802233384,492.0523951840558 L596.7350418714658,495.00639889964503 L597.6676447477817,497.9012618837619 L597.5051988833607,499.90294817974626 L595.477547266307,504.7979810308356 L593.6509077980331,505.4834069443091 L590.0408698469797,504.00792151552656 L587.7280614607274,502.3762438984968 L584.1974934289584,499.05981364901345 L580.3747565762889,496.8731230135516 L578.576165314822,496.8731230135516 L569.9244621903001,496.14372065872703 L567.9762804925319,494.7349581064774 L566.7409907177613,494.7349581064774 L564.4936281473905,493.7144013813277 L559.8493125703475,493.76292710971524 L557.9385284816549,495.0261124768024 L556.3654915499227,496.8731230135516 L550.7476694616372,499.83774173222554 L548.9490782001703,501.8303294541373 L548.4255116731152,503.4817206483246 L548.6124997184932,505.5728762560235 L550.3725246956001,507.4183703637607 L552.8454415957078,508.53597854568534 L553.8563457160249,512.5226704185211 L557.2268052339394,513.7373300572208 L558.8372397747471,514.7578867823704 L559.8796981277211,516.9961360042439 L561.519349550618,519.1979909298267 L563.5633626216413,520.8463492659898 L565.3748093112278,521.6682537905531 L568.2731240145669,525.2530919751798 L569.1788473593601,526.7225116879137 L569.404401689096,528.6605079653897 L568.9977026904019,531.2460194310361 L567.22014758404,535.1523405662301 L566.9279787631383,536.7734031801749 L567.4527139654767,539.2512481859619 L568.6880037402462,541.5850324355984 L569.1379437244345,543.4805687007351 L569.0152328196558,545.8416486725896 L567.8126659528266,548.6697887801736 L565.6810022355324,550.5895879095042 L559.6015534102244,552.4563120234111 L557.6381789337689,553.5147794738632 L555.8910093847795,556.0411502080378 L555.3101777688292,557.8441843034357 L553.3830322261659,560.1279263956724 L551.4138143732928,561.0302016578778 L549.3218856156409,561.0650795251561 L544.9451966785415,560.203747846278 L541.6121347697035,560.3811700406948 L539.6510976438146,561.4714825004016 L537.9717112612755,564.0645761111086 L537.0063854770194,566.8714862125232 L535.7687583516822,567.7055221691835 L532.488286830604,567.8996250827333 L529.381947926784,567.3506777803498 L525.200427762048,565.9934738145118 L520.6461001818435,563.2775494538239 L511.7828668309877,558.9784732044936 L499.9418488575094,554.2547968317729 L495.18534045324066,548.1132593327295 L490.3528681555364,545.5944707436158 L485.5168898319821,544.4677639876186 L479.26213971413233,541.6669196022524 L475.8472705354412,541.1028080097476 L474.4308360917114,537.75453275101 L475.87531874224715,528.5619400796024 L475.3201979825351,521.8729717071878 L475.32954738480373,517.414670411586 L473.6267874965919,514.6244410293048 L469.9302675745521,511.5521558507711 L463.6649993791493,510.98349497122996 L459.68098533734315,509.0242686875846 L454.8438383385055,505.3939376325946 L452.20263219755816,500.7536648555397 L449.1033053454403,500.81432201602416 L443.0787842584608,499.10075723234036 L440.48549380414306,498.9521471891537 L437.2003475819305,499.54962021992475 L432.04298355538526,499.8771688865404 L429.1995965903758,498.18331768001417 L424.09014825045915,497.3356338622451 L419.6713870031499,497.93310689301615 L418.5179044982325,496.588034359275 L416.82800003814145,495.83891842729304 L412.29353993775646,494.8426245663371 L409.9503459941305,493.14725693079873 L405.14709057851644,493.3474255603972 L401.61184784561317,494.09502506336713 L399.5374492172163,495.5401819119075 L398.3465691032244,495.4901397545078 L394.0797356427851,487.92770827111804 L391.6325295989177,487.7063096353502 L388.80901011372987,490.15534248990696 L388.155720630195,491.55500646808383 L388.2094796932402,494.3664658565348 L386.9870453465914,495.82375413717205 L382.8779830494377,496.31659356610754 L381.157693031972,497.3720281585356 L378.5725833046406,500.6854255499949 L377.0112331257438,501.4026964727226 L373.12071310662606,501.80606658994367 L371.2835555607992,502.3671453244242 L367.8990719394816,505.9125563547359 L363.5761420654295,508.49806782038246 L353.9731372600535,510.68627488485663 L348.08301383068795,512.5287361345695 L345.2407955409628,514.0375830016184 z"/>
	<path id="sinop-erfelek" title="Erfelek" class="district" d="M272.964072626457,111.4575252958175 L274.94030253103216,110.0548284596163 L276.52035151446415,109.92896485161121 L277.7252557318601,108.74160093512953 L279.34620835021974,109.63932691029825 L282.57058345768405,109.14952033938698 L285.7750910853267,107.06291401872438 L288.7353455786963,105.51009071032438 L290.32357528911473,104.07858172289302 L295.07073429111585,101.77967534053508 L301.1945927772015,96.77242674254978 L303.46883487909594,94.6039332552333 L310.2600069521194,89.2979481418623 L313.4539965022101,86.12102936149306 L315.34958781221536,84.72743109936457 L319.70757794477646,80.7801663808437 L325.5684844920528,74.49001883861371 L327.30396728820585,72.9796555425527 L332.86686163816074,67.28394817306969 L334.04021162289973,65.87518562081999 L336.9245022228348,71.99852597171792 L340.5357088491715,77.57291902023219 L347.60619431497804,83.5901093402825 L351.6743529772051,86.30300084294623 L360.60770684507565,90.54445278981632 L361.63380374408104,91.48312234831208 L364.67469683201836,96.16888799573017 L365.7779262997405,98.68464372681977 L367.03191487904724,107.02045400638528 L367.14644505684174,110.42332070955891 L366.7280593053114,117.47774847389195 L367.07048116340616,121.9663783497359 L368.4004336361485,126.99788981191503 L372.92437565897944,130.49932440087574 L375.8519072444098,134.39654696199702 L376.91540175248866,136.2223274925767 L378.8168364389137,140.9080931399949 L379.72840316012457,147.0738935032318 L379.7669694444835,152.10540496541094 L379.3485836929531,153.97971122437815 L377.5616791843215,156.5439926838552 L374.1409666292117,159.45401995809334 L370.6431215053861,161.57550414603435 L369.42653053515386,162.61122516130513 L369.0081447836214,165.3741588213685 L369.9968440735522,168.62993191036747 L371.4798930084458,170.40567028354755 L372.5819538008846,174.74569011620486 L371.51729061752036,178.05150536260345 L370.6057238963094,179.23431999204874 L368.7042892098855,179.7772015783839 L366.6894930209514,179.4814979210225 L363.648599933013,177.55714950465565 L360.1133572001108,176.8171321467463 L357.18582561468145,177.7542852762299 L356.1211624313182,178.64291267732605 L356.0451985378848,181.70154999475074 L356.9965002187379,185.35159462689828 L356.4261866803396,188.41023194432304 L355.2282945146446,189.741656616955 L351.3249190674072,191.64932431418876 L348.8414840897465,193.75261135398455 L346.8138324726949,196.3836156899944 L345.18586780263325,201.92464730024224 L344.5395903708004,203.01041047291255 L341.30820321163407,205.3775561608154 L339.55986498736246,205.52616620400215 L335.2638146448329,207.15329453399556 L332.56534341499145,207.30190457718226 L329.2579923623906,209.52195665091048 L327.6230156406291,211.10055925251646 L326.1832076912287,213.3615549095716 L324.98999022666806,213.90746935393102 L324.7807973509018,215.1297111376913 L323.6506883516571,215.94403351719387 L323.4403268006097,217.59997399841745 L321.8918320498335,218.65995787788202 L320.7196507403789,220.9952585565305 L319.1711559896027,221.51084442064777 L317.3503598977465,224.09180659925795 L316.72161259516764,226.26484937361076 L313.8338159693816,228.24682209243778 L310.9448506683111,229.1976230830304 L308.9358978557968,233.48911718730014 L308.60048804940186,234.98279976422793 L309.94095859969616,238.64952511550857 L309.52140417288246,241.7991481736599 L309.9199224445912,244.32551890783412 L308.74774113513655,246.79729819757256 L304.6865945246115,252.36410910102626 L303.32625649449557,253.72282949587634 L300.2701706278709,255.62291504804955 L299.6636281556803,257.55181275145264 L300.1860260074511,260.2950328343586 L301.2331590615614,261.5991617847727 L303.5144132151548,263.22780654377823 L305.87981198917214,264.23319897880685 L306.92577636799706,266.13328453098 L306.92577636799706,269.3390154625793 L306.04693255472637,271.7562033078817 L306.4033785162252,273.79276747114477 L305.77463121364735,276.1280681497932 L306.19418564046106,277.84011650446485 L304.75905239219503,280.4802194145474 L300.2269296423777,279.29133906905355 L287.18100745150355,278.51644384386555 L282.619667819596,277.9629472544456 L277.4190628075565,277.68695717424174 L270.93875835997096,276.5799639954019 L265.0708397609937,275.02714068700186 L267.77515436725383,272.259657739902 L268.9975887139048,270.3747364778501 L271.67385511335794,264.37422687693305 L273.2024823843125,259.7612498220961 L274.08132619758317,257.92637071744366 L277.3688097703613,254.05796030755255 L278.4393163301432,251.3314209437798 L279.089099787827,247.3629262190893 L279.16506368126045,244.53630254051745 L278.70577429480556,240.86654433121254 L277.82693048153493,237.69265840886754 L274.76967593962587,232.88254558245637 L273.5086753086161,228.91405085776594 L272.20910839324836,226.28607937978032 L271.74981900679245,224.2025059171419 L272.246506002324,221.723144482343 L274.7311096552659,219.19374089014445 L277.86549676589385,216.96155738431935 L282.2994507918873,214.73089030750643 L285.1276449782105,211.45692007036217 L286.3500793248604,209.32482087933627 L286.8093687113163,206.19946068537877 L286.3500793248604,204.01731933695325 L281.0372814855952,198.06685189343577 L276.48996595709167,194.14839932614507 L272.1705421088905,189.53693870032023 L272.246506002324,183.23769258401762 L271.74981900679245,178.72479984398004 L271.74981900679245,175.20365167786184 L272.13197582453057,173.3687725732095 L271.74981900679245,170.04627660767764 L271.9029154689448,168.70726978998505 L270.71787873136947,166.02925615459978 L269.03615499826265,165.68199391082678 L265.94033417199574,165.88064611141306 L263.99098379894315,164.78881722269426 L260.7046689014484,156.6061662733518 L259.32796941736285,154.9684229402736 L255.65949770212893,152.58914582027393 L254.35993078676125,151.44727477415543 L254.7035213201404,149.51382778371587 L257.14955868872454,147.38172859269014 L262.1187659946095,144.95089288627864 L268.23327507842754,142.71870938045356 L269.9149988115333,140.3394322604538 L270.67931244701055,134.78475278909696 L270.10666155804455,133.247093770818 L268.69256446488345,131.61086686675196 L268.0427810071996,130.1217335768605 L268.1187449006341,128.43546451539476 L270.33572191363135,124.5685705345157 L273.8136995576374,119.8570255938917 L274.11989248194203,117.9721043318397 L273.3170125621059,112.41742486048277 L272.964072626457,111.4575252958175 z"/>
	<path id="sinop-gerze" title="Gerze" class="district" d="M438.19489024827794,155.7857781778006 L440.30434913518377,157.15814643375955 L441.12592785955826,159.9665729641863 L441.6319642573594,164.4931135653329 L440.94244584003127,165.41055311765922 L440.92024100964295,167.22420221614203 L443.49249530885686,171.82959712591844 L448.21744948046864,177.09918794299858 L452.6315360266426,181.3254755997477 L455.35221208687346,181.4725692139223 L456.3444174026521,182.33541732181249 L457.3144178880435,185.36372605899504 L457.03744184583024,186.95597652171008 L462.81537244797005,193.37956981700552 L464.35568647175876,195.68605834442405 L466.86483230565875,197.32683453552642 L470.77638847988146,197.9940633008546 L474.00894431432994,200.48555616775036 L476.2025478216567,201.65472293608676 L476.93881325032703,202.9315561642829 L479.69221221849807,205.58530693547442 L479.70156162076773,206.36475144769872 L475.754945188035,207.00165163278467 L474.31163121278473,208.1662691140847 L473.5543296290084,209.86618603665934 L473.6898959619068,212.41227034799104 L475.5831499213465,216.47326724242023 L478.25357294438095,219.8185096431336 L478.0911270799611,222.61025545442703 L478.50483813035714,223.89922011472012 L480.7416826231739,226.09500932425453 L480.6680560803071,227.71000622215115 L483.69726241541025,230.95364787905314 L491.0120010154899,236.42340732573192 L495.50205145509835,238.488783640225 L496.7279918275981,239.82779045791753 L499.47087271821715,241.89771605944696 L508.1459493484117,246.40605951244837 L508.9383111906959,247.523667694373 L507.27996096325955,250.57169000871298 L507.59667196511725,253.46503656381762 L509.9199984289237,256.64347177319917 L511.4299268953388,257.50025416504104 L514.1774824870932,260.7105343836766 L516.8443994842788,261.9737197507638 L519.5685815703596,262.8714457259325 L521.991245433271,264.20893611461304 L525.9974643054666,265.77389085511004 L527.7528145814391,266.12418595690724 L529.3983093807558,267.2827377221589 L533.6067090770134,267.9150886202084 L536.0211922129396,269.04179537620587 L534.831480774231,274.9391878042994 L534.9389989003224,276.9469398163323 L537.6386388054482,279.5627798622211 L540.3371100352907,280.58940230341915 L540.6970620226406,283.344753818422 L540.1220737831089,286.65966763889327 L538.3223138463577,287.874327277593 L534.1478057333215,288.06084804608247 L532.6729375254142,289.2284983854066 L529.9020084279882,288.94795901816633 L528.102248491237,287.9213365769683 L526.2311993621877,285.95907743529875 L522.4879324288036,282.97171228144316 L520.2218710538943,281.42950397612776 L513.1326867835506,278.3011109241461 L509.3531909163743,277.04095841508314 L507.05090060767384,276.9469398163323 L504.02753764899046,278.1145901556566 L501.04157229938164,279.8433192294614 L498.95431824286504,279.1882218962302 L498.0544382744895,277.36850708169874 L496.6870881926716,275.7808059060203 L496.614630325089,273.4925145267471 L495.858497416595,272.6524128540384 L493.59243604168694,271.9518226504438 L491.072772130236,270.5976515426301 L487.76191505178633,269.66353127117077 L486.6107698974366,270.456623644504 L486.25081791008677,271.9988319498193 L484.95592569585233,272.9314357922665 L483.87606973380184,274.7056577364345 L481.8963338033757,276.24786604174994 L477.5067894381598,278.53464099201096 L476.57068053599085,278.6286595907617 L472.8998714701902,280.2163607664402 L471.35254539469736,281.52352257487865 L471.35254539469736,285.3054965310796 L469.9489663790904,288.24736881457187 L463.9758670045883,294.13111338155653 L459.76512995776295,297.2595064335382 L455.8792846397796,299.12774697645705 L451.1648485457175,300.8549596212496 L447.4227502876179,304.3109013398472 L446.0904604643089,306.78419705859767 L442.6358563259745,311.73382135412277 L439.2899389890158,317.71158451985815 L436.9502510712398,321.26002840819433 L434.2880087751895,326.4901920709598 L432.2720439109721,328.7314741508575 L427.4138607570296,328.35691618486646 L424.1754615461623,327.5168145121578 L417.5175184554686,324.99499306501986 L413.72750451074023,324.65076367927094 L414.525709729441,322.4307116055428 L415.3613125572184,316.3634791280928 L415.5518066284453,312.319162952797 L415.39987884157847,306.64620201849567 L414.4111795516476,305.31477734586355 L410.305623280346,304.0804041300064 L405.62975347064605,303.1932931579224 L402.01854684430936,301.81182632789086 L397.8744242886478,298.654621124679 L394.79496491634944,295.9917717794147 L391.56474643246855,293.87028759147364 L387.1927321965045,292.53886291884146 L382.70618778274707,291.9959813325064 L375.06538877854325,291.8473712893197 L368.2227949930402,293.278880276751 L362.74871996463844,296.63322125153695 L359.5173328054732,299.00036693943986 L356.20998175287133,299.69034213994973 L350.65994283103606,300.1846979978973 L343.2856017914915,300.48040165525873 L331.3487524447592,300.5789695410458 L328.078799001234,299.8389521831363 L325.53225555825946,298.8517568962532 L322.9097482218525,295.39884803568 L321.1228437132219,291.89741344671927 L321.236205215731,288.8387761292945 L322.0344104344328,282.18013633712206 L322.3768322925287,277.9872101186395 L323.6693871561944,273.4000123570084 L325.8361111319975,270.19276499639693 L329.98023368765803,265.80270300634015 L331.3487524447592,263.9784389047726 L334.76946499986906,256.62830748307806 L335.9100920766668,253.6682380514404 L337.24121322469136,247.74961561717734 L336.48040561506514,246.61532671611945 L334.58013960392447,245.43099565766198 L331.0822944800968,244.04952882763033 L327.28059378253215,242.175222568663 L325.22839998452355,240.0052126523344 L321.8065187541293,235.07226907594236 L321.35073539352334,233.54370863173605 L321.3881330026,230.38650342852426 L322.75665175970016,228.61076505534407 L324.7340503395587,228.0193577406214 L328.6491125396334,227.72365408326004 L330.85440279979434,225.89787355268032 L333.5914403139947,220.4220483899531 L333.5914403139947,219.23923376050772 L332.33745173468793,218.1534705878375 L328.19332917902847,216.62491014363113 L326.40642467039686,215.14487542781228 L326.12594260233044,214.0894408353841 L327.61132888779275,212.3925567708337 L331.2996680828473,211.3386386074177 L335.0148868094255,209.0033379287691 L339.5061059243162,207.11841666671714 L344.06861423150707,204.52987234304626 L346.8559047829048,201.91858158419382 L350.55008735437696,202.18547309032516 L351.8660157237153,205.48218976265096 L352.26336532014074,208.70005212634717 L352.3556906675448,213.38733420277742 L349.6618941388387,218.1928977421523 L349.47841211931177,219.4636652542999 L350.9474369508024,224.70747677817437 L352.26336532014074,227.56746189501285 L354.86600517672605,230.6655263667524 L356.9778014142006,232.41245258870248 L358.4783804783482,234.75685184142355 L360.9267551975,237.73511842120655 L361.5695266034807,239.36376318021215 L359.7639232903129,243.25643645429702 L357.43709080065656,246.79123248152396 L355.6618730448623,248.2212250399433 L355.56954769745823,249.8498697989488 L356.48812647037005,252.11389831402823 L356.02883708391306,254.49772472106423 L356.76393383730004,256.8011803904585 L359.21230855645183,259.89924486219803 L359.42734480863464,261.0107873280743 L359.089597651672,264.3878747380421 L360.07011621461754,266.85055545370767 L360.8344298500938,267.4859392097816 L365.39576948200136,268.2396044287999 L369.13085568840114,268.31997516644174 L371.8246522171083,266.69133040743634 L374.39573784103777,263.156534380209 L376.01785913468075,256.91946185340305 L377.365341736677,254.0609931655768 L379.84410201320134,251.79544822148517 L382.4771274271624,250.1683198914918 L383.2122241805483,249.17505888856007 L384.80395991681763,244.28912461154363 L384.8647310315648,241.94624178783457 L384.4054416451089,237.9731977761078 L384.8647310315648,230.8247514130239 L385.53788799492133,228.9565108701051 L388.5378774479331,225.6203670434642 L389.30335975869474,223.15768632779853 L391.9048309399967,220.73443276644758 L393.0384459650924,219.10730443645426 L393.5585064662977,216.60368013746157 L393.3130846567402,215.0159789617829 L392.27296365433295,213.9832908045364 L392.1198671921806,210.36812403966755 L394.1089525248754,207.98429763263155 L395.7322424938017,204.608726651676 L402.006860091472,200.5977719146464 L404.6094999480594,199.40585871112847 L406.35433214648003,196.8628072578209 L410.36405704452653,186.29784633045452 L411.5888287417441,184.03381781537516 L413.3032753827922,182.44460021068446 L416.2413250457714,181.80921645461058 L422.05782193227117,178.83094987482767 L425.6386430012343,178.07576822679718 L426.4964506594,176.76557356033456 L426.71031823629846,172.39522514743524 L426.37373975462026,168.89985627452288 L429.61798234190724,163.6969883339755 L432.19023664112,161.71046632811215 L435.86338305748825,161.15545330968 L437.57782969853645,158.73219974832924 L438.19489024827794,155.7857781778006 z"/>
	<path id="sinop-sarayduzu" title="Saraydüzü" class="district" d="M342.6895773968539,469.37268287894705 L341.4519502715178,473.3153983104316 L338.86333451833434,478.1846518683149 L334.21083821430494,485.82745408934653 L333.61013911853195,488.2127969253947 L332.7850543683086,493.2276276684406 L333.6475367276086,497.17185952893715 L334.8103686347957,504.2308365803067 L336.2735500898676,507.1514788576295 L337.999683483751,509.14861586657753 L340.5894679122188,511.09571071812616 L345.2407955409628,514.0375830016184 L344.7628073499685,515.0687547298528 L345.22326541170884,516.4396065567997 L347.6330738465006,517.5754118868696 L349.40361690116055,519.201023787851 L350.5828102623183,519.5528353186605 L352.2937508775133,523.732113676034 L349.45270126307247,532.0937032488055 L347.3187001952096,535.23119487486 L346.5450371574648,537.2025525906022 L347.8796643313404,539.001037398964 L351.8426422180437,542.1279140219335 L357.60070534036186,545.265405647988 L361.72729776676846,544.2569803549352 L367.34278250448625,541.0451837072874 L368.97308452511453,541.8276610775358 L370.84413365416594,543.6306951729341 L371.4483387757889,546.2162066385804 L371.50794121525274,548.5666716073501 L369.15422919407274,553.4237937331368 L369.09345807932453,558.3597701675528 L368.18773473453336,563.9993696635879 L367.1008667207798,566.4286889409873 L365.1690464769822,568.3090609160029 L362.93453933473097,567.6827757340018 L357.68134393492966,563.6869852870934 L356.2321865832606,562.0416598089548 L354.42073989367304,561.8839511916954 L351.1601358524175,559.8473870284324 L348.3225922638267,557.7319685565396 L344.54309639665036,553.2023950973687 L341.62023951235636,551.4645674494914 L338.01955096357267,551.7951489741313 L336.8321768754307,552.3835234308297 L335.7499835628125,551.9756040265725 L330.3705712323814,550.9338172952532 L328.1348954148469,551.3417366995106 L322.9518205320624,554.3791440107657 L319.1816740671536,556.1988588252971 L317.2767333548797,559.5031576426834 L317.3082875875377,560.6571601208987 L318.54942073872587,564.0327311018543 L318.7282280571164,566.7941483329057 L318.23387841215254,569.5752791411142 L317.41463703834575,571.7225426222612 L314.4789247259311,576.7313076492587 L312.5342490540139,578.4933981613299 L308.4707650929211,579.9749493061609 L306.90590888817644,580.9773088831653 L304.62582340986324,581.2563318213934 L302.0757739410398,580.6209480653195 L298.3734106425813,578.6268439143955 L295.7532406567399,577.7200193651543 L292.3652510095713,575.3179958099729 L283.7719816492279,571.7377069123825 L276.96094209638386,570.1060292953525 L272.24533732704066,568.5198445486863 L264.7003696960919,563.850759620401 L257.81920962623,560.133992111721 L252.99842408136197,559.3181533032061 L245.3482756748885,557.1435940998413 L238.25792272926134,553.3358408504344 L235.46362012616373,551.0248030359796 L229.90890650319312,545.1774527652856 L229.0359060663401,543.5002822778924 L228.61635163952639,540.7813250591805 L229.87384624468416,536.702131016606 L230.32846093000683,533.7557094460774 L230.22328015448204,531.8070981655169 L229.38533997613797,529.9479561966706 L227.79243556458528,528.3344757277862 L223.48236111865282,527.9083591753833 L218.8275274640568,529.4187224714444 L216.5813335689703,530.5666592336111 L211.66354797556284,531.5447559464219 L205.28258092708342,530.854780745912 L203.04690510954782,530.3558756009281 L200.28766276495918,529.0866245177924 L196.30598607371854,528.6332122431716 L190.92657374328962,529.9934490670337 L188.20239165720676,531.9875532179578 L183.9402328979029,533.8466951868038 L181.14593029480528,533.0763492486524 L178.35162769170665,531.0367522273652 L174.96363804453807,528.181316397563 L171.8853473475251,527.4367497526173 L173.13466122569758,525.0680876357026 L175.04778266495788,523.5107150402662 L177.11166321580282,522.8768477132044 L182.9269914270182,522.0003517442051 L188.48053637470446,521.5135780313178 L191.3321040666993,519.810628250719 L196.3597451367648,517.4738111430584 L205.8154968564072,513.3354763690118 L207.91560634104337,512.2633610574503 L209.8672940646636,510.6574627336266 L212.83105458388314,507.3470982001916 L214.96973035287925,506.0808799750803 L218.72234668853304,505.6426319905806 L225.21316921367048,504.0852593951441 L228.13953212381546,502.52637037069564 L240.33349003294262,496.7336115444375 L251.32721842580816,490.8422848323924 L257.55625768741857,486.6068986015709 L260.9325605817508,484.61127802163463 L263.9722849944059,483.3935855249109 L275.37855576238314,476.0419376742043 L278.3423162816037,474.6301422639305 L284.27100599532815,473.1212953968816 L287.8728632193973,472.5859959556069 L291.7376723822768,472.39037661304485 L295.45172243357064,472.4874280698199 L301.1548578175592,473.1698211252691 L303.74347357074265,473.21834685365656 L308.58412659543126,472.3418508846574 L311.0231519123144,470.2476624189341 L314.6998043545326,468.7873412802729 L322.0157116298945,467.37554586999886 L332.55950003857276,466.4019984442246 L338.7885393001832,466.3534727158373 L341.9018902557061,468.00941319706055 L342.6895773968539,469.37268287894705 z"/>
	<path id="sinop-merkez" title="Merkez" class="district" d="M322.0344104344328,282.18013633712206 L318.1742759726876,282.94138370120095 L315.5739734666679,283.05208301908493 L309.94680197611376,282.60928574754905 L307.17587287868776,281.66909976004115 L304.75905239219503,280.4802194145474 L306.19418564046106,277.84011650446485 L305.77463121364735,276.1280681497932 L306.4033785162252,273.79276747114477 L306.04693255472637,271.7562033078817 L306.92577636799706,269.3390154625793 L306.92577636799706,266.13328453098 L305.87981198917214,264.23319897880685 L303.5144132151548,263.22780654377823 L301.2331590615614,261.5991617847727 L300.1860260074511,260.2950328343586 L299.6636281556803,257.55181275145264 L300.2701706278709,255.62291504804955 L303.32625649449557,253.72282949587634 L304.6865945246115,252.36410910102626 L308.74774113513655,246.79729819757256 L309.9199224445912,244.32551890783412 L309.52140417288246,241.7991481736599 L309.94095859969616,238.64952511550857 L308.60048804940186,234.98279976422793 L308.9358978557968,233.48911718730014 L310.9448506683111,229.1976230830304 L313.8338159693816,228.24682209243778 L316.72161259516764,226.26484937361076 L317.3503598977465,224.09180659925795 L319.1711559896027,221.51084442064777 L320.7196507403789,220.9952585565305 L321.8918320498335,218.65995787788202 L323.4403268006097,217.59997399841745 L323.6506883516571,215.94403351719387 L324.7807973509018,215.1297111376913 L324.98999022666806,213.90746935393102 L326.1832076912287,213.3615549095716 L327.6230156406291,211.10055925251646 L329.2579923623906,209.52195665091048 L332.56534341499145,207.30190457718226 L335.2638146448329,207.15329453399556 L339.55986498736246,205.52616620400215 L341.30820321163407,205.3775561608154 L344.5395903708004,203.01041047291255 L345.18586780263325,201.92464730024224 L346.8138324726949,196.3836156899944 L348.8414840897465,193.75261135398455 L351.3249190674072,191.64932431418876 L355.2282945146446,189.741656616955 L356.4261866803396,188.41023194432304 L356.9965002187379,185.35159462689828 L356.0451985378848,181.70154999475074 L356.1211624313182,178.64291267732605 L357.18582561468145,177.7542852762299 L360.1133572001108,176.8171321467463 L363.648599933013,177.55714950465565 L366.6894930209514,179.4814979210225 L368.7042892098855,179.7772015783839 L370.6057238963094,179.23431999204874 L371.51729061752036,178.05150536260345 L372.5819538008846,174.74569011620486 L371.4798930084458,170.40567028354755 L369.9968440735522,168.62993191036747 L369.0081447836214,165.3741588213685 L369.42653053515386,162.61122516130513 L370.6431215053861,161.57550414603435 L374.1409666292117,159.45401995809334 L377.5616791843215,156.5439926838552 L379.3485836929531,153.97971122437815 L379.7669694444835,152.10540496541094 L379.72840316012457,147.0738935032318 L378.8168364389137,140.9080931399949 L376.91540175248866,136.2223274925767 L375.8519072444098,134.39654696199702 L372.92437565897944,130.49932440087574 L368.4004336361485,126.99788981191503 L367.07048116340616,121.9663783497359 L366.7280593053114,117.47774847389195 L367.14644505684174,110.42332070955891 L367.03191487904724,107.02045400638528 L365.7779262997405,98.68464372681977 L364.67469683201836,96.16888799573017 L361.63380374408104,91.48312234831208 L360.60770684507565,90.54445278981632 L351.6743529772051,86.30300084294623 L347.60619431497804,83.5901093402825 L340.5357088491715,77.57291902023219 L336.9245022228348,71.99852597171792 L334.04021162289973,65.87518562081999 L338.5197439849541,59.848896726697085 L340.5228534210529,56.68259294941266 L341.06044405151,55.22227181075118 L343.08225229214503,52.04232017235777 L342.7924208218121,50.74274050897999 L346.4340130055234,47.16093518237744 L348.68137557589324,44.114429297049604 L349.54736396104425,42.38873308126904 L349.8173279515577,39.72436730699279 L351.3366058202425,39.38923649531657 L353.0966307973505,36.17289056063249 L354.5504628501538,34.49723650225158 L354.98988475678914,33.25679757034606 L353.14922118511237,30.413493172640866 L353.96612520835146,28.95165560496737 L353.914703495874,25.97338902518445 L354.44645074991445,24.7602458154969 L352.4117870811587,21.982147865312356 L353.6353901030919,20.07144731005453 L356.8539218341375,19.790907942814272 L359.0159711088052,21.148111908652183 L361.5461530978081,20.174564482877916 L363.18931054655707,20.236738072374447 L366.5515893374853,22.27785152267373 L367.8289514224658,22.042805025796767 L368.87024110015636,23.037582457740577 L370.9750252859279,21.650049911660446 L373.29133969803235,21.202703353088154 L375.615834837121,21.3877076925655 L377.0638235135056,22.67970521088277 L381.5398498497111,22.888972414553812 L383.35713991571635,23.378778985465203 L384.41946574851187,24.264373528537075 L385.7622736493738,23.771534099601528 L387.3633587879108,22.171701491826063 L388.297130339511,24.807255114872277 L389.7509623923154,24.948283012998445 L389.75914311929967,26.889312148498536 L390.353998838655,29.48695504624198 L393.1062291315427,32.060335079791706 L394.6138202473912,31.878363598338552 L395.94143536956585,34.286452869568365 L396.8109297805689,34.3895700423918 L397.64419525777765,36.04247766559112 L400.4712207688165,37.662023850523966 L401.35240193265486,40.05949811866894 L400.3438351629035,41.398504936361576 L404.33135523056063,43.61097486502926 L403.36018606988483,44.569358000682456 L403.45134274200774,46.16464132142151 L402.70923393691874,47.48090170393253 L401.5323779263298,46.222265623881746 L399.2920274076599,47.21552662681342 L399.30488283577847,48.87298353704901 L401.4716068115815,49.518982296207646 L400.9258354541392,53.090172619725344 L401.7719563594675,55.252600390993415 L403.1638486222414,56.77661154816343 L408.06994746281043,59.83373243657604 L412.5354557214629,61.92792090229913 L415.29002336491726,59.3439258656647 L417.96979579022354,60.51157620498893 L422.1863762134675,61.262208565983116 L423.6518950191062,65.34746832460586 L427.7375838105871,66.14662641398763 L435.8972746407129,66.37712362382823 L439.63820422353035,66.19970142941145 L444.8423152614198,65.38082976287234 L449.7659442312438,64.1403908309668 L450.9159207103112,62.529943220106574 L452.9751265600207,61.4502457634847 L454.45934417019873,61.580658658526076 L455.5006338478904,60.19009325442173 L457.0643213773528,60.130952522949485 L458.25870751719674,58.33095128557556 L458.3463581634676,57.1648173752634 L459.8843348366896,57.24063882586892 L460.2326000712043,56.37020857291808 L462.62020367560774,55.15099964718206 L464.7670601715881,55.67113479833562 L465.71368715130905,54.67635736639183 L468.11882088496554,55.5558861934153 L468.5278572342272,55.108539634843005 L471.6073166065246,54.74156381391255 L472.6602930370525,55.425473298373895 L473.2656668339588,57.26186883203843 L473.1242571246438,58.70550925156661 L474.76040252168764,59.322695859495134 L476.04828268422114,60.77088556605964 L476.4573190334818,62.73617756575344 L477.7522112477162,63.66726497918873 L479.44445305837496,66.139044268927 L481.3458877447979,67.59329969154001 L482.2703098941306,70.06962826831466 L479.6174170003479,73.09035486043675 L478.6392357879722,72.84924264751133 L476.46666843575144,70.9870678206409 L474.0989323111696,70.55640198120186 L472.7491123586045,71.44199652427373 L470.7658704023295,71.52691654895186 L468.5664235185851,70.58521413243193 L466.6240851972367,70.95825566941085 L465.3794460201974,70.03020111399988 L463.16246900720125,69.6389624288756 L461.2131186341476,69.81790105230455 L458.6747559181605,68.94898722836578 L456.64126092468814,67.74645902176306 L454.97356129498417,67.27636602800914 L453.4192231677904,66.03744352511566 L451.4920776251272,65.63104054987045 L447.99423250130053,65.9874013677161 L446.73907524670835,67.19144600333101 L444.9533394133622,70.03778325906035 L442.3238200252522,70.06052969424204 L438.77805921479694,72.18049745317103 L437.03556436694294,74.83879751139888 L435.6051058198111,77.9793219954775 L434.7192499548396,78.8376208163315 L432.4660440080511,85.97090288929424 L431.4189109539408,94.11109382629769 L430.8731395964984,96.29778446175945 L428.49254804379575,97.33653833505446 L426.9463906435873,99.00764310639913 L425.7496671531767,102.72289418606714 L425.489052564933,105.43730211774313 L425.8980889141948,107.93334427167524 L425.08352224152225,109.86679126211472 L425.0870282673733,115.04539633846849 L424.10767837971207,117.36401629798378 L424.70604012491845,120.99434735297376 L424.48983519745127,122.5547528064344 L423.3527141465046,122.89140004712263 L422.60593064028126,124.18946328148837 L423.0593766503184,130.03226426514595 L423.79447340370757,132.24776705183797 L425.4843778637976,135.4853429926915 L427.2969932286685,140.1741414981339 L429.9159945392255,144.56571991720278 L429.7991270108655,145.55139877507398 L431.3172362042659,148.98004477145344 L433.1298515691368,151.3259604531867 L436.68613045714505,154.988136517431 L438.19489024827794,155.7857781778006 L437.57782969853645,158.73219974832924 L435.86338305748825,161.15545330968 L432.19023664112,161.71046632811215 L429.61798234190724,163.6969883339755 L426.37373975462026,168.89985627452288 L426.71031823629846,172.39522514743524 L426.4964506594,176.76557356033456 L425.6386430012343,178.07576822679718 L422.05782193227117,178.83094987482767 L416.2413250457714,181.80921645461058 L413.3032753827922,182.44460021068446 L411.5888287417441,184.03381781537516 L410.36405704452653,186.29784633045452 L406.35433214648003,196.8628072578209 L404.6094999480594,199.40585871112847 L402.006860091472,200.5977719146464 L395.7322424938017,204.608726651676 L394.1089525248754,207.98429763263155 L392.1198671921806,210.36812403966755 L392.27296365433295,213.9832908045364 L393.3130846567402,215.0159789617829 L393.5585064662977,216.60368013746157 L393.0384459650924,219.10730443645426 L391.9048309399967,220.73443276644758 L389.30335975869474,223.15768632779853 L388.5378774479331,225.6203670434642 L385.53788799492133,228.9565108701051 L384.8647310315648,230.8247514130239 L384.4054416451089,237.9731977761078 L384.8647310315648,241.94624178783457 L384.80395991681763,244.28912461154363 L383.2122241805483,249.17505888856007 L382.4771274271624,250.1683198914918 L379.84410201320134,251.79544822148517 L377.365341736677,254.0609931655768 L376.01785913468075,256.91946185340305 L374.39573784103777,263.156534380209 L371.8246522171083,266.69133040743634 L369.13085568840114,268.31997516644174 L365.39576948200136,268.2396044287999 L360.8344298500938,267.4859392097816 L360.07011621461754,266.85055545370767 L359.089597651672,264.3878747380421 L359.42734480863464,261.0107873280743 L359.21230855645183,259.89924486219803 L356.76393383730004,256.8011803904585 L356.02883708391306,254.49772472106423 L356.48812647037005,252.11389831402823 L355.56954769745823,249.8498697989488 L355.6618730448623,248.2212250399433 L357.43709080065656,246.79123248152396 L359.7639232903129,243.25643645429702 L361.5695266034807,239.36376318021215 L360.9267551975,237.73511842120655 L358.4783804783482,234.75685184142355 L356.9778014142006,232.41245258870248 L354.86600517672605,230.6655263667524 L352.26336532014074,227.56746189501285 L350.9474369508024,224.70747677817437 L349.47841211931177,219.4636652542999 L349.6618941388387,218.1928977421523 L352.3556906675448,213.38733420277742 L352.26336532014074,208.70005212634717 L351.8660157237153,205.48218976265096 L350.55008735437696,202.18547309032516 L346.8559047829048,201.91858158419382 L344.06861423150707,204.52987234304626 L339.5061059243162,207.11841666671714 L335.0148868094255,209.0033379287691 L331.2996680828473,211.3386386074177 L327.61132888779275,212.3925567708337 L326.12594260233044,214.0894408353841 L326.40642467039686,215.14487542781228 L328.19332917902847,216.62491014363113 L332.33745173468793,218.1534705878375 L333.5914403139947,219.23923376050772 L333.5914403139947,220.4220483899531 L330.85440279979434,225.89787355268032 L328.6491125396334,227.72365408326004 L324.7340503395587,228.0193577406214 L322.75665175970016,228.61076505534407 L321.3881330026,230.38650342852426 L321.35073539352334,233.54370863173605 L321.8065187541293,235.07226907594236 L325.22839998452355,240.0052126523344 L327.28059378253215,242.175222568663 L331.0822944800968,244.04952882763033 L334.58013960392447,245.43099565766198 L336.48040561506514,246.61532671611945 L337.24121322469136,247.74961561717734 L335.9100920766668,253.6682380514404 L334.76946499986906,256.62830748307806 L331.3487524447592,263.9784389047726 L329.98023368765803,265.80270300634015 L325.8361111319975,270.19276499639693 L323.6693871561944,273.4000123570084 L322.3768322925287,277.9872101186395 L322.0344104344328,282.18013633712206 z"/>
	<path id="sinop-turkeli" title="Türkeli" class="district" d="M46.05524823713711,242.25862616432892 L41.21810123829951,241.5550031027102 L38.88659404750882,241.4897966551895 L36.60417121863006,241.87648605327746 L28.66536001710587,245.61145071010293 L24.00000828495787,246.44851952478737 L18.641632109631757,246.1907265927288 L16.01211272152281,244.90327836144783 L13.040171475316924,242.06907253781537 L10.808001683632327,239.22121885307376 L9.133290002227497,235.16477124568112 L10.6958088564066,229.27344453363585 L13.747220021898002,222.319101084102 L20.185452159273595,217.24967889662014 L22.604609996334048,213.72398144346573 L24.056104698570735,210.44091263224888 L28.149974217036018,205.22591325960457 L31.987903848392932,199.97300316165737 L32.35019318631046,197.65589963115414 L31.79273507603071,195.91807198327672 L29.866758208650765,192.0784737246156 L29.810661795037902,189.32615506763705 L30.731577918518497,185.34249605282548 L32.46238601353619,182.15496226937157 L34.722604012026665,179.14939996737058 L36.89984606538172,177.15681224545875 L37.98905142970088,175.45537889387208 L37.98905142970088,173.02909247449693 L36.286291541489106,170.3116516847969 L34.13709769494102,168.17500320673471 L31.42927706282987,166.0019604323818 L27.91273313446493,162.56269943291764 L23.391128462199575,157.49176081642364 L21.35412744287723,152.96522021527701 L19.231813127851737,151.66109126486288 L18.059631818397108,149.7412921355323 L17.753438894093506,145.46799517940804 L18.059631818397108,143.04170876003286 L18.813427376321357,141.2295760905621 L19.734343499801938,140.57902804436713 L20.879645277733985,137.82670938738858 L20.767452450508245,135.79772736918608 L19.03664435549055,132.5389214221629 L11.277809147642316,128.30050233331707 L8.151602764000785,126.20024815154551 L5.918264297032891,125.40412292018802 L3.7141427121552653,123.81035602846097 L3.4628775261801508,122.7594707230692 L2.0394310307504213,121.094431667773 L1.788165844775321,119.68111982848698 L3.6299980917354304,117.8705035880283 L3.3506846989533727,113.66999522448518 L3.453528123911525,109.36030397207016 L5.4309267037689475,110.17310992256088 L6.99227688266474,111.51818245630187 L9.712952942895527,112.76771996228011 L14.253256419698147,113.58355877079498 L26.843395249966335,114.67387123050163 L27.96649219751116,115.05601134155327 L29.559396609063853,116.55272677650521 L31.77053024564242,116.39956744628219 L32.31630160308481,117.38979559118961 L34.79038717847587,117.63697352016348 L35.6867611210005,117.28212913132991 L38.237979265108294,118.37244159103655 L42.05604141664358,118.35879372992758 L44.859693422009826,117.67640067447833 L47.94733352129245,117.6036120818971 L53.754481005522535,116.28583527037401 L54.96639727461937,113.6578637923883 L56.03807250968461,112.41439200245854 L58.970278796248266,112.00647259820114 L60.27335173746695,112.93604358262428 L60.454496406425164,114.19922894971138 L63.35047375919655,115.10908635697709 L67.57172888357488,114.97564060391137 L70.2351398549095,114.32054327068013 L74.98931090861163,112.2293876629812 L75.60754013363857,111.16637092549253 L78.05708352807261,111.40899956743 L80.07071104172337,110.4612314348616 L83.14198968703533,111.24370880511009 L85.65931624791855,110.64471934532688 L86.65853361540027,109.09947818198735 L89.65151101671006,107.36013410509781 L92.60124743252769,106.96434613293724 L95.02274262015581,106.04690658061105 L97.29932207261695,104.26055320434612 L100.97480583955186,104.14833745745001 L104.37798826540777,102.3559183651367 L106.01413366245367,102.90941495455667 L106.71417015733275,104.33334179692746 L109.41614741302627,104.24387248521293 L109.63235234049242,107.83325995687599 L110.99502772117495,114.44337402066103 L110.15825621811419,117.32913843070523 L106.85791721721645,121.42652962142499 L105.9253143409006,123.4130516272883 L106.57042309744907,126.32914461757473 L107.81389359920388,128.37784021293464 L110.46912384355318,130.82990592551556 L112.76557077583593,133.71567033555985 L113.88983639866302,135.79621094017398 L114.00904127759074,137.65838576704442 L111.6167629720529,140.85501812457107 L110.9003650232032,143.1205630686626 L110.3020032779979,147.34078500936315 L104.72859085048896,157.02318425168184 L102.86338509785725,158.6381811495784 L100.4711067923194,159.87862008148397 L97.4851414427095,163.0449238587684 L93.97794691661318,168.21746321907372 L92.70175350691815,171.32007697784962 L92.03210256941267,178.97652705999016 L91.96899410409779,182.53558595141106 L91.42672877250536,185.0589238275611 L90.11898113015238,189.3216057806007 L88.36479952946203,192.88066467202157 L84.8248820954255,195.2387117858518 L79.14862624295947,199.87291884685817 L77.9682642065195,201.77755368606756 L73.75869583497644,207.73560327464565 L72.35511681936836,209.22473656453707 L67.85922300334227,212.70190828930407 L65.1806192533214,215.1008989864611 L63.58537749120103,216.92213023000448 L61.95858149642373,219.85945322646054 L58.92937516132167,227.1838053549491 L57.20791646857259,229.45996530212528 L55.48528910054023,230.82626784203606 L50.222744298470246,233.63924365949902 L48.66022544429114,235.29518414072245 L47.44830917519323,237.65323125455268 L46.05524823713711,242.25862616432892 z"/>
	
</g></g></svg>