<svg xmlns="http://www.w3.org/2000/svg" version="1.2" baseProfile="tiny" width="600" height="600" stroke-linecap="round" stroke-linejoin="round"><rect id="backgroundrect" width="100%" height="100%" x="0" y="0" fill="none" stroke="none" class="" style=""/>































































































































































































































































































































































































































































































































































































































<g class="currentLayer" style=""><title>Layer 1</title><g class="city city-62" id="tunceli" title="Tunceli">
	<path id="tunceli-cemisgezek" title="Çemişgezek" class="district" d="M100.34145240173669,435.17310672336407 L89.02588146437556,432.44654388322954 L81.27113684299597,431.28193713066014 L75.34569930155908,430.6211517724637 L72.59162269779303,430.70676848000403 L59.29163292808761,432.8867015719956 L53.246489577733286,433.8789772593874 L40.16905145277779,436.3662523784471 L37.23035814370745,437.0830178915743 L28.71691473341145,439.67896037020455 L27.196145160961464,440.20802771680053 L25.082747534501067,441.27384596066963 L22.860603081630508,442.8204349468813 L21.297683576462944,440.35840578004473 L20.066062542455462,439.36832539284626 L14.2451568341587,436.08415630360213 L12.592879471629253,434.14021798239526 L12.017111390706646,432.6990034054645 L11.621745021815421,428.21290746036414 L11.813948715007882,426.0384626188559 L12.281812968173185,421.5337066221124 L13.196466508145008,417.7314466872387 L14.708806094051099,412.9226416137169 L15.668981561357683,410.74600147201534 L17.859935064016973,407.683557702299 L18.831069513830805,405.92512224742995 L21.85912068026112,399.2173825066644 L22.6490104193888,397.1428238239535 L23.668195792499795,393.7005931207886 L23.62267386516504,391.57334723343763 L22.83699911930931,388.0729410751489 L21.32465953340227,383.4243929157411 L20.273440211425225,381.1215230129224 L18.265417416760684,378.733036402563 L10.112777430526506,370.3568685148555 L9.643227180052612,369.7224267589789 L8.573461887680132,365.5480634413335 L7.872930005914334,358.0478203307706 L6.68598790058779,350.3840273558035 L6.628663992091958,345.9506186153435 L7.156381149715507,341.32512110796574 L7.817292094727087,338.1166898753921 L7.9875778229069425,336.3582544205228 L7.38061879177306,334.53176465965976 L4.601252228376268,331.72397571237167 L4.275011749141946,330.67791517024295 L4.011153170330175,324.2797127567392 L3.6992436682193324,322.74629557168765 L2.938015883340519,321.3237410464003 L5.474598834284322,320.66405333830005 L10.111091433217915,318.9231802849776 L12.568432510652336,317.4622080063066 L13.699736704792585,316.408463913501 L14.748427030805317,314.52489634761116 L17.771420205309866,305.1465739216417 L18.193762531140415,303.4550951226692 L17.88606802230248,300.75926648524165 L17.291753970983486,299.50904302513175 L15.701015510222774,298.9163119729285 L13.6398838003334,297.4630232449343 L13.494045033130462,295.3346797074865 L14.267074799170352,293.48074869420657 L17.838860097659136,291.50717382038954 L21.04815597477465,290.7937012575526 L21.715810909021542,290.3601294693669 L26.36326249046239,289.4885952926089 L30.976994125727643,289.0539258543266 L37.73109934439262,289.0539258543266 L41.87696672649352,288.74877912745166 L44.31829082949491,288.79268513131865 L46.75877193384345,289.4457869388387 L48.99946235710944,289.22735456960083 L51.03867610198621,288.57425276208073 L53.84754761828569,288.4875384044436 L55.45177405751606,288.96611384659275 L57.05684349540215,290.708084550012 L58.09373184025381,290.8387049115162 L60.30070231734612,289.9243623809879 L63.81094871406712,290.490749830871 L65.14878757852237,290.18560310399585 L68.03015697909593,288.40960524757986 L69.38064082336797,290.50611693222436 L71.52101440676579,294.99001757713137 L71.98887865993109,296.99322900355855 L72.72481648518011,298.99534277988914 L73.99521545728705,300.3015463949294 L75.26561442939587,300.60669312180426 L79.34488491780323,300.7801218370786 L81.95312275436635,301.39041529082846 L84.09265333911034,304.742638686066 L85.39677225739285,306.3528913778846 L87.30279221488158,308.22548244280773 L91.1477090773789,311.4470854765416 L93.75594691394298,312.926717806856 L99.70751741366442,315.8003657599444 L103.01713013064906,317.8902915440086 L107.16384051140474,320.0230256818435 L109.638041561926,321.9823311044038 L112.64670375930706,325.3784605035083 L113.98454262376231,327.55510064520985 L115.15462475600296,331.7349522133384 L115.48929522178119,332.34414801699154 L118.03009316599599,334.172833078048 L120.43769732282465,335.52294269695517 L122.30999733413876,336.95866902340265 L123.8147499321557,338.656733722955 L125.78736678333894,340.3547984225073 L127.39243622122407,342.83658529108357 L128.42848156742286,347.5378206551319 L129.3650530724073,350.8033296927324 L129.73260048570444,353.1544961998048 L129.46536991227453,356.0709525066635 L129.53280980462284,357.6274203437451 L131.23398108910422,360.4077680386165 L134.2283123093618,362.21779304802925 L135.40429543218204,363.42520815436893 L136.11747229376368,365.74564045873456 L136.6873393841048,366.9058566109174 L138.5056874815412,369.13408630716236 L139.25427028660513,370.6192068879601 L139.86038631908423,372.61473476371077 L141.23700312163987,378.582658339319 L140.43446840269732,378.49594398168165 L137.9602673521751,377.14693201287145 L134.1153504896778,376.23258948234326 L132.5414720020039,376.40272524732734 L130.77117482786562,378.8878050661941 L127.69507273813721,381.8042613730525 L126.05712635273221,382.4573631805728 L122.9473043168282,382.80641591131473 L121.07500430551408,383.8513788033467 L118.33357268156294,387.1157901908506 L117.76539158852944,388.03013272137895 L117.46444106892585,389.46695669792314 L116.59446645763498,391.078307039838 L114.42121592671731,394.2560040697049 L113.58580426025486,396.4765502152734 L111.6460643565915,398.8277167223458 L110.74321279778076,400.9604508601804 L109.1381433598956,403.7901928094019 L107.83486744026882,405.53216351282106 L105.561300069482,407.62208929688546 L103.52124332595142,409.84153779235714 L102.8527453930507,412.19270429942964 L102.11680756780169,417.20018404044936 L101.44830963490097,423.5994841040499 L100.61205496978377,430.73969798290415 L100.34145240173669,435.17310672336407 z"/>
	<path id="tunceli-hozat" title="Hozat" class="district" d="M141.23700312163987,378.582658339319 L139.86038631908423,372.61473476371077 L139.25427028660513,370.6192068879601 L138.5056874815412,369.13408630716236 L136.6873393841048,366.9058566109174 L136.11747229376368,365.74564045873456 L135.40429543218204,363.42520815436893 L134.2283123093618,362.21779304802925 L131.23398108910422,360.4077680386165 L129.53280980462284,357.6274203437451 L129.46536991227453,356.0709525066635 L129.73260048570444,353.1544961998048 L129.3650530724073,350.8033296927324 L128.42848156742286,347.5378206551319 L127.39243622122407,342.83658529108357 L125.78736678333894,340.3547984225073 L123.8147499321557,338.656733722955 L122.30999733413876,336.95866902340265 L120.43769732282465,335.52294269695517 L118.03009316599599,334.172833078048 L115.48929522178119,332.34414801699154 L115.15462475600296,331.7349522133384 L113.98454262376231,327.55510064520985 L112.64670375930706,325.3784605035083 L109.638041561926,321.9823311044038 L107.16384051140474,320.0230256818435 L103.01713013064906,317.8902915440086 L99.70751741366442,315.8003657599444 L93.75594691394298,312.926717806856 L91.1477090773789,311.4470854765416 L87.30279221488158,308.22548244280773 L85.39677225739285,306.3528913778846 L84.09265333911034,304.742638686066 L81.95312275436635,301.39041529082846 L79.34488491780323,300.7801218370786 L75.26561442939587,300.60669312180426 L73.99521545728705,300.3015463949294 L72.72481648518011,298.99534277988914 L71.98887865993109,296.99322900355855 L71.52101440676579,294.99001757713137 L69.38064082336797,290.50611693222436 L68.03015697909593,288.40960524757986 L69.56188553405318,286.7466653511211 L70.16378657326035,285.35264972834705 L72.40447699652633,283.4372503096538 L74.67804436731218,282.7841485021336 L76.1827969653301,281.7830916139684 L77.3528790975698,280.4768879989281 L78.85763169558773,276.68889751531145 L80.56217497468627,274.6000693813437 L82.6359516643915,272.4662375934125 L83.5219432501154,270.594744178586 L85.61342291156033,270.41912016311835 L87.55316281522465,272.5529519510496 L89.09079236076052,273.64072319685204 L91.96626077075355,274.99083281575906 L93.80568383454968,276.25313042693256 L96.4139216711128,277.5154280381057 L98.38653852229604,278.03790948412194 L103.26750073099117,277.7338604073435 L105.9423354612488,277.3848076766018 L108.51769635029302,276.3409424346663 L112.62984378622022,275.6000286194124 L116.40816375502305,274.7295920927511 L119.18331532514884,273.59791484308175 L124.16543737236694,271.2028423321424 L127.17409956974706,270.81098124763037 L130.55115217908002,271.1600339783721 L132.75812265617233,271.94375614739647 L133.92820478841205,272.8570010278279 L136.36952889141438,276.55827715380747 L137.70652475721582,278.12572149185564 L140.28104264760526,280.12783526818635 L142.421416231004,282.1310466946135 L144.32743618849275,283.0881975789118 L145.56411521442695,283.17600958664553 L147.30322143835394,282.69633649439965 L148.80713103771708,281.52075324086366 L151.85035617992565,278.3430562109968 L153.28766888559622,277.5154280381057 L157.43437926635093,274.7734980966179 L160.94462566307098,274.6856860888841 L162.68373188699798,275.1214531772631 L163.8538140192377,275.7306489809164 L166.59524564318886,278.03790948412194 L169.40411715948832,280.7809370757063 L170.80855291763902,281.69527960623446 L172.24586562330768,282.1738550483838 L174.3187993143581,282.52290777912555 L175.35568765921073,283.1321035827789 L177.26170761669945,285.0475030014722 L178.6324234286755,286.1363718973712 L179.86910245460876,286.70166169715753 L181.50789183866854,286.70166169715753 L184.38336024866155,286.0485598896375 L186.05502658024025,285.39545808211733 L188.4289107908943,284.0903521171739 L189.83334654904496,282.8708628597707 L191.80596340022726,280.6942227180692 L193.24411910455066,280.21564727592005 L196.01927067467645,280.085026914416 L197.85785073981688,280.43298199506125 L199.83046759099915,281.52075324086366 L203.67538445349646,281.4340388832265 L205.54852746346629,280.34626763742403 L206.65369869932198,278.9939627183235 L207.50681333752507,279.9302582507852 L208.4433848425095,282.10689839248664 L208.77721230963294,283.84886909590585 L209.94729444187266,287.02656612577255 L211.0507796804188,288.20214937930893 L212.78988590434676,290.98798532466355 L214.49527218209911,295.3423632581631 L214.36123539605725,299.52111717619516 L213.62529757080918,303.0039609329371 L212.85648279803934,305.26841308237226 L210.8501460006834,309.3604526427671 L209.94729444187266,311.9289538689806 L209.94729444187266,314.75869581820234 L208.77721230963294,318.67730666332295 L208.87752914950016,320.59270608201626 L209.7137838146174,321.7682893355526 L210.88386594685804,322.63872586221385 L212.6558491183049,323.24901931596366 L213.9599680365855,324.0755498387581 L216.5007659808022,326.90529178797965 L217.2029838598766,327.4277732339958 L220.27908594960505,328.9524092182738 L223.25487119946624,329.60551102579393 L226.29809634167574,331.12904935997517 L228.4039069802451,331.8249595212656 L229.13984480549414,332.56587333651936 L229.47451527127237,334.1761260283381 L229.40707537892405,335.5262356472451 L228.00348261942906,342.83987824137387 L227.53477536760994,344.102175852547 L226.0974626619394,346.3227219981154 L224.99397742339323,347.4983052516516 L222.75328700012724,348.97903523206276 L220.4131227356469,350.0229004739982 L214.46323823323402,352.0030612483955 L210.68576126308503,354.8767092014839 L210.11673717139772,355.39919064750006 L206.03746668299038,362.1036374379754 L203.86421615207175,365.36914647557586 L202.35777755674525,370.48529357616627 L201.12025553215722,373.14160681011356 L198.78009126767688,374.8385738595689 L194.29955341979965,376.9724056475004 L192.8622407141291,378.06017689330304 L191.25717127624395,379.6715272352179 L188.51489665363897,381.6747386616453 L186.07441554929045,384.024807518621 L184.06807875193448,386.5065943871974 L182.16205879444576,389.6414830632939 L180.25688183561087,392.0793639280035 L175.87666082759992,395.43158732324105 L174.17127454984754,396.1714034883982 L170.99485562024998,398.0868029070921 L169.22287244880312,398.6970963608418 L167.35057243748807,398.9144310799831 L164.8763713869668,398.2613292724628 L163.70628925472712,396.95512565742257 L163.60597241485797,395.99797477312427 L165.1773219065704,391.4701681243504 L164.64201776105676,390.0761525015763 L163.73916620224603,389.2935279826487 L160.96401463212024,389.4241483441527 L157.0853778234502,389.1190016172778 L155.81497885134135,388.727140532766 L152.80547365530742,386.89845547170944 L149.96372519148713,383.3717057111008 L147.45580419479123,381.4134979386373 L142.90866945321858,378.9745194238308 L141.23700312163987,378.582658339319 z"/>
	<path id="tunceli-mazgirt" title="Mazgirt" class="district" d="M402.38449826128385,357.1861650048828 L401.8972450390683,360.7930432225484 L403.58830033969815,365.472325584663 L405.21107274932496,371.46000686201137 L410.69309299857343,377.6573393078239 L414.9662531774809,380.9502895978415 L413.8298909914158,382.76580285773775 L412.72134776094293,383.9128472087604 L410.5658002017659,385.18612132090044 L409.7556784949333,386.886381320646 L408.4102526425889,392.0036260713331 L408.717104152773,393.64790591614843 L409.4623149632198,395.78503065436985 L409.162207442271,396.7355956380879 L407.5234180582112,399.0626138430337 L406.8979130566828,400.29747020179 L404.49958188505184,406.4355295423824 L403.0757571578529,410.8129581279122 L402.6390838548979,412.53846407988146 L402.82538655750983,415.03012979932805 L404.04183361573905,416.6722143439498 L404.8924192579807,418.6183479653501 L405.00791007362614,420.96841682232593 L404.4759779227307,423.02870605378024 L401.7766962314971,426.66631847415255 L399.3320001338766,428.10424010079333 L397.50522204989727,429.48179097211755 L395.00235904512715,430.3983288028388 L394.3583080732034,431.32474548443065 L396.3250239338051,434.34547855047305 L396.7018443322999,436.20709311442954 L396.52059962161474,437.06435783993066 L395.2915075835696,438.47044761376816 L393.2952867700652,439.1861154767986 L390.79579575991227,439.1048893696449 L389.2219172722384,439.5527306090871 L388.2701717914757,440.4824402409688 L386.64065539261463,443.26278793584 L385.98564543818355,444.69192836170754 L385.72262985802564,447.0661455208103 L385.1173568242013,448.30209952966334 L384.0568645170265,448.8717799298366 L380.45978925890887,448.9156859337033 L378.9398626851127,448.4952859466779 L378.4062445369077,452.56976310552596 L378.6397551641639,457.4883331887152 L379.04102252363566,461.18960931469474 L379.04102252363566,462.79986200651337 L377.97125723126226,465.2816488750895 L377.236162404668,465.6296039557347 L374.2266572086331,465.06431415594864 L372.6881846644415,464.45511835229524 L370.64897091956567,463.1050087333881 L368.67635406838247,460.3191727880333 L367.5728688298363,458.0547206385981 L366.70373721719926,456.8363290312917 L363.9951825407689,455.0504523240057 L362.28979626301464,455.1382643317397 L361.1534340769486,455.8341744930299 L359.01306049355077,458.96906316912623 L357.34139416197115,462.10395184522304 L355.3021804170953,465.06431415594864 L351.8914078615887,468.1552968281783 L350.4540951559191,470.24522261224246 L348.54807519843035,471.4208058657786 L344.468804710023,471.3329938580451 L340.18890054188023,470.8544184158956 L337.0790785059772,470.81051241202874 L331.09463105873493,471.24627950040787 L329.2552079949407,470.63708369675476 L327.34918803745103,468.9818273509726 L325.209657452707,467.5461010245247 L322.20015225667214,465.80413032110584 L320.42816908522525,465.2816488750895 L318.0880048207459,465.32555487895667 L314.07533122603206,467.06642793227917 L311.39712450115724,468.9730461501992 L307.16274226034926,467.9632080612604 L304.7399641277433,466.9994712763821 L302.9460629912829,461.8811288755982 L303.55892301299633,460.72310802360863 L304.01414228634576,456.86816088409535 L303.2453275135769,454.9384920141451 L303.3709343130758,452.31510828309774 L304.8470249568458,449.68404100137394 L307.81943821208887,445.91471056940065 L308.4415712190001,444.16066571491825 L311.0118741161185,434.09411667833496 L311.35160257382154,432.3214117722092 L311.58595619973255,429.18981604640254 L311.48226736524623,424.7311613537189 L310.7724624982827,419.1276576102063 L310.265820307017,416.9477245182147 L308.3783463199247,411.9940296319319 L306.64261209061385,409.9183732991243 L304.09591315581855,408.0820046873913 L300.15910943999694,405.6463191228749 L298.76394666704397,404.9328465600379 L295.2629732555226,404.64087163432293 L294.3061697828341,404.1337572896604 L293.26843843932676,402.9450022349642 L288.502967046278,396.0748102798914 L284.373959637263,390.69193420580933 L283.56889592235706,390.09810550350977 L280.9682450736831,390.4822830373452 L279.58151228727496,390.0410276984828 L278.0902476677267,388.5493212171047 L277.3517808465153,386.7579562593353 L276.9521994843521,377.14144376238795 L280.41523795642786,374.3391430655834 L282.0751023068464,372.62241831438746 L283.6127318523842,371.4029290569844 L285.38471502383106,369.48752963829105 L286.0203360092119,368.31194638475466 L286.6222370484191,363.52289901297263 L287.49136866105613,361.6074995942793 L289.13015804511497,359.5175738102151 L291.0024580564291,357.9501294721666 L292.9750749076123,356.7745462186306 L296.5864811428543,356.1653504149774 L297.3552959156233,355.51224860745725 L298.52537804786294,353.3356084657557 L298.92664540733466,352.0294048507156 L300.0630075934007,351.5508294085664 L302.26997807049304,351.50692340469936 L304.4769485475853,351.76816412770756 L307.7874042632238,352.76922101587286 L309.29131386258695,353.6835635464009 L312.40113589849,357.21031330700947 L313.7718517104651,358.3419905566789 L319.2555579570222,361.6942139519165 L320.62627376899826,361.9993606787917 L323.2345116055623,362.17388704416237 L325.47435903017356,361.65140559814637 L327.24718520027517,360.7370630676182 L330.0552137179199,358.95228401042885 L331.89463678171506,358.8644720026948 L335.4048831784351,357.1664073031427 L337.678450549221,355.3816282459532 L341.289856784464,354.16323663864677 L343.22875368947257,353.9448042694089 L346.8738798708874,352.94374738124355 L347.9436451632608,352.4651719390944 L350.21721253404667,350.02729107438495 L351.35441771876646,347.24035747893345 L352.62481669087435,346.6750676791472 L357.5066218982243,346.28320659463515 L358.9102146577202,345.63010478711516 L360.48240714808554,343.3656526376798 L360.816234615208,341.62477958435727 L360.5026391157895,339.23190237361143 L364.0584074398443,338.7664987326222 L366.3437767917922,338.81150238658586 L369.5303117052413,340.20990860974644 L373.0279131221455,342.8706124440806 L374.41295991124406,343.7717831734485 L376.38726275973687,344.6290478989498 L379.9885530111264,345.4863126244509 L383.03683614526074,346.3874833538191 L386.49987461733747,346.3424796998555 L388.4733344671745,346.52249431570993 L390.9323615419175,347.6047773110289 L393.356825671833,349.9504555676177 L396.9935218667058,351.79889833041426 L398.24031687649153,353.87345701312535 L400.49112328361093,356.57916450142295 L402.38449826128385,357.1861650048828 z"/>
	<path id="tunceli-nazimiye" title="Nazımiye" class="district" d="M447.4655373000431,235.97046952914985 L447.56585413991036,238.01648930934735 L448.4021088050275,239.88908037427075 L449.57219093726627,241.23809234308104 L452.5816961333021,243.5892588501534 L455.79183500907243,246.37509479550806 L457.76445186025563,248.72626130258064 L458.33263295328817,250.38041999826595 L458.16571921972644,252.94892122447945 L457.8310487539492,254.6908919278987 L457.3960614483047,255.430708093056 L454.353679304749,258.08702132700324 L452.81604975921215,259.61055966118465 L449.7399476694828,261.35143271450727 L448.2351950714658,261.61267343751524 L446.02822459437255,261.61267343751524 L444.222521476752,262.04844052589425 L439.6416667890057,262.17906088739824 L437.2677825783526,262.48420761427315 L436.53268775175735,262.91887705255544 L434.5263509543995,265.44456992499886 L431.7511993842756,268.40493223572435 L430.9823846115058,270.2336172967807 L431.11557839889383,274.4123712148127 L430.48080041216775,277.76459461005044 L429.5442289071833,281.291344370659 L429.076364654018,284.5568534082595 L427.9728794154718,288.17031752650524 L426.200896244025,290.60819839121496 L425.69931204468503,293.3940343365696 L423.79329208719633,298.5321344390932 L423.4257446738992,300.5781542192909 L423.39202472772456,302.276218918843 L423.69297524732815,304.5834794220486 L424.2611563403616,306.498878840742 L424.4289130725781,308.93675970545166 L427.13662475035466,311.37464057016115 L427.43757526995824,312.1583627391851 L427.4046983224384,316.6422633840921 L428.1735130952072,318.1668993683702 L430.41336051981847,320.12510714083385 L433.05531830255717,321.5191227636079 L434.1916804886232,323.1293754554264 L434.62666779426866,326.35097848916007 L434.25912038097056,328.61543063859534 L432.88756157034067,330.4441156996517 L430.51367735968665,332.70747019899017 L427.244528578111,334.86984088943495 L425.24240677402696,333.51095006975453 L420.5452182719794,334.70080277454747 L417.27438349309614,338.2593843879597 L410.8743377092586,343.57969440653096 L403.25953086450147,353.9316324682489 L402.8666934915726,354.61766377866917 L403.02180524397426,356.2937754762879 L402.38449826128385,357.1861650048828 L400.49112328361093,356.57916450142295 L398.24031687649153,353.87345701312535 L396.9935218667058,351.79889833041426 L393.356825671833,349.9504555676177 L390.9323615419175,347.6047773110289 L388.4733344671745,346.52249431570993 L386.49987461733747,346.3424796998555 L383.03683614526074,346.3874833538191 L379.9885530111264,345.4863126244509 L376.38726275973687,344.6290478989498 L374.41295991124406,343.7717831734485 L373.0279131221455,342.8706124440806 L369.5303117052413,340.20990860974644 L366.3437767917922,338.81150238658586 L364.0584074398443,338.7664987326222 L360.5026391157895,339.23190237361143 L360.7833576676891,335.57343460140214 L361.31781881454793,333.2650764480999 L362.4213040530941,331.0017219487612 L362.4213040530941,329.56489797221695 L361.9534397999288,328.60664943782194 L357.673535631786,325.3422380503181 L355.66719883443005,323.16559790861663 L355.73379572812263,320.50928467466923 L358.7095809779839,315.89476366825824 L359.9808229487455,314.15279296483914 L360.7833576676891,311.88943846550046 L360.61560093547354,308.71064378553706 L359.6798724291429,306.92586472834756 L357.8075724178279,305.31561203652905 L354.09584934271766,304.92375095201703 L353.3599115174686,304.4879838636381 L351.35441771876646,302.57258444494454 L350.38412626760834,300.56937301851747 L350.38412626760834,298.17539815767475 L350.086547742622,296.88675694418123 L350.4920300953647,295.2238170477225 L357.07079159392407,291.2733743497983 L361.0227692855249,289.43371278777533 L363.11593494427933,285.5172972428479 L363.1960198164426,283.7500805872052 L362.27293628992874,282.4252169205217 L362.45080900599584,277.9489998262914 L363.01308910844875,274.75813099526465 L363.3089816361256,274.0731973349409 L364.8904471116896,272.49806944621605 L366.78888008129013,269.59039434013073 L367.42112907205285,268.36322153205083 L369.4434828438428,260.9957940831853 L371.44644764658153,254.3802569505405 L371.7642581392729,252.6327979966378 L371.19607704623945,247.71422791344852 L370.2451745641306,244.2774854607672 L369.2757261116263,242.97128184572688 L367.73725356743466,242.23146568056953 L366.4002577016333,242.1875596767027 L364.8955051036163,241.4916495154124 L363.89233670493735,239.88029917349718 L362.3209872132259,238.22614047781187 L361.4181356544161,237.61694467415853 L359.178288229803,236.87603085890476 L356.6037703394145,235.74435360923545 L355.60060194073554,235.00453744407815 L351.05346719916287,233.56771346753393 L349.84966512074953,232.34932186022746 L348.545546202467,229.7369146301471 L348.11055889682154,225.81830378502633 L347.70929153735074,223.98961872397 L347.67641458983087,221.8568845861355 L348.043962003128,220.72410968636945 L348.8464967220706,219.68024444443404 L350.5181630536502,218.33013482552693 L351.15378403903105,217.2851719334946 L351.6410372612466,213.4455918953344 L355.60818892862466,214.25785296687195 L357.313575206378,214.301758970739 L362.32941719976884,212.82102899032776 L367.31069624833316,211.21077629850927 L370.0192509247654,210.94953557550127 L371.89155093607945,211.5587313791546 L375.53583411884136,213.90989788622682 L376.94026987699016,214.99766913202927 L379.34787403381887,217.8713170851178 L381.82207508434107,220.61434467670233 L386.83791707773287,227.01364474030274 L388.7102170890469,229.01685616672978 L391.65228239273443,231.84659811595148 L395.56463914758007,233.58747116927412 L399.44243295759725,233.1088957271248 L401.7497202745578,232.1078388389595 L403.48882649848474,230.4536801432743 L406.8321591616431,228.01579927856466 L410.343248557017,227.14426510180672 L412.95064339492626,227.66674654782292 L415.72579496505205,227.7973669093269 L417.99936233583793,227.10145674803647 L419.67187166607135,225.88196749063326 L423.2824349026587,224.5329555218229 L425.222174806322,224.66357588332693 L428.56550746948034,223.44408662592375 L431.3743789857798,223.35737226828678 L433.37987278448196,223.48799262979074 L435.6205632077489,225.44620040225436 L437.5594601127575,229.93119869725814 L438.4623116715673,230.8016352239193 L444.2132484915543,230.71492086628217 L445.0495031566715,231.32411666993534 L446.4539389148212,233.67528317700786 L447.4655373000431,235.97046952914985 z"/>
	<path id="tunceli-ovacik" title="Ovacık" class="district" d="M266.8808945608133,154.6839916200711 L269.0743770594369,154.48312165238002 L271.3479444302228,153.78721149108975 L273.0524877093223,153.56877912185183 L276.0957128515309,152.56772223368668 L281.27846857848436,149.73798028446498 L283.28396237718744,149.39002520381982 L285.1899823346762,148.43177666942478 L286.3937844130896,148.51849102706194 L287.69790333137206,149.21549883844895 L289.00202224965267,150.30436773434803 L290.1383844357197,153.04629767583583 L290.10550748819884,155.78932526742022 L289.70424012872803,160.0119851893192 L290.0051906483316,165.411326014851 L290.8077253672742,168.11044760256854 L290.97463910083593,170.9401895517902 L291.40878340782757,173.2035440511287 L292.6800253785892,177.33948961539056 L293.7497906709617,179.12536632267665 L296.3580285075248,180.9529537336363 L298.8651065055669,182.1724429910395 L300.23582231754295,182.52039807168467 L304.850396951462,182.56430407555152 L307.35831794815795,182.78163879469264 L309.6647622664646,181.0835740951403 L314.54656747381455,178.90693395343894 L317.08820841668506,178.55897887279377 L319.5286895210317,178.64569323043077 L320.07073765578065,181.81021845913762 L321.47601641258416,184.26566172539384 L322.7447293873835,187.16784858099592 L323.567496074031,190.87351530736203 L323.4992131830279,192.48047504889058 L322.4016289350623,195.02592562307382 L320.96178723342933,197.57027854716083 L320.68781267076605,199.22224194265266 L321.16747890509146,202.74899170326137 L321.71627102907473,205.5172652470692 L321.7499909752484,209.4007512890965 L321.132915960263,210.69597840316993 L319.93332887512065,212.12402117894072 L320.0016117661237,215.6518685896462 L319.83048303929,217.8394852323143 L320.0993996100285,222.66036445689969 L319.36430478343334,223.09613154527858 L317.29052809372905,225.14215132547605 L315.48566797476235,226.44835494051642 L311.87426173952025,227.0575507441696 L308.8647565434854,228.4504687168469 L306.12332491953424,229.9740070510284 L304.3176218019127,231.7159777544475 L304.3176218019127,233.1088957271248 L305.287070254417,236.1998783993545 L305.35451014676534,238.28980418341885 L304.385061694261,239.55210179459218 L301.30895960453165,242.86151683605965 L298.73359871548746,244.95034497002723 L296.660665024437,246.3443605928013 L293.38392925497317,247.60665820397463 L289.8062429659048,248.21585400762777 L286.09536288944935,249.4781516188013 L282.5842734940745,251.95993848737766 L279.8428418701234,254.31110499445003 L278.137455592371,255.26935352884507 L276.5661061006586,255.5305942518531 L272.9218229178976,255.7040229671274 L271.08239985410245,256.2265044131435 L268.30724828397666,257.4459936705466 L265.06423246068647,259.18686672386906 L261.0852788121464,263.0615715651228 L259.17925885465763,265.1954033530542 L257.9425798287244,266.2403662450862 L252.7927010492907,269.7232100018279 L251.65633886322473,270.33240580548124 L250.2181831589013,270.24569144784414 L248.8474673469252,269.41806327495306 L247.9117388405956,268.373100382921 L245.70476836350326,267.02408841411057 L243.36376110036912,266.41379496036063 L237.71314112025027,267.5893782138967 L233.366640058413,267.89452494077153 L231.7615706205279,267.71999857540084 L229.38768640987382,266.9801824102435 L226.612534839749,266.5883213257314 L223.5701526961933,267.5465698601264 L220.5606475001584,267.67719022163055 L218.1867632895044,268.2863860252837 L216.0135127585867,270.89879325536424 L211.43265807084038,273.11824175083586 L209.7947116854344,274.4683513697429 L208.69122644688824,275.7745549847831 L207.78837488807844,277.5154280381057 L206.65369869932198,278.9939627183235 L205.54852746346629,280.34626763742403 L203.67538445349646,281.4340388832265 L199.83046759099915,281.52075324086366 L197.85785073981688,280.43298199506125 L196.01927067467645,280.085026914416 L193.24411910455066,280.21564727592005 L191.80596340022726,280.6942227180692 L189.83334654904496,282.8708628597707 L188.4289107908943,284.0903521171739 L186.05502658024025,285.39545808211733 L184.38336024866155,286.0485598896375 L181.50789183866854,286.70166169715753 L179.86910245460876,286.70166169715753 L178.6324234286755,286.1363718973712 L177.26170761669945,285.0475030014722 L175.35568765921073,283.1321035827789 L174.3187993143581,282.52290777912555 L172.24586562330768,282.1738550483838 L170.80855291763902,281.69527960623446 L169.40411715948832,280.7809370757063 L166.59524564318886,278.03790948412194 L163.8538140192377,275.7306489809164 L162.68373188699798,275.1214531772631 L160.94462566307098,274.6856860888841 L157.43437926635093,274.7734980966179 L153.28766888559622,277.5154280381057 L151.85035617992565,278.3430562109968 L148.80713103771708,281.52075324086366 L147.30322143835394,282.69633649439965 L145.56411521442695,283.17600958664553 L144.32743618849275,283.0881975789118 L142.421416231004,282.1310466946135 L140.28104264760526,280.12783526818635 L137.70652475721582,278.12572149185564 L136.36952889141438,276.55827715380747 L133.92820478841205,272.8570010278279 L132.75812265617233,271.94375614739647 L130.55115217908002,271.1600339783721 L127.17409956974706,270.81098124763037 L124.16543737236694,271.2028423321424 L119.18331532514884,273.59791484308175 L116.40816375502305,274.7295920927511 L112.62984378622022,275.6000286194124 L108.51769635029302,276.3409424346663 L105.9423354612488,277.3848076766018 L103.26750073099117,277.7338604073435 L98.38653852229604,278.03790948412194 L96.4139216711128,277.5154280381057 L93.80568383454968,276.25313042693256 L91.96626077075355,274.99083281575906 L89.09079236076052,273.64072319685204 L87.55316281522465,272.5529519510496 L85.61342291156033,270.41912016311835 L83.5219432501154,270.594744178586 L83.77231385045656,268.41700638678776 L83.20413275742403,266.67613333346526 L81.76597705310061,263.889199738014 L80.99716228033172,261.14726979652596 L79.92739698795924,259.62263381224807 L77.3528790975698,257.48989967441344 L74.97899488691577,256.9674182283975 L69.09402128088786,257.4031853167764 L63.276487567207326,257.22865895140535 L60.80228651668607,256.5316511400184 L58.49499919972652,255.48668824798622 L56.990246601707646,254.26829664067978 L55.15166653656725,252.13446485274852 L52.97757300699385,250.6987385263009 L50.972079208292655,250.1762570802849 L44.551801456751136,248.21695165772456 L41.24218873976649,247.9118049308495 L36.66133405202014,248.21695165772456 L35.156581454003174,247.9985192884868 L33.8195855882008,247.21589476955927 L30.4518059640665,244.15893925032657 L29.138414060586282,242.73089647455564 L27.46674772900854,240.20630125220896 L26.496456277848523,238.37761619115258 L26.12890886455139,237.11531857997926 L26.028592024684166,232.97937301571756 L26.66421301006502,228.10251363620176 L29.67287520744513,224.35842915645205 L30.843800338339598,223.57470698742787 L35.22317834769672,220.13576923455307 L37.697379398217976,218.0030350967184 L39.73743614174953,216.95807220468635 L42.880135125172444,216.47839911244046 L46.81440984503068,216.660609028488 L48.464158211595816,217.13150091996067 L51.239309781721616,218.3948961812306 L53.37884036646561,220.91949140357724 L55.35230021630265,222.57365009926275 L58.89626655919733,226.05649385600424 L60.56793289077602,228.3637543592098 L62.64086658182647,230.58430050477816 L64.7475202190506,231.7159777544475 L69.99687283969861,233.8937155462456 L72.93893814338519,234.5468173537658 L78.15541381651238,234.28557663075773 L80.76280865442263,233.71918918087485 L85.17674960860725,231.1506879546612 L86.44714858071514,229.75776998198387 L88.95506957741102,227.8851789170606 L92.097768560833,226.3177345790124 L94.00378851832173,225.57791841385512 L96.87925692831475,222.74817646463342 L98.41688647385251,219.61328778853704 L98.41688647385251,217.74179437371043 L100.85821057685393,212.90884099806152 L102.59647380212806,210.906727221731 L105.53938210446844,209.25147087594908 L107.54487590317154,207.1626427419813 L109.58493264670213,204.15837442738888 L110.08651684604112,203.02669717771954 L111.45723265801718,198.8029396057238 L114.49961480157097,195.01604677220385 L118.07730109063934,191.1841502847204 L120.31799151390533,188.3544083354987 L121.75530421957589,186.8308700013174 L125.09947988138802,180.56109264912442 L127.64027782560379,177.3833956192576 L129.47885789074513,175.64252256593497 L133.7924820050616,172.85558897048358 L136.06604937584746,171.98515244382241 L140.5803071698993,171.1147159171611 L145.12744191147195,170.3738021019073 L147.80227664172958,169.54727157911287 L150.87837873145895,167.76249252192338 L153.88704092884,166.71752962989135 L156.56187565909667,166.49909726065349 L158.46789561658636,166.97877035289918 L159.4044671215708,167.6318721604194 L162.7815197309028,169.459459571379 L165.72358503458938,170.2431817404032 L167.29493452630177,170.33099374813708 L171.80919232035365,169.89522665975804 L177.82735971376957,169.72070029438714 L179.39870920548105,169.06759848686698 L180.80314496363079,167.76249252192338 L182.20758072178052,167.02157870666946 L184.78209861216996,166.10723617614144 L188.15915122150196,165.71537509162928 L189.66390381951987,165.88990145700035 L191.8708742966122,166.89095834516547 L194.3779522946533,168.93697812536297 L197.35373754451547,169.15541049460086 L198.08967536976354,169.76460629825402 L198.85849014253245,172.33310752446755 L199.46039118173866,173.5525967818706 L201.4330080329219,175.16284947368908 L204.81006064225485,176.46905308872925 L206.1141795605364,176.29452672335856 L211.1300215539282,174.46693931239895 L213.403588924715,174.42303330853196 L216.2453373885334,172.37701352833443 L219.48835321182355,171.1147159171611 L222.13031099456128,170.28708774427005 L225.33960687167777,168.41449667934697 L227.312223722861,166.80424398752834 L232.62901623585543,163.7571673191657 L236.4073362046601,163.71326131529884 L239.01473104256945,162.3203433426215 L241.32201835952895,160.57837263920212 L243.93025619609307,159.0109283011539 L247.8754898984576,157.79253669384744 L249.48055933634367,157.7486306899807 L253.92737723804817,158.5762588628716 L256.40157828857036,158.74968757814588 L258.2410013523646,158.00987141298873 L261.75124774908465,157.1822432400977 L263.9244982800033,156.00665998656137 L266.8808945608133,154.6839916200711 z"/>
	<path id="tunceli-pertek" title="Pertek" class="district" d="M310.7724624982827,419.1276576102063 L311.48226736524623,424.7311613537189 L311.58595619973255,429.18981604640254 L311.35160257382154,432.3214117722092 L311.0118741161185,434.09411667833496 L308.4415712190001,444.16066571491825 L307.81943821208887,445.91471056940065 L304.8470249568458,449.68404100137394 L303.3709343130758,452.31510828309774 L303.2453275135769,454.9384920141451 L304.01414228634576,456.86816088409535 L303.55892301299633,460.72310802360863 L302.9460629912829,461.8811288755982 L301.56185920083715,463.8250671968051 L298.37279529142563,467.0565490814092 L294.2513748703007,469.4834534451518 L291.33628552355344,471.0366283319433 L289.2228878970931,471.2034711466375 L287.9634479074915,470.40987012674344 L286.6230800470729,468.7963244846347 L285.7994703617725,468.3649479966424 L284.02158619974415,468.40995165060633 L282.5775295048402,469.6316362082027 L281.56255912500114,471.6392382350165 L281.16382076149176,473.4295055426891 L281.0466439485377,475.3438073112861 L280.4540158945292,476.92661875068774 L279.3555886479088,477.9617027918498 L277.3888727873071,478.9122677755681 L276.53154315583106,479.6652557418856 L276.00719799282473,481.091103217463 L276.13786278424845,482.59598150000096 L276.94882748973396,485.41035634786925 L277.061789309418,487.4124701241999 L276.5576761141156,488.98540271273123 L275.96083306683516,489.6341139198647 L274.5951752467849,490.2718486260315 L269.446139466006,491.7262350041223 L266.5689850587044,492.31128250564876 L265.11987037187373,492.0269911306106 L262.955049827499,491.204851208203 L259.78537488713675,491.3629128221238 L258.2991682595152,491.20704650839656 L255.87807612421784,489.54410661193765 L255.42201385221358,488.903078955481 L252.70924418251036,483.97243472122835 L251.3671903247822,482.2776629719659 L250.21396816562935,481.82762643233036 L248.9022622594577,481.9417820423843 L245.31193099057538,483.6947292467701 L242.02002124533237,485.77697148015784 L238.49375787417927,488.77136094388027 L235.82735313046555,490.0687833581472 L234.6825609578566,489.71314472682525 L234.33861750688067,487.55626228686367 L235.03071940210356,483.3895825198953 L234.91185659183992,481.0823220166896 L234.37149445440053,479.8891763616067 L231.45134711572751,476.4019420044782 L228.25806821304315,473.0409374084673 L226.3427752703567,471.42409881606875 L223.1764723246116,469.97959128884787 L220.75032219738847,469.3385636323911 L213.7871533124442,468.5153260598866 L211.62401876537805,468.07297307092756 L205.60922336657927,466.32002586654176 L204.27307049943263,465.4408081391069 L200.2915878549301,462.30152886262414 L196.5941957569443,459.0085785726066 L195.3642607202454,457.4235718330116 L191.232724315268,451.4084493032466 L189.81058558537663,449.7005057528239 L186.73448349564822,446.7379481419052 L186.09380451834065,446.329622305943 L184.3783022567358,446.27254450091596 L179.4315861530009,446.6281831322378 L171.67515553431178,447.31201914246503 L167.33792745767317,447.01126301597674 L164.9986061918476,446.5974489295312 L156.53995769408408,444.2122552694616 L149.1763644483228,441.8435263608425 L146.10700634782873,440.4045070841052 L142.31014040863047,438.41117450854796 L140.06944998536355,438.1148089824462 L137.21505654172836,438.8403556963468 L134.6186206863263,440.006060099013 L131.89910702738774,439.7755535787118 L126.2788349988264,436.4419902351175 L123.4134825726849,435.24225867945455 L120.48574824612183,434.214858188969 L119.13189240723355,434.01947647176144 L113.9154167341054,434.09301902823836 L107.41926910367263,435.03260751099003 L102.53409190170552,435.4431286471456 L100.34145240173669,435.17310672336407 L100.61205496978377,430.73969798290415 L101.44830963490097,423.5994841040499 L102.11680756780169,417.20018404044936 L102.8527453930507,412.19270429942964 L103.52124332595142,409.84153779235714 L105.561300069482,407.62208929688546 L107.83486744026882,405.53216351282106 L109.1381433598956,403.7901928094019 L110.74321279778076,400.9604508601804 L111.6460643565915,398.8277167223458 L113.58580426025486,396.4765502152734 L114.42121592671731,394.2560040697049 L116.59446645763498,391.078307039838 L117.46444106892585,389.46695669792314 L117.76539158852944,388.03013272137895 L118.33357268156294,387.1157901908506 L121.07500430551408,383.8513788033467 L122.9473043168282,382.80641591131473 L126.05712635273221,382.4573631805728 L127.69507273813721,381.8042613730525 L130.77117482786562,378.8878050661941 L132.5414720020039,376.40272524732734 L134.1153504896778,376.23258948234326 L137.9602673521751,377.14693201287145 L140.43446840269732,378.49594398168165 L141.23700312163987,378.582658339319 L142.90866945321858,378.9745194238308 L147.45580419479123,381.4134979386373 L149.96372519148713,383.3717057111008 L152.80547365530742,386.89845547170944 L155.81497885134135,388.727140532766 L157.0853778234502,389.1190016172778 L160.96401463212024,389.4241483441527 L163.73916620224603,389.2935279826487 L164.64201776105676,390.0761525015763 L165.1773219065704,391.4701681243504 L163.60597241485797,395.99797477312427 L163.70628925472712,396.95512565742257 L164.8763713869668,398.2613292724628 L167.35057243748807,398.9144310799831 L169.22287244880312,398.6970963608418 L170.99485562024998,398.0868029070921 L174.17127454984754,396.1714034883982 L175.87666082759992,395.43158732324105 L180.25688183561087,392.0793639280035 L182.16205879444576,389.6414830632939 L184.06807875193448,386.5065943871974 L186.07441554929045,384.024807518621 L188.51489665363897,381.6747386616453 L191.25717127624395,379.6715272352179 L192.8622407141291,378.06017689330304 L194.29955341979965,376.9724056475004 L198.78009126767688,374.8385738595689 L201.12025553215722,373.14160681011356 L202.35777755674525,370.48529357616627 L203.86421615207175,365.36914647557586 L206.03746668299038,362.1036374379754 L210.11673717139772,355.39919064750006 L210.68576126308503,354.8767092014839 L211.72180660928288,355.87776608964924 L213.4271928870362,356.92272898168136 L216.23606440333472,359.14327512724986 L217.97432762860885,361.9291110726045 L218.7431424013768,363.6710817760237 L219.41248333293132,366.1956769983703 L219.54567712031937,367.50188061341044 L219.64599396018755,372.9440297927125 L219.91406753227128,374.4236621230272 L221.31766029176623,376.3401591918173 L224.99566342070278,377.7330771644943 L226.8679634320169,378.03822389136946 L229.17525074897736,378.6902280487931 L232.21847589118687,382.1302634517642 L234.0570559563273,384.48142995883654 L236.76561063275955,388.4428491577278 L239.64107904275255,394.4941941406829 L240.91147801485948,395.23401030584006 L246.0267938494647,395.4952510288481 L248.70162857972326,395.2779163097068 L256.4926221432389,395.321822313574 L257.8296180090413,395.4524426750779 L268.6301167685938,397.2811277361341 L273.97978622910904,400.589445127505 L276.28623054741473,402.6793709115694 L279.2957357434496,404.9866314147747 L283.1406526059469,405.59582721842827 L284.37817463053494,406.46626374508935 L285.3139031368646,407.55513264098846 L285.514536816601,409.3838177020446 L284.9126357773938,411.5165518398794 L282.94001892621145,414.30348543533063 L283.107775658428,415.9576441310162 L284.4110515780548,416.61074593853607 L287.7881041873868,420.79059750666505 L291.2325966890681,422.53147055998727 L295.0775135515654,426.14493467823326 L297.45139776221953,427.4072322894066 L300.49377990577324,427.1031832126283 L303.9711493549744,425.2744981515721 L307.68287243008365,422.3141358408464 L310.7724624982827,419.1276576102063 z"/>
	<path id="tunceli-pulumur" title="Pülümür" class="district" d="M447.4655373000431,235.97046952914985 L446.4539389148212,233.67528317700786 L445.0495031566715,231.32411666993534 L444.2132484915543,230.71492086628217 L438.4623116715673,230.8016352239193 L437.5594601127575,229.93119869725814 L435.6205632077489,225.44620040225436 L433.37987278448196,223.48799262979074 L431.3743789857798,223.35737226828678 L428.56550746948034,223.44408662592375 L425.222174806322,224.66357588332693 L423.2824349026587,224.5329555218229 L419.67187166607135,225.88196749063326 L417.99936233583793,227.10145674803647 L415.72579496505205,227.7973669093269 L412.95064339492626,227.66674654782292 L410.343248557017,227.14426510180672 L406.8321591616431,228.01579927856466 L403.48882649848474,230.4536801432743 L401.7497202745578,232.1078388389595 L399.44243295759725,233.1088957271248 L395.56463914758007,233.58747116927412 L391.65228239273443,231.84659811595148 L388.7102170890469,229.01685616672978 L386.83791707773287,227.01364474030274 L381.82207508434107,220.61434467670233 L379.34787403381887,217.8713170851178 L376.94026987699016,214.99766913202927 L375.53583411884136,213.90989788622682 L371.89155093607945,211.5587313791546 L370.0192509247654,210.94953557550127 L367.31069624833316,211.21077629850927 L362.32941719976884,212.82102899032776 L357.313575206378,214.301758970739 L355.60818892862466,214.25785296687195 L351.6410372612466,213.4455918953344 L349.6903383750769,213.21289007483992 L343.93940155509085,213.47413079784792 L341.89934481155933,214.3884733283761 L339.09131629391464,216.6090194739445 L337.0849794965577,218.00193744662167 L333.6076100473575,219.39485541929912 L330.0299237582901,221.5286872072304 L326.8197848825189,222.6164584530327 L325.38247217684926,222.83489082227055 L322.3729669808144,222.57365009926275 L320.0993996100285,222.66036445689969 L319.83048303929,217.8394852323143 L320.0016117661237,215.6518685896462 L319.93332887512065,212.12402117894072 L321.132915960263,210.69597840316993 L321.7499909752484,209.4007512890965 L321.71627102907473,205.5172652470692 L321.16747890509146,202.74899170326137 L320.68781267076605,199.22224194265266 L320.96178723342933,197.57027854716083 L322.4016289350623,195.02592562307382 L323.4992131830279,192.48047504889058 L323.567496074031,190.87351530736203 L322.7447293873835,187.16784858099592 L321.47601641258416,184.26566172539384 L320.07073765578065,181.81021845913762 L319.5286895210317,178.64569323043077 L320.4981379735369,178.25383214591892 L323.7748737430008,176.29452672335856 L329.92707792245955,171.98515244382241 L336.7149030872972,168.67573740235497 L338.4868862587451,167.41343979118164 L340.99480725544,165.15008529184297 L342.23148628137324,163.49592659615746 L343.9368725591275,161.62333553123443 L348.885274660171,158.96811994738377 L352.93082520240466,156.09447199429522 L356.6425482775139,153.17691803733982 L357.6457166761929,151.74119171089222 L358.88239570212613,149.47673956145695 L360.4208682463177,147.5174341388966 L361.6912672184256,146.7776179737393 L362.7610325107981,146.64699761223528 L368.5119693307841,146.64699761223528 L370.5849030218346,146.38575688922745 L373.26058075074695,143.5999209438728 L374.3632229906374,141.90185624432044 L375.1657577095809,138.59244120285285 L375.09916081588733,135.197409453845 L374.5309797228539,132.88905130054275 L373.56068827169577,130.49507643970028 L372.8593133912752,125.92336378705937 L372.9259102849687,122.83238111482966 L372.758996551407,119.61077808109613 L372.4909229793233,118.52300683529367 L372.3577291919352,115.86669360134643 L372.99250717866227,112.4277558484716 L373.661005111563,109.98987498376194 L374.86480718997734,106.37641086551623 L375.7347818012682,103.19761618555279 L376.46987662786245,102.15265329352061 L377.13837456076317,101.76079220900861 L378.1752629056158,102.19655929738764 L380.30636350381684,102.31839845811824 L381.72344424178146,103.98463130486694 L382.9432632946288,104.66188141451381 L384.7776283664973,105.13057800579311 L385.0170399843331,106.24579050401225 L386.73169924728415,106.4247074697698 L387.8630034414234,107.4960139641222 L389.0280275817374,107.36210065232824 L389.93678013112867,106.44666047170331 L392.3190943283256,105.55427094310849 L393.6046672762127,106.4247074697698 L394.8219573330958,106.24579050401225 L395.9018386093207,106.55862078156389 L395.8849786362329,108.67928076833502 L396.58803951396305,109.05797005168708 L399.21060832764965,109.59362329886322 L399.6042886992332,111.08972038062774 L400.87300167403157,112.13907387304663 L402.81021258173155,111.93820390535569 L404.0780825578761,112.36189684267123 L404.4557459550257,114.25863620972115 L405.87788468491703,114.54951348533933 L406.71835434330524,114.23668320778779 L408.84355395092575,114.86124611279439 L410.76306188688415,114.63842314316983 L411.8775061079366,114.83929311086088 L413.2490649185665,115.9325526071468 L414.3972290857936,116.29038653866196 L415.42568744410323,115.9775562611103 L418.99157175201054,117.33864238098411 L421.44216884020966,117.18277606725663 L422.67631887018047,118.387995873403 L424.95663023020165,118.8116888107185 L425.9850885885104,119.43734936582186 L426.7050094393264,118.99060577647623 L429.10418360961114,120.30778589248318 L430.37289658441046,120.32973889441654 L431.53876372337817,121.15517176711423 L433.90421794748926,121.26713207697483 L434.88125338788177,121.75778167018748 L435.6180342117855,122.85213881656983 L437.3841163926519,122.04865894580566 L438.8239580942848,122.49430488505453 L441.9607560871272,124.68192152772295 L444.99470824413805,125.64126771221463 L447.10304787867176,125.39649174065666 L447.5481511681687,124.83778784145042 L450.0678741460257,124.52605521399533 L452.4333283701368,123.8564886550251 L453.89087304350943,124.0793116246497 L455.8103809794688,125.01670480720784 L457.9878465036594,126.5786608947729 L460.2327519201973,127.38214076553707 L463.0955753503745,129.25692713065368 L464.7242487505818,129.59171041013883 L465.90697586263735,131.02085083600642 L467.0382800567766,131.60041008704923 L468.10045836126,130.17236731127844 L468.957787992736,130.9978001839763 L469.66084887046514,130.95389418010924 L471.6832026422541,132.15911398625562 L472.5228293019885,131.60041008704923 L475.8315990203184,130.95389418010924 L476.79093148897016,130.19432031321193 L478.591576614665,129.59171041013883 L481.84808041642475,129.949544341654 L483.93956007787165,129.4577970983446 L485.2074300540161,129.43584409641124 L486.3050143019817,127.67301804115525 L489.78406974849145,127.02540448411852 L491.70442068310365,127.27127810577322 L492.30379272634843,125.88714133386915 L494.60096405945546,125.7312750201417 L495.45829369093144,125.99910164372974 L497.8237479150416,125.01670480720784 L499.383295425592,123.81148500106164 L499.6918329330847,122.80713516260637 L501.543057978041,121.35604173480533 L503.0006026514146,119.72712899134329 L504.3030355723886,120.03995926889512 L508.48009390469974,119.63273108302951 L508.976620112113,119.34953735808813 L511.7846486297577,119.95983081183805 L513.1890843879074,120.83026733849918 L516.1985895839423,121.96194458816852 L517.5693053959184,121.83132422666435 L522.7520611228719,119.82921045033387 L524.0561800411534,119.00158227744299 L526.7976116651046,118.13114575078168 L529.7068000212722,117.78209302003977 L534.0195811369349,116.04121996671729 L537.865340998086,117.5208522970318 L538.767349558242,118.0005253892777 L540.6067726220372,117.86990502777353 L544.8866767901799,116.38917504736246 L547.628108414132,116.30246068972531 L549.7010421051825,116.82494213574148 L553.2121315005563,116.78103613187446 L556.9904514693611,115.2574977976931 L560.634734652122,113.47271874050361 L563.0086188627761,112.16651512546342 L569.896760867483,110.2511157067701 L573.5410440502438,109.64082225302019 L578.7903966708909,108.55305100721773 L584.5076135447042,108.55305100721773 L591.529792335452,108.07447556506861 L594.1371871733622,108.11728391883884 L595.2077954643876,109.0755324532339 L596.9797786358354,111.2082665910684 L597.3473260491326,112.64509056761257 L597.1466923693971,115.86669360134643 L595.6756597175538,119.95983081183805 L595.6090628238603,120.87307569226931 L594.405260745445,124.87840089502717 L594.2375040132295,127.27347340596643 L595.3426752490851,132.87039124889935 L595.7186526489253,135.8417300605918 L596.5464773274986,139.17309810399274 L597.3397390612434,141.62085781957228 L596.3576456289243,142.49458729652352 L594.8191730847326,144.45389271908388 L593.883444578402,146.0213370571321 L592.0440215146068,147.71940175668448 L588.1662277045897,149.63480117537782 L586.4271214806627,149.85213589451894 L583.4850561769751,149.7654215368818 L580.2749173012048,149.15622573322867 L574.2896268553087,149.28684609473265 L569.5755783801753,148.98169936785763 L565.8309783575452,149.02560537172462 L562.9555099475522,150.07056826375683 L561.4507573495343,151.07162515192198 L556.6355490358789,152.81249820524465 L552.489681653778,155.03304435081282 L550.3830280165529,156.5565826849943 L549.0789090982704,159.908806080232 L547.6078764464271,161.91201750665925 L545.5686627015513,163.87132292921947 L545.1673953420795,164.91628582125182 L545.2011152882541,167.44088104359844 L545.4346259155094,170.00938226981197 L546.8053417274855,174.36266255321502 L547.6415963926017,175.62605781448494 L551.5868300949662,179.2823302865009 L552.6903153335124,180.63243990540792 L553.4591301062823,183.37546749699248 L554.5297383973085,186.33582980771817 L556.332069520312,189.18203650838976 L557.2711700212596,190.32578790912243 L559.3778236584839,193.41677058135213 L560.5150288432046,195.50669636541653 L560.7190345175572,196.6032488119924 L560.5816257368982,198.38034431850488 L559.6450542319137,200.7304131754807 L557.5055236471688,205.2582198242547 L555.7326974770681,208.19114088256327 L554.2616648252248,210.14934865502704 L553.8275205182332,212.1086540775874 L553.5265699986296,214.63434695003065 L553.1918995328524,215.37416311518797 L551.6542699873155,217.2895625338813 L550.0820774969493,217.98657034526835 L548.5781678975861,217.72532962226035 L546.9393785135263,216.94160745323614 L540.7871743340695,216.20179128807905 L538.7479605891917,216.37522000335326 L534.468056421049,215.635403838196 L530.8566501858079,215.89664456120417 L528.1152185618558,216.68036673022817 L525.1723102595155,218.63967215278853 L524.7044460063502,219.24886795644167 L523.1668164608124,223.21028715533254 L522.1965250096542,224.3430620550986 L519.7897638514803,226.25846147379198 L517.348439748478,228.52181597313074 L515.4095428434704,229.13210942688048 L513.4032060461125,229.08820342301362 L508.3882070513755,228.60962798086447 L505.5127386413815,229.78521123440066 L503.6395956314136,230.3065950303201 L501.19911452706594,230.3065950303201 L499.96243550113184,230.61174175719495 L497.5548313443031,232.87619390663022 L495.682531332989,233.7905364371584 L494.61192304196175,233.92115679866254 L493.74279142932664,234.79159332532373 L492.8736598166896,238.09991071669438 L489.7326468305753,245.2082927427453 L482.9583096442062,242.68369752039862 L479.9015965235271,241.87911999953772 L478.9970589674077,240.75293100035185 L476.8187504445643,239.45989918647174 L474.7390727642785,239.5850312974923 L472.05918004209514,239.3841613298012 L469.9145914654244,238.83753158165834 L468.5447186521041,238.25028877993856 L467.89308069228923,237.60047992270864 L466.49538892337483,234.93099488760112 L465.90950485859975,234.57425860618258 L463.3788228982374,234.10336671471006 L460.4182116241545,233.9178638483724 L457.77035285083616,233.11218867741488 L456.032089625563,231.9958785290989 L454.9395633695231,233.61820537198088 L453.4179507984193,234.57755155647266 L452.5479761871284,234.3163108334645 L450.8763098555488,234.75098027174678 L448.8699730581919,234.8816006332508 L447.4655373000431,235.97046952914985 z"/>
	<path id="tunceli-merkez" title="Merkez" class="district" d="M310.7724624982827,419.1276576102063 L307.68287243008365,422.3141358408464 L303.9711493549744,425.2744981515721 L300.49377990577324,427.1031832126283 L297.45139776221953,427.4072322894066 L295.0775135515654,426.14493467823326 L291.2325966890681,422.53147055998727 L287.7881041873868,420.79059750666505 L284.4110515780548,416.61074593853607 L283.107775658428,415.9576441310162 L282.94001892621145,414.30348543533063 L284.9126357773938,411.5165518398794 L285.514536816601,409.3838177020446 L285.3139031368646,407.55513264098846 L284.37817463053494,406.46626374508935 L283.1406526059469,405.59582721842827 L279.2957357434496,404.9866314147747 L276.28623054741473,402.6793709115694 L273.97978622910904,400.589445127505 L268.6301167685938,397.2811277361341 L257.8296180090413,395.4524426750779 L256.4926221432389,395.321822313574 L248.70162857972326,395.2779163097068 L246.0267938494647,395.4952510288481 L240.91147801485948,395.23401030584006 L239.64107904275255,394.4941941406829 L236.76561063275955,388.4428491577278 L234.0570559563273,384.48142995883654 L232.21847589118687,382.1302634517642 L229.17525074897736,378.6902280487931 L226.8679634320169,378.03822389136946 L224.99566342070278,377.7330771644943 L221.31766029176623,376.3401591918173 L219.91406753227128,374.4236621230272 L219.64599396018755,372.9440297927125 L219.54567712031937,367.50188061341044 L219.41248333293132,366.1956769983703 L218.7431424013768,363.6710817760237 L217.97432762860885,361.9291110726045 L216.23606440333472,359.14327512724986 L213.4271928870362,356.92272898168136 L211.72180660928288,355.87776608964924 L210.68576126308503,354.8767092014839 L214.46323823323402,352.0030612483955 L220.4131227356469,350.0229004739982 L222.75328700012724,348.97903523206276 L224.99397742339323,347.4983052516516 L226.0974626619394,346.3227219981154 L227.53477536760994,344.102175852547 L228.00348261942906,342.83987824137387 L229.40707537892405,335.5262356472451 L229.47451527127237,334.1761260283381 L229.13984480549414,332.56587333651936 L228.4039069802451,331.8249595212656 L226.29809634167574,331.12904935997517 L223.25487119946624,329.60551102579393 L220.27908594960505,328.9524092182738 L217.2029838598766,327.4277732339958 L216.5007659808022,326.90529178797965 L213.9599680365855,324.0755498387581 L212.6558491183049,323.24901931596366 L210.88386594685804,322.63872586221385 L209.7137838146174,321.7682893355526 L208.87752914950016,320.59270608201626 L208.77721230963294,318.67730666332295 L209.94729444187266,314.75869581820234 L209.94729444187266,311.9289538689806 L210.8501460006834,309.3604526427671 L212.85648279803934,305.26841308237226 L213.62529757080918,303.0039609329371 L214.36123539605725,299.52111717619516 L214.49527218209911,295.3423632581631 L212.78988590434676,290.98798532466355 L211.0507796804188,288.20214937930893 L209.94729444187266,287.02656612577255 L208.77721230963294,283.84886909590585 L208.4433848425095,282.10689839248664 L207.50681333752507,279.9302582507852 L206.65369869932198,278.9939627183235 L207.78837488807844,277.5154280381057 L208.69122644688824,275.7745549847831 L209.7947116854344,274.4683513697429 L211.43265807084038,273.11824175083586 L216.0135127585867,270.89879325536424 L218.1867632895044,268.2863860252837 L220.5606475001584,267.67719022163055 L223.5701526961933,267.5465698601264 L226.612534839749,266.5883213257314 L229.38768640987382,266.9801824102435 L231.7615706205279,267.71999857540084 L233.366640058413,267.89452494077153 L237.71314112025027,267.5893782138967 L243.36376110036912,266.41379496036063 L245.70476836350326,267.02408841411057 L247.9117388405956,268.373100382921 L248.8474673469252,269.41806327495306 L250.2181831589013,270.24569144784414 L251.65633886322473,270.33240580548124 L252.7927010492907,269.7232100018279 L257.9425798287244,266.2403662450862 L259.17925885465763,265.1954033530542 L261.0852788121464,263.0615715651228 L265.06423246068647,259.18686672386906 L268.30724828397666,257.4459936705466 L271.08239985410245,256.2265044131435 L272.9218229178976,255.7040229671274 L276.5661061006586,255.5305942518531 L278.137455592371,255.26935352884507 L279.8428418701234,254.31110499445003 L282.5842734940745,251.95993848737766 L286.09536288944935,249.4781516188013 L289.8062429659048,248.21585400762777 L293.38392925497317,247.60665820397463 L296.660665024437,246.3443605928013 L298.73359871548746,244.95034497002723 L301.30895960453165,242.86151683605965 L304.385061694261,239.55210179459218 L305.35451014676534,238.28980418341885 L305.287070254417,236.1998783993545 L304.3176218019127,233.1088957271248 L304.3176218019127,231.7159777544475 L306.12332491953424,229.9740070510284 L308.8647565434854,228.4504687168469 L311.87426173952025,227.0575507441696 L315.48566797476235,226.44835494051642 L317.29052809372905,225.14215132547605 L319.36430478343334,223.09613154527858 L320.0993996100285,222.66036445689969 L322.3729669808144,222.57365009926275 L325.38247217684926,222.83489082227055 L326.8197848825189,222.6164584530327 L330.0299237582901,221.5286872072304 L333.6076100473575,219.39485541929912 L337.0849794965577,218.00193744662167 L339.09131629391464,216.6090194739445 L341.89934481155933,214.3884733283761 L343.93940155509085,213.47413079784792 L349.6903383750769,213.21289007483992 L351.6410372612466,213.4455918953344 L351.15378403903105,217.2851719334946 L350.5181630536502,218.33013482552693 L348.8464967220706,219.68024444443404 L348.043962003128,220.72410968636945 L347.67641458983087,221.8568845861355 L347.70929153735074,223.98961872397 L348.11055889682154,225.81830378502633 L348.545546202467,229.7369146301471 L349.84966512074953,232.34932186022746 L351.05346719916287,233.56771346753393 L355.60060194073554,235.00453744407815 L356.6037703394145,235.74435360923545 L359.178288229803,236.87603085890476 L361.4181356544161,237.61694467415853 L362.3209872132259,238.22614047781187 L363.89233670493735,239.88029917349718 L364.8955051036163,241.4916495154124 L366.4002577016333,242.1875596767027 L367.73725356743466,242.23146568056953 L369.2757261116263,242.97128184572688 L370.2451745641306,244.2774854607672 L371.19607704623945,247.71422791344852 L371.7642581392729,252.6327979966378 L371.44644764658153,254.3802569505405 L369.4434828438428,260.9957940831853 L367.42112907205285,268.36322153205083 L366.78888008129013,269.59039434013073 L364.8904471116896,272.49806944621605 L363.3089816361256,274.0731973349409 L363.01308910844875,274.75813099526465 L362.45080900599584,277.9489998262914 L362.27293628992874,282.4252169205217 L363.1960198164426,283.7500805872052 L363.11593494427933,285.5172972428479 L361.0227692855249,289.43371278777533 L357.07079159392407,291.2733743497983 L350.4920300953647,295.2238170477225 L350.086547742622,296.88675694418123 L350.38412626760834,298.17539815767475 L350.38412626760834,300.56937301851747 L351.35441771876646,302.57258444494454 L353.3599115174686,304.4879838636381 L354.09584934271766,304.92375095201703 L357.8075724178279,305.31561203652905 L359.6798724291429,306.92586472834756 L360.61560093547354,308.71064378553706 L360.7833576676891,311.88943846550046 L359.9808229487455,314.15279296483914 L358.7095809779839,315.89476366825824 L355.73379572812263,320.50928467466923 L355.66719883443005,323.16559790861663 L357.673535631786,325.3422380503181 L361.9534397999288,328.60664943782194 L362.4213040530941,329.56489797221695 L362.4213040530941,331.0017219487612 L361.31781881454793,333.2650764480999 L360.7833576676891,335.57343460140214 L360.5026391157895,339.23190237361143 L360.816234615208,341.62477958435727 L360.48240714808554,343.3656526376798 L358.9102146577202,345.63010478711516 L357.5066218982243,346.28320659463515 L352.62481669087435,346.6750676791472 L351.35441771876646,347.24035747893345 L350.21721253404667,350.02729107438495 L347.9436451632608,352.4651719390944 L346.8738798708874,352.94374738124355 L343.22875368947257,353.9448042694089 L341.289856784464,354.16323663864677 L337.678450549221,355.3816282459532 L335.4048831784351,357.1664073031427 L331.89463678171506,358.8644720026948 L330.0552137179199,358.95228401042885 L327.24718520027517,360.7370630676182 L325.47435903017356,361.65140559814637 L323.2345116055623,362.17388704416237 L320.62627376899826,361.9993606787917 L319.2555579570222,361.6942139519165 L313.7718517104651,358.3419905566789 L312.40113589849,357.21031330700947 L309.29131386258695,353.6835635464009 L307.7874042632238,352.76922101587286 L304.4769485475853,351.76816412770756 L302.26997807049304,351.50692340469936 L300.0630075934007,351.5508294085664 L298.92664540733466,352.0294048507156 L298.52537804786294,353.3356084657557 L297.3552959156233,355.51224860745725 L296.5864811428543,356.1653504149774 L292.9750749076123,356.7745462186306 L291.0024580564291,357.9501294721666 L289.13015804511497,359.5175738102151 L287.49136866105613,361.6074995942793 L286.6222370484191,363.52289901297263 L286.0203360092119,368.31194638475466 L285.38471502383106,369.48752963829105 L283.6127318523842,371.4029290569844 L282.0751023068464,372.62241831438746 L280.41523795642786,374.3391430655834 L276.9521994843521,377.14144376238795 L277.3517808465153,386.7579562593353 L278.0902476677267,388.5493212171047 L279.58151228727496,390.0410276984828 L280.9682450736831,390.4822830373452 L283.56889592235706,390.09810550350977 L284.373959637263,390.69193420580933 L288.502967046278,396.0748102798914 L293.26843843932676,402.9450022349642 L294.3061697828341,404.1337572896604 L295.2629732555226,404.64087163432293 L298.76394666704397,404.9328465600379 L300.15910943999694,405.6463191228749 L304.09591315581855,408.0820046873913 L306.64261209061385,409.9183732991243 L308.3783463199247,411.9940296319319 L310.265820307017,416.9477245182147 L310.7724624982827,419.1276576102063 z"/>
	
</g></g></svg>