<svg xmlns="http://www.w3.org/2000/svg" version="1.2" baseProfile="tiny" width="600" height="600" stroke-linecap="round" stroke-linejoin="round" style=""><rect id="backgroundrect" width="100%" height="100%" x="0" y="0" fill="none" stroke="none" class="" style=""/>































































































































































































































































































































































































































































































































































































































<g class="currentLayer" style=""><title>Layer 1</title><g class="city city-64" id="usak" title="Uşak">
	<path id="usak-banaz" title="Banaz" class="district" d="M524.0032032512094,123.6886151712865 L526.118355688454,125.12976840031835 L527.5687788466738,125.64587370199729 L531.1931086765035,125.18642912556251 L532.9638000142193,124.03843356192303 L534.6285033213088,122.43099342184915 L540.7758090975246,120.13500229457094 L542.3333723301787,119.81967304103887 L546.0648422344461,119.81967304103887 L549.1246705968209,119.4181209447448 L552.7225034189961,117.49411979624212 L556.2661901820474,117.29334374809497 L558.387102838346,119.07322957369419 L560.2660862943087,122.25977949122048 L560.6151555690813,123.69477394576941 L560.4273724278661,128.25842583770387 L560.910078784732,129.2623060784399 L563.5678438570206,132.53507883872885 L566.306251996088,134.60196355523794 L568.1852354520495,136.6392861542285 L569.5273664920211,138.50539482259032 L570.6552173831229,142.35093360980204 L570.9766376064294,145.59414425257205 L569.608009558802,151.53612987381172 L570.4939312495644,153.51679174755813 L574.3325412282652,155.86944360008042 L583.7286105518837,158.1087740021148 L588.1305699542302,159.91699019033595 L593.5601524361094,161.8877980249095 L595.4160950158486,164.4079685433705 L596.7179045224314,167.537857735653 L596.8077639396995,170.9990889951227 L596.8803426998012,173.798867875114 L596.554314301249,179.71129137883474 L595.7006498371995,187.1461639347638 L594.1373263854881,192.92555790965093 L591.8620398584965,194.33099024668132 L589.5809931124497,197.08642595039464 L586.4393696394849,199.75563881134536 L580.9637054051595,202.19574526152667 L579.0040788824193,202.68228844568705 L575.8901044609204,203.25751798240344 L573.0445562474165,204.34885282079836 L570.0907159156668,205.95629296087264 L566.306251996088,208.96916543797698 L564.0781992653536,209.40027965178993 L561.4734282083776,210.97938942924193 L559.8363739527542,211.66794041644616 L557.0173227469072,214.30882291477502 L553.5542790506347,216.00125414271488 L550.2790184955775,216.66147476729728 L546.3874145015641,219.10158121747858 L544.8033542612533,221.6279105104228 L543.7296494292755,224.15300804847007 L542.6017985381736,225.38722645487184 L541.6352337806314,228.11433179596327 L540.9647442825514,231.185096753208 L539.5730753586993,236.20819322157763 L540.2527812072699,239.3848890999311 L541.0039137721296,240.68562227074946 L541.6847716645108,245.8910184638172 L542.5799097057626,249.37318955652958 L543.1167621217505,253.08569881490763 L543.8321813284663,262.5381858914812 L543.438182345058,264.68143941158013 L541.5050528299735,266.82469293167895 L537.8542259924867,270.0395732118272 L534.8485436892349,272.10522617343963 L532.9154141741504,274.55518666279403 L530.8394312264862,276.3535488118423 L528.9063017114007,277.27243796471237 L525.0769080831883,280.10424247201547 L516.9158297251071,282.63057176495937 L515.0184135681677,283.70096677011236 L512.8710039042123,286.3418492684408 L510.97358774727286,290.32164933938304 L509.2201770667257,293.3837920123516 L505.48870716245915,297.7060199445512 L502.815965520625,296.32891797014264 L499.5890908056367,295.2006304848493 L498.50386553554665,294.2915953711521 L494.69060052069005,292.2530410172652 L491.28861514640823,289.9940025368851 L489.587046437362,288.5208236805415 L486.80025245822674,285.6040280853723 L482.16673224984197,283.1269689882927 L478.8811033004839,281.6217645046371 L477.5908142320134,280.58585863658925 L476.03555508698105,276.82284742745037 L474.42269375139153,273.8752579598659 L473.63123965314185,271.2097403636053 L471.25457327077083,269.4532578810416 L469.6129108399027,269.17118600971804 L464.450602522208,268.8262946386677 L461.751363872717,267.82241439793177 L458.52564120153903,265.1876906740862 L454.331049685197,262.71063157700655 L451.3092387685902,261.29904046549325 L447.5259268928227,260.67207722311935 L444.82784028714315,259.85665548156476 L442.01109316891893,259.63740310996815 L432.62539223960147,259.7310164821103 L427.0529563251415,260.390005351796 L412.97382890926116,260.8285100949886 L407.0776686838719,261.92723546276335 L402.03978109777796,260.8248148302989 L402.9798488476634,258.2245802435582 L403.7252211934682,254.99615065954723 L404.2632256532685,251.1924915388202 L405.6122689561067,243.9719443349012 L405.7989000535104,241.11919999435568 L405.26089559371115,233.27908007744267 L404.23672864561274,230.72442042187654 L402.9959774610193,223.69233171713861 L402.7782411807151,221.7018158042193 L402.9959774610193,215.3656686160648 L403.61692907522126,212.61269642214478 L404.60883879660884,210.85498218468456 L405.9118003470021,207.76943616868033 L409.48083207389857,202.75988900417352 L410.38057829039417,200.206461103504 L411.0003778607857,196.88934516693706 L412.4588653256833,190.91779742817926 L412.14896554048704,187.73371102044626 L410.5660573439876,185.34410652102554 L408.0845549748029,183.15527806975234 L404.4855701088163,181.29779168566668 L402.251757159026,179.80490475097696 L397.06986409654104,176.6861013527643 L394.43283581285306,175.62556038678457 L388.0724019315767,173.89987177663573 L382.30181448160175,172.97112858459292 L380.471216865708,172.30844445021756 L375.53816526642663,172.00912801034193 L366.1374877675657,168.525725162733 L361.6698618679829,165.9057824976465 L357.543240936499,161.85823590739096 L355.9914379228989,159.60289269170084 L353.5099355537132,156.6836335867387 L350.4074815703278,151.01140228785658 L349.3522094393288,150.18119948754213 L345.5043831101365,148.02562841847748 L343.79820622584555,147.2951977647885 L340.3547472743634,143.58022499661715 L339.1808146308167,141.3753837316879 L341.5701534951104,140.57843831358232 L342.9537581122844,139.69157478802418 L345.8741891735108,138.93527728150664 L347.50317912245623,137.948641609323 L350.85447456904853,134.5970365356513 L353.6516369424845,133.24949667876166 L354.974183237667,131.83544205745505 L357.03403757197617,130.3240787993163 L359.3703824209584,127.30012052814251 L360.44639134055797,126.51056563941646 L364.29652175737215,126.31348485595919 L368.6454871444071,125.73209654475997 L375.30314832895607,123.78099678853204 L378.12219953480314,123.72310430839133 L382.6048020039293,124.69865418650538 L385.6922794177713,124.84276950940853 L389.4237493220378,124.4412174131141 L394.3625611403731,122.66133158751484 L397.02032621266284,118.58545463463714 L399.78523135938696,113.67691137165235 L401.23565451760555,111.98324838881577 L402.9268548323519,109.45815085076819 L403.78512747164723,107.01804440058656 L405.39683676342423,104.75038363593032 L407.946309717467,103.11461313323419 L411.43700246520666,102.33983930326761 L416.7790296174397,100.61784595780878 L418.2283007318468,99.67062644231689 L421.42291822012436,97.0580743066103 L423.35604773520885,96.45574616216875 L427.6243700554641,96.45574616216875 L431.67726018303694,97.8907406167177 L433.47675261603024,98.00529382210219 L439.3014861251302,99.38362755140705 L441.63783097411033,100.15840138137398 L447.89227682476263,103.71694127767573 L450.9797542386058,105.09527500698096 L455.3552166332954,106.12871736523547 L459.7848250871102,106.47237698138909 L463.94600733293,107.79281823055351 L466.65676642053006,108.94081379419261 L471.6232272903337,110.69236925716991 L475.4353402613798,110.40537036626007 L476.80396830900725,110.74902998241404 L480.6437303315205,112.55724617063515 L487.86474093971515,115.25602114910441 L491.32778463598765,115.74379608816145 L496.29424550578915,117.20712090533229 L497.09952412977395,117.60990475652335 L505.1523103696072,118.35511646897139 L510.06577722409827,120.02044908918607 L513.0184655120377,119.50434378750714 L516.4008661415293,119.47478166998859 L518.1727095230565,119.90589588380149 L521.3673270113328,121.59955886663843 L524.0032032512094,123.6886151712865 z"/>
	<path id="usak-esme" title="Eşme" class="district" d="M3.2379270409754355,399.9773972550596 L3.076640907415957,397.42766461908 L3.6088851481601196,396.36958716289314 L5.1215186721806845,394.84221109109876 L4.701022681115653,391.9377330448957 L2.853144408055563,387.685715141803 L2.7690452098425666,385.4106638477672 L3.3289385020539157,383.734245433483 L3.8047325960522684,380.79897351486477 L4.561625379969335,380.1399846451794 L6.325404454817466,375.9778848495389 L8.2297328746223,373.8518758979927 L9.967014941814696,372.5942541485554 L13.523374186788537,370.64808141191423 L14.839008219104443,369.6897761023527 L19.208710394740095,365.5276763067123 L19.09581010124846,363.01243280783797 L19.684504488738455,360.8568617387729 L22.373374743927528,356.36588338573836 L23.23625555846651,353.6646448974758 L24.428620902992066,350.87348830176103 L26.04148223858158,343.4299934615558 L24.5300007583714,341.39390261746195 L22.68097044149988,337.71095547660235 L22.177527296035407,335.4950284176036 L21.25243611569232,333.8777342383568 L19.48865704084524,329.47544223787787 L19.5163060923135,328.4875748107979 L20.63724472054659,325.07438199229557 L21.841130503183365,322.6194944833548 L23.520810379817433,317.01993672337255 L23.40906213013831,313.7853483648786 L23.689008776243455,310.6419098687337 L22.34457364864997,308.3065025847638 L19.825053833697282,306.689208405517 L18.200672059997586,305.22218832365627 L15.007206615530457,303.8142924768325 L14.36321412510609,302.19699829758576 L14.419664271851921,300.8198963231772 L16.09934414848597,298.8441614690174 L17.22028277672119,295.58001099300463 L19.305482074874732,291.96357861656213 L22.343421604838525,288.8386164438662 L24.091072066329644,289.4877512743791 L26.86634560735358,289.6836003029397 L28.360546430396354,290.36845602545395 L31.35010012029231,292.6188722215579 L39.980060309504196,295.48762937575907 L44.00530138560984,295.55291238527946 L45.13430432052303,295.29301210209485 L47.726402895575376,293.89004327485765 L49.98325672159031,291.7381674704826 L50.71480454165989,288.9987445804253 L52.606460479544154,286.78158576652993 L56.20429330171825,285.3798486941894 L64.22021413959689,279.7815226891039 L65.87454905238562,277.2933777979547 L66.34227883970703,273.8370735580712 L65.6257075891809,271.90937714487904 L66.46785161512031,269.367035038279 L68.08301703833268,268.8287581484611 L73.13242506253789,269.11206177468097 L77.35696971796894,270.2563620736301 L78.91107681918974,270.38076931818784 L80.82116545805181,269.60722724311756 L82.35453577067301,268.1007910045654 L82.82341760180483,265.8331302399091 L84.9258975571268,264.74549066620375 L85.54684917132764,263.55684719097667 L88.3647483333643,263.03211960502114 L93.58581088542877,264.1653341099011 L94.7240301708303,264.02737756148093 L96.63642289731311,262.23024716732937 L99.86790578754832,259.68790506072935 L101.08215996448382,257.78114848077905 L102.78833684877577,256.094876027322 L105.8907908321612,256.03944705697495 L109.9747861426356,255.5972470490921 L114.70507803115615,253.85554562528796 L117.73034507919618,253.9109745956351 L119.71992474102547,254.90623255209493 L122.20142711021117,257.47690502131684 L122.97790463891639,261.51213406260655 L125.2785361297534,264.69006169585623 L127.78538346278233,267.7029341729609 L128.79342179752697,268.5873341887258 L131.6631629310637,271.986977703365 L133.60205266520333,275.60710534449765 L134.4545650854425,276.4089777821897 L136.4452967910843,276.93493712304155 L142.82992359239566,277.6247198651424 L147.9484542452683,278.03982126529934 L152.2651624055914,279.25556334825205 L153.48056862633837,279.7815226891039 L157.79727678666148,283.2082648114687 L159.03802797125377,283.95470827881365 L162.0114530477938,284.17519240530663 L165.2682809018722,284.7565807165055 L168.18871196309965,284.5619634428416 L172.04114646753462,285.0324938133459 L176.17237557426535,284.11976343495917 L183.6860053104878,284.0470898960593 L193.53367580807057,283.76009100514943 L193.88965734571076,285.5535261346114 L196.12347029550216,289.73287049880423 L196.03015474679975,296.438544155941 L195.76979284548273,297.41409403405476 L193.91500230955612,298.41304725520445 L192.0625158612513,299.96998544451753 L187.9923450765111,301.73878547604716 L185.74240351336374,302.09229913137403 L184.584599483173,302.79932644202745 L183.29431041470244,304.2860546022339 L181.04436885155513,305.0990128339955 L177.73569902597558,305.0645236968903 L175.02263585075258,305.70134097843675 L173.36830093796283,307.009464678635 L171.48240521913468,309.84003743104154 L170.22437337737497,312.3873065572278 L170.15870688014078,315.6058821020659 L170.58841922169418,320.0291139357873 L172.24275413448393,322.5751513070768 L175.35327242454844,322.92989671730027 L178.69535152065131,323.7083658119568 L184.5511902126507,324.09636860438843 L188.6213609973899,325.58309676459487 L191.0037875988181,330.57047234096274 L191.2019391343331,332.1988523142794 L190.80563606330307,334.0021414829142 L189.97846860690714,335.48886964312067 L188.05916361755567,337.08029696953884 L184.45211444489323,338.8133761090671 L180.8462173160401,339.45019339061355 L177.9338505614906,339.45019339061355 L176.80945580182316,339.8394279379418 L171.415586678088,343.05923523767655 L165.26136863900567,345.039897111423 L162.51489619326037,346.7027662218444 L161.5229864718717,348.11805259804765 L161.32368289254524,349.8166426004708 L161.78680450462198,353.1768699584191 L162.68079050206248,356.1133736319336 L162.4158204255029,358.3071291027933 L161.42275866030272,360.1104182714282 L161.05871281598564,361.91493919495974 L161.2246071247877,364.8514428684746 L162.11859312222927,366.4083810577876 L166.55165770747624,368.990139321079 L166.81662778403793,370.3709365601772 L167.6437952404328,371.18389479193877 L170.62182849221645,376.17250212320334 L173.76460400899393,378.96735398360806 L178.3313056763321,385.4057368281809 L179.65500401532705,386.43178865705556 L180.54783796895612,390.99544054898996 L179.861219857519,394.2029302997587 L175.24037213105785,398.1014345475249 L171.74161507664024,399.96631146098997 L169.8971929350134,402.18347027488545 L170.77044214385324,404.5213410686484 L173.24157611873704,407.55022635940867 L174.6919992769567,410.2058899164967 L174.99844293071862,411.7073991354622 L173.037664364168,413.0339991591099 L172.39021574230827,413.8617384496306 L172.56763048922366,415.3731017077694 L174.68508701409016,417.68756915849656 L175.47999724377422,419.14103993649485 L174.81065978950343,422.47909570630384 L174.91088760107237,425.3244495174694 L176.14818265423247,427.27308576390413 L176.4269772565262,429.6885571161534 L177.34746026162352,431.20607914877525 L176.54448572526255,434.21525636118974 L178.49604794132486,438.25910768675567 L178.95916955340053,440.80637681294183 L178.7610180178855,444.8391423444382 L179.88656482136435,449.0850014730478 L180.0190498596463,451.52510792322926 L180.4153529306763,453.01183608343575 L180.44876220119858,455.52338431762064 L180.11812562740272,462.5283744146329 L180.31627716291771,465.8886017725813 L180.22987387708292,469.42620183564054 L178.87046217994282,469.92383081387055 L175.82791447473537,469.5789394428203 L174.53877745007625,468.4691282809759 L171.85451537013185,467.6660240883871 L171.4605163867226,466.2876903590824 L170.2796714803104,465.1778791972381 L167.5228306402632,465.02514159005864 L167.02284362622987,462.88188806995987 L167.09427034252127,461.581154899141 L165.23256754372812,461.84844571170527 L162.619732180073,461.3126323316806 L161.61745406438556,461.4666016937565 L158.2523340920602,460.96897271552666 L156.75006896234052,460.2410055716311 L154.17294695683054,460.2028211698363 L152.2041040836009,458.9784568026073 L149.73412215252748,459.1693788115816 L144.18127098285674,460.5095281390918 L142.00736431124446,461.6575237027308 L139.05467602330512,463.92518446738717 L134.30249530237458,466.795173376485 L132.8797211956221,467.3408407956825 L127.93975733347528,468.0577221455087 L124.23593648067609,468.3742831539372 L122.11502382437635,468.31639067379666 L119.40311269296475,466.5943973283379 L117.01377382867005,464.29840620105966 L115.59099972191865,463.37951704818965 L113.92744845863947,462.86341174651074 L111.99431894355496,462.8917421091326 L108.93449058118117,463.6948463017215 L104.50488212736536,464.4129594064442 L101.25611857996597,464.7566190225978 L99.85984148086928,465.3885092845579 L96.26316070250661,466.22117559466534 L91.43148895860568,465.8479538609933 L88.85321490928641,466.02039954651815 L84.20932630660067,464.46962013168803 L78.81315309524368,463.3511866855675 L76.5321063491959,462.37440505255705 L73.73955215100563,460.7669649124827 L70.3041575062014,460.05008356265665 L62.15920776147516,460.97143622531996 L56.90934411413315,460.9233977843524 L54.222777946566936,460.0365342587942 L51.49819433323164,458.3465665406472 L49.83809920138678,457.9240746111105 L48.239062391530325,458.39953200120135 L48.250582829642624,456.64674478332745 L47.69068953743127,455.80791969873724 L44.74952168760316,455.1193687115329 L43.54563590496744,454.48994195936615 L42.90164341454309,453.26311408234375 L37.58035305091073,447.3642398824856 L34.863833744253384,444.99803872610084 L32.17496348906431,443.0518659894591 L30.57823076683181,442.782111667102 L28.534505045877467,441.674764015051 L27.301818167963106,438.8897661938191 L27.61056590934689,436.3141667050105 L27.806413357240075,428.9482724232918 L27.301818167963106,426.313548699446 L25.87328384215556,424.5472121777095 L21.42063451211834,421.4321040441865 L20.356146030628935,420.50459260704025 L18.648817102527687,420.26440040220166 L15.567099907741806,420.35431850965426 L14.615511719744049,419.7261235123839 L13.159328342469315,417.15052402357526 L11.703144965194575,408.94580465726597 L10.638656483706235,407.6586207903101 L7.781587832090082,406.2211628259682 L5.990159705775817,404.7837048616259 L3.7494344931189474,401.6698284829995 L3.2379270409754355,399.9773972550596 z"/>
	<path id="usak-karahalli" title="Karahallı" class="district" d="M342.8477700816593,342.3817700445418 L344.3915087885803,342.41502742675027 L347.0619463427916,342.6589148962788 L355.9280755132866,344.5656714762288 L358.7978166468243,345.2850163358482 L360.03856783141663,346.08565701864376 L363.6317924783461,349.01600191767534 L366.00961090452955,351.22700195708745 L366.57872054723134,352.2222599135473 L369.4219646731113,355.0134165092621 L373.94604071943985,358.4130600239017 L383.61399238248333,364.4375732232141 L386.3535525653642,366.3172311954387 L389.3523226057474,368.94333263500806 L395.7381014508692,373.03399064664507 L398.9684322972918,373.779202359093 L402.32894409437245,374.19430375925015 L404.91989062561555,375.01588427528804 L404.4521608382941,375.8559411147749 L404.05816185488686,379.22355900210266 L405.52586567027186,381.86444150043116 L406.3852903533796,382.78333065330116 L409.872526969685,388.35332629576493 L411.89781998965947,397.2490601590715 L411.75381451326837,399.3923136791703 L412.004960064096,404.82681628300725 L411.78952787141253,406.0129962484411 L411.6109610806867,413.9725963903254 L412.1121001385304,418.06818142154873 L413.61551731206157,422.5074260689258 L414.5463687114597,428.0182974763524 L415.9783591686995,431.50046856906476 L416.04978588499085,432.8012017398831 L418.76976132308044,437.508968954721 L418.9483281138062,439.19277789838475 L415.54864682714714,441.9482136020981 L413.43695052133575,443.93872951501726 L412.3989590475032,445.2776470876308 L410.5257358105977,446.8087184241151 L399.25068303101887,453.35303218979607 L393.91672018546484,455.5344701116901 L393.2888563083965,455.9569620412269 L387.43877783545315,459.78156099519606 L385.362794887788,460.08826796445163 L384.7545157555077,459.70519219160633 L382.3559605407236,454.9604723298704 L381.53224921576196,452.3195898315416 L378.7765604195273,447.9185295859595 L376.1637250558732,446.08198303511614 L373.29974414139264,444.7036493058115 L368.8620713808999,443.5938381439671 L362.9555427612109,442.52221138391747 L358.26672444989055,442.59858018750725 L354.293325345286,443.0198403621473 L348.8176611109607,443.2107623711217 L343.2694181165347,445.3540158912206 L341.2648618851609,445.31583148942576 L339.1888789374947,444.7800181094008 L337.1128959898295,444.6272805022217 L332.96093009449805,443.5938381439671 L330.84923378868876,442.48402698212266 L328.522105290196,440.83840244025373 L325.37241751055205,437.2022619854654 L323.9761404114564,435.28934663103223 L323.0821544140159,434.638980045623 L318.1421905518691,433.03153990554887 L316.1019209623491,430.73554877827064 L315.1710695629509,428.2474038871215 L313.2033787335337,425.49196818340806 L311.3416759347395,423.6936060343599 L309.6954053286267,421.47398371067106 L308.3348415876762,420.63146336139096 L311.9246101031723,418.30960538128386 L312.3727551457045,417.1788543861975 L313.2068348649659,410.4633266898876 L314.1353821767412,406.0437901208566 L315.89800920777793,401.828724864662 L317.11571951614667,400.1153538034797 L318.8783465471844,391.27628066541695 L319.5188829061755,385.62252568998383 L319.00622341022057,382.3337401160391 L318.6859552307245,377.26260520670195 L319.1663574999675,371.746806779689 L319.8080459027701,367.94437941385826 L320.7688504412572,366.0253052849423 L323.10865142167165,363.18118322867326 L326.8896592098162,360.16584724177574 L328.52440937781785,356.6368694629921 L331.63262358026054,353.7594900245146 L334.48393201281954,352.14835461975076 L338.3294542543879,346.9072375346816 L340.98952341429833,344.6457355445085 L342.8477700816593,342.3817700445418 z"/>
	<path id="usak-sivasli" title="Sivaslı" class="district" d="M404.91989062561555,375.01588427528804 L402.32894409437245,374.19430375925015 L398.9684322972918,373.779202359093 L395.7381014508692,373.03399064664507 L389.3523226057474,368.94333263500806 L386.3535525653642,366.3172311954387 L383.61399238248333,364.4375732232141 L373.94604071943985,358.4130600239017 L369.4219646731113,355.0134165092621 L366.57872054723134,352.2222599135473 L366.00961090452955,351.22700195708745 L363.6317924783461,349.01600191767534 L360.03856783141663,346.08565701864376 L358.7978166468243,345.2850163358482 L355.9280755132866,344.5656714762288 L347.0619463427916,342.6589148962788 L344.3915087885803,342.41502742675027 L344.610397112696,336.1146011305975 L343.86617681070265,327.6216511184821 L342.9560621999062,324.4375647107491 L342.2936370085041,321.1647919504602 L342.79016789110307,314.22015784338157 L344.27976053890114,306.7902123070388 L345.106927995295,305.02018052061237 L347.3822145222866,302.3226372970398 L349.9881376230752,300.3321213841205 L352.92469729765753,297.6789213368256 L355.324404556251,294.7153190555854 L361.81962756343114,291.48565771667785 L363.5569096306225,290.7786304060246 L366.7837843456129,288.6994281405497 L370.71340578539434,284.9844553723783 L374.31239065137987,280.561223538657 L377.6636860979711,277.377137130924 L381.4274132289494,275.20924851289317 L385.27523955814064,273.88264848924587 L390.528559336917,272.28998940793105 L396.9823087668937,268.0441302793212 L398.9672802534804,266.31967342406955 L401.36698751207496,262.95821431122465 L402.03978109777796,260.8248148302989 L407.0776686838719,261.92723546276335 L412.97382890926116,260.8285100949886 L427.0529563251415,260.390005351796 L432.62539223960147,259.7310164821103 L442.01109316891893,259.63740310996815 L444.82784028714315,259.85665548156476 L447.5259268928227,260.67207722311935 L451.3092387685902,261.29904046549325 L454.331049685197,262.71063157700655 L458.52564120153903,265.1876906740862 L461.751363872717,267.82241439793177 L464.450602522208,268.8262946386677 L469.6129108399027,269.17118600971804 L471.25457327077083,269.4532578810416 L473.63123965314185,271.2097403636053 L474.42269375139153,273.8752579598659 L476.03555508698105,276.82284742745037 L477.5908142320134,280.58585863658925 L478.8811033004839,281.6217645046371 L482.16673224984197,283.1269689882927 L486.80025245822674,285.6040280853723 L489.587046437362,288.5208236805415 L491.28861514640823,289.9940025368851 L494.69060052069005,292.2530410172652 L498.50386553554665,294.2915953711521 L499.5890908056367,295.2006304848493 L502.815965520625,296.32891797014264 L505.48870716245915,297.7060199445512 L501.7030911990688,301.3828083109275 L499.48425481882293,302.6071726781563 L495.762001265045,305.2098707746901 L489.28290687122285,310.9498485928858 L482.5538189703826,316.11582862926196 L478.4018530750511,318.90944873477 L476.1104379347047,320.67085823692025 L473.21189570588933,324.30576693681184 L467.62793935331706,333.2224406333611 L467.1625136536185,334.9074813319214 L467.3767938024895,335.86332313168947 L468.91592433416577,338.3896524246338 L469.56106886840155,345.46977957033926 L469.34563667572024,350.4830219995361 L469.0933390810802,350.8587072430015 L467.69936606960744,352.1286465414051 L466.2673756123677,352.3959373539692 L461.7582761355846,352.7026443232248 L456.92545234787224,353.69790227968423 L441.6770004636898,359.93550907611 L437.776180119186,362.2315002033881 L435.41333826254805,363.4176801688223 L427.68197224602034,366.4416384399961 L421.9551624608696,368.1636317854546 L418.41147569781845,368.62307636188973 L410.46582953241966,371.7221716817567 L407.3161417527757,372.5265076292422 L404.91989062561555,375.01588427528804 z"/>
	<path id="usak-merkez" title="Merkez" class="district" d="M164.98142199289944,153.8776959322645 L166.64727734380153,153.589465286458 L168.3384776585479,152.70260176089982 L169.5988135879284,149.316507550123 L171.53539923444723,147.70537214535915 L173.30724261597229,145.10144229392876 L174.2519185411035,143.203307998255 L175.70464578694393,141.37907899637784 L177.2034547852314,140.0721870510762 L177.5490679285718,139.06091628096067 L179.9015413909099,138.34649844092783 L181.79089324117132,138.26027559816515 L183.45214041682866,138.93774079129992 L184.62722510418575,141.32980880051363 L187.00273944274636,144.04090132794892 L189.35982108032815,150.32161954575568 L190.13169043378863,151.27746134552407 L193.50717880041378,153.66952935473776 L195.743295837827,154.10433883324026 L196.84119358983972,153.23471987623483 L198.67063916192097,150.2785081243743 L201.4770178858464,148.84351366982534 L203.83409952342922,148.67229973919706 L205.05641800704274,149.63676382324132 L205.72460341750102,151.38708753132204 L206.80867664377962,152.22591261591262 L207.15428978712,153.53157280631754 L209.2060798147523,156.2931672845138 L211.00442020393314,157.22930100593615 L215.61605157990692,157.18003081007197 L219.14360972960213,156.26853218658152 L221.48341071001653,154.8384647516192 L226.61346180100247,155.30653161233022 L228.25051605662486,156.3670725783103 L227.90490291328342,159.30111274203188 L228.85073088222504,161.0009344993514 L231.4048120115125,163.01608551020288 L231.6893668328624,165.01399195250207 L230.40022980820328,166.8185128760336 L226.4752165436655,168.24981206589263 L224.74599878315217,168.45674688852267 L222.4568877304264,168.28306944810106 L221.14010165429903,169.58503437381646 L220.50071733911938,173.02902106473368 L218.2945534407952,179.78642842752794 L218.61366957647977,182.22160785812292 L219.55258528255484,183.36590815707243 L224.22527498051926,183.4977059310094 L227.2586063352373,183.89186749792427 L229.51315607362932,182.09596885866887 L231.97161756659148,181.13150477462463 L234.1858457715926,180.82479780536903 L236.6039857311638,178.6766172656836 L238.36661276220048,177.49413256493966 L240.41609870220998,176.83637545015065 L242.44945602886452,174.88650744881937 L243.37224312158367,174.42583111748758 L247.3997882853111,173.63750798365822 L251.230333957335,173.99348514877795 L254.68761743455025,173.8678461493239 L259.9109840742387,171.60511240425427 L264.5018786616118,170.00136752886993 L265.935021162662,169.1108087386218 L269.7240932574856,165.64341870466893 L272.62839570535715,162.11197741609237 L276.30111137525586,161.52073506572026 L280.49339880397605,159.20749936988972 L284.14307359765235,156.8720920859198 L286.0047763964466,155.94088538408363 L285.943718074456,153.40347029707019 L284.7513527299305,150.40291536893167 L284.874621417723,148.52448915160403 L285.6119294568487,146.48716655261347 L286.84116020332976,145.59907127215868 L288.22476482050274,143.0690467145248 L288.4713021960857,141.68824947542666 L290.1313973279326,141.2940879085118 L294.92735571368735,140.70161380324305 L298.3086042993686,139.3873313285619 L299.96869943121345,138.07304885388078 L300.9214396630227,136.1662922739305 L301.93639026063175,135.0490905827066 L309.476517004511,131.67038690130966 L312.9326484379169,130.45341306346032 L314.88536269779064,130.1479378491014 L317.0396846246127,130.27850386814205 L326.9610859261076,133.49584765808348 L330.58080758069383,136.14781595048143 L333.3929465236743,139.29741322110934 L336.16015575802135,141.4000188296202 L339.1808146308167,141.3753837316879 L340.3547472743634,143.58022499661715 L343.79820622584555,147.2951977647885 L345.5043831101365,148.02562841847748 L349.3522094393288,150.18119948754213 L350.4074815703278,151.01140228785658 L353.5099355537132,156.6836335867387 L355.9914379228989,159.60289269170084 L357.543240936499,161.85823590739096 L361.6698618679829,165.9057824976465 L366.1374877675657,168.525725162733 L375.53816526642663,172.00912801034193 L380.471216865708,172.30844445021756 L382.30181448160175,172.97112858459292 L388.0724019315767,173.89987177663573 L394.43283581285306,175.62556038678457 L397.06986409654104,176.6861013527643 L402.251757159026,179.80490475097696 L404.4855701088163,181.29779168566668 L408.0845549748029,183.15527806975234 L410.5660573439876,185.34410652102554 L412.14896554048704,187.73371102044626 L412.4588653256833,190.91779742817926 L411.0003778607857,196.88934516693706 L410.38057829039417,200.206461103504 L409.48083207389857,202.75988900417352 L405.9118003470021,207.76943616868033 L404.60883879660884,210.85498218468456 L403.61692907522126,212.61269642214478 L402.9959774610193,215.3656686160648 L402.7782411807151,221.7018158042193 L402.9959774610193,223.69233171713861 L404.23672864561274,230.72442042187654 L405.26089559371115,233.27908007744267 L405.7989000535104,241.11919999435568 L405.6122689561067,243.9719443349012 L404.2632256532685,251.1924915388202 L403.7252211934682,254.99615065954723 L402.9798488476634,258.2245802435582 L402.03978109777796,260.8248148302989 L401.36698751207496,262.95821431122465 L398.9672802534804,266.31967342406955 L396.9823087668937,268.0441302793212 L390.528559336917,272.28998940793105 L385.27523955814064,273.88264848924587 L381.4274132289494,275.20924851289317 L377.6636860979711,277.377137130924 L374.31239065137987,280.561223538657 L370.71340578539434,284.9844553723783 L366.7837843456129,288.6994281405497 L363.5569096306225,290.7786304060246 L361.81962756343114,291.48565771667785 L355.324404556251,294.7153190555854 L352.92469729765753,297.6789213368256 L349.9881376230752,300.3321213841205 L347.3822145222866,302.3226372970398 L345.106927995295,305.02018052061237 L344.27976053890114,306.7902123070388 L342.79016789110307,314.22015784338157 L342.2936370085041,321.1647919504602 L342.9560621999062,324.4375647107491 L343.86617681070265,327.6216511184821 L344.610397112696,336.1146011305975 L344.3915087885803,342.41502742675027 L342.8477700816593,342.3817700445418 L337.342152708245,342.41010040716407 L330.72481305708595,343.34992939327606 L326.04636314006643,343.7367004308113 L321.7296549797434,342.7414424743516 L319.3253395459052,341.77451488051395 L316.3784114770209,341.1389293538639 L310.69077118144753,341.0551700208945 L304.25430240863614,340.53044243493935 L303.117235167045,340.22619897547713 L301.12650346140424,338.18148584710707 L300.68757476936247,336.3301582375042 L301.022819518402,333.0130423009376 L302.70365143884857,328.50728288914354 L303.0918902032017,326.6842856421631 L303.06539319554383,322.45443932720934 L301.2555323682518,317.4522826920821 L298.82587197056824,313.08571158360485 L296.24068565838036,311.78621016768284 L290.0115847715734,309.9619811658056 L287.21903057338204,310.0174101361531 L270.9855812306786,308.0552245858557 L266.02257649230927,306.1484680059058 L263.3855482086213,304.1308534852609 L257.1564473218143,298.57563890155666 L254.80397385947617,296.08749401040745 L251.52064899774206,292.9366649848829 L248.31566311516366,290.80942427844013 L246.27308943802188,289.8412649297055 L242.47364894889841,287.13263591206345 L236.19155404677883,284.5619634428416 L232.23658764315212,284.20352276792846 L228.10075036117775,284.81077793195635 L226.16186062703702,284.7836793242311 L218.66551154798088,282.959450322354 L213.08155519540975,281.9925227285163 L211.06547852592365,281.908763395547 L204.62900975311115,283.0974068707741 L200.13143071444043,283.67756342707673 L196.85271402795098,283.86232666156786 L193.53367580807057,283.76009100514943 L183.6860053104878,284.0470898960593 L176.17237557426535,284.11976343495917 L172.04114646753462,285.0324938133459 L168.18871196309965,284.5619634428416 L165.2682809018722,284.7565807165055 L162.0114530477938,284.17519240530663 L159.03802797125377,283.95470827881365 L157.79727678666148,283.2082648114687 L153.48056862633837,279.7815226891039 L152.2651624055914,279.25556334825205 L147.9484542452683,278.03982126529934 L142.82992359239566,277.6247198651424 L136.4452967910843,276.93493712304155 L134.4545650854425,276.4089777821897 L133.60205266520333,275.60710534449765 L131.6631629310637,271.986977703365 L128.79342179752697,268.5873341887258 L127.78538346278233,267.7029341729609 L125.2785361297534,264.69006169585623 L122.97790463891639,261.51213406260655 L122.20142711021117,257.47690502131684 L119.71992474102547,254.90623255209493 L117.73034507919618,253.9109745956351 L114.70507803115615,253.85554562528796 L109.9747861426356,255.5972470490921 L105.8907908321612,256.03944705697495 L102.78833684877577,256.094876027322 L101.08215996448382,257.78114848077905 L99.86790578754832,259.68790506072935 L96.63642289731311,262.23024716732937 L94.7240301708303,264.02737756148093 L93.58581088542877,264.1653341099011 L88.3647483333643,263.03211960502114 L85.54684917132764,263.55684719097667 L84.9258975571268,264.74549066620375 L82.82341760180483,265.8331302399091 L82.35453577067301,268.1007910045654 L80.82116545805181,269.60722724311756 L78.91107681918974,270.38076931818784 L77.35696971796894,270.2563620736301 L73.13242506253789,269.11206177468097 L68.08301703833268,268.8287581484611 L66.46785161512031,269.367035038279 L65.6257075891809,271.90937714487904 L66.34227883970703,273.8370735580712 L65.87454905238562,277.2933777979547 L64.22021413959689,279.7815226891039 L56.20429330171825,285.3798486941894 L52.606460479544154,286.78158576652993 L50.71480454165989,288.9987445804253 L49.98325672159031,291.7381674704826 L47.726402895575376,293.89004327485765 L45.13430432052303,295.29301210209485 L44.00530138560984,295.55291238527946 L39.980060309504196,295.48762937575907 L31.35010012029231,292.6188722215579 L28.360546430396354,290.36845602545395 L26.86634560735358,289.6836003029397 L24.091072066329644,289.4877512743791 L22.343421604838525,288.8386164438662 L24.02540556909547,287.9148002714099 L25.08989405058381,285.81835343738226 L23.88485622413664,282.19453053155985 L23.57726052656325,280.33827590237075 L23.80190906973509,278.96117392796265 L24.44590156015839,271.2060450989153 L25.17399324879682,267.76205840799804 L26.601375530793987,265.2172527916047 L27.749963210495324,264.52870180440084 L30.270635069258404,263.75023270974395 L32.558594078171666,260.3961641262789 L33.31548686208767,258.19501812603954 L35.01705557113384,254.87174341498982 L34.89033075190913,250.33519013078057 L35.47902513939913,248.02195443494998 L37.069997642577604,246.24083685445407 L38.293468170001475,245.34904630930941 L42.179311944960816,243.35113986701052 L47.38770201510364,241.32983008167574 L51.21133542425889,240.27421613528216 L53.563808886597,238.27507793808672 L55.01308000100522,238.00532361572965 L57.40702704054465,236.32151467206558 L61.11430402477606,234.49359040549874 L63.77091705325428,233.4244271552424 L64.65338261258249,233.44659874338137 L66.04044336118875,232.3466416207099 L69.82029910552403,231.62852851598714 L72.13129899066084,230.66283267704614 L75.55517319735381,229.583815387617 L79.54585295912577,228.55160478425907 L81.9397999986652,227.42824431855232 L84.27153667240054,227.2705796917864 L86.70810933295272,226.1484509809759 L88.66197563663687,222.82394451502944 L89.31288038992878,222.17357792962025 L91.89576261449386,221.29780019813165 L95.17332725717293,220.71394837713905 L100.44507973692598,219.0744826097533 L103.46919474115566,217.88337562473288 L108.55316407969457,216.82776167833936 L112.0185118635878,215.70563296752889 L117.79485953261997,215.3681321258581 L119.97913459853208,213.9540775045515 L123.42374559382466,207.77805845295654 L124.24284874354368,205.17289684662956 L125.9651542411905,202.47781713284985 L128.65402449637853,199.82831235024526 L135.45914728875283,195.53811004535788 L136.95795628703925,195.35827383045296 L139.14799157200753,193.23596014359646 L140.42445611474605,191.45114729841058 L141.7470024099285,187.93079180390356 L141.5741958382578,185.52271098103375 L143.07070074892238,183.46691205859418 L145.40243742265986,179.2395292534338 L146.9623047429368,176.08993198280595 L146.89894233332447,174.79289407667716 L147.87587548516655,173.44535421978713 L151.13615947067927,172.06455698068908 L151.90802882413976,170.2292421847424 L153.4517675310608,168.84721319074765 L155.16946485346293,166.4551451815339 L158.88711023199517,160.72871666720098 L161.6278224586843,159.21365814437263 L163.376624963989,158.74189601897166 L164.08513190783717,157.9671221890047 L164.87312987465256,155.52455222903012 L164.98142199289944,153.8776959322645 z"/>
	<path id="usak-ulubey" title="Ulubey" class="district" d="M193.53367580807057,283.76009100514943 L196.85271402795098,283.86232666156786 L200.13143071444043,283.67756342707673 L204.62900975311115,283.0974068707741 L211.06547852592365,281.908763395547 L213.08155519540975,281.9925227285163 L218.66551154798088,282.959450322354 L226.16186062703702,284.7836793242311 L228.10075036117775,284.81077793195635 L232.23658764315212,284.20352276792846 L236.19155404677883,284.5619634428416 L242.47364894889841,287.13263591206345 L246.27308943802188,289.8412649297055 L248.31566311516366,290.80942427844013 L251.52064899774206,292.9366649848829 L254.80397385947617,296.08749401040745 L257.1564473218143,298.57563890155666 L263.3855482086213,304.1308534852609 L266.02257649230927,306.1484680059058 L270.9855812306786,308.0552245858557 L287.21903057338204,310.0174101361531 L290.0115847715734,309.9619811658056 L296.24068565838036,311.78621016768284 L298.82587197056824,313.08571158360485 L301.2555323682518,317.4522826920821 L303.06539319554383,322.45443932720934 L303.0918902032017,326.6842856421631 L302.70365143884857,328.50728288914354 L301.022819518402,333.0130423009376 L300.68757476936247,336.3301582375042 L301.12650346140424,338.18148584710707 L303.117235167045,340.22619897547713 L304.25430240863614,340.53044243493935 L310.69077118144753,341.0551700208945 L316.3784114770209,341.1389293538639 L319.3253395459052,341.77451488051395 L321.7296549797434,342.7414424743516 L326.04636314006643,343.7367004308113 L330.72481305708595,343.34992939327606 L337.342152708245,342.41010040716407 L342.8477700816593,342.3817700445418 L340.98952341429833,344.6457355445085 L338.3294542543879,346.9072375346816 L334.48393201281954,352.14835461975076 L331.63262358026054,353.7594900245146 L328.52440937781785,356.6368694629921 L326.8896592098162,360.16584724177574 L323.10865142167165,363.18118322867326 L320.7688504412572,366.0253052849423 L319.8080459027701,367.94437941385826 L319.1663574999675,371.746806779689 L318.6859552307245,377.26260520670195 L319.00622341022057,382.3337401160391 L319.5188829061755,385.62252568998383 L318.8783465471844,391.27628066541695 L317.11571951614667,400.1153538034797 L315.89800920777793,401.828724864662 L314.1353821767412,406.0437901208566 L313.2068348649659,410.4633266898876 L312.3727551457045,417.1788543861975 L311.9246101031723,418.30960538128386 L308.3348415876762,420.63146336139096 L306.36599871444645,419.67562156162285 L301.1046146289932,418.48820984129196 L297.38236107521516,418.259103430523 L292.76496948018627,418.680363605163 L290.3664142654021,419.5598366013417 L283.6373263645639,421.0909079378262 L277.910516579411,423.3868990651042 L275.15482778317636,424.99433920517856 L267.693040018455,426.54265511021543 L266.23340050974593,427.3987247633585 L263.7254011329045,428.2116829951197 L261.1229341635523,428.58490472879214 L257.8891471856953,429.5124161659386 L255.83850920187558,430.47564849508643 L246.7684682768084,435.3780329835883 L245.10030883828557,436.44226921425803 L243.50127202842907,438.3662703627606 L238.77443627134284,445.84179083027766 L235.47613484006308,450.0309892336429 L234.82523008677225,451.3723703160497 L234.2054305163818,454.04897370637997 L231.68706274524055,457.0815542618303 L229.67329016337624,458.7197882743197 L227.0258934853885,459.94045737685866 L218.8982243978307,462.72299168829727 L216.4846926135021,461.6181075460394 L214.14028345784294,461.53557996796684 L212.76589519115942,462.16747022992695 L212.4053054782724,463.6049281942689 L212.36613598869502,465.8812112432013 L211.71407919159168,467.6783416373533 L208.86161871522233,468.45434722221694 L208.29135702871008,469.22542578749346 L208.77867156082078,470.8045355649459 L210.86847903421898,474.93584148817075 L212.66336329196758,476.373299452513 L215.62872406182856,476.9867133910237 L216.37755253906658,476.583929539833 L216.27847677130904,477.2232103311727 L217.2623221860198,480.75095635505926 L216.73583816432966,485.25425225706 L216.34759939997758,486.88879100485957 L214.7416503272546,489.9127492760337 L213.69444250293367,491.03857325153393 L212.40415343446205,493.64003959317085 L211.3097118138826,499.0092591874874 L210.16688435323846,501.7733171754771 L207.68538198405275,500.76943693474095 L205.9987898445521,499.44037340130035 L200.5173653911707,494.50103626590044 L198.88952748603666,491.3231086326505 L198.18793280505608,488.8140239082589 L198.23401455750104,483.5605892742235 L198.4413824435055,480.8852176387899 L197.75591637588087,476.67754291197525 L197.43334410876193,475.8953785526288 L195.57740152902386,474.8693267237538 L191.26990971919017,474.50719078415113 L187.03038849421247,473.44418630837765 L183.9521274308599,472.37255954832847 L180.7310129349266,469.42620183564054 L180.22987387708292,469.42620183564054 L180.31627716291771,465.8886017725813 L180.11812562740272,462.5283744146329 L180.44876220119858,455.52338431762064 L180.4153529306763,453.01183608343575 L180.0190498596463,451.52510792322926 L179.88656482136435,449.0850014730478 L178.7610180178855,444.8391423444382 L178.95916955340053,440.80637681294183 L178.49604794132486,438.25910768675567 L176.54448572526255,434.21525636118974 L177.34746026162352,431.20607914877525 L176.4269772565262,429.6885571161534 L176.14818265423247,427.27308576390413 L174.91088760107237,425.3244495174694 L174.81065978950343,422.47909570630384 L175.47999724377422,419.14103993649485 L174.68508701409016,417.68756915849656 L172.56763048922366,415.3731017077694 L172.39021574230827,413.8617384496306 L173.037664364168,413.0339991591099 L174.99844293071862,411.7073991354622 L174.6919992769567,410.2058899164967 L173.24157611873704,407.55022635940867 L170.77044214385324,404.5213410686484 L169.8971929350134,402.18347027488545 L171.74161507664024,399.96631146098997 L175.24037213105785,398.1014345475249 L179.861219857519,394.2029302997587 L180.54783796895612,390.99544054898996 L179.65500401532705,386.43178865705556 L178.3313056763321,385.4057368281809 L173.76460400899393,378.96735398360806 L170.62182849221645,376.17250212320334 L167.6437952404328,371.18389479193877 L166.81662778403793,370.3709365601772 L166.55165770747624,368.990139321079 L162.11859312222927,366.4083810577876 L161.2246071247877,364.8514428684746 L161.05871281598564,361.91493919495974 L161.42275866030272,360.1104182714282 L162.4158204255029,358.3071291027933 L162.68079050206248,356.1133736319336 L161.78680450462198,353.1768699584191 L161.32368289254524,349.8166426004708 L161.5229864718717,348.11805259804765 L162.51489619326037,346.7027662218444 L165.26136863900567,345.039897111423 L171.415586678088,343.05923523767655 L176.80945580182316,339.8394279379418 L177.9338505614906,339.45019339061355 L180.8462173160401,339.45019339061355 L184.45211444489323,338.8133761090671 L188.05916361755567,337.08029696953884 L189.97846860690714,335.48886964312067 L190.80563606330307,334.0021414829142 L191.2019391343331,332.1988523142794 L191.0037875988181,330.57047234096274 L188.6213609973899,325.58309676459487 L184.5511902126507,324.09636860438843 L178.69535152065131,323.7083658119568 L175.35327242454844,322.92989671730027 L172.24275413448393,322.5751513070768 L170.58841922169418,320.0291139357873 L170.15870688014078,315.6058821020659 L170.22437337737497,312.3873065572278 L171.48240521913468,309.84003743104154 L173.36830093796283,307.009464678635 L175.02263585075258,305.70134097843675 L177.73569902597558,305.0645236968903 L181.04436885155513,305.0990128339955 L183.29431041470244,304.2860546022339 L184.584599483173,302.79932644202745 L185.74240351336374,302.09229913137403 L187.9923450765111,301.73878547604716 L192.0625158612513,299.96998544451753 L193.91500230955612,298.41304725520445 L195.76979284548273,297.41409403405476 L196.03015474679975,296.438544155941 L196.12347029550216,289.73287049880423 L193.88965734571076,285.5535261346114 L193.53367580807057,283.76009100514943 z"/>
	
</g></g></svg>