<svg xmlns="http://www.w3.org/2000/svg" version="1.2" baseProfile="tiny" width="600" height="600" stroke-linecap="round" stroke-linejoin="round"><rect id="backgroundrect" width="100%" height="100%" x="0" y="0" fill="none" stroke="none" class="" style=""/>































































































































































































































































































































































































































































































































































































































<g class="currentLayer" style=""><title>Layer 1</title><g class="city city-67" id="zonguldak" title="Zonguldak">
	<path id="zonguldak-alapli" title="Alaplı" class="district" d="M2.806913916737109,422.5924686700873 L6.63802319772531,421.69019771560875 L10.069459770585347,420.388229160735 L15.302161014321051,419.49607713284865 L24.810812738160237,413.18861289032515 L27.45659131627741,412.40270959165775 L32.55104960275047,410.3215836891782 L34.98741063174596,408.57438236424395 L39.240092495279825,401.6159338442834 L41.323318049286385,399.9530569076182 L40.52671011733332,399.09969409833553 L41.02493226034164,395.8801889542239 L42.423786738786845,391.9844022161948 L44.27158864279981,390.0483142615379 L48.537957927844246,386.3380411777006 L53.261487091363364,383.2230982750426 L56.92013486131199,379.3559818290248 L61.05510489984857,375.7468980111104 L63.663927439886535,374.0941400010374 L63.11643057943668,371.6166894736932 L64.47422279335017,368.29768155142415 L68.11918314178631,365.3665658151926 L68.97601572838722,364.0797756502073 L72.70173186373756,360.87882187151496 L74.15396728607872,362.97681265164834 L78.01792637869268,366.57240456743983 L80.85532885796749,368.6366655922656 L82.77430535384045,368.7698981257307 L94.17592747267872,366.24016647765984 L103.79544731075748,364.9078411430091 L107.90304250627293,366.8388696343699 L109.87539994603796,368.7698981257307 L112.36103569247402,372.466679307445 L115.22581301477095,374.36397804349826 L123.43963466365068,374.89690817735845 L127.9250026928739,376.29500653485894 L132.05860398925932,378.4250405825347 L133.4643021784603,379.62413338372033 L134.38272816186313,381.58889163038873 L135.0848928853885,384.81851570109256 L136.40983528767433,387.580982660786 L138.92284587713152,397.6020929626776 L139.84127186053436,399.6663539875033 L141.19222036369013,400.86544678868904 L142.7320552837032,400.93121981153894 L146.24561638562955,398.3340286528527 L147.5691900457642,398.1350230965379 L153.97216582870922,399.49939169873085 L155.83776138068814,400.59898172175895 L160.59277161368283,404.69377401610325 L161.75483369998423,407.22350566417396 L164.32122523333643,410.8190975799654 L165.4299063757448,415.0150791402323 L166.78085487890155,417.3458052319883 L168.9420987355219,417.6443135664607 L173.02231908801429,416.2799449642678 L177.18329522742184,414.2494136947496 L178.237226683785,414.5816517845296 L181.23614073689208,412.18515266992364 L183.1551172327631,412.11769315930843 L186.2621619158094,409.42099922246484 L187.88412136488876,409.3872694671571 L189.1803201819984,410.5526325130353 L193.82856852720602,410.65382177895816 L196.71935195037486,411.55271975790606 L198.07030045353065,414.1482244288268 L198.3946923433473,415.7132850750999 L199.82639663342016,416.47895052058266 L200.82694714588933,420.37473725861184 L201.12396419268194,422.8049661285253 L202.44753785281753,423.97032917440345 L206.8795249381477,424.2030644860259 L209.90581383427593,423.3378962623857 L213.62058003241896,424.336297019491 L218.12374170960814,431.9271784514691 L220.17685493628932,436.09954918302054 L221.51000979148205,438.00865333343154 L226.48265002650436,441.7830129523533 L229.50893892263355,443.1136517992386 L237.21906345989936,444.5336744976891 L241.39783324727188,443.33626818426893 L244.45970943933008,443.2907330146035 L246.92344531134773,443.815230709637 L246.92344531134773,445.22850745702596 L248.6877539441432,449.0332238557246 L251.46766925306957,459.19768561767347 L253.93824883584392,466.3720045716025 L257.0261311287731,473.0572420735712 L257.51066585026985,475.72020625510726 L257.81726409212155,482.31774639327625 L250.55882446472577,481.0731184224253 L240.12764053103126,480.4221341449884 L227.00414078608134,480.1253122982814 L215.94881043147623,478.34944068133564 L208.83408872994775,477.934564691052 L203.01830332983508,477.81482405970996 L188.69304797620026,477.81482405970996 L183.02098050195391,478.22970004999365 L178.55066863639243,478.11164590641704 L162.92784572349584,478.7036031120656 L150.28614321573943,479.83017693933976 L138.12350046087712,481.4289673409205 L135.14374879788716,482.31774639327625 L132.83604953109622,483.97556386664536 L128.75035420999924,488.06192372216253 L126.4426549432093,489.36557876480174 L121.97234307764779,489.6607141237434 L117.35831328621711,488.77362155915307 L113.94467036132207,486.0482573302981 L110.91701272304076,482.79164945534814 L109.37854654518176,480.4811612167768 L106.97503532781394,475.15017339040855 L103.7543850462248,470.1160074107475 L100.8225393585233,467.74649210038774 L97.5060771263563,465.61477156494675 L92.41025009773207,462.83038026430324 L87.79485156415313,460.9954815755692 L85.15181047033731,460.93476801601537 L78.42170531327334,460.2247566667903 L72.02831072538737,459.1588963990696 L61.549220816404414,456.3745050984264 L58.08904065836822,454.5396064096922 L56.74219838166589,453.2949784388412 L55.637623465711,451.93229632441376 L52.560691109991055,449.97765700433763 L51.022224932130115,448.2608124591801 L50.15717989262228,445.9503242206088 L48.09037924442859,443.6415224698028 L44.580924368953774,441.15395301586625 L41.36027408736656,440.2061468917224 L36.40953372676077,439.4944490547318 L28.04515044125995,439.31736783936685 L18.431105571784833,440.08640626038033 L16.36430492359019,439.8502979732271 L13.769169805065701,438.54664293058795 L9.105865296196377,434.6373642904357 L5.020169975098426,428.06343498098204 L3.518659835318637,425.01763807670466 L2.806913916737109,422.5924686700873 z"/>
	<path id="zonguldak-caycuma" title="Çaycuma" class="district" d="M444.1386581556429,278.36234848697256 L441.8241151780962,278.26621868434586 L439.1085307502721,270.7006345688485 L438.73349540086565,268.4879626206691 L436.9377056985936,264.52640285979015 L432.30177603274643,259.0723014265493 L427.58235309567976,254.13089227398393 L425.11861722366217,250.5808355278579 L422.3619705313035,244.81810683355235 L420.3991942865965,241.42152047407575 L418.0189516857974,239.05369165148142 L416.4736417971797,238.12780986828744 L410.70986859880895,235.9674190408349 L406.6583918314908,233.59959021824056 L404.1946559594732,231.64495089816444 L402.9833191557302,229.22652744260867 L404.57106005103077,223.51439338126454 L404.57106005103077,221.50747294046158 L402.39886625720214,212.85579070405907 L399.76814384274763,212.93336914126655 L395.52778065857416,213.77998599948762 L394.12618869582667,211.62128165980047 L389.4574092183508,211.08666503817489 L394.6695793298202,209.07974459737193 L398.904467545389,207.87559233289016 L401.3969470025809,204.98832527855856 L398.14344690936696,204.12990300597988 L395.2129699638156,201.4551334100862 L395.2129699638156,199.58144550274835 L395.32110059375384,190.61776302975042 L396.84177312365074,187.67484187916125 L396.08075248762674,185.26653735019775 L392.17299364617486,185.4014563714282 L390.1089304822854,182.8582328212342 L388.91538732650747,175.50008670087865 L389.4574092183508,171.21978075234276 L390.6523211162799,168.67824368991415 L394.5614486998829,168.1419405805231 L399.55598880932365,168.008708047058 L405.09255081060775,166.53809071564615 L410.1664779648145,166.497615009277 L412.6726448435188,165.36598171870656 L415.5962780783124,163.15330977052724 L419.8147413880684,156.7210454333656 L423.36388978592475,149.25833707155647 L425.03512395244474,144.37089552748344 L427.1648867395876,138.9167940942425 L427.41536655324387,137.63000392925716 L427.1224557329028,133.10178427921022 L425.6606391155055,130.01382518079836 L423.53087632836167,127.80115323261899 L421.5681000836537,123.17005782888381 L418.8538843979798,117.81714566156583 L417.38248658552544,115.7393927346169 L419.66007352498997,113.84883994962519 L420.55386214967206,113.55201810291823 L423.43095815133034,110.67655646294432 L427.7849269340457,105.77393652898289 L435.13096605911335,98.06837392895886 L439.75594578775133,95.63814505904546 L444.82987294195806,93.69025169003083 L447.633056867454,93.1286512641591 L450.55942758655095,92.0240017778348 L456.4751311636978,90.93115770586817 L465.4431297378429,89.53305934836763 L469.0100717836652,94.27377645685253 L474.59317101808756,98.22859026667007 L478.0232388487983,101.15464653960541 L483.82670556955156,105.21739556640725 L485.9373059665803,108.63084680353761 L489.93950801645883,110.04075057539583 L493.4571753448396,109.82319365366175 L495.5239759930323,111.8284276066993 L499.3920413121007,113.61610463800272 L503.3066438643083,119.46653069610804 L504.0101773299848,121.03833729344277 L503.8774093413249,123.85477186162836 L502.38274291230084,131.00716647460752 L502.7783093939755,132.95674633138745 L504.7575105444964,134.7983909711831 L505.5924432566808,137.50857681014978 L505.5486435078449,139.89158402263254 L504.7137107956604,142.92557551255226 L504.84511004216733,145.25461511654294 L506.42737596886514,148.3982283112123 L509.33047807139246,150.0223160292738 L510.7813447515805,150.1319377340236 L514.561810572978,148.7220339621654 L518.8268111158712,144.17188997116855 L521.2453784969017,142.70801859081814 L522.7852134169129,141.24583369823316 L523.2683793962585,136.85759253271283 L523.0480119099276,134.58252053721446 L521.2453784969017,130.9531988661154 L521.2015787480668,127.75561806295367 L523.8405136154272,123.15150646346464 L525.3351800444522,121.6336674746221 L530.1271463155261,118.22021623749175 L533.6448136439088,116.59612851943024 L537.2500804699624,115.7832414165168 L539.757616090816,115.94514424199338 L541.0319150335101,116.81199895339896 L541.7354484991866,119.52049830460024 L539.0978823739754,122.82601432474621 L538.7023158923017,124.50575613906533 L540.0642143326677,127.21425549026654 L544.241615377889,131.49456143880252 L545.3407153252393,133.87756865128532 L544.505782613055,136.37019756851782 L542.0434154831885,139.18663213670348 L538.3943489082989,142.0047531926544 L538.3053806684768,144.6592849353635 L543.1863151793757,155.3870336109496 L545.6048825604062,158.69086314333015 L547.3637162245961,161.9963791634762 L548.1110494391086,164.32541876746683 L548.5504156696173,167.52131308286306 L546.9243499940854,171.47612689268055 L546.4398152725896,173.48136084571811 L547.0995489894292,177.00274729983278 L555.0587845981983,182.85485984570343 L557.0817854975569,185.29183466667848 L561.1702183029553,187.56690666217693 L565.7650857042698,188.90429146012377 L570.7486758765024,189.9144976315867 L572.3309418031982,190.92639029081502 L573.4450979142093,192.58758073971495 L574.1486313798868,195.47822076957726 L573.327386089214,203.13487522440528 L571.4522093421779,208.1909655450163 L569.7522315904856,214.76489485446993 L569.7522315904856,217.94223780444702 L570.9238748718451,224.0102207842864 L574.5003981127246,229.2113490527202 L579.014509727122,232.9688437939882 L580.3038648334788,234.4849962950654 L580.8910552163102,237.80737719286518 L580.4804325709738,242.5750781055961 L579.8932421881404,244.7978689803678 L571.5384400976986,244.26662533427285 L565.8882724978707,242.8921378054877 L561.8367957305517,241.6559422734637 L554.7357614505337,242.48063479073485 L551.0196265102405,242.20573728497777 L546.0757298603924,243.12150014157947 L543.4737510311102,244.44876601293396 L540.2763693660906,250.35821914282766 L538.2314685923154,252.41910719212274 L534.8123506988148,254.15956256599546 L531.3918640631621,259.1060311818568 L527.3773433339251,260.205621204885 L525.1093375895167,259.97625886879325 L518.8281798580224,257.8698356498329 L512.359504451823,257.365575807984 L508.9034305202422,258.78559850643455 L507.1185907551803,261.8533197516618 L504.62748004013963,264.9682626543198 L502.2116501434115,266.617647688862 L496.37533361103056,266.7997883675232 L495.5376634145448,266.38322588947415 L490.6252478341694,261.22931927847094 L489.286618010373,260.4822051984074 L482.99314159951837,259.5293396109673 L478.8321654601108,258.601771340008 L476.2178679514683,256.20527222540227 L474.02377428322114,252.27912870759613 L470.0133597804376,249.49979687024893 L466.7557534607683,248.93482346884645 L461.6612951742953,250.47795977416962 L461.82828171673214,253.5659188725815 L461.28489108273766,255.93206120741044 L459.82307446534037,257.52747863346053 L459.4056081092472,261.0792218673522 L460.78393145542606,262.3137309116108 L460.36646509933485,266.17241491880156 L461.3724905804096,267.61267547043667 L456.2314950607973,270.0833800467192 L451.930907221974,272.75983613037823 L447.08556000700514,276.30989287650436 L445.6237433896088,278.0604671769695 L444.1386581556429,278.36234848697256 z"/>
	<path id="zonguldak-devrek" title="Devrek" class="district" d="M441.8241151780962,278.26621868434586 L444.1386581556429,278.36234848697256 L446.4970008820245,280.89713959833955 L448.08611051947526,281.9208376719257 L450.5046779005057,282.36607044198615 L454.4411803271318,282.36607044198615 L460.47185824497075,278.5832783842374 L464.0456440015469,279.16174368776296 L464.69579652333135,279.78574416095375 L464.44257922537275,282.49930297545126 L466.2493188648531,284.63439648642304 L468.81297291390393,288.3716533745065 L470.40071380920443,289.1288863811624 L471.8091494827077,290.86428229173896 L474.6260208297162,296.3369350903991 L475.09549938754935,298.1600283647756 L477.515435510732,301.0978900520685 L478.27371866245267,305.3242283921124 L477.80424010461763,309.68379926562125 L476.7927396549402,314.4886029091906 L476.35884839303424,318.44847618230426 L476.68460902500203,322.364500773518 L478.4174365883209,327.16930441708735 L481.34243856526666,333.88827167436375 L483.1847655006751,337.18029579238663 L491.63401079954645,347.68036861964634 L495.89490511598626,351.59639321086007 L498.64744558189057,353.3233566826098 L498.1752295397541,362.36799056834593 L497.7030134976177,364.6936571968058 L497.12677305199554,371.9286897102885 L497.7030134976177,376.83805559531146 L499.014268478393,384.6532399000852 L501.3205990030317,390.85445541338987 L502.1596379416686,395.95776739143145 L502.2650310873046,405.19634737018634 L501.26858680128987,407.7800466267496 L499.801295215286,410.23388632537836 L492.6701486079446,419.60063937430215 L488.00410661477395,425.02775700329704 L484.43990205325304,427.8054023528789 L477.3101241880628,431.68095123772343 L475.6840585125319,434.6525426803241 L473.7445508843926,439.04415682137534 L472.9575241474976,444.5994475205389 L473.3257157861502,448.54076942823343 L475.3692478177752,454.80607147662226 L477.4675295354425,458.03569554732627 L484.6493196023747,464.7546628046025 L486.74623257789176,467.0803294330624 L489.7341966937896,472.37758750412286 L491.88449061320273,479.2247278315682 L493.2997699974618,486.9758256012574 L495.23927762559913,494.2108581147402 L494.0785842814498,495.5246320839716 L491.5792611135013,497.0053683419759 L487.1568552232292,496.4134111363272 L477.97533287350893,497.06439541376415 L471.29313369173536,497.1234224855526 L465.52525426691113,496.5904923516923 L460.2857093124187,495.34755086860685 L450.719570418233,493.51096569210733 L447.6919127799517,492.2680242090217 L442.01847656355613,489.1868110616714 L440.62509705371264,488.0028966503743 L434.1837964905382,487.35191237293725 L420.7249549185624,484.2723857133523 L417.07041337507013,482.1980057619342 L413.56232724174646,480.8370101352721 L407.6493611489028,481.3699402691322 L399.38215855613197,484.2723857133523 L394.5751361213935,485.15947827794264 L389.238410474172,485.6333813400144 L380.97120788140114,487.58802066009065 L376.35580934781933,490.7872879510177 L372.5110126453186,492.44510542438667 L363.9550054586611,494.6965665911699 L359.7721294448361,495.34755086860685 L357.36861822746636,496.3543840645389 L349.9185546989139,498.3090233846151 L347.17833291236906,499.78975964261934 L343.1884495418509,500.14560856111456 L334.22318845200715,500.3513600684909 L333.33350605377757,498.96000766205196 L331.6034159747619,499.25682950875904 L330.11285577219036,498.4270775281917 L328.863194188218,499.1978024369707 L326.0750664263838,497.7170661789665 L323.52783728314677,498.54513167176833 L320.21137505097977,497.47927140404784 L317.1823486705502,497.3612172604712 L316.19685432174083,498.9009805902638 L313.7700744878044,498.66487230311037 L311.6553678643223,496.828287126611 L301.367901856495,495.5836591557601 L287.8597855670796,492.68121371154 L285.7450789435975,491.0233962381709 L283.08287545966647,489.80069260826997 L279.3037783804221,488.5948538560228 L268.82468847143724,485.9302031867214 L257.81726409212155,482.31774639327625 L257.51066585026985,475.72020625510726 L257.0261311287731,473.0572420735712 L253.93824883584392,466.3720045716025 L251.46766925306957,459.19768561767347 L248.6877539441432,449.0332238557246 L246.92344531134773,445.22850745702596 L246.92344531134773,443.815230709637 L247.45314852383257,439.6310545637276 L249.17365740779115,436.91412277369955 L252.52570693588717,434.3590938091478 L253.76168109834896,432.0216217663303 L254.5993512948366,427.72782391567137 L255.65738897765135,425.8794333248142 L258.9218390080764,422.61945247433346 L262.23008878733555,417.07428070176206 L266.3773775052335,412.9980397728371 L267.8775189028631,411.2053032782375 L269.8621950219885,406.6939485058445 L274.14088298639234,402.88923210714586 L277.3163647769934,400.66138176907805 L289.93206118387695,388.81211872951377 L293.85898241544396,381.0947507151322 L295.7998587857344,378.53972175058055 L299.6364430353272,376.25621731625534 L300.56308147163503,373.321728604493 L302.01942312042775,370.49517510971515 L307.2685492699782,366.6904587110165 L310.92993452422627,362.071168721639 L314.67891927614914,358.5919444616588 L317.7230018202414,355.331963611178 L321.16401958816147,350.3315273868245 L322.57519274596604,348.8086289346858 L326.8538807103718,345.16750184922915 L330.6028654622918,343.0475867281457 L332.2357748485804,339.89554109464933 L333.161044542738,335.38418632225626 L334.44081845403673,331.0903884715973 L335.63162412551236,328.42742429006125 L335.9847596004994,325.81842771701747 L335.85199161184136,321.8518084928423 L335.1019209130275,315.81755526831057 L334.17665121886796,304.34943846372244 L334.6173861915307,299.73014847434484 L336.43370702606813,296.1025132910112 L343.81122722061133,291.45455300962226 L348.47590047163277,289.1322593566931 L350.79181219132965,287.70549070718107 L354.4312975711602,284.443823368935 L359.0631210105559,282.4470218547244 L362.6026882133532,279.34894382972027 L365.3155351568759,278.328618731665 L366.3749415818437,277.3909315341134 L370.1129763965564,272.13246268165665 L371.00676502123747,270.21661258018423 L374.8433492708303,266.5889773968505 L377.78888238004333,266.91615602333445 L380.1704937229937,269.6870554218547 L383.77576054904733,269.8506447350967 L385.8275050335783,271.2774133846086 L386.4229078693156,272.50011701450967 L386.4229078693156,275.43460572627185 L383.94137834933207,282.812989699812 L384.20691432665103,283.9142662106056 L387.3166964939977,284.443823368935 L389.76400746020244,283.66972548462525 L392.77934641912145,278.7569866240716 L395.1609577620727,277.3808126075211 L401.39284077612837,276.9440122762876 L402.3865475778417,277.55452084735526 L403.4117354490326,279.6744359684387 L407.54670548756826,281.8753025022603 L409.764067772385,283.54661187775264 L411.02057306711407,285.42198627285575 L411.08627269036845,287.17424706108636 L412.2113787385897,289.53870290814996 L413.8661879992948,290.72093083168164 L417.3072057672139,289.9063572410028 L420.77970460460756,286.4001491767766 L425.9083814448585,282.812989699812 L435.667512982353,279.9999281071572 L438.4802781029061,279.79754957531145 L439.372697985437,278.98128949686725 L441.8241151780962,278.26621868434586 z"/>
	<path id="zonguldak-eregli" title="Ereğli" class="district" d="M72.70173186373756,360.87882187151496 L75.31192314592764,357.95276559857956 L77.01737586622448,355.3994231217932 L78.13016323508438,351.8780366676786 L77.97960159846231,348.990769613347 L73.80083181108881,346.60270293756804 L71.75729977946474,338.9021998008402 L72.58538878089337,337.2410093519403 L74.6576643976907,336.95430643182556 L74.86571320466219,334.4532450757662 L73.24649123988415,334.2761638604012 L74.6535581712382,331.20506963964306 L74.02256803957087,330.5776961909216 L76.05104390753225,324.8520702274544 L74.60428345379763,322.993560710005 L74.7945386128022,319.47554723142093 L76.05651887613686,317.9307244383323 L79.94785281177485,316.72488568608526 L82.6894433404699,318.79589266197274 L83.59691938666252,315.25764133020414 L84.34425260117598,314.02313228594556 L84.00480454769762,307.60267336314143 L81.4055632027187,305.5569637037349 L77.76197159643371,300.64928430647734 L75.97576308922073,299.7824295950717 L72.08032292712927,301.64768506358257 L70.32559548939186,301.45879843386 L68.22320754527011,297.3032925799622 L68.28343219991991,293.97753870663155 L69.01844673507105,292.44958079119675 L68.16435163277244,289.04624848065873 L70.38582014404165,286.93139282287154 L71.20295920826105,285.26514291067537 L71.43017040534772,282.8281680897005 L72.75785029193486,281.3541777827578 L75.71159585405387,280.4013121953177 L78.87886519174802,282.47737863450135 L85.10801072150136,281.44187514655755 L87.91256338914752,279.4197763158662 L89.40859856032462,277.021590713495 L91.47129298206292,274.9843134929152 L93.85974803576997,273.334928458373 L96.57259497929172,272.71092798518214 L99.166361355667,273.09713368345433 L101.2536931361251,271.20995387399347 L103.75027881977135,270.481391159349 L106.42753846736409,270.481391159349 L108.5627762231145,271.87780302908425 L111.26467322942702,271.8643111269611 L112.53212846136535,269.81185551649287 L114.43741753572482,264.9075490947662 L116.13876402956919,262.5751365152447 L123.42457849998704,255.48514194958463 L128.394481250708,253.2100699540862 L134.4374778479083,252.3044260240768 L137.1270561748624,251.2183279031717 L142.0244155915732,248.27709324034797 L149.55112868058828,245.45222623333538 L154.7742487292659,245.77940485981927 L160.1670928046837,243.32725164895587 L162.74854050169762,242.68807278587667 L168.23719652769424,240.62212527328538 L173.01273789295524,239.53771364014568 L175.81181559199874,238.55617776069414 L181.10747897468653,239.3150972551154 L182.77186943045072,237.53079319934278 L183.92982529029965,235.13766706026757 L186.60160996928582,234.98251018585262 L189.27339464827588,235.88140816480046 L194.53894570363832,235.02635886775255 L199.83871531277958,232.8457301871154 L203.0128283612295,228.80659198902887 L207.85680683404723,225.7000815251978 L209.97972591043725,223.72520435193704 L211.0418698197064,221.42989450325408 L213.3249317277775,219.6776337150237 L216.0500973506587,220.49220730570246 L218.7848441685989,219.66582830066594 L219.06269882527636,222.1668896567254 L220.4916656310479,226.10483858888915 L221.61266545281472,228.15729419935735 L220.11663028163952,232.43085419683183 L214.06405248938114,241.98480738771292 L213.5206618553867,243.57685183823216 L214.16670815071575,246.0897186086493 L216.41144527855457,246.59229196273276 L217.77060623461728,249.40029409209143 L217.60088220787904,252.70918308776817 L218.82453769098043,258.07221418167853 L220.59295255023034,262.09448750211124 L222.12320627518437,264.4825541778903 L223.07585081236317,270.01254756057324 L223.1429191777687,274.5373942350893 L222.7008154629567,278.89527862083287 L222.3955859632572,285.3056186170445 L223.58502289257973,288.0292963581343 L226.2376451814527,290.6264875168203 L228.65210633603164,291.7581208073908 L233.82047669866603,293.0988785808683 L241.062491420247,296.8260165423595 L242.89934338705166,296.952503124763 L244.803263719261,295.8630320283272 L252.0794969946217,295.61174535128544 L259.6281099580553,295.738231933689 L264.01492855239735,296.952503124763 L269.8635637641387,298.16677431583696 L273.0253581332292,299.5075320893146 L274.79377299247716,303.2785187327056 L274.79377299247716,308.4745875378434 L275.71219897588094,311.1561030847985 L277.03851012031697,312.95727201822496 L280.6766267579954,314.800603145786 L287.17130826506576,316.3926475963052 L292.6325894480393,317.4753727416795 L296.41989898019153,318.02685424095915 L300.1606712792065,317.6912431756485 L302.30275274571073,317.1465076274303 L307.1645248664925,314.29802979170256 L311.8237231489093,311.1982652789329 L316.5842083505096,306.96518098782764 L319.9157267463373,303.2785187327056 L322.432843562249,301.3930254110102 L324.847304716828,300.3035543145743 L329.33541023035446,299.424894188811 L332.25904346515,299.34056980054186 L334.6173861915307,299.73014847434484 L334.17665121886796,304.34943846372244 L335.1019209130275,315.81755526831057 L335.85199161184136,321.8518084928423 L335.9847596004994,325.81842771701747 L335.63162412551236,328.42742429006125 L334.44081845403673,331.0903884715973 L333.161044542738,335.38418632225626 L332.2357748485804,339.89554109464933 L330.6028654622918,343.0475867281457 L326.8538807103718,345.16750184922915 L322.57519274596604,348.8086289346858 L321.16401958816147,350.3315273868245 L317.7230018202414,355.331963611178 L314.67891927614914,358.5919444616588 L310.92993452422627,362.071168721639 L307.2685492699782,366.6904587110165 L302.01942312042775,370.49517510971515 L300.56308147163503,373.321728604493 L299.6364430353272,376.25621731625534 L295.7998587857344,378.53972175058055 L293.85898241544396,381.0947507151322 L289.93206118387695,388.81211872951377 L277.3163647769934,400.66138176907805 L274.14088298639234,402.88923210714586 L269.8621950219885,406.6939485058445 L267.8775189028631,411.2053032782375 L266.3773775052335,412.9980397728371 L262.23008878733555,417.07428070176206 L258.9218390080764,422.61945247433346 L255.65738897765135,425.8794333248142 L254.5993512948366,427.72782391567137 L253.76168109834896,432.0216217663303 L252.52570693588717,434.3590938091478 L249.17365740779115,436.91412277369955 L247.45314852383257,439.6310545637276 L246.92344531134773,443.815230709637 L244.45970943933008,443.2907330146035 L241.39783324727188,443.33626818426893 L237.21906345989936,444.5336744976891 L229.50893892263355,443.1136517992386 L226.48265002650436,441.7830129523533 L221.51000979148205,438.00865333343154 L220.17685493628932,436.09954918302054 L218.12374170960814,431.9271784514691 L213.62058003241896,424.336297019491 L209.90581383427593,423.3378962623857 L206.8795249381477,424.2030644860259 L202.44753785281753,423.97032917440345 L201.12396419268194,422.8049661285253 L200.82694714588933,420.37473725861184 L199.82639663342016,416.47895052058266 L198.3946923433473,415.7132850750999 L198.07030045353065,414.1482244288268 L196.71935195037486,411.55271975790606 L193.82856852720602,410.65382177895816 L189.1803201819984,410.5526325130353 L187.88412136488876,409.3872694671571 L186.2621619158094,409.42099922246484 L183.1551172327631,412.11769315930843 L181.23614073689208,412.18515266992364 L178.237226683785,414.5816517845296 L177.18329522742184,414.2494136947496 L173.02231908801429,416.2799449642678 L168.9420987355219,417.6443135664607 L166.78085487890155,417.3458052319883 L165.4299063757448,415.0150791402323 L164.32122523333643,410.8190975799654 L161.75483369998423,407.22350566417396 L160.59277161368283,404.69377401610325 L155.83776138068814,400.59898172175895 L153.97216582870922,399.49939169873085 L147.5691900457642,398.1350230965379 L146.24561638562955,398.3340286528527 L142.7320552837032,400.93121981153894 L141.19222036369013,400.86544678868904 L139.84127186053436,399.6663539875033 L138.92284587713152,397.6020929626776 L136.40983528767433,387.580982660786 L135.0848928853885,384.81851570109256 L134.38272816186313,381.58889163038873 L133.4643021784603,379.62413338372033 L132.05860398925932,378.4250405825347 L127.9250026928739,376.29500653485894 L123.43963466365068,374.89690817735845 L115.22581301477095,374.36397804349826 L112.36103569247402,372.466679307445 L109.87539994603796,368.7698981257307 L107.90304250627293,366.8388696343699 L103.79544731075748,364.9078411430091 L94.17592747267872,366.24016647765984 L82.77430535384045,368.7698981257307 L80.85532885796749,368.6366655922656 L78.01792637869268,366.57240456743983 L74.15396728607872,362.97681265164834 L72.70173186373756,360.87882187151496 z"/>
	<path id="zonguldak-gokcebey" title="Gökçebey" class="district" d="M444.1386581556429,278.36234848697256 L445.6237433896088,278.0604671769695 L447.08556000700514,276.30989287650436 L451.930907221974,272.75983613037823 L456.2314950607973,270.0833800467192 L461.3724905804096,267.61267547043667 L460.36646509933485,266.17241491880156 L460.78393145542606,262.3137309116108 L459.4056081092472,261.0792218673522 L459.82307446534037,257.52747863346053 L461.28489108273766,255.93206120741044 L461.82828171673214,253.5659188725815 L461.6612951742953,250.47795977416962 L466.7557534607683,248.93482346884645 L470.0133597804376,249.49979687024893 L474.02377428322114,252.27912870759613 L476.2178679514683,256.20527222540227 L478.8321654601108,258.601771340008 L482.99314159951837,259.5293396109673 L489.286618010373,260.4822051984074 L490.6252478341694,261.22931927847094 L495.5376634145448,266.38322588947415 L496.37533361103056,266.7997883675232 L502.2116501434115,266.617647688862 L504.62748004013963,264.9682626543198 L507.1185907551803,261.8533197516618 L508.9034305202422,258.78559850643455 L512.359504451823,257.365575807984 L518.8281798580224,257.8698356498329 L525.1093375895167,259.97625886879325 L527.3773433339251,260.205621204885 L531.3918640631621,259.1060311818568 L534.8123506988148,254.15956256599546 L538.2314685923154,252.41910719212274 L540.2763693660906,250.35821914282766 L543.4737510311102,244.44876601293396 L546.0757298603924,243.12150014157947 L551.0196265102405,242.20573728497777 L554.7357614505337,242.48063479073485 L561.8367957305517,241.6559422734637 L565.8882724978707,242.8921378054877 L571.5384400976986,244.26662533427285 L579.8932421881404,244.7978689803678 L577.7251546207663,252.25551787888082 L574.7933089330647,258.68440924051174 L574.3251991173798,261.42832483478594 L574.3826862877282,264.10140794291414 L575.2627874908998,267.8589026841821 L576.8450534175947,272.84247403088193 L578.8393107317772,274.070237124079 L591.4440572014535,278.0436022993156 L598.8886457614013,278.2594727332843 L597.3666044893562,281.49246977951907 L592.8579678435614,286.7239548277296 L590.4996251171807,288.08157747886094 L587.7197098082543,290.40555761955545 L583.1590609607176,293.37714906215604 L581.9011869238354,294.6049121553532 L578.545031169287,300.22597587736686 L575.610447997284,303.1317942971176 L570.1573792672165,305.7812665765305 L564.5482739319232,307.4593219030841 L552.8044662753033,310.5607729036191 L545.621307466219,311.982482089835 L533.0398296131125,313.53236434621977 L528.2683944743048,314.6302678814825 L523.2355295846328,317.47199976614877 L517.993247145839,321.9293869300497 L513.5366227017871,327.9366563503355 L510.65268298937497,331.1679669088047 L508.08355397171954,335.6894406077902 L504.20453871544385,340.5347199577286 L500.48156006439285,348.0918716343991 L498.64744558189057,353.3233566826098 L495.89490511598626,351.59639321086007 L491.63401079954645,347.68036861964634 L483.1847655006751,337.18029579238663 L481.34243856526666,333.88827167436375 L478.4174365883209,327.16930441708735 L476.68460902500203,322.364500773518 L476.35884839303424,318.44847618230426 L476.7927396549402,314.4886029091906 L477.80424010461763,309.68379926562125 L478.27371866245267,305.3242283921124 L477.515435510732,301.0978900520685 L475.09549938754935,298.1600283647756 L474.6260208297162,296.3369350903991 L471.8091494827077,290.86428229173896 L470.40071380920443,289.1288863811624 L468.81297291390393,288.3716533745065 L466.2493188648531,284.63439648642304 L464.44257922537275,282.49930297545126 L464.69579652333135,279.78574416095375 L464.0456440015469,279.16174368776296 L460.47185824497075,278.5832783842374 L454.4411803271318,282.36607044198615 L450.5046779005057,282.36607044198615 L448.08611051947526,281.9208376719257 L446.4970008820245,280.89713959833955 L444.1386581556429,278.36234848697256 z"/>
	<path id="zonguldak-kilimli" title="Kilimli" class="district" d="M313.7194310282117,164.4653972519934 L316.4801839470239,163.9156022404793 L318.6017342812608,162.1043143804605 L318.68522755248017,159.00623635545634 L319.4722542893732,157.14435386247612 L322.44516224160935,154.4594653399902 L324.11776515027947,152.3344907556106 L326.24068422666755,150.75762469497977 L331.3666235826181,147.9833523209287 L333.22400668168916,146.1754374364407 L336.2010208603788,144.09768450949176 L342.6135778383809,141.29305535566382 L348.2733266332649,141.23740125940628 L352.55338333982183,140.02650304386302 L357.8175656530341,137.96392850680246 L363.4595207999551,134.6634719499527 L368.6922220436908,132.65149204585362 L370.4661118715453,130.9228420863385 L375.35799631965244,128.29529414787547 L381.14914436104533,126.88539037601733 L387.08537907045854,125.88193015561586 L389.7489512965407,124.85485910649905 L394.16861970250955,121.46333221031864 L396.67068035475944,120.84439120042393 L402.09089927319934,120.13775282672952 L407.3769814608291,118.51366510866802 L413.04494270862295,117.48490757178585 L416.62420343380467,116.08006326322375 L419.66007352498997,113.84883994962519 L417.38248658552544,115.7393927346169 L418.8538843979798,117.81714566156583 L421.5681000836537,123.17005782888381 L423.53087632836167,127.80115323261899 L425.6606391155055,130.01382518079836 L427.1224557329028,133.10178427921022 L427.41536655324387,137.63000392925716 L427.1648867395876,138.9167940942425 L425.03512395244474,144.37089552748344 L423.36388978592475,149.25833707155647 L419.8147413880684,156.7210454333656 L415.5962780783124,163.15330977052724 L412.6726448435188,165.36598171870656 L410.1664779648145,166.497615009277 L405.09255081060775,166.53809071564615 L399.55598880932365,168.008708047058 L394.5614486998829,168.1419405805231 L390.6523211162799,168.67824368991415 L389.4574092183508,171.21978075234276 L388.91538732650747,175.50008670087865 L390.1089304822854,182.8582328212342 L392.17299364617486,185.4014563714282 L396.08075248762674,185.26653735019775 L396.84177312365074,187.67484187916125 L395.32110059375384,190.61776302975042 L395.2129699638156,199.58144550274835 L385.3320203748723,206.27005598024778 L383.0516959511044,206.53820753494333 L382.40017468717076,201.58836594355125 L382.7259353191366,197.84267661664097 L382.0744140552049,190.48453049628532 L379.0344377375632,187.5416093456962 L371.65144257441636,179.648846603715 L366.8745324670042,181.922232111448 L363.1816661432786,180.58484731350117 L359.5996679337946,180.1834632253406 L356.45019224406445,182.8582328212342 L356.66782224609307,188.20945850078692 L355.7986709801298,189.54852978649913 L352.9763246645196,191.019147117911 L347.222132661205,190.61776302975042 L340.6275329771043,191.61110432355957 L339.3080655434221,189.5721406152145 L337.3247581664469,184.55821248873792 L335.58508689237317,182.5006974149736 L332.3849677430523,180.65736628741257 L330.2634174088144,180.05697664293712 L323.1322708014721,179.97096576690265 L320.59188536899273,177.99946156917278 L319.68714680710144,176.3281521936806 L317.1823486705502,168.39828672086094 L315.40845884269567,167.41169137811332 L313.7194310282117,164.4653972519934 z"/>
	<path id="zonguldak-kozlu" title="Kozlu" class="district" d="M218.7848441685989,219.66582830066594 L223.29484955654385,216.67399900488076 L226.29102612534768,215.4715332281644 L231.83169435308622,215.1679654303959 L235.98308929743564,213.90478609412583 L241.15693462867466,210.27040495973068 L243.88210025155678,209.5603936105054 L246.13778731660483,206.85358074706954 L248.69596639704918,205.5010175592343 L254.12166028409365,204.2412111984949 L256.41156590292053,202.5766477740643 L259.74992800950406,198.39753109145116 L264.15454025181214,194.9958852686785 L267.08091097090903,194.27912796839172 L269.5555967801359,192.9299377560872 L272.08776975971114,190.7004009302541 L273.6207609689665,187.63605266055745 L275.03604035322553,188.56193444375145 L276.95364810694736,187.86878797218003 L278.17456610574743,188.42532893475564 L278.7480690670663,190.29901684209352 L279.92108109057693,191.88600182931663 L281.71960827714935,193.11545141027904 L284.14501936893754,192.69045649340313 L285.1880008880915,193.49322466972433 L285.9380715869063,195.50183159829265 L287.58466839470543,196.28604840919462 L291.74290704981166,195.58278301103087 L294.3024548724071,197.06857873233128 L295.89703947846436,198.86974766575767 L297.22335062290034,198.09396329368263 L298.6577923972746,198.79048274078485 L301.3542144349835,202.46028011825302 L301.50614481375766,204.52285465531347 L302.614825956167,205.00350366844697 L303.2663472200997,207.25496483523006 L301.810005571308,208.16566822853562 L300.96959789051897,210.42893480967643 L299.04925265249585,211.64657897628112 L299.09305240133085,216.09384721358987 L298.2375885568801,217.31317786796004 L292.44096554688264,217.2187345530987 L289.1039721824493,216.62003139638864 L286.4951496424123,216.7633828564459 L283.2772368451264,218.8343898323334 L281.3062481475125,222.9780902718735 L281.2200173919918,227.51305587298194 L282.0316814876066,230.47790136452107 L285.9449152976611,235.08369945177552 L290.16200986526496,238.51232907879427 L296.2939747022893,244.67138239796424 L300.5192817227991,251.14749541702574 L301.49793236085077,253.81383257409254 L302.8379309268002,258.9576202585033 L304.383240815414,260.98983801578686 L310.20723866843554,266.0054526300289 L312.7832113968458,269.5605688394512 L314.12320996279334,272.4815656490905 L313.86588643838223,274.3856103362051 L311.39120062915543,276.5443146758922 L310.7218857172567,278.06889961579634 L307.11525014905385,278.63893248049504 L305.6205837200279,281.4334427077307 L301.80726808700473,284.5450126348579 L297.83928459090504,287.3378363743281 L296.86063395285237,289.5606272490997 L296.3966303636229,294.38566874585376 L295.5726475886487,297.8783849079569 L295.10864399941727,301.81464735235534 L295.2112996607519,308.2266738363323 L294.1751618523537,310.65521621848046 L292.6668080018172,312.41759593330323 L292.6325894480393,317.4753727416795 L287.17130826506576,316.3926475963052 L280.6766267579954,314.800603145786 L277.03851012031697,312.95727201822496 L275.71219897588094,311.1561030847985 L274.79377299247716,308.4745875378434 L274.79377299247716,303.2785187327056 L273.0253581332292,299.5075320893146 L269.8635637641387,298.16677431583696 L264.01492855239735,296.952503124763 L259.6281099580553,295.738231933689 L252.0794969946217,295.61174535128544 L244.803263719261,295.8630320283272 L242.89934338705166,296.952503124763 L241.062491420247,296.8260165423595 L233.82047669866603,293.0988785808683 L228.65210633603164,291.7581208073908 L226.2376451814527,290.6264875168203 L223.58502289257973,288.0292963581343 L222.3955859632572,285.3056186170445 L222.7008154629567,278.89527862083287 L223.1429191777687,274.5373942350893 L223.07585081236317,270.01254756057324 L222.12320627518437,264.4825541778903 L220.59295255023034,262.09448750211124 L218.82453769098043,258.07221418167853 L217.60088220787904,252.70918308776817 L217.77060623461728,249.40029409209143 L216.41144527855457,246.59229196273276 L214.16670815071575,246.0897186086493 L213.5206618553867,243.57685183823216 L214.06405248938114,241.98480738771292 L220.11663028163952,232.43085419683183 L221.61266545281472,228.15729419935735 L220.4916656310479,226.10483858888915 L219.06269882527636,222.1668896567254 L218.7848441685989,219.66582830066594 z"/>
	<path id="zonguldak-merkez" title="Merkez" class="district" d="M273.6207609689665,187.63605266055745 L275.4275006084468,185.35254822623222 L275.3919133125178,183.77230919007053 L280.95174393037246,182.72837326329994 L282.37934199399086,183.46536841677127 L286.1420141674233,184.3254771771154 L290.14558495945306,183.30683856682555 L293.02404970325955,185.0624723305867 L293.6632522878338,182.77728140849595 L293.850769962538,179.68594933455336 L293.143130270407,176.75314711055648 L296.6238415607096,175.0902701738911 L298.475749691177,176.10047634535417 L300.5316004021595,174.70069150008828 L300.1853086379273,173.1356308538151 L302.03584802624255,172.5133168683896 L301.4705575178277,170.49459101322904 L308.8371277751626,168.64451393460658 L309.945808917571,166.8349125623531 L312.1426400701204,165.93601458340527 L313.7194310282117,164.4653972519934 L315.40845884269567,167.41169137811332 L317.1823486705502,168.39828672086094 L319.68714680710144,176.3281521936806 L320.59188536899273,177.99946156917278 L323.1322708014721,179.97096576690265 L330.2634174088144,180.05697664293712 L332.3849677430523,180.65736628741257 L335.58508689237317,182.5006974149736 L337.3247581664469,184.55821248873792 L339.3080655434221,189.5721406152145 L340.6275329771043,191.61110432355957 L347.222132661205,190.61776302975042 L352.9763246645196,191.019147117911 L355.7986709801298,189.54852978649913 L356.66782224609307,188.20945850078692 L356.45019224406445,182.8582328212342 L359.5996679337946,180.1834632253406 L363.1816661432786,180.58484731350117 L366.8745324670042,181.922232111448 L371.65144257441636,179.648846603715 L379.0344377375632,187.5416093456962 L382.0744140552049,190.48453049628532 L382.7259353191366,197.84267661664097 L382.40017468717076,201.58836594355125 L383.0516959511044,206.53820753494333 L385.3320203748723,206.27005598024778 L395.2129699638156,199.58144550274835 L395.2129699638156,201.4551334100862 L398.14344690936696,204.12990300597988 L401.3969470025809,204.98832527855856 L398.904467545389,207.87559233289016 L394.6695793298202,209.07974459737193 L389.4574092183508,211.08666503817489 L394.12618869582667,211.62128165980047 L395.52778065857416,213.77998599948762 L399.76814384274763,212.93336914126655 L402.39886625720214,212.85579070405907 L404.57106005103077,221.50747294046158 L404.57106005103077,223.51439338126454 L402.9833191557302,229.22652744260867 L404.1946559594732,231.64495089816444 L406.6583918314908,233.59959021824056 L410.70986859880895,235.9674190408349 L416.4736417971797,238.12780986828744 L418.0189516857974,239.05369165148142 L420.3991942865965,241.42152047407575 L422.3619705313035,244.81810683355235 L425.11861722366217,250.5808355278579 L427.58235309567976,254.13089227398393 L432.30177603274643,259.0723014265493 L436.9377056985936,264.52640285979015 L438.73349540086565,268.4879626206691 L439.1085307502721,270.7006345688485 L441.8241151780962,278.26621868434586 L439.372697985437,278.98128949686725 L438.4802781029061,279.79754957531145 L435.667512982353,279.9999281071572 L425.9083814448585,282.812989699812 L420.77970460460756,286.4001491767766 L417.3072057672139,289.9063572410028 L413.8661879992948,290.72093083168164 L412.2113787385897,289.53870290814996 L411.08627269036845,287.17424706108636 L411.02057306711407,285.42198627285575 L409.764067772385,283.54661187775264 L407.54670548756826,281.8753025022603 L403.4117354490326,279.6744359684387 L402.3865475778417,277.55452084735526 L401.39284077612837,276.9440122762876 L395.1609577620727,277.3808126075211 L392.77934641912145,278.7569866240716 L389.76400746020244,283.66972548462525 L387.3166964939977,284.443823368935 L384.20691432665103,283.9142662106056 L383.94137834933207,282.812989699812 L386.4229078693156,275.43460572627185 L386.4229078693156,272.50011701450967 L385.8275050335783,271.2774133846086 L383.77576054904733,269.8506447350967 L380.1704937229937,269.6870554218547 L377.78888238004333,266.91615602333445 L374.8433492708303,266.5889773968505 L371.00676502123747,270.21661258018423 L370.1129763965564,272.13246268165665 L366.3749415818437,277.3909315341134 L365.3155351568759,278.328618731665 L362.6026882133532,279.34894382972027 L359.0631210105559,282.4470218547244 L354.4312975711602,284.443823368935 L350.79181219132965,287.70549070718107 L348.47590047163277,289.1322593566931 L343.81122722061133,291.45455300962226 L336.43370702606813,296.1025132910112 L334.6173861915307,299.73014847434484 L332.25904346515,299.34056980054186 L329.33541023035446,299.424894188811 L324.847304716828,300.3035543145743 L322.432843562249,301.3930254110102 L319.9157267463373,303.2785187327056 L316.5842083505096,306.96518098782764 L311.8237231489093,311.1982652789329 L307.1645248664925,314.29802979170256 L302.30275274571073,317.1465076274303 L300.1606712792065,317.6912431756485 L296.41989898019153,318.02685424095915 L292.6325894480393,317.4753727416795 L292.6668080018172,312.41759593330323 L294.1751618523537,310.65521621848046 L295.2112996607519,308.2266738363323 L295.10864399941727,301.81464735235534 L295.5726475886487,297.8783849079569 L296.3966303636229,294.38566874585376 L296.86063395285237,289.5606272490997 L297.83928459090504,287.3378363743281 L301.80726808700473,284.5450126348579 L305.6205837200279,281.4334427077307 L307.11525014905385,278.63893248049504 L310.7218857172567,278.06889961579634 L311.39120062915543,276.5443146758922 L313.86588643838223,274.3856103362051 L314.12320996279334,272.4815656490905 L312.7832113968458,269.5605688394512 L310.20723866843554,266.0054526300289 L304.383240815414,260.98983801578686 L302.8379309268002,258.9576202585033 L301.49793236085077,253.81383257409254 L300.5192817227991,251.14749541702574 L296.2939747022893,244.67138239796424 L290.16200986526496,238.51232907879427 L285.9449152976611,235.08369945177552 L282.0316814876066,230.47790136452107 L281.2200173919918,227.51305587298194 L281.3062481475125,222.9780902718735 L283.2772368451264,218.8343898323334 L286.4951496424123,216.7633828564459 L289.1039721824493,216.62003139638864 L292.44096554688264,217.2187345530987 L298.2375885568801,217.31317786796004 L299.09305240133085,216.09384721358987 L299.04925265249585,211.64657897628112 L300.96959789051897,210.42893480967643 L301.810005571308,208.16566822853562 L303.2663472200997,207.25496483523006 L302.614825956167,205.00350366844697 L301.50614481375766,204.52285465531347 L301.3542144349835,202.46028011825302 L298.6577923972746,198.79048274078485 L297.22335062290034,198.09396329368263 L295.89703947846436,198.86974766575767 L294.3024548724071,197.06857873233128 L291.74290704981166,195.58278301103087 L287.58466839470543,196.28604840919462 L285.9380715869063,195.50183159829265 L285.1880008880915,193.49322466972433 L284.14501936893754,192.69045649340313 L281.71960827714935,193.11545141027904 L279.92108109057693,191.88600182931663 L278.7480690670663,190.29901684209352 L278.17456610574743,188.42532893475564 L276.95364810694736,187.86878797218003 L275.03604035322553,188.56193444375145 L273.6207609689665,187.63605266055745 z"/>
	
</g></g></svg>