<svg xmlns="http://www.w3.org/2000/svg" version="1.2" baseProfile="tiny" width="600" height="600" stroke-linecap="round" stroke-linejoin="round"><rect id="backgroundrect" width="100%" height="100%" x="0" y="0" fill="none" stroke="none" class="" style=""/>































































































































































































































































































































































































































































































































































































































<g class="currentLayer" style=""><title>Layer 1</title><g class="city city-75" id="ardahan" title="Ardahan">
	<path id="ardahan-merkez" title="Merkez" class="district" d="M373.6282971701422,391.30939535993696 L370.87135440014777,392.67978959687684 L364.8362219739313,394.53822868692873 L360.54839976198764,395.36254834736815 L357.70307165041595,396.2032353656864 L353.47303985412157,398.347359247804 L347.483233244097,403.0775256747655 L343.63053886761656,406.7081032405996 L337.3891739777167,414.62692857066907 L329.4310937994731,426.28643914684767 L321.6407191411471,437.06657622244916 L315.0650763568175,447.6264979375002 L311.462807114808,454.7210036071301 L306.68999866958967,452.96374454760144 L302.28206304473326,451.7719033057026 L298.8248364145439,451.2049975464473 L293.24976102269477,451.1484557646844 L288.71264682168555,451.3746228917363 L283.3109426767779,450.4104367185148 L278.16872882958023,447.742557384277 L275.4027208963468,445.3603628421047 L272.11773236769443,440.93373650671276 L269.56815520678765,434.8614467336927 L266.0248095258308,427.0884396829068 L263.86390123878687,417.09988755198697 L262.3080925979314,410.4606920197117 L261.3143240778791,407.2839366496071 L259.4990251393137,404.8437123840464 L256.1290507052982,401.8350944176052 L254.44293034288455,401.09856331306105 L251.85029365659358,400.6447411173317 L247.78796738021566,400.53016961218043 L246.23215873936022,400.75782468085765 L243.85595282539492,402.0627494862824 L237.24404938811034,403.3111325099442 L227.6497072452666,403.7084129239105 L223.45820239273587,402.913852095978 L222.3771816765128,400.9839918079098 L219.30975706559047,394.1751709303454 L217.4513986016408,388.8409002034949 L215.9817090115539,382.42787179827155 L215.50578794151716,378.40001381847117 L213.4751913760304,373.463023505587 L212.6978536283059,372.21464048192524 L210.62306439202945,370.6255188260601 L199.21455645602566,365.00705124876936 L193.81285231111804,362.16954656924247 L177.08762613557076,358.31131393473106 L173.32784968228606,357.6298366703246 L167.45135761274713,357.6298366703246 L164.2536212802687,358.1982303712051 L162.30801062014507,358.99279119913774 L152.5856230465539,362.28411807439375 L149.8196151133215,362.3972016379198 L147.7878854024304,361.6591825917502 L143.63944007528391,359.5031551766298 L142.16975048519703,359.446613394867 L138.3669145065291,360.2977160045625 L135.73121829485385,361.54609902822426 L132.79297226008435,363.4179295929042 L129.33574562989494,366.4265475593454 L124.88475047965426,369.71787443460164 L120.38956265862498,371.760818286196 L117.49437614923977,372.1580987001622 L115.76632940684723,371.87390184972185 L113.30287129670904,370.00058334341645 L111.14196300966512,369.37713580239836 L104.78954987008944,370.51243526253427 L102.36915128533553,373.17882665514674 L100.55385234677013,373.97338748307925 L92.04053092015155,373.97338748307925 L87.24392642143238,372.3842658272142 L81.53967245343048,370.90971567650047 L75.74816628925467,370.00058334341645 L73.06941055219514,369.32059402063544 L67.01954723571475,368.6956585379918 L62.26600226238088,368.97985538843204 L57.77081444135055,371.30699609046667 L54.74644935581355,372.21464048192524 L49.45805975138941,372.81725684018863 L48.66145853178251,367.83414033691895 L47.53737829017305,363.40453811827626 L44.91301353254761,358.5434328282845 L43.64842326073659,353.8683202414604 L43.03879103292965,349.130714106372 L43.22689317013396,343.77858808001736 L44.0699533513413,339.28798025473566 L46.22519591136137,333.56535676367105 L47.958908380776734,329.4437584614741 L52.173076141403925,318.1666488830083 L54.424636060835894,313.8173955121341 L59.24956919467647,305.20370144303024 L69.74476193437263,290.00884156503935 L77.66318202344716,279.9801150102353 L91.10908539736695,265.95328930813787 L101.97934926606843,256.3560658246831 L104.74309090849107,254.07951513790994 L107.13289456731485,251.12743895323175 L108.91306599833067,248.35837958847065 L110.36575840734497,244.8513011775399 L111.06830855834971,242.51374488412793 L112.2399809069619,239.92919028090915 L113.78559123917398,237.59163398749703 L118.14253532081145,231.93150404469677 L124.28078397887015,227.87091134913894 L129.1533092197145,225.5333550557269 L137.68022839119158,222.64228447768758 L139.6009098524069,221.71976066997573 L142.1312235414312,219.68872035138412 L145.87966854066713,215.1981125261025 L147.73349442299735,212.44988434409612 L154.28647429923046,219.43428233345065 L156.26834561230805,221.1692222685993 L157.4502162695636,224.45459737735402 L159.60545882958365,227.42155297828566 L165.410562738617,233.67537162959738 L169.33804471181924,236.96223467997748 L175.8037723918784,240.8874246876293 L184.28536574716043,244.5849596266038 L189.4298458851689,246.36453781051267 L196.41682045145774,247.324260158858 L200.24118619281677,248.14560393604685 L203.33467314805074,248.5101496342555 L212.61626715915685,253.3489357998672 L217.41287165787497,255.6314382531415 L224.22647497722346,257.04647073884166 L228.9188300986961,257.8216883256447 L236.2185527967236,259.55662826079333 L245.84802244711693,260.5148626675135 L260.69109410521264,261.4284588254733 L271.2928025129651,262.38669323219347 L278.24578271710976,262.6143483008708 L283.2270899168192,261.69628831803493 L286.3364409077203,260.34226143897376 L290.4984839797252,261.82722718106504 L303.64297067595516,264.2079337816119 L303.84693684882774,266.2925399987158 L303.35741803393364,276.6158789953374 L301.23277039984464,285.0019179957641 L300.4169057083543,294.9993977764359 L300.36251472892235,299.42751205345314 L301.1783794204126,305.13971995314046 L302.15741705019997,308.13941026982957 L305.746088547352,311.5661398329919 L310.2605398402636,313.2802485853857 L314.82824896720297,313.8516181695171 L324.29114624308414,314.35156655563185 L335.60220367427166,314.8515149417467 L339.4095722345591,315.77999051596 L342.99824373171003,317.7083628624031 L350.28550183028443,327.4201578510092 L353.87530647284177,333.27520814672937 L355.6158178146864,338.4175344039106 L357.0832411139646,343.5583727194668 L358.4430155997811,346.2723782440903 L361.16256457141515,350.1291229369764 L364.80562704800013,358.9124423513691 L365.4039278217583,362.5534355085807 L365.2407548834613,366.7672861915487 L365.34953684232636,372.97944247735086 L365.62149173949047,374.9613807223062 L366.68211583842685,378.3360323285816 L368.7217775671526,383.1019093545515 L373.6282971701422,391.30939535993696 z"/>
	<path id="ardahan-damal" title="Damal" class="district" d="M308.2378752926105,159.54314397181633 L306.29339777789227,162.46843720723837 L303.66676672945704,165.10358182571878 L300.7319201309028,169.5257443362347 L296.0157689559272,174.70675707567506 L290.72284676988454,179.13040752781635 L285.6712845550749,182.7952077510332 L279.607823493736,186.20705789794206 L274.4112186671063,188.7335827777725 L263.72905693560915,192.27190796283543 L253.38343938935253,194.2315270834106 L246.40666313170703,193.6631333825301 L242.1233735013829,192.27190796283543 L239.14093479582482,189.80787663126935 L236.4939071301008,186.90192663697675 L233.27010845330972,182.7952077510332 L231.53752912929872,178.37155729889193 L231.10466758464628,171.23241338050187 L233.6553778909584,160.67993137357752 L233.99192207619785,157.64750634113085 L233.70296999796216,150.00246227012443 L233.17379109389884,144.5684994543761 L231.10466758464628,136.732998855326 L227.76075549494243,130.50893903652116 L225.99191551797537,121.78960111201786 L224.83724035043582,116.9091525808967 L224.65707023106512,115.15635734624405 L225.52279332036898,111.74450719933527 L233.28257305276384,111.365082084873 L234.18455679502165,111.60166480330236 L236.53016778305687,113.44968830197696 L240.1754965504506,115.29771180065148 L252.15624291590194,117.09812116731511 L257.60553916781333,118.33162477472354 L269.1182964810637,119.51602630849558 L274.4236832665584,121.31643567515924 L277.9239694221321,121.78960111201786 L284.8168929198188,121.78960111201786 L291.7823377234176,121.41166393918108 L295.3540120394959,120.84178229667516 L299.79367573568885,120.84178229667516 L310.18688538894924,121.31643567515924 L313.11040053345585,121.88482937603992 L310.2310780597379,133.1321801219988 L309.66110592110005,135.9964677507817 L309.2339101034715,143.78286627619565 L309.2339101034715,147.08312080120396 L309.51946274549414,150.63334951926944 L309.329094317479,155.55397247427493 L308.2378752926105,159.54314397181633 z"/>
	<path id="ardahan-gole" title="Göle" class="district" d="M311.48886945911863,496.106611974388 L303.62370720407284,491.0148757324681 L298.39424116070114,486.67603795297134 L293.4106676701831,484.0914833497527 L285.61915986645164,482.1110330464228 L283.7766654381702,482.22114072669785 L278.3738281478572,484.5319140708539 L276.3636281996571,486.62098411283387 L274.85541166580543,490.4167231990808 L273.7664589317477,497.73144422926134 L273.6826061717889,507.6307198626606 L273.05371047209854,513.6806905113004 L269.8287786499031,538.045734626273 L268.42594463870233,540.6585601203733 L267.1069633874603,541.9500934511699 L258.89732492934036,545.8559402176923 L250.72961285119925,550.0355682432775 L243.9862645469521,552.840338207047 L238.28994259678382,555.9754312116421 L234.1018371804683,558.1195550937597 L230.66727345837535,561.0344327378043 L225.68256682245186,566.094922205592 L217.26329646443543,572.1448928542319 L211.6927536542059,575.3350396989647 L202.72957350186226,579.019183163311 L194.64571418368098,582.5396530488702 L191.42078236148552,584.2998879916495 L187.19075056518903,587.8739237757204 L184.97091871709358,589.5240510382246 L178.56184830727614,593.7051670054351 L171.4003693486415,596.6200446494798 L165.4944154985768,597.6095258303321 L162.56183519083015,597.8847950310204 L157.36862980041457,597.1140412690934 L149.15899134229562,595.2451865876641 L145.59864848026507,593.6501131652976 L142.3737166580696,591.1191244605909 L137.08532705364647,585.0929608779566 L138.05529952019583,578.9611534399229 L138.16068204284676,575.1773178866786 L137.2473668465402,571.3473561430487 L135.73575087647336,566.7793753532492 L134.08475802161036,563.7335588461744 L132.90175421894938,559.043566843097 L132.43263202134295,555.5974940388054 L132.5266830899451,548.8303355267506 L132.19807092253924,540.8326492905384 L132.19807092253924,537.6945804026924 L131.6836229087388,535.2960185026412 L129.7153493405187,530.8054106773596 L126.34197547028808,524.6527720565712 L123.15557059185738,520.7766841225557 L114.90967148078241,513.9470320622366 L110.22524837714235,509.0264091072311 L107.92949578692176,505.9493458260242 L104.32156081788844,500.3517094314881 L100.19804468964719,495.18408816667613 L99.0739644480388,494.32256996560307 L89.32891396635219,491.49250499420293 L80.00539357526716,490.5699811864911 L66.1844190723431,485.4023599216788 L61.452403861700304,483.4948187579905 L55.05013232431216,482.3892781303616 L51.66202756381864,481.5753740612996 L45.93397754231487,479.1306859708628 L43.451255960294304,475.93309941800317 L42.258053848988965,473.92735410704256 L41.399129632115404,470.1673256198038 L40.11074330680353,466.2183285461465 L38.00762543540674,460.526951829214 L35.354932042658874,456.42469676814665 L32.45068037003467,449.5965326494529 L30.34189677161504,443.3828884220254 L30.01441774961353,437.78376408586405 L29.545295552006053,435.0147047211027 L28.51526637900085,431.2011103353518 L28.327164241795487,427.63302631778197 L28.842745401000286,423.14093055087494 L31.93509921082986,420.4968582826425 L34.886942990456824,417.66679331124226 L36.948134481874746,414.89773394648114 L39.14983600349319,411.3906555355504 L41.11810957171227,407.69907236307745 L46.646726001964026,392.6887172466288 L48.192336334176105,386.04356994785223 L49.269957614186126,376.2008360962159 L49.45805975138941,372.81725684018863 L54.74644935581355,372.21464048192524 L57.77081444135055,371.30699609046667 L62.26600226238088,368.97985538843204 L67.01954723571475,368.6956585379918 L73.06941055219514,369.32059402063544 L75.74816628925467,370.00058334341645 L81.53967245343048,370.90971567650047 L87.24392642143238,372.3842658272142 L92.04053092015155,373.97338748307925 L100.55385234677013,373.97338748307925 L102.36915128533553,373.17882665514674 L104.78954987008944,370.51243526253427 L111.14196300966512,369.37713580239836 L113.30287129670904,370.00058334341645 L115.76632940684723,371.87390184972185 L117.49437614923977,372.1580987001622 L120.38956265862498,371.760818286196 L124.88475047965426,369.71787443460164 L129.33574562989494,366.4265475593454 L132.79297226008435,363.4179295929042 L135.73121829485385,361.54609902822426 L138.3669145065291,360.2977160045625 L142.16975048519703,359.446613394867 L143.63944007528391,359.5031551766298 L147.7878854024304,361.6591825917502 L149.8196151133215,362.3972016379198 L152.5856230465539,362.28411807439375 L162.30801062014507,358.99279119913774 L164.2536212802687,358.1982303712051 L167.45135761274713,357.6298366703246 L173.32784968228606,357.6298366703246 L177.08762613557076,358.31131393473106 L193.81285231111804,362.16954656924247 L199.21455645602566,365.00705124876936 L210.62306439202945,370.6255188260601 L212.6978536283059,372.21464048192524 L213.4751913760304,373.463023505587 L215.50578794151716,378.40001381847117 L215.9817090115539,382.42787179827155 L217.4513986016408,388.8409002034949 L219.30975706559047,394.1751709303454 L222.3771816765128,400.9839918079098 L223.45820239273587,402.913852095978 L227.6497072452666,403.7084129239105 L237.24404938811034,403.3111325099442 L243.85595282539492,402.0627494862824 L246.23215873936022,400.75782468085765 L247.78796738021566,400.53016961218043 L251.85029365659358,400.6447411173317 L254.44293034288455,401.09856331306105 L256.1290507052982,401.8350944176052 L259.4990251393137,404.8437123840464 L261.3143240778791,407.2839366496071 L262.3080925979314,410.4606920197117 L263.86390123878687,417.09988755198697 L266.0248095258308,427.0884396829068 L269.56815520678765,434.8614467336927 L272.11773236769443,440.93373650671276 L275.4027208963468,445.3603628421047 L278.16872882958023,447.742557384277 L283.3109426767779,450.4104367185148 L288.71264682168555,451.3746228917363 L293.24976102269477,451.1484557646844 L298.8248364145439,451.2049975464473 L302.28206304473326,451.7719033057026 L306.68999866958967,452.96374454760144 L311.462807114808,454.7210036071301 L310.2900016207894,458.0212581321382 L308.57215318704124,465.3910330024564 L308.4883004270825,468.30591064650116 L309.32682802666926,471.38594981095866 L310.457707140708,474.1356659345903 L312.7194653687823,478.04151270111277 L314.1846223772508,481.8908176858721 L314.6877389370024,485.68655677211916 L314.35119475176293,489.1936351830499 L312.2594083344149,493.82410952111354 L310.6730047676283,495.5709529892648 L311.48886945911863,496.106611974388 z"/>
	<path id="ardahan-hanak" title="Hanak" class="district" d="M225.52279332036898,111.74450719933527 L224.65707023106512,115.15635734624405 L224.83724035043582,116.9091525808967 L225.99191551797537,121.78960111201786 L227.76075549494243,130.50893903652116 L231.10466758464628,136.732998855326 L233.17379109389884,144.5684994543761 L233.70296999796216,150.00246227012443 L233.99192207619785,157.64750634113085 L233.6553778909584,160.67993137357752 L231.10466758464628,171.23241338050187 L231.53752912929872,178.37155729889193 L233.27010845330972,182.7952077510332 L236.4939071301008,186.90192663697675 L239.14093479582482,189.80787663126935 L242.1233735013829,192.27190796283543 L246.40666313170703,193.6631333825301 L253.38343938935253,194.2315270834106 L263.72905693560915,192.27190796283543 L274.4112186671063,188.7335827777725 L279.607823493736,186.20705789794206 L285.6712845550749,182.7952077510332 L290.72284676988454,179.13040752781635 L296.0157689559272,174.70675707567506 L300.7319201309028,169.5257443362347 L303.66676672945704,165.10358182571878 L306.29339777789227,162.46843720723837 L308.2378752926105,159.54314397181633 L325.32910743392506,163.5576104769886 L328.9506401478169,165.47854311530494 L335.93534842329706,170.52117728358843 L342.8849291912255,175.08320630688658 L348.3342254431369,178.34923817451184 L349.1750193335345,180.07822634315903 L349.50476464634477,182.91126719781 L349.0288435763091,186.61029007840975 L347.4934315527404,190.11588054771505 L346.7614196212099,195.97539466831134 L346.9812498297497,199.86487407695483 L347.74952241423625,203.85106969124564 L349.2486737848489,208.8460897275181 L350.52912809232714,214.3202269671507 L353.08890356187726,220.41929968942694 L355.0639760025266,224.59743977338684 L356.6730424774097,227.04807963032482 L357.6611452704371,229.88112048497564 L359.7823934683109,234.73181018359003 L361.57389635337444,240.78326877385535 L362.1959931806355,245.00902298982612 L362.5982597993568,254.662788255044 L362.41582338917635,260.7618609773201 L362.78069620953727,266.8118316259603 L362.70817490362725,269.11814114523986 L360.8792782202033,269.8383048919053 L362.07134718610325,271.6297866088171 L360.5789946879188,274.28725035167747 L356.67417562281406,275.17108767713046 L348.57331912356017,276.4492295332992 L343.02090663980755,277.8255755367404 L339.66113051443546,280.06790356613044 L335.9670764946326,280.98745149059187 L331.4718886736022,279.99648236811424 L330.1087147515716,278.92814028111866 L329.46508816161736,276.6248066450895 L327.72004423815224,275.4552845275708 L319.2633800817774,272.6505145638015 L317.8514809073366,268.9425640334497 L316.5993552349797,266.59459214866024 L314.02258258435705,263.5889500654697 L312.4112498186642,262.33015145043055 L310.16195619004196,261.70670390941234 L307.23050902770177,262.52507180335033 L304.64807065005516,264.10377786783795 L303.64297067595516,264.2079337816119 L290.4984839797252,261.82722718106504 L286.3364409077203,260.34226143897376 L283.2270899168192,261.69628831803493 L278.24578271710976,262.6143483008708 L271.2928025129651,262.38669323219347 L260.69109410521264,261.4284588254733 L245.84802244711693,260.5148626675135 L236.2185527967236,259.55662826079333 L228.9188300986961,257.8216883256447 L224.22647497722346,257.04647073884166 L217.41287165787497,255.6314382531415 L212.61626715915685,253.3489357998672 L203.33467314805074,248.5101496342555 L200.24118619281677,248.14560393604685 L196.41682045145774,247.324260158858 L189.4298458851689,246.36453781051267 L184.28536574716043,244.5849596266038 L175.8037723918784,240.8874246876293 L169.33804471181924,236.96223467997748 L165.410562738617,233.67537162959738 L159.60545882958365,227.42155297828566 L157.4502162695636,224.45459737735402 L156.26834561230805,221.1692222685993 L154.28647429923046,219.43428233345065 L147.73349442299735,212.44988434409612 L151.3606928639141,207.07692713498673 L153.3754253937326,202.09381063171685 L157.9669305741748,188.80500397578894 L158.5765628019828,184.19089699560388 L158.29554274158068,182.2833558319157 L156.70234030236588,179.39228525387637 L151.54879500111838,174.34816314396758 L148.54935911448763,170.5940864232302 L145.12952628265862,165.91897383640617 L138.05529952019583,157.67577723201234 L135.43093476256936,154.2297044277206 L126.99806665969547,144.9404848607116 L126.76917128791561,144.21436934754482 L129.9963694009208,142.5404350190352 L135.384475800971,140.75639301025035 L137.72668735278995,140.571888248708 L145.175985244257,140.81888655851466 L152.81338527292837,143.03294369702334 L157.7799615823759,143.95993132961127 L165.76523725033553,143.39600145360674 L170.74314501382975,141.0763004596989 L173.27572499366386,138.5229926306122 L174.6003719719297,137.55731851576533 L179.87289754068559,137.78943740931877 L181.43323876316055,137.1704536931765 L184.3782836703582,134.6945188286077 L187.14655789440144,135.23612958023213 L189.76865636121818,135.12007013345547 L190.8870708758027,134.34634048827763 L195.36412837035397,129.78431146497957 L199.8695145000277,125.80109173393956 L202.63778872406982,124.91130264198503 L204.28764843352747,122.82223260000517 L205.6417571923211,120.5025316060973 L212.9165506914403,111.68498953432152 L214.83043328022842,109.94409783267147 L217.1284521612588,108.70761834201245 L219.6904939216186,108.47549944845913 L222.429306365135,111.56893008754479 L225.52279332036898,111.74450719933527 z"/>
	<path id="ardahan-cildir" title="Çıldır" class="district" d="M342.430537883883,126.54208666335975 L342.8849291912255,128.11930478622213 L345.2905968857165,128.99867828679913 L345.6373393796004,131.7260752860508 L347.0571705718738,133.2021133783898 L349.8231785051062,138.7655271155429 L349.9999491882638,139.6940026897563 L347.3744512852309,143.25762288244988 L347.5070292975989,144.32298908619472 L354.93026484475325,144.1340204997764 L356.5665268093534,143.11775636966777 L358.60392224726945,140.8635248072749 L361.18636062491703,140.95280130479543 L363.9251730684324,142.08214899842994 L366.1835318602936,143.6340721136614 L368.35350531057657,146.94771811329773 L372.57107250741893,148.1529508298247 L374.56314212914094,147.9595184185301 L375.92744919657696,149.404309736737 L377.29968828184656,149.71528953643357 L380.23680117121273,151.6362221747498 L382.8917608547693,151.99481610645722 L388.0101786484651,155.08675880391758 L392.1552245393974,158.40635657005524 L394.03737905684903,163.01451178373887 L397.05607841536215,166.78644380398046 L402.6198223531625,175.41799317258838 L403.80169301041803,176.42086582806886 L405.8662839380511,177.14995722448637 L407.7745007998143,177.18566782349453 L408.66628623342876,177.7942359482593 L411.58413565091143,178.20044401197768 L413.7847040271256,177.94898187729495 L415.3212491960976,178.37899700701868 L417.24872952974425,181.51855383648996 L418.26742724870076,182.6761724210059 L419.7121876398825,182.65236535500048 L421.539951177901,183.45287794943437 L422.89405993669357,183.4766850154398 L425.5943454364452,184.39623293990104 L426.4408050538657,185.2562631993486 L429.07650126553983,185.39910559538146 L431.8493080712026,184.1804814042265 L433.33146226074257,182.83240629166679 L434.7410951443726,183.3219390864043 L436.23231449715274,184.51526826992844 L438.6141861381419,184.69530920659474 L440.341099735129,184.3248117418847 L440.4328845129214,185.8291207251052 L441.64195065989395,187.39294737333952 L441.51390522914664,188.76631749353 L439.8595129380684,189.7691901490104 L440.65044843065255,194.18540089302505 L437.7133355412874,195.8206487392757 L435.76659173576047,196.13609236384815 L435.68500526661035,197.44845687739965 L434.4045509591342,197.71331048671053 L433.23174546511666,196.88155111814444 L430.8589389873665,198.01387469502953 L429.6872666387533,199.3426065664598 L427.82664188399383,200.01515618111435 L427.86743511856935,201.21741301439056 L426.95072048604663,202.40330248978793 L424.9427868286574,203.11156270345077 L424.51105842941035,204.95214649399853 L422.71842239894136,204.70514818419176 L421.5728123946408,205.69611730666946 L419.61813657127925,205.20063274543068 L414.9416454854738,208.05004095796022 L413.566006963989,208.03218565845617 L412.4475924494045,210.68667351806593 L410.1427746959449,212.06748334638323 L409.50934641463607,211.50057758712802 L405.15693491461604,213.9303862613112 L402.2980090581858,214.86927742690187 L401.03341878637684,216.59082588742234 L401.92973680161185,217.89872657609789 L403.94446933142933,217.6755353322966 L405.6702497830121,218.61442649788734 L408.26515276011287,220.9534707329247 L409.36090436660095,221.57245444906687 L410.4147295931091,221.0933372457069 L411.91274781831737,221.95634338840514 L413.30651666627807,221.60518916482437 L417.18640653247655,219.36286113543426 L418.6039714339412,219.51463118121907 L420.54391636703997,218.38677142921009 L422.92578800802914,216.37209846849717 L426.3172922047378,216.37209846849717 L429.40737972375655,217.8526003857123 L432.5552576584224,218.37040407133125 L434.0079500674368,222.16911904082892 L434.83287992216606,229.09399936516994 L449.63402520028285,256.45278203033024 L451.9898344969604,260.0431851722801 L451.9093811732157,260.8317942337112 L450.4090966571987,262.91342456756456 L448.9303419038728,266.16904084381235 L452.8657558949076,265.4265579727669 L454.1405444753609,266.01280697315156 L456.23686347432954,264.3835108934022 L457.8549951124505,264.40136619290627 L460.7819096931713,263.44015590293554 L464.59947656210215,262.9149125091898 L468.99948016912595,260.00449869002125 L472.8023161477938,258.5745867880677 L476.5779566367447,258.2993175873794 L477.9807906479465,256.93636305856626 L480.30147243707336,256.8738695103019 L483.2510499258916,256.3486261165564 L484.3683312950708,256.6328229669966 L487.4187587249205,254.67766767129746 L493.35304121010654,252.25529870524093 L495.33491252318413,249.92369417833024 L505.9207568952694,248.53544464188636 L506.8873299256036,248.995218604117 L513.9048994178247,248.57859494902124 L514.6051832780197,248.9282612309766 L517.1218992221854,248.33754840571584 L521.3213360925508,250.0948074652446 L528.9326737769105,254.5630961661462 L534.0023663181983,258.05529516082333 L538.2120014972058,259.0789989990586 L542.94175041704,261.2588334801844 L551.5921824376439,264.6691956854678 L556.4703734055131,276.53999397244513 L557.9241989599318,279.79709819031837 L562.9689623023122,295.79991037086984 L563.7496994862519,297.8160712732081 L560.0760420837368,298.57343356050694 L556.5009683314443,299.8203286425435 L556.5338295481841,302.5596291747978 L555.4324122146733,306.3717356189236 L552.6063475749829,309.4874853823893 L551.0063462633378,312.78030019927087 L551.0845332962728,317.00754235686713 L552.168953448712,319.94771500854245 L553.8403429208618,320.42980809515325 L555.2397774958484,322.4162101649846 L557.7519608583947,328.39773549885876 L562.361596365315,331.9167174427922 L562.2550806972587,336.0457554531158 L561.2227852334427,344.995724329547 L565.8278881587424,351.8595990472488 L567.6511191151415,361.2916610102908 L570.7038128358008,363.8538964891294 L570.1950305490243,367.5008414128423 L569.2273243732857,370.9409624506326 L566.9485689641377,372.6595350279024 L564.1927593395487,373.96297189170184 L560.110036445883,374.07754339685323 L555.766690109103,372.48098203286133 L554.4635728935283,370.5407061534156 L550.6811335321471,364.0309615425451 L548.371783197068,359.7709846691914 L540.171209902187,346.54169567827705 L533.4063318352487,337.1393925477421 L524.9779963139923,328.09121952403837 L514.1009335728626,319.49091692956256 L508.51905930858425,316.50015426262553 L506.3558847307306,315.67732254381144 L503.33718537221637,315.3038491958506 L499.5785420643382,316.0522838333976 L495.42103157395275,316.5745513438926 L493.5422764927163,316.5745513438926 L488.1881644548124,319.64119903372205 L486.9926960526983,321.43565663388426 L485.1139409714608,325.02605977583426 L481.2975072479344,331.07454248284876 L473.1989170394902,343.17150789687776 L465.35301825632575,351.7331240090948 L456.932614752905,359.0716521052808 L447.95470371029955,363.13224480083863 L444.3195732515492,363.62475347882673 L433.8198479302324,364.7734444135908 L428.84194016673825,365.13799011179947 L420.98131049331084,370.6656932499444 L417.21813460381316,372.57323441363246 L412.5235131915297,373.8454245032999 L408.2764842141605,374.2367531507648 L406.2651511205572,373.74722035602724 L402.8747800692539,371.8396791923392 L401.0855434749991,371.3992484712379 L394.97562345206285,371.35014639760175 L393.8583420828827,371.69237297143025 L390.0577723950245,375.0194104456946 L384.4328386053619,381.5752812469507 L378.88155926701467,388.2769703274904 L376.422633738495,390.03869321189495 L373.6282971701422,391.30939535993696 L368.7217775671526,383.1019093545515 L366.68211583842685,378.3360323285816 L365.62149173949047,374.9613807223062 L365.34953684232636,372.97944247735086 L365.2407548834613,366.7672861915487 L365.4039278217583,362.5534355085807 L364.80562704800013,358.9124423513691 L361.16256457141515,350.1291229369764 L358.4430155997811,346.2723782440903 L357.0832411139646,343.5583727194668 L355.6158178146864,338.4175344039106 L353.87530647284177,333.27520814672937 L350.28550183028443,327.4201578510092 L342.99824373171003,317.7083628624031 L339.4095722345591,315.77999051596 L335.60220367427166,314.8515149417467 L324.29114624308414,314.35156655563185 L314.82824896720297,313.8516181695171 L310.2605398402636,313.2802485853857 L305.746088547352,311.5661398329919 L302.15741705019997,308.13941026982957 L301.1783794204126,305.13971995314046 L300.36251472892235,299.42751205345314 L300.4169057083543,294.9993977764359 L301.23277039984464,285.0019179957641 L303.35741803393364,276.6158789953374 L303.84693684882774,266.2925399987158 L303.64297067595516,264.2079337816119 L304.64807065005516,264.10377786783795 L307.23050902770177,262.52507180335033 L310.16195619004196,261.70670390941234 L312.4112498186642,262.33015145043055 L314.02258258435705,263.5889500654697 L316.5993552349797,266.59459214866024 L317.8514809073366,268.9425640334497 L319.2633800817774,272.6505145638015 L327.72004423815224,275.4552845275708 L329.46508816161736,276.6248066450895 L330.1087147515716,278.92814028111866 L331.4718886736022,279.99648236811424 L335.9670764946326,280.98745149059187 L339.66113051443546,280.06790356613044 L343.02090663980755,277.8255755367404 L348.57331912356017,276.4492295332992 L356.67417562281406,275.17108767713046 L360.5789946879188,274.28725035167747 L362.07134718610325,271.6297866088171 L360.8792782202033,269.8383048919053 L362.70817490362725,269.11814114523986 L362.78069620953727,266.8118316259603 L362.41582338917635,260.7618609773201 L362.5982597993568,254.662788255044 L362.1959931806355,245.00902298982612 L361.57389635337444,240.78326877385535 L359.7823934683109,234.73181018359003 L357.6611452704371,229.88112048497564 L356.6730424774097,227.04807963032482 L355.0639760025266,224.59743977338684 L353.08890356187726,220.41929968942694 L350.52912809232714,214.3202269671507 L349.2486737848489,208.8460897275181 L347.74952241423625,203.85106969124564 L346.9812498297497,199.86487407695483 L346.7614196212099,195.97539466831134 L347.4934315527404,190.11588054771505 L349.0288435763091,186.61029007840975 L349.50476464634477,182.91126719781 L349.1750193335345,180.07822634315903 L348.3342254431369,178.34923817451184 L342.8849291912255,175.08320630688658 L335.93534842329706,170.52117728358843 L328.9506401478169,165.47854311530494 L325.32910743392506,163.5576104769886 L308.2378752926105,159.54314397181633 L309.329094317479,155.55397247427493 L309.51946274549414,150.63334951926944 L309.2339101034715,147.08312080120396 L309.2339101034715,143.78286627619565 L309.66110592110005,135.9964677507817 L310.2310780597379,133.1321801219988 L313.11040053345585,121.88482937603992 L323.5036101867163,126.38734073432425 L332.16537366137004,128.85137206589022 L335.26905892524627,128.9466003299122 L338.44413234962923,128.37671868740622 L342.430537883883,126.54208666335975 z"/>
	<path id="ardahan-posof" title="Posof" class="district" d="M115.12270281689399,98.94672127977002 L113.16009497569772,96.08987335911375 L113.62355144628029,92.96370800427046 L112.20145396319609,91.94744387416206 L111.36632579982444,90.30326837815925 L112.37142577392342,89.32866661356039 L111.165759063167,88.33472160783202 L111.07284113996818,87.33928866047836 L109.74366158008178,84.29347215340361 L109.54196169802,82.8114822945631 L110.47000778459048,80.29537300611011 L112.01561811680153,79.0157432083161 L114.67511038197867,77.81795019991594 L116.05074890346344,76.70199398090956 L115.20088984982786,74.81379605835075 L114.78389234084474,72.27536764551753 L116.82468721497384,71.03740021323316 L118.09154377759359,70.99573784772363 L119.25188467215699,69.71759599155499 L121.12270773556085,69.61641596103172 L124.92554371422878,68.62098301367806 L127.10571547315612,64.98742956459328 L129.4558590428077,65.2314519911493 L130.25925913484593,63.7494621323089 L131.12498222414976,60.80482565575735 L132.4088359678411,59.87039831504273 L135.06832823301824,59.20082458363885 L137.0468001098817,59.1606501597546 L137.5261206161315,57.33345784383483 L136.98561025802047,55.445259921276076 L135.50118977766962,53.39487636155499 L135.28475900534391,51.365323984588706 L134.24906410531275,49.496469303159394 L134.26379499557564,47.75111377663337 L135.57824366519915,46.593495192117445 L136.05756417144997,44.31992038859517 L139.11932305534737,41.96450879567902 L139.5521845999998,40.097142055875004 L141.76295128485725,37.43819037138918 L141.05133597061246,35.32680120502905 L139.6756974491277,29.7425562851211 L138.48476162863312,28.42424000506824 L139.74255302801384,25.08529899780122 L139.73688730099,23.490225575434742 L146.63321023489078,18.41485669139373 L148.58108718582315,14.861652090077438 L151.39242093524956,11.405163694408381 L158.12557093085337,9.930613543694616 L159.7765637857164,9.930613543694616 L165.85362259191277,9.173251256395519 L171.38450531297326,7.825176143835911 L173.35617831740848,8.520044882870577 L178.31029002740087,6.773201414719262 L183.11935912557317,5.468276609294396 L188.26610555439032,2.9625829122187857 L190.68650413914423,2.184389442164977 L192.32163295833897,2.7944455085551043 L197.3550648466716,1.5951645585295746 L201.31540803661375,3.362839209435696 L203.39926243612814,4.7942390530145484 L204.66611899874687,5.173664167476737 L207.48765105681667,4.731745504750198 L208.2729208223758,5.005526763813132 L210.5981351931232,4.478795428442071 L212.5856722332257,4.5844392838413315 L215.4230683269638,4.078539131225165 L217.08992521749508,4.43713306293254 L219.83213709722452,7.721020230061959 L221.90012746107175,11.720607318980838 L227.83214365544808,10.436513696310774 L231.1556591278652,11.604547872204181 L233.55679424073668,15.541641412858638 L236.58342561708446,16.3228107661631 L237.02648547037927,13.029995949281586 L238.87011304406604,11.257857473499502 L241.2145908866948,10.580844033968972 L241.9443365274176,9.582435203364547 L249.3415097302614,9.563091962235214 L257.13641697020694,10.095775064107528 L259.50129143012447,9.890439119810367 L260.9086580229437,11.362013387273453 L262.33982066926694,11.754829976363643 L261.1692814660591,14.534304932502268 L261.1692814660591,17.69022911985223 L261.68033004364435,18.228863988225992 L261.455967253485,21.54846175436368 L260.16078205574496,23.918752763533202 L259.55114982793594,25.832245693722804 L259.62593742465674,27.156513740277028 L258.8032738607382,28.759026870770214 L256.5743768494027,29.510437391567777 L255.30525399597326,29.330396454901493 L254.32168378456538,32.011667263767414 L254.20950238948518,35.167591451117474 L254.49505503150783,36.65553307645931 L253.46275956769182,38.994577311496705 L251.38683718600998,42.29483183650488 L250.60270056585728,42.52248690518223 L248.24235868756028,44.99395794487504 L248.13017729248008,46.22299772740738 L247.12281102757032,48.655782284841244 L245.1590700409697,51.36829986783947 L244.14150546741655,54.00046860306913 L244.68088268012428,55.323248707997976 L246.9902330152034,58.00898334174004 L247.662188240278,59.37193787055321 L246.19929752262038,62.1365334104383 L246.1709688874979,64.71216036390503 L245.6565208736975,65.93524837993598 L247.0106296324912,67.77136834560788 L249.41969676319525,67.9365298660208 L251.83669591173503,69.84555897133437 L253.57607410817633,70.21308055279385 L256.0961894885573,72.15484437386492 L259.27579549455976,76.80763783630884 L260.4973262409845,77.54714482410368 L263.1976117407361,78.10958675848293 L264.0916634651603,79.32077124151117 L267.15002291284355,80.60635280580651 L269.4888350284495,80.743243435338 L272.47807260643583,78.29706740327595 L273.98515599488314,75.78393399807364 L274.81008584961245,71.4644394597063 L274.98912282357776,68.559977407039 L277.00045591718214,65.93524837993598 L279.948900260595,64.05597810712923 L287.835592278334,61.78389124523226 L292.6061344327405,64.70174477252763 L292.51661594575785,66.69707449211101 L291.8129326493477,71.41980121094602 L291.08658644484007,71.80220220865888 L292.1030178729888,77.08290703699707 L297.6554303567414,79.06335734032709 L299.09679131170697,78.94580995192503 L300.6605319703971,79.7522743128603 L303.95685195309716,80.63313575506268 L305.4979297036897,81.9678193929943 L306.84977217167364,82.36361186533524 L307.52059425134183,83.34714127968621 L306.6820666517561,84.40357983367892 L307.45260552705133,86.19208566733977 L309.4412757125592,86.10429711144464 L312.30133471439376,89.88962060631424 L313.57045756782327,90.86124648766251 L316.22315096057116,91.53230816069161 L319.6747118637367,93.67345615955864 L323.7857633925227,94.17340454567336 L324.7908633666227,94.75965354605803 L326.0316575849298,98.03014923855955 L326.2208928675395,100.36324170709548 L324.67981511694694,102.73948448276634 L324.7240077877366,104.71993478609635 L326.24355577563705,107.03814783837893 L330.0860518434741,109.39951119779644 L332.73421265460246,112.39176180635886 L334.21976628035765,113.3901706369632 L335.16934212962025,116.38242124552565 L333.86282547783037,117.68734605095067 L334.0078680896514,118.72890518868977 L339.44809917832384,121.44291071331328 L341.4481008178795,121.85358260190759 L342.430537883883,126.54208666335975 L338.44413234962923,128.37671868740622 L335.26905892524627,128.9466003299122 L332.16537366137004,128.85137206589022 L323.5036101867163,126.38734073432425 L313.11040053345585,121.88482937603992 L310.18688538894924,121.31643567515924 L299.79367573568885,120.84178229667516 L295.3540120394959,120.84178229667516 L291.7823377234176,121.41166393918108 L284.8168929198188,121.78960111201786 L277.9239694221321,121.78960111201786 L274.4236832665584,121.31643567515924 L269.1182964810637,119.51602630849558 L257.60553916781333,118.33162477472354 L252.15624291590194,117.09812116731511 L240.1754965504506,115.29771180065148 L236.53016778305687,113.44968830197696 L234.18455679502165,111.60166480330236 L233.28257305276384,111.365082084873 L225.52279332036898,111.74450719933527 L222.429306365135,111.56893008754479 L219.6904939216186,108.47549944845913 L217.1284521612588,108.70761834201245 L214.83043328022842,109.94409783267147 L212.9165506914403,111.68498953432152 L205.6417571923211,120.5025316060973 L204.28764843352747,122.82223260000517 L202.63778872406982,124.91130264198503 L199.8695145000277,125.80109173393956 L195.36412837035397,129.78431146497957 L190.8870708758027,134.34634048827763 L189.76865636121818,135.12007013345547 L187.14655789440144,135.23612958023213 L184.3782836703582,134.6945188286077 L181.43323876316055,137.1704536931765 L179.87289754068559,137.78943740931877 L174.6003719719297,137.55731851576533 L173.27572499366386,138.5229926306122 L170.74314501382975,141.0763004596989 L165.76523725033553,143.39600145360674 L157.7799615823759,143.95993132961127 L152.81338527292837,143.03294369702334 L145.175985244257,140.81888655851466 L137.72668735278995,140.571888248708 L135.384475800971,140.75639301025035 L129.9963694009208,142.5404350190352 L126.76917128791561,144.21436934754482 L125.17030312167483,138.66434708501964 L123.81166178126375,129.9286418026378 L124.04622288006641,124.45301662137986 L124.46775297067114,119.96240879609819 L125.12384416007646,116.24850649924493 L124.15160540271839,108.47549944845913 L123.09098130377993,105.03389046904344 L118.20259202726939,100.77986536219115 L115.12270281689399,98.94672127977002 z"/>
	
</g></g></svg>