<svg xmlns="http://www.w3.org/2000/svg" version="1.2" baseProfile="tiny" width="600" height="600" stroke-linecap="round" stroke-linejoin="round"><rect id="backgroundrect" width="100%" height="100%" x="0" y="0" fill="none" stroke="none" class="" style=""/>































































































































































































































































































































































































































































































































































































































<g class="currentLayer" style=""><title>Layer 1</title><g class="city city-76" id="igdir" title="Iğdır">
	<path id="igdir-aralik" title="Aralık" class="district" d="M452.0096287188451,235.16853256276693 L454.754112749466,236.4718342735136 L455.69994136998173,237.65619874840937 L456.0486982359537,238.7979962125796 L455.78271299950563,240.33291254051016 L457.3776943998822,242.32605021919295 L458.66390972158774,242.32605021919295 L460.3732833740039,241.37830824509564 L461.97849497578375,241.43589890666559 L466.16729744068186,244.1376521168403 L467.8785311297162,244.92013393164987 L468.7666986150575,246.25598688589272 L470.7178770278823,248.2228331755981 L471.53071303017396,249.62629255864064 L472.0310628805545,252.31302211797075 L472.47654165068866,253.0304014457883 L475.2545063404434,256.07018679996065 L476.0022410610866,257.79540270525274 L476.4830605269726,260.5259512462121 L477.44748951367376,261.903119240277 L478.93644882679587,262.99108195558824 L480.95551857619523,263.77606771220525 L481.730223827807,265.3698266726095 L482.2240635500233,267.5858151721502 L483.08247044946904,268.4909901355219 L485.69210182524785,267.8161778184301 L488.07201867863944,267.57329546311325 L488.8309136189939,268.07533579549516 L490.00645676189583,271.40307445751733 L491.5168064961315,274.2763476814982 L493.29314146681327,275.81877583485084 L494.88533281226387,277.6804565686459 L495.5391356836718,279.8951930972827 L494.9327637460369,283.9766182433297 L494.19525922679395,285.5553535528894 L494.24920028873123,286.49683567246836 L495.505655024539,288.9544545564223 L497.83535088923156,290.6884342580403 L498.78582960129233,293.00082451716554 L500.19573735812764,294.72729239336155 L502.3784903299568,296.04812169676006 L503.50660253908666,298.1839840584643 L504.90721011282983,298.90511929899276 L506.93558004532133,298.2328109237084 L508.88117834828995,299.11294646900626 L510.38501795435945,300.62783126247757 L511.55870106064435,305.2588716352468 L511.7791153999375,307.80162454065174 L511.4210583508732,309.32026524683437 L509.9358191109882,311.5675530189676 L509.51080074365746,313.75224224591585 L510.53661093876894,316.85462614527285 L512.3045757446685,318.65746424659415 L515.1402015695966,319.1657644334945 L516.2599436139433,318.5898578177945 L517.7935438059104,316.80705125093243 L519.5661587033561,316.4039166199425 L520.7063611505073,317.22270559095944 L521.3573739669872,318.9792207688439 L521.1490498657145,320.17109706916176 L518.3162140957135,322.7151019454708 L518.1571809648298,323.63154464697584 L519.2201918923122,324.415278432689 L520.695200930796,324.26504192424557 L523.2341509150702,324.7295231295166 L525.2783311588202,326.347069537091 L526.8249516071156,327.9721277700876 L528.498984563781,328.30765597227787 L530.5803655399009,329.39561868758904 L532.6310559118149,331.0569840767928 L533.8503099152518,334.23323425946796 L534.6185050386995,335.29240164399414 L536.3641494051766,336.14123791669965 L539.1914050653214,335.29365361489783 L541.2467455287816,335.7218276639617 L542.7357048419047,337.2579959627958 L544.0330803833195,337.4933664926905 L544.3409164436846,335.2460787205574 L545.3909071148366,333.7837767050412 L546.4222974198034,333.3969176957994 L549.1705015236614,334.1155489945206 L550.3618549778207,335.2460787205574 L550.765482924039,337.4971224054018 L548.2349031045479,339.97727676562215 L547.2965146305054,341.54098842433757 L546.9059069406185,342.87183349496576 L547.2118829643634,345.8490203039531 L548.5455292198401,346.90818768847964 L551.9317258838488,346.00050878330035 L553.8968545713109,345.89909914010116 L555.2314308450965,346.2822022366318 L556.3632631274635,347.17360552006295 L556.9342943693485,348.5933405248534 L557.0245061453465,350.0306031222957 L558.3432721078739,353.86789394212184 L559.265850270658,357.0353803284711 L559.3718723579135,358.4763988386244 L561.4932441213322,361.55374331990754 L562.2874797574384,362.03324817602277 L563.7020376058198,362.044515914156 L566.0940446972317,359.62195221550564 L568.4460610013457,359.95372450498473 L569.549062716126,360.74872602883147 L569.5416225696518,361.93309050372727 L568.8636392222022,365.8980823557303 L570.9552503997232,370.32505147119707 L570.9868710222389,374.5116421731543 L572.1856646228734,376.03529076295166 L574.8492370605876,376.2856849436905 L578.527459473704,376.09663733723255 L579.1580118873815,376.61119737865124 L578.6920727144428,378.62311462088974 L576.7706548875146,381.3812065217305 L577.392837136409,382.1974915509401 L580.4386470992298,381.91454612670486 L582.9106357652375,382.4616574116198 L583.325423931166,384.3045585818593 L582.9376062962061,385.1709224472164 L583.540258160605,386.2338457444537 L585.3351934974731,387.0501307736632 L585.6727901437349,387.89395916275373 L584.9706263202448,390.4993106133437 L586.3842541503162,391.4119974021378 L587.9448248732521,391.9303133562676 L589.9992353184032,391.6436120193214 L591.3021909696731,391.8188879458386 L591.8044008566726,392.4248418632272 L591.0045851107103,395.1428706951499 L589.0041157274964,399.0164686711832 L589.5900272623298,399.8778246529255 L590.9645943234134,399.2267997830041 L592.1475776127895,397.862151497976 L593.3668316162265,397.88093106153156 L593.1957082473235,399.58110754874986 L592.2638299014461,401.474087555137 L590.8520621079928,403.6324853931079 L590.7516201305924,404.86192082053674 L592.5000545519976,406.6810345436062 L596.047144383509,406.30419130159373 L596.9604223631999,406.5145224134146 L597.8941607456953,407.96430471989373 L597.8634701414896,409.35649636480304 L596.9604223631999,412.9221094985273 L595.8816011244602,414.2804979290368 L594.220588424126,415.7127526428642 L594.0206344876344,416.7443766675093 L594.5823655464274,420.8921562714519 L592.868341802464,420.1810367981529 L592.5158648632549,417.94877267686405 L592.4461134900613,413.7408984695443 L590.9339037192077,411.6438472058544 L590.3275317815718,410.0713717508129 L588.4237843025201,409.3602522775141 L586.3619337108937,409.03223590074583 L585.8150829450502,406.9777516477817 L585.0385176568204,407.2056103522543 L584.4377258290386,406.21154545472024 L583.4863170986678,405.83845812541915 L582.7609028174471,404.62655029064206 L581.6504609561927,403.969265566202 L579.5467595406503,403.83154876679544 L579.5523396505055,402.74483802238774 L578.6083710666088,401.54294595484055 L576.9482883845837,401.51915850767017 L575.8471467064224,400.32853417825584 L576.1540527484775,398.91631099888764 L574.8278466394751,399.1604453251082 L575.0473309604602,397.3989222636089 L574.693924002942,395.5384935007176 L573.429099102351,394.97260265224725 L573.1603238109749,393.11092191845233 L572.4190992184969,392.47992858298994 L571.3746886571998,389.82074238354096 L569.7815672934403,388.98066990716126 L568.4414109097995,386.7546656403911 L567.2072766134143,387.1352647951144 L565.6020650116334,386.639484317251 L564.0340541422245,384.37967683608105 L562.8566509627044,383.6335021774785 L563.3030597511487,382.30140513594677 L561.8699015365808,380.4923071801069 L558.9887048144997,378.8835245688584 L557.955454472914,376.7075991382358 L558.0921671643741,376.0590782101217 L554.6920202257271,376.63373285491787 L553.3983647575484,377.2684821030915 L553.1360995943384,378.2800745932773 L551.4443962897975,377.1883559652551 L548.5232087804185,376.3232440708015 L547.9521775385334,374.3889490245921 L546.3739364677223,375.5670536449695 L544.5529606181944,375.585833208525 L543.7075739750791,375.9939757231296 L539.7717364902987,375.7611091350424 L538.5831730910675,374.1698541164455 L537.2606870553021,373.8067825543739 L535.4313410409901,370.36761848192265 L534.0028329179704,369.11815152003487 L532.2729988627507,369.24334861040427 L531.1858074592277,366.5353355457112 L529.8800617530297,365.8354838105457 L529.631746864458,363.43420361725794 L528.7035885918178,362.19976030621433 L526.359012434178,360.8914507118528 L524.9026037618796,359.1499591848124 L525.7582206063972,357.2582311493288 L525.9777049273822,354.3398869728151 L525.1332483025759,352.7073169143964 L524.4208542776835,352.89636452085426 L524.003276056827,351.4403223598566 L522.9969962462088,350.7805336936092 L521.916314970852,347.7670397284144 L520.2906429662687,342.26587957757715 L519.3280740161856,340.54441958499604 L518.5794092772335,340.88495567080116 L516.900726229022,342.6251952269378 L512.1213621377443,346.81804578341325 L508.7202851807882,349.9342013627111 L499.85628067524783,357.71520052917765 L491.4368249215347,365.49119181202946 L479.769745231892,376.13294449343994 L474.9829409941392,380.5811971142693 L474.56350273666453,380.6212601831875 L470.7467075954679,384.11300703359393 L462.19704927845885,391.7675571387871 L464.30540078554714,393.8783800824176 L464.8838721739054,394.15631762303786 L468.092435340846,398.8912715808135 L468.571394770114,404.47881772400603 L469.02617372334146,411.42475229770776 L470.0398936804328,413.8535758508767 L468.89504114173644,419.8968394030141 L459.40606433237474,416.9234085067377 L453.17866173358186,415.1681452997566 L444.7424656503023,412.2723365995094 L441.8184880859942,410.73491632977147 L439.0293631765292,409.55806368029795 L429.2492906363708,405.16990566284574 L422.29182366481115,402.59084560123347 L417.4520083834311,400.5551409118249 L412.04116186016796,397.8396160217096 L409.2185562915692,397.11597683937373 L406.2945787272621,396.9356930292414 L405.1515862251829,395.9403761608038 L404.07648505968024,393.67806473782616 L400.0095149932939,387.25295006006195 L395.4905560286092,380.63252792132084 L394.34477347160293,376.39085049960113 L393.1422597977323,367.9099995979688 L393.3710443018096,356.9615140451532 L394.6312191108545,347.0146052152937 L396.2355006943253,339.99730830008116 L398.52613579002787,331.8244422407581 L399.4338336598647,327.80060775628124 L401.69005807812346,318.68876351918664 L403.1260063476184,312.06208152592706 L403.89513148937505,307.92056177650295 L404.2020375314311,302.4669765200061 L404.0485845104026,299.4985535073445 L403.48499341499166,292.9407299137881 L402.9204723012727,290.2489924708432 L401.89466210616115,284.03671284670713 L400.407562829657,280.23948509579907 L397.2538707429627,269.19584975430257 L393.6007588241969,259.46177597807116 L392.2550223307,253.61256791600647 L390.6777112781988,248.27917186626433 L390.2545529474861,241.2380875038818 L390.7167720471877,237.92537249270384 L393.0622782231365,234.61140551062255 L395.7546812284383,232.59322841386543 L399.06182633616015,231.03953252237952 L402.8693212942635,230.3146413691399 L411.214375583237,231.86833726062582 L414.8684175203118,234.14567233444765 L417.29111521592944,236.32034579416654 L422.29089364650116,239.47781641328623 L426.1365193552834,240.72102352065565 L428.7898615915973,241.29067028183687 L433.7124485025002,241.49724548094684 L441.71246599873876,240.04746317446742 L444.82709731644525,239.37515479918326 L449.86500649769584,236.99265416945087 L452.0096287188451,235.16853256276693 z"/>
	<path id="igdir-merkez" title="Merkez" class="district" d="M213.35577034349512,202.0150910620106 L215.69290635466177,201.8686104662782 L217.14745499034115,202.2717450972682 L221.00424091883463,204.1885125508256 L224.84521653607078,204.20228423076637 L226.04680019163237,204.6955607668222 L227.62690129906161,206.9578721897997 L228.75408348988248,208.00952774890385 L230.34069472547685,208.50155231405606 L232.0928492201191,209.7397515378107 L238.23097006122293,213.04871063627758 L239.1423880042958,213.10755326875125 L240.98661431155512,214.20052386767733 L242.15192725305587,215.2559353394924 L244.7941092696575,214.89411574832462 L246.29236876587288,216.0521888342426 L247.3321292356237,215.57643989083834 L248.5764937334103,215.7066448648228 L251.55999246951075,214.6387136839706 L255.3498170797377,214.8315172031397 L256.2593749861916,215.90070035489566 L258.99920892526643,215.89318852947338 L261.19126208018776,215.11446262737476 L262.42074628502695,215.99084225996165 L263.7655527602148,216.16236227376783 L266.05990792915446,215.75547173006697 L267.36844369028046,216.08974796135345 L269.72697012255855,217.44563245005557 L270.5463162530154,216.86596992164465 L273.03783530351757,216.31760666582608 L274.538884854661,214.63245382945212 L274.7974299446339,211.65401504956094 L275.6111959652346,210.9053364491512 L276.55888462236936,210.9191081290918 L278.0673743199869,210.1228546343416 L281.6088840416412,211.49501474479166 L282.7025855733283,212.99863180012971 L285.1820143858112,213.34667971135698 L286.45148937794835,212.46028431154082 L288.01392013750217,213.22899444640964 L289.86837664616274,215.04184831496056 L290.7481739667209,214.43464242666823 L292.78491406399667,214.37705176509832 L294.7351624585104,213.38549080937162 L295.8707148141144,213.26404963171322 L297.04811799363546,211.60393621341308 L298.20134069711594,211.75792863456772 L299.3740937850898,212.94604902217452 L302.83190185891215,212.78830068830888 L303.59730692743176,212.3375911629787 L304.437113460691,210.58107598509406 L305.9363029752154,210.15164996512652 L307.83633038103,211.14947077537173 L309.65451617562974,211.38609327617013 L310.9621219184467,210.10908295440083 L312.78588782290154,209.0887266678892 L314.30088764868333,209.05367148258568 L315.26066654383834,209.86494862818031 L316.7756663696191,210.34820939700677 L318.52968090088035,209.87997227902463 L318.687784013453,212.0997166912765 L319.7610251423376,215.37487257534355 L322.8858866614453,223.00939114607755 L324.5320190688321,223.94085749842714 L326.20140193395036,225.9953417513911 L328.014937637004,227.34496638557462 L330.6385192874212,230.81292578881065 L332.6185282678316,235.01954802522692 L335.6950288348572,240.50944043793118 L339.98892336870273,252.03758851915777 L343.1853962976221,258.55660101469954 L346.668314865794,264.1441471578917 L351.20773423328313,270.25626910973244 L354.00708934415036,273.55270849916224 L365.32913224105914,284.0417207303218 L371.7862493622383,287.767586139719 L374.3940207013982,289.3938963436194 L379.70535526557103,291.663719592019 L389.21479247773624,295.47346705196395 L396.72097025175844,299.2844664828126 L404.2020375314311,302.4669765200061 L403.89513148937505,307.92056177650295 L403.1260063476184,312.06208152592706 L401.69005807812346,318.68876351918664 L399.4338336598647,327.80060775628124 L398.52613579002787,331.8244422407581 L396.2355006943253,339.99730830008116 L394.6312191108545,347.0146052152937 L393.3710443018096,356.9615140451532 L393.1422597977323,367.9099995979688 L394.34477347160293,376.39085049960113 L395.4905560286092,380.63252792132084 L383.5667912856116,380.29449577732305 L375.18546628257633,379.60465980938704 L362.3335432669384,379.2278165673746 L361.21659127751883,379.29041511255946 L356.1870522610514,381.2973244711831 L349.761555762387,382.4879488005973 L344.8259485951537,382.61314589096685 L339.7034077477602,382.2375546198583 L331.415084575651,381.92330992303073 L323.59270057648155,381.7355142874763 L321.67221276786347,381.40624593980465 L320.1004818252174,380.65381142668366 L314.2329963121078,376.75267009076896 L310.91562100298364,373.27344294939957 L308.43619219050174,368.99545837147264 L306.5147743635737,366.8796275442276 L303.5814966161744,366.2686657432241 L299.3564234372144,365.79792468343476 L298.203200733734,365.8454995777752 L294.1176303011632,367.86743258724323 L291.2187632312057,370.1234841557021 L288.2854854838044,370.02958633792497 L285.3866184138479,369.4649474603585 L278.43752160707044,368.76008784157796 L268.65837908522207,367.350368604017 L264.1887110909275,366.314988666661 L258.5658203931525,364.43452836931056 L254.44490926482894,362.55406807196005 L244.8415402034296,359.54558199038036 L237.1930696280901,356.4895210144599 L235.23724112372122,356.1139297433513 L232.79315300699113,354.8920061413447 L228.9865880671968,351.8359451654242 L223.46785942005914,346.00551666691507 L220.81451718374626,344.3604268994594 L218.26440697975977,343.0446054796756 L213.02654386201857,342.24459607221445 L211.38506154617693,341.3982637413163 L209.84867129928267,340.13001721587295 L207.29856109529715,340.08244232153254 L204.19043990575688,341.21046810576206 L200.80331322343812,341.72753208898814 L198.56847922629083,343.1848262208895 L194.5173194711619,346.1469893790328 L191.30410621267617,347.0872195277079 L185.54171276851295,346.9457468155905 L177.61423670039505,346.00551666691507 L172.25733123906915,344.2915684997563 L173.40776388762154,342.5801242744046 L174.98228488519567,338.9118495265774 L175.738389770622,335.4063309962305 L180.2796691747292,320.2462153233835 L181.33989004728454,318.37076290964785 L185.063683357554,313.0323589762909 L187.96999057398568,309.5280924168477 L189.30177679284222,307.5299468545501 L193.14647248331644,304.1884365125872 L199.1711310906897,297.5054158286614 L201.9565359269186,294.2039685556167 L204.1058082396139,290.29155948156875 L204.43875479432853,288.3347289590931 L204.43875479432853,282.914946916996 L204.6507989688394,277.90205541859984 L203.86400347920738,272.23688707937833 L203.1674197655724,269.2622042121982 L202.77402202075638,264.37075389146054 L202.68288022644924,259.2764842843241 L202.47083605193842,255.89491087344317 L201.2599522132836,248.68105452635052 L200.9576962627757,243.4640917706522 L200.8061032783662,238.69533459847662 L202.6977605193976,225.3280412597216 L203.99234600588431,219.70418796032206 L206.26252069878342,215.02807663502 L210.5089842988558,208.3024889403685 L212.75683855233342,203.87051194128696 L213.35577034349512,202.0150910620106 z"/>
	<path id="igdir-karakoyunlu" title="Karakoyunlu" class="district" d="M318.52968090088035,209.87997227902463 L320.66500293893637,209.83740526829897 L323.16768220915077,210.70251716275254 L324.47342791534874,210.54852474159793 L325.4834277992029,209.4680738517089 L327.3118437952049,209.05367148258568 L329.5104070782913,209.67590102172224 L330.3632338678799,210.3957842913472 L331.23001093210877,211.87310995770764 L332.76361112407596,212.5028513222665 L334.4962352342237,210.6311548212419 L336.4343933907182,209.82613753016574 L338.8422107933864,210.63491073395295 L341.95498207447383,210.9679349943359 L343.25421765250763,209.8837281917357 L344.2409670786303,209.75101927594403 L345.8247882592966,210.80768271866293 L346.84036825300694,212.44275671888903 L348.00847124943573,212.97234041115212 L349.48162025129955,211.62647168967962 L351.9517488806902,211.05432098669087 L354.0033692709133,210.90408447824748 L354.48139868187127,210.15290193603022 L353.93640795264673,208.7431826984693 L354.03219983850096,207.71531458653544 L355.1379916082083,206.49589492633623 L356.6111406100731,206.00887824479864 L359.4867572222991,206.0201459829319 L360.99152684667865,206.61733610399463 L362.1503296600142,208.06962235228121 L362.4637458302344,209.25774273988804 L363.54256706897417,209.76604292678834 L365.48072522546767,207.9669607381782 L365.96433474628276,205.95504349593975 L366.6125575078346,204.77193099194767 L367.9471337816202,204.29242613583244 L370.4005220814435,205.4292157163878 L371.1928976809317,204.67177331965206 L371.1315164725203,203.58381060434084 L371.80112965518566,202.2129024647944 L373.0613044642306,202.11650070520994 L374.430291415458,203.2971092673945 L375.6421052724218,201.53683817679894 L378.48889131706113,201.19630209099378 L381.26592598850584,202.1803512212984 L381.48727034610994,202.7349743316353 L384.0838814655575,202.48833606360733 L385.6016713462683,201.4153969991405 L387.8020946659718,201.19004223647536 L389.2399029720848,201.62322416915407 L391.1064497187666,204.20979605618848 L395.2366610301814,204.25361503781787 L395.2496812865117,205.90997254340672 L396.2866517013335,208.17103199548055 L398.75585031241513,207.92439372745253 L401.7858499639777,206.52218631531386 L403.30642989961456,206.72625757261616 L404.68843710717226,207.48119602754448 L405.4668624320211,209.5056329788198 L407.46826183354506,210.926619954514 L409.0530130325204,210.93413177993608 L410.3522486105542,209.97887798041663 L411.5454621013326,210.29312267724416 L412.75820597660544,212.55793804202898 L413.9774599800434,213.13134071592137 L417.4334080172457,212.83086769903468 L418.1206915477875,213.54699505594834 L418.64243181928146,215.62526675608248 L420.6680116968459,218.27694113010932 L422.27694337186284,219.2947934748136 L423.7324220258522,221.77619980593764 L426.2202210031163,223.2247301415132 L426.41459482975176,223.77935325185032 L428.559217050901,225.05761554452326 L432.0365555092168,224.43413403448307 L434.2871998176214,225.28672621989938 L438.1095750686731,225.3292932306253 L439.9193906984896,225.60848274214914 L443.4255597243921,226.91428839470353 L444.6745743137257,229.66612044102575 L446.39231813092516,231.51277752397652 L448.74154438011203,233.51342702808142 L452.0096287188451,235.16853256276693 L449.86500649769584,236.99265416945087 L444.82709731644525,239.37515479918326 L441.71246599873876,240.04746317446742 L433.7124485025002,241.49724548094684 L428.7898615915973,241.29067028183687 L426.1365193552834,240.72102352065565 L422.29089364650116,239.47781641328623 L417.29111521592944,236.32034579416654 L414.8684175203118,234.14567233444765 L411.214375583237,231.86833726062582 L402.8693212942635,230.3146413691399 L399.06182633616015,231.03953252237952 L395.7546812284383,232.59322841386543 L393.0622782231365,234.61140551062255 L390.7167720471877,237.92537249270384 L390.2545529474861,241.2380875038818 L390.6777112781988,248.27917186626433 L392.2550223307,253.61256791600647 L393.6007588241969,259.46177597807116 L397.2538707429627,269.19584975430257 L400.407562829657,280.23948509579907 L401.89466210616115,284.03671284670713 L402.9204723012727,290.2489924708432 L403.48499341499166,292.9407299137881 L404.0485845104026,299.4985535073445 L404.2020375314311,302.4669765200061 L396.72097025175844,299.2844664828126 L389.21479247773624,295.47346705196395 L379.70535526557103,291.663719592019 L374.3940207013982,289.3938963436194 L371.7862493622383,287.767586139719 L365.32913224105914,284.0417207303218 L354.00708934415036,273.55270849916224 L351.20773423328313,270.25626910973244 L346.668314865794,264.1441471578917 L343.1853962976221,258.55660101469954 L339.98892336870273,252.03758851915777 L335.6950288348572,240.50944043793118 L332.6185282678316,235.01954802522692 L330.6385192874212,230.81292578881065 L328.014937637004,227.34496638557462 L326.20140193395036,225.9953417513911 L324.5320190688321,223.94085749842714 L322.8858866614453,223.00939114607755 L319.7610251423376,215.37487257534355 L318.687784013453,212.0997166912765 L318.52968090088035,209.87997227902463 z"/>
	<path id="igdir-tuzluca" title="Tuzluca" class="district" d="M144.82644120749976,158.3964247772649 L145.01895499751717,159.51568676516854 L147.21937831722065,161.06687871484712 L148.04616459415263,163.23529232004734 L147.23425861017,166.12484116577622 L147.32912047771316,167.54457617056676 L148.00803384347276,168.2619554983841 L151.90481055926415,170.74711774221947 L153.93039043682865,170.44038487081414 L154.8836592038175,171.3956386703337 L154.8957494418388,173.5502805955934 L155.60814346673013,174.52556592957205 L159.49841005435638,175.64357594657193 L162.54794009041336,176.84922392683052 L163.45749799686823,177.87709203876432 L163.35240592792184,181.09340529035768 L164.0182990373521,181.78950111281227 L166.28196360208506,181.8696272506488 L167.81277373912417,182.59702234569585 L170.41496496842888,184.3860887670765 L171.53377699446654,185.43398841346936 L172.83208255419032,185.7720205574672 L176.49728471097643,186.21647022827895 L181.93138169197212,187.56108697884798 L183.26781800237677,186.87125101091166 L184.88883991541397,186.66843172451308 L186.7116758015588,185.96482407663626 L188.98092047614887,184.35228555267665 L189.88489827274861,184.19704116061848 L192.09276173892727,185.2762400796039 L193.05533068900834,186.87876283633395 L194.8400358244753,188.39865551342004 L196.5047685980465,189.07847571412657 L198.617770196682,190.84375468833707 L199.89840540853038,190.388037279392 L201.66730023273897,190.58459671127207 L202.98885625019528,191.09915675269082 L203.76449152011605,192.30856064566066 L204.8814435095357,192.95708157377484 L207.0121154560456,194.88762070727293 L209.07117599274386,194.71484872256306 L212.55874465246188,195.69388996925272 L213.27020865904416,197.06980599241393 L212.63035606227453,198.04509132639257 L213.00143336766803,201.13495551671275 L213.35577034349512,202.0150910620106 L212.75683855233342,203.87051194128696 L210.5089842988558,208.3024889403685 L206.26252069878342,215.02807663502 L203.99234600588431,219.70418796032206 L202.6977605193976,225.3280412597216 L200.8061032783662,238.69533459847662 L200.9576962627757,243.4640917706522 L201.2599522132836,248.68105452635052 L202.47083605193842,255.89491087344317 L202.68288022644924,259.2764842843241 L202.77402202075638,264.37075389146054 L203.1674197655724,269.2622042121982 L203.86400347920738,272.23688707937833 L204.6507989688394,277.90205541859984 L204.43875479432853,282.914946916996 L204.43875479432853,288.3347289590931 L204.1058082396139,290.29155948156875 L201.9565359269186,294.2039685556167 L199.1711310906897,297.5054158286614 L193.14647248331644,304.1884365125872 L189.30177679284222,307.5299468545501 L187.96999057398568,309.5280924168477 L185.063683357554,313.0323589762909 L181.33989004728454,318.37076290964785 L180.2796691747292,320.2462153233835 L175.738389770622,335.4063309962305 L174.98228488519567,338.9118495265774 L173.40776388762154,342.5801242744046 L172.25733123906915,344.2915684997563 L168.77906276244335,343.7970399927966 L165.07665987328738,342.0568004366601 L162.49306901016712,340.2239150336501 L159.7337046865988,338.6251481896311 L156.10198318894547,337.5910202231787 L152.88876993045875,337.21417698116653 L147.30121992843652,337.2617518755068 L144.85620179339642,337.68491804095606 L142.90130330733558,338.67272308397156 L141.57416718002412,339.75317397386067 L140.4916258680483,340.13001721587295 L136.19587129758472,339.23610999063436 L130.0493802916977,337.44954751106116 L124.56599234031188,336.13372609127737 L123.20444553555762,335.1934959426021 L121.17886565799415,332.93619240323955 L118.69943684551126,328.56431000753525 L116.28975940622297,324.6619167007169 L113.63548715160107,318.2681012955449 L112.02934553151223,314.9779217606335 L109.86333288924953,312.53282258571664 L106.93005514184921,310.46456665281187 L104.76497251789655,309.33654086858235 L100.95840757810319,308.25483800778966 L97.57035087747545,307.9255696601176 L92.85608806784629,308.8194768853562 L88.84026900846914,310.2767710172577 L85.80189919212344,312.53282258571664 L85.20761749250781,314.1315894297355 L84.02091412989358,321.23026445368805 L82.69377800258212,327.9057733121916 L82.17017769447011,331.4325753479014 L81.36664187527168,333.92399744625504 L77.73492037761835,337.7324929352965 L71.8320941687569,340.4117106692045 L69.66701154480322,340.83487683465347 L68.33987541749178,339.9885445037554 L60.48215072257048,330.5386681226629 L56.39658028999973,326.1192108326185 L55.66279584399389,324.5216959595031 L53.53305391579403,316.99985477010154 L53.25311840470661,313.14378438672003 L53.28845910045942,309.38286379201907 L52.799269469789195,296.8306035115696 L52.20591778848258,293.586746900095 L49.865991722388884,287.3819791013809 L48.01525528696543,283.7149563244574 L45.78042128981714,278.5893874447286 L45.22148028595332,276.5687064061642 L44.87179340167229,273.3711727181264 L41.90317495852118,269.8456226533201 L40.33237403418414,269.1407630345399 L38.44629690300786,266.0847020586194 L37.64276108380842,263.7810755958201 L36.10637083691418,261.0542829675717 L33.52184995548588,257.71652853831995 L32.01987038603441,254.47267192684524 L30.37931808850277,252.45073891737718 L28.841997823299494,251.46418584526538 L27.93429995346267,250.38248298447257 L26.64250452190403,247.84348599177844 L25.315368394591573,246.2447191477595 L23.638545382999098,245.0227955457528 L23.39395056766449,243.28380796051988 L21.473462759046427,241.49724548094684 L19.27303943934193,240.838708785603 L19.727818392569375,238.95824848825268 L19.203288066147337,237.97169541614073 L17.527395072863882,238.48875939936684 L15.396723126354999,238.29971179290885 L13.999835625848945,237.68874999190544 L11.55574750911886,238.9119255648158 L9.564578308996175,237.78264780968271 L8.866134558743155,235.99608533010937 L8.20303150424293,233.12907196064708 L7.7491825693245175,229.93153827260923 L7.365085007600712,224.94869407590187 L6.352295068818464,222.40969708320756 L2.4750487375215044,217.89634197538592 L5.349735331438467,216.54671734120237 L9.66781034132454,213.92383829796066 L13.174909385536012,210.77638344607058 L17.980313989473274,206.93032882991835 L27.850598305629745,198.66857283643293 L29.117283242839804,197.1824833737465 L30.74016519249504,193.99246151113093 L31.16239350489873,191.93797725816677 L31.19494414572148,189.49037414144246 L29.636233459405716,182.9338025187899 L28.20772533638494,179.74252868527043 L26.97359103999962,177.8633203588238 L26.291887619312988,174.673298496208 L26.389539541785226,167.1113942378882 L26.74666657254042,163.43936357734972 L26.290027582694933,154.83206361444428 L26.87872917245545,154.88840230511067 L37.735762914734565,160.0615460791798 L44.92573446360953,156.0614990418732 L50.58303583882633,156.59984653046212 L58.478891284428514,161.1031858710542 L70.70119190469896,167.85381298377962 L77.65214874809445,170.1536835338678 L84.68959729425092,168.33331783989485 L92.6207934356039,165.38242241988496 L98.39248706285932,163.73482871062188 L104.92772572201727,164.367074016988 L110.83148194918672,165.54017075375054 L111.40809330092696,165.5151313356767 L113.75638953180484,162.1986604117877 L115.79033957415251,160.34824741612596 L117.83265978128239,158.89971708055043 L122.38602942340987,156.52222433443308 L123.95962040267497,156.22550723025716 L126.02891114077443,156.4483580511151 L132.26561392265955,159.79112036398155 L134.19819196929888,161.20334354334983 L135.3021237023872,161.5751789017474 L138.5302172538223,161.5376197746365 L140.48976583143025,158.6393071325819 L142.14612844021823,158.82585079723245 L144.82644120749976,158.3964247772649 z"/>
	
</g></g></svg>