<svg xmlns="http://www.w3.org/2000/svg" version="1.2" baseProfile="tiny" width="600" height="600" stroke-linecap="round" stroke-linejoin="round"><rect id="backgroundrect" width="100%" height="100%" x="0" y="0" fill="none" stroke="none" class="" style=""/>































































































































































































































































































































































































































































































































































































































<g class="currentLayer" style=""><title>Layer 1</title><g class="city city-78" id="karabuk" title="Karabük">
	<path id="karabuk-eflani" title="Eflani" class="district" d="M407.34594744578214,48.20706019846091 L410.04861649279644,44.465716806985924 L414.057846931517,40.40149947514342 L415.8012855486935,37.996587909003985 L418.2855159829734,36.28568888478849 L422.94734873676134,35.46518964457625 L428.3567571155012,35.40361059409381 L431.3633407541488,36.07931585073917 L438.17564059604865,39.6425792854136 L444.8875400817849,41.9775903077621 L451.80024027984973,41.9775903077621 L454.75662374041485,42.40864366113934 L461.5689235823147,42.71487461488997 L466.22804281296305,41.48662220256405 L472.93994229869804,37.861779717407245 L478.44975103360287,34.17369388310621 L481.70597880109244,29.50367183840918 L486.36509803173954,27.599714169437917 L488.869679889566,27.661293219920356 L495.1813347122152,28.52173562801314 L497.5855162138779,29.50367183840918 L502.34503580068997,34.29685198407114 L506.90375467517345,37.001337309314465 L509.80858119608683,37.67704256595982 L513.0648089635764,37.67704256595982 L515.3685901090741,36.631863006419664 L518.2245732134754,34.78948438793082 L520.5785545370557,33.8674629293556 L524.235026967631,33.13017862222773 L529.0949469106081,33.68272577790822 L533.1516640042703,33.68272577790822 L538.6614727391751,34.35843103455358 L541.5174558435765,35.83299964880935 L544.6230830768186,40.81091694591869 L545.6257298768917,43.20750701874964 L546.1765750742248,47.692791911999294 L546.4764193811482,53.03851921334174 L546.3760190249832,57.40231030428814 L546.6270199153944,61.518120894643005 L547.127664934645,63.36216381179352 L547.3284656469738,67.17174344839773 L545.5755296988092,74.66774462064126 L544.3720821864086,77.98635615204749 L544.2730385918142,79.95355717016298 L544.9242841453123,83.70155775628467 L547.127664934645,87.7574535948188 L549.8330475048015,90.6450117728478 L553.4895199353767,93.65572805184173 L560.1525760045996,95.80600192274281 L562.4563571500973,99.18619250463153 L563.9094487913399,102.44322498555529 L566.51443100533,110.67651046492672 L566.663674778007,114.05670104681545 L567.9661658850022,117.74312258245473 L571.9238393840711,121.36796506761159 L578.3860947409653,125.05605090191254 L581.2407210837974,126.40746141520341 L590.6091597231755,130.21704105180766 L596.0185681019153,131.63003061558084 L597.6711036939162,133.84188353696453 L598.7239506720716,136.60794791269026 L598.5733501378254,140.1712113473646 L596.1189684580803,147.48413966682244 L595.0674782414951,151.90784550958963 L595.1163216580072,156.76260470573408 L592.7433456724508,162.5260709711602 L589.6065129231037,167.26932215697153 L587.0503741256242,169.78740603210576 L584.7221712718699,170.34161748644792 L578.3779541715464,168.29453013257145 L575.8394532744752,167.72034709428902 L570.295725500327,168.0482139306416 L565.8211258431695,169.6875481124045 L563.7507076876748,171.7346354662809 L563.6163882922651,173.9464883876645 L565.0111391860063,181.1362586061574 L566.0124292245089,184.33171203659873 L568.1669665973309,193.36386087358045 L568.2171667754121,197.60449386356197 L565.3109834929295,203.62592642154985 L564.1088927420982,205.5315483891828 L561.4048669335134,207.86655941153123 L552.1870288283804,212.41342335526338 L548.8806008828108,212.78123335949653 L545.4751293426455,211.18517094293756 L541.818656912069,210.01683328243243 L537.4091818102626,209.2179699248221 L535.1054006647636,209.40270707626948 L532.5004184507734,211.06201284197255 L530.5466817902802,213.82641291903658 L528.1425002886175,215.6704558361872 L526.3895643404529,216.22300299186756 L517.4729273038135,221.75346744465745 L510.56022710574996,227.09919474599985 L506.1019085874302,230.9087743826041 L503.6475269076851,232.56808014830722 L501.6435900691106,233.3669435059176 L491.0242172623879,235.82511262923097 L488.11803397990536,236.99178599107435 L482.86736670482935,238.00367957738078 L478.10513359487754,235.63371828313677 L471.66594318466844,233.27207848220127 L467.99318961525535,232.38500729552146 L460.4699467107879,231.2782486854989 L457.0997509714365,229.72712233280552 L454.45135238721355,227.29058909209405 L445.4234609018507,221.6802383035431 L441.3301112458041,217.9888238719188 L438.2597598133759,212.45170222448218 L434.8298665649552,207.65186488417342 L432.3619172695119,205.06720906257175 L426.04212187744497,193.99296576769862 L416.4118282550985,180.77677009523282 L412.4392303787622,177.01212652249413 L410.6930782384461,174.20611897888787 L405.99868320698386,168.3727521696708 L404.9159874742936,166.01111236873527 L403.5917881821815,161.06315244753634 L402.50773568792204,158.1106866217015 L400.1008406631197,149.47131226887814 L400.2202356812609,147.25779504883286 L402.50773568792204,141.57255082050602 L403.7111832003226,136.62459089930707 L404.61478640580117,134.70565454238067 L404.9159874742936,131.97287613988863 L403.8916324891035,126.87845793646112 L403.651485691252,122.22840747570436 L404.0720817778856,119.12615477031763 L405.3962810699977,116.02556636359249 L409.91158357424956,112.4822745128584 L415.7497286090419,107.53597889032112 L418.21767790448393,105.02455220983367 L419.90277577415907,102.29343810600334 L420.20397684265265,98.30577851259851 L418.5785764820481,92.39918256226711 L418.5785764820481,89.74129759955109 L419.1796218574626,86.71393833394033 L419.1796218574626,82.80117218031143 L415.8704803887522,78.07622827977872 L414.5462810966401,70.10257339163061 L412.8598264653957,64.19597744129925 L410.6333807293755,59.101559237871776 L408.76783357091836,54.22849275644881 L407.34594744578214,48.20706019846091 z"/>
	<path id="karabuk-eskipazar" title="Eskipazar" class="district" d="M397.3941013313954,436.36311557068643 L403.2173219889204,440.15605222067376 L407.3703691540387,443.9955892331883 L412.1258184561408,449.7540626026295 L415.43631668642047,455.88367457362705 L416.4593149100401,459.0574921214664 L418.8906316430979,462.0848513870771 L408.5181894420775,460.0161281505987 L404.2172552658526,459.7481760660669 L399.64496877567103,459.8147480125345 L396.1621618260293,460.3489878829364 L390.9901867220001,462.9536152884783 L387.94290023625933,467.96148996149816 L385.9823797679177,479.17886294127646 L384.13175698672785,486.2571251494362 L382.82519559502384,489.6622802112503 L379.2881181825885,496.20463825034653 L373.35499983791044,503.9502842218433 L369.32677473721367,508.0228230469943 L366.061049638736,511.6959301933401 L362.8495950030509,514.7665612241548 L360.3992836080158,518.0385723930336 L358.27730851286935,519.9092440887713 L356.20824711894386,520.6431997985757 L351.418878777597,521.5102994013154 L348.09752645475885,522.5787791421191 L341.34899440663844,525.183406547661 L338.3003511593272,527.3869379757361 L331.93171235074715,530.0581373277457 L328.557446326688,530.7920930375502 L321.91609844258096,532.9956244656253 L316.4727710245952,535.1325839472329 L310.920902681028,539.872506535721 L308.34441246000324,542.5653417703325 L304.261916896514,545.2365411223418 L300.23369179581715,546.5047367025484 L296.1511962323278,549.510460085557 L293.32099159775225,549.9781280094917 L289.7282869609564,549.9781280094917 L285.64579139746826,551.1797516432305 L283.68662769069573,552.6476630628395 L282.3257958361993,554.3169546205127 L279.5498616644163,563.3973681186833 L278.40746842265554,565.6008995467585 L276.33840702873,567.7378590283661 L271.8203910013398,569.9413904564412 L268.39185451448816,571.14301409018 L266.32279312056266,572.4794459155157 L265.26723261926867,568.0474185794401 L265.5087361786906,561.9677355682932 L265.21974596432585,559.7259252709991 L261.94723705799976,553.9424874216327 L259.0614051990637,551.2862667575785 L249.39040872962283,541.7248709461799 L246.55206352562845,537.2978365060892 L243.80869163151976,533.9925393639767 L243.0394078214497,532.5762212028799 L240.0084024745467,522.6619940752034 L237.31387399695006,515.4023233129195 L236.4482601154263,513.9860051518231 L233.8012182927713,511.21161928278883 L227.40273072965653,511.15336882962976 L222.302663988828,510.8571236678491 L216.57713016432712,511.15336882962976 L214.21907855603808,511.8024453076881 L210.80410968488343,513.5133443319035 L208.34972800513947,515.1659929029599 L203.39347799070748,517.8222135670143 L198.175372993307,520.1056313308504 L196.04118704403288,521.826516147036 L190.89634717140115,524.9454118390397 L188.8801994786977,525.2333355075117 L184.78684982264986,524.6591524692293 L180.16843343909585,526.2002930299525 L177.42099126027716,526.8110906387919 L169.7905641917963,527.7780481612331 L167.24799301001514,527.7064833187803 L157.09941646800974,528.8065847341562 L154.1443897690126,528.774963059584 L152.11738798375188,528.1375366721575 L147.8557998930521,524.5676160428363 L142.3989048593694,522.8467312266507 L140.37190307410748,521.7632727978917 L137.67059078866117,519.4682049434239 L135.74670288270255,516.024771012391 L136.21478562428024,511.7541806464991 L137.4616495069148,507.7382279758457 L139.9743719341589,503.1480922669095 L141.37726339731893,500.08911132672677 L143.09221002152992,494.03272849684345 L143.29979454170712,484.98060807592145 L144.8587135853926,479.3070139382264 L148.75668957538977,472.1671726795841 L150.36716555872698,467.6402803197923 L150.83524830030342,462.8604145634239 L150.47163619960077,460.75674105504993 L149.12030167609242,457.2500637748731 L147.24932747135597,457.2500637748731 L143.50737906188425,459.22558628629685 L136.44000804486433,460.88322775333825 L131.97083543398617,460.691833407244 L130.36035945064896,459.35373728324674 L128.95746798749013,455.65566565697566 L128.43782830626077,448.7721263922333 L127.70924734328514,445.1372981151065 L126.8775525010073,443.03362460673253 L124.95502135661917,439.7832493204557 L122.98093327257811,437.67957581208174 L118.04367792012351,430.47649120429514 L113.31400708784724,422.6359802090822 L110.24908270169834,419.89488031328176 L106.97386027223263,416.0686576900607 L105.62388251029466,413.71034648644843 L103.18035492310923,410.8427598923599 L101.20626683906818,409.8857881618891 L104.19656933887921,406.48895459338354 L105.34031934220917,404.3486665144525 L107.20586650066639,402.2799432779741 L111.05906935886156,400.8769395061711 L118.34216546547754,400.8769395061711 L121.23071084755315,401.7640106928509 L127.55050623962126,402.8707693028735 L131.46340660688577,402.8707693028735 L139.22679630920703,404.12565049378634 L151.9274413639817,404.2737730746765 L156.6815339045146,404.20054393356236 L162.58073320994788,403.16701446465396 L167.45557753019227,400.43423606216203 L173.53522612440764,396.6695924894234 L175.3302216812358,396.265167914633 L181.35967009736873,395.48794043962465 L188.4012626445628,395.63606302051494 L194.66136052755905,395.56116958073886 L200.74100912177443,395.1933595765058 L212.95864705770538,395.26658871762015 L220.12234814618017,395.11846613672986 L226.56153855638814,394.6757626927208 L235.3492832438983,394.7489918338352 L242.09103148416915,394.97034355583963 L251.54087581773473,394.8971144147254 L254.4294211998104,395.8574147425195 L257.6191676503809,397.6298928172174 L259.60546658854844,399.3274774521394 L264.2401641109402,401.912133273741 L266.8288651860938,404.2737730746765 L270.19906092544403,406.8584288962783 L272.9071570187388,409.66443643988464 L276.03720596023754,411.8047245188156 L281.5144524174668,417.1204944442477 L286.5100485174216,421.6989800625517 L289.5803999498498,423.54468727836394 L293.372548537404,424.0606198634873 L297.2840921431005,423.987390722373 L300.41414108459804,423.027090394579 L302.0992389542731,421.99356092567064 L306.79499074730586,417.3418461662522 L309.08113399239664,415.7923841122205 L312.8135850708802,412.54367312460505 L315.1607825866121,411.6566019379255 L319.734425838364,410.62307246901696 L324.12897656290306,410.697965908793 L335.985715921271,412.7650248466096 L340.8008627324448,412.9863765686142 L345.19541345698394,413.798554315518 L348.1450131097006,414.68396120353617 L350.7934116939248,415.93884239444895 L352.23700600417794,418.1540239131561 L355.4267524547473,420.6654505936435 L361.3856492692511,423.987390722373 L364.27555141289724,425.0941493323957 L370.3538432455422,428.26963117889665 L372.76209503191365,429.89398667270444 L376.55424361946905,431.4451130253977 L378.90144113519966,432.0342747516354 L382.93373652060654,432.1823973325257 L385.2809340363383,431.88781646940686 L388.8926333351103,432.1823973325257 L393.0456805002275,433.58540110432887 L397.3941013313954,436.36311557068643 z"/>
	<path id="karabuk-merkez" title="Merkez" class="district" d="M220.72339352159588,200.72006095824216 L230.01585351306557,198.73621695350988 L236.58936331868318,197.86911735077044 L244.26049323425843,195.7304935705011 L250.9425439654587,192.3086955220702 L254.08073347637634,190.1700717418009 L257.68429220573074,189.59921730084181 L263.0299327906912,187.74518859172122 L267.0405199909798,186.74827369337004 L280.4643189624521,185.46509942520842 L283.13713925493175,185.60656481145188 L285.2292655955435,185.25040489785064 L289.2398527958334,183.967230629689 L291.1053999542906,182.84549333171117 L292.5815565422181,186.53524346467384 L294.49323359404775,192.39856764980127 L296.05215263773323,196.04005312157506 L298.4671882319545,200.11259194672604 L299.7249062071463,203.25978071597834 L300.27846492761915,210.0484549570045 L302.49269980951163,216.59081299610068 L305.5359160105436,220.96126128169385 L307.17624074841547,223.78890470790213 L310.9005512574814,231.67435176698066 L313.8121615862433,235.58878221927122 L314.50410998683583,237.12659418267106 L313.9437674585133,241.46209219636884 L313.9993946828738,246.41670931221446 L315.8717256491807,249.40911830592987 L322.1806669486891,265.31315631702216 L323.6378288746404,269.96320677777896 L324.10184133150676,274.85125194715704 L327.6429890286511,290.58386719609535 L333.0836029234972,295.8680154469555 L339.9379623740607,300.4465010652595 L352.9072462196523,303.6436187943626 L357.18647221076026,304.59060473286314 L362.91471955840075,304.8285994414845 L366.29441262874025,304.6305479007437 L372.7946573095892,304.788656273604 L376.8812231577874,305.3412034292845 L380.0668993236467,307.4332268470265 L381.41823384715497,309.05258944484916 L382.25535573571335,311.57899481329173 L383.4777979100912,317.8550650665179 L383.79935040213024,321.28851320558067 L383.83191267980453,327.4081393846081 L383.0924776242716,330.0926531259111 L380.613674236271,333.80237484281406 L380.1957916727771,336.17067183839634 L381.2581359819195,340.868986960342 L389.70126323070315,342.6764153069355 L391.9969038067833,344.0378116121963 L393.30210843691793,346.046620096854 L398.8743282040317,356.36027890333554 L399.5676333661935,358.0279061623471 L400.0262187767819,362.8493793852578 L400.8945461814452,366.04982571168415 L403.5822908511934,369.99088494256176 L404.09514672457306,372.6437770092927 L403.78173480195164,376.4666710351904 L401.9229714513441,382.1835369380894 L399.72366094671895,385.15763864652604 L398.3153424372797,389.23017747167717 L398.43202393228114,394.3062883898261 L398.9842258911848,397.7164363476252 L401.8537766112843,400.6322876029028 L407.42056933212007,402.29159336860596 L409.4475711173819,403.6330180899266 L410.767700124784,405.44876792982836 L410.57368322030493,409.0020455725328 L408.9007962047576,411.6865593138358 L404.52388338062553,416.77764891993996 L403.4303335553767,423.8842042053484 L400.72630774679203,430.47649120429514 L397.3941013313954,436.36311557068643 L393.0456805002275,433.58540110432887 L388.8926333351103,432.1823973325257 L385.2809340363383,431.88781646940686 L382.93373652060654,432.1823973325257 L378.90144113519966,432.0342747516354 L376.55424361946905,431.4451130253977 L372.76209503191365,429.89398667270444 L370.3538432455422,428.26963117889665 L364.27555141289724,425.0941493323957 L361.3856492692511,423.987390722373 L355.4267524547473,420.6654505936435 L352.23700600417794,418.1540239131561 L350.7934116939248,415.93884239444895 L348.1450131097006,414.68396120353617 L345.19541345698394,413.798554315518 L340.8008627324448,412.9863765686142 L335.985715921271,412.7650248466096 L324.12897656290306,410.697965908793 L319.734425838364,410.62307246901696 L315.1607825866121,411.6566019379255 L312.8135850708802,412.54367312460505 L309.08113399239664,415.7923841122205 L306.79499074730586,417.3418461662522 L302.0992389542731,421.99356092567064 L300.41414108459804,423.027090394579 L297.2840921431005,423.987390722373 L293.372548537404,424.0606198634873 L289.5803999498498,423.54468727836394 L286.5100485174216,421.6989800625517 L281.5144524174668,417.1204944442477 L276.03720596023754,411.8047245188156 L272.9071570187388,409.66443643988464 L270.19906092544403,406.8584288962783 L266.8288651860938,404.2737730746765 L264.2401641109402,401.912133273741 L259.60546658854844,399.3274774521394 L257.6191676503809,397.6298928172174 L254.4294211998104,395.8574147425195 L251.54087581773473,394.8971144147254 L242.09103148416915,394.97034355583963 L235.3492832438983,394.7489918338352 L226.56153855638814,394.6757626927208 L220.12234814618017,395.11846613672986 L212.95864705770538,395.26658871762015 L200.74100912177443,395.1933595765058 L194.66136052755905,395.56116958073886 L188.4012626445628,395.63606302051494 L181.35967009736873,395.48794043962465 L175.3302216812358,396.265167914633 L175.02495032803455,391.54355261142376 L174.83636046983355,381.432938241668 L174.88384712477642,374.40294069469707 L175.26238360274635,370.04580679839745 L176.3043764883422,362.6080560793131 L178.48333556942077,356.85623990451865 L181.89287739429494,350.9895871220679 L186.20330890150802,344.1326766359126 L188.61970125729846,338.78694933457007 L197.42915412992437,324.3791158203356 L199.89167637908724,321.6480017165053 L204.7705909840417,317.23261736704643 L207.65913636611856,313.804162123969 L208.65364259677153,307.7627579820407 L211.16500826244766,298.52423611100977 L213.91109367969597,290.6221460653142 L216.51607589368615,281.32703803978575 L219.5959246571024,273.4249479940903 L220.92148071078492,269.12606455094976 L220.11692109990094,262.7351576900672 L218.64754831982185,258.6093613077422 L218.8849815945337,254.42697877091976 L220.30551095810193,248.0926580645346 L220.06943444495806,236.2994377478122 L219.73702786036057,232.63798069209804 L219.73702786036057,228.86168702872757 L219.4059780373322,223.4593735728878 L220.25802430315906,207.07435324856777 L220.72339352159588,200.72006095824216 z"/>
	<path id="karabuk-ovacik" title="Ovacık" class="district" d="M418.8906316430979,462.0848513870771 L416.4593149100401,459.0574921214664 L415.43631668642047,455.88367457362705 L412.1258184561408,449.7540626026295 L407.3703691540387,443.9955892331883 L403.2173219889204,440.15605222067376 L397.3941013313954,436.36311557068643 L400.72630774679203,430.47649120429514 L403.4303335553767,423.8842042053484 L404.52388338062553,416.77764891993996 L408.9007962047576,411.6865593138358 L410.57368322030493,409.0020455725328 L410.767700124784,405.44876792982836 L409.4475711173819,403.6330180899266 L407.42056933212007,402.29159336860596 L401.8537766112843,400.6322876029028 L398.9842258911848,397.7164363476252 L398.43202393228114,394.3062883898261 L398.3153424372797,389.23017747167717 L399.72366094671895,385.15763864652604 L401.9229714513441,382.1835369380894 L403.78173480195164,376.4666710351904 L404.09514672457306,372.6437770092927 L403.5822908511934,369.99088494256176 L400.8945461814452,366.04982571168415 L400.0262187767819,362.8493793852578 L399.5676333661935,358.0279061623471 L398.8743282040317,356.36027890333554 L393.30210843691793,346.046620096854 L391.9969038067833,344.0378116121963 L389.70126323070315,342.6764153069355 L394.7565568397297,340.04682342146805 L401.82392785674836,338.96669359003243 L403.4031983239805,339.00497245925123 L410.49363428768663,340.98049497067524 L414.74979533210967,340.0801093947018 L418.25838075157833,338.1445300511585 L426.6608051532676,335.08887770829904 L431.4854492954307,334.12192018585813 L433.3442126460383,334.160199055077 L438.15257564936246,336.45027401355986 L441.50377672673653,337.20420130730474 L446.99594756123315,336.9229348334794 L449.5045997037696,336.4369596242665 L454.3007518529661,334.554637837897 L456.9084475900959,332.2995131513096 L458.782135317972,327.00038621249445 L460.81863443422196,324.77688320047906 L462.7045330162258,323.86817613119723 L468.77739780259276,322.22218475478763 L472.4786433649713,321.97253995553456 L478.8757741665156,323.14087761603963 L481.8063791572562,325.06813546627455 L483.8795108358905,327.4946829150158 L485.8902314823147,328.8460934283067 L489.17495124276843,330.0277454781052 L493.03629467038127,328.55317686384956 L497.58958649858664,328.81613605239625 L500.8512413123543,330.54700666055186 L503.37074754744924,331.1844330479786 L506.88068972848714,330.8249445370538 L509.0596488095657,329.70154294041447 L511.71618796320763,329.58670633275784 L514.1977048743479,330.7450582012929 L516.9329361990376,332.8786890855771 L518.9192351372064,336.97785668931505 L520.6165438610092,338.80858521717204 L528.5739504678095,346.02997711023704 L530.0718152408552,348.0221426082778 L533.9982832238179,354.6443869831351 L535.7213704174478,355.8326962275804 L540.0725047717541,356.83793261924006 L541.4998179431695,357.7499682858452 L542.2256853830056,359.67389753875676 L541.9706142078855,365.2160120821784 L538.9504629535398,373.13807371181406 L539.5813570834914,377.638337293019 L542.530956736208,380.1114851042877 L543.0912992645293,382.6561977580087 L545.3313126162477,384.7332424877956 L549.8479718820676,388.12175456299286 L552.0459256251235,389.06707620283174 L558.4552672807968,389.83931078185503 L556.7905208346671,394.51432572253714 L555.7566685184901,398.45372065475306 L553.9603162000927,401.7923037700995 L551.0744843411555,405.931414541718 L547.1018864648204,410.4716212908034 L540.0250181168112,415.08006428501784 L538.1743953356214,416.9490716820937 L536.8135634811262,419.0860311637013 L533.5478383826485,429.63602038014267 L530.9903428236012,434.5090868615657 L529.3568018935765,436.31152231217396 L527.8874291134974,437.3800020529778 L509.37984454003436,447.26260750608213 L502.35860341638806,449.59928282709257 L495.717255532281,452.13733828616694 L488.4789325574683,453.60524970577586 L485.3217483845733,454.6071575001121 L476.2314458670015,456.9438328211223 L470.95092983739085,458.0788845083936 L457.50677944237316,460.6169399674681 L437.96534255273195,463.08675918141336 L432.35920374637215,463.9555230828147 L424.52119215771427,463.8223791898797 L418.8906316430979,462.0848513870771 z"/>
	<path id="karabuk-safranbolu" title="Safranbolu" class="district" d="M482.86736670482935,238.00367957738078 L479.5527981898397,238.95898700918985 L473.49078749603245,241.72338708625387 L472.08789603287244,242.58382949434665 L468.8384520732325,250.31116818056486 L468.2753960217716,252.845895042316 L468.3880072320643,259.38991738007394 L467.93756239089487,262.9848024893204 L468.0501736011863,267.27037154316736 L467.59837199844765,275.42709928410125 L466.58487110581723,284.0465020529843 L465.64463533795436,287.6863232260963 L465.7952358722006,289.7600393585597 L468.8384520732325,293.954071986014 L474.0986166792966,304.9234644652008 L475.67653038495826,306.6277062947695 L481.23653929794557,310.59206570691066 L482.96505353785346,312.2047711100866 L487.5861834445483,314.92257082462345 L491.15039608837867,315.8212921019349 L493.0946354178826,315.89119264572594 L496.81351888066933,317.1360880446686 L498.3005295611554,317.18768130318097 L500.2108498514159,319.2680546302912 L500.90279825200594,324.4323733775095 L500.8512413123543,330.54700666055186 L497.58958649858664,328.81613605239625 L493.03629467038127,328.55317686384956 L489.17495124276843,330.0277454781052 L485.8902314823147,328.8460934283067 L483.8795108358905,327.4946829150158 L481.8063791572562,325.06813546627455 L478.8757741665156,323.14087761603963 L472.4786433649713,321.97253995553456 L468.77739780259276,322.22218475478763 L462.7045330162258,323.86817613119723 L460.81863443422196,324.77688320047906 L458.782135317972,327.00038621249445 L456.9084475900959,332.2995131513096 L454.3007518529661,334.554637837897 L449.5045997037696,336.4369596242665 L446.99594756123315,336.9229348334794 L441.50377672673653,337.20420130730474 L438.15257564936246,336.45027401355986 L433.3442126460383,334.160199055077 L431.4854492954307,334.12192018585813 L426.6608051532676,335.08887770829904 L418.25838075157833,338.1445300511585 L414.74979533210967,340.0801093947018 L410.49363428768663,340.98049497067524 L403.4031983239805,339.00497245925123 L401.82392785674836,338.96669359003243 L394.7565568397297,340.04682342146805 L389.70126323070315,342.6764153069355 L381.2581359819195,340.868986960342 L380.1957916727771,336.17067183839634 L380.613674236271,333.80237484281406 L383.0924776242716,330.0926531259111 L383.83191267980453,327.4081393846081 L383.79935040213024,321.28851320558067 L383.4777979100912,317.8550650665179 L382.25535573571335,311.57899481329173 L381.41823384715497,309.05258944484916 L380.0668993236467,307.4332268470265 L376.8812231577874,305.3412034292845 L372.7946573095892,304.788656273604 L366.29441262874025,304.6305479007437 L362.91471955840075,304.8285994414845 L357.18647221076026,304.59060473286314 L352.9072462196523,303.6436187943626 L339.9379623740607,300.4465010652595 L333.0836029234972,295.8680154469555 L327.6429890286511,290.58386719609535 L324.10184133150676,274.85125194715704 L323.6378288746404,269.96320677777896 L322.1806669486891,265.31315631702216 L315.8717256491807,249.40911830592987 L313.9993946828738,246.41670931221446 L313.9437674585133,241.46209219636884 L314.50410998683583,237.12659418267106 L313.8121615862433,235.58878221927122 L310.9005512574814,231.67435176698066 L307.17624074841547,223.78890470790213 L305.5359160105436,220.96126128169385 L302.49269980951163,216.59081299610068 L300.27846492761915,210.0484549570045 L299.7249062071463,203.25978071597834 L298.4671882319545,200.11259194672604 L296.05215263773323,196.04005312157506 L294.49323359404775,192.39856764980127 L292.5815565422181,186.53524346467384 L291.1053999542906,182.84549333171117 L292.3197015592496,178.83453355704268 L294.00479942892474,168.56913941174997 L295.6898972985998,162.86725219680633 L299.0031090520191,158.09071503776124 L303.8263964326118,153.95659716212782 L306.7312229535264,152.17413329545974 L311.6711918291195,148.53930501833278 L319.2839809971946,141.8371743077145 L321.6148973740885,138.56183454151216 L320.8741055569851,130.91771078837832 L318.95564469730584,125.41054651685214 L318.30168562066933,121.8289757968992 L316.86351835669404,117.76475846505666 L315.38193472248736,115.25166748590753 L312.2437452115697,109.0504906724574 L309.41082705385577,100.976977864608 L306.18580480247135,96.6997303040694 L306.2292211727041,92.5839197137145 L306.79499074730586,90.92627824667309 L308.146325270813,89.32189433680573 L317.8661651567671,81.4630760563141 L319.73985288464326,80.39293201684863 L322.0938342082235,79.91194970362076 L328.7623173237256,79.96520726079478 L336.65188585203646,77.61355325182936 L341.663763090829,76.49015165518986 L358.00731296048207,76.06242689913597 L363.97842062911354,75.36841435721203 L371.78115641695763,76.16894201348401 L373.48117866390123,75.74121725743016 L379.80097405596814,72.58737129353104 L386.12076944803493,68.63133337469826 L391.1326466868287,65.7437751966693 L394.18400345727946,63.65840897357396 L399.1090479556052,58.41919678657962 L402.81300704112334,54.08869166886697 L404.25117430509727,51.46908557536978 L407.34594744578214,48.20706019846091 L408.76783357091836,54.22849275644881 L410.6333807293755,59.101559237871776 L412.8598264653957,64.19597744129925 L414.5462810966401,70.10257339163061 L415.8704803887522,78.07622827977872 L419.1796218574626,82.80117218031143 L419.1796218574626,86.71393833394033 L418.5785764820481,89.74129759955109 L418.5785764820481,92.39918256226711 L420.20397684265265,98.30577851259851 L419.90277577415907,102.29343810600334 L418.21767790448393,105.02455220983367 L415.7497286090419,107.53597889032112 L409.91158357424956,112.4822745128584 L405.3962810699977,116.02556636359249 L404.0720817778856,119.12615477031763 L403.651485691252,122.22840747570436 L403.8916324891035,126.87845793646112 L404.9159874742936,131.97287613988863 L404.61478640580117,134.70565454238067 L403.7111832003226,136.62459089930707 L402.50773568792204,141.57255082050602 L400.2202356812609,147.25779504883286 L400.1008406631197,149.47131226887814 L402.50773568792204,158.1106866217015 L403.5917881821815,161.06315244753634 L404.9159874742936,166.01111236873527 L405.99868320698386,168.3727521696708 L410.6930782384461,174.20611897888787 L412.4392303787622,177.01212652249413 L416.4118282550985,180.77677009523282 L426.04212187744497,193.99296576769862 L432.3619172695119,205.06720906257175 L434.8298665649552,207.65186488417342 L438.2597598133759,212.45170222448218 L441.3301112458041,217.9888238719188 L445.4234609018507,221.6802383035431 L454.45135238721355,227.29058909209405 L457.0997509714365,229.72712233280552 L460.4699467107879,231.2782486854989 L467.99318961525535,232.38500729552146 L471.66594318466844,233.27207848220127 L478.10513359487754,235.63371828313677 L482.86736670482935,238.00367957738078 z"/>
	<path id="karabuk-yenice" title="Yenice" class="district" d="M27.099949897308704,283.92001535469603 L28.9180104008243,278.75736090613924 L32.608401870644315,271.29963860311443 L36.45346415941938,266.5181085480844 L39.00010562590944,262.0561238360983 L41.85880225345164,258.8673276003038 L46.276417924676906,252.93909576737047 L51.472814736960345,248.54035440452864 L56.46162702906787,245.7360111595841 L61.19129786134408,244.6525527308251 L73.66265021082461,243.12306226073363 L80.78293492906658,241.72005848893053 L92.42394919783851,238.65941325008595 L97.98395811082457,237.00343608170624 L103.3892962048568,234.38882288419407 L106.29819301047905,231.52123629010535 L109.62497237959644,225.9741288506986 L110.871836262231,224.7625194249896 L115.39256581276089,221.83002518309507 L118.1481485609973,219.5366216272888 L120.48584874573976,218.19686120462978 L124.95502135661917,213.0342067560731 L126.46374022222096,209.84374622161678 L129.4282642522062,210.05844074897462 L138.3191228190197,210.20157043387982 L141.51565307743743,210.41460066257588 L145.81658725366123,211.1269204897784 L150.29118691081868,211.27005017468363 L157.96231682639387,212.34019421414902 L164.87773054759714,212.41009475794004 L168.01592005851478,211.69777493073747 L176.38306865939012,210.20157043387982 L180.7423435831165,208.9183961657182 L187.77443879932127,206.1373531020373 L192.4810446849113,204.71104914897046 L203.9877395582747,202.78711989605895 L209.91543085667342,202.2162654550999 L220.72339352159588,200.72006095824216 L220.25802430315906,207.07435324856777 L219.4059780373322,223.4593735728878 L219.73702786036057,228.86168702872757 L219.73702786036057,232.63798069209804 L220.06943444495806,236.2994377478122 L220.30551095810193,248.0926580645346 L218.8849815945337,254.42697877091976 L218.64754831982185,258.6093613077422 L220.11692109990094,262.7351576900672 L220.92148071078492,269.12606455094976 L219.5959246571024,273.4249479940903 L216.51607589368615,281.32703803978575 L213.91109367969597,290.6221460653142 L211.16500826244766,298.52423611100977 L208.65364259677153,307.7627579820407 L207.65913636611856,313.804162123969 L204.7705909840417,317.23261736704643 L199.89167637908724,321.6480017165053 L197.42915412992437,324.3791158203356 L188.61970125729846,338.78694933457007 L186.20330890150802,344.1326766359126 L181.89287739429494,350.9895871220679 L178.48333556942077,356.85623990451865 L176.3043764883422,362.6080560793131 L175.26238360274635,370.04580679839745 L174.88384712477642,374.40294069469707 L174.83636046983355,381.432938241668 L175.02495032803455,391.54355261142376 L175.3302216812358,396.265167914633 L173.53522612440764,396.6695924894234 L167.45557753019227,400.43423606216203 L162.58073320994788,403.16701446465396 L156.6815339045146,404.20054393356236 L151.9274413639817,404.2737730746765 L139.22679630920703,404.12565049378634 L131.46340660688577,402.8707693028735 L127.55050623962126,402.8707693028735 L121.23071084755315,401.7640106928509 L118.34216546547754,400.8769395061711 L111.05906935886156,400.8769395061711 L107.20586650066639,402.2799432779741 L105.34031934220917,404.3486665144525 L104.19656933887921,406.48895459338354 L101.20626683906818,409.8857881618891 L95.95695632556385,408.92881643141834 L89.15008352994198,409.05696742836835 L84.42041269766577,408.8655730822742 L79.63918492573663,409.94903151103335 L77.0925434592466,411.4801862797865 L73.35059504977488,414.28452952473094 L69.86914486170122,417.3435104649139 L61.8140514218768,420.4041557037584 L58.020546072752154,422.18828386908814 L54.434625243805954,423.2734065965088 L50.06992327380152,422.7624669073706 L43.832890337490255,423.14525559955877 L41.70277467292493,422.89061790432055 L35.518655437837,420.85018774509086 L30.73742766590786,420.7220367481408 L25.592587793276095,422.125040519944 L23.72161358853964,422.9538612534647 L21.79908244415148,415.81401999482233 L20.396190980992657,408.1649033457036 L18.264718554856927,401.4078507792497 L15.302908048012569,396.18028868288695 L13.224349323098949,393.885220828419 L6.105421366427379,387.25465496025333 L4.025505879943324,384.0675230231204 L1.9998608562518143,377.8846534949489 L1.634891993979977,373.99518752258365 L2.4150298966061143,368.5129877309827 L4.337561040994274,364.1791540159466 L5.94939378590189,361.24665977405215 L13.01676480292059,357.42210144949263 L16.54977193064593,354.68100155369234 L21.17497212204958,349.3252884603797 L28.24369990063991,340.0817736933636 L29.69814830345166,337.6602191406073 L30.685870726256184,335.11051359090095 L30.58140008538237,325.99348552217316 L29.749705243102113,320.95731777190474 L27.46356199801133,314.83769159287715 L26.163784414155884,307.1253315946142 L25.592587793276095,302.28055819043993 L26.163784414155884,295.14071693179767 L26.631867155733516,292.8456490773297 L27.099949897308704,283.92001535469603 z"/>
	
</g></g></svg>