<svg xmlns="http://www.w3.org/2000/svg" version="1.2" baseProfile="tiny" width="600" height="600" stroke-linecap="round" stroke-linejoin="round"><rect id="backgroundrect" width="100%" height="100%" x="0" y="0" fill="none" stroke="none" class="" style=""/>































































































































































































































































































































































































































































































































































































































<g class="currentLayer" style=""><title>Layer 1</title><g class="city city-15" id="burdur" title="Burdur">
	<path id="burdur-aglasun" title="Ağlasun" class="district" d="M528.823471233993,213.02818500208133 L530.6374162335082,218.59566887376462 L531.255927235782,219.60793866861638 L533.4654007303137,221.2573013413463 L537.1446121000625,224.8958095550082 L539.0948241873461,226.96901596177133 L534.6926893714492,226.78408205694274 L530.8772109139321,227.11501641295217 L529.8189288556781,227.00441001054253 L527.6581221782066,226.0346130742161 L523.9753714035809,225.21878025004395 L520.9544893409734,224.8878458940348 L518.9918893366196,224.44630513561634 L516.4125480324307,223.38802307736233 L514.472069308559,221.4033017925268 L512.6855546968411,220.41138357571867 L506.7986395349993,218.3169407396927 L505.29881671832686,217.5232291960026 L500.82235440001034,216.06764894029362 L499.96227901487475,216.06764894029362 L495.90523617449503,214.7881540772209 L494.93543923816856,214.65631124554875 L493.78867205798736,213.99444253353084 L491.73758693170623,213.26709483128593 L490.5686984710429,213.26709483128593 L486.2249638356178,214.0829276554581 L485.320645889518,214.41386201146722 L479.65405868127607,217.9196425422377 L476.5889340577045,219.48494434913684 L468.3642419745363,221.44754435349063 L465.9609860629829,222.10941306550887 L463.84353709525635,222.35186229959038 L461.5287663056306,221.97668538261746 L459.3458383476774,221.2493376803729 L457.53720245547754,221.38206536326396 L454.53844167335217,222.79251820678962 L452.67671470799576,224.9409369671916 L452.2077435617796,225.24090153052566 L450.3699075793438,222.54033560929625 L448.77540568220877,220.94583371216123 L447.1154247948474,218.72662685421759 L445.74036600009265,215.80042387207232 L444.38919818825866,213.675011243372 L442.9893635593645,212.4990439729545 L440.4383374941922,210.8983481172845 L435.5619224247637,208.67294730080596 L433.28608508878597,207.3978766938294 L431.13501177472665,205.74674431866103 L428.28402114621997,204.44689787754473 L425.1587266397381,204.29647317026806 L422.96518046715346,204.0372117630202 L422.7457373647728,202.51703736830444 L423.70137668159066,200.6057587346686 L424.20308732292006,198.6307708132453 L423.8420680254558,195.37097892143322 L423.4660062572633,194.22686629490963 L423.1368416036929,190.29370262522866 L421.96175918449467,187.55066384547357 L421.6954189674926,184.49527258531413 L423.01207758177486,181.70533669093788 L423.184623569534,179.9188220792201 L423.70137668159066,177.6624514700665 L425.5188610859831,175.23265002193526 L428.10528119992625,173.11697075664677 L429.65642538731674,172.02064009596424 L431.38011556246624,171.92596101550203 L432.0543721915543,172.19230123250372 L434.9849994297957,172.08257968131363 L437.4298433486546,170.87652746944065 L439.1376062018569,170.40578662078593 L440.51708925270793,169.10505532845073 L441.7381839353085,165.75943286836875 L443.74060224452955,165.96648805367943 L444.9103755564122,166.39387119258956 L449.07094598944707,167.56364450447214 L451.36536520102925,168.6652842724704 L452.28738017151454,169.520050550291 L453.4120260712141,169.99256110138415 L456.18691949486276,170.43675641346064 L457.23281363604656,170.7738847280047 L458.7175939819915,170.84201827188903 L460.58993916197926,170.13325244524896 L462.31097478347044,169.99787020869985 L465.70172465573535,170.79069690117072 L467.0679349382973,170.95970348405254 L469.345541976713,172.14097986178575 L470.23924170818134,173.82750628572563 L470.9648197079878,176.08830115097507 L472.044338195504,177.11738311899285 L472.85397706114156,178.29777464550685 L473.8326225096606,178.55084209421943 L474.9466501947287,179.71530629878634 L476.076605201744,179.98518592066563 L478.8603471375857,179.74893064511906 L479.53460376667374,179.95156157433325 L483.75180467774237,179.7657428182854 L486.8726749281277,180.2886898888773 L490.63506231248846,180.001998093832 L492.63394121683234,180.1533076523282 L494.4337285968395,180.64882433512233 L496.0981337402974,180.71607302778744 L497.897036269085,180.2886898888773 L500.1242067880021,180.58069079123834 L503.0256339360076,181.77347023482224 L504.19540724788976,181.61596671779105 L505.8368062596463,182.3583568907635 L507.02958570323017,183.28037186124885 L509.66113322935644,183.82013110500714 L510.49289337547566,183.16799575640073 L512.944816104089,181.93097375185306 L514.991476974274,181.18858357888058 L515.5091149375501,180.6709456156044 L518.1185411831942,180.26656860839557 L518.2760447002257,181.39121450809478 L518.8379252244657,182.24509593469583 L518.2079111563414,183.23524444906582 L518.3202872611895,184.0670045951848 L517.7132793247662,184.60764869016262 L517.6681519125831,185.46241496798285 L519.085683565863,187.82408287222978 L520.6598338849547,189.9158711545977 L521.3119692335607,190.20787205695876 L522.1649658089425,191.51125790295197 L522.4233423649712,192.99869280255456 L524.0824384011133,196.27264231387497 L524.8150952106736,197.40613672576714 L524.9336652740567,199.24397270820327 L524.1461476889011,202.35333989273832 L524.190390249865,203.43020382659682 L524.8159800618928,204.14250905811383 L527.3121453514699,206.07325441857367 L528.2686695195068,207.8261446839591 L528.823471233993,213.02818500208133 z"/>
	<path id="burdur-altinyayla" title="Altınyayla" class="district" d="M102.40039589670147,406.4053401650506 L102.34111086501014,408.20512754505785 L103.20207110136533,409.37932511303654 L103.55424188663727,410.6703230419599 L103.6321087939333,414.1911460434583 L103.84801249143675,415.2671251260979 L104.5523540619804,416.22630384779256 L105.68673332509178,418.6906144934757 L106.46894180293174,421.76193307558196 L107.95549185131512,424.48196572363577 L108.31474144634092,426.959549137608 L106.75917300285414,426.45429909140137 L105.74336380312565,425.50308403068016 L104.42405063518527,424.9845612161844 L103.64626641344182,425.22258619416976 L102.15440725774272,426.843633627883 L101.11647677753234,427.51435085209386 L99.64673890231512,427.6656604105901 L99.14945251708224,428.0762313763342 L99.1060948073378,429.95654021729496 L97.93897604911308,430.90775527801657 L97.74430878087247,432.52968756294905 L98.1115220368718,433.415423633444 L97.98233375885752,434.8639250793985 L97.03111869813608,435.59923644261676 L94.4146136427376,436.2911900960905 L93.05282761627222,437.65297612255586 L91.23711291431806,438.47411805404374 L89.2046096636418,438.82009488078074 L86.99956042520648,440.46326359497573 L86.02710893522243,442.949695521141 L83.28141560180978,444.5061488158468 L80.83834138538913,445.45736387656837 L79.8225321856604,446.7545557640267 L79.19605752241335,449.1542722707028 L78.89343840542108,451.27260608964895 L76.68750431576638,453.02372665259554 L75.95307780376748,454.3642762497984 L75.73628925504511,455.8127776957529 L73.72590728485045,457.5851346879624 L70.80766796367874,459.1628244119307 L68.92735912271763,460.87147211635266 L68.45130916674742,461.995233164833 L68.19204775949953,464.5029015202604 L67.86730736202531,465.43288015171913 L67.84607093276264,468.243167624139 L67.60804595477765,469.6695477896118 L64.51637579462817,473.1071947764983 L62.11754413917129,475.03086132720364 L61.230923217456905,476.1121495171586 L58.26932618654081,478.4685083140902 L56.60492104308321,478.943673418841 L55.52363285312822,480.04619803805883 L54.398986953428675,480.5656057037738 L51.39491706398741,479.67898478205933 L49.427007952317865,479.7435789210667 L48.583744740348095,480.17627116729255 L47.59005682110154,481.53805719375794 L45.816814977672834,482.3167262667204 L43.547171600230456,483.07327405920125 L41.32000108131325,483.41925088593825 L39.30961911111859,483.35377189571165 L38.099142643149435,483.07327405920125 L35.39680701948089,481.79731860100577 L35.09418790248861,480.9549402402551 L35.35344930973645,479.3330079553226 L35.09418790248861,477.99245835811973 L29.3656611088972,476.3068167853991 L28.52239789692743,475.29012273445153 L27.787086533709328,473.6257175909937 L25.971371831755448,472.52319297177627 L25.560800866011505,471.85336059878426 L25.86341998300378,469.79962091884516 L25.53867958552962,469.2156191141231 L26.50847652185587,467.77065707304587 L28.247209167732592,466.28587672710097 L30.723907730485678,464.5347561641543 L32.324603586155604,462.758859767068 L35.92771775104649,459.25661864117404 L36.37810702165791,458.48060412186953 L36.653295750852806,456.3038701224509 L38.0540152309664,453.6519710182814 L37.95402704318815,450.9257444116927 L38.229215772382986,450.0497417046096 L39.42995887694008,448.298621141663 L41.731456898276406,447.12265387124546 L42.38182254444399,446.4475123909381 L44.032954919612735,442.94527126504414 L44.68332056578066,440.8437496192644 L45.559323272863594,440.1181716194583 L48.6111751281457,438.79177964176375 L51.0630978567587,438.21662634923433 L51.76301517120595,437.5910365372065 L52.81421841970564,434.03835889181414 L54.5149024631537,429.660999910057 L54.715763689929304,428.1850680763051 L55.816518606708485,426.15875878416347 L58.31799300360109,422.830833348467 L60.419514649380915,420.904512244104 L62.621024482939276,419.60378095176816 L63.496142338803,418.82865128368286 L64.74732196285885,416.6014807647658 L64.99773485791394,415.4511741797069 L66.19847796247137,412.9488149315952 L68.32477544239094,410.37212818106394 L70.35108473453238,407.49547686719853 L71.45183965131162,405.5187192433361 L74.75410440164882,401.9917022833031 L76.10527221348292,401.4413248249137 L79.65794985887527,401.29090011763674 L83.61058025538011,401.6917377199686 L87.81362354694005,403.29243357563826 L93.64213852830983,403.49240995119476 L95.24371923519902,404.1179997632226 L99.74672709009337,405.19397884586186 L102.40039589670147,406.4053401650506 z"/>
	<path id="burdur-cavdir" title="Çavdır" class="district" d="M108.31474144634092,426.959549137608 L107.95549185131512,424.48196572363577 L106.46894180293174,421.76193307558196 L105.68673332509178,418.6906144934757 L104.5523540619804,416.22630384779256 L103.84801249143675,415.2671251260979 L103.6321087939333,414.1911460434583 L103.55424188663727,410.6703230419599 L103.20207110136533,409.37932511303654 L102.34111086501014,408.20512754505785 L102.40039589670147,406.4053401650506 L104.3320261083806,406.21067289681014 L106.43089320050285,406.21067289681014 L113.80878266682436,405.09753006296086 L116.76595544164411,403.8888232974305 L118.3878877265766,401.31302139811845 L118.76925860208428,399.59641003272344 L121.63175229644133,396.44810939454027 L121.91755924026762,395.5252095728357 L122.10868710363098,392.85472859306105 L122.49005797913901,390.1833627620679 L123.82529846902617,386.8757889044148 L125.57464932953451,383.4098266785116 L125.47908539785271,381.5339420936466 L123.95271704460185,379.97571909650196 L122.23610567920701,379.2758017820552 L119.53288520431926,378.67144839928955 L118.29232379489463,377.49459627765276 L117.11547167325807,376.9858068265692 L116.19345670277255,376.09564649997776 L115.65281260779523,374.5055688589392 L114.66708834952186,372.788072642325 L110.34282044092117,369.16283719695184 L107.76701854160939,366.42864692938974 L103.69581808172131,359.9090631457659 L100.10243728024227,355.74318360541565 L96.85945756159657,352.65859225502 L95.74631472774752,349.0652114535411 L94.31551030617857,345.21787835212973 L93.29704655279238,342.8641741088562 L92.8838210333904,339.3663572390591 L90.88051787295024,333.3564477577381 L87.95519974202443,325.94670364752255 L86.04746051326583,324.3884806503779 L84.20254572107575,319.5226837955802 L82.83545058729447,316.6929295963363 L82.2222486923364,315.97354555506513 L86.88806917157774,312.45183770234746 L88.94800281005178,311.06881524661964 L91.31409497039516,309.1628457202992 L95.8967394350243,306.0844483284392 L97.63370237846277,307.55684075731386 L98.89903962202732,309.8123265152479 L98.89903962202732,312.56332895597643 L99.11936757562694,314.32329803111566 L100.24666802898417,316.82742698166646 L101.51200527254872,318.9174455615956 L103.1357072599198,322.10910390952336 L107.59181800019263,324.4468808308501 L110.42511160431383,325.6024965232243 L112.95578609144252,327.0049857057762 L115.48646057857128,328.6561180809449 L118.65068853870139,331.07618616566435 L121.51141253061996,334.7624763451673 L122.00692921341442,336.0835592155461 L123.43684878376416,338.64166409047226 L125.52775221491282,342.0253351529831 L127.06827818767204,344.94091992049664 L128.1132874776368,346.34429395426775 L129.26890317001084,348.98468999258694 L132.21191832532213,353.3585095694674 L132.70743500811642,353.8540262522615 L134.41254330766094,354.5415556496388 L137.05382419719933,355.88918405659615 L139.3924859697451,356.90764780998217 L144.70159328539978,359.6860806385081 L146.35184080934908,360.26388848469526 L149.02055208668492,360.923987494275 L151.46805055920174,361.3088977746602 L153.66956039275982,361.3637585502554 L155.15434073870472,361.6663776672475 L159.0335284840097,361.88670562084724 L165.74512498221657,363.4272315936066 L167.67144608657998,363.64667469598686 L169.89950145671656,364.417380107976 L170.94451074668115,365.6278565759451 L172.56732788283318,368.2408222264665 L175.34576071135876,371.15729184519955 L178.15162392768252,374.7878363978881 L180.35313376124054,377.12649817043405 L181.7556229437928,378.2537986237913 L183.40587046774192,379.1067951991734 L187.44964053983227,380.70218194752766 L189.11404568329039,380.97560097428385 L189.642301861198,382.30199295197804 L191.73674469722363,384.7733824074154 L193.10207012856625,385.80865833396814 L195.0319306378069,386.867825243441 L197.3343135103624,387.8491252456181 L200.15875860229062,390.264769074241 L203.07257366736565,395.2862997436311 L203.65834517452652,396.66755249692085 L203.6999331818323,400.3910064276331 L203.44863543555817,402.023556927197 L201.1055494069157,404.74270472403157 L200.60383876558632,405.74701085790923 L200.50385057780807,408.529867942532 L200.62949945094533,409.8164416153589 L200.03310972915335,412.2011156513071 L199.2172769049812,413.6451928411651 L197.11487040798187,415.30871313340367 L194.4470439818656,416.50060772576836 L191.05806381203905,418.41542576428105 L189.80245993188686,418.82334217636713 L187.32399166669535,419.98426697605674 L185.18973052580208,420.67445092709204 L181.45477352923916,422.40079565589923 L177.28093032791514,423.9696368676749 L176.65357081344882,425.1624163112588 L175.0847296016728,426.8259366034974 L171.22412373197227,428.99116753706505 L169.60396114947827,429.6893151490737 L166.99188035017613,429.97158268802286 L163.79048863883622,430.6776939610046 L161.01294066152985,432.30228079959505 L159.1538682498312,434.3029294063777 L158.14159845497977,434.7736702550324 L154.18719835603633,437.15038063000725 L152.64313297840005,437.9228557444348 L151.8980882517697,437.37159343482625 L148.4604412648834,433.7835217406631 L145.39089238521564,432.3128990142265 L143.14248543703593,430.8431611390095 L142.36470121529265,429.8052306587991 L140.7215325010975,428.7460637493255 L139.5322924623909,428.4655659128151 L138.3218159944214,428.98408872731085 L135.85750534873858,429.4592538320621 L134.84169614900986,429.4813751125438 L131.70666827911583,429.0486828663183 L129.84759586741723,428.03287366658964 L126.4320701610128,427.60018142036375 L119.53553975797712,427.643539130108 L117.02787140254952,427.8169699690863 L115.29798726886537,426.9949431863792 L113.22301115966366,426.5843722206351 L112.01253469169433,426.5843722206351 L108.31474144634092,426.959549137608 z"/>
	<path id="burdur-bucak" title="Bucak" class="district" d="M539.0948241873461,226.96901596177133 L539.3328491653315,227.22385311292274 L539.5620256311239,232.83469469435062 L539.8734932603089,233.3956903673717 L543.2403521496534,235.4175754034169 L544.4207436761671,236.60858514456197 L545.4462862393079,237.77570390278652 L546.7859509852913,239.74184331201755 L547.3796861534255,241.41332726522919 L548.4795562189853,243.00959886480302 L550.005924572236,244.05372330354837 L551.6579417986239,244.8394711862654 L554.0682765199311,246.41273665413757 L555.4194443317654,247.6382555928346 L556.5971813046214,249.35929121432576 L557.6244935702007,251.90146876730546 L558.6049087211582,253.19689095232496 L560.4206234231119,254.65689546413012 L561.0869163912266,256.06469375399774 L562.4929449786562,260.7287445308005 L562.9256372248819,262.6497565278482 L563.2371048540671,265.6883356148412 L562.7389336176145,268.8136301213234 L562.6681455200726,272.70432093247905 L562.8132611200339,274.60321164904497 L563.4184993540184,275.7287423999638 L564.5971211780936,276.413617243683 L568.1356412039776,277.25776530687244 L570.3566177643601,277.94440985303015 L572.6926249832479,277.8762763091462 L574.5702792705514,277.30377757027475 L576.5850854968423,277.80725791404257 L578.4627397841455,279.3876021916693 L580.5545280665134,279.691106159881 L582.3773215782213,280.62285449377816 L584.5938738825075,281.20154719118455 L586.9307659526147,282.68013357859417 L592.1239577585443,283.43845107351376 L593.2220581216657,283.8782221294938 L594.1210669604498,284.85686757801284 L596.2986858110876,286.0947744337794 L597.4569560571196,287.61317912605705 L598.0356487545258,289.4306635304492 L599.1346339688664,291.12869302023967 L599.6336900565378,294.32389077304435 L598.9744758981773,295.08309311918316 L597.2171613766957,295.48216101907633 L594.2644128579722,297.1731116991123 L591.6815321489063,297.8924957403838 L588.9119478325733,298.98440214496986 L585.7158652285488,301.30094263703404 L585.0770026482318,302.4733705025743 L584.7035954336974,304.55011631421473 L585.3433428652338,307.55949531097156 L585.5026160847035,310.3025340907267 L583.932005170489,311.7404173220497 L582.4666915513681,312.43237097552344 L580.4695823494627,314.24366142138103 L580.3899457397281,315.3886588991238 L579.8041742325676,316.2142250867082 L577.9663382501315,316.6938144475555 L576.2886603383848,318.0786066057225 L576.8478863089672,319.25014962004354 L576.8744318455454,320.23587387831674 L576.1559326554934,322.68602690449126 L575.3029360801116,323.67086631154524 L572.2404660101981,323.8310243822341 L570.9361953129853,324.89550039902304 L568.8320191135479,327.2660168154629 L568.7258369672346,328.0650374664687 L567.6339305626482,329.4763751612136 L565.9022767265257,330.06214666837445 L562.2540351494515,330.488644956065 L560.8426974547067,331.1009619998041 L559.0853829332251,331.473484363119 L556.5626721070698,331.61506055820337 L554.2558649784174,332.2972808482649 L551.9446335936693,334.29527490138946 L549.1485037407577,336.016310522881 L547.5955898509288,336.5817304519982 L544.9357270857856,336.72242179586306 L543.4766074252,336.08709862042303 L542.1581791084789,335.8517281960957 L540.2283185992386,336.157886717965 L537.8038262584231,336.98168320311095 L536.0155419442665,337.8054796882568 L534.8386898226297,338.6292761734024 L533.591049603451,338.8407556148092 L529.870250226396,338.5107061100193 L527.8005832245102,338.1585353247477 L526.882992510121,337.4993211663871 L526.1299841225174,335.5694606571468 L524.6699796107126,334.36871755258954 L522.5286396600649,334.5102937476736 L519.4219270291878,335.02793171094976 L516.5266938397173,335.80483108147416 L514.7375246743418,335.80483108147416 L511.1131740801882,334.86334938416474 L507.7472000420629,334.7686703037019 L504.7342816404289,334.25103234042604 L498.37928018359037,333.82718860639284 L491.3659494196103,333.89797670393483 L489.4590950420709,334.0395528990189 L481.83344723435243,333.3334416260368 L480.06816905189703,333.38033874065866 L473.07784441961826,334.18024424288365 L471.61783990781305,334.5102937476736 L469.47649995716597,334.5332998793749 L465.92205260933486,335.02793171094976 L464.2983506219639,335.0518226938703 L460.9084856009184,335.4747815766843 L457.4257112018489,336.76931891048457 L456.17807098266985,336.93478608848943 L452.2944589812687,337.0754774323542 L448.99927304068547,336.72242179586306 L444.1980703248952,336.51094235445623 L441.7735779840797,336.1808928496663 L439.93751170408234,335.75793396685265 L437.13695759507425,335.4986725596048 L435.088527022451,335.522563542525 L431.5110735429189,335.1925140377351 L428.99278697286,334.43950565013154 L425.3914425104074,332.7919126798401 L423.01473213543295,331.2858959046327 L421.9316742430392,330.93284026814183 L419.7195461948497,329.52061772217735 L418.7302825316996,329.07288300522396 L412.940701003978,328.0845041932928 L411.3488536605007,327.36688985446006 L408.6102391368421,325.28395008428475 L406.63259666176066,323.6124661310731 L405.07968277193174,322.8824638751705 L403.0312521993085,321.40033808288365 L401.38365922901664,320.5526506148172 L397.87699384702694,319.3050103956384 L395.35870727696806,318.7165843348199 L391.9458361242213,316.90440903774345 L388.32060067884856,316.50445628663044 L386.69689869147726,315.84524212827023 L385.0731967041063,312.8323237266361 L381.8249078781449,311.30241596850817 L378.5297219375617,310.17334581271245 L374.1284719728841,308.9964936910754 L372.4339818879711,309.4672345397301 L369.72722200820635,309.5371377860532 L366.6904126236518,309.9609815200861 L360.0770346107847,309.0194998227767 L354.2396711172221,308.2664914351732 L348.2616162797947,305.583622538329 L347.01397606061585,304.5244556288558 L345.3663830903248,303.77056239003264 L343.71879012003296,302.4061218099092 L342.4003618033122,300.8054259542396 L339.2936491724348,297.79250755260557 L337.504480007059,296.497970218805 L336.4223069658848,295.9803322555284 L333.60936493980694,296.1378357725599 L333.3509883837786,295.41845173128877 L333.91817801533466,294.3318544340177 L334.74108964926097,290.8331527130014 L337.6230500704421,286.600024479986 L338.44596170436876,285.717827814368 L339.44584358215025,284.1012046367512 L340.06258488198546,281.36612951796985 L341.5040075181855,278.7797094040267 L341.65089282058557,278.01519795057254 L341.6800929108215,274.8102668343557 L341.85617830345745,274.2519257149926 L343.70905675662084,272.0167915351018 L345.2964798440016,271.2823650231031 L346.6777325972911,271.54693553766634 L348.70669644309066,271.1053947792479 L351.1763161960896,271.2823650231031 L355.057273643833,272.193761778957 L358.75064263309014,272.73706042759255 L361.5290754616161,272.25216195942915 L363.4695541854878,271.70089964982026 L364.2411444486962,270.13559784292147 L364.4402359730335,266.78378142430455 L365.14546239479625,265.2627221783696 L366.95321343577655,263.85138448362466 L367.1744262405956,261.93302704023506 L367.4611180356409,261.5136075622983 L371.14298395904746,259.132472931227 L373.4807608803741,258.5812106216181 L379.30219705198965,258.8457811361817 L382.9840629753961,258.6688108923265 L384.2635578384687,258.1175485827176 L385.63065297225023,256.8610598513462 L386.22615784282254,255.49396471756512 L385.80673836488586,253.244672918166 L386.11555144041324,252.05366317702092 L387.34372493276794,250.6750649773892 L388.8054991470116,248.30543341216858 L390.0849940100843,246.82773187597817 L390.9884271049648,246.27646956636892 L392.9510271093186,245.85793493965176 L396.67802044490804,246.14462673469708 L398.0672368591712,245.90217750061555 L402.21276482147823,246.32071212733305 L404.3735714989498,246.74013160526945 L406.6883422885752,247.79841366352346 L409.11460433182947,249.62828598498584 L410.56929973631895,250.33439725796788 L411.84879459939157,250.42199752867626 L415.1784897375261,250.06982674340463 L418.0887653977243,250.26803341652203 L420.51414258975933,250.17954829459475 L421.7493948918683,249.76101366787725 L422.6094702770042,249.0549023948952 L425.58610977864817,247.70992854159587 L428.0778508121289,246.12250545421534 L430.8341623601731,243.69712826218026 L432.8852474864541,241.35935134085355 L433.98777210567187,239.37463005601802 L436.4795131391526,237.61112157600118 L437.758123151006,236.3758692738923 L438.7721626482959,234.69996106458382 L439.2570611164592,232.89221002360352 L440.6905200916858,229.03337385634183 L441.55059547682185,228.2839048736152 L444.06445779078456,227.44595076896098 L446.9092544607563,227.22473796414198 L452.2077435617796,225.24090153052566 L452.67671470799576,224.9409369671916 L454.53844167335217,222.79251820678962 L457.53720245547754,221.38206536326396 L459.3458383476774,221.2493376803729 L461.5287663056306,221.97668538261746 L463.84353709525635,222.35186229959038 L465.9609860629829,222.10941306550887 L468.3642419745363,221.44754435349063 L476.5889340577045,219.48494434913684 L479.65405868127607,217.9196425422377 L485.320645889518,214.41386201146722 L486.2249638356178,214.0829276554581 L490.5686984710429,213.26709483128593 L491.73758693170623,213.26709483128593 L493.78867205798736,213.99444253353084 L494.93543923816856,214.65631124554875 L495.90523617449503,214.7881540772209 L499.96227901487475,216.06764894029362 L500.82235440001034,216.06764894029362 L505.29881671832686,217.5232291960026 L506.7986395349993,218.3169407396927 L512.6855546968411,220.41138357571867 L514.472069308559,221.4033017925268 L516.4125480324307,223.38802307736233 L518.9918893366196,224.44630513561634 L520.9544893409734,224.8878458940348 L523.9753714035809,225.21878025004395 L527.6581221782066,226.0346130742161 L529.8189288556781,227.00441001054253 L530.8772109139321,227.11501641295217 L534.6926893714492,226.78408205694274 L539.0948241873461,226.96901596177133 z"/>
	<path id="burdur-merkez" title="Merkez" class="district" d="M390.03190293692785,117.24215566425818 L391.4901377462942,116.95457901799362 L392.9067845483547,117.42708956908645 L395.06582152338785,119.4737504392717 L398.3725105298214,121.70092095818873 L400.75718456576953,123.16269517243235 L401.52523542410097,123.92809147710577 L402.24108006049494,124.55722069401087 L403.9054852039527,126.8286337738917 L407.52718124444857,130.40520240220457 L409.1694651074247,133.3968843745761 L409.5517208341514,136.56819114446057 L409.5738421146335,140.07751108010834 L409.3942173171206,140.8199012530808 L409.84372173651286,143.02406564029687 L410.6533606021501,145.79011055175292 L411.1709985654262,149.23218179473557 L412.00275871154554,151.43634618195165 L413.6680487062225,153.7750079544976 L414.07242571343136,154.85541129323335 L415.1068167887652,155.9349297807495 L415.9615830665855,156.18180327092784 L418.97627117065804,157.71171102905546 L420.25842058738874,157.95858451923345 L422.3050814575736,158.8584782092371 L425.5887643323059,160.99539390378771 L427.43279427327695,161.49002573536296 L430.4926097895325,163.87469977131116 L432.67376804504727,164.0543245688244 L435.1035694931785,164.03220328834266 L437.0148481268143,164.27907677852033 L439.1517638213653,165.35948011725606 L441.7381839353085,165.75943286836875 L440.51708925270793,169.10505532845073 L439.1376062018569,170.40578662078593 L437.4298433486546,170.87652746944065 L434.9849994297957,172.08257968131363 L432.0543721915543,172.19230123250372 L431.38011556246624,171.92596101550203 L429.65642538731674,172.02064009596424 L428.10528119992625,173.11697075664677 L425.5188610859831,175.23265002193526 L423.70137668159066,177.6624514700665 L423.184623569534,179.9188220792201 L423.01207758177486,181.70533669093788 L421.6954189674926,184.49527258531413 L421.96175918449467,187.55066384547357 L423.1368416036929,190.29370262522866 L423.4660062572633,194.22686629490963 L423.8420680254558,195.37097892143322 L424.20308732292006,198.6307708132453 L423.70137668159066,200.6057587346686 L422.7457373647728,202.51703736830444 L422.96518046715346,204.0372117630202 L421.8051405186827,206.9996936451555 L421.2432599944427,207.31293097677906 L417.02251967849713,208.12787894973198 L411.75677007258673,208.06505451316337 L406.8051426495198,208.12787894973198 L403.3152894406958,208.69152917641077 L400.2855588658956,209.69495045906956 L397.92389096164845,210.96913621482656 L396.6700567839347,211.9937939267482 L390.88224495865165,215.23234938929738 L388.8762872445536,216.02606093298783 L386.13944242333343,217.84443018859957 L385.0731967041063,219.5362657198548 L384.2166607238473,221.83510918753342 L384.04942384340393,225.38778683292577 L383.79901094834906,226.6832090179456 L383.10882699731405,228.56351785890638 L382.4823523340667,233.36914483079318 L381.6045799245452,238.00841977345618 L381.43734304410214,240.4948516996211 L381.6461679318512,243.378581823241 L382.4823523340667,248.91598075346886 L383.3804763216318,249.64686786059065 L384.99002068949414,250.16981493118254 L387.34372493276794,250.6750649773892 L386.11555144041324,252.05366317702092 L385.80673836488586,253.244672918166 L386.22615784282254,255.49396471756512 L385.63065297225023,256.8610598513462 L384.2635578384687,258.1175485827176 L382.9840629753961,258.6688108923265 L379.30219705198965,258.8457811361817 L373.4807608803741,258.5812106216181 L371.14298395904746,259.132472931227 L367.4611180356409,261.5136075622983 L367.1744262405956,261.93302704023506 L366.95321343577655,263.85138448362466 L365.14546239479625,265.2627221783696 L364.4402359730335,266.78378142430455 L364.2411444486962,270.13559784292147 L363.4695541854878,271.70089964982026 L361.5290754616161,272.25216195942915 L358.75064263309014,272.73706042759255 L355.057273643833,272.193761778957 L351.1763161960896,271.2823650231031 L348.70669644309066,271.1053947792479 L346.6777325972911,271.54693553766634 L345.2964798440016,271.2823650231031 L343.70905675662084,272.0167915351018 L341.85617830345745,274.2519257149926 L341.6800929108215,274.8102668343557 L341.65089282058557,278.01519795057254 L341.5040075181855,278.7797094040267 L340.06258488198546,281.36612951796985 L339.44584358215025,284.1012046367512 L338.44596170436876,285.717827814368 L337.6230500704421,286.600024479986 L334.74108964926097,290.8331527130014 L333.91817801533466,294.3318544340177 L333.3509883837786,295.41845173128877 L330.9963992892855,293.3160452342894 L330.15490577975436,291.66225830546273 L330.2389666455855,289.92352565958595 L329.3983579872736,288.0175561332658 L328.52943408994497,287.0362561310891 L324.9130471567645,283.95254963191303 L323.370751481567,280.7564670278888 L319.52961233869087,278.7098061577039 L317.82007978305,277.02770398986047 L315.1283623740129,273.04675835433886 L313.58606669881544,270.41167142333575 L312.82951890633433,268.84106050912123 L312.46496020399275,266.4581561756111 L309.9979950046519,261.4684801501153 L307.6708362979566,258.86082360690926 L304.9233732621053,256.0292997052269 L303.63414503562046,254.54363450806275 L301.7556058970981,253.14203017673006 L298.7559602637532,249.27257579483697 L294.8307602550457,246.1605540566442 L293.03628198235447,245.23588453250082 L289.6446472588706,244.73063448629418 L284.34527330662775,244.31033015713822 L280.67314074663307,243.72190409632 L277.0001233354193,242.5441671234637 L275.0100929432683,242.1796084211222 L272.1502538025686,242.1796084211222 L270.66458860540445,242.46010625763256 L266.20670816269353,244.56251275463194 L260.79584295682184,246.49768237118792 L257.59976035279794,247.45066713434798 L253.0587038954743,249.04870843635993 L249.46974735009167,248.62751925598474 L244.28363435391623,246.74986496868163 L242.37677997637684,244.95538669599046 L239.88149953801928,243.04853231845112 L239.30103713817448,242.3353422357149 L239.0612424577506,239.85333456564612 L239.42137690399568,235.45119974974892 L238.97629674070026,231.56935745078624 L238.7957870919679,227.63707863232486 L238.91612685778932,225.02499783302272 L239.45677095276687,221.75370287535998 L239.45677095276687,219.95214579291428 L238.34628267257563,217.10115516440788 L237.1526183777729,214.63949907238236 L237.53044984840346,211.9557453243193 L238.14188204092295,210.1223335979797 L240.87518745726595,206.7422019403461 L241.1592246986536,206.19536388683366 L241.92816040820423,202.7975352048148 L241.52289854977585,199.6014526007906 L240.34958583301636,196.44607315285327 L240.49116202810035,194.72680723380023 L240.26906437206208,189.85216186680987 L240.04696671602392,188.76025546222348 L238.12506986775668,185.03857123394965 L237.11368492412475,183.7838522050164 L236.78982937786986,182.69194580043032 L236.72965949495892,180.10287113282914 L236.93140557295385,178.40395679182006 L238.06401513362675,176.3811869045553 L238.9745270382615,173.46825669069952 L240.34958583301636,170.9402367572285 L241.86710567407408,169.7262208843821 L242.65550811044875,168.4520351286251 L243.9305787174253,165.6205112269424 L244.25354941246076,163.3544072543773 L243.97039702229267,161.91829372549265 L244.13232479542,157.79223249000967 L243.72794778821117,151.96725691351696 L243.2828676249154,150.61166484558652 L241.1592246986536,146.8696290392691 L240.59291991831708,145.5954432835121 L239.2373278503867,144.26020279362498 L237.82156589954525,141.54990350898302 L236.75001107300216,137.90874074166342 L236.95175715099708,136.45316048595475 L237.45789204842265,135.07721683998105 L237.7003412825045,133.39865407701458 L237.44373442891435,130.2609716534625 L241.49104390588195,129.82562485357897 L244.74641154159747,129.04430122695842 L249.66883887442896,128.47180248808735 L252.8197940662701,128.3673900442126 L254.77266070721168,128.47180248808735 L256.1008223873447,128.88856741236606 L258.52266017450245,130.60694848019952 L259.6950880400427,131.64841836528717 L261.23118975670536,132.32621439925256 L264.46089670706226,132.79430069424924 L268.2241689426419,132.84208266009028 L272.68381908779224,132.69431250647096 L277.49564001821375,131.52807859946566 L282.95428718992616,128.78946407580736 L287.4148221862955,126.90119157387251 L291.56035014860254,124.1811589258187 L292.3071645776711,125.33677461819295 L294.73608117458343,126.933931068986 L296.4234924497422,128.95847065868884 L297.8622605322845,129.9477343218393 L300.2239284365314,131.20776245808761 L302.04583709702035,132.66953667233122 L304.31813502812076,133.63667905499995 L308.47959031237497,132.87216760154575 L310.95363432146996,132.8500463210637 L313.17991998916784,133.88443739639717 L314.2824446083856,134.82857364736427 L319.2146053046289,136.75577960294686 L325.57226131512505,138.1157959269741 L327.93127466571457,138.39540891226525 L330.97073860392686,138.3555906073976 L334.92956295896647,137.9556378562849 L339.68740796501254,135.83641918611954 L343.16664295920486,135.0763319887615 L352.76373928347016,133.55704244526498 L361.12115904953,130.91753125816538 L367.4788150600265,127.99840708577462 L374.55673996301334,124.48023863793391 L382.3142306024041,121.24079832416545 L387.63218643025175,118.60217198828475 L390.03190293692785,117.24215566425818 z"/>
	<path id="burdur-celtikci" title="Çeltikçi" class="district" d="M387.34372493276794,250.6750649773892 L384.99002068949414,250.16981493118254 L383.3804763216318,249.64686786059065 L382.4823523340667,248.91598075346886 L381.6461679318512,243.378581823241 L381.43734304410214,240.4948516996211 L381.6045799245452,238.00841977345618 L382.4823523340667,233.36914483079318 L383.10882699731405,228.56351785890638 L383.79901094834906,226.6832090179456 L384.04942384340393,225.38778683292577 L384.2166607238473,221.83510918753342 L385.0731967041063,219.5362657198548 L386.13944242333343,217.84443018859957 L388.8762872445536,216.02606093298783 L390.88224495865165,215.23234938929738 L396.6700567839347,211.9937939267482 L397.92389096164845,210.96913621482656 L400.2855588658956,209.69495045906956 L403.3152894406958,208.69152917641077 L406.8051426495198,208.12787894973198 L411.75677007258673,208.06505451316337 L417.02251967849713,208.12787894973198 L421.2432599944427,207.31293097677906 L421.8051405186827,206.9996936451555 L422.96518046715346,204.0372117630202 L425.1587266397381,204.29647317026806 L428.28402114621997,204.44689787754473 L431.13501177472665,205.74674431866103 L433.28608508878597,207.3978766938294 L435.5619224247637,208.67294730080596 L440.4383374941922,210.8983481172845 L442.9893635593645,212.4990439729545 L444.38919818825866,213.675011243372 L445.74036600009265,215.80042387207232 L447.1154247948474,218.72662685421759 L448.77540568220877,220.94583371216123 L450.3699075793438,222.54033560929625 L452.2077435617796,225.24090153052566 L446.9092544607563,227.22473796414198 L444.06445779078456,227.44595076896098 L441.55059547682185,228.2839048736152 L440.6905200916858,229.03337385634183 L439.2570611164592,232.89221002360352 L438.7721626482959,234.69996106458382 L437.758123151006,236.3758692738923 L436.4795131391526,237.61112157600118 L433.98777210567187,239.37463005601802 L432.8852474864541,241.35935134085355 L430.8341623601731,243.69712826218026 L428.0778508121289,246.12250545421534 L425.58610977864817,247.70992854159587 L422.6094702770042,249.0549023948952 L421.7493948918683,249.76101366787725 L420.51414258975933,250.17954829459475 L418.0887653977243,250.26803341652203 L415.1784897375261,250.06982674340463 L411.84879459939157,250.42199752867626 L410.56929973631895,250.33439725796788 L409.11460433182947,249.62828598498584 L406.6883422885752,247.79841366352346 L404.3735714989498,246.74013160526945 L402.21276482147823,246.32071212733305 L398.0672368591712,245.90217750061555 L396.67802044490804,246.14462673469708 L392.9510271093186,245.85793493965176 L390.9884271049648,246.27646956636892 L390.0849940100843,246.82773187597817 L388.8054991470116,248.30543341216858 L387.34372493276794,250.6750649773892 z"/>
	<path id="burdur-golhisar" title="Gölhisar" class="district" d="M82.2222486923364,315.97354555506513 L82.83545058729447,316.6929295963363 L84.20254572107575,319.5226837955802 L86.04746051326583,324.3884806503779 L87.95519974202443,325.94670364752255 L90.88051787295024,333.3564477577381 L92.8838210333904,339.3663572390591 L93.29704655279238,342.8641741088562 L94.31551030617857,345.21787835212973 L95.74631472774752,349.0652114535411 L96.85945756159657,352.65859225502 L100.10243728024227,355.74318360541565 L103.69581808172131,359.9090631457659 L107.76701854160939,366.42864692938974 L110.34282044092117,369.16283719695184 L114.66708834952186,372.788072642325 L115.65281260779523,374.5055688589392 L116.19345670277255,376.09564649997776 L117.11547167325807,376.9858068265692 L118.29232379489463,377.49459627765276 L119.53288520431926,378.67144839928955 L122.23610567920701,379.2758017820552 L123.95271704460185,379.97571909650196 L125.47908539785271,381.5339420936466 L125.57464932953451,383.4098266785116 L123.82529846902617,386.8757889044148 L122.49005797913901,390.1833627620679 L122.10868710363098,392.85472859306105 L121.91755924026762,395.5252095728357 L121.63175229644133,396.44810939454027 L118.76925860208428,399.59641003272344 L118.3878877265766,401.31302139811845 L116.76595544164411,403.8888232974305 L113.80878266682436,405.09753006296086 L106.43089320050285,406.21067289681014 L104.3320261083806,406.21067289681014 L102.40039589670147,406.4053401650506 L99.74672709009337,405.19397884586186 L95.24371923519902,404.1179997632226 L93.64213852830983,403.49240995119476 L87.81362354694005,403.29243357563826 L83.61058025538011,401.6917377199686 L79.65794985887527,401.29090011763674 L76.10527221348292,401.4413248249137 L74.75410440164882,401.9917022833031 L71.45183965131162,405.5187192433361 L70.35108473453238,407.49547686719853 L68.32477544239094,410.37212818106394 L66.19847796247137,412.9488149315952 L64.99773485791394,415.4511741797069 L64.74732196285885,416.6014807647658 L63.496142338803,418.82865128368286 L62.621024482939276,419.60378095176816 L60.419514649380915,420.904512244104 L58.31799300360109,422.830833348467 L55.816518606708485,426.15875878416347 L54.715763689929304,428.1850680763051 L54.5149024631537,429.660999910057 L52.81421841970564,434.03835889181414 L51.76301517120595,437.5910365372065 L51.0630978567587,438.21662634923433 L48.6111751281457,438.79177964176375 L45.559323272863594,440.1181716194583 L44.68332056578066,440.8437496192644 L44.032954919612735,442.94527126504414 L42.38182254444399,446.4475123909381 L41.731456898276406,447.12265387124546 L39.42995887694008,448.298621141663 L38.229215772382986,450.0497417046096 L37.95402704318815,450.9257444116927 L38.0540152309664,453.6519710182814 L36.653295750852806,456.3038701224509 L36.37810702165791,458.48060412186953 L35.92771775104649,459.25661864117404 L32.324603586155604,462.758859767068 L30.723907730485678,464.5347561641543 L28.247209167732592,466.28587672710097 L26.50847652185587,467.77065707304587 L25.53867958552962,469.2156191141231 L23.031011230102024,467.6804022486798 L21.971844320628577,467.4432621219137 L19.031483718975494,467.5290926901836 L17.886486241232546,467.72375995842407 L16.048650258796556,468.89176356786817 L14.05950471786474,469.02095184588234 L10.384717604212426,469.02095184588234 L7.962879817054613,468.0918580656431 L5.477332742108899,465.6054261394779 L2.9103793549899706,465.037351656703 L3.2758229085505377,463.9958817716153 L4.244734993657573,462.5208347890826 L6.180789461433108,458.3708825706791 L7.806261151242666,455.63492260067846 L8.267268636485369,454.12890582547107 L9.558266565408701,451.1168722750562 L12.601269908498068,446.0449050861674 L13.647164049682203,443.7699526014093 L15.276175144368835,442.29402076765734 L17.335223931623602,441.06496242408303 L19.21022366526904,439.68193996835515 L21.823189315790387,436.33100840095784 L22.19217227422837,433.6569880163063 L22.161202481553687,430.3370262415836 L21.27015730374302,428.0620737568255 L18.135129433848988,423.54313857998403 L17.458218251103006,423.29803479224483 L12.509245381693688,423.0520461532861 L11.403181357598953,422.590153816824 L10.48028153589405,421.6380539048835 L10.38825700908933,420.50013523689483 L10.788209760202221,412.75414766335444 L10.911204079681227,412.3241099707863 L12.63223970117275,410.47919517859634 L20.194178221103755,406.60620139182635 L22.991192925234543,405.0081600898144 L25.174120883187925,404.51618281189684 L28.80112603099934,404.4542432265474 L32.674119817769565,404.577237546027 L35.37910999509563,404.4241582850923 L37.50009836769965,404.14719985345886 L39.31404336721488,403.5012584633877 L41.49608647394905,403.1632452976241 L42.78796925409182,402.3642246466183 L44.0170275976659,400.48922491297253 L44.140021917145134,399.50527035713816 L42.634005141937735,397.56921588936257 L41.957978810410964,395.9702897361314 L41.77304490558254,394.2802239073146 L41.650050586103134,388.962268079467 L43.0640428345057,384.59729701477943 L44.53997466825763,380.5393693231808 L45.67700848502711,378.4493507432516 L49.119964579229304,375.3444078148127 L50.44193230082715,373.9923551517592 L52.12226476623209,370.76441790384104 L52.33728361251599,366.307422312349 L52.275344027166625,363.878505715437 L52.583272251474796,361.7884871355078 L53.356632217121785,358.6207197705003 L53.65925133411406,357.23946701721087 L54.82725494355816,354.77958062762417 L56.51732077237466,350.5995434677652 L57.68620923303814,348.0786023440487 L58.27021103776025,345.9576139714445 L58.177301659736145,339.256635687869 L58.66927893765353,337.2276718420697 L61.251274795500365,332.24772917998536 L64.75617047505165,327.3606958959251 L68.7211887886267,324.1017888553323 L72.80920142168065,320.5977780270006 L73.91615029699477,319.9527214881483 L78.92617790053424,317.80076332286944 L82.2222486923364,315.97354555506513 z"/>
	<path id="burdur-karamanli" title="Karamanlı" class="district" d="M239.30103713817448,242.3353422357149 L239.88149953801928,243.04853231845112 L242.37677997637684,244.95538669599046 L244.28363435391623,246.74986496868163 L243.86686942963752,248.42931258286703 L243.7527236223509,251.03254486997653 L243.8438632979362,256.1717607515302 L244.0951610442106,258.98027852151154 L245.14194003661373,264.65217483706965 L248.36987728453187,269.4330259748167 L250.0139308499464,273.05649171775065 L251.17131624475905,275.0058189538154 L251.65798441536094,276.4065384339288 L251.84114861775106,278.20278640905883 L251.81017882507638,280.9130856937004 L251.96325808601102,282.1005560299689 L251.96325808601102,285.9071859752931 L252.08448270305178,292.3320906784547 L252.7658181418941,298.63577076457545 L252.51452039561957,299.93738690812995 L251.2819226471687,302.6556498537453 L250.13957972308322,304.57400729713527 L248.24422841139494,307.269264111049 L245.61710514136485,310.35208575900583 L243.95004544424933,313.22962192409113 L242.3741254227192,314.89668162120665 L240.98136960357908,315.90187260630387 L239.24529151136005,317.72909037410824 L237.48709213865925,319.1448523249496 L234.3352520955989,322.45685043869884 L232.82835046917182,323.20985882630237 L230.90910817456302,324.5804933649607 L229.94992945286765,325.97413403532 L228.65185271419045,327.1908044618244 L224.37448192021094,325.1724588306562 L219.63167938489278,323.94163078464373 L211.85737657233602,321.21009507073927 L206.2739653787056,318.8386938030802 L204.59363291330067,317.5176109327014 L202.88233065522132,316.8575119231216 L196.0680914155788,315.2966343723193 L193.54715029186195,315.2966343723193 L190.54573495607855,314.666620304195 L187.51334982762046,313.40570731672676 L184.0314602797701,311.00422110761224 L181.45034927314265,308.962869344743 L178.50821896905063,305.4208099139821 L174.96615953828973,299.0578447961699 L173.01506259978657,296.38559411395715 L169.59334293484687,292.663909885683 L167.94221055967847,290.4429333253006 L163.89047682661447,286.600024479986 L161.78895518083465,284.97986189749236 L160.1979926885769,284.10916829772464 L157.8566763623731,283.08804999068025 L156.0560041311466,282.0678165348554 L153.44392333184464,279.69641526719636 L149.00197021108028,274.8040728758207 L148.07110672840196,273.6626148029548 L146.2403495557205,272.10173725215213 L145.03960645116342,270.5107747598944 L143.39997714184517,268.9242365237331 L144.15210067822966,268.3897863872902 L146.4031621800674,267.6996024362553 L147.544620252933,266.97933354376494 L151.47601422017533,266.498859331698 L155.64897257027997,266.4687743902425 L157.63015445023854,266.01838511963115 L162.73309143180177,262.6869202790578 L163.7533248876269,262.2967008913573 L167.8059434719098,261.1561276697106 L170.74718892478268,261.27558258431293 L174.890062333432,261.6658019720138 L178.9117111250402,262.98688484239256 L182.21397587537763,263.4372741130037 L187.3169128569412,262.9567999009371 L191.78895091916115,262.6568353376024 L197.1626523738226,261.7560567963798 L200.5242021558517,261.4861771745009 L209.70984266315332,258.9041813166542 L214.81277964471718,257.1937639097938 L217.12401102946535,256.2027305442049 L221.6863039160511,253.92158410091182 L223.87719553497806,253.23140014987692 L226.84941078052555,250.67948923348536 L228.95093242630537,249.2690363899597 L231.14182404523228,248.0983782268579 L234.09811196883265,245.89686839329985 L235.33955822947655,244.61648867900757 L237.5401832118157,243.69624341096102 L239.30103713817448,242.3353422357149 z"/>
	<path id="burdur-kemer" title="Kemer" class="district" d="M333.3509883837786,295.41845173128877 L333.60936493980694,296.1378357725599 L331.1025814355987,296.2157026798561 L329.17272092635847,296.639546413889 L324.6068886348954,298.4278307280456 L322.9592956646037,299.25162721319145 L319.9693833946709,301.51153722722165 L319.26327212168883,302.5707041366949 L318.03952288543064,303.62987104616786 L316.5096151273026,304.5244556288558 L314.4355238693199,305.2482639262234 L312.0880135845814,306.81887484043784 L309.08659824879794,307.4895920646487 L306.03297669107735,308.93720865938405 L304.7800273645829,310.66709279306815 L303.73855747949483,313.3154524923607 L303.0324462065132,314.07376998728 L301.2140769509015,314.6568869407828 L299.48419281721704,314.8860634065752 L296.09432779617157,316.6159475402593 L293.0584032628361,317.2866647644705 L284.6558560845932,317.32205881324137 L282.2756063047415,316.96369406943484 L279.80421684930445,317.3866529522485 L276.7912984476701,317.3866529522485 L274.97912315059364,317.66980534241685 L272.013101863581,318.56350507388555 L266.24652646756044,319.22271923224577 L264.7644006752736,321.4357321316545 L262.2452292539955,323.3186955262736 L261.1161590981998,325.1777679379719 L260.4100478252178,325.5069325915425 L258.80935196954783,328.91980374428897 L258.1386347453366,329.9241098781673 L256.47511445309806,331.77610348011143 L254.21166503419056,335.2252535328482 L251.35978955446456,333.90771006734667 L248.05840965534674,332.9166767017581 L245.47641379750007,331.595593831379 L242.5351683446272,330.4550206097326 L240.0133423696915,329.6444968928762 L236.98184209245255,329.194992473484 L234.79095047352564,328.5640935541401 L228.65185271419045,327.1908044618244 L229.94992945286765,325.97413403532 L230.90910817456302,324.5804933649607 L232.82835046917182,323.20985882630237 L234.3352520955989,322.45685043869884 L237.48709213865925,319.1448523249496 L239.24529151136005,317.72909037410824 L240.98136960357908,315.90187260630387 L242.3741254227192,314.89668162120665 L243.95004544424933,313.22962192409113 L245.61710514136485,310.35208575900583 L248.24422841139494,307.269264111049 L250.13957972308322,304.57400729713527 L251.2819226471687,302.6556498537453 L252.51452039561957,299.93738690812995 L252.7658181418941,298.63577076457545 L252.08448270305178,292.3320906784547 L251.96325808601102,285.9071859752931 L251.96325808601102,282.1005560299689 L251.81017882507638,280.9130856937004 L251.84114861775106,278.20278640905883 L251.65798441536094,276.4065384339288 L251.17131624475905,275.0058189538154 L250.0139308499464,273.05649171775065 L248.36987728453187,269.4330259748167 L245.14194003661373,264.65217483706965 L244.0951610442106,258.98027852151154 L243.8438632979362,256.1717607515302 L243.7527236223509,251.03254486997653 L243.86686942963752,248.42931258286703 L244.28363435391623,246.74986496868163 L249.46974735009167,248.62751925598474 L253.0587038954743,249.04870843635993 L257.59976035279794,247.45066713434798 L260.79584295682184,246.49768237118792 L266.20670816269353,244.56251275463194 L270.66458860540445,242.46010625763256 L272.1502538025686,242.1796084211222 L275.0100929432683,242.1796084211222 L277.0001233354193,242.5441671234637 L280.67314074663307,243.72190409632 L284.34527330662775,244.31033015713822 L289.6446472588706,244.73063448629418 L293.03628198235447,245.23588453250082 L294.8307602550457,246.1605540566442 L298.7559602637532,249.27257579483697 L301.7556058970981,253.14203017673006 L303.63414503562046,254.54363450806275 L304.9233732621053,256.0292997052269 L307.6708362979566,258.86082360690926 L309.9979950046519,261.4684801501153 L312.46496020399275,266.4581561756111 L312.82951890633433,268.84106050912123 L313.58606669881544,270.41167142333575 L315.1283623740129,273.04675835433886 L317.82007978305,277.02770398986047 L319.52961233869087,278.7098061577039 L323.370751481567,280.7564670278888 L324.9130471567645,283.95254963191303 L328.52943408994497,287.0362561310891 L329.3983579872736,288.0175561332658 L330.2389666455855,289.92352565958595 L330.15490577975436,291.66225830546273 L330.9963992892855,293.3160452342894 L333.3509883837786,295.41845173128877 z"/>
	<path id="burdur-tefenni" title="Tefenni" class="district" d="M143.39997714184517,268.9242365237331 L145.03960645116342,270.5107747598944 L146.2403495557205,272.10173725215213 L148.07110672840196,273.6626148029548 L149.00197021108028,274.8040728758207 L153.44392333184464,279.69641526719636 L156.0560041311466,282.0678165348554 L157.8566763623731,283.08804999068025 L160.1979926885769,284.10916829772464 L161.78895518083465,284.97986189749236 L163.89047682661447,286.600024479986 L167.94221055967847,290.4429333253006 L169.59334293484687,292.663909885683 L173.01506259978657,296.38559411395715 L174.96615953828973,299.0578447961699 L178.50821896905063,305.4208099139821 L181.45034927314265,308.962869344743 L184.0314602797701,311.00422110761224 L187.51334982762046,313.40570731672676 L190.54573495607855,314.666620304195 L193.54715029186195,315.2966343723193 L196.0680914155788,315.2966343723193 L202.88233065522132,316.8575119231216 L204.59363291330067,317.5176109327014 L206.2739653787056,318.8386938030802 L211.85737657233602,321.21009507073927 L219.63167938489278,323.94163078464373 L224.37448192021094,325.1724588306562 L228.65185271419045,327.1908044618244 L234.79095047352564,328.5640935541401 L236.98184209245255,329.194992473484 L240.0133423696915,329.6444968928762 L242.5351683446272,330.4550206097326 L245.47641379750007,331.595593831379 L248.05840965534674,332.9166767017581 L251.35978955446456,333.90771006734667 L254.21166503419056,335.2252535328482 L253.0542796393779,337.3931390200743 L251.76770596655103,338.2408264881403 L249.13173418432837,340.8458284776883 L248.03274896998812,343.38712117944846 L247.2797405823842,344.3914273133262 L245.428631831659,346.14874183480805 L243.13775202495412,347.62378881734077 L241.78835391555867,348.3148576195953 L239.09309710164462,348.5732341756236 L236.8570780705346,348.95018079503495 L233.02036318375463,350.29161524345704 L231.70281971825307,350.99772651643946 L230.4312885161538,351.3038850383088 L226.383094187967,353.3514307597129 L223.18170247662738,355.7520321176082 L220.9226773138161,356.9757813538665 L218.1920264511312,357.77657170731106 L215.29679326166098,359.1887942532752 L212.496239152653,361.8486570184184 L210.51948152879083,363.4723590057897 L209.22494419499026,364.2492583763134 L204.75290613277025,365.9198574783062 L203.481374930671,366.72064783175074 L200.8454031484486,369.1442553213474 L199.55086581464803,370.6042598331522 L196.2087827594433,372.91018211058497 L193.5958171089219,375.216989239237 L192.2543826604998,376.67610889982296 L189.665307992899,379.9482887087045 L189.11404568329039,380.97560097428385 L187.44964053983227,380.70218194752766 L183.40587046774192,379.1067951991734 L181.7556229437928,378.2537986237913 L180.35313376124054,377.12649817043405 L178.15162392768252,374.7878363978881 L175.34576071135876,371.15729184519955 L172.56732788283318,368.2408222264665 L170.94451074668115,365.6278565759451 L169.89950145671656,364.417380107976 L167.67144608657998,363.64667469598686 L165.74512498221657,363.4272315936066 L159.0335284840097,361.88670562084724 L155.15434073870472,361.6663776672475 L153.66956039275982,361.3637585502554 L151.46805055920174,361.3088977746602 L149.02055208668492,360.923987494275 L146.35184080934908,360.26388848469526 L144.70159328539978,359.6860806385081 L139.3924859697451,356.90764780998217 L137.05382419719933,355.88918405659615 L134.41254330766094,354.5415556496388 L132.70743500811642,353.8540262522615 L132.21191832532213,353.3585095694674 L129.26890317001084,348.98468999258694 L128.1132874776368,346.34429395426775 L127.06827818767204,344.94091992049664 L125.52775221491282,342.0253351529831 L123.43684878376416,338.64166409047226 L122.00692921341442,336.0835592155461 L121.51141253061996,334.7624763451673 L118.65068853870139,331.07618616566435 L115.48646057857128,328.6561180809449 L112.95578609144252,327.0049857057762 L110.42511160431383,325.6024965232243 L107.59181800019263,324.4468808308501 L103.1357072599198,322.10910390952336 L101.51200527254872,318.9174455615956 L100.24666802898417,316.82742698166646 L99.11936757562694,314.32329803111566 L98.89903962202732,312.56332895597643 L98.89903962202732,309.8123265152479 L97.63370237846277,307.55684075731386 L95.8967394350243,306.0844483284392 L98.23097695147396,304.0908785314107 L99.67593899255155,301.9698901588065 L100.19800121192424,299.510888620439 L100.68997848984156,298.68089817675855 L103.05695550140422,297.3899002478348 L105.17794387400824,295.94493820675757 L107.63694541237567,294.9618685021424 L109.48097535334637,293.8239498341534 L111.90989195025855,291.7339312542243 L115.96693479063799,289.397924035336 L117.2588175707807,287.8910224089094 L117.78087979015339,286.81592817748935 L118.27285706807078,283.2809475564826 L118.24188727539604,281.9899496275592 L122.59624012545203,280.99714655953187 L129.17068468467124,278.11518613835074 L133.01270867876673,275.6544148975445 L135.2637701806043,273.8528578150991 L137.03524232159435,271.8716759351405 L138.5987744260549,270.64084788912777 L140.6100412474686,270.0108338210034 L143.39997714184517,268.9242365237331 z"/>
	<path id="burdur-yesilova" title="Yeşilova" class="district" d="M237.44373442891435,130.2609716534625 L237.7003412825045,133.39865407701458 L237.45789204842265,135.07721683998105 L236.95175715099708,136.45316048595475 L236.75001107300216,137.90874074166342 L237.82156589954525,141.54990350898302 L239.2373278503867,144.26020279362498 L240.59291991831708,145.5954432835121 L241.1592246986536,146.8696290392691 L243.2828676249154,150.61166484558652 L243.72794778821117,151.96725691351696 L244.13232479542,157.79223249000967 L243.97039702229267,161.91829372549265 L244.25354941246076,163.3544072543773 L243.9305787174253,165.6205112269424 L242.65550811044875,168.4520351286251 L241.86710567407408,169.7262208843821 L240.34958583301636,170.9402367572285 L238.9745270382615,173.46825669069952 L238.06401513362675,176.3811869045553 L236.93140557295385,178.40395679182006 L236.72965949495892,180.10287113282914 L236.78982937786986,182.69194580043032 L237.11368492412475,183.7838522050164 L238.12506986775668,185.03857123394965 L240.04696671602392,188.76025546222348 L240.26906437206208,189.85216186680987 L240.49116202810035,194.72680723380023 L240.34958583301636,196.44607315285327 L241.52289854977585,199.6014526007906 L241.92816040820423,202.7975352048148 L241.1592246986536,206.19536388683366 L240.87518745726595,206.7422019403461 L238.14188204092295,210.1223335979797 L237.53044984840346,211.9557453243193 L237.1526183777729,214.63949907238236 L238.34628267257563,217.10115516440788 L239.45677095276687,219.95214579291428 L239.45677095276687,221.75370287535998 L238.91612685778932,225.02499783302272 L238.7957870919679,227.63707863232486 L238.97629674070026,231.56935745078624 L239.42137690399568,235.45119974974892 L239.0612424577506,239.85333456564612 L239.30103713817448,242.3353422357149 L237.5401832118157,243.69624341096102 L235.33955822947655,244.61648867900757 L234.09811196883265,245.89686839329985 L231.14182404523228,248.0983782268579 L228.95093242630537,249.2690363899597 L226.84941078052555,250.67948923348536 L223.87719553497806,253.23140014987692 L221.6863039160511,253.92158410091182 L217.12401102946535,256.2027305442049 L214.81277964471718,257.1937639097938 L209.70984266315332,258.9041813166542 L200.5242021558517,261.4861771745009 L197.1626523738226,261.7560567963798 L191.78895091916115,262.6568353376024 L187.3169128569412,262.9567999009371 L182.21397587537763,263.4372741130037 L178.9117111250402,262.98688484239256 L174.890062333432,261.6658019720138 L170.74718892478268,261.27558258431293 L167.8059434719098,261.1561276697106 L163.7533248876269,262.2967008913573 L162.73309143180177,262.6869202790578 L157.63015445023854,266.01838511963115 L155.64897257027997,266.4687743902425 L151.47601422017533,266.498859331698 L147.544620252933,266.97933354376494 L146.4031621800674,267.6996024362553 L144.15210067822966,268.3897863872902 L143.39997714184517,268.9242365237331 L140.6100412474686,270.0108338210034 L138.5987744260549,270.64084788912777 L137.03524232159435,271.8716759351405 L135.2637701806043,273.8528578150991 L133.01270867876673,275.6544148975445 L129.17068468467124,278.11518613835074 L122.59624012545203,280.99714655953187 L118.24188727539604,281.9899496275592 L118.08792316324201,281.15995918387875 L116.98185913914728,279.6840273501265 L116.02887437598719,277.44004465804306 L114.46091801543054,275.81103356335643 L112.1868503818917,274.64302995391233 L109.84995831178458,273.96700362238573 L109.1739319802578,273.26000749818445 L108.68195470234042,270.46210794283445 L107.91390384400898,269.4480684455442 L104.65499680341617,268.15707051662093 L99.78212113886457,266.68556293896506 L95.14815530351711,266.3909074829464 L92.86612400900486,265.6821416563066 L88.02687269078564,263.50806221054603 L86.72437169601164,262.3683738401186 L84.74761407214953,259.799650750561 L83.22301542133732,256.14079095885546 L82.61335293125643,254.31180348861267 L81.79044129732978,251.01838725046787 L81.1197240731189,250.40872476038717 L80.2047879123877,248.579737290144 L80.41892190745239,246.56758561751104 L80.6321710512978,242.2990633357245 L80.32689738064784,235.89716476426418 L80.70295914884002,233.9965043452598 L82.04439359726211,233.02051345039845 L82.8982750238631,231.9232979384967 L83.2946883700987,230.5818634900746 L83.2946883700987,226.22220153270274 L82.92835996531858,225.39928989877606 L81.89219918754662,224.9418218184108 L80.09329665875879,224.6064632063052 L76.70962559624826,223.44730810905372 L75.39827608928147,222.35009259715193 L73.01979601186821,219.6371387588523 L72.6543524583073,218.8443120663811 L72.22785417061658,215.7650298233015 L72.83751666069747,212.10617003159598 L73.59937356049397,210.06393341750754 L75.97785363790723,206.64929256232233 L83.0504694335786,202.5639344829259 L86.06869694252833,201.00836603943932 L88.20295808342149,198.96612942535057 L91.89190281658227,196.49650967235166 L97.25764061027081,193.78355583405204 L102.19688011626823,192.22798739056543 L105.71062430801231,192.08552634426218 L107.83692178793183,192.04570803939487 L114.16714741063106,192.38814546125462 L116.79692523431879,192.9367532172052 L118.53477302897613,193.09691128789436 L121.46097601112126,195.6125433042955 L126.37720938541753,197.2132391599655 L129.0981268846906,197.5556765818249 L131.38546728651858,197.69282852081247 L135.15758803429128,196.961941413691 L138.29084620174672,192.7314677343333 L139.47920138923428,190.0786837789446 L139.43407397705124,188.70716438906703 L138.77043556259417,184.88814652667298 L138.26784007004557,183.08216518813083 L137.76435972627775,182.28137483468657 L135.15758803429128,181.2301715861867 L133.2374608884627,180.81783091800415 L129.82989884303163,179.62947573051673 L129.25828495537962,178.82868537707213 L128.91584753351987,176.97669177512805 L129.28129108708072,175.60517238525048 L130.28736692339737,173.95846426617825 L131.6827772961953,173.02140682496534 L135.47790417566915,171.2605528986062 L137.62720778729,170.00317931601523 L140.44014981336773,168.58476281151653 L144.00698507826837,166.13814919021894 L148.6719207062904,164.60647172965253 L151.30081367875874,164.0808701054026 L153.47312342208073,164.1720097809879 L156.0347677018841,163.66852943722037 L158.9158432718462,163.50925621775042 L163.57989404864867,163.76055396402455 L167.78736159630535,164.4003013955611 L174.51046116036258,164.51533205406724 L177.18536639623335,165.13207335390211 L180.5469161782621,165.1550794856034 L183.38197948482144,164.42330752726238 L188.22919446401465,162.91463619839726 L193.81260565764478,158.958466397015 L195.94686679853805,157.83028109243855 L197.34935598108996,156.5198164366908 L200.03222487793414,154.9952177858786 L201.6479632043317,153.6838682789123 L202.4098201041282,152.22120921344947 L203.1725618551439,149.75158946045056 L204.6051359791516,147.58635852688258 L206.52614797619896,145.4520973859893 L214.54466972527632,139.3545876339599 L215.80558271274424,139.26344795837463 L218.77779795829173,136.03905011533374 L220.07410499453079,133.40396318433028 L222.19420851591542,133.10665317465387 L225.21509057852285,132.97658004542015 L227.7147952729772,132.50849375042347 L233.15751512274255,130.94584649718237 L237.44373442891435,130.2609716534625 z"/>
	
</g></g></svg>