<svg xmlns="http://www.w3.org/2000/svg" version="1.2" baseProfile="tiny" width="600" height="600" stroke-linecap="round" stroke-linejoin="round"><rect id="backgroundrect" width="100%" height="100%" x="0" y="0" fill="none" stroke="none" class="" style=""/>































































































































































































































































































































































































































































































































































































































<g class="currentLayer" style=""><title>Layer 1</title><g class="city city-19" id="corum" title="Çorum">
	<path id="corum-iskilip" title="İskilip" class="district" d="M202.90013438919632,157.77734135918416 L205.56982381684364,159.03538791625482 L208.80004451710002,161.3592653478687 L210.710150373624,163.07293426352277 L212.9164460503343,165.33884188612052 L218.579085838411,170.4228958382597 L219.71607256751372,171.6422958559862 L224.71945114291793,175.04115728988282 L227.5396241082401,178.00473664906136 L230.63289682711957,182.07177640793407 L232.31528685414617,183.95935475063672 L234.24848277729689,185.29571140058886 L237.3648455628046,186.1388161668068 L241.9581764032746,187.56161902318658 L247.09850296005573,188.3457369661951 L251.12413664516725,188.54913980484832 L253.48728553310497,195.1556640043075 L253.8057692107251,196.55914359101527 L253.94988307484755,198.81183002910055 L254.84641462734623,202.8005596950917 L255.45392224240567,204.9434086003042 L256.00569521388206,206.1078898515943 L258.3250525961466,207.95173658398645 L258.7613752344861,210.71903220386457 L259.2709491186774,212.33099970019197 L259.58863658710305,215.43289298965473 L260.1093574000113,217.9083055360654 L260.22480773314805,222.37706590127837 L259.70488312943434,228.5086444724821 L259.35773592082865,230.87218545763335 L258.229507492861,232.57161617458164 L256.6108142013597,233.71677415619973 L255.13543856478634,235.1568662538651 L254.3838170856045,236.33863674644078 L253.16959806467935,240.55009252075726 L252.56209044961906,247.16170179118276 L252.85111438705917,249.19267913513593 L254.12345667914997,251.26128600424002 L255.94518331513382,253.03394174310344 L259.44452272297985,254.2899542717876 L262.7121652553577,255.176790648316 L268.2354684344756,256.87520435107103 L270.75069327847655,257.94612029658066 L273.2380508006862,259.53469646646295 L276.5343568640489,263.04339543323226 L280.61174414677424,266.182918247846 L282.5775846468813,267.9189614757518 L285.0936057000765,269.2492160405444 L288.18767462815117,271.68699906180416 L291.05084288995226,274.8631343873754 L291.4481512777822,276.3510261521243 L288.46157059090444,277.62737896467377 L287.5021385120757,278.9179699759289 L287.4886029557762,281.06183589533475 L287.22744634012884,281.7778138873943 L286.2258151740149,282.4693835388156 L283.6453011761015,282.06156084731566 L282.19779286132007,282.2293681892046 L279.12761020906737,283.589116165602 L277.7437986298096,284.44645913052557 L277.08851846310705,285.2824447973906 L276.4762335928832,286.9462800175746 L275.87270702379453,290.5760036733427 L275.2460903880775,291.67946407303685 L271.4003999808202,293.64840355120083 L268.650293424575,295.4983523687526 L266.6629552762286,297.42050919402624 L264.72100105194284,298.51583348017425 L263.0760328570377,298.6327901123999 L259.168238132644,298.21072922219435 L256.9484068996358,298.10902780286756 L254.96345737887123,298.2331035344461 L252.60428953690416,299.1718076348311 L250.06278978950036,301.06142000592024 L249.26817301383892,302.3204835771842 L248.59059898970247,304.84369579067834 L247.54915736388614,305.79968913234876 L244.80542048119423,306.17598438385744 L243.7201873497046,306.6722873101715 L240.51385292526936,309.36737492232766 L236.5941150629651,311.67192908426955 L233.97697544212542,313.5025546321492 L232.88378021869755,313.28796463737 L231.4299022303627,309.86977993380134 L230.96571227023287,308.20797874200383 L230.35183498162172,307.18384544938453 L228.52851592724892,306.7394102469271 L227.4504486785055,306.9407790571938 L225.84290231572118,308.9087015211645 L224.72661702566495,309.73756808867665 L222.5378379512225,310.6762721890616 L221.17074676504058,311.83973642615854 L217.5734736263272,315.76134315539406 L216.7732833863077,316.7905615189797 L216.4340982696434,318.008944522513 L215.96911210031828,320.7253894327278 L214.98499753647388,322.3119315742236 L213.0605599144567,323.71236011835146 L211.02306058688526,324.6632683890557 L204.74733971939108,327.3461518308927 L203.28788826669825,327.86584608365183 L197.90471790573284,328.5055480112165 L196.41501050366708,328.84319672338097 L192.91726351420917,330.0605627127209 L190.07081564548395,331.53726732134396 L186.8748319405704,334.0075947967882 L184.81503875556677,335.7833015782315 L182.0028278821852,337.6912202047993 L178.18580100591348,339.9245833732128 L177.00581898033275,341.49485328761614 L176.51853895357453,343.8197477334233 L175.9651735637108,345.4540895420026 L173.84407227076366,350.1069294761968 L172.34162552159285,352.0850220821 L169.85665662696576,346.4792398488152 L168.81521500114937,344.61098477578463 L167.57551728601484,341.0321118296798 L166.23629342162485,334.4438938856995 L165.96319366806688,329.97716754887307 L165.86446372800424,325.0680400379757 L165.88914621301993,321.01320444942223 L166.23629342162485,319.3351310305326 L167.500673621775,317.18109496919413 L171.443501550706,313.5381501289136 L175.8330028374982,310.402695371073 L180.02345182577864,307.0455315191002 L181.48688432444058,305.33491364602605 L182.478164771032,303.18087758468755 L182.99888558394022,300.93225920337534 L182.9495206139089,298.6195689278874 L182.62705589031881,296.62418708069856 L180.5688551237025,292.6334233863208 L179.77583076643003,289.7196777226123 L179.08153634921933,285.50720493410245 L176.79960079907397,279.4254600583689 L175.65942923319577,276.7018960488012 L173.45233734729183,273.50236939678484 L170.773889618511,270.9049151471823 L167.35178250248742,268.0226969234651 L165.3684254001109,265.9642601962936 L163.8803104164341,263.55698760083186 L162.8882337606482,260.83240657707097 L161.6485360455145,258.67837051573247 L157.48276954224974,256.17651560029697 L155.30036014136064,254.62455194137223 L146.9935096198468,250.12731517874784 L145.5802383004098,249.20793434803497 L141.14137204358627,244.99546155952518 L139.35627103052792,242.96855227234505 L137.81879107681897,240.56127967688323 L133.08214258142183,230.39418878679814 L130.9745768447734,225.51557170169878 L128.46970272029503,220.7335709649597 L125.56831641718125,216.26684462813324 L124.204410067774,214.6518260892261 L121.92327072682309,210.43935330071628 L124.48865675004967,207.03845783843317 L128.49120036853446,202.74767495704185 L131.70390446652297,200.33531729061372 L133.05347905043544,198.83115329877256 L134.1076600233569,196.9517110696161 L135.06470347460385,193.31690234288166 L137.34584281555476,185.57844134631694 L138.27820378178606,181.00391150500428 L138.4740712435216,179.02988695587396 L138.25750234274034,176.87890193711544 L138.51945516758298,175.91782352447856 L140.48131462171926,173.70378362573737 L141.69155259667372,170.86326298394408 L142.05143915238372,169.40079657402686 L142.27995119107635,163.92824320005988 L141.8221309044982,161.2962104678862 L142.018794575429,159.58355856642547 L143.52283374298634,158.6224801537886 L143.9806540295661,157.7875115011168 L144.24260685440711,156.28334750927567 L150.62024249874023,152.9831364521259 L154.15222648354177,150.47721347991725 L157.91351871622965,147.21870000469144 L159.71215528558673,145.25484559749384 L162.26320954332095,141.95463454034407 L164.22506899745724,138.82121381089004 L164.474282475194,139.775173124174 L166.02052073003807,143.17403455807062 L168.4999161603063,147.21158090533854 L170.38693195020275,148.63540077591168 L172.7070855416625,150.0002338232753 L175.0949169146151,150.81384517788845 L178.57435109260908,151.4820235028646 L182.6230748443497,152.58548390255874 L185.21553198017213,153.13772260950242 L188.4680465378632,154.61951228909166 L192.28825825091116,157.43765861863315 L193.78911258169302,158.25025295905303 L195.49538888454006,158.33771617967398 L198.17861386848523,158.16380675262542 L200.86263506162572,157.58207463407697 L202.90013438919632,157.77734135918416 z"/>
	<path id="corum-alaca" title="Alaca" class="district" d="M416.66637880749204,559.7816946593695 L412.5834180604077,561.2960287931431 L406.50436086384434,563.9433167382159 L403.50663324824967,565.4108682190994 L401.0129060524875,567.9157741771148 L399.3878430874336,568.2737631731446 L397.3989125206991,568.3449541666732 L393.14078575092424,568.2025721796158 L390.56345658978705,568.2381676763803 L388.65812798842825,568.4527576711594 L385.8005331909861,569.0965276554972 L381.1785388195313,568.7741341562318 L379.3568121835459,568.0591731783654 L377.8161473930615,567.0574141979978 L376.66801373524345,566.699425201968 L373.1941530216075,566.2692281982163 L369.2433630007359,566.4848352071888 L363.108571160587,568.4883531679237 L360.97871156650626,569.6691066463062 L359.21431199249287,570.2772811338795 L357.6449836710229,570.0626911391005 L355.5724511389118,568.702943162703 L354.1997864883717,566.4126271994668 L353.6949898593449,564.623699233511 L353.5548570411924,562.0831977787312 L353.6949898593449,559.8284773122596 L353.4425915448311,554.8542608929931 L353.1344585867342,553.4945129165959 L351.53805915266594,551.8845794486551 L348.8763318169601,550.0234434749773 L345.7950022359905,549.7376624866694 L343.4971425019646,550.9184159650518 L340.6116803827305,553.8169064158614 L339.43567940312056,556.1072223790975 L338.48261699784354,557.3947623477728 L336.1011552984427,559.8640728090239 L332.6838254375843,562.2621922767463 L329.2378320457395,563.4429457551287 L323.9151735835215,565.4108682190994 L321.22557892602373,566.5560262007175 L318.8998518702067,566.9140151967472 L314.22132664597444,566.9852061902759 L312.4847943937529,566.7350206987325 L306.01320606452157,564.1945192439529 L302.10859617690494,562.0831977787312 L299.37680243212293,561.5726566537116 L291.79131744041797,560.9024443003491 L284.7106290777391,559.7745755600166 L283.638931502549,559.4796414439692 L278.596538676636,558.8358714596314 L277.06224355970323,559.5599855652373 L275.8647449318531,560.7407390436197 L273.8813878294774,563.7480500131087 L272.5564957305798,558.894858282841 L271.0994329054704,551.5906623468009 L270.7698022991341,549.2383085177757 L270.44017169279704,543.5501481348361 L270.49511012718716,540.8113289123695 L270.8247407335234,538.1070881724739 L271.4847981553896,536.7381870683372 L272.96893209309815,534.981803556566 L274.28825072763686,532.9803196242175 L277.17530526525826,527.5728551586196 L278.41181814361653,525.9934321164767 L279.12681399987366,523.8505832112643 L278.5216950123961,519.6025149259901 L277.69761849655464,516.2667083720761 L276.5152478433921,509.52492128491247 L276.0208019338877,507.7685377731412 L275.3376544453931,503.7421785819992 L275.08127508491015,497.93706156683396 L274.3113407942644,493.723571764131 L273.4363068900043,489.56805177044424 L271.3749212866117,484.8277486156289 L270.577119674174,481.8428119583918 L269.0101799802858,478.6829488599129 L267.96555351769314,474.9606769125575 L266.3436753894148,472.53814910419663 L264.9964894330833,469.7637343849657 L264.8595414517079,467.2710325972696 L266.3166042768173,462.460555463119 L266.53635801437485,460.9848678686894 L266.0307651761543,457.63990818703587 L267.3970601531418,456.76120792405356 L268.7768906864287,456.52627764540904 L270.46326175942454,457.6622824992877 L273.0079463436054,457.7009290386318 L275.43001471190325,457.42735222064323 L276.9324614610732,456.1347271810015 L279.90630280084747,452.72772963355885 L280.67225604552254,452.25786907626957 L285.8842414297673,450.4170733864573 L287.96951330898264,449.4387057325349 L290.63681410904655,448.8112079752895 L293.48803923293616,447.75453022848563 L295.6338230108982,446.38359509596245 L299.5885940777406,444.1909124952798 L300.9071165030864,443.7210519379907 L302.7774118999071,443.4861216593461 L307.7131126938161,443.7210519379907 L311.4226513288924,443.17288128782 L317.799490764031,440.9405351336001 L323.4103769544946,439.6479100939584 L327.6414326116713,438.78649907226173 L328.8675947705071,438.86480916514324 L331.9330001675953,439.53095346173285 L334.84553339942767,439.0214293509062 L338.34089176130294,437.6504942183831 L344.9327076788347,435.45781161770043 L351.248239006033,432.48202808820275 L353.1185344028537,431.73757369873164 L356.4904803396523,430.6412323983904 L358.66731627618174,430.28832847332694 L362.0090062636058,430.0147516553383 L366.24006192078235,430.91480921637907 L368.7847465049624,431.93385743803213 L371.60571567947915,433.6170159278881 L374.8860975589605,436.2409125465157 L376.97057322898064,437.49387403262006 L378.35040376226925,438.98278281156223 L380.5574956481732,441.91991980171576 L382.6427675273877,444.30786912750557 L386.5362304862874,450.57369357222024 L388.83568263870063,453.9023810267816 L391.47193128019717,456.1743907345389 L392.4226050578924,456.5659411989466 L396.2858120674183,457.1924219419987 L403.27573258197526,457.54430885286877 L406.9255555274963,458.00399926822536 L409.9909609245853,459.24984165497665 L413.98713486951755,461.2696318428041 L415.8271743169645,462.07714111225766 L417.32165897419384,462.4076707250692 L421.43328325226446,463.80301419823087 L423.7040718736913,464.24338134391513 L426.2336284831861,465.19835767139244 L429.1660669448697,466.7411682025778 L432.7306955066268,468.4670412885509 L435.6058069063376,470.2661393964394 L437.7619414038229,472.3957671171394 L438.59796105757414,473.67313694388224 L436.7603102377098,476.1282092064275 L435.97604418157084,482.1763926137832 L435.86377868520873,484.64468606084097 L436.0325750343484,487.292991020107 L436.7324429159179,493.66255091253487 L437.76910728656907,497.2058283618754 L440.4308346222749,500.7836842937869 L441.7477646292318,501.4640667890822 L447.46215801492247,502.3224267681992 L449.08722097997713,502.2868312714348 L450.2918854905727,501.8220557851121 L452.4209488754597,501.4996622858465 L453.4576132461126,501.5708532793753 L455.75467677094315,502.8950057590083 L456.2316060781789,503.4319892530529 L456.4274735399144,504.9707317274651 L456.14720790361025,507.04645769592213 L455.1105435329575,508.08381217305396 L453.6542769170417,508.5496046735699 L450.2918854905727,509.049975656657 L447.9104237911726,509.622554647466 L442.75576546889823,511.4114826134217 L439.3097720770535,514.1319955804097 L438.5533733427073,515.2049455543058 L436.7045755941252,517.1728680182764 L434.547644887447,518.9272175016612 L432.95044924418346,519.7499819840136 L431.94165219532346,520.6083419631308 L431.12951881739417,521.8257079524707 L430.70912036293595,524.1872149092355 L431.12951881739417,526.1551373732061 L433.93137897125246,530.1987858056336 L437.9936382792918,536.9263346940916 L439.842436027873,540.8621796220328 L444.60695184506216,546.7496747868526 L444.93499003301025,547.9060199245965 L445.1404120050754,552.131713897619 L443.6682212052783,555.1156335406627 L442.72869435629997,556.0878991094255 L439.9825688460256,557.5025658522592 L436.92910658684707,558.4687293358622 L430.56898754478266,559.0769038234358 L427.1516576839242,558.4331338390979 L424.82593062810724,558.1463358365969 L419.783537802195,558.6833193306414 L416.66637880749204,559.7816946593695 z"/>
	<path id="corum-bayat" title="Bayat" class="district" d="M121.92327072682309,210.43935330071628 L124.204410067774,214.6518260892261 L125.56831641718125,216.26684462813324 L128.46970272029503,220.7335709649597 L130.9745768447734,225.51557170169878 L133.08214258142183,230.39418878679814 L137.81879107681897,240.56127967688323 L139.35627103052792,242.96855227234505 L141.14137204358627,244.99546155952518 L145.5802383004098,249.20793434803497 L146.9935096198468,250.12731517874784 L155.30036014136064,254.62455194137223 L157.48276954224974,256.17651560029697 L161.6485360455145,258.67837051573247 L162.8882337606482,260.83240657707097 L163.8803104164341,263.55698760083186 L165.3684254001109,265.9642601962936 L167.35178250248742,268.0226969234651 L170.773889618511,270.9049151471823 L173.45233734729183,273.50236939678484 L175.65942923319577,276.7018960488012 L176.79960079907397,279.4254600583689 L179.08153634921933,285.50720493410245 L179.77583076643003,289.7196777226123 L180.5688551237025,292.6334233863208 L182.62705589031881,296.62418708069856 L182.9495206139089,298.6195689278874 L182.99888558394022,300.93225920337534 L182.478164771032,303.18087758468755 L181.48688432444058,305.33491364602605 L180.02345182577864,307.0455315191002 L175.8330028374982,310.402695371073 L171.443501550706,313.5381501289136 L167.500673621775,317.18109496919413 L166.23629342162485,319.3351310305326 L165.88914621301993,321.01320444942223 L165.86446372800424,325.0680400379757 L165.96319366806688,329.97716754887307 L166.23629342162485,334.4438938856995 L167.57551728601484,341.0321118296798 L168.81521500114937,344.61098477578463 L169.85665662696576,346.4792398488152 L172.34162552159285,352.0850220821 L171.2141933028205,352.99728381346023 L169.86461871890722,352.72980908063107 L168.62810584054816,351.2480194010418 L167.28649334857556,350.31440037162315 L165.52050135617398,350.10794649038996 L163.6223386375614,350.8279925392227 L158.48360449916916,353.45290617204347 L156.96364114772967,353.8119121822666 L153.48818801570565,353.77529967130897 L151.7006983750647,354.4861925924023 L149.3216253032456,357.20772257358345 L147.29686532277927,358.25117913587485 L143.11198979885688,359.1756450375541 L141.71543887249572,359.7116115174055 L140.47653736655568,361.0459341389711 L138.35623228280298,366.9476675024967 L138.12373919814038,367.36667735012236 L134.81071274170188,371.05742185748653 L133.10682506643747,374.4328919649379 L131.29863398675081,375.8994264316282 L129.90765652474687,376.25436438507825 L127.6472186228425,376.299113009582 L122.39701519728337,373.3233294800842 L121.11034113969933,372.12325273202975 L119.40884209201673,369.9315871455404 L119.861088914236,368.2433435847181 L119.83401780163857,367.1927679230738 L119.33001738180616,365.7567438821815 L118.16994058607668,365.26349199844725 L116.75189201147452,365.4892691493525 L112.41812536826535,365.0580551314075 L110.57649350243025,365.36621043196726 L108.9140087052557,366.16049851690826 L108.30570488100261,364.4956462825311 L108.63215065056181,363.32404593188807 L109.99526079077381,361.1771289699025 L109.82407581405394,359.11767522853785 L109.02229315564631,357.97963634627257 L106.95453787870122,355.81644715719483 L106.15594005706987,353.43256588817826 L104.96321868438486,351.8704320873209 L102.05785133529952,349.3421348028603 L97.5122930464735,344.75743481961496 L96.59028279976468,343.5899025257451 L96.25030147390513,342.51288449507587 L96.229600034861,341.116524007721 L97.93189529173728,339.05300220958327 L98.79817089486306,336.61318515993696 L98.99483456579227,334.8913801307369 L98.92954541188041,331.63286665551095 L98.20977230045963,330.5883930790263 L93.90546539743133,329.4188267567698 L90.86394627616426,328.07229996488496 L88.36225698846135,326.443043227272 L87.18466359046243,324.9073517954397 L86.42428381014545,320.99083013717035 L86.17905137837863,318.70356521651405 L86.27698510924759,316.761068107375 L86.69419872692876,314.5683855066925 L88.70542315109557,311.0281590999319 L88.68074066608071,305.98376870133 L88.85272185199585,305.32576051828664 L90.9618800070308,301.25261867425434 L91.67289481731729,300.1562773739131 L94.22394907505065,297.68086482750243 L94.73909642359999,296.86623645869594 L95.13162755626632,294.7986466037852 L95.42622495806447,291.6967533143224 L95.45090744308092,288.8450455164031 L95.27892625716578,285.99435473267715 L94.37124777594934,283.299267120521 L93.24301934798171,281.98426776862743 L90.39736768845097,279.38376247644493 L84.97677549536402,275.15400044664966 L83.06348480206458,273.9315493863433 L79.33563335552671,270.2662302338109 L77.61821012396278,268.0104927531458 L77.1277452604283,266.3812360155329 L76.68425673934334,263.4644393092447 L74.69691859099692,261.27175670856207 L73.00497405364311,260.0493056482557 L70.9937496294747,258.10680853911674 L70.72383471269221,257.04199467876674 L71.38628076214101,255.97616380422346 L73.44607394714548,254.87982250388217 L76.11974442076189,252.6556124632083 L76.95417165612582,252.1542244659279 L79.99569077739372,250.86973553983236 L84.11846198417891,248.7106144075276 L86.76744997278126,247.95802390451044 L87.65044596898124,247.33154316145828 L89.31850423051466,244.82562018924963 L90.32411644259847,241.9423849513391 L90.2261827117295,240.40771053369997 L89.78428660903268,238.8404916618763 L88.90129061283267,237.0546147385004 L88.70542315109557,234.51716432630047 L87.6018772081436,232.44957447138967 L86.89006618866509,229.4412464877074 L85.31994165799983,225.93254752093802 L84.63360933272983,221.38954511961663 L84.58424436269851,218.78903982743424 L86.39960132513062,218.47579945590815 L91.10917870793108,216.62686765254966 L93.7828491815475,215.4054336064366 L99.59597250729996,211.9902999454477 L100.72420093526759,211.61400469393914 L105.94892566661662,211.4889119481673 L110.95310045121525,211.58247725394784 L115.52572985263873,212.24455349376433 L119.64213138587297,211.3892445572272 L121.92327072682309,210.43935330071628 z"/>
	<path id="corum-bogazkale" title="Boğazkale" class="district" d="M277.69761849655464,516.2667083720761 L278.5216950123961,519.6025149259901 L279.12681399987366,523.8505832112643 L278.41181814361653,525.9934321164767 L277.17530526525826,527.5728551586196 L274.28825072763686,532.9803196242175 L272.96893209309815,534.981803556566 L271.4847981553896,536.7381870683372 L270.8247407335234,538.1070881724739 L270.49511012718716,540.8113289123695 L270.44017169279704,543.5501481348361 L270.7698022991341,549.2383085177757 L271.0994329054704,551.5906623468009 L272.5564957305798,558.894858282841 L273.8813878294774,563.7480500131087 L271.8518505938466,566.2692281982163 L271.0325513331695,568.2290145486409 L271.45215357843415,570.7247673789168 L272.040552172836,572.8187996028526 L271.9991492947453,574.2141430760141 L270.7546743244472,576.755661544987 L269.7140289078245,579.4904127106806 L269.4138580416682,581.1776392573099 L268.3931178548968,583.8096719894835 L265.17245166496923,587.7709422722564 L262.7312742760138,589.4581688188855 L261.6707236295406,590.5829865166382 L260.6499834427707,591.2216714300097 L259.38958428859047,591.3487982041679 L256.0677995310168,591.3233728493364 L251.306468550604,590.6338372263016 L247.68451292687496,589.3045996757023 L243.5625379292835,587.4129532762266 L240.04090466400362,585.9820143063007 L238.02012572950719,584.7300698343896 L235.99934679501155,583.1201363664488 L235.0391185069875,582.1234624570476 L232.79778962573994,580.2572414124036 L226.6152252339487,576.4749656276456 L222.55376213510465,574.7114630165215 L219.57195870339058,573.9700596696301 L215.37036278639243,573.8683582503035 L212.86946970788472,573.0761041937488 L211.46893773555286,572.2065570585061 L206.00614645518237,570.2894853041987 L204.165310798541,569.9060709533373 L202.1246266341933,569.1656846206394 L198.62289859876466,568.3988559189163 L196.98270765902478,568.3734305640847 L194.36158699221355,569.4463805379809 L194.3010750934669,566.8306200328993 L195.02005199569402,558.9528280918571 L195.37993855140323,556.9035444924251 L196.8736269994397,552.4174948859268 L197.70327697963924,551.0394406540505 L199.4175153744261,548.9199830752833 L203.42802108485154,546.270661101824 L205.1701268014303,544.9282023667123 L206.91302872720436,544.1512035230566 L213.8822478027156,541.8191899778966 L215.84569967523998,541.324921079969 L219.93901114184752,539.5939629230295 L223.645364940146,536.5551245135492 L224.39220916416264,535.5665867176942 L226.65981294881567,529.4197529335916 L228.29124558742194,527.688794776652 L230.6695224500466,526.0280105990478 L234.37587624834424,523.7671880474164 L236.5057358424266,522.7074592580327 L242.83878377189194,519.7754073388454 L245.13425487833524,518.5743135765977 L248.1487028870049,517.3376243175856 L250.83192787095004,516.5250299771658 L253.79064123603746,515.995165582474 L256.39106046380135,516.2077215488666 L258.5201238486892,516.1721260521023 L259.79246614078005,516.4548559978302 L260.7606565207431,517.0203158892864 L264.68756026579274,520.693771155365 L266.6788794601108,523.131554176625 L268.1447005863545,526.4165100208755 L269.1407582881095,527.5118343070236 L272.7356427992411,527.9003337288515 L273.39968126707805,527.5474298037878 L273.95304665694175,525.1452422792926 L274.03585241312385,520.1283112639089 L274.47854472501433,518.9984084951899 L277.69761849655464,516.2667083720761 z"/>
	<path id="corum-dodurga" title="Dodurga" class="district" d="M343.54889609957695,210.15357231240847 L343.5035121755172,212.14692013121075 L341.5344868386339,219.21110071763982 L340.4787134473243,220.63797163079266 L338.6028445861448,221.95398799687953 L336.167240661549,224.69077319095967 L335.08519236683645,227.8008025939686 L332.89641329239475,229.16055057036584 L331.09299946787405,229.27649018839827 L329.01648588979384,229.02427066846818 L326.86751727505475,230.05247201786057 L323.435855648704,234.12866490447266 L322.36097323673675,235.76605775563175 L321.84821451577005,237.31802141455643 L319.40624091762254,239.8666589828822 L317.13624850538775,242.62785251760076 L316.2946553872776,244.11676129654288 L315.63539417460584,245.9707781708677 L314.7651375255094,247.0854257266878 L312.2108984310005,249.38489481766325 L311.2005089637523,250.49242327413052 L309.910650069392,252.70544615867837 L305.75045703048534,246.17316399532774 L304.0354224265048,244.45339299451408 L302.71053032760716,242.12341347774057 L301.82036844865934,241.26403648443036 L301.4509273826206,240.1819333827948 L300.6045570093477,239.37747515592108 L298.30271622935106,238.3513078349152 L297.02161563612583,238.18553452141268 L294.61069419654496,238.32384845169696 L293.6990346693585,238.8781211870272 L292.20056896615927,238.9340569676568 L289.81194138401145,237.49193084160493 L287.7489633622299,235.30026525511568 L286.4025736150937,234.63513797271938 L285.42562493399544,233.6913488013681 L284.40488474722406,230.69624200219832 L283.70979412081965,229.4198891896488 L281.73439911038304,226.840741195525 L280.452502307965,224.12226225692368 L279.3457715282368,222.3750318728918 L278.8027568578955,219.71248871492023 L278.2382445393141,218.02017709732473 L276.5662052318107,215.13592484522098 L274.80737912215693,213.24936351671167 L273.09154830898115,212.41744590661963 L270.7459160233121,212.19573681248758 L269.03088141933154,212.2516725931172 L265.3611532439585,210.64275613936962 L263.3196728704172,209.97661184278004 L258.3250525961466,207.95173658398645 L256.00569521388206,206.1078898515943 L255.45392224240567,204.9434086003042 L254.84641462734623,202.8005596950917 L253.94988307484755,198.81183002910055 L253.8057692107251,196.55914359101527 L253.48728553310497,195.1556640043075 L251.12413664516725,188.54913980484832 L254.4212389177244,189.42072096847775 L256.2182830686926,189.62412380713107 L259.06074989144787,188.78203605510635 L263.4733412448676,186.69003785955718 L265.4288310254522,186.16729256421826 L267.0889271950449,186.22526237323444 L269.31831293838184,186.95141050722668 L271.45613462440406,189.18884173241298 L274.11706575091625,190.69910780941376 L278.46038690445334,191.71612200268027 L278.9150223542553,191.6866285910755 L284.19150068321903,190.32179554371183 L288.87639558100386,189.56615399811486 L290.51419789316276,189.59564740971962 L294.7213672745182,188.25929075976745 L297.76925606933776,188.60710961386457 L301.97642545069317,188.0263945095094 L304.2050149848365,187.8524850824608 L309.6638252192378,188.11385773013026 L312.64244381417484,188.72406624609016 L319.8298242088563,189.4502143800825 L326.1063412855449,188.57863321645306 L328.1987790475057,188.89797567313877 L331.6559193680666,190.49570497076044 L333.33990181348133,192.61923060630087 L334.3829358576843,194.5302002754486 L332.2005264567968,197.161215993429 L331.97997651004476,198.60741017625398 L332.6750671364492,199.22575480576 L333.68784523127994,199.13625755675253 L335.7309180232094,198.424347621466 L337.3464264779352,198.60537614786745 L340.2271113420049,199.29694579928866 L341.3473776780319,200.45532496541918 L341.02491295444185,203.10159589629856 L341.57588971672453,206.95099461781226 L343.37691491366263,209.49149607259196 L343.54889609957695,210.15357231240847 z"/>
	<path id="corum-kargi" title="Kargı" class="district" d="M246.0037153182373,21.06927648610919 L248.10093033536327,21.56863045500306 L250.4091407889116,23.483668180923846 L252.3128769718831,24.851552270867305 L254.21661315485454,25.368195481046634 L257.1203880855502,24.12133608010193 L258.97635171688,22.78396241595647 L262.64130263708705,21.871700684596423 L265.3539873612124,22.175787928383155 L267.23383726836175,23.02702880814721 L268.7569854565783,23.361626477731868 L273.1042876560854,23.82436793566809 L276.45473594464386,23.168393781011247 L277.9850500156058,22.398514036708466 L281.1563512355037,21.38556790021509 L284.0927707431564,21.671348888522914 L285.17800387464683,22.753451990158467 L285.74888586677923,24.00031139110325 L285.8205446942443,25.30717462945064 L285.51081931775855,27.283233206967417 L284.65409822496156,30.019001386854335 L284.93993732562615,31.84250783538113 L285.53470559357976,32.967325533133845 L289.31908789289514,36.88893226236947 L291.2228240758666,38.43886189290761 L296.05342525616277,40.99258453219978 L301.2654106404067,42.450982885343926 L304.54977356586045,42.99813652132124 L309.23785330042153,45.49083830901741 L314.3781798572019,48.62222501008498 L317.59088395518967,49.686021856241716 L322.23119113810674,50.780329128196435 L328.08571734195067,53.18149963849862 L330.39392779549826,54.79245012063275 L332.1790288085574,55.40062460820614 L334.7014195353044,56.737998272351525 L336.4387479967188,57.16412721933024 L337.9921521343099,56.9769966077692 L337.04705182097354,58.26453657644454 L332.80723786266174,65.37244877318406 L331.0595586817241,69.20964332437852 L330.02209810187844,70.43006035629828 L327.42645612927817,71.23451858317212 L324.58956277088015,73.07938232975751 L323.407988326912,74.70457101059739 L323.07756151138216,76.40603575593221 L321.9994942626387,77.69764378138068 L321.11410963885686,78.29361409863483 L319.7852364939885,78.55396973211101 L318.40222112392604,79.50080994604217 L313.5588805965256,83.54039032169666 L312.5970598901143,84.44654996789713 L311.3382531543222,86.4073533325149 L306.84205983552744,91.17003079958188 L305.49965113436036,93.28440330738293 L303.495592592939,94.19157996777662 L301.8171836118839,95.91135096859027 L300.63720158630235,96.72903037997649 L295.9865436838612,99.3702162398896 L293.59950852010303,101.3940744844899 L290.5763022102983,104.405453510752 L288.91142878554115,105.64621082653713 L286.41531296219796,107.13410259128597 L280.2295637336312,111.52760390619721 L277.15062278024266,112.80293970455338 L271.6305044379002,114.78713439561636 L262.1166007782081,120.20782004572668 L258.4827020165685,121.5187513408472 L252.93551256162857,123.14800807846014 L251.43784306762137,123.32598556228179 L248.49744251399954,122.86527813273207 L243.89296474481262,121.5187513408472 L242.89372220628212,120.13662905219805 L241.6739297209989,116.09806569073679 L240.03692361803365,112.519192744632 L239.26061965383616,110.1098861207837 L238.51138680223528,108.62199435603488 L236.5144941435601,106.88595112812894 L230.38447955857646,106.2838787257152 L227.55475208292705,106.49643469210787 L224.58728041670452,106.14149673865786 L219.06716207436364,106.17709223542221 L217.76297141451096,106.92154662489328 L216.48744428564385,108.05551745038542 L215.57180371248757,110.25226810784105 L215.73821143404302,112.519192744632 L216.2653019205046,115.21224632840168 L217.18094249366084,122.15641924002529 L218.54007158790296,129.5257040844343 L219.3999775174754,135.58507464791603 L218.7892850656405,138.45407168712077 L217.9572464578584,141.64342819720454 L216.8202597287572,145.0443236594877 L214.87830550447063,148.55200561206385 L213.07568788914358,150.430430827027 L210.69024514377276,152.02409206787564 L207.11208102571615,154.96529711480227 L202.90013438919632,157.77734135918416 L200.86263506162572,157.58207463407697 L198.17861386848523,158.16380675262542 L195.49538888454006,158.33771617967398 L193.78911258169302,158.25025295905303 L192.28825825091116,157.43765861863315 L188.4680465378632,154.61951228909166 L185.21553198017213,153.13772260950242 L182.6230748443497,152.58548390255874 L178.57435109260908,151.4820235028646 L175.0949169146151,150.81384517788845 L172.7070855416625,150.0002338232753 L170.38693195020275,148.63540077591168 L168.4999161603063,147.21158090533854 L166.02052073003807,143.17403455807062 L164.474282475194,139.775173124174 L164.22506899745724,138.82121381089004 L163.60402582609828,134.30973884955986 L162.72102982989827,131.92890862312302 L161.2814836070575,127.41743366179286 L160.43113218781386,125.24509134497562 L158.59985104150044,123.11444661008234 L156.53926164730152,121.94488028782584 L151.33523835499662,121.42213499248693 L148.75950161224756,120.45088643791742 L147.65595566929557,119.63625806911094 L142.1613160211633,116.44079947386764 L136.49549139631029,113.33890618440482 L134.8767981048074,112.5873326955809 L132.81620871061006,110.76992833221368 L131.07489920322337,108.07585773425077 L130.55975185467483,106.13336062511175 L130.19190320702418,101.77748883535136 L130.11785575197638,96.45138550521476 L130.58363813049522,93.85088021303233 L131.95789519942494,90.24759892628919 L132.25169639202784,88.14848163138713 L132.4483600629594,85.04658834192432 L132.35042633209045,83.70006155003946 L130.73093683139467,78.59261627145519 L129.0875610548777,74.36285424165986 L128.00869759694064,70.79110039490796 L128.13449864960072,68.2851774226993 L128.53897292017763,67.29765664103749 L129.38534329345217,66.61625713154895 L132.78834138881814,65.18328413323653 L136.28369975069265,64.10219804579418 L142.29985642092763,62.69261637392686 L143.84450225738357,62.08139084377372 L145.5189301924679,61.0948870763052 L148.73800396400816,58.74456727566636 L150.44905752201953,56.723760073645835 L152.30740978092965,53.833405736382474 L155.58221819605376,46.00849853339005 L156.94293970868392,43.236117842545625 L158.26783180758238,41.473632245614816 L160.60390958292186,39.92268560088339 L161.59757865709506,38.88838216633136 L161.92880168181864,37.855095745972626 L162.16766444003457,35.66953224464293 L164.1733153998441,30.193927828096122 L165.5531459331311,28.10294664674025 L167.42901479431063,26.223504417583747 L167.94416214286076,25.094618663057968 L168.67985943816208,22.205281339987845 L169.82082721323394,21.10080392610048 L178.07592413713394,21.923568408453065 L184.1541851245053,24.572890381912284 L185.97830038807172,25.829919924789625 L188.38125973571195,28.75180170204428 L190.37894860358085,29.454558509591415 L193.56378537977744,29.78712215078953 L194.60602321478675,28.973510796176356 L197.24147564709034,24.01760063238877 L198.37050028425085,22.13205631807269 L200.06164861241257,17.872800876672578 L201.82764060481253,16.588311950577065 L202.46540416924572,15.680118275990072 L204.59924480929794,14.144426844157648 L206.02207063906292,11.513411126177258 L206.5619004726287,9.163091325538417 L206.88516140541245,8.728826265013588 L207.86211008650986,8.098277465188389 L211.58996153304773,6.813788539092801 L213.8711008739986,6.280873101821178 L218.21282960914846,5.027911615716819 L220.1508027874636,4.808236549971264 L222.0394109957482,5.4662447330146975 L225.0323613561784,7.5338345879254645 L228.0491979924298,11.356790940414218 L231.11539959871413,15.617063396007556 L232.09632932578234,17.21580970782244 L233.66645385644676,18.56233649970731 L236.68329049269897,20.034973051557152 L241.04890550366997,21.85237741492437 L243.62464224641906,21.570664483389592 L246.0037153182373,21.06927648610919 z"/>
	<path id="corum-lacin" title="Laçin" class="district" d="M294.4347319646598,266.3375044052225 L295.54225895358337,262.91728567326726 L297.19120819445834,260.15304109596894 L300.75902159299255,257.2057339638826 L302.34347788915017,255.3201896495666 L303.60945050768765,254.37741749240854 L305.1779826199648,254.10689171699963 L307.89305597167186,254.50657829495339 L309.09533185468644,253.80178745901964 L309.910650069392,252.70544615867837 L311.2005089637523,250.49242327413052 L312.2108984310005,249.38489481766325 L314.7651375255094,247.0854257266878 L315.63539417460584,245.9707781708677 L316.2946553872776,244.11676129654288 L317.13624850538775,242.62785251760076 L319.40624091762254,239.8666589828822 L321.84821451577005,237.31802141455643 L322.36097323673675,235.76605775563175 L323.435855648704,234.12866490447266 L326.86751727505475,230.05247201786057 L329.01648588979384,229.02427066846818 L331.09299946787405,229.27649018839827 L332.89641329239475,229.16055057036584 L335.08519236683645,227.8008025939686 L336.167240661549,224.69077319095967 L338.6028445861448,221.95398799687953 L340.4787134473243,220.63797163079266 L341.5344868386339,219.21110071763982 L343.5035121755172,212.14692013121075 L343.54889609957695,210.15357231240847 L347.2488802243229,209.86067222474767 L349.197204122162,209.0735032391594 L353.0707618512105,206.83607201397314 L354.57559722796304,206.58385249404304 L359.7804167294625,206.55232505405175 L363.16032475820015,207.0252366539207 L367.60078343341183,207.46662081379836 L371.8190997434841,208.00157027945653 L374.6066281318501,208.53753675930795 L376.5796345147033,209.10503067915064 L379.2437504779917,209.6409971590021 L381.53842537524133,209.6094697190109 L386.29975635565495,208.82128371922934 L389.01323728897387,208.6321190792818 L391.73308789584536,207.80732056854268 L391.1351347911147,210.47393178328738 L389.8325365496509,212.2516725931172 L388.76641243881886,216.0003869094975 L388.1039663893701,220.5586445237179 L387.59837355114877,222.85709660050017 L386.52428734837605,226.36681258146282 L385.95579398382466,228.82798692916774 L385.00910125210095,235.68469662017037 L385.13490230476106,239.51680610039853 L385.9247418252581,241.00978293611377 L386.9972356096427,242.3746159834774 L388.3054073154645,245.2019154407582 L390.8198359502716,249.5608382730984 L392.840614884768,254.36114526531622 L394.12728894235045,256.95961652911217 L397.7022682236316,262.6376067701189 L400.7390100897343,266.66803401803406 L399.74056376039664,266.44632492390195 L395.26905292661763,263.5905490692097 L393.8358763773294,263.3413805918594 L391.7736945647423,262.2877538876353 L387.9311889942613,261.59415020782757 L383.8283230173258,259.45943741616117 L382.4174403254714,258.5441246422213 L377.6011709106692,257.3054013548228 L374.38846681267984,256.89859567751614 L368.42565615844694,254.4953911388274 L366.57287736389577,253.4966832010398 L364.60464823620606,252.09218660013872 L362.839452452999,251.5745263757661 L360.55273964769003,251.38942979259164 L358.1792400402298,250.94601160432737 L355.40046995299826,250.68768999923768 L348.9742655478283,251.02025364043584 L343.24315176906345,250.83515705726134 L337.0494404485553,251.9813320530727 L331.4624405339121,252.5356047884029 L323.4446139498383,254.19944000858692 L319.24779528800616,255.71580817074718 L316.41090192960814,257.2311593187143 L311.83827252818463,259.8560729515351 L307.17806011541546,262.7769377145964 L304.7464372367904,263.9607422355587 L299.7964046773867,265.91951157178994 L297.7995120187122,266.511413832271 L294.4347319646598,266.3375044052225 z"/>
	<path id="corum-mecitozu" title="Mecitözü" class="district" d="M519.5485498165435,300.8966637066111 L522.8958132683258,302.7527146093224 L527.8227557611012,304.68809261910855 L533.3173954092342,306.1810694548237 L536.5699099669246,309.9328348137839 L536.8231044906321,310.6183023800455 L536.980753911054,312.83641033555966 L536.980753911054,316.58817569451975 L536.8231044906321,320.37960460701726 L537.9282428519722,323.16317245398756 L539.3805284219188,325.01922335669894 L541.1027289086462,326.64949710850516 L541.945914445143,328.4780886279984 L543.3926265507316,328.28994100224395 L548.1722703426083,329.99038873338554 L550.811703820881,330.1429408623755 L552.3340557999023,331.0236751537443 L553.6183412299038,330.629073646757 L555.2585321696437,330.9321438763503 L555.9010729892411,330.41651768036417 L557.9218519237385,331.32776239753105 L559.4442039027605,331.08469600534033 L560.6807167811187,330.446011091969 L561.5812293795882,330.9484161034426 L562.875865529112,330.98909667117323 L564.012852258214,330.5446614687158 L564.6450423582891,331.63388366970423 L563.2867094732414,335.78940366339106 L562.6234672145982,338.32990511817087 L561.55017722102,341.4765470321373 L559.5604504450918,343.73533555538216 L558.0667619970552,344.4919941151725 L555.4488261670226,347.39556963694827 L553.6231184850673,348.37393729087074 L548.5074744133019,351.35887394810777 L546.3600982169523,352.488776716827 L543.9913758646559,354.2238029305395 L540.146481666593,359.3322652233171 L535.8756155497147,364.5495480347742 L529.5274396455609,371.5282994289688 L527.6643101314855,374.06981789794185 L524.2541461533734,377.82056624270865 L522.7692160064713,380.52378996841094 L522.3910166392989,383.42838250438 L522.4849693241963,384.7189735156353 L522.0749215892613,389.6403051968518 L520.8113375983057,392.2621677870928 L519.9585975514794,396.29564607758783 L519.9904459192405,397.4255488463068 L519.0748053460841,401.53937125806965 L518.222065299258,402.70995459451944 L515.2386694491556,404.8660246842444 L513.48541680386,404.2822585373094 L512.3579845850868,404.20801650120103 L505.1538837973303,405.6959082659498 L502.54789110520755,406.44036265542087 L500.03346247040054,407.8885908666325 L497.70375436861355,409.4944562778003 L494.39232033056305,412.0003792500088 L492.2465365526002,413.44962447541354 L488.2304573778167,415.5253504438706 L484.02965767001467,417.0915523015009 L481.8528217334838,418.2275571553796 L479.21657309198724,419.2059248093019 L475.78252283805296,421.39962442417766 L471.490955282129,423.98385748926796 L464.6841628822041,427.46916512959217 L454.13757589782995,432.7556049061914 L450.6915825059852,434.5994516385835 L448.12858511034204,435.2544087790472 L447.0728117190324,428.70687140279756 L447.0728117190324,423.892326211874 L447.4645466425051,416.45795245909585 L447.70579802830116,414.8022533524581 L449.9678283485953,411.79697641135556 L450.48058706956203,410.60300174846066 L451.2345971763265,407.8306210576162 L451.2345971763265,405.74981001819305 L450.9025779424084,403.67001599296304 L450.29984758251334,401.7061615857655 L448.52032003381305,397.58420306045645 L445.8968107394216,393.30867539196413 L444.63004191169045,392.42285602962886 L442.54954728763863,391.65297628532613 L439.8058104049468,390.92072606617427 L432.7498045272836,389.6881048639352 L427.7137813749231,388.18597490048074 L426.08553357309296,387.45474169552205 L423.4015123799525,385.9526117320675 L419.8735094411217,382.87105872647 L418.33523327821905,380.4444628613361 L415.62175234489933,377.2093407125554 L414.53572300421683,375.55262459172434 L414.1137321313713,374.0504946282697 L414.29447161841995,372.0866402210722 L415.38050095910245,367.65652639520334 L416.76749737513643,365.73131852734986 L419.81299754237506,362.8419812042798 L420.9889985219851,360.91575632223305 L421.35127370527687,359.0291949937237 L423.55199591762823,349.6696133730922 L424.30600602439347,344.5082663422648 L424.84902069473475,342.7356106034013 L425.57277485212546,341.46535987601146 L426.9295153187849,340.03950597705176 L430.42726230824286,333.5306151401462 L431.091300776079,332.02848517669156 L432.44804124273924,327.5983713508229 L433.563530323601,325.4036547217537 L437.36304059760323,319.4327643930861 L442.1578123641676,316.15899570496134 L442.82105462281015,315.3118228819704 L443.1228179073553,314.00190860104306 L445.5353317653227,311.4990366714142 L446.04729427709657,311.1522348315104 L447.8268218257969,310.92035559544564 L449.2743301405783,310.1118293117988 L451.7465596881003,309.6501048680558 L452.50056979486476,308.571052809 L455.124079089257,306.76076754498564 L457.8383562317696,305.79765510396226 L459.34558023610396,304.6809735197557 L461.54709865765074,304.1806025366686 L463.95961251561897,304.10330945798034 L466.2813585254668,301.6380670535023 L470.62388346980947,297.2476167811709 L471.2568697790791,296.2458578008034 L473.0061413784041,294.7437278373488 L476.35340483018706,292.77885641595793 L480.24288674311754,289.35151858464985 L481.35917203317376,287.2330780200757 L483.7414299417683,283.22705911279905 L484.5248997887128,280.723170168977 L484.6968809746263,277.8277307607473 L485.8840288829549,277.0568340022512 L489.5792357525356,275.9676118012628 L492.32615747200543,276.00829236899347 L493.999789197896,277.0568340022512 L495.4847193447981,278.5091302702358 L497.0317538088359,280.48620586194585 L497.4425977529653,281.5347474952036 L498.1687405379371,284.76173353043816 L498.45059859263085,288.5063797900454 L498.1368921701761,290.3685327779163 L498.04214327608406,292.3445913554331 L498.64248500839653,294.56371632514066 L499.526277213791,295.9356684718572 L501.3265062015362,297.18557891538165 L503.7581290801613,298.0734323061033 L505.1793624915397,298.3154816841008 L509.316465463819,297.0238736586523 L511.02194555747224,296.70148015938685 L512.3794822333261,296.82250484838545 L514.5905551651992,297.4276282933791 L516.3589357851827,298.3958258053688 L518.6329092433873,300.00881031588943 L519.5485498165435,300.8966637066111 z"/>
	<path id="corum-oguzlar" title="Oğuzlar" class="district" d="M309.910650069392,252.70544615867837 L309.09533185468644,253.80178745901964 L307.89305597167186,254.50657829495339 L305.1779826199648,254.10689171699963 L303.60945050768765,254.37741749240854 L302.34347788915017,255.3201896495666 L300.75902159299255,257.2057339638826 L297.19120819445834,260.15304109596894 L295.54225895358337,262.91728567326726 L294.4347319646598,266.3375044052225 L294.1544663283549,268.1549087685896 L294.6043245229932,269.42515949597947 L295.45069489626695,270.11672914740075 L295.72459085902017,271.3249420090013 L294.89414466962694,275.74691972132405 L293.8956983402893,276.3428900385781 L291.4481512777822,276.3510261521243 L291.05084288995226,274.8631343873754 L288.18767462815117,271.68699906180416 L285.0936057000765,269.2492160405444 L282.5775846468813,267.9189614757518 L280.61174414677424,266.182918247846 L276.5343568640489,263.04339543323226 L273.2380508006862,259.53469646646295 L270.75069327847655,257.94612029658066 L268.2354684344756,256.87520435107103 L262.7121652553577,255.176790648316 L259.44452272297985,254.2899542717876 L255.94518331513382,253.03394174310344 L254.12345667914997,251.26128600424002 L252.85111438705917,249.19267913513593 L252.56209044961906,247.16170179118276 L253.16959806467935,240.55009252075726 L254.3838170856045,236.33863674644078 L255.13543856478634,235.1568662538651 L256.6108142013597,233.71677415619973 L258.229507492861,232.57161617458164 L259.35773592082865,230.87218545763335 L259.70488312943434,228.5086444724821 L260.22480773314805,222.37706590127837 L260.1093574000113,217.9083055360654 L259.58863658710305,215.43289298965473 L259.2709491186774,212.33099970019197 L258.7613752344861,210.71903220386457 L258.3250525961466,207.95173658398645 L263.3196728704172,209.97661184278004 L265.3611532439585,210.64275613936962 L269.03088141933154,212.2516725931172 L270.7459160233121,212.19573681248758 L273.09154830898115,212.41744590661963 L274.80737912215693,213.24936351671167 L276.5662052318107,215.13592484522098 L278.2382445393141,218.02017709732473 L278.8027568578955,219.71248871492023 L279.3457715282368,222.3750318728918 L280.452502307965,224.12226225692368 L281.73439911038304,226.840741195525 L283.70979412081965,229.4198891896488 L284.40488474722406,230.69624200219832 L285.42562493399544,233.6913488013681 L286.4025736150937,234.63513797271938 L287.7489633622299,235.30026525511568 L289.81194138401145,237.49193084160493 L292.20056896615927,238.9340569676568 L293.6990346693585,238.8781211870272 L294.61069419654496,238.32384845169696 L297.02161563612583,238.18553452141268 L298.30271622935106,238.3513078349152 L300.6045570093477,239.37747515592108 L301.4509273826206,240.1819333827948 L301.82036844865934,241.26403648443036 L302.71053032760716,242.12341347774057 L304.0354224265048,244.45339299451408 L305.75045703048534,246.17316399532774 L309.910650069392,252.70544615867837 z"/>
	<path id="corum-ortakoy" title="Ortaköy" class="district" d="M515.2386694491556,404.8660246842444 L512.1899844451416,406.581727628285 L511.2114433456561,408.19572915299887 L509.06406714930506,412.6329620782206 L507.80048315834927,414.9314141550029 L507.231989793798,417.1098585569797 L507.16908926746794,419.08693414868986 L507.6109853701655,423.6848553164475 L508.2113271024789,425.33852039469895 L509.9478593546995,426.9932024871435 L513.390667909768,428.76789225439353 L515.6009446324483,432.6000017346217 L515.790442420632,434.33401093414096 L515.727541894302,439.37636730435617 L514.5268584296764,443.16881323104695 L514.1797112210699,445.5079458755599 L511.9821738454955,455.83877605076094 L511.3659079293009,458.27147400105446 L510.2169780622884,461.34895894987875 L508.6763132718031,462.13612793546696 L503.77325705484895,464.17625840715965 L502.00806127164265,464.74883739796866 L497.05006662029814,465.929590876351 L493.88354265556563,467.68292334554235 L490.32607997655464,470.11663831002915 L486.23595334672495,472.55035327451577 L481.1648969898264,476.48619820245716 L477.6353016326059,479.13450316172316 L475.64557485667683,480.4942511381205 L472.1159794994579,483.2493425876794 L469.95904879277896,484.6090905640768 L468.02585286962824,486.6492210357693 L466.68105554087856,486.8282155337842 L464.2159918761027,486.2912320397394 L461.60999918397994,485.1816695548857 L457.4641379105664,482.56997710657737 L455.72680944915203,481.31701562047306 L449.8436197143234,476.23601271091366 L447.99482196574047,474.2314777359854 L445.69775844090987,472.65713976480896 L444.5766958956884,472.2279597752504 L441.52323363650993,472.0133697804713 L439.36630292983176,472.90732525635235 L438.59796105757414,473.67313694388224 L437.7619414038229,472.3957671171394 L435.6058069063376,470.2661393964394 L432.7306955066268,468.4670412885509 L429.1660669448697,466.7411682025778 L426.2336284831861,465.19835767139244 L423.7040718736913,464.24338134391513 L421.43328325226446,463.80301419823087 L417.32165897419384,462.4076707250692 L415.8271743169645,462.07714111225766 L413.98713486951755,461.2696318428041 L409.9909609245853,459.24984165497665 L406.9255555274963,458.00399926822536 L409.00843877912905,455.3119626986489 L410.60324579480914,451.78800851898046 L412.6877214648292,449.2424219932345 L413.51577902663985,448.53763115730084 L419.8926184617793,446.0317081850922 L424.3689065507227,444.5041528668059 L426.208149788976,444.0729388488608 L437.55174217659254,440.70560485495554 L441.16971675435246,439.3743332759697 L444.72080975981163,437.1033405824056 L445.2335684807792,436.5643230599744 L448.12858511034204,435.2544087790472 L450.6915825059852,434.5994516385835 L454.13757589782995,432.7556049061914 L464.6841628822041,427.46916512959217 L471.490955282129,423.98385748926796 L475.78252283805296,421.39962442417766 L479.21657309198724,419.2059248093019 L481.8528217334838,418.2275571553796 L484.02965767001467,417.0915523015009 L488.2304573778167,415.5253504438706 L492.2465365526002,413.44962447541354 L494.39232033056305,412.0003792500088 L497.70375436861355,409.4944562778003 L500.03346247040054,407.8885908666325 L502.54789110520755,406.44036265542087 L505.1538837973303,405.6959082659498 L512.3579845850868,404.20801650120103 L513.48541680386,404.2822585373094 L515.2386694491556,404.8660246842444 z"/>
	<path id="corum-merkez" title="Merkez" class="district" d="M464.0511765729354,265.48016144029884 L464.8370350474617,266.82872226057015 L467.08314118387364,267.61080617519207 L468.64291499501655,269.48414631918894 L467.67711324263433,270.1960562544755 L468.15961601422737,271.00254850973585 L469.2735126767034,271.5476681173267 L469.8117500918803,272.32975203194854 L471.3603769743054,272.8514803130943 L472.1534013315778,274.09630568565245 L473.6709760554355,275.69708602585393 L476.3199640440371,277.8368838884866 L477.86301746210484,278.5498108379665 L479.63139808208734,278.9525484585 L482.3472676429882,278.7511796482332 L484.6968809746263,277.8277307607473 L484.5248997887128,280.723170168977 L483.7414299417683,283.22705911279905 L481.35917203317376,287.2330780200757 L480.24288674311754,289.35151858464985 L476.35340483018706,292.77885641595793 L473.0061413784041,294.7437278373488 L471.2568697790791,296.2458578008034 L470.62388346980947,297.2476167811709 L466.2813585254668,301.6380670535023 L463.95961251561897,304.10330945798034 L461.54709865765074,304.1806025366686 L459.34558023610396,304.6809735197557 L457.8383562317696,305.79765510396226 L455.124079089257,306.76076754498564 L452.50056979486476,308.571052809 L451.7465596881003,309.6501048680558 L449.2743301405783,310.1118293117988 L447.8268218257969,310.92035559544564 L446.04729427709657,311.1522348315104 L445.5353317653227,311.4990366714142 L443.1228179073553,314.00190860104306 L442.82105462281015,315.3118228819704 L442.1578123641676,316.15899570496134 L437.36304059760323,319.4327643930861 L433.563530323601,325.4036547217537 L432.44804124273924,327.5983713508229 L431.091300776079,332.02848517669156 L430.42726230824286,333.5306151401462 L426.9295153187849,340.03950597705176 L425.57277485212546,341.46535987601146 L424.84902069473475,342.7356106034013 L424.30600602439347,344.5082663422648 L423.55199591762823,349.6696133730922 L421.35127370527687,359.0291949937237 L420.9889985219851,360.91575632223305 L419.81299754237506,362.8419812042798 L416.76749737513643,365.73131852734986 L415.38050095910245,367.65652639520334 L414.29447161841995,372.0866402210722 L414.1137321313713,374.0504946282697 L414.53572300421683,375.55262459172434 L415.62175234489933,377.2093407125554 L418.33523327821905,380.4444628613361 L419.8735094411217,382.87105872647 L423.4015123799525,385.9526117320675 L426.08553357309296,387.45474169552205 L427.7137813749231,388.18597490048074 L432.7498045272836,389.6881048639352 L439.8058104049468,390.92072606617427 L442.54954728763863,391.65297628532613 L444.63004191169045,392.42285602962886 L445.8968107394216,393.30867539196413 L448.52032003381305,397.58420306045645 L450.29984758251334,401.7061615857655 L450.9025779424084,403.67001599296304 L451.2345971763265,405.74981001819305 L451.2345971763265,407.8306210576162 L450.48058706956203,410.60300174846066 L449.9678283485953,411.79697641135556 L447.70579802830116,414.8022533524581 L447.4645466425051,416.45795245909585 L447.0728117190324,423.892326211874 L447.0728117190324,428.70687140279756 L448.12858511034204,435.2544087790472 L445.2335684807792,436.5643230599744 L444.72080975981163,437.1033405824056 L441.16971675435246,439.3743332759697 L437.55174217659254,440.70560485495554 L426.208149788976,444.0729388488608 L424.3689065507227,444.5041528668059 L419.8926184617793,446.0317081850922 L413.51577902663985,448.53763115730084 L412.6877214648292,449.2424219932345 L410.60324579480914,451.78800851898046 L409.00843877912905,455.3119626986489 L406.9255555274963,458.00399926822536 L403.27573258197526,457.54430885286877 L396.2858120674183,457.1924219419987 L392.4226050578924,456.5659411989466 L391.47193128019717,456.1743907345389 L388.83568263870063,453.9023810267816 L386.5362304862874,450.57369357222024 L382.6427675273877,444.30786912750557 L380.5574956481732,441.91991980171576 L378.35040376226925,438.98278281156223 L376.97057322898064,437.49387403262006 L374.8860975589605,436.2409125465157 L371.60571567947915,433.6170159278881 L368.7847465049624,431.93385743803213 L366.24006192078235,430.91480921637907 L362.0090062636058,430.0147516553383 L358.66731627618174,430.28832847332694 L356.4904803396523,430.6412323983904 L353.1185344028537,431.73757369873164 L351.248239006033,432.48202808820275 L344.9327076788347,435.45781161770043 L338.34089176130294,437.6504942183831 L334.84553339942767,439.0214293509062 L331.9330001675953,439.53095346173285 L328.8675947705071,438.86480916514324 L327.6414326116713,438.78649907226173 L323.4103769544946,439.6479100939584 L317.799490764031,440.9405351336001 L311.4226513288924,443.17288128782 L307.7131126938161,443.7210519379907 L302.7774118999071,443.4861216593461 L300.9071165030864,443.7210519379907 L299.5885940777406,444.1909124952798 L295.6338230108982,446.38359509596245 L293.48803923293616,447.75453022848563 L290.63681410904655,448.8112079752895 L287.96951330898264,449.4387057325349 L285.8842414297673,450.4170733864573 L280.67225604552254,452.25786907626957 L279.90630280084747,452.72772963355885 L276.9324614610732,456.1347271810015 L275.43001471190325,457.42735222064323 L273.0079463436054,457.7009290386318 L270.46326175942454,457.6622824992877 L268.7768906864287,456.52627764540904 L267.3970601531418,456.76120792405356 L266.0307651761543,457.63990818703587 L265.6565468549511,455.43705544442065 L265.7393526111309,453.7518629261781 L264.9144798860973,451.3995090971527 L263.5672939297658,448.66068987468606 L262.7973596391209,447.7474111291326 L259.85616287630376,444.9028224305664 L257.9595925760793,443.4637473470942 L255.67765702593317,442.5504686015409 L250.97683794426774,441.6371898559877 L248.50221976916316,441.3920894354104 L246.60564946893783,441.70736383532306 L243.55457583734199,441.5324373940812 L241.24477296540636,440.7595066071987 L238.6610741307174,439.4607794823974 L233.9323877272593,435.91445099047706 L230.0293702580309,430.75208694545637 L227.22512147658995,423.34313854751 L225.98781238903803,418.5672398959306 L225.5204375921311,413.1597754303327 L225.54830491392215,409.91651716800584 L227.39312161653436,409.3480062339698 L231.60427204385968,406.57562554312534 L233.5135816911892,404.2029314302346 L236.88791625556962,399.1249795632551 L237.38475079265663,397.3543578527781 L237.51612530967395,391.80756244270265 L237.25417248483296,390.3379769334326 L236.07737529602764,386.42857437451624 L235.71111906676515,381.71776463130584 L236.02482548922012,379.7132296563775 L237.46357550286723,377.87548500914494 L238.3792160760243,377.27442962092454 L239.37288515019668,375.93807297097226 L241.0990666828958,372.0957933488115 L241.9621574492445,369.189166784456 L242.3546885819108,366.08218842402675 L242.69466990776954,361.7049593362079 L242.30293498429774,359.80009175221966 L240.02657289851118,355.2896338050828 L238.32666626921673,352.3169013181648 L233.56613149799597,345.86801431866195 L231.52624354284274,342.8281588949886 L227.7856527492006,338.5180527439251 L226.87001217604438,336.0792527084721 L226.58258065699238,332.8715899429096 L226.08574611990537,331.66846215227525 L224.5418964926447,329.2632235852 L223.20824609261194,328.461816400906 L222.60631194191222,325.6884186958682 L221.6126428677382,323.1824957236597 L221.16756192826432,321.5115414041229 L216.4340982696434,318.008944522513 L216.7732833863077,316.7905615189797 L217.5734736263272,315.76134315539406 L221.17074676504058,311.83973642615854 L222.5378379512225,310.6762721890616 L224.72661702566495,309.73756808867665 L225.84290231572118,308.9087015211645 L227.4504486785055,306.9407790571938 L228.52851592724892,306.7394102469271 L230.35183498162172,307.18384544938453 L230.96571227023287,308.20797874200383 L231.4299022303627,309.86977993380134 L232.88378021869755,313.28796463737 L233.97697544212542,313.5025546321492 L236.5941150629651,311.67192908426955 L240.51385292526936,309.36737492232766 L243.7201873497046,306.6722873101715 L244.80542048119423,306.17598438385744 L247.54915736388614,305.79968913234876 L248.59059898970247,304.84369579067834 L249.26817301383892,302.3204835771842 L250.06278978950036,301.06142000592024 L252.60428953690416,299.1718076348311 L254.96345737887123,298.2331035344461 L256.9484068996358,298.10902780286756 L259.168238132644,298.21072922219435 L263.0760328570377,298.6327901123999 L264.72100105194284,298.51583348017425 L266.6629552762286,297.42050919402624 L268.650293424575,295.4983523687526 L271.4003999808202,293.64840355120083 L275.2460903880775,291.67946407303685 L275.87270702379453,290.5760036733427 L276.4762335928832,286.9462800175746 L277.08851846310705,285.2824447973906 L277.7437986298096,284.44645913052557 L279.12761020906737,283.589116165602 L282.19779286132007,282.2293681892046 L283.6453011761015,282.06156084731566 L286.2258151740149,282.4693835388156 L287.22744634012884,281.7778138873943 L287.4886029557762,281.06183589533475 L287.5021385120757,278.9179699759289 L288.46157059090444,277.62737896467377 L291.4481512777822,276.3510261521243 L293.8956983402893,276.3428900385781 L294.89414466962694,275.74691972132405 L295.72459085902017,271.3249420090013 L295.45069489626695,270.11672914740075 L294.6043245229932,269.42515949597947 L294.1544663283549,268.1549087685896 L294.4347319646598,266.3375044052225 L297.7995120187122,266.511413832271 L299.7964046773867,265.91951157178994 L304.7464372367904,263.9607422355587 L307.17806011541546,262.7769377145964 L311.83827252818463,259.8560729515351 L316.41090192960814,257.2311593187143 L319.24779528800616,255.71580817074718 L323.4446139498383,254.19944000858692 L331.4624405339121,252.5356047884029 L337.0494404485553,251.9813320530727 L343.24315176906345,250.83515705726134 L348.9742655478283,251.02025364043584 L355.40046995299826,250.68768999923768 L358.1792400402298,250.94601160432737 L360.55273964769003,251.38942979259164 L362.839452452999,251.5745263757661 L364.60464823620606,252.09218660013872 L366.57287736389577,253.4966832010398 L368.42565615844694,254.4953911388274 L374.38846681267984,256.89859567751614 L377.6011709106692,257.3054013548228 L382.4174403254714,258.5441246422213 L383.8283230173258,259.45943741616117 L387.9311889942613,261.59415020782757 L391.7736945647423,262.2877538876353 L393.8358763773294,263.3413805918594 L395.26905292661763,263.5905490692097 L399.74056376039664,266.44632492390195 L400.7390100897343,266.66803401803406 L401.3656267254513,268.04303720733037 L403.6396001836552,271.3513843780262 L406.56726139017354,273.8206948392773 L408.1246465737338,274.3363210352634 L413.62008243106055,275.6269120465185 L418.76757487058796,276.23203549151214 L424.42066014833665,276.43442131597214 L427.16519324022295,276.6378241546255 L429.6955460589115,276.5300206501392 L434.27454513388744,277.36193826023117 L435.56997749260506,277.36193826023117 L439.5175826767012,275.868961424516 L444.00183285758527,273.89290284699916 L447.7607364626906,272.03685194428795 L450.26401816878075,269.6234772636665 L453.6423337791311,267.27925954818727 L457.52226118173286,266.14122066592205 L458.8957220414673,265.5005017241641 L461.1426243870738,264.88419112304456 L462.3488813160583,264.86079979659945 L464.0511765729354,265.48016144029884 z"/>
	<path id="corum-osmancik" title="Osmancık" class="district" d="M251.12413664516725,188.54913980484832 L247.09850296005573,188.3457369661951 L241.9581764032746,187.56161902318658 L237.3648455628046,186.1388161668068 L234.24848277729689,185.29571140058886 L232.31528685414617,183.95935475063672 L230.63289682711957,182.07177640793407 L227.5396241082401,178.00473664906136 L224.71945114291793,175.04115728988282 L219.71607256751372,171.6422958559862 L218.579085838411,170.4228958382597 L212.9164460503343,165.33884188612052 L210.710150373624,163.07293426352277 L208.80004451710002,161.3592653478687 L205.56982381684364,159.03538791625482 L202.90013438919632,157.77734135918416 L207.11208102571615,154.96529711480227 L210.69024514377276,152.02409206787564 L213.07568788914358,150.430430827027 L214.87830550447063,148.55200561206385 L216.8202597287572,145.0443236594877 L217.9572464578584,141.64342819720454 L218.7892850656405,138.45407168712077 L219.3999775174754,135.58507464791603 L218.54007158790296,129.5257040844343 L217.18094249366084,122.15641924002529 L216.2653019205046,115.21224632840168 L215.73821143404302,112.519192744632 L215.57180371248757,110.25226810784105 L216.48744428564385,108.05551745038542 L217.76297141451096,106.92154662489328 L219.06716207436364,106.17709223542221 L224.58728041670452,106.14149673865786 L227.55475208292705,106.49643469210787 L230.38447955857646,106.2838787257152 L236.5144941435601,106.88595112812894 L238.51138680223528,108.62199435603488 L239.26061965383616,110.1098861207837 L240.03692361803365,112.519192744632 L241.6739297209989,116.09806569073679 L242.89372220628212,120.13662905219805 L243.89296474481262,121.5187513408472 L248.49744251399954,122.86527813273207 L251.43784306762137,123.32598556228179 L252.93551256162857,123.14800807846014 L258.4827020165685,121.5187513408472 L262.1166007782081,120.20782004572668 L271.6305044379002,114.78713439561636 L277.15062278024266,112.80293970455338 L280.2295637336312,111.52760390619721 L286.41531296219796,107.13410259128597 L288.91142878554115,105.64621082653713 L290.5763022102983,104.405453510752 L293.59950852010303,101.3940744844899 L295.9865436838612,99.3702162398896 L300.63720158630235,96.72903037997649 L301.8171836118839,95.91135096859027 L303.495592592939,94.19157996777662 L305.49965113436036,93.28440330738293 L306.84205983552744,91.17003079958188 L311.3382531543222,86.4073533325149 L312.5970598901143,84.44654996789713 L313.5588805965256,83.54039032169666 L318.40222112392604,79.50080994604217 L319.7852364939885,78.55396973211101 L321.11410963885686,78.29361409863483 L321.9994942626387,77.69764378138068 L323.07756151138216,76.40603575593221 L323.407988326912,74.70457101059739 L324.58956277088015,73.07938232975751 L327.42645612927817,71.23451858317212 L330.02209810187844,70.43006035629828 L331.0595586817241,69.20964332437852 L332.80723786266174,65.37244877318406 L337.04705182097354,58.26453657644454 L337.9921521343099,56.9769966077692 L339.0582762451411,56.304750226020005 L341.8266956128494,55.31112735919868 L343.1515877117471,54.12935686662303 L345.15166520719845,50.77015898626379 L345.70980785222747,49.330066888598395 L346.04660434130994,47.46486285814766 L345.9247843346206,45.61288001220941 L345.0792101705405,43.3490064179982 L345.0577125223011,42.575058616922426 L346.35553350859965,40.35898468979474 L348.92410436860325,39.13856765787491 L352.4552921442104,37.10148822876214 L353.97844033242615,36.82791141077348 L357.64339125263473,37.52660016154756 L358.3806809663242,37.80017697953622 L357.5239598735272,39.25959234687366 L357.34083175889594,41.294637747599914 L358.10519258518286,43.016442776800076 L360.61484396482564,46.27393923783261 L361.64275003434244,47.009240499564335 L363.288514438442,48.84901917518335 L363.4533297416101,50.53014363665288 L364.2001739656292,53.80492933897101 L364.37295136073715,60.783680733165646 L364.5935013074884,61.59424104519908 L367.35156995567417,64.02490496710597 L370.164577038251,65.39889114220901 L371.98550746504037,65.85654752917887 L373.58509173588493,67.02001176627579 L374.24674157614004,67.93532454021565 L375.1568086849383,70.50735343498658 L375.2674817629099,76.28501106693352 L374.6878414696432,79.3848703280098 L374.08113006377823,81.4636473390465 L373.47441865791166,84.45773712402301 L372.81276881765734,88.79123460153157 L372.81276881765734,90.58829868103342 L372.2060574117924,91.75074590393703 L371.01970571265826,92.87759763007627 L369.28237725124313,93.82952291497372 L367.51718146803677,95.59099149771129 L366.2480240127223,97.59857751521938 L365.7519856848305,99.1841026425218 L365.86265876280294,100.17060640999031 L366.66205279362794,101.43882310899365 L367.87547560535864,104.821412315798 L368.7027369579764,106.40592042890718 L369.75134446653817,107.25207623770488 L372.45447468033467,108.09721503230935 L378.27396767963967,110.28176151944574 L379.84568462869305,110.77501340318003 L381.3353920307588,110.80959188575108 L382.7693647892415,111.26826528691424 L384.70017208480965,111.26826528691424 L387.8165348703173,111.62015219778442 L391.2091822461617,111.51438272168475 L392.6988896482266,112.11340408151872 L394.7395738125743,111.7259216738842 L397.277092514009,110.45770497488083 L400.5311994900874,110.70382240965132 L403.096585513314,111.51438272168475 L406.9852712170492,111.69032617711984 L408.94394583441084,112.07780858475438 L412.05393894636603,113.01244462836628 L414.311192011495,113.15584362961687 L416.020653151119,112.2110374440723 L416.14645420377747,113.46094788759684 L417.69428487700964,117.33373793555563 L418.16802934746914,119.18978883826695 L419.1155182883873,124.87693220701313 L418.97220063345776,128.56055761502438 L417.12021804810024,131.13563755237513 L416.41636912056157,132.36419069784108 L415.4553446233439,133.20221039309266 L414.98637740804884,134.1907481889477 L413.27452764084296,135.56880242082383 L411.84453592833097,135.8983150194421 L411.0236442492665,136.49733637927608 L409.99175713377895,136.4068221160754 L408.53787914544586,137.03635390170737 L406.3339720963181,137.15534456231953 L405.30208498083056,137.664868673146 L404.0130222956647,137.69537909894407 L402.9341588377284,138.23439662137523 L402.06629081621446,139.37243550364045 L399.95633645198427,140.59997163491315 L398.7142501092671,143.0286015284335 L396.8551016411634,147.8421297051638 L396.85112059519344,150.63078262310054 L398.46185179475407,152.66989608059987 L399.7564879442788,154.7669793471153 L400.45157857068233,157.18747312708962 L402.97795034340083,161.7864113090407 L404.6197337015297,164.04519983228553 L406.0409671129073,165.4974961002701 L407.9040966269826,166.58671830125854 L409.13583225017567,168.56277687877528 L410.0204206647645,170.9029265374815 L410.8094639760663,172.39488635900335 L411.3150568142884,173.92752674825599 L411.4727062347096,176.75177516295705 L411.09371065834364,179.57500656346483 L410.71471508197527,181.10764695271746 L409.7361739824889,183.0440419766968 L407.14610547424746,185.34351106767238 L405.3777248542641,188.16674246818016 L403.2621970256765,189.6190387361647 L401.6196174583524,191.475089638876 L400.95637519971,192.76568065013123 L399.6306868916179,194.37866516065185 L397.546211221597,195.8309614286364 L394.83034166069706,197.00052775089287 L392.9035154110973,198.41316046534004 L391.7354765234271,200.14716966485946 L391.29278421153583,201.8415153108414 L391.7354765234271,205.79464948006822 L391.73308789584536,207.80732056854268 L389.01323728897387,208.6321190792818 L386.29975635565495,208.82128371922934 L381.53842537524133,209.6094697190109 L379.2437504779917,209.6409971590021 L376.5796345147033,209.10503067915064 L374.6066281318501,208.53753675930795 L371.8190997434841,208.00157027945653 L367.60078343341183,207.46662081379836 L363.16032475820015,207.0252366539207 L359.7804167294625,206.55232505405175 L354.57559722796304,206.58385249404304 L353.0707618512105,206.83607201397314 L349.197204122162,209.0735032391594 L347.2488802243229,209.86067222474767 L343.54889609957695,210.15357231240847 L343.37691491366263,209.49149607259196 L341.57588971672453,206.95099461781226 L341.02491295444185,203.10159589629856 L341.3473776780319,200.45532496541918 L340.2271113420049,199.29694579928866 L337.3464264779352,198.60537614786745 L335.7309180232094,198.424347621466 L333.68784523127994,199.13625755675253 L332.6750671364492,199.22575480576 L331.97997651004476,198.60741017625398 L332.2005264567968,197.161215993429 L334.3829358576843,194.5302002754486 L333.33990181348133,192.61923060630087 L331.6559193680666,190.49570497076044 L328.1987790475057,188.89797567313877 L326.1063412855449,188.57863321645306 L319.8298242088563,189.4502143800825 L312.64244381417484,188.72406624609016 L309.6638252192378,188.11385773013026 L304.2050149848365,187.8524850824608 L301.97642545069317,188.0263945095094 L297.76925606933776,188.60710961386457 L294.7213672745182,188.25929075976745 L290.51419789316276,189.59564740971962 L288.87639558100386,189.56615399811486 L284.19150068321903,190.32179554371183 L278.9150223542553,191.6866285910755 L278.46038690445334,191.71612200268027 L274.11706575091625,190.69910780941376 L271.45613462440406,189.18884173241298 L269.31831293838184,186.95141050722668 L267.0889271950449,186.22526237323444 L265.4288310254522,186.16729256421826 L263.4733412448676,186.69003785955718 L259.06074989144787,188.78203605510635 L256.2182830686926,189.62412380713107 L254.4212389177244,189.42072096847775 L251.12413664516725,188.54913980484832 z"/>
	<path id="corum-sungurlu" title="Sungurlu" class="district" d="M102.41933030939765,368.64099613428533 L103.78164424041597,368.3145345782468 L108.9140087052557,366.16049851690826 L110.57649350243025,365.36621043196726 L112.41812536826535,365.0580551314075 L116.75189201147452,365.4892691493525 L118.16994058607668,365.26349199844725 L119.33001738180616,365.7567438821815 L119.83401780163857,367.1927679230738 L119.861088914236,368.2433435847181 L119.40884209201673,369.9315871455404 L118.8530880745704,370.73096030144796 L117.70495441675072,374.7725747054889 L116.69695357708514,377.39342028153663 L116.5576169681263,379.30337293649126 L116.14040335044513,381.43503468557776 L116.27973995940397,384.2338577454471 L116.52258376358901,385.87735268176584 L118.24876529628807,391.3956716944298 L118.77028231838909,392.2621677870928 L119.81331636259443,392.7615217559866 L122.77680698284382,393.6870046718592 L125.09775678349723,393.8537949995548 L129.32323897631497,393.48665287578575 L132.47861601233234,392.4208220012424 L134.09571688544548,391.72111623627507 L140.1986603578317,389.42266415949274 L142.31100334964376,387.5238986606642 L143.17170548841148,386.4245063177431 L144.03240762717843,384.22572163190097 L145.153470172399,383.2931196166756 L148.77861063290516,382.12762135119226 L149.97849788833634,381.36079264946926 L152.40375109341045,378.6290925263554 L154.02005575733077,377.71784780918875 L157.44694012851716,377.6191974324418 L159.1165908084387,377.95176107364 L161.61987251452814,378.8853801030587 L162.61115296111953,379.5179629312703 L164.3325572386534,381.5835187577947 L165.16698447401652,383.8819708345769 L164.95837766517673,386.3136517706771 L165.24501297503343,391.9102808762226 L165.27049166924434,395.8837553293148 L165.71557260871583,398.89106629880376 L166.31750675941802,400.46133621320735 L167.75546056386983,401.76413139478154 L169.3773386921482,402.49943265651336 L171.39174795309287,403.1340495131116 L176.3091359355395,403.635437510392 L180.04972672918242,404.67075795913723 L183.16210846872022,406.50850260636986 L188.55005608485004,407.4105941957973 L192.26437197508918,409.4822521074811 L195.37754992382062,410.6843628839221 L198.25425374192037,410.9182761483733 L201.23605717363444,410.35078222853053 L203.5641728570333,409.54937504423657 L205.29035438973233,408.04521105239553 L208.03727610920126,405.90744721814934 L209.397201412637,405.673533953698 L212.6146827657891,406.8756447301389 L216.7732833863077,407.81129778794406 L220.4875992765468,409.18121590627413 L222.71141155552579,409.6490424351767 L225.54830491392215,409.91651716800584 L225.5204375921311,413.1597754303327 L225.98781238903803,418.5672398959306 L227.22512147658995,423.34313854751 L230.0293702580309,430.75208694545637 L233.9323877272593,435.91445099047706 L238.6610741307174,439.4607794823974 L241.24477296540636,440.7595066071987 L243.55457583734199,441.5324373940812 L246.60564946893783,441.70736383532306 L248.50221976916316,441.3920894354104 L250.97683794426774,441.6371898559877 L255.67765702593317,442.5504686015409 L257.9595925760793,443.4637473470942 L259.85616287630376,444.9028224305664 L262.7973596391209,447.7474111291326 L263.5672939297658,448.66068987468606 L264.9144798860973,451.3995090971527 L265.7393526111309,453.7518629261781 L265.6565468549511,455.43705544442065 L266.0307651761543,457.63990818703587 L266.53635801437485,460.9848678686894 L266.3166042768173,462.460555463119 L264.8595414517079,467.2710325972696 L264.9964894330833,469.7637343849657 L266.3436753894148,472.53814910419663 L267.96555351769314,474.9606769125575 L269.0101799802858,478.6829488599129 L270.577119674174,481.8428119583918 L271.3749212866117,484.8277486156289 L273.4363068900043,489.56805177044424 L274.3113407942644,493.723571764131 L275.08127508491015,497.93706156683396 L275.3376544453931,503.7421785819992 L276.0208019338877,507.7685377731412 L276.5152478433921,509.52492128491247 L277.69761849655464,516.2667083720761 L274.47854472501433,518.9984084951899 L274.03585241312385,520.1283112639089 L273.95304665694175,525.1452422792926 L273.39968126707805,527.5474298037878 L272.7356427992411,527.9003337288515 L269.1407582881095,527.5118343070236 L268.1447005863545,526.4165100208755 L266.6788794601108,523.131554176625 L264.68756026579274,520.693771155365 L260.7606565207431,517.0203158892864 L259.79246614078005,516.4548559978302 L258.5201238486892,516.1721260521023 L256.39106046380135,516.2077215488666 L253.79064123603746,515.995165582474 L250.83192787095004,516.5250299771658 L248.1487028870049,517.3376243175856 L245.13425487833524,518.5743135765977 L242.83878377189194,519.7754073388454 L236.5057358424266,522.7074592580327 L234.37587624834424,523.7671880474164 L230.6695224500466,526.0280105990478 L228.29124558742194,527.688794776652 L226.65981294881567,529.4197529335916 L224.39220916416264,535.5665867176942 L223.645364940146,536.5551245135492 L219.93901114184752,539.5939629230295 L215.84569967523998,541.324921079969 L213.8822478027156,541.8191899778966 L206.91302872720436,544.1512035230566 L205.1701268014303,544.9282023667123 L203.42802108485154,546.270661101824 L199.4175153744261,548.9199830752833 L197.70327697963924,551.0394406540505 L196.8736269994397,552.4174948859268 L195.37993855140323,556.9035444924251 L195.02005199569402,558.9528280918571 L194.3010750934669,566.8306200328993 L194.36158699221355,569.4463805379809 L193.36075203529492,569.8043695340107 L190.01906204787008,571.6187228547981 L188.2785487496794,572.8971096957341 L184.65738933514484,574.9921589338628 L179.915167375388,577.5224902467102 L177.5138004461359,579.4395620010173 L175.71357145839147,582.0207440235276 L173.79231867315056,584.1422356306816 L172.45150239037162,587.5665224194099 L171.77153973865416,588.5123456191478 L169.5103056275545,590.3521242947667 L166.80956404133983,592.1674946297475 L164.26806429393602,594.875803426416 L162.32770248803752,595.6172067733074 L158.66593640460673,596.2823340557037 L154.22388531100694,596.5376046182137 L149.4020424318459,595.821626626154 L147.20052401029923,595.7199252068272 L141.75843416897453,597.1762895315851 L138.49716131014833,598.4801017273526 L136.90633534043974,599.8012031644057 L135.3385994373571,598.42009788995 L133.76927111588628,596.5111622491888 L132.01362984300718,592.073929323967 L130.97696547235518,588.1370673818324 L128.85984522537876,584.2235967661429 L127.68941771012763,582.3146611253817 L124.7999745449228,578.6879885121934 L121.93601007392812,575.8250935581482 L120.64057771521058,574.3616101340378 L118.32440516972156,570.8295198408233 L116.08307628847399,565.9620899118498 L115.11170107173461,563.6402465086225 L113.29315927252625,560.9990606487094 L110.35435113729017,559.0901250079481 L108.21254840529804,556.4499561622283 L106.06994946411231,551.9008516757474 L104.70046965034777,549.9919160349863 L102.90740654534952,548.3372339425417 L100.39138549215505,545.1560135460039 L98.97174449916554,544.3607084468696 L96.63088946866006,543.374204679401 L93.21833686296605,542.1659918178005 L92.74936964767178,541.8232580346697 L90.5645716192009,541.492728421858 L89.11467467683767,539.9967005435632 L86.88130788752994,540.4950374982635 L85.7960747560411,539.0101967760945 L85.56835892654291,537.1277035043582 L85.62090873335052,534.4987218147643 L85.06356229751606,533.4735715079518 L83.61605398273542,531.7782088477765 L83.39709645437077,530.9788356918691 L83.64073646775029,527.6379440669887 L83.30314376947254,525.58662643917 L81.88907624084189,522.8417051315439 L81.59049779307381,521.1748188687801 L81.75770172382374,519.5618343582594 L80.99334089753685,517.0650645137903 L80.2966578527444,515.8019328857532 L79.1771877259103,514.8296673169904 L77.93828621997105,514.3954022564657 L76.49396274196508,513.4719533689797 L74.75106081619263,512.0237251577682 L73.96918338763626,511.0748509154506 L73.83064298787193,510.125976673133 L74.29324052961368,508.7163950012656 L74.40311739839242,506.75762566503425 L74.09020718513196,503.3953767420954 L72.77646201495128,500.7246974705775 L73.13555236146681,499.7768402424532 L75.79489106959002,495.650813660371 L75.97085330147588,494.68159913418805 L75.24232188891997,492.4360317954557 L72.17452786424911,486.52311127580424 L69.55340719744027,483.60224651274285 L66.40201120739364,480.68138174968146 L63.445686469889665,479.32773585844376 L60.29429047984303,478.6148089089639 L58.063312318118705,477.8673034769132 L56.12215430302574,476.99775634167025 L51.14345821263721,474.80303971260116 L48.47456499418439,473.1473406059633 L47.331208591529915,471.68589121023945 L46.56844018363195,469.5755867592115 L45.80567177573238,466.8815161612486 L46.01507479376663,464.12845874007616 L46.69583365467936,460.12752490376585 L48.29701034391201,454.67327778527766 L49.00882136339132,453.1792839353691 L50.609998052623965,451.26424620944834 L54.24469302345807,448.2772755238246 L64.74271124699615,441.10122337613626 L70.43640319364026,437.4979420893931 L72.11401596550166,436.16667051040713 L74.52891845105333,433.86109933427207 L78.1644096310811,429.51031261547797 L79.05377530083362,428.2115854906768 L81.54033661384884,425.07307969025635 L84.65829181774467,421.5237001557563 L85.65833056547044,420.5483835444137 L88.83440904053191,417.93160602513905 L93.32264026738676,416.2077669675523 L95.01299238635323,414.0608500055668 L95.6475711140101,412.71025515690883 L96.33629206686271,409.005272450839 L97.07119315296956,407.93130546274966 L99.961432527368,404.40226621211485 L101.31578436644568,403.11370922924624 L105.32071661251226,400.9189926001772 L107.35105005733826,400.6708411370202 L108.53262450130632,401.0349322182096 L109.74843594061883,400.99628567886543 L110.12902393537456,399.5012748147637 L109.21497578060638,391.4709307447315 L108.14566683299887,389.7806531555226 L107.07476546700244,389.45419159948403 L105.78968382780653,388.40768399461274 L104.15586256161919,386.09092566235165 L103.39548278130138,384.68642906145067 L102.13826846389824,379.13658260879555 L102.06740584562755,377.02221010099436 L103.14467688517652,374.0393074721439 L103.09929296111511,371.9900238727118 L102.50054364719003,370.5011150937696 L102.41933030939765,368.64099613428533 z"/>
	<path id="corum-ugurludag" title="Uğurludağ" class="district" d="M216.4340982696434,318.008944522513 L221.16756192826432,321.5115414041229 L221.6126428677382,323.1824957236597 L222.60631194191222,325.6884186958682 L223.20824609261194,328.461816400906 L224.5418964926447,329.2632235852 L226.08574611990537,331.66846215227525 L226.58258065699238,332.8715899429096 L226.87001217604438,336.0792527084721 L227.7856527492006,338.5180527439251 L231.52624354284274,342.8281588949886 L233.56613149799597,345.86801431866195 L238.32666626921673,352.3169013181648 L240.02657289851118,355.2896338050828 L242.30293498429774,359.80009175221966 L242.69466990776954,361.7049593362079 L242.3546885819108,366.08218842402675 L241.9621574492445,369.189166784456 L241.0990666828958,372.0957933488115 L239.37288515019668,375.93807297097226 L238.3792160760243,377.27442962092454 L237.46357550286723,377.87548500914494 L236.02482548922012,379.7132296563775 L235.71111906676515,381.71776463130584 L236.07737529602764,386.42857437451624 L237.25417248483296,390.3379769334326 L237.51612530967395,391.80756244270265 L237.38475079265663,397.3543578527781 L236.88791625556962,399.1249795632551 L233.5135816911892,404.2029314302346 L231.60427204385968,406.57562554312534 L227.39312161653436,409.3480062339698 L225.54830491392215,409.91651716800584 L222.71141155552579,409.6490424351767 L220.4875992765468,409.18121590627413 L216.7732833863077,407.81129778794406 L212.6146827657891,406.8756447301389 L209.397201412637,405.673533953698 L208.03727610920126,405.90744721814934 L205.29035438973233,408.04521105239553 L203.5641728570333,409.54937504423657 L201.23605717363444,410.35078222853053 L198.25425374192037,410.9182761483733 L195.37754992382062,410.6843628839221 L192.26437197508918,409.4822521074811 L188.55005608485004,407.4105941957973 L183.16210846872022,406.50850260636986 L180.04972672918242,404.67075795913723 L176.3091359355395,403.635437510392 L171.39174795309287,403.1340495131116 L169.3773386921482,402.49943265651336 L167.75546056386983,401.76413139478154 L166.31750675941802,400.46133621320735 L165.71557260871583,398.89106629880376 L165.27049166924434,395.8837553293148 L165.24501297503343,391.9102808762226 L164.95837766517673,386.3136517706771 L165.16698447401652,383.8819708345769 L164.3325572386534,381.5835187577947 L162.61115296111953,379.5179629312703 L161.61987251452814,378.8853801030587 L159.1165908084387,377.95176107364 L157.44694012851716,377.6191974324418 L154.02005575733077,377.71784780918875 L152.40375109341045,378.6290925263554 L149.97849788833634,381.36079264946926 L148.77861063290516,382.12762135119226 L145.153470172399,383.2931196166756 L144.03240762717843,384.22572163190097 L143.17170548841148,386.4245063177431 L142.31100334964376,387.5238986606642 L140.1986603578317,389.42266415949274 L134.09571688544548,391.72111623627507 L132.47861601233234,392.4208220012424 L129.32323897631497,393.48665287578575 L125.09775678349723,393.8537949995548 L122.77680698284382,393.6870046718592 L119.81331636259443,392.7615217559866 L118.77028231838909,392.2621677870928 L118.24876529628807,391.3956716944298 L116.52258376358901,385.87735268176584 L116.27973995940397,384.2338577454471 L116.14040335044513,381.43503468557776 L116.5576169681263,379.30337293649126 L116.69695357708514,377.39342028153663 L117.70495441675072,374.7725747054889 L118.8530880745704,370.73096030144796 L119.40884209201673,369.9315871455404 L121.11034113969933,372.12325273202975 L122.39701519728337,373.3233294800842 L127.6472186228425,376.299113009582 L129.90765652474687,376.25436438507825 L131.29863398675081,375.8994264316282 L133.10682506643747,374.4328919649379 L134.81071274170188,371.05742185748653 L138.12373919814038,367.36667735012236 L138.35623228280298,366.9476675024967 L140.47653736655568,361.0459341389711 L141.71543887249572,359.7116115174055 L143.11198979885688,359.1756450375541 L147.29686532277927,358.25117913587485 L149.3216253032456,357.20772257358345 L151.7006983750647,354.4861925924023 L153.48818801570565,353.77529967130897 L156.96364114772967,353.8119121822666 L158.48360449916916,353.45290617204347 L163.6223386375614,350.8279925392227 L165.52050135617398,350.10794649038996 L167.28649334857556,350.31440037162315 L168.62810584054816,351.2480194010418 L169.86461871890722,352.72980908063107 L171.2141933028205,352.99728381346023 L172.34162552159285,352.0850220821 L173.84407227076366,350.1069294761968 L175.9651735637108,345.4540895420026 L176.51853895357453,343.8197477334233 L177.00581898033275,341.49485328761614 L178.18580100591348,339.9245833732128 L182.0028278821852,337.6912202047993 L184.81503875556677,335.7833015782315 L186.8748319405704,334.0075947967882 L190.07081564548395,331.53726732134396 L192.91726351420917,330.0605627127209 L196.41501050366708,328.84319672338097 L197.90471790573284,328.5055480112165 L203.28788826669825,327.86584608365183 L204.74733971939108,327.3461518308927 L211.02306058688526,324.6632683890557 L213.0605599144567,323.71236011835146 L214.98499753647388,322.3119315742236 L215.96911210031828,320.7253894327278 L216.4340982696434,318.008944522513 z"/>
	
</g></g></svg>