<svg xmlns="http://www.w3.org/2000/svg" version="1.2" baseProfile="tiny" width="600" height="600" stroke-linecap="round" stroke-linejoin="round"><rect id="backgroundrect" width="100%" height="100%" x="0" y="0" fill="none" stroke="none" class="" style=""/>































































































































































































































































































































































































































































































































































































































<g class="currentLayer" style=""><title>Layer 1</title><g class="city city-23" id="elazig" title="Elazığ">
	<path id="elazig-agin" title="Ağın" class="district" d="M89.18055097404718,252.39478857840237 L88.18133816177092,250.81000396685135 L85.093058389919,248.3137703753477 L82.69897614423475,246.24268780764191 L79.30352295925049,243.56013591636915 L78.39063522794848,242.19116400725343 L77.47702812097218,238.05403450156555 L76.87850755955077,236.684343216775 L76.13611186317259,235.68584978017356 L74.36716707887635,234.6010312625979 L73.08308149938547,234.2017777630923 L71.7709402685776,234.03056635249357 L68.80351561009,233.91618562020267 L64.03837114031535,232.00480445229934 L61.613355740615624,231.29118378291273 L60.471706544731596,230.37829605161065 L59.986847339926236,229.46540832030854 L59.67319954572036,227.49647709842236 L59.7868609023364,224.500996788618 L60.50048157172286,223.01692477153676 L62.38380708830988,221.39041637084807 L63.325469846603156,221.07676857664188 L65.20807598751544,220.87678213905178 L68.00428923540403,219.935838756433 L69.14593843128806,219.39342949764517 L72.1133630897752,217.39644262444244 L74.22473069526905,215.62677846447156 L75.13761842657152,214.62828502787008 L76.25049259546337,213.74417232355952 L78.24747946866643,211.60402969107435 L79.01793081636114,210.5767612274816 L80.33079142284375,207.58056154200239 L80.4732278064506,206.63961815938376 L80.33079142284375,204.15705270570112 L80.4732278064506,201.96007939490806 L81.24367915414575,199.6199503248328 L82.2709476177381,197.82294988922018 L83.06945461674934,196.8812871309268 L85.1527665709271,196.13961081022347 L87.0073170605224,195.9683993996247 L88.74748681782692,195.3403844355375 L89.43233246022166,194.65553879314223 L89.94596669201874,193.54266462425005 L90.94446012861935,190.40402855516345 L91.51564441439943,189.66235223446034 L92.77095496689859,188.74946450315826 L94.82549189408373,187.97901315546363 L96.45128091909793,186.38127978176627 L96.90089071583849,185.76189732577657 L100.10067371728223,188.9293084218545 L101.47683938314525,190.8378120870588 L102.67963551138548,191.92982436138237 L105.55641883485043,193.76063545370977 L108.38284586108067,195.2288812059458 L109.70577772701002,195.79143298362766 L114.08245933240124,196.35110725861028 L120.50864223525444,197.0632891766473 L128.8102375222721,198.50563740459103 L129.70729898872946,200.01488757028974 L130.99785894929343,203.0614435530037 L131.66831707819298,205.35553257989284 L131.70716336463147,206.74968263762585 L130.83743817381637,209.00564475375134 L130.16338316654313,210.36526477909473 L127.5793857427158,214.7613695277054 L126.75066496536292,215.91380935871064 L124.88100758659678,217.92086749136067 L124.06163869301729,219.34738945445903 L122.77107873245333,222.49897428569162 L121.9905561253114,224.99089162314658 L121.59130262580601,227.9432093924637 L116.84054566952699,228.2496634299222 L115.24497042285353,228.41224233242346 L113.21705039563453,229.0337829154376 L111.45961562213544,229.92580875217084 L108.67491238504309,230.41282608400024 L105.75496652109125,230.62935816211052 L100.3740364736997,230.46677925960927 L99.02232958077954,230.6020218864688 L97.6166695122496,231.27823502076657 L96.21029006804494,232.62994191368728 L95.1556853288108,233.08962296987494 L92.803326872264,233.7384998285308 L91.85734785992138,234.7657682921238 L91.18113472562392,236.87497777059298 L91.12718155001508,237.6317609804667 L91.50557315495176,239.30862567839034 L93.56082945781208,242.28252471795105 L94.1017999652505,243.49898898401244 L94.2097063164682,245.41900266001326 L93.53349318217074,247.82531429216868 L92.370982091718,249.7179916925278 L91.83001158428004,250.28557909993313 L89.18055097404718,252.39478857840237 z"/>
	<path id="elazig-alacakaya" title="Alacakaya" class="district" d="M452.1106145327509,390.0127939161026 L450.4553311050712,389.0689730307848 L448.06772324046,388.7862583905944 L443.4917745731537,388.8064009094884 L440.7667795170676,388.1546465481333 L439.17120427039464,387.26765634112354 L439.89777370192724,385.25268507605097 L440.24019652312575,383.45496526476353 L439.95460438023593,381.17238624867116 L439.07049167592567,380.0314564284623 L437.558364007527,379.1178493214854 L435.93185560683855,378.4330036790901 L434.1909664738593,376.80721465407623 L431.9371624847582,374.8670584591814 L429.854569906256,374.18221281678615 L426.37351101597136,373.5541978526989 L424.375804767094,373.3261557637921 L422.4075929208827,372.6981407997049 L419.7825910835922,370.6436038725193 L418.58411120940127,369.81632184651664 L418.24168838820276,369.2170819094209 L417.5856177727993,367.13448933091865 L416.64395501450605,365.99284013503495 L415.53108084561325,365.56481160853804 L414.5325874090122,364.7663046095266 L413.70458600733497,363.4534440030442 L412.0787969823212,362.5117812447508 L411.336401285943,361.82765497803035 L411.4795570452251,361.28524571924254 L412.70609257073295,359.2882588460398 L412.87730398133243,357.88979253425794 L413.93334747191653,353.72388800157853 L415.4454751403142,350.4996462271927 L417.3856313352095,347.4753908903971 L417.35685630821774,345.5064596685106 L418.8884071198347,344.21230282957254 L419.9156755834275,343.5274571871775 L422.5975080990253,342.5009080992593 L425.1369042310167,342.5009080992593 L425.7936942220949,342.35775233997725 L427.2202161851936,341.53047031397455 L428.4186960593849,341.41608958168365 L432.61265624338085,341.6448510462653 L436.66418004376953,342.01532951877954 L438.5187305333648,342.3865273669686 L441.71491665643447,343.86988000837505 L444.8816083768376,345.1259099365494 L447.19296241992174,345.55321908737176 L450.9020633991123,345.4395577307556 L453.44145953110285,344.6403313560697 L454.1550802004893,344.18424717825604 L455.0391929048005,342.5009080992593 L455.7240385471957,340.13200400219273 L456.6944763324807,338.70548203909436 L457.578589036791,338.07818645068176 L459.00511099988967,335.99487449650485 L461.0596479270752,332.7425770708023 L462.68615632776414,331.2585050537211 L467.9361600023433,329.34712388581755 L468.877822760637,328.8903203323291 L471.07479607143034,327.49257339622204 L472.672529445128,326.12288211143175 L473.6141922034208,325.6092478796353 L476.2104190137196,324.5819794160425 L478.2081252625969,323.61226100643233 L480.46192925169856,322.8698653100544 L481.88845121479716,323.12668242595254 L484.59905875738673,324.15395088954534 L486.9672434787791,324.6107544430338 L487.7945255047811,324.63881009435033 L490.0771045208731,325.35243076373706 L492.04603574275916,326.43652990563794 L492.530894947565,326.97893916442575 L493.13013488466066,328.91909535932064 L493.4445020545417,331.88652001780827 L493.2732906439427,333.39864768620606 L494.4142204641515,334.6259025873891 L497.83844867612754,336.2804666393943 L498.4376886132232,336.8509315494989 L498.20892714864164,338.2493978612807 L496.72557450723565,339.619089146071 L495.58392531135166,341.41608958168365 L493.33012132225093,344.12669712427316 L490.8763308955591,347.26533319335977 L490.049048869557,348.57819379984227 L489.30737254885355,351.5736741096465 L488.4513154958593,353.45699962623326 L487.1103992380611,355.8820150259333 L485.9399750151849,357.62290415891266 L485.51194648868824,358.50701686322344 L484.08542452558964,360.7903152549906 L483.37252323187835,362.2448928694057 L482.93514282160874,363.9987307645313 L479.1476298938669,363.5376109569942 L477.74916358208435,363.5095553056774 L475.4457226714237,363.86636564037076 L473.7724548518737,364.936077268776 L471.2769406360453,367.15750935251174 L468.5073442881238,369.0221311015541 L466.2039033774622,371.8190637251178 L464.5586912092292,373.43693961770896 L463.077496694847,374.61671572435637 L461.7883754856316,378.92217913794394 L460.828728335469,380.3479817253675 L458.2512052927152,383.3643239297407 L455.36578946115253,387.5640391191349 L453.9795525358423,388.246007258831 L453.34794069338125,389.2265163035628 L452.1106145327509,390.0127939161026 z"/>
	<path id="elazig-aricak" title="Aricak" class="district" d="M539.1047148844885,308.90534471112994 L539.0766592331726,310.1872721635966 L540.0751526697736,314.78048584709813 L540.474406169279,315.83652933768246 L541.6160553651621,317.691079827278 L543.0713523552529,318.9751654067689 L544.1266764701622,319.40319393326604 L545.5251427819439,320.48729307516686 L545.9812269597576,321.1145886635793 L546.6660726021528,322.65549135896833 L548.2069752975422,323.4259427066631 L551.3168363396371,323.8827462601514 L553.2001618562236,324.9956204290438 L554.6266838193222,326.8782265699558 L556.0251501311039,328.44790429233643 L556.9948685407137,328.98959417544944 L559.1062361462076,329.50322840724596 L561.5600265728995,329.47517275592924 L562.75850644709,330.1600183983245 L563.756999883692,331.58654036142286 L564.4706205530783,332.12823024453587 L564.9554797578842,333.09866802982083 L566.0395788997839,334.69640140351794 L566.4395517749645,335.5812334835035 L568.0941158269704,340.31760292628724 L568.7789614693655,341.5160828004788 L569.34942637947,341.88656127299305 L571.8032168061619,342.57140691538837 L574.3713879651436,342.71384329899576 L577.2683138075021,343.1080611687779 L577.8510081040785,343.5612678438923 L576.5654837732371,348.32353481096834 L577.1460199427879,349.0867924019151 L578.8027421218185,349.5781259877931 L581.4068820645398,349.8608406279836 L584.1577746449173,351.0456523643544 L585.0994374032109,351.73049800674966 L586.2446834774682,353.4598771289325 L585.68716732951,353.79870307175617 L584.9570010196032,355.6345497938072 L583.6750735671361,356.7200876870577 L580.2731460010783,358.3422798336975 L579.158833080837,358.7141970575614 L578.1099833469998,358.504858736199 L576.8683409323215,359.73139426170724 L573.5599322039858,361.32696950838016 L571.3313063635022,361.78880869159207 L567.032317330988,361.899592545509 L565.7734099001142,361.6348622971881 L563.9792869672004,361.5521340945878 L562.8340408929431,361.00253107905206 L561.5204609107858,360.80758027118543 L557.9796938394953,360.49393247697924 L556.0337826392008,360.52414625532026 L551.7196867175167,361.2953169786896 L550.5413493622187,361.6168779053185 L549.9802363358864,362.1794296830002 L547.1876199663715,362.6196875959686 L544.4985936940259,362.49523560423086 L538.8493365199395,361.9463519643699 L533.9949894664917,360.0270576640438 L530.7319014056666,358.4091817714525 L529.6621897772617,357.6408885507823 L527.7428954769356,357.1747331135217 L525.3020538123907,356.92798725707047 L519.4880596087794,357.1200605622381 L516.388989201806,357.5862159994987 L509.204584337729,356.9553235327122 L506.7637426731842,357.1200605622381 L501.6079772120005,358.29911729321043 L499.7980280142416,358.9573460356386 L495.2731550198447,359.4788933998578 L491.95467503206174,360.4932131013044 L489.6785703970429,361.9190156887283 L486.93631032476225,363.1808006223008 L485.07168857572066,363.81169308908704 L482.93514282160874,363.9987307645313 L483.37252323187835,362.2448928694057 L484.08542452558964,360.7903152549906 L485.51194648868824,358.50701686322344 L485.9399750151849,357.62290415891266 L487.1103992380611,355.8820150259333 L488.4513154958593,353.45699962623326 L489.30737254885355,351.5736741096465 L490.049048869557,348.57819379984227 L490.8763308955591,347.26533319335977 L493.33012132225093,344.12669712427316 L495.58392531135166,341.41608958168365 L496.72557450723565,339.619089146071 L498.20892714864164,338.2493978612807 L498.4376886132232,336.8509315494989 L497.83844867612754,336.2804666393943 L494.4142204641515,334.6259025873891 L493.2732906439427,333.39864768620606 L493.4445020545417,331.88652001780827 L493.13013488466066,328.91909535932064 L492.530894947565,326.97893916442575 L492.04603574275916,326.43652990563794 L493.0970436036201,326.0818776979689 L494.66600195032646,325.19704561798346 L496.6061581452213,324.96900352907664 L499.0599485719123,325.2258206449749 L502.88343028339455,324.85462279678575 L504.1675158628854,324.34170794066426 L505.7940242635735,322.60081880768473 L506.59253126258517,322.11595960287974 L507.6197997261784,320.6894376397814 L508.9607159839766,319.7189998544965 L511.44328143765983,318.57807003428775 L512.3281135176453,318.00688574850835 L512.6417613118512,317.2939844547966 L513.0410148113565,315.4674896165178 L514.2682697125401,314.2121790640181 L517.0925386117452,312.38640360141403 L518.519779950519,311.644007905036 L520.8591896449192,310.84550090602477 L522.4281479916257,310.58868379012665 L525.253136266506,310.6455144684345 L526.8796446671939,310.5030780848273 L529.1902793346029,309.3614288889436 L530.9879991458909,308.2204990687347 L533.0137610460852,307.5356534263395 L535.9811857045732,307.4788227480316 L537.1228349004564,307.7068648369384 L539.1047148844885,308.90534471112994 z"/>
	<path id="elazig-baskil" title="Baskil" class="district" d="M38.58542101507611,274.36236355930885 L40.4241452398263,274.38969983495053 L43.69298830604836,275.7450036062453 L45.48423373626279,276.341366040642 L46.57768476193632,276.4543080215833 L47.151746550414416,278.53833935143496 L47.922197898108664,279.8792556092342 L49.805523414695685,281.27772192101605 L52.60173666258518,282.8179052407305 L54.05631427699989,283.10349738362004 L56.538879730682595,282.64669383013154 L58.165388131371074,282.13305959833525 L59.96310794265858,281.79135615281234 L62.98736327945397,281.8769618581117 L63.41539180595154,282.2186653036347 L64.1858431536458,283.8451737043233 L64.870688796041,284.6444000790093 L66.72523928563722,285.7572742479015 L71.11918590722254,286.6701619792035 L72.60253854862898,288.0966839423021 L73.40176492331541,289.69441731599926 L74.62901982449804,291.8057849214929 L75.51313252880925,293.00426479568466 L79.76464276678774,295.2580687847857 L81.47675687277572,295.82925307056485 L85.61388637846343,297.39821141727066 L88.18133816177092,299.28153693385764 L89.66541017885254,301.2785238070604 L91.40557993615707,302.64821509185094 L93.4601168633422,305.5588090720305 L94.9722445317399,306.81411962453035 L96.68435863772835,307.32775385632664 L97.65479642301335,307.32775385632664 L99.68055832320768,306.7853445975388 L100.73588243811746,306.2717103657425 L102.93285574891036,304.7595826973445 L104.81618126549691,303.7610892607431 L111.69269334076633,300.85049528056345 L113.26165168747136,300.1375939868517 L114.57451229395396,299.88077687095335 L116.08663996235165,299.795171165654 L118.08362683555472,298.82473338036925 L119.13967032613878,298.59669129146243 L120.79423437814424,298.5679162644709 L122.33513707353366,298.71107202375316 L123.7048283583236,299.13910055025025 L126.07301307971554,300.50807245936574 L127.98439424761906,301.4785102446507 L130.66694613889206,302.0777501817465 L131.5510588432028,302.39139797595277 L133.43438435978985,304.4747099301296 L134.68969491228944,305.67247042864665 L136.37303399128618,306.50047183032393 L138.31319018618055,307.2421481510272 L142.50786974585168,307.7845574098151 L146.1313650197432,307.15654244572784 L146.81621066213842,306.6997388922394 L149.46998752642014,305.7868511609373 L150.92456514083486,305.81562618792884 L153.52151132680834,305.67247042864665 L155.83214599421729,305.81562618792884 L156.9450201631096,305.67247042864665 L159.7131777596821,305.0451748402342 L161.16775537409683,304.9883441619262 L162.2928589294601,305.8192230663027 L162.5949967128702,305.9868375985276 L166.36092837036904,307.0141060621204 L169.12836659126634,307.2421481510272 L172.1813969550535,307.2421481510272 L173.89351106104192,306.8709503028382 L175.26320234583187,306.21487968743446 L177.34579492433488,304.8739634296354 L179.08668405731416,304.13228710893213 L181.59730516231383,303.78986428773464 L183.5094057058912,304.2747234925396 L184.8503219636908,304.9883441619262 L185.7344346680011,305.8724568662367 L186.13440754318168,306.84289465152165 L186.16246319449866,308.38307797123616 L185.84881540029141,308.9254872300239 L184.25108202659464,309.52472716711964 L182.852615714813,309.8103193100093 L180.05640246692442,310.6088263090205 L178.2594020313112,311.72170047791286 L177.71699277252375,312.54898250391534 L177.57455638891645,313.7762374050984 L178.68743055780786,314.94594225229866 L180.71319245800262,316.08687207250756 L182.1965450994086,317.14291556309183 L184.16547632129559,319.19745249027744 L184.42229343719367,320.1671708998874 L184.3366877318937,320.9951723015649 L183.76622282178928,322.3073135323725 L182.88139074180472,323.4201877012647 L182.05410871580176,323.9338219330612 L178.91547264671468,324.4186811378662 L176.51851289833192,323.9618775843777 L174.57835670343667,322.2504828540645 L174.0078917933327,321.3088200957711 L173.40865185623656,319.5679309627917 L172.3245527143355,318.05580329439374 L170.18441008185133,316.71488703659475 L168.18742320864826,315.8019993052927 L166.21849198676173,315.57395721638585 L164.6488142643806,316.6580563582867 L163.85030726536937,317.6277747678969 L163.39350371188144,319.62548101677436 L164.39199714848297,322.44974991597996 L165.3056042554597,324.4186811378662 L166.41775904867683,325.70276671735735 L168.3010845652634,327.35733076936253 L169.75638155535376,329.04066984835924 L170.35562149244944,330.2391497225508 L170.09880437655136,331.3239682401264 L169.2715223505484,332.57927879262604 L169.1571416182576,334.00580075572464 L170.612438608348,335.23233628123273 L172.38138339264424,336.3739854771164 L175.23442731884106,337.5149152973253 L176.74655498723877,337.77173241322345 L180.05640246692442,338.5997338149009 L180.94123454690944,339.11336804669725 L181.39803810039737,340.08308645630734 L181.59730516231383,341.1391299468915 L181.25488234111532,344.81945589909117 L180.05640246692442,346.7315564426693 L178.11624627202914,348.6429376105728 L175.8056116046202,350.1838403059621 L173.89351106104192,352.35203858976377 L173.52303258852734,353.32247637504855 L173.89351106104192,355.0058154540452 L174.52152602512933,356.1186896229374 L175.7768365776285,357.6020422643438 L178.45866909322675,359.62780416453836 L179.3715568245283,360.9406647710206 L179.42910687851176,362.1391446452123 L178.77303626310783,363.82248372420884 L178.82986694141562,364.84975218780187 L179.40033185152004,365.9050763027111 L180.22761387752254,366.7899083826967 L182.3677565100081,368.30203605109443 L184.27913767791165,369.8429387464837 L186.2013094809367,370.8076215263702 L185.80205598143084,371.4924671687654 L185.51646383854103,375.4015545855465 L184.97477395542833,376.77124587033705 L183.69068837593744,378.05533144982815 L182.06417997524898,379.25309194834495 L179.55355887024928,380.7939946437342 L178.41190967436572,382.1068552502167 L177.2422048271656,382.87730659791134 L174.6747530438586,383.7333636509054 L171.10808844827483,384.47503997160845 L168.3118752003858,384.70308206051527 L165.65809833610408,384.33188421232643 L163.37551932001213,384.3038285610097 L161.0073345986202,384.5318706499165 L158.04350681850627,384.97428668990915 L156.01774491831148,382.76004836292134 L154.20347946650415,381.6248735481107 L152.825155673616,380.91341100574857 L151.0677209001169,380.23144286605236 L148.73550496246406,379.52717408043816 L146.42558967072986,378.63011261398117 L144.9364820239251,377.6474454422251 L144.2617076409771,376.5583106706008 L144.2120707194171,375.8288637363688 L144.5098922487779,373.2362338044441 L144.95158891309592,371.5795116254145 L144.77462249709853,370.78172400207814 L144.21782572481547,370.15874466771436 L140.8626575776187,368.41785553473477 L139.64259643318297,368.02219891360323 L138.40670902390306,368.0423414324971 L135.80256908118176,368.5854700669597 L134.13505626703014,369.35664079032915 L132.13375313977912,370.0501189408217 L130.08712934501517,370.3479404701827 L127.42256184561285,370.32348169724 L124.5335491356765,371.0090467153101 L120.26693200852672,372.4089517784414 L118.5238847485228,372.8772653427264 L115.07591713927916,373.58944726076356 L108.36198396651149,374.27213477613435 L107.02250646006229,374.19444220325744 L101.49698190203922,373.62757417152716 L99.55107070174653,373.2750800908825 L96.08871557900635,372.3657892379543 L91.34587175514942,371.31118449871974 L81.09476838946492,369.04587049882196 L74.6268616974743,367.74595865448566 L72.66800173503498,367.26685445507894 L66.93098072862539,365.4684152681167 L59.18618221389124,363.28367134379505 L57.03237144358433,362.8880147226633 L48.065353657391164,361.93915820762203 L40.98094201210983,361.4535796271423 L34.511596568768816,359.88965691015994 L32.64265856567743,359.2846619676658 L28.445101503307793,357.5725478616777 L27.002753275364046,356.6668538871236 L22.382922691895185,352.9361716376891 L21.001721396308103,351.3830395558285 L20.503913429357496,349.45942900145377 L19.55937316836527,347.1660593502395 L17.79906089216586,345.58846849543613 L15.258226008826348,344.5468125183477 L6.3156669955751195,340.12696837246926 L5.0704277025227205,338.75943521470316 L3.692823285309319,336.3315423123042 L2.79504244317767,332.8008465004598 L1.8972616010464778,327.6817691986904 L1.6649032580903298,325.617161012058 L1.9245978766878142,319.65137854106666 L1.9080522361679737,317.205501246798 L2.230332538471596,316.041551404996 L4.32371575209521,310.8203227574073 L4.997770759368911,309.9031187720566 L12.0282292290414,302.1597590086719 L13.382094248987146,300.87783155620514 L18.35585766444938,296.96298913402586 L19.473767463065755,296.16376275933993 L21.93906790055297,294.9789510229691 L23.49004185538915,294.47107179657104 L28.85370688658612,293.64019289219436 L33.77495587778944,292.7359376689898 L35.450381824363156,292.2107934263969 L37.69699205671649,290.73391516606335 L38.75735180134942,289.08582549513125 L38.99978140375233,288.0858933071802 L38.538661596214624,284.0365276338161 L37.36751799766505,281.6719397907982 L36.294928866560234,279.93896379024125 L35.27341540836624,277.71537357948114 L35.24248225434985,276.70537013208315 L36.353917671893605,275.211226855555 L38.58542101507611,274.36236355930885 z"/>
	<path id="elazig-merkez" title="Merkez" class="district" d="M186.2013094809367,370.8076215263702 L184.27913767791165,369.8429387464837 L182.3677565100081,368.30203605109443 L180.22761387752254,366.7899083826967 L179.40033185152004,365.9050763027111 L178.82986694141562,364.84975218780187 L178.77303626310783,363.82248372420884 L179.42910687851176,362.1391446452123 L179.3715568245283,360.9406647710206 L178.45866909322675,359.62780416453836 L175.7768365776285,357.6020422643438 L174.52152602512933,356.1186896229374 L173.89351106104192,355.0058154540452 L173.52303258852734,353.32247637504855 L173.89351106104192,352.35203858976377 L175.8056116046202,350.1838403059621 L178.11624627202914,348.6429376105728 L180.05640246692442,346.7315564426693 L181.25488234111532,344.81945589909117 L181.59730516231383,341.1391299468915 L181.39803810039737,340.08308645630734 L180.94123454690944,339.11336804669725 L180.05640246692442,338.5997338149009 L176.74655498723877,337.77173241322345 L175.23442731884106,337.5149152973253 L172.38138339264424,336.3739854771164 L170.612438608348,335.23233628123273 L169.1571416182576,334.00580075572464 L169.2715223505484,332.57927879262604 L170.09880437655136,331.3239682401264 L170.35562149244944,330.2391497225508 L169.75638155535376,329.04066984835924 L168.3010845652634,327.35733076936253 L166.41775904867683,325.70276671735735 L165.3056042554597,324.4186811378662 L164.39199714848297,322.44974991597996 L163.39350371188144,319.62548101677436 L163.85030726536937,317.6277747678969 L164.6488142643806,316.6580563582867 L166.21849198676173,315.57395721638585 L168.18742320864826,315.8019993052927 L170.18441008185133,316.71488703659475 L172.3245527143355,318.05580329439374 L173.40865185623656,319.5679309627917 L174.0078917933327,321.3088200957711 L174.57835670343667,322.2504828540645 L176.51851289833192,323.9618775843777 L178.91547264671468,324.4186811378662 L182.05410871580176,323.9338219330612 L182.88139074180472,323.4201877012647 L183.76622282178928,322.3073135323725 L184.3366877318937,320.9951723015649 L184.42229343719367,320.1671708998874 L184.16547632129559,319.19745249027744 L182.1965450994086,317.14291556309183 L180.71319245800262,316.08687207250756 L178.68743055780786,314.94594225229866 L177.57455638891645,313.7762374050984 L177.71699277252375,312.54898250391534 L178.2594020313112,311.72170047791286 L180.05640246692442,310.6088263090205 L182.852615714813,309.8103193100093 L184.25108202659464,309.52472716711964 L185.84881540029141,308.9254872300239 L186.16246319449866,308.38307797123616 L186.13440754318168,306.84289465152165 L185.7344346680011,305.8724568662367 L184.8503219636908,304.9883441619262 L183.5094057058912,304.2747234925396 L181.59730516231383,303.78986428773464 L179.08668405731416,304.13228710893213 L177.34579492433488,304.8739634296354 L175.26320234583187,306.21487968743446 L173.89351106104192,306.8709503028382 L172.1813969550535,307.2421481510272 L169.12836659126634,307.2421481510272 L166.36092837036904,307.0141060621204 L162.5949967128702,305.9868375985276 L162.2928589294601,305.8192230663027 L164.54738229423597,304.032293890137 L166.77241125634586,302.4345605164399 L168.45646971101732,300.63756008082703 L169.2269210587125,299.01105168013834 L169.1693710047295,297.09895113656023 L168.57013106763335,294.588330031561 L166.23072137323317,289.16711494638196 L166.00267928432635,287.22695875148713 L164.40422653495392,285.4004639132081 L164.09057874074804,284.5451262358889 L164.2905651783388,283.5746884506042 L165.03224149904133,282.6049700409941 L166.57314419443077,281.60575722871783 L167.71407401463912,280.40727735452623 L167.85722977392163,277.9534869278349 L167.68601836332306,275.07166797464663 L167.2860454881425,273.24589251204264 L167.22921480983516,270.0216507376566 L166.11634064094238,268.59512877455825 L165.54587573083796,267.5110296326574 L163.976917384132,266.1981690261749 L160.03905494035985,263.91559001008255 L159.01178647676662,261.97543381518767 L158.15572942377284,260.6345175573885 L158.27011015606362,259.26482627259816 L158.7837443878598,258.3231635143048 L159.3254342709734,257.9526850417905 L165.14662223133212,256.12619020351156 L167.37165119344155,254.21480903560823 L167.9428354792216,253.2443712503233 L168.8269481835319,250.9617922342309 L168.94132891582268,249.93452377063812 L168.71328682691586,249.47843959282446 L166.4019327838322,246.82466272854302 L165.77391781974478,245.51252149773535 L165.48904505252972,244.37087230185165 L164.68981867784373,242.6875332228549 L164.26179015134707,241.43222267035532 L163.2920717417368,240.11936206387284 L162.83526818824845,239.14964365426292 L162.49284536705085,237.75117734248107 L162.10654062969115,232.4313942274468 L173.4561306507728,231.002714137324 L175.80633098029494,230.9466028346908 L180.86282259835775,231.37966699091112 L187.48035943070394,232.14292458185787 L197.13653911334166,233.9298537580236 L199.00763524345723,234.10682017402084 L203.17641727883606,233.83777367165115 L208.71992622872799,233.22198809403528 L213.17142290429723,233.17378992382473 L214.3267402380017,233.30183879393638 L216.8251319565295,233.97517442553513 L219.27028987512364,234.76145203807494 L224.0663674989147,236.9461959623968 L226.38707342577038,237.09726485410155 L228.60275050410777,236.33328788747997 L231.03855653892992,235.85778056644713 L232.9506570825082,236.05201199863916 L236.19072512173898,237.35839822404853 L238.80997195363065,238.3014997336914 L245.09371847287701,239.8539124398772 L252.31193399366836,241.41711578118492 L254.3082014911967,241.68832041057885 L258.0093893379652,241.8854293454699 L264.62836492166133,241.43725830007878 L268.84966138129863,241.2041805814485 L270.31359087948533,241.24158811653732 L270.8603163923221,241.50919586755745 L273.4853182296126,243.4507908138017 L274.6989049929743,244.57013936376717 L278.22456517509585,248.51231806158836 L279.2741342846068,249.5510965359777 L282.4293159942128,251.70922356033248 L285.8269273062222,253.76663799021708 L286.9671377507563,254.34285790571988 L292.09988319034613,255.4917008583513 L293.9458011718446,255.7816092552896 L299.8878442455681,256.3211410113784 L301.95820743759833,256.7412564054528 L304.66018247209104,257.68795479346966 L306.2946040052016,258.74759516242784 L309.0195990612877,260.9503234786191 L311.5115163987415,263.23577999741076 L311.97263620627916,264.01774135590193 L312.0740681764238,265.52986902429996 L311.4834607474254,268.2606190857832 L311.7769660227378,269.67419228673566 L312.7538781890959,269.90727000536594 L315.02926344843996,269.0569679577702 L318.0384118960655,267.09451111695705 L320.84757390610065,265.72985546189 L323.9113949050088,264.5810125092586 L325.0307434549747,264.50619743908095 L326.01484937808056,264.8011414657427 L327.1600954523383,265.91185750761065 L329.47504637379564,269.1432930387444 L329.8642286138547,269.5634084328188 L331.930275551837,270.6532625801179 L333.1985348664823,270.7554139259373 L335.9033874036735,270.6518238287683 L337.750744136521,271.19063620918206 L337.5514770746059,273.31351382547246 L337.88382863635627,275.3853157688528 L337.8881448904047,277.15929618287237 L337.43637696664035,278.7922789646341 L336.3213446707234,280.2223978061065 L336.0580531737527,281.3381494776979 L337.4716263747043,282.7438095462277 L338.2104251927083,283.7200023369107 L338.7564313298708,285.3616176267699 L339.7074459719361,289.4649364757428 L340.05202692015746,291.52307028130247 L342.3576259578437,293.8480924622073 L343.40503694033094,294.72141453139614 L346.2206733314387,296.5759650209916 L347.4428926028982,297.2680044201346 L352.08574320796,299.45346772013124 L353.7259197464689,300.15917525709517 L358.5090486081147,301.96049194675663 L362.5058998572189,302.8532371591647 L367.0804097731757,303.5438378069582 L378.0595213217432,302.2388903328982 L386.19206332518604,301.85474372256317 L391.42696011059616,301.00372229929263 L394.61739122826697,300.4253442567656 L398.90846712835867,300.2440615867197 L402.72763258579255,300.3972886054489 L406.2173239841741,302.12738710330655 L410.0005206578675,304.8696471755866 L408.14093453854815,307.273081305043 L407.4273138691617,308.69960326814135 L407.1136660749558,311.86701436421936 L407.6841309850602,314.4632411745181 L408.85455520793505,317.1450736901161 L410.99397846474545,318.9427935014035 L412.4492754548358,319.65641417079013 L413.9614031232335,319.99883699198784 L416.9007721304041,320.0844426972873 L423.0636635362861,320.93978037460647 L424.375804767094,321.42535895508627 L426.5727780778874,322.9374866234842 L427.2295680689656,323.650387917196 L427.1720180149826,324.87764281837906 L426.5447224265704,325.90491128197186 L424.9469890528736,326.87462969158173 L423.37731133049294,328.9003915917762 L423.1204942145944,329.98521010935167 L421.29471875199084,331.268576313168 L420.1250139047907,333.779916793842 L417.1575892463027,337.1465949518355 L416.7007856928143,338.6587226202332 L415.934650599168,338.57167816358424 L414.65056501967666,338.9709316630898 L413.4808601724765,338.9421566360985 L412.85284520838917,338.6853395202003 L409.4573920234049,336.2890991474918 L408.2589121492131,336.00350700460217 L406.06193883842013,335.746689888704 L403.4937676794384,334.23456222030603 L401.92480933273197,333.5209415509195 L399.41418822773323,332.03758890951303 L398.7293425853371,331.0390954729115 L398.2437640048575,329.6974598394378 L396.81724204175976,326.73003518095015 L396.2755521586461,324.98986542364537 L395.7619179268504,323.9338219330612 L394.36345161506785,322.70728640755294 L393.8785924102634,322.50729996996284 L391.73844977777827,322.5360749969542 L388.85663082458973,323.02093420175913 L385.6611640771949,322.8497227911604 L384.71950131890156,322.65045572924487 L379.7831454385279,320.7951858639748 L377.9285949489326,320.56714377506796 L374.96117029044456,321.5375815603527 L372.6505356230356,322.8784978181517 L371.73764789173356,323.5345684335556 L369.96798373176307,325.3322882448431 L368.8270539115533,326.27395100313646 L368.3421947067493,327.10123302913917 L367.7710104209693,328.670191375845 L366.0308406636647,329.9830519823274 L364.77553011116555,330.58229191942314 L361.60811901508765,331.55201032903324 L359.46797638260256,332.3224616767279 L355.1315798149993,334.06335080970723 L352.9058314772147,335.63230915641327 L350.2239989616169,336.48836620940733 L348.8255326498343,337.34442326240134 L348.0838563291318,338.2292553423867 L346.6573343660331,340.7398764473859 L345.65884092943116,342.02396202687703 L344.9883828005325,343.1591368416875 L343.77191853447044,344.5187568670311 L342.1972051823666,345.9503144598529 L339.154965453701,347.6322147875 L328.1686601483861,351.6046072636622 L323.01577218990275,353.1081024239627 L318.3995384848076,354.39578488182764 L314.192629538665,355.98056949337877 L311.8309191983471,354.5159206195168 L309.0627616017746,353.40304645062446 L307.0657747285715,352.3189473087236 L305.78168914908065,351.2341287911479 L304.95440712307766,350.264410381538 L303.61349086527855,349.4371283555354 L300.33169903690987,348.4666905702506 L297.76424725360283,348.067437070745 L295.0248646840216,347.3825914283497 L289.91729739304935,346.24094223246607 L286.7218306456549,345.8704637599518 L283.7263503358499,346.01290014355925 L282.7271375235745,345.8985194112685 L279.75971286508644,346.24094223246607 L276.621796171675,347.66746419556443 L275.22332985989243,348.49546559724195 L274.3960478338904,348.6666770078407 L271.8847073532164,348.609126953858 L269.54529765881574,349.52273406083475 L262.89754704812793,350.9204809969417 L260.04378374625634,350.6636638810436 L258.04679687305327,350.6636638810436 L255.22180859817342,351.17729811284005 L253.65285025146795,351.74776302294447 L252.39753969896742,352.404553014023 L248.31724087158796,353.54548283423185 L246.66195744390822,353.8591306284381 L243.9232942500017,353.8879056554297 L242.01119370642388,353.4598771289325 L241.01270026982235,353.0606236294269 L240.18541824381938,352.37577798703165 L238.7301212537295,349.46518400685204 L237.3604299689391,347.3825914283497 L235.99073868414916,346.184111554158 L234.6217667750326,345.8129137059691 L232.93770832036205,346.1553365271667 L230.6839043312609,347.6106335172566 L225.54828138897165,353.00307357544403 L224.63467428199445,355.2575969402199 L224.121759425873,357.76821804521916 L223.66495587238418,359.3091207406085 L222.0384474716957,362.19093969379674 L219.2710092507984,365.1583643522846 L218.15813508190607,365.87126564599635 L215.36192183401704,366.5280556370749 L214.13538630850914,366.5848863153829 L212.65131429142752,366.41367490478416 L210.71115809653315,366.41367490478416 L209.42707251704138,366.61366134237426 L206.94450706335866,367.7545911625832 L204.6619280472667,367.8401968678826 L199.35509369437844,367.2985069847696 L198.07100811488758,367.35533766307753 L196.04524621469324,367.81214121656603 L194.53311854629507,368.38260612667034 L192.82100444030664,368.69625392087664 L190.909623272404,369.2386631796644 L189.939185487119,369.2098881526731 L188.14146567583148,369.60914165217866 L186.572507329126,370.29398729457387 L186.2013094809367,370.8076215263702 z"/>
	<path id="elazig-karakocan" title="Karakoçan" class="district" d="M584.8749921926778,163.60152966402782 L584.1333158719743,165.7416722965129 L582.9916666760913,167.53939210780032 L581.8219618288912,168.85153333860796 L580.2242284551926,171.16288738169192 L579.0825792593095,172.24698652359274 L578.1984665549983,173.47424142477573 L576.0870989495053,177.2689481092661 L572.2923922650152,180.86438773184096 L571.5499965686375,181.37730258796265 L570.6939395156433,182.7757688997445 L569.5242346684422,185.40077073703463 L568.7537833207484,186.57047558423483 L567.7840649111378,188.73939324371133 L567.1560499470507,193.1333398652974 L566.8136271258527,196.35758163968336 L566.8424021528449,197.8409342810898 L567.2136000010333,200.38033041308034 L567.2136000010333,201.29321814438242 L566.7826939718377,202.96288908555817 L564.898649079576,204.73039511850467 L564.1281977318813,205.84326928739685 L563.2153100005797,210.09477952537563 L563.0440985899806,211.4069207561833 L563.5001827677943,216.94251657365305 L563.0440985899806,220.48040614224522 L562.6441257148001,222.1069145429339 L562.444858652884,224.87435276383147 L562.9009428306977,227.67056601172038 L564.5562262583779,231.06601919670493 L566.068353926776,233.54858465038762 L567.1236780416854,235.88799434478807 L566.2230196968547,235.85562243942292 L565.1957512332615,235.48514396690865 L562.7987914848788,235.0002847621035 L560.8018046116757,234.8002983245134 L557.1495343107933,234.8002983245134 L554.7237995354176,235.11394611871958 L553.5540946882174,235.4283132886006 L550.5866700297294,236.48363740351013 L548.704063888818,237.02604666229792 L547.0200054341466,237.88210371529198 L544.138186480958,238.16697648250664 L542.0268188754642,238.1101458041988 L540.1442127345529,237.59651157240228 L538.9457328603614,237.05410231361446 L536.3207310230714,235.37076323461775 L535.4646739700772,234.97150973511214 L533.7525598640897,235.17149617270243 L531.9548400528017,235.65635537750742 L529.7298110906924,236.59801813580083 L527.3040763153165,238.08137077720727 L522.310889756635,240.47833052559056 L521.1980155877432,240.79197831979675 L517.5464646625342,241.47682396219204 L513.6373772457542,242.76090954168296 L512.3820666932537,243.5313608893776 L509.7570648559646,245.61395346787992 L507.93057001768534,246.64122193147273 L506.07601952809006,247.41167327916733 L505.2199624750958,248.21089965385352 L504.3639054221016,249.97984443814943 L504.2502440654851,251.23515499064922 L504.30707474379335,253.97381818455523 L504.1358633331943,254.5162274433431 L502.42374922720677,255.6859322905433 L501.16843867470624,256.0859051657237 L499.00024039090505,256.3707779329386 L493.46464457343524,256.88441216473484 L491.21084058433456,256.85563713774354 L488.4146273364455,256.19956652233964 L487.0729917029721,255.60032658524392 L485.10477985676033,255.4578902016365 L483.50704648306356,255.60032658524392 L480.5964525028828,256.1139608170402 L477.7714642280025,256.0859051657237 L474.8040395695154,256.42760861124646 L473.63433472231526,256.7132007541361 L471.63734784911225,256.9412428430429 L469.7827973595169,256.85563713774354 L466.0161463263429,255.94274940644146 L464.30403222035534,255.08669235344743 L462.3638760254605,253.83138180094787 L461.47976332114933,253.08970548024453 L459.62521283155405,251.17760493666634 L457.82749302026696,250.1510558487484 L454.5176455405818,248.49577242106818 L452.57748934568605,247.35484260085948 L451.12219235559706,246.09881267268486 L449.2676418660009,243.87378371057537 L448.55402119661437,241.27683752460172 L447.98355628650995,238.68061071430316 L447.41309137640553,238.0245400988992 L447.1296573605404,236.5598912250372 L448.8331389584311,236.0908582850774 L449.8819886922674,235.16933804567805 L450.0366544623456,234.607505643671 L449.71509353571764,233.38744449923576 L448.0367900864445,231.40772264222784 L448.58639310197935,230.8005695727093 L450.72221948041647,230.199890884264 L452.2811065676747,229.29707441240885 L454.3672960245515,228.3546922784406 L456.67073693521303,225.97068129220366 L457.124662986002,224.62041315063237 L457.0261085185563,223.0802298309179 L456.300258462698,221.80477675952423 L455.26219936398326,220.72859075004607 L455.1032173398561,219.09560796828436 L455.4758539393949,217.96474940752236 L456.69087945410655,215.09587921648023 L458.7375032488696,211.07313044308307 L459.2712799995602,210.26383280895018 L460.66974631134184,208.7387563784061 L460.9258440515652,208.11577704404255 L460.2899159550548,206.71515260523626 L460.0280632094336,205.63752784440848 L461.17618678638974,202.28379844856119 L461.8675068098589,201.1694855283194 L463.7069504102834,200.33500974556904 L464.65292942262556,199.5832621654188 L465.6226478322354,198.39341479932455 L461.9761325367509,196.2352877749698 L457.2980325236248,192.17369271513434 L455.9132343496636,188.2494984091827 L454.47016674604555,185.18279990757472 L454.88596588607123,182.81893144023158 L455.42981389620905,182.23407901663137 L455.2974487720476,181.13559236123487 L455.6326778364974,180.6859825644943 L462.13079830682966,173.90155057559792 L467.59229842979664,170.41473667991562 L470.38347604796206,168.08252074226294 L474.39183730786385,167.30271751079613 L476.1003545354772,168.19330459617981 L480.69860384870356,170.6492531498954 L484.10053141476044,169.84499114548598 L496.24647030782864,170.12410890730249 L502.81508959428965,167.56097337804385 L510.1584764824937,162.66274440843355 L514.6998951174108,160.84344332690256 L520.7332989018327,159.44569639079543 L523.7762580061712,157.3264156528792 L526.9969029021837,154.858957088367 L530.4959461843376,152.75981886934468 L537.1034117572372,151.6009046572662 L541.4318951924179,149.7377216595733 L543.2605481577208,149.4219157383427 L551.475098988089,148.42845793146478 L555.6316516369965,147.65009345134754 L556.5963344168836,147.18681551678603 L562.687288255287,148.67952004196476 L565.044682341557,148.7363507202727 L566.8992328311523,149.2499849520691 L567.5560228222314,149.6492384515748 L571.9499694438181,150.41968979926932 L573.6620835498056,150.48227548297564 L577.1999731183972,150.53407053156013 L579.9961863662862,150.9901547093738 L580.9946798028882,151.36135255756284 L582.7348495601927,152.9590859312601 L584.2469772285899,156.18332770564598 L584.5325693714807,157.83789175765128 L584.418188639189,159.66438659593004 L585.0749786302681,161.66137346913297 L584.8749921926778,163.60152966402782 z"/>
	<path id="elazig-keban" title="Keban" class="district" d="M162.2928589294601,305.8192230663027 L161.16775537409683,304.9883441619262 L159.7131777596821,305.0451748402342 L156.9450201631096,305.67247042864665 L155.83214599421729,305.81562618792884 L153.52151132680834,305.67247042864665 L150.92456514083486,305.81562618792884 L149.46998752642014,305.7868511609373 L146.81621066213842,306.6997388922394 L146.1313650197432,307.15654244572784 L142.50786974585168,307.7845574098151 L138.31319018618055,307.2421481510272 L136.37303399128618,306.50047183032393 L134.68969491228944,305.67247042864665 L133.43438435978985,304.4747099301296 L131.5510588432028,302.39139797595277 L130.66694613889206,302.0777501817465 L127.98439424761906,301.4785102446507 L126.07301307971554,300.50807245936574 L123.7048283583236,299.13910055025025 L122.33513707353366,298.71107202375316 L120.79423437814424,298.5679162644709 L119.13967032613878,298.59669129146243 L118.08362683555472,298.82473338036925 L116.08663996235165,299.795171165654 L114.57451229395396,299.88077687095335 L113.26165168747136,300.1375939868517 L111.69269334076633,300.85049528056345 L104.81618126549691,303.7610892607431 L102.93285574891036,304.7595826973445 L100.73588243811746,306.2717103657425 L99.68055832320768,306.7853445975388 L97.65479642301335,307.32775385632664 L96.68435863772835,307.32775385632664 L94.9722445317399,306.81411962453035 L93.4601168633422,305.5588090720305 L91.40557993615707,302.64821509185094 L89.66541017885254,301.2785238070604 L88.18133816177092,299.28153693385764 L85.61388637846343,297.39821141727066 L81.47675687277572,295.82925307056485 L79.76464276678774,295.2580687847857 L75.51313252880925,293.00426479568466 L74.62901982449804,291.8057849214929 L73.40176492331541,289.69441731599926 L72.60253854862898,288.0966839423021 L71.11918590722254,286.6701619792035 L66.72523928563722,285.7572742479015 L64.870688796041,284.6444000790093 L64.1858431536458,283.8451737043233 L63.41539180595154,282.2186653036347 L62.98736327945397,281.8769618581117 L59.96310794265858,281.79135615281234 L58.165388131371074,282.13305959833525 L56.538879730682595,282.64669383013154 L54.05631427699989,283.10349738362004 L52.60173666258518,282.8179052407305 L49.805523414695685,281.27772192101605 L47.922197898108664,279.8792556092342 L47.151746550414416,278.53833935143496 L46.57768476193632,276.4543080215833 L47.671135787608925,276.31187163797586 L48.903426318515166,275.6428522604259 L49.627837623024035,274.82276399117114 L51.06299209421951,272.8149864828465 L51.951421052579136,271.8208093002937 L53.52181815063455,271.0705004714931 L55.605849480486604,271.0064760364371 L57.95533043433402,271.3323532171147 L59.487600621625695,271.9064150055931 L64.28943325081508,274.05590952185037 L65.3584255035453,274.4098423538446 L67.72445209791256,274.82204461549634 L70.20126254619692,275.07670360437027 L71.82489344418691,275.0997236259633 L73.22767601001698,274.8817527965034 L75.13114404549843,274.2918647431799 L75.93252854720907,274.2371921918962 L78.06403867159644,274.99397540176994 L81.1444053110249,276.80752147790275 L82.59322792004171,277.21612686118044 L83.8370284617451,276.8988821886004 L86.07356743465121,275.49322212007064 L88.08566119702465,273.89333061934906 L88.56044914238234,273.05957421227333 L88.13601749425936,271.846706824586 L84.29742889360716,269.3900388951956 L83.31907797590006,268.3181691397661 L83.25145666246986,267.231192495166 L84.33699455572038,266.5082199420073 L86.29945139653428,265.9485456670247 L87.86337411351663,266.14133834786696 L86.97062890110858,264.13356083954227 L87.13608530630836,260.8755084084415 L87.3195261033788,259.7856542611424 L88.09501308079713,258.84255275149934 L89.15321469840494,256.88297341338546 L89.58627885462566,254.90900656177558 L89.18055097404718,252.39478857840237 L91.83001158428004,250.28557909993313 L92.370982091718,249.7179916925278 L93.53349318217074,247.82531429216868 L94.2097063164682,245.41900266001326 L94.1017999652505,243.49898898401244 L93.56082945781208,242.28252471795105 L91.50557315495176,239.30862567839034 L91.12718155001508,237.6317609804667 L91.18113472562392,236.87497777059298 L91.85734785992138,234.7657682921238 L92.803326872264,233.7384998285308 L95.1556853288108,233.08962296987494 L96.21029006804494,232.62994191368728 L97.6166695122496,231.27823502076657 L99.02232958077954,230.6020218864688 L100.3740364736997,230.46677925960927 L105.75496652109125,230.62935816211052 L108.67491238504309,230.41282608400024 L111.45961562213544,229.92580875217084 L113.21705039563453,229.0337829154376 L115.24497042285353,228.41224233242346 L116.84054566952699,228.2496634299222 L121.59130262580601,227.9432093924637 L121.4272849719548,229.36829260421268 L121.76467216342924,232.3083809870586 L122.25600574930723,233.25292124805105 L123.66598207188603,234.52693556809504 L128.6332711062752,236.67930758705154 L129.6842789671361,237.3281844457074 L131.01800146818695,238.94174408425013 L132.91427574692014,237.9281437584781 L134.717750563606,237.22962997826187 L136.01550428091775,236.88289090301572 L143.2804792205706,235.18156743214936 L145.7882228228709,234.71181511651477 L156.947897665809,233.0817098374523 L162.10654062969115,232.4313942274468 L162.49284536705085,237.75117734248107 L162.83526818824845,239.14964365426292 L163.2920717417368,240.11936206387284 L164.26179015134707,241.43222267035532 L164.68981867784373,242.6875332228549 L165.48904505252972,244.37087230185165 L165.77391781974478,245.51252149773535 L166.4019327838322,246.82466272854302 L168.71328682691586,249.47843959282446 L168.94132891582268,249.93452377063812 L168.8269481835319,250.9617922342309 L167.9428354792216,253.2443712503233 L167.37165119344155,254.21480903560823 L165.14662223133212,256.12619020351156 L159.3254342709734,257.9526850417905 L158.7837443878598,258.3231635143048 L158.27011015606362,259.26482627259816 L158.15572942377284,260.6345175573885 L159.01178647676662,261.97543381518767 L160.03905494035985,263.91559001008255 L163.976917384132,266.1981690261749 L165.54587573083796,267.5110296326574 L166.11634064094238,268.59512877455825 L167.22921480983516,270.0216507376566 L167.2860454881425,273.24589251204264 L167.68601836332306,275.07166797464663 L167.85722977392163,277.9534869278349 L167.71407401463912,280.40727735452623 L166.57314419443077,281.60575722871783 L165.03224149904133,282.6049700409941 L164.2905651783388,283.5746884506042 L164.09057874074804,284.5451262358889 L164.40422653495392,285.4004639132081 L166.00267928432635,287.22695875148713 L166.23072137323317,289.16711494638196 L168.57013106763335,294.588330031561 L169.1693710047295,297.09895113656023 L169.2269210587125,299.01105168013834 L168.45646971101732,300.63756008082703 L166.77241125634586,302.4345605164399 L164.54738229423597,304.032293890137 L162.2928589294601,305.8192230663027 z"/>
	<path id="elazig-kovancilar" title="Kovancılar" class="district" d="M410.0005206578675,304.8696471755866 L406.2173239841741,302.12738710330655 L402.72763258579255,300.3972886054489 L398.90846712835867,300.2440615867197 L394.61739122826697,300.4253442567656 L391.42696011059616,301.00372229929263 L386.19206332518604,301.85474372256317 L378.0595213217432,302.2388903328982 L367.0804097731757,303.5438378069582 L362.5058998572189,302.8532371591647 L358.5090486081147,301.96049194675663 L353.7259197464689,300.15917525709517 L352.08574320796,299.45346772013124 L347.4428926028982,297.2680044201346 L346.2206733314387,296.5759650209916 L343.40503694033094,294.72141453139614 L342.3576259578437,293.8480924622073 L340.05202692015746,291.52307028130247 L339.7074459719361,289.4649364757428 L338.7564313298708,285.3616176267699 L338.2104251927083,283.7200023369107 L337.4716263747043,282.7438095462277 L336.0580531737527,281.3381494776979 L336.3213446707234,280.2223978061065 L337.43637696664035,278.7922789646341 L337.8881448904047,277.15929618287237 L337.88382863635627,275.3853157688528 L337.5514770746059,273.31351382547246 L337.750744136521,271.19063620918206 L338.98735092147655,271.37695450895137 L341.442580099517,270.993527274291 L345.83652672110327,270.0403545052011 L347.0019153142554,269.62239723815105 L347.5112332920027,269.1972462143532 L347.941419945524,268.1663808723865 L347.84502360510254,266.8542396415789 L347.15298420595997,265.0097604114303 L347.0414809763682,264.02349636130015 L347.48893264608404,263.0890273597547 L348.2205377073407,262.5955356468522 L349.89884115661386,261.97255631248845 L350.83618766085874,261.29418505116627 L351.34190876023234,260.2568453281266 L351.441901979027,259.0022541513016 L351.7821666732009,257.8289524257275 L352.6482949856419,256.513214316546 L353.8805855165481,255.7125491905104 L355.39774881466985,255.68305478784407 L356.10057884893394,255.96576942803452 L357.24438617184217,257.02325166996843 L358.31913342997075,257.54336028283785 L360.122608246657,257.43401518027053 L362.61020933006245,256.41609860044986 L366.12723700408617,254.82555898350063 L368.8486351817972,252.70771699693375 L370.02985003979444,251.4337026768897 L371.5606814757371,254.7881514484118 L373.6281671650684,255.41976329087282 L377.24159117951274,256.08158891167506 L379.52704769830456,254.8320333645737 L382.95127591028097,253.6911035443648 L384.9482627834836,253.66232851737328 L386.4603904518817,254.004751338571 L389.0285616108635,255.14640053445453 L390.8543370734671,256.0873439170733 L392.48084547415647,257.17216243464895 L394.05052319653623,257.5714159341545 L399.15737111183466,257.2858237912649 L401.81114797611593,257.3145988182562 L405.46341827699877,257.6282466124626 L408.9444771672834,257.6857966664453 L410.57098556797195,256.9153453187506 L411.7975210934807,255.54565403396032 L414.7081150736601,253.51989213376604 L416.4482848309646,251.57973593887118 L417.87480679406326,249.5251990116854 L419.70130163234154,247.47066208449982 L420.6710200419518,247.01457790668618 L422.12631703204175,246.9570278527033 L424.4376710751254,248.12745207557833 L425.17934739582887,248.9259590745895 L426.12101015412213,250.41003109167076 L427.8043492331193,252.23580655427492 L429.54451899042385,253.12063863426025 L430.85737959690647,253.51989213376604 L433.4255507558882,253.8903706062801 L434.05284634429995,253.66232851737328 L434.9657340756029,252.03582011668482 L434.9657340756029,250.9804960017753 L434.6233112544053,248.55476122640067 L434.4240441924893,245.33123882768945 L434.8794089946282,242.66091632288806 L436.1764433362652,242.9364372063306 L439.24601934057216,242.90766217933924 L440.1509939394521,242.53430620412576 L440.6675056739477,241.72428919431806 L440.8919508844808,240.1682796097582 L441.4509057837881,239.23165248118826 L442.84145896314766,237.40947389695813 L443.65363409997934,236.80016270041534 L444.99670848480264,236.50665742510319 L447.1296573605404,236.5598912250372 L447.41309137640553,238.0245400988992 L447.98355628650995,238.68061071430316 L448.55402119661437,241.27683752460172 L449.2676418660009,243.87378371057537 L451.12219235559706,246.09881267268486 L452.57748934568605,247.35484260085948 L454.5176455405818,248.49577242106818 L457.82749302026696,250.1510558487484 L459.62521283155405,251.17760493666634 L461.47976332114933,253.08970548024453 L462.3638760254605,253.83138180094787 L464.30403222035534,255.08669235344743 L466.0161463263429,255.94274940644146 L469.7827973595169,256.85563713774354 L471.63734784911225,256.9412428430429 L473.63433472231526,256.7132007541361 L474.8040395695154,256.42760861124646 L477.7714642280025,256.0859051657237 L480.5964525028828,256.1139608170402 L483.50704648306356,255.60032658524392 L485.10477985676033,255.4578902016365 L487.0729917029721,255.60032658524392 L488.4146273364455,256.19956652233964 L491.21084058433456,256.85563713774354 L493.46464457343524,256.88441216473484 L499.00024039090505,256.3707779329386 L501.16843867470624,256.0859051657237 L502.42374922720677,255.6859322905433 L504.1358633331943,254.5162274433431 L504.30707474379335,253.97381818455523 L504.2502440654851,251.23515499064922 L504.3639054221016,249.97984443814943 L505.2199624750958,248.21089965385352 L506.07601952809006,247.41167327916733 L507.93057001768534,246.64122193147273 L509.7570648559646,245.61395346787992 L512.3820666932537,243.5313608893776 L513.6373772457542,242.76090954168296 L517.5464646625342,241.47682396219204 L521.1980155877432,240.79197831979675 L522.310889756635,240.47833052559056 L527.3040763153165,238.08137077720727 L529.7298110906924,236.59801813580083 L531.9548400528017,235.65635537750742 L533.7525598640897,235.17149617270243 L535.4646739700772,234.97150973511214 L536.3207310230714,235.37076323461775 L538.9457328603614,237.05410231361446 L540.1442127345529,237.59651157240228 L542.0268188754642,238.1101458041988 L544.138186480958,238.16697648250664 L547.0200054341466,237.88210371529198 L548.704063888818,237.02604666229792 L550.5866700297294,236.48363740351013 L553.5540946882174,235.4283132886006 L554.7237995354176,235.11394611871958 L557.1495343107933,234.8002983245134 L560.8018046116757,234.8002983245134 L562.7987914848788,235.0002847621035 L565.1957512332615,235.48514396690865 L566.2230196968547,235.85562243942292 L567.1236780416854,235.88799434478807 L568.4653136751597,239.25467250278155 L569.7486798789754,245.53194464095458 L570.1198777271647,246.75919954213745 L571.5924397334492,247.8094880273235 L569.408415184803,249.69065541688587 L569.065992363604,250.2042896486824 L565.4705527410298,251.6315309874556 L561.362198262333,252.11639019226055 L560.277379744758,252.40126295947542 L558.1947871662555,253.25732001246945 L556.7114345248486,254.19898277076283 L556.1402502390699,254.82699773485004 L554.9993204188611,255.45429332326245 L553.2872063128726,256.1391389656577 L552.2887128762716,257.1664074292505 L551.7750786444744,258.22245091983484 L550.8334158861817,259.50653649932593 L550.1773452707777,259.9913957041309 L548.8644846642956,260.2762684713458 L547.6379491387863,260.33381852532847 L544.812960863906,259.9338456501481 L544.0712845432034,259.50653649932593 L542.6728182314209,257.9080837499538 L540.9326484741164,256.7383789027536 L538.8493365199395,256.08230828734986 L536.9091803250448,255.9110968767509 L534.7697570682348,256.05353326035834 L532.9152065786395,256.6247175461375 L532.0591495256452,257.48005522345693 L531.6591766504647,258.5073236870497 L531.031881062052,259.4209307940264 L530.1758240090587,260.13383208773837 L528.406879224763,260.8755084084415 L524.8689896561705,262.87321465731924 L523.2137062284903,264.9277515845048 L523.0424948178912,265.75503361050744 L524.5546224862885,267.4671477164955 L526.0667501546875,268.97927538489347 L527.5508221717687,269.77778238390465 L528.5493156083697,270.66261446389 L529.1485555454655,271.7179385787995 L529.5478090449709,273.4300526847876 L528.6636963406605,275.08533611246753 L526.7515957970827,276.36870231628393 L523.7841711385946,277.76716862806575 L521.1591693013047,277.96715506565585 L519.6758166598978,278.6232256810598 L518.8197596069035,279.5361134123617 L517.3364069654975,283.1027780079452 L516.0523213860067,285.0717092298316 L514.8538415118153,285.89899125583406 L510.5167255685369,287.4398939512234 L508.7190057572489,288.6376544497403 L506.60763815175596,289.6080922350251 L504.9242990727588,289.6649229133331 L501.44324018247545,288.7808102090223 L500.95838097766966,288.38155670951676 L500.530352451173,287.29673819194113 L499.61746471987055,285.7846105235434 L498.704576988569,283.9012850069565 L497.93412564087424,283.1315530349367 L497.3061106767873,283.0171723026458 L492.65534693930204,283.2452143915526 L491.60002282439365,282.6747494814483 L490.94323283331454,280.6202125542625 L490.2015565126111,279.87853623355943 L488.89876716557524,279.57855657717414 L486.35001914981274,279.96414193885875 L484.49474928454316,280.82019899185286 L482.8689602595294,282.104284571344 L480.58638124343656,283.4452008291429 L478.64622504854174,284.30125788213695 L477.9613794061456,284.81489211393324 L476.22049027316683,285.67094916692724 L474.7939683100682,285.89899125583406 L472.88258714216556,286.55506187123797 L471.4553458033908,286.8687096654442 L470.2000352508921,286.9262597194271 L467.86062555649096,287.4967246295314 L466.42187420692227,288.0880514342046 L463.0573541759526,290.2713566071767 L462.2200008905033,290.40156360431274 L460.9632515866542,291.00368104410785 L460.125898301204,292.1554014994385 L458.92238279728906,292.8618284120772 L456.93402843218377,293.266836916981 L455.80245049574694,293.1553336873894 L454.3399597489092,293.51861840315576 L452.6861150725794,293.6675291678362 L452.493322391736,294.3682010750767 L450.7754532803501,295.042975458025 L450.2481509107326,296.13498773234835 L449.5733765277846,299.4103051796442 L448.78853766659427,300.2440615867197 L447.13253486323936,300.8943771967254 L446.2491415346038,301.66698667144425 L445.96714627008765,303.5193790340153 L444.2866846937908,304.13300648460694 L440.96244970060906,305.70268420698756 L439.1330773596318,306.9838922837795 L436.97710846230115,307.0838855025746 L433.2162124345259,307.7859961611647 L427.2489912121848,309.39092329160974 L423.63988345178893,309.60673599404515 L422.2047289805934,309.7966511721884 L420.6249799987655,310.4261048876252 L413.9549287421604,307.7377979909541 L410.0005206578675,304.8696471755866 z"/>
	<path id="elazig-maden" title="Maden" class="district" d="M416.7007856928143,338.6587226202332 L416.5007992552235,340.0852445833318 L416.7007856928143,342.42537365340706 L417.35685630821774,345.5064596685106 L417.3856313352095,347.4753908903971 L415.4454751403142,350.4996462271927 L413.93334747191653,353.72388800157853 L412.87730398133243,357.88979253425794 L412.70609257073295,359.2882588460398 L411.4795570452251,361.28524571924254 L411.336401285943,361.82765497803035 L412.0787969823212,362.5117812447508 L413.70458600733497,363.4534440030442 L414.5325874090122,364.7663046095266 L415.53108084561325,365.56481160853804 L416.64395501450605,365.99284013503495 L417.5856177727993,367.13448933091865 L418.24168838820276,369.2170819094209 L418.58411120940127,369.81632184651664 L419.7825910835922,370.6436038725193 L422.4075929208827,372.6981407997049 L424.375804767094,373.3261557637921 L426.37351101597136,373.5541978526989 L429.854569906256,374.18221281678615 L431.9371624847582,374.8670584591814 L434.1909664738593,376.80721465407623 L435.93185560683855,378.4330036790901 L437.558364007527,379.1178493214854 L439.07049167592567,380.0314564284623 L439.95460438023593,381.17238624867116 L440.24019652312575,383.45496526476353 L439.89777370192724,385.25268507605097 L439.17120427039464,387.26765634112354 L438.0302744501858,386.450445574568 L436.86560523270975,386.1713278127513 L435.59231028834034,386.22528098836017 L434.2600265386385,386.64971263648323 L427.80506860879404,389.2265163035628 L423.4211932466541,391.35802642795045 L421.16666988187825,392.8435371963813 L419.87754867266466,394.0024514084596 L419.35456255709556,394.22329974061876 L416.18499333399296,394.2902016783737 L414.95629968146045,394.52399877267885 L413.8937818098033,395.0771986665884 L413.4679114103304,395.8152781089176 L412.5356005358096,395.6778773550336 L411.4385526317624,396.06202396536884 L409.3271850262685,396.00735141408524 L408.6142837325573,396.1713690679361 L406.7762788834814,397.0490073911738 L406.4748604757469,397.8719731631276 L405.7346229063934,398.392801151672 L404.5829024510621,398.09138274393695 L404.1440832894431,397.5424991040763 L403.23910869056454,397.35042579890865 L402.41614291861043,396.00735141408524 L400.9903403311861,396.1713690679361 L400.71625819909343,395.15704936648945 L399.39980071423713,395.4037952229407 L398.9055896256602,396.00735141408524 L398.6588437692089,397.0490073911738 L397.61718779212,397.6252273066764 L397.0136316009759,398.5575381811977 L395.23101867885924,399.1884306479839 L394.92960027112383,399.9560044929796 L393.8598886427189,400.7789702649334 L391.22697367300634,401.656608588171 L390.04791694203374,401.9033544446223 L386.07192758749784,402.2594454036408 L382.86279270228255,402.86300159478526 L380.17520518128595,404.39886866045094 L378.74940259386204,405.8520075235164 L375.04749537141925,408.6216038714385 L372.71599880944115,410.0481258345368 L370.3852216231382,411.9947564105047 L369.5903115025011,412.81772218245857 L369.06876413828195,413.7500330569799 L368.1364532637607,414.6550076558592 L366.8473320545462,415.55998225473866 L365.42152946712184,416.05347396764114 L364.10507198226554,416.16353844588315 L362.5145323653166,416.68436643442755 L361.28080308306,417.562004757665 L360.04203817108066,420.06327397889214 L359.74493601739465,420.29707107319723 L356.78326636430535,421.0998943262572 L354.67117938313726,421.7854593443271 L352.61448432892655,422.05954147642024 L351.0512809876194,422.0868777520622 L348.9399133821251,421.92214072253626 L344.8811958249891,421.0725580506153 L342.82450077077885,419.5093547093078 L341.75478914237385,418.27490605137683 L340.8498145434944,416.9311122908788 L339.478684507355,413.47595092488694 L338.6283824597591,412.3242304695563 L336.8184332620002,411.1451737385838 L334.8437470347153,410.3495442422717 L332.29356026760286,409.55463412163436 L330.29153776467666,408.67699579839683 L325.16382795480996,407.27852948661507 L320.8576451655474,406.0167445530423 L317.9513674394165,405.3038432593303 L315.56519832615527,405.02976112723735 L311.1223341586833,404.7276233438277 L305.8298873192911,403.4385021346131 L303.8005285407231,402.6709282896177 L301.9632430673224,401.6012166612126 L301.00287654148417,400.86097909185895 L300.2079664208471,399.6819223608864 L302.1013631968808,398.5417119163523 L304.9637590068501,397.51516282843437 L305.97304307857365,397.52523408788124 L306.92118021794,396.0728146004906 L307.1549773122447,394.3937917755427 L307.7031415764314,393.65571233321344 L309.94759368175914,391.4256477413802 L310.0281637573355,390.185444078051 L309.5799927119449,389.59411727337783 L310.0943463194162,388.53807378279373 L313.25744116144483,385.5591391135094 L314.5695823922527,383.41899648102435 L315.461608228986,382.77155837371794 L316.70540877068936,382.43417118224386 L318.36572782809225,382.3205098256277 L319.4131388105795,381.9888776395519 L321.731686610411,380.2760441578891 L322.5143673445776,379.53580658853537 L323.768958521402,377.4445815019358 L325.47531762199117,375.8108793444992 L325.9939874835119,374.62822573515285 L326.0644862996406,373.4880152906187 L326.58171740981084,371.92049569526256 L327.0097459363075,367.9833526271648 L326.4961117045118,366.5848863153829 L325.2127455006952,365.443956495174 L323.9854905995121,364.8447165580784 L322.7870107253203,364.644730120488 L320.96123526271674,364.0167151564009 L319.81958606683224,363.2462638087062 L319.4203325673273,362.67579889860184 L318.4218391307253,360.50760061480014 L316.595344292447,357.9394294558181 L315.596850855845,356.85533031391725 L314.192629538665,355.98056949337877 L318.3995384848076,354.39578488182764 L323.01577218990275,353.1081024239627 L328.1686601483861,351.6046072636622 L339.154965453701,347.6322147875 L342.1972051823666,345.9503144598529 L343.77191853447044,344.5187568670311 L344.9883828005325,343.1591368416875 L345.65884092943116,342.02396202687703 L346.6573343660331,340.7398764473859 L348.0838563291318,338.2292553423867 L348.8255326498343,337.34442326240134 L350.2239989616169,336.48836620940733 L352.9058314772147,335.63230915641327 L355.1315798149993,334.06335080970723 L359.46797638260256,332.3224616767279 L361.60811901508765,331.55201032903324 L364.77553011116555,330.58229191942314 L366.0308406636647,329.9830519823274 L367.7710104209693,328.670191375845 L368.3421947067493,327.10123302913917 L368.8270539115533,326.27395100313646 L369.96798373176307,325.3322882448431 L371.73764789173356,323.5345684335556 L372.6505356230356,322.8784978181517 L374.96117029044456,321.5375815603527 L377.9285949489326,320.56714377506796 L379.7831454385279,320.7951858639748 L384.71950131890156,322.65045572924487 L385.6611640771949,322.8497227911604 L388.85663082458973,323.02093420175913 L391.73844977777827,322.5360749969542 L393.8785924102634,322.50729996996284 L394.36345161506785,322.70728640755294 L395.7619179268504,323.9338219330612 L396.2755521586461,324.98986542364537 L396.81724204175976,326.73003518095015 L398.2437640048575,329.6974598394378 L398.7293425853371,331.0390954729115 L399.41418822773323,332.03758890951303 L401.92480933273197,333.5209415509195 L403.4937676794384,334.23456222030603 L406.06193883842013,335.746689888704 L408.2589121492131,336.00350700460217 L409.4573920234049,336.2890991474918 L412.85284520838917,338.6853395202003 L413.4808601724765,338.9421566360985 L414.65056501967666,338.9709316630898 L415.934650599168,338.57167816358424 L416.7007856928143,338.6587226202332 z"/>
	<path id="elazig-palu" title="Palu" class="district" d="M417.35685630821774,345.5064596685106 L416.7007856928143,342.42537365340706 L416.5007992552235,340.0852445833318 L416.7007856928143,338.6587226202332 L417.1575892463027,337.1465949518355 L420.1250139047907,333.779916793842 L421.29471875199084,331.268576313168 L423.1204942145944,329.98521010935167 L423.37731133049294,328.9003915917762 L424.9469890528736,326.87462969158173 L426.5447224265704,325.90491128197186 L427.1720180149826,324.87764281837906 L427.2295680689656,323.650387917196 L426.5727780778874,322.9374866234842 L424.375804767094,321.42535895508627 L423.0636635362861,320.93978037460647 L416.9007721304041,320.0844426972873 L413.9614031232335,319.99883699198784 L412.4492754548358,319.65641417079013 L410.99397846474545,318.9427935014035 L408.85455520793505,317.1450736901161 L407.6841309850602,314.4632411745181 L407.1136660749558,311.86701436421936 L407.4273138691617,308.69960326814135 L408.14093453854815,307.273081305043 L410.0005206578675,304.8696471755866 L413.9549287421604,307.7377979909541 L420.6249799987655,310.4261048876252 L422.2047289805934,309.7966511721884 L423.63988345178893,309.60673599404515 L427.2489912121848,309.39092329160974 L433.2162124345259,307.7859961611647 L436.97710846230115,307.0838855025746 L439.1330773596318,306.9838922837795 L440.96244970060906,305.70268420698756 L444.2866846937908,304.13300648460694 L445.96714627008765,303.5193790340153 L446.2491415346038,301.66698667144425 L447.13253486323936,300.8943771967254 L448.78853766659427,300.2440615867197 L449.5733765277846,299.4103051796442 L450.2481509107326,296.13498773234835 L450.7754532803501,295.042975458025 L452.493322391736,294.3682010750767 L452.6861150725794,293.6675291678362 L454.3399597489092,293.51861840315576 L455.80245049574694,293.1553336873894 L456.93402843218377,293.266836916981 L458.92238279728906,292.8618284120772 L460.125898301204,292.1554014994385 L460.9632515866542,291.00368104410785 L462.2200008905033,290.40156360431274 L463.0573541759526,290.2713566071767 L466.42187420692227,288.0880514342046 L467.86062555649096,287.4967246295314 L470.2000352508921,286.9262597194271 L471.4553458033908,286.8687096654442 L472.88258714216556,286.55506187123797 L474.7939683100682,285.89899125583406 L476.22049027316683,285.67094916692724 L477.9613794061456,284.81489211393324 L478.64622504854174,284.30125788213695 L480.58638124343656,283.4452008291429 L482.8689602595294,282.104284571344 L484.49474928454316,280.82019899185286 L486.35001914981274,279.96414193885875 L488.89876716557524,279.57855657717414 L490.2015565126111,279.87853623355943 L490.94323283331454,280.6202125542625 L491.60002282439365,282.6747494814483 L492.65534693930204,283.2452143915526 L497.3061106767873,283.0171723026458 L497.93412564087424,283.1315530349367 L498.704576988569,283.9012850069565 L499.61746471987055,285.7846105235434 L500.530352451173,287.29673819194113 L500.95838097766966,288.38155670951676 L501.44324018247545,288.7808102090223 L504.9242990727588,289.6649229133331 L506.60763815175596,289.6080922350251 L508.7190057572489,288.6376544497403 L510.5167255685369,287.4398939512234 L514.8538415118153,285.89899125583406 L516.0523213860067,285.0717092298316 L517.3364069654975,283.1027780079452 L518.8197596069035,279.5361134123617 L519.6758166598978,278.6232256810598 L521.1591693013047,277.96715506565585 L523.7841711385946,277.76716862806575 L526.7515957970827,276.36870231628393 L528.6636963406605,275.08533611246753 L529.5478090449709,273.4300526847876 L529.1485555454655,271.7179385787995 L528.5493156083697,270.66261446389 L527.5508221717687,269.77778238390465 L526.0667501546875,268.97927538489347 L524.5546224862885,267.4671477164955 L523.0424948178912,265.75503361050744 L523.2137062284903,264.9277515845048 L524.8689896561705,262.87321465731924 L528.406879224763,260.8755084084415 L530.1758240090587,260.13383208773837 L531.031881062052,259.4209307940264 L531.6591766504647,258.5073236870497 L532.0591495256452,257.48005522345693 L532.9152065786395,256.6247175461375 L534.7697570682348,256.05353326035834 L536.9091803250448,255.9110968767509 L538.8493365199395,256.08230828734986 L540.9326484741164,256.7383789027536 L542.6728182314209,257.9080837499538 L544.0712845432034,259.50653649932593 L544.812960863906,259.9338456501481 L547.6379491387863,260.33381852532847 L548.8644846642956,260.2762684713458 L550.1773452707777,259.9913957041309 L550.8334158861817,259.50653649932593 L551.7750786444744,258.22245091983484 L552.2887128762716,257.1664074292505 L553.2872063128726,256.1391389656577 L554.9993204188611,255.45429332326245 L556.1402502390699,254.82699773485004 L556.7114345248486,254.19898277076283 L558.1947871662555,253.25732001246945 L560.277379744758,252.40126295947542 L561.362198262333,252.11639019226055 L565.4705527410298,251.6315309874556 L569.065992363604,250.2042896486824 L569.408415184803,249.69065541688587 L571.5924397334492,247.8094880273235 L573.9145844116548,248.41376359414284 L577.9092775337352,248.92739782593912 L583.273661940606,249.06983420954657 L587.5820028568932,249.6410184953257 L589.9789626052759,250.35391978903772 L591.3198788630759,250.92438469914208 L592.5751894155746,252.0092032167177 L594.0017113786733,253.4637808311328 L595.1145855475661,255.40465640170248 L596.1699096624745,258.3145310062073 L596.4842768323565,259.51301088039884 L596.5979381889721,261.1107442540962 L596.5123324836735,266.4175786069843 L596.3698961000657,268.38650982887066 L596.0843039571758,269.9274125242599 L595.5138390470714,270.9259059608612 L594.8289934046763,271.58197657626516 L592.5464143885835,272.8660621557561 L589.6645954353958,274.1789227622386 L588.2668484992884,274.6069512887357 L585.727452367297,275.6054447253372 L584.728958930696,276.3190653947237 L581.2759556917287,277.5168258932405 L578.8171296353141,278.4815086731271 L577.7948968014454,279.05772858862974 L576.4259248923283,281.16909619412337 L575.1130642858462,281.45468833701307 L572.117583976042,282.36757606831515 L571.1183711637658,282.99559103240233 L569.6062434953676,284.3645629415181 L569.2357650228544,284.96380287861376 L568.0653407999791,287.93122753710145 L566.8956359527781,288.73045391178755 L564.926704730892,289.75772237538035 L562.9865485359973,291.384230776069 L562.1024358316869,292.43955489097834 L559.0494054678993,295.3213738441668 L558.4789405577958,296.2342615754687 L557.9077562720162,297.94637568145674 L557.2516856566123,298.4312348862619 L556.1388114877204,298.77365770745945 L555.1403180511185,298.77365770745945 L554.2274303198169,298.48878494024456 L551.773639893126,297.290305066053 L550.7175964025414,296.63423445064905 L548.5493981187393,295.8350080759631 L547.6077353604455,295.89183875427113 L546.6092419238445,296.3198672807681 L545.5251427819439,297.5751778332679 L541.4160689275727,301.2849981881335 L540.474406169279,303.6531829095254 L539.3615320003862,305.878211871635 L539.1622649384711,307.07669174582674 L539.1047148844885,308.90534471112994 L537.1228349004564,307.7068648369384 L535.9811857045732,307.4788227480316 L533.0137610460852,307.5356534263395 L530.9879991458909,308.2204990687347 L529.1902793346029,309.3614288889436 L526.8796446671939,310.5030780848273 L525.253136266506,310.6455144684345 L522.4281479916257,310.58868379012665 L520.8591896449192,310.84550090602477 L518.519779950519,311.644007905036 L517.0925386117452,312.38640360141403 L514.2682697125401,314.2121790640181 L513.0410148113565,315.4674896165178 L512.6417613118512,317.2939844547966 L512.3281135176453,318.00688574850835 L511.44328143765983,318.57807003428775 L508.9607159839766,319.7189998544965 L507.6197997261784,320.6894376397814 L506.59253126258517,322.11595960287974 L505.7940242635735,322.60081880768473 L504.1675158628854,324.34170794066426 L502.88343028339455,324.85462279678575 L499.0599485719123,325.2258206449749 L496.6061581452213,324.96900352907664 L494.66600195032646,325.19704561798346 L493.0970436036201,326.0818776979689 L492.04603574275916,326.43652990563794 L490.0771045208731,325.35243076373706 L487.7945255047811,324.63881009435033 L486.9672434787791,324.6107544430338 L484.59905875738673,324.15395088954534 L481.88845121479716,323.12668242595254 L480.46192925169856,322.8698653100544 L478.2081252625969,323.61226100643233 L476.2104190137196,324.5819794160425 L473.6141922034208,325.6092478796353 L472.672529445128,326.12288211143175 L471.07479607143034,327.49257339622204 L468.877822760637,328.8903203323291 L467.9361600023433,329.34712388581755 L462.68615632776414,331.2585050537211 L461.0596479270752,332.7425770708023 L459.00511099988967,335.99487449650485 L457.578589036791,338.07818645068176 L456.6944763324807,338.70548203909436 L455.7240385471957,340.13200400219273 L455.0391929048005,342.5009080992593 L454.1550802004893,344.18424717825604 L453.44145953110285,344.6403313560697 L450.9020633991123,345.4395577307556 L447.19296241992174,345.55321908737176 L444.8816083768376,345.1259099365494 L441.71491665643447,343.86988000837505 L438.5187305333648,342.3865273669686 L436.66418004376953,342.01532951877954 L432.61265624338085,341.6448510462653 L428.4186960593849,341.41608958168365 L427.2202161851936,341.53047031397455 L425.7936942220949,342.35775233997725 L425.1369042310167,342.5009080992593 L422.5975080990253,342.5009080992593 L419.9156755834275,343.5274571871775 L418.8884071198347,344.21230282957254 L417.35685630821774,345.5064596685106 z"/>
	<path id="elazig-sivrice" title="Sivrice" class="district" d="M171.9051566959366,394.626869494173 L169.83263537688126,393.79814871682083 L168.26655453287424,393.3542939254786 L164.84592319927194,393.62190167649845 L162.93022577731998,393.4557258956231 L161.38788433058153,392.47377809954185 L160.9195707662965,391.97525075691595 L160.46924159388118,390.7451183530336 L159.98941801879897,388.55318067196407 L158.60246171781446,385.82458873750494 L158.04350681850627,384.97428668990915 L161.0073345986202,384.5318706499165 L163.37551932001213,384.3038285610097 L165.65809833610408,384.33188421232643 L168.3118752003858,384.70308206051527 L171.10808844827483,384.47503997160845 L174.6747530438586,383.7333636509054 L177.2422048271656,382.87730659791134 L178.41190967436572,382.1068552502167 L179.55355887024928,380.7939946437342 L182.06417997524898,379.25309194834495 L183.69068837593744,378.05533144982815 L184.97477395542833,376.77124587033705 L185.51646383854103,375.4015545855465 L185.80205598143084,371.4924671687654 L186.2013094809367,370.8076215263702 L186.572507329126,370.29398729457387 L188.14146567583148,369.60914165217866 L189.939185487119,369.2098881526731 L190.909623272404,369.2386631796644 L192.82100444030664,368.69625392087664 L194.53311854629507,368.38260612667034 L196.04524621469324,367.81214121656603 L198.07100811488758,367.35533766307753 L199.35509369437844,367.2985069847696 L204.6619280472667,367.8401968678826 L206.94450706335866,367.7545911625832 L209.42707251704138,366.61366134237426 L210.71115809653315,366.41367490478416 L212.65131429142752,366.41367490478416 L214.13538630850914,366.5848863153829 L215.36192183401704,366.5280556370749 L218.15813508190607,365.87126564599635 L219.2710092507984,365.1583643522846 L222.0384474716957,362.19093969379674 L223.66495587238418,359.3091207406085 L224.121759425873,357.76821804521916 L224.63467428199445,355.2575969402199 L225.54828138897165,353.00307357544403 L230.6839043312609,347.6106335172566 L232.93770832036205,346.1553365271667 L234.6217667750326,345.8129137059691 L235.99073868414916,346.184111554158 L237.3604299689391,347.3825914283497 L238.7301212537295,349.46518400685204 L240.18541824381938,352.37577798703165 L241.01270026982235,353.0606236294269 L242.01119370642388,353.4598771289325 L243.9232942500017,353.8879056554297 L246.66195744390822,353.8591306284381 L248.31724087158796,353.54548283423185 L252.39753969896742,352.404553014023 L253.65285025146795,351.74776302294447 L255.22180859817342,351.17729811284005 L258.04679687305327,350.6636638810436 L260.04378374625634,350.6636638810436 L262.89754704812793,350.9204809969417 L269.54529765881574,349.52273406083475 L271.8847073532164,348.609126953858 L274.3960478338904,348.6666770078407 L275.22332985989243,348.49546559724195 L276.621796171675,347.66746419556443 L279.75971286508644,346.24094223246607 L282.7271375235745,345.8985194112685 L283.7263503358499,346.01290014355925 L286.7218306456549,345.8704637599518 L289.91729739304935,346.24094223246607 L295.0248646840216,347.3825914283497 L297.76424725360283,348.067437070745 L300.33169903690987,348.4666905702506 L303.61349086527855,349.4371283555354 L304.95440712307766,350.264410381538 L305.78168914908065,351.2341287911479 L307.0657747285715,352.3189473087236 L309.0627616017746,353.40304645062446 L311.8309191983471,354.5159206195168 L314.192629538665,355.98056949337877 L315.596850855845,356.85533031391725 L316.595344292447,357.9394294558181 L318.4218391307253,360.50760061480014 L319.4203325673273,362.67579889860184 L319.81958606683224,363.2462638087062 L320.96123526271674,364.0167151564009 L322.7870107253203,364.644730120488 L323.9854905995121,364.8447165580784 L325.2127455006952,365.443956495174 L326.4961117045118,366.5848863153829 L327.0097459363075,367.9833526271648 L326.58171740981084,371.92049569526256 L326.0644862996406,373.4880152906187 L325.9939874835119,374.62822573515285 L325.47531762199117,375.8108793444992 L323.768958521402,377.4445815019358 L322.5143673445776,379.53580658853537 L321.731686610411,380.2760441578891 L319.4131388105795,381.9888776395519 L318.36572782809225,382.3205098256277 L316.70540877068936,382.43417118224386 L315.461608228986,382.77155837371794 L314.5695823922527,383.41899648102435 L313.25744116144483,385.5591391135094 L310.0943463194162,388.53807378279373 L309.5799927119449,389.59411727337783 L310.0281637573355,390.185444078051 L309.94759368175914,391.4256477413802 L307.7031415764314,393.65571233321344 L307.1549773122447,394.3937917755427 L306.92118021794,396.0728146004906 L305.97304307857365,397.52523408788124 L304.9637590068501,397.51516282843437 L302.1013631968808,398.5417119163523 L300.2079664208471,399.6819223608864 L298.699435630823,398.36546487603005 L296.7801413304969,397.295753247625 L295.2169379891893,396.6648607808386 L294.037161882542,396.47350685134575 L288.7720513187916,397.15907186941587 L282.0609956487229,397.1763368856107 L281.0092684121873,397.7173073930489 L277.8605610836543,399.9754276361988 L273.9226986398813,404.01903830416455 L272.5796242550584,405.73402991285184 L271.49840261585626,406.3296729715737 L266.68793747857006,408.5295237850659 L265.4894576043787,408.71368395781093 L261.9148798763724,407.91014132907605 L260.1394607110031,407.76194994007034 L253.221944222271,407.45477652693717 L251.90476736173997,407.64325295373095 L244.22471265773663,409.18055877074625 L242.6435249245597,409.67908611337214 L240.4278478462223,410.8869178713361 L239.74444095517657,409.73303928898093 L237.22159046370547,406.4534055876367 L236.12310380830925,405.28801699448513 L234.51601855084002,403.92767759346697 L230.796126936527,401.44439276410947 L229.9386311321833,400.60919760568424 L229.06602843866924,398.2014472221792 L228.4372940989071,397.1310162180991 L227.61720582965287,396.51738876750767 L226.83164759278733,396.34258047853484 L225.41879376751004,396.7332014699432 L223.85918730457612,397.78420933080383 L222.73192562218821,398.2115184816261 L221.42913627515279,398.17698844923655 L218.2135270088644,397.656879836367 L216.9042632807555,397.86406003070493 L208.90912203119632,399.56969975561987 L203.52603385678103,400.9321972836625 L202.03045182890315,401.0264354970595 L199.33207367278553,400.4646030950524 L198.04582996627,400.4933781220437 L196.34954212512665,401.07463366727 L195.06833404833515,402.0695302254976 L194.15688506838217,403.16370062684535 L192.65410928375692,404.0981696283909 L190.54346105393785,404.7017258195354 L187.50841508202095,405.0499036461314 L185.4876888115502,404.8556722139394 L183.99642303772077,404.1003277554153 L175.57253388598932,398.3913624003224 L175.12148533789974,398.0100932926864 L173.71078963964666,395.89512880881875 L171.9051566959366,394.626869494173 z"/>
	
</g></g></svg>