<svg xmlns="http://www.w3.org/2000/svg" version="1.2" baseProfile="tiny" width="600" height="600" stroke-linecap="round" stroke-linejoin="round"><rect id="backgroundrect" width="100%" height="100%" x="0" y="0" fill="none" stroke="none" class="" style=""/>































































































































































































































































































































































































































































































































































































































<g class="currentLayer" style=""><title>Layer 1</title><g class="city city-24 selected" id="erzincan" title="Erzincan">
	<path id="erzincan-ilic" title="İliç" class="district" d="M101.92109218489577,256.3136640010932 L101.08490785490903,257.93816831666015 L98.98060673758437,260.61453485146546 L98.68361713072727,261.1404659610846 L97.58562060362738,263.83932297097226 L97.08217996909116,264.20551403962156 L94.61168778311685,264.84562756119755 L93.6740079758356,265.0059442810157 L92.46182903677936,265.5549425445654 L92.16483942992181,266.03531602517154 L91.22658294379198,266.62987191773436 L90.83790140006022,267.49892694207216 L90.88345902907304,268.66554825211546 L91.2952077267355,270.08360154000303 L92.2790218418786,272.02816261635803 L92.85051058051022,274.5211452774145 L92.75939532248412,275.98475619431514 L92.85051058051022,277.0141279384711 L93.46813362700414,278.0665668365576 L94.49750537116006,279.53017775345825 L97.47086151282247,284.74508457833315 L98.11155171324708,285.59164912758854 L99.02616436659764,287.37531680527707 L99.18648108641537,288.29050613747626 L99.27817302329004,292.1329173034766 L99.04923152052834,294.60340948945066 L98.13461886717778,296.18177949715636 L96.62487364241497,297.4625832191565 L95.11512841765307,298.37719587250734 L93.42257599799086,300.0241906631568 L91.79864836127263,301.46531110497506 L90.92959333693443,302.4485485412696 L90.15165357062278,304.3014176807501 L89.30566570021574,307.0919666275122 L89.83159680983454,307.6865225200751 L91.79864836127263,307.8468392398932 L92.64463623167967,308.2816550914862 L92.96526967131558,308.85314383011837 L93.07945208327237,309.7452660083868 L93.5828927178095,310.271197118006 L94.88618691489182,310.8657530105688 L96.55624885947145,310.79712822762514 L98.04292693030266,310.3398219009497 L99.36928828131613,310.15701470604915 L100.62760152823375,310.18008185997996 L101.24522457472767,309.9966979862311 L101.93147240416465,310.13394755211846 L102.96084414832012,310.65987866173765 L103.60095766989616,310.70601296959904 L104.76757897993957,310.31733142586734 L105.81944119917807,310.271197118006 L106.7346305313772,309.9742075111487 L107.74093512160289,309.9742075111487 L108.77030686575836,310.5226290958502 L109.29623797537761,311.00300257645625 L109.89079386794037,310.98051210137385 L110.89767513701372,311.64369277688047 L111.42360624663343,312.28438297730463 L111.97260451018292,313.6563019573309 L113.07060103728236,315.211604811106 L113.66515692984512,316.21848608017945 L114.64839436613966,318.3452776725867 L114.83177823988899,320.2212139659979 L115.38077650343848,321.52450816308044 L115.9753323960008,322.57694706116695 L116.70713785445196,323.33181967354795 L120.64124095732632,325.5733703567602 L122.81416685759496,326.8997317077734 L124.64396884314465,328.13497780076057 L125.81059015318806,328.75260084725403 L127.80070885855594,329.98784694024107 L129.33294455840087,330.69658524476074 L131.04856413199377,331.20002587929747 L132.99254852950025,331.2230930332282 L134.7992833611197,331.5887074230292 L136.35516289374254,332.5263872303107 L137.10945882727538,332.8470206699469 L139.74026773306832,334.58513071862245 L141.20387864996837,335.01994657021544 L141.82150169646184,335.7286848747351 L141.7073192845055,338.24473468972224 L141.40802296225502,340.27983434525515 L138.71666277739496,340.18410565644285 L136.56680403105702,340.43611431313536 L135.17124121825145,340.9851125766852 L133.47868879858925,342.10559957886716 L130.48284218184426,343.9123344104865 L129.68183526160146,344.3240831081488 L127.62366845213819,346.2911346595862 L127.18885260054549,348.8533187824347 L127.257477383489,351.02624468270324 L127.50890936133283,351.68942535820986 L128.1726667156886,352.65017231942204 L129.3162208718004,353.9765336704352 L130.21468651739997,354.72679285203003 L129.5272853302663,355.27579111557975 L128.0861648884479,355.6869631343939 L127.58272425391169,355.6869631343939 L126.73673638350465,355.27579111557975 L125.04418396384199,354.68065854416864 L124.10650415656073,354.4747841953375 L122.57369177786768,354.4747841953375 L120.5155249684044,354.8409752639868 L119.18858693854281,354.86404241791746 L117.74746649672443,354.58954328614254 L115.9862892941187,354.3836689373114 L114.72855272604875,353.65128680001277 L112.92124121558118,351.6386776195624 L111.04588160101821,350.38094105149287 L108.3925822201436,348.7339462608435 L106.42553066870641,347.65901688767457 L104.20704713942496,346.7438275554755 L101.85131404425601,346.1262045089819 L99.24357229239422,345.7605901191809 L94.348722228307,343.1297812133887 L93.15961044318146,342.421042908869 L90.18567762267048,341.09410487900755 L88.95100820853168,340.6829328601935 L87.80687737357084,340.4770585113623 L86.640832742376,340.49954898644467 L81.97434750220236,341.32304638176936 L81.10529247786462,341.59754551354433 L77.23981415793332,342.39797575493833 L72.68808800856505,342.58135962868715 L71.4072842865653,342.48966769181277 L68.66286964766414,342.0779189941505 L66.71830857130954,341.59754551354433 L64.36257547614059,340.65986570626285 L61.93821759802813,339.42461961327575 L59.7422245438288,338.07519110833186 L57.8893554043475,337.4806352157691 L56.79135887724806,337.3203184959509 L54.13863617522156,337.365876124964 L52.74307336241691,337.1830689300634 L50.91327137686676,336.74882975731873 L46.70466914221697,335.39882457352655 L45.469423049230045,335.2615750076392 L42.35881734168015,334.5072790741064 L40.84907211691825,333.9121465026953 L39.81970037276233,332.8372171295264 L37.48703443152408,331.19022233887694 L34.41679624335211,329.4797928749182 L34.09673948256477,325.6373817089178 L33.43298212820946,323.71588778649357 L32.70117666975921,322.68651604233764 L30.757192272252723,320.44496535912543 L28.744006412953695,319.3700359859564 L26.182398968953294,318.61516337357546 L23.506609112996557,318.59267289849305 L20.57881060034697,318.0661651100256 L18.085251260441964,317.28880202256227 L16.461323623723274,316.51086225625056 L14.403156814259546,315.2756161632636 L13.328227441091258,314.4065611389258 L12.687537240666643,313.6978228344061 L10.949427191991163,310.2896508411505 L8.02162867934203,305.5089831890204 L6.145692385930943,303.54193163758305 L4.705148622960678,301.71212965203307 L3.6527097248740574,300.24851873513245 L2.852279483480288,298.5098320076086 L2.5547131977746176,296.8859043708899 L2.7150299175923465,295.67372543183353 L3.8355169197743635,293.63804909745244 L4.339534233159611,291.9374231739141 L8.175601931829078,291.93799985276246 L9.98233676344853,291.6750342979529 L11.193362344808065,290.70390711747194 L12.513380228490405,290.21430677529355 L13.462593612737237,290.22295695801756 L16.563972458714943,290.8844075969794 L16.723135820836887,290.10992790375735 L17.44398438117014,289.1220770366766 L18.927779057759835,287.97736952286743 L19.490040934819717,286.8274718994238 L19.298583557195343,285.1083922527411 L18.83493376318893,284.12861488953615 L17.529909529561337,282.02316041451473 L15.968839887304057,280.32484120636957 L14.666122369069399,277.35898188973454 L14.226693086690375,276.65428033715267 L12.789609396809738,275.9709159019568 L12.096441421193504,274.9282805442907 L11.78388148543263,273.11923899727844 L11.958615176457442,272.37589996186273 L12.954539547414697,271.6556280803778 L14.239956700200764,269.6089948478796 L14.731287078923742,268.37663214913385 L13.628677121037981,266.7157970661261 L15.681077142019149,264.712414747248 L18.395504480809905,263.23092678605104 L18.898368436498004,262.4922011814215 L20.536136365574748,259.14112039414425 L20.934044770879154,257.5021991073706 L20.949038420934357,255.57147832337398 L21.417878324574758,254.6724359989264 L22.80421427580768,252.81553010750793 L22.871109022206383,251.51800269890805 L22.287510027761073,250.35138138886475 L21.52225719611124,248.1588484077551 L21.304272591466543,246.44438219185855 L21.41672496687852,245.73160713540096 L21.989943742055402,244.6313038929083 L22.675038213795688,243.85509416314153 L24.087324713200815,242.91626099816347 L25.39984577185578,242.37533623848938 L26.5872275204365,242.34246554413815 L27.523177291173397,242.15619827614807 L29.670729322118405,241.33962102700252 L32.132571325368644,240.1061049705603 L34.43236657225543,238.8235712120154 L35.3389057217305,238.18807112122556 L38.3134152210896,235.83810481453918 L39.341056928701164,234.89119814568545 L40.41194954993216,233.4177836883642 L41.89113079573599,234.48809963074706 L42.45108595740248,235.0261409961798 L42.78728972594217,235.72103900834102 L43.14598396956353,237.0427869285681 L43.5265920094198,239.14939476128603 L44.60209806143712,240.94171262169863 L45.27450559851559,242.30844149209045 L46.7531101654713,243.87700795937565 L49.08346939131707,245.73679724503538 L49.89024310004197,246.0730010135748 L53.40856075331658,247.17099754067442 L55.4476971607869,248.47083166466737 L56.254470869511806,248.8070354332068 L57.57621878973896,249.07576777649905 L60.37714795576994,249.07576777649905 L64.27607364890082,249.50135676651973 L66.22582483488986,249.94943623162294 L69.87793198096233,250.01690765687007 L73.6200010273642,249.30009584847474 L76.80211491209957,248.22401311760927 L78.30320995413695,247.52969178429626 L79.93924784666979,247.32785418740298 L81.73156570708215,247.30536371232057 L84.03943445784535,247.43972988396663 L85.20490241019206,247.64156748086 L87.28901976782754,249.1876434730627 L88.58827721297166,250.44249664689085 L88.87950003134665,250.98053801232362 L89.39505092169702,253.0640786911108 L89.88811133696481,253.82587144967107 L91.50165875441508,254.70011658364314 L93.47332373663858,255.48439981728575 L95.33311302229822,254.9019541805365 L96.69984189269007,254.61015468331362 L98.26840835997564,254.58824088707948 L99.83697482726029,255.26007174531009 L100.84558613287845,255.9549697574713 L101.92109218489577,256.3136640010932 z"/>
	<path id="erzincan-cayirli" title="Çayırlı" class="district" d="M470.54343885847993,177.0232057586768 L473.88875285727454,175.97480361252804 L475.58188195578487,175.76892926369692 L477.3886167874043,176.15761080742857 L479.8360418194479,177.32423211747195 L482.67214839522285,178.87953497124698 L485.07401579825364,180.6637793277838 L487.61255608832334,182.47051415940308 L490.66203383795664,184.3937381183722 L490.20472751128136,184.6221029422858 L489.15228861319474,185.9715314472296 L487.32248662764505,187.86995821572327 L485.4696174881642,189.63113541832942 L482.9310771980945,191.804061318598 L480.75815129782586,193.1765569774725 L479.3170308560075,194.4804278534033 L478.60771587264026,194.93773418007873 L476.96129776083853,196.9964776683905 L476.8696058239643,197.54547593194033 L477.2813545216268,198.0258494125464 L477.53278649947106,198.80321250000975 L477.4416712414445,199.67226752434752 L476.96129776083853,201.18201274910945 L476.9837882359211,202.21138449326534 L476.52648190924583,203.51525536919613 L476.61817384612004,203.97256169587158 L477.79978880621866,206.46150760499023 L475.98671050726807,206.91189378548643 L473.30342382628396,207.24752087517757 L471.68410962035114,207.2619378463843 L470.2101184841822,207.1529455440619 L468.5758106281942,206.82885203133606 L467.63640078436765,206.91593053742434 L467.13180679213474,207.17831941338557 L465.70914007346073,208.37319798699397 L464.7501231487936,208.91123935242678 L464.13480681769306,208.9919743911841 L461.68911182219426,208.5963727012732 L460.61648916441845,208.49776061821962 L459.76877125746705,209.89505346756957 L459.0260089008989,210.22030033799192 L458.30573701941466,211.35808770562193 L457.2844387791347,211.73004556275393 L456.69968642699223,212.23175616074582 L456.9338180393879,213.20346002007508 L455.6685846462915,214.20572785836245 L454.1444224503225,214.24551869889285 L453.46105801512704,214.4433195438483 L452.7073387604423,215.01134820939083 L450.7771946552939,217.21022465783142 L449.59846308943725,218.8912435005286 L448.80149292113265,220.39752865220095 L448.0471969875998,220.81043070755976 L446.3310007351588,221.15470797997497 L446.2710261349389,221.71696985703488 L447.1890988613791,221.9234208847144 L447.81652544829285,222.28442184372923 L450.09094682585646,224.01042163659116 L452.0372379387559,225.66721996766114 L452.3809385323234,226.10722592888857 L453.3174649819084,226.18277085801145 L454.09309803282713,225.95613607064269 L456.1651051346489,226.1735439964392 L458.1898245709126,227.15505139618892 L459.702453189916,228.2593913906195 L460.7249047878927,229.66994785347964 L461.09340257193526,230.7541040882208 L461.215658487768,233.55503325425173 L460.97287669264733,235.11552621766117 L461.0789856007282,235.61608345795653 L462.7167535298054,237.46549252434755 L464.77030690848324,237.6754036251166 L466.07244774786886,238.1915311943152 L469.66804036681106,239.9452115718939 L471.03995934683735,241.75828987084412 L470.9851748562519,242.4941320812323 L470.19224143988595,243.73802835694335 L468.7407407787987,244.57651940232296 L468.0660265263268,244.7812403934576 L466.3890444355675,244.80142415314697 L464.38508543784064,245.16934525834105 L462.31999848219857,245.82387575112364 L459.9890625775047,246.90745530701662 L456.1651051346489,247.78689055062318 L454.795492870016,247.90972314530393 L453.99794602286283,248.1138674575903 L450.84870283247847,249.44311220284484 L448.94739266974375,250.89518954278017 L446.53456836859687,251.85593650399233 L445.3685237374011,252.20367384949708 L443.54910197112076,252.16272965127013 L442.6696667275137,252.01971329690002 L441.70891976630173,252.12178545304323 L440.21589822813894,252.8582043422797 L439.0504302757927,253.737062907038 L437.57816917616765,255.96592665558842 L437.3123202271172,256.5996967098334 L436.6168455361071,259.56497934762024 L435.41043338553345,260.54648674736995 L433.57025118071533,261.2823289577582 L432.5477995827382,262.3255409942725 L431.4440362671562,263.1842157993415 L429.86912633253996,264.02270684472103 L426.9044203736016,264.65647689896605 L424.24593088309257,264.5538280639746 L423.0804629307454,264.3087395534613 L421.44500171706113,263.5930811027624 L416.63953687445564,262.73440629769345 L414.2474730118456,262.59138994332335 L412.8772840683646,261.91609901200314 L408.8082381149957,260.25987735978146 L407.1929606610006,260.03497260895745 L405.3522017773339,259.5240351493933 L404.18673382498673,258.9104488548376 L403.1850426655478,258.56271150933287 L401.3858046589562,258.2357346023657 L400.1995762680717,257.8678134971716 L398.4614662193958,257.0702666500189 L397.1731656723682,255.72083814507505 L396.66222821280417,254.78027494355223 L396.334674626989,253.737062907038 L395.76260920950835,251.12009429360415 L395.7418487709706,249.85197750626583 L395.31279970786045,249.0134864608862 L393.2061918751424,248.01179530144717 L391.5499702229208,246.80538315087338 L389.137145921773,244.57651940232296 L387.9924384079641,243.758788795481 L386.49941686980173,243.00218614655518 L383.10508516890513,241.9999183082678 L381.9603776550953,241.55010880661985 L381.30584716231306,241.46879708901426 L380.32433976256334,241.91860659066225 L378.70906230856826,241.97973454857845 L377.60472231413814,242.34765565377256 L375.23284221121685,242.8793535518744 L373.2900111714075,243.88162139016174 L371.8794547085472,243.9018051498511 L370.67304255797353,243.39086769028688 L367.9124809113214,242.59332084313417 L364.9270145138453,242.44972780991577 L364.1294676666921,241.79577399598145 L363.5775860089011,241.59105300484683 L361.55344325148553,241.69370183983824 L359.446835418767,241.5299250469305 L358.93589795920343,240.9370991909125 L357.66835785071316,239.87370339470883 L355.8074152073568,239.0761565475561 L354.15119355513525,238.95332395287537 L353.1287419571586,238.64653080559748 L351.0227108032891,237.7267280426123 L350.6749734577843,237.84898395844476 L349.20271235815926,239.13728450547245 L348.1393165619561,239.50578228951474 L344.8470570172017,239.9555917911627 L343.4976285122584,240.0369035087683 L342.6389537071891,239.8119987579443 L340.5381126629536,238.81088427735352 L338.8968846607868,236.99030915337582 L337.8334888645836,236.07050639039065 L336.72972554900116,235.47710385552426 L334.56198975836696,235.1703107082465 L332.7627517517749,234.82315004158994 L330.98369750487245,234.92522219773315 L329.4912526455587,234.27069170495056 L328.4278568493555,233.65768208924317 L327.65049376189154,233.00315159646053 L326.28088149725863,230.69239945145625 L325.033525148458,229.81354088669795 L322.7227730034533,229.54769193764707 L321.68013764578745,229.54769193764707 L320.8825907986352,229.83372464638728 L319.9420275971124,229.85390840607664 L318.4490060589501,229.52693149910954 L317.32448230482987,228.64749625550294 L317.0586333557794,227.46184454346678 L316.98020503241514,225.3638868934729 L318.239671637029,225.24278433533692 L321.2130277786914,224.25954689904233 L324.48395020605994,222.63561926232362 L327.2514319988909,220.1881942302801 L329.2415507042592,218.9298809833624 L330.01891379172275,218.60982422257447 L332.3290892578784,218.03775880509403 L335.41720449034665,216.91727180291196 L336.3087499897665,216.4599654762366 L337.7729375855156,215.38445942421933 L340.01448826872775,215.0644026634314 L342.62165334174097,214.44677961693787 L344.20002334944684,213.98947329026242 L344.9318288078971,213.60079174653077 L347.63126249663264,211.26754912644407 L349.27768060843437,210.92442521172546 L354.9729609139149,210.90193473664306 L356.9630796192828,210.55881082192442 L357.5120778828332,210.3298693191626 L361.0113651341144,208.06525148201962 L363.3901653832145,206.71582297707582 L364.32842186934386,206.4413238453009 L366.57112591025316,206.35309198151612 L368.1022082524005,205.73258554078123 L369.42856960341396,204.1997731620886 L370.6413252213183,202.36997117653868 L371.92212894331897,202.00435678673765 L372.7911839676567,201.4553585231879 L373.34018223120665,200.83773547669432 L373.88918049475615,199.78529657860776 L374.1175453186693,199.0079334911444 L374.84992745596855,198.04718652993222 L376.1307311779683,197.3378715465644 L378.532021902151,196.7202485000708 L379.97314234396845,195.91981825867674 L380.9765635399531,193.71171494866397 L382.88248713347366,194.36047865296388 L385.0554130337423,194.77165067177793 L387.50283806578545,195.86964719887754 L391.13937488295505,197.40245957757014 L392.168746627111,198.54601373368283 L394.22749011542237,200.00962465058348 L396.8346551884356,201.06206354867004 L397.5439701718037,201.08455402375245 L399.69382891814166,200.39888287316347 L404.7945533310599,199.2778191921332 L407.12779595114625,198.95776243134517 L408.9345307827657,198.95776243134517 L411.08438952910365,199.59787595292113 L411.65645494658384,200.12438374138856 L412.64026906172694,201.99974335595152 L413.73768890997826,204.79029230271362 L414.6528782421774,205.95691361275695 L417.9007335156148,208.70132825165774 L419.4791035233211,209.5478928009131 L422.40690203597023,209.91350719071414 L424.4881359993642,209.59345042992612 L425.35719102370194,209.20476888619447 L427.4390016659445,208.90720260048886 L430.2751082417194,208.38127149086972 L433.56852114417006,208.1067723590948 L434.5062009514518,207.78671559830687 L434.82683439108814,206.52840235138916 L435.37583265463763,205.567655390177 L436.5418772858329,203.98986206131957 L437.5256914009756,203.0291151001074 L438.3716792713826,202.38842489968323 L439.2638014496515,200.97037161179566 L439.97311643301873,199.57538547783872 L440.7049218914699,198.68326329957034 L441.71122648169467,198.2259569728949 L442.8092230087941,198.0425730991461 L444.54733305747004,198.0656402530768 L446.9036428314871,197.92839068718928 L448.3672537483876,197.49357483559635 L450.014248539037,196.78483653107668 L453.14792140051804,196.21277111359615 L454.01697642485533,195.9157815067389 L456.12127754218045,194.2232290870764 L457.9280123737999,193.21634781800293 L459.78088151327984,192.5987247715094 L461.0391947601979,192.0272360328772 L461.5189915619558,191.61548733521488 L463.73805177008626,190.15187641831426 L465.6134113846492,188.77938075943965 L466.4599759339044,187.75000901528375 L468.1525283535666,186.9720692489722 L468.6553923092547,187.0182035568335 L470.6685781685537,186.72063727112788 L470.98863492934197,186.28582141953495 L471.35482599799116,185.07364248047855 L471.4920755638782,183.4041572147467 L471.81213232466644,182.0085944019415 L471.44594125601725,179.08137256814024 L470.54343885847993,177.0232057586768 z"/>
	<path id="erzincan-merkez" title="Merkez" class="district" d="M316.98020503241514,225.3638868934729 L317.0586333557794,227.46184454346678 L317.32448230482987,228.64749625550294 L318.4490060589501,229.52693149910954 L319.9420275971124,229.85390840607664 L320.8825907986352,229.83372464638728 L321.68013764578745,229.54769193764707 L322.7227730034533,229.54769193764707 L325.033525148458,229.81354088669795 L326.28088149725863,230.69239945145625 L327.65049376189154,233.00315159646053 L328.4278568493555,233.65768208924317 L329.4912526455587,234.27069170495056 L330.98369750487245,234.92522219773315 L332.7627517517749,234.82315004158994 L334.56198975836696,235.1703107082465 L336.72972554900116,235.47710385552426 L337.8334888645836,236.07050639039065 L338.8968846607868,236.99030915337582 L340.5381126629536,238.81088427735352 L338.1967965389913,243.24496794167544 L337.6685587139791,244.6537943679907 L337.4926716652576,245.93632812653564 L337.31620793768843,248.82894922944092 L336.8635150417995,250.13628017846128 L336.15939016806533,251.46956167565367 L335.30417543608564,252.50066345635435 L334.60005056235286,252.82764036332154 L333.1416297550859,253.05427515069027 L331.88389318701684,253.73302615510005 L331.4058264218038,255.015559913645 L331.481371350927,258.38624778176325 L331.7080061382958,259.19071477509516 L331.7581771980949,260.75005438080814 L331.3556553620051,261.6052691127874 L330.5759855591482,262.30939398652106 L328.765213975591,263.46621175614376 L327.02998732115657,265.4280731979468 L326.5017494961444,266.4845488479712 L325.9169971440024,268.7030323772528 L326.86736388594545,269.2445338157752 L327.9947710343072,268.6920754791358 L329.1106446057029,268.6228740173438 L330.031024047536,269.2791345466712 L331.72184643065384,270.00344318009394 L333.1370163243005,270.8782649929144 L335.36876346709187,271.2461860981085 L336.22051812598147,272.3505260925391 L337.1749216198632,272.5114194912054 L337.93440766303047,273.06387782784486 L338.4522652687738,273.70802810135865 L338.9701228745166,273.93812296181704 L339.8559015854544,273.62729306260127 L343.53684267394055,273.8118302940467 L344.2046367802327,273.73109525528923 L344.79111916892,273.2017040725806 L345.59616284110007,273.01774351998347 L346.6797423969929,272.43472120438605 L348.21370813338217,272.5269898201086 L349.30305447775754,272.3124652885534 L351.8335212639513,272.63425208588626 L353.7054208054251,273.50849721985844 L354.6869282051748,273.57020185662293 L356.5888150467581,273.09444180680293 L357.58589277541114,273.1867104225256 L358.0310888462727,273.87699500390073 L358.95146828810675,274.6439778720954 L360.5621323113146,274.8429320747473 L361.30028123709644,276.31576985322016 L362.3815540775963,277.38550911675475 L363.3365342503257,278.7545447025397 L365.36125368658986,279.6287898365118 L365.9379325348564,279.64378348656675 L366.9188632557575,280.1201202152349 L366.4159993000694,280.66911847878475 L365.8208667286581,282.33918042336484 L364.99736933333315,284.2376071918585 L364.5400630066579,285.5184109138587 L364.1058238339133,287.3251457454779 L364.1969390919394,288.72070855828304 L364.3803229656878,289.2921972969153 L364.49450537764505,290.98474971657777 L364.44894774863224,292.60867735329646 L364.92874455038964,295.0105447563269 L365.5925019047445,296.26828132439636 L365.98118344847626,297.48103694230105 L366.02674107748953,299.26470461998963 L365.47774281393913,301.00339134751346 L364.7234468804072,301.8955135257819 L362.89306821600894,303.3591244426825 L361.47501492812125,303.4963740085699 L357.54091182524644,303.4963740085699 L356.80910636679573,303.56499879151363 L355.94005134245845,303.9536803352454 L354.8876124443718,304.9830520794012 L354.0416245739648,306.1727405433752 L353.35537674452735,306.9270364769079 L350.8162597756095,308.4598488556006 L348.04877798277766,309.9695940803625 L344.6636731434528,311.36458021431946 L343.4970518334094,312.3483943294623 L342.65106396300234,313.2174493538 L340.9354443894099,314.4065611389258 L339.72326545035276,315.0697418144324 L335.0798473641107,316.80842854195623 L330.8712451294605,319.07246970025085 L328.6296944462483,320.1018414444068 L327.96651377074204,320.3077157932379 L326.2970285050101,320.2621581642249 L324.558341777486,320.44496535912543 L321.218794567174,321.58851951523803 L319.6410012383167,322.48064169350647 L317.9253816647233,322.3664592815496 L314.7686416493125,322.34339212761904 L313.83096184203123,322.1605849327185 L312.115918947286,321.5198947322943 L310.3316745907491,320.5597244499304 L309.59986913229886,319.6214679638006 L308.730237429113,317.44854206353205 L308.43324782225545,316.2594302784064 L308.31906541029866,314.7727522075751 L307.7700671467487,313.3546989196875 L307.5641927979177,310.5180156650641 L307.83869192969223,308.29953213578244 L307.8611824047748,306.8584116939642 L307.0838193173113,305.41786793099425 L306.1916971390433,304.84580251351383 L305.29957496077486,304.47961144486453 L304.47607756544994,304.43405381585137 L303.1722066895195,304.93749445038816 L301.80028770949275,305.1203016452887 L298.25486615035015,306.60697971612 L296.1730555081076,307.13291082573915 L295.0070108769123,307.2476699165443 L293.4517080231376,307.6132843063452 L291.95118965994743,307.718816535578 L291.2949291306204,304.785827913294 L290.8681867829032,303.8406512809851 L289.98356142966213,302.8037827118018 L288.9161288815203,301.9191573585608 L288.09263148619584,301.43128705292725 L286.7506998062795,300.8517248104192 L285.8055231739704,300.2721625679113 L283.9145932305041,298.16786145058666 L282.54209757163017,296.9481856865027 L281.0784866547292,295.3623188537695 L279.9193621697136,293.37969697342896 L279.5843117588702,292.55677625695256 L279.2792486481376,290.72697427140264 L279.1264287533468,288.31761004334476 L277.8150610523885,285.7254386203864 L277.22050515982573,284.4059974155524 L276.35145013548845,283.1482608474829 L275.96276859175623,281.88994760056516 L276.1911334156698,280.3121542717078 L276.5117668553062,279.35140731049563 L276.90044839903794,278.75685141793275 L278.63855844771297,276.6294831466772 L280.8801091309251,274.433490092478 L281.56635696036255,273.54136791420956 L281.6805393723198,272.5581304779151 L281.4291073944755,271.8263250194647 L280.2169284554193,270.2710221656897 L278.59300081870015,269.31027520447753 L277.12881322295107,268.64709452897097 L276.1911334156698,268.4181530262092 L274.2471490181633,268.2353458313086 L272.2114726837817,268.2809034603216 L270.0385467835131,268.7843440948584 L267.7053041634267,268.73820978699706 L264.25157454115833,268.0519619575598 L263.26833710486335,267.77746282578494 L261.9644662289329,267.15983977929136 L260.5919705700585,266.33691906281496 L259.677357916707,265.33003779374144 L258.6018518646906,263.6836196819403 L257.36718245055135,262.242499240122 L254.53049919592831,260.252380534754 L251.12290388152087,258.7426353099921 L250.04739782950355,257.942205068598 L246.22805381743365,255.81541347619083 L244.26100226599647,255.12916564675356 L243.04882332694024,254.60265785828614 L239.18276832816036,253.52772848511717 L235.3859147911735,251.78961843644163 L233.7619871544548,251.53818645859738 L230.60582381789118,251.49205215073607 L227.79220771719883,251.14892823601747 L226.37415442931115,250.27987321167967 L225.9624057316487,249.70838447304743 L225.32229221007265,248.28975450631162 L223.74392220236723,245.75121421624203 L222.02830262877387,243.50966353302974 L221.75380349699935,242.96066526948 L220.31268305518097,241.29118000374814 L219.80981909949242,240.1701163227179 L219.6039447506614,239.3466189273932 L218.68875541846228,237.47125931283017 L218.0941995258995,236.62469476357478 L216.79032864996861,235.09245906373047 L214.3890379257864,233.81165534173033 L211.64404660803712,232.50778446579955 L210.0656766003317,231.40978793869996 L207.82412591711955,228.73399808274291 L206.0629487145129,225.16550936966917 L204.46208823172492,223.0612082523444 L203.68414846541373,222.55834429665586 L206.20019828040085,221.41421346169494 L207.321261961431,220.63685037423159 L209.51725501563033,217.68598470765136 L209.74561983954345,217.16005359803222 L210.68329964682516,213.91219832459473 L211.3262965626427,210.57034439888974 L211.44105565344807,208.67191763039608 L211.8066700432487,206.88767327385924 L212.37873546072933,205.99555109559086 L213.5453567707723,205.26374563714052 L214.73446855589827,204.94368887635255 L216.97601923911043,204.89755456849116 L218.89751316153433,204.23437389298462 L220.06413447157774,204.1426819561102 L222.94579867636594,203.57119321747805 L224.5835666054436,202.65658056412718 L225.71904725768036,202.9189694400885 L228.37234663855497,203.10177663498902 L230.81977167059813,203.62828442345645 L232.53481456534337,204.1772826870062 L236.46891766821773,204.61152185975095 L239.78539772459908,204.88602099152587 L242.91907058608012,205.80121032372494 L245.06950601126618,206.6933325019934 L250.07853848730974,208.56869211655638 L255.63656922690325,209.59806386071224 L256.59731618811566,209.66668864365596 L262.26952933966595,210.78717564583803 L264.0537736962028,211.221991497431 L265.9066428356832,211.97686410981203 L269.29174767500854,213.69190700455687 L272.1964790337274,215.0644026634314 L274.6439040657706,215.77371764679935 L276.74820518309525,216.2079568195441 L280.65924113203937,217.19177093468687 L283.1983581009572,217.7407691982367 L283.8846059303946,217.96913402215023 L284.7081033257191,218.63289137650509 L285.94277273985836,219.8450703155615 L286.6976453522393,220.1651270763495 L287.90982429129554,220.34793427125 L290.3116916943259,220.34793427125 L291.7528121361438,220.0965022934058 L293.7198636875819,219.54750402985596 L295.6869152390191,218.79263141747498 L297.4936500706385,217.672144415293 L299.3695863640496,217.3976452835181 L300.4900733662316,217.4662700664618 L301.81701139609277,217.8318844562628 L305.1334914524741,218.99850576630612 L306.5740352154439,219.38776398888615 L307.39753261076885,220.0509446643927 L308.8386530525868,220.96555731774356 L311.9953930679985,222.81842645722412 L313.8938198364922,224.25954689904233 L315.40298838240597,225.0369099865057 L316.98020503241514,225.3638868934729 z"/>
	<path id="erzincan-kemah" title="Kemah" class="district" d="M141.40802296225502,340.27983434525515 L141.7073192845055,338.24473468972224 L141.82150169646184,335.7286848747351 L141.20387864996837,335.01994657021544 L139.74026773306832,334.58513071862245 L137.10945882727538,332.8470206699469 L136.35516289374254,332.5263872303107 L134.7992833611197,331.5887074230292 L132.99254852950025,331.2230930332282 L131.04856413199377,331.20002587929747 L129.33294455840087,330.69658524476074 L127.80070885855594,329.98784694024107 L125.81059015318806,328.75260084725403 L124.64396884314465,328.13497780076057 L122.81416685759496,326.8997317077734 L120.64124095732632,325.5733703567602 L116.70713785445196,323.33181967354795 L115.9753323960008,322.57694706116695 L115.38077650343848,321.52450816308044 L114.83177823988899,320.2212139659979 L114.64839436613966,318.3452776725867 L113.66515692984512,316.21848608017945 L113.07060103728236,315.211604811106 L111.97260451018292,313.6563019573309 L111.42360624663343,312.28438297730463 L110.89767513701372,311.64369277688047 L109.89079386794037,310.98051210137385 L109.29623797537761,311.00300257645625 L108.77030686575836,310.5226290958502 L107.74093512160289,309.9742075111487 L106.7346305313772,309.9742075111487 L105.81944119917807,310.271197118006 L104.76757897993957,310.31733142586734 L103.60095766989616,310.70601296959904 L102.96084414832012,310.65987866173765 L101.93147240416465,310.13394755211846 L101.24522457472767,309.9966979862311 L100.62760152823375,310.18008185997996 L99.36928828131613,310.15701470604915 L98.04292693030266,310.3398219009497 L96.55624885947145,310.79712822762514 L94.88618691489182,310.8657530105688 L93.5828927178095,310.271197118006 L93.07945208327237,309.7452660083868 L92.96526967131558,308.85314383011837 L92.64463623167967,308.2816550914862 L91.79864836127263,307.8468392398932 L89.83159680983454,307.6865225200751 L89.30566570021574,307.0919666275122 L90.15165357062278,304.3014176807501 L90.92959333693443,302.4485485412696 L91.79864836127263,301.46531110497506 L93.42257599799086,300.0241906631568 L95.11512841765307,298.37719587250734 L96.62487364241497,297.4625832191565 L98.13461886717778,296.18177949715636 L99.04923152052834,294.60340948945066 L99.27817302329004,292.1329173034766 L99.18648108641537,288.29050613747626 L99.02616436659764,287.37531680527707 L98.11155171324708,285.59164912758854 L97.47086151282247,284.74508457833315 L94.49750537116006,279.53017775345825 L93.46813362700414,278.0665668365576 L92.85051058051022,277.0141279384711 L92.75939532248412,275.98475619431514 L92.85051058051022,274.5211452774145 L92.2790218418786,272.02816261635803 L91.2952077267355,270.08360154000303 L90.88345902907304,268.66554825211546 L90.83790140006022,267.49892694207216 L91.22658294379198,266.62987191773436 L92.16483942992181,266.03531602517154 L92.46182903677936,265.5549425445654 L93.6740079758356,265.0059442810157 L94.61168778311685,264.84562756119755 L97.08217996909116,264.20551403962156 L97.58562060362738,263.83932297097226 L98.68361713072727,261.1404659610846 L98.98060673758437,260.61453485146546 L101.08490785490903,257.93816831666015 L101.92109218489577,256.3136640010932 L103.87026669203715,256.78423394127867 L106.35748256461102,257.90414426461246 L107.2317276985832,258.10598186150577 L110.52571727988197,257.8822304683782 L112.63174843375145,258.01659664002443 L113.43852214247636,258.2178575580694 L116.35132700507074,259.6745483287908 L117.47181400725276,260.54821678391477 L118.68168623091651,262.0723789798834 L120.22833890196762,262.9460474350073 L121.1244978321738,263.30474167862917 L123.7460798763941,263.70784019356756 L126.3226809704488,264.7608557705023 L127.04006945769243,264.8283271957495 L130.15471191718007,264.6939610241034 L132.1488673744866,264.17841013375306 L134.81543036887115,263.30474167862917 L136.36150636107413,262.60984366646784 L138.6468846367543,261.19813384591123 L140.4622696510978,259.6970388038733 L142.4564251084039,257.6129214462378 L142.8151193520257,257.0754567596533 L143.98001062552385,255.9774602325537 L145.6829432644554,255.08072462349912 L146.64657361990885,254.8569732303717 L148.2151400871935,255.10321509858153 L149.38060803954068,255.0138298771002 L150.05243889777148,254.74509753380795 L151.9796996086784,253.42277293473268 L153.61573750121033,252.7728558727362 L155.47552678686998,251.4955122238257 L157.13347847563682,250.5543723434546 L158.4108221245474,249.03078682633424 L160.06877381331378,247.43972988396663 L162.53349921080553,245.46806490174316 L163.31778244444786,244.99749496155763 L166.14120208556096,243.7876227378943 L167.70976855284653,242.91337760392213 L170.62315009428903,240.69547075348873 L173.71530207869455,238.63384387093572 L174.83578908087657,237.67021351548217 L175.66447658583547,236.05666609803217 L175.66447658583547,234.42120488434813 L175.39574424254351,232.89761936722778 L174.88019335219315,232.0008837581732 L173.08787549178078,230.63415488778136 L172.48293937994913,229.60362978592892 L172.32608273322057,228.10195806504274 L171.87800326811748,227.25078008500125 L171.07122955939258,226.4440063762762 L170.37633154723153,225.41348127442382 L170.3988220223132,224.8979303840735 L171.16061478087386,224.40486996880549 L172.6842002979938,224.0911566753485 L173.0653850166982,223.86682860337277 L174.18587201888022,222.34324308625247 L175.17141617056814,221.87267314606686 L177.72610346838928,221.62643127785708 L181.64751963660183,221.94014457131408 L185.77019672285996,221.89516362114927 L187.60807221228515,222.25385786477113 L188.88541586119572,222.09700121804258 L189.80406526648449,221.73830697442082 L193.2993157658284,221.33520845948243 L194.307927071447,221.13337086258912 L196.4139582253165,221.40210320588136 L198.16187181441228,222.00703931771307 L200.04415157515496,222.07451074296017 L202.97944691283192,222.34324308625247 L203.68414846541373,222.55834429665586 L204.46208823172492,223.0612082523444 L206.0629487145129,225.16550936966917 L207.82412591711955,228.73399808274291 L210.0656766003317,231.40978793869996 L211.64404660803712,232.50778446579955 L214.3890379257864,233.81165534173033 L216.79032864996861,235.09245906373047 L218.0941995258995,236.62469476357478 L218.68875541846228,237.47125931283017 L219.6039447506614,239.3466189273932 L219.80981909949242,240.1701163227179 L220.31268305518097,241.29118000374814 L221.75380349699935,242.96066526948 L222.02830262877387,243.50966353302974 L223.74392220236723,245.75121421624203 L225.32229221007265,248.28975450631162 L225.9624057316487,249.70838447304743 L226.37415442931115,250.27987321167967 L227.79220771719883,251.14892823601747 L230.60582381789118,251.49205215073607 L233.7619871544548,251.53818645859738 L235.3859147911735,251.78961843644163 L239.18276832816036,253.52772848511717 L243.04882332694024,254.60265785828614 L244.26100226599647,255.12916564675356 L246.22805381743365,255.81541347619083 L250.04739782950355,257.942205068598 L251.12290388152087,258.7426353099921 L254.53049919592831,260.252380534754 L257.36718245055135,262.242499240122 L258.6018518646906,263.6836196819403 L259.677357916707,265.33003779374144 L260.5919705700585,266.33691906281496 L261.9644662289329,267.15983977929136 L263.26833710486335,267.77746282578494 L264.25157454115833,268.0519619575598 L267.7053041634267,268.73820978699706 L270.0385467835131,268.7843440948584 L272.2114726837817,268.2809034603216 L274.2471490181633,268.2353458313086 L276.1911334156698,268.4181530262092 L277.12881322295107,268.64709452897097 L278.59300081870015,269.31027520447753 L280.2169284554193,270.2710221656897 L281.4291073944755,271.8263250194647 L281.6805393723198,272.5581304779151 L281.56635696036255,273.54136791420956 L280.8801091309251,274.433490092478 L278.63855844771297,276.6294831466772 L276.90044839903794,278.75685141793275 L276.5117668553062,279.35140731049563 L276.1911334156698,280.3121542717078 L275.96276859175623,281.88994760056516 L276.35145013548845,283.1482608474829 L277.22050515982573,284.4059974155524 L277.8150610523885,285.7254386203864 L279.1264287533468,288.31761004334476 L279.2792486481376,290.72697427140264 L279.5843117588702,292.55677625695256 L279.9193621697136,293.37969697342896 L281.0784866547292,295.3623188537695 L282.54209757163017,296.9481856865027 L283.9145932305041,298.16786145058666 L285.8055231739704,300.2721625679113 L286.7506998062795,300.8517248104192 L288.09263148619584,301.43128705292725 L288.9161288815203,301.9191573585608 L289.98356142966213,302.8037827118018 L290.8681867829032,303.8406512809851 L291.2949291306204,304.785827913294 L291.95118965994743,307.718816535578 L289.92877693907667,308.41371454773923 L288.44209886824547,309.0313375942328 L286.04080814406325,309.4661534458258 L284.7824948971461,309.85483498955745 L283.0899424774834,309.7637197315313 L280.04796155287704,309.32890387993837 L278.94996502577715,309.351971033869 L276.25110801588926,309.992084555445 L274.46686365935284,310.8155819507696 L272.8884936516474,311.7307712829688 L271.10482597395867,312.46257674141907 L268.52015137602757,312.48564389534977 L264.8830378800103,314.08650437813776 L263.53360937506613,314.9324922485449 L261.3381929997149,315.91630636368774 L259.53088148924735,316.3511222152807 L257.31239795996635,317.0143028907874 L255.36841356245986,318.0892322639563 L253.81311070868423,318.112299417887 L250.38187156149797,319.07246970025085 L249.48974938323,319.1641616371252 L247.1795739170734,318.47791380768797 L245.8301454121297,317.63192593728087 L245.4183967144677,316.9912357368567 L244.89246560484798,315.6418072319128 L244.38902497031177,315.3217504711249 L242.35334863593016,315.2069913803198 L240.63830574118583,314.1320620071509 L239.12856051642393,313.6061308975317 L238.09918877226755,313.51443896065734 L235.78901330611188,313.7203133094886 L234.0278361035057,314.2006867900946 L233.06708914229375,314.58994501267455 L232.10634218108135,315.2756161632636 L231.03141280791215,315.61874007798224 L226.91450251013703,315.7104320148565 L223.8263872776697,315.93937351761844 L222.7514579045005,315.89323920975704 L220.7388487240496,315.4814905120947 L218.42867325789393,314.5213202297308 L217.78798305746977,314.1781963150122 L216.48411218153888,313.9261876583197 L214.65431019598918,314.0409467491248 L212.5961433865259,314.58994501267455 L210.4918422692008,315.5276248199561 L208.66204028365064,315.96186399270084 L205.5514345761003,316.3511222152807 L202.46331934363297,316.80842854195623 L200.90801648985826,317.26573486863157 L197.95715082327797,318.7299224643805 L196.69941425520847,319.6445351177313 L194.961304206533,321.3140203834632 L192.67361921545944,324.60800996476195 L191.69038177916445,325.408440206156 L190.15756940047186,326.8951182769873 L187.71014436842825,328.908304136286 L185.62891040503473,330.89784616280576 L184.69123059775256,333.1169063709357 L184.34810668303408,333.71146226349856 L182.95254387022942,335.2898322712042 L181.58062489020267,336.3872521194556 L179.56743903090455,337.25688382264156 L178.3783272457781,338.3087460418799 L176.70826530119848,340.8478630107977 L176.70826530119848,341.83110044709235 L175.65640308195998,343.4780952377416 L173.6893515305228,344.96477330857294 L172.3854806545919,345.3534548523047 L170.23562190825442,346.1769522476294 L168.52000233466106,347.1607663627723 L167.65094731032332,347.89257182122253 L164.63145686079906,349.2420003261664 L162.84778918311076,349.5395666118719 L159.27930047003701,349.67681617775935 L157.26669128958656,349.3336922630407 L153.67571210143024,348.18956142807986 L152.23459165961185,347.595005535517 L150.81653837172416,346.42838422547356 L149.6729842156119,345.2162052864172 L147.248626337499,343.3864033008673 L145.8986211537067,342.51734827652956 L144.4350102368062,341.1909869255164 L142.53658346831253,340.5272295711615 L141.40802296225502,340.27983434525515 z"/>
	<path id="erzincan-kemaliye" title="Kemaliye" class="district" d="M166.51892673117618,368.6155262336829 L165.91283726164784,369.59876366997736 L164.49420729491158,370.71982735100767 L163.32816266371674,371.81724719925904 L162.29879091956082,373.8073659046271 L161.4983606781666,374.49361373406435 L160.46898893401067,375.0195448436835 L158.91368608023595,375.36266875840215 L157.38087370154335,376.3689733486273 L156.9691250038809,377.10135548592586 L155.9212995365806,377.97502394104976 L153.9502112332052,378.9080903175451 L153.03502190100608,379.06840703736333 L150.63373117682386,378.7708407516577 L149.12398595206196,379.25121423226386 L148.41467096869428,379.18258944932006 L147.3166744415944,378.2674001171209 L146.21925459334307,378.01596813927677 L144.29776067091916,378.06152576828975 L142.90277453696172,378.4046496830084 L141.36996215826957,378.51940877381344 L139.70047689253715,378.17628485909484 L138.03041494795752,378.1532177051642 L135.19430837218215,378.31353442498227 L130.57395743987036,378.31353442498227 L127.41779410330764,378.5418992488959 L124.23856361281332,378.99978225441953 L123.78183396498616,379.2275703994849 L121.5864175896354,379.60241165085813 L119.14302930952954,380.6392802200415 L118.61421480566923,381.6132907947638 L118.7139802464194,382.73147108155274 L120.12396003043114,383.49499387665765 L121.21215301710981,383.80640045472165 L121.61871160513829,384.4632376628973 L121.82919938475561,385.8795609142401 L121.54028328177401,386.768223019419 L119.47231293188952,391.6953670990088 L118.75492444464635,392.6849480026343 L117.98102143027245,393.23855969697024 L116.30000258757536,394.0061192440131 L113.12826892210887,394.9207318973639 L111.3930422676749,395.26731588517214 L111.91378326765926,396.0146916725256 L112.12715444151809,396.82031202355415 L112.30765492102546,400.1817730301001 L112.53082963530505,400.73134797249816 L114.43213979804023,402.2064924663641 L114.84734856879231,403.1660860698797 L114.73085944144213,404.08992558480287 L114.27874322440084,405.7755578582861 L113.9177422653861,408.2056825248816 L113.95695642706823,410.53488839303037 L114.76892024542713,414.5612601116278 L115.24814036833732,418.50170668183347 L115.97994582678712,420.69481634179135 L116.3011559452716,421.0281367160894 L121.87821708685851,425.42877300721193 L123.25186610342917,426.68362618104004 L116.59699219443246,425.5273850902655 L111.44552004286697,424.9564730304816 L107.93700593001313,424.50781688653024 L106.87649352805101,424.0568540271857 L104.61072233321147,422.8798524978735 L102.30458361899309,421.4122048290351 L101.34037658469151,420.5368063373664 L100.23718994795763,419.00687735291507 L97.67212243086715,416.4677603839972 L95.8953748993581,415.0843078270056 L92.8458971497248,414.15412484475155 L92.14984577986661,413.5486120540716 L90.55244537016779,411.1628916587928 L89.64705957838987,409.45476891022713 L88.39220640456142,407.9900046356299 L83.53022703482611,403.12052844086674 L81.93340330397541,401.85068161698365 L80.3717569828691,401.24747554169676 L79.40985666396091,401.0658217044928 L77.09910451895621,401.0623616314032 L74.4267747360891,400.97412976761836 L70.97362179266884,400.7048207454779 L70.17492158781943,400.49029621392276 L66.20275768095871,398.4823004642584 L65.45768860899852,397.89581807557124 L64.33777828566463,396.22402609444646 L63.964667070836185,395.03664434586545 L63.41624548613481,394.12722180214905 L62.491252613514924,393.20395896607425 L59.902541263646526,391.4358616172888 L57.34785396582538,390.78363783989926 L56.29772178313215,390.6331246605017 L54.57748877875247,390.81362514000915 L52.28288364150012,391.3424396438696 L49.3077974632929,392.25416890297913 L47.601981430119395,392.8729453071692 L42.46607960745769,395.0268408054449 L41.205459645146675,395.63523699036625 L37.88436615797946,398.02211074334167 L36.2777388867089,398.85137492714904 L34.91850684134397,399.30464450188657 L33.648083338613105,399.4926418064215 L28.21749862448678,399.9303410522559 L25.36755175635244,400.0012725505926 L24.459282570333016,399.84441590386416 L20.84004611861201,398.67145112648984 L19.106549500722394,397.8398802272894 L18.099668231649048,397.1657426536658 L14.76473445212332,394.6087486404516 L14.265907248372514,394.03552986527467 L13.004710607213383,393.2968042606451 L11.550326551885064,392.7126285873511 L11.132234386891923,392.1053857601264 L10.422919403523792,390.253093299494 L10.377361774510973,389.33790396729495 L10.56016896941128,388.4232913139441 L10.971917667073285,387.87429305039433 L12.321346172017456,387.2336028499701 L13.305160287160561,386.5473550205328 L13.831091396779357,385.56411758423826 L13.670774676961628,382.93388535729434 L13.716908984822567,382.4535118766882 L14.609031163091004,381.3555153495886 L15.1349622727098,379.89132775383973 L15.752585319203718,377.2610955268959 L16.164334016866633,376.2547909366705 L16.9878314121911,375.4082263874151 L19.50388122717777,373.62455870972656 L20.30431146857245,372.8466189434149 L20.830242578191246,371.97756391907717 L22.820361283559123,368.15764322815915 L23.18597567336019,366.3278412426092 L22.477237368840633,362.8285539913275 L22.01935436331678,361.79918224717164 L21.196433646840433,360.4728208961584 L20.120927594823115,357.5675128585913 L20.120927594823115,354.9828382606604 L19.869495616978842,353.405044931803 L17.330955326909134,348.18956142807986 L17.010321887272767,347.20632399178527 L16.04957492606127,345.9485874237158 L15.340836621541257,344.64471654778504 L15.363903775471954,344.02709350129146 L16.43883314864115,342.8835393451788 L17.765194499654626,342.15115720788026 L18.382817546147635,341.4654860572913 L19.41218929030356,340.9620454227546 L20.990559298008975,340.4130471592047 L22.522794997853453,339.269493003092 L24.444288920278268,337.25688382264156 L25.427526356572344,335.47263946610474 L26.433830946798025,334.3746429390051 L27.669077039784952,333.80257752152465 L29.86507009398383,332.52177379952457 L31.512064884633674,331.7669011871435 L33.57023169409695,330.6919718139746 L34.41679624335211,329.4797928749182 L37.48703443152408,331.19022233887694 L39.81970037276233,332.8372171295264 L40.84907211691825,333.9121465026953 L42.35881734168015,334.5072790741064 L45.469423049230045,335.2615750076392 L46.70466914221697,335.39882457352655 L50.91327137686676,336.74882975731873 L52.74307336241691,337.1830689300634 L54.13863617522156,337.365876124964 L56.79135887724806,337.3203184959509 L57.8893554043475,337.4806352157691 L59.7422245438288,338.07519110833186 L61.93821759802813,339.42461961327575 L64.36257547614059,340.65986570626285 L66.71830857130954,341.59754551354433 L68.66286964766414,342.0779189941505 L71.4072842865653,342.48966769181277 L72.68808800856505,342.58135962868715 L77.23981415793332,342.39797575493833 L81.10529247786462,341.59754551354433 L81.97434750220236,341.32304638176936 L86.640832742376,340.49954898644467 L87.80687737357084,340.4770585113623 L88.95100820853168,340.6829328601935 L90.18567762267048,341.09410487900755 L93.15961044318146,342.421042908869 L94.348722228307,343.1297812133887 L99.24357229239422,345.7605901191809 L101.85131404425601,346.1262045089819 L104.20704713942496,346.7438275554755 L106.42553066870641,347.65901688767457 L108.3925822201436,348.7339462608435 L111.04588160101821,350.38094105149287 L112.92124121558118,351.6386776195624 L114.72855272604875,353.65128680001277 L115.9862892941187,354.3836689373114 L117.74746649672443,354.58954328614254 L119.18858693854281,354.86404241791746 L120.5155249684044,354.8409752639868 L122.57369177786768,354.4747841953375 L124.10650415656073,354.4747841953375 L125.04418396384199,354.68065854416864 L126.73673638350465,355.27579111557975 L127.58272425391169,355.6869631343939 L128.0861648884479,355.6869631343939 L129.5272853302663,355.27579111557975 L130.21468651739997,354.72679285203003 L132.51851851622496,356.3328434444525 L133.43313116957643,356.7440154632666 L134.4625029137319,356.8587745540716 L137.59617577521294,356.69845783425353 L139.86021693350767,356.8587745540716 L144.2522030419059,357.8881462982275 L145.62412202193173,358.16264543000244 L147.1113767716115,358.9169413635351 L148.369113339681,360.03800504456535 L149.39848508383741,360.67811856614134 L150.9768550915428,361.22711682969117 L152.669407511205,361.5933078983404 L156.6490682430931,361.68499983521485 L160.67486328284213,361.45605833245304 L162.29879091956082,361.7305574642279 L164.059968122167,362.8510444664099 L164.79177358061725,363.65205138665215 L165.3177046902365,365.0925951496222 L166.30151880537915,366.5567827453711 L166.6902003491109,367.47139539872194 L166.51892673117618,368.6155262336829 z"/>
	<path id="erzincan-otlukbeli" title="Otlukbeli" class="district" d="M470.54343885847993,177.0232057586768 L471.44594125601725,179.08137256814024 L471.81213232466644,182.0085944019415 L471.4920755638782,183.4041572147467 L471.35482599799116,185.07364248047855 L470.98863492934197,186.28582141953495 L470.6685781685537,186.72063727112788 L468.6553923092547,187.0182035568335 L468.1525283535666,186.9720692489722 L466.4599759339044,187.75000901528375 L465.6134113846492,188.77938075943965 L463.73805177008626,190.15187641831426 L461.5189915619558,191.61548733521488 L461.0391947601979,192.0272360328772 L459.78088151327984,192.5987247715094 L457.9280123737999,193.21634781800293 L456.12127754218045,194.2232290870764 L454.01697642485533,195.9157815067389 L453.14792140051804,196.21277111359615 L450.014248539037,196.78483653107668 L448.3672537483876,197.49357483559635 L446.9036428314871,197.92839068718928 L444.54733305747004,198.0656402530768 L442.8092230087941,198.0425730991461 L441.71122648169467,198.2259569728949 L440.7049218914699,198.68326329957034 L439.97311643301873,199.57538547783872 L439.2638014496515,200.97037161179566 L438.3716792713826,202.38842489968323 L437.5256914009756,203.0291151001074 L436.5418772858329,203.98986206131957 L435.37583265463763,205.567655390177 L434.82683439108814,206.52840235138916 L434.5062009514518,207.78671559830687 L433.56852114417006,208.1067723590948 L430.2751082417194,208.38127149086972 L427.4390016659445,208.90720260048886 L425.35719102370194,209.20476888619447 L424.4881359993642,209.59345042992612 L422.40690203597023,209.91350719071414 L419.4791035233211,209.5478928009131 L417.9007335156148,208.70132825165774 L414.6528782421774,205.95691361275695 L413.73768890997826,204.79029230271362 L412.64026906172694,201.99974335595152 L411.65645494658384,200.12438374138856 L411.08438952910365,199.59787595292113 L408.9345307827657,198.95776243134517 L407.12779595114625,198.95776243134517 L404.7945533310599,199.2778191921332 L399.69382891814166,200.39888287316347 L397.5439701718037,201.08455402375245 L396.8346551884356,201.06206354867004 L394.22749011542237,200.00962465058348 L392.168746627111,198.54601373368283 L391.13937488295505,197.40245957757014 L387.50283806578545,195.86964719887754 L385.0554130337423,194.77165067177793 L382.88248713347366,194.36047865296388 L380.9765635399531,193.71171494866397 L381.5515123516748,192.8092125511267 L383.655813468999,191.4597840461829 L385.3028082596488,189.72167399750734 L386.3091128498736,189.01235901413938 L386.94922637144964,188.76092703629516 L388.8020955109305,188.55505268746396 L391.2725876969048,188.1433039898016 L392.00439315535505,187.800180075083 L395.20669079977915,185.4669374549963 L397.58549104887925,183.47739542847654 L398.385921290273,182.67638850823425 L399.25497631461076,180.84658652268433 L399.9181569901175,179.70303236657165 L400.76472153937266,179.0629188449957 L403.76114483496576,178.0104799469092 L404.85856468321754,177.80460559807798 L406.68894334761535,176.9586177276709 L407.9922375446977,176.04342839547184 L408.5187453331655,175.4258053489783 L409.5475403984733,174.80818230248474 L410.1196058159535,174.12193447304747 L410.50828735968526,173.13869703675292 L410.8277674416249,172.80249326821348 L411.4921014748279,172.40689157830263 L413.75614263312264,171.81175900689152 L418.71961748015383,170.78296394158383 L424.64383928839607,169.0904115219214 L425.62765340353917,168.74728760720276 L427.45745538908886,168.44972132149724 L428.3951351963701,168.93009480210327 L430.2474276570033,171.46863509217286 L430.9111850113577,172.01763335572264 L433.9531659359636,173.184254665766 L437.2465788384143,174.2366935638525 L438.4818249314012,174.78569182740233 L439.55675430457086,175.01405665131597 L441.63856494681295,175.03712380524658 L443.4452997784324,175.31162293702147 L445.8241000275325,176.8669257907965 L447.69945964209546,178.0104799469092 L448.24845790564495,178.60503583947207 L449.23227202078806,180.00059865227723 L449.82682791335037,180.50346260796573 L451.79387946478755,181.09859517937684 L452.93743362090026,180.84658652268433 L454.01236299406946,180.04615628129028 L454.69861082350644,179.77165714951536 L458.83858827521317,178.69672777634645 L459.68515282446833,178.78841971322083 L464.4883109516809,178.85704449616458 L466.29504578330034,178.65117014733335 L467.7361662251178,178.30804623261474 L470.54343885847993,177.0232057586768 z"/>
	<path id="erzincan-refahiye" title="Refahiye" class="district" d="M121.00685534712738,169.2045939338782 L125.99339734808837,169.54771784859682 L127.1825091332139,170.02809132920285 L130.43094108549985,171.76620137787842 L131.55142808768187,172.2465748584845 L132.94641422163886,172.63525640221616 L135.41690640761317,173.184254665766 L136.58352771765658,173.57293620949767 L138.0471386345571,173.75632008324646 L139.60244148833226,173.80187771225957 L141.40975299879983,173.59600336342834 L144.20030194556148,173.13869703675292 L146.57910219466157,173.25287944870973 L148.40890418021172,174.1680687809088 L149.87251509711223,175.24299815407778 L152.2968729752247,176.04342839547184 L154.31005883452372,176.29486037331606 L156.2540432320302,176.82136816178343 L157.21479019324215,176.98110820275332 L159.61665759627294,176.7752338539221 L161.76651634261088,176.24930274430295 L162.97869528166711,175.6772373268225 L165.22024596487927,173.82494486619015 L167.2086346337028,173.3059339027502 L168.53672602126062,173.16176419068358 L170.595469509572,173.184254665766 L173.77470000006633,173.89356964913387 L175.00994609305326,174.3964336048224 L178.0288598637294,175.8606212005713 L179.65278750044763,176.7752338539221 L180.59104398657792,177.48454883729005 L182.12327968642148,178.85704449616458 L184.09033123785912,180.11478106423397 L186.03431563536606,181.09859517937684 L188.55036545035318,182.24214933548953 L190.95223285338352,183.59157784043333 L193.10209159972146,185.490004608927 L193.7883394291589,185.94731093560245 L195.183902241964,186.56493398209597 L198.34006557852672,187.25118181153323 L199.27774538580798,187.29673944054628 L203.25798279654418,187.20562418252013 L206.7572700478263,187.45705616036437 L208.28950574767077,187.34287374840758 L210.05125962912462,187.34287374840758 L211.0344970654196,187.50261378937745 L213.23049011961893,188.34917833863284 L213.68548973090128,188.64155451470396 L215.15140736319472,189.79029878045105 L215.88378950049355,190.86522815362002 L217.73608196112582,193.08371168290162 L219.26889433981842,194.2047753639319 L219.9551421692554,194.91351366845157 L220.64138999869283,195.98844304162046 L221.0986963253681,197.7726873981573 L222.0819337616631,199.90005566941286 L222.60844155013,200.74604353981994 L224.209302032918,202.46166311341307 L224.5835666054436,202.65658056412718 L222.94579867636594,203.57119321747805 L220.06413447157774,204.1426819561102 L218.89751316153433,204.23437389298462 L216.97601923911043,204.89755456849116 L214.73446855589827,204.94368887635255 L213.5453567707723,205.26374563714052 L212.37873546072933,205.99555109559086 L211.8066700432487,206.88767327385924 L211.44105565344807,208.67191763039608 L211.3262965626427,210.57034439888974 L210.68329964682516,213.91219832459473 L209.74561983954345,217.16005359803222 L209.51725501563033,217.68598470765136 L207.321261961431,220.63685037423159 L206.20019828040085,221.41421346169494 L203.68414846541373,222.55834429665586 L202.97944691283192,222.34324308625247 L200.04415157515496,222.07451074296017 L198.16187181441228,222.00703931771307 L196.4139582253165,221.40210320588136 L194.307927071447,221.13337086258912 L193.2993157658284,221.33520845948243 L189.80406526648449,221.73830697442082 L188.88541586119572,222.09700121804258 L187.60807221228515,222.25385786477113 L185.77019672285996,221.89516362114927 L181.64751963660183,221.94014457131408 L177.72610346838928,221.62643127785708 L175.17141617056814,221.87267314606686 L174.18587201888022,222.34324308625247 L173.0653850166982,223.86682860337277 L172.6842002979938,224.0911566753485 L171.16061478087386,224.40486996880549 L170.3988220223132,224.8979303840735 L170.37633154723153,225.41348127442382 L171.07122955939258,226.4440063762762 L171.87800326811748,227.25078008500125 L172.32608273322057,228.10195806504274 L172.48293937994913,229.60362978592892 L173.08787549178078,230.63415488778136 L174.88019335219315,232.0008837581732 L175.39574424254351,232.89761936722778 L175.66447658583547,234.42120488434813 L175.66447658583547,236.05666609803217 L174.83578908087657,237.67021351548217 L173.71530207869455,238.63384387093572 L170.62315009428903,240.69547075348873 L167.70976855284653,242.91337760392213 L166.14120208556096,243.7876227378943 L163.31778244444786,244.99749496155763 L162.53349921080553,245.46806490174316 L160.06877381331378,247.43972988396663 L158.4108221245474,249.03078682633424 L157.13347847563682,250.5543723434546 L155.47552678686998,251.4955122238257 L153.61573750121033,252.7728558727362 L151.9796996086784,253.42277293473268 L150.05243889777148,254.74509753380795 L149.38060803954068,255.0138298771002 L148.2151400871935,255.10321509858153 L146.64657361990885,254.8569732303717 L145.6829432644554,255.08072462349912 L143.98001062552385,255.9774602325537 L142.8151193520257,257.0754567596533 L142.4564251084039,257.6129214462378 L140.4622696510978,259.6970388038733 L138.6468846367543,261.19813384591123 L136.36150636107413,262.60984366646784 L134.81543036887115,263.30474167862917 L132.1488673744866,264.17841013375306 L130.15471191718007,264.6939610241034 L127.04006945769243,264.8283271957495 L126.3226809704488,264.7608557705023 L123.7460798763941,263.70784019356756 L121.1244978321738,263.30474167862917 L120.22833890196762,262.9460474350073 L118.68168623091651,262.0723789798834 L117.47181400725276,260.54821678391477 L116.35132700507074,259.6745483287908 L113.43852214247636,258.2178575580694 L112.63174843375145,258.01659664002443 L110.52571727988197,257.8822304683782 L107.2317276985832,258.10598186150577 L106.35748256461102,257.90414426461246 L103.87026669203715,256.78423394127867 L101.92109218489577,256.3136640010932 L100.84558613287845,255.9549697574713 L99.83697482726029,255.26007174531009 L98.26840835997564,254.58824088707948 L96.69984189269007,254.61015468331362 L95.33311302229822,254.9019541805365 L93.47332373663858,255.48439981728575 L91.50165875441508,254.70011658364314 L89.88811133696481,253.82587144967107 L89.39505092169702,253.0640786911108 L88.87950003134665,250.98053801232362 L88.58827721297166,250.44249664689085 L87.28901976782754,249.1876434730627 L85.20490241019206,247.64156748086 L84.03943445784535,247.43972988396663 L81.73156570708215,247.30536371232057 L79.93924784666979,247.32785418740298 L78.30320995413695,247.52969178429626 L76.80211491209957,248.22401311760927 L73.6200010273642,249.30009584847474 L69.87793198096233,250.01690765687007 L66.22582483488986,249.94943623162294 L64.27607364890082,249.50135676651973 L60.37714795576994,249.07576777649905 L57.57621878973896,249.07576777649905 L56.254470869511806,248.8070354332068 L55.4476971607869,248.47083166466737 L53.40856075331658,247.17099754067442 L49.89024310004197,246.0730010135748 L49.08346939131707,245.73679724503538 L46.7531101654713,243.87700795937565 L45.27450559851559,242.30844149209045 L44.60209806143712,240.94171262169863 L43.5265920094198,239.14939476128603 L43.14598396956353,237.0427869285681 L42.78728972594217,235.72103900834102 L42.45108595740248,235.0261409961798 L41.89113079573599,234.48809963074706 L40.41194954993216,233.4177836883642 L40.86464244582112,232.87743560753842 L45.360430746907696,228.40471446038268 L45.926152697057205,227.1700450462439 L45.634929878682215,224.46657460557003 L45.350050527638814,222.86975087471984 L44.86967704703238,222.04625347939515 L43.794747673864094,220.65069066658995 L42.239444820088465,219.57576129342107 L40.912506790227326,219.0498301838019 L35.743157594365584,217.90627602768922 L34.78241063315318,217.47146017609617 L32.815359081716,216.16816597901368 L30.734125118321572,214.0177305538275 L28.881255978841637,211.9134294365026 L26.38827331778475,210.58706808548953 L23.712483461828015,209.35182199250244 L22.248295866078934,208.29938309441587 L21.447865624685164,207.20196324616455 L21.493423253697983,206.4009563259222 L23.43798433005304,204.22803042565374 L24.146722634572598,202.7874866626837 L25.17609437872852,202.7874866626837 L26.227956597966568,203.15310105248474 L28.01220095450344,203.54235927506468 L29.77337815710962,203.45066733819027 L31.39730579382831,202.9247362285712 L33.66192363097116,201.6894901355841 L36.97840368735251,199.65381380120294 L39.26551199957839,198.32687577134155 L40.615517183369775,197.06913920327204 L41.69044655653897,195.19377958870908 L43.22268225638345,193.40953523217223 L45.875981637258064,192.56297068291687 L48.46526966597503,192.5174130539038 L50.588024506444526,192.42572111702935 L53.19518957945775,191.92285716134091 L54.36181088950116,191.92285716134091 L55.482297891683174,192.08259720231075 L56.74061113860034,192.44878827096008 L58.730729843968675,193.18059372941042 L60.10264882399542,193.9354663417914 L61.90996033446254,194.66727180024168 L63.52754450385055,194.98213845139526 L65.10591451155597,194.93658082238215 L66.70677499434396,195.09632086335208 L68.3537697849938,194.93658082238215 L69.13170955130545,194.61594738274596 L69.8865821636864,194.04445864411377 L71.1212515778252,193.76995951233886 L72.21924810492465,193.79302666626955 L75.00979705168629,194.57038975373294 L76.42785033957398,194.68457216568964 L77.50277971274318,193.9527667072394 L78.25765232512413,193.12926931191464 L79.21839928633653,192.46608863640807 L81.642757164449,192.05433993874573 L83.74705828177412,191.27697685128237 L84.77643002593004,189.65304921456362 L85.85135939909833,188.94373423119566 L87.91010288741063,188.09716968194036 L90.31197029044051,187.54874809723876 L95.41211802451062,187.27424896546384 L96.44148976866654,186.99974983368895 L98.01985977637241,186.08456050148985 L98.94254593359892,184.87353492013003 L100.211816078634,182.47051415940308 L101.16621957251482,182.22888572197937 L103.90429074408485,182.50742160569212 L104.84889069754536,182.4924279556372 L106.03223569418833,182.17121783715268 L109.54478655898038,182.4272632457831 L112.3947334271138,182.97280143624332 L113.35144363638847,183.266330970011 L114.39292563635809,183.82051934319517 L115.29312131850156,184.6342131980994 L116.05549075591034,184.96522685700444 L117.59868335387182,184.9502332069495 L118.45447476469963,184.61402943841006 L118.87083689314795,183.8470465702154 L118.81893579680354,182.4399501804449 L119.63147629401146,181.72371505089785 L119.97344685103326,180.68107969323182 L119.70067775580355,179.78895751496333 L120.12742010352076,178.71518149949094 L119.95326309134407,177.61026482621216 L120.31657076575266,176.59992348404907 L120.30100043684934,174.42123079529787 L120.79002410017938,174.04235279198667 L120.36385843131029,173.03201144982359 L120.7115957768151,172.54241110764528 L120.77445377127606,171.83194276658085 L120.53743876463841,171.4057770977118 L119.51152709357166,170.9323237632849 L120.15856076132695,170.25299608002683 L120.91631676794941,170.04769841004392 L120.52186843573509,169.43238207894353 L121.00685534712738,169.2045939338782 z"/>
	<path id="erzincan-tercan" title="Tercan" class="district" d="M433.57025118071533,261.2823289577582 L435.41043338553345,260.54648674736995 L436.6168455361071,259.56497934762024 L437.3123202271172,256.5996967098334 L437.57816917616765,255.96592665558842 L439.0504302757927,253.737062907038 L440.21589822813894,252.8582043422797 L441.70891976630173,252.12178545304323 L442.6696667275137,252.01971329690002 L443.54910197112076,252.16272965127013 L445.3685237374011,252.20367384949708 L446.53456836859687,251.85593650399233 L448.94739266974375,250.89518954278017 L450.84870283247847,249.44311220284484 L453.99794602286283,248.1138674575903 L454.795492870016,247.90972314530393 L456.1651051346489,247.78689055062318 L459.9890625775047,246.90745530701662 L462.31999848219857,245.82387575112364 L464.38508543784064,245.16934525834105 L466.3890444355675,244.80142415314697 L468.0660265263268,244.7812403934576 L468.7407407787987,244.57651940232296 L470.19224143988595,243.73802835694335 L470.9851748562519,242.4941320812323 L471.03995934683735,241.75828987084412 L469.66804036681106,239.9452115718939 L466.07244774786886,238.1915311943152 L464.77030690848324,237.6754036251166 L462.7167535298054,237.46549252434755 L461.0789856007282,235.61608345795653 L460.97287669264733,235.11552621766117 L461.215658487768,233.55503325425173 L461.09340257193526,230.7541040882208 L460.7249047878927,229.66994785347964 L459.702453189916,228.2593913906195 L458.1898245709126,227.15505139618892 L456.1651051346489,226.1735439964392 L454.09309803282713,225.95613607064269 L453.3174649819084,226.18277085801145 L452.3809385323234,226.10722592888857 L452.0372379387559,225.66721996766114 L450.09094682585646,224.01042163659116 L447.81652544829285,222.28442184372923 L447.1890988613791,221.9234208847144 L446.2710261349389,221.71696985703488 L446.3310007351588,221.15470797997497 L448.0471969875998,220.81043070755976 L448.80149292113265,220.39752865220095 L449.59846308943725,218.8912435005286 L450.7771946552939,217.21022465783142 L452.7073387604423,215.01134820939083 L453.46105801512704,214.4433195438483 L454.1444224503225,214.24551869889285 L455.6685846462915,214.20572785836245 L456.9338180393879,213.20346002007508 L456.69968642699223,212.23175616074582 L457.2844387791347,211.73004556275393 L458.30573701941466,211.35808770562193 L459.0260089008989,210.22030033799192 L459.76877125746705,209.89505346756957 L460.61648916441845,208.49776061821962 L461.68911182219426,208.5963727012732 L464.13480681769306,208.9919743911841 L464.7501231487936,208.91123935242678 L465.70914007346073,208.37319798699397 L467.13180679213474,207.17831941338557 L467.63640078436765,206.91593053742434 L468.5758106281942,206.82885203133606 L470.2101184841822,207.1529455440619 L471.68410962035114,207.2619378463843 L473.30342382628396,207.24752087517757 L475.98671050726807,206.91189378548643 L477.79978880621866,206.46150760499023 L480.39830369650736,205.49557053414367 L482.8930163941095,204.20323323517826 L484.3076096089071,204.09885436364198 L485.0907394848532,204.7533848564246 L486.2002695889182,205.2395251255133 L487.6015991902059,204.89986128388423 L489.19899959990425,203.9298874610998 L489.98270615469846,203.59137697716733 L491.0276482277577,203.4535507324316 L492.6458090759943,203.5123719749548 L493.6423101257983,203.68479895058658 L495.7760218643848,204.37162345887202 L496.64392353102676,204.21188341790221 L497.57122311903913,204.70206043892887 L497.7482635254564,205.5607352439978 L498.1184913460438,205.98517087632203 L501.1149146416369,208.38703827935242 L502.1667768608754,209.00466132584597 L507.6336923424428,211.6348935527899 L508.1365562981314,211.9324598384955 L510.2408574154565,212.11526703339604 L512.4824080986687,211.13202959710145 L514.3583443920797,210.21684026490237 L515.6616385891621,209.41641002350832 L516.9199518360801,209.00466132584597 L517.7890068604179,208.98159417191528 L520.1908742634478,209.41641002350832 L521.9520514660544,209.55365958939572 L525.9086450440118,210.37715698472047 L528.4022043839163,211.01727050629634 L529.6374504769033,211.81770074769042 L529.9575072376915,212.27558375321414 L531.1696861767477,213.0990811485388 L534.0974846893973,214.24263530465151 L537.5742814655964,215.34063183175107 L539.1751419483849,216.02630298234004 L541.142193499822,217.39879864121457 L542.1260076149651,217.925306429682 L543.2009369881334,218.29092081948303 L545.3738628884021,218.74822714615846 L546.0826011929221,219.04579343186398 L547.8437783955283,220.23490521698977 L549.3765907742209,222.15639913941405 L550.8177112160392,223.46027001534486 L551.343642325658,224.1234506908514 L551.5495166744895,227.02818204957032 L551.9381982182213,229.0869255378821 L552.1671397209825,229.72761573830624 L552.0754477841083,230.68778602067013 L552.0523806301776,234.62246580239315 L551.8240158062645,238.07619542466182 L550.7029521252343,239.79123831940677 L549.467706032247,241.18680113221188 L548.8045253567402,242.28479765931155 L547.3634049149218,243.63422616425538 L547.0202810002038,244.32047399369262 L547.4781640057272,245.80715206452393 L548.4614014420222,247.29383013535525 L549.604955598134,248.7349505771735 L552.1896301960655,252.348420240412 L557.0619897850702,256.71733919487974 L559.5774629212092,259.3475714218237 L561.0174300053304,260.66355255356814 L561.1789000828453,260.8117590175726 L565.3188775345511,263.41892409058596 L568.7270495278067,265.3404180130102 L570.3279100105947,265.77523386460325 L573.3929580891313,265.9811082134345 L574.7654537480062,266.209473037348 L576.1373727280325,266.66677936402345 L578.2647409992883,267.85646782799745 L579.7289285950369,268.8858395721533 L580.7121660313314,269.75489459649106 L580.8724827511496,270.64701677475955 L580.8494155972185,271.9733781257727 L580.6666084023182,273.36894093857785 L580.2548597046562,274.969801421366 L579.4999870922752,277.2113521045783 L578.4475481941886,279.31565322190306 L577.1898116261191,280.57396646882086 L576.2976894478511,281.6258286880591 L575.8859407501882,283.7070626514532 L575.8634502751056,284.7595015495398 L576.5035637966816,286.70348594704654 L577.5098683869073,288.09904875985166 L578.287808153219,288.7852965892889 L580.4145997456258,289.8140916545966 L581.8787873413744,290.6375890499213 L584.1658956535998,292.90220688706427 L585.4011417465872,293.88544432335874 L586.3618887077992,294.8923255924322 L587.1623189491929,295.44132385598203 L588.2372483223621,295.8524958747961 L589.7239263931933,296.1500621605017 L592.3316681450556,295.9672549656012 L593.9325286278436,296.6535027950384 L595.3505819157313,297.682297860346 L597.4093254040426,298.8950534782507 L598.1411308624929,299.7865989776709 L597.9352565136614,301.3194113563636 L597.5235078159999,302.05121681481387 L594.5045940453238,302.87471421013856 L593.3835303642932,302.87471421013856 L591.1194892059989,302.71439749032044 L588.6259298660943,302.7605317981818 L587.0706270123187,302.69190701523803 L580.7121660313314,302.69190701523803 L576.5721885796256,303.21783812485717 L574.5763030857752,303.3262537483313 L571.2655898178764,303.70397839394593 L569.9276948898978,303.94387679482486 L568.8296983627979,303.7726031768896 L563.4417878834429,302.6624963939764 L559.6005300751399,301.78248447152157 L556.1698676068013,300.8044371448615 L553.7853005692191,300.47861359559084 L550.6804616501513,300.17009041176823 L548.0727198982904,300.1014656288244 L546.3917010555929,300.39326512604737 L544.8133310478875,300.8044371448615 L541.2794430657095,302.58868150139836 L540.1474224865619,303.8412279598333 L539.2039758907981,304.3043010749915 L537.7628554489797,304.44155064087886 L534.0403934834189,304.13245077820795 L532.4793238411607,304.1157270916083 L526.8353679531756,304.4242502754309 L524.6053508469295,304.75007382470153 L523.7991538170522,304.6474249897101 L520.0934155380905,302.74323143273375 L518.0116048958489,300.8557615623572 L517.4689500996296,299.5697677307227 L516.902651470632,297.8195474262335 L516.6454527043052,296.2584777839758 L515.8894267342275,293.3179923366644 L516.0041858250324,292.05967908974674 L516.8276832203578,289.95537797242184 L516.8732408493702,289.4755811706641 L517.8795454395954,287.3251457454779 L518.0167950054833,285.63259332581544 L517.7653630276391,284.8777207134344 L516.5531840885819,283.7572337112524 L515.820801951284,283.2537930767157 L514.0371342735953,283.2313026016333 L509.2333994675346,283.4827345794775 L505.32236351859,283.4827345794775 L501.73138433043414,284.05422331810973 L499.2384016693777,284.374856757746 L494.52635880019125,285.38116134797116 L492.90243116347256,286.0674091774084 L490.4094485024166,287.0050889846899 L487.824773904485,287.80551922608396 L485.4229065014547,287.8285863800147 L484.004853213567,287.55408724823974 L482.12949359900404,287.59964487725284 L479.20169508635445,288.37758464356443 L477.9433818394368,288.4462094265082 L477.3263354717915,288.19420076981567 L474.69552656599944,287.4168376823523 L471.7452375782673,288.3314503357031 L469.7551188728994,288.5148342094519 L467.87975925833643,288.9721405361273 L466.987637080068,289.4069563877203 L463.44221552092495,290.4588186069586 L462.50453571364324,290.5274433899024 L460.44579222533184,289.93288749733944 L459.48504526411944,289.4755811706641 L457.56412802054365,289.15494773102785 L458.5692792530717,287.16655906220456 L459.4844685852713,286.6406279525854 L459.5755838432974,285.38231470566774 L455.9390470261278,283.71282943993594 L454.3151193894096,283.16383117638605 L453.39993005721,283.14076402245547 L451.181446527929,282.7065248497107 L449.58058604514054,282.0433441742041 L447.52184255682914,281.5399035396673 L445.48616622244754,281.1737124710181 L443.7019218659111,281.0825972129919 L442.12355185820525,281.3340291908362 L439.42469484831736,282.5462081298926 L438.6242646069236,283.3697055252173 L437.3659513600055,284.30738533249877 L436.2454643578235,285.31368992272405 L434.0039136746118,285.4284490135291 L432.1054869061177,285.17644035683657 L430.84717365920005,285.1078155738928 L428.92625641562427,285.22257466469785 L425.8612083370872,285.9774472770789 L423.5054752419178,286.0230049060919 L421.6981637314502,285.4509394886114 L420.1659280316062,284.6505092472174 L419.9600536827752,284.12457813759823 L420.3262447514244,282.93488967362424 L423.2309761101433,280.41883985863706 L424.35146311232484,279.0238537246802 L425.0832685707751,277.14849411011716 L425.5180844223687,276.80537019539855 L427.5768279106801,276.2788624069311 L429.6580618740745,275.1583754047491 L430.89330796706145,274.1976284435369 L432.1510445351305,272.7565080017187 L432.1510445351305,271.4757042797186 L431.8996125572867,269.257220750437 L432.28829410101844,267.3132363529303 L432.92898430144214,266.60392136956233 L433.7524816967675,265.2089352356055 L434.575979092092,263.4246908790686 L434.2784128063863,262.2350024150946 L433.57025118071533,261.2823289577582 z"/>
	<path id="erzincan-uzumlu" title="Üzümlü" class="district" d="M457.56412802054365,289.15494773102785 L457.2244641789148,289.30373087388057 L454.367020485754,289.5176787265875 L453.47605166518133,289.35332525483153 L452.47897393652875,290.2091166656592 L451.2125871857352,290.9714861030676 L451.00152272726973,291.49914724923156 L449.934666857976,292.1323406246282 L448.31650600974035,292.64846819382683 L447.7300236210531,292.50775855484983 L446.1585737595269,292.5896469513037 L445.74855509840927,293.3168389789679 L444.43488068205806,293.1876629169562 L442.0549270752613,293.52790343743345 L441.3040912148185,294.4540496677496 L440.4367662270256,294.46558324471494 L439.0060260044761,294.72393536873847 L436.778315613622,294.5359380642035 L435.54652959372424,294.8525347519019 L434.8902690643972,295.2515965149023 L432.62680458495106,295.59126035653134 L432.0524324520775,295.88478989029903 L430.6689798950856,295.2515965149023 L430.1880297356315,295.274663668833 L429.60154734694424,294.84100117493654 L428.87493199812843,295.59126035653134 L428.10102898375453,295.2867739246467 L427.2919485596367,294.5359380642035 L426.17780502478536,294.3600510154822 L424.21940365607225,293.3750835426428 L422.6837078831386,292.95295462571164 L421.19414641806543,292.1323406246282 L419.88104868056234,291.6398568882086 L418.88397095190976,291.5227910820105 L417.2658101036732,291.87456517945316 L415.5421170262043,292.03834197236085 L415.23763059431985,292.33187150612855 L413.7953567948048,292.460470889292 L411.7198896198938,291.956453575907 L409.57406762549317,290.8071326313116 L408.5891001526543,290.5730010189154 L407.38095796553534,290.99512993584653 L406.8769406521501,290.4201811241248 L406.2085698670098,290.16240567894954 L404.5904090187737,290.10358443642633 L403.792862171621,289.66992194252987 L402.9249605049795,289.65838836556463 L401.28373250281265,288.96637374764464 L400.791248766393,289.2010820388891 L400.08770057150787,288.87237509537715 L398.5277842869468,288.64977705994625 L397.68352645308414,288.0165836845496 L396.00712104117383,288.09847208100337 L393.5677695130057,287.3833903091528 L392.86422131812014,287.54774378090883 L392.0787847267811,287.3597464763739 L391.1405282406513,286.78537434350034 L390.37815880324297,286.67984211426756 L389.06506106574034,286.79690792046574 L387.61125368926014,286.468777655802 L387.03630487753844,286.63313112755793 L386.06344766051234,286.48031123276735 L385.8050955364888,285.48381018296266 L384.9377705486959,285.26121214753175 L383.61256255537955,285.36674437676453 L382.7446608887385,284.8154393978216 L382.47535186659707,284.0294261276343 L380.68130396964034,283.7480068496802 L380.20035381018533,283.54905264702813 L380.21188738715136,282.43490911217714 L379.47316178252186,282.2705556404211 L378.64043752562475,282.3645542926886 L377.76100228201767,281.90724796601313 L376.1313078568164,282.3760878696539 L375.5096480583852,282.8570380291083 L374.7126778900806,282.9273928485968 L373.93877487570717,282.3645542926886 L372.7658100983331,282.2705556404211 L372.6020333054248,281.6846499305823 L371.34718013159727,281.43840806237245 L370.5127258381549,281.0825972129919 L369.54332869421887,280.2071987213232 L368.0854845658014,280.1431873691656 L367.3761695824328,279.9142458664038 L366.9188632557575,280.1201202152349 L365.9379325348564,279.64378348656675 L365.36125368658986,279.6287898365118 L363.3365342503257,278.7545447025397 L362.3815540775963,277.38550911675475 L361.30028123709644,276.31576985322016 L360.5621323113146,274.8429320747473 L358.95146828810675,274.6439778720954 L358.0310888462727,273.87699500390073 L357.58589277541114,273.1867104225256 L356.5888150467581,273.09444180680293 L354.6869282051748,273.57020185662293 L353.7054208054251,273.50849721985844 L351.8335212639513,272.63425208588626 L349.30305447775754,272.3124652885534 L348.21370813338217,272.5269898201086 L346.6797423969929,272.43472120438605 L345.59616284110007,273.01774351998347 L344.79111916892,273.2017040725806 L344.2046367802327,273.73109525528923 L343.53684267394055,273.8118302940467 L339.8559015854544,273.62729306260127 L338.9701228745166,273.93812296181704 L338.4522652687738,273.70802810135865 L337.93440766303047,273.06387782784486 L337.1749216198632,272.5114194912054 L336.22051812598147,272.3505260925391 L335.36876346709187,271.2461860981085 L333.1370163243005,270.8782649929144 L331.72184643065384,270.00344318009394 L330.031024047536,269.2791345466712 L329.1106446057029,268.6228740173438 L327.9947710343072,268.6920754791358 L326.86736388594545,269.2445338157752 L325.9169971440024,268.7030323772528 L326.5017494961444,266.4845488479712 L327.02998732115657,265.4280731979468 L328.765213975591,263.46621175614376 L330.5759855591482,262.30939398652106 L331.3556553620051,261.6052691127874 L331.7581771980949,260.75005438080814 L331.7080061382958,259.19071477509516 L331.481371350927,258.38624778176325 L331.4058264218038,255.015559913645 L331.88389318701684,253.73302615510005 L333.1416297550859,253.05427515069027 L334.60005056235286,252.82764036332154 L335.30417543608564,252.50066345635435 L336.15939016806533,251.46956167565367 L336.8635150417995,250.13628017846128 L337.31620793768843,248.82894922944092 L337.4926716652576,245.93632812653564 L337.6685587139791,244.6537943679907 L338.1967965389913,243.24496794167544 L340.5381126629536,238.81088427735352 L342.6389537071891,239.8119987579443 L343.4976285122584,240.0369035087683 L344.8470570172017,239.9555917911627 L348.1393165619561,239.50578228951474 L349.20271235815926,239.13728450547245 L350.6749734577843,237.84898395844476 L351.0227108032891,237.7267280426123 L353.1287419571586,238.64653080559748 L354.15119355513525,238.95332395287537 L355.8074152073568,239.0761565475561 L357.66835785071316,239.87370339470883 L358.93589795920343,240.9370991909125 L359.446835418767,241.5299250469305 L361.55344325148553,241.69370183983824 L363.5775860089011,241.59105300484683 L364.1294676666921,241.79577399598145 L364.9270145138453,242.44972780991577 L367.9124809113214,242.59332084313417 L370.67304255797353,243.39086769028688 L371.8794547085472,243.9018051498511 L373.2900111714075,243.88162139016174 L375.23284221121685,242.8793535518744 L377.60472231413814,242.34765565377256 L378.70906230856826,241.97973454857845 L380.32433976256334,241.91860659066225 L381.30584716231306,241.46879708901426 L381.9603776550953,241.55010880661985 L383.10508516890513,241.9999183082678 L386.49941686980173,243.00218614655518 L387.9924384079641,243.758788795481 L389.137145921773,244.57651940232296 L391.5499702229208,246.80538315087338 L393.2061918751424,248.01179530144717 L395.31279970786045,249.0134864608862 L395.7418487709706,249.85197750626583 L395.76260920950835,251.12009429360415 L396.334674626989,253.737062907038 L396.66222821280417,254.78027494355223 L397.1731656723682,255.72083814507505 L398.4614662193958,257.0702666500189 L400.1995762680717,257.8678134971716 L401.3858046589562,258.2357346023657 L403.1850426655478,258.56271150933287 L404.18673382498673,258.9104488548376 L405.3522017773339,259.5240351493933 L407.1929606610006,260.03497260895745 L408.8082381149957,260.25987735978146 L412.8772840683646,261.91609901200314 L414.2474730118456,262.59138994332335 L416.63953687445564,262.73440629769345 L421.44500171706113,263.5930811027624 L423.0804629307454,264.3087395534613 L424.24593088309257,264.5538280639746 L426.9044203736016,264.65647689896605 L429.86912633253996,264.02270684472103 L431.4440362671562,263.1842157993415 L432.5477995827382,262.3255409942725 L433.57025118071533,261.2823289577582 L434.2784128063863,262.2350024150946 L434.575979092092,263.4246908790686 L433.7524816967675,265.2089352356055 L432.92898430144214,266.60392136956233 L432.28829410101844,267.3132363529303 L431.8996125572867,269.257220750437 L432.1510445351305,271.4757042797186 L432.1510445351305,272.7565080017187 L430.89330796706145,274.1976284435369 L429.6580618740745,275.1583754047491 L427.5768279106801,276.2788624069311 L425.5180844223687,276.80537019539855 L425.0832685707751,277.14849411011716 L424.35146311232484,279.0238537246802 L423.2309761101433,280.41883985863706 L420.3262447514244,282.93488967362424 L419.9600536827752,284.12457813759823 L420.1659280316062,284.6505092472174 L421.6981637314502,285.4509394886114 L423.5054752419178,286.0230049060919 L425.8612083370872,285.9774472770789 L428.92625641562427,285.22257466469785 L430.84717365920005,285.1078155738928 L432.1054869061177,285.17644035683657 L434.0039136746118,285.4284490135291 L436.2454643578235,285.31368992272405 L437.3659513600055,284.30738533249877 L438.6242646069236,283.3697055252173 L439.42469484831736,282.5462081298926 L442.12355185820525,281.3340291908362 L443.7019218659111,281.0825972129919 L445.48616622244754,281.1737124710181 L447.52184255682914,281.5399035396673 L449.58058604514054,282.0433441742041 L451.181446527929,282.7065248497107 L453.39993005721,283.14076402245547 L454.3151193894096,283.16383117638605 L455.9390470261278,283.71282943993594 L459.5755838432974,285.38231470566774 L459.4844685852713,286.6406279525854 L458.5692792530717,287.16655906220456 L457.56412802054365,289.15494773102785 z"/>
	
</g></g></svg>