<svg xmlns="http://www.w3.org/2000/svg" version="1.2" baseProfile="tiny" width="600" height="600" stroke-linecap="round" stroke-linejoin="round"><rect id="backgroundrect" width="100%" height="100%" x="0" y="0" fill="none" stroke="none" class="" style=""/>































































































































































































































































































































































































































































































































































































































<g class="currentLayer" style=""><title>Layer 1</title><g class="city city-26" id="eskisehir" title="Eskişehir">
	<path id="eskisehir-cifteler" title="Çifteler" class="district" d="M283.1772634314287,419.64271972992185 L282.14276717862367,419.0299199728068 L279.5307875464551,415.85238751531494 L278.43000455352444,414.8764210436841 L277.8002805223352,414.0584144634155 L277.6832209599865,409.7998439994135 L277.2086361078131,408.1384444277644 L276.7932862149009,406.03207748357266 L275.1911216025126,401.9977536510582 L273.88583696451536,400.8109389315822 L270.08915814713083,399.92100418649676 L268.1012611214601,399.26871445654126 L265.0760471306393,397.5635938435329 L263.0112856935471,396.6426312626444 L261.67144732931405,396.44729693270085 L257.8197646211874,396.307671671586 L256.08925759706693,395.8612939428704 L254.91654643931977,395.0792514450102 L253.74454045965913,394.04687072646425 L252.15365869665428,391.73036071251386 L249.8928577515324,389.5252688362208 L249.3900657759018,388.8835567775617 L247.38101340763822,385.45004467469266 L244.9523800779445,382.7146588773978 L244.84025676220074,381.24859363569226 L244.84025676220074,371.9021632780366 L244.89455547485636,366.5611444513516 L245.03065484553892,364.76294033093353 L247.83585327339117,364.7453108787725 L250.1319131228348,364.6345979192018 L252.87082481056197,364.66209986457267 L255.80295529397335,364.3581681093177 L261.36328450554066,362.94710675835444 L263.8250612052972,361.61925642159065 L267.1443344581635,359.32319657214697 L271.87466906199285,356.28035312916495 L275.72000516734164,354.34393410380494 L277.7946390976437,353.6803615244662 L282.7739015659859,351.4118036203937 L288.97030141152095,348.06502842215673 L294.945275337914,345.0496869245457 L298.5691855241212,343.4171996544406 L302.74666050818274,341.8961305219928 L306.453076530504,341.1768488738255 L316.8544533054714,339.8214965916908 L319.79786663826513,339.02252981975596 L323.1728489599601,337.69820537342457 L331.2393810907302,335.4225956884875 L336.27364744981395,333.8458174872111 L341.491965289459,332.00389232543375 L343.62301346667573,334.3521353532739 L345.06792336578866,335.7970452523863 L346.04318465933306,336.30265794036285 L349.2580915554061,338.50563428239656 L354.32197539412067,343.3389248868459 L355.8317616771856,344.6822891415112 L358.54105588528193,348.7645650839036 L359.0826326556668,350.1728057225213 L359.6608786865465,352.2319257349216 L360.9612270779387,354.07385089669896 L362.8193713357043,357.28170601190754 L366.89882656575105,359.25690983202185 L368.46714262999,360.26108342711007 L368.9769863864851,360.8971540610777 L369.36624469019955,362.1594228358026 L370.3647768605958,363.1382100197791 L371.15316596123404,363.58317739232183 L373.88502586809676,364.7805697830944 L375.8284966743213,365.53158444515134 L378.2402057299412,366.1690654352917 L380.7273688408095,366.573132478821 L383.6531527214429,367.21202382513434 L385.86106531008164,368.0455443233046 L386.4216818888004,369.0941441378386 L386.19814043539935,369.8303500600804 L386.6431078079419,372.0982027860665 L386.5711796431254,372.71241289935443 L385.27083125173317,379.0695933485973 L383.86188543502857,383.76537422619117 L383.06714973161286,388.5697525290966 L383.1397830745154,391.2423774766984 L383.60872650199724,394.7104433058029 L384.58398779554113,398.10587579200416 L384.8011826461642,401.3567467704856 L383.86188543502857,403.70428462023926 L382.8287995383965,405.220417506082 L380.3113137698113,404.21342319864794 L375.8743332499394,403.64716519523773 L371.0283494399349,403.70992604493074 L366.87485051081217,403.2064288912137 L364.4208307700061,402.10494072019674 L361.2108601205381,400.2489119966907 L359.3858592328347,399.0846629759808 L357.7491408942118,398.20319036793273 L355.3261489892095,397.54243850093974 L352.68314152123764,396.9761804975297 L348.56067042791824,396.62993805708845 L346.16941153680517,396.9134196478367 L343.746419631803,397.54243850093974 L338.9004358217973,395.27670130921297 L337.23268964737053,394.67871029191315 L333.48819400838204,393.57722212089624 L332.1349572605066,393.2944457082344 L330.656198813245,393.19995184465165 L329.9319809184729,393.35720655792744 L329.0829465024005,394.17521313819606 L327.0999857233363,398.45493894479125 L326.12472442979134,400.1226851192182 L325.0859971084678,402.3884223109451 L325.02323625877415,403.93064678598597 L325.3377456853261,405.157656656389 L326.0619635800982,406.35293351290227 L326.40820602054,408.68213673240854 L327.41449514988716,409.8146527392287 L327.76073759032835,411.57689277723847 L327.9179923036049,414.5661426856512 L328.16974088046265,416.20286102427497 L328.16974088046265,417.3671100449848 L327.8552314539112,418.1533836113638 L326.59648856961866,419.0031232055221 L323.98521411553713,418.9713901916324 L322.22297407752745,418.40513218822224 L320.71248261637606,417.30364401720533 L318.8557487147835,415.7621247202509 L318.00600912062515,414.7868634267065 L316.59001152305717,413.8736578047686 L315.4257625023469,413.65364224179973 L312.15303100318584,414.53511484984784 L309.51002353521454,415.6993638705579 L308.2195476370322,416.76911902768495 L307.74778349720486,417.6498864576467 L307.9677990601733,418.6568807650808 L308.94376553180433,419.7901019499875 L309.8562659756557,420.4818816527835 L311.303291409027,422.40137640406925 L311.8385215766345,423.5028645750861 L312.12200316738256,425.70584091711993 L311.7122946991618,426.65007437486105 L310.6115117062317,427.62533566840557 L308.9747933676076,428.1288328221225 L307.0870316302117,428.1915936718155 L304.8212944384849,427.0273446511056 L303.68877843166445,425.9258564800887 L303.02732138658536,424.7616074593788 L301.6747898167964,421.04884483428026 L301.01403794980394,419.7901019499875 L298.9365833071558,417.9643958841982 L297.9930550275011,417.49263174437095 L295.763987096269,415.9927179545163 L292.91083655853913,415.40530460851295 L288.12761359822713,415.82488556994394 L284.7709659067795,417.79726867771234 L283.8062822845321,418.55180923020157 L283.1772634314287,419.64271972992185 z"/>
	<path id="eskisehir-inonu" title="İnönü" class="district" d="M54.368834902821206,273.87253676987757 L53.94713840713046,273.0841476692393 L53.357609526868465,272.73437933836584 L52.108739135785264,272.6257819130543 L49.62580709343593,273.17017939578477 L48.358602072105896,272.97413988775486 L45.55410882234019,273.7209234812933 L42.05854104786457,274.50437633532636 L40.612925970665735,275.0769809415145 L36.12305709431177,275.4986774372046 L33.71275839486489,275.8301111378307 L28.16935345737253,275.3780919844237 L24.55390540820164,275.52900009492146 L21.269185881571655,276.0409593856758 L17.894908737963217,276.8843523770563 L14.189197893728998,277.48727964096116 L11.161163190562283,277.35470616071075 L10.652729790240171,275.7391431646802 L9.961655265530297,274.9239572967574 L7.938499335538324,273.3901949587536 L3.8350680505527937,271.6505206195099 L1.339442802646984,270.20772625465673 L0.3183449334843515,268.8791707398066 L0.6589459492340702,266.3828403138145 L1.063718170849857,265.00562751100006 L2.576325166260224,261.1497137343544 L3.1468142381889006,260.08912589235103 L3.5960126792504177,258.0927667296436 L3.9210997770982092,255.4222573163011 L4.719361370946892,250.6806398630887 L5.093810934845915,247.78588381825875 L5.293376333307529,247.01230345743585 L7.140237741690193,243.26851299653387 L7.564049771639867,242.86938219960973 L9.26141342569698,241.9463040844617 L12.95443106437582,240.09944267607938 L15.824505876179547,239.50074648069307 L16.9725358009019,238.60234959857047 L17.4217342419634,237.70395271644782 L18.370198768223062,234.85855913766858 L19.68465072134425,232.29664714963752 L21.082313688665415,231.16554149899022 L21.98071057078788,230.76570552397965 L24.34305716035655,229.33489918659598 L27.47052197371168,228.17065016588595 L29.16788562776879,227.80466273902442 L30.83140073367715,227.1389746254265 L34.22542286370599,225.97472560471658 L38.01857579065806,224.84291477598285 L39.51566886816704,224.51077589727032 L41.04661049382534,223.84508778367234 L43.07611302659526,222.61384684475075 L44.57391128219019,222.08143738948968 L49.664591888189626,221.68230659256557 L52.526204562957,221.54902793422872 L54.38928506732753,221.5821713042913 L55.82009140471147,222.14772412961486 L61.04405066904751,222.7802688731503 L63.44024580676546,222.84655561327546 L64.73777348581284,223.01297764167498 L66.40128859172066,223.57853046699853 L69.76216735168668,223.41210843859915 L71.4595310057438,223.87823115373493 L72.95662408325278,224.8767633241318 L75.4522493311586,226.20743437324128 L77.81459592072726,226.4732865118285 L79.38432234113982,226.25891237355125 L80.79961476062184,229.05423830819336 L82.69019721036317,232.5053798632233 L83.62032710637546,235.9558162401668 L83.95035045082874,237.63625562014974 L83.95035045082874,240.03738700447275 L82.90034028012177,242.10778986625616 L81.97021038410949,243.30800296937448 L79.53946152015573,245.1682627613991 L76.809011969466,246.66888172934017 L72.42774051842383,248.19911817691167 L69.30662230784722,249.63979700750554 L68.0168515877508,250.1496407640006 L65.82586327318647,250.45004662882337 L64.41550710030994,250.8400101106239 L63.87534068609804,252.46050935325948 L63.33517427188616,255.31083917864385 L61.20483127275543,260.7724434581098 L60.27470137674317,264.10299956035885 L59.94467803228986,266.3835454919009 L59.01454813627813,269.2042578376548 L58.1443583776124,271.27536587752456 L54.368834902821206,273.87253676987757 z"/>
	<path id="eskisehir-alpu" title="Alpu" class="district" d="M345.7843843016098,214.24197260255306 L345.6807231229029,217.3073817443012 L344.9579155843038,220.37279088604927 L342.78808261233286,226.2962868121325 L341.4792720839031,228.29405633101268 L339.82633464929114,229.70582286006263 L336.6572643288369,232.87489318051712 L336.1756276957991,234.25210598333152 L336.2440299701842,235.18223587934378 L338.03518230973765,238.7638353803649 L339.4469488387877,240.76160489924507 L341.1689937258702,242.65571323941884 L342.3748482536796,244.2748021258816 L342.8910386129526,245.58361265431142 L342.90443699659505,246.8381244700854 L342.47780425429943,248.0975725324646 L341.4708099468657,250.1122663254194 L339.3411721258214,253.70303314156405 L338.14942115974037,255.27487509623552 L336.70451126062807,257.7838987277836 L335.52333796584344,258.67524382904185 L332.73365345589315,260.1286158651916 L331.72595397037236,260.8260369926792 L330.6992146765177,261.91060088962155 L330.17597253638075,263.0536945677384 L329.78882976692637,265.1847427449555 L330.01166604224034,266.6543338770933 L330.0017935490304,269.4080543046355 L330.17597253638075,272.3140931988485 L330.15693272804685,273.51501148005326 L329.4009818193844,279.1719500894627 L328.9362694604215,280.35382856233366 L328.4130273202846,280.9348953055589 L325.3137696303873,283.2210826617925 L323.930915402881,284.069411899778 L322.86116024575415,283.5186678142695 L319.5404766367154,282.8981110982037 L318.01588161383506,282.76906350838544 L315.5103838727199,282.8727246870919 L313.00488613160366,282.8466330978937 L307.39942552250415,282.4073071500426 L305.82405767740073,282.1753035596041 L303.8869334739536,281.37422125341016 L302.3630436291603,280.52166094690597 L299.2891723503749,279.2043882814389 L297.97119450682175,278.8426319230959 L296.2406874827013,279.2304798706371 L294.4326108690734,279.9793789984348 L292.65062584464334,280.4962745357942 L291.43630917979647,280.573138947216 L288.3885294902088,281.0385564842654 L283.4029204190892,281.684499611443 L278.62392852729516,282.0716423808978 L270.83805727492773,282.12805662781284 L266.84533894951346,282.2267815599142 L264.8560315676703,281.6323164330465 L262.1185302361161,280.6253221256124 L260.6975963919426,279.2558662817489 L259.4318017267856,276.5183649501947 L258.5277634199717,273.4698800825212 L257.31344675512423,270.5250563935541 L255.5829397310049,266.6508079866611 L254.8340406032069,263.8865098878222 L254.78256260289672,261.71667691585105 L254.9891797822233,259.3924099429498 L255.42780055198784,256.2409690746563 L257.3656299335209,248.82743185192842 L258.66104207830824,242.4335821421907 L259.01574665578687,239.56985393316404 L258.89516120300624,235.93184018522788 L258.6779663523831,233.69078422652646 L258.09407889681205,231.6189710085702 L256.8289894097415,230.06475850605977 L256.2690780091093,227.20314583129243 L256.5821770794877,226.11928711243652 L259.0397227107257,222.0955409512185 L260.12358142958146,220.67390192895857 L261.9549289200627,219.1316774539175 L263.3765679423227,218.31296569556247 L266.36440749456216,216.1445430797641 L268.62943950820306,214.91541767510182 L272.0989156934798,212.7949471691814 L273.6890922783987,211.6871123953865 L274.9654646148527,210.33740153794326 L275.8483475790732,208.5215679653641 L276.68398361150315,206.4970016791993 L276.39486059606304,204.60218816093908 L276.8764972291009,202.57832705286063 L278.2262080865438,200.26534292934235 L278.90035833717934,198.81972785214353 L279.99267919307255,197.53418820056612 L281.53490366811315,195.44615588662185 L282.5947863320306,193.00482935137174 L282.88390934747014,188.6038129139092 L282.7231287437623,185.8084869792671 L281.791588491577,184.07374888662844 L280.4750210041968,182.7564762211613 L279.4144331621929,182.33901079398981 L277.39057205411444,182.11405898441586 L275.62410094758627,182.14649717639202 L271.54394053945305,182.62813380942956 L269.7125930489723,182.6605720014057 L268.331149177639,183.1746468264194 L266.9821434982826,184.1703582844705 L265.76148023065775,184.8452137131921 L263.5444003268951,185.35858336011927 L260.1073623335935,185.84092517124316 L257.280303385062,186.64412301169662 L253.13597177106269,187.7040056756137 L252.0436509151695,187.73644386758994 L249.47398196818773,187.3824444681978 L248.06009990487868,186.90080783516026 L243.56247406957425,186.13004818668307 L235.3386872255283,184.58782371164213 L233.3789973233159,184.45948129991024 L228.46390606083926,183.72045466532273 L226.6008255564693,183.30298923815116 L222.906397561618,183.3995986359932 L221.0750500711372,184.07374888662844 L221.26756368873492,180.23546456214376 L221.3458384563294,177.02690426884865 L221.58277829337337,174.73860137835578 L221.8719013088124,173.9495070996312 L222.6609955875371,173.39735265794982 L225.39638138483232,172.58216679002697 L227.50063279476475,172.37131854218174 L228.94695305005004,171.5300410850607 L231.05120445998247,169.39969808593008 L232.0765333976641,168.6895837528865 L234.3119479316742,168.05844936552404 L237.78424482929745,167.34833503248046 L239.6247596349016,167.19037514111832 L240.80875364203223,166.87445535839385 L243.75428250908553,164.3499178089441 L246.93675121318222,160.98339762428674 L248.3830714684675,158.61611478811278 L249.54026870831277,157.59078585043127 L251.43367187040064,156.56475173466328 L254.44196158714695,155.36242309728564 L253.57529771891433,156.88349222973343 L253.73678350070819,158.01248234612143 L254.5512641905447,159.93056674123417 L255.5653102788434,160.9333299801496 L256.7965512177652,161.31342096874005 L258.5228271733661,161.58844042245096 L259.55379753573925,162.00661102770903 L262.00711209845883,164.27164304134945 L263.64947186177386,165.12349816976706 L264.6656334843321,165.03111984044367 L266.09361910937,164.43030811079808 L266.5907696603087,164.59461460493827 L268.67386572764826,166.08324554540982 L269.8508079539144,167.13960231889476 L271.36200459315177,168.18820213342875 L272.40002673638935,168.40046073744676 L274.21727066514114,168.21006265410836 L276.4555059114972,168.8151054522726 L278.5456537597007,170.5583056819485 L279.10415480416,170.74165198442248 L280.31988182517983,170.47721020200805 L283.2308569659978,169.52098871679755 L284.9416190036974,169.549195840255 L287.42948729265277,170.07948976125675 L289.1684564538101,170.27764480354594 L296.83162671913686,170.40528203719137 L298.02760875373633,170.8509545878204 L298.59880300375204,171.85794889525462 L299.36180569327786,171.99334308785083 L301.7847975982807,171.45740774215756 L302.1423228881053,170.8241578205358 L301.7156901458102,169.97512340446383 L301.59016844642406,168.96671874085678 L301.820761680689,167.81234221335706 L302.48362908194156,166.80041165931783 L303.70217681530687,166.1022853537437 L306.08638392555537,165.1446535123602 L309.7977361944811,163.78365980553394 L311.1742438192094,163.40215846077083 L313.0112327343816,163.4726762694146 L317.0949190329468,164.2469618083241 L320.92262568613467,164.4726187959844 L326.0859396350376,163.69410218855631 L327.51251490390257,163.14970470582574 L328.2480156480576,162.6017813326631 L329.3523245314208,161.29297080423325 L329.6499096838972,161.73300193017093 L329.537081190067,163.70961610645796 L329.9037737950156,164.42960293271165 L330.4122071953371,164.5706385499994 L331.8380772861161,166.12344069633687 L331.82397372438777,167.26723955254005 L330.99115840430323,167.81798363804853 L331.2309189536927,168.35391898374175 L331.10398689813354,169.62464989550386 L330.32758582496473,170.34463672175764 L329.96018804193017,172.05328322519807 L330.24296445459225,173.1963769033149 L330.09628741261326,173.99745920950897 L330.48413536015414,174.41069356816192 L332.1370727947661,175.3923014644843 L333.11868069108857,176.81323530865785 L335.2800515260226,178.56137178493884 L335.899903064002,179.6628599559557 L336.932988960634,182.38414219152187 L337.79401140417525,185.03631697461694 L339.34399283816686,187.06793504164622 L340.4461861872705,188.0664672120431 L342.78808261233286,189.92672700406786 L344.09689314076314,190.71864199513823 L345.26748876425023,191.88994279671263 L345.8189380278456,192.7509652402539 L346.1976186602625,194.4730101273367 L346.1976186602625,196.57373564683692 L346.40423583958915,201.84353148679168 L346.3012798389693,204.6332159967423 L345.9564477547012,208.31847667646977 L345.7498305753746,212.79565234726778 L345.7843843016098,214.24197260255306 z"/>
	<path id="eskisehir-beylikova" title="Beylikova" class="district" d="M323.930915402881,284.069411899778 L325.3137696303873,283.2210826617925 L328.4130273202846,280.9348953055589 L328.9362694604215,280.35382856233366 L329.4009818193844,279.1719500894627 L330.15693272804685,273.51501148005326 L330.17597253638075,272.3140931988485 L330.0017935490304,269.4080543046355 L330.01166604224034,266.6543338770933 L329.78882976692637,265.1847427449555 L330.17597253638075,263.0536945677384 L330.6992146765177,261.91060088962155 L331.72595397037236,260.8260369926792 L332.73365345589315,260.1286158651916 L335.52333796584344,258.67524382904185 L336.70451126062807,257.7838987277836 L338.14942115974037,255.27487509623552 L339.3411721258214,253.70303314156405 L341.4708099468657,250.1122663254194 L342.47780425429943,248.0975725324646 L342.90443699659505,246.8381244700854 L342.8910386129526,245.58361265431142 L342.3748482536796,244.2748021258816 L341.1689937258702,242.65571323941884 L339.4469488387877,240.76160489924507 L338.03518230973765,238.7638353803649 L336.2440299701842,235.18223587934378 L336.1756276957991,234.25210598333152 L336.6572643288369,232.87489318051712 L339.82633464929114,229.70582286006263 L341.4792720839031,228.29405633101268 L342.78808261233286,226.2962868121325 L344.9579155843038,220.37279088604927 L345.6807231229029,217.3073817443012 L345.7843843016098,214.24197260255306 L348.5338736606339,214.3096696988512 L353.75148632219145,214.70033835873807 L358.2187894997796,215.4506478427087 L360.43657458162875,216.0704993806881 L362.3603004014329,217.17903933256937 L364.64296186723465,218.87499263045393 L367.80639076299695,221.0271961502642 L368.8176161389502,221.54902793422872 L371.78500552668334,222.33177561017533 L377.2959722721994,223.1469614780982 L378.7958860620544,223.53833531607165 L384.33999617763385,226.4732865118285 L387.27494737339066,227.84274235569208 L390.53569084508234,228.98372049954958 L392.1011861969759,229.3750943375229 L396.34071685264405,229.9625076835262 L398.1015465344808,230.3863197134757 L400.5146659462731,231.23394377337473 L401.94970335217545,232.1471493953126 L403.7761145960513,233.61462499319111 L406.7110657918087,236.84293027290641 L408.11295982764824,239.28919305476157 L409.93937107152414,242.25658244249462 L411.2108071613726,245.09351388423664 L412.22203253732476,247.86556894202636 L412.54782481325964,249.72441837787818 L412.8087407052418,252.52891162764408 L414.3417978651591,258.1054599351995 L414.9940875951147,261.3662034068911 L415.18942192505847,262.9965751427369 L415.1245455411058,264.85542457858867 L414.733171703132,267.4645834984111 L414.43911244108745,270.8882231080699 L414.4066742491112,273.17088457387126 L414.6027137571413,275.5840039856638 L414.6027137571413,277.5733113675067 L414.6337415929452,282.274733669792 L415.1682665824651,286.15250796711723 L414.9010040877048,289.26093297213805 L414.3657739200984,290.93220503699735 L413.4300025993936,293.10556389940075 L412.0929849475066,295.245074213655 L408.2483540202444,298.8887293862827 L405.0729370970116,301.1283749888113 L401.12817088147506,303.4681558796142 L398.5204223178254,305.1062845744108 L394.2082583192538,308.0814309210948 L390.3304840219287,311.08972063784125 L389.22758549473855,312.1263324249059 L387.12121855054716,313.09595229375884 L383.5114119260689,314.06557216261166 L381.37190161181474,314.29898610922277 L377.6274059728257,314.3328346573719 L374.7192515443537,314.13185890273684 L370.23996033929615,313.73061257155337 L366.6964404549434,313.12909566382143 L365.1253036783584,312.76169788078687 L361.81590291870253,312.4937302079403 L358.3055264044115,312.05934050669424 L354.7958550682075,311.08972063784125 L351.3863190202773,309.45229712113115 L348.81171382669055,307.6470412198487 L347.04030647355694,305.40739561731993 L344.73366895281686,302.1311382277268 L342.8614211333218,298.6877536316477 L341.6315905505741,295.74081440842133 L340.23251722707994,293.7099015194784 L337.64662918410977,291.50057857466675 L335.4556408695454,289.9252107295631 L332.54819161915987,288.4048467752018 L328.7881820622695,286.92115208133515 L327.2840372038961,286.18565133717993 L323.930915402881,284.069411899778 z"/>
	<path id="eskisehir-gunyuzu" title="Günyüzü" class="district" d="M545.1960539408566,433.40638562102816 L540.4022533092476,432.9120557824348 L538.1054882817175,432.96212342657185 L535.2840707578769,433.28650534633357 L534.2855385874806,433.28650534633357 L532.4739360834196,433.7074966639373 L530.5629034691714,432.6603072055762 L528.4410226070781,431.25418210121785 L525.6795452205852,430.10333146415024 L519.1079906330651,427.9299726017469 L518.2899840527966,427.4701964893889 L517.8041163512398,426.7029627313439 L517.0883605935051,424.145986989918 L516.9607233598595,422.25399418400343 L516.9861097709712,419.85074726542115 L516.7562217147922,416.70565299990557 L516.5002420694155,414.63454496003567 L516.0143743678593,412.40970809732227 L515.4516422548816,409.0347257756277 L514.9657745533248,407.1942109700233 L513.6365138603886,404.7648724622427 L511.74452105447426,401.95262225352616 L511.10492453007464,401.2876393180146 L509.85252824855996,398.85830081023414 L509.39204695811617,397.60590452871924 L508.90617925655937,394.1794442067147 L508.82931484513733,389.7819536596843 L508.44640314420144,387.4294795633255 L507.62769138584645,385.23073428981036 L506.75820680526823,381.7527959674958 L506.119315458955,379.60552869429057 L504.6109395320626,375.02821773521845 L504.252709064152,373.4690689861029 L504.07359383019667,371.88382864778924 L502.76971954837194,366.99976522111626 L500.82624874214684,362.83216273026494 L500.16197098472185,361.1961495697276 L500.11049298441225,360.14754975519355 L500.6217470970798,359.53404481999206 L502.43758066965916,356.6703166109654 L505.4035597012193,352.78408017660286 L506.55370516020116,350.2778772574005 L507.47466774108943,348.9993893866876 L509.44352495842577,347.23503381441844 L512.8692801023437,344.678763251079 L517.1222091416544,342.15563605780216 L520.7616332457636,340.31441607411125 L521.656504237454,339.2919078487755 L523.1909717535437,337.8343047441072 L527.6138487116862,334.6130512452562 L528.4064688808429,334.1779563659237 L533.2136678960937,331.0589536896062 L537.4066567980572,328.52736435929205 L540.3472494185054,327.22349007746743 L543.9528249744658,326.32861908577684 L546.0747058365587,325.8942293845308 L554.0009075281276,325.05013121506397 L555.8675139229307,325.1523820375976 L558.1431236078669,324.82024315888503 L559.7798419464904,324.4620126909742 L561.0576246391169,323.9761449894181 L563.7429427922755,322.51924706283626 L564.5863357836557,321.8027861270147 L566.3020340679597,319.1703563303398 L568.8498424942622,321.3853206998432 L570.397003215909,321.90080588102967 L577.1004261055931,322.7195176393848 L579.0417813775581,323.0227442165533 L581.7447289828765,323.2201940807561 L583.4794670755153,323.67432876842247 L584.8305882891314,324.41194504683705 L588.0053000342776,325.74261609594646 L589.3874490836969,326.6896702660333 L590.2146229790893,327.5626807370443 L589.9847349229103,328.64230838738166 L589.1067882052943,329.44409587166206 L588.2062757889122,330.6428986186075 L587.6301452922914,331.8106735297496 L587.5363566067962,332.6533613430436 L587.9820291574252,333.8789608572737 L589.1547403151724,336.00718832214505 L589.4939309747491,337.2631104940921 L589.7252293871005,340.1451733333661 L588.7943943130028,344.6357473878064 L588.5405302018845,346.56299909804267 L589.9015239087104,347.4762047199806 L592.3315675945777,348.7159077959394 L593.3047133538631,349.72360728146 L593.3392670800978,350.50917566975244 L593.0148851603366,351.41462433273944 L591.5283697541246,353.4815013040906 L590.8281279142907,354.130265143614 L587.5490498123521,354.6767781606038 L586.0970881323743,355.03571380660094 L583.7403829674977,355.22329117759364 L582.6812054816667,355.90660874335254 L582.5105523847488,357.32472187518033 L583.6261441174944,357.9107248650107 L585.994837309841,359.89227528790286 L588.6815658191721,362.6932426472365 L588.40866189972,363.64946413244706 L587.0878633438213,364.9476969895803 L584.9469426733936,365.58517797972075 L584.4913976295546,365.9497550504094 L583.1480333748897,367.93130547330156 L583.1480333748897,368.75072240974305 L585.1521494965476,370.7548385314012 L586.4955137512133,371.256220150859 L587.8395831839642,370.9600453545548 L588.9551749167102,371.50655837154466 L589.9797986763048,372.3034096092201 L591.3922703834409,372.3718118836047 L591.9839147979635,372.89575920182847 L592.2342530186487,375.2186158185568 L594.5803805122301,377.1768953645965 L595.7869402181256,377.74667925843875 L596.4829509894403,378.99837036186705 L597.0513245271101,383.337331127723 L596.7805361419179,390.6986851720544 L595.7735418344836,394.32682642678037 L594.7926391162482,398.554369054979 L593.9548875495587,401.608495347344 L593.6234538489337,403.4779224544925 L593.2927253263931,406.25491375888726 L592.9880883930517,407.26120288823495 L592.3999698689622,408.11728908517125 L591.2124499713996,408.44660725153807 L590.2075711982249,408.0940182083188 L585.8213635005771,404.92212717551854 L584.0830995175069,402.93705086219416 L582.4118274526475,401.79536754025037 L581.8589678328798,401.60496945691193 L580.8618460186559,401.78126397852145 L579.5544458463986,402.51464918841754 L576.4573036907608,404.60550221470766 L574.722565598122,405.3501702739867 L570.8666518214768,406.3621008280259 L569.9823585010827,406.94316757125125 L569.5112995393423,408.83233966481987 L568.1693456408498,410.76382244357495 L566.1842693275252,412.5458074680049 L561.7910098490134,415.4335117319705 L560.1803830995877,416.5709639853958 L557.854000592428,419.176597014786 L556.3195330763372,419.36770027621094 L554.7455755874066,418.6589962993401 L553.5890835256474,418.689318957057 L552.6786986160554,419.914918471287 L551.177374470028,420.8556260385961 L547.9222724230277,421.39297174046214 L546.5147369624967,422.3068825404864 L545.4619060794442,426.3327442359637 L543.7433870827932,428.48142186534176 L543.414774094513,429.8967142848238 L543.6672278494583,431.2873254712805 L545.1960539408566,433.40638562102816 z"/>
	<path id="eskisehir-han" title="Han" class="district" d="M211.70464365854295,457.39513376549246 L210.85208335203865,457.3351936281452 L209.6631530983031,456.9191385571465 L203.49919144474433,453.17323256198523 L202.4294362876175,451.8651272116417 L201.23980085579544,449.58599163627264 L200.86112022337795,447.8322137353002 L201.35545006197114,444.53762171545964 L201.94145305180228,442.89103088362566 L203.16987327837805,437.9505532100378 L204.31437731266735,434.5734553540838 L205.87705195221488,431.5313170891882 L206.9101378488475,429.7726029416106 L208.58423062605286,427.2050495288881 L209.53340033039845,425.9491273569412 L209.95227611374312,424.5810818692506 L210.84503157117473,420.19910524012175 L210.87323869463202,418.55251440828795 L210.62219529585968,415.0082893458482 L210.92894776346066,413.5563276658713 L211.73849220669166,411.2955267207496 L212.3244951965223,408.5883480469122 L213.2179558320398,406.0207946341897 L214.19462748175727,404.1224552254974 L217.20926380128105,399.51764232105404 L219.27473041645976,397.50788477470434 L221.0052374405797,395.46992010489714 L224.88442209407773,392.00961123474343 L226.64313624165547,391.1443577226835 L230.5223208951535,389.860228427279 L233.76049866807938,388.8835567775617 L236.46767734191673,387.34838408338504 L242.19724929422944,383.6560716227932 L244.9523800779445,382.7146588773978 L247.38101340763822,385.45004467469266 L249.3900657759018,388.8835567775617 L249.8928577515324,389.5252688362208 L252.15365869665428,391.73036071251386 L253.74454045965913,394.04687072646425 L254.91654643931977,395.0792514450102 L256.08925759706693,395.8612939428704 L257.8197646211874,396.307671671586 L261.67144732931405,396.44729693270085 L263.0112856935471,396.6426312626444 L265.0760471306393,397.5635938435329 L268.1012611214601,399.26871445654126 L270.08915814713083,399.92100418649676 L273.88583696451536,400.8109389315822 L275.1911216025126,401.9977536510582 L276.7932862149009,406.03207748357266 L277.2086361078131,408.1384444277644 L277.6832209599865,409.7998439994135 L277.8002805223352,414.0584144634155 L275.47178248091524,413.33490174672966 L270.122301517193,413.33490174672966 L268.3600614791828,413.74390503686385 L266.81854218222924,414.31016304027406 L265.4025445846601,414.5619116171325 L264.6155658401949,415.3488903615979 L263.19956824262636,417.48840067585223 L262.2553347848852,419.6596440039964 L261.7835706450578,422.64889391240916 L261.94082535833326,424.1911183874501 L262.72780410279904,424.78910940475 L266.81854218222924,425.2926065584669 L267.76207046188335,425.8271315479874 L270.46854395763427,426.92861971900425 L272.1362901320616,429.6978540644482 L272.57702643608565,431.14487949781994 L272.671520299668,435.2045897414462 L272.5135604083061,435.83360859454933 L271.5700321286514,436.84060290198346 L268.7380369335143,437.87933022330736 L266.94406388161485,438.38282737702446 L264.4900441408087,438.6345759538831 L261.6263159317824,438.6345759538831 L259.9268367434658,438.47732124060724 L256.0250863912014,437.87933022330736 L253.31861289545049,437.5958486325591 L252.18609688863003,437.6586094822522 L250.23486912345516,438.0993457862762 L248.22088050858662,439.0753122579071 L247.05663148787693,439.9878127017585 L244.41362401990563,441.46657114901996 L242.30514154145416,443.4805597638883 L241.39264109760282,444.6130757707085 L240.76362224449946,445.68283092783565 L240.35391377627872,446.81605211274234 L240.4173798040583,448.7672798779176 L239.5260347028003,449.7989554183771 L237.23702663422054,451.3249607974299 L236.00790122955885,451.80095600577596 L231.17178991276313,452.4744010783246 L230.63726492324324,452.4349111054842 L227.3863939447615,454.11958155398565 L219.63719195288937,455.58635197377777 L217.04072623862274,456.3789721429346 L213.84979539748858,457.03337740714954 L212.67567388356846,457.39513376549246 L211.70464365854295,457.39513376549246 z"/>
	<path id="eskisehir-mihalgazi" title="Mihalgazi" class="district" d="M132.71270994996345,175.91765913888094 L133.4242346391797,175.86124489196584 L137.14898529174778,174.86976450243333 L139.0952768103183,173.61525268665923 L141.24748033012838,172.86705873694805 L144.61682122713134,172.75423024311795 L145.45880386233924,172.5483182418779 L147.25559762658415,171.29451160419026 L147.85499900005718,169.98429071958753 L148.0235365627155,168.28128564083863 L148.80910495100827,165.96054455836958 L150.04457695844795,164.87457030525434 L152.12203160109607,162.61024346970038 L152.515520973329,161.82396990332137 L154.04998848941923,159.54060325943365 L154.98575981012294,157.81855837235082 L157.30650089259194,154.7862926006654 L159.18862120529633,156.11696364977482 L162.17575557944986,157.85522763284564 L164.67420153970113,158.94120188596094 L167.41663911786083,160.78806329434337 L169.34459600618285,162.797820840693 L172.44103298373466,165.75745326947526 L173.66310660753248,166.4908384793713 L174.77658280601852,167.4689204852614 L178.3067043067299,169.31507671555744 L179.58307664318335,170.61895099738217 L180.23466119505252,172.0850162390878 L181.56533224416208,174.0404750727818 L183.24929751457736,175.29005064195073 L186.1546312307039,177.08190815959085 L187.34990808721687,177.95068756208303 L189.68545790950074,180.2319386717116 L190.6085360246491,181.9159039421267 L191.55911608516823,182.75788657733426 L192.4278954876604,184.0885576264436 L192.78118970896656,185.06593445424738 L192.97088261421828,187.70047978518147 L192.82702628458478,189.2603337123835 L191.3419212345452,188.73215532564103 L189.08746689220123,188.8139559836679 L186.27521668348456,189.48669587813023 L184.13077012262545,189.58330527597226 L178.4688952666103,189.42746091886931 L177.38503654775457,189.47541302874725 L174.49310121527037,189.35482757596617 L170.44537899911353,188.36687307686591 L168.1084188206561,186.92125799966703 L165.26514077613663,185.71681382803015 L162.90420454274044,185.06593445424738 L158.9284104914006,184.99400628943067 L157.00115878116392,184.5363457113321 L154.32712347738934,183.042073346169 L152.61636143968926,182.2952897526306 L148.6885194982276,181.66909161187317 L146.44816871761208,180.8736507303706 L144.4243076095336,180.36803804239418 L139.50921634705747,178.70522811457224 L133.9192696558594,176.754000349397 L132.71270994996345,175.91765913888094 z"/>
	<path id="eskisehir-mihaliccik" title="Mihalıçcık" class="district" d="M414.6027137571413,277.5733113675067 L414.6027137571413,275.5840039856638 L414.4066742491112,273.17088457387126 L414.43911244108745,270.8882231080699 L414.733171703132,267.4645834984111 L415.1245455411058,264.85542457858867 L415.18942192505847,262.9965751427369 L414.9940875951147,261.3662034068911 L414.3417978651591,258.1054599351995 L412.8087407052418,252.52891162764408 L412.54782481325964,249.72441837787818 L412.22203253732476,247.86556894202636 L411.2108071613726,245.09351388423664 L409.93937107152414,242.25658244249462 L408.11295982764824,239.28919305476157 L406.7110657918087,236.84293027290641 L403.7761145960513,233.61462499319111 L401.94970335217545,232.1471493953126 L400.5146659462731,231.23394377337473 L398.1015465344808,230.3863197134757 L396.34071685264405,229.9625076835262 L392.1011861969759,229.3750943375229 L390.53569084508234,228.98372049954958 L387.27494737339066,227.84274235569208 L384.33999617763385,226.4732865118285 L378.7958860620544,223.53833531607165 L377.2959722721994,223.1469614780982 L371.78500552668334,222.33177561017533 L368.8176161389502,221.54902793422872 L367.80639076299695,221.0271961502642 L364.64296186723465,218.87499263045393 L362.3603004014329,217.17903933256937 L360.43657458162875,216.0704993806881 L358.2187894997796,215.4506478427087 L353.75148632219145,214.70033835873807 L348.5338736606339,214.3096696988512 L345.7843843016098,214.24197260255306 L345.7498305753746,212.79565234726778 L345.9564477547012,208.31847667646977 L346.3012798389693,204.6332159967423 L346.40423583958915,201.84353148679168 L346.1976186602625,196.57373564683692 L346.1976186602625,194.4730101273367 L345.8189380278456,192.7509652402539 L345.26748876425023,191.88994279671263 L344.09689314076314,190.71864199513823 L342.78808261233286,189.92672700406786 L340.4461861872705,188.0664672120431 L339.34399283816686,187.06793504164622 L337.79401140417525,185.03631697461694 L336.932988960634,182.38414219152187 L335.899903064002,179.6628599559557 L335.2800515260226,178.56137178493884 L333.11868069108857,176.81323530865785 L332.1370727947661,175.3923014644843 L330.48413536015414,174.41069356816192 L330.09628741261326,173.99745920950897 L330.24296445459225,173.1963769033149 L329.96018804193017,172.05328322519807 L330.32758582496473,170.34463672175764 L331.10398689813354,169.62464989550386 L331.2309189536927,168.35391898374175 L330.99115840430323,167.81798363804853 L331.82397372438777,167.26723955254005 L331.8380772861161,166.12344069633687 L330.4122071953371,164.5706385499994 L329.9037737950156,164.42960293271165 L329.537081190067,163.70961610645796 L329.6499096838972,161.73300193017093 L329.3523245314208,161.29297080423325 L330.00602461754943,160.0772437832133 L331.11809045986246,158.86292711836626 L331.98616468426866,158.52303128070292 L333.61160017350875,159.47572687548129 L335.4394217735575,159.81914860357688 L338.82145587611643,159.63932819153501 L340.4814450915928,159.71478224678393 L341.75570189378675,160.38611178507338 L343.1822771626517,162.4868373045736 L344.7315534185574,163.77167177806453 L346.4000047710701,164.46345148086067 L349.76864048998715,165.1065738956926 L352.3763890536367,165.35127069168672 L356.2393546111474,165.2074143620533 L357.27596639821144,164.6418615367296 L358.1101920744678,163.3386924329913 L359.7969780572285,162.64056612741723 L366.0215850262214,161.51298636720202 L367.53701273397775,161.37759217460587 L374.1678022807589,161.00525814496643 L375.69028176937974,160.97564066533593 L377.50752569813153,161.2584170779978 L379.78172502689586,161.92622072585507 L382.3034418639994,162.04892171289532 L384.826569057276,161.61171129930352 L386.1854472298435,161.59055595671035 L388.13103357032696,161.91634823264488 L392.7802726942164,163.31048530953376 L394.8873448164937,165.0078489635912 L396.59105507332987,165.5980830219402 L397.5613801202689,165.52051343243195 L398.7658242919058,164.78360233210378 L399.7974998323654,164.4119734805507 L404.7400930402129,163.13348560983775 L406.00236181493784,162.74845837464227 L409.62627200114514,161.34233327028397 L411.5612806703328,161.09270022768476 L412.8792585138859,161.19918211873693 L416.1230777115026,162.5312635240192 L417.66741772080286,163.69480736664275 L418.69697772700346,164.14189027344474 L420.574161793103,164.42043561758788 L422.16997980271265,164.4697980836386 L423.3673721934852,164.75186931821403 L423.8532398950415,165.21587649909057 L423.7791961959655,166.06984716176754 L422.9386239169305,166.78912880993485 L421.79835095115965,167.35961788186353 L419.6814063356713,168.02248528311574 L418.76396964521496,168.06056489978334 L417.3529082942515,167.59514736273402 L415.54271614636406,167.6043146778577 L412.90605528117015,168.30878758620966 L411.77142374009077,168.75516531492525 L411.14875148976546,169.45188126432652 L411.61698973916083,170.54631765447903 L413.60911783334893,171.64921618166883 L414.7663150731953,173.64557534437608 L415.5448316806236,174.26965795087423 L416.55676223466276,173.9029653459262 L417.69703520043316,172.98059240886465 L418.6997984393484,172.58921857089132 L419.7836571582047,172.62941372181828 L421.96477297955903,173.66179444036425 L424.40892022715474,173.52992613820027 L425.7360653858323,173.1392574783133 L430.35921292052234,170.4426564757725 L431.5650674483329,169.15782200228162 L432.1581222190268,167.70374478804555 L432.736368249907,166.99010456456975 L433.726438283267,166.5754598497439 L435.1896828126266,167.00068223586638 L437.9222478975753,169.20013268746797 L442.4635947742389,172.70345742089427 L443.3542346974109,173.27676720516888 L445.63830651938514,173.68788602956243 L447.50420773610165,173.2781775613417 L448.86308590866855,172.18867741779422 L451.5970613497903,168.88773879517566 L452.1111361748044,168.4061021621382 L453.23448486650085,168.10922218774758 L456.46913674899366,168.3031461615182 L460.9040017346055,169.1105750704903 L464.59208312667886,169.9596094865622 L468.5347338079559,170.58369209306028 L474.41732940502607,171.40663491993394 L476.09424289457746,171.5779931949385 L479.93111686288864,171.64427993506374 L483.45348140464915,171.28675464523945 L487.04847928931207,169.60913597760225 L488.102015350451,168.98293783684497 L489.79303240173124,167.01901686611382 L490.4425014193409,165.79482770805657 L491.34089830146394,162.80628297773023 L492.2075621696966,162.1328379051815 L493.41553223176544,162.11520845302056 L494.7722948700729,162.8344901011878 L495.39708265465777,164.16093008177856 L495.38650498336085,165.08400819692656 L495.0663541321179,165.73488757070928 L493.6031096027583,167.70021889761333 L492.9987719826797,168.97518087789402 L492.8788917079856,170.09782439150422 L492.92684381786324,171.9552634711831 L492.29006800580896,173.33247627399743 L491.06658402583923,174.48050619871933 L490.8395166820052,175.52205423238897 L491.47065106936805,176.54879352624343 L493.0051185854577,177.0621631731706 L494.9944259673009,177.02337837841642 L496.27714490653284,176.79983692501543 L497.6910269698419,176.23075820925962 L499.696553447673,174.74494798113375 L500.85163515325877,174.042590607041 L502.31205897027303,173.4135717539379 L505.14264380923754,172.48837810453065 L505.91904488240584,172.6717244070046 L505.9959092938278,173.97700904500226 L505.92398112901134,175.3514011354708 L505.6214597299293,176.75823141791557 L504.4395812570583,178.62906888123695 L503.5447102653672,179.66144959978294 L501.8656812415579,181.10353878654956 L501.5194388011163,182.80795422147133 L502.44533762861005,184.96791470023248 L503.4981685116625,186.62155731293063 L504.62927416231,187.75125260740515 L506.18771773333907,188.6503546676142 L508.1156746216621,189.33296705528664 L509.8144486318923,189.38162434325093 L512.1711537967701,188.59676113304488 L513.1513513369189,188.63413557162602 L514.6054285511551,190.03250371703356 L514.8853842514718,191.23976860101624 L514.8677547993105,192.50203737574117 L514.3494489057784,194.5012172507943 L514.1710388499091,196.60758419498603 L514.2895087684309,197.95729505242923 L514.6681894008487,198.64413850862033 L515.9212908604494,199.67017262438827 L517.3485713074014,200.4952309855213 L520.8046491090363,203.40197505782072 L521.8729939099901,204.51122018778852 L522.3990567624736,205.43359312485 L523.3623300285486,207.66689212460062 L524.124627539988,208.76908547370402 L527.0045748450033,210.99603787067682 L529.1849854882712,213.33581876147957 L530.993062101899,214.56423898805542 L533.1911021973278,215.30679151307527 L535.2756086208399,215.76515726926027 L536.6034589576041,215.7313087211112 L541.4057217262505,215.35051255443443 L542.8203089676455,215.05997918282173 L545.6269177516706,213.9599013679777 L547.1310626100435,213.67077835253792 L548.5872553585393,213.63481427012954 L549.7472733107306,214.04522791643672 L552.2845040657367,216.3053236834721 L552.9382041518647,217.09441796219676 L552.5306112179029,217.78126141838783 L548.7769482637916,219.14860172799206 L547.9476588341397,219.53362896318743 L546.6592984702163,220.70422458667542 L546.1015026038441,221.5751195234269 L546.3722909890357,222.5285202962917 L548.0111248619193,223.44313627440238 L550.0582568468495,223.4240964660686 L551.9305046663434,222.857133284572 L553.5672230049676,222.21965229443174 L555.7701993470017,221.60121111262504 L559.1360143535727,221.42562176910195 L560.289685702986,221.55255382466086 L561.0999353243036,222.07085971819316 L561.0244812690546,222.6766076944438 L559.244611778884,224.8196438991303 L558.9759389279502,225.3943640395777 L557.1558742868535,226.71657295164988 L556.4083855152285,228.2298851251469 L555.3111284127309,229.95968697118047 L553.4910637716331,232.10272317586703 L552.1159665030779,232.87136729008495 L549.9722251203046,233.43762529349496 L544.1890596334227,235.69278481392524 L541.6405460290339,237.5431721127398 L540.2753212536895,238.9076917099983 L536.150029448024,241.18259621684888 L534.2996421492089,242.45685301904325 L531.6608657497566,244.48917626415883 L531.1453805685695,245.70278775091944 L531.296993857154,248.58414541210718 L531.8731243537742,252.80040519092285 L532.1763509309432,257.1386607786924 L532.2976415618108,257.98769519476434 L533.6022210217217,260.7174395673677 L535.0887364279342,264.6607954267316 L536.1197067903067,266.8151144808013 L537.1817049884827,268.39189268207764 L534.7121713297762,268.09994895429213 L533.4893925278908,267.53792201940064 L528.670910663257,265.97242666750725 L526.6900654184518,265.23833627952473 L522.3609771458059,263.820223147697 L518.6185970410763,263.4535305427489 L516.2054776292845,263.2899292266952 L511.575278313729,263.51840692670135 L504.85704668423,264.3660309866004 L500.06324605262046,263.3230725967578 L497.7805845868198,263.19261465076676 L493.9980093311631,263.2250528427429 L489.9545181835251,263.9753623267134 L486.21495879114167,265.50771430854434 L483.95415784601977,266.8553096317282 L481.91055175152087,268.50754188825357 L479.5623087236812,269.986300335515 L475.9539124553758,272.1166433346457 L469.43172033390596,274.9867181464504 L465.1266081161987,277.11706114558103 L462.08305949513067,278.81301444346553 L457.60447346816017,281.03009434722816 L451.9954869686281,283.94318502230556 L447.0825112404115,285.76959626618117 L442.94100033875816,286.63908084675984 L440.1040688970156,286.9980164927571 L436.58170435525636,286.89999673874206 L431.9515050397007,286.3781649547775 L431.36409169369773,286.2152688168103 L428.3642641139877,284.58489708096454 L425.5922090561988,282.6936094531365 L424.4836691043178,281.55192613119254 L422.201007638516,280.0195741493618 L420.6030740946462,279.1388067194001 L416.5588777689217,277.96468520548 L414.6027137571413,277.5733113675067 z"/>
	<path id="eskisehir-mahmudiye" title="Mahmudiye" class="district" d="M341.491965289459,332.00389232543375 L336.27364744981395,333.8458174872111 L331.2393810907302,335.4225956884875 L323.1728489599601,337.69820537342457 L319.79786663826513,339.02252981975596 L316.8544533054714,339.8214965916908 L306.453076530504,341.1768488738255 L302.74666050818274,341.8961305219928 L298.5691855241212,343.4171996544406 L294.945275337914,345.0496869245457 L288.97030141152095,348.06502842215673 L282.7739015659859,351.4118036203937 L277.7946390976437,353.6803615244662 L275.72000516734164,354.34393410380494 L271.87466906199285,356.28035312916495 L267.1443344581635,359.32319657214697 L263.8250612052972,361.61925642159065 L261.36328450554066,362.94710675835444 L255.80295529397335,364.3581681093177 L252.87082481056197,364.66209986457267 L250.1319131228348,364.6345979192018 L247.83585327339117,364.7453108787725 L245.03065484553892,364.76294033093353 L245.1124555035659,363.75453566732637 L245.76615558969456,360.2399280845169 L245.71185687703837,358.4142220187278 L245.3578574776462,357.242216039067 L245.22175810696368,355.7162106600142 L245.63005621901144,352.9371038213602 L246.965663514726,347.3506830205945 L247.6193636008546,344.2986722624887 L248.16446626167146,340.9469608176465 L248.24626691969846,338.1678539789925 L249.33576706324564,335.851343965042 L251.57047641916915,333.23583844244183 L252.25167845066912,331.2733278278835 L252.49708042474947,327.18611563888606 L252.11557907998656,323.8069022486728 L251.70657578985228,322.00869812825476 L252.08807713461525,320.8098953813093 L252.93288048216857,319.6378894016485 L252.90608371488372,318.4665886000742 L251.95197776393263,315.85037789938747 L251.05287570372369,314.10647249162514 L250.15377364351468,312.8801677993086 L248.38236629038101,311.49026179093835 L246.01155756377486,310.04605706991237 L242.032942800089,307.48485025996774 L237.72783058238178,305.33194156207105 L235.33022508849083,304.5146401598889 L233.55881773535768,303.6430400450509 L232.3050110976701,302.74323280675543 L231.869211040251,301.62623071783696 L231.81491232759538,299.8280265974188 L231.02440769269768,295.3861098309427 L230.83400960935944,293.39680244909977 L231.08223229578576,291.6536022194239 L234.115203245558,292.9948509398298 L236.10239509314115,293.583674642006 L237.5317910743521,293.85728373954413 L241.6514414553255,293.9207497673236 L248.70815856631583,292.89894672007426 L252.82710376920278,291.74950643917947 L258.0313180471184,290.6959703780404 L259.91555389408234,290.1847162653725 L261.22436442251205,289.514797083256 L262.50214711513854,288.55646006378606 L263.42804594263237,286.19340829613066 L264.1945745225912,283.44744482753924 L264.8560315676703,281.6323164330465 L266.84533894951346,282.2267815599142 L270.83805727492773,282.12805662781284 L278.62392852729516,282.0716423808978 L283.4029204190892,281.684499611443 L288.3885294902088,281.0385564842654 L291.43630917979647,280.573138947216 L292.65062584464334,280.4962745357942 L294.4326108690734,279.9793789984348 L296.2406874827013,279.2304798706371 L297.97119450682175,278.8426319230959 L299.2891723503749,279.2043882814389 L302.3630436291603,280.52166094690597 L303.8869334739536,281.37422125341016 L305.82405767740073,282.1753035596041 L307.39942552250415,282.4073071500426 L313.00488613160366,282.8466330978937 L315.5103838727199,282.8727246870919 L318.01588161383506,282.76906350838544 L319.5404766367154,282.8981110982037 L322.86116024575415,283.5186678142695 L323.930915402881,284.069411899778 L327.2840372038961,286.18565133717993 L328.7881820622695,286.92115208133515 L332.54819161915987,288.4048467752018 L335.4556408695454,289.9252107295631 L337.64662918410977,291.50057857466675 L340.23251722707994,293.7099015194784 L341.6315905505741,295.74081440842133 L342.8614211333218,298.6877536316477 L341.491965289459,301.951317815685 L338.31302247579373,308.05604450998294 L336.9047818371767,312.24550752151396 L335.9654846260411,314.7023479746656 L335.9295205436323,316.1105886132833 L336.2179383809853,321.31198217885355 L336.3624998887054,322.1793512251729 L337.085307427305,324.3823275672067 L337.84337387022646,325.93583489163063 L339.7579323749066,328.8616187722639 L341.491965289459,332.00389232543375 z"/>
	<path id="eskisehir-odunpazari" title="Odunpazarı" class="district" d="M66.46334426332724,286.4641966813231 L69.12257082728696,286.6771604634275 L73.34024096227522,286.39438405076567 L75.22447680923914,286.4070772563216 L79.31309935440927,286.9726300816452 L81.34119153100673,287.80685575790193 L82.50967162023487,288.12489107488574 L84.01381647860833,288.0593095128469 L84.41717834405111,287.7391586616039 L85.20133637617089,286.0982092544615 L86.16178892989996,285.05595604270536 L88.06294905093823,283.5701458145795 L89.05231390621111,283.14210271611137 L90.92667725996509,283.0017722769102 L93.77066048257105,283.16114252444527 L96.75920521289756,283.6202134587167 L98.41848925028692,282.9143301941918 L101.67711718771966,281.00964418272144 L102.74616716675996,280.89187944228627 L103.98869095506465,281.6837944333566 L104.53590915014102,283.07229008555396 L105.1148603591066,283.70060376057063 L106.09999414586153,283.7873406652026 L106.97018390452672,283.2859590457448 L107.9433296638117,281.3862092808796 L108.44823717370186,280.7593059620357 L109.64633474256082,280.8411066200626 L112.18215514139334,283.24153282629925 L115.65868310753507,283.31205063494303 L118.32214074001325,283.20768427815017 L121.4686453617017,279.8327019564555 L122.3522335040093,279.6909611610814 L124.29358877597431,278.14168490517613 L124.93177494420104,275.3809126967694 L124.46212633863318,269.1605367962957 L124.05241787041243,268.6379998342447 L123.38531940064138,266.599329986351 L123.23934753674885,264.33641350696996 L124.12928228183442,263.8068247640546 L126.37033824053538,263.2250528427429 L127.3392529313019,262.3421698785219 L127.96192518162724,260.8521285818774 L127.97743909952916,258.7097975552774 L128.2108530461401,257.2557203410412 L128.0007099763815,255.61265539963952 L127.2038587387058,255.68951981106125 L127.4274001921068,254.4660358310905 L128.95904699585105,252.14458957053495 L129.62332475327614,250.38940131338967 L130.78404788355385,250.0325812016518 L132.99337082836558,250.3477958062898 L136.39867580777732,249.91411128313007 L138.93026513809133,249.9416132285012 L142.32146655577418,250.45216216308268 L143.33480746598588,250.35837347758638 L144.1732642107618,248.32322952012487 L144.75080506355496,247.25347436299776 L145.45316243764776,246.7295270447739 L148.52632853834615,245.12454172003993 L149.02982569206327,244.69438308731245 L149.92117079332183,244.67322774471927 L151.25325219860395,245.5857281885707 L152.17562513566523,245.01664947281492 L153.50559100668835,245.02934267837085 L154.5753461638157,244.5886063743468 L156.5047134083113,245.4362304342458 L157.75922522408538,245.3184656938106 L158.3762560497193,245.65836153147387 L160.84720006459978,245.9517156154323 L161.9042620161712,245.86004246419526 L162.9197184606424,246.33392213828193 L163.5698926563385,246.1195480000046 L164.65586690945375,246.40443994692583 L176.50638465205245,246.06101821883033 L177.76794824869103,245.8953013685172 L178.97944420119185,244.70002451200403 L181.83753098552725,243.9468943156877 L183.5405360642758,243.3679431067217 L187.41055340265046,243.22479195517465 L191.96106759443805,243.26357674992877 L194.71267248772114,242.3369727443486 L195.96506876923573,240.9491822702377 L196.50876107388012,236.4247596676484 L198.35139141374376,234.9495271108192 L199.9845838619354,234.4220539021631 L204.32424980587786,233.94464833764425 L208.8712381072334,233.74155704875 L211.30057661501309,233.73944151449064 L217.6979522151833,234.09132537962347 L218.865021948239,234.19921762684857 L221.5129656628158,234.90580606945997 L223.27238498847953,234.59270699908123 L232.29020235785524,233.23876507311934 L241.08518345191533,232.61750317896707 L241.69586767477125,232.69718830273462 L243.3473947532102,235.5898288133052 L242.9658934084473,238.7997994627732 L244.200660237801,239.450678836556 L247.72514031382045,240.2588129236145 L254.09995021522428,241.8306548782858 L258.66104207830824,242.4335821421907 L257.3656299335209,248.82743185192842 L255.42780055198784,256.2409690746563 L254.9891797822233,259.3924099429498 L254.78256260289672,261.71667691585105 L254.8340406032069,263.8865098878222 L255.5829397310049,266.6508079866611 L257.31344675512423,270.5250563935541 L258.5277634199717,273.4698800825212 L259.4318017267856,276.5183649501947 L260.6975963919426,279.2558662817489 L262.1185302361161,280.6253221256124 L264.8560315676703,281.6323164330465 L264.1945745225912,283.44744482753924 L263.42804594263237,286.19340829613066 L262.50214711513854,288.55646006378606 L261.22436442251205,289.514797083256 L259.91555389408234,290.1847162653725 L258.0313180471184,290.6959703780404 L252.82710376920278,291.74950643917947 L248.70815856631583,292.89894672007426 L241.6514414553255,293.9207497673236 L237.5317910743521,293.85728373954413 L236.10239509314115,293.583674642006 L234.115203245558,292.9948509398298 L231.08223229578576,291.6536022194239 L226.96328709289884,290.4724289246394 L225.17495546569083,290.34479169099404 L218.9806711544153,290.4724289246394 L214.7975547456617,290.2806204851281 L212.05159127707063,290.2806204851281 L208.69846947605555,290.6642373641506 L204.22834558612195,291.27069051848775 L201.610019351176,292.13312331820214 L198.16169850849155,292.6119392388938 L191.71143455183926,294.2084624265905 L186.41131605416717,295.10262824019446 L181.96446304108645,296.0919930954676 L179.56967825954095,296.40368180967346 L176.45702218600127,297.6730023652628 L175.4986851665317,297.9360337915043 L174.32526883069804,299.08547407239905 L173.79850080012858,299.9958589819911 L173.9183810748233,302.0789550493304 L176.09738136191822,306.36573263678986 L176.8639099418771,309.1681103522965 L177.67839063171309,313.598039091303 L177.86949389313784,315.7777445564843 L177.4865821922019,317.7169842941902 L177.00776627151006,319.4418498936186 L175.95352503228466,320.85432160075493 L174.8280608063287,321.6208501807136 L173.72657263531207,322.07569004646643 L172.05036432384776,322.48257780234144 L169.0089312370381,323.3929627119334 L166.32643379622604,323.8238265227475 L163.57271336868396,324.47047482801156 L159.14207945159114,324.73421143233946 L156.1246224197208,324.63830721258387 L152.38929409585631,324.90133863882545 L151.16792565014498,325.3089315727869 L146.64138751329625,327.9667477805734 L144.17467456693427,329.26004439110164 L141.54083441408693,330.0505490259992 L136.33309424573875,331.23031196461073 L134.42770305618203,331.2719174717106 L132.10484643945355,331.15203719701606 L129.73403771284742,330.79310155101894 L127.05224545012186,329.8587405864879 L124.77663576518457,329.6676373250631 L122.83739602747852,330.0745250809381 L120.17887464160586,331.415773801344 L112.10811144231735,332.10966903839955 L110.63569959783368,332.17736613469765 L112.32037004633487,330.0632422315551 L114.27935477046184,326.6882599098605 L114.30897225009214,325.45349308050675 L113.70675016427367,323.79632457737625 L112.381015361769,321.95792530603114 L109.12661849285527,320.18017135011974 L103.49295076029848,316.32425757347414 L102.73982056398201,315.90185589969747 L98.31059700306217,313.82299090087685 L93.18818338317294,312.07555960268235 L88.54881675249396,311.23216661130186 L87.10249649720863,310.50865389461603 L81.28759799643706,305.59779370065837 L80.29329689455871,304.3926443509351 L77.43097904170486,301.28915559251925 L71.64569802056356,296.01653904021873 L68.75376268807942,292.8227874867389 L67.88004703898227,290.98509339348016 L67.51829068063918,288.4845318989693 L66.46334426332724,286.4641966813231 z"/>
	<path id="eskisehir-sivrihisar" title="Sivrihisar" class="district" d="M382.8287995383965,405.220417506082 L383.86188543502857,403.70428462023926 L384.8011826461642,401.3567467704856 L384.58398779554113,398.10587579200416 L383.60872650199724,394.7104433058029 L383.1397830745154,391.2423774766984 L383.06714973161286,388.5697525290966 L383.86188543502857,383.76537422619117 L385.27083125173317,379.0695933485973 L386.5711796431254,372.71241289935443 L386.6431078079419,372.0982027860665 L386.19814043539935,369.8303500600804 L386.4216818888004,369.0941441378386 L385.86106531008164,368.0455443233046 L383.6531527214429,367.21202382513434 L380.7273688408095,366.573132478821 L378.2402057299412,366.1690654352917 L375.8284966743213,365.53158444515134 L373.88502586809676,364.7805697830944 L371.15316596123404,363.58317739232183 L370.3647768605958,363.1382100197791 L369.36624469019955,362.1594228358026 L368.9769863864851,360.8971540610777 L368.46714262999,360.26108342711007 L366.89882656575105,359.25690983202185 L362.8193713357043,357.28170601190754 L360.9612270779387,354.07385089669896 L359.6608786865465,352.2319257349216 L359.0826326556668,350.1728057225213 L358.54105588528193,348.7645650839036 L355.8317616771856,344.6822891415112 L354.32197539412067,343.3389248868459 L349.2580915554061,338.50563428239656 L346.04318465933306,336.30265794036285 L345.06792336578866,335.7970452523863 L343.62301346667573,334.3521353532739 L341.491965289459,332.00389232543375 L339.7579323749066,328.8616187722639 L337.84337387022646,325.93583489163063 L337.085307427305,324.3823275672067 L336.3624998887054,322.1793512251729 L336.2179383809853,321.31198217885355 L335.9295205436323,316.1105886132833 L335.9654846260411,314.7023479746656 L336.9047818371767,312.24550752151396 L338.31302247579373,308.05604450998294 L341.491965289459,301.951317815685 L342.8614211333218,298.6877536316477 L344.73366895281686,302.1311382277268 L347.04030647355694,305.40739561731993 L348.81171382669055,307.6470412198487 L351.3863190202773,309.45229712113115 L354.7958550682075,311.08972063784125 L358.3055264044115,312.05934050669424 L361.81590291870253,312.4937302079403 L365.1253036783584,312.76169788078687 L366.6964404549434,313.12909566382143 L370.23996033929615,313.73061257155337 L374.7192515443537,314.13185890273684 L377.6274059728257,314.3328346573719 L381.37190161181474,314.29898610922277 L383.5114119260689,314.06557216261166 L387.12121855054716,313.09595229375884 L389.22758549473855,312.1263324249059 L390.3304840219287,311.08972063784125 L394.2082583192538,308.0814309210948 L398.5204223178254,305.1062845744108 L401.12817088147506,303.4681558796142 L405.0729370970116,301.1283749888113 L408.2483540202444,298.8887293862827 L412.0929849475066,295.245074213655 L413.4300025993936,293.10556389940075 L414.3657739200984,290.93220503699735 L414.9010040877048,289.26093297213805 L415.1682665824651,286.15250796711723 L414.6337415929452,282.274733669792 L414.6027137571413,277.5733113675067 L416.5588777689217,277.96468520548 L420.6030740946462,279.1388067194001 L422.201007638516,280.0195741493618 L424.4836691043178,281.55192613119254 L425.5922090561988,282.6936094531365 L428.3642641139877,284.58489708096454 L431.36409169369773,286.2152688168103 L431.9515050397007,286.3781649547775 L436.58170435525636,286.89999673874206 L440.1040688970156,286.9980164927571 L442.94100033875816,286.63908084675984 L447.0825112404115,285.76959626618117 L451.9954869686281,283.94318502230556 L457.60447346816017,281.03009434722816 L462.08305949513067,278.81301444346553 L465.1266081161987,277.11706114558103 L469.43172033390596,274.9867181464504 L475.9539124553758,272.1166433346457 L479.5623087236812,269.986300335515 L481.91055175152087,268.50754188825357 L483.95415784601977,266.8553096317282 L486.21495879114167,265.50771430854434 L489.9545181835251,263.9753623267134 L493.9980093311631,263.2250528427429 L497.7805845868198,263.19261465076676 L500.06324605262046,263.3230725967578 L504.85704668423,264.3660309866004 L511.575278313729,263.51840692670135 L516.2054776292845,263.2899292266952 L518.6185970410763,263.4535305427489 L522.3609771458059,263.820223147697 L526.6900654184518,265.23833627952473 L528.670910663257,265.97242666750725 L533.4893925278908,267.53792201940064 L534.7121713297762,268.09994895429213 L537.1817049884827,268.39189268207764 L538.030739404555,269.87840808829003 L543.8244825627331,278.371572961355 L545.038094049494,280.85944125030994 L546.3123508516891,283.04337778401 L547.737515764381,284.95441039825835 L550.4982879727876,288.3519584187188 L553.3190003185417,291.56686531479187 L554.8964836979047,294.93409067753566 L556.7771936544356,298.24067072484576 L557.1713882047549,299.21099577178506 L557.0197749161704,302.30531721507714 L557.5655827550737,304.4892537487771 L558.7791942418346,305.7635105509714 L560.2050643326137,306.97641685964567 L562.2070649200117,309.4332573127973 L563.0257766783673,311.6178990245837 L564.3606787959953,314.62054731663875 L565.3613265006516,317.35099686732855 L566.3020340679597,319.1703563303398 L564.5863357836557,321.8027861270147 L563.7429427922755,322.51924706283626 L561.0576246391169,323.9761449894181 L559.7798419464904,324.4620126909742 L558.1431236078669,324.82024315888503 L555.8675139229307,325.1523820375976 L554.0009075281276,325.05013121506397 L546.0747058365587,325.8942293845308 L543.9528249744658,326.32861908577684 L540.3472494185054,327.22349007746743 L537.4066567980572,328.52736435929205 L533.2136678960937,331.0589536896062 L528.4064688808429,334.1779563659237 L527.6138487116862,334.6130512452562 L523.1909717535437,337.8343047441072 L521.656504237454,339.2919078487755 L520.7616332457636,340.31441607411125 L517.1222091416544,342.15563605780216 L512.8692801023437,344.678763251079 L509.44352495842577,347.23503381441844 L507.47466774108943,348.9993893866876 L506.55370516020116,350.2778772574005 L505.4035597012193,352.78408017660286 L502.43758066965916,356.6703166109654 L500.6217470970798,359.53404481999206 L500.11049298441225,360.14754975519355 L500.16197098472185,361.1961495697276 L500.82624874214684,362.83216273026494 L502.76971954837194,366.99976522111626 L504.07359383019667,371.88382864778924 L504.252709064152,373.4690689861029 L504.6109395320626,375.02821773521845 L506.119315458955,379.60552869429057 L506.75820680526823,381.7527959674958 L507.62769138584645,385.23073428981036 L508.44640314420144,387.4294795633255 L508.82931484513733,389.7819536596843 L508.90617925655937,394.1794442067147 L509.39204695811617,397.60590452871924 L509.85252824855996,398.85830081023414 L511.10492453007464,401.2876393180146 L511.74452105447426,401.95262225352616 L513.6365138603886,404.7648724622427 L514.9657745533248,407.1942109700233 L515.4516422548816,409.0347257756277 L516.0143743678593,412.40970809732227 L516.5002420694155,414.63454496003567 L516.7562217147922,416.70565299990557 L516.9861097709712,419.85074726542115 L516.9607233598595,422.25399418400343 L517.0883605935051,424.145986989918 L517.8041163512398,426.7029627313439 L518.2899840527966,427.4701964893889 L519.1079906330651,427.9299726017469 L525.6795452205852,430.10333146415024 L528.4410226070781,431.25418210121785 L530.5629034691714,432.6603072055762 L532.4739360834196,433.7074966639373 L530.8661300463399,434.29208929759494 L530.0424820413805,434.8534110543999 L527.3832554774208,437.3441000557007 L526.0356601542368,439.14159899803224 L525.3424700952679,440.3961108138064 L520.6614979574892,443.29791863950066 L518.7328358910796,444.7964220731825 L513.2091759400065,448.6530410279145 L509.80175542633634,450.84402934247896 L506.8964217102098,451.7487728273795 L505.5227347978275,451.94904340392793 L503.85005237679565,451.8489081156537 L500.60482282300586,450.9998736995818 L497.1099602266168,449.67695960942325 L495.46195903860985,448.8779928374884 L492.6405415147692,448.1537749427161 L487.64788066278504,448.17916135382785 L484.4174598488108,448.50988987636754 L478.7633419517465,450.3257234489465 L475.1119298201679,451.7487728273795 L471.0486936861097,453.0413642598212 L469.4408876490299,453.3833756317439 L467.9064201329397,452.32067225548104 L463.4221926812777,450.10288717363204 L462.2896766744573,448.99364204366435 L460.61205800681995,447.75393896770544 L456.99237888913126,446.78855016737117 L452.9227961522949,445.82386654512334 L448.5591541534136,444.60743434601704 L444.8252361857222,444.0200210000137 L441.55250468656106,443.68435623086896 L438.23746250221376,443.5581293533965 L434.9231254959523,443.76827242315517 L432.48955591965307,443.51652384629665 L427.7902491516276,442.886799815107 L426.07031979880355,442.3416971542901 L424.8538875996977,441.41861903914213 L424.4343066382665,440.70497881566644 L424.39199595308037,435.9224610334407 L423.80458260707724,433.2787483873828 L422.62975591507063,431.516508349373 L421.45492922306397,430.21615995798044 L420.1545808316717,429.1252494582601 L414.36436356392494,425.8948286442854 L412.22485324967073,426.6077636896747 L409.7912836733716,426.3144096057163 L405.9311388282068,425.0972722285236 L404.04337709081204,425.0133560362373 L402.02938847594345,425.1811884208097 L400.5605025218918,425.0133560362373 L397.83851510823894,422.71659100870727 L396.58047740203347,422.0558391417144 L394.7237435004404,420.1673722262321 L393.7167491930066,418.56238690149803 L392.0800308543831,415.32138841622685 L391.32478512380715,414.3461271226824 L390.00328138982087,413.08738423838975 L386.0387701878639,410.47540460622156 L384.9690150307371,408.80765843179466 L383.55231225508265,406.2901726632092 L382.8287995383965,405.220417506082 z"/>
	<path id="eskisehir-saricakaya" title="Sarıcakaya" class="district" d="M157.30650089259194,154.7862926006654 L158.4862638312035,152.33438839411878 L159.66532159172863,149.1152504295271 L161.44307554763972,146.0082357806792 L162.30409799118146,145.12817352880393 L164.9619141989682,143.1445075716525 L167.32002972001845,141.32867399907343 L169.82834817348018,139.906329798727 L172.57995306676327,137.88528940299426 L174.80690546373586,137.30492783785547 L176.95910898354592,136.61244295697287 L178.88706587186851,136.23799339307402 L181.24588657100574,136.0884956387491 L183.7598464491584,136.26267462609934 L185.15750941647954,135.71404607485024 L187.32875274462404,136.58705654586112 L188.77577817799533,136.03842799461194 L190.19812237834185,135.8388625961498 L191.14658690460203,135.96367911744946 L193.84177755096997,135.71404607485024 L195.25636479236553,135.4488991143494 L196.89026241864303,134.44331516308813 L198.60807623720703,134.48492067018796 L201.01696458048093,135.36498292206312 L206.52652096982513,136.2027344887521 L210.1708813205392,135.86777489769383 L213.04095613234347,135.15554503039098 L215.51260532531046,134.35939897080186 L217.20926380128105,133.9616785300506 L218.25715843772906,133.91936784486427 L220.8543293300822,134.35939897080186 L221.98543498072968,134.317793463702 L223.53541641472128,133.79384614547826 L227.9766280031111,134.317793463702 L233.33950735047515,134.61114754766044 L234.5122185082223,134.8205854393327 L237.1305447431688,136.05605744677285 L239.20799938581644,136.58705654586112 L245.02642377701994,136.88534687642456 L243.94609094859672,138.46988203665182 L243.55048604210432,139.6031032215584 L243.91929418131187,140.78921276294793 L245.47421186190903,143.9519364806246 L249.53956353022676,151.13911153760557 L251.73760362565505,152.57908519011295 L252.6832474395698,154.58531684603042 L254.43984605288804,154.99855120468334 L254.44196158714695,155.36242309728564 L251.43367187040064,156.56475173466328 L249.54026870831277,157.59078585043127 L248.3830714684675,158.61611478811278 L246.93675121318222,160.98339762428674 L243.75428250908553,164.3499178089441 L240.80875364203223,166.87445535839385 L239.6247596349016,167.19037514111832 L237.78424482929745,167.34833503248046 L234.3119479316742,168.05844936552404 L232.0765333976641,168.6895837528865 L231.05120445998247,169.39969808593008 L228.94695305005004,171.5300410850607 L227.50063279476475,172.37131854218174 L225.39638138483232,172.58216679002697 L222.6609955875371,173.39735265794982 L221.8719013088124,173.9495070996312 L221.58277829337337,174.73860137835578 L221.3458384563294,177.02690426884865 L221.26756368873492,180.23546456214376 L221.0750500711372,184.07374888662844 L219.9509962013543,184.94111793294778 L217.70218328370234,187.2541020564659 L215.87083579322103,188.66798411977516 L210.76252573506127,191.71999487788085 L209.2210064381066,192.42658332049226 L208.16041859610314,193.35812357267744 L206.7472417108801,194.19305442702068 L203.0203755240531,194.48217744246045 L201.1897332116588,194.03297900139913 L197.88879458903986,193.41453781959257 L196.49113162171872,192.93219600846862 L194.52227440438293,191.52113465750523 L193.29667489015262,189.5741379608486 L192.82702628458478,189.2603337123835 L192.97088261421828,187.70047978518147 L192.78118970896656,185.06593445424738 L192.4278954876604,184.0885576264436 L191.55911608516823,182.75788657733426 L190.6085360246491,181.9159039421267 L189.68545790950074,180.2319386717116 L187.34990808721687,177.95068756208303 L186.1546312307039,177.08190815959085 L183.24929751457736,175.29005064195073 L181.56533224416208,174.0404750727818 L180.23466119505252,172.0850162390878 L179.58307664318335,170.61895099738217 L178.3067043067299,169.31507671555744 L174.77658280601852,167.4689204852614 L173.66310660753248,166.4908384793713 L172.44103298373466,165.75745326947526 L169.34459600618285,162.797820840693 L167.41663911786083,160.78806329434337 L164.67420153970113,158.94120188596094 L162.17575557944986,157.85522763284564 L159.18862120529633,156.11696364977482 L157.30650089259194,154.7862926006654 z"/>
	<path id="eskisehir-seyitgazi" title="Seyitgazi" class="district" d="M110.63569959783368,332.17736613469765 L112.10811144231735,332.10966903839955 L120.17887464160586,331.415773801344 L122.83739602747852,330.0745250809381 L124.77663576518457,329.6676373250631 L127.05224545012186,329.8587405864879 L129.73403771284742,330.79310155101894 L132.10484643945355,331.15203719701606 L134.42770305618203,331.2719174717106 L136.33309424573875,331.23031196461073 L141.54083441408693,330.0505490259992 L144.17467456693427,329.26004439110164 L146.64138751329625,327.9667477805734 L151.16792565014498,325.3089315727869 L152.38929409585631,324.90133863882545 L156.1246224197208,324.63830721258387 L159.14207945159114,324.73421143233946 L163.57271336868396,324.47047482801156 L166.32643379622604,323.8238265227475 L169.0089312370381,323.3929627119334 L172.05036432384776,322.48257780234144 L173.72657263531207,322.07569004646643 L174.8280608063287,321.6208501807136 L175.95352503228466,320.85432160075493 L177.00776627151006,319.4418498936186 L177.4865821922019,317.7169842941902 L177.86949389313784,315.7777445564843 L177.67839063171309,313.598039091303 L176.8639099418771,309.1681103522965 L176.09738136191822,306.36573263678986 L173.9183810748233,302.0789550493304 L173.79850080012858,299.9958589819911 L174.32526883069804,299.08547407239905 L175.4986851665317,297.9360337915043 L176.45702218600127,297.6730023652628 L179.56967825954095,296.40368180967346 L181.96446304108645,296.0919930954676 L186.41131605416717,295.10262824019446 L191.71143455183926,294.2084624265905 L198.16169850849155,292.6119392388938 L201.610019351176,292.13312331820214 L204.22834558612195,291.27069051848775 L208.69846947605555,290.6642373641506 L212.05159127707063,290.2806204851281 L214.7975547456617,290.2806204851281 L218.9806711544153,290.4724289246394 L225.17495546569083,290.34479169099404 L226.96328709289884,290.4724289246394 L231.08223229578576,291.6536022194239 L230.83400960935944,293.39680244909977 L231.02440769269768,295.3861098309427 L231.81491232759538,299.8280265974188 L231.869211040251,301.62623071783696 L232.3050110976701,302.74323280675543 L233.55881773535768,303.6430400450509 L235.33022508849083,304.5146401598889 L237.72783058238178,305.33194156207105 L242.032942800089,307.48485025996774 L246.01155756377486,310.04605706991237 L248.38236629038101,311.49026179093835 L250.15377364351468,312.8801677993086 L251.05287570372369,314.10647249162514 L251.95197776393263,315.85037789938747 L252.90608371488372,318.4665886000742 L252.93288048216857,319.6378894016485 L252.08807713461525,320.8098953813093 L251.70657578985228,322.00869812825476 L252.11557907998656,323.8069022486728 L252.49708042474947,327.18611563888606 L252.25167845066912,331.2733278278835 L251.57047641916915,333.23583844244183 L249.33576706324564,335.851343965042 L248.24626691969846,338.1678539789925 L248.16446626167146,340.9469608176465 L247.6193636008546,344.2986722624887 L246.965663514726,347.3506830205945 L245.63005621901144,352.9371038213602 L245.22175810696368,355.7162106600142 L245.3578574776462,357.242216039067 L245.71185687703837,358.4142220187278 L245.76615558969456,360.2399280845169 L245.1124555035659,363.75453566732637 L245.03065484553892,364.76294033093353 L244.89455547485636,366.5611444513516 L244.84025676220074,371.9021632780366 L244.84025676220074,381.24859363569226 L244.9523800779445,382.7146588773978 L242.19724929422944,383.6560716227932 L236.46767734191673,387.34838408338504 L233.76049866807938,388.8835567775617 L230.5223208951535,389.860228427279 L226.64313624165547,391.1443577226835 L224.88442209407773,392.00961123474343 L221.0052374405797,395.46992010489714 L219.27473041645976,397.50788477470434 L217.20926380128105,399.51764232105404 L214.19462748175727,404.1224552254974 L213.2179558320398,406.0207946341897 L212.3244951965223,408.5883480469122 L211.73849220669166,411.2955267207496 L210.92894776346066,413.5563276658713 L210.62219529585968,415.0082893458482 L210.87323869463202,418.55251440828795 L210.84503157117473,420.19910524012175 L209.95227611374312,424.5810818692506 L209.53340033039845,425.9491273569412 L208.58423062605286,427.2050495288881 L206.9101378488475,429.7726029416106 L205.87705195221488,431.5313170891882 L204.31437731266735,434.5734553540838 L203.16987327837805,437.9505532100378 L201.94145305180228,442.89103088362566 L201.35545006197114,444.53762171545964 L200.86112022337795,447.8322137353002 L199.87246054619163,446.9895259220061 L193.59002897411114,444.96778034818703 L192.4003935422896,444.6906453602167 L189.76443785518222,444.7498803194775 L187.94155250173839,444.96778034818703 L185.6624169263697,444.90854538892614 L183.48200628310178,444.73013533305726 L180.68738552654597,445.18638555498296 L178.0711748258595,444.8888004025059 L176.268034458836,444.274590289218 L174.12711378840885,443.34305003703275 L171.0158680710427,441.75710452063265 L168.93488753796262,440.3305292517676 L167.70223624286783,438.4343053773345 L165.69388905269074,436.98093334118477 L163.76522698628224,435.3428046463883 L162.12991900383062,433.18213898954065 L162.05093905814965,431.33880347159044 L162.40775916988775,429.87273822988493 L162.36756401896105,428.20781276780355 L162.07068404457058,427.434937585067 L160.4255035689096,426.5231423193021 L158.97847813553722,425.11560685877083 L158.0666828697723,423.41119142384906 L156.14436740614116,422.1827711972732 L155.47092233359214,421.46913097379746 L153.409686786933,418.7739403274296 L152.20030636869055,416.63301965700236 L151.05086608779573,415.28542433381847 L151.01137611495554,414.25515914953183 L150.5953210439568,412.5500385365236 L149.94091577974223,411.26238335068695 L148.43465538710927,409.02273774815825 L147.24572513337424,408.5664875262328 L145.02582451726556,408.36833248394333 L140.60647344955566,407.85355248084335 L138.20816277757814,407.19914721662843 L137.21738756613232,407.0404821471797 L135.73087215992027,406.5249969659932 L132.9165064169441,406.6046820897608 L132.20286619346837,406.9417572150784 L131.1211230088716,405.8987988252358 L129.73544806901987,404.30157045945265 L127.32514936957352,402.1627653232848 L126.17994015719718,401.2587270164706 L124.46283151671913,399.21018467536686 L123.4085902774937,397.7638644200815 L119.09995216935506,393.6963972175043 L117.08102730788157,391.4969467659027 L116.11704886372002,390.1408893056815 L115.18268789918928,387.2489539731973 L115.09242510412487,386.0430994453875 L115.60508957296594,383.1511641129033 L115.27365587233965,379.62597885879734 L113.58616471149244,376.7030156905098 L112.50160081455023,375.61845179356743 L110.4227358157291,373.8110803580256 L108.64498185981802,371.8224781542691 L107.25860174187977,370.677268941893 L104.78836290508582,369.4417969344528 L103.73412166586037,368.6886667381365 L101.80545959945127,366.42927614918756 L100.99168408770122,364.0189774497409 L100.90142129263681,361.277245049668 L100.96206660807094,359.5594312311039 L101.65455148895329,358.23369642859956 L102.43800434298655,357.5708290273474 L107.2289842622495,356.00462849736743 L110.5129986107935,355.1605303279007 L112.10952179848978,354.6182483794295 L113.94792106983556,353.5640071402039 L115.00216230906098,352.72061414882353 L115.81593782081103,350.8222747401311 L116.65933081219139,347.3873522810893 L116.81023892268884,345.94103202580396 L115.75529250537747,344.5250344282354 L111.38671425989065,341.60277643803437 L110.8747549691366,341.1204346269104 L110.00103932003891,339.46326612378004 L109.51869750891515,338.1981766367094 L109.18726380828886,336.6312709286432 L109.12661849285527,335.33585878385554 L109.48837485119836,333.94947866591747 L110.63569959783368,332.17736613469765 z"/>
	<path id="eskisehir-tepebasi" title="Tepebaşı" class="district" d="M66.46334426332724,286.4641966813231 L66.33852774202758,284.6800961226337 L65.85195486238536,283.86138436427865 L62.734362542240156,280.00476540954656 L60.87339757212968,278.95546041692614 L59.55683008474897,278.7502535937725 L56.108509242065075,278.5288276746308 L55.242550551918335,278.02885641134594 L54.79758317937528,277.2454035573128 L54.67065112381665,274.96133173533855 L54.368834902821206,273.87253676987757 L58.1443583776124,271.27536587752456 L59.01454813627813,269.2042578376548 L59.94467803228986,266.3835454919009 L60.27470137674317,264.10299956035885 L61.20483127275543,260.7724434581098 L63.33517427188616,255.31083917864385 L63.87534068609804,252.46050935325948 L64.41550710030994,250.8400101106239 L65.82586327318647,250.45004662882337 L68.0168515877508,250.1496407640006 L69.30662230784722,249.63979700750554 L72.42774051842383,248.19911817691167 L76.809011969466,246.66888172934017 L79.53946152015573,245.1682627613991 L81.97021038410949,243.30800296937448 L82.90034028012177,242.10778986625616 L83.95035045082874,240.03738700447275 L83.95035045082874,237.63625562014974 L83.62032710637546,235.9558162401668 L82.69019721036317,232.5053798632233 L80.79961476062184,229.05423830819336 L79.38432234113982,226.25891237355125 L80.27707779857083,226.00786897477917 L82.30658033134075,224.80977140592026 L84.28672039805998,223.24568641019965 L85.80849470859431,221.84872862096495 L88.20468984631229,220.7253799292685 L88.85345368583542,219.97718597955722 L89.52689875838443,218.37995761377408 L90.02616484358313,217.80594265141326 L91.12412712416722,215.73412943345693 L91.39914657787892,214.56141827570968 L91.52325792109157,212.7145568673273 L90.60017980594374,210.0941150981219 L89.80191821209507,207.12461017612952 L89.90134832228345,205.97658025140765 L90.55011216180658,203.35613848220223 L91.09944589114244,201.58473112906876 L92.74674190106238,198.71465631726417 L94.21844856745953,197.16749559561808 L96.63932493820285,196.69291074344505 L98.68575174504711,196.69291074344505 L101.88020847661377,196.99261143018137 L104.50065024581926,197.01729266320672 L106.12255984462792,197.14210918450638 L107.42008752367421,196.91786255301895 L108.79306925797,196.4185964678204 L110.81410965370301,194.59712147054992 L111.93745834539949,193.34895625755377 L113.37672681982036,192.03450430443243 L113.875287726932,191.06982068218457 L113.9091362750813,189.97185840159986 L113.53398153309578,187.8640811012352 L113.37672681982036,186.7111149299083 L113.4430135599454,184.61462047892678 L113.90278967230333,181.47657799427543 L114.2391596195346,179.9604451084327 L114.5014858676893,177.86395065745114 L115.00709855566593,176.23569445586463 L115.86812099920715,175.63699826047846 L119.36791984220179,175.52416976664827 L120.41581447864927,175.3372975737421 L123.16741937193237,175.31896294349463 L126.34918289794257,175.50583513640083 L128.59517510324903,175.8055358231372 L131.7395641906785,175.8055358231372 L132.71270994996345,175.91765913888094 L133.9192696558594,176.754000349397 L139.50921634705747,178.70522811457224 L144.4243076095336,180.36803804239418 L146.44816871761208,180.8736507303706 L148.6885194982276,181.66909161187317 L152.61636143968926,182.2952897526306 L154.32712347738934,183.042073346169 L157.00115878116392,184.5363457113321 L158.9284104914006,184.99400628943067 L162.90420454274044,185.06593445424738 L165.26514077613663,185.71681382803015 L168.1084188206561,186.92125799966703 L170.44537899911353,188.36687307686591 L174.49310121527037,189.35482757596617 L177.38503654775457,189.47541302874725 L178.4688952666103,189.42746091886931 L184.13077012262545,189.58330527597226 L186.27521668348456,189.48669587813023 L189.08746689220123,188.8139559836679 L191.3419212345452,188.73215532564103 L192.82702628458478,189.2603337123835 L193.29667489015262,189.5741379608486 L194.52227440438293,191.52113465750523 L196.49113162171872,192.93219600846862 L197.88879458903986,193.41453781959257 L201.1897332116588,194.03297900139913 L203.0203755240531,194.48217744246045 L206.7472417108801,194.19305442702068 L208.16041859610314,193.35812357267744 L209.2210064381066,192.42658332049226 L210.76252573506127,191.71999487788085 L215.87083579322103,188.66798411977516 L217.70218328370234,187.2541020564659 L219.9509962013543,184.94111793294778 L221.0750500711372,184.07374888662844 L222.906397561618,183.3995986359932 L226.6008255564693,183.30298923815116 L228.46390606083926,183.72045466532273 L233.3789973233159,184.45948129991024 L235.3386872255283,184.58782371164213 L243.56247406957425,186.13004818668307 L248.06009990487868,186.90080783516026 L249.47398196818773,187.3824444681978 L252.0436509151695,187.73644386758994 L253.13597177106269,187.7040056756137 L257.280303385062,186.64412301169662 L260.1073623335935,185.84092517124316 L263.5444003268951,185.35858336011927 L265.76148023065775,184.8452137131921 L266.9821434982826,184.1703582844705 L268.331149177639,183.1746468264194 L269.7125930489723,182.6605720014057 L271.54394053945305,182.62813380942956 L275.62410094758627,182.14649717639202 L277.39057205411444,182.11405898441586 L279.4144331621929,182.33901079398981 L280.4750210041968,182.7564762211613 L281.791588491577,184.07374888662844 L282.7231287437623,185.8084869792671 L282.88390934747014,188.6038129139092 L282.5947863320306,193.00482935137174 L281.53490366811315,195.44615588662185 L279.99267919307255,197.53418820056612 L278.90035833717934,198.81972785214353 L278.2262080865438,200.26534292934235 L276.8764972291009,202.57832705286063 L276.39486059606304,204.60218816093908 L276.68398361150315,206.4970016791993 L275.8483475790732,208.5215679653641 L274.9654646148527,210.33740153794326 L273.6890922783987,211.6871123953865 L272.0989156934798,212.7949471691814 L268.62943950820306,214.91541767510182 L266.36440749456216,216.1445430797641 L263.3765679423227,218.31296569556247 L261.9549289200627,219.1316774539175 L260.12358142958146,220.67390192895857 L259.0397227107257,222.0955409512185 L256.5821770794877,226.11928711243652 L256.2690780091093,227.20314583129243 L256.8289894097415,230.06475850605977 L258.09407889681205,231.6189710085702 L258.6779663523831,233.69078422652646 L258.89516120300624,235.93184018522788 L259.01574665578687,239.56985393316404 L258.66104207830824,242.4335821421907 L254.09995021522428,241.8306548782858 L247.72514031382045,240.2588129236145 L244.200660237801,239.450678836556 L242.9658934084473,238.7997994627732 L243.3473947532102,235.5898288133052 L241.69586767477125,232.69718830273462 L241.08518345191533,232.61750317896707 L232.29020235785524,233.23876507311934 L223.27238498847953,234.59270699908123 L221.5129656628158,234.90580606945997 L218.865021948239,234.19921762684857 L217.6979522151833,234.09132537962347 L211.30057661501309,233.73944151449064 L208.8712381072334,233.74155704875 L204.32424980587786,233.94464833764425 L199.9845838619354,234.4220539021631 L198.35139141374376,234.9495271108192 L196.50876107388012,236.4247596676484 L195.96506876923573,240.9491822702377 L194.71267248772114,242.3369727443486 L191.96106759443805,243.26357674992877 L187.41055340265046,243.22479195517465 L183.5405360642758,243.3679431067217 L181.83753098552725,243.9468943156877 L178.97944420119185,244.70002451200403 L177.76794824869103,245.8953013685172 L176.50638465205245,246.06101821883033 L164.65586690945375,246.40443994692583 L163.5698926563385,246.1195480000046 L162.9197184606424,246.33392213828193 L161.9042620161712,245.86004246419526 L160.84720006459978,245.9517156154323 L158.3762560497193,245.65836153147387 L157.75922522408538,245.3184656938106 L156.5047134083113,245.4362304342458 L154.5753461638157,244.5886063743468 L153.50559100668835,245.02934267837085 L152.17562513566523,245.01664947281492 L151.25325219860395,245.5857281885707 L149.92117079332183,244.67322774471927 L149.02982569206327,244.69438308731245 L148.52632853834615,245.12454172003993 L145.45316243764776,246.7295270447739 L144.75080506355496,247.25347436299776 L144.1732642107618,248.32322952012487 L143.33480746598588,250.35837347758638 L142.32146655577418,250.45216216308268 L138.93026513809133,249.9416132285012 L136.39867580777732,249.91411128313007 L132.99337082836558,250.3477958062898 L130.78404788355385,250.0325812016518 L129.62332475327614,250.38940131338967 L128.95904699585105,252.14458957053495 L127.4274001921068,254.4660358310905 L127.2038587387058,255.68951981106125 L128.0007099763815,255.61265539963952 L128.2108530461401,257.2557203410412 L127.97743909952916,258.7097975552774 L127.96192518162724,260.8521285818774 L127.3392529313019,262.3421698785219 L126.37033824053538,263.2250528427429 L124.12928228183442,263.8068247640546 L123.23934753674885,264.33641350696996 L123.38531940064138,266.599329986351 L124.05241787041243,268.6379998342447 L124.46212633863318,269.1605367962957 L124.93177494420104,275.3809126967694 L124.29358877597431,278.14168490517613 L122.3522335040093,279.6909611610814 L121.4686453617017,279.8327019564555 L118.32214074001325,283.20768427815017 L115.65868310753507,283.31205063494303 L112.18215514139334,283.24153282629925 L109.64633474256082,280.8411066200626 L108.44823717370186,280.7593059620357 L107.9433296638117,281.3862092808796 L106.97018390452672,283.2859590457448 L106.09999414586153,283.7873406652026 L105.1148603591066,283.70060376057063 L104.53590915014102,283.07229008555396 L103.98869095506465,281.6837944333566 L102.74616716675996,280.89187944228627 L101.67711718771966,281.00964418272144 L98.41848925028692,282.9143301941918 L96.75920521289756,283.6202134587167 L93.77066048257105,283.16114252444527 L90.92667725996509,283.0017722769102 L89.05231390621111,283.14210271611137 L88.06294905093823,283.5701458145795 L86.16178892989996,285.05595604270536 L85.20133637617089,286.0982092544615 L84.41717834405111,287.7391586616039 L84.01381647860833,288.0593095128469 L82.50967162023487,288.12489107488574 L81.34119153100673,287.80685575790193 L79.31309935440927,286.9726300816452 L75.22447680923914,286.4070772563216 L73.34024096227522,286.39438405076567 L69.12257082728696,286.6771604634275 L66.46334426332724,286.4641966813231 z"/>
	
</g></g></svg>