<svg xmlns="http://www.w3.org/2000/svg" version="1.2" baseProfile="tiny" width="600" height="600" stroke-linecap="round" stroke-linejoin="round"><rect id="backgroundrect" width="100%" height="100%" x="0" y="0" fill="none" stroke="none" class="" style=""/>































































































































































































































































































































































































































































































































































































































<g class="currentLayer" style=""><title>Layer 1</title><g class="city city-29" id="gumushane" title="Gümüşhane">
	<path id="gumushane-siran" title="Şiran" class="district" d="M241.3869228182116,318.3789973392585 L241.17533515979835,319.8119134057847 L240.0308382802035,321.1810852914092 L239.7765056402934,322.5502571770335 L238.9707627390664,323.70960446718857 L240.53950356002366,326.2899157899509 L243.16725129758214,328.34433762027174 L244.22732683872016,329.9764542521166 L245.0320011154094,332.6112137293994 L245.87942037359738,334.0852979127584 L245.83774401663834,335.2446452029135 L243.33716259903446,342.61905013101386 L242.5741646793042,351.30950679398705 L242.19266571943865,353.7331136720319 L241.21808014129613,355.83932764933536 L240.36959225857134,356.8406424910045 L238.46209745924625,358.1566942258769 L237.1060129212372,358.5789994243527 L232.48634904589687,358.99997661905957 L231.0447745448942,359.68389855998737 L227.0609422693276,360.47406080241853 L224.0944405534023,360.6852134016565 L218.71071013379398,361.68652824332537 L217.3973705772827,362.3186580372701 L216.1257073777323,364.47799216532553 L215.7442084178677,367.1645437895912 L214.72687785822643,371.64124449418796 L212.52337406203134,376.8563152942331 L211.84479748075887,379.85760381170246 L212.18355145912668,382.9133404836923 L212.09913012066895,388.07529113298574 L211.16622089948638,392.9211768853065 L210.3188016412994,398.60901702704155 L210.1499589643839,402.4017957907107 L210.10721398288612,408.2489963847006 L209.9373026814338,411.67259010064583 L209.25979472469817,414.7269987688668 L207.1823886239208,419.41485207270136 L206.54655702414513,422.10140369696705 L206.46213568568834,424.2607378250225 L205.61471642750038,426.36827980609496 L203.58005530821885,428.6856463826365 L202.0113144872616,431.003012959178 L200.65522994925348,435.4279215167919 L198.87490146988299,438.7983950819853 L195.7812334340031,443.17018348884767 L193.61940599476702,444.27641062825126 L191.92349885385426,444.17149833051667 L188.7870858364766,442.3800212464165 L187.38932494150853,440.9577292100406 L184.4217546010454,437.16627845014034 L181.83675184498472,435.7957785607473 L178.61484886461054,435.63907411602986 L173.95244000777245,437.00824600165413 L171.32469227021497,439.27249242744404 L170.81602699039288,440.74790461457155 L171.3674372517108,443.3282159373339 L174.20677264768253,448.2272218404066 L174.67376157054272,450.755741016186 L175.35126952727833,458.0239056427831 L175.05526053040734,462.34390190266265 L174.1650962907216,464.66126847920407 L172.00326885148647,468.71699198909414 L171.79168119307417,469.8232191284975 L168.82411085261106,475.9333644687083 L167.0865273547383,479.1989257361672 L165.9249324825434,481.91867745465254 L165.0817877225057,481.2453795438752 L161.01246548394454,479.2958700112889 L159.19046064761406,478.92801296733353 L155.92581268574406,478.92801296733353 L153.08647728977235,479.1909577135542 L146.60206359660282,478.6119480703611 L139.22641703921167,478.8217726658303 L137.48883354133798,478.7168603680957 L131.64025144794508,477.1365358832337 L129.05418006734754,475.7142438468577 L127.78251686779623,474.66113685820585 L123.79868459223061,470.28934845134347 L119.34786339380386,467.181819632371 L114.68545453696578,464.54838815885694 L111.08312122126384,462.28281372929814 L107.43804292406605,459.3864375095635 L104.59870752809624,456.2257885398392 L102.86005540568476,454.59234390422534 L99.85080870826263,452.48612992692176 L94.25655925477884,449.1143283579595 L91.96756549558819,447.95630907157306 L86.07623842069559,446.32286443595933 L82.26124882204451,446.27107228897637 L79.80020651232783,446.60307323117433 L79.48709952285773,442.3083090429019 L78.76684658462528,439.83291001787416 L78.51251394471618,436.1981637026913 L78.89401290457984,431.14245335490114 L79.48709952285773,426.29656760258 L81.14026168227367,421.45068185025923 L81.0975167007759,419.0270749722142 L79.86859848272331,416.23561105021406 L77.57960472353267,412.8638094812518 L76.64776412688697,411.9169427941034 L74.57035802610957,410.7044753531966 L70.11953682768282,409.0192385705999 L66.43278217352506,408.4920210743895 L63.63512313451426,407.28088163725147 L59.22704691758625,404.27826511601324 L57.786541041120415,403.8041677705547 L55.75187992183983,402.59302833341667 L54.05597278092611,402.330083587196 L51.9368903231897,401.3287687455269 L46.554228528117264,399.27434691520637 L43.502236849197345,396.7989478901784 L40.45024517027552,393.7963313689403 L38.11957505412586,391.05798759769175 L36.1276589163421,387.58127373099524 L36.000492596387545,386.21210184537074 L36.46641289470992,381.8934335892602 L39.81441357050082,377.3636127339116 L42.52765127105387,375.3609830505736 L45.833975589884815,372.2016620846182 L46.40355246833869,371.3225235896782 L46.89298250648507,370.56821744900446 L48.037479386080875,365.6692115459317 L48.207390687533206,364.14200721182135 L49.01206496422243,362.0875853815005 L49.77506288395361,358.8751442647932 L51.80972400323323,352.9761515238205 L52.954220882829034,351.2895867374549 L55.116048322064174,348.81418771242727 L58.25246133944374,346.4968211358855 L62.236293615009345,344.6535519048027 L64.73687503261134,342.70404237221646 L67.95877801298549,338.8063513108127 L69.739106492356,335.69882249184013 L71.39120002723318,331.06408933875707 L72.15419794696436,329.6949174531328 L74.44319170615502,327.64049562281195 L76.60501914539014,324.5329668038394 L77.91835870190047,322.1624800765462 L83.25934414001104,318.5808539121149 L85.4628479362071,316.2103671848216 L89.53217017476825,311.3644814325007 L91.14258735268547,309.83727709839025 L93.13557211500608,306.83466057715214 L96.56799412925474,302.7789370672623 L98.72982156849082,299.0910706013276 L100.63731636781588,294.1402725512721 L102.24773354573406,292.45503576867554 L106.57138842420434,290.34749378760296 L109.11364619876724,289.66357184667527 L115.04771825515763,288.8734096042442 L120.13437105335908,287.4511175678682 L124.96562258711168,287.6091500163544 L127.5089489862124,286.872107924675 L129.62803144395073,285.7658807852715 L131.53552624327577,283.81637125268526 L132.55285680291703,280.76196258446424 L136.19152335288993,279.8828240895241 L138.05734179525598,279.72479164103805 L143.8631789071511,279.9877363872588 L147.5937471673454,281.0408433759104 L148.69549906544344,280.8828109274244 L151.28050182150412,279.303814446331 L153.23074160232696,279.0395416963414 L159.03764733876085,278.77659695012073 L161.70814005781708,278.51365220389994 L165.73471731488047,277.24939261601 L168.36246505243895,277.7234899614689 L172.55788498641587,281.0408433759104 L175.01679004705886,283.9916677501658 L175.56713168383993,285.36083963578994 L176.50004090502247,290.1536052373592 L177.34746016321046,293.05130946086297 L179.72087526085787,296.68472777227714 L182.2642016599586,299.16145480107355 L186.20635757856425,304.42831774810156 L188.5797726762136,307.008629070864 L189.51268189739613,308.588953555726 L189.85143587576397,310.2741903383228 L189.85143587576397,314.5941865982021 L190.57168881399545,316.0164786345781 L192.39476227486372,317.7017154171748 L197.4803464485283,318.80794255657827 L202.90575322509662,319.2820399020371 L208.28841502016812,319.2820399020371 L212.99356885850398,319.5449846482577 L214.26523205805432,319.86104954523023 L216.2144032143403,319.5981047990093 L218.41897563507226,316.64860842852306 L220.58080307430836,314.5410664474506 L222.14847527072874,313.80402435577105 L223.4201384702801,313.80402435577105 L226.76813914606907,314.2781217012297 L231.34612666445037,316.1745110830642 L236.55887715806955,318.07090046489895 L241.3869228182116,318.3789973392585 z"/>
	<path id="gumushane-merkez" title="Merkez" class="district" d="M593.8780696145698,154.4502121196086 L595.0653114756624,158.13807858554313 L596.0398970538059,160.0862601143607 L597.2271389148985,161.3505197022503 L599.386829105059,162.51783501501825 L597.526353785381,167.05429588921078 L596.2130142288697,172.74346403471446 L595.9586815889606,175.11262275823884 L594.9413510293203,177.43131733854938 L593.4153551898589,178.27327172796313 L589.6431105727065,179.74868391509082 L586.0824536139655,182.75130043632905 L585.4038770326931,183.59325482574292 L585.0234466973643,187.33291343866037 L583.7090385163172,190.49356240838466 L582.2257876583535,192.17879919098135 L577.1818798416508,196.02469810540225 L572.3495596833594,198.60500942816458 L568.4084723892906,199.34205151984378 L565.9923123101454,199.39517167059552 L562.0929013730366,200.34336636151286 L561.0755708133963,201.02861630620947 L558.7865770542056,204.39908987140288 L555.8617516952403,205.82138190777874 L550.0559145833433,205.82138190777874 L545.9438473632853,206.82269674944777 L541.4513498078986,207.61153098810993 L538.3993581289786,207.2967940949063 L535.7288654099225,206.6646643009614 L531.8294544728136,207.13876164642008 L525.8537060594662,209.6141606714479 L523.4802909618168,211.08824485480665 L518.2664718436608,212.93151408588957 L515.6387241061033,214.037741225293 L511.9936458089046,214.61807887225496 L508.6456451331136,217.40954279425523 L507.0769043121554,219.78002952154839 L506.1023187340139,222.09739609809012 L505.2965758327849,223.09738293599023 L502.8088179096318,223.96988141208638 L498.89658347807415,224.6259152738695 L496.31158072201345,226.25803190571452 L491.98792584354214,231.7891676027321 L486.9867630083363,234.5275113739805 L484.57060292919016,237.26718314899784 L483.7231836710031,239.84749447176017 L482.9174407697751,244.58846792634648 L482.02727653008935,247.48484414608143 L481.8584338531739,249.59238612715373 L481.98560017313036,252.85794739461267 L482.9174407697751,257.3877682499612 L485.0365232275125,262.9706960939616 L485.2064345289648,265.7103678689789 L484.8676805505979,267.76478969929974 L483.51159601258985,271.71427290768634 L482.4515204714528,273.40083769405175 L480.3324380137144,275.5601718221071 L478.5948545158408,280.0368725267041 L475.83994045832867,283.6184986911353 L474.18677829891277,285.25194332674926 L471.72787323826975,288.3063519949701 L464.90470556673245,291.729945710915 L462.78455448445726,295.9437016692913 L461.0052946296246,300.8427075723639 L460.91980466662903,305.4774407254471 L461.1741373065391,307.32203796029864 L462.4885454875872,311.74561851414387 L456.5790517955596,311.22238502923994 L455.3073885960083,310.80140783453294 L450.68772472066803,309.95812544135026 L441.78715094835326,310.1692780405882 L438.3536603095668,309.80009299286405 L432.84383219454077,307.95682376178115 L428.69008861752286,307.43093426933956 L423.5617594623614,308.53716140874326 L418.72943930407007,309.2210833496707 L415.4231149852391,310.6433753860467 L412.4566132693128,311.5384499262126 L406.6924525143767,315.75220588458865 L403.21621689409346,318.0177803141472 L401.52137837771846,319.49186449750607 L397.87630008051974,321.49449418084384 L396.180392939606,323.17973096344053 L390.45897716616764,328.3948017634857 L388.0000721055247,330.9219929354964 L385.5422356694186,332.60855772186164 L384.31331745136595,333.0826550673205 L380.49832785271485,332.0813402256515 L378.42199037647435,331.02823323699965 L372.91109363691146,327.2354544733306 L369.7330042625729,326.8144772786237 L364.9006841042815,325.8131624369546 L359.4336009707532,325.28594494074423 L356.7203632701992,326.49841238165106 L354.6012808124609,328.28856146198234 L352.7365309946336,329.28987630365134 L348.70995373757023,329.28987630365134 L344.97938547737687,330.605928038524 L343.32729194249873,331.6603630309445 L336.3331443449722,334.66165154841383 L334.0868955672793,336.7160733787347 L331.54356916817864,337.82230051813804 L330.2302296116683,337.82230051813804 L325.2290667764614,335.0839567468897 L320.73550059653786,332.29249282488945 L315.90424906278525,331.0800253839825 L312.3863370855411,330.87020078851344 L306.2823537277003,331.44921043170655 L302.84886308891384,331.5023305824583 L301.1112795910411,331.2380578324686 L299.1621084347551,330.28986314155145 L296.57603705415755,328.5528342119719 L294.4142096149215,326.550204528634 L290.8546212807183,322.5476011694957 L289.41304677971556,321.70431877631313 L284.62347160292103,320.07220214446806 L282.1656351668168,319.86104954523023 L279.1980648263527,320.8092442361474 L277.88472526984236,321.49449418084384 L275.21423255078616,322.284656423275 L272.41657351177633,323.6538283088994 L271.3575665951751,323.8118607573855 L263.21999074259156,320.8623643868991 L257.24317370470436,317.5436829686885 L252.70793116782085,317.22761807171617 L247.961100972525,317.2807382224679 L244.06169003541714,318.22893291338517 L241.3869228182116,318.3789973392585 L236.55887715806955,318.07090046489895 L231.34612666445037,316.1745110830642 L226.76813914606907,314.2781217012297 L223.4201384702801,313.80402435577105 L222.08863229663189,310.9209281737242 L218.71284738286863,305.4216645671578 L217.40057645089513,303.83735607098913 L214.9256420221899,301.4602293248521 L214.28767317334055,300.52797067916015 L213.50009688924945,298.0578836692076 L213.05020595898839,294.51609761784016 L213.01280410017773,292.4191796669181 L214.0258601616687,290.3209337122271 L215.90022760033335,282.4458713632922 L217.8878692399659,280.48839380809324 L224.60096858414778,277.6451377391103 L230.03919885516495,272.33312266394324 L231.4262735047588,269.81655552208304 L231.9135662938296,265.155262293624 L234.1640895696737,260.3093765413031 L235.2134788654356,259.1433892323039 L237.80168749510972,254.81011293473648 L238.77627307325128,251.22051874769247 L239.90153471117333,249.21656106058575 L243.6513382130414,244.7425163635265 L244.8514035685829,240.7518650383072 L247.56998439182303,239.6629019478982 L249.68265510233647,238.38801832985803 L251.10499436166538,236.44913282742212 L253.24331206107746,234.36283890665027 L255.03966990850927,231.58199901480043 L257.2506540764671,227.65376386671448 L257.52422195805093,225.35764535047372 L256.7024496887616,221.11467330918427 L255.35170827344064,218.92479509444667 L253.06485176332558,217.38696673018575 L250.02675220339137,216.22097942118663 L248.90149056547028,215.33652891117143 L246.6520359141649,212.35383244646522 L244.2893070618917,210.58227541889693 L242.82636007013872,208.85852652700527 L242.63935077608824,206.6208401765913 L243.0892417063493,204.9900515485151 L242.82636007013872,202.75369320186974 L240.16441634738294,197.53331038674966 L242.71415449370858,191.84812625255228 L244.25190520308104,188.07261153787735 L246.4639579955757,185.416604000294 L248.60227569498778,183.59856684081814 L250.73952476986204,182.48038766749536 L254.7522099079378,180.7566387756039 L258.65268946958446,178.42599216137444 L262.5521004066933,174.41807678716094 L263.97764553963464,173.67173866909994 L266.5273836859593,174.27863639143777 L273.4274923241917,179.8708602618196 L276.72740489579775,181.7818576851109 L279.9909842331309,183.17891764988 L283.6285821585679,183.50560657700268 L289.59043845293064,184.57730561841774 L291.8409617287728,185.13639520507888 L294.8031889465488,185.08991507317117 L299.11615757964586,184.15765642747928 L302.8659610815129,182.0142583446495 L305.7918550650151,180.0103006575429 L306.9545185617479,178.93860161612787 L310.17962741573353,177.58669377949786 L311.34122228792745,176.28259407854455 L313.1418546335095,175.1166067695454 L317.67923441946675,172.97320868671562 L318.654888622148,172.22819857242345 L319.59207234148084,170.12995261773244 L321.54231212230366,166.72893496585675 L323.7543649147983,164.21236782399654 L326.641788414953,162.62673132405928 L329.9427696110968,162.02116160549014 L331.6675296145217,160.43685310932167 L332.8675949700632,160.01720391838353 L338.793118030153,156.10224880798546 L339.8425073259159,154.33201978418612 L339.9173110435363,149.01867670525044 L340.5178780335759,147.10767928195912 L341.27873870423247,137.94710928483394 L344.33073038315234,137.8408689833305 L349.54348087677056,138.89530397575112 L353.31572549392484,140.00020311138587 L355.94347323148327,140.52742060759624 L360.22438312845577,142.05462494170675 L363.3607961458344,144.00413447429298 L364.8023706468371,144.63626426823785 L371.7537732628658,145.2683940621826 L375.61043921847687,145.0572414629448 L378.7041072543577,144.68805641522061 L388.0716699495336,141.1768144505354 L392.98841144628176,140.96698985506626 L397.0566650603051,139.4915776679387 L401.352535700803,138.29770227979486 L405.3641522143429,135.83956730376133 L410.6762847899433,130.0109587625345 L412.7109459092239,128.25533778019195 L416.7236310473006,125.44528180542864 L419.097046144948,121.86365564099742 L422.657703103689,116.87700148918447 L426.21836006243007,112.59286133106238 L429.0010583579164,107.46676678352625 L430.484309215879,105.14940020698465 L432.47729397819967,100.67137149861904 L433.07038059647755,98.35400492207759 L436.0368823124038,93.66615161824268 L439.4276279696915,89.45239565986671 L443.4969502082527,87.5453822478818 L450.5327741627401,85.08060725300439 L456.2541899361785,82.92127312494887 L462.52808459547254,79.33964696051764 L465.6217526313524,78.9186697658107 L468.26873561058466,79.09529426705998 L470.5812391095993,79.60259170673852 L473.6749071454801,81.60389338630753 L475.014962315426,83.58925902065121 L475.87841094167624,84.86945465376644 L476.04832224312855,87.9783114765078 L475.62407830176517,97.24777778267405 L475.7095682647607,104.46415026228819 L475.03099168348825,110.20511055477495 L471.1743257278772,119.79196976168227 L470.8772481064693,126.37621244735169 L470.8772481064693,130.37881580648985 L471.47033472474726,134.43453931637976 L473.12349688416225,138.75453557625931 L475.5824019448062,142.02009684371808 L478.42173734077596,144.17943097177346 L481.55815035815453,144.7066484679837 L486.51763683640047,143.86336607480104 L488.2552203342742,142.65222663766298 L492.154631271383,138.59650312777293 L493.3835494894356,136.6469935951867 L494.8251239904373,135.75191905502112 L497.49561670949356,135.96307165425907 L499.9534531455988,137.2791233891316 L501.7337816249693,139.2804250687007 L502.79278854157053,141.80894424448013 L503.89560906420536,145.18074581344234 L505.46328126062576,160.8764223567918 L506.48061182026606,163.5098538303057 L507.2008647584995,166.14461330758854 L508.59969427800434,168.0396746856544 L514.6609326543473,173.939995430396 L518.5603435914562,176.67833920164438 L522.7140871684751,178.78588118271685 L526.9949970654476,181.26128020774468 L528.9452368462704,181.7871697001861 L532.8446477833793,181.36619250547918 L536.6585687574935,179.62783557213072 L544.754468253118,176.62521905089267 L547.1278833507655,174.9931024190477 L550.3914626880996,173.1498331879649 L553.4851307239804,170.5681938614338 L555.3082041848487,168.72492463035087 L557.8087856024507,166.67050280002996 L559.5046927433644,164.5642888227263 L559.8861917032281,161.98264949619522 L559.8434467217322,159.5072504711674 L559.2076151219557,157.2947961923606 L558.1058632238586,155.18858221505678 L556.8342000243082,153.7131700279292 L552.0018798660168,149.81547896652557 L545.601887511305,146.60303784981835 L541.5325652727439,142.8102590861492 L537.1672340373127,136.06798395199354 L535.3452292009832,133.43455247847965 L534.5394862997551,130.37881580648985 L534.3695749983028,127.79850448372753 L534.5394862997551,125.42801775643439 L535.3452292009832,123.95260556930667 L537.082812698856,122.53164153669961 L540.1348043777758,121.5834468457823 L542.8897184352898,121.21426179805827 L548.4273307882901,120.91678895384874 L552.2989574874247,119.89688205941677 L557.8932069409094,119.21296011848912 L559.4619477618667,119.37099256697535 L560.9024536383315,120.37097940487543 L562.0896954994251,121.95130388973752 L563.3186137174777,124.63785551400326 L563.9971902987502,128.1663615276829 L566.0318514180298,133.53946477621415 L566.4977717163541,135.48897430880038 L566.2434390764431,139.9125548626456 L567.0491819776701,143.0200836816182 L568.5324328356337,143.9682783725355 L570.6087703118743,144.65352831723212 L576.2457647468558,145.33877826192858 L582.222581784742,146.70795014755282 L585.1046621622106,147.7079369854531 L591.2503218770123,151.39580345138762 L593.8780696145698,154.4502121196086 z"/>
	<path id="gumushane-kelkit" title="Kelkit" class="district" d="M165.9249324825434,481.91867745465254 L167.0865273547383,479.1989257361672 L168.82411085261106,475.9333644687083 L171.79168119307417,469.8232191284975 L172.00326885148647,468.71699198909414 L174.1650962907216,464.66126847920407 L175.05526053040734,462.34390190266265 L175.35126952727833,458.0239056427831 L174.67376157054272,450.755741016186 L174.20677264768253,448.2272218404066 L171.3674372517108,443.3282159373339 L170.81602699039288,440.74790461457155 L171.32469227021497,439.27249242744404 L173.95244000777245,437.00824600165413 L178.61484886461054,435.63907411602986 L181.83675184498472,435.7957785607473 L184.4217546010454,437.16627845014034 L187.38932494150853,440.9577292100406 L188.7870858364766,442.3800212464165 L191.92349885385426,444.17149833051667 L193.61940599476702,444.27641062825126 L195.7812334340031,443.17018348884767 L198.87490146988299,438.7983950819853 L200.65522994925348,435.4279215167919 L202.0113144872616,431.003012959178 L203.58005530821885,428.6856463826365 L205.61471642750038,426.36827980609496 L206.46213568568834,424.2607378250225 L206.54655702414513,422.10140369696705 L207.1823886239208,419.41485207270136 L209.25979472469817,414.7269987688668 L209.9373026814338,411.67259010064583 L210.10721398288612,408.2489963847006 L210.1499589643839,402.4017957907107 L210.3188016412994,398.60901702704155 L211.16622089948638,392.9211768853065 L212.09913012066895,388.07529113298574 L212.18355145912668,382.9133404836923 L211.84479748075887,379.85760381170246 L212.52337406203134,376.8563152942331 L214.72687785822643,371.64124449418796 L215.7442084178677,367.1645437895912 L216.1257073777323,364.47799216532553 L217.3973705772827,362.3186580372701 L218.71071013379398,361.68652824332537 L224.0944405534023,360.6852134016565 L227.0609422693276,360.47406080241853 L231.0447745448942,359.68389855998737 L232.48634904589687,358.99997661905957 L237.1060129212372,358.5789994243527 L238.46209745924625,358.1566942258769 L240.36959225857134,356.8406424910045 L241.21808014129613,355.83932764933536 L242.19266571943865,353.7331136720319 L242.5741646793042,351.30950679398705 L243.33716259903446,342.61905013101386 L245.83774401663834,335.2446452029135 L245.87942037359738,334.0852979127584 L245.0320011154094,332.6112137293994 L244.22732683872016,329.9764542521166 L243.16725129758214,328.34433762027174 L240.53950356002366,326.2899157899509 L238.9707627390664,323.70960446718857 L239.7765056402934,322.5502571770335 L240.0308382802035,321.1810852914092 L241.17533515979835,319.8119134057847 L241.3869228182116,318.3789973392585 L244.06169003541714,318.22893291338517 L247.961100972525,317.2807382224679 L252.70793116782085,317.22761807171617 L257.24317370470436,317.5436829686885 L263.21999074259156,320.8623643868991 L271.3575665951751,323.8118607573855 L272.41657351177633,323.6538283088994 L275.21423255078616,322.284656423275 L277.88472526984236,321.49449418084384 L279.1980648263527,320.8092442361474 L282.1656351668168,319.86104954523023 L284.62347160292103,320.07220214446806 L289.41304677971556,321.70431877631313 L290.8546212807183,322.5476011694957 L294.4142096149215,326.550204528634 L296.57603705415755,328.5528342119719 L299.1621084347551,330.28986314155145 L301.1112795910411,331.2380578324686 L302.84886308891384,331.5023305824583 L306.2823537277003,331.44921043170655 L312.3863370855411,330.87020078851344 L315.90424906278525,331.0800253839825 L320.73550059653786,332.29249282488945 L325.2290667764614,335.0839567468897 L330.2302296116683,337.82230051813804 L330.68546366461646,338.7107350394598 L333.29183891142554,340.8049969828444 L334.18200315111034,342.06925657073396 L333.9276705112012,344.5180955203858 L334.49938463872974,347.0067745831018 L334.34122820718846,348.0731616094413 L332.75111489548283,350.95758579525705 L331.0349038883585,352.9323273994503 L329.9855145925946,354.59233211044 L329.19152656127864,357.08101117315573 L329.0323015052005,359.0159126642851 L329.8273581610543,362.5723067571096 L331.3522853759779,364.7050808097891 L334.6265509586843,366.16721295922866 L338.5056580295825,366.16721295922866 L342.66901922743784,365.92950028461485 L344.5455239151781,367.0755675370822 L346.26173492230146,368.8139244704305 L348.6137775292005,372.80324779188084 L350.0126070487054,376.9904436748813 L351.3473190959651,379.7566755252743 L354.2721444549304,381.92928969101763 L356.6883045340766,382.6796118203848 L361.58367354007635,383.2320613882024 L366.6382676021542,384.7738737637693 L369.0544276813004,385.9584531255317 L372.0102431518515,387.0646802649351 L374.5535695509522,388.5653245236697 L378.52671558114366,392.51613573582506 L379.5130560291991,394.0566201076236 L380.6254941726704,394.8467823500547 L385.1393642188055,396.2690743864305 L388.1272384254792,397.45365374819266 L392.64110847161436,401.0485599503121 L395.50181635833354,404.012664362255 L398.117809225981,407.9023874010461 L395.30839531705817,409.5066159537464 L393.35815553623434,411.8771026810398 L391.7477383583181,415.1944560954813 L389.8402435589911,421.51575403492984 L389.585910919082,422.8849259205542 L389.37432326066875,427.83705197437837 L387.9754937411638,431.6816228850305 L386.83099686156896,437.1065182805447 L387.00090816302134,439.7930699048104 L389.1627356022564,443.00683902528647 L391.83215969677485,446.0612476935074 L393.14656787782303,450.06385105264553 L394.5026524158311,454.80482450723207 L395.05406267714807,460.22971990274607 L394.92689635719256,461.86316453836 L395.30839531705817,467.2362677868914 L396.0286482552906,469.28936161344336 L397.1304001533886,470.8178939513226 L400.6483121306328,474.82049731046095 L403.23438351123036,476.4539419460747 L407.34538210675055,478.71818837186436 L408.9141229277087,479.9293278090024 L411.4991256837704,482.9850644809924 L414.8898713410581,485.09127845829585 L419.04361491807606,486.19750559769955 L429.9788498096714,489.9902843613686 L432.1406772489074,492.14961848942403 L433.8782607467802,494.9410824114242 L435.7430105646084,497.04862439249666 L440.02392046158093,498.575828726607 L442.3129142207716,501.89451014481756 L443.92333139868975,504.9489188130385 L446.2550701393782,508.7948177274594 L447.44124337593394,511.5862816494596 L447.86548731729636,514.166592972222 L447.9926536372509,518.2754366328634 L448.2897312586588,519.9606734154603 L449.2322581006787,522.7056572055527 L445.07637727458416,522.9088417821778 L443.3377251521746,523.5409715761227 L438.9296489352456,526.6485003950953 L432.44523524207705,531.8635711951404 L431.4279046824358,532.3907886913506 L427.74008140374025,533.1809509337818 L417.1863454720105,533.2327430807647 L414.1354224176265,534.0229053231956 L409.13319095788376,539.3960085717271 L407.7771064198766,540.2910831118925 L404.8522810609093,541.3441901005444 L400.0210295271567,542.7664821369204 L395.86728595013784,543.5035242285998 L393.1540482495848,545.9802512573964 L391.50195471470664,547.033358246048 L385.7794703167295,549.6136695688106 L381.49856041975704,550.931049307452 L380.0580545432912,551.6680913991314 L376.3702312645956,554.5657956226346 L371.2419021094342,560.2018436173868 L365.1806637330902,563.9415022303042 L359.6708356180642,566.2057486560942 L357.3369596283011,566.4846294475404 L354.41427151841043,565.7316513106355 L351.6176811039374,563.9415022303042 L348.0997691266932,560.6228208120939 L342.2501184087616,556.355944702966 L339.57962568970726,554.2497307256624 L338.05362985024584,552.7225263915519 L335.3842057557284,551.8261238476174 L329.2385460409267,549.1395722233519 L326.77964098028366,548.2976178339379 L324.70330350404316,548.1395853854516 L321.22706788375984,548.7717151793966 L317.87906720796894,551.3520265021589 L314.2339889107702,553.0903834355072 L310.58891061357144,554.3546430233969 L307.91841789451615,554.9336526665901 L303.4675966960894,554.9336526665901 L301.22134791839653,554.5126754718832 L299.82251839889165,553.7756333802035 L297.5345932642378,550.9841694582034 L296.0085974247784,549.4556371203242 L294.73693422522797,548.9297476278828 L290.03178038689214,547.665488039993 L282.78436877399145,545.3999136104344 L278.88495783688455,544.3999267725342 L274.349715300001,542.7664821369204 L268.96705350492954,539.6058331671961 L262.6942274701713,535.6563499588096 L259.2607368313868,533.917993025461 L255.95441251255585,532.9166781837922 L245.44342156232295,530.3363668610298 L243.66309308295246,530.1783344125434 L233.3636897911328,527.8078476852504 L224.08161705895247,523.4891794291399 L220.09671615884906,521.4347575988189 L214.2898104224152,519.3272156177464 L208.14415070761348,518.6950858238016 L200.85399411321694,517.6950989859015 L197.67590473887836,516.4308393980118 L193.14066220199481,515.218371957105 L188.22392070524572,514.7973947623981 L186.1197989910328,514.1931530475977 L185.4262616662359,513.7442877737461 L182.4597599503096,509.79347656159075 L181.48410574763022,507.8452950327734 L179.6621009112988,502.9462891297005 L178.8146816531118,498.83744546905916 L177.54301845356048,496.3620464440314 L176.27135525401107,494.72992981218624 L173.43095123350346,492.14829048565514 L169.9985292192548,487.03945998711345 L168.6413760567089,484.5640609620856 L165.9249324825434,481.91867745465254 z"/>
	<path id="gumushane-kurtun" title="Kürtün" class="district" d="M157.1590054019469,31.81172007923081 L159.53242049959434,32.706794619396405 L161.4399152989194,33.022859516368854 L163.60174273815548,33.81302175879996 L172.67115918738475,38.18481016566229 L175.55323956485233,38.289722463396785 L178.22373228390856,37.9218654194415 L179.79247310486676,38.2366023126452 L181.82713422414736,39.18479700356239 L185.42946753984833,42.39856612403847 L186.48954308098544,42.97757576723162 L190.30346405509968,44.18871520436968 L193.1011230941095,45.40118264527644 L195.6444494932112,46.981507130138596 L197.00053403121834,48.50871146424908 L198.58530422023784,51.564448136238866 L199.67102675027456,54.881801550680564 L201.11153262673946,56.51524618629435 L204.2062692871581,58.674580314349804 L206.87569338167557,61.67719683558786 L209.41901978077726,65.78471249246053 L211.15660327864998,67.102092231102 L214.29301629602764,70.05158860158835 L214.98441637174992,71.06618348094526 L215.90450209848362,74.10731211147822 L218.1507508761765,78.5840128160752 L219.88833437404924,80.37548990017521 L223.36350136979468,81.63974948806498 L227.05132464849123,83.48301871914792 L230.1877376658689,86.22269049416525 L234.4686475628423,91.43643329044147 L235.4432331409858,93.2797025215244 L237.85939322013104,95.91446199880708 L240.14838697932169,96.96756898745906 L245.1933634205622,98.16808439444671 L244.5073064675289,99.08175098737537 L242.31342029216927,100.82010792072366 L239.6119374615282,103.42697931886183 L237.83160898215772,104.41501412284303 L232.14118332030512,103.62485188041194 L230.6472462169673,103.70320410277057 L228.2310861378221,105.32336870069649 L225.84698479479948,106.42959584010003 L220.2206766051931,108.16795277344832 L214.42445711413245,110.48531934998991 L211.41521041670936,111.8544912356142 L207.81287710100838,112.90892622803482 L202.89613560425926,113.75088061744869 L197.2591411692777,115.48923755079713 L193.65573922903988,117.12268218641093 L190.01066093184113,121.12528554554925 L186.74708159450796,123.65380472132863 L182.8904156388969,127.55149578273227 L177.5077538438254,132.29246923731876 L177.21067622241853,133.3455762259706 L177.29509756087532,136.03212785023624 L176.40493332119053,139.34948126467793 L176.15060068128048,145.45962660488868 L174.6673498233178,146.30290899807136 L171.1077614891146,146.30290899807136 L163.81653627017928,144.03733456851268 L162.03727641534755,141.35211094801588 L159.57837135470456,139.9298189116399 L150.08471096411196,140.08785136012608 L147.7957172049213,140.6137408525677 L143.17605332957908,142.08915303969525 L137.02932499024053,142.5101302344022 L135.75873041522797,142.82619513137465 L133.76574565290736,144.5645520647231 L132.79116007476483,148.40912297537503 L131.6894081766668,151.14879475039237 L130.79924393698204,152.3068140367787 L129.86633471579853,154.62550861708908 L129.6547470573872,158.83926457546522 L129.10333679606927,161.99858554142068 L129.8246583588395,165.89760460659312 L129.40041441747616,168.2667633301178 L127.53566459964887,170.53233775967632 L126.17958006164076,172.7965841854662 L124.10217396086242,177.74871023929063 L121.60159254325947,181.909346046915 L121.05018228194251,183.38475823404258 L119.27092242710884,185.2280274651255 L118.84667848574645,186.33425460452906 L118.63509082733415,191.28505265458455 L119.01658978719973,194.5506139220433 L118.21084688597077,196.55191560161248 L116.85476234796363,198.87061018192273 L115.32876650850321,200.7138794130058 L114.2686909673661,203.084366140299 L113.97268197049414,204.716482772144 L114.1842696289074,206.3499274077579 L115.49867780995552,209.8784334214374 L115.5403541669155,212.7230174941894 L114.94726754863763,215.1452963684655 L111.93802085121453,220.62331191473123 L109.01319549224917,222.67773374505208 L105.70687117341822,223.67904858672082 L101.8074602363094,225.46919766705236 L98.96812484033865,228.524934339042 L94.74598929292426,231.6178551165579 L90.97374467577094,225.9818071218058 L88.30325195671567,222.97919060056788 L84.70091864101373,220.2926389763021 L77.5379283665727,217.5542952050536 L72.28136426691891,215.76281812095357 L68.08594433294004,213.02447434970503 L65.1611189739747,212.2874322580255 L63.50795681455875,212.44546470651173 L59.82013353586318,213.55169184591526 L57.870962379578145,213.02447434970503 L55.92072259875532,210.97005251938413 L52.91147590133126,208.70580609359428 L50.62248214214061,206.44023166403574 L49.733386526992675,204.38580983371486 L48.12190072453767,202.27959585641122 L46.554228528117264,201.75237836020085 L42.35773996960154,200.96221611776974 L38.96699431231383,199.53992408139388 L30.32075317990821,198.38190479500742 L28.66759102049322,198.69796969198 L25.40401168315909,200.48811877231122 L22.352020004239186,200.96221611776974 L20.65718148786423,200.59435907381453 L19.131185648402834,199.8041968313834 L14.680364449978008,196.90649260788 L9.340447636403333,193.9038760866418 L7.771706815445128,192.5878243517694 L5.482713056254475,188.42586054037608 L4.6780387795642895,186.4245588608069 L3.1520429401048133,178.84032933723736 L3.1520429401048133,173.46722608870598 L3.8722958783363026,170.88691476594383 L6.142054395853194,165.77277225232677 L7.475697818575085,160.87907836432927 L6.9670325387549425,157.56039694611874 L6.754376255804836,151.81943665363232 L7.348531498620531,150.87124196271483 L9.086114996493265,149.5538622240736 L10.993609795819282,147.39452809601812 L16.587859249303072,142.75979494293506 L17.05377954762544,141.86339239900067 L18.792431670035015,140.81028541034885 L22.056011007369143,139.54602582245906 L25.997098301437944,137.70275659137627 L27.39592782094286,136.75456190045895 L28.11618075917626,135.22735756634847 L27.861848119265225,132.4876857913311 L26.591253544252673,129.74934202008257 L23.453771902336257,126.74672549884451 L21.970521044373598,124.63918351777207 L22.437509967233773,122.79591428668914 L25.869931981482424,120.21560296392683 L28.413258380583144,116.31791190252318 L29.64217659863573,113.26217523053337 L30.65950715827603,109.73366921685387 L32.778589616014344,106.41498779864324 L34.64440805838039,103.93958877361555 L38.11957505412586,100.77893980389128 L42.95082658787943,99.25173546978064 L49.90222920390816,96.51206369476346 L51.89414534169194,94.24781726897358 L52.064056643144255,88.45373682573526 L51.97963530468556,85.82030535222123 L51.00398110200619,82.81768883098316 L49.987719166903716,78.07671537639682 L49.99626816320327,73.84436736525751 L50.156561843819205,71.96657003618606 L50.792393443593895,69.86035605888242 L51.598136344821896,68.64921662174436 L53.505631144146946,67.38495703385459 L55.879046241794384,67.33183688310301 L57.44671843821479,66.69970708915812 L59.05713561613297,65.17250275504763 L60.414288778677914,61.6426687375992 L61.473295695279134,59.536454760295555 L63.296369156147406,59.0092372640853 L67.87328804998995,59.0092372640853 L74.27328040470172,58.21907502165419 L76.56227416389237,57.798097826947185 L81.64892696209382,57.27088033073687 L83.8951757397867,57.482032929974736 L89.15067121490362,59.378422311809466 L93.55874743183261,60.37973715347838 L96.31366148934467,60.273496851974926 L99.1957418668132,59.483334609543824 L101.14598164763603,57.693185529212684 L102.71365384405644,55.63876369889189 L105.34140158161492,54.26959181326754 L109.1991361617628,53.26827697159857 L112.33554917914142,51.95089723295729 L113.39455609574168,50.68796564883632 L115.68354985493232,46.579121988194785 L117.71821097421193,42.20733358133238 L119.54128443508023,39.415869659332195 L122.01515023924767,37.15029522977352 L124.03378199046597,36.255220689607924 L127.04302868789003,36.2021005388562 L130.85801828654016,37.2552075275081 L142.08926217500647,38.04536976993913 L145.43833147533422,37.62439257523219 L150.65108196895338,35.67621104641467 L154.93199186592778,33.56866906534223 L157.1590054019469,31.81172007923081 z"/>
	<path id="gumushane-kose" title="Köşe" class="district" d="M462.4885454875872,311.74561851414387 L463.2932197642774,315.9075823255371 L464.7347942652801,318.38298135056493 L464.94638192369337,321.38559787180316 L464.52320660686684,326.1252433226207 L464.7347942652801,327.5475353589967 L467.19263070138624,330.9711290749415 L467.3197970213408,332.34162896433463 L467.36254200283855,337.18751471665576 L467.5741296612509,340.0838909363904 L467.786785944201,348.98550019860136 L467.7440409627032,353.4622009031982 L467.06546438143073,360.5736610850779 L465.3706258650558,367.1047836199955 L463.59029738568523,372.63591931701296 L461.72554756785604,376.0595130329582 L458.2920569290715,380.95719093226205 L457.1475600494767,383.0647329133345 L455.7070541730108,387.38340116944505 L453.88398071214255,390.49092998841786 L451.807643235902,391.54536498083826 L449.1798954983435,391.91322202479375 L444.4319966785099,392.96765701721426 L439.64242150171725,393.5997868111591 L437.0146737641588,394.1256763036006 L431.462100667634,394.38994905359027 L423.7060237749151,394.38994905359027 L422.0528616154991,395.4430560422421 L419.80661283780626,396.33813058240776 L416.11878955911067,398.8666497581871 L414.339529704277,399.23583480591117 L406.2863751901512,399.34074710364575 L402.3014742900468,399.867964599856 L401.0298110904965,400.97286373549093 L400.1396468508108,405.0817073961324 L399.6309815709916,406.2410546862875 L398.117809225981,407.9023874010461 L395.50181635833354,404.012664362255 L392.64110847161436,401.0485599503121 L388.1272384254792,397.45365374819266 L385.1393642188055,396.2690743864305 L380.6254941726704,394.8467823500547 L379.5130560291991,394.0566201076236 L378.52671558114366,392.51613573582506 L374.5535695509522,388.5653245236697 L372.0102431518515,387.0646802649351 L369.0544276813004,385.9584531255317 L366.6382676021542,384.7738737637693 L361.58367354007635,383.2320613882024 L356.6883045340766,382.6796118203848 L354.2721444549304,381.92928969101763 L351.3473190959651,379.7566755252743 L350.0126070487054,376.9904436748813 L348.6137775292005,372.80324779188084 L346.26173492230146,368.8139244704305 L344.5455239151781,367.0755675370822 L342.66901922743784,365.92950028461485 L338.5056580295825,366.16721295922866 L334.6265509586843,366.16721295922866 L331.3522853759779,364.7050808097891 L329.8273581610543,362.5723067571096 L329.0323015052005,359.0159126642851 L329.19152656127864,357.08101117315573 L329.9855145925946,354.59233211044 L331.0349038883585,352.9323273994503 L332.75111489548283,350.95758579525705 L334.34122820718846,348.0731616094413 L334.49938463872974,347.0067745831018 L333.9276705112012,344.5180955203858 L334.18200315111034,342.06925657073396 L333.29183891142554,340.8049969828444 L330.68546366461646,338.7107350394598 L330.2302296116683,337.82230051813804 L331.54356916817864,337.82230051813804 L334.0868955672793,336.7160733787347 L336.3331443449722,334.66165154841383 L343.32729194249873,331.6603630309445 L344.97938547737687,330.605928038524 L348.70995373757023,329.28987630365134 L352.7365309946336,329.28987630365134 L354.6012808124609,328.28856146198234 L356.7203632701992,326.49841238165106 L359.4336009707532,325.28594494074423 L364.9006841042815,325.8131624369546 L369.7330042625729,326.8144772786237 L372.91109363691146,327.2354544733306 L378.42199037647435,331.02823323699965 L380.49832785271485,332.0813402256515 L384.31331745136595,333.0826550673205 L385.5422356694186,332.60855772186164 L388.0000721055247,330.9219929354964 L390.45897716616764,328.3948017634857 L396.180392939606,323.17973096344053 L397.87630008051974,321.49449418084384 L401.52137837771846,319.49186449750607 L403.21621689409346,318.0177803141472 L406.6924525143767,315.75220588458865 L412.4566132693128,311.5384499262126 L415.4231149852391,310.6433753860467 L418.72943930407007,309.2210833496707 L423.5617594623614,308.53716140874326 L428.69008861752286,307.43093426933956 L432.84383219454077,307.95682376178115 L438.3536603095668,309.80009299286405 L441.78715094835326,310.1692780405882 L450.68772472066803,309.95812544135026 L455.3073885960083,310.80140783453294 L456.5790517955596,311.22238502923994 L462.4885454875872,311.74561851414387 z"/>
	<path id="gumushane-torul" title="Torul" class="district" d="M245.1933634205622,98.16808439444671 L245.7009600758455,98.2836207223316 L250.7448678925482,101.12820479508345 L255.49169808784495,103.44557137162502 L259.81535296631716,104.60491866178016 L263.79918524188275,105.39508090421126 L267.91018383740294,107.29147028604578 L273.46275693392676,110.13605435879762 L277.65924549244437,111.66325869290824 L282.2789093677847,113.98062526944972 L284.35524684402526,115.71898220279816 L287.02573956308055,118.66847857328446 L288.55173540254094,122.19698458696412 L288.93323436240655,123.67239677409168 L290.71356284177705,126.77992559306438 L293.25688924087683,129.72942196355072 L294.019887160607,130.30843160674388 L296.9019675380746,130.83564910295428 L298.1308857561282,131.52089904765072 L302.4962169915594,136.05071990299928 L303.7678801911097,136.68284969694417 L305.9724526118436,137.15694704240283 L308.345867709491,137.26185934013733 L311.4822807268687,138.5261189280271 L315.0846140425697,140.52742060759624 L316.2718559036632,140.79036535381698 L321.570096360276,140.52742060759624 L325.9354275957072,140.15823555987208 L327.4614234351686,139.63234606743052 L331.65684336914745,139.05333642423747 L335.89607690916,139.31628117045807 L338.73541230513075,139.158248721972 L341.27873870423247,137.94710928483394 L340.5178780335759,147.10767928195912 L339.9173110435363,149.01867670525044 L339.8425073259159,154.33201978418612 L338.793118030153,156.10224880798546 L332.8675949700632,160.01720391838353 L331.6675296145217,160.43685310932167 L329.9427696110968,162.02116160549014 L326.641788414953,162.62673132405928 L323.7543649147983,164.21236782399654 L321.54231212230366,166.72893496585675 L319.59207234148084,170.12995261773244 L318.654888622148,172.22819857242345 L317.67923441946675,172.97320868671562 L313.1418546335095,175.1166067695454 L311.34122228792745,176.28259407854455 L310.17962741573353,177.58669377949786 L306.9545185617479,178.93860161612787 L305.7918550650151,180.0103006575429 L302.8659610815129,182.0142583446495 L299.11615757964586,184.15765642747928 L294.8031889465488,185.08991507317117 L291.8409617287728,185.13639520507888 L289.59043845293064,184.57730561841774 L283.6285821585679,183.50560657700268 L279.9909842331309,183.17891764988 L276.72740489579775,181.7818576851109 L273.4274923241917,179.8708602618196 L266.5273836859593,174.27863639143777 L263.97764553963464,173.67173866909994 L262.5521004066933,174.41807678716094 L258.65268946958446,178.42599216137444 L254.7522099079378,180.7566387756039 L250.73952476986204,182.48038766749536 L248.60227569498778,183.59856684081814 L246.4639579955757,185.416604000294 L244.25190520308104,188.07261153787735 L242.71415449370858,191.84812625255228 L240.16441634738294,197.53331038674966 L242.82636007013872,202.75369320186974 L243.0892417063493,204.9900515485151 L242.63935077608824,206.6208401765913 L242.82636007013872,208.85852652700527 L244.2893070618917,210.58227541889693 L246.6520359141649,212.35383244646522 L248.90149056547028,215.33652891117143 L250.02675220339137,216.22097942118663 L253.06485176332558,217.38696673018575 L255.35170827344064,218.92479509444667 L256.7024496887616,221.11467330918427 L257.52422195805093,225.35764535047372 L257.2506540764671,227.65376386671448 L255.03966990850927,231.58199901480043 L253.24331206107746,234.36283890665027 L251.10499436166538,236.44913282742212 L249.68265510233647,238.38801832985803 L247.56998439182303,239.6629019478982 L244.8514035685829,240.7518650383072 L243.6513382130414,244.7425163635265 L239.90153471117333,249.21656106058575 L238.77627307325128,251.22051874769247 L237.80168749510972,254.81011293473648 L235.2134788654356,259.1433892323039 L234.1640895696737,260.3093765413031 L231.9135662938296,265.155262293624 L231.4262735047588,269.81655552208304 L230.03919885516495,272.33312266394324 L224.60096858414778,277.6451377391103 L217.8878692399659,280.48839380809324 L215.90022760033335,282.4458713632922 L214.0258601616687,290.3209337122271 L213.01280410017773,292.4191796669181 L213.05020595898839,294.51609761784016 L213.50009688924945,298.0578836692076 L214.28767317334055,300.52797067916015 L214.9256420221899,301.4602293248521 L217.40057645089513,303.83735607098913 L218.71284738286863,305.4216645671578 L222.08863229663189,310.9209281737242 L223.4201384702801,313.80402435577105 L222.14847527072874,313.80402435577105 L220.58080307430836,314.5410664474506 L218.41897563507226,316.64860842852306 L216.2144032143403,319.5981047990093 L214.26523205805432,319.86104954523023 L212.99356885850398,319.5449846482577 L208.28841502016812,319.2820399020371 L202.90575322509662,319.2820399020371 L197.4803464485283,318.80794255657827 L192.39476227486372,317.7017154171748 L190.57168881399545,316.0164786345781 L189.85143587576397,314.5941865982021 L189.85143587576397,310.2741903383228 L189.51268189739613,308.588953555726 L188.5797726762136,307.008629070864 L186.20635757856425,304.42831774810156 L182.2642016599586,299.16145480107355 L179.72087526085787,296.68472777227714 L177.34746016321046,293.05130946086297 L176.50004090502247,290.1536052373592 L175.56713168383993,285.36083963578994 L175.01679004705886,283.9916677501658 L172.55788498641587,281.0408433759104 L168.36246505243895,277.7234899614689 L165.73471731488047,277.24939261601 L161.70814005781708,278.51365220389994 L159.03764733876085,278.77659695012073 L153.23074160232696,279.0395416963414 L151.28050182150412,279.303814446331 L148.69549906544344,280.8828109274244 L147.5937471673454,281.0408433759104 L143.8631789071511,279.9877363872588 L138.05734179525598,279.72479164103805 L136.19152335288993,279.8828240895241 L132.55285680291703,280.76196258446424 L131.49384988631678,277.8124662139778 L131.19677226490796,274.70360939123645 L130.13669672376992,271.96526561998803 L128.992199844176,270.0688762381533 L127.9331929275748,267.5934772131257 L126.87311738643768,266.27609747448435 L124.7112899472016,264.90692558885996 L120.85462399159056,263.8538186002081 L118.65112019539544,262.0105493691252 L115.51470717801683,256.5843259698422 L112.71704813900604,252.63484276145562 L111.19105229954656,249.52598593871426 L108.4361382420326,245.15419753185196 L105.6384792030218,241.09847402196195 L104.15522834505913,239.25520479087913 L101.73906826591391,236.83292591660305 L99.83157346658885,235.25260143174083 L97.62806967039182,234.0932541415857 L94.74598929292426,231.6178551165579 L98.96812484033865,228.524934339042 L101.8074602363094,225.46919766705236 L105.70687117341822,223.67904858672082 L109.01319549224917,222.67773374505208 L111.93802085121453,220.62331191473123 L114.94726754863763,215.1452963684655 L115.5403541669155,212.7230174941894 L115.49867780995552,209.8784334214374 L114.1842696289074,206.3499274077579 L113.97268197049414,204.716482772144 L114.2686909673661,203.084366140299 L115.32876650850321,200.7138794130058 L116.85476234796363,198.87061018192273 L118.21084688597077,196.55191560161248 L119.01658978719973,194.5506139220433 L118.63509082733415,191.28505265458455 L118.84667848574645,186.33425460452906 L119.27092242710884,185.2280274651255 L121.05018228194251,183.38475823404258 L121.60159254325947,181.909346046915 L124.10217396086242,177.74871023929063 L126.17958006164076,172.7965841854662 L127.53566459964887,170.53233775967632 L129.40041441747616,168.2667633301178 L129.8246583588395,165.89760460659312 L129.10333679606927,161.99858554142068 L129.6547470573872,158.83926457546522 L129.86633471579853,154.62550861708908 L130.79924393698204,152.3068140367787 L131.6894081766668,151.14879475039237 L132.79116007476483,148.40912297537503 L133.76574565290736,144.5645520647231 L135.75873041522797,142.82619513137465 L137.02932499024053,142.5101302344022 L143.17605332957908,142.08915303969525 L147.7957172049213,140.6137408525677 L150.08471096411196,140.08785136012608 L159.57837135470456,139.9298189116399 L162.03727641534755,141.35211094801588 L163.81653627017928,144.03733456851268 L171.1077614891146,146.30290899807136 L174.6673498233178,146.30290899807136 L176.15060068128048,145.45962660488868 L176.40493332119053,139.34948126467793 L177.29509756087532,136.03212785023624 L177.21067622241853,133.3455762259706 L177.5077538438254,132.29246923731876 L182.8904156388969,127.55149578273227 L186.74708159450796,123.65380472132863 L190.01066093184113,121.12528554554925 L193.65573922903988,117.12268218641093 L197.2591411692777,115.48923755079713 L202.89613560425926,113.75088061744869 L207.81287710100838,112.90892622803482 L211.41521041670936,111.8544912356142 L214.42445711413245,110.48531934998991 L220.2206766051931,108.16795277344832 L225.84698479479948,106.42959584010003 L228.2310861378221,105.32336870069649 L230.6472462169673,103.70320410277057 L232.14118332030512,103.62485188041194 L237.83160898215772,104.41501412284303 L239.6119374615282,103.42697931886183 L242.31342029216927,100.82010792072366 L244.5073064675289,99.08175098737537 L245.1933634205622,98.16808439444671 z"/>
	
</g></g></svg>