<svg xmlns="http://www.w3.org/2000/svg" version="1.2" baseProfile="tiny" width="600" height="600" stroke-linecap="round" stroke-linejoin="round"><rect id="backgroundrect" width="100%" height="100%" x="0" y="0" fill="none" stroke="none" class="" style=""/>































































































































































































































































































































































































































































































































































































































<g class="currentLayer" style=""><title>Layer 1</title><g class="city city-47" id="mardin" title="Mardin">
	<path id="mardin-artuklu" title="Artuklu" class="district" d="M355.0525692987303,384.42691353990836 L349.76487653259477,382.9595161887893 L338.3952476365415,380.52391247732555 L334.8837079502976,380.4118315985678 L329.8167164374606,380.4704585197642 L328.75467951473985,380.2419859592198 L326.23629546833973,379.27464175948086 L323.59701774178944,378.59353488087675 L319.6525099917495,377.45548288118385 L316.50083986502426,376.64763839352327 L310.39360040670346,374.940560393984 L307.8232039630292,374.58448806377703 L306.4526070078306,374.82072006977387 L302.6859254268491,376.0449881300495 L301.1768630356628,376.01826115126886 L298.9754734645431,375.6320131998579 L296.9631559862172,375.90359379069383 L290.1635893479621,378.24349767491077 L289.5471721532388,379.02116654136734 L289.11139260850865,381.7680102315351 L288.5933772464667,382.6025816979766 L286.6337750356487,383.7156310401003 L285.8887325882069,383.7294256097935 L284.05705275987367,382.93020272819126 L282.10869647279014,381.71024547094464 L280.52794131779456,377.480485538753 L279.5931239073247,376.87524879346176 L278.5613104046416,376.9847431904019 L276.4098246200951,379.09703667468034 L275.2838265061315,379.20135810798547 L269.2180563915833,377.9934710992205 L267.73148584786674,376.59677091777945 L266.9780089576238,376.1493095633546 L266.26178418975303,376.176898702741 L265.4387231463998,376.73471661471183 L263.5979060050321,381.3714163528543 L262.5393834334788,382.57844120101333 L261.38245902924325,382.87502444941816 L260.1285385327945,382.2396120829229 L259.3511640546146,382.15512034355197 L256.49188794499906,382.90261358880457 L253.3781728108798,383.25609943719394 L253.17363757295027,382.18615812536154 L253.29734273403415,378.48576480514834 L253.61925730094822,376.7269571692594 L254.18787931979722,375.63459968167547 L255.15221728007094,373.1783041156718 L255.27592244115579,371.41863431917693 L254.92940741607197,369.4166973924446 L254.11337507505328,366.1111736297004 L253.1989409013533,363.016879215384 L251.88808791599672,360.49937024636654 L250.40432885321434,358.22499056819277 L249.24248435734518,357.0119305957928 L243.33767152625353,353.7270986875885 L241.43078458294303,351.9786369789696 L241.11660158859678,351.17941409736704 L241.5664385379951,348.6248322222989 L243.9266767818724,344.02089458717796 L245.36756076041462,340.43085782451055 L246.1224433911242,337.8547219342968 L247.29834529166249,333.14473854465894 L247.34614046753626,331.2100501451811 L245.7126700450318,327.21738437959215 L243.27300746477692,325.3171824043476 L240.50299587480725,324.4679542076071 L239.41495275344914,324.75074288631845 L238.09636819552418,326.2474536980359 L236.71171383565604,327.17686283111834 L235.5245660113833,327.13634128264437 L234.37115595831625,326.7725095069849 L233.48061937255315,325.72153572848083 L233.2500779359863,325.0740531135042 L233.18400813404352,322.6479331687043 L233.61275897643915,318.926847993951 L234.40419085928716,316.4602065006776 L234.86527373242083,312.82016442287215 L234.99741333630732,311.08118648091715 L234.7992039304781,309.90864805699124 L233.61275897643915,306.5927783669771 L232.6238205579952,305.62198552481505 L230.21649000847887,305.29867529762953 L227.34807658582835,305.74355017023663 L223.6889341505627,307.15835572440034 L222.30427979069452,307.19887727287414 L220.39176988551657,306.99713169111055 L218.31478834571453,306.39017062460766 L215.41334002209217,305.90477420352664 L213.33635848229062,305.8642526550526 L210.8306261000934,306.1479034943701 L208.58847005543402,307.11869633653214 L204.13789573731987,308.25071321198436 L203.84479884997728,305.9582281610878 L203.1496601891097,303.01653617400314 L201.9983587467421,294.7501402853252 L201.44660561349542,291.749821377044 L200.84705730437497,289.9254895351121 L199.9839326577158,285.5422650150831 L200.08022587969668,284.63096125472316 L200.89555535048206,283.5420524095624 L202.16634473253322,282.3945166432056 L203.89329689608485,279.77699704391193 L205.50005824971777,278.4527183533604 L207.8743538982632,276.7758159750251 L210.03286838514373,273.9229265303405 L210.70410945807438,272.6279613003871 L211.08787660553088,271.3631716916375 L212.9343167087661,269.3336456255186 L214.25360413692385,268.3921662439544 L216.58010460959596,265.33235825387135 L217.7553036399,264.47968141470767 L218.95440025814094,264.00894172392543 L223.73462071573653,260.4577021885203 L225.87767205748133,257.2521890560523 L229.53681449274606,256.03395612001754 L233.29576450115968,252.91810769055544 L233.29576450115968,251.65331808180585 L232.93589494164056,248.71162609472117 L233.65563406067832,246.79935387099488 L235.02201379447706,244.68188742308158 L236.07772488509755,242.56355881456244 L236.34130122263576,241.6220794329982 L236.7489659580287,236.18012168901242 L236.796761133902,234.1204200016896 L236.36519881057222,232.3262637809617 L233.99090316202677,227.53092649134703 L233.4637504869508,225.56002734642442 L233.7751220003628,224.08918135288198 L234.52367879897164,222.8933645925987 L236.04539285435948,222.4967707139179 L237.82084306401777,222.32778723517566 L240.54165373764607,222.5536733139025 L243.95479159120964,223.43049065002964 L245.84551251915065,224.4487023255124 L250.64189899211482,227.64473169131642 L251.90987689323316,228.8612403061395 L253.201752382287,231.60549751448968 L253.7317165382977,235.48004727708025 L254.2391888468381,237.6578649674015 L254.86193187366212,241.64621992996146 L256.6605768010235,247.27526652541172 L259.1044566026792,251.46105626670618 L260.78783081175646,253.27159353894487 L262.14858758368825,255.1950738505468 L263.8783512281727,256.80731418344504 L264.8925929750206,257.4858345802316 L266.36862046523555,257.8824284589124 L267.4756410828959,257.9384688982913 L269.6425900125776,258.53249755570664 L275.29226094893266,260.7387665460202 L276.30931417671343,261.38193835796784 L276.2924452911115,265.40736622657835 L275.8187107537758,268.9646408862243 L274.8916249158743,271.72355482487353 L274.0629409106541,273.0547308002719 L273.8851147415947,275.37739147237215 L274.2210867131765,277.02325606889764 L276.0162172893713,281.645299076741 L278.16629733345064,285.56640551204634 L280.3170802477628,291.5196244952879 L280.49490641682223,294.8587725216595 L279.88270644350024,297.4728434785297 L279.0744056750494,299.38425354165014 L278.95562060559917,300.78785100793795 L279.03434207174297,302.82082571648004 L279.80398497735547,305.2167700400759 L280.8301755181716,307.0557586123069 L281.63917915685573,308.0481054696146 L283.35558826690533,311.75108527164537 L284.73672827560597,316.1800043037833 L284.8941712078955,317.72844475185036 L284.08516756921136,320.65634216924184 L281.0670427868392,327.67519166128676 L279.6859027781381,330.3366814514776 L279.25152897387545,331.64371692991284 L279.1924878742663,332.563642296331 L279.7646242442833,335.1044296017059 L281.10640351991134,338.15389166451916 L284.18427227212555,342.2672599149239 L284.9138515744316,342.82421566628886 L287.75485305797815,345.7521130836804 L290.3393069063206,347.61610431348043 L292.41136835448896,348.80157514649363 L294.36394186297235,349.06798277369444 L298.7639095242785,349.21282575547355 L300.79590736914145,348.72915365560414 L302.6114211821052,347.59196381651714 L305.0377292279243,343.7682815296704 L306.4385496031615,341.2266320636897 L308.64837361708237,337.95990552820786 L309.69354165420174,336.9192776769736 L311.2131470988892,334.838021974505 L312.8705151093301,331.2566068178959 L313.46233184588317,328.5459738731729 L313.642266625642,326.39660748284393 L316.43617580354856,326.8354472312104 L319.25257682892493,326.8354472312104 L322.9180450962909,325.8206841981509 L326.0697152230157,325.13526651651773 L328.99787261550824,324.64211064998426 L333.9151527686235,324.8886885832511 L336.5748137319432,324.75160504692434 L338.36432134627006,324.81281844993816 L337.4674589284067,326.86476069180856 L336.5705965105428,332.3963831388005 L336.9824784673356,336.82702649214986 L338.0248350235213,340.4851739426778 L339.0432939917691,344.61837188701674 L339.673768591161,348.2765193375444 L339.60067008688367,348.99038831917005 L338.55831353069806,351.0121549398365 L337.32196479008536,352.9158055575045 L336.9824784673356,354.2538788177492 L337.2495691560414,356.7817337140367 L337.68605157100484,358.95265411951146 L338.72840812719005,361.03390982197993 L340.6191290551315,362.8780713578458 L342.94703526826976,364.870524517914 L345.2742386111747,365.91115236914834 L350.72921449286855,367.6363357414101 L354.4143631267706,369.1227006258572 L356.4505781930333,370.58061421031243 L357.3959386570043,371.5910664403426 L357.8809191180744,372.78084807638527 L357.9540176223517,375.1009222666679 L357.10073315896085,378.07451419616837 L355.0525692987303,384.42691353990836 z"/>
	<path id="mardin-dargecit" title="Dargeçit" class="district" d="M540.925899660523,185.91270972682258 L541.4389949309309,184.78414149379387 L543.5869663643102,183.07964997607215 L544.9259341590051,181.46827180377971 L547.0261104165103,180.0112203799307 L549.2380430411315,181.78727122793612 L551.4478670550538,182.30025678840383 L553.3983319528368,182.49510508532077 L555.6875803031362,182.20197047933937 L560.9619185348365,182.00712218242217 L563.8682869500925,181.66484442190864 L566.9138236715686,180.83458375849625 L569.2628159917105,180.00518525568998 L573.1040018174359,179.1499219347085 L575.0432207914845,178.89989535901844 L576.3786742350113,185.35144317242862 L576.4419325560208,186.69555155691432 L576.1446184472779,188.74749379878472 L576.3765656243119,190.42698265893762 L577.2094668509324,191.2460352344741 L579.1353312905457,192.64790837955024 L579.62101462185,193.63594443382897 L577.8455644121917,197.0794138935055 L578.0388537263864,198.16314977503137 L579.470600391895,199.41328265348164 L585.7387971336728,202.42567181024435 L587.6049176034442,202.7860549434804 L589.039475749886,203.68873709778228 L589.5687370356629,204.84230798838007 L591.2043160688678,209.20397849326338 L592.3977897252413,210.34720345659116 L594.6385400294331,211.14556417758783 L595.3385987819348,211.73786851379165 L597.2349426717442,214.1484695676864 L597.630658613168,215.7951963248177 L596.0112455953331,220.11806960243865 L595.5789804017704,222.74076216536722 L595.2191108422513,223.1925343228211 L593.4352261897914,224.39955917098 L589.4759581648495,226.3144178765239 L588.0898980645143,226.41960147043497 L586.5330404974546,225.14791457683876 L585.4520260784311,224.58147505880987 L584.7828936161999,224.55129943760588 L584.1278185586386,225.33845207072667 L584.4848766372236,227.65249113676884 L585.2060214967285,229.39836636357023 L585.2242961227979,231.10630652371538 L584.8201457385725,232.24263420219657 L584.2965074146631,232.9125329929248 L582.4479587007276,234.45924911977994 L580.7603672702489,235.136045195355 L580.3646513288243,235.68093069823823 L580.5038196350448,236.46291036772408 L582.2792698447031,239.56065342446362 L584.0673717185633,241.51258503605814 L584.8313916623079,243.02653905989195 L585.1111340152152,244.85690602606456 L585.6031431786193,249.67638381264248 L585.4604605212318,250.7247711093292 L584.2339519638874,252.18096037257263 L583.5310817304514,253.6543928479324 L583.9633469240146,255.16748471116034 L586.2603268468823,257.0409597076244 L586.7242212009493,258.2074630073095 L586.5998131696311,258.92995359499326 L585.9370065395017,259.91109236442543 L583.119902643892,261.87509422450137 L582.6068073734841,262.97779763935534 L583.2443106752102,264.2951790450605 L585.8414161877546,266.85407172315763 L586.8282459954976,268.82841951050335 L587.273865723496,270.2164980858863 L587.9254264298911,271.4890471400884 L585.8329817449529,273.2323358850725 L581.5370388781951,276.2024791721494 L579.1395485119469,277.1922395476399 L577.2410960114366,277.5121011324021 L574.273577885872,277.6000415141965 L571.1879775610904,277.16292608704174 L568.7911900650752,276.5809676781079 L563.2371094804678,274.7462899089063 L559.9378366047216,273.58151093043256 L556.3539012844337,272.853847379114 L551.8372571643769,271.65716845822476 L549.7806588613441,270.61309196456733 L547.3002298075505,268.8663545771598 L545.2457401152178,267.74123498655456 L541.6231469320915,266.1083027991165 L540.5407267726004,265.9419058021915 L541.3026381056454,264.6271108783042 L543.3971914012822,262.3294528637728 L543.9398072214949,260.3033754400771 L543.4716956460271,259.03427502829845 L542.2374555161139,258.45490310118225 L540.39734124498,258.4169680345258 L538.2957592470077,258.88253476167284 L536.6686146566045,259.6084739917798 L535.5840858864134,259.7291764765958 L533.6863362561375,258.7316566556529 L532.823914479712,257.3409915984526 L533.2920260551798,256.3132961563057 L534.1298473734349,255.4063031989748 L535.7815924220084,254.55966148405162 L536.7677193595187,254.4691346204399 L538.5909647450507,255.37612757777083 L539.1089801070922,256.1615558896799 L540.2427097936246,257.15993787122864 L541.3567591136195,257.3021943711903 L542.2388612565815,256.7969682561751 L545.1965391988779,254.71053959007162 L545.8867577681118,252.23182784831647 L545.4186461926436,249.63155146113942 L544.136610886857,247.42442031022 L542.7322761604532,246.3363736256651 L537.6793420522845,243.28260075982274 L535.6332868027544,242.85927990236144 L533.9576441662435,243.6757459960803 L532.6510084022873,244.00853998992994 L529.1268170518413,244.43186084739128 L525.4051191657994,244.1594180959497 L522.5212425980142,242.8291042811574 L521.2891110788009,242.4661346661038 L519.2430558292708,242.1643784540641 L517.6412145672715,242.1643784540641 L514.7573379994853,242.73857741754546 L513.9933180557408,243.041195790191 L512.0217670509536,244.4016852261875 L510.61672945431656,245.67078563796616 L507.7827566731046,247.514947173832 L505.78590233991395,248.48315353417678 L503.42004113416965,249.0875281188621 L501.2755840519577,248.48315353417678 L498.2687051933209,246.27602238325738 L496.962772299598,244.79396830183902 L495.97664536208777,242.70840179634143 L495.26182633468363,240.65214875144198 L494.81831521738616,238.65710910955616 L494.84291567555636,235.7550765103394 L495.0896231274917,233.3970672534 L495.4593328702787,231.55204355692825 L499.5999414154479,229.69063880894606 L501.6966033217865,228.26548732751252 L503.4397215007057,226.62307137341026 L506.52251034455446,223.0899372107276 L507.3308111130053,222.47004373513735 L508.69508223610364,220.08358317820566 L509.629899646573,218.93690957245443 L511.6007477811264,217.0461913638741 L513.5968992440833,215.71415322786984 L516.9320185017349,214.3502151494502 L518.8775633078842,213.38976823455786 L519.8622845049273,212.3043080318205 L521.7066159974626,209.60833181739662 L523.2480104193864,204.86644848534334 L524.0064074012631,202.17047227091942 L525.5724022813578,199.07100489296812 L527.619160401122,195.3214684182226 L528.1245240989621,194.79468828806168 L528.8569148822019,194.73261272444196 L529.615311864079,195.1662795091736 L531.2066100725771,197.2742621904227 L532.5202745388683,199.90816284122687 L533.2027615355339,201.67472992256833 L533.8599452037955,202.5731012738409 L535.8300904681155,202.5731012738409 L537.7250286174583,200.96172310154876 L538.5087289277388,199.81504949579755 L539.1399063973637,198.3588602325542 L539.7211800804151,194.42309706694974 L540.100027136237,189.30876035317868 L540.2771504350621,188.00775999898434 L540.925899660523,185.91270972682258 z"/>
	<path id="mardin-derik" title="Derik" class="district" d="M162.34593452747686,316.7352357339365 L161.45188359054671,318.846667057609 L161.38440804813686,320.65634216924184 L161.92140090648206,326.7716473463793 L161.58542893489937,329.6236746304578 L161.18338716137436,331.8446003510705 L160.2893362244442,335.1906456622886 L159.35030159257448,337.6581493161681 L158.2995105935886,339.687675382287 L155.3488613536258,343.85535975085895 L151.8612192553188,349.0929854312636 L148.75382995330025,352.6028412575888 L147.34527800549566,353.5356990330947 L145.17692333534637,354.4401055086081 L142.24806307262057,355.4281415628868 L137.9113537323239,359.019902646766 L129.0362112947334,365.9852981812495 L125.5710610438957,367.90446768982235 L123.55874356556978,369.43997572880187 L122.26265085511514,370.72890583451476 L120.49633795849132,373.11450423084034 L119.73653523614809,375.08885201818634 L118.37226411304928,378.07796283859165 L117.00869586018476,380.29975071981016 L115.75688397443542,381.72576436184954 L112.29173372359867,383.8915118036891 L110.63788006432432,384.0561844794023 L108.98332353481811,383.7001121491953 L107.2395024856641,382.90433791001624 L105.40641691686423,381.6981752224632 L104.89191590598931,380.7929065863438 L104.6908950192268,378.68147526267114 L103.2823430714222,376.6795383359388 L101.91877481855673,376.02170979369225 L100.77871929992449,376.02170979369225 L98.8113855165382,376.43296040267217 L97.26858535414718,377.25546162063176 L96.70980351856643,377.85897404471154 L96.44200995962737,379.038409753484 L96.39702626468778,380.6834121894036 L96.79977090844562,382.3008254859368 L98.11835546637056,384.5769294853225 L99.05739009824076,385.15285277001533 L101.11398840127293,385.4270198426686 L102.11979570531922,385.8382704516487 L102.36580028702227,387.0177061604212 L102.34330843955246,388.6083924781736 L101.78452660397078,389.67747162940043 L100.64447108533854,390.39047845042 L98.43113272025015,390.9939908744994 L94.9884743168827,391.40524148347924 L90.2940040277664,390.966401735113 L86.69460556234368,390.28098405347987 L84.39200267760799,390.49997284736 L83.61533106966192,390.83104251999794 L81.6620546909452,390.3206434413478 L80.59509767659029,390.5870510685486 L79.4564478984242,390.54221871704556 L79.0403487202301,388.9894674659497 L79.18513998831811,387.8807289268549 L80.2520970026735,386.9495954725608 L80.63164692872823,386.19520494246126 L80.63164692872823,384.6424536913654 L81.51726342285673,384.0432520703149 L81.40902140690808,383.0457322493721 L81.80684595903226,381.98096390117456 L80.9388012207399,381.4705648225244 L80.08903110851652,382.35772808592134 L79.11274435427411,382.22495535262385 L79.0403487202301,380.761006643928 L78.13645760003216,379.94022974717996 L77.2684128617398,380.22819138952656 L76.30899499309974,380.09110785319973 L76.2555768553585,378.853045223231 L75.74951028728474,377.9434657840825 L75.69468640907687,376.90111361163656 L74.46536637079828,375.1716194363459 L73.50665137239247,375.06040071819416 L73.18122245431229,374.5724178152955 L74.1399374527181,373.397292909552 L73.959299802725,372.3325245613545 L72.9281891702747,372.28769220985146 L71.73471551390124,373.1748554732484 L69.96629400657797,372.98862878238947 L68.85997625914996,371.1720563859103 L67.41276644850653,366.7448616749839 L66.74925694814324,362.67373929426464 L65.4552728483885,361.2951444855459 L63.53151701947519,360.56403229180376 L60.53518121433949,359.24837520731035 L59.34381616866642,357.9749639925025 L58.444142269868834,357.4714621986991 L57.86568006775107,357.5378485653479 L55.76831529118013,357.2274707472498 L55.478732755004586,356.56188275955066 L56.72632741935216,355.0315476842061 L56.780448427326704,354.29957332985816 L54.71893003266088,352.76923825451377 L53.580280254494795,353.50121260886147 L52.22374070396434,354.9427451418058 L51.102662681634854,354.83152642365394 L51.3922452178104,354.0779980541604 L51.30157495769694,353.0571998968603 L49.45724346516218,351.2828733700664 L48.55335234496424,350.70608792476753 L47.70287936250706,349.4421604766237 L47.72115398857699,347.6005854225755 L48.80638562900042,345.8486750715331 L48.6074733529388,344.22953745378845 L46.871383876353136,343.7415545508898 L45.497272569986535,342.3215760330913 L45.24423928594942,341.2792238606452 L46.83553749444755,340.7472707668494 L47.61291197262787,340.23687168819924 L47.0520215263453,339.2384897066506 L45.696184846048155,338.75050680375205 L45.37075592796798,337.1986177132618 L45.67791021997965,335.73466900456594 L45.04532700988733,334.51471174731967 L44.80986548168636,332.7843554114229 L43.16444626521367,331.6307845208251 L43.45402880138921,330.965196533126 L45.18941540774155,329.9228443606802 L45.424876935942535,328.92446237913146 L45.11772264393133,327.5053460219388 L44.05076562957642,326.19658622229207 L44.520985815744126,325.35339314979234 L44.267249661474644,324.53347841364996 L43.14617163914422,323.69028534115023 L42.31467615299029,322.44791190815215 L41.826181340752655,320.4295939299092 L40.94056484662416,318.34488958501726 L39.981849848217415,317.45772632162027 L40.07252010833133,316.237769064374 L39.60229992216268,315.6385674433235 L38.13751835568311,315.61615126757204 L37.179506227510146,314.01942982557864 L37.902759697715446,312.7994725683321 L37.77554018546357,311.15791877483593 L37.233627235484704,310.581133329537 L37.34186925143381,308.47401280889363 L35.96775794506722,306.38930846400183 L35.316900108906395,306.12290083680097 L35.244504474862396,303.8605914071084 L35.75057104293569,303.3950246799616 L35.22622984879248,302.8182392346627 L34.86425167857388,301.64311432891924 L34.05103081848845,301.087882898766 L33.68905264826985,299.73515290822195 L33.05646943817753,299.2695861810749 L32.96579917806408,298.09359911472575 L32.22427108178934,297.0072767513826 L32.76688690200199,295.78731949413606 L32.1884246998847,294.96654259738784 L32.622095633913986,293.6801989734928 L32.532128244034325,291.46185973469744 L32.02535880572772,290.441923738003 L30.85015977542369,289.5323442988548 L30.922555409466753,288.44515977490573 L29.584290485005738,287.58041268726026 L29.024102908957893,286.36045543001376 L27.812354626514498,285.09566582126433 L27.59516772438343,284.0317596336728 L26.926035262152688,282.65661346737716 L26.836067872273027,280.9262571314805 L27.48692570843432,280.0390938680838 L27.342134440346783,279.06312806228647 L27.975420520672415,275.5144750086989 L27.938871268533056,273.3401059608008 L27.667563358427437,272.87453923365376 L26.166935410042754,271.5433632582556 L24.669821812824644,269.88370409203674 L22.127540178488566,267.7679619653352 L19.22257750369917,265.5401389598759 L18.13312864187445,264.39001671170155 L16.04490117833752,260.8629176732594 L14.592068405825692,257.7815556680306 L13.774630324340848,256.66850632590683 L9.901112467877372,251.8421312544823 L7.782661584302311,249.05821465826392 L4.9374428793553875,245.82769886822666 L2.909662255893778,242.15317036618822 L1.880660234144376,238.4777797035439 L0.6400942721309257,230.2734593784857 L3.7271003373795617,230.75626931774917 L8.425787847895744,231.15544967824752 L10.990561329702558,231.5175571326953 L14.75864865115065,232.74182519297085 L17.164573460200373,233.68847753816993 L21.84006625301297,235.86026010425047 L26.15287800537366,237.33627906142783 L30.01163558693473,238.14326138848256 L33.5983823881564,238.4777797035439 L36.97989108121428,238.8950654367647 L40.317118949566805,238.53382014292282 L45.44666591317902,236.72328287068416 L48.44300171831425,234.63512988336902 L50.735061549547865,232.74182519297085 L53.95842444008336,229.90186815737383 L54.77586252156915,229.01125625155368 L55.02538145443829,228.12064434573327 L56.0466519036203,228.03701476696816 L58.63462010313023,229.01125625155368 L60.83600967424947,228.31549264265047 L62.81107503020408,227.48005901560322 L64.67227540834168,227.8697556094374 L65.55718903223685,227.59127773375505 L66.69232445923495,228.2870413426582 L68.14515723174631,228.45430050018874 L72.57113109168978,226.89551412485184 L74.54549357741014,225.47553560705342 L76.88394284405047,223.52619047727654 L78.74514322218711,222.9976860259039 L81.40058696410738,223.1089047440557 L86.3038097125531,223.83225749234532 L91.04748091800936,225.19705773137088 L99.12837999181814,228.45430050018874 L103.19096994107544,230.6536722056557 L105.85344238532883,232.41679064457375 L102.11346987321846,237.58889211893546 L100.30779624352252,241.31170161490016 L98.45151595701954,244.29650163227643 L97.09708501718949,245.4655914137789 L95.89236543708064,246.7890079437248 L95.08968763049727,248.08138669186087 L94.86406628556456,250.05056151557173 L95.44112274721475,251.61969381817866 L96.29440721060564,252.66635679365368 L98.77764774533303,252.94311034812432 L100.73373560498489,252.32752767556332 L102.43960166153289,251.52744263335495 L104.52150329296906,250.1738504822053 L107.18046138605541,247.8968843222137 L108.58549898269345,247.83480875859405 L109.66440479101612,248.69696936442207 L110.2913650392405,249.74277017929126 L109.76421236416454,251.65073159998852 L107.18046138605541,253.9889111629937 L105.04865596804505,256.3270907259989 L103.91984637314819,257.804834004388 L102.91614767980231,260.2663025340265 L102.84094056482458,261.5276435003527 L103.04196145158708,262.5122309122083 L103.56841125642975,263.31231595441665 L104.94814552466427,264.32794114808183 L107.10525427107817,265.2202773751137 L110.54228971257723,266.3272915929967 L115.10743187874124,266.88166086254404 L119.19602802663584,267.83521049258974 L120.52585850829522,268.32750419851743 L122.00540034967719,268.4197553833411 L125.29202156122221,267.8041727107799 L129.68144616902725,268.01971286223693 L130.8854628789023,268.3585419803273 L132.6918393788311,269.28105382856313 L133.46921385701143,270.26564124041863 L134.67323056688647,273.3426924426184 L135.02466568360396,274.81957356040164 L134.99936235519996,277.31207987185 L134.74843768186372,278.6354964017959 L134.14678076204285,279.74337278028474 L133.59502762879617,282.26605471293715 L133.29349629865197,284.6352720577522 L133.8958560887071,287.3122807388478 L134.77374101026726,289.06591541110186 L135.45130791529917,289.8970382351198 L137.00605687165887,292.41972016777225 L138.00975556500475,293.68192329470423 L139.11326183149905,295.8045627062527 L139.414090291409,299.158367462923 L140.04175340986671,300.2972816232218 L142.22416548468414,302.5742477832134 L143.8042177694469,304.8813895644088 L144.85782024936697,306.02030372470745 L145.71040184252456,307.40493365766696 L146.81461097925168,308.60506122097956 L148.59568415077695,309.9276155903196 L150.75279289719083,311.3122455232791 L153.76248323676137,312.23561953212084 L157.52565046657625,313.6814628680942 L159.13100607974255,314.48154791030254 L162.34593452747686,316.7352357339365 z"/>
	<path id="mardin-kiziltepe" title="Kızıltepe" class="district" d="M253.3781728108798,383.25609943719394 L250.72905490106172,384.6510752974235 L249.3858698849661,384.8364398276765 L246.8632686171656,384.619175355008 L245.5531185020423,384.87609921554474 L243.20061183073335,386.65215006355004 L240.93385532790376,388.6773653266399 L239.94491690945978,389.29639664162426 L234.89338854175855,391.892362225772 L228.47266895932486,395.3720424308935 L226.74993401717452,396.1997166124884 L223.06127103210497,398.9560440693202 L221.9275413455735,399.26124892378317 L215.58554322928504,399.51041333886735 L214.40612697757973,399.8319992448413 L213.6526500873363,400.3941279598411 L209.3946622131844,404.2359156194102 L207.64521820216297,405.30499477063665 L198.88394074238948,410.9693899509261 L197.5822250700669,411.75912906586444 L195.9086910442565,412.13072028697627 L186.57808869539974,413.3911990926967 L180.19672984603915,414.16628147733593 L176.41317937945533,414.68185351962103 L164.59582214470416,416.1380427828643 L162.95532301986512,416.46307733126156 L158.80206281049485,418.9900700669429 L156.03978279309305,422.48009619933447 L154.10478104044483,425.1053752440804 L153.67251584688216,426.52535376187893 L153.7027392669203,427.3254388040872 L152.99705755255067,429.1402868793548 L151.40365073335164,430.77408122739877 L146.6072642603884,435.3211162625351 L145.20363240421747,436.1220634653494 L143.95884922080316,436.4384764076882 L142.03509339188986,436.60573556521877 L141.12065921819033,437.0385401893442 L138.72176311147516,438.77320732826996 L136.71788007594998,440.36820444905163 L134.15380946437787,442.14856610008627 L131.96507155745923,443.82977928145056 L128.37973049670467,445.8291297263654 L126.57546260747534,446.71629298976245 L122.49951812378228,448.9441159952217 L119.46382158557489,450.4770375523839 L117.21674544928135,451.20211462188513 L115.65285917988763,451.47369521272094 L112.50681201502931,452.28240186098736 L111.7863700257582,452.5763986275747 L110.76299096587672,453.44028355461427 L110.06363508360786,452.23670734887844 L107.52978789207296,451.34437112184656 L105.90686052307008,450.16838405549754 L105.2468653738743,449.1139616345698 L104.58757309491183,446.7050849018868 L104.65012854568708,445.2876928659057 L105.00507801357254,444.67900747819107 L106.35810321293597,443.3167937209831 L107.78563265704334,442.73655963326087 L109.94344427369055,442.2873739576245 L110.69832690440012,441.3683107518121 L111.45320953510969,439.0947932342439 L111.33583020612659,438.1765921890371 L110.05941786220751,437.06095636509565 L106.61324510767302,434.99435739292625 L100.94811102618223,432.72342635717564 L97.22922462107503,431.3637990817851 L94.43180109200142,430.5697491638176 L93.68394716362592,429.8800206791553 L93.53283006343761,429.1989138005511 L93.76126288930453,426.2805001498238 L94.14081281535925,425.8209685469175 L96.22833740866335,425.00708893501593 L96.44200995962737,423.7267804353616 L95.69415603125186,422.78961185682664 L93.38241583348264,421.04718527244853 L91.02498907053956,419.67203910615297 L90.08103434703615,418.73918133064706 L89.03727205038435,416.9553710371892 L88.47708447433604,415.6621301284473 L87.96680068486145,413.0454726897597 L88.11651204458312,411.67808596891666 L88.65701925409536,410.61590410253666 L89.98895834645609,409.1640256423226 L90.23988301979185,407.99752234263747 L89.87298475793864,407.0146592519935 L88.34564774068286,405.4058675615187 L88.12494648738476,404.66182295868936 L88.46372993990025,403.7427597528767 L89.6185457334349,402.67540492286173 L89.67266674140946,402.0537871260599 L88.28028080897388,401.16662386266285 L87.10508177866986,399.902696414519 L87.48463170472506,398.41633153007194 L88.69637998716797,397.57400061817805 L88.64225897919343,396.59803481238083 L86.12879502442792,396.7083913699268 L85.69442122016484,395.4668800975346 L86.36355368239558,394.53488448263454 L86.25531166644647,393.40372976778855 L84.51922218985986,392.2949912286938 L83.61533106966192,390.83104251999794 L84.39200267760799,390.49997284736 L86.69460556234368,390.28098405347987 L90.2940040277664,390.966401735113 L94.9884743168827,391.40524148347924 L98.43113272025015,390.9939908744994 L100.64447108533854,390.39047845042 L101.78452660397078,389.67747162940043 L102.34330843955246,388.6083924781736 L102.36580028702227,387.0177061604212 L102.11979570531922,385.8382704516487 L101.11398840127293,385.4270198426686 L99.05739009824076,385.15285277001533 L98.11835546637056,384.5769294853225 L96.79977090844562,382.3008254859368 L96.39702626468778,380.6834121894036 L96.44200995962737,379.038409753484 L96.70980351856643,377.85897404471154 L97.26858535414718,377.25546162063176 L98.8113855165382,376.43296040267217 L100.77871929992449,376.02170979369225 L101.91877481855673,376.02170979369225 L103.2823430714222,376.6795383359388 L104.6908950192268,378.68147526267114 L104.89191590598931,380.7929065863438 L105.40641691686423,381.6981752224632 L107.2395024856641,382.90433791001624 L108.98332353481811,383.7001121491953 L110.63788006432432,384.0561844794023 L112.29173372359867,383.8915118036891 L115.75688397443542,381.72576436184954 L117.00869586018476,380.29975071981016 L118.37226411304928,378.07796283859165 L119.73653523614809,375.08885201818634 L120.49633795849132,373.11450423084034 L122.26265085511514,370.72890583451476 L123.55874356556978,369.43997572880187 L125.5710610438957,367.90446768982235 L129.0362112947334,365.9852981812495 L137.9113537323239,359.019902646766 L142.24806307262057,355.4281415628868 L145.17692333534637,354.4401055086081 L147.34527800549566,353.5356990330947 L148.75382995330025,352.6028412575888 L151.8612192553188,349.0929854312636 L155.3488613536258,343.85535975085895 L158.2995105935886,339.687675382287 L159.35030159257448,337.6581493161681 L160.2893362244442,335.1906456622886 L161.18338716137436,331.8446003510705 L161.58542893489937,329.6236746304578 L161.92140090648206,326.7716473463793 L161.38440804813686,320.65634216924184 L161.45188359054671,318.846667057609 L162.34593452747686,316.7352357339365 L163.88873468986787,315.1445494161842 L165.18482740032303,313.5547252590374 L168.94096592780244,309.5784405449592 L170.59481958707582,308.70076104822647 L172.11512790199706,308.317099578633 L172.9873898616907,308.3446887180195 L174.4177307867318,308.81025544516655 L176.18404368335558,309.6603458025129 L176.96633825316957,309.71552408128576 L179.85021482095533,308.317099578633 L181.07953485923392,307.4118309425136 L182.01856949110365,307.1100747304738 L184.91720633379134,306.5531189791092 L188.64312144123357,307.13766386986026 L192.42878051851733,307.905848969653 L195.76741412733648,308.4903938604043 L200.80488509036815,308.45418311495956 L204.13789573731987,308.25071321198436 L208.58847005543402,307.11869633653214 L210.8306261000934,306.1479034943701 L213.33635848229062,305.8642526550526 L215.41334002209217,305.90477420352664 L218.31478834571453,306.39017062460766 L220.39176988551657,306.99713169111055 L222.30427979069452,307.19887727287414 L223.6889341505627,307.15835572440034 L227.34807658582835,305.74355017023663 L230.21649000847887,305.29867529762953 L232.6238205579952,305.62198552481505 L233.61275897643915,306.5927783669771 L234.7992039304781,309.90864805699124 L234.99741333630732,311.08118648091715 L234.86527373242083,312.82016442287215 L234.40419085928716,316.4602065006776 L233.61275897643915,318.926847993951 L233.18400813404352,322.6479331687043 L233.2500779359863,325.0740531135042 L233.48061937255315,325.72153572848083 L234.37115595831625,326.7725095069849 L235.5245660113833,327.13634128264437 L236.71171383565604,327.17686283111834 L238.09636819552418,326.2474536980359 L239.41495275344914,324.75074288631845 L240.50299587480725,324.4679542076071 L243.27300746477692,325.3171824043476 L245.7126700450318,327.21738437959215 L247.34614046753626,331.2100501451811 L247.29834529166249,333.14473854465894 L246.1224433911242,337.8547219342968 L245.36756076041462,340.43085782451055 L243.9266767818724,344.02089458717796 L241.5664385379951,348.6248322222989 L241.11660158859678,351.17941409736704 L241.43078458294303,351.9786369789696 L243.33767152625353,353.7270986875885 L249.24248435734518,357.0119305957928 L250.40432885321434,358.22499056819277 L251.88808791599672,360.49937024636654 L253.1989409013533,363.016879215384 L254.11337507505328,366.1111736297004 L254.92940741607197,369.4166973924446 L255.27592244115579,371.41863431917693 L255.15221728007094,373.1783041156718 L254.18787931979722,375.63459968167547 L253.61925730094822,376.7269571692594 L253.29734273403415,378.48576480514834 L253.17363757295027,382.18615812536154 L253.3781728108798,383.25609943719394 z"/>
	<path id="mardin-midyat" title="Midyat" class="district" d="M373.55492532368675,230.28811610878478 L377.7946385717701,231.9839860204482 L379.5883634074983,232.94529509594634 L380.70030411679284,234.02989313807785 L383.555363005008,237.25264948266243 L385.0960545566986,238.7407386883213 L386.9656893776369,240.19692795156467 L389.08835748261237,241.5298282481748 L390.55384191932524,241.90141946928645 L394.1159882623767,241.06512368163357 L394.7225652738317,240.81682142715493 L398.53774490091934,240.25900351518442 L401.79695417335995,240.16589016975485 L405.030860117397,238.70970090651167 L406.69806831110617,238.5234742156528 L408.13824941941556,238.58554977927224 L409.50252054251433,239.08129212762336 L411.4986720054712,240.4762679878529 L413.24179018439094,240.38315464242356 L415.5162782597884,239.1744054730529 L417.3100030955157,238.58554977927224 L421.30160315119605,238.18292077635078 L427.33996132664083,238.5234742156528 L437.5983523836329,239.91845007588236 L440.07386134579195,240.0107012607058 L445.582255365227,239.97966347889619 L449.27091835029654,239.73222338502345 L453.1613050923624,239.91845007588236 L457.532455074098,240.5685191726766 L460.69045103292353,241.28152599369616 L463.8238465335789,241.34360155731588 L465.9964184251285,241.03408589982368 L468.32081028709973,240.9409725543941 L469.5838680965835,240.6616325181059 L470.9488420899156,240.04173904251564 L473.4243510520751,237.90358074006255 L475.496412500243,235.3317556528778 L476.6835603245157,234.21525766833085 L478.0225281192105,233.2237729716287 L481.5600740040913,232.23228827492656 L482.77252515676804,232.4185149657854 L483.75794922404395,233.00737065956582 L485.9818306426344,233.90574201083842 L486.84073806789274,233.93677979264828 L488.71037288883105,233.62640197455022 L491.2617918362026,232.01502380225804 L495.4593328702787,231.55204355692825 L495.0896231274917,233.3970672534 L494.84291567555636,235.7550765103394 L494.81831521738616,238.65710910955616 L495.26182633468363,240.65214875144198 L495.97664536208777,242.70840179634143 L496.962772299598,244.79396830183902 L498.2687051933209,246.27602238325738 L501.2755840519577,248.48315353417678 L503.42004113416965,249.0875281188621 L505.78590233991395,248.48315353417678 L507.7827566731046,247.514947173832 L510.61672945431656,245.67078563796616 L512.0217670509536,244.4016852261875 L513.9933180557408,243.041195790191 L514.7573379994853,242.73857741754546 L517.6412145672715,242.1643784540641 L519.2430558292708,242.1643784540641 L521.2891110788009,242.4661346661038 L522.5212425980142,242.8291042811574 L525.4051191657994,244.1594180959497 L529.1268170518413,244.43186084739128 L532.6510084022873,244.00853998992994 L533.9576441662435,243.6757459960803 L535.6332868027544,242.85927990236144 L537.6793420522845,243.28260075982274 L542.7322761604532,246.3363736256651 L544.136610886857,247.42442031022 L545.4186461926436,249.63155146113942 L545.8867577681118,252.23182784831647 L545.1965391988779,254.71053959007162 L542.2388612565815,256.7969682561751 L541.3567591136195,257.3021943711903 L540.2427097936246,257.15993787122864 L539.1089801070922,256.1615558896799 L538.5909647450507,255.37612757777083 L536.7677193595187,254.4691346204399 L535.7815924220084,254.55966148405162 L534.1298473734349,255.4063031989748 L533.2920260551798,256.3132961563057 L532.823914479712,257.3409915984526 L533.6863362561375,258.7316566556529 L535.5840858864134,259.7291764765958 L536.6686146566045,259.6084739917798 L538.2957592470077,258.88253476167284 L540.39734124498,258.4169680345258 L542.2374555161139,258.45490310118225 L543.4716956460271,259.03427502829845 L543.9398072214949,260.3033754400771 L543.3971914012822,262.3294528637728 L541.3026381056454,264.6271108783042 L540.5407267726004,265.9419058021915 L536.3727062883281,268.6180523226815 L530.9753657657765,270.9760615796207 L528.4857993989478,271.9434057793596 L525.528121456651,272.79004749428276 L522.8157452258233,272.7081422367291 L520.8224052438002,271.07779653110856 L517.2855622291528,266.39022931722224 L515.4819972101568,264.70211885101105 L514.532419524786,264.4977867874299 L512.8947318808806,264.7598836116017 L512.4195916030783,266.1867594142467 L512.5622742604659,269.6802341890615 L511.9690517834466,271.71838186123864 L510.54503669050587,274.6298982271193 L508.0048636668697,278.00698132014736 L507.74409881026475,278.85189871385853 L508.0287612548067,282.6367837734432 L508.0287612548067,284.6740692850145 L507.38774360191314,288.7503646293687 L506.6047461618658,290.7298853803496 L505.10903830511575,292.2731528647815 L503.4003607676341,294.39837875814726 L502.87812818419127,296.8443283968811 L502.7832407026774,298.64969270548465 L502.4507830822628,301.12409364421075 L503.11569832309215,304.9089787037951 L503.1395959110291,306.1022089822611 L502.21391581359467,308.4903938604043 L500.6711156512041,310.38283639019664 L499.2232029703264,311.63469358985867 L498.58218531743296,312.50806228356237 L497.8223825950896,315.53597033123003 L497.3950374931602,320.22267538451047 L497.5138225626114,323.0255595140569 L493.51659954506306,322.81950312926404 L488.4699912689964,322.22375015063704 L482.40492402468055,319.9804082542729 L479.74245158042714,318.87253187578403 L477.82080436221423,318.7302753758223 L475.5062526835108,318.92943447576863 L463.8618015261844,322.13839625066 L459.62489975903526,323.8135743077836 L456.9631301850147,325.8577571042015 L454.231073587651,328.2149042005351 L452.00859790952813,330.4582460968992 L448.1892010610392,334.7181816502949 L445.27228959228114,338.23924556449606 L442.51703827721434,341.8456633786741 L439.9473447037743,345.4805324928446 L437.7712584610577,347.35400748930863 L433.81269330634916,349.79650848561903 L432.35423757196986,350.8474822641233 L431.2893891683154,351.8406912820369 L429.85412815163966,353.82883363907615 L426.96041140058566,355.90146773548634 L422.60823891515327,357.0093441139752 L419.8304957526157,357.8611587925333 L417.14482859065873,358.28706613181225 L414.18152768649446,357.6904509925794 L412.28307518598467,356.35582637475784 L409.66769504737175,352.57956292123146 L408.4404836197926,349.73960588563443 L407.1900774745109,345.7926346321544 L405.4075985625185,341.95860641803756 L404.5051131827877,339.2333167430155 L401.8426407385333,335.82519586817796 L398.60170609216215,332.92919839320194 L396.6104747208394,330.6574051968455 L394.99035883277077,328.98136497911605 L392.2583022354071,326.596628743396 L387.11961795875897,321.1727763721327 L384.85075284522986,318.50352713648965 L382.9986897801272,315.465273161552 L382.5123035785895,314.2720428830863 L382.4659141431824,313.22193126518783 L382.90591090931383,311.34759410811796 L383.809099159278,310.0983233902733 L386.2438416478987,307.290266297092 L387.2412145091443,305.1331404613105 L387.91526706300823,301.21289618661103 L388.2083639503508,298.3358662449634 L388.0621669417962,297.6883836299867 L386.83073829281767,295.6381657093278 L386.0386035397359,291.2868411317145 L385.2471716568869,285.82074289076553 L384.57311910302207,282.7635213824999 L383.8695459993533,281.4332075677074 L381.670265038934,280.17445308319856 L379.94050139444863,279.3467789016038 L378.9733519532412,278.6639477017882 L378.0645407414096,277.4414039627243 L376.01215965977775,276.00245791159733 L374.4581135736518,275.75070701469576 L370.06025452304516,275.7153584298566 L365.8092953512274,276.1464387327707 L364.66572548142807,276.11022798732597 L361.469774529997,275.6429369389672 L360.56096331816445,274.7083548422498 L359.5052522275444,271.8666734854411 L358.8311996736795,270.46393817975905 L356.8083391418516,267.73088905928455 L355.6647692720523,264.5305488904515 L355.0785754973672,259.3877608766879 L355.0195343977585,255.18041712024774 L354.40382007326895,253.2741800207624 L352.12652051693817,251.46105626670618 L356.06962252651107,250.35835285185246 L357.7993861709964,249.70742159445237 L362.8951953634044,246.65278656800416 L365.96252106211654,244.64481451703097 L369.74396291799945,241.27893951187883 L371.56580256306444,238.082047985469 L371.9804960007919,236.35686461320716 L372.603239027615,234.57477864096103 L373.55492532368675,230.28811610878478 z"/>
	<path id="mardin-mazidagi" title="Mazıdağı" class="district" d="M234.52367879897164,222.8933645925987 L233.7751220003628,224.08918135288198 L233.4637504869508,225.56002734642442 L233.99090316202677,227.53092649134703 L236.36519881057222,232.3262637809617 L236.796761133902,234.1204200016896 L236.7489659580287,236.18012168901242 L236.34130122263576,241.6220794329982 L236.07772488509755,242.56355881456244 L235.02201379447706,244.68188742308158 L233.65563406067832,246.79935387099488 L232.93589494164056,248.71162609472117 L233.29576450115968,251.65331808180585 L233.29576450115968,252.91810769055544 L229.53681449274606,256.03395612001754 L225.87767205748133,257.2521890560523 L223.73462071573653,260.4577021885203 L218.95440025814094,264.00894172392543 L217.7553036399,264.47968141470767 L216.58010460959596,265.33235825387135 L214.25360413692385,268.3921662439544 L212.9343167087661,269.3336456255186 L211.08787660553088,271.3631716916375 L210.70410945807438,272.6279613003871 L210.03286838514373,273.9229265303405 L207.8743538982632,276.7758159750251 L205.50005824971777,278.4527183533604 L203.89329689608485,279.77699704391193 L202.16634473253322,282.3945166432056 L200.89555535048206,283.5420524095624 L200.08022587969668,284.63096125472316 L199.9839326577158,285.5422650150831 L200.84705730437497,289.9254895351121 L201.44660561349542,291.749821377044 L201.9983587467421,294.7501402853252 L203.1496601891097,303.01653617400314 L203.84479884997728,305.9582281610878 L204.13789573731987,308.25071321198436 L200.80488509036815,308.45418311495956 L195.76741412733648,308.4903938604043 L192.42878051851733,307.905848969653 L188.64312144123357,307.13766386986026 L184.91720633379134,306.5531189791092 L182.01856949110365,307.1100747304738 L181.07953485923392,307.4118309425136 L179.85021482095533,308.317099578633 L176.96633825316957,309.71552408128576 L176.18404368335558,309.6603458025129 L174.4177307867318,308.81025544516655 L172.9873898616907,308.3446887180195 L172.11512790199706,308.317099578633 L170.59481958707582,308.70076104822647 L168.94096592780244,309.5784405449592 L165.18482740032303,313.5547252590374 L163.88873468986787,315.1445494161842 L162.34593452747686,316.7352357339365 L159.13100607974255,314.48154791030254 L157.52565046657625,313.6814628680942 L153.76248323676137,312.23561953212084 L150.75279289719083,311.3122455232791 L148.59568415077695,309.9276155903196 L146.81461097925168,308.60506122097956 L145.71040184252456,307.40493365766696 L144.85782024936697,306.02030372470745 L143.8042177694469,304.8813895644088 L142.22416548468414,302.5742477832134 L140.04175340986671,300.2972816232218 L139.414090291409,299.158367462923 L139.11326183149905,295.8045627062527 L138.00975556500475,293.68192329470423 L137.00605687165887,292.41972016777225 L135.45130791529917,289.8970382351198 L134.77374101026726,289.06591541110186 L133.8958560887071,287.3122807388478 L133.29349629865197,284.6352720577522 L133.59502762879617,282.26605471293715 L134.14678076204285,279.74337278028474 L134.74843768186372,278.6354964017959 L134.99936235519996,277.31207987185 L135.02466568360396,274.81957356040164 L134.67323056688647,273.3426924426184 L133.46921385701143,270.26564124041863 L132.6918393788311,269.28105382856313 L130.8854628789023,268.3585419803273 L129.68144616902725,268.01971286223693 L125.29202156122221,267.8041727107799 L122.00540034967719,268.4197553833411 L120.52585850829522,268.32750419851743 L119.19602802663584,267.83521049258974 L115.10743187874124,266.88166086254404 L110.54228971257723,266.3272915929967 L107.10525427107817,265.2202773751137 L104.94814552466427,264.32794114808183 L103.56841125642975,263.31231595441665 L103.04196145158708,262.5122309122083 L102.84094056482458,261.5276435003527 L102.91614767980231,260.2663025340265 L103.91984637314819,257.804834004388 L105.04865596804505,256.3270907259989 L107.18046138605541,253.9889111629937 L109.76421236416454,251.65073159998852 L110.2913650392405,249.74277017929126 L109.66440479101612,248.69696936442207 L108.58549898269345,247.83480875859405 L107.18046138605541,247.8968843222137 L104.52150329296906,250.1738504822053 L102.43960166153289,251.52744263335495 L100.73373560498489,252.32752767556332 L98.77764774533303,252.94311034812432 L96.29440721060564,252.66635679365368 L95.44112274721475,251.61969381817866 L94.86406628556456,250.05056151557173 L95.08968763049727,248.08138669186087 L95.89236543708064,246.7890079437248 L97.09708501718949,245.4655914137789 L98.45151595701954,244.29650163227643 L100.30779624352252,241.31170161490016 L102.11346987321846,237.58889211893546 L105.85344238532883,232.41679064457375 L108.27553320974758,235.77663052548507 L109.8415280898422,237.28023862204884 L112.3156313115351,239.28476203059887 L113.882329061863,239.7865395031907 L116.8329783018253,239.50806162750834 L119.91998436707445,237.92082395217918 L122.34840102359396,236.33358627685 L124.16461770679197,234.80238904089958 L126.4566775380251,233.2987809443358 L129.72572699373399,232.57542819604615 L132.2448139103665,232.79786563234978 L136.48944725008354,231.5175571326953 L139.57645331533266,230.26397561182154 L143.5258811570072,228.092193045741 L144.9105355168749,227.78612603067222 L147.0894332405248,226.86706282485957 L148.8374715110787,225.58675432520502 L153.58114271653494,223.49860133788985 L155.737548592716,222.3295115563874 L158.55254387762477,221.3268187718096 L160.1185387577194,220.4362068659892 L161.36683629230072,219.18262534511547 L162.93283117239486,216.14782001260124 L163.72777740641084,213.80964044959603 L164.6583775954794,212.66813980747997 L165.88348041235764,210.49635724139944 L167.836053920842,207.93487808148473 L168.7666541099101,207.0434040150588 L169.96926507931852,206.34764040615556 L173.05627114456672,205.15009932466054 L175.82557986430308,204.73281359143996 L178.05016415312636,204.7052244520533 L182.1584406675575,205.87431423355602 L183.77012211282502,206.01312209109426 L189.89844767814947,206.20883254861732 L194.66531360130975,207.29429275135467 L197.61596284127208,207.35033319073335 L199.86303897756562,207.07185531505104 L204.9700940937076,205.84672509416959 L209.85012212445065,205.0949210458877 L213.93590679141107,204.62159487328816 L216.34183160046078,203.98100954315782 L217.0215071161936,206.3183269455574 L217.82840214417732,210.8438079655481 L218.6352971721615,212.823328716529 L221.95565615491074,217.17982625777717 L222.60159389943837,217.77385491519271 L224.65397498106927,218.70671269069862 L226.98258406444177,219.35764394809846 L228.11279939980622,219.92322130552174 L230.0499097631539,221.50701033842745 L232.74752571908004,222.6950676532583 L234.52367879897164,222.8933645925987 z"/>
	<path id="mardin-omerli" title="Ömerli" class="district" d="M352.12652051693817,251.46105626670618 L354.40382007326895,253.2741800207624 L355.0195343977585,255.18041712024774 L355.0785754973672,259.3877608766879 L355.6647692720523,264.5305488904515 L356.8083391418516,267.73088905928455 L358.8311996736795,270.46393817975905 L359.5052522275444,271.8666734854411 L360.56096331816445,274.7083548422498 L361.469774529997,275.6429369389672 L364.66572548142807,276.11022798732597 L365.8092953512274,276.1464387327707 L370.06025452304516,275.7153584298566 L374.4581135736518,275.75070701469576 L376.01215965977775,276.00245791159733 L378.0645407414096,277.4414039627243 L378.9733519532412,278.6639477017882 L379.94050139444863,279.3467789016038 L381.670265038934,280.17445308319856 L383.8695459993533,281.4332075677074 L384.57311910302207,282.7635213824999 L385.2471716568869,285.82074289076553 L386.0386035397359,291.2868411317145 L386.83073829281767,295.6381657093278 L388.0621669417962,297.6883836299867 L388.2083639503508,298.3358662449634 L387.91526706300823,301.21289618661103 L387.2412145091443,305.1331404613105 L386.2438416478987,307.290266297092 L385.364550985871,307.43424711826515 L378.9143108536334,308.0101704029582 L375.63050112302216,308.1179404786868 L371.0281068344859,308.5852315270453 L366.1023922385699,309.95175608728255 L361.99763007530674,310.9949704203345 L358.27382357856544,311.71401236559495 L356.1335837177539,310.3836985508025 L354.75595806022073,309.30427347230597 L352.02952442472355,305.38489135821226 L351.0911926630871,304.2339069494321 L349.5371465769612,303.15448187093546 L348.2473796986073,302.75875015286056 L346.19499861697545,303.0105010497623 L344.81667008920806,303.47865425872675 L343.43904443167537,304.52100643117274 L341.8554777957447,307.5420171939938 L341.2109457916846,310.275066314468 L340.85880780473286,313.6555980499192 L339.59785860594997,320.34510219053794 L339.36380281821516,322.4668794414805 L338.36432134627006,324.81281844993816 L336.5748137319432,324.75160504692434 L333.9151527686235,324.8886885832511 L328.99787261550824,324.64211064998426 L326.0697152230157,325.13526651651773 L322.9180450962909,325.8206841981509 L319.25257682892493,326.8354472312104 L316.43617580354856,326.8354472312104 L313.642266625642,326.39660748284393 L310.46880752168073,324.99818298019125 L308.7249864725267,323.81960943202455 L307.94269190271365,322.88761381712453 L305.26053909192325,317.8431121124254 L303.5399127604738,313.2641771348736 L302.8018990153661,309.09649276630137 L301.66254636696715,304.4908308099687 L300.67852804015735,301.8862436197627 L299.1139389005294,298.7609114236364 L296.6110179992659,295.7450736244506 L295.694475214866,294.1819764460846 L295.0689207071087,292.67405754649155 L294.2641342898249,290.0694703562855 L293.6603687593036,288.89089680811855 L293.0573060990161,288.42446792036594 L291.49271695938813,284.69562330016026 L290.88895142886685,282.11862524934065 L290.9782159485132,280.7477898860743 L292.163255162086,279.185554868314 L293.37008335289477,278.088886577701 L294.8454079728754,276.3611167236219 L295.7394589098056,274.90837610280187 L297.8178461900747,270.35703026463625 L297.90711070972105,268.08178842585664 L297.32583702667006,266.2169350354507 L296.29824074538726,264.76419441463077 L295.34655444931553,263.87013386638716 L295.72329289443655,262.7476007575993 L295.7689794596099,259.09807491312995 L296.4149172041371,257.6272289195874 L297.2218122321213,256.3262285653931 L299.8048603399966,255.7606512079701 L305.8692247140782,255.61925686861423 L307.1835920506028,255.25197645053163 L308.7285008236947,254.5165534537603 L313.4792007314855,252.67756488152935 L318.13712176846246,251.71625580603143 L322.1491050609127,250.7540845699274 L326.20747778876915,249.99021027316377 L329.5053449240486,249.5099868157178 L331.0734484148436,249.48153551572528 L335.03974514212,249.79277549442924 L338.4064935602769,250.35835285185246 L340.8735680796352,250.58423893057926 L343.11010116242676,250.95238150926775 L344.33239249837123,250.9239302092755 L348.2522997902419,251.5748614666756 L352.12652051693817,251.46105626670618 z"/>
	<path id="mardin-nusaybin" title="Nusaybin" class="district" d="M497.5138225626114,323.0255595140569 L497.68040280793537,324.06618736529117 L498.9146429378486,327.2975653159341 L501.3831231976735,330.0633765394301 L502.5456705637756,330.6461971089698 L504.77728355493343,331.46093888147703 L510.94848420449796,332.65503132054886 L513.8914018718929,333.46977309305606 L514.8409795572642,333.9646532808013 L518.6856797341567,336.4399163801333 L520.2284798965472,337.66246011919714 L523.7414253232582,341.56373686056855 L525.0234606290447,342.69920237844383 L528.13225567153,344.0674512598926 L530.2689811811734,346.16422585326603 L531.1314029575989,347.7842256316168 L531.7956153281959,349.6094196341545 L531.8905028097097,351.5113459306108 L531.5742112046631,353.3356777725426 L529.9287919881914,360.0122495040738 L529.8655336671824,366.068065599409 L530.2767127537418,371.9686927856952 L530.245083593237,375.0741952878873 L529.5415104895683,379.5979519866663 L527.3267663840128,379.4884575897262 L526.3118217669315,379.588468220002 L521.0564610315341,380.76962824998634 L519.8404955276903,381.79732369213326 L518.7805672156695,382.3887658677312 L517.3277344431586,382.1068393496255 L513.7402847717036,382.7517354827848 L511.7237500719774,383.27937777355135 L510.17462407748565,383.8975469279302 L508.9663901462093,385.3709794032899 L506.62442652840286,385.87103255467 L504.9937675868316,386.91597120893357 L501.5096398396921,388.88945683567346 L497.2179141943351,390.8439749290852 L494.42330214619517,391.56215471374003 L494.0303976857042,391.2621228229119 L489.96148190434616,391.8164920924594 L488.2415584431295,391.8259758591232 L487.30744390289345,392.2803344983947 L486.47032545487156,393.80808309192173 L485.51371906716616,394.1081149827498 L484.7651622685574,393.8442938373665 L482.5637726974372,393.5623673192607 L479.7473716720618,393.5985780647054 L466.5594174821106,393.41321353445244 L457.89583898478367,393.3830379132487 L452.4190741258543,393.4675296526197 L444.28475691430475,393.39510816173015 L442.4165278338326,394.2072634524201 L440.109707727698,394.4814305250734 L438.7995576125738,393.8692964949356 L437.8471684462687,393.9149910070443 L436.27695634477425,393.44942427989747 L434.3862354168323,393.64168609499677 L431.5508568951532,393.33044611629316 L430.5759758813783,392.92954143458314 L428.4104326921628,393.3037191375123 L423.2225474991757,393.25802462540344 L421.68958752005244,393.065762810304 L418.25887791065367,393.130424855741 L416.8896866959212,393.6140969556104 L416.56214916714015,393.98827465853986 L414.552643169748,394.1891580796977 L414.0318163267728,393.53132953745086 L412.9522076482154,393.4675296526197 L409.2087207849375,394.1615689403111 L407.9808064871265,394.1063906615383 L405.7035069307948,394.7642192037848 L403.70173250596997,395.01941874310995 L400.06227043724135,396.82736953353105 L400.6498699523936,397.75850298782524 L399.1766539431124,399.79492633879073 L395.72626396717754,399.42678376010224 L392.9007256287662,398.95690622992583 L393.02161930891737,393.44942427989747 L392.8409816589247,393.2330219678346 L389.9613223125393,391.8139056106418 L387.488624831313,391.0931393441697 L385.39126005474117,389.6567797748603 L384.6820639892054,390.18355990502124 L383.953890427366,390.25511923530485 L384.1485854820273,388.7920326872148 L383.27632352233405,388.22645532979186 L381.4910331294075,387.7384724268932 L377.70748266282465,386.99011702103485 L375.9489013387682,387.2556624876298 L374.50801736022606,387.9686693086494 L373.7081510345759,387.98418819955424 L372.1934656815221,387.12202759372644 L369.90070298005566,388.1523095176907 L369.3264579993392,388.13679062678574 L362.3870201846302,385.7951624213571 L356.70853156870413,384.84764791555244 L355.0525692987303,384.42691353990836 L357.10073315896085,378.07451419616837 L357.9540176223517,375.1009222666679 L357.8809191180744,372.78084807638527 L357.3959386570043,371.5910664403426 L356.4505781930333,370.58061421031243 L354.4143631267706,369.1227006258572 L350.72921449286855,367.6363357414101 L345.2742386111747,365.91115236914834 L342.94703526826976,364.870524517914 L340.6191290551315,362.8780713578458 L338.72840812719005,361.03390982197993 L337.68605157100484,358.95265411951146 L337.2495691560414,356.7817337140367 L336.9824784673356,354.2538788177492 L337.32196479008536,352.9158055575045 L338.55831353069806,351.0121549398365 L339.60067008688367,348.99038831917005 L339.673768591161,348.2765193375444 L339.0432939917691,344.61837188701674 L338.0248350235213,340.4851739426778 L336.9824784673356,336.82702649214986 L336.5705965105428,332.3963831388005 L337.4674589284067,326.86476069180856 L338.36432134627006,324.81281844993816 L339.36380281821516,322.4668794414805 L339.59785860594997,320.34510219053794 L340.85880780473286,313.6555980499192 L341.2109457916846,310.275066314468 L341.8554777957447,307.5420171939938 L343.43904443167537,304.52100643117274 L344.81667008920806,303.47865425872675 L346.19499861697545,303.0105010497623 L348.2473796986073,302.75875015286056 L349.5371465769612,303.15448187093546 L351.0911926630871,304.2339069494321 L352.02952442472355,305.38489135821226 L354.75595806022073,309.30427347230597 L356.1335837177539,310.3836985508025 L358.27382357856544,311.71401236559495 L361.99763007530674,310.9949704203345 L366.1023922385699,309.95175608728255 L371.0281068344859,308.5852315270453 L375.63050112302216,308.1179404786868 L378.9143108536334,308.0101704029582 L385.364550985871,307.43424711826515 L386.2438416478987,307.290266297092 L383.809099159278,310.0983233902733 L382.90591090931383,311.34759410811796 L382.4659141431824,313.22193126518783 L382.5123035785895,314.2720428830863 L382.9986897801272,315.465273161552 L384.85075284522986,318.50352713648965 L387.11961795875897,321.1727763721327 L392.2583022354071,326.596628743396 L394.99035883277077,328.98136497911605 L396.6104747208394,330.6574051968455 L398.60170609216215,332.92919839320194 L401.8426407385333,335.82519586817796 L404.5051131827877,339.2333167430155 L405.4075985625185,341.95860641803756 L407.1900774745109,345.7926346321544 L408.4404836197926,349.73960588563443 L409.66769504737175,352.57956292123146 L412.28307518598467,356.35582637475784 L414.18152768649446,357.6904509925794 L417.14482859065873,358.28706613181225 L419.8304957526157,357.8611587925333 L422.60823891515327,357.0093441139752 L426.96041140058566,355.90146773548634 L429.85412815163966,353.82883363907615 L431.2893891683154,351.8406912820369 L432.35423757196986,350.8474822641233 L433.81269330634916,349.79650848561903 L437.7712584610577,347.35400748930863 L439.9473447037743,345.4805324928446 L442.51703827721434,341.8456633786741 L445.27228959228114,338.23924556449606 L448.1892010610392,334.7181816502949 L452.00859790952813,330.4582460968992 L454.231073587651,328.2149042005351 L456.9631301850147,325.8577571042015 L459.62489975903526,323.8135743077836 L463.8618015261844,322.13839625066 L475.5062526835108,318.92943447576863 L477.82080436221423,318.7302753758223 L479.74245158042714,318.87253187578403 L482.40492402468055,319.9804082542729 L488.4699912689964,322.22375015063704 L493.51659954506306,322.81950312926404 L497.5138225626114,323.0255595140569 z"/>
	<path id="mardin-savur" title="Savur" class="district" d="M232.88950550623338,155.81382081676486 L233.95575965035545,155.03442762909629 L236.52123600239509,154.53265015650445 L238.10972272995951,154.6723201746488 L239.63073391511404,155.31290550477888 L241.53691798819125,156.95532145888092 L243.64834016943126,159.90649721262974 L244.78277272619698,163.3309991389784 L245.7815513279083,168.56517617695937 L246.37196232399424,169.90152511599263 L247.96115192179195,171.12665533687408 L250.3213901656688,172.74148215158993 L252.77300153989188,174.10628239061546 L262.35171708115115,179.0068032741412 L268.6845778844051,181.84589814913238 L272.2024434027498,182.54252391864142 L276.2432443747711,183.1546579487792 L281.4409697510265,185.21522179670794 L284.6186460763891,186.6912407538853 L286.706873539926,187.77670095662262 L291.3598744852688,189.55878692886876 L298.21496787196605,191.45209161926695 L300.8936063315885,191.2848324617362 L303.9124339841944,189.44756821071695 L304.6160070878632,188.75094244120814 L308.47476466942425,185.38248095423847 L313.4911495254537,182.37526476111088 L317.0315068912687,180.95528624331223 L321.1172915582286,179.4240890073618 L322.72897300349706,178.50502580154935 L327.0874713210307,174.9132647176702 L330.92303418488865,167.3124568166915 L332.33018039222617,166.4770231896442 L334.6911215063358,165.33552254752814 L337.5967870513585,164.5000889204809 L340.0476955553483,163.5818878752743 L344.5875343931083,161.2704352910497 L346.49442133641884,159.7116489157128 L347.81089728364384,158.12441124038364 L348.53696223478283,159.8366622035578 L349.2447525598519,162.0058582878208 L350.1542666419178,164.23712993570348 L351.7202615220124,167.55299962571763 L353.28695927233986,169.5057933979177 L354.5753204102276,171.5508383549415 L355.15659409327907,172.82166308793188 L356.0408048469405,173.47259434533197 L357.708715910883,175.115010299434 L359.07298703398175,177.5635464199852 L359.3000141193811,178.64814446211668 L358.9970770487702,182.49079428229174 L358.1887762803194,186.3032684812626 L358.1381696235119,187.75945774450597 L358.33989338050867,188.56557791095514 L360.0331077728542,191.10636521633 L362.5339200634177,194.23687037609113 L365.060738552619,195.97239967562248 L367.33452375778273,198.0484824144561 L368.24403783984854,199.4124204928758 L368.72409820928505,201.2721009196466 L368.44646446707725,203.31714587667034 L368.3958578102697,205.23890186706086 L368.7494015376885,206.3234999091923 L369.93725223219457,209.01947612361622 L370.08836933238285,209.82559629006536 L370.21488597440145,212.8629881043969 L370.1389759891904,214.72180637056184 L369.70952227656096,218.06871384238588 L369.6083089629464,221.5708102232589 L369.86134224698355,222.8726727380589 L370.21488597440145,225.94110233420025 L371.12440005646727,228.23444954570266 L371.6550670827108,228.9164185849124 L373.06994486261664,230.12516775428327 L373.55492532368675,230.28811610878478 L372.603239027615,234.57477864096103 L371.9804960007919,236.35686461320716 L371.56580256306444,238.082047985469 L369.74396291799945,241.27893951187883 L365.96252106211654,244.64481451703097 L362.8951953634044,246.65278656800416 L357.7993861709964,249.70742159445237 L356.06962252651107,250.35835285185246 L352.12652051693817,251.46105626670618 L348.2522997902419,251.5748614666756 L344.33239249837123,250.9239302092755 L343.11010116242676,250.95238150926775 L340.8735680796352,250.58423893057926 L338.4064935602769,250.35835285185246 L335.03974514212,249.79277549442924 L331.0734484148436,249.48153551572528 L329.5053449240486,249.5099868157178 L326.20747778876915,249.99021027316377 L322.1491050609127,250.7540845699274 L318.13712176846246,251.71625580603143 L313.4792007314855,252.67756488152935 L308.7285008236947,254.5165534537603 L307.1835920506028,255.25197645053163 L305.8692247140782,255.61925686861423 L299.8048603399966,255.7606512079701 L297.2218122321213,256.3262285653931 L296.4149172041371,257.6272289195874 L295.7689794596099,259.09807491312995 L295.72329289443655,262.7476007575993 L295.34655444931553,263.87013386638716 L294.45461212308584,264.6986702085879 L291.9643428860234,265.4909958053438 L290.41943411293244,265.4625445053513 L289.4740736489615,265.66084144469187 L288.1133168770297,265.57548754471475 L285.66943707537496,265.17975582663985 L283.47859055775683,264.50123542985335 L281.6799456303955,264.21844675114176 L280.1814262927102,263.7089098330974 L277.0909058762945,262.0397669002146 L276.30931417671343,261.38193835796784 L275.29226094893266,260.7387665460202 L269.6425900125776,258.53249755570664 L267.4756410828959,257.9384688982913 L266.36862046523555,257.8824284589124 L264.8925929750206,257.4858345802316 L263.8783512281727,256.80731418344504 L262.14858758368825,255.1950738505468 L260.78783081175646,253.27159353894487 L259.1044566026792,251.46105626670618 L256.6605768010235,247.27526652541172 L254.86193187366212,241.64621992996146 L254.2391888468381,237.6578649674015 L253.7317165382977,235.48004727708025 L253.201752382287,231.60549751448968 L251.90987689323316,228.8612403061395 L250.64189899211482,227.64473169131642 L245.84551251915065,224.4487023255124 L243.95479159120964,223.43049065002964 L240.54165373764607,222.5536733139025 L237.82084306401777,222.32778723517566 L236.04539285435948,222.4967707139179 L234.52367879897164,222.8933645925987 L232.74752571908004,222.6950676532583 L230.0499097631539,221.50701033842745 L228.11279939980622,219.92322130552174 L226.98258406444177,219.35764394809846 L224.65397498106927,218.70671269069862 L222.60159389943837,217.77385491519271 L221.95565615491074,217.17982625777717 L218.6352971721615,212.823328716529 L217.82840214417732,210.8438079655481 L217.0215071161936,206.3183269455574 L216.34183160046078,203.98100954315782 L217.45447517999003,203.28524593425487 L219.61088105616966,201.58678954077394 L221.42639486913342,201.00224465002256 L222.6746924037157,200.33407018050605 L226.78367178837922,197.52170228429543 L228.5310071886998,195.0154014031536 L229.34844527018555,193.3453963096649 L229.66614261569882,191.14602460419792 L229.73432102834153,189.2242686138077 L229.5979642030547,185.99461498437626 L229.62045605052543,180.81647838577402 L229.5522776378818,175.19174259335279 L229.37093711765536,173.80021537554643 L228.55349903616957,171.6284328094659 L228.28148825583065,169.42819894339308 L228.84870453421303,165.92006743827955 L230.36971571936758,162.77404338761346 L231.32280775590593,160.37982338522932 L232.57110529048728,156.25955784997774 L232.88950550623338,155.81382081676486 z"/>
	<path id="mardin-yesilli" title="Yeşilli" class="district" d="M276.30931417671343,261.38193835796784 L277.0909058762945,262.0397669002146 L280.1814262927102,263.7089098330974 L281.6799456303955,264.21844675114176 L283.47859055775683,264.50123542985335 L285.66943707537496,265.17975582663985 L288.1133168770297,265.57548754471475 L289.4740736489615,265.66084144469187 L290.41943411293244,265.4625445053513 L291.9643428860234,265.4909958053438 L294.45461212308584,264.6986702085879 L295.34655444931553,263.87013386638716 L296.29824074538726,264.76419441463077 L297.32583702667006,266.2169350354507 L297.90711070972105,268.08178842585664 L297.8178461900747,270.35703026463625 L295.7394589098056,274.90837610280187 L294.8454079728754,276.3611167236219 L293.37008335289477,278.088886577701 L292.163255162086,279.185554868314 L290.9782159485132,280.7477898860743 L290.88895142886685,282.11862524934065 L291.49271695938813,284.69562330016026 L293.0573060990161,288.42446792036594 L293.6603687593036,288.89089680811855 L294.2641342898249,290.0694703562855 L295.0689207071087,292.67405754649155 L295.694475214866,294.1819764460846 L296.6110179992659,295.7450736244506 L299.1139389005294,298.7609114236364 L300.67852804015735,301.8862436197627 L301.66254636696715,304.4908308099687 L302.8018990153661,309.09649276630137 L303.5399127604738,313.2641771348736 L305.26053909192325,317.8431121124254 L307.94269190271365,322.88761381712453 L308.7249864725267,323.81960943202455 L310.46880752168073,324.99818298019125 L313.642266625642,326.39660748284393 L313.46233184588317,328.5459738731729 L312.8705151093301,331.2566068178959 L311.2131470988892,334.838021974505 L309.69354165420174,336.9192776769736 L308.64837361708237,337.95990552820786 L306.4385496031615,341.2266320636897 L305.0377292279243,343.7682815296704 L302.6114211821052,347.59196381651714 L300.79590736914145,348.72915365560414 L298.7639095242785,349.21282575547355 L294.36394186297235,349.06798277369444 L292.41136835448896,348.80157514649363 L290.3393069063206,347.61610431348043 L287.75485305797815,345.7521130836804 L284.9138515744316,342.82421566628886 L284.18427227212555,342.2672599149239 L281.10640351991134,338.15389166451916 L279.7646242442833,335.1044296017059 L279.1924878742663,332.563642296331 L279.25152897387545,331.64371692991284 L279.6859027781381,330.3366814514776 L281.0670427868392,327.67519166128676 L284.08516756921136,320.65634216924184 L284.8941712078955,317.72844475185036 L284.73672827560597,316.1800043037833 L283.35558826690533,311.75108527164537 L281.63917915685573,308.0481054696146 L280.8301755181716,307.0557586123069 L279.80398497735547,305.2167700400759 L279.03434207174297,302.82082571648004 L278.95562060559917,300.78785100793795 L279.0744056750494,299.38425354165014 L279.88270644350024,297.4728434785297 L280.49490641682223,294.8587725216595 L280.3170802477628,291.5196244952879 L278.16629733345064,285.56640551204634 L276.0162172893713,281.645299076741 L274.2210867131765,277.02325606889764 L273.8851147415947,275.37739147237215 L274.0629409106541,273.0547308002719 L274.8916249158743,271.72355482487353 L275.8187107537758,268.9646408862243 L276.2924452911115,265.40736622657835 L276.30931417671343,261.38193835796784 z"/>
	
</g></g></svg>