<svg xmlns="http://www.w3.org/2000/svg" version="1.2" baseProfile="tiny" width="600" height="600" stroke-linecap="round" stroke-linejoin="round"><rect id="backgroundrect" width="100%" height="100%" x="0" y="0" fill="none" stroke="none" class="" style=""/>































































































































































































































































































































































































































































































































































































































<g class="currentLayer" style=""><title>Layer 1</title><g class="city city-49" id="mus" title="Muş">
	<path id="mus-bulanik" title="Bulanık" class="district" d="M279.76330186081253,225.1158087910244 L284.9435085737428,225.5432212867467 L286.8961776909125,225.57103554894118 L288.3475937180321,225.2669329489479 L291.0135504182114,223.3644374148432 L292.57054010500565,222.06829279657893 L294.2597186597951,221.1300250185506 L299.14183503952535,219.80606613809186 L300.43533416393933,219.94421030699124 L304.3672876066011,221.6538602898806 L306.267613480739,222.31583973011016 L308.114708938234,222.09517991670026 L310.14722368036894,221.10313789842928 L312.75994996390637,220.55148836490477 L317.56310789228337,219.9998388313803 L323.1052814383813,218.4274058753171 L326.40379292299684,216.08359071439287 L329.3332401855574,214.70400330954493 L330.49455044197526,213.15938461567646 L331.6558606983931,212.00138416631142 L334.34754543328376,210.26391992122757 L337.98939310524383,208.38831150724428 L341.4200934578536,206.89932133776463 L346.69877644157225,204.16888793233665 L348.7570192184157,202.62426923846795 L351.2375566339589,200.1144956464497 L353.1902257511286,197.82538186784132 L354.51034008386307,193.85350522646488 L355.22274049326256,191.01274191433197 L356.0673297706573,188.86177230462295 L357.25436806178556,186.54484426381993 L357.9933836795056,185.9931947302954 L359.9726680049977,185.24869964555566 L362.08414119848396,185.0558540943403 L363.77331975327434,185.1383697388508 L367.6263147445829,186.04882325468444 L371.0836303055141,186.57265852601444 L374.4877154498043,186.26948306809433 L379.581866322494,185.08366835653482 L385.41414563929465,183.51123540047178 L387.1290522287945,183.29057558706188 L389.16156697092754,183.3183898492564 L393.383626184291,182.73892605353737 L395.9173940164761,181.6912555108774 L398.16105607795856,181.3602657907628 L400.034766743775,180.75298773284925 L400.9316992642025,180.17445107920327 L402.30415683996785,178.71234802984512 L402.6474930273134,177.9400386829107 L405.15464565117605,176.0366160067329 L408.29524023308505,174.5476258372533 L410.9336945513329,171.89970807633563 L415.9107385074102,172.06566650742957 L419.25360867256114,172.06566650742957 L420.76623967881903,171.91825091779873 L422.06861053933955,172.10182504828242 L424.74255180201624,176.073701689659 L425.5516541349821,176.51502131647848 L426.8886247663204,177.98546864449514 L427.2763196341994,178.7577779914294 L427.09977208566886,179.89816274140446 L428.37641491147895,182.61376187366216 L425.3014711767625,185.86246769798123 L423.5306726497877,186.28246305711832 L422.3010500253451,185.75306493334952 L420.45395456784917,186.32696587662957 L416.69588715288677,188.84230232108666 L412.39664383539207,193.09603015270096 L412.3567210229099,197.25518949285382 L413.2013103003046,199.27728635439485 L414.88960168148395,201.18998045130422 L416.5787802362734,201.7777885256816 L419.25360867256114,202.36652374213213 L421.9976366504836,202.6975134622468 L426.0449226625367,202.4036094250582 L431.07608420886606,198.98338231720618 L432.83534947890223,197.54909353004254 L434.5600149781196,195.6734851160591 L436.14361987323434,192.36451505698523 L437.16386952554956,189.64335307228873 L437.4805905045727,187.3635107144118 L437.51607744900156,185.70856211383827 L438.1140324626199,184.2742733266745 L439.4864900383853,182.83998453951085 L441.17566859317566,182.54608050232216 L442.7583863146803,182.729654632806 L443.7795231406056,183.28130416633047 L444.5886254735724,185.34048671079756 L444.4475648694697,188.134892919273 L444.83525973734874,191.70253561675585 L444.9754331678404,195.23216548923946 L445.5742753550688,202.2191081525012 L447.12239330575653,208.17692311456594 L448.9517452910385,211.81688289375455 L450.99313176927905,214.24414084126238 L452.6468233796405,215.89908944183588 L455.2151909826425,218.14184611678678 L459.5437110292908,222.95927632887643 L461.90093131294435,225.27620436967945 L466.75731965796325,229.61522927202338 L468.8333059070226,231.89507162990037 L470.06470287868717,233.99133985729355 L471.8940548639682,238.88201429316211 L472.56298376644247,241.05245388640725 L473.0553651203861,243.6632859643989 L475.55364600814227,250.31923890754587 L476.71495626456016,252.1939201794561 L477.7006061460575,253.40754915320997 L480.09331337413806,257.78365973847997 L482.5215075466494,260.65223731280736 L485.51216978834833,263.70438901761867 L495.54078028380104,269.03638308030685 L501.94528657950775,272.1617790088969 L510.2492315757431,275.98624006064256 L513.9088227199153,278.26700956059267 L514.8589856569856,279.1487216721588 L518.5540637455877,284.66521700740384 L520.4889893905433,288.85682632011697 L520.5945630502171,292.7183730547884 L519.6098003423308,296.690249696165 L518.7297241205072,299.04333627782063 L517.3927534891698,301.2870200948449 L515.6680879899515,303.27203127345996 L512.8530861231731,305.47862940755806 L510.21374463131417,308.53078111236914 L508.41987959046014,310.1124854891638 L505.7104513833556,313.2378814177539 L503.02408969012913,316.81943124633403 L499.63952236527587,315.5279223384356 L497.49078788013867,315.10885412137134 L493.59432138190573,313.8210537817656 L490.643581952688,313.1627829098286 L488.4371811828556,312.98291734763745 L484.3402134486019,313.8516494701795 L481.15969605421077,315.10885412137134 L478.0661216736693,317.89306176704235 L476.48961416744,318.9110637633613 L471.2756948573038,320.85713497490417 L464.39921220070056,323.7915396364251 L458.2111762660057,325.73761084796797 L456.3489988571279,326.69627575160575 L450.7624666304955,329.1207522728939 L447.1809467640627,330.3492155198182 L445.29037979964335,331.33662182772355 L440.3905199476982,333.52282283621236 L436.4372743383792,334.66042615996776 L434.11642817276555,335.55882682885056 L431.36618997956776,336.21709770078735 L426.18066022497504,336.45630035566023 L422.28419372674216,336.7863629337017 L413.689255786195,335.9472993575006 L411.7978016481636,335.5282311404367 L409.6206776074838,335.7683609373827 L407.6724443583674,336.33669902822373 L406.5262160533313,337.3250324782023 L405.4092644774489,339.4806377982769 L403.74758830459194,343.1938418012444 L402.80186123557576,344.8701146695004 L401.71329921523585,346.2775163365428 L399.7366764105769,348.01405343955355 L397.3297744047236,349.69032630780964 L395.26709575982596,351.36752631813886 L392.68808207349537,354.6004707272142 L392.1415831292988,356.2915778686406 L383.424215230474,351.9460629717846 L379.3955598642459,350.18542017487175 L377.24859972632976,349.94436323585285 L374.24374270686,350.11681166145877 L368.5303446538948,349.7366834114671 L364.8317178708497,349.7719148102469 L360.8358879282174,349.4260908169616 L356.93942142998355,348.84013702673064 L352.8442280429519,348.39140026332564 L346.27293310843123,346.45830904080714 L342.67278259617535,345.3197785749783 L340.65801132625626,345.25024291949205 L339.07351925752954,345.698979682897 L335.44054332167696,346.35446912861426 L334.0867163917347,346.7689016353126 L332.0391196982198,347.0108857164047 L329.00143725515244,346.94135006091847 L326.52444853405336,346.3201648719076 L323.3536900493798,345.2854743182719 L320.6460361894962,344.6985933859677 L315.03200158093136,343.9392640280573 L313.0509429082191,343.11039901466097 L310.8046193259045,341.41929187323456 L309.1535892363752,339.9358645561939 L305.3893116061374,338.4172058403734 L301.0625659067103,336.8299386111399 L299.2793469491848,336.3116661922487 L295.4485312981454,334.4833420239962 L292.5758631466699,333.68878126730624 L289.768845842387,333.34388441609417 L285.4119362401962,333.41249292950727 L284.43160940036313,331.22258335272596 L281.17302072822974,328.3799657564466 L278.4529464377965,326.5738929979497 L277.34841529246376,325.6560223455309 L276.7815113552211,324.264382093732 L277.6030341187375,321.658185726106 L280.7764541242423,314.8177315104022 L281.1446311726863,310.43513093062006 L281.08873923521224,308.6883952648046 L280.7480645686998,306.2898787215643 L280.49344574242696,302.5590590192071 L281.11712879075475,298.4128796680785 L282.36360771380026,294.41597019072685 L283.2702991439453,292.1064592865091 L283.46813885913303,291.069914448727 L282.98640358851793,289.41125727986093 L281.7399246654725,287.6051845213637 L280.6353935201397,284.76256692508446 L280.7764541242423,283.2522524879226 L281.9847845820277,279.64566982336726 L284.1645701435397,279.1348145410613 L285.44919753184524,278.21138103620365 L287.3122621143341,275.9714057874721 L288.881672231679,274.59367266677043 L289.1513730093336,273.055543967414 L288.7086733775906,272.6642900125445 L288.2207278917002,270.4076262064963 L286.9538439756086,267.46580440839 L285.26466542081823,264.48689692735763 L284.1388421088283,261.6924907188822 L283.64646075488565,258.86099882748084 L282.5197502692847,257.1328060031284 L281.25375352680413,255.80884712266962 L278.71998569462,254.37455833550584 L274.88384700191443,252.6463655111535 L273.195555620736,252.24120442518674 L269.1136698378651,249.59421380634225 L267.03768358880575,247.6815197094328 L263.94056051382114,243.37958049001477 L262.4279295075632,240.0325976059418 L259.64752741160174,235.54615711396679 L257.6771148222171,233.41373034572075 L255.882362607753,232.12685714818804 L254.3537624765013,230.63601269456203 L255.9400288924491,230.31429439517888 L257.3648297112482,229.37695375922377 L258.92181939804146,227.33538691414657 L259.8719823351109,227.11472710073664 L264.5961818121346,227.11472710073664 L265.8630657282272,226.81155164281654 L268.10584061609956,225.51540702455216 L269.3727245321911,225.1844173044376 L271.35200885768324,225.01938601541673 L279.76330186081253,225.1158087910244 z"/>
	<path id="mus-haskoy" title="Hasköy" class="district" d="M309.28755245159147,456.04093923474977 L306.6801492097183,457.3278124322826 L302.239845288121,458.2262131011654 L299.0309383381873,458.16594886641053 L292.4702894869962,457.83681343044213 L285.4225823235248,456.96900844997333 L276.1684743902219,454.51393624027094 L269.43571385855154,452.5372693403142 L263.67706995144084,450.74139514462195 L262.0153937785829,450.4715968013352 L251.0703329432685,449.0938636806335 L240.75693971877837,448.2260587001647 L232.5337275211192,447.8069904831008 L229.21037517540339,447.38792226603675 L224.59795957332872,447.3276580312821 L217.69308736118106,447.4175908123775 L210.1867114409738,448.52552558979244 L204.08473134651854,449.27372924282463 L196.32018790559528,450.50126534767594 L191.33515938702246,451.07053058059023 L185.37601424389095,451.93833556105915 L177.4970254071865,453.28640013541974 L178.51638788589068,446.5590572526402 L179.50824798266333,442.502810682607 L179.8764250311073,439.9262828613221 L181.63302878031132,435.48434518885836 L182.39777243274176,433.9740307516962 L183.55996986277063,432.7900703242832 L185.25979450088863,431.57551420845607 L187.38457529853662,430.5686379170147 L190.75672219284016,428.67355951949526 L192.42815727541563,427.0454980390431 L194.12886908714466,424.0545377110599 L198.88855550859728,419.0498248001936 L201.0426130353979,415.9114488825793 L207.41784260195192,408.09378692177495 L211.07299787807273,404.3332986730768 L212.68765384956214,402.34921463653495 L218.92182281201352,399.5659341329374 L221.90716201204813,402.547623040189 L227.23463954435448,405.9029502029205 L232.86375610430213,408.50914657054636 L235.62109168638534,409.57535995466947 L236.56593158178953,410.28555078270256 L239.2105961153136,413.4044567167806 L240.10752863574015,415.0232467765012 L243.7342943563175,418.6956565282503 L248.01313268076603,420.65007201845117 L252.74531672028718,421.65602116781963 L257.93084647487984,422.4264762306077 L260.3386356543441,422.54515041597097 L266.9409816652385,421.9230380848868 L271.92778453103244,422.54515041597097 L274.22290266193664,423.66977375070235 L275.52616069606813,425.03174545616014 L279.60627213171796,429.7407000456913 L282.7238001997487,432.9680816023281 L283.856720900624,433.94528934742846 L285.1599789347546,434.625811629121 L287.1153095727574,435.27759250654583 L293.15075164640905,436.04712042726067 L297.79776701930257,437.2320079967467 L300.94279746926384,438.5643111558642 L309.5173304167649,442.4175136118772 L309.23077334050635,444.4535176045157 L309.60249908339347,447.2080567038456 L310.11883412482547,449.27372924282463 L310.1756132359115,450.9805977994945 L309.8606666041095,454.8727402225802 L309.28755245159147,456.04093923474977 z"/>
	<path id="mus-korkut" title="Korkut" class="district" d="M309.5173304167649,442.4175136118772 L300.94279746926384,438.5643111558642 L297.79776701930257,437.2320079967467 L293.15075164640905,436.04712042726067 L287.1153095727574,435.27759250654583 L285.1599789347546,434.625811629121 L283.856720900624,433.94528934742846 L282.7238001997487,432.9680816023281 L279.60627213171796,429.7407000456913 L275.52616069606813,425.03174545616014 L274.22290266193664,423.66977375070235 L271.92778453103244,422.54515041597097 L266.9409816652385,421.9230380848868 L260.3386356543441,422.54515041597097 L257.93084647487984,422.4264762306077 L252.74531672028718,421.65602116781963 L248.01313268076603,420.65007201845117 L243.7342943563175,418.6956565282503 L240.10752863574015,415.0232467765012 L239.2105961153136,413.4044567167806 L236.56593158178953,410.28555078270256 L235.62109168638534,409.57535995466947 L232.86375610430213,408.50914657054636 L227.23463954435448,405.9029502029205 L221.90716201204813,402.547623040189 L218.92182281201352,399.5659341329374 L220.47969967241787,398.20396242747927 L222.4350303104197,395.3613448312 L224.05057345552018,391.5118509434793 L225.6936189825531,383.54584625097095 L226.28891247533926,381.3846780784572 L226.7706477459534,380.4371388796974 L227.16721434994082,377.5945212834181 L227.11043523885573,376.23162243588706 L224.5606982816778,373.359336293267 L223.39850085164983,371.87961754451885 L221.83973681763447,369.0954098988482 L222.0100741508907,367.7927752860718 L223.05871335874843,366.25279230256893 L224.7301484413239,365.186578918446 L228.07390578008585,363.9136128520104 L233.42888569432466,362.4329669611892 L238.38729900457605,360.18279314965304 L239.86089437196188,359.11657976553 L242.18440205840955,356.688394675949 L245.58493850825568,353.96445126503295 L248.67318984713376,352.0693728675135 L252.55546156759493,350.7074011620557 L257.51387487784723,349.8479404602451 L260.1487805016519,349.01907544684855 L262.72779418798154,347.83511501943565 L270.60412150385577,345.4950084268038 L274.1466057314155,343.7482727609883 L279.3028587568555,340.905655164709 L282.3352181582577,338.24104884647477 L285.0836820042335,335.30942561117297 L285.50863816376346,334.4796334557035 L285.4119362401962,333.41249292950727 L289.768845842387,333.34388441609417 L292.5758631466699,333.68878126730624 L295.4485312981454,334.4833420239962 L299.2793469491848,336.3116661922487 L301.0625659067103,336.8299386111399 L305.3893116061374,338.4172058403734 L309.1535892363752,339.9358645561939 L310.8046193259045,341.41929187323456 L313.0509429082191,343.11039901466097 L315.03200158093136,343.9392640280573 L320.6460361894962,344.6985933859677 L323.3536900493798,345.2854743182719 L326.52444853405336,346.3201648719076 L329.00143725515244,346.94135006091847 L332.0391196982198,347.0108857164047 L334.0867163917347,346.7689016353126 L335.44054332167696,346.35446912861426 L339.07351925752954,345.698979682897 L340.65801132625626,345.25024291949205 L342.67278259617535,345.3197785749783 L346.27293310843123,346.45830904080714 L352.8442280429519,348.39140026332564 L356.93942142998355,348.84013702673064 L360.8358879282174,349.4260908169616 L364.8317178708497,349.7719148102469 L368.5303446538948,349.7366834114671 L374.24374270686,350.11681166145877 L377.24859972632976,349.94436323585285 L379.3955598642459,350.18542017487175 L383.424215230474,351.9460629717846 L392.1415831292988,356.2915778686406 L392.25869004591215,357.2956727338627 L393.69147542720765,360.0798803795334 L394.26370240611465,363.58355027396897 L394.14925701033343,365.1698903611293 L393.2611962260143,366.7265619019489 L392.3154691569972,367.32549568120396 L390.19601140101446,367.9540980068 L384.0363650218631,369.3318311275015 L377.47482899706097,370.4100973585756 L375.18325956059994,370.64930001344817 L372.3176887980099,372.0567016804906 L371.0570150971926,373.16463645790554 L368.62261070940883,376.6377106639269 L366.84560196715773,378.22405075108736 L364.9550350027383,379.0927828736294 L362.31924220532267,380.88865706932154 L361.4879605320877,382.5955256259915 L361.6032931014809,384.18279285522533 L362.4620771566455,385.6198630686083 L363.5222496214428,386.69720215760924 L367.67688364039265,388.34380647952423 L369.53906104927046,388.9130717124389 L371.9459630551237,390.14060781728995 L373.60763922798066,391.24854259470465 L375.0111478801226,393.3142151336839 L374.9729994148616,393.6442777117255 L374.2951987762799,394.8718138165766 L371.17234766658487,397.3268860262791 L367.5331615154569,398.91322611343935 L361.4595709765452,403.224436753589 L354.3258079728351,409.4223815125996 L352.6925213555207,410.5303162900142 L345.7592595878314,413.91345771494014 L342.57962936705127,415.26152228930084 L341.34734522177564,416.0097259423334 L339.71405860446123,418.1050670276534 L337.2219879319803,425.9199475622386 L336.2762608629642,427.38761346403567 L332.3797943647313,429.36335322191917 L323.89930181996624,433.16556286390914 L318.79982790561223,435.8904334168981 L312.95512815826197,439.3931761692605 L310.74872738842953,441.4597758503129 L309.5173304167649,442.4175136118772 z"/>
	<path id="mus-malazgirt" title="Malazgirt" class="district" d="M503.02408969012913,316.81943124633403 L505.7104513833556,313.2378814177539 L508.41987959046014,310.1124854891638 L510.21374463131417,308.53078111236914 L512.8530861231731,305.47862940755806 L515.6680879899515,303.27203127345996 L517.3927534891698,301.2870200948449 L518.7297241205072,299.04333627782063 L519.6098003423308,296.690249696165 L520.5945630502171,292.7183730547884 L520.4889893905433,288.85682632011697 L518.5540637455877,284.66521700740384 L514.8589856569856,279.1487216721588 L513.9088227199153,278.26700956059267 L510.2492315757431,275.98624006064256 L501.94528657950775,272.1617790088969 L495.54078028380104,269.03638308030685 L485.51216978834833,263.70438901761867 L482.5215075466494,260.65223731280736 L480.09331337413806,257.78365973847997 L477.7006061460575,253.40754915320997 L476.71495626456016,252.1939201794561 L475.55364600814227,250.31923890754587 L473.0553651203861,243.6632859643989 L472.56298376644247,241.05245388640725 L471.8940548639682,238.88201429316211 L470.06470287868717,233.99133985729355 L468.8333059070226,231.89507162990037 L466.75731965796325,229.61522927202338 L461.90093131294435,225.27620436967945 L459.5437110292908,222.95927632887643 L455.2151909826425,218.14184611678678 L452.6468233796405,215.89908944183588 L450.99313176927905,214.24414084126238 L448.9517452910385,211.81688289375455 L447.12239330575653,208.17692311456594 L445.5742753550688,202.2191081525012 L444.9754331678404,195.23216548923946 L444.83525973734874,191.70253561675585 L444.4475648694697,188.134892919273 L444.5886254735724,185.34048671079756 L443.7795231406056,183.28130416633047 L442.7583863146803,182.729654632806 L441.17566859317566,182.54608050232216 L439.4864900383853,182.83998453951085 L438.1140324626199,184.2742733266745 L437.51607744900156,185.70856211383827 L437.4805905045727,187.3635107144118 L437.16386952554956,189.64335307228873 L436.14361987323434,192.36451505698523 L434.5600149781196,195.6734851160591 L432.83534947890223,197.54909353004254 L431.07608420886606,198.98338231720618 L426.0449226625367,202.4036094250582 L421.9976366504836,202.6975134622468 L419.25360867256114,202.36652374213213 L416.5787802362734,201.7777885256816 L414.88960168148395,201.18998045130422 L413.2013103003046,199.27728635439485 L412.3567210229099,197.25518949285382 L412.39664383539207,193.09603015270096 L416.69588715288677,188.84230232108666 L420.45395456784917,186.32696587662957 L422.3010500253451,185.75306493334952 L423.5306726497877,186.28246305711832 L425.3014711767625,185.86246769798123 L428.37641491147895,182.61376187366216 L427.09977208566886,179.89816274140446 L427.2763196341994,178.7577779914294 L426.8886247663204,177.98546864449514 L425.5516541349821,176.51502131647848 L424.74255180201624,176.073701689659 L422.06861053933955,172.10182504828242 L420.76623967881903,171.91825091779873 L419.25360867256114,172.06566650742957 L415.9107385074102,172.06566650742957 L410.9336945513329,171.89970807633563 L411.4881780580259,170.1075424489359 L411.1191138359709,165.47368636732995 L410.511399912636,163.37741813993682 L408.26862502476456,157.64119013335517 L406.63267688661705,155.21393218584723 L405.2859473455602,153.973416091972 L401.80290374991864,152.0699934157941 L400.61497828517935,151.242982686544 L399.9815363271321,149.39518853475508 L400.29825730615624,146.22343550250758 L400.9849296808444,144.92729088424318 L405.62928353290573,141.12044553188747 L407.66179827503976,138.39001212645942 L408.8231085314576,135.41203178750033 L410.7491624403059,131.05446404369314 L413.07178295314156,128.3787320205811 L415.92227176434886,126.03491685965673 L423.04716303195147,122.25588576949553 L432.1256105903348,117.87143090556717 L436.6386627480101,114.94722480685071 L440.20155196861697,112.46526547702696 L442.70870459247965,110.50714141853332 L446.7462316948162,106.64559468386163 L450.44130978341815,104.35648090525324 L452.4738245255522,103.39132600710363 L455.7723360101667,102.78497509126325 L458.59620961305353,102.5643152778535 L460.6544523898989,102.5643152778535 L464.77182511719775,103.28099610039874 L472.53104551645674,104.35648090525324 L480.84386224879864,103.99860406501715 L485.77920904517174,102.28802694005459 L488.31208970374587,100.35771714375548 L490.26830751535874,98.34860027123844 L493.2154982501323,100.68963400594328 L495.7324097837144,103.31993606747102 L498.0035742271284,105.08428743267638 L501.6871190587917,109.09417689905206 L504.8791697101216,113.29691191664297 L507.7642582921467,117.69156534337594 L508.6239295209232,118.84585722444834 L511.6935502139763,121.76542761279902 L514.3328917058352,123.59375178105162 L515.8677020523612,125.03731198894695 L517.2800824406106,126.99358176329434 L518.9985377245526,130.90704845406236 L519.3054997938583,132.25418588634986 L519.3054997938583,134.24290563325752 L518.691575655248,137.2588987972159 L518.5691456969695,138.76643180815847 L519.4900319048862,140.7551515550662 L520.5031841683151,143.5773720257361 L521.5775514108833,145.4066233360619 L523.2658427920617,149.3840628298773 L524.0634118680898,150.12206792010505 L524.3091589582561,152.17476047006016 L523.7564497987833,154.13103024440755 L525.0455130551439,155.96028155473334 L525.8439693047821,155.92783158217304 L526.8260704918364,154.45182140171755 L527.6857417206129,155.2222764645056 L529.0972349352512,155.6710132279104 L529.3429820254175,156.28014556997036 L530.939007351083,156.82623225105587 L535.0829952867033,157.01815066019805 L537.2929447509789,156.9217278845904 L539.9633373192124,157.1470234083659 L540.8230085479898,157.65973297481813 L546.9924138368588,162.6319959131239 L548.8954012318288,164.42787010881634 L551.872755869368,168.53418235079957 L555.2493386317257,171.1644844123273 L557.6127691306546,173.3135997378901 L560.4676938099151,176.1367473506332 L561.8791870245525,177.9975214914461 L562.4931111631628,179.24823614812607 L563.6597444612459,182.80846170902373 L564.4883646136477,185.7920049004218 L565.7774278700075,191.69419133809748 L566.7604162306727,194.4533661477932 L568.3564415563371,197.88564610259613 L569.3695938197679,199.42470194402583 L571.5174411312931,201.73421284824354 L575.3544669976088,206.48210740484694 L575.9382272334545,207.44448087677702 L579.2225439402993,211.13357918584268 L580.6952521340759,213.4430900900604 L582.322328536116,215.49578264001548 L583.9183538617804,218.2864802801983 L584.9927211043495,221.84763298316904 L585.4531642083065,225.24746296541176 L584.9625572015849,231.6632861116127 L585.4221131319327,233.58803305547303 L586.7120635619035,236.15436231395353 L591.0086453585661,241.25457085835404 L592.9125199271472,242.72965389673635 L595.1224693914228,245.35995595826412 L595.8588234883107,249.08150423989002 L596.7184947170881,257.7104155147012 L596.8719757517405,262.4258600987443 L596.8409246753657,265.3129805145347 L596.3804815714078,270.18882067723285 L595.0302033359088,274.2626829466558 L592.9426838299108,277.5660901532909 L590.7637854420099,283.1474854336566 L589.47383501204,286.2274514006623 L588.6150509568736,290.4292592761799 L588.6150509568736,293.5407480736727 L588.901608033133,297.7536816540685 L589.7195821022054,302.4162791399419 L591.5720006013656,307.3560921056875 L593.5672540518506,311.1731360208479 L595.440077544057,313.6949624598169 L594.2991722806852,314.5998531232118 L588.2255817417715,317.80312898594667 L585.2171760278587,318.7914624359248 L580.1177021135046,320.228532649308 L578.7993621279903,320.8274664285633 L575.8770122543161,321.2771303340412 L572.1810469921031,321.45606875415945 L568.2561909383268,321.3661359730637 L565.3338410646526,321.4866644425733 L558.8876376092426,321.57567008159583 L556.6821240130203,322.1449353145101 L554.5041127987304,323.16293731082936 L552.0120421262495,325.94714495650004 L551.7822641610751,327.0856754223289 L552.5558795496139,333.01382183805276 L551.8115408902296,335.67842815628705 L550.321089224238,338.07323613123447 L548.8599142874009,339.57057057937266 L545.2500048654265,340.6488368104466 L544.648501157366,340.6182411220326 L541.5540396032135,338.64250136414904 L538.8330781391702,331.66575726369206 L537.2565706329399,326.1872747534461 L535.8530619807989,323.4920727467976 L533.1312133431446,320.19886410296726 L531.8705396423273,319.06126077921164 L529.1203014491296,318.34272567252015 L527.1720682000122,318.07292732923344 L524.7083870830747,317.98299454813775 L516.3707294896335,318.64219256214767 L511.81598017225485,318.9416594517752 L506.74489581344346,317.89306176704235 L503.02408969012913,316.81943124633403 z"/>
	<path id="mus-merkez" title="Merkez" class="district" d="M67.60726611673888,274.07447310580636 L74.06677717630951,274.74665110884035 L77.90202869540407,274.6363212021355 L80.78711727742922,274.121757351537 L83.03965107501912,274.121757351537 L85.53793196277438,274.3795028478727 L90.18228581483476,274.34241716494677 L94.51080586148399,273.93818322105324 L98.20499677647496,273.75368194849625 L103.83588768364373,272.98137260156193 L107.74122591798408,272.87104269485707 L115.09589515076016,272.2832346204797 L118.40327837148314,272.2090632546277 L121.28836695350827,271.989330583291 L124.66672406308714,271.2531797772095 L129.55771217892485,270.4076262064963 L135.50443689150572,270.0033922626027 L140.57197255587403,270.4447118894223 L142.5423851452596,270.8860315162419 L147.25771288617588,271.54801095647133 L151.6119609675355,272.0607205229236 L152.25693618252043,272.3462802814539 L157.00863804147662,273.04441826253617 L157.99872379102723,271.7037708247607 L160.66290614398733,268.99373454494196 L161.6707353657519,266.9697833992546 L162.97044470544026,266.71945503950394 L165.8590819819086,267.86076693155206 L167.0159563702732,268.53758064495196 L167.95281170318094,269.89120807175163 L168.97572287632735,271.93648348512136 L170.13614595913512,272.41674307901326 L171.33383033359195,272.16270615097005 L176.38894556741056,274.5259912954307 L180.4051805030899,276.29497837100155 L182.3489778841531,276.66490805818853 L184.85169463996255,276.40716256185283 L186.2960132781967,275.8759101539377 L191.2517650676169,273.6720934460591 L192.54970006008318,273.7434833856916 L192.9400564487953,274.6836054478661 L192.19483061579902,277.0144406197662 L193.27274655281033,278.3866108880291 L196.73538515540676,278.96329325752856 L199.26116842509543,280.37718491908305 L201.2874729519541,282.0534577873391 L202.6980789929805,282.867488527565 L206.661970685628,283.7658891964478 L208.57382981670642,283.5433750988917 L209.95870782302146,282.6978215281784 L211.68514766946186,282.26299189587087 L216.40313693121027,281.85319509953854 L218.2111967498351,281.9579621538046 L221.31985308175933,282.92589847817356 L234.11821958984405,285.59050479640786 L236.09572956811405,285.5144791464096 L240.0046164968976,284.2340959433888 L243.38474795369757,282.9379513251244 L244.40765912684589,281.7475009031993 L244.34112110604138,280.56724904407884 L245.0836854182055,279.26183300508296 L247.10023103534667,276.6352395118478 L248.1745982779148,275.9296843941803 L249.57012236756032,276.3274283435619 L251.59553972080795,277.77376997767664 L256.24166792009044,279.3378586550814 L257.9636718984766,279.41573858922595 L265.47714520756927,277.837742780724 L269.8580084972494,276.1735227594188 L273.0269926347009,275.8953801374737 L274.6451973006335,276.03537859051954 L276.15427961244916,276.4739167911198 L280.0099361245908,278.44594798071057 L281.9847845820277,279.64566982336726 L280.7764541242423,283.2522524879226 L280.6353935201397,284.76256692508446 L281.7399246654725,287.6051845213637 L282.98640358851793,289.41125727986093 L283.46813885913303,291.069914448727 L283.2702991439453,292.1064592865091 L282.36360771380026,294.41597019072685 L281.11712879075475,298.4128796680785 L280.49344574242696,302.5590590192071 L280.7480645686998,306.2898787215643 L281.08873923521224,308.6883952648046 L281.1446311726863,310.43513093062006 L280.7764541242423,314.8177315104022 L277.6030341187375,321.658185726106 L276.7815113552211,324.264382093732 L277.34841529246376,325.6560223455309 L278.4529464377965,326.5738929979497 L281.17302072822974,328.3799657564466 L284.43160940036313,331.22258335272596 L285.4119362401962,333.41249292950727 L285.50863816376346,334.4796334557035 L285.0836820042335,335.30942561117297 L282.3352181582577,338.24104884647477 L279.3028587568555,340.905655164709 L274.1466057314155,343.7482727609883 L270.60412150385577,345.4950084268038 L262.72779418798154,347.83511501943565 L260.1487805016519,349.01907544684855 L257.51387487784723,349.8479404602451 L252.55546156759493,350.7074011620557 L248.67318984713376,352.0693728675135 L245.58493850825568,353.96445126503295 L242.18440205840955,356.688394675949 L239.86089437196188,359.11657976553 L238.38729900457605,360.18279314965304 L233.42888569432466,362.4329669611892 L228.07390578008585,363.9136128520104 L224.7301484413239,365.186578918446 L223.05871335874843,366.25279230256893 L222.0100741508907,367.7927752860718 L221.83973681763447,369.0954098988482 L223.39850085164983,371.87961754451885 L224.5606982816778,373.359336293267 L227.11043523885573,376.23162243588706 L227.16721434994082,377.5945212834181 L226.7706477459534,380.4371388796974 L226.28891247533926,381.3846780784572 L225.6936189825531,383.54584625097095 L224.05057345552018,391.5118509434793 L222.4350303104197,395.3613448312 L220.47969967241787,398.20396242747927 L218.92182281201352,399.5659341329374 L212.68765384956214,402.34921463653495 L211.07299787807273,404.3332986730768 L207.41784260195192,408.09378692177495 L201.0426130353979,415.9114488825793 L198.88855550859728,419.0498248001936 L194.12886908714466,424.0545377110599 L192.42815727541563,427.0454980390431 L190.75672219284016,428.67355951949526 L187.38457529853662,430.5686379170147 L185.25979450088863,431.57551420845607 L183.55996986277063,432.7900703242832 L182.39777243274176,433.9740307516962 L181.63302878031132,435.48434518885836 L179.8764250311073,439.9262828613221 L179.50824798266333,442.502810682607 L178.51638788589068,446.5590572526402 L177.4970254071865,453.28640013541974 L169.33147949422255,454.72347034880295 L166.78174253704458,455.86107367255863 L160.8802636786111,459.124613770048 L156.3822934723167,461.39982041755934 L152.16999316867168,464.7829618424853 L150.56598328050987,466.4601618528143 L149.56347710040865,468.13643472107026 L147.67202296237727,474.364048026422 L146.03873634506286,478.3164546842622 L142.37204781200245,482.4487269042936 L140.738761194688,483.4361332121989 L136.21240143285107,485.44246865849635 L131.8856557334239,486.93980310663426 L127.24485057580668,488.07740643038994 L121.14198330774136,490.32294453156027 L118.82113714212676,491.69975051018866 L114.15194242896607,494.06581708086867 L107.82018436933734,495.5622243869334 L106.80703210590849,495.6716271515651 L104.68136413464947,495.1533547326741 L103.12526162146719,495.0643490936517 L100.20734761584436,495.9877825985093 L100.05918962285632,497.211610135068 L99.15782123437651,497.7706768051778 L97.52098592261892,495.1032890607239 L96.77664726323461,494.18449126623193 L95.38999490969562,493.1238407345477 L93.52959184803895,492.48782127236643 L89.36963478742577,491.6042548766542 L86.56261748314286,490.33221595229185 L84.77052678951087,488.9887870882967 L80.33998177763202,485.91345683165696 L77.22866392487565,483.51030457805075 L73.6435953640016,480.36451152385143 L71.00514104575379,477.5728867415954 L70.362827351601,476.54746760869125 L69.82165144906776,474.81556621604614 L69.24676294932864,471.0689850984452 L68.16441114426405,467.4290253192564 L67.52209745011126,465.7675867241711 L66.33860785342523,463.9299911351868 L66.4734582422535,460.0063258816141 L66.23658288819371,458.4867400237206 L65.05309329150768,455.09340003598993 L63.29471519508347,452.12469111776227 L61.16372418216018,451.27635612082963 L59.87820962024358,451.2411247220501 L57.37549286443411,451.6657557915528 L55.27910162232962,451.2411247220501 L54.23046241447186,450.74603085498757 L53.65557391473274,449.8624644592752 L53.1143980121995,445.9044949489961 L52.50579691525259,443.88981522404026 L51.86259604748878,438.4113327137942 L52.77638486652016,434.9827613272839 L53.14811060940633,431.9435896114968 L53.24924840102682,428.6207124213255 L53.1143980121995,426.429875702471 L52.60693470687498,424.16764904398394 L51.69403306145462,421.9406537842767 L50.23995551350292,419.78504846420185 L48.6838530003197,415.50814208075894 L47.12775048713648,414.12948181798436 L43.47525673184876,411.47878263084726 L40.97253997603835,409.8887339753942 L38.03067228292812,409.0051675796817 L35.49424292991183,408.58053651017894 L33.22751435455018,408.4043795162803 L31.16483570965252,408.7928520449303 L29.473882807641978,409.9944281717334 L25.415063538649292,411.9738764979095 L20.274779638202098,413.2459154222719 L19.054028749867015,406.8718136693626 L19.370749728890154,398.45058221893726 L19.19508935396965,394.00122740988843 L18.737307770843877,392.9720997086913 L17.364850195076635,392.53078008187185 L11.41812548249576,391.4636395556755 L7.688447623075895,389.5518726008394 L7.230666039950123,388.63214766427416 L7.230666039950123,387.60301996307726 L9.025418254414248,383.8147174521846 L10.39787583018149,380.28508757970087 L11.031317788226815,376.4606265279551 L10.961231072981015,371.5699520920865 L10.503449489855242,363.2219648654401 L8.18082897701953,357.1547471387436 L6.914832234538011,352.4476468333588 L5.718035033692217,348.5128558749085 L4.415664173171731,345.718449666433 L3.817709159553395,343.95317115915475 L3.078693541833374,340.4596998275239 L2.7974595072381803,336.45166464529467 L3.3608147500386494,332.8107777240326 L5.014506360400141,328.8389010826563 L8.040655546527923,325.713505154066 L11.031317788226815,323.61723692667294 L12.016967669725119,320.71250081149253 L12.967130606793582,318.7265624908046 L14.972142966995122,316.51996435670657 L16.94255555637975,315.1960054762475 L21.51770986680536,311.81286405132175 L25.634195420494166,309.0184578428464 L26.76001873248407,306.9221896154532 L27.675581898735622,302.3625048996992 L28.02690264857567,300.0826625418223 L28.731318495477836,298.31738403454403 L30.70173108486341,295.3023180126588 L32.28533597997814,294.08868903890465 L36.78862922793589,291.36752705420815 L38.020913373210576,289.9693968078973 L39.647989775249684,288.57404798780595 L41.08166233015622,287.1379049164959 L42.876414544620346,286.18202143907774 L46.57149263322141,284.8219040177662 L48.40084461850434,284.2702544842416 L55.57896630274887,283.38761523060253 L60.470841592197615,282.06365635014356 L62.58142761207385,281.1077728727256 L63.919285417022294,280.1509622532342 L65.64306374262958,278.3495252051029 L66.4521660755954,276.8781507350134 L67.60726611673888,274.07447310580636 z"/>
	<path id="mus-varto" title="Varto" class="district" d="M102.95226276737884,168.6788165142111 L107.58685770972073,168.98570054042378 L111.8452910411232,169.13311613005473 L114.80046633839416,169.42702016724343 L119.19907310028825,170.6035634580714 L121.76832787690128,171.00872454403816 L131.7614514279261,173.95054634214438 L137.25039455738118,175.86231329698063 L146.61096332396983,180.38583947188158 L150.37612812781762,182.4079363334228 L155.2671162436563,185.82816344127468 L157.87097079108625,187.48311204184822 L160.5103122829451,188.73289955645498 L165.12805092668404,190.59923654970686 L167.74077721022147,191.8953811679711 L177.16256095594937,195.01243281790292 L182.23009662031768,196.473608725188 L185.21188712591007,196.97055687639653 L188.80139155483832,196.80459844530264 L190.17384913060462,197.19121668980642 L192.60115612950398,199.06589796171664 L193.60454948321532,201.4653416470299 L193.68350793456952,203.203733034187 L193.36678695554542,204.83086737256602 L192.46985443511983,206.5683316176499 L191.12312489406298,207.03653836459085 L187.21778665972357,209.8226002944079 L185.73975542428258,211.0909306504778 L185.00073980656163,212.44270379313107 L184.36729784851534,215.66915820769458 L184.1561505291669,218.8130969777477 L184.52610192483291,222.39928251669357 L185.5286081049332,227.7220051586502 L187.08559779172745,233.10035632499591 L189.3292598532099,235.41635722372575 L190.64848701233333,236.1617794505387 L193.52470385825197,236.24429509504904 L196.63957040545054,235.63701703713554 L199.22568148066654,235.83078973042393 L201.653875653176,236.68561472186866 L202.76195549295193,236.60217193528513 L204.2133715200715,235.88549111273989 L207.06386033127973,236.18866657066002 L214.18963877249243,235.38947010360442 L217.8572144791629,234.31305815667676 L220.36436710302561,233.87266567193032 L224.93064967734472,233.34790325852708 L228.15020271060698,233.32101613840578 L232.6100244516394,233.87266567193032 L235.90942310986594,233.87266567193032 L242.42748762774278,232.85188224939168 L246.5448603550426,231.9970572579469 L251.4269767347738,230.81124254638752 L254.3537624765013,230.63601269456203 L255.882362607753,232.12685714818804 L257.6771148222171,233.41373034572075 L259.64752741160174,235.54615711396679 L262.4279295075632,240.0325976059418 L263.94056051382114,243.37958049001477 L267.03768358880575,247.6815197094328 L269.1136698378651,249.59421380634225 L273.195555620736,252.24120442518674 L274.88384700191443,252.6463655111535 L278.71998569462,254.37455833550584 L281.25375352680413,255.80884712266962 L282.5197502692847,257.1328060031284 L283.64646075488565,258.86099882748084 L284.1388421088283,261.6924907188822 L285.26466542081823,264.48689692735763 L286.9538439756086,267.46580440839 L288.2207278917002,270.4076262064963 L288.7086733775906,272.6642900125445 L289.1513730093336,273.055543967414 L288.881672231679,274.59367266677043 L287.3122621143341,275.9714057874721 L285.44919753184524,278.21138103620365 L284.1645701435397,279.1348145410613 L281.9847845820277,279.64566982336726 L280.0099361245908,278.44594798071057 L276.15427961244916,276.4739167911198 L274.6451973006335,276.03537859051954 L273.0269926347009,275.8953801374737 L269.8580084972494,276.1735227594188 L265.47714520756927,277.837742780724 L257.9636718984766,279.41573858922595 L256.24166792009044,279.3378586550814 L251.59553972080795,277.77376997767664 L249.57012236756032,276.3274283435619 L248.1745982779148,275.9296843941803 L247.10023103534667,276.6352395118478 L245.0836854182055,279.26183300508296 L244.34112110604138,280.56724904407884 L244.40765912684589,281.7475009031993 L243.38474795369757,282.9379513251244 L240.0046164968976,284.2340959433888 L236.09572956811405,285.5144791464096 L234.11821958984405,285.59050479640786 L221.31985308175933,282.92589847817356 L218.2111967498351,281.9579621538046 L216.40313693121027,281.85319509953854 L211.68514766946186,282.26299189587087 L209.95870782302146,282.6978215281784 L208.57382981670642,283.5433750988917 L206.661970685628,283.7658891964478 L202.6980789929805,282.867488527565 L201.2874729519541,282.0534577873391 L199.26116842509543,280.37718491908305 L196.73538515540676,278.96329325752856 L193.27274655281033,278.3866108880291 L192.19483061579902,277.0144406197662 L192.9400564487953,274.6836054478661 L192.54970006008318,273.7434833856916 L191.2517650676169,273.6720934460591 L186.2960132781967,275.8759101539377 L184.85169463996255,276.40716256185283 L182.3489778841531,276.66490805818853 L180.4051805030899,276.29497837100155 L176.38894556741056,274.5259912954307 L171.33383033359195,272.16270615097005 L170.13614595913512,272.41674307901326 L168.97572287632735,271.93648348512136 L167.95281170318094,269.89120807175163 L167.0159563702732,268.53758064495196 L165.8590819819086,267.86076693155206 L162.97044470544026,266.71945503950394 L161.6707353657519,266.9697833992546 L160.66290614398733,268.99373454494196 L157.99872379102723,271.7037708247607 L157.00863804147662,273.04441826253617 L152.25693618252043,272.3462802814539 L151.6119609675355,272.0607205229236 L147.25771288617588,271.54801095647133 L142.5423851452596,270.8860315162419 L140.57197255587403,270.4447118894223 L135.50443689150572,270.0033922626027 L129.55771217892485,270.4076262064963 L124.66672406308714,271.2531797772095 L121.28836695350827,271.989330583291 L118.40327837148314,272.2090632546277 L115.09589515076016,272.2832346204797 L107.74122591798408,272.87104269485707 L103.83588768364373,272.98137260156193 L98.20499677647496,273.75368194849625 L94.51080586148399,273.93818322105324 L90.18228581483476,274.34241716494677 L85.53793196277438,274.3795028478727 L83.03965107501912,274.121757351537 L80.78711727742922,274.121757351537 L77.90202869540407,274.6363212021355 L74.06677717630951,274.74665110884035 L67.60726611673888,274.07447310580636 L67.4378159570937,271.8409878515869 L66.4521660755954,269.08274018396435 L65.04510872901125,267.3174616766859 L63.10929591044449,265.51602462855465 L61.10428355024294,264.2653099718747 L59.696339030048705,263.0145953151947 L58.18370802378986,260.95541277072766 L55.12207189323412,258.9704015921126 L52.025835991859594,257.4619414390968 L50.16010988853958,256.21215392449 L49.280920840327,254.88819504403122 L46.95830032749129,250.58532868254002 L42.91190148904829,245.14300471314692 L41.64501757295575,243.0467364857538 L40.2370730527615,240.32557450105733 L38.020913373210576,238.04573214318035 L34.71264297887752,235.03066612129518 L31.088538779131397,232.71373808049225 L28.836892155153482,231.53719478966428 L27.534521294632988,230.25032159213146 L26.127463948047883,228.15405336473842 L25.494021990002558,226.24135926782895 L25.494021990002558,222.08683563804192 L26.514271642317773,218.66660853018996 L26.865592392157822,216.42292471316586 L26.865592392157822,214.29049794491993 L26.514271642317773,211.31159046388754 L26.408697982642124,208.9214181993057 L26.83099262133996,203.55233845369153 L26.127463948047883,200.90534783484708 L25.739769080168855,198.62457833489702 L24.47288516407631,195.8301721264216 L22.326812199771183,192.40994501856966 L19.054028749867015,188.62256964975012 L18.1038658127976,187.1882808625863 L17.224676764585972,184.9084385047095 L16.90795578556189,182.44502201634867 L16.872468841133944,178.10599711400477 L17.224676764585972,175.7519833902758 L17.189189820157083,174.6486843232268 L16.73140823703131,173.7298865287346 L16.274513827515612,171.74394820804633 L16.204427112270757,166.6687724996209 L16.521148091293895,165.23448371245723 L18.174839701654435,161.1161186235229 L18.1038658127976,156.40901831813815 L18.80828165970071,154.46016568037595 L19.476323388563898,153.2836223895481 L22.537959519120577,150.74603453533533 L25.423048101145717,149.23850152439275 L30.70173108486341,152.14323763957302 L35.38157188135173,155.23247502731033 L42.10279915608152,160.8222145863342 L44.81222736318712,162.66073731739158 L47.76740266045712,164.46310150759604 L51.251333429710684,165.23448371245723 L53.89067492156953,165.63964479842386 L56.986910822944054,165.89646315268664 L64.27060616686234,165.93354883561256 L66.41756630477849,165.67580333927674 L76.44617680023126,165.49222920879305 L80.31691526375376,165.19832517160438 L83.65978542890373,165.45514352586702 L86.22815303190575,165.78613324598177 L92.52708566793865,166.99976221973566 L97.59373415869686,168.06690274593177 L102.95226276737884,168.6788165142111 z"/>
	
</g></g></svg>