<svg xmlns="http://www.w3.org/2000/svg" version="1.2" baseProfile="tiny" width="600" height="600" stroke-linecap="round" stroke-linejoin="round"><rect id="backgroundrect" width="100%" height="100%" x="0" y="0" fill="none" stroke="none" class="" style=""/>































































































































































































































































































































































































































































































































































































































<g class="currentLayer" style=""><title>Layer 1</title><g class="city city-61" id="trabzon" title="Trabzon">
	<path id="trabzon-satpazari" title="Şatpazarı" class="district" d="M47.20636120999393,308.9259556324369 L45.66953877516362,306.09135131942037 L44.35448303018717,304.6746651134365 L41.88810582526639,303.20870286550536 L39.17509089985457,302.08397720805897 L35.47656138541718,300.96048345166133 L34.44855878571932,300.42337459443615 L30.955215274044924,297.44217405662647 L28.98211351010719,296.56259670786784 L27.46083546942537,296.27063615933025 L24.871139404259075,296.61187274981506 L22.076257336330713,296.5145525669692 L13.281239127020559,292.45913431470916 L11.18481850283823,291.7261531907436 L9.335035599147886,291.4329607411574 L7.033428972203488,290.6026594343459 L6.005426372505635,289.57648586079415 L5.101778925996605,286.30209287339824 L3.251996022306262,283.32212423663736 L2.758720581322292,280.73266823230847 L4.813689487775633,274.9661394234297 L5.965010947719012,271.10659343791 L6.991977254473571,269.88454759761777 L9.458354459393412,268.71300970032155 L10.85527734688641,266.807258778011 L11.801412804068654,262.7518405257511 L11.678093943822198,258.11003737431855 L12.04805052455971,255.37398514519657 L11.636642226092281,254.4451317544906 L9.211716738902357,251.95299593300763 L8.34848471717995,250.6829059518169 L7.115296114719101,247.70170541400717 L6.6220206737351335,244.62441659440037 L6.375382953243147,236.02451537355375 L6.087293515021248,231.38271222212126 L6.170196950481081,227.57121037750022 L6.786791251711506,221.80591346967006 L7.937076418711591,218.43420029942843 L9.088397878656831,216.08989260378718 L10.362001905902442,214.62393035585603 L11.390004505600295,212.41759557766719 L13.465699270917668,212.85738425204653 L16.465767341608096,213.9328338675456 L20.04201428874233,213.9808780084442 L22.50735520072073,212.80810821009928 L24.028633241402552,210.7569929640443 L24.64522754263205,207.18940752706226 L25.46700784662454,205.23561246385316 L26.206921008100494,204.50263133988753 L29.28989251425169,203.4271817243884 L32.701368883410474,203.32986154154253 L37.18126327705281,202.30368796799078 L39.319135618965056,202.35296400993803 L41.08601508719556,203.57377794918153 L42.812479130640384,205.6754011382325 L43.18243571137789,207.18940752706226 L43.63425943463194,211.09822955452913 L44.127534875615915,212.6134678444076 L45.09128731283416,213.13333008695116 L44.515108436389426,215.17828582776275 L44.34308380781092,218.4908677476678 L44.95967810904042,220.66147739544476 L44.861230279433954,221.77511594345305 L42.986576345104545,225.70364838769882 L43.06015314407566,227.87302613442722 L44.46640266805645,228.63557288356122 L46.11825361958779,230.2468994552368 L46.98148564130927,231.801558578673 L47.05609873322368,234.41072499978077 L46.833295750426544,236.22777904658628 L46.01980578997947,238.42672241848305 L46.36489134007977,241.47567751397014 L47.91933075494516,244.14397518541463 L48.1162264141618,246.07805983184483 L47.89445972430795,248.511064402991 L48.85613957563868,250.27021910050846 L50.40954269756077,251.03276584964243 L51.8396269592364,252.55785934791032 L52.432386522772916,254.31578214437909 L53.27074751385625,259.30005378734506 L53.960918614056865,261.2058047096555 L55.14436515524237,262.84792880754827 L56.03246820760198,266.9218255755385 L56.03246820760198,268.9741727226421 L55.588934827893354,269.67758822143935 L55.48945070534174,271.55500541963016 L55.78583048710907,273.8118481408149 L55.120530417546604,275.3948409883709 L52.8510488718434,277.9448761591419 L52.111135710366526,279.8222933573328 L52.555705383018434,281.66891302930657 L53.61583306395748,283.28147150203085 L53.76402295484023,285.2746873987978 L52.111135710366526,287.73725759511245 L51.86449798987546,288.7634311686643 L51.81579222154248,291.8123862641513 L50.33596589859058,295.79881805768514 L50.138033946430646,298.17392327954343 L50.89660038088497,300.10184842073016 L50.58882137674233,302.08028150491293 L49.478951634527014,303.3626904965906 L48.55354203621066,306.7713606982927 L47.20636120999393,308.9259556324369 z"/>
	<path id="trabzon-akcaabat" title="Akçaabat" class="district" d="M123.15834360622125,220.57278051993978 L123.84333324170541,214.53400157930224 L123.41223537731537,212.84876094470576 L121.98111482269553,209.5768317594072 L121.28472596483607,204.23654071337234 L121.71582382922611,201.8910011166824 L123.47337666096695,198.92335149040835 L124.61433519147832,197.97109197977738 L125.56979728514929,196.50512973184624 L126.55634816711722,193.719801460777 L128.46727235445914,193.79248362264917 L129.3926819527755,195.22148883911987 L130.84141948743044,194.78293206578928 L131.64247393255891,192.0702859565923 L131.7129418526992,189.96496706439524 L133.97931451957345,188.2649436172146 L135.2498096679901,188.3166834612592 L137.24260099784857,183.31762900570902 L137.44053295000757,181.92311701860143 L141.9691331119829,181.77282509066228 L143.6655446600731,180.7836085485709 L144.83655568593906,177.59544863458274 L146.00756671180412,176.49659289915874 L146.2241519369424,174.77316333205312 L145.48423877546648,172.39189860495145 L144.3432802449551,171.182171775146 L141.5691240358917,170.12027307118245 L140.79812208611784,168.14060808595104 L139.71934113220135,167.40762696198541 L136.85191855824516,167.40762696198541 L134.84876429895468,167.99401186115796 L132.25906823378838,167.70081941157173 L131.48806628401547,167.041752350527 L131.5502438606094,165.68542929592846 L132.69016609817749,164.21946704799728 L133.18344153916146,162.7904618315266 L133.1223002555108,159.08983108128686 L136.7285996979987,153.59308860206932 L137.83846944021312,151.46682739204476 L138.60947138998603,148.3156245095171 L138.27060359754643,144.1012910219772 L137.7379490247182,141.40712342851043 L140.4747986878258,140.9574795457416 L143.12356345075708,141.88263723330147 L146.0666354095691,142.23988853741918 L151.5797138676267,144.30085899186355 L155.81297054077797,145.72863230728564 L158.97677289650147,146.0686369967218 L162.16959145463537,149.86412412770989 L163.92403540754728,150.22260733287627 L166.14792006374833,151.26972322425567 L166.0152745670122,152.909383520051 L167.70339577155698,155.09970358460703 L171.61643792524612,158.14126727380196 L173.16465958245266,159.9731041331916 L176.99583459362523,162.80647654515946 L177.29014178950595,163.66634347713926 L181.61666482755,167.23269701307265 L182.88301480419258,167.6786451926954 L186.08515999881703,170.83231187732048 L188.66760201338028,172.65429352832058 L188.617859952104,173.79872960254596 L190.60339723135942,175.28686606935338 L192.13296561558758,178.28654512289316 L192.24695783934533,179.32380580588313 L193.62004598914257,180.34874747838626 L197.3652086860254,181.82086923156086 L197.96522230016404,181.85043485672915 L201.94976866693676,183.74879437274765 L204.8638244233384,183.53937119447178 L206.0327628633178,182.98747952466232 L207.10325347368791,184.10604567686528 L211.16759439709057,185.87382368172354 L214.0505613651943,186.3727436064395 L215.2785685029387,187.5381219984924 L218.41231836330851,188.70965989578877 L220.72325162674164,189.0484326841762 L220.79890101159842,190.20272396679087 L219.73566445183135,193.5633500275944 L217.42369489545308,197.99696190179972 L216.7459593105729,198.7299430257653 L214.1562632454057,199.93966985557068 L214.00185559686227,200.81801530328065 L211.87538247732627,202.98123354476567 L214.18735203370267,206.5722251016727 L214.7728575466352,211.37294348838515 L214.18735203370267,213.57188686028195 L214.43398975419467,218.6288406651201 L213.20080115173474,221.23061567993568 L210.9199203836553,224.05166908141678 L210.82665401876253,225.3340780730943 L214.09512196175413,226.287569484774 L217.39364240010033,226.25061245331352 L219.99266510175443,228.2413645479831 L221.51394314243623,231.17328904384544 L222.7875471696837,232.83512355851693 L226.44566125933449,236.54807331924349 L227.15552192545582,239.79166878042224 L223.45802870396264,243.54157557260928 L220.04655233480386,246.27885970277993 L219.42995803357343,247.3050332763317 L216.88171368613612,248.23265476598905 L216.1418005246611,249.1122321147477 L216.26511938490663,251.11530321990412 L215.85371108643827,251.89756038581692 L211.0857272545731,257.0271963525274 L209.03075834812162,260.6440578314567 L207.46906488265319,260.74137801430254 L206.27732799792318,261.47435913826814 L200.81088272231105,263.5747504262703 L199.00151524340825,264.11309118454426 L194.97344457301998,266.0176102058062 L193.08324624454207,265.9202900229602 L190.65832075735122,264.94339249135567 L188.80853785366182,264.6502000417695 L184.41051060253508,264.5528798589236 L183.46541143829708,265.1873088989946 L182.10890397558975,269.2427271512547 L180.7938482306133,272.1253756051699 L179.02593246944042,278.6729296789127 L177.6290095819465,279.79642343531043 L175.94296096328924,280.1881679687912 L170.6827379833834,280.13889192684394 L168.6681845017176,280.9691932336554 L161.92709890591564,282.48443152353383 L157.2005667917804,282.43515548158655 L154.94041188256685,282.58175170637963 L149.84288689474985,282.43515548158655 L148.24077800449479,281.8487705824141 L145.48631136135214,280.3347641935843 L144.49976047938418,279.3566347609311 L143.3080235946542,277.402839697722 L142.7328810111546,274.8614278342917 L142.56811043317825,272.02805542232386 L142.81474815367022,269.3893233760478 L141.9515161319478,264.7967962665626 L141.5079827522401,262.6027804988605 L142.21784341836147,261.4078364816393 L142.39504951165642,259.2630967558846 L141.89244743418374,258.06815273866334 L142.21784341836147,256.31146184324325 L141.41886155912144,254.94035597606063 L141.03543317012017,252.09343265255734 L141.5380352475938,250.86276350492432 L142.18779092300778,247.52431166299706 L144.110114332725,247.31242468262386 L145.23345588320223,246.18769902517744 L147.15577929291854,244.99275500795625 L149.87604826893434,244.4655013591206 L150.31958164864204,243.79781099073506 L152.8325920360092,243.83353612114678 L153.3061779110715,242.9896839027998 L151.32478580358836,241.68879639539205 L151.41390699670703,240.67001422813235 L150.40766654881742,239.9665987293351 L147.74646627056754,239.6155069304608 L145.20443968079,240.00109195869823 L143.34118496883775,239.1449207298644 L142.97951873164567,237.38576603234708 L143.47279417262962,235.9198037844159 L145.281125358591,233.37962382203426 L144.95262049558247,231.91366157410314 L143.38989073717073,231.37532081582927 L139.36182006678152,231.37532081582927 L137.18353230008265,232.15757798174204 L133.5254182104328,232.01098175694895 L131.9222730272335,229.8613144269994 L131.05904100551203,227.07598615593025 L129.45693211525696,224.73044655924033 L126.86723605009067,222.2875867797046 L123.15834360622125,220.57278051993978 z"/>
	<path id="trabzon-carsibasi" title="Çarşıbaşı" class="district" d="M96.78054302889294,156.33899603958073 L103.31540632898768,153.4366371688867 L108.62226249133991,150.43079861010347 L112.51665137205065,148.7960659185029 L116.8048315711928,145.72863230728564 L120.32719128527944,142.76098268101146 L125.81539871269797,138.69694112141065 L130.9471213676418,136.69263811520574 L134.63114278087403,137.94055387752016 L136.97005595377516,139.26238370275559 L136.02184791070727,141.22110637015942 L137.7379490247182,141.40712342851043 L138.27060359754643,144.1012910219772 L138.60947138998603,148.3156245095171 L137.83846944021312,151.46682739204476 L136.7285996979987,153.59308860206932 L133.1223002555108,159.08983108128686 L133.18344153916146,162.7904618315266 L132.69016609817749,164.21946704799728 L131.5502438606094,165.68542929592846 L131.48806628401547,167.041752350527 L132.25906823378838,167.70081941157173 L134.84876429895468,167.99401186115796 L136.85191855824516,167.40762696198541 L139.71934113220135,167.40762696198541 L140.79812208611784,168.14060808595104 L141.5691240358917,170.12027307118245 L144.3432802449551,171.182171775146 L145.48423877546648,172.39189860495145 L146.2241519369424,174.77316333205312 L146.00756671180412,176.49659289915874 L144.83655568593906,177.59544863458274 L143.6655446600731,180.7836085485709 L141.9691331119829,181.77282509066228 L137.44053295000757,181.92311701860143 L137.24260099784857,183.31762900570902 L135.2498096679901,188.3166834612592 L133.97931451957345,188.2649436172146 L131.7129418526992,189.96496706439524 L131.64247393255891,192.0702859565923 L130.84141948743044,194.78293206578928 L129.3926819527755,195.22148883911987 L128.46727235445914,193.79248362264917 L126.55634816711722,193.719801460777 L125.56979728514929,196.50512973184624 L124.61433519147832,197.97109197977738 L123.47337666096695,198.92335149040835 L121.71582382922611,201.8910011166824 L121.28472596483607,204.23654071337234 L121.98111482269553,209.5768317594072 L118.44217442151802,209.7456022030766 L116.6234803061256,210.1484338459955 L114.99028262757355,208.60978943619216 L112.98609207533977,205.750547102202 L109.8730680738349,203.11181505592594 L109.44093391650159,202.19651257675542 L109.8730680738349,200.5839541040312 L112.36949777410935,198.89871346943468 L114.25036946609667,195.89287491065141 L115.76024828440319,194.02408101980137 L118.87430857885042,191.1291135553995 L120.4463649737518,188.4546563787116 L122.2039178054936,183.28683147949204 L122.04951015695016,180.50150320842278 L120.75414397789538,178.5969841871609 L119.42872530348598,177.60653574402085 L115.97683350954148,176.43376594567593 L110.82853016750586,174.30873663670013 L109.7186604252924,174.0894582500348 L105.3413590330297,172.2206643591847 L102.75166296786341,170.60810588646038 L101.98066101809049,169.76425366811344 L101.45733308175191,167.82277761539106 L102.32056510347338,165.18404556911503 L101.75371286351924,163.1415536304009 L98.92359683551979,160.8711599976806 L97.93393707472383,159.59121480810032 L96.78054302889294,156.33899603958073 z"/>
	<path id="trabzon-arakli" title="Araklı" class="district" d="M380.30718342157655,212.3904937545962 L385.4161076317688,214.41081147443407 L388.7985677985163,213.67906225151717 L392.51575058593204,213.30456433271792 L397.2122302047127,213.86261550777078 L400.55220236078884,215.24973608858633 L402.7916314111383,217.87614912437562 L404.3336353106842,222.0436703720656 L406.55441108805536,222.8468698558061 L407.3337033813746,224.0110163468102 L408.867416937376,225.19487325459335 L409.72339490849623,227.2250461828208 L412.05194515196536,229.8748653385349 L409.67365284721996,232.62816418233848 L408.39590364820117,234.98479088846642 L404.9429755613115,239.99986005764947 L403.90150115335183,244.79688274121585 L403.57299629034327,247.28901856269886 L404.23000601636033,249.48796193459566 L405.33987575857475,251.53907718065057 L406.03833720231984,254.61759790130606 L407.76480124576466,257.50024635522107 L407.682934103249,259.7484657690652 L407.18965866226506,260.8719595254628 L408.2176612619629,263.16822308020545 L408.5047144072415,265.36716645210225 L408.176209544233,266.78385265808606 L405.2580086160582,270.6446305446544 L402.70976426862086,273.03821428224285 L401.0247519429069,276.94703630970974 L398.59879016277273,281.05173060391706 L398.84542788326564,287.1594960032807 L399.38015504197955,289.21184315038437 L398.51692302025714,290.92172180595446 L393.37898260765354,293.85364630181687 L392.76238830642404,294.65684578555727 L392.8100577818137,297.9768191117543 L393.8048990073271,300.5712027202779 L396.05883615888274,303.6053750031808 L394.6121712101144,305.18836785073677 L394.28366634710585,306.99679859020154 L393.42043432538344,309.04914573730514 L393.58416861041655,310.61242816808203 L396.62672469178017,312.9086917228247 L397.1200001327641,313.88558925442925 L397.0785484150342,318.77254071454945 L397.7770098587803,323.4623880068805 L398.47547130252724,325.61328723787864 L396.5034058315347,330.30313453020983 L397.8184615765102,335.7271948475551 L398.72210902302015,336.2643037047802 L404.2652399764314,336.32097115301957 L404.2165342080975,336.92090696372753 L405.49221082123154,338.72317819794876 L404.9149956518445,341.3261851138132 L405.8051712900916,342.2698213171034 L406.31088224639416,344.2728924222597 L405.44454134584186,346.10349738060063 L403.87973900154446,347.84786926553386 L403.422733813573,349.9655071682177 L400.5117869360013,353.68338453313896 L398.41743889770555,355.3144215215934 L397.4557590463757,356.60175811746586 L396.0598724518251,357.4887268725165 L394.9292768507476,357.54539432075586 L393.8214796944189,359.31933183085744 L392.5706741119239,360.4625360040341 L392.69088409334046,362.3793740357828 L391.7043332113716,366.6417516642214 L389.2617907441466,370.68485090599455 L387.803726573002,371.5508773432176 L386.46379979738833,373.2595240977392 L381.0937297654989,373.53546993264393 L378.4221665578151,373.8779384241773 L375.4625139119113,374.75751577293613 L373.77750158619733,376.07564989502544 L372.9961367069905,377.44429196011066 L372.83136612901507,379.64323533200735 L372.9961367069905,382.036819069596 L373.77750158619733,384.8714233826125 L375.54438105442784,387.31428316214823 L379.77763772757817,393.5686447863049 L383.72384125545085,397.08695418133976 L389.930199692538,400.06692281810075 L394.61631638188754,403.6825523959815 L395.8495049843475,405.0511944610666 L396.91792300883196,407.00498952427586 L397.53451731006237,409.0573366713794 L397.57596902779136,411.35360022612207 L397.20601244705387,413.7484158647592 L395.5614155461256,415.70221092796817 L393.13649005893564,417.6079618502789 L391.3685742977609,419.317840505849 L388.3685062270705,421.7126561444862 L385.20366757840276,423.4225348000562 L382.9020609514593,424.93654118888594 L375.0511056134439,427.72186945995514 L371.35257609900646,429.3344279326794 L367.5711431491092,429.72494056511164 L365.679908527689,429.23710774983374 L361.5285189970552,426.94084419509096 L357.5004483266669,424.9858172308333 L353.7190153767697,422.4456372684518 L347.84116180269103,416.9723009091592 L346.4846543399847,415.2143781126903 L345.7861928962377,412.7702864321059 L344.79964201426975,410.32742665257035 L343.27940026653124,395.76758815820165 L342.2099459491035,392.63979139559893 L341.1829796423489,390.2942517989091 L339.4565155989041,388.43777691854586 L337.0730418294431,387.2169629793023 L334.48334576427686,387.0210907125619 L333.0853865838415,387.8513920193734 L331.8936496991115,389.65982275883806 L328.11221674921427,393.4220485615118 L326.42720442349935,394.5455423179095 L321.61776887390425,395.32779948382245 L318.57624908548394,394.83873476749574 L315.82281873528643,392.83566366233936 L313.43830867288125,389.80641898363115 L311.8351634896829,385.79904487226975 L311.2600209061824,382.036819069596 L311.2600209061824,378.32386930886946 L311.5481103444052,372.2161039095057 L315.2880915765725,363.32301023907286 L315.9461375955319,357.997502005622 L315.8632341600721,351.3033517070859 L316.2746424585395,342.70468238728796 L316.10987188056407,339.82080203232425 L315.27254718242216,338.633249421395 L317.0902050048732,336.9295302710685 L317.7067993061027,335.0237793487578 L319.556582209793,333.4112208760335 L323.95460946091976,329.11188621613456 L324.48933661963366,327.891072276891 L329.37960301880105,323.1999930835112 L332.2573885221892,321.78330687752737 L335.75073203386455,316.7990352345614 L336.36732633509496,315.23575280378435 L336.65541577331595,312.303828307922 L337.76528551553037,308.78551891288726 L339.0388895427769,306.2946149924529 L339.7383872794662,305.8548263180736 L341.13531016695924,306.2453389505057 L343.56023565414915,306.3426591333515 L345.6152045606025,305.4150376436942 L348.73962778448265,304.436908211041 L350.75314497320517,302.9709459631098 L351.69824413744317,301.5062156162273 L351.49305813468203,298.8674835699512 L352.6029278768955,294.66546909289804 L355.56258052280026,290.95128743112286 L357.9056388674746,286.70122881317116 L362.54926754614996,282.2060218865317 L363.41249956787146,279.4206936154626 L363.41249956787146,276.5380451615474 L363.0021275623473,275.4133195041011 L363.5772701458478,272.530671050186 L362.6321709816098,270.7727482537173 L362.4674004036334,267.69422753306185 L364.07054558683274,266.4721816927697 L364.1524127293483,265.54456020311227 L367.08823063755824,262.5227069306962 L367.8364341425805,260.5652161643411 L367.95249895222395,259.10294961955594 L369.74943091580906,256.3151575463894 L370.69763895887695,254.33795636325524 L372.3608891327827,253.0715620852106 L372.26036871728866,252.20183994484137 L374.27284961306697,249.27607495422234 L374.8884076213541,249.3352062045591 L377.4169624028688,246.4488620474979 L378.4024769918944,243.59947492189727 L380.11754181296294,241.77133376565365 L382.0927161627854,237.26503972957613 L381.97561506019963,233.80462968382943 L383.0575048929451,230.95770636032603 L381.111346745533,228.26846637105405 L379.81390798059255,224.94726114380833 L379.2812534077643,222.23831073775727 L378.1340771195941,220.99285877754022 L379.79732729349985,220.04429497005526 L379.69784317094917,216.2869967715762 L380.1963000766487,215.02183439458014 L380.30718342157655,212.3904937545962 z"/>
	<path id="trabzon-arsin" title="Arsin" class="district" d="M337.6885998377303,215.17212632251932 L346.6774048274281,215.28546121899802 L352.60603675572537,214.76806277855175 L362.6912396793748,211.92853086134053 L367.5742520279391,210.955329032882 L371.2520556835125,210.75206535984955 L378.0149034311218,211.03663450209507 L380.30718342157655,212.3904937545962 L380.1963000766487,215.02183439458014 L379.69784317094917,216.2869967715762 L379.79732729349985,220.04429497005526 L378.1340771195941,220.99285877754022 L379.2812534077643,222.23831073775727 L379.81390798059255,224.94726114380833 L381.111346745533,228.26846637105405 L383.0575048929451,230.95770636032603 L381.97561506019963,233.80462968382943 L382.0927161627854,237.26503972957613 L380.11754181296294,241.77133376565365 L378.4024769918944,243.59947492189727 L377.4169624028688,246.4488620474979 L374.8884076213541,249.3352062045591 L374.27284961306697,249.27607495422234 L372.26036871728866,252.20183994484137 L372.3608891327827,253.0715620852106 L370.69763895887695,254.33795636325524 L369.74943091580906,256.3151575463894 L367.95249895222395,259.10294961955594 L367.8364341425805,260.5652161643411 L367.08823063755824,262.5227069306962 L364.1524127293483,265.54456020311227 L364.07054558683274,266.4721816927697 L362.4674004036334,267.69422753306185 L362.6321709816098,270.7727482537173 L363.5772701458478,272.530671050186 L363.0021275623473,275.4133195041011 L363.41249956787146,276.5380451615474 L363.41249956787146,279.4206936154626 L362.54926754614996,282.2060218865317 L357.9056388674746,286.70122881317116 L355.56258052280026,290.95128743112286 L352.6029278768955,294.66546909289804 L351.49305813468203,298.8674835699512 L351.69824413744317,301.5062156162273 L350.75314497320517,302.9709459631098 L348.73962778448265,304.436908211041 L345.6152045606025,305.4150376436942 L343.56023565414915,306.3426591333515 L341.13531016695924,306.2453389505057 L339.7383872794662,305.8548263180736 L339.0388895427769,306.2946149924529 L337.76528551553037,308.78551891288726 L336.65541577331595,312.303828307922 L336.36732633509496,315.23575280378435 L335.75073203386455,316.7990352345614 L332.2573885221892,321.78330687752737 L329.37960301880105,323.1999930835112 L324.48933661963366,327.891072276891 L323.95460946091976,329.11188621613456 L319.556582209793,333.4112208760335 L317.7067993061027,335.0237793487578 L317.0902050048732,336.9295302710685 L315.27254718242216,338.633249421395 L313.97303583159515,336.791557353616 L310.97296776090377,334.93508247325275 L308.7304298317244,334.46449627265633 L309.8485899174851,333.1118689212039 L310.5636320483229,331.06937698248976 L311.3719405440526,329.85102684534354 L312.8579846246652,328.5304289211569 L313.3626592880245,327.0385967512034 L314.70465864952473,326.5409087275359 L317.5327020916376,324.38015428814833 L318.21043767651867,321.66997198104866 L318.26847008134126,320.2298796551398 L319.0187461722493,318.63456779709713 L321.02397301742633,317.05650255373587 L321.4996314783752,316.0451117927682 L322.9856755589869,314.7245138685815 L323.95253687503407,311.8603439303967 L323.96704497623926,310.65924040793203 L325.828227102304,309.699589491009 L326.5204707883921,306.7491864794164 L325.8427352035092,303.8850165412316 L325.9494733766639,302.74058046700634 L326.92669762214314,300.31373540110343 L328.6220728772909,297.78587444920873 L327.6044332070251,295.9897627202309 L324.58363927746876,293.9743726045876 L321.80948306840537,292.6550065814496 L320.5151531822929,291.18904433351844 L320.4218868174011,289.17365421787525 L321.47061527596486,284.62917124928856 L323.8437261159928,282.50414194031265 L324.7069581377143,280.52570885613 L326.15569567236923,278.6926400956917 L327.1111577660411,275.90731182462247 L329.42416361536175,274.4783066081517 L330.31744813243694,273.30553680980677 L333.09160434150033,271.2901466941636 L333.7703762193256,270.04469473394647 L336.2367534242455,268.2116259735081 L336.36007228449097,267.0031310447514 L333.52373849883367,263.26554326305126 L332.5682764051617,260.92000366636137 L332.19831982442514,258.06076133237127 L332.38277996832227,254.9834725127645 L332.72164776076283,253.11467862191444 L331.76618566709277,251.61175934252273 L331.6739555951433,250.21971115751253 L332.2294086127212,247.69061830456906 L333.27710077834075,246.92068014914298 L335.3113438259291,246.77408392435 L337.9321286793924,246.15197389476572 L339.6886452181918,243.6228810418222 L339.75082279478573,242.45011124347732 L339.05443393692536,240.4790695655866 L337.7051805248221,239.20158817810375 L337.79119283911086,237.91794728537752 L337.30517144873085,236.27705508853353 L337.9766892759522,234.88993450771798 L337.85129782981915,232.84497876690645 L338.55183185945174,231.22626078893876 L337.54040994684664,229.84037210917182 L338.267887593004,228.47542574723258 L338.0720282267306,227.26693081847588 L336.4388305481786,224.41507989077786 L336.1662855041052,221.79605826128062 L337.4885952996847,219.34580707545277 L337.6885998377303,215.17212632251932 z"/>
	<path id="trabzon-caykara" title="Çaykara" class="district" d="M435.88150138185637,411.8500563487408 L433.78715334356156,410.76721532694955 L432.6358318836173,409.59444552860475 L431.69073271937833,407.7872466901886 L430.5394112594349,404.36625747799974 L430.79952078818883,400.85533948925695 L431.33424794690274,398.6083519764617 L431.99229396586213,397.2889859533236 L432.56743654936264,393.77067655828864 L432.48556940684705,391.67028527028657 L433.3073497108395,390.008450755615 L435.320866899562,389.4713418983898 L436.6369589374818,387.1750783436472 L436.5955072197518,384.48707025542376 L435.7322751980294,380.9207167194903 L436.1022317787679,378.1846644903684 L435.362318617291,374.2265664209542 L433.0607119903466,369.14497459514246 L432.6907554096091,367.8256085720043 L432.6088882670935,364.5524474856572 L433.3488014285685,361.18073431541546 L435.03381375428245,358.7871505778271 L437.99243010724484,357.2226362460013 L439.80179758614764,356.782847571622 L443.2951410978239,355.0729689160519 L444.28169197979184,354.1453474263945 L445.0620205660535,351.84785197060324 L446.95325518747376,347.35264504396383 L447.4879823461876,345.44812602270207 L448.0216732119582,341.00096323696124 L449.3781806746646,339.4869568481315 L450.93987414013395,338.90057194895905 L452.17306274259295,337.23873743428743 L451.5160530165759,331.9132292008366 L450.529502134608,330.0567543204734 L449.789588973132,327.46729831614454 L452.5119305350335,327.48208112872874 L456.08817748216774,327.7752735783149 L463.60959166423225,329.48515223388506 L466.8158820306281,329.82762072541857 L469.8159501013194,328.850723193814 L470.80250098328827,328.1177420698484 L472.98078874998623,324.4528364500205 L474.78911993594664,323.0854262859839 L475.32384709466055,321.5701879961056 L475.7756708179146,318.9314559498292 L478.0368620200733,317.95455841822485 L481.5302055317477,314.7294414727762 L482.2286669754937,312.28658169324046 L483.21521785746165,310.5767030376703 L483.2981212929215,306.8625213758951 L482.84526127672507,305.10459857942635 L483.79036044096307,303.96755391149316 L484.62353996733,303.85791471816054 L486.62669422662043,304.66480990504704 L489.0619826432442,304.4442996173331 L491.68276749670844,301.4396929595986 L492.91595609916743,301.07258644709134 L495.8745724521298,302.6124627579434 L499.5430494712117,302.5385486950225 L502.9348362744497,306.56932892630897 L505.89345262741017,311.44396137594225 L509.16088427745854,315.10886699577014 L512.2749445719057,317.05034304849244 L515.1112783575641,317.8202812039185 L515.4501461500055,319.0657331641356 L515.3879685734097,322.21816794771206 L516.066740451235,323.4636199079291 L517.6999381297879,325.03922134919304 L521.3995039371678,327.3847609458828 L524.3902453713695,328.3370204565138 L525.869035401378,327.8245496202623 L528.3354126062989,327.93418881359486 L530.4318332304821,328.3370204565138 L533.4101391493633,329.6379079639216 L533.5282765448933,331.63235576173713 L534.2795889287446,336.6326421183361 L535.4713258134755,341.3446636295435 L534.6132752564705,345.2103691203065 L533.4971877565963,347.2959775957245 L532.9738598202578,349.6439809945118 L533.5179136154613,352.93438869554046 L535.8734074754542,355.6581219141757 L536.303469046901,356.894950567052 L536.7542564772117,360.76065605781514 L540.504600638812,362.4027801557077 L542.7564652044811,362.3288660927867 L545.0953783773812,363.46837456281736 L546.3161314645225,363.2811256034177 L546.8684756032724,365.3260813442293 L546.2788249185658,366.49761924152557 L547.3275533771296,368.04242315657234 L549.6871924088947,367.85517419717274 L551.224014843726,369.6007779831546 L552.5732682558283,370.6306472598524 L553.4800245811672,372.0830585962482 L555.4697070321948,373.7461250119684 L557.0946143672024,374.3904092604289 L560.6812242437687,374.7994004085912 L561.5081860124776,375.4794097874634 L562.2864420128536,377.13015719269686 L562.6605437653652,379.0630099380784 L563.5476105247816,381.60318990045994 L564.5227621843733,382.54066659850673 L566.9849942175208,383.38328691580494 L568.8492852224164,383.63213092763885 L570.8555483605377,384.2948936918294 L569.5798717474037,386.51231557945647 L569.3332340269117,389.4922842162173 L569.3332340269117,392.57080493687283 L570.9778309278399,397.16333204635805 L572.6224278287673,400.8775137081333 L576.1572230581716,405.8605534500506 L578.4992451099026,408.3526892715335 L581.5822166160538,410.7955490510692 L582.6506346405382,411.96831884941406 L583.1853617992522,413.5328331812401 L582.6920863582682,415.48662824444904 L581.4174460380783,417.4896993496053 L581.5003494735382,420.0791553539342 L582.5687674980218,422.52324703451865 L584.5822846867442,425.45393962933235 L586.2268815876726,429.3147175159006 L586.596838168411,432.97839123467975 L585.9802438671805,435.5198030981102 L582.5366424167805,437.5918606619927 L580.523125228058,439.2536951766641 L578.8370766094008,440.1332725254229 L574.275315073241,440.3771889330618 L570.658652701321,440.91429779028726 L566.34249259271,440.2305927082687 L564.3279391110441,440.08399648347563 L561.9444653415832,440.27986875021605 L558.4511218299089,442.03902344773337 L555.6147880442496,442.96664493739075 L553.7650051405592,442.869324754545 L544.8456317780602,439.93740025868254 L543.4487088905673,438.9112266851306 L539.7905948009166,438.2275216031124 L538.0226790397427,438.6673102774918 L534.6930698131005,439.93740025868254 L532.474366621615,440.0347204415283 L528.8162525319633,439.44833554235606 L525.5685104478375,439.54688762625045 L522.8969472401548,440.0347204415283 L520.1020651722273,440.27986875021605 L507.4997066894384,441.98235599949413 L502.50995616771854,442.4295360801654 L499.8383929600366,442.4295360801654 L495.27663142387684,441.11017005702735 L492.4402976382195,439.59493176714903 L489.6454155702902,437.6904127458872 L486.767630066902,435.29559710725005 L481.7944602322757,430.6537939558176 L478.01302728237846,425.76807439674616 L476.36946667439344,424.4979844155554 L472.0947582835132,422.4456372684518 L469.505062218346,422.15244481886543 L466.1340012739738,422.05389273497093 L463.7505275045129,421.6141040605915 L459.8872274121,419.3671165477963 L456.4757510429412,417.70528203312483 L449.77611716487104,414.9211856631042 L447.1449693819739,413.6018196399661 L442.2536666898632,412.5756460664142 L438.59555260021244,412.4770939825197 L435.88150138185637,411.8500563487408 z"/>
	<path id="trabzon-besikduzu" title="Beşikdüzü" class="district" d="M45.09128731283416,213.13333008695116 L44.127534875615915,212.6134678444076 L43.63425943463194,211.09822955452913 L43.18243571137789,207.18940752706226 L42.812479130640384,205.6754011382325 L41.08601508719556,203.57377794918153 L39.319135618965056,202.35296400993803 L37.18126327705281,202.30368796799078 L32.701368883410474,203.32986154154253 L29.28989251425169,203.4271817243884 L26.206921008100494,204.50263133988753 L25.46700784662454,205.23561246385316 L24.64522754263205,207.18940752706226 L24.028633241402552,210.7569929640443 L22.50735520072073,212.80810821009928 L20.04201428874233,213.9808780084442 L16.465767341608096,213.9328338675456 L13.465699270917668,212.85738425204653 L11.390004505600295,212.41759557766719 L10.814861922099787,209.10254985566485 L9.293583881417966,204.21559839554465 L9.088397878656831,201.6261423912159 L9.540221601909952,198.64617375445494 L11.595190508363292,195.61692907574678 L11.759961086338738,194.19901096871413 L10.691543061854262,191.9027474139715 L10.362001905902442,189.70380404207475 L12.581741390331228,187.11434803774588 L14.719613732242546,185.25787315738262 L15.29475631574305,184.1836554429323 L15.376623458258663,182.47254488631347 L14.801480874759083,179.98164096587908 L15.171437455497525,177.97733795967403 L14.883348017274695,175.58375422208556 L15.499942318506047,172.84770199296366 L16.77458263869496,171.43101578697974 L18.33627610416433,170.4528863543265 L18.212957243917874,169.13352033118838 L17.554911224957532,168.69373165680906 L17.308273504466477,166.73993659359996 L18.007771241155805,165.76303906199547 L20.76120159135518,164.78490962934222 L21.747752473323118,163.56409569009872 L21.089706454362776,161.80494099258127 L19.32282698613134,160.8280434609767 L19.240959843615727,159.60599762068452 L20.021288429878297,158.1400353727534 L23.01513874290989,156.90813432407168 L23.276284564607067,154.8508595727733 L24.19858528409447,153.2986642514344 L23.93433058356741,151.86226762867167 L27.050463463901238,152.86257128020108 L31.89513297356647,153.32453417345675 L38.554351426850964,152.99315279136135 L40.08495610402244,154.61433457142647 L42.466357287595855,155.98790424070646 L45.097505070493,160.58782275648375 L49.65201255604881,163.16742355242314 L51.95983694065298,164.14801678717373 L50.58778508379904,167.56038269202196 L51.42096461016591,169.28258035807895 L49.94113828721493,171.5911629233083 L50.34114736330613,172.32414404727388 L48.43022317596513,176.83166998440012 L48.954587405247,178.73618900566203 L50.71110394404457,182.65733004361562 L52.560886847734906,185.22337992801954 L52.838613356523865,187.0921738188697 L53.60961530629773,188.4386416650787 L53.04690823811674,189.93663334027562 L53.57541763916994,192.4016673386876 L54.00133403884348,192.85377502355374 L54.13708841440855,196.76136514997194 L55.6708019704099,200.9535244186357 L57.45944359044866,202.89869617450398 L55.89153236732045,208.00123031814343 L57.03352719077512,209.01385298015978 L57.578617278921016,211.4850464838151 L57.391048256194026,212.96332774223316 L57.83250905001606,214.90603569600424 L57.57654469303536,218.7458712647449 L55.38996658279106,216.96207854625376 L53.08835995584573,216.2290974222882 L45.09128731283416,213.13333008695116 z"/>
	<path id="trabzon-dernekpazari" title="Dernekpazarı" class="district" d="M534.1624878261597,317.3188974771051 L533.7490069418038,318.8834118089308 L535.4827250358518,321.4383745838966 L537.0703258249007,324.22247095391714 L537.0164385918531,325.6551718735338 L536.0744483064441,326.83533307817095 L534.1417619672939,327.86889805801474 L533.4101391493633,329.6379079639216 L530.4318332304821,328.3370204565138 L528.3354126062989,327.93418881359486 L525.869035401378,327.8245496202623 L524.3902453713695,328.3370204565138 L521.3995039371678,327.3847609458828 L517.6999381297879,325.03922134919304 L516.066740451235,323.4636199079291 L515.3879685734097,322.21816794771206 L515.4501461500055,319.0657331641356 L515.1112783575641,317.8202812039185 L512.2749445719057,317.05034304849244 L509.16088427745854,315.10886699577014 L505.89345262741017,311.44396137594225 L502.9348362744497,306.56932892630897 L499.5430494712117,302.5385486950225 L495.8745724521298,302.6124627579434 L492.91595609916743,301.07258644709134 L491.68276749670844,301.4396929595986 L489.0619826432442,304.4442996173331 L486.62669422662043,304.66480990504704 L484.62353996733,303.85791471816054 L483.79036044096307,303.96755391149316 L482.84526127672507,305.10459857942635 L483.2981212929215,306.8625213758951 L483.21521785746165,310.5767030376703 L482.2286669754937,312.28658169324046 L481.5302055317477,314.7294414727762 L478.0368620200733,317.95455841822485 L475.7756708179146,318.9314559498292 L475.32384709466055,321.5701879961056 L474.78911993594664,323.0854262859839 L472.98078874998623,324.4528364500205 L470.80250098328827,328.1177420698484 L469.8159501013194,328.850723193814 L466.8158820306281,329.82762072541857 L463.60959166423225,329.48515223388506 L456.08817748216774,327.7752735783149 L452.5119305350335,327.48208112872874 L449.789588973132,327.46729831614454 L448.3916297926967,323.45992420478314 L448.0631249296891,320.3814034841276 L448.1864437899346,317.6453512550057 L447.7346200666805,314.1282737610195 L447.1180257654492,311.09779718126276 L447.32321176821216,309.0947260761063 L449.0082240939262,306.7491864794164 L449.8714561156486,306.2613536641385 L453.1596136245609,306.0654813973982 L455.1741671062276,305.6256927230188 L456.5296382759907,304.9419876410005 L457.63950801820414,303.2321089854303 L457.3524548729265,300.7892492058946 L457.59909259341754,298.73690205879086 L458.83228119587744,296.4406385040483 L459.2426532014034,294.9254002141699 L458.21568689464794,293.21552155859973 L457.63950801820414,291.35904667823644 L457.92759745642604,290.52751347037645 L457.7659357572805,285.974407194449 L458.2519571476623,285.974407194449 L462.06033371408245,284.24112241895386 L463.67073294788383,283.79763804142846 L467.326774451648,282.94146681259474 L471.09473559328245,283.0855992352905 L475.67204152358977,283.51922840442637 L477.49488081075725,283.03755509439185 L480.81723598679554,283.0855992352905 L486.4484518403831,282.7961024888503 L490.0537149899277,284.04894585535953 L491.35011746192674,285.25251317992155 L492.1200831187573,286.8416655327208 L493.13254132430575,290.64577597104983 L494.2672820971573,292.91001009852675 L495.1584940283478,294.0174891412915 L497.10257958987233,294.69133901492035 L501.5586392458217,294.8847474795634 L508.68833469533956,294.30575398668304 L509.78266004340446,294.7393831558189 L512.335049562614,298.35131703055356 L512.5775421113337,300.0846018060486 L518.0470962657739,302.5410124971198 L518.9383081969644,303.93798828632487 L524.0016355176535,305.67127306182 L525.7032285304593,307.26042541461936 L527.0400464272441,309.3312510774532 L528.1747872000966,312.36542336035626 L529.3489071047915,313.95457571315546 L530.3624016032842,316.169533798685 L530.848422993665,316.5070746860238 L534.1624878261597,317.3188974771051 z"/>
	<path id="trabzon-duzkoy" title="Düzköy" class="district" d="M123.15834360622125,220.57278051993978 L126.86723605009067,222.2875867797046 L129.45693211525696,224.73044655924033 L131.05904100551203,227.07598615593025 L131.9222730272335,229.8613144269994 L133.5254182104328,232.01098175694895 L137.18353230008265,232.15757798174204 L139.36182006678152,231.37532081582927 L143.38989073717073,231.37532081582927 L144.95262049558247,231.91366157410314 L145.281125358591,233.37962382203426 L143.47279417262962,235.9198037844159 L142.97951873164567,237.38576603234708 L143.34118496883775,239.1449207298644 L145.20443968079,240.00109195869823 L147.74646627056754,239.6155069304608 L150.40766654881742,239.9665987293351 L151.41390699670703,240.67001422813235 L151.32478580358836,241.68879639539205 L153.3061779110715,242.9896839027998 L152.8325920360092,243.83353612114678 L150.31958164864204,243.79781099073506 L149.87604826893434,244.4655013591206 L147.15577929291854,244.99275500795625 L145.23345588320223,246.18769902517744 L144.110114332725,247.31242468262386 L142.18779092300778,247.52431166299706 L141.5380352475938,250.86276350492432 L141.03543317012017,252.09343265255734 L141.41886155912144,254.94035597606063 L142.21784341836147,256.31146184324325 L141.89244743418374,258.06815273866334 L142.39504951165642,259.2630967558846 L142.21784341836147,261.4078364816393 L141.5079827522401,262.6027804988605 L141.9515161319478,264.7967962665626 L139.20223095352162,265.8968839030353 L136.4270384515149,268.0588702434716 L134.7627519846659,269.63447168473544 L133.00519915292412,272.23624669955115 L131.34091268607418,275.75455609458595 L129.82999757482528,277.25747537397757 L127.58020559504189,278.10009569127584 L123.2951342747287,278.0261816283549 L121.07539479030083,278.5029273341947 L119.47224960710341,280.55527448129834 L117.40691777121805,282.5337075654811 L114.35503505336382,284.2201801011263 L113.24516531115036,285.24635367467806 L110.50209789038394,289.13053768117135 L106.89476215495273,291.51180240827296 L100.9143155794926,293.23400007432997 L98.14015937042919,294.4806839355958 L90.43324875152332,300.5268542825254 L88.46118328053075,301.259835406491 L83.15847228995169,302.24905194858235 L79.18221626672535,303.2382684906737 L78.1956653847574,303.86161042130664 L79.13661937722225,301.4347653554038 L79.13661937722225,298.2835624728761 L79.69207239480203,296.08461910097935 L80.89417220896496,294.39937846638276 L81.60299658214302,292.7141378317863 L81.6952266540925,290.1480879473824 L82.03513073947633,288.9395930186257 L84.31601150755577,284.8348987244184 L85.51811132171872,283.4058935079476 L85.9502454790511,281.8660171970956 L87.8611696663921,277.213126936225 L87.55235436930617,274.17156324703 L87.0290264329676,272.52204774284525 L87.15234529321312,271.45891713783294 L89.15549955250452,267.31849771321396 L91.03637124449185,266.0360887215363 L92.02292212645979,264.8633189231914 L93.65611980501183,261.1984133033635 L97.72564219313095,257.4977825531237 L99.20546851608286,254.56585805726144 L99.42101744827694,253.43004529037688 L99.42101744827694,248.92251935325072 L100.0065229612104,247.60315333011275 L100.16093060975382,245.84399863259523 L101.3319416356198,241.73930433838802 L102.78171546321708,239.06484716170013 L103.24390211590408,236.0590086029169 L102.84285674686866,234.19021471206685 L103.05840567906274,232.10214243455138 L103.76723005224173,230.4895839618271 L103.49053983639607,228.07013030221634 L101.85630586490073,225.13943770740264 L101.22934863423829,223.29651373857487 L110.34354507006825,220.33379171649554 L113.17987885572653,219.99132322496195 L121.31788733902056,220.28451567454823 L123.15834360622125,220.57278051993978 z"/>
	<path id="trabzon-hayrat" title="Hayrat" class="district" d="M533.4101391493633,329.6379079639216 L534.1417619672939,327.86889805801474 L536.0744483064441,326.83533307817095 L537.0164385918531,325.6551718735338 L537.0703258249007,324.22247095391714 L535.4827250358518,321.4383745838966 L533.7490069418038,318.8834118089308 L534.1624878261597,317.3188974771051 L534.7272674802273,316.05619890220646 L538.7138864328857,314.8255297545733 L539.7895585079723,314.7873408220644 L542.9139817318534,314.0050836561514 L545.7492792245683,312.58839745016746 L547.0653712624882,311.0251150193905 L546.9824678270282,308.6795754227006 L545.5440932218063,306.38331186795796 L544.5160906221084,305.3571382944062 L542.7077594361471,302.2786175737507 L541.0227471104331,299.0054564874036 L540.2413822312272,295.6337433171618 L539.6662396477268,294.65684578555727 L539.5025053626937,292.0181137392812 L535.6796206950684,289.57525395974545 L534.3645649500919,288.4024841614005 L532.638100906648,285.567879848384 L531.939639462901,282.1481225372437 L531.7334171671957,278.62981314220895 L530.6649991427103,276.04035713788005 L529.7198999784723,274.86758733953513 L525.9788824533626,271.1546375788086 L524.0068169823701,269.49280306413704 L521.1704831967108,267.9787966753073 L520.2657994572594,267.14849536849584 L519.0740625725294,264.02069860589313 L519.1155142902594,262.79865276560093 L520.8419783337023,259.2322992296675 L521.7041740624815,257.9622092484767 L524.500092423354,255.71398983463274 L525.2752395449002,253.46946612393478 L526.3581656705898,252.6022077856628 L526.7125778571788,249.03831805182682 L526.3374398117248,247.849533539849 L526.6286381287757,244.13658377912247 L524.7964722051213,242.24438376834743 L526.636928472322,237.9783104367629 L527.335389916069,235.4368985733327 L528.4048442334968,234.36268085888216 L529.8432188387187,233.77629595970978 L531.4049123041872,234.0202123673487 L534.569750952853,235.29030234853946 L536.6247198593064,237.9783104367629 L537.5294035987587,238.66201551878123 L539.3377347847182,238.9552079683674 L541.1046142529497,238.4661432520408 L543.6528586003869,235.82864310681333 L545.6259603643219,234.9490657580547 L547.5576104105297,234.9490657580547 L548.4208424322512,235.5834947981258 L549.243659029187,237.34264949564317 L549.8602533304165,241.3007475650573 L550.9701230726309,245.35616581731733 L550.7234853521389,249.65550047721632 L550.8468042123844,253.8575149542695 L551.2571762179095,254.6878162610809 L552.9421885436244,254.7370923030282 L554.9971574500768,253.95483513711537 L556.3536649127832,254.54122003628777 L557.3402157947511,258.20612565611566 L558.4096701121789,260.1118765784263 L560.4646390186313,261.77371109309775 L560.998329884401,262.55473635796193 L561.5745087608448,267.539008000928 L562.8895645058212,269.49280306413704 L563.4232553715918,273.2550288668108 L563.0128833660676,275.4539722387076 L563.0128833660676,278.53249295936314 L564.4098062535597,279.7545387996552 L566.8347317407506,281.36586537133087 L568.6575710279162,283.3911106953635 L568.1414971421807,283.9528575735623 L567.2782651204583,286.3957173530981 L567.6482217011967,288.25342413451006 L568.4295865804036,290.2564952396664 L568.3881348626736,292.796675202048 L569.7446423253791,294.8982983910989 L572.5395243933075,298.46465192703226 L573.3613046973009,300.85946756566943 L577.8422353838865,307.3577455974653 L578.9521051261008,310.1430738685344 L579.7738854300934,314.97951738565865 L580.9241705970944,318.49782678069346 L582.1169437747677,320.2077054362636 L584.2537798237357,322.4066488081603 L586.596838168411,324.1658035056777 L587.2548841873704,327.2923683672318 L589.0632153733308,329.5886319219744 L591.8985128660457,331.20119039469864 L593.049834325991,332.17931982735183 L593.8716146299826,333.88919848292215 L596.2965401171725,336.5279305291981 L598.2696418811092,340.0450080231843 L598.9276879000696,343.660637601065 L598.8862361823398,348.6449092440308 L598.3110935988392,349.47521055084246 L593.1731531862365,354.3128859690152 L591.0363171372667,356.16936084937845 L590.1316333978152,358.319028179328 L590.5430416962827,362.2278502067949 L590.2964039757916,364.86658225307104 L588.7751259351098,366.57646090864114 L585.0351447029425,368.04242315657234 L582.9801757964901,369.4591093625563 L581.0474894573399,372.4403099003658 L579.609114852118,375.6161508038673 L577.6774648059111,378.74271566542126 L574.9644498804983,380.69774262967894 L573.1561186945388,381.57731997843763 L570.8555483605377,384.2948936918294 L568.8492852224164,383.63213092763885 L566.9849942175208,383.38328691580494 L564.5227621843733,382.54066659850673 L563.5476105247816,381.60318990045994 L562.6605437653652,379.0630099380784 L562.2864420128536,377.13015719269686 L561.5081860124776,375.4794097874634 L560.6812242437687,374.7994004085912 L557.0946143672024,374.3904092604289 L555.4697070321948,373.7461250119684 L553.4800245811672,372.0830585962482 L552.5732682558283,370.6306472598524 L551.224014843726,369.6007779831546 L549.6871924088947,367.85517419717274 L547.3275533771296,368.04242315657234 L546.2788249185658,366.49761924152557 L546.8684756032724,365.3260813442293 L546.3161314645225,363.2811256034177 L545.0953783773812,363.46837456281736 L542.7564652044811,362.3288660927867 L540.504600638812,362.4027801557077 L536.7542564772117,360.76065605781514 L536.303469046901,356.894950567052 L535.8734074754542,355.6581219141757 L533.5179136154613,352.93438869554046 L532.9738598202578,349.6439809945118 L533.4971877565963,347.2959775957245 L534.6132752564705,345.2103691203065 L535.4713258134755,341.3446636295435 L534.2795889287446,336.6326421183361 L533.5282765448933,331.63235576173713 L533.4101391493633,329.6379079639216 z"/>
	<path id="trabzon-koprubasi" title="Köprübaşı" class="district" d="M457.7659357572805,285.974407194449 L457.92759745642604,290.52751347037645 L457.63950801820414,291.35904667823644 L458.21568689464794,293.21552155859973 L459.2426532014034,294.9254002141699 L458.83228119587744,296.4406385040483 L457.59909259341754,298.73690205879086 L457.3524548729265,300.7892492058946 L457.63950801820414,303.2321089854303 L456.5296382759907,304.9419876410005 L455.1741671062276,305.6256927230188 L453.1596136245609,306.0654813973982 L449.8714561156486,306.2613536641385 L449.0082240939262,306.7491864794164 L447.32321176821216,309.0947260761063 L447.1180257654492,311.09779718126276 L447.7346200666805,314.1282737610195 L448.1864437899346,317.6453512550057 L448.0631249296891,320.3814034841276 L448.3916297926967,323.45992420478314 L449.789588973132,327.46729831614454 L450.529502134608,330.0567543204734 L451.5160530165759,331.9132292008366 L452.17306274259295,337.23873743428743 L450.93987414013395,338.90057194895905 L449.3781806746646,339.4869568481315 L448.0216732119582,341.00096323696124 L447.4879823461876,345.44812602270207 L446.95325518747376,347.35264504396383 L445.0620205660535,351.84785197060324 L444.28169197979184,354.1453474263945 L443.2951410978239,355.0729689160519 L439.80179758614764,356.782847571622 L437.99243010724484,357.2226362460013 L435.03381375428245,358.7871505778271 L433.3488014285685,361.18073431541546 L432.6088882670935,364.5524474856572 L432.6907554096091,367.8256085720043 L433.0607119903466,369.14497459514246 L435.362318617291,374.2265664209542 L436.1022317787679,378.1846644903684 L435.7322751980294,380.9207167194903 L436.5955072197518,384.48707025542376 L436.6369589374818,387.1750783436472 L435.320866899562,389.4713418983898 L433.3073497108395,390.008450755615 L432.48556940684705,391.67028527028657 L432.56743654936264,393.77067655828864 L431.99229396586213,397.2889859533236 L431.33424794690274,398.6083519764617 L430.79952078818883,400.85533948925695 L430.5394112594349,404.36625747799974 L427.99116691199856,401.53288506603195 L422.03144619540245,398.11189585384295 L419.23656412747505,397.1842743641856 L413.440577695912,395.9141843829949 L407.9741324203008,395.2785234418751 L405.9606152315774,394.6428625007554 L404.52224062635446,393.7632851519967 L403.7408757471495,390.88063669808145 L403.9875134676415,386.77717430492305 L403.53568974438656,384.9687435654584 L401.56258798045064,379.9844719224923 L400.90454196149125,376.71131083614506 L399.71280507676033,374.2191750146622 L398.561483616816,372.75321276673094 L397.16456072932397,371.82559127707367 L395.6432826886421,371.6789950522805 L390.21828913076087,372.3134240923516 L386.46379979738833,373.2595240977392 L387.803726573002,371.5508773432176 L389.2617907441466,370.68485090599455 L391.7043332113716,366.6417516642214 L392.69088409334046,362.3793740357828 L392.5706741119239,360.4625360040341 L393.8214796944189,359.31933183085744 L394.9292768507476,357.54539432075586 L396.0598724518251,357.4887268725165 L397.4557590463757,356.60175811746586 L398.41743889770555,355.3144215215934 L400.5117869360013,353.68338453313896 L403.422733813573,349.9655071682177 L403.87973900154446,347.84786926553386 L405.44454134584186,346.10349738060063 L406.31088224639416,344.2728924222597 L405.8051712900916,342.2698213171034 L404.9149956518445,341.3261851138132 L405.49221082123154,338.72317819794876 L404.2165342080975,336.92090696372753 L404.2652399764314,336.32097115301957 L404.9149956518445,335.20486880291406 L405.13158087698184,333.2030295988064 L407.2974331283621,331.257857842938 L407.77827305402656,328.8839845221285 L408.50056923546833,327.110047012027 L408.11506826058144,324.13500597946063 L408.50056923546833,322.1615004994726 L407.3938083720838,320.70292965783347 L407.2974331283621,319.5005942343202 L406.28601121575605,317.7845560735068 L406.7627059696482,315.49568392505614 L408.46429898245395,313.1353615157821 L410.8954422273046,312.2693350785589 L412.63745066489787,309.9570568101835 L413.44679545357087,307.59796630195814 L413.9328168439527,303.7938558636291 L414.9463113424444,300.9038160034219 L417.70077798558617,296.08831480412545 L419.32154014882053,294.30575398668304 L422.60244360713074,285.73418648995596 L424.2232057703632,283.3258199397834 L426.89684156393264,281.93007605162705 L427.99013061905526,281.8327558687812 L430.6233509878381,283.1336433761891 L433.70321361515846,283.9528575735623 L436.09290514227825,283.8555373907165 L437.63180016299606,283.22973165798624 L439.9821125582725,282.89342267169616 L444.6402493381531,284.000901714461 L449.7046129517856,284.14503413715664 L453.1886298269722,285.2044690390229 L457.7659357572805,285.974407194449 z"/>
	<path id="trabzon-macka" title="Maçka" class="district" d="M284.70812311438897,342.30308264541776 L280.7619195865163,344.0720925513246 L277.4737620776049,347.9809145787915 L274.59701286716,352.32952528063777 L274.02187028365853,354.47919261058735 L272.08918394450836,358.6331629467418 L270.65080933928635,360.78283027669124 L267.95230251507974,365.53796832460256 L264.49937442819106,369.5120811076496 L261.0464463413023,374.1378695454491 L258.74483971435797,377.4603066737436 L254.853559712478,380.067009292754 L252.88045794854213,381.6955824791112 L247.72904572767663,387.10239618177485 L243.83880201873905,389.38264502288473 L239.6729043868982,390.4901240656495 L235.72773715196976,391.8587661307348 L230.9597533201046,392.0534064964266 L221.87560937962832,395.3105528691407 L218.8755413089379,395.65302136067436 L215.1355600767706,395.8488936274146 L208.39447448096954,395.26250872824227 L206.99651530053325,394.67612382906987 L203.9549955121129,392.8676930896051 L199.80360598147908,391.4510068836212 L197.25536163404178,390.9619421672946 L193.597247544391,389.93700049479145 L188.54221056724722,388.9588710621381 L185.58255792134344,389.05742314603276 L183.11618071642266,390.1809169024304 L180.36275036622328,390.3275131272235 L176.2517762603761,390.0835967195845 L172.18329016520119,390.62070557680977 L170.70346384224743,391.1085383920876 L166.47020716909708,391.4510068836212 L161.3322667564944,391.6949232912601 L160.18094529655008,391.4510068836212 L156.68760178487568,389.5945320032579 L153.64608199645443,388.4217622049129 L151.34447536951095,388.32444202206716 L149.20660302759777,387.8846533476878 L147.97341442513786,387.2982684485153 L143.74015775198657,383.09625397146226 L142.54842086725563,382.46059303034247 L139.7535387993282,381.9715283140158 L139.01362563785133,381.4344194567907 L136.5472484329315,378.69836722766877 L134.82078438948759,375.81571877375364 L134.45082780874915,374.44707670866825 L132.97100148579725,371.17391562232103 L130.38130542063095,368.4378633931991 L128.36778823190753,366.8253049204748 L123.8878938382652,364.6756375905253 L119.81837145014606,363.2589513845415 L114.43379331705141,360.6202193382654 L110.44717436439211,358.8610646407479 L106.58387427197927,358.12808351678234 L102.39103302361463,357.05263390128323 L97.7878197697249,354.90296657133376 L92.8965170776142,352.26423452505765 L92.40427792957354,352.1570591338224 L87.51193894451954,351.0434205858141 L85.2921994600917,350.0665230542095 L82.94914111541738,347.6224313736252 L82.00404195117844,345.91255271805505 L77.85265242054369,341.0761092009308 L74.81113263212335,338.5346973375005 L71.23488568498911,336.82481868193037 L67.86486103356023,335.6520488835855 L66.17984870784534,333.990214368914 L64.0015609411474,329.8374759338081 L63.1093127170146,327.016422532327 L64.32281175355193,325.88553736963735 L67.96123627728105,323.8331902225337 L69.65661153242888,322.44114203752343 L74.18832057323316,317.2375920078921 L75.54379174299623,316.10177924100753 L76.59252020155904,314.12211425577607 L76.59252020155904,312.4738306526401 L75.60596931959111,310.86127217991583 L75.45156167104768,309.76118454344305 L75.97592590032954,306.97708817342254 L76.74692785010248,305.4372118625705 L78.1956653847574,303.86161042130664 L79.18221626672535,303.2382684906737 L83.15847228995169,302.24905194858235 L88.46118328053075,301.259835406491 L90.43324875152332,300.5268542825254 L98.14015937042919,294.4806839355958 L100.9143155794926,293.23400007432997 L106.89476215495273,291.51180240827296 L110.50209789038394,289.13053768117135 L113.24516531115036,285.24635367467806 L114.35503505336382,284.2201801011263 L117.40691777121805,282.5337075654811 L119.47224960710341,280.55527448129834 L121.07539479030083,278.5029273341947 L123.2951342747287,278.0261816283549 L127.58020559504189,278.10009569127584 L129.82999757482528,277.25747537397757 L131.34091268607418,275.75455609458595 L133.00519915292412,272.23624669955115 L134.7627519846659,269.63447168473544 L136.4270384515149,268.0588702434716 L139.20223095352162,265.8968839030353 L141.9515161319478,264.7967962665626 L142.81474815367022,269.3893233760478 L142.56811043317825,272.02805542232386 L142.7328810111546,274.8614278342917 L143.3080235946542,277.402839697722 L144.49976047938418,279.3566347609311 L145.48631136135214,280.3347641935843 L148.24077800449479,281.8487705824141 L149.84288689474985,282.43515548158655 L154.94041188256685,282.58175170637963 L157.2005667917804,282.43515548158655 L161.92709890591564,282.48443152353383 L168.6681845017176,280.9691932336554 L170.6827379833834,280.13889192684394 L175.94296096328924,280.1881679687912 L177.6290095819465,279.79642343531043 L179.02593246944042,278.6729296789127 L180.7938482306133,272.1253756051699 L182.10890397558975,269.2427271512547 L183.46541143829708,265.1873088989946 L184.41051060253508,264.5528798589236 L188.80853785366182,264.6502000417695 L190.65832075735122,264.94339249135567 L193.08324624454207,265.9202900229602 L194.97344457301998,266.0176102058062 L199.00151524340825,264.11309118454426 L200.81088272231105,263.5747504262703 L206.27732799792318,261.47435913826814 L207.46906488265319,260.74137801430254 L209.03075834812162,260.6440578314567 L211.0857272545731,257.0271963525274 L215.85371108643827,251.89756038581692 L216.26511938490663,251.11530321990412 L216.1418005246611,249.1122321147477 L216.88171368613612,248.23265476598905 L219.42995803357343,247.3050332763317 L220.04655233480386,246.27885970277993 L223.45802870396264,243.54157557260928 L227.15552192545582,239.79166878042224 L229.08924455754837,239.0463686459699 L232.37740206646163,239.09564468791714 L236.98061532035135,238.46121564784613 L239.73404567055073,237.72823452388056 L242.81701717670006,236.60350886643414 L246.47513126635175,236.11567605115619 L251.57161996122454,236.40886850074241 L253.7913594456533,237.2391698075539 L255.47637177136727,238.36266356395154 L256.2991883683031,240.80552334348732 L255.64114234934272,243.44425538976344 L255.64114234934272,246.08298743603947 L256.5862415135807,249.405424564334 L259.50444244175554,254.73093279778476 L260.90240162219186,258.44511445955993 L262.5874139479067,263.42815420147724 L263.2858753916528,264.6994760837167 L265.54706659381054,269.9276641343217 L265.7108008788427,272.41856805475595 L267.60203550026296,277.2562434729289 L267.84867322075587,279.9430196601036 L266.5740329005651,285.26975979460303 L266.5740329005651,286.7837661834328 L267.60203550026296,291.13237688527903 L269.9036421272083,296.70303342741744 L273.4384373566126,300.4652592300913 L276.31622286000083,302.5176063771949 L279.1090323420426,303.9650901093958 L279.1090323420426,304.99126368294765 L280.0551677992248,307.58071968727666 L282.43864156868483,310.2194517335526 L282.97336872739874,311.1963492651572 L283.26042187267825,315.20249147546997 L282.8904652919398,317.45071088931405 L284.20655732985864,319.3071857696773 L285.4801613571061,320.3333593432292 L286.0967556583365,321.6034493244199 L286.5900310993205,324.04630910395565 L286.0967556583365,327.22215000745695 L286.8366688198125,330.88705562728484 L286.8366688198125,331.8639531588894 L285.56202849962267,337.28801347623477 L285.31539077912976,340.07334174730397 L284.70812311438897,342.30308264541776 z"/>
	<path id="trabzon-of" title="Of" class="district" d="M534.1624878261597,317.3188974771051 L530.848422993665,316.5070746860238 L530.3624016032842,316.169533798685 L529.3489071047915,313.95457571315546 L528.1747872000966,312.36542336035626 L527.0400464272441,309.3312510774532 L525.7032285304593,307.26042541461936 L524.0016355176535,305.67127306182 L518.9383081969644,303.93798828632487 L518.0470962657739,302.5410124971198 L512.5775421113337,300.0846018060486 L512.335049562614,298.35131703055356 L509.78266004340446,294.7393831558189 L508.68833469533956,294.30575398668304 L501.5586392458217,294.8847474795634 L497.10257958987233,294.69133901492035 L495.1584940283478,294.0174891412915 L494.2672820971573,292.91001009852675 L493.13254132430575,290.64577597104983 L492.1200831187573,286.8416655327208 L491.35011746192674,285.25251317992155 L490.0537149899277,284.04894585535953 L486.4484518403831,282.7961024888503 L480.81723598679554,283.0855992352905 L477.49488081075725,283.03755509439185 L475.67204152358977,283.51922840442637 L471.09473559328245,283.0855992352905 L467.326774451648,282.94146681259474 L463.67073294788383,283.79763804142846 L464.9080667221169,276.79920818386796 L465.3184387276411,272.59719370681483 L465.8946176040849,271.0339112760379 L465.9764847466005,268.15126282212276 L465.40134216310094,266.34283208265805 L464.9899338646326,263.6067798535361 L465.0728373000924,261.4571125235866 L466.5112119053144,256.5221169225678 L468.8946856747753,251.05001246432388 L469.9631036992607,249.09498550006614 L471.44293002221264,247.72634343498083 L473.785988366886,243.32968859223595 L475.06062868707676,241.86372634430478 L475.92386070879917,240.30044391352783 L477.4441024565377,235.70668490299386 L477.3207835962912,232.33620363380095 L476.9674077026446,230.73473227051477 L481.1716481733855,229.23920439741516 L482.95718091459435,227.92476597847187 L484.530273602439,227.39381662649015 L485.62149007167415,226.35039643825678 L489.6993028033387,223.6845625689096 L491.54908570702906,222.89614589775334 L494.43827043279344,220.01842504803298 L499.76999762578293,216.7070750291767 L502.88613050611764,215.39633231337942 L508.1919503755247,211.7856303396934 L515.5579206161026,205.9513469731371 L520.8160710101218,200.6406215522705 L521.5590930504277,199.65017310913055 L521.6565045870926,200.1109041013374 L525.959192887441,204.30799097419577 L530.4898656353029,209.5448023321415 L532.2463821741004,210.34676991483326 L536.1842953584277,210.6781512969287 L539.6310056876575,209.83060337543566 L543.4103660516672,210.18908658060204 L548.6395002432752,211.95563268441154 L550.3514561855148,213.40311641661253 L553.0862332627349,219.90509015155425 L553.7878035853108,222.46744433281208 L553.9981710527893,224.6602281994655 L555.7567601774745,226.95033224896463 L556.909117930361,229.02115791179853 L557.5609461916616,232.24750675829577 L557.5702728281503,235.4689280005984 L558.8801471084113,240.28442919989493 L560.7858898310359,243.77440487081014 L563.6108243943188,246.08791504023418 L568.101081717395,249.3179595898775 L572.826577538587,254.01027068430602 L577.8194369391349,259.39983777228827 L579.6484939839603,261.5642879148219 L582.8848368457117,265.9178262208629 L584.1283883776046,268.5824281891613 L584.1449690646954,270.91564877536433 L583.4237091761978,272.19928966809067 L581.999842672181,273.71206415587176 L581.6858459103777,275.2691870814053 L580.2567979416453,275.89868851728176 L575.8276819022207,277.3572593589207 L571.3063357908485,280.1906317708886 L570.6078743471015,281.36340156923353 L568.6575710279162,283.3911106953635 L566.8347317407506,281.36586537133087 L564.4098062535597,279.7545387996552 L563.0128833660676,278.53249295936314 L563.0128833660676,275.4539722387076 L563.4232553715918,273.2550288668108 L562.8895645058212,269.49280306413704 L561.5745087608448,267.539008000928 L560.998329884401,262.55473635796193 L560.4646390186313,261.77371109309775 L558.4096701121789,260.1118765784263 L557.3402157947511,258.20612565611566 L556.3536649127832,254.54122003628777 L554.9971574500768,253.95483513711537 L552.9421885436244,254.7370923030282 L551.2571762179095,254.6878162610809 L550.8468042123844,253.8575149542695 L550.7234853521389,249.65550047721632 L550.9701230726309,245.35616581731733 L549.8602533304165,241.3007475650573 L549.243659029187,237.34264949564317 L548.4208424322512,235.5834947981258 L547.5576104105297,234.9490657580547 L545.6259603643219,234.9490657580547 L543.6528586003869,235.82864310681333 L541.1046142529497,238.4661432520408 L539.3377347847182,238.9552079683674 L537.5294035987587,238.66201551878123 L536.6247198593064,237.9783104367629 L534.569750952853,235.29030234853946 L531.4049123041872,234.0202123673487 L529.8432188387187,233.77629595970978 L528.4048442334968,234.36268085888216 L527.335389916069,235.4368985733327 L526.636928472322,237.9783104367629 L524.7964722051213,242.24438376834743 L526.6286381287757,244.13658377912247 L526.3374398117248,247.849533539849 L526.7125778571788,249.03831805182682 L526.3581656705898,252.6022077856628 L525.2752395449002,253.46946612393478 L524.500092423354,255.71398983463274 L521.7041740624815,257.9622092484767 L520.8419783337023,259.2322992296675 L519.1155142902594,262.79865276560093 L519.0740625725294,264.02069860589313 L520.2657994572594,267.14849536849584 L521.1704831967108,267.9787966753073 L524.0068169823701,269.49280306413704 L525.9788824533626,271.1546375788086 L529.7198999784723,274.86758733953513 L530.6649991427103,276.04035713788005 L531.7334171671957,278.62981314220895 L531.939639462901,282.1481225372437 L532.638100906648,285.567879848384 L534.3645649500919,288.4024841614005 L535.6796206950684,289.57525395974545 L539.5025053626937,292.0181137392812 L539.6662396477268,294.65684578555727 L540.2413822312272,295.6337433171618 L541.0227471104331,299.0054564874036 L542.7077594361471,302.2786175737507 L544.5160906221084,305.3571382944062 L545.5440932218063,306.38331186795796 L546.9824678270282,308.6795754227006 L547.0653712624882,311.0251150193905 L545.7492792245683,312.58839745016746 L542.9139817318534,314.0050836561514 L539.7895585079723,314.7873408220644 L538.7138864328857,314.8255297545733 L534.7272674802273,316.05619890220646 L534.1624878261597,317.3188974771051 z"/>
	<path id="trabzon-ortahisar" title="Ortahisar" class="district" d="M220.79890101159842,190.20272396679087 L222.85283362510847,191.5467280109025 L224.0404253380653,193.02254546722315 L225.84564764519584,194.3185053704363 L227.3638168070487,194.9627896188968 L230.43849796965262,195.503594179268 L232.0095180716107,195.33975133979334 L232.11003848710467,194.4995948245924 L236.52671901120976,194.0721251606999 L240.5848421769536,192.98066083156792 L246.294816294226,191.0280976694076 L254.11675542983102,187.6268188739975 L255.52404124675695,187.55536861317395 L257.2339246031081,186.75956053572565 L259.5324223512236,186.5969495972996 L260.67648976056483,186.95173709931998 L262.612284978544,188.23660989309494 L264.1636155145804,187.85841627114965 L266.8351787222632,189.1112596376589 L266.2102940774874,190.82113829322898 L269.8663355812516,192.03456082618044 L270.7005514005617,192.82051369523938 L271.54513014930575,192.27970913486809 L274.7306946568375,191.7487597828864 L279.9401392825238,192.0431841335212 L283.50291442139616,191.31882631689643 L285.5827543584867,191.83252905419667 L287.88746986426094,193.7875560184544 L289.55590150288407,194.7496707374748 L291.2150065050166,194.7989467794221 L293.74667016536216,195.9273681400145 L296.6451815276144,197.6532615092175 L298.2845969638271,199.00588886066993 L300.3385295773353,199.6822025363962 L301.1582372954421,198.9307428967004 L305.90031380372494,200.13677402335966 L307.79672988986164,203.146308285289 L309.4620526496549,208.4545699040583 L307.2236598922477,210.0055333243485 L304.7572826873279,210.73851444831408 L303.277456364376,211.71541197991866 L303.15413750412955,212.98550196110938 L301.92094890166965,213.47456667743603 L300.2359365759547,213.1813742278498 L298.87942911324836,214.30486798424752 L297.39960279029646,214.64733647578095 L296.9892307847723,215.86815041502445 L295.38608560157394,217.33411266295568 L294.6047207223681,219.09326736047308 L292.26269867063706,222.0251918563354 L291.1932443532093,223.8816667366987 L290.53623462719315,226.3245265162344 L290.53623462719315,230.7704574009265 L289.2201425892725,233.36114530630402 L289.1382754467569,235.31494036951312 L289.96005575074935,237.41656355856406 L292.3860175308826,242.2530070756883 L293.86480756089213,245.62472024592992 L295.837909324828,247.87293965977392 L296.78300848906696,248.21417625025884 L300.77066373466863,248.8005611494313 L301.7976300414232,249.6308624562427 L302.7023137808755,251.39001715376006 L302.7437654986054,252.61206299405228 L301.67431118117764,256.57016106346646 L301.7976300414232,259.9899183746067 L302.57899492062995,264.04533662686674 L304.1821401038274,268.19807506197265 L302.7841809233911,269.7625893937984 L300.9758497374307,270.4462944758166 L298.1809676695032,270.8368071082487 L296.49595534378835,271.4231920074212 L292.83784125413666,271.8137046398533 L291.6046526516767,272.69328198861206 L290.86473949020075,274.5990329109225 L290.28959690670024,277.92147003921696 L288.3164951427644,280.9026705770266 L287.0014393977879,282.1727605582174 L286.3433933788276,283.4428505394081 L286.0967556583365,286.3254989933232 L285.1920719188842,287.4009486088224 L282.1920038481928,288.42712218237415 L281.4520906867169,289.1601033063397 L281.08213410597847,290.77266177906404 L281.12358582370837,293.36211778339293 L281.9453661277009,296.83115113648046 L281.9453661277009,298.73690205879086 L280.17848665947037,301.0331656135335 L279.1090323420426,303.9650901093958 L276.31622286000083,302.5176063771949 L273.4384373566126,300.4652592300913 L269.9036421272083,296.70303342741744 L267.60203550026296,291.13237688527903 L266.5740329005651,286.7837661834328 L266.5740329005651,285.26975979460303 L267.84867322075587,279.9430196601036 L267.60203550026296,277.2562434729289 L265.7108008788427,272.41856805475595 L265.54706659381054,269.9276641343217 L263.2858753916528,264.6994760837167 L262.5874139479067,263.42815420147724 L260.90240162219186,258.44511445955993 L259.50444244175554,254.73093279778476 L256.5862415135807,249.405424564334 L255.64114234934272,246.08298743603947 L255.64114234934272,243.44425538976344 L256.2991883683031,240.80552334348732 L255.47637177136727,238.36266356395154 L253.7913594456533,237.2391698075539 L251.57161996122454,236.40886850074241 L246.47513126635175,236.11567605115619 L242.81701717670006,236.60350886643414 L239.73404567055073,237.72823452388056 L236.98061532035135,238.46121564784613 L232.37740206646163,239.09564468791714 L229.08924455754837,239.0463686459699 L227.15552192545582,239.79166878042224 L226.44566125933449,236.54807331924349 L222.7875471696837,232.83512355851693 L221.51394314243623,231.17328904384544 L219.99266510175443,228.2413645479831 L217.39364240010033,226.25061245331352 L214.09512196175413,226.287569484774 L210.82665401876253,225.3340780730943 L210.9199203836553,224.05166908141678 L213.20080115173474,221.23061567993568 L214.43398975419467,218.6288406651201 L214.18735203370267,213.57188686028195 L214.7728575466352,211.37294348838515 L214.18735203370267,206.5722251016727 L211.87538247732627,202.98123354476567 L214.00185559686227,200.81801530328065 L214.1562632454057,199.93966985557068 L216.7459593105729,198.7299430257653 L217.42369489545308,197.99696190179972 L219.73566445183135,193.5633500275944 L220.79890101159842,190.20272396679087 z"/>
	<path id="trabzon-surmene" title="Sürmene" class="district" d="M463.67073294788383,283.79763804142846 L462.06033371408245,284.24112241895386 L458.2519571476623,285.974407194449 L457.7659357572805,285.974407194449 L453.1886298269722,285.2044690390229 L449.7046129517856,284.14503413715664 L444.6402493381531,284.000901714461 L439.9821125582725,282.89342267169616 L437.63180016299606,283.22973165798624 L436.09290514227825,283.8555373907165 L433.70321361515846,283.9528575735623 L430.6233509878381,283.1336433761891 L427.99013061905526,281.8327558687812 L426.89684156393264,281.93007605162705 L424.2232057703632,283.3258199397834 L422.60244360713074,285.73418648995596 L419.32154014882053,294.30575398668304 L417.70077798558617,296.08831480412545 L414.9463113424444,300.9038160034219 L413.9328168439527,303.7938558636291 L413.44679545357087,307.59796630195814 L412.63745066489787,309.9570568101835 L410.8954422273046,312.2693350785589 L408.46429898245395,313.1353615157821 L406.7627059696482,315.49568392505614 L406.28601121575605,317.7845560735068 L407.2974331283621,319.5005942343202 L407.3938083720838,320.70292965783347 L408.50056923546833,322.1615004994726 L408.11506826058144,324.13500597946063 L408.50056923546833,327.110047012027 L407.77827305402656,328.8839845221285 L407.2974331283621,331.257857842938 L405.13158087698184,333.2030295988064 L404.9149956518445,335.20486880291406 L404.2652399764314,336.32097115301957 L398.72210902302015,336.2643037047802 L397.8184615765102,335.7271948475551 L396.5034058315347,330.30313453020983 L398.47547130252724,325.61328723787864 L397.7770098587803,323.4623880068805 L397.0785484150342,318.77254071454945 L397.1200001327641,313.88558925442925 L396.62672469178017,312.9086917228247 L393.58416861041655,310.61242816808203 L393.42043432538344,309.04914573730514 L394.28366634710585,306.99679859020154 L394.6121712101144,305.18836785073677 L396.05883615888274,303.6053750031808 L393.8048990073271,300.5712027202779 L392.8100577818137,297.9768191117543 L392.76238830642404,294.65684578555727 L393.37898260765354,293.85364630181687 L398.51692302025714,290.92172180595446 L399.38015504197955,289.21184315038437 L398.84542788326564,287.1594960032807 L398.59879016277273,281.05173060391706 L401.0247519429069,276.94703630970974 L402.70976426862086,273.03821428224285 L405.2580086160582,270.6446305446544 L408.176209544233,266.78385265808606 L408.5047144072415,265.36716645210225 L408.2176612619629,263.16822308020545 L407.18965866226506,260.8719595254628 L407.682934103249,259.7484657690652 L407.76480124576466,257.50024635522107 L406.03833720231984,254.61759790130606 L405.33987575857475,251.53907718065057 L404.23000601636033,249.48796193459566 L403.57299629034327,247.28901856269886 L403.90150115335183,244.79688274121585 L404.9429755613115,239.99986005764947 L408.39590364820117,234.98479088846642 L409.67365284721996,232.62816418233848 L412.05194515196536,229.8748653385349 L415.1349166581156,232.13663566391446 L420.9537015344293,235.15848893633057 L425.7102861439182,235.3210998747566 L428.3891034022041,235.83357071100812 L431.9819310364301,237.19112566665524 L437.11779886314713,237.64323335152145 L444.5418015085448,237.84280132140788 L446.2682655519896,237.26011212538145 L451.25594348782295,236.46553594898182 L453.8684379977408,237.08395027541997 L458.14625526745095,236.78213451849302 L461.7204296286995,236.22038764029418 L466.29151780134714,233.55085806780102 L468.5682533976543,232.59983045821878 L472.7362236153808,231.81387758915986 L476.9674077026446,230.73473227051477 L477.3207835962912,232.33620363380095 L477.4441024565377,235.70668490299386 L475.92386070879917,240.30044391352783 L475.06062868707676,241.86372634430478 L473.785988366886,243.32968859223595 L471.44293002221264,247.72634343498083 L469.9631036992607,249.09498550006614 L468.8946856747753,251.05001246432388 L466.5112119053144,256.5221169225678 L465.0728373000924,261.4571125235866 L464.9899338646326,263.6067798535361 L465.40134216310094,266.34283208265805 L465.9764847466005,268.15126282212276 L465.8946176040849,271.0339112760379 L465.3184387276411,272.59719370681483 L464.9080667221169,276.79920818386796 L463.67073294788383,283.79763804142846 z"/>
	<path id="trabzon-tonya" title="Tonya" class="district" d="M101.22934863423829,223.29651373857487 L101.85630586490073,225.13943770740264 L103.49053983639607,228.07013030221634 L103.76723005224173,230.4895839618271 L103.05840567906274,232.10214243455138 L102.84285674686866,234.19021471206685 L103.24390211590408,236.0590086029169 L102.78171546321708,239.06484716170013 L101.3319416356198,241.73930433838802 L100.16093060975382,245.84399863259523 L100.0065229612104,247.60315333011275 L99.42101744827694,248.92251935325072 L99.42101744827694,253.43004529037688 L99.20546851608286,254.56585805726144 L97.72564219313095,257.4977825531237 L93.65611980501183,261.1984133033635 L92.02292212645979,264.8633189231914 L91.03637124449185,266.0360887215363 L89.15549955250452,267.31849771321396 L87.15234529321312,271.45891713783294 L87.0290264329676,272.52204774284525 L87.55235436930617,274.17156324703 L87.8611696663921,277.213126936225 L85.9502454790511,281.8660171970956 L85.51811132171872,283.4058935079476 L84.31601150755577,284.8348987244184 L82.03513073947633,288.9395930186257 L81.6952266540925,290.1480879473824 L81.60299658214302,292.7141378317863 L80.89417220896496,294.39937846638276 L79.69207239480203,296.08461910097935 L79.13661937722225,298.2835624728761 L79.13661937722225,301.4347653554038 L78.1956653847574,303.86161042130664 L76.74692785010248,305.4372118625705 L75.97592590032954,306.97708817342254 L75.45156167104768,309.76118454344305 L75.60596931959111,310.86127217991583 L76.59252020155904,312.4738306526401 L76.59252020155904,314.12211425577607 L75.54379174299623,316.10177924100753 L74.18832057323316,317.2375920078921 L69.65661153242888,322.44114203752343 L67.96123627728105,323.8331902225337 L64.32281175355193,325.88553736963735 L63.1093127170146,327.016422532327 L62.438831182735655,326.0752501311343 L59.397311394314386,323.3391979020124 L57.712299068600416,322.1171520617201 L55.24592186367964,318.3068821181477 L52.657262091456644,315.5215538470787 L49.65615772782199,313.5184827419222 L48.25923484032992,312.0032444520437 L47.20636120999393,308.9259556324369 L48.55354203621066,306.7713606982927 L49.478951634527014,303.3626904965906 L50.58882137674233,302.08028150491293 L50.89660038088497,300.10184842073016 L50.138033946430646,298.17392327954343 L50.33596589859058,295.79881805768514 L51.81579222154248,291.8123862641513 L51.86449798987546,288.7634311686643 L52.111135710366526,287.73725759511245 L53.76402295484023,285.2746873987978 L53.61583306395748,283.28147150203085 L52.555705383018434,281.66891302930657 L52.111135710366526,279.8222933573328 L52.8510488718434,277.9448761591419 L55.120530417546604,275.3948409883709 L55.78583048710907,273.8118481408149 L55.48945070534174,271.55500541963016 L55.588934827893354,269.67758822143935 L56.03246820760198,268.9741727226421 L56.03246820760198,266.9218255755385 L55.14436515524237,262.84792880754827 L53.960918614056865,261.2058047096555 L53.27074751385625,259.30005378734506 L52.432386522772916,254.31578214437909 L51.8396269592364,252.55785934791032 L50.40954269756077,251.03276584964243 L48.85613957563868,250.27021910050846 L47.89445972430795,248.511064402991 L48.1162264141618,246.07805983184483 L47.91933075494516,244.14397518541463 L46.36489134007977,241.47567751397014 L46.01980578997947,238.42672241848305 L46.833295750426544,236.22777904658628 L47.05609873322368,234.41072499978077 L46.98148564130927,231.801558578673 L46.11825361958779,230.2468994552368 L44.46640266805645,228.63557288356122 L43.06015314407566,227.87302613442722 L42.986576345104545,225.70364838769882 L44.861230279433954,221.77511594345305 L44.95967810904042,220.66147739544476 L44.34308380781092,218.4908677476678 L44.515108436389426,215.17828582776275 L45.09128731283416,213.13333008695116 L53.08835995584573,216.2290974222882 L55.38996658279106,216.96207854625376 L57.57654469303536,218.7458712647449 L59.95172811894993,220.96822075656655 L61.06159786116339,221.01749679851378 L63.239885627862265,219.99132322496195 L65.45962511229013,218.1348483445988 L68.91255319917883,216.0825011974951 L72.52921557110061,213.19985274358004 L74.13236075429805,212.41759557766719 L78.48893628769486,211.9297627623892 L80.33871919138612,211.97780690328784 L82.72322925379035,212.9066602939938 L86.50466220368573,214.86045535720285 L88.88813597314758,217.1086747710469 L89.42286313186148,221.94511828817116 L89.91613857284544,223.06984394561744 L91.23119431782096,223.80282506958304 L93.24471150654439,224.09601751916927 L96.49245359067011,224.19333770201519 L101.22934863423829,223.29651373857487 z"/>
	<path id="trabzon-vakfikebir" title="Vakfıkebir" class="district" d="M121.98111482269553,209.5768317594072 L123.41223537731537,212.84876094470576 L123.84333324170541,214.53400157930224 L123.15834360622125,220.57278051993978 L121.31788733902056,220.28451567454823 L113.17987885572653,219.99132322496195 L110.34354507006825,220.33379171649554 L101.22934863423829,223.29651373857487 L96.49245359067011,224.19333770201519 L93.24471150654439,224.09601751916927 L91.23119431782096,223.80282506958304 L89.91613857284544,223.06984394561744 L89.42286313186148,221.94511828817116 L88.88813597314758,217.1086747710469 L86.50466220368573,214.86045535720285 L82.72322925379035,212.9066602939938 L80.33871919138612,211.97780690328784 L78.48893628769486,211.9297627623892 L74.13236075429805,212.41759557766719 L72.52921557110061,213.19985274358004 L68.91255319917883,216.0825011974951 L65.45962511229013,218.1348483445988 L63.239885627862265,219.99132322496195 L61.06159786116339,221.01749679851378 L59.95172811894993,220.96822075656655 L57.57654469303536,218.7458712647449 L57.83250905001606,214.90603569600424 L57.391048256194026,212.96332774223316 L57.578617278921016,211.4850464838151 L57.03352719077512,209.01385298015978 L55.89153236732045,208.00123031814343 L57.45944359044866,202.89869617450398 L55.6708019704099,200.9535244186357 L54.13708841440855,196.76136514997194 L54.00133403884348,192.85377502355374 L53.57541763916994,192.4016673386876 L53.04690823811674,189.93663334027562 L53.60961530629773,188.4386416650787 L52.838613356523865,187.0921738188697 L52.560886847734906,185.22337992801954 L50.71110394404457,182.65733004361562 L48.954587405247,178.73618900566203 L48.43022317596513,176.83166998440012 L50.34114736330613,172.32414404727388 L49.94113828721493,171.5911629233083 L51.42096461016591,169.28258035807895 L50.58778508379904,167.56038269202196 L51.95983694065298,164.14801678717373 L54.06558420132495,165.0436088495653 L61.149682761339704,166.76334271352488 L65.46687916289318,167.11443451239916 L78.93350596034676,163.98910155189378 L84.23828953681148,161.09659788958928 L89.49747622377495,159.26599293124838 L96.78054302889294,156.33899603958073 L97.93393707472383,159.59121480810032 L98.92359683551979,160.8711599976806 L101.75371286351924,163.1415536304009 L102.32056510347338,165.18404556911503 L101.45733308175191,167.82277761539106 L101.98066101809049,169.76425366811344 L102.75166296786341,170.60810588646038 L105.3413590330297,172.2206643591847 L109.7186604252924,174.0894582500348 L110.82853016750586,174.30873663670013 L115.97683350954148,176.43376594567593 L119.42872530348598,177.60653574402085 L120.75414397789538,178.5969841871609 L122.04951015695016,180.50150320842278 L122.2039178054936,183.28683147949204 L120.4463649737518,188.4546563787116 L118.87430857885042,191.1291135553995 L115.76024828440319,194.02408101980137 L114.25036946609667,195.89287491065141 L112.36949777410935,198.89871346943468 L109.8730680738349,200.5839541040312 L109.44093391650159,202.19651257675542 L109.8730680738349,203.11181505592594 L112.98609207533977,205.750547102202 L114.99028262757355,208.60978943619216 L116.6234803061256,210.1484338459955 L118.44217442151802,209.7456022030766 L121.98111482269553,209.5768317594072 z"/>
	<path id="trabzon-yomra" title="Yomra" class="district" d="M309.4620526496549,208.4545699040583 L309.6174965911407,208.9313156098981 L314.11500796481994,212.14534544590862 L316.595893270945,213.2405054781865 L323.37324911975946,215.007051581996 L337.6885998377303,215.17212632251932 L337.4885952996847,219.34580707545277 L336.1662855041052,221.79605826128062 L336.4388305481786,224.41507989077786 L338.0720282267306,227.26693081847588 L338.267887593004,228.47542574723258 L337.54040994684664,229.84037210917182 L338.55183185945174,231.22626078893876 L337.85129782981915,232.84497876690645 L337.9766892759522,234.88993450771798 L337.30517144873085,236.27705508853353 L337.79119283911086,237.91794728537752 L337.7051805248221,239.20158817810375 L339.05443393692536,240.4790695655866 L339.75082279478573,242.45011124347732 L339.6886452181918,243.6228810418222 L337.9321286793924,246.15197389476572 L335.3113438259291,246.77408392435 L333.27710077834075,246.92068014914298 L332.2294086127212,247.69061830456906 L331.6739555951433,250.21971115751253 L331.76618566709277,251.61175934252273 L332.72164776076283,253.11467862191444 L332.38277996832227,254.9834725127645 L332.19831982442514,258.06076133237127 L332.5682764051617,260.92000366636137 L333.52373849883367,263.26554326305126 L336.36007228449097,267.0031310447514 L336.2367534242455,268.2116259735081 L333.7703762193256,270.04469473394647 L333.09160434150033,271.2901466941636 L330.31744813243694,273.30553680980677 L329.42416361536175,274.4783066081517 L327.1111577660411,275.90731182462247 L326.15569567236923,278.6926400956917 L324.7069581377143,280.52570885613 L323.8437261159928,282.50414194031265 L321.47061527596486,284.62917124928856 L320.4218868174011,289.17365421787525 L320.5151531822929,291.18904433351844 L321.80948306840537,292.6550065814496 L324.58363927746876,293.9743726045876 L327.6044332070251,295.9897627202309 L328.6220728772909,297.78587444920873 L326.92669762214314,300.31373540110343 L325.9494733766639,302.74058046700634 L325.8427352035092,303.8850165412316 L326.5204707883921,306.7491864794164 L325.828227102304,309.699589491009 L323.96704497623926,310.65924040793203 L323.95253687503407,311.8603439303967 L322.9856755589869,314.7245138685815 L321.4996314783752,316.0451117927682 L321.02397301742633,317.05650255373587 L319.0187461722493,318.63456779709713 L318.26847008134126,320.2298796551398 L318.21043767651867,321.66997198104866 L317.5327020916376,324.38015428814833 L314.70465864952473,326.5409087275359 L313.3626592880245,327.0385967512034 L312.8579846246652,328.5304289211569 L311.3719405440526,329.85102684534354 L310.5636320483229,331.06937698248976 L309.8485899174851,333.1118689212039 L308.7304298317244,334.46449627265633 L306.1635322113087,334.3006534331817 L303.16346414061826,334.6911660656138 L297.0793882708343,338.0136031939082 L291.5310758527065,340.0166742990646 L284.70812311438897,342.30308264541776 L285.31539077912976,340.07334174730397 L285.56202849962267,337.28801347623477 L286.8366688198125,331.8639531588894 L286.8366688198125,330.88705562728484 L286.0967556583365,327.22215000745695 L286.5900310993205,324.04630910395565 L286.0967556583365,321.6034493244199 L285.4801613571061,320.3333593432292 L284.20655732985864,319.3071857696773 L282.8904652919398,317.45071088931405 L283.26042187267825,315.20249147546997 L282.97336872739874,311.1963492651572 L282.43864156868483,310.2194517335526 L280.0551677992248,307.58071968727666 L279.1090323420426,304.99126368294765 L279.1090323420426,303.9650901093958 L280.17848665947037,301.0331656135335 L281.9453661277009,298.73690205879086 L281.9453661277009,296.83115113648046 L281.12358582370837,293.36211778339293 L281.08213410597847,290.77266177906404 L281.4520906867169,289.1601033063397 L282.1920038481928,288.42712218237415 L285.1920719188842,287.4009486088224 L286.0967556583365,286.3254989933232 L286.3433933788276,283.4428505394081 L287.0014393977879,282.1727605582174 L288.3164951427644,280.9026705770266 L290.28959690670024,277.92147003921696 L290.86473949020075,274.5990329109225 L291.6046526516767,272.69328198861206 L292.83784125413666,271.8137046398533 L296.49595534378835,271.4231920074212 L298.1809676695032,270.8368071082487 L300.9758497374307,270.4462944758166 L302.7841809233911,269.7625893937984 L304.1821401038274,268.19807506197265 L302.57899492062995,264.04533662686674 L301.7976300414232,259.9899183746067 L301.67431118117764,256.57016106346646 L302.7437654986054,252.61206299405228 L302.7023137808755,251.39001715376006 L301.7976300414232,249.6308624562427 L300.77066373466863,248.8005611494313 L296.78300848906696,248.21417625025884 L295.837909324828,247.87293965977392 L293.86480756089213,245.62472024592992 L292.3860175308826,242.2530070756883 L289.96005575074935,237.41656355856406 L289.1382754467569,235.31494036951312 L289.2201425892725,233.36114530630402 L290.53623462719315,230.7704574009265 L290.53623462719315,226.3245265162344 L291.1932443532093,223.8816667366987 L292.26269867063706,222.0251918563354 L294.6047207223681,219.09326736047308 L295.38608560157394,217.33411266295568 L296.9892307847723,215.86815041502445 L297.39960279029646,214.64733647578095 L298.87942911324836,214.30486798424752 L300.2359365759547,213.1813742278498 L301.92094890166965,213.47456667743603 L303.15413750412955,212.98550196110938 L303.277456364376,211.71541197991866 L304.7572826873279,210.73851444831408 L307.2236598922477,210.0055333243485 L309.4620526496549,208.4545699040583 z"/>
	
</g></g></svg>