<svg xmlns="http://www.w3.org/2000/svg" version="1.2" baseProfile="tiny" width="600" height="600" stroke-linecap="round" stroke-linejoin="round"><rect id="backgroundrect" width="100%" height="100%" x="0" y="0" fill="none" stroke="none" class="" style=""/>































































































































































































































































































































































































































































































































































































































<g class="currentLayer" style=""><title>Layer 1</title><g class="city city-70" id="karaman" title="Karaman">
	<path id="karaman-ayranci" title="Ayrancı" class="district" d="M354.68470956980013,110.83044806690049 L356.23782474755103,107.25741753288098 L357.037891404058,104.17027481191569 L356.9491636326732,97.7798339550524 L357.7492302891811,94.2049559388539 L358.7722539096818,88.46482880896833 L359.57232056618875,85.86449764214701 L360.59534418669034,80.82826122242767 L362.06276502113684,77.03722779129619 L365.1288024545585,75.00592113558035 L368.05530219622887,74.7010865760594 L372.1815227441509,74.51818584034689 L376.9834393972361,74.60963620820327 L381.31062455556054,75.09737150343648 L385.2578728466696,75.69687947049398 L392.82779262416386,78.3775761120981 L410.40119985757417,85.03867310817238 L413.3026738175719,86.86675672420776 L422.1064404672362,94.13752283932367 L425.073891488007,96.73693026505548 L430.97618417767274,100.87990905126996 L436.54555813538894,103.96705177223525 L440.1803633341002,106.48609372318427 L445.1491185316694,112.21328847781753 L454.01886224210676,122.0428174107291 L458.7874111862948,126.63288688424089 L461.12163409504444,130.45070880696647 L463.356512234123,135.56915818364757 L463.78953409276295,138.41243325699628 L466.45743409048055,143.77382654020454 L467.9915903427223,145.03380938622362 L470.49265179595596,146.5367361387701 L473.9939861590786,148.282606797844 L477.79562990227566,149.501945035927 L480.863184049737,150.02940119800706 L482.4974434286694,150.1106904138791 L486.6987413216093,152.54751940786664 L489.83378924388535,154.09109076834926 L492.96807880914196,155.47208369708733 L497.1033996413079,156.04110820819312 L500.07085066207867,156.65077732723444 L503.33861106292306,157.54403496073934 L510.3754058550877,160.7124668975769 L512.8764673083213,163.10865128362826 L516.7774558211877,165.50575941076914 L524.2472724719914,168.59290213173415 L526.3812891273581,169.56744898111134 L532.6172589059935,174.4420307101758 L534.3516214116164,175.70108981510575 L536.8193151559528,179.07182105053403 L538.7197578490412,181.83473064909992 L541.8548057713173,184.67800572244857 L543.9888224266849,186.22157708293093 L545.4896109700295,186.99290089262766 L547.790466169881,188.4958276451742 L552.725853658554,190.73035734057044 L554.7597671872301,192.1113502693088 L559.5616838403153,196.41690748726757 L562.3964223825196,198.3660011860219 L566.231433834612,201.49378851492304 L569.42790867554,203.02719872342158 L570.8035683105205,203.48445056270305 L572.4795373255746,204.48948086803222 L574.1054547772815,205.707895365026 L576.4563615404792,208.2066150120071 L581.0080203768371,212.16669306250907 L584.2340711415607,215.6094761029152 L586.4097974330481,218.04630509690247 L589.0109620129723,219.60003760936922 L593.8879560110763,223.8344667634401 L596.4891205910014,225.78448420328363 L598.3645375024163,227.55160090741492 L596.019697595382,228.34232327999007 L594.38619657347,228.68410748308895 L591.5529747453063,229.67897663643436 L589.5615292097732,230.70525298682094 L586.2687430272562,231.29644728407334 L583.0525509037986,232.60169344347605 L580.9337013888386,232.66450783755914 L579.7081964438948,232.9444013876647 L578.5850696967036,233.69078418794578 L576.6451924385555,235.83571099766493 L574.8327191598314,237.2351787481922 L572.6630597245066,238.10534285446067 L567.6601784610191,239.00691415777067 L565.668732925485,239.81611135213507 L561.2528199957758,239.97129985516375 L558.7001902651572,238.9450235047771 L556.9726529727163,238.55705224720515 L554.973623866979,238.01204500442554 L553.3393644880466,237.85685650139686 L549.7402020692934,237.11047370111555 L548.4381030652912,236.67539164798131 L547.161788199981,236.61350099498776 L545.8088792756112,236.92387800104535 L541.3679405642304,237.3589600541793 L538.8661207539755,237.91874715439047 L535.4201464533413,238.44805079864932 L529.7529444399946,239.56670125798155 L527.6856632024231,239.87800200512862 L525.6434077465216,240.37589845234595 L523.6011522906219,241.18417190562084 L520.8953344418843,243.173910212311 L518.1129225340871,243.26720806234613 L516.326233394057,244.16877936565612 L514.9733244696882,245.1017578660077 L513.1100412705996,245.59873057213576 L511.2459997144906,245.87862412224104 L508.2853739069027,247.27809187276836 L507.8515936912414,247.89976962597302 L505.57955605816414,253.62142193406942 L503.7670827794411,259.5287462011467 L502.950332268486,262.7627637553355 L501.954609500719,264.752502062026 L498.91663127705124,267.20872961889194 L495.44563119474356,269.85155287582836 L493.5057539365963,270.94064362029803 L490.6975578901053,272.0592940796306 L489.0382727295013,273.1474610830108 L487.17498953041166,274.1118467804038 L484.2136053658035,275.4485001368481 L480.2056885130626,277.7809463877269 L478.08759735512376,278.77581554107223 L474.94724093370456,280.0505782445227 L473.33952405048547,281.48052945100227 L470.8119201015386,284.43465345508554 L468.36166856867055,287.48207530920416 L466.8297873874898,290.31149426621084 L462.97581700988735,296.6853077834639 L462.23566055799085,297.6182862838154 L460.1418368247052,298.5512647841669 L456.6450526037045,301.50538878825046 L454.32220505026163,303.1838263477935 L451.36916281287796,305.03869845542334 L448.1954386825606,305.5781632516662 L443.1417474987075,306.1998410048706 L439.61917913901385,306.97763100219356 L437.29633158557095,307.3813058582862 L435.79023454308407,307.41271305532774 L430.83740484294174,306.3864367049408 L427.1366225834565,305.5476797957142 L425.349175086407,304.7698897983913 L423.76724234188094,304.3034005482156 L419.7085155687735,302.8734493417362 L414.4242838507225,300.57241028789895 L412.0756521585866,300.04403038472935 L409.90599272326176,299.07964468733627 L404.72413920296316,297.24509488367477 L402.5286956289454,296.6853077834639 L400.56303423210426,296.4368214304001 L398.52532891832647,293.9029996220195 L398.09761555882875,293.16770171481176 L397.4431534502348,290.1008812978147 L396.335193843451,285.7463658021144 L396.10844509435566,281.6070819802579 L396.51113267218074,279.3679335794141 L397.2664562644856,271.76369693100423 L398.27355438755757,268.57401894910953 L400.2119149316651,263.36134798130377 L401.72256211627393,260.04973617560034 L402.27616274115707,257.96485253669607 L404.3654363323207,251.98455272355164 L405.22162140833655,248.6424574618964 L405.599283204489,241.86589282964013 L405.4733959391045,238.64573139179305 L405.64933476783426,234.813129611636 L405.4733959391045,233.6168849007894 L404.8947695325497,232.08347469229085 L403.283260864229,230.48909757188798 L399.3557298556502,229.44619388189108 L396.18428079639386,228.37373047703164 L395.1013469712818,227.69847574063846 L391.9549236937,226.3498137500314 L389.03449080819314,224.60209560877888 L386.3658324534534,222.7620033585804 L383.32027065958243,219.66469948563127 L380.4248635557492,217.11979278417738 L377.0516915290711,212.24428731402332 L375.0374952829253,208.47265244577056 L373.1999962225296,204.70009383642832 L369.4741881813717,198.6292673965172 L367.9885667784345,195.7767549122739 L366.0251804526553,192.2508351738167 L364.01098420650953,188.32585928471394 L363.0296702221287,185.65809501836242 L361.4431873354816,174.98703795295543 L361.1163354596957,170.50966489235748 L359.55563671174065,166.89137104495464 L358.4476771049559,163.70261680414913 L357.79321499636285,160.9424784288517 L357.64230194930576,159.62337615310724 L357.96915382509354,154.3192548174451 L359.0520876502037,149.87236521279942 L359.8324370241813,145.36450869624917 L360.23512460200635,140.64234424694538 L360.1592888999681,136.34971940423867 L359.8574628058539,133.1600414223439 L359.94315714915825,126.72156602882882 L360.1486719016826,118.23792786325582 L359.5313692870883,113.85015768833526 L358.8109301177212,112.22067840653318 L357.30104129013273,111.42718481068981 L354.68470956980013,110.83044806690049 z"/>
	<path id="karaman-basyayla" title="Başyayla" class="district" d="M101.79463562459298,377.42859267180825 L103.27949867050981,379.13197124076675 L103.83689108049457,380.32544472834513 L105.00172746380655,384.02687527379925 L104.36015742456043,389.4575491387169 L103.61696754458168,392.54284437750323 L103.44861228605568,395.9569914441361 L102.58711871089761,399.9669515134688 L101.9963585920171,403.7515187569739 L102.46881501571688,406.4876398639454 L103.12706890941159,407.8861838733835 L108.00709633559786,410.33317401935483 L110.10092006888351,411.0536920691313 L114.71097239581209,411.9996029447354 L118.15542998240556,413.41846925814116 L118.88117765091539,413.93299304496867 L119.62436753089366,417.01828828375506 L119.79348114643955,419.239885603899 L119.48937998126436,422.67435497450003 L117.902138737596,424.09322128790586 L116.46656889800505,424.60774507473343 L112.83631384141714,425.3070170794524 L110.32084360479544,425.94439843117755 L108.68279244076147,425.162913469497 L106.21737376748554,423.16763271626996 L104.03937240493666,423.35330467525097 L101.48977610239841,424.40175081178444 L100.0375224083589,425.4307983854395 L98.88936987949457,427.137871918756 L97.06552124546567,428.61862888515554 L95.54577377661198,429.6051843686955 L94.49924108847792,431.00465211922284 L93.5361276725877,433.1431127413158 L93.7727350629487,434.82986397066435 L94.27931755256597,435.20028414753654 L96.23815373622416,435.4672453223895 L100.12170003762213,435.5088136714151 L102.1146622871969,435.69356188930664 L103.0262074257007,436.2284079801022 L103.71858738531384,437.87359086042505 L103.80276501457708,439.9104399626775 L103.63365139903027,441.24709331912186 L103.80276501457708,445.46304765140343 L103.24537260459232,451.3251086050974 L102.13134614164454,452.8474339205226 L101.29791177624088,455.38956939870803 L100.11487482443873,453.82382825207844 L99.18209568936345,452.1453906925351 L95.47221314563424,449.2014278404359 L93.56418688234211,448.32387380545185 L90.85002710637995,445.9221469728635 L87.86134208903816,443.5204201402754 L85.57110388747162,440.44713353565226 L84.10823319514661,439.10493773267115 L81.75505136088832,438.02046569364853 L80.18676904273046,437.03852891555607 L78.82930997623828,435.3083618550029 L78.25750878286732,433.24287677897706 L76.45489414540944,429.6790836558522 L75.81939096232594,428.1558345993377 L75.01325744965497,425.16014224622853 L74.58933587525934,423.1195981796181 L74.5681018786888,420.02044682449 L74.80167584096755,416.0696061848827 L74.73797385125499,408.8653494282079 L74.16541430086325,406.6696168585685 L73.5291527607594,405.61100957005084 L72.2786220341426,404.1773633992138 L75.1725124239366,402.5857575020793 L80.09576620028334,398.534229083721 L81.73002557921521,396.58421164387744 L82.93050474248673,394.14738264988995 L85.4641755475972,390.7757276733719 L86.89822867314794,389.069577881145 L90.10001201321829,385.8207804695248 L91.20038804979832,384.3991429328504 L92.46760263086371,383.3830277344478 L95.26821510714962,380.7023310928438 L96.60216510600934,379.8090734593389 L100.43717655810268,378.22485749092004 L101.79463562459298,377.42859267180825 z"/>
	<path id="karaman-ermenek" title="Ermenek" class="district" d="M259.99018514821574,491.7729596891498 L257.5596508978781,492.98306051633836 L255.73656062087002,493.1835123327504 L254.05983324879656,492.8796015143192 L250.5804912392639,491.8006719218334 L249.30417637395414,491.28522439391634 L243.17892672029518,487.2475520919 L241.57500162217775,485.9709419062704 L238.65153530858964,483.0611574744809 L238.1320607496245,482.4053013009665 L236.00866109254332,478.4249009464966 L235.01293832477626,477.11134111728876 L231.70953514397377,473.5355393600008 L230.5492489027828,472.51203423288246 L229.2403246855962,471.79151618310595 L227.54008824589033,471.51808882062676 L226.68769495497665,471.8183046747003 L224.3216210513714,473.81635665119563 L223.17195180846596,474.4565092261894 L220.06572145296423,475.3682416814834 L216.35432219519484,475.1289927393139 L213.99886528987508,476.4314676754485 L211.96040161907655,477.182469181177 L210.61431790789112,478.0480145819981 L206.1824794807542,481.4880263991358 L205.47114059563103,482.4671919539601 L205.06011109058235,483.67452155788055 L203.1528431843115,484.90494468903717 L201.7385073412911,486.45960094259334 L200.53196132185602,489.36384292784584 L200.3780148467181,490.35501711683327 L200.46219247598086,492.2680849130986 L203.88389935196315,500.674128827157 L204.7681436377338,502.6731045447421 L205.85941939006992,504.16494640421496 L206.43956251066447,506.12420125495316 L206.8695509412241,508.72083745741685 L206.8695509412241,509.79145338009727 L206.364485165647,516.1467920755614 L204.9433241094432,523.2771495450796 L204.1205067423246,525.4636447038245 L202.7554641056287,526.7393311483645 L200.6047635958139,527.627970076422 L197.74348255789582,527.3083556594701 L196.3033625761834,526.9213081429875 L194.58265049692636,526.9896649836073 L193.4610404637758,527.2861858733229 L188.7478515820758,527.0811153514634 L186.840583675804,527.4228995545625 L183.9611020693976,527.4228995545625 L182.78185690269663,527.2141340683454 L181.02474368646253,526.5573541537415 L178.50017316559695,525.2816677092013 L176.7233426668311,524.7348129842428 L174.51652373750795,523.7547236883289 L173.50715054337363,523.0258919687474 L165.3532958601813,519.8824010413255 L160.90249850753483,518.3332872343058 L159.06954958926107,517.2626713116254 L156.7884116719394,516.7167403277564 L154.65667008763418,515.7819143452259 L151.85150746922537,514.8711056310212 L146.01670855437388,512.3428262691775 L142.22037331032092,510.86206930277797 L139.9202764674892,510.26995126443603 L136.8345217515372,509.7230965394775 L131.59806652577137,509.5632893310014 L129.0545370793962,509.88290374795366 L124.39822497422492,509.6547396988578 L116.8988323996252,508.584123776177 L113.42100710413459,507.92364889721546 L108.53946296390811,508.4474100949374 L106.63219505763725,508.35595972708126 L105.02371981739834,508.60721730341345 L101.48977610239841,508.60721730341345 L98.96520558153281,508.33378994093437 L97.63732243883616,507.9458186833624 L96.33143164973133,507.0802732825411 L93.58845430699536,504.89377812379666 L91.71834589472236,504.134462948263 L87.08023435803983,501.91748433356616 L83.46514644185936,500.7027648009303 L75.51073965502833,499.3661114444861 L71.50813130142977,499.1721258156999 L75.80953232106076,494.0444390281245 L76.3274901659848,493.14009650154605 L78.08384502519856,490.8362862244403 L78.62379522371347,490.4797221639099 L82.49369109874463,489.58184582495784 L84.35090744167069,489.29363860504714 L87.20460490938316,487.4831060697115 L88.99432747749503,486.20834336626086 L91.18977105151329,483.9257791342128 L92.20217767372891,482.4440984267237 L93.46863389777305,481.29219328817095 L94.48179887700994,479.4825844939248 L95.6132675514257,478.02214983149315 L96.33977357695538,474.2588286330455 L97.23463486101154,471.42017226514423 L98.18030606543284,469.5274267728471 L98.75438232986572,467.69749567463276 L99.4634461439265,464.344315519904 L99.64924361392094,462.5550290296257 L101.29791177624088,455.38956939870803 L102.13134614164454,452.8474339205226 L103.24537260459232,451.3251086050974 L103.80276501457708,445.46304765140343 L103.63365139903027,441.24709331912186 L103.80276501457708,439.9104399626775 L103.71858738531384,437.87359086042505 L103.0262074257007,436.2284079801022 L102.1146622871969,435.69356188930664 L100.12170003762213,435.5088136714151 L96.23815373622416,435.4672453223895 L94.27931755256597,435.20028414753654 L93.7727350629487,434.82986397066435 L93.5361276725877,433.1431127413158 L94.49924108847792,431.00465211922284 L95.54577377661198,429.6051843686955 L97.06552124546567,428.61862888515554 L98.88936987949457,427.137871918756 L100.0375224083589,425.4307983854395 L101.48977610239841,424.40175081178444 L104.03937240493666,423.35330467525097 L106.21737376748554,423.16763271626996 L108.68279244076147,425.162913469497 L110.32084360479544,425.94439843117755 L112.83631384141714,425.3070170794524 L116.46656889800505,424.60774507473343 L117.902138737596,424.09322128790586 L119.48937998126436,422.67435497450003 L119.79348114643955,419.239885603899 L119.62436753089366,417.01828828375506 L118.88117765091539,413.93299304496867 L118.15542998240556,413.41846925814116 L114.71097239581209,411.9996029447354 L110.10092006888351,411.0536920691313 L108.00709633559786,410.33317401935483 L103.12706890941159,407.8861838733835 L102.46881501571688,406.4876398639454 L101.9963585920171,403.7515187569739 L102.58711871089761,399.9669515134688 L103.44861228605568,395.9569914441361 L103.61696754458168,392.54284437750323 L104.36015742456043,389.4575491387169 L105.00172746380655,384.02687527379925 L103.83689108049457,380.32544472834513 L103.27949867050981,379.13197124076675 L101.79463562459298,377.42859267180825 L102.23827448151991,377.16809768458137 L104.80531299552659,374.77191329852997 L107.70678695552432,373.0251188983669 L111.27485673644173,371.1970352823315 L115.64299317386565,368.59762785659944 L119.84504942382594,365.6324189594426 L123.74679629371266,363.43945761307197 L125.58050356900674,362.6672100622858 L126.84771815007213,361.81459703671703 L134.9340790584507,365.7774463104875 L139.78756398892136,367.28868673283904 L146.4262213453833,368.56160195411076 L147.8837835385651,369.06504084786474 L152.82447952638077,370.0728423764624 L154.021925261571,370.682511495504 L155.54546451552633,372.22054040944977 L158.3968869121783,374.2084312339613 L159.89843381254371,375.0564255540828 L163.14192678873528,375.85269037319455 L164.9263408577044,376.6480314512169 L167.77776325435636,376.99258687758453 L171.150935281034,376.51501273433513 L173.41311427284614,375.55986444783673 L172.65930739458284,377.5514502367059 L172.27633709928716,380.00028786485643 L172.00863707109093,384.1977673753489 L172.08523113014948,385.76073729871 L172.4105662918957,387.57958350385076 L173.73162422140845,391.2643867096946 L177.31182771465157,393.759411392318 L178.86190946432066,397.6539038254684 L180.0297792757163,400.14892850809184 L182.15545400385795,402.807455363549 L183.99295306425367,405.8160800919102 L184.49043526962703,407.40121980141845 L184.5291114776674,409.10367462928775 L184.33800550852973,412.48549075778965 L183.93531793070417,415.3768003677898 L183.3036065327223,416.8926594955889 L182.86375946089842,419.24819927370413 L182.5088483753581,420.1885677027713 L182.7894404729013,423.4355176322127 L183.1542101997068,425.72454805188687 L183.14055977334,426.7665280007943 L182.60743478800848,428.5946116168297 L183.4067430874951,430.8152851958842 L185.95937281811558,430.6961225953442 L189.11489637994183,429.68832106674677 L191.2329875378807,428.83386055899916 L193.7575580587463,428.06530797257085 L200.2233100145589,425.6561912112672 L203.99613619098034,425.2118717472383 L207.41860142398386,424.93844438475895 L208.6387978697848,425.34858542847803 L209.87340309897337,427.1249395435037 L210.78494823747812,429.0555584204688 L211.54254690084352,433.00270409571846 L211.85119820814066,436.35126554499976 L212.70662492713706,438.48603120273503 L213.44981480711533,439.4430269714125 L215.34343228701937,440.55336376093965 L216.33915505478643,441.4937321900068 L217.26510897667737,443.9194762909208 L219.5652058195091,448.5834450515892 L219.958034756069,450.06974446452546 L221.1221127823625,452.5472180664491 L223.9553346105248,456.8694026240181 L225.24529990220185,457.89475523331527 L227.93822568159345,458.78247042028346 L230.46279620245906,459.329325145242 L235.39970040517264,459.73946618896093 L236.3120039006977,460.0128935514403 L238.97687047033492,461.38003036383657 L241.10861205463965,462.6954376752231 L242.819465492632,463.9766665662999 L245.23179917447993,465.9922696234953 L245.97574741147946,466.3857833276039 L251.36159897026175,473.97062141313506 L252.65156426193926,476.1063108119596 L254.7112619293074,478.799939828816 L256.3940561575444,480.4174104764553 L258.0958093112909,484.5178971725547 L259.0126629489384,487.50158089150074 L259.7482692587129,488.5740442963602 L260.57260333987267,490.4908070569835 L259.99018514821574,491.7729596891498 z"/>
	<path id="karaman-merkez" title="Merkez" class="district" d="M126.84771815007213,361.81459703671703 L128.81565461797425,359.6613565571927 L129.74919211006986,358.5242312760713 L130.5158910576801,357.1432383473332 L132.18351814550914,350.40085213538663 L133.11705563760475,347.15113098267705 L133.6175712710599,344.34850051726454 L133.71767439775044,342.3578384694848 L133.45073272657547,338.78296045328636 L134.51774105425787,333.82801324943927 L135.01749833069314,329.72567907116064 L134.91815356102245,327.28792633608407 L134.65121188984605,325.5411319359208 L134.01722542080273,323.9578397085916 L133.11705563760475,322.5352784308278 L131.88320876543654,321.4794423655784 L129.54898585668826,319.9765156130319 L126.81435044117589,317.62097583491663 L125.54713586010956,315.83353682681746 L125.5767117839051,315.0114072572008 L126.85226829219408,310.07585861623215 L127.20187087859259,307.88197352877177 L127.30197400528408,305.99384674192174 L127.1025261089219,300.50959589381586 L127.17684509691995,297.4326143248347 L126.5269331304493,294.02123848147005 L125.8770211639777,291.91880376186595 L125.42655709386833,288.5683948304054 L125.49405086868299,287.5273386225875 L125.62676334725086,284.3025584792932 L125.45158287554096,282.44491514839535 L123.60043338877892,279.33745012346213 L123.35093392907146,278.02758525861196 L124.47633574732413,272.7567186021706 L124.7258352070316,270.9896018980393 L124.82593833372218,267.3648418630101 L124.7258352070316,265.6891755267352 L124.02587167721569,262.7036443256104 L122.97554720398045,260.60120960600636 L122.42498000718052,259.04840083462915 L120.42443418740109,255.0873990430377 L119.59934174922057,254.14333564961254 L118.9486714257296,252.95540460857086 L118.72343939067537,249.45165465626053 L119.19892924245693,245.3696427819504 L119.7244706575847,243.93784409329209 L120.42443418740109,243.14527423853798 L122.72528938725219,241.8354093736878 L125.73445004414515,238.819394716611 L127.9829786095909,240.96801649068783 L130.45370578200868,241.81878203407786 L133.72904975305627,241.49177768841 L138.34744400720845,238.71131700914435 L141.06008706912996,238.2531414287737 L144.1473584991221,236.81395281139976 L147.26268913886872,236.4222865894701 L149.35651287215435,236.8472074906203 L150.99456403618973,236.8472074906203 L152.8745310897265,237.6323874166588 L154.32450971270504,237.69704929292078 L155.31795740941067,238.61340045366205 L156.25756175766935,240.64101214501994 L158.19137215965443,241.6876107993748 L162.21900629492563,242.30928855257946 L165.09166268814815,243.74847716995345 L166.9177863932385,245.12208016997585 L169.76390029074724,246.29985005903347 L171.21387891372578,247.0517753058515 L172.9057734262076,247.57553650357363 L173.55037689353549,247.41203433073957 L176.6649491762622,245.02416361449332 L177.63185437725454,243.8463937254357 L179.77952145898803,242.04786982426316 L181.28334343041394,240.31400779935234 L183.56599806177672,236.58578876230393 L186.0094243814604,232.2026372928305 L189.23168336108142,227.49248147768958 L190.54743279145237,225.95537630483307 L195.7565871644846,224.4506020701079 L198.7103877588886,224.41827113197684 L204.80530313173307,225.2034510580151 L207.16834360725608,224.25476895914278 L208.1079479555143,223.5675055885868 L208.99446731234548,222.39065944061866 L209.2363832018492,221.37639172439492 L208.8063947712905,217.5825870699952 L206.98027106620017,213.52643994618967 L206.14835341483672,212.08725132881568 L205.23529156229176,209.50354750160466 L204.7787606360193,206.9198436743933 L205.3422199021662,205.74207378533572 L206.20143840626423,204.95689385929722 L209.37516253658063,203.21287068240258 L211.37950014146074,201.730266233824 L213.09793714965585,199.89848765343098 L213.67125505706744,198.8084731678718 L214.1004851306063,196.7586916903667 L214.2794573874183,194.7957418752706 L211.84513135197759,190.3913443607398 L209.19543192274833,189.82416733181327 L206.0452168600644,189.51933277229236 L202.28604111001022,189.5627486034969 L199.06378213038872,189.25791404397626 L197.13073008542395,187.77530959539774 L193.80078440890864,184.80917695715138 L186.35371846871567,177.48298637666807 L183.9952281353151,174.37552135173485 L182.0083327419039,173.13308958641517 L177.81992691831041,169.50186336376004 L175.13458470912255,167.0816617093828 L172.82538758204691,164.53121256139195 L171.6704098399992,162.56826274629583 L170.16658786857326,159.0682077583435 L169.09275432770605,155.83049523979673 L168.56038769939488,153.05003456053137 L171.1198426431983,151.50831068222772 L173.5208009697409,150.38134655309005 L176.1720171130108,148.4017693983837 L178.0724598060992,147.18243116030078 L179.27293896937027,146.1164339430672 L181.87410354929446,143.16138619789444 L183.70022725438477,139.7186031574882 L184.62542281925633,135.08881281713002 L186.3021501913302,131.24974484934677 L188.08125576115611,128.0545244209151 L190.74839740185428,122.69313113770687 L192.43801684327465,120.20180141944141 L195.10591684099364,119.01017541404201 L197.95127238148206,118.79309625801952 L202.3087918206214,119.82214383167462 L207.2441793092948,121.28442597628496 L211.46822791284546,121.44700440802953 L214.26959874615216,121.12184754454066 L217.47062372920217,120.41795683437445 L219.96030982713137,120.1473006951635 L225.96270564348762,118.84759698229745 L231.38723341030936,117.49339254515374 L233.87691950823762,116.30176653975406 L236.6782903415443,114.62332898021069 L238.3679097829642,113.26912454306698 L239.65711671762142,110.45263796131263 L240.10227228858804,108.07030969160306 L240.23574312417531,104.65801010714915 L241.25800838765656,101.51636666190595 L242.1915458797522,99.78342837808464 L243.83718061398991,97.23852167663074 L245.52680005541026,95.88431723948676 L247.92775838195286,95.4510826685315 L250.99531252941608,95.28850423678693 L253.3515277917557,96.4256295179084 L254.86369169040563,98.1585678017297 L260.33220416441054,101.02955510776196 L262.06656667003296,102.43733652809439 L264.86793750333965,104.44093095112666 L267.89074858659893,106.33644766669227 L272.15954025435406,109.53259183621341 L276.1613902509309,113.26912454306698 L279.8955402193133,116.41076798830991 L282.87512495241117,118.35986168706424 L283.76391938030287,120.09279997088555 L283.9421332800941,122.42247499849591 L284.6974568723985,127.51321214249344 L285.27608327895285,129.6248842729921 L286.2096207710485,131.08716641760245 L287.41009993432,131.9000585763245 L289.36666104691676,132.06263700806886 L293.4124957506772,130.76293329520306 L299.68183323820887,130.05811884394734 L306.529038775276,130.16712029250323 L313.7758984620869,129.30065115059273 L321.0235165059177,127.67579057423777 L329.2046720418436,125.34703928771688 L336.98541507100634,122.96378727691783 L346.05612339184614,119.76856684848616 L349.79103171724796,118.19728325531995 L353.4364539142448,113.70235911402224 L354.68470956980013,110.83044806690049 L357.30104129013273,111.42718481068981 L358.8109301177212,112.22067840653318 L359.5313692870883,113.85015768833526 L360.1486719016826,118.23792786325582 L359.94315714915825,126.72156602882882 L359.8574628058539,133.1600414223439 L360.1592888999681,136.34971940423867 L360.23512460200635,140.64234424694538 L359.8324370241813,145.36450869624917 L359.0520876502037,149.87236521279942 L357.96915382509354,154.3192548174451 L357.64230194930576,159.62337615310724 L357.79321499636285,160.9424784288517 L358.4476771049559,163.70261680414913 L359.55563671174065,166.89137104495464 L361.1163354596957,170.50966489235748 L361.4431873354816,174.98703795295543 L363.0296702221287,185.65809501836242 L364.01098420650953,188.32585928471394 L366.0251804526553,192.2508351738167 L367.9885667784345,195.7767549122739 L369.4741881813717,198.6292673965172 L373.1999962225296,204.70009383642832 L375.0374952829253,208.47265244577056 L377.0516915290711,212.24428731402332 L380.4248635557492,217.11979278417738 L383.32027065958243,219.66469948563127 L386.3658324534534,222.7620033585804 L389.03449080819314,224.60209560877888 L391.9549236937,226.3498137500314 L395.1013469712818,227.69847574063846 L396.18428079639386,228.37373047703164 L399.3557298556502,229.44619388189108 L403.283260864229,230.48909757188798 L404.8947695325497,232.08347469229085 L405.4733959391045,233.6168849007894 L405.64933476783426,234.813129611636 L405.4733959391045,238.64573139179305 L405.599283204489,241.86589282964013 L405.22162140833655,248.6424574618964 L404.3654363323207,251.98455272355164 L402.27616274115707,257.96485253669607 L401.72256211627393,260.04973617560034 L400.2119149316651,263.36134798130377 L398.27355438755757,268.57401894910953 L397.2664562644856,271.76369693100423 L396.51113267218074,279.3679335794141 L396.10844509435566,281.6070819802579 L396.335193843451,285.7463658021144 L397.4431534502348,290.1008812978147 L398.09761555882875,293.16770171481176 L398.52532891832647,293.9029996220195 L400.56303423210426,296.4368214304001 L398.64894111265,296.3435235803647 L394.4878361417901,296.5615264774767 L392.44558068589043,296.25022573032965 L390.7354856049198,296.5301192804352 L388.8213924854646,297.52498843378027 L385.2980657687497,300.5410030908574 L384.45628947612107,301.7538751413142 L382.2866300407972,304.4281055952922 L379.96302413033305,309.3405607090244 L378.94227558089335,310.8638097655388 L377.2063963612289,314.37772086983324 L376.31305179121426,315.80767207631254 L373.68382800153614,317.4251427239518 L371.36098044809233,319.1663946775783 L366.3065309072188,320.19267102796493 L363.52411899942075,320.3164523339521 L361.3286754254039,320.6277530810992 L360.15473875784613,320.5963458840576 L357.7552971453437,319.8813702808178 L355.4582337305938,319.5081788806772 L353.72235451093024,319.01028243345985 L351.06734658255823,318.60660757736724 L348.0809366362765,318.7303888833545 L342.8732989772849,319.570069533671 L336.9770731437828,319.570069533671 L335.72578406014514,319.6633673837061 L333.70931274293844,320.22315448391697 L330.8245226373888,321.59121503740266 L326.4852037667392,323.48857923514726 L318.2403462411002,325.26031464472584 L315.86593041027044,325.91339959497174 L305.8343837446028,326.0999952950422 L303.9195322681273,325.8201017449366 L302.8987837186881,325.91339959497174 L300.6525302243042,326.9082687483172 L298.9932450636988,328.0592501457804 L297.537957941577,329.33401284923104 L295.41986678363907,330.8886691027871 L293.8622014637653,332.909814606519 L292.07551232373567,333.9665744128577 L287.6846251757001,336.1743156166599 L284.8514033475364,337.16918477000496 L280.92008055385463,338.8485460706379 L277.83205076684214,339.71871017690637 L274.0797002299709,339.99860372701164 L271.5012863606584,339.3769259738072 L268.973682411711,338.1335704673981 L266.8040229763862,337.6670812172223 L263.84339716879833,337.38718766711696 L261.9035199106511,337.6975646731743 L259.4017001003967,337.88416037324475 L257.4618228422485,338.8171388735963 L256.1339396995528,341.05628727444 L254.21984658009762,344.9110588407438 L253.58130996893232,345.7202560351082 L252.38158916268156,346.59042014137674 L250.21192972735628,347.24350509162264 L248.29783660790156,347.0255021945109 L246.89335940614637,347.11880004454605 L245.56623462047003,347.55480583876977 L245.05586034575066,348.3002648979616 L244.7745098911871,349.7616233014825 L244.5454860710313,352.715747305566 L243.88116532117255,356.5095519599657 L243.29419698739366,358.7172931637679 L242.06869204244902,362.26168772401405 L240.51178507959656,365.8688966783435 L239.10806623486167,368.1690119910916 L237.4229969355637,370.0349689917947 L236.68284048366675,370.3767531948935 L234.58977510740002,370.5947560920056 L231.5267711020611,370.47005104492894 L230.27548201842302,370.1901574948234 L228.97414137144108,369.22669553851983 L227.69782650613084,369.1019904914432 L226.7278878770572,368.60501778531506 L226.31913344306813,367.889118440986 L226.31913344306813,366.64576293457696 L225.19600669587737,365.9307873313374 L224.63482250079096,364.77980593387383 L225.3749789526884,363.1013683743305 L225.1451967755113,362.54158127411966 L223.40931755584728,362.6967697771483 L222.74575516300888,362.416876227043 L222.92396906279959,361.36011642070406 L222.4393789267732,359.61886446707797 L220.44793339123862,359.5874572700364 L219.2482125849879,360.2405422202823 L215.9554264024709,361.0488156735572 L210.3906025868771,361.11070632655077 L204.00902826032728,361.0183322176052 L201.86515296369544,360.8622199734868 L199.08274105589783,361.79519847383824 L197.93383017001315,362.54158127411966 L196.45351726621922,362.88336547721883 L194.3596935329336,363.75445332457673 L191.04188156874397,365.8993801342958 L189.89297068285836,366.4277600374652 L185.50208353482185,365.68230097827336 L183.1284260610143,365.8688966783435 L178.96732109015443,367.1741428377462 L176.7559520187084,367.73392993795744 L175.531205430785,368.87659766561563 L175.0140059428813,371.3485288210025 L173.41311427284614,375.55986444783673 L171.150935281034,376.51501273433513 L167.77776325435636,376.99258687758453 L164.9263408577044,376.6480314512169 L163.14192678873528,375.85269037319455 L159.89843381254371,375.0564255540828 L158.3968869121783,374.2084312339613 L155.54546451552633,372.22054040944977 L154.021925261571,370.682511495504 L152.82447952638077,370.0728423764624 L147.8837835385651,369.06504084786474 L146.4262213453833,368.56160195411076 L139.78756398892136,367.28868673283904 L134.9340790584507,365.7774463104875 L126.84771815007213,361.81459703671703 z"/>
	<path id="karaman-kazimkarabekir" title="Kazımkarabekir" class="district" d="M125.73445004414515,238.819394716611 L126.85226829219408,236.44353263452751 L127.30197400528408,234.34109791492352 L126.97739720055822,232.08716965664854 L125.27640240383249,231.1421825221342 L124.40125840230576,229.92376802514042 L123.90074276885156,227.33452175139246 L123.67551073379732,223.16105950922594 L123.35093392907146,221.7902277324717 L123.57540760710535,219.4744088212031 L123.32590814739882,217.70821585816128 L121.82511960405373,214.50930046537195 L120.02402168063699,210.94458360115735 L119.82457378427526,209.7261691041636 L119.67441909423894,204.54767655666785 L119.74949643925686,202.04895690968675 L119.52426440420217,195.77305994791624 L119.32405815082012,192.84849565869524 L119.8988927722738,190.1677990170911 L121.49978444230896,187.2127512719184 L123.52535604376055,184.3186704386497 L125.20132505881409,182.21715946013518 L126.70211360215731,181.36362269347694 L134.10519483516808,181.18072195776443 L139.7071781447607,182.40006019584774 L142.53357475974047,183.28315667736848 L144.05938908475727,183.28315667736848 L145.98485755951782,182.67348755832688 L148.1355580693331,181.63797379704556 L151.76202134081984,179.68795635720204 L155.38848461230708,177.09871008345408 L156.81419581063284,175.08772573170614 L157.31471144408798,172.28509526629387 L156.3887575221961,167.01515235094178 L156.1885512688145,164.27348879743357 L156.81419581063284,162.9331404766314 L157.8144687205223,161.3794079641649 L159.0900252288113,159.85615890765024 L162.09160231550004,157.23642917795019 L164.59266376873367,156.0780578517713 L168.56038769939488,153.05003456053137 L169.09275432770605,155.83049523979673 L170.16658786857326,159.0682077583435 L171.6704098399992,162.56826274629583 L172.82538758204691,164.53121256139195 L175.13458470912255,167.0816617093828 L177.81992691831041,169.50186336376004 L182.0083327419039,173.13308958641517 L183.9952281353151,174.37552135173485 L186.35371846871567,177.48298637666807 L193.80078440890864,184.80917695715138 L197.13073008542395,187.77530959539774 L199.06378213038872,189.25791404397626 L202.28604111001022,189.5627486034969 L206.0452168600644,189.51933277229236 L209.19543192274833,189.82416733181327 L211.84513135197759,190.3913443607398 L214.2794573874183,194.7957418752706 L214.1004851306063,196.7586916903667 L213.67125505706744,198.8084731678718 L213.09793714965585,199.89848765343098 L211.37950014146074,201.730266233824 L209.37516253658063,203.21287068240258 L206.20143840626423,204.95689385929722 L205.3422199021662,205.74207378533572 L204.7787606360193,206.9198436743933 L205.23529156229176,209.50354750160466 L206.14835341483672,212.08725132881568 L206.98027106620017,213.52643994618967 L208.8063947712905,217.5825870699952 L209.2363832018492,221.37639172439492 L208.99446731234548,222.39065944061866 L208.1079479555143,223.5675055885868 L207.16834360725608,224.25476895914278 L204.80530313173307,225.2034510580151 L198.7103877588886,224.41827113197684 L195.7565871644846,224.4506020701079 L190.54743279145237,225.95537630483307 L189.23168336108142,227.49248147768958 L186.0094243814604,232.2026372928305 L183.56599806177672,236.58578876230393 L181.28334343041394,240.31400779935234 L179.77952145898803,242.04786982426316 L177.63185437725454,243.8463937254357 L176.6649491762622,245.02416361449332 L173.55037689353549,247.41203433073957 L172.9057734262076,247.57553650357363 L171.21387891372578,247.0517753058515 L169.76390029074724,246.29985005903347 L166.9177863932385,245.12208016997585 L165.09166268814815,243.74847716995345 L162.21900629492563,242.30928855257946 L158.19137215965443,241.6876107993748 L156.25756175766935,240.64101214501994 L155.31795740941067,238.61340045366205 L154.32450971270504,237.69704929292078 L152.8745310897265,237.6323874166588 L150.99456403618973,236.8472074906203 L149.35651287215435,236.8472074906203 L147.26268913886872,236.4222865894701 L144.1473584991221,236.81395281139976 L141.06008706912996,238.2531414287737 L138.34744400720845,238.71131700914435 L133.72904975305627,241.49177768841 L130.45370578200868,241.81878203407786 L127.9829786095909,240.96801649068783 L125.73445004414515,238.819394716611 z"/>
	<path id="karaman-sariveliler" title="Sarıveliler" class="district" d="M72.2786220341426,404.1773633992138 L73.5291527607594,405.61100957005084 L74.16541430086325,406.6696168585685 L74.73797385125499,408.8653494282079 L74.80167584096755,416.0696061848827 L74.5681018786888,420.02044682449 L74.58933587525934,423.1195981796181 L75.01325744965497,425.16014224622853 L75.81939096232594,428.1558345993377 L76.45489414540944,429.6790836558522 L78.25750878286732,433.24287677897706 L78.82930997623828,435.3083618550029 L80.18676904273046,437.03852891555607 L81.75505136088832,438.02046569364853 L84.10823319514661,439.10493773267115 L85.57110388747162,440.44713353565226 L87.86134208903816,443.5204201402754 L90.85002710637995,445.9221469728635 L93.56418688234211,448.32387380545185 L95.47221314563424,449.2014278404359 L99.18209568936345,452.1453906925351 L100.11487482443873,453.82382825207844 L101.29791177624088,455.38956939870803 L99.64924361392094,462.5550290296257 L99.4634461439265,464.344315519904 L98.75438232986572,467.69749567463276 L98.18030606543284,469.5274267728471 L97.23463486101154,471.42017226514423 L96.33977357695538,474.2588286330455 L95.6132675514257,478.02214983149315 L94.48179887700994,479.4825844939248 L93.46863389777305,481.29219328817095 L92.20217767372891,482.4440984267237 L91.18977105151329,483.9257791342128 L88.99432747749503,486.20834336626086 L87.20460490938316,487.4831060697115 L84.35090744167069,489.29363860504714 L82.49369109874463,489.58184582495784 L78.62379522371347,490.4797221639099 L78.08384502519856,490.8362862244403 L76.3274901659848,493.14009650154605 L75.80953232106076,494.0444390281245 L71.50813130142977,499.1721258156999 L70.09986231457246,499.09268408200666 L68.30483124731877,499.2746610766297 L66.68422229475325,500.3988539824989 L64.9885359971698,502.8282930477707 L62.94400547020865,504.4993406785985 L60.82439759822911,506.04753074452833 L57.9320239224767,509.206725270471 L57.08418077368452,509.6621296275734 L53.761818667372935,510.6486851111134 L52.87378259650018,509.67506200282577 L50.77616707811197,509.0136633827746 L48.20988692112515,507.6908661426722 L45.29779596284285,506.6091653269182 L42.18777382223854,504.7450558083941 L38.683406031034146,501.19789002487914 L37.42529173421313,499.69496327233264 L33.57511314171233,496.77871265291714 L31.921894837270436,495.8466578936551 L28.519146886797714,493.2768101827857 L24.243530005860165,491.9466230139677 L22.725299251046643,490.90926177050744 L20.96742767779223,488.2710572190184 L19.412795785999307,485.1829907569638 L17.91352395669628,483.5821474489346 L16.9989453901107,483.07686107300174 L15.61797725598747,481.8455142007557 L12.3972349904071,480.98920621082897 L11.305200881051125,480.1772377931964 L10.750083542128284,477.22403753020234 L10.083487721208584,475.848587048001 L8.306657222444144,474.22557395382523 L6.049028372754453,472.7595968448569 L4.012839773017358,471.9938154816972 L2.8093271816640524,471.18184706406436 L2.5878869317119273,470.6183649994958 L2.9390062321506143,468.65633892548914 L3.808841734534141,465.7031386624951 L5.123074450862571,462.11809949431256 L5.493152676811285,459.9768676489513 L5.474952108321581,457.42918972422905 L6.529826723679701,448.7709644927488 L6.919622232157838,447.1193154247998 L6.987874363992351,443.30334098425305 L6.7618839719182695,441.10668467352434 L6.446407451437256,439.87164283692033 L4.688535878181906,436.87872170707993 L4.10232590142288,435.6713921031595 L3.742106316739342,433.2003846888623 L4.215321097460858,432.3764076370666 L6.6716394864914825,429.3566980156318 L7.776565665193473,427.7641683774079 L8.180769957059681,426.56145747893487 L7.331410094227305,422.78335642305586 L5.6311736545214375,417.4829300517518 L4.27674801611197,412.9122591411188 L7.645369900666729,410.7507049917893 L9.321338915720286,409.80571785727506 L13.273137348953238,408.7397206400417 L14.398539167206849,408.5873033602812 L23.40175371323152,408.1910184329042 L26.853036513008867,407.73469033471247 L29.87963938137026,407.67372342280817 L31.930236764494495,407.3993723192395 L37.08251436099897,407.70420687876043 L40.208461999031066,407.79565724661666 L44.18528621393619,407.3993723192395 L46.31096094207787,407.3384054073355 L50.83835235378341,407.185988127575 L54.064403118507,407.55178959899996 L56.34023253668545,407.6127565109041 L60.31705675159057,407.216471583527 L62.642937733115716,406.6068024644854 L70.99624031266974,404.81012604549176 L72.2786220341426,404.1773633992138 z"/>
	
</g></g></svg>