<svg xmlns="http://www.w3.org/2000/svg" version="1.2" baseProfile="tiny" width="600" height="600" stroke-linecap="round" stroke-linejoin="round"><rect id="backgroundrect" width="100%" height="100%" x="0" y="0" fill="none" stroke="none" class="" style=""/>































































































































































































































































































































































































































































































































































































































<g class="currentLayer" style=""><title>Layer 1</title><g class="city city-74" id="bartin" title="Bartın">
	<path id="bartin-amasra" title="Amasra" class="district" d="M147.9216167996189,173.86329539137802 L149.62525828050042,173.12937323788015 L155.2770212884949,171.92333741838956 L159.05444064341958,173.419079351103 L162.82002915472827,173.0521182743541 L165.91971018243788,171.3675308752437 L170.71458208844336,172.95769554115566 L170.3444456952774,175.04572552756898 L173.30891708164899,175.4470221436628 L180.77248928359404,172.6336538885878 L181.72909749607305,171.3932825297523 L180.14545457188098,166.8609913362218 L184.42991008183037,163.8072743057325 L184.81356743913085,161.70207654964662 L187.7577573793019,161.74499597382768 L190.39265526490755,163.60126106966283 L193.32501436145924,162.77291618296636 L196.36892141211808,160.81579044030573 L196.19990936044388,156.013106874434 L198.03030988007885,154.05168918935516 L200.52661788331073,152.81560977293765 L202.74405600128085,154.74054594746275 L207.2380864553067,150.79410489400496 L211.2115597901734,150.81127266367764 L210.76367785323532,148.7039289363827 L208.15751201641484,148.28975649303447 L209.1344016750944,146.03219478110552 L210.9428306280114,145.84334931470835 L211.34000894944637,147.87343807847722 L215.69206928006474,149.62669655627758 L213.07407259962605,150.50654475199133 L213.31237959248875,153.39287602817427 L214.92813480649522,155.67189745219372 L218.68358259470307,155.60751831592196 L222.56916966270126,156.88222521410248 L224.96238031441277,159.416617212 L232.12173082334465,158.42517851341506 L233.6394590473817,157.39082039064914 L235.58647788267257,151.9207397787605 L237.6095521412159,148.43139059283232 L237.34927358163742,147.26612822631387 L239.59206350735587,142.29176696371763 L242.12893440299217,141.28101452425133 L243.70074648356604,137.43114217520133 L246.08719665320814,136.4804769295887 L250.10968348306062,133.28512579930134 L252.176700875042,132.33231458247965 L255.3186349156702,128.76571043302533 L257.5022706233042,127.85367266917575 L259.48478198944855,126.09183030653911 L263.1557237518182,126.38153641976207 L264.889787401999,128.0618318764544 L269.37536725344023,127.0596633218243 L271.9781528492282,124.31067420302098 L275.8485288325746,123.69692643723049 L277.8530117654325,122.0359447214197 L280.4591776022552,121.57241494026316 L281.9363429338878,120.04662941062294 L282.87435982068246,116.5851778504124 L285.8253102429185,115.7182054819531 L287.01853532774066,114.16881426901314 L289.07710211713857,113.35334520957127 L289.4151262204869,111.93915018280211 L291.81847759529927,110.43911630767049 L292.87142267723027,108.39185977422933 L291.6832679539591,105.88965734446778 L292.82409930276185,103.58273829473042 L298.36600447716876,103.1471061392917 L300.9028753728018,99.56333422016488 L305.8447877637657,98.1319714237233 L308.18560467945787,98.91310494382029 L311.7061257158377,98.35300645825623 L313.729199974381,96.87228632400624 L316.0733971311068,96.62979157738273 L318.985474781459,95.33791690952984 L320.6198213211509,95.9344969056479 L321.6186825465484,98.53112206860807 L323.9764006674076,97.26929099768199 L325.5735645557319,94.86365727232797 L333.1672760374684,94.44733885777077 L334.03599798307454,102.01188736969998 L333.3126264019062,109.49703494689416 L333.50530014081676,113.79112333621904 L334.7137363102896,116.308347564444 L336.6945575559133,118.76119265639721 L339.20607664379696,120.11100854689462 L341.96097308609103,120.17324171195735 L345.6809283434476,124.46733010128226 L346.16430281123803,126.1240198746751 L346.84204113845203,137.7809354822778 L347.27640211125345,141.83038315377004 L346.7440141484805,146.73821930888568 L344.18348156560995,150.72543381531528 L343.6037702283686,152.81131783051964 L344.4251687995063,155.4508624176609 L347.469075850164,159.98959152481828 L349.1118729924394,164.34591307920596 L352.39577715647715,174.52425452376772 L347.7158334456091,177.30757918191594 L345.2330464065106,180.0265247037923 L342.1181542941492,185.65111524273325 L337.980739269156,191.83151232482004 L333.6979738797251,196.09555711721828 L323.7685158438485,200.29736874455367 L310.1883974918017,208.1473314272876 L306.39238681119156,209.3211776786422 L301.9152575623316,209.69243069780936 L294.02915523120004,208.5164384752456 L290.9632766138254,208.76537113549637 L287.7030341370241,209.87698422178835 L278.45469466939505,215.93291497374975 L276.6530261985431,218.03382078741748 L274.5606569988134,219.26990020383482 L271.30041452201203,218.52954013670995 L270.86098318765966,216.67542101208392 L271.3477378964826,208.2074186211412 L271.05703716760274,205.1172200800978 L266.91962214260957,201.41112780205458 L261.1275791317239,199.866028531533 L257.08819109670225,200.85317528769968 L250.46798903261282,203.0163142664302 L243.8968004635069,203.82105346982678 L235.0388788352467,198.50548278499036 L227.83558519287897,189.54390701596435 L224.33027524114988,188.55676025979778 L203.109122032897,193.62339828438346 L194.15486353518043,194.42599151657123 L186.65917904341876,193.99465130355065 L179.3088449160926,193.25214526521648 L172.59230598254896,191.76927915975745 L168.89263217139188,189.79283967621507 L161.73835202401102,184.90860920439923 L149.3751204440195,175.51569322235247 L147.9216167996189,173.86329539137802 z"/>
	<path id="bartin-merkez" title="Merkez" class="district" d="M296.4071547982608,519.0556401956019 L284.8315193790741,521.6136378767991 L271.3680193426821,523.542865993742 L263.9838828050242,524.2789341184489 L249.64997070250655,526.75967683612 L243.78694262991718,528.5987741622827 L235.02704799162854,532.1846920526185 L229.5966907713276,533.8392358548022 L219.17371754455968,535.7684639717452 L215.26446878932728,536.6869396492219 L206.64992451547857,536.5968088584416 L197.09398311380045,535.2169493710174 L191.51996564957585,535.0323958470384 L186.16228361149382,534.1139201695617 L182.1803596740425,533.8392358548022 L171.10499992781325,533.6546823308231 L167.41208659872456,533.3778520448546 L158.21952110814743,533.1031677300953 L142.65520126944114,528.0472595615547 L140.19269567654436,526.4849925213607 L138.23891635918739,520.1436475985943 L137.15216886692025,515.3624237448131 L137.0811838052154,511.9610593784564 L137.65920502194382,508.4695642213191 L141.2794431688115,500.28912197239026 L143.9565940673346,490.79963728593617 L144.68165576902027,487.9712472323978 L145.18869192404384,481.9045866243909 L144.46363022235926,477.6770233425467 L142.87153669558592,475.74779522560374 L137.29751923136018,470.96657137182257 L132.88123432110535,464.3483961630878 L131.43449115877195,456.6271917528976 L131.43449115877195,452.5841819950324 L133.53362084056886,444.2191862221245 L135.84908594851055,437.7855645373687 L136.8631582585566,428.0428552482455 L135.99443631294832,424.3646605959204 L134.6186782123197,422.25087895499837 L132.66489889496273,420.9632962295634 L126.51117009349349,419.6778594753377 L120.83743551877888,417.97610430655476 L115.78904553526218,415.0811891455356 L113.29104741151187,411.9802607484472 L103.4629966066382,404.5337406530159 L102.64835851756885,400.0529527685028 L103.24666118049564,397.5013930009331 L105.25452435438822,392.4690905156922 L104.71199566851445,388.4024750745275 L103.7891898663716,385.4388888348184 L101.61738500235472,381.23278526506476 L98.63094204926736,377.0288276665203 L92.60397228655262,363.3783048057029 L92.71383012014016,360.00054612264563 L97.21969141778308,356.4146282323097 L100.26021822740717,352.830856313183 L101.2911917426224,349.6591108661954 L99.93402496767706,346.6268535477966 L94.7757771505706,341.1803786192075 L93.0941072364092,337.73394885746046 L93.58255206574844,335.59656153323857 L96.83941430151734,331.3904579634852 L95.97069235590902,327.9440282017379 L94.3971901548189,326.84099900028247 L91.30088936814292,326.63498576421284 L86.84911192703564,327.6693438869787 L82.50550219899964,329.73591416130137 L76.58839026987684,334.07935988843485 L74.74277866558896,336.0107339765868 L71.48422630930602,341.8692353773151 L71.53831016584166,345.9379967896889 L73.7641988863931,350.5561268315815 L74.03630828959089,353.45104199260066 L73.43969574717926,359.03485907856947 L71.53831016584166,360.8954161168228 L68.55186721275322,362.758119126285 L63.285451682575484,368.5479494483234 L58.61733881532564,370.3419813790958 L56.825811067575586,370.2024932505069 L53.24106545155925,368.13592297618425 L51.287286134202276,364.13583264250025 L51.125034564594245,361.1722464027913 L52.15600807980948,357.311644197696 L52.21009193634512,354.2793868792971 L51.179118421129886,350.8308111463409 L48.73520415391744,348.4874105860496 L48.246759324577084,346.0066678683787 L50.09237092886278,336.90560397076405 L50.25631261898707,333.32183205163705 L49.38759067337986,331.3217868847952 L44.55384599548947,323.8774127605731 L39.77756541516723,321.60268327897177 L37.225483434882364,319.051123511402 L32.88187370684747,319.3279537973704 L27.939961315884688,317.533921866598 L25.3337954790631,313.19047613946464 L18.167684488065134,308.02083149684415 L13.932242473101525,304.29757144912867 L7.038240885298052,299.2652689638877 L2.633786818660269,293.2329438952258 L20.236392000560613,289.05902989360817 L26.944480331521873,286.9688539359858 L41.05191628479284,279.41932722252005 L44.423706715699126,277.90641752013414 L48.59492415102625,273.1209017239348 L55.602163813451995,265.8181616995106 L57.46129638187213,262.9211005672825 L59.969435228721096,260.2128849014513 L62.03814274121768,257.10766456194455 L69.0589033677768,250.21695100965945 L66.74343825983621,247.91646987354937 L65.37782088230517,244.88421255515047 L67.46511972048609,242.49145465705095 L73.98560467408885,241.22962358612483 L76.8368379858371,239.22957841928292 L78.91399610091827,236.42908599146216 L84.74322176317148,233.2423187460111 L90.6485028486772,228.82590999776988 L95.23548993112468,223.21634125729258 L98.28446734333227,220.49739573541623 L100.3633155789297,217.6990492788044 L101.03936378562742,214.62172656501534 L99.09065482982143,208.13445560003328 L99.66360568499664,206.28892036024342 L103.24159081894686,207.20739603772023 L105.75141978631316,208.58725552514449 L106.22972389255156,206.91339798207935 L103.8889069768594,206.32754784200642 L102.83934213596095,204.1322192951402 L105.66184339892513,203.2330573585449 L108.70237020854921,201.03772881167868 L113.38231391941616,199.902510042087 L117.10733953832258,197.33807444726284 L121.92925337259697,190.79286225963602 L123.91176473873912,191.17913707726643 L125.97540188968583,189.2499089603233 L126.34722840336809,186.7519984729799 L129.94211474248527,185.5652763943708 L131.76068441850424,182.27121058846703 L134.19276784209853,180.5608715348477 L137.2501958568896,179.5951844907717 L137.03555055126327,178.21747097455653 L143.90589045183367,174.92555113986162 L146.45121195005015,175.08864495175015 L147.9216167996189,173.86329539137802 L149.3751204440195,175.51569322235247 L161.73835202401102,184.90860920439923 L168.89263217139188,189.79283967621507 L172.59230598254896,191.76927915975745 L179.3088449160926,193.25214526521648 L186.65917904341876,193.99465130355065 L194.15486353518043,194.42599151657123 L203.109122032897,193.62339828438346 L224.33027524114988,188.55676025979778 L227.83558519287897,189.54390701596435 L235.0388788352467,198.50548278499036 L243.8968004635069,203.82105346982678 L250.46798903261282,203.0163142664302 L257.08819109670225,200.85317528769968 L261.1275791317239,199.866028531533 L266.91962214260957,201.41112780205458 L271.05703716760274,205.1172200800978 L271.3477378964826,208.2074186211412 L270.86098318765966,216.67542101208392 L271.30041452201203,218.52954013670995 L274.5606569988134,219.26990020383482 L276.6530261985431,218.03382078741748 L278.45469466939505,215.93291497374975 L287.7030341370241,209.87698422178835 L290.9632766138254,208.76537113549637 L294.02915523120004,208.5164384752456 L301.9152575623316,209.69243069780936 L306.39238681119156,209.3211776786422 L310.1883974918017,208.1473314272876 L323.7685158438485,200.29736874455367 L333.6979738797251,196.09555711721828 L337.980739269156,191.83151232482004 L342.1181542941492,185.65111524273325 L345.2330464065106,180.0265247037923 L347.7158334456091,177.30757918191594 L352.39577715647715,174.52425452376772 L361.73200289097576,169.76878232449553 L368.59558230947783,165.6270578910137 L371.3217467029878,163.4038317184297 L376.52900801507894,160.31363317738612 L384.9001749345183,154.3177896192783 L392.7372637706653,150.30267748713086 L400.28196175741607,146.90345909198317 L403.9799454480524,145.5429133454404 L408.5551016868817,144.4935334242109 L421.65691593269116,143.9355809098559 L432.6241079658481,145.50213989246828 L436.1936424972148,145.50213989246828 L442.6177905813623,144.43130025914832 L447.1608345303749,142.7831943705919 L450.6086803845337,141.0320818640006 L457.76296053191686,138.74447655514481 L466.03779058190094,135.160704636018 L470.02816512193465,133.74007169562177 L477.0370949048777,130.40308646553655 L485.9778324384588,123.84285247944642 L490.54284795418937,122.6196488902833 L494.616038399545,120.36637912077254 L497.2779782134163,119.76979912465447 L501.038496363174,120.23332890581102 L508.914457971208,123.54885442380545 L518.6613829912749,129.38160417002493 L520.9582567735334,133.8902896802558 L524.578494920401,139.54921575854155 L527.8505682408185,143.70381601927767 L530.580112875363,146.06438434924138 L526.1638279651071,153.02162300900733 L519.3458818005572,156.62685464022445 L509.3724806312447,159.27283714099292 L499.39907946193114,160.55398195280068 L494.538292855774,163.03901661288972 L488.79357321935674,167.68719025170927 L482.73449116682434,173.53925373881012 L479.0094655479179,178.9900206098174 L476.17006307978784,184.43864150961554 L472.25574396300556,188.0460191120418 L466.2591963695945,191.81434455514767 L462.40910183244875,194.938878635536 L451.8035955898722,204.39617375385438 L445.49099545983063,208.32330106643042 L437.72658180590486,214.57666116962508 L433.24438219549506,216.81920108309066 L428.00500859358624,218.90293912708592 L418.6637124975356,220.50597962025233 L413.6761668526217,222.4309157947772 L409.1956573627292,225.15629923028075 L392.52937894710396,232.52985630460392 L388.8685779078352,234.45264650792 L384.2613093791871,238.70166950185455 L381.1041642539082,242.3069011330719 L375.5504282358831,247.43791829392933 L371.1307630845957,252.48738854884272 L364.69309403631377,259.2987011663927 L360.40018792378197,263.30737538491303 L355.47686685850243,266.35250853056607 L346.26063968069116,269.5585895168986 L339.7587460527716,269.47918858216366 L326.9442522948106,268.03494995846756 L311.2261314890819,265.8718109797371 L305.1670494365517,265.7108631390578 L301.568782856402,266.0327588204165 L297.0240487868742,268.1958977991469 L292.9829706313363,270.76033339397094 L286.4810770034167,277.1724953666362 L281.24170340150795,284.2263027308097 L279.41130288187077,287.51178465187746 L278.8434223882454,292.64065584152587 L279.72735541850335,304.8233343953478 L280.54706386912477,311.15609543327776 L282.3149299296406,318.8494022177504 L288.88104813719553,336.56439454852375 L290.0168091244473,341.77266667290735 L289.38470405118545,345.62039305074836 L287.2382509949201,349.14622374723064 L279.72735541850335,357.3223740537413 L276.3183823362273,362.13149553324 L271.1415431934376,370.46644770922126 L263.56811315790384,380.00528973348366 L259.90562199811654,383.2907716545514 L257.95015256024334,384.2521667562092 L251.25896543444907,386.016155090055 L245.19819326140146,386.57625357561903 L236.2354841611014,386.4174517061489 L231.87835346893314,387.938945293371 L227.7122063951548,392.9090146135492 L224.42999235163768,399.96282197772257 L223.5460593213786,403.1689029640552 L224.1781643946427,409.7398668061906 L223.356765823505,413.50819224929637 L220.07455177998565,417.9954180474363 L218.4976693378619,421.5212487439186 L217.9280987237181,426.0106205132678 L217.9280987237181,431.94208493510405 L219.1280842906075,436.10956102309444 L224.11562993552354,442.9230196118534 L229.4175379965526,449.4939834539886 L234.59268701882598,456.30744204274777 L238.00166010110098,460.31397029005905 L243.1159647847715,467.84847520506133 L249.55363383305348,474.82073566329046 L258.5180330538687,485.2415718544761 L264.45542642919537,491.6000845469147 L276.4620425801532,500.86209628520885 L286.0010827766621,508.98245134028394 L296.4071547982608,519.0556401956019 z"/>
	<path id="bartin-kurucasile" title="Kurucaşile" class="district" d="M333.1672760374684,94.44733885777077 L335.00274691865326,95.26280791721275 L336.8686399691384,94.40871137600772 L339.2398790541331,94.85507338749176 L342.80603334446295,94.25849339137369 L346.26063968069116,91.06528823229544 L346.8876743924042,88.75407724013998 L345.9834599159457,85.67675452635098 L347.37104886019245,84.2368078450731 L347.20710717006926,81.52644620803294 L348.46793707555935,80.1830682311626 L351.5642378622375,79.58648823504451 L354.7568755183688,80.14444074939959 L358.1590881185765,79.32897168995754 L362.35903760268775,77.4061814866417 L369.58768305280813,77.69159565744638 L373.39214433599955,76.20443760956925 L375.57916028466826,77.28386112772533 L380.7931820788288,76.04348976888991 L384.84440095746425,77.02849055384743 L386.225229419646,76.27954660188618 L391.0741851821871,76.66796739072572 L393.3034541437754,75.72159408753129 L396.7580604800015,76.3374878245308 L398.5191660584501,77.9941775979236 L402.3827815597292,77.21733602024462 L408.46383517897743,78.47702111996166 L409.3950915837048,75.99627840229061 L413.11842708209394,77.31175875344314 L417.25077174553496,77.16154076880903 L419.41412600696947,76.14864235813378 L419.71327733843395,73.71296503585299 L421.891842684517,71.57343174042221 L426.5768567569338,70.99401951397654 L430.1954047832885,69.82017326262182 L434.3429605313803,69.93390973670199 L435.3570328414264,70.73864894009863 L439.01952400121263,70.34164426642297 L441.89272887968093,65.16985365259333 L442.62286094291323,62.6976948197585 L444.6155130321573,61.21912065671765 L448.3456090126115,62.545330863915424 L451.1123362985237,64.14622538587274 L453.4970963476528,63.25993927653178 L454.98271228187116,61.785657055908935 L459.5781499668999,60.21695210208756 L462.8569837693857,61.174055261327425 L467.90537375290353,60.684773825662106 L468.7977573857438,61.586081733466514 L472.12222444218276,61.807116767999524 L473.21911265754966,61.22341259913574 L471.6658919026612,63.712739201642975 L469.6985916211697,64.81791437430782 L469.95718006023196,66.25142314195853 L471.95659263154107,68.25790622242766 L471.7639188926328,69.65064153710618 L469.2270479969975,70.86526124143309 L469.8321111419938,72.21722310313956 L468.9616990758692,74.36534028340661 L466.22877420029306,76.45337026981993 L466.0530016665516,77.80104018910836 L468.5070566568638,79.85688060738576 L469.0293038965382,85.29262567992961 L470.0737983758868,90.39789118627846 L471.1182928552364,92.98378649319328 L479.7328371290863,102.26511197236883 L481.1440877605694,103.52479707208579 L482.23928585541785,107.76952812360244 L480.9869065525113,113.93490340722592 L481.6663350002426,118.11096338005262 L483.178992862731,122.02306889416523 L485.9778324384588,123.84285247944642 L477.0370949048777,130.40308646553655 L470.02816512193465,133.74007169562177 L466.03779058190094,135.160704636018 L457.76296053191686,138.74447655514481 L450.6086803845337,141.0320818640006 L447.1608345303749,142.7831943705919 L442.6177905813623,144.43130025914832 L436.1936424972148,145.50213989246828 L432.6241079658481,145.50213989246828 L421.65691593269116,143.9355809098559 L408.5551016868817,144.4935334242109 L403.9799454480524,145.5429133454404 L400.28196175741607,146.90345909198317 L392.7372637706653,150.30267748713086 L384.9001749345183,154.3177896192783 L376.52900801507894,160.31363317738612 L371.3217467029878,163.4038317184297 L368.59558230947783,165.6270578910137 L361.73200289097576,169.76878232449553 L352.39577715647715,174.52425452376772 L349.1118729924394,164.34591307920596 L347.469075850164,159.98959152481828 L344.4251687995063,155.4508624176609 L343.6037702283686,152.81131783051964 L344.18348156560995,150.72543381531528 L346.7440141484805,146.73821930888568 L347.27640211125345,141.83038315377004 L346.84204113845203,137.7809354822778 L346.16430281123803,126.1240198746751 L345.6809283434476,124.46733010128226 L341.96097308609103,120.17324171195735 L339.20607664379696,120.11100854689462 L336.6945575559133,118.76119265639721 L334.7137363102896,116.308347564444 L333.50530014081676,113.79112333621904 L333.3126264019062,109.49703494689416 L334.03599798307454,102.01188736969998 L333.1672760374684,94.44733885777077 z"/>
	<path id="bartin-ulus" title="Ulus" class="district" d="M536.7422922794148,308.5315726445999 L530.9350381838784,309.5895364506655 L527.8404275177187,311.79559485357703 L525.6686226537007,314.8965232506657 L520.6743165267196,320.1369849431853 L517.3075964573632,324.9611282211475 L513.4524315586675,329.16723179090116 L511.6609038109175,332.5449904739584 L507.04687480020436,338.1288075599271 L500.9117373244195,344.88432492604136 L497.1106562822606,347.57322685099103 L490.8673510934033,351.2964868987066 L482.9947697264039,356.3974604626372 L475.1221883594035,360.46407590380215 L473.00446735192327,361.01559050453005 L463.2845842601221,359.98337835297303 L455.84636386592626,360.87824834715025 L435.4871721212145,361.4297629478781 L429.2438669323594,362.87829351399233 L419.41581612748575,365.9105508323912 L411.10887378768507,365.8418797537011 L408.1765146911322,366.4620654331191 L405.84245825750725,367.8419249205432 L393.73443487554437,377.97520096971493 L392.0510748408667,380.0439172152466 L391.3462945853838,382.1813045394684 L391.2922107288481,387.4882913394687 L395.3096271971518,393.00343734674755 L398.8385988361151,403.41354368188763 L402.7478475913475,411.4094324068376 L404.593459195631,414.64984893251506 L406.38498694338216,419.8903106250346 L407.1996250324527,424.5084406669272 L409.58945544313167,431.6094593977 L410.5122612452734,441.46590516090293 L407.60863419750353,445.6891765003292 L398.12536797804876,454.33100255920544 L391.9716391765795,459.01780367978796 L388.3530911502281,461.31613884468914 L382.34471271319876,466.64673132798896 L378.21743841130757,472.8056686979852 L376.1183087295095,480.1577660602176 L374.0191790477126,493.394116477687 L372.50652118522646,498.5659070915167 L370.1826054747013,500.0122916864218 L365.18660922720176,501.6668354886056 L362.58044339038236,502.1260733273439 L359.2509059723946,501.943665774574 L342.52885357971746,503.5982095767577 L337.53285733222015,504.8836463309834 L330.8737824962447,507.27425825787384 L326.3848224037698,508.01032638258073 L322.47557364853634,510.76789938622034 L314.1517301035697,515.1800161920432 L304.59578870189165,517.9375891956829 L296.4071547982608,519.0556401956019 L286.0010827766621,508.98245134028394 L276.4620425801532,500.86209628520885 L264.45542642919537,491.6000845469147 L258.5180330538687,485.2415718544761 L249.55363383305348,474.82073566329046 L243.1159647847715,467.84847520506133 L238.00166010110098,460.31397029005905 L234.59268701882598,456.30744204274777 L229.4175379965526,449.4939834539886 L224.11562993552354,442.9230196118534 L219.1280842906075,436.10956102309444 L217.9280987237181,431.94208493510405 L217.9280987237181,426.0106205132678 L218.4976693378619,421.5212487439186 L220.07455177998565,417.9954180474363 L223.356765823505,413.50819224929637 L224.1781643946427,409.7398668061906 L223.5460593213786,403.1689029640552 L224.42999235163768,399.96282197772257 L227.7122063951548,392.9090146135492 L231.87835346893314,387.938945293371 L236.2354841611014,386.4174517061489 L245.19819326140146,386.57625357561903 L251.25896543444907,386.016155090055 L257.95015256024334,384.2521667562092 L259.90562199811654,383.2907716545514 L263.56811315790384,380.00528973348366 L271.1415431934376,370.46644770922126 L276.3183823362273,362.13149553324 L279.72735541850335,357.3223740537413 L287.2382509949201,349.14622374723064 L289.38470405118545,345.62039305074836 L290.0168091244473,341.77266667290735 L288.88104813719553,336.56439454852375 L282.3149299296406,318.8494022177504 L280.54706386912477,311.15609543327776 L279.72735541850335,304.8233343953478 L278.8434223882454,292.64065584152587 L279.41130288187077,287.51178465187746 L281.24170340150795,284.2263027308097 L286.4810770034167,277.1724953666362 L292.9829706313363,270.76033339397094 L297.0240487868742,268.1958977991469 L301.568782856402,266.0327588204165 L305.1670494365517,265.7108631390578 L311.2261314890819,265.8718109797371 L326.9442522948106,268.03494995846756 L339.7587460527716,269.47918858216366 L346.26063968069116,269.5585895168986 L355.47686685850243,266.35250853056607 L360.40018792378197,263.30737538491303 L364.69309403631377,259.2987011663927 L371.1307630845957,252.48738854884272 L375.5504282358831,247.43791829392933 L381.1041642539082,242.3069011330719 L384.2613093791871,238.70166950185455 L388.8685779078352,234.45264650792 L392.52937894710396,232.52985630460392 L409.1956573627292,225.15629923028075 L413.6761668526217,222.4309157947772 L418.6637124975356,220.50597962025233 L428.00500859358624,218.90293912708592 L433.24438219549506,216.81920108309066 L437.72658180590486,214.57666116962508 L445.49099545983063,208.32330106643042 L451.8035955898722,204.39617375385438 L462.40910183244875,194.938878635536 L466.2591963695945,191.81434455514767 L472.25574396300556,188.0460191120418 L476.17006307978784,184.43864150961554 L479.0094655479179,178.9900206098174 L482.73449116682434,173.53925373881012 L488.79357321935674,167.68719025170927 L494.538292855774,163.03901661288972 L499.39907946193114,160.55398195280068 L509.3724806312447,159.27283714099292 L519.3458818005572,156.62685464022445 L526.1638279651071,153.02162300900733 L530.580112875363,146.06438434924138 L533.1423355787466,150.51083669440942 L534.325419940469,155.1954918437829 L537.3896084373296,160.2342322426511 L544.0740350810544,162.97463747661806 L548.0424380543723,163.5046923652554 L553.890255042311,162.09049733848622 L559.8766619126212,158.90802203545314 L562.6619805242178,160.50033267257425 L565.7954639622625,160.14624742307956 L568.6500775150477,159.1741224653763 L572.2044009617614,154.55170048106544 L575.7773157341595,153.07956423165183 L580.2696560676702,150.32199122801248 L586.3540899279509,147.37771872918483 L591.0864273748361,155.53240932360507 L592.3895102932458,156.88222521410248 L596.6317127902778,159.2449395152753 L597.7083195594452,161.2406927396991 L598.144370652764,164.88455185267952 L597.4581817229665,169.32242031301138 L595.9607349451311,175.18521365615754 L592.9033069303389,189.36793737682154 L591.7168423275839,193.4860561270038 L588.9095521492694,199.58705227435547 L586.7259164416354,202.3617930476674 L584.4172118157609,207.11511927573076 L582.9806093765284,211.7096436343237 L581.1096459644912,216.30631396412593 L577.6770111949797,222.88156974867945 L572.9345330249948,228.19070251988865 L571.7497585427561,230.645693583051 L571.1244139515593,238.96562396056868 L570.3131561035214,242.13522343634725 L570.6883628582417,249.10748389457657 L571.3745517880402,256.23854622227606 L570.5632939400023,263.052004811035 L566.3819357815744,270.6573267759364 L561.5769231524691,275.6510017794141 L555.1510849478032,284.28638992466335 L552.1545012716127,288.96031521799154 L546.4773864558657,293.71364144605496 L542.79461384988,297.83390616744606 L540.7360470604821,300.92410470848955 L536.7422922794148,308.5315726445999 z"/>
	
</g></g></svg>