<svg xmlns="http://www.w3.org/2000/svg" version="1.2" baseProfile="tiny" width="600" height="600" stroke-linecap="round" stroke-linejoin="round"><rect id="backgroundrect" width="100%" height="100%" x="0" y="0" fill="none" stroke="none" class="" style=""/>































































































































































































































































































































































































































































































































































































































<g class="currentLayer" style=""><title>Layer 1</title><g class="city city-81" id="duzce" title="Düzce">
	<path id="duzce-cilimli" title="Çilimli" class="district" d="M127.6754444337744,314.307403744656 L129.19075964916368,311.45051623173345 L133.39150034981103,307.6967786772387 L133.77555953162067,305.0851102005392 L130.18453146201702,301.14788707348595 L127.29885722048365,299.3816240853043 L123.67644688310551,297.8365726752541 L119.1544115361975,296.5110180249004 L112.68518119357833,295.17003000863053 L113.12602733612334,292.2428349398673 L114.3454525982107,288.490812203808 L116.97409112273445,284.8108118420237 L117.9364806678133,279.5120228774787 L117.83934507708352,275.4290401834397 L116.84557326423018,264.5742394890811 L117.55092709230155,257.620650734638 L117.64806268303133,251.99090181211346 L113.64009877014038,250.22463882393203 L112.38929124027854,247.24428438368003 L112.29365004325192,243.04469403605214 L119.02290489028695,242.47537431558976 L125.16336861812658,242.2678812849391 L129.2729513028578,242.57826342169744 L134.37630580044336,244.18504829541206 L138.0330871930023,244.18504829541206 L146.52273782280577,246.10221530588484 L151.12995361081522,245.99932619977716 L153.47764611907485,245.53289558542244 L156.1869819035906,242.52681886864352 L160.56704984866184,238.7439294007517 L164.67663253339305,236.77531783722503 L166.58646768651505,235.45147800530646 L167.51299178271097,238.2432024176944 L167.55334041270646,244.44398587911644 L170.66616249717595,252.80715538723433 L174.1869540627149,255.110156545611 L176.39716235024719,259.1502687787719 L177.13389844609196,265.91522750535097 L177.9124775656354,267.88898352418306 L182.17000522701704,273.2906615948354 L184.70898012932992,280.94904072611604 L186.22429534471814,284.051147275262 L187.94284810378792,286.4467486291355 L189.00835081441124,290.8624060995894 L186.63375921948654,297.7216798401005 L183.11296765394968,305.0988287480202 L179.6728733484038,306.7433396273077 L168.37226816224432,307.070869948417 L163.37800440501786,306.46039458551166 L156.58150184132438,306.2734793760827 L152.32247978623857,306.78963972505625 L149.12896044177708,307.86997533918674 L144.25723696824022,310.8777668744008 L138.6487773988607,312.84980807479775 L132.0973554025474,313.36768324220606 L127.6754444337744,314.307403744656 z"/>
	<path id="duzce-akcakoca" title="Akçakoca" class="district" d="M97.80849187484978,149.8837529108664 L112.39975199620267,150.42906517323712 L119.48018936356866,151.79577546603394 L119.37857059172947,147.83283006245375 L123.60471598533658,147.45899964359592 L126.54119961278954,147.77795587252956 L129.35813174396029,147.52930719943612 L137.62212892452865,144.58324912788675 L146.51676024799107,145.3754952449156 L149.66096460023715,146.1797450909906 L152.6497520073139,145.51611035659602 L155.33218870516674,144.29344481235 L161.3814944170913,144.68270859712402 L167.35608044383747,143.2799871171896 L173.58919658129741,141.29594218774673 L179.13489161512905,138.5985327892908 L188.27759229338113,136.28524272030336 L191.3709872597044,135.8702566590024 L200.31343918168125,135.52386333510668 L202.91667301324412,134.6287281119701 L206.1968671925123,134.12800112891262 L212.905200527697,134.5018315477706 L223.4705640117159,132.31543804298263 L229.44066685735476,132.4732013390145 L232.14402506705585,132.30857876924213 L238.20080274749824,130.49944532018242 L241.19706212309177,130.0055776108656 L253.35993247619513,129.98499978964404 L259.35095683368115,128.91323826768917 L265.096900623787,126.38388107587576 L268.2635208815866,125.39614565724214 L271.11781285534335,126.04949148102577 L273.9377337739214,125.80598726323771 L280.04681523398654,122.93881083970419 L283.4002347047289,121.86533449931406 L292.1543930200598,120.93933254434515 L292.93147774589795,123.40524145405877 L294.57082763867993,126.50220354789961 L299.0315928437442,133.1865658080277 L304.1229921917004,137.16151494065377 L306.9563626536089,138.48706959100733 L309.2128971459524,138.7271441719253 L319.7095185196087,137.94518696550705 L328.84175844193345,138.1252429011954 L334.24698046763353,138.84889628081942 L337.76328885205885,139.81262424136116 L341.5949143079322,142.34198143317462 L343.8514488002768,144.68956787086455 L344.7959056209115,147.03886912698954 L346.4756041436911,148.7845542939496 L349.83500118924496,150.7720288602626 L351.04097690800086,152.157602155846 L348.7575433289944,153.86384649879804 L345.0828292119925,158.8231014131875 L343.9306516665646,161.17926194305306 L339.03202910636475,166.4283211729791 L334.31273379058774,168.3300548175357 L329.5217075770429,170.76852663228738 L325.6318007667321,172.38045596130755 L318.2121360286635,179.03566630803843 L315.3294505745375,182.7139518513874 L314.32222921835165,184.61568549594418 L311.6203654023537,187.716077226655 L307.1177571735908,191.6841670855407 L301.17455341461806,196.0655281872921 L298.1484061649521,199.2893868453323 L296.9230033280501,201.10880920500279 L293.53820158953533,204.99287296056713 L291.5745682630853,206.47962054382296 L289.9352183703044,207.72114909085542 L288.24207030419547,207.96979776394903 L279.9212861628907,206.93576224756703 L276.6799462199148,206.81229532023764 L273.32951553658086,206.02690847694916 L268.8269073078201,204.45613479037226 L265.0625295686041,204.69963900816032 L263.03015413179253,205.58105568381598 L257.1601756642929,206.87574360233748 L250.477247022068,206.87574360233748 L247.0446246850389,205.94288237362792 L241.12981440643227,202.10854835268233 L237.02023172170107,200.60636740351038 L230.69745196202916,200.4503189259138 L227.85212635049237,201.48606926073094 L224.1041869420173,205.01002114491845 L219.99460425728608,207.65255635345034 L211.09847854011946,209.0518481965145 L205.45415352185285,212.05792491329356 L199.94581833061147,216.669071685352 L196.1067209062192,218.06836352841634 L194.48082055676974,221.85125299630812 L186.03600173807115,226.77449672356 L178.94659800848524,227.29237189096864 L175.3346484270312,227.81024705837712 L169.59916539285058,230.45278226690886 L168.24375030374108,233.30281050609136 L166.58646768651505,235.45147800530646 L164.67663253339305,236.77531783722503 L160.56704984866184,238.7439294007517 L156.1869819035906,242.52681886864352 L153.47764611907485,245.53289558542244 L151.12995361081522,245.99932619977716 L146.52273782280577,246.10221530588484 L138.0330871930023,244.18504829541206 L134.37630580044336,244.18504829541206 L129.2729513028578,242.57826342169744 L125.16336861812658,242.2678812849391 L119.02290489028695,242.47537431558976 L112.29365004325192,243.04469403605214 L108.36488899664772,241.59395763993393 L98.34049603331093,237.29319300463362 L91.20476609891378,233.5103035367417 L84.63541137815747,230.45106744847385 L81.83342318402242,225.17971557889118 L81.66306230181954,223.81472010452944 L83.76268545529058,220.3456424102659 L88.03665144740998,218.30843810933413 L91.30190168964353,217.55906245318334 L96.20799621836119,214.01796238464448 L96.9312827708745,212.0459211842475 L96.07947835985692,207.84290119974952 L95.07823457848576,207.1055292726445 L92.23589775435522,207.10895890951474 L90.84162842895344,206.15551985958376 L88.92282691361046,202.5561159642506 L88.9198381262031,201.25285395355365 L95.09317851552038,199.61005789270126 L103.56937960199343,193.92371996181754 L106.03363481912794,191.73904127546473 L108.97460162769138,187.3079504390947 L108.6802060680958,184.94493063548862 L109.17036720285512,183.41874222822497 L116.33000743650999,180.30120231316255 L119.98230564795844,180.06798700598526 L122.02813062810253,178.60524688082128 L125.45328099661381,172.3718818691319 L125.80446351694474,170.20263654869544 L124.02015743491967,168.0728320522666 L122.36287481769466,167.7178646361952 L120.03460942758119,168.63529249898863 L115.32278608032414,171.77341023527228 L112.709091492835,171.91916980225824 L108.79527438326753,170.82854527751695 L107.07971041160508,168.86679298773078 L108.37833853998023,168.0591135047857 L108.86999406844484,166.42146189923858 L108.05853828742272,162.90608410722666 L105.66750836176132,159.51760287941426 L103.29590555424502,158.23491868993867 L98.04908926112054,156.1548439281288 L96.02866897393733,155.7432875036981 L91.72929828885495,156.53724843916228 L92.72755328281983,154.978478481631 L97.46179253562931,150.5388135530853 L97.80849187484978,149.8837529108664 z"/>
	<path id="duzce-cumayeri" title="Cumayeri" class="district" d="M112.29365004325192,243.04469403605214 L112.38929124027854,247.24428438368003 L113.64009877014038,250.22463882393203 L117.64806268303133,251.99090181211346 L117.55092709230155,257.620650734638 L116.84557326423018,264.5742394890811 L117.83934507708352,275.4290401834397 L117.9364806678133,279.5120228774787 L116.97409112273445,284.8108118420237 L114.3454525982107,288.490812203808 L113.12602733612334,292.2428349398673 L112.68518119357833,295.17003000863053 L106.3609070402033,295.84909810894095 L103.34671494016567,296.6224812231837 L97.86378444188094,297.4678867117015 L95.04236912960079,298.3887442113652 L88.88546707102128,302.0310185675766 L80.74102138673618,302.250515327273 L71.05735018780516,301.257635453334 L68.7186240417665,299.9115029817587 L66.0556144620609,296.14404687978305 L64.80480693219903,293.0899552468205 L62.88152223574451,291.5449038367706 L59.61029441869729,289.74091484301596 L52.42823827949212,289.52141808331953 L49.25414605317468,288.7480349690769 L44.73360509996982,292.31657213257773 L42.74307268685689,295.74963863970356 L39.69450953163849,293.7381566152986 L33.52415792972644,293.6987157912909 L24.33513104666632,295.31064512031077 L22.72417463425147,295.0362741706905 L17.616336955557514,292.47947988391496 L15.49130910912561,292.00618999581957 L8.942875900218624,292.28227576387525 L6.233540115702851,293.1876998976228 L3.2522246771439285,291.57405575016764 L2.1882163602237767,289.3310732370204 L1.949113367657219,287.4430581399448 L2.669411132764253,282.64328134002216 L3.6631829456165264,280.4020136453103 L4.1428833244527965,277.84350454009973 L6.6803638330614925,272.92712008658833 L9.388205223873058,267.7346498650215 L11.06790374665053,266.59258078722644 L13.639755310439995,265.8843607735186 L18.8163350994987,265.33390405584265 L26.83824050009423,263.91746402842705 L33.48978687454462,262.38270152898775 L39.9007358627253,258.0167737931525 L43.32887501864391,254.87008196469304 L46.27731379572518,250.77852517847822 L48.883536414698625,250.18862763679425 L52.24293346025249,248.7327467853708 L56.04765982946185,246.37144180019988 L61.189868563338706,241.88719159234074 L64.99608932625122,237.20573726444212 L71.4414093696148,233.6251963718953 L72.94925261648518,232.56372376055123 L76.82421548976032,228.2749628542967 L81.66306230181954,223.81472010452944 L81.83342318402242,225.17971557889118 L84.63541137815747,230.45106744847385 L91.20476609891378,233.5103035367417 L98.34049603331093,237.29319300463362 L108.36488899664772,241.59395763993393 L112.29365004325192,243.04469403605214 z"/>
	<path id="duzce-merkez" title="Merkez" class="district" d="M123.23111755945214,320.1429308793961 L125.54593340623308,315.6689695821476 L127.6754444337744,314.307403744656 L132.0973554025474,313.36768324220606 L138.6487773988607,312.84980807479775 L144.25723696824022,310.8777668744008 L149.12896044177708,307.86997533918674 L152.32247978623857,306.78963972505625 L156.58150184132438,306.2734793760827 L163.37800440501786,306.46039458551166 L168.37226816224432,307.070869948417 L179.6728733484038,306.7433396273077 L183.11296765394968,305.0988287480202 L186.63375921948654,297.7216798401005 L189.00835081441124,290.8624060995894 L187.94284810378792,286.4467486291355 L186.22429534471814,284.051147275262 L184.70898012932992,280.94904072611604 L182.17000522701704,273.2906615948354 L177.9124775656354,267.88898352418306 L177.13389844609196,265.91522750535097 L176.39716235024719,259.1502687787719 L174.1869540627149,255.110156545611 L170.66616249717595,252.80715538723433 L167.55334041270646,244.44398587911644 L167.51299178271097,238.2432024176944 L166.58646768651505,235.45147800530646 L168.24375030374108,233.30281050609136 L169.59916539285058,230.45278226690886 L175.3346484270312,227.81024705837712 L178.94659800848524,227.29237189096864 L186.03600173807115,226.77449672356 L194.48082055676974,221.85125299630812 L196.1067209062192,218.06836352841634 L199.94581833061147,216.669071685352 L205.45415352185285,212.05792491329356 L211.09847854011946,209.0518481965145 L219.99460425728608,207.65255635345034 L224.1041869420173,205.01002114491845 L227.85212635049237,201.48606926073094 L230.69745196202916,200.4503189259138 L237.02023172170107,200.60636740351038 L241.12981440643227,202.10854835268233 L247.0446246850389,205.94288237362792 L250.477247022068,206.87574360233748 L257.1601756642929,206.87574360233748 L263.03015413179253,205.58105568381598 L265.0625295686041,204.69963900816032 L268.8269073078201,204.45613479037226 L273.32951553658086,206.02690847694916 L276.6799462199148,206.81229532023764 L279.9212861628907,206.93576224756703 L288.24207030419547,207.96979776394903 L289.9352183703044,207.72114909085542 L291.5745682630853,206.47962054382296 L292.24106785486333,214.7278972167876 L293.5202688650923,222.79954759093388 L293.15414240772566,232.86210216826345 L292.0572574293279,234.80156181839305 L292.0124256182219,236.53009880100183 L290.5509085761607,238.05114275296006 L288.0851589653219,239.51731251499433 L286.4398314977263,244.86411639572265 L287.0794320028413,250.629335974622 L288.4961172337956,255.08443426908406 L290.4597505602456,259.5909771165998 L291.6014673497493,264.72685832980744 L291.23534089238274,269.3911644733549 L291.8749413974967,271.59299134405904 L295.20893375009183,274.68480898259435 L300.37056960211487,277.30505155146955 L309.5969563277631,280.0316128633226 L315.1232242434475,282.3894882116232 L320.05621785882914,284.1197400126672 L324.3944427802028,286.0060402913078 L331.062427485392,289.9895635161097 L336.5901897947816,292.71441000952757 L346.7296510732912,296.330962089212 L348.9219266363826,296.80253715887227 L353.762267842145,298.7934413620554 L351.47733986943325,303.2776915699144 L346.96875406585673,310.0992393048528 L344.09503497395275,313.45342416396267 L338.8437354997178,320.90088062772236 L336.31821014073745,323.1747298727017 L329.0345352296888,328.1768552479697 L320.61213231654585,332.15694883590106 L302.33868610967426,338.2771358308721 L294.1269927087297,341.38953129062895 L283.57358437434016,343.81942901320485 L273.5043595998953,344.0766517784743 L269.826656695486,343.86229947408293 L267.709100817573,344.50192675038585 L266.2221790825519,345.6954403812346 L265.6647702311321,348.680939276792 L265.62741038854284,352.04884268338316 L264.2465906064736,358.2599150554159 L264.4453449690447,360.5337643003953 L266.8722403435911,364.3989650531731 L273.11432284327094,373.2114169912945 L276.1778299355261,379.3504669890518 L278.4896569948997,387.84053306136957 L279.87645435178575,391.0232360769666 L281.6607604338098,393.44970416267256 L285.8226468981648,398.1483066749225 L287.0106898924787,399.8922770234474 L290.3132999772994,408.0033682216017 L293.8804177476453,415.8109365567384 L295.1357084586187,419.6006852983706 L295.1357084586187,421.5710116803325 L294.4094331186991,424.9063335366558 L290.5778076628247,433.77537448313666 L289.85153232290503,436.1246757392617 L288.59624161193375,445.0691686968882 L284.23709517871083,452.1187872836985 L279.94370206844314,460.0018076299807 L278.5583991052644,464.8581734382624 L272.05928088857286,465.40863015593834 L265.2926661989497,467.1817524178606 L263.5352592035886,468.03744681698936 L261.51035573529487,470.4210444418169 L258.15394747714623,472.866375530309 L253.73203650837428,473.84553685676696 L250.85532862906405,473.72378474787286 L242.01150669152122,472.6828899577504 L239.0286968592581,470.17754022402875 L233.9671853853722,464.30771672058637 L231.46258153824112,462.169338131982 L224.58986489566723,453.54894585859495 L222.3527575214688,451.28710034266106 L219.68974794176427,450.00270133475067 L213.77493766315763,448.720017145275 L210.0464253728287,448.65828368161056 L206.58391516172827,448.04609350026976 L190.38767620277628,447.1903991011412 L176.21634071211912,444.99028704887206 L169.82332444838147,443.4623838231733 L159.44027699619483,443.4075096332492 L160.20839535981196,441.6549651925487 L159.857212839481,439.3485343973019 L161.5802487796613,437.5531194957232 L160.04849523353323,433.41354779332494 L160.20839535981196,432.20631561499476 L158.83654193996477,429.09220533680275 L157.97427677302198,429.09220533680275 L157.71873544971663,426.34506620372804 L159.154847798817,424.7708628802809 L158.7722830107126,421.8042269875098 L160.52819561237055,419.78931532623477 L160.0171129657598,417.8121296705324 L161.32620185005908,416.5534529391485 L161.5174842441134,412.4155960551853 L161.39344956671857,404.5771609882164 L161.56082166151515,397.765902163889 L158.85596905810985,390.32187533699954 L158.6407763648,385.9542327827288 L157.3003052127262,384.82759707084995 L157.27639491346952,383.26196783957846 L154.64327320783528,377.63050409861864 L152.87092227543747,376.2294974371197 L147.83033231340085,374.23001914176064 L144.7369373470765,371.01816421276635 L143.01689019430356,367.6279681665186 L135.38502155033024,351.16914082616245 L134.6318471237477,348.23851612052897 L135.28190838478685,346.626586791509 L137.14541733309866,344.5447972112639 L138.15712187039608,342.4304260807515 L138.70406996589077,339.3694751740482 L138.30207805964022,335.69633408600475 L136.616401962047,330.64619379455354 L134.97406328185872,327.470350052697 L133.72325575199687,326.27512160341274 L128.97407256215064,323.06498149285375 L123.23111755945214,320.1429308793961 z"/>
	<path id="duzce-golyaka" title="Gölyaka" class="district" d="M123.23111755945214,320.1429308793961 L128.97407256215064,323.06498149285375 L133.72325575199687,326.27512160341274 L134.97406328185872,327.470350052697 L136.616401962047,330.64619379455354 L138.30207805964022,335.69633408600475 L138.70406996589077,339.3694751740482 L138.15712187039608,342.4304260807515 L137.14541733309866,344.5447972112639 L135.28190838478685,346.626586791509 L134.6318471237477,348.23851612052897 L135.38502155033024,351.16914082616245 L143.01689019430356,367.6279681665186 L144.7369373470765,371.01816421276635 L147.83033231340085,374.23001914176064 L152.87092227543747,376.2294974371197 L154.64327320783528,377.63050409861864 L157.27639491346952,383.26196783957846 L157.3003052127262,384.82759707084995 L158.6407763648,385.9542327827288 L158.85596905810985,390.32187533699954 L161.56082166151515,397.765902163889 L161.39344956671857,404.5771609882164 L161.5174842441134,412.4155960551853 L161.32620185005908,416.5534529391485 L160.0171129657598,417.8121296705324 L160.52819561237055,419.78931532623477 L158.7722830107126,421.8042269875098 L159.154847798817,424.7708628802809 L157.71873544971663,426.34506620372804 L157.97427677302198,429.09220533680275 L158.83654193996477,429.09220533680275 L160.20839535981196,432.20631561499476 L160.04849523353323,433.41354779332494 L161.5802487796613,437.5531194957232 L159.857212839481,439.3485343973019 L160.20839535981196,441.6549651925487 L159.44027699619483,443.4075096332492 L157.46319412641122,443.4623838231733 L150.8564795630668,444.4398303311963 L142.1725577518038,446.8851614196883 L131.57132881890098,449.6974636532981 L128.58702459293363,451.22536687899674 L124.91081608222854,453.91591700371197 L119.15740032360486,454.77161140284085 L114.4694872756034,454.8333448665057 L108.34247309109526,456.54473366476293 L99.92455335906175,461.0684246966301 L93.10563488981583,462.47457581343457 L79.14799769876225,463.3920036762283 L71.5295785981236,461.86238563209423 L67.28699487377656,460.5008197946028 L65.28301291733217,458.61280469752705 L63.55399940233613,453.643260872527 L65.58786923285402,452.0381908172472 L68.14776564701515,447.4236144083185 L71.4473869444295,440.83185234368744 L72.04066124473329,437.2118706271327 L77.48025432561417,432.019400405566 L78.07502301962322,430.3405931575757 L78.34999146107478,424.04549468222183 L79.35571842355537,422.73537339778414 L80.36144538603597,417.6475071007603 L81.32084614370746,416.3871155509413 L81.82296242809619,413.6073948675993 L81.7318044121811,409.6221568243621 L80.4526034019521,404.63889445188113 L78.62346550882106,401.5436471764754 L74.6468838637046,398.815371046187 L73.32135664866544,398.290636605038 L69.75573327202372,398.815371046187 L59.79111605682644,400.91430881078327 L56.45413491682396,402.9069278324021 L53.98539651858002,403.9563967147001 L52.88851154018221,403.79863341866843 L51.19685786777643,401.12351665986904 L49.00308791097979,395.19710414806775 L46.03223322834498,388.27266730702166 L43.15104216792318,386.01768106482865 L39.99787145345718,386.06912561788255 L38.30621778105137,386.90938665109496 L36.52340609272946,386.54241550597766 L33.32390917345327,387.5901695698409 L29.575969764978197,387.6433289413298 L25.69054613577684,388.11490401098985 L21.965022632854215,389.0271874184778 L22.37000332651317,387.3175134386555 L25.768254608360436,381.3499452844109 L29.8225447260605,378.3901686653804 L34.489536262212624,376.2294974371197 L40.017298571603334,374.3500564322196 L42.63697073390614,372.1413702877748 L44.39736651667454,367.1152374544154 L45.79014144837106,364.5773061704262 L49.47382192759508,359.5511733370671 L51.97244819991144,358.14159258339197 L59.62822714314032,354.8988709225652 L66.9163852352984,352.64388468037225 L76.94675577345095,349.96533828470274 L79.03591817099786,349.7304081590902 L85.75022908099723,349.8247231730222 L89.35321230022922,348.6980874611435 L93.16092745684594,346.1138560794059 L97.86976201669668,340.1943028413447 L99.30139118468662,338.0799317108323 L103.06875771130785,333.89748954755567 L107.8597839248527,330.75079771909606 L113.18131990315342,329.20060185374086 L117.6032308719243,326.5683555558196 L122.31206543177507,321.49420780627673 L123.23111755945214,320.1429308793961 z"/>
	<path id="duzce-gumusova" title="Gümüşova" class="district" d="M127.6754444337744,314.307403744656 L125.54593340623308,315.6689695821476 L123.23111755945214,320.1429308793961 L122.31206543177507,321.49420780627673 L117.6032308719243,326.5683555558196 L113.18131990315342,329.20060185374086 L107.8597839248527,330.75079771909606 L103.06875771130785,333.89748954755567 L99.30139118468662,338.0799317108323 L97.86976201669668,340.1943028413447 L93.16092745684594,346.1138560794059 L89.35321230022922,348.6980874611435 L85.75022908099723,349.8247231730222 L79.03591817099786,349.7304081590902 L76.94675577345095,349.96533828470274 L66.9163852352984,352.64388468037225 L59.62822714314032,354.8988709225652 L51.97244819991144,358.14159258339197 L49.47382192759508,359.5511733370671 L45.79014144837106,364.5773061704262 L44.39736651667454,367.1152374544154 L42.63697073390614,372.1413702877748 L40.017298571603334,374.3500564322196 L34.489536262212624,376.2294974371197 L29.8225447260605,378.3901686653804 L25.768254608360436,381.3499452844109 L22.37000332651317,387.3175134386555 L21.965022632854215,389.0271874184778 L19.198899887605208,387.9571407149583 L17.32493018336821,386.17372954242535 L14.079107059280801,380.7720514717727 L12.708748033136729,375.0016874375678 L13.94162283855556,372.8513051199179 L15.495792290235045,371.80183623761945 L19.24522609241326,370.33395165715 L23.907734447455965,366.13779094639256 L24.318692715928563,364.30122040237075 L24.027285943738192,361.2059731269652 L20.35854940155093,355.38416453970655 L19.46789075424313,351.64757516956314 L20.22255957452883,350.19169431813947 L22.381958476142557,348.26423839705603 L24.610099488117868,345.470799166233 L28.689794298778764,342.20578486574954 L30.266379656012845,340.08112482462644 L32.87260227498416,338.1142280795349 L36.64295758901167,333.5888222292327 L37.84295573295287,332.76399456193616 L43.05390657719235,332.9594838635409 L52.482036452817994,332.05577454822844 L57.419513249311194,330.67877534482074 L62.1851347698952,327.41376104433783 L62.83669042463748,326.2322511425345 L62.1851347698952,321.78744175868354 L61.4304659496095,320.3710017312678 L59.167953882450234,318.44354581018456 L56.73358653938706,318.36466416216854 L53.99137409339258,320.44988337928385 L51.9335939636191,321.35530751303116 L48.883536414698625,321.94520505471513 L41.4429501647775,321.78744175868354 L39.38666442870823,320.4104425552761 L37.60385274038737,317.42151402284816 L37.84295573295287,313.1721939406018 L38.66636666360333,310.694281301842 L44.73509949367508,303.10106527109645 L45.111686706964775,300.0709810962255 L42.74307268685689,295.74963863970356 L44.73360509996982,292.31657213257773 L49.25414605317468,288.7480349690769 L52.42823827949212,289.52141808331953 L59.61029441869729,289.74091484301596 L62.88152223574451,291.5449038367706 L64.80480693219903,293.0899552468205 L66.0556144620609,296.14404687978305 L68.7186240417665,299.9115029817587 L71.05735018780516,301.257635453334 L80.74102138673618,302.250515327273 L88.88546707102128,302.0310185675766 L95.04236912960079,298.3887442113652 L97.86378444188094,297.4678867117015 L103.34671494016567,296.6224812231837 L106.3609070402033,295.84909810894095 L112.68518119357833,295.17003000863053 L119.1544115361975,296.5110180249004 L123.67644688310551,297.8365726752541 L127.29885722048365,299.3816240853043 L130.18453146201702,301.14788707348595 L133.77555953162067,305.0851102005392 L133.39150034981103,307.6967786772387 L129.19075964916368,311.45051623173345 L127.6754444337744,314.307403744656 z"/>
	<path id="duzce-kaynasli" title="Kaynaşlı" class="district" d="M388.58313552829947,335.7786453708909 L386.389365571505,341.24548654207814 L382.12735472901284,348.2145086624374 L379.3567488026523,353.4721419845391 L376.6922448292425,356.9566530447187 L374.3490355020944,362.0308007942617 L372.53783033340426,367.1666820074693 L371.36473127612703,369.6120130959615 L369.71342623371675,376.70278732521473 L367.8484228917018,385.6901507437192 L366.1448140696666,396.3889029604813 L363.85390852214124,405.9250082782268 L361.08330259578065,414.7288861241728 L357.40709408507666,423.1040593613367 L351.33387807389335,434.1080492595515 L345.68656426822145,441.93276577903936 L341.9042538045645,446.1512191294536 L339.2935480044827,447.98607485504033 L336.2569399988927,452.5097658869074 L332.47462953523575,455.9942769470872 L329.65022543554824,456.91170480988035 L324.48261200871053,457.64393228167984 L321.3399020501697,458.56136014447327 L316.59819082884025,461.00669123296524 L312.6559802389046,463.69724135768087 L310.7371787235616,465.4703636196029 L307.9665727972021,466.693029163849 L303.65225817508514,467.6704756718719 L300.66795394911776,467.97571335332475 L297.52524399057694,466.9365333816373 L294.7546380642164,465.53038226483227 L291.9317283582299,464.7981547930328 L287.93571959496836,464.55293575680975 L278.5583991052644,464.8581734382624 L279.94370206844314,460.0018076299807 L284.23709517871083,452.1187872836985 L288.59624161193375,445.0691686968882 L289.85153232290503,436.1246757392617 L290.5778076628247,433.77537448313666 L294.4094331186991,424.9063335366558 L295.1357084586187,421.5710116803325 L295.1357084586187,419.6006852983706 L293.8804177476453,415.8109365567384 L290.3132999772994,408.0033682216017 L287.0106898924787,399.8922770234474 L285.8226468981648,398.1483066749225 L281.6607604338098,393.44970416267256 L279.87645435178575,391.0232360769666 L278.4896569948997,387.84053306136957 L276.1778299355261,379.3504669890518 L273.11432284327094,373.2114169912945 L266.8722403435911,364.3989650531731 L264.4453449690447,360.5337643003953 L264.2465906064736,358.2599150554159 L265.62741038854284,352.04884268338316 L265.6647702311321,348.680939276792 L266.2221790825519,345.6954403812346 L267.709100817573,344.50192675038585 L269.826656695486,343.86229947408293 L273.5043595998953,344.0766517784743 L283.57358437434016,343.81942901320485 L294.1269927087297,341.38953129062895 L302.33868610967426,338.2771358308721 L320.61213231654585,332.15694883590106 L329.0345352296888,328.1768552479697 L336.31821014073745,323.1747298727017 L338.8437354997178,320.90088062772236 L344.09503497395275,313.45342416396267 L346.96875406585673,310.0992393048528 L351.47733986943325,303.2776915699144 L353.762267842145,298.7934413620554 L356.4118278785191,301.4153987493658 L360.70522098878575,311.3733494021526 L362.48653828340343,315.09450540638 L367.14456345733464,320.6488023177586 L371.7577568201577,322.8506291884628 L373.4942423036705,324.5277216180176 L376.6459186244323,329.87281068031086 L381.4862598301936,333.0177876903351 L388.58313552829947,335.7786453708909 z"/>
	<path id="duzce-yiglica" title="Yığlıca" class="district" d="M598.1598972999732,189.2765620026214 L595.8166879728251,195.2578487043469 L590.5414781993335,202.8990796512761 L588.0383687459066,207.4845041468077 L586.8503257515937,211.16964896389737 L586.3287823490577,211.40972354481536 L583.1367573982994,213.16912725925627 L579.7803491401519,214.08655512204973 L577.9153457981348,214.1482885857144 L575.0924360921504,215.06571644850766 L573.0137344505276,216.3484006379831 L570.8827290292821,216.53188621054187 L567.5801189444614,217.99977079101112 L565.8212175553962,218.24327500879932 L565.6090136494936,219.89464516182733 L563.8501122604283,220.01639727072148 L561.3993065866252,221.36252974229672 L558.1504946751327,223.99134640334756 L557.0311937911824,224.41833619369447 L550.1584771486074,224.96879291137037 L544.884761768819,226.9854193910806 L542.5938562212937,228.45330397154999 L541.6344554636232,229.85945508835476 L539.4496518690496,231.02038716893622 L535.6673414053928,231.5708438866124 L533.0043318256871,234.5666316927805 L526.4514154356707,235.178821874121 L524.320410014422,234.99533630156236 L520.2182992982086,237.6841716078426 L514.7308856188166,238.41811389807737 L511.8541777395021,240.4364551962227 L508.2840711817498,246.05934484500654 L502.42305907647017,249.72734147774491 L498.74834495946925,253.8857761829297 L497.04324174373096,257.6137914608975 L495.9777390331087,261.77222616608236 L496.08384098605836,263.54363360956927 L497.5229421225672,266.66288834306664 L497.4691439492392,267.64033485108945 L494.75233619620667,270.94136033871035 L492.1416303961248,272.7144826006325 L490.4365271803865,273.14147239097935 L486.12071816456637,272.95970163685587 L484.2034110429265,275.526784834242 L482.60440978014105,279.3165335758745 L479.8352982474837,280.96790372890234 L475.785491310893,282.3740548457072 L470.88387996328595,284.5124334343116 L464.0111633207131,286.10207012367493 L458.52374964131775,286.59250819612134 L456.23284409379244,287.9369258492616 L451.9708332513014,289.52656253862494 L448.0286226613657,290.0770192563012 L443.18080948708655,291.7884080545585 L439.5583991497084,296.4338511953197 L437.85329593397114,304.1368156059134 L435.9359888123313,307.070869948417 L431.0343774647231,312.75720787930067 L424.961161453543,316.7304421934915 L421.39105489578753,318.2600602376256 L411.9076324531318,319.5427444271013 L408.0715238161469,319.90971557221866 L404.6090136050486,320.64365786245344 L400.93280509434453,322.17156108815215 L392.78238183524473,327.18397537403035 L391.07727861950644,328.773612063394 L388.58313552829947,335.7786453708909 L381.4862598301936,333.0177876903351 L376.6459186244323,329.87281068031086 L373.4942423036705,324.5277216180176 L371.7577568201577,322.8506291884628 L367.14456345733464,320.6488023177586 L362.48653828340343,315.09450540638 L360.70522098878575,311.3733494021526 L356.4118278785191,301.4153987493658 L353.762267842145,298.7934413620554 L348.9219266363826,296.80253715887227 L346.7296510732912,296.330962089212 L336.5901897947816,292.71441000952757 L331.062427485392,289.9895635161097 L324.3944427802028,286.0060402913078 L320.05621785882914,284.1197400126672 L315.1232242434475,282.3894882116232 L309.5969563277631,280.0316128633226 L300.37056960211487,277.30505155146955 L295.20893375009183,274.68480898259435 L291.8749413974967,271.59299134405904 L291.23534089238274,269.3911644733549 L291.6014673497493,264.72685832980744 L290.4597505602456,259.5909771165998 L288.4961172337956,255.08443426908406 L287.0794320028413,250.629335974622 L286.4398314977263,244.86411639572265 L288.0851589653219,239.51731251499433 L290.5509085761607,238.05114275296006 L292.0124256182219,236.53009880100183 L292.0572574293279,234.80156181839305 L293.15414240772566,232.86210216826345 L293.5202688650923,222.79954759093388 L292.24106785486333,214.7278972167876 L291.5745682630853,206.47962054382296 L293.53820158953533,204.99287296056713 L296.9230033280501,201.10880920500279 L298.1484061649521,199.2893868453323 L301.17455341461806,196.0655281872921 L307.1177571735908,191.6841670855407 L311.6203654023537,187.716077226655 L314.32222921835165,184.61568549594418 L315.3294505745375,182.7139518513874 L318.2121360286635,179.03566630803843 L325.6318007667321,172.38045596130755 L329.5217075770429,170.76852663228738 L334.31273379058774,168.3300548175357 L339.03202910636475,166.4283211729791 L343.9306516665646,161.17926194305306 L345.0828292119925,158.8231014131875 L348.7575433289944,153.86384649879804 L351.04097690800086,152.157602155846 L352.51146031228205,153.42313816097013 L356.28928759482955,155.28886061838915 L367.7303657891206,158.12002585478507 L374.71067877834946,159.20379110578585 L382.0586126186502,159.92572966697452 L384.94428686018466,159.98746313063924 L389.983382428516,161.85318558805827 L395.5470101867906,164.68435082445419 L399.1679261304646,166.85188132645555 L402.36891744344496,169.26120122781018 L405.8852258278724,174.37993425666644 L408.5093811712846,179.80047533010537 L410.189079694062,182.14977658623042 L413.49467856628996,185.46109098446198 L417.2216964629147,188.23223757562846 L422.25929763754505,189.1342320725057 L427.13998747330186,188.83413884635834 L429.6595352574675,187.50858419600465 L434.12030046253074,183.35357912769015 L436.63984824669853,181.66791260595954 L439.89314333930054,180.76420329064715 L453.1723257889457,179.13855541414608 L466.97454603483004,177.99305669948063 L484.03155576702056,177.39115542875078 L488.91224560277726,177.51119271920973 L495.10501311024177,177.08934738416826 L510.74533761147813,177.08934738416826 L517.0950164578139,177.21109949306236 L524.8628749288083,177.63294482810386 L536.9330928722902,179.4386486402933 L551.2613397018189,179.74045668487582 L562.6501141164872,180.40237660083525 L570.574883926354,181.66791260595954 L582.5927980902111,185.3410536940031 L594.0338762845042,188.05046682150495 L598.1598972999732,189.2765620026214 z"/>
	
</g></g></svg>