<svg xmlns="http://www.w3.org/2000/svg" version="1.2" baseProfile="tiny" width="600" height="600" stroke-linecap="round" stroke-linejoin="round"><rect id="backgroundrect" width="100%" height="100%" x="0" y="0" fill="none" stroke="none" class="" style=""/>































































































































































































































































































































































































































































































































































































































<g class="currentLayer" style=""><title>Layer 1</title><g class="city city-11" id="bilecik" title="Bilecik">
	<path id="bilecik-inhisar" title="İnhisar" class="district" d="M532.6663085385596,278.9664500596445 L527.0328153662009,283.1710179274732 L525.2077967502668,285.03639322041687 L521.4396788708528,291.62200503188274 L518.9405542796637,298.44527283018994 L516.4399349967365,303.64231601413627 L511.5209044766416,310.0694905010413 L509.5374485361492,313.71952773290695 L506.28499930742646,318.5593395907204 L505.45096131587036,320.2259208820923 L501.04759944646946,325.02537606289496 L498.4288995159899,327.3272013442516 L496.7638129163597,332.2462318643458 L496.4065815902278,335.8559124192005 L495.1360936102583,338.6330496742398 L491.3276190538328,341.29061158998815 L489.54295711491034,341.72706157840133 L482.4013199757395,341.9662122569836 L477.83952078177845,343.55208019433377 L473.71417157623074,346.21113680182333 L465.8192097995235,348.3126733898669 L464.3110658327124,348.43224872915846 L462.24839122993956,348.19459274231707 L455.5835607561929,348.19459274231707 L450.82296756066,347.5593487523321 L444.0789184246338,347.16325544092996 L438.24663125070134,347.2021174261995 L436.02551932336644,347.5982107376019 L428.60736421208526,347.8373614161845 L426.7823455961521,349.10635470441275 L425.71065161775437,352.5575979347066 L425.15462629005066,357.00131648111784 L424.44165832952683,360.2149037245704 L423.46711931430315,366.8662819726467 L423.3266182906355,371.3100005190579 L423.6599345489092,373.7538215158229 L421.7975486394481,374.1663564363778 L417.60344361380857,374.1289891428492 L414.14472692480916,373.4668407015238 L409.0298917866244,371.8107222523401 L405.4232006152516,369.9707567189958 L401.744764240305,364.82004897902505 L400.64018704360234,364.3043803283314 L391.99339532110434,362.7962363615205 L387.4360802023642,359.8397360975443 L384.0506034086815,356.39297694247375 L381.6321921715158,353.55156794256544 L378.66971314057497,348.5323930758148 L376.8551573668294,340.85416160157496 L376.7340873357972,332.5720746639144 L377.3992251606064,328.158249952326 L378.9118532026394,322.53521962215467 L383.4452532535203,316.1872637975302 L387.01308243962234,313.4654301369131 L390.70048696501567,311.04701889974734 L394.75259627524855,307.41940204399873 L397.83614533722067,300.70823612627703 L398.9840685944179,297.26297166294773 L399.7702764502575,293.63535480719935 L400.0124165123229,290.61159341487166 L403.03468321290893,282.6912218785671 L403.8821734301365,279.245957415238 L406.0076250860384,273.97866371945815 L409.2182229460085,272.50190827921114 L412.9878355171652,270.05659259070484 L415.0774145712811,269.13885186164435 L422.2100835600033,269.03721282324693 L428.8360520484801,268.6127203687629 L434.8462075396071,267.4065041336624 L442.8443030464503,265.0120079643549 L448.5002165949273,264.0942672352947 L455.6837051028498,264.9611884451562 L459.91368273027814,265.9805682126141 L463.3768834944995,267.1524065376685 L471.8353440576153,271.992218395482 L475.96218795490586,273.4181543165301 L480.54790221672516,274.1834364879943 L485.184435997743,273.62292708506646 L493.7430409075147,274.74394589092213 L497.9221990157446,275.15050204451245 L502.35396002822574,274.89640444851835 L506.5824429639132,275.15050204451245 L511.3206157833298,275.86496469677746 L517.5370387347334,277.24008109862694 L522.0211139581568,277.34172013702454 L527.319796180499,277.18926157942826 L532.6663085385596,278.9664500596445 z"/>
	<path id="bilecik-merkez" title="Merkez" class="district" d="M36.74552512897023,308.62412358735827 L36.238824628723016,305.27153001197956 L33.44524576453189,302.981662264552 L30.650172208598853,301.3330172740738 L26.757994914668927,299.59170139564503 L20.115584817039597,297.8982156529325 L17.55069378924238,296.523099251083 L13.840868887730828,293.4096563542871 L12.558423373831744,291.43965263946365 L11.734848224464315,285.6223123829439 L12.376070981412425,281.4087763646685 L13.154805378546222,279.4851080938204 L12.879782098177706,277.2864165426025 L9.948691593800902,272.06545829079795 L9.489821229270206,269.05215974065834 L9.764844509640618,266.6606529548331 L11.459824944092944,262.44711693655756 L13.38349321494109,259.05715606765045 L14.57476253263004,255.4848428063242 L16.130736635157618,252.78244013834166 L18.100740349981315,250.30872530675398 L22.22310017204802,246.55256496126736 L27.581570064037308,244.90391997078927 L31.337730409522514,244.95025541476468 L41.96349399729286,246.96509988182225 L44.11734479627589,246.69007660145243 L47.82716969778744,245.49880728376326 L50.16337288919168,244.03400937744533 L51.856858631904004,242.2926934990164 L54.83428458025635,238.12549292471616 L57.07931157544857,233.59059818209525 L57.674198888423035,230.47566059355816 L57.9955576127671,225.07085525759322 L59.14049148648239,218.65862768809984 L60.51411319658875,215.81871337993232 L64.04158570568289,210.5977551281279 L70.82001275175504,206.56657150227144 L73.20105669539103,204.68923867539883 L78.46835039117208,198.23067566192978 L79.88830754525495,196.07831955468737 L80.43835410599577,193.42225233068027 L81.03324141897025,186.87251312100167 L81.03324141897025,184.48997448562355 L81.90464670405419,181.1463490606916 L83.59813244676555,177.25417176676143 L83.2319329701869,173.3141643371144 L83.50695625055732,171.6655193466363 L86.22430583594983,167.32941860558722 L91.70982452593807,167.68814462346091 L99.92315564350557,167.38173281652698 L104.70317983167288,166.89147392543285 L114.99861654465053,167.25916809375352 L122.10737046551537,167.99455643039477 L127.07124173784297,169.22020365813 L134.0574309359346,170.4458508858655 L148.09109169350592,170.6909803314125 L154.03548074802293,170.07815671754483 L161.5119288372074,168.17840351455504 L166.29195302537565,168.54609768287548 L174.7489188967505,171.79406283637442 L178.4871429413432,173.0809924254965 L183.2671671295105,174.1227925690716 L193.31747439693984,175.28715743542014 L199.7521223425516,175.71613396512754 L205.54405283947236,173.6639222045414 L210.96679447633065,172.5608396995796 L220.2518195722958,173.11238095206042 L224.95561448166546,174.48749735390987 L224.82707099192746,175.65933567896428 L229.7535749707272,179.42147479141536 L234.10761201266973,182.41384765717902 L237.0551441262009,185.7978297591215 L239.89206905088565,196.97812398285387 L240.14018787991404,200.85236497589048 L238.74713517717225,205.37679687632345 L237.70533503359673,207.05832508510687 L233.29001563026708,209.40349642695654 L232.3752642846876,211.09997155315125 L232.34835983334744,212.56178007598677 L233.25563772021923,214.572140467821 L236.85933950811102,218.86788453185946 L238.47809066376573,221.32067367907138 L241.5691131844436,227.22470605657708 L245.16982558885252,230.80150339312678 L249.62400697745096,232.96282765081617 L265.2375569054081,237.75331468117201 L270.04598023665756,238.43788349861444 L272.7782767394625,238.52607031134195 L277.62855143946365,237.53210030348325 L279.6643215908973,238.4348941151323 L283.84796377435015,241.3345960929453 L289.85512988199423,247.33877281710738 L291.2661188856323,248.5255580595732 L294.12845356991534,249.9275789127631 L298.2358664745705,254.34140362435164 L299.5795943498566,256.3308383318099 L299.67824400477065,258.711882275447 L299.21190018153607,264.6966280069742 L295.90115797490813,265.38418620789906 L293.3452350975586,267.050767499271 L292.0852099597768,268.3496546223223 L290.63236958738804,271.48252851175306 L288.8372448062779,272.9353688841419 L285.55041766751015,274.84558492931944 L280.736015569295,276.71843368096893 L278.71070826004996,277.7871382758847 L268.90254105468415,285.2023040036835 L263.9850052263321,288.4084177884305 L257.9987648030643,292.6847308598337 L252.28007420145929,296.3721353852279 L247.73621130839257,300.48851644032936 L244.90377045892978,304.8171437226727 L244.42247971828272,310.05603827537095 L244.5839064263257,311.7121567245549 L246.45376579449254,316.25601961762254 L246.66750671347592,318.8209106454202 L245.97247505384553,324.70102795506756 L243.67513384771297,328.3884324804616 L239.23888876000603,333.4659003251166 L237.84882544074532,336.1384091582762 L237.47515250546087,340.9483271812668 L238.38392508407367,353.8833895090986 L238.75759801935902,357.83834385615677 L239.88011151695605,361.1520754462657 L241.32248904715624,367.7272244155436 L241.30006867103987,370.70763974737815 L240.92191166053067,370.4983829036184 L228.70579606018777,368.2040310809675 L223.02895682733634,365.7377897080853 L219.8736625617885,364.6481594287937 L214.7692902657933,361.66624940521797 L210.72465441426522,357.7142844416422 L207.07013310717593,354.4110156937212 L203.24222755811596,351.7982945302072 L198.24248368399955,347.8627711757839 L195.18135499814377,346.04971009378005 L191.9692624464308,345.1887676508831 L185.9471494213761,344.15593565775475 L177.68897755157403,342.2068576273074 L170.74912379745794,338.7660772392015 L165.81813574343343,334.521152694362 L160.2115470224158,326.92363457414365 L156.31936972848493,320.4187361166995 L153.42265713415406,318.32915706258456 L148.39003004173458,316.8583803893023 L140.50702579895693,316.3830684156196 L133.57614019528756,316.3352382799031 L124.9816626837299,315.52810473968697 L121.13582083377457,314.62531092803806 L114.91491380714712,312.29957057882314 L110.97490637750067,308.7377201596847 L109.17081344594285,304.74988259432155 L106.3219309873285,301.47351829774124 L103.99469594637384,299.527429650776 L98.6302472874188,295.8714136519458 L95.11622700399712,292.97470105761516 L92.55283066793992,291.92991153055766 L87.23471745296233,291.78791581514935 L79.49520361733516,293.6398388824227 L72.42082760651627,294.92078970458033 L67.767852216346,296.29889548991196 L62.97138641902619,298.3406444083102 L59.07771443335341,299.2419435282179 L52.19316427365959,301.6170087048905 L43.40886091097684,306.83946164843627 L36.74552512897023,308.62412358735827 z"/>
	<path id="bilecik-bozuyuk" title="Bozüyük" class="district" d="M334.47915181374987,450.08922342761934 L330.88142879282475,449.1012321867253 L323.75772795454935,449.45397943763436 L320.23175013719805,448.2552366612397 L317.4815173334977,447.90248941033065 L312.40255479710174,447.76198838666323 L301.3298783787312,446.42124989485995 L298.2971488359566,445.2225071184653 L294.34817325586346,445.1522566066317 L288.2827141703151,445.4347533457074 L277.49253449101985,446.2807488711928 L274.3178092328367,447.409241135754 L270.0160864018354,450.0189729157858 L266.77111063181746,451.4299619194226 L263.5978800653752,452.13396172949996 L255.55793318978033,454.5329419740306 L248.36398183967015,457.0006780386538 L244.83800402231884,458.4116670422907 L241.24028100139378,459.1874120559428 L234.61132312943408,461.65514812056625 L229.6041057966138,464.68787766334066 L227.69986851840102,465.53536788056726 L224.73738948745924,467.9328534333569 L221.95128408197198,473.36306852892125 L219.9409236901394,479.39414970442385 L218.98880505103304,481.2983869826371 L216.5554468964548,483.20262426085037 L210.47205151001305,484.47161754907887 L202.64435086165767,488.3862152191263 L199.04662784073352,490.34276670827944 L198.1483181043075,491.18876223376515 L194.23372043426028,499.124080687481 L193.8107226715184,500.7637575275122 L193.01704135697116,506.89946712489484 L191.3250503059998,516.9497743923251 L190.63599741333329,522.6101720160248 L189.68387877422785,526.8416443351941 L188.4746731556445,529.0896607138696 L185.26855937089917,537.2626351544269 L184.4106063114839,540.1817681248748 L183.68867020051238,545.4729768885129 L185.85298384168405,548.288976128822 L191.1426979135805,551.3471154311959 L199.84030915527885,555.03451995659 L204.12857976061238,558.2854744935711 L205.5933776669289,560.0133381463295 L206.67105041229135,563.4376769252827 L206.5679166821535,564.9503049673172 L204.9521549099798,567.3881471971179 L202.1705335797164,569.2789322496606 L195.6775926562014,571.1338447004163 L191.28020955376712,571.3401121606936 L185.8186059316381,570.3087748593065 L177.81453165782915,568.3507286784121 L168.56238978016898,567.9038158478113 L165.4026114393973,567.5376163712319 L162.92889660781023,566.7588819740974 L159.17273626232216,564.8815491472249 L156.88286851489443,562.4990105118464 L153.76793092635734,560.0267903719996 L151.56923937513972,557.1868760638325 L149.73824199224268,553.3843802743705 L147.53955044102412,550.4069543260184 L140.11990063800195,542.0262177334424 L136.77627521307,540.1025494625943 L131.60015771350098,537.9950341075861 L122.85172695260323,535.063943603209 L117.90429728942718,533.0027636921761 L112.13329247688463,530.9415837811431 L103.24735007580216,529.8878261036389 L98.53010294076194,529.7503144634538 L95.46150079620038,529.9790022998483 L91.43031717034476,531.0327599773527 L85.33944832519629,533.7351626453349 L74.57617309724216,536.2088774769229 L71.27738842454288,536.528741509527 L61.15533595353877,536.1625420329474 L53.82686234672579,534.926431963024 L50.11703744521424,533.5064748089405 L40.132496614395805,532.0401822108813 L35.14022619898517,530.1628493840087 L34.48555121636649,529.3885990620979 L33.204600394207425,527.8759710200634 L32.75768756360728,525.8566424777825 L32.89519920379106,522.7880403332205 L30.971530932943864,518.2083048383654 L30.421484372203984,516.1471249273324 L30.283972732020203,511.56738943247734 L30.925195488969266,504.5139391060343 L31.4289066057336,501.6740247978669 L33.53642196074107,494.34555119105414 L32.391488087027675,487.8406527336098 L30.787683848783587,483.9484754396794 L29.18537430228045,481.24607277169724 L27.811752592173136,480.2386505381683 L23.230522405576686,478.68118174389974 L21.994412335652207,477.9472880989996 L17.32200595284752,473.59624044053896 L9.03244555648142,464.02423453027404 L5.367461407203496,458.3444059139395 L3.306281496171568,454.49706937224323 L2.7577296271716993,450.8784206669418 L4.460183520331693,445.5393817675869 L6.09238690165693,442.19575634265544 L7.932352435001654,440.61885655575173 L14.940962009209635,437.50391896721464 L17.0469826724771,436.953872406475 L20.528119737594743,435.26038666376246 L24.237944639106303,430.4041331967966 L28.31546370893747,422.2520844406152 L33.21655792813702,416.43474418409545 L36.238824628723016,411.2586266845252 L37.292582306228184,405.71630970837543 L39.81113789004985,398.159148265168 L40.01292127510453,395.37752693490535 L51.205173032765344,397.01720377493683 L55.85515903945368,399.68971260809616 L58.206309148269455,401.5072577653234 L62.05514038170577,403.27099401986925 L65.582612890798,403.75228476051655 L73.97381232556192,403.9122167768188 L80.28141147317473,403.4847349388526 L85.84017005847869,401.6133808789443 L87.92377034562885,400.6507993976498 L97.27755126168591,398.88706314310366 L101.50005543040852,397.444685612903 L104.65385500421635,395.5210173420546 L109.09010009192136,394.8259856824245 L113.47253627694695,395.62714045567583 L120.74271690585479,398.67332222412057 L125.49882602616384,399.95726242976036 L133.03506178499632,400.27712646236444 L139.2888520299278,399.1546129647681 L147.62624256201136,397.9259763535503 L151.42126489276825,396.00081339096096 L155.16247832084193,392.52714978455003 L159.06511845696144,389.7485178377695 L161.68381838743997,388.25083671314655 L167.5639356970861,385.63213678266806 L171.83875407675,383.1195599658105 L178.5738350623276,382.21228207893796 L187.98142488106785,380.0195692946847 L194.982560996571,377.6146102831893 L197.33371110538585,376.4397825746528 L202.73253767438493,368.52837918879493 L204.4424650262507,365.7497472420144 L208.66496919497425,360.6722793973596 L210.72465441426522,357.7142844416422 L214.7692902657933,361.66624940521797 L219.8736625617885,364.6481594287937 L223.02895682733634,365.7377897080853 L228.70579606018777,368.2040310809675 L240.92191166053067,370.4983829036184 L241.30006867103987,370.70763974737815 L243.6168408698078,371.9885905695358 L247.05762125791279,374.74181275671685 L250.3848050736932,375.9898803605693 L254.2127106227532,378.05404965508455 L257.5249475211221,379.47400680916815 L262.42753643206356,380.2482571310791 L268.6215390073508,380.1182189496001 L272.27755500618105,381.02250745299 L280.1919477755208,384.41994178060276 L287.9344509946299,386.7860388068286 L293.3542032480044,387.947414289695 L295.9773872537077,389.32402538328546 L300.0205284134929,392.07575287872555 L301.52717768856303,393.5390560933023 L302.73040454018064,395.55987932732444 L304.15036169426446,399.6463665476033 L306.38642053901185,402.91525738547784 L311.29050414169427,407.6041053774362 L311.6776293026492,409.281149510996 L311.84951885287995,414.40046872440297 L313.18278388597747,417.066998790598 L314.43085148983056,418.65735080317154 L317.7415936964575,420.3792356889657 L319.463478582251,422.7871840839433 L319.9358011724513,426.1427670428044 L321.2257201450562,430.229254263083 L322.73236942012534,432.80909220829176 L326.2164958687249,435.9494395564283 L334.47915181374987,450.08922342761934 z"/>
	<path id="bilecik-golpazari" title="Gölpazarı" class="district" d="M538.9350457009036,172.43229620984144 L539.2907823352955,174.34251225501927 L541.7779493925532,180.2913853847592 L539.1831645299338,182.89065432260293 L537.6645577209332,183.83978357822716 L534.9098408420128,184.60058167446775 L531.6334765454327,184.98023337671754 L529.3062415044761,184.8382376613091 L525.3169092473703,183.36596629628554 L519.1916624921769,184.12526970078514 L511.4506539648087,186.3568444703082 L501.5259008036345,191.81844809243617 L498.9610097758373,193.67037115970956 L492.07645961614253,196.75690960516525 L485.5222363312414,199.27397049724595 L481.6285643455705,201.07806342880284 L478.06671392643045,203.21547261863407 L471.941467171237,209.53054522495347 L469.0447545769061,211.47812856365988 L466.81317980738254,212.14326638846742 L462.4920259837459,211.85778026590944 L459.6416488333906,211.33613284825142 L456.223288821402,210.0536873343527 L449.1474181188402,207.77428242911324 L446.5361916470684,207.77428242911324 L442.6903497971121,208.81159849746496 L436.73250851692546,210.86978902501554 L431.8448665233955,213.52735094076385 L428.8853768759376,216.22975360874602 L426.3563584499282,219.35814342295345 L420.39702247799875,233.29315452560814 L419.71095896881604,237.1942999699855 L419.9261945795413,246.7976944068145 L420.5255659677377,249.96943028151503 L421.5554085773827,252.28470778854188 L424.08442700339396,260.51597520700375 L425.24131841103696,263.5606622837073 L428.8360520484801,268.6127203687629 L422.2100835600033,269.03721282324693 L415.0774145712811,269.13885186164435 L412.9878355171652,270.05659259070484 L409.2182229460085,272.50190827921114 L406.0076250860384,273.97866371945815 L402.79852191781015,274.69312637172317 L393.6270933941705,274.99804348691595 L390.5704487835367,274.5899926415844 L387.97267453743547,273.82620516186165 L384.04910871694057,272.0430379146808 L377.9866390148732,270.51396826349384 L376.1511575567523,269.6485417453735 L369.2740808557643,265.42005880968634 L360.10265233212465,261.4456734699934 L353.8354098615226,259.20363585828227 L346.753560391997,257.36964909190266 L343.03476734003965,256.0961717284508 L336.2578349857075,256.14699124764957 L332.33576385695545,257.1663710151074 L326.32261898234464,258.031797533228 L322.3482336426523,259.254455377481 L318.1197507069658,260.22301562574023 L313.89126777127836,261.4964929891921 L304.1085103255127,263.9926281968969 L299.21190018153607,264.6966280069742 L299.67824400477065,258.711882275447 L299.5795943498566,256.3308383318099 L298.2358664745705,254.34140362435164 L294.12845356991534,249.9275789127631 L291.2661188856323,248.5255580595732 L289.85512988199423,247.33877281710738 L283.84796377435015,241.3345960929453 L279.6643215908973,238.4348941151323 L277.62855143946365,237.53210030348325 L272.7782767394625,238.52607031134195 L270.04598023665756,238.43788349861444 L265.2375569054081,237.75331468117201 L249.62400697745096,232.96282765081617 L245.16982558885252,230.80150339312678 L241.5691131844436,227.22470605657708 L238.47809066376573,221.32067367907138 L236.85933950811102,218.86788453185946 L233.25563772021923,214.572140467821 L232.34835983334744,212.56178007598677 L232.3752642846876,211.09997155315125 L233.29001563026708,209.40349642695654 L237.70533503359673,207.05832508510687 L238.74713517717225,205.37679687632345 L240.14018787991404,200.85236497589048 L239.89206905088565,196.97812398285387 L237.0551441262009,185.7978297591215 L234.10761201266973,182.41384765717902 L229.7535749707272,179.42147479141536 L224.82707099192746,175.65933567896428 L224.95561448166546,174.48749735390987 L227.60570293870896,175.22587507403352 L232.15554459874136,174.85818090571271 L236.61421006256273,172.69835133976454 L239.32558088099233,172.19314553125878 L243.82908709704924,172.42332805939472 L249.5283467060189,173.24989259224526 L257.20508348851706,175.73257557428002 L260.0539659471314,177.66222261209273 L262.90434309748673,180.69644684660844 L266.76513186485266,181.4766759354838 L268.649938150432,181.06414101492888 L272.923261838353,179.04182308916555 L274.34919775940165,177.9835813364381 L281.3802277097279,171.18123922250675 L284.32178105629237,168.1021742357568 L288.3215761555849,166.31003883812917 L292.36621200711113,165.7121621416728 L304.3162724775322,163.1846384074038 L308.81977869358815,160.93213795350476 L312.35920873661,158.03692005091546 L319.71309210302127,151.09557160505804 L320.6323275238236,149.16592456724533 L321.8998261203102,144.70725910342267 L326.50646606650685,146.30209519121982 L328.05795609381056,146.08536488875444 L331.5032205571394,143.03021496986273 L332.81406521411867,140.60433027399134 L332.60331367861824,137.01856478699503 L332.897767951624,135.75853964921336 L335.76757609461373,133.64056145201698 L344.73722123319965,129.89635864045948 L350.49178443659065,128.63334411919556 L362.855874519306,127.50036777941092 L365.5821922551471,127.13865237805491 L368.40715964590225,125.9892344291178 L379.9820524892961,120.60236539404654 L382.4632407795909,119.58298562658875 L395.6299803272992,116.36491430791287 L403.63853867633105,115.69230302439955 L407.96716595867343,116.66235796439975 L411.56937305482234,118.42310483546346 L417.18194054280576,119.76683271074903 L423.7107540681086,120.0343825324132 L429.65663781436564,118.8954274256639 L434.8910482918408,117.71761033364504 L443.7515809333221,114.77157291185682 L452.42228772368026,111.61777333805006 L456.577530764051,109.51922613348849 L458.52660879449934,108.93330697096121 L461.9688838743453,109.08128145333411 L466.85652586787523,110.24564631968276 L467.7204576942553,113.41738219438321 L467.1479907573991,116.27672749518537 L468.9879562907419,120.17338886433913 L473.53331387555147,122.5544328079763 L479.269940778049,126.34347637176803 L479.8125138800831,127.10128508452645 L480.89467070066945,131.37610346418882 L483.22190574162505,133.37899039731738 L486.46837620338397,137.16653926936792 L488.7418023416592,141.333739843668 L489.1752629465898,149.94017488915614 L488.9585326441245,156.21788020194705 L489.4458021517363,157.73349762746378 L491.33957658776046,159.4643506637048 L496.2645858748201,162.00831600712615 L498.4842031104122,162.38796770937597 L503.84117831066146,165.85116847359896 L506.3851436540833,168.23221241723613 L509.09203039728914,169.8016387454338 L516.4518925306661,172.39941299153622 L521.5936321201892,173.5906823092254 L523.9746760638261,173.5906823092254 L528.5753372430579,173.04960389893262 L533.4465376274344,172.99579499625142 L534.7992336531673,172.6161432940016 L538.9350457009036,172.43229620984144 z"/>
	<path id="bilecik-osmaneli" title="Osmaneli" class="district" d="M151.70525632358445,31.814686586807102 L154.18046584691248,31.2347461912444 L159.63160662685192,31.418593275404803 L162.6538733274398,31.875968948193822 L170.53239349499268,33.70846102283231 L175.06728823761168,35.769640933865425 L179.87571156886298,38.929419274636864 L184.82314123203903,42.54806797993829 L186.8140706312381,44.31329892622549 L185.86494137561365,48.290673649400986 L186.39854632720008,56.36350374330182 L188.53595551703157,66.8711866835209 L189.48657946439604,69.18646419054787 L191.62249396248657,72.45087095319917 L193.1665105310855,75.77656007723719 L195.1260514037215,81.11858836007399 L196.61028030267337,83.90917784078367 L199.1034261268958,86.52040431255655 L204.50524207937872,88.36036984590068 L208.54240447220008,88.53973285483748 L210.6200259923845,87.58910890747217 L216.7348099053922,83.78960250149251 L219.10838039032242,80.16945910444977 L220.94834592366715,78.62544253585143 L224.74785232964788,76.54782101566595 L228.4771082237929,75.19213560645113 L229.9717999649334,74.64806781267582 L233.3557820668761,74.58828014303042 L235.79063491319528,76.6659016632159 L239.29269766268737,81.53411266411106 L241.37031918287272,87.05550395588477 L242.97262872937586,95.42577770627273 L244.69451361516934,98.98762812541115 L245.86037317325906,100.36722860248398 L250.93485163443216,103.9739197738564 L253.2052883892245,106.37738409361073 L254.85393337970322,109.62833863059171 L256.3232153612445,113.45773887139407 L259.5726752064844,119.42305361028671 L261.1137023916014,121.5828831762349 L262.8669758039579,122.97743057071914 L266.29430396639424,124.77106066008808 L269.2418360799226,125.80688203669861 L276.25492972935535,127.75894945062836 L278.76451716273124,128.95470284354082 L282.70900866760155,131.62422229321822 L284.4219254029492,133.09798834998298 L286.29477415459894,133.9738777102914 L288.56670560113133,134.1338097265934 L298.1686053462205,132.93805633368098 L301.11613745974887,133.01727499596126 L303.30735555225976,133.49557635312627 L306.7735456999659,135.6479324603689 L308.567175789336,136.24580915682532 L312.73437636363536,139.17540496946103 L313.7492720558698,140.52212222822865 L316.5099677017569,142.30230009192726 L321.8998261203102,144.70725910342267 L320.6323275238236,149.16592456724533 L319.71309210302127,151.09557160505804 L312.35920873661,158.03692005091546 L308.81977869358815,160.93213795350476 L304.3162724775322,163.1846384074038 L292.36621200711113,165.7121621416728 L288.3215761555849,166.31003883812917 L284.32178105629237,168.1021742357568 L281.3802277097279,171.18123922250675 L274.34919775940165,177.9835813364381 L272.923261838353,179.04182308916555 L268.649938150432,181.06414101492888 L266.76513186485266,181.4766759354838 L262.90434309748673,180.69644684660844 L260.0539659471314,177.66222261209273 L257.20508348851706,175.73257557428002 L249.5283467060189,173.24989259224526 L243.82908709704924,172.42332805939472 L239.32558088099233,172.19314553125878 L236.61421006256273,172.69835133976454 L232.15554459874136,174.85818090571271 L227.60570293870896,175.22587507403352 L224.95561448166546,174.48749735390987 L220.2518195722958,173.11238095206042 L210.96679447633065,172.5608396995796 L205.54405283947236,173.6639222045414 L199.7521223425516,175.71613396512754 L193.31747439693984,175.28715743542014 L183.2671671295105,174.1227925690716 L178.4871429413432,173.0809924254965 L174.7489188967505,171.79406283637442 L166.29195302537565,168.54609768287548 L161.5119288372074,168.17840351455504 L154.03548074802293,170.07815671754483 L148.09109169350592,170.6909803314125 L134.0574309359346,170.4458508858655 L127.07124173784297,169.22020365813 L122.10737046551537,167.99455643039477 L114.99861654465053,167.25916809375352 L104.70317983167288,166.89147392543285 L99.92315564350557,167.38173281652698 L91.70982452593807,167.68814462346091 L86.22430583594983,167.32941860558722 L86.89691711946483,163.05460022592473 L86.66822928306996,155.22241550234753 L87.85800390901794,151.2375673204665 L88.04185099317823,148.30647681608957 L87.76682771280781,144.8253397509729 L85.93433563817075,140.10809261593278 L84.3768668439022,138.18442434508475 L81.40093558728985,135.98573279386667 L79.47577262470169,135.2069983967324 L73.75110325613186,133.92455288283355 L71.46123550870506,131.35966185503622 L69.90376671443651,126.96227875260017 L69.81259051822639,124.80992264535774 L70.36114238722435,122.97743057071914 L72.97236885899807,120.86991521571095 L79.43093187246711,117.66380143096409 L84.33202609166666,115.83280404806668 L90.65307746495193,112.71786645952959 L93.40032088516656,111.02288602507608 L99.26399658566304,105.61808068911111 L100.22508337521616,104.3819706191877 L104.57613103367774,100.8081626661204 L110.66849457056719,98.42711872248323 L119.05072585488344,96.54978589561063 L122.21050419565415,94.02973562004729 L123.76797298992176,91.7862033165952 L124.59154813929109,89.35882392898262 L124.91290686363706,86.06003925628525 L124.13417246650135,82.67157307911917 L121.75163383112346,79.73898788300116 L118.72936713053747,76.99174446278451 L115.79827662616066,74.97689999572695 L109.20220197250688,69.25073593541686 L108.24111518295376,68.0594666177278 L106.7748225848944,64.25846552000694 L106.08726438397073,59.95225861378054 L106.13359982794628,55.3261876749501 L107.69106862221483,52.25758553038843 L113.41573799078182,48.547760628877235 L121.66045763491428,44.19671297041661 L127.01892752690452,41.7229981388287 L130.9125995125754,39.4331303914012 L135.8136937317759,38.0131732373175 L139.24849535291705,36.73072772341866 L150.47064094540187,32.104656784588215 L151.70525632358445,31.814686586807102 z"/>
	<path id="bilecik-pazaryeri" title="Pazaryeri" class="district" d="M210.72465441426522,357.7142844416422 L208.66496919497425,360.6722793973596 L204.4424650262507,365.7497472420144 L202.73253767438493,368.52837918879493 L197.33371110538585,376.4397825746528 L194.982560996571,377.6146102831893 L187.98142488106785,380.0195692946847 L178.5738350623276,382.21228207893796 L171.83875407675,383.1195599658105 L167.5639356970861,385.63213678266806 L161.68381838743997,388.25083671314655 L159.06511845696144,389.7485178377695 L155.16247832084193,392.52714978455003 L151.42126489276825,396.00081339096096 L147.62624256201136,397.9259763535503 L139.2888520299278,399.1546129647681 L133.03506178499632,400.27712646236444 L125.49882602616384,399.95726242976036 L120.74271690585479,398.67332222412057 L113.47253627694695,395.62714045567583 L109.09010009192136,394.8259856824245 L104.65385500421635,395.5210173420546 L101.50005543040852,397.444685612903 L97.27755126168591,398.88706314310366 L87.92377034562885,400.6507993976498 L85.84017005847869,401.6133808789443 L80.28141147317473,403.4847349388526 L73.97381232556192,403.9122167768188 L65.582612890798,403.75228476051655 L62.05514038170577,403.27099401986925 L58.206309148269455,401.5072577653234 L55.85515903945368,399.68971260809616 L51.205173032765344,397.01720377493683 L40.01292127510453,395.37752693490535 L39.90231408625998,391.28954502288553 L39.261091329310915,388.08343123813876 L38.85005110049673,383.50220105154256 L37.887469619201696,377.36499676241874 L37.292582306228184,375.3501522953612 L34.91004367084934,364.4493654272219 L34.95637911482489,361.15058075452447 L36.4226717128852,353.36473147492273 L38.89489185273132,346.22010495227005 L39.62878549763053,341.68521020964914 L38.85005110049673,338.20407314453246 L37.292582306228184,336.14289323349954 L33.81144524111149,330.73808789753474 L32.94153464776661,327.62315030899765 L32.2076410028674,323.5934613748823 L32.300311890816594,320.9822349031095 L33.53642196074107,318.00480895475715 L36.74552512897023,308.62412358735827 L43.40886091097684,306.83946164843627 L52.19316427365959,301.6170087048905 L59.07771443335341,299.2419435282179 L62.97138641902619,298.3406444083102 L67.767852216346,296.29889548991196 L72.42082760651627,294.92078970458033 L79.49520361733516,293.6398388824227 L87.23471745296233,291.78791581514935 L92.55283066793992,291.92991153055766 L95.11622700399712,292.97470105761516 L98.6302472874188,295.8714136519458 L103.99469594637384,299.527429650776 L106.3219309873285,301.47351829774124 L109.17081344594285,304.74988259432155 L110.97490637750067,308.7377201596847 L114.91491380714712,312.29957057882314 L121.13582083377457,314.62531092803806 L124.9816626837299,315.52810473968697 L133.57614019528756,316.3352382799031 L140.50702579895693,316.3830684156196 L148.39003004173458,316.8583803893023 L153.42265713415406,318.32915706258456 L156.31936972848493,320.4187361166995 L160.2115470224158,326.92363457414365 L165.81813574343343,334.521152694362 L170.74912379745794,338.7660772392015 L177.68897755157403,342.2068576273074 L185.9471494213761,344.15593565775475 L191.9692624464308,345.1887676508831 L195.18135499814377,346.04971009378005 L198.24248368399955,347.8627711757839 L203.24222755811596,351.7982945302072 L207.07013310717593,354.4110156937212 L210.72465441426522,357.7142844416422 z"/>
	<path id="bilecik-sogut" title="Söğüt" class="district" d="M351.27649760069016,455.13530274571013 L347.94931378490975,455.589689035017 L342.9420964520895,455.02619024860724 L337.6523823801921,452.2057069330745 L334.47915181374987,450.08922342761934 L326.2164958687249,435.9494395564283 L322.73236942012534,432.80909220829176 L321.2257201450562,430.229254263083 L319.9358011724513,426.1427670428044 L319.463478582251,422.7871840839433 L317.7415936964575,420.3792356889657 L314.43085148983056,418.65735080317154 L313.18278388597747,417.066998790598 L311.84951885287995,414.40046872440297 L311.6776293026492,409.281149510996 L311.29050414169427,407.6041053774362 L306.38642053901185,402.91525738547784 L304.15036169426446,399.6463665476033 L302.73040454018064,395.55987932732444 L301.52717768856303,393.5390560933023 L300.0205284134929,392.07575287872555 L295.9773872537077,389.32402538328546 L293.3542032480044,387.947414289695 L287.9344509946299,386.7860388068286 L280.1919477755208,384.41994178060276 L272.27755500618105,381.02250745299 L268.6215390073508,380.1182189496001 L262.42753643206356,380.2482571310791 L257.5249475211221,379.47400680916815 L254.2127106227532,378.05404965508455 L250.3848050736932,375.9898803605693 L247.05762125791279,374.74181275671685 L243.6168408698078,371.9885905695358 L241.30006867103987,370.70763974737815 L241.32248904715624,367.7272244155436 L239.88011151695605,361.1520754462657 L238.75759801935902,357.83834385615677 L238.38392508407367,353.8833895090986 L237.47515250546087,340.9483271812668 L237.84882544074532,336.1384091582762 L239.23888876000603,333.4659003251166 L243.67513384771297,328.3884324804616 L245.97247505384553,324.70102795506756 L246.66750671347592,318.8209106454202 L246.45376579449254,316.25601961762254 L244.5839064263257,311.7121567245549 L244.42247971828272,310.05603827537095 L244.90377045892978,304.8171437226727 L247.73621130839257,300.48851644032936 L252.28007420145929,296.3721353852279 L257.9987648030643,292.6847308598337 L263.9850052263321,288.4084177884305 L268.90254105468415,285.2023040036835 L278.71070826004996,277.7871382758847 L280.736015569295,276.71843368096893 L285.55041766751015,274.84558492931944 L288.8372448062779,272.9353688841419 L290.63236958738804,271.48252851175306 L292.0852099597768,268.3496546223223 L293.3452350975586,267.050767499271 L295.90115797490813,265.38418620789906 L299.21190018153607,264.6966280069742 L304.1085103255127,263.9926281968969 L313.89126777127836,261.4964929891921 L318.1197507069658,260.22301562574023 L322.3482336426523,259.254455377481 L326.32261898234464,258.031797533228 L332.33576385695545,257.1663710151074 L336.2578349857075,256.14699124764957 L343.03476734003965,256.0961717284508 L346.753560391997,257.36964909190266 L353.8354098615226,259.20363585828227 L360.10265233212465,261.4456734699934 L369.2740808557643,265.42005880968634 L376.1511575567523,269.6485417453735 L377.9866390148732,270.51396826349384 L384.04910871694057,272.0430379146808 L387.97267453743547,273.82620516186165 L390.5704487835367,274.5899926415844 L393.6270933941705,274.99804348691595 L402.79852191781015,274.69312637172317 L406.0076250860384,273.97866371945815 L403.8821734301365,279.245957415238 L403.03468321290893,282.6912218785671 L400.0124165123229,290.61159341487166 L399.7702764502575,293.63535480719935 L398.9840685944179,297.26297166294773 L397.83614533722067,300.70823612627703 L394.75259627524855,307.41940204399873 L390.70048696501567,311.04701889974734 L387.01308243962234,313.4654301369131 L383.4452532535203,316.1872637975302 L378.9118532026394,322.53521962215467 L377.3992251606064,328.158249952326 L376.7340873357972,332.5720746639144 L376.8551573668294,340.85416160157496 L378.66971314057497,348.5323930758148 L381.6321921715158,353.55156794256544 L384.0506034086815,356.39297694247375 L387.4360802023642,359.8397360975443 L391.99339532110434,362.7962363615205 L400.64018704360234,364.3043803283314 L401.744764240305,364.82004897902505 L405.4232006152516,369.9707567189958 L409.0298917866244,371.8107222523401 L414.14472692480916,373.4668407015238 L417.60344361380857,374.1289891428492 L421.7975486394481,374.1663564363778 L423.6599345489092,373.7538215158229 L424.4551105551974,378.22145513009235 L424.38336535162165,380.54869017104846 L423.3266182906355,382.5934284729291 L420.2759524469684,385.37953387841515 L417.8949085033305,388.02513826023437 L413.6111219732208,391.8859270276005 L410.7009571532203,392.9441687803283 L407.95072434952186,393.41948075401103 L404.5129333448979,393.154920315829 L398.95865883481775,393.1026061048891 L392.18770524745133,392.4673621149044 L387.85010981466223,392.4673621149044 L382.71883306732593,393.4732896566921 L379.59941140356307,396.75264333675483 L376.10781149625967,402.8360387231973 L374.9434466299118,406.5907043769427 L373.5683302280626,412.14497888702164 L373.35757869256025,414.5783370415987 L375.0495697435316,420.8724839635421 L377.0061212326866,426.4267584736211 L376.7430554862449,430.3413561436683 L376.1601257071991,432.8270285091854 L373.8328906662444,437.2184328446568 L372.77464891351536,438.4351119219452 L371.3472183007277,441.82058871562884 L369.9721018988766,443.4064566529795 L364.8931393624806,445.78750059661644 L361.6675945850999,448.7484849358163 L357.47050017597746,452.0637112176664 L353.16877734497336,454.6031924858644 L351.27649760069016,455.13530274571013 z"/>
	<path id="bilecik-yenipazar" title="Yenipazar" class="district" d="M428.8360520484801,268.6127203687629 L425.24131841103696,263.5606622837073 L424.08442700339396,260.51597520700375 L421.5554085773827,252.28470778854188 L420.5255659677377,249.96943028151503 L419.9261945795413,246.7976944068145 L419.71095896881604,237.1942999699855 L420.39702247799875,233.29315452560814 L426.3563584499282,219.35814342295345 L428.8853768759376,216.22975360874602 L431.8448665233955,213.52735094076385 L436.73250851692546,210.86978902501554 L442.6903497971121,208.81159849746496 L446.5361916470684,207.77428242911324 L449.1474181188402,207.77428242911324 L456.223288821402,210.0536873343527 L459.6416488333906,211.33613284825142 L462.4920259837459,211.85778026590944 L466.81317980738254,212.14326638846742 L469.0447545769061,211.47812856365988 L471.941467171237,209.53054522495347 L478.06671392643045,203.21547261863407 L481.6285643455705,201.07806342880284 L485.5222363312414,199.27397049724595 L492.07645961614253,196.75690960516525 L498.9610097758373,193.67037115970956 L501.5259008036345,191.81844809243617 L511.4506539648087,186.3568444703082 L519.1916624921769,184.12526970078514 L525.3169092473703,183.36596629628554 L529.3062415044761,184.8382376613091 L531.6334765454327,184.98023337671754 L534.9098408420128,184.60058167446775 L537.6645577209332,183.83978357822716 L539.1831645299338,182.89065432260293 L541.7779493925532,180.2913853847592 L545.3741777217373,184.19850959610088 L548.3037735343731,190.94853749909237 L551.1018364737901,194.49992507604262 L553.7653771565022,196.05440448682887 L557.7621828723119,197.83009827530412 L560.2926959900631,198.40704928738455 L564.1998202014046,199.82850113320907 L569.3056871891407,202.4038550031947 L570.4595892133018,205.59950594575352 L569.74961063626,210.21810342587833 L568.9947913069834,212.8368033563566 L567.1742567662759,217.3223732715198 L567.0860699535486,219.27593537719076 L568.0621036605124,222.25037194206072 L571.259249294812,223.6703290961444 L578.1856508232574,225.3578360718924 L580.7161639410097,226.42355128332562 L582.4933524212264,230.1528071774716 L583.0254626810719,241.20904198668936 L582.5815392339537,246.0040130922688 L583.469386128191,249.778109738649 L586.621691010256,253.5522063850292 L590.7066835387939,257.3711437836437 L594.4359394329408,260.1677120313179 L596.8782657379647,262.6548790885762 L593.8799141052361,263.21688318324516 L588.1672022705959,263.74600405960877 L586.1568418787624,263.48144362142676 L583.1420486368802,263.9044413841696 L580.0749411840616,265.0673115587773 L575.4727853130888,263.21688318324516 L572.510306282147,264.37975335785245 L567.1817302249808,264.0105644977908 L562.1819863508643,264.32743914691247 L558.0954991305855,265.12112046145825 L553.5336999366253,266.58890775125843 L548.8134634181042,267.81903905421706 L542.9811762441717,272.1028255843264 L537.6645577209332,275.1176188262072 L532.6663085385596,278.9664500596445 L527.319796180499,277.18926157942826 L522.0211139581568,277.34172013702454 L517.5370387347334,277.24008109862694 L511.3206157833298,275.86496469677746 L506.5824429639132,275.15050204451245 L502.35396002822574,274.89640444851835 L497.9221990157446,275.15050204451245 L493.7430409075147,274.74394589092213 L485.184435997743,273.62292708506646 L480.54790221672516,274.1834364879943 L475.96218795490586,273.4181543165301 L471.8353440576153,271.992218395482 L463.3768834944995,267.1524065376685 L459.91368273027814,265.9805682126141 L455.6837051028498,264.9611884451562 L448.5002165949273,264.0942672352947 L442.8443030464503,265.0120079643549 L434.8462075396071,267.4065041336624 L428.8360520484801,268.6127203687629 z"/>
	
</g></g></svg>