<svg xmlns="http://www.w3.org/2000/svg" version="1.2" baseProfile="tiny" width="600" height="600" stroke-linecap="round" stroke-linejoin="round"><rect id="backgroundrect" width="100%" height="100%" x="0" y="0" fill="none" stroke="none" class="" style=""/>































































































































































































































































































































































































































































































































































































































<g class="currentLayer" style=""><title>Layer 1</title><g class="city city-13 selected" id="bitlis" title="Bitlis">
	<path id="bitlis-adilcevaz" title="Adilcevaz" class="district" d="M485.5399165844828,236.24604523173315 L463.23819463068253,245.5676160079749 L442.0349069779861,256.3785762941576 L425.50998122322915,243.14498425501102 L408.57522929685985,223.7178107018482 L393.2347095248287,203.860188207136 L388.2541947264335,192.20370321433842 L385.88287873142036,186.1611405516641 L385.5106130032348,184.95118113193067 L385.1116376263898,182.242789157266 L384.4739447646549,179.2178906079326 L383.9948404418327,178.00702688370015 L382.6384910958644,176.16315001013035 L381.94737893681094,174.86637735848794 L381.14942818312136,170.14138635093423 L382.8513336086167,166.59741701914422 L383.1434703908251,164.86929112145324 L383.11759541868656,163.5146429818714 L381.68111712674107,161.00791091049558 L379.9525020525872,159.19297178089545 L379.07525702944093,158.01104580063281 L378.19717732977387,157.52181706664493 L376.70811441703074,156.1101977436226 L375.2983457737448,152.96954821841044 L373.31598903732936,145.54611258568158 L374.6907012667509,144.08566081971037 L376.09295782135194,141.74984229865566 L376.7932514221318,139.1508711683764 L376.06541349617197,133.3687482014294 L376.2815947150067,132.25826227659184 L378.62620106136035,129.5426358659347 L380.6753319194231,128.5497095259741 L382.7503377496244,127.99446656355539 L388.8150973482737,127.90765333164626 L391.5645218071163,127.79009374676929 L395.2571307342324,127.8778112831775 L398.7343931190348,127.70328051486015 L401.48381757787746,127.26469283281932 L402.7241468874833,126.68051212643081 L407.5218675278682,125.27884015289814 L410.3522556092083,124.31485155690731 L416.06645106920774,121.190479512678 L417.13984507469405,120.30787832160192 L419.9752412151581,118.00732767601033 L421.646263609391,117.39420922565216 L423.8564870359289,116.28462760531369 L429.7868637147626,114.94083111972049 L433.37179937072165,114.26893287692374 L437.76553657513807,113.07163372017718 L442.42887429570726,111.6699617466445 L445.0163715095541,111.05684329628632 L447.79250561705624,110.58931787027583 L450.0027290435937,110.64809766271424 L452.1595331728136,111.20334062513295 L454.1001560831988,112.2252047090632 L457.49645484550365,115.67150915495549 L459.4904970532068,117.51086450603003 L461.5396279112696,118.59150838239876 L466.84983993530057,119.67215225876754 L477.01119189703445,119.9931803559314 L479.8958339522137,120.2264909166872 L480.7046355006711,120.46070578194204 L485.1517920024055,123.14739444862951 L486.49979458316807,124.19819627652944 L487.5239426739392,124.69465944650975 L489.2492190420106,125.10340508008181 L491.9176798783556,125.24990240892848 L493.0762108889429,125.07446733611215 L495.36739793797847,123.93594797180398 L496.1761994864359,123.2351119850376 L496.63443689624296,121.24925930511654 L497.36227482220266,117.07318112848816 L497.8205122320097,115.14520393650645 L498.49409618413046,113.42250386580992 L500.24691687738186,109.94726167594797 L500.7318639358479,108.69118272676285 L501.24352064297307,105.77118349931959 L501.32448426547114,104.13529666053208 L500.78528323316607,100.13465355672014 L500.7318639358479,98.32423594961539 L501.0014644520002,96.13401045290823 L501.48641151046684,94.87793150372309 L502.1332858139285,94.14815777298705 L503.69663493700426,93.53503932262883 L507.5778807577751,93.79819193185337 L511.62188850006214,94.26481305336492 L519.2767068704467,95.02442883256974 L519.9786698242675,94.70611364890294 L522.9409367958623,96.89995636360639 L525.998356890805,98.97533518893381 L529.3504177975176,102.60702205713203 L530.8236218563695,104.6028220865427 L532.4812894262731,107.15657799186931 L534.6180613189983,112.46484540131235 L535.3918064535908,115.01950561113816 L537.0127482565877,118.57161368341963 L537.8599449249928,121.56486157528613 L538.4859523154395,127.07207597452097 L540.512546907446,131.42268491946658 L542.2069402442555,133.37869555091888 L544.6233287713809,134.7586642164743 L548.0538492710295,135.7723895599131 L560.5264205182937,135.7723895599131 L568.3222992206588,134.0831487556814 L576.1173432465034,133.40763329488854 L583.2897185879834,133.7449388730355 L592.0204349934163,135.4341796772672 L596.6979622148351,137.79893594229156 L600.7511513988486,142.19114289419366 L601.9981581206189,146.58244554159668 L601.0633204175516,154.35313410196196 L597.9449689366055,162.12291835782833 L588.589914493767,172.9338786440109 L574.5581675060301,184.7576599691333 L559.5907481387054,196.91965117690157 L538.6987948281911,211.44639864969443 L519.0546829159681,222.2573589358771 L485.5399165844828,236.24604523173315 z"/>
	<path id="bitlis-ahlat" title="Ahlat" class="district" d="M393.2347095248287,203.860188207136 L323.6210183540936,225.08421479991785 L320.50099752010647,226.73818772868637 L313.3436463559967,230.0814014616865 L306.0852993328953,232.5067461281476 L298.5890695014239,235.7776155012234 L286.44703015631603,240.8118786474534 L278.81474805198764,243.75177257387577 L273.5579553252752,245.51607065152893 L270.67498262313694,245.66256798037557 L264.2304452076163,245.80996961372125 L252.2912322570134,244.48697213160608 L245.371763901274,243.56819876056795 L243.06471799834668,241.0325289452225 L240.14835823538507,237.57808575883868 L238.07919514082766,234.9691672790698 L234.4157998919325,230.74335235499365 L230.48113477384405,225.8194143576482 L226.41125205941853,221.409121315765 L215.47782431613354,208.20446702058823 L209.718556324022,198.28786388396938 L209.75444741440782,197.9659314823063 L208.43398915882486,195.95114105841546 L206.87064003574912,194.87049718204676 L204.60616263537256,193.67319802530017 L202.85417661864162,193.11795506288135 L198.94538647269127,191.51191027256266 L197.94794803057914,190.4611084446626 L197.1399811586427,189.05943647113008 L197.03147321096512,187.51126716875063 L197.81356511076345,185.84644258599346 L200.29338905345375,184.09480477132723 L202.07208471884326,183.2474714557142 L203.7439417895971,181.70020645783396 L206.0342941621117,178.31268180438022 L207.2203694978785,177.2320379280114 L209.91637465940303,175.8593036984484 L212.07234411210243,175.62599313769277 L218.2456116584293,174.5742870052936 L224.04077074092632,173.23049051970042 L226.03481294862954,172.61737206934225 L226.92457811958502,172.03319136295383 L227.76008931670148,170.5148641090433 L227.86776258785812,168.96759911116303 L227.329396232074,165.55023240924044 L225.98139365131146,162.83460599858327 L225.87121635059293,161.85524422610845 L226.38537708727995,160.20579281983518 L228.81178173265218,157.05248303163629 L230.75240464303732,155.41659619284877 L233.01688204341386,153.7816136585603 L234.87654133130147,152.08785133183343 L235.9006894220726,150.71511710227043 L236.79045459302807,149.08013456798196 L238.35380371610384,145.45839504927338 L239.40466145553404,143.35588708897444 L240.4830635201437,142.3918984929835 L242.3160131593723,141.83755983506387 L244.3643093409146,141.60334496980903 L246.14383968282505,142.01209060338107 L254.2301858143576,142.83048617502433 L257.89608509281476,142.5085537733614 L262.7747693556972,142.27524321260563 L265.36226656954454,141.6331870182778 L267.54578034742303,140.75691595869506 L271.2650989231982,139.6473343383567 L275.87501734644934,137.51498432958886 L277.6537130118388,136.55190003809702 L281.0233021254846,135.3536965768514 L286.2792601756765,132.98894031182698 L288.03124619240697,132.05388945980573 L293.85311492356345,130.15575431629276 L300.32269263470164,127.29363057678901 L305.2280865462437,125.39549543327601 L306.7113067233423,124.40256909331555 L309.6218237506601,121.68694268265827 L312.61413907699597,120.46070578194204 L316.4686752491078,119.613372466329 L318.5445157558296,119.7888075391453 L321.3206498633317,120.4308637334733 L324.9865491417883,121.68694268265827 L327.00813567467156,122.09568831623051 L330.1924266007445,123.35538448341174 L333.69305992812406,124.40256909331555 L338.46407091984986,125.42533748174475 L342.74930017658875,125.13324712855058 L350.5935901171485,124.49028662972364 L352.91148681484304,124.57800416613185 L354.7444364540716,124.84115677535638 L357.331933667919,125.54199276212265 L358.51800900368585,126.65157438246112 L361.0787965688737,129.86366396309856 L362.39925482445614,132.49247714184668 L363.8824750015553,137.8360124267529 L366.4424278902227,144.64090378212921 L369.3537795940609,146.56797666961188 L369.91969027502506,146.59781871808062 L373.31598903732936,145.54611258568158 L375.2983457737448,152.96954821841044 L376.70811441703074,156.1101977436226 L378.19717732977387,157.52181706664493 L379.07525702944093,158.01104580063281 L379.9525020525872,159.19297178089545 L381.68111712674107,161.00791091049558 L383.11759541868656,163.5146429818714 L383.1434703908251,164.86929112145324 L382.8513336086167,166.59741701914422 L381.14942818312136,170.14138635093423 L381.94737893681094,174.86637735848794 L382.6384910958644,176.16315001013035 L383.9948404418327,178.00702688370015 L384.4739447646549,179.2178906079326 L385.1116376263898,182.242789157266 L385.5106130032348,184.95118113193067 L385.88287873142036,186.1611405516641 L388.2541947264335,192.20370321433842 L393.2347095248287,203.860188207136 z"/>
	<path id="bitlis-merkez" title="Merkez" class="district" d="M252.2236234588451,402.4083797147875 L251.17693910201785,399.68551886813793 L248.95252617463007,395.4515652035702 L248.0627610036746,394.48757660757934 L246.34750075385054,393.3861337277324 L244.0596524108969,392.28469084788543 L241.13661523577034,391.3894293938227 L237.22782508981996,390.7699808119712 L235.19455308564838,390.7699808119712 L230.4602678608289,390.39107722686765 L227.79180702448392,390.3567136559037 L222.5483691221008,390.4941679397598 L217.24233048067285,391.3550658228586 L213.01636325689597,392.3534179898134 L209.01325466411876,394.1783044689031 L207.1385711988604,395.38283806164225 L206.72540632116514,395.89919593060165 L205.86735885799257,399.0660702862864 L204.18381631595096,401.7165867730118 L203.48435739169165,403.3343875218182 L200.81589655534663,406.81143832067823 L199.03636621343617,408.3261483565925 L197.25683587152616,410.11576696021916 L195.76359957618018,410.63212482917857 L194.55665732739823,410.7361198465697 L190.90244352022992,412.0437441522008 L185.6598402943673,410.97666484331796 L182.32363824154547,411.0110284142819 L180.38551936072224,410.8735741304258 L178.86056535759334,411.1837505736011 L175.58779872033688,412.49137487923224 L173.01365633081926,413.386636333295 L168.9153946146937,415.34897709624073 L166.27781680961118,417.0011414160113 L161.0034958759656,421.1320043676868 L159.8599890427495,421.82018009146645 L157.76244694649208,421.8889072333945 L154.871127479148,421.4765443818261 L153.50476201493277,420.6843736406555 L152.48812601284698,419.7891121865926 L151.02744210180396,418.00491940996045 L150.2002776698939,415.86533496520013 L149.53337112993754,412.80155132240753 L149.1202062522427,412.0781077231648 L147.5952522491138,410.4946705453225 L145.05282756737913,408.67068837073197 L144.03619156529336,408.2917847856285 L142.09807268446963,408.63632479976786 L138.31698804617054,408.876869796516 L137.26863433630228,409.25577338161935 L135.33051545547858,410.6673927046417 L133.93243228348044,410.6673927046417 L130.50107710731078,409.66904053768684 L126.87858100792491,407.2934326186736 L125.76679188249129,406.70834760778615 L123.19264949297366,406.36380759364675 L121.63597778206228,406.536529752966 L117.63286918928455,406.6396204658581 L115.21815001520115,405.95054043757943 L112.23084274798823,404.7460068448404 L109.78440586612184,403.3000239508541 L107.8145692775157,402.5431210851465 L106.79793327542991,401.8540410568678 L105.62187405791042,399.78860958103 L104.82809668682376,397.06936595237664 L103.52516663817347,395.0039344765389 L102.7305545905663,394.7290259088266 L100.03454942904182,394.51741865604816 L99.72905782250363,392.42214513174156 L99.09470366685069,390.2310153305353 L99.00455860262674,387.58230745280804 L99.33592518130298,384.44256223209493 L100.12135578718377,381.49905108767626 L100.84585500706116,380.81177966839573 L102.74724812097851,379.6669301725943 L104.07605314176686,377.83571356201116 L105.04177387609651,376.16817606575694 L105.70617638649044,373.74735292179105 L107.12429179498272,371.1637549679957 L110.08322006049515,367.9588998233507 L111.53221850024987,366.02911402237083 L114.76241663495558,364.13188318335693 L117.50933706423672,363.70686006880186 L123.12420601828484,363.1507128018841 L130.64046808625034,362.82425887772587 L133.59939635176275,362.4643456871027 L134.98746340551355,362.95447872558947 L136.61758665023714,364.3281172596515 L137.43306561085944,364.72058541224067 L139.15333391980747,365.047943640898 L142.77583001919382,364.3606722216175 L143.80248213952643,363.70686006880186 L148.02844936330325,359.978412619205 L153.09994390244384,357.2636905130468 L156.84346809731608,354.18995952076455 L160.0736662320218,351.9653704530934 L162.42828869662276,349.8728098422839 L164.420661551285,347.48454166028404 L165.4773620263596,345.2934118590778 L166.05078479600908,342.28479079072736 L166.20186124623652,339.701192836932 L165.99068808652618,336.92045650234303 L166.20186124623652,333.1268991288143 L166.08083315075012,330.90321436564204 L165.50741038110107,328.4498362597104 L164.20948839157418,325.8011283819831 L163.60518259066325,325.0813020007367 L160.61704064692984,322.6613831612699 L156.6322949376053,320.37168416966693 L153.76434641283777,319.1942797118994 L150.32297511842125,317.36306310131647 L149.02505312889485,315.59695641466527 L148.60187213295276,313.4058266134591 L148.93407338814998,311.47604081247925 L148.57182377821127,304.2479349515459 L150.93145430193564,301.56215058935754 L153.10829066764967,300.77630997968015 L156.1824042930041,300.4399087060324 L159.18723976714924,300.47698519049356 L164.7837458377442,301.11361555782713 L170.03386115229222,300.4399087060324 L173.90342150177472,299.3167625182081 L179.08425866511294,299.0924950024429 L184.3352086561814,298.7181129398347 L186.20071067971338,299.1675522758643 L190.24221439243843,300.8884437375628 L191.89988196234157,301.4129403470137 L193.31632801779284,302.2358574411523 L194.66349592203485,302.64731598822146 L195.7694423118241,302.68529677718186 L199.74166787333985,301.8994561675044 L209.24112135424127,298.9053039711389 L214.14651526578277,296.39766759526395 L216.39179510618564,295.12531116509587 L221.7111885719434,291.56958587481813 L223.9906901496907,289.6235225928554 L225.68341413345868,287.9397076156181 L226.8235822605928,286.29296912284195 L227.59064998302043,284.4924988652267 L230.96023909666573,285.92582149622626 L232.50188663020631,286.7604945488525 L233.71717564419416,287.85289438370893 L235.7629677961745,290.3261671886199 L237.77871159341336,293.4731468453254 L239.55740725880287,297.29564196282394 L240.210124297909,300.892965260058 L240.44717242975838,306.3531558253421 L241.69250979848715,311.01032399546676 L242.58144029292166,313.00160250238224 L243.23332265550727,315.7316977850244 L243.61894320802256,319.32902108225846 L244.15313618120373,322.4443500814972 L244.80501854378937,323.47254429692083 L247.29485860472647,326.3627014758952 L249.25217504552384,328.3223293253438 L253.22440060703966,329.9925797350955 L257.9378189188445,331.4060076671157 L260.576231400448,332.3690919586076 L266.44651136979866,334.3287198080561 L267.7210624167485,334.64974790522007 L270.5673093519803,334.7456041821198 L273.5020319983952,335.3560097189807 L276.6738027766594,336.9304038518325 L278.60107086271535,339.1785048364792 L279.3723119677459,340.84875524623067 L279.9649322973691,342.77582813371333 L280.4982905940298,345.40916283495665 L281.53579350913014,348.71801299699285 L284.55982654324896,357.16512132265 L285.212543582355,358.2891718149733 L286.5163083075259,359.5099828886954 L287.8509560639586,360.4088615607543 L290.0736996383053,361.5971176725105 L295.5884074098822,364.2630073357197 L294.0167115216001,365.9016070880043 L291.8824436584363,368.59914740868044 L291.1712992628887,370.26939781843186 L289.27324485505375,378.36382738945844 L288.9477210120215,381.5433620081298 L288.73988655839304,385.1081303433981 L289.0954587561669,390.66508149008087 L288.26579029469434,393.90882172818516 L287.4653355114433,395.03287222050847 L286.2792601756765,395.99686081649935 L284.5898748979904,396.8957394885583 L281.9214140616454,397.44193940598666 L279.28300158004197,397.7629675031505 L274.0353902950559,398.05234494284764 L270.5372609972389,398.56598989830997 L265.3497464217353,400.71823460605685 L263.74883685523264,401.1360232846195 L260.48775568926453,401.3286401429179 L257.7900811746991,401.1360232846195 L255.62576495679377,401.20022890405215 L253.07582818637374,401.90649071781286 L252.2236234588451,402.4083797147875 z"/>
	<path id="bitlis-guroymak" title="Güroymak" class="district" d="M245.371763901274,243.56819876056795 L243.57720938199276,249.6161872502367 L242.71331918317586,251.37505950089547 L240.5715392313272,253.88269587677036 L239.70848370903073,255.4923578850853 L238.39553754213364,258.82291135509877 L236.25375759028492,263.0523434971712 L234.45753371796226,267.0936803034406 L232.69553158298447,271.9588385083474 L231.486919981162,275.06512446259575 L229.79419599739356,278.54579247945196 L227.59064998302043,284.4924988652267 L226.8235822605928,286.29296912284195 L225.68341413345868,287.9397076156181 L223.9906901496907,289.6235225928554 L221.7111885719434,291.56958587481813 L216.39179510618564,295.12531116509587 L214.14651526578277,296.39766759526395 L209.24112135424127,298.9053039711389 L199.74166787333985,301.8994561675044 L195.7694423118241,302.68529677718186 L194.66349592203485,302.64731598822146 L193.31632801779284,302.2358574411523 L191.89988196234157,301.4129403470137 L190.24221439243843,300.8884437375628 L186.20071067971338,299.1675522758643 L184.3352086561814,298.7181129398347 L179.08425866511294,299.0924950024429 L173.90342150177472,299.3167625182081 L170.03386115229222,300.4399087060324 L164.7837458377442,301.11361555782713 L159.18723976714924,300.47698519049356 L156.1824042930041,300.4399087060324 L153.10829066764967,300.77630997968015 L150.93145430193564,301.56215058935754 L148.57182377821127,304.2479349515459 L148.02844936330325,303.4304436844016 L146.3382294090967,301.8605710740451 L144.6480094548902,300.61715238784683 L140.42120755459285,296.46368182369486 L138.12751647599532,294.50134106074916 L134.83638695528572,291.1002518398095 L134.71619353631976,290.2502056106993 L134.65526215031633,286.5217581611024 L135.31966466071077,285.04955043664353 L136.6785180362411,281.12486891075207 L137.52321067508387,280.0125743769165 L139.45548682026316,279.0974182238745 L141.8702059943471,278.67239510931944 L145.46265373899146,278.44270176655994 L147.57605468914014,277.2652973087925 L149.4774478030575,275.3029565458467 L151.59084875320616,272.0329914772699 L152.85872238799155,267.68238253232437 L152.64754922828072,265.4912527311181 L152.2243682323386,264.47752738767923 L147.91994141562563,259.1475566702589 L148.45914244793073,258.00813300145165 L148.7554526127421,254.2118627144257 L148.70203331542402,252.5470381316685 L148.21625158043744,250.5322477077778 L147.86652211830759,247.84555904109033 L148.13612263445987,245.85970636116912 L149.29465364504716,244.92555981364706 L151.37049415176898,242.90986508525714 L156.86934306945463,239.49340268783357 L161.6670637098395,236.83565176511595 L169.64573657021495,233.1270990144982 L173.31163584867207,231.20002612701555 L174.20140101962753,229.7685121050141 L176.54600736598118,222.1461294824935 L178.0826468403979,220.10240131463297 L179.2420125275057,219.37262758389687 L182.23349317732104,218.05776884227336 L188.75649018577784,214.75796172522772 L190.29312966019455,213.67731784885902 L197.0047635623061,207.63204227268747 L202.71895902230497,203.42702635208946 L206.1428021097893,201.87976135420922 L209.08086346228657,199.48516304071597 L209.718556324022,198.28786388396938 L215.47782431613354,208.20446702058823 L226.41125205941853,221.409121315765 L230.48113477384405,225.8194143576482 L234.4157998919325,230.74335235499365 L238.07919514082766,234.9691672790698 L240.14835823538507,237.57808575883868 L243.06471799834668,241.0325289452225 L245.371763901274,243.56819876056795 z"/>
	<path id="bitlis-hizan" title="Hizan" class="district" d="M295.5884074098822,364.2630073357197 L298.7793757481201,361.2914627518304 L299.9971687916693,359.8879821692996 L301.2667117794957,359.38247595432887 L306.501802916673,359.0732038156526 L315.4937730730517,358.1191625691514 L320.4951547844621,358.48359728226984 L326.50732976231427,358.2312963270339 L329.79762460650295,358.3434300849166 L331.14562718726546,358.7648359814753 L333.2707136087024,360.0561828061236 L336.1470088986757,362.9481485940961 L339.54163830793914,366.8782559469818 L340.91468118431914,367.8612349374529 L343.48047680863095,369.0684814436892 L344.2834356214439,370.30376138939596 L345.21660397147014,373.8974674686339 L345.2683539157473,375.27291461169403 L345.8643129514524,377.7995413820491 L346.7716063293401,380.2420678339921 L348.43010857576417,383.44330576064095 L351.07352911649104,385.9138656520547 L352.52419690928684,386.89594033802666 L355.40049219926016,387.2052124767028 L358.0697877121257,386.83987345908525 L360.66145830857596,386.0540328494079 L362.3458355271381,385.3803259976132 L365.37738064994227,383.8638073527008 L367.0100079242278,382.46032677017 L370.5340121941834,378.1648803996667 L372.0631395799152,375.1327474143407 L373.48876707709286,373.33589437472176 L375.4577689891786,371.76330885086804 L377.16802117987925,370.7812341648961 L380.7187350984939,369.26471551998367 L384.2944893127265,369.40578702183603 L386.49720065057915,368.59100866818886 L387.792618610544,367.7491011795703 L388.8034118769854,367.4958959198354 L392.89833488702857,367.8612349374529 L394.737961938422,368.3667411524237 L400.3353026855379,370.47196202621984 L403.43445660650997,371.73075388890214 L403.43445660650997,372.84666564073405 L404.46528210944587,375.1806755527906 L406.0570102342222,377.2442984196304 L406.4943807310146,378.42803300889125 L407.43088778712325,382.2496238218905 L407.8365405761326,383.0273256910765 L408.9291321415926,383.8393911312264 L410.17780821640383,383.8728503976912 L412.42559208636874,383.60246335247433 L413.67426816117995,384.24451954680217 L414.89122652820873,386.5785294588589 L415.85945129209983,388.1004739307656 L418.6689724604259,391.14436287457914 L419.26159279004855,392.12553325605194 L421.4158928897065,393.8165826692818 L423.10193946131005,394.7299302133256 L424.7871513563933,395.9136648025864 L425.7862591515463,397.84073769006903 L425.7553761202843,399.4983278368339 L424.41321627516623,401.89925628182044 L423.6636767596713,404.2332661938772 L423.1954232316169,408.56217183084556 L422.9767379832208,409.0694866548144 L421.0102401006971,409.94937493239325 L418.91854074008404,410.45668975636227 L414.6416582485506,410.9296410093672 L413.04993012377435,412.1477391695919 L411.9573385583144,414.5152083481136 L411.61345183182885,416.4088219691313 L411.2395167506019,417.28871024671014 L408.9917328806376,419.9265664704488 L408.61696312288956,421.38068810492655 L407.9926250854839,422.6657047980813 L406.65046524036586,423.71469801698316 L404.58964891101476,424.59368199006303 L402.7483525065804,425.7439573128588 L402.12401446917477,427.19807894733674 L401.56144249429303,429.7681123336463 L400.06319813982367,433.79317165893264 L399.6575453508138,437.412198264144 L399.75102912112067,439.40709398905585 L400.219282649175,440.3204415330997 L401.62404323333794,441.7745631675774 L403.46617431429286,443.29650763948405 L406.80654974971765,445.1232027275718 L407.9609073777015,446.17129164197473 L408.8356483712858,447.62631758095154 L407.9926250854839,449.9259639220441 L406.7122313028903,452.9020300284288 L406.30657851388037,455.77681403091924 L405.33918842650974,457.70479122290095 L404.3400806313566,460.17354250531656 L403.8718271033023,463.79256911052806 L402.5922679972291,467.0733858330935 L401.8427284817336,467.6485234944914 L399.4079770711556,468.96699945411126 L398.4714700150474,469.91471056911905 L397.0975924621464,472.1799933392478 L396.3797706544339,474.71656745909235 L396.22368614508264,476.30633476842814 L396.1660934651616,480.27351860577505 L393.26809658565264,482.92313078800134 L391.5520016593075,485.5049201327987 L388.59724677639855,488.0523459066319 L387.10401048105257,488.77488520137547 L384.9747506770122,489.29124307033504 L383.06834950397143,489.3599702122631 L377.9208994014566,489.25687949937094 L372.2016958823338,490.4966809675731 L370.1049884625973,490.7715895352852 L367.08679816412246,491.7699417022401 L364.0677731891276,492.1144817163795 L359.39692337987304,491.9761231280243 L356.5690393280943,491.0474024074966 L352.91566019744647,490.63413525142914 L349.57945814462465,489.18815235744285 L346.11555058415195,488.3272544743441 L343.25594882459035,487.4672608957444 L342.0172888680264,486.7094537255377 L339.5708519861596,484.1276643807403 L338.4582281842055,483.47385222792485 L337.3464390587718,481.9591421920105 L336.9332741810771,479.9624378581007 L337.4098744743373,478.89535854921775 L337.88647476759746,476.82992707337996 L338.14105110637905,474.52395060079397 L338.07761569081356,472.8708819765244 L337.72788622868416,471.5632576708933 L337.02842730442495,470.59926907490257 L334.2005432526462,469.0845590389881 L332.45356529503914,468.5338375990648 L329.9428583210864,468.05184330106925 L325.5900202661793,467.4667582901817 L323.8430423085722,466.9847639921864 L321.5551939656191,465.8489575413753 L319.9342521626219,464.2655203635329 L318.0278509895811,462.8195374695467 L315.83599044649634,460.891560277565 L312.91295327136925,457.1396009109926 L309.7987751730265,455.1772601480469 L306.4308554124222,453.6625501121325 L303.6346890684259,451.73457292015075 L301.6648524798198,449.56605073142083 L300.7116518932994,448.1544314083987 L295.8822135451316,442.23394985309636 L294.1026832032216,440.8910576720023 L292.3865882768765,439.9614326469754 L290.9885051048784,439.61779693733513 L286.8902433887528,439.58343336637114 L282.44141753397685,438.03435975949276 L280.31299240645745,437.79291045824556 L278.1202971868522,437.31091616025003 L275.6421425972029,436.5540132945425 L271.73418712777305,433.73077464849797 L270.0815276169933,432.4231503428669 L268.3028319516038,430.6669910057052 L266.87303107182277,428.98046311497075 L265.12521843769514,425.84795233025005 L263.4416758956536,421.20073150961497 L262.6153461402634,419.47984004791635 L261.15382755269997,417.68931713979083 L256.58564295547905,416.7397974157847 L254.61747571991387,415.5253164735562 L253.13509021933572,413.34051680384323 L252.09758730423528,409.35795979001244 L252.0775550677406,404.22874467138183 L252.2236234588451,402.4083797147875 L253.07582818637374,401.90649071781286 L255.62576495679377,401.20022890405215 L257.7900811746991,401.1360232846195 L260.48775568926453,401.3286401429179 L263.74883685523264,401.1360232846195 L265.3497464217353,400.71823460605685 L270.5372609972389,398.56598989830997 L274.0353902950559,398.05234494284764 L279.28300158004197,397.7629675031505 L281.9214140616454,397.44193940598666 L284.5898748979904,396.8957394885583 L286.2792601756765,395.99686081649935 L287.4653355114433,395.03287222050847 L288.26579029469434,393.90882172818516 L289.0954587561669,390.66508149008087 L288.73988655839304,385.1081303433981 L288.9477210120215,381.5433620081298 L289.27324485505375,378.36382738945844 L291.1712992628887,370.26939781843186 L291.8824436584363,368.59914740868044 L294.0167115216001,365.9016070880043 L295.5884074098822,364.2630073357197 z"/>
	<path id="bitlis-mutki" title="Mutki" class="district" d="M23.927909604591378,256.4608680035714 L31.34067178400317,255.14600926194788 L36.947193972845454,254.2995802508339 L41.63724134207369,253.74433728841524 L48.942330250328375,252.5470381316685 L54.6832353589868,251.81726440093257 L61.74543339974821,250.73662052456376 L68.24172075954597,250.64890298815567 L72.58120399012384,250.70768278059404 L75.70790223627583,251.1164284141662 L83.44451890567849,251.52517404773823 L93.14763345760535,252.3716030588522 L103.44503769219635,253.71539954444557 L105.00838681527263,253.97855215367002 L110.42627211046015,255.73018996833628 L116.76063222526228,257.658167160318 L125.46714301159749,260.05276547381123 L132.0978132912109,260.89919448492526 L138.27024616101733,261.2202225820891 L141.28927113601222,261.27900237452764 L145.46682712159438,260.40273131494496 L147.91994141562563,259.1475566702589 L152.2243682323386,264.47752738767923 L152.64754922828072,265.4912527311181 L152.85872238799155,267.68238253232437 L151.59084875320616,272.0329914772699 L149.4774478030575,275.3029565458467 L147.57605468914014,277.2652973087925 L145.46265373899146,278.44270176655994 L141.8702059943471,278.67239510931944 L139.45548682026316,279.0974182238745 L137.52321067508387,280.0125743769165 L136.6785180362411,281.12486891075207 L135.31966466071077,285.04955043664353 L134.65526215031633,286.5217581611024 L134.71619353631976,290.2502056106993 L134.83638695528572,291.1002518398095 L138.12751647599532,294.50134106074916 L140.42120755459285,296.46368182369486 L144.6480094548902,300.61715238784683 L146.3382294090967,301.8605710740451 L148.02844936330325,303.4304436844016 L148.57182377821127,304.2479349515459 L148.93407338814998,311.47604081247925 L148.60187213295276,313.4058266134591 L149.02505312889485,315.59695641466527 L150.32297511842125,317.36306310131647 L153.76434641283777,319.1942797118994 L156.6322949376053,320.37168416966693 L160.61704064692984,322.6613831612699 L163.60518259066325,325.0813020007367 L164.20948839157418,325.8011283819831 L165.50741038110107,328.4498362597104 L166.08083315075012,330.90321436564204 L166.20186124623652,333.1268991288143 L165.99068808652618,336.92045650234303 L166.20186124623652,339.701192836932 L166.05078479600908,342.28479079072736 L165.4773620263596,345.2934118590778 L164.420661551285,347.48454166028404 L162.42828869662276,349.8728098422839 L160.0736662320218,351.9653704530934 L156.84346809731608,354.18995952076455 L153.09994390244384,357.2636905130468 L148.02844936330325,359.978412619205 L143.80248213952643,363.70686006880186 L142.77583001919382,364.3606722216175 L139.15333391980747,365.047943640898 L137.43306561085944,364.72058541224067 L136.61758665023714,364.3281172596515 L134.98746340551355,362.95447872558947 L133.59939635176275,362.4643456871027 L130.64046808625034,362.82425887772587 L123.12420601828484,363.1507128018841 L117.50933706423672,363.70686006880186 L114.76241663495558,364.13188318335693 L111.53221850024987,366.02911402237083 L110.08322006049515,367.9588998233507 L107.12429179498272,371.1637549679957 L105.70617638649044,373.74735292179105 L105.04177387609651,376.16817606575694 L104.07605314176686,377.83571356201116 L102.74724812097851,379.6669301725943 L100.84585500706116,380.81177966839573 L100.12135578718377,381.49905108767626 L99.33592518130298,384.44256223209493 L99.00455860262674,387.58230745280804 L99.09470366685069,390.2310153305353 L99.72905782250363,392.42214513174156 L100.03454942904182,394.51741865604816 L94.69178502070793,394.14303659344006 L90.08520530353923,393.5235880115885 L88.0836510071506,392.93850300070096 L80.87037651616085,391.3894293938227 L74.67457270377784,390.8730715248632 L71.26825782322621,390.71120101953255 L69.48121539263087,390.4959765487579 L67.89199129741607,390.0302597317454 L66.33615426302569,388.9541373778719 L62.59513409771488,387.23234161167437 L61.005910002500585,386.62284037931244 L57.39760340396448,384.61347578241606 L54.483747670564284,382.85641214075537 L50.77611456607741,381.7802897868819 L50.83203789295742,379.187648788096 L49.425607955753435,376.09402309683446 L47.728710589382025,372.91087126016674 L45.2572334118981,367.7843690550333 L44.90750394976819,366.3139699395726 L44.24810949849768,361.1856591254412 L43.937609832835605,357.06564782775416 L43.12296554873429,353.91324234405425 L42.57959113382627,351.2229364593705 L42.3083212646325,346.0530276382826 L42.42434130099547,341.93392064509464 L42.274934203809075,338.02189938219 L41.69232999243324,332.7063975367544 L41.754930731477636,331.4421798470778 L42.035382042397764,330.36515318870534 L43.578698928979854,327.6884118715074 L44.5051898668412,321.85293493911627 L44.23058129156498,316.3520506713748 L44.26480302890939,312.0403268198885 L44.09369434218737,308.5090177510852 L44.57363334153002,305.5356645581978 L43.85330750425557,302.11648924727723 L42.34421235501837,297.2097330354139 L40.8342825292607,292.8989134884266 L39.770904642021236,290.70507077372315 L38.39869644216165,290.14801920230633 L33.49246785409917,289.88757950657896 L26.906035430077463,289.0330117549736 L22.136693791392595,287.58341164299105 L18.260456029745658,285.8733718352812 L15.001044216818974,284.6842114190261 L11.947797504479194,282.937095126855 L6.698516866451697,278.0312432194907 L3.336439841491797,275.42865487121514 L0.6604669164614437,273.1615634920885 L-2.3527153228895368,270.9451131649087 L-1.409530854615985,269.3101306306202 L0.09956429462121183,267.67424379183285 L4.062608414409644,264.3744366747872 L8.294418373831375,262.1552734341102 L13.846686588834599,258.97212159744254 L16.245546909027286,257.86253997710406 L23.927909604591378,256.4608680035714 z"/>
	<path id="bitlis-tatvan" title="Tatvan" class="district" d="M245.371763901274,243.56819876056795 L252.2912322570134,244.48697213160608 L264.2304452076163,245.80996961372125 L270.67498262313694,245.66256798037557 L273.5579553252752,245.51607065152893 L278.81474805198764,243.75177257387577 L286.44703015631603,240.8118786474534 L298.5890695014239,235.7776155012234 L306.0852993328953,232.5067461281476 L313.3436463559967,230.0814014616865 L320.50099752010647,226.73818772868637 L323.6210183540936,225.08421479991785 L393.2347095248287,203.860188207136 L408.57522929685985,223.7178107018482 L425.50998122322915,243.14498425501102 L442.0349069779861,256.3785762941576 L433.6155249147354,271.91814480589005 L432.0563491742625,285.76937681789 L432.67985253514763,306.7148776249634 L434.1522219174785,314.13288743069796 L435.9008692281271,320.4919566680411 L437.5243150606857,323.6371277157485 L438.6477896574081,324.7195802011154 L439.0851601542,326.5453709847041 L439.0225594151556,331.4837778540343 L435.9943529984339,335.16972299217576 L434.808277662667,337.2668051254804 L432.4044092833509,343.1854780717846 L430.68747968048535,349.0706917516236 L429.78185565563865,350.8295640022823 L429.1266345869711,351.53944303403927 L424.1010472564632,353.6030659008789 L421.44677592096843,354.4485906074939 L418.4502872120297,355.73360730064866 L415.14162948438735,358.27018142049326 L411.67605257087376,359.35263390586005 L410.3030096944932,360.1303357750459 L409.58435321026025,360.9424012151958 L406.02612720296025,363.00511977753655 L405.33918842650974,363.9519265880453 L404.9953017000242,365.3725889560581 L404.777451128149,367.43530751839876 L403.43445660650997,371.73075388890214 L400.3353026855379,370.47196202621984 L394.737961938422,368.3667411524237 L392.89833488702857,367.8612349374529 L388.8034118769854,367.4958959198354 L387.792618610544,367.7491011795703 L386.49720065057915,368.59100866818886 L384.2944893127265,369.40578702183603 L380.7187350984939,369.26471551998367 L377.16802117987925,370.7812341648961 L375.4577689891786,371.76330885086804 L373.48876707709286,373.33589437472176 L372.0631395799152,375.1327474143407 L370.5340121941834,378.1648803996667 L367.0100079242278,382.46032677017 L365.37738064994227,383.8638073527008 L362.3458355271381,385.3803259976132 L360.66145830857596,386.0540328494079 L358.0697877121257,386.83987345908525 L355.40049219926016,387.2052124767028 L352.52419690928684,386.89594033802666 L351.07352911649104,385.9138656520547 L348.43010857576417,383.44330576064095 L346.7716063293401,380.2420678339921 L345.8643129514524,377.7995413820491 L345.2683539157473,375.27291461169403 L345.21660397147014,373.8974674686339 L344.2834356214439,370.30376138939596 L343.48047680863095,369.0684814436892 L340.91468118431914,367.8612349374529 L339.54163830793914,366.8782559469818 L336.1470088986757,362.9481485940961 L333.2707136087024,360.0561828061236 L331.14562718726546,358.7648359814753 L329.79762460650295,358.3434300849166 L326.50732976231427,358.2312963270339 L320.4951547844621,358.48359728226984 L315.4937730730517,358.1191625691514 L306.501802916673,359.0732038156526 L301.2667117794957,359.38247595432887 L299.9971687916693,359.8879821692996 L298.7793757481201,361.2914627518304 L295.5884074098822,364.2630073357197 L290.0736996383053,361.5971176725105 L287.8509560639586,360.4088615607543 L286.5163083075259,359.5099828886954 L285.212543582355,358.2891718149733 L284.55982654324896,357.16512132265 L281.53579350913014,348.71801299699285 L280.4982905940298,345.40916283495665 L279.9649322973691,342.77582813371333 L279.3723119677459,340.84875524623067 L278.60107086271535,339.1785048364792 L276.6738027766594,336.9304038518325 L273.5020319983952,335.3560097189807 L270.5673093519803,334.7456041821198 L267.7210624167485,334.64974790522007 L266.44651136979866,334.3287198080561 L260.576231400448,332.3690919586076 L257.9378189188445,331.4060076671157 L253.22440060703966,329.9925797350955 L249.25217504552384,328.3223293253438 L247.29485860472647,326.3627014758952 L244.80501854378937,323.47254429692083 L244.15313618120373,322.4443500814972 L243.61894320802256,319.32902108225846 L243.23332265550727,315.7316977850244 L242.58144029292166,313.00160250238224 L241.69250979848715,311.01032399546676 L240.44717242975838,306.3531558253421 L240.210124297909,300.892965260058 L239.55740725880287,297.29564196282394 L237.77871159341336,293.4731468453254 L235.7629677961745,290.3261671886199 L233.71717564419416,287.85289438370893 L232.50188663020631,286.7604945488525 L230.96023909666573,285.92582149622626 L227.59064998302043,284.4924988652267 L229.79419599739356,278.54579247945196 L231.486919981162,275.06512446259575 L232.69553158298447,271.9588385083474 L234.45753371796226,267.0936803034406 L236.25375759028492,263.0523434971712 L238.39553754213364,258.82291135509877 L239.70848370903073,255.4923578850853 L240.5715392313272,253.88269587677036 L242.71331918317586,251.37505950089547 L243.57720938199276,249.6161872502367 L245.371763901274,243.56819876056795 z"/>
	
</g></g></svg>