<svg xmlns="http://www.w3.org/2000/svg" version="1.2" baseProfile="tiny" width="600" height="600" stroke-linecap="round" stroke-linejoin="round"><rect id="backgroundrect" width="100%" height="100%" x="0" y="0" fill="none" stroke="none" class="" style=""/>































































































































































































































































































































































































































































































































































































































<g class="currentLayer" style=""><title>Layer 1</title><g class="city city-17 selected" id="canakkale" title="Çanakkale">
	<path id="canakkale-can" title="Çan" class="district" d="M361.67551366196244,324.97970280769505 L362.26266723224467,320.4032688601592 L363.94155947226983,317.1678080405848 L365.6212162351725,314.5057393794888 L367.1770202918438,311.74122465274473 L368.81539281933647,309.85744028142364 L369.7572850049971,308.0141756226349 L370.2083535030002,305.2909451313012 L370.3926035165908,301.27720002195207 L369.3681428601094,298.2466313336741 L369.06156918604245,296.5669745707714 L369.02028495063206,295.1541362922803 L368.56998097550695,291.3452833142275 L368.05775064726606,289.99360686597436 L366.95225056571974,288.7038567708368 L364.78177011515965,287.49514610076426 L363.1839173001999,285.2833814147935 L362.49125957275777,284.00586368570356 L364.8238188734475,283.0288034476562 L368.35591456967495,281.31780124675663 L369.51110863828956,280.6519018200436 L370.91095002785477,280.14043601468086 L374.7542065354165,278.9852419460663 L377.0424235091854,278.1855510157083 L380.31305238114584,277.7191920601457 L381.712893770711,277.81093480550226 L382.37420606015615,277.5647584387957 L386.91317838667146,277.02653433270393 L388.02097203685224,277.4263797978829 L388.4513984171494,278.70389752697287 L388.91317023544497,278.9959452663578 L390.0668352583031,278.965364351239 L390.86729071153906,279.5341693724496 L392.02095573439766,279.2115407179457 L392.97508028610577,278.5341734480631 L394.4513739634683,278.4730116178255 L396.20748301416774,278.7887595664277 L396.819865839423,277.96078128958476 L398.0499831500785,277.8002314852108 L398.95517823759724,278.2834099440886 L402.13559340995727,277.54564536684643 L403.4727439235296,276.6725602402031 L408.3312868130368,275.6893838191322 L412.2616989286868,275.44397197530344 L417.96580412122984,275.00742941198183 L421.15921618251593,274.3797561291674 L430.07661103117294,272.9187529093643 L431.1675851780377,273.08924151115184 L431.67981550627866,273.9248650167745 L432.69204379671316,274.8086534637092 L435.6912670469941,276.09763903596877 L437.69049437288857,276.3636929975029 L441.3563815727612,276.4753133376866 L443.6445985465286,277.11904160093843 L445.48862772819535,277.8522190409128 L447.1988654062174,278.7635303114545 L449.0650657513451,279.5410500783513 L452.4197921398829,280.6067949702433 L455.2852238865191,281.3399724102177 L459.61701051310484,283.2061727553455 L462.77219643049204,283.91717903185884 L466.3264632901798,284.4500514778048 L468.992354565666,285.65035239621966 L472.7469264193834,288.60446879670053 L475.4349888583299,290.0264813497272 L479.4334435101199,291.6036920469819 L481.21095920140283,292.0922221660055 L483.3439780309425,292.15950017926696 L484.9655310551193,292.7810572790576 L487.4311173365762,294.0249360015169 L493.45173500060014,296.00275668682843 L497.71700813680195,298.2015244838738 L502.42952715661704,300.79707965458624 L502.4945116012444,302.6281119473275 L502.3309037053592,303.9362105915362 L501.7750955730734,305.8001173680301 L500.5656203801233,308.80851489284703 L498.99605491164743,310.9659984544819 L496.5763400028693,313.64718018752717 L494.18949957784264,315.93616168417304 L491.21397653677866,318.29089214832453 L487.02897830276356,320.35051678157913 L479.6391001642935,323.228180894263 L475.8791766504311,325.15707211538444 L472.3149709933292,326.6937631001066 L470.3853152493301,328.0018617443156 L467.475541175771,329.63641165741797 L464.07494341455487,331.86040870943646 L463.38840187013676,332.5469502538547 L462.4075190177002,334.63944937086194 L461.75308743415553,336.9284308675078 L460.9358124776047,340.62336993674296 L460.6743456533387,344.5140268627386 L460.1185375210534,346.7701338756318 L459.0069212564841,348.6340406521257 L456.12925714379935,352.7869289252657 L454.592566159077,353.73493729395 L452.5650514866976,355.4023616908053 L451.4534352221273,357.5606097753182 L450.79976816146217,359.65310889232563 L449.5574184847586,361.8434669377132 L448.7401435282073,363.02083216978895 L447.0069701638468,364.13244843435916 L442.9848153028399,365.6691394190814 L441.21953197760394,366.7157712390241 L438.99553492558596,368.80827035603136 L436.5765845396843,370.70505161627807 L435.52995271974197,371.2608597485632 L432.55442967867793,372.20886811724756 L424.9030847159414,374.20350830587455 L416.40159031290057,374.89004985029277 L409.8947360984881,375.1515166745588 L405.512490961957,375.6071723098298 L405.4077513276747,373.0551949431617 L404.81677514300287,371.663763305254 L403.95209976801715,370.1882341507695 L403.04614015762195,369.55520920780924 L399.01863363646856,368.3954280019269 L395.15932214846987,367.78380969954986 L394.21054925690777,367.8472650984214 L392.48196302981427,368.4802900413817 L389.42463604080797,368.31133048535 L387.61118777425963,367.9313626149983 L385.03856828988626,366.81439469028226 L383.45677045536394,365.6546134844 L380.12574427604324,363.6936123024037 L378.24884061062346,362.47037569764973 L373.79931746083093,360.1087645275964 L370.61584419695834,358.127121227895 L368.88649344698734,356.20816880418704 L368.2962817851941,354.16230558273594 L368.27487514461006,352.79228058541145 L368.7182984138337,350.1982544604551 L368.5707454983855,347.01478119658276 L367.4109642925033,345.15928417174644 L366.841394748414,343.8725921681208 L365.6181581436604,339.8030368886799 L365.1754993973148,334.7006112010997 L364.5011902189447,331.8955767618231 L363.48896192851026,328.4169976670538 L363.1304006987425,326.7090535576662 L361.67551366196244,324.97970280769505 z"/>
	<path id="canakkale-merkez" title="Merkez" class="district" d="M160.89422188051682,341.9903368425555 L161.72067111160368,339.9857578565149 L162.15492010629129,336.8580947627346 L163.42326356084573,334.8657481427414 L165.0310551732195,332.07829772965823 L166.08227413042988,328.98350911963064 L168.9897546353545,326.1830618176219 L169.85519453321777,325.0179289515936 L172.7244488942445,322.80539974274484 L173.77490332857636,322.2274204469986 L174.96373640382194,321.9055563153726 L177.14339112891807,322.0630480282347 L178.89032590508202,322.7664090759682 L180.72823890372484,323.76258238596483 L181.91172031882445,323.9521840597017 L183.6670648466464,323.8887286608301 L183.2802162703932,324.5439247672515 L183.69917480752184,325.2029434880627 L188.01108383927965,325.5202204824209 L189.01031524078763,325.1608947297743 L189.7641347984676,325.6035534761196 L190.81306018704402,325.09820385378066 L194.2817004844,324.49805339457316 L196.17313008450068,324.9475928468204 L197.07526708050685,324.8436177354162 L198.55844146377086,323.79316330108367 L199.46287202841106,323.47053464657984 L200.41088039709516,323.5118188819904 L203.02325507112286,323.1616674038795 L203.36346775182068,322.508000343214 L204.7067344484155,321.27406041816846 L206.3749233681486,320.5898124423842 L208.32598575273167,320.0921080488248 L210.60273488332956,320.06840783960786 L212.55456179079061,319.4606121516206 L214.51938558717666,317.9032790491931 L216.3481243112845,315.86888367091166 L218.58741182086197,311.46446737091924 L220.83434455921895,310.1640139554901 L221.28082591995457,308.6701362519342 L222.68831253829973,306.3054669903692 L223.46889039670816,304.66785898575466 L224.2838717846255,301.5294925716827 L225.14625359097727,299.8941781357022 L226.2074113456011,298.58760853724925 L226.23569869208603,297.95534811716703 L225.08891437512938,296.65642374749393 L225.54609905615644,294.8215688403629 L226.13401714931626,293.4370179083569 L226.6653605495057,292.7833508476916 L228.29379427958537,291.73518998199296 L229.20051841285908,291.41332585036696 L231.16075507197763,291.61286632151746 L235.1316869001601,291.78182587754924 L236.9910065393858,291.2107272877047 L238.5858012628342,289.2130290075658 L239.70812084769585,286.9683898378421 L239.81897666500163,284.7749737009426 L238.3327441902257,282.6442484400367 L237.41149412227048,281.8835481764552 L237.0185293629928,280.86291013436363 L236.35492350491415,280.09991630214836 L236.40996915212804,278.92408011582853 L237.1095075854716,278.0678144925008 L239.43824427177196,277.0601733393346 L240.02769141068768,276.46308097163904 L239.81056691334413,275.32088379194994 L238.21347862126186,273.84535463746545 L238.66454711926548,272.4975008036021 L238.3159246869102,271.71615842231563 L238.22035932716386,270.57090315111463 L237.8113395874492,269.7108149133969 L239.6798335012109,265.2291818027294 L239.65842686062797,263.77505928882795 L240.05980137156268,262.97460383559223 L238.57892055693213,262.3729243306288 L240.3977204836255,261.7483091393262 L242.30291149553017,261.2666597262044 L243.25244890997072,261.3828672036559 L245.09724261451504,262.05335376763674 L246.65457571694293,262.86909967843224 L250.54981978020646,262.93943578320545 L252.8388012768524,262.658091364112 L253.7470544558821,262.3721598077508 L254.37396321581883,261.7574834138619 L255.28068734909243,261.50824895564335 L257.26768230893947,262.2161971406447 L259.2172156477666,262.1940259771834 L261.2386141371224,260.60381839100324 L262.1415156560061,260.60993457402697 L264.0788166287858,261.4654356744769 L267.68736461281,258.644346254763 L270.5711449085176,257.1619363943767 L273.4824480278323,256.0243263519553 L275.53366290942915,255.63977134433588 L276.3960447157809,255.2812101145674 L277.8394639093905,254.19711667360417 L278.57187682648697,252.86378877442226 L281.07110211457496,254.34849220344236 L284.89218745867527,254.34849220344236 L287.9579241993401,254.54803267459286 L291.6230468763342,255.30338127802855 L298.1100234959201,256.5480245233657 L300.93187743851195,256.74756499451615 L307.329404881376,257.6581117421799 L308.307229642301,258.19174871100404 L310.37297045857935,260.8132976595673 L310.88443626394184,262.5457065010503 L311.01746324470906,263.8790344002322 L311.7949830116065,266.5892680026402 L312.283513130629,270.41035334674064 L312.52816045158,271.276557767482 L313.8163815009614,273.89810671604545 L315.50521253840054,276.27500834365816 L317.54878219121736,277.9187325312963 L320.0151329955534,279.4072585747065 L323.81404717619125,280.2963986817869 L326.5686231055222,280.4737679894763 L330.34536612270057,281.5181062407851 L331.4783890278538,282.0953210136533 L333.855290655466,282.8284984536277 L336.25436344654065,283.31702857265134 L340.60832123658633,283.8063232145531 L343.18552785822766,283.85066554147534 L346.5845965736878,284.07237717608695 L354.42707225591704,284.3170244970378 L358.29249992693974,284.339195660499 L362.49125957275777,284.00586368570356 L363.1839173001999,285.2833814147935 L364.78177011515965,287.49514610076426 L366.95225056571974,288.7038567708368 L368.05775064726606,289.99360686597436 L368.56998097550695,291.3452833142275 L369.02028495063206,295.1541362922803 L369.06156918604245,296.5669745707714 L369.3681428601094,298.2466313336741 L370.3926035165908,301.27720002195207 L370.2083535030002,305.2909451313012 L369.7572850049971,308.0141756226349 L368.81539281933647,309.85744028142364 L367.1770202918438,311.74122465274473 L365.6212162351725,314.5057393794888 L363.94155947226983,317.1678080405848 L362.26266723224467,320.4032688601592 L361.67551366196244,324.97970280769505 L358.3016742014757,324.83214989224655 L355.7711034753903,324.3894911459013 L353.34603690646617,323.75646620294117 L350.0356528448504,322.59744951993673 L348.83382288067884,322.3864412056165 L346.40952083463213,322.3443924473281 L344.63812132637327,322.9552462268273 L341.6014364550714,324.558450701933 L339.78798818852357,325.14866236372677 L334.4745541866237,325.9705244575458 L333.27272422245215,326.3711344456027 L331.01661720955923,327.72128184810003 L329.81478724538863,328.20598935273375 L328.27503816915424,328.4796885430476 L325.175662421859,328.4376397847591 L321.0847005018343,327.80537936467687 L316.46698231888854,326.6241915182113 L313.2200536561441,326.32908568731443 L311.6810691027877,326.6876469170829 L309.31945793273445,328.29008686931076 L307.14744843641836,330.25108805130685 L306.0511226294076,330.86270635368396 L301.9219345654849,332.58364735199723 L300.8905932031015,333.20214636027595 L298.85466877906407,333.7434285578796 L297.17883463055097,333.94984973493183 L295.0137058401368,333.6149887143805 L291.8952170208916,331.83594397734134 L290.5802376707813,331.2434387469135 L287.43575507368513,330.4445123394337 L285.7086978923486,330.2640849402324 L283.775219533959,330.3925247837317 L281.1720191344667,331.0117883148884 L280.26988213846107,331.6815103559911 L279.2385407760776,334.4911319325355 L278.9036797555263,336.0117679368203 L278.07875957019553,337.71359586318437 L277.20261635204025,339.053804468268 L275.34635480432604,341.39936065788385 L272.02144480802923,344.7762582098829 L270.2424000709903,346.1424605928175 L267.2011280624204,347.40545238722603 L261.29824692160435,349.1837326013871 L259.2103349418646,350.3182845522966 L256.0910815997424,353.5659777379184 L254.9741136750256,354.36490414539827 L250.23177826297018,354.05527237982005 L245.90075615926344,354.0216333731892 L240.5743252684377,354.0896759093287 L235.93443592202948,354.3305006158897 L231.98185264291845,354.1240794388374 L227.68599859159764,354.29609708638094 L219.71202497435775,354.46811473392444 L217.20362541173427,354.640132381468 L213.76633055237522,354.5713253224506 L212.39171841778295,354.15848296834605 L210.29539668638571,352.71506377473634 L209.22965179449386,350.54993498432185 L208.33592455014565,349.48495461530774 L206.92690888604452,348.522420311942 L203.18074678398506,347.73190365611975 L200.94681093455304,347.4566754200501 L194.14179279773077,347.6630965971023 L185.72133781975577,347.42227189054137 L177.61051460735862,346.73496582324526 L170.1525939327487,344.535433503322 L163.4507863844527,342.9199966621686 L162.07311615834845,342.6699976810722 L160.89422188051682,341.9903368425555 z"/>
	<path id="canakkale-ayvacik" title="Ayvacık" class="district" d="M319.22690990836446,468.5119924408971 L317.3522998115783,467.88814177247247 L315.24527475989004,467.5219353139243 L311.8936064628643,467.5609259807007 L310.1787816475737,467.98600070085274 L307.57558124808247,469.19547589380346 L306.21243695665976,470.2466948510138 L303.44792222991583,470.99592727142567 L301.17117309931695,470.5318618844971 L298.9532922303224,470.8751326567063 L297.9617060575934,471.28262335066484 L296.80421842034525,472.3353713536313 L294.47013007389944,472.35295537982466 L293.3959754303496,472.51503422995467 L291.9028622496716,473.28796685958343 L286.00303920036754,473.85065569777043 L283.38837095770583,474.5119679872155 L280.0451124123375,474.4875032551204 L278.1689732697958,474.629704510423 L277.1773870970673,474.9492750734151 L275.9824378387982,474.8024866808446 L273.68045945322683,475.67327823885387 L272.4319935934993,476.34376480283464 L270.25616148279374,476.6434577709993 L268.74011261577635,476.22067661948125 L265.7653540975903,476.1205241224669 L261.7202635502445,476.99055115759836 L260.43662963813057,477.96761139564563 L256.6293057058338,478.19161659889113 L254.59185223604038,479.21760630112857 L252.18666326194267,479.258890536539 L249.80058735979458,480.22295388566073 L249.13010079581335,480.84298193969545 L247.5398932096336,481.6495535759552 L246.44815453989082,481.8208067006207 L243.6270651201765,483.27645826027793 L242.69128911753984,484.64342516609065 L242.1079581616475,484.3727840672887 L239.68059802408845,484.2978608252476 L236.21578034112287,485.10519698438526 L234.81670347443577,485.80091280333903 L232.60723235709872,485.69617316905703 L230.01626432365396,486.12354145784303 L228.65770716949964,486.9805716040488 L227.32590831607337,489.21144936196885 L226.87560434094826,491.07764970709667 L225.4780565200171,490.20380005757556 L224.39396307905326,490.164044867921 L222.81522333604295,489.0096153221845 L219.6072853400754,488.9530406292146 L218.30071574162258,489.58300748066284 L217.01249469224115,489.64416931090057 L214.3053191813451,490.95303247798745 L212.68376615716738,491.0210750141268 L211.41848079412546,490.6640428301143 L209.99570371822082,490.5516579670525 L209.33668499741015,490.08606353436807 L206.1325696158316,489.79860293225084 L203.2113276991045,489.98514651447584 L201.9666844537665,489.55930727144585 L199.49039485201797,489.95609464511284 L198.23351924063303,490.430863352333 L196.95982412593258,490.5501289212965 L195.58291842270688,490.2259712210368 L194.10356665383236,490.34905940439 L193.1295645072968,491.25425449190806 L191.9032698110313,491.27260304097945 L190.97972617444165,491.62122547333433 L190.43003422518026,492.6219859205987 L189.2610787447626,493.19461355619916 L188.76643244271511,494.75118213574854 L187.86123735519695,495.08069149615426 L187.02637837245211,496.3887901403631 L186.08907332405954,496.391848231875 L184.59137300611405,495.8253367792982 L185.03556079821516,495.2679996012571 L184.71216762083333,494.5325285926489 L183.84290510858006,493.5936944985001 L182.96676189042532,493.18161666727366 L180.38038099424855,493.4216768509566 L178.9117325456655,494.1732028400023 L177.01036414815084,494.7244238350197 L174.955326652164,497.3826698817256 L174.0608348849383,497.24123314930097 L172.49279846221896,497.3949022477733 L172.22292188629498,497.72288256242285 L170.85442593472675,497.2091231884262 L167.014992041555,497.62043649677474 L166.4805905498526,498.12119898184596 L165.57539546233488,497.87196452362735 L161.78106841896306,497.8834323667968 L160.12587638815538,498.679300682765 L157.90264385901537,498.17012844603613 L156.38047880897443,498.4767021201025 L155.48216442735827,499.500398253706 L153.65113213461697,499.93158915688184 L151.76505419466173,499.9774605295601 L149.74594927393983,499.18694387373785 L147.58464309791518,499.43082667181056 L146.76048743546187,499.24046047519585 L145.5433670137323,498.16477678589024 L143.15499754294962,497.0325184036148 L142.24980245543196,497.0309893578589 L141.35531068820524,496.5164654609842 L139.37290286562572,495.93007641358025 L138.3392679346088,495.884205040902 L136.97230102879607,495.38573612446476 L135.66420238458724,495.4254913141193 L132.96237853383667,493.969839754462 L132.054125354807,493.7183117276095 L131.9493857205247,493.19231998756527 L130.7192684098692,492.0967587034324 L130.1711055063638,492.2733634882437 L129.80566357069353,490.7167949086943 L129.823247596887,488.6449379093922 L130.28043227791358,487.6969295407079 L131.6634541641638,485.6510663192567 L132.15121976030932,483.50199250927955 L132.98684326593164,482.7313534482845 L134.20319916478417,482.1786034075112 L135.1810239257097,481.40796434651617 L135.3851515341278,479.1159247583584 L134.85304361105986,478.13886452031113 L135.40579365183325,477.22602420401347 L136.84156761666284,475.54178030384276 L138.89201797538223,470.5471523420566 L139.17565596310914,467.1649031299117 L139.4440034932771,466.1450296106981 L141.09919552408476,463.1526870663185 L141.8721281537142,461.1114109821352 L141.85760221903223,460.02043683527035 L142.29873191962184,457.8002623976418 L142.80331701908332,456.81555693081475 L143.64046957046114,456.00974981743315 L146.03419070138932,455.3025661553097 L148.5035995972363,454.25746338112293 L150.57698564229463,453.1978346722548 L153.22988002885478,450.8148168616184 L156.2489808739632,447.2330271783231 L156.849895856049,446.28425428676064 L159.20691988883425,439.99911170695896 L159.7619634982411,438.0870399891528 L160.0173141394841,435.9402597478096 L160.3582913430589,435.07481984994615 L161.27495427374654,435.43643917122654 L164.8231049504114,435.74148379953704 L168.85978574609928,435.74148379953704 L171.74356604180696,435.9112078784467 L173.88040748573664,436.24989151338787 L176.5264211663953,437.3355140001072 L177.8154067386547,437.5732806151562 L179.57916101813416,437.5052380790167 L181.78404499820323,437.0304693717965 L184.26033459995222,437.2682359868456 L186.46521858002126,437.67496215792636 L191.18003116847026,438.11609185851574 L194.23353554308758,437.5388770856475 L195.75952320751801,436.79270275674753 L197.1509548454257,435.7751228061677 L198.4399404176851,435.3683966350872 L201.89940644050563,435.130630020038 L205.69908514402246,435.0969910134073 L208.27705628854176,435.3683966350872 L214.95975076488878,435.87680434893787 L217.9788516099967,435.87680434893787 L219.94596897501725,435.5037171844879 L221.6080417117264,434.62222230618715 L221.87944733340584,433.2651941977881 L221.43831763281673,432.45097733274883 L220.45514121174568,431.6367604677093 L217.84276653771747,430.0427302671393 L217.09659220881798,429.19487439546907 L217.36799783049747,427.6000796720211 L218.31753524493803,426.8539053431211 L220.08205404729546,426.4127756425318 L222.52394011953555,426.00604947145104 L224.1860128562452,425.9716459419423 L225.7808075796935,426.75222380035086 L228.79990842480186,429.80496365209024 L230.59730171091223,430.7889045960393 L233.2433153915709,431.16199176048923 L237.8564464372496,430.3141358888191 L245.20886295469927,430.288142110968 L248.74554578819368,429.6016005665499 L253.27381479441806,428.5327975831461 L255.02992384511748,427.99839609144414 L258.4129375801407,427.5404468875394 L262.2806588197968,427.99839609144414 L266.24929707934587,428.7621544465374 L270.93047066116395,429.57637131157685 L278.94419946805874,430.288142110968 L281.2339454875826,430.39058817661623 L282.2010669282162,430.18646056819784 L286.6528836466427,428.6604729037672 L289.1719865295586,427.8714852937009 L291.00378334517745,427.56644066539036 L295.6849569269955,426.57408996978376 L299.37377981320657,426.19259305367603 L306.47161021229175,426.2942745964462 L309.9066115030168,426.9303576309183 L311.7888668285825,427.43876534476925 L316.0380849843464,428.2789759876596 L318.81100946274836,429.118422107672 L323.23759692620143,430.5939512621566 L328.8071460922227,431.7147418012624 L327.2062351857499,434.08934986024127 L326.77886689696476,435.05035511785104 L326.8323834984222,436.5717556450138 L326.3255048303277,437.8530959884938 L325.84461994008365,438.3867329573177 L324.6175607209401,438.97388652759946 L323.62979716260116,440.41501215257534 L322.706253526012,442.7575102506793 L322.5059485319834,444.5281452360607 L320.0281298844779,446.58088916341353 L319.54495142560086,447.2093269691059 L318.47461939644,449.40580119751735 L319.70626575285206,451.197842823482 L319.9088643155151,451.9853013877923 L319.69938504695057,453.4310141500361 L319.1535157120787,454.5433949374842 L318.0227863755594,455.89965852300514 L317.466213720396,457.1213660820033 L316.68945847637764,459.5609585856096 L316.5029148941525,460.6473455952068 L317.2789056152934,462.99290178482255 L318.07706749989586,464.72989776357315 L318.47079678205154,466.42178689252364 L319.22690990836446,468.5119924408971 z"/>
	<path id="canakkale-biga" title="Biga" class="district" d="M433.43286646546716,200.71797683663664 L434.2868385201609,200.47944569870964 L440.0268762879694,199.28602548619654 L444.16600314930497,195.74781360694556 L446.41140684190697,194.2134161908573 L447.2340334586038,193.03222834439168 L448.0704214871046,190.75700825954914 L447.4396901127779,188.9443245158793 L449.3288261442451,188.21879230468448 L451.5268294184127,188.21573421317265 L453.1575567171254,186.8747610852111 L455.559687599711,185.73791556566778 L456.5329252233686,184.7371551184034 L459.07267022398844,184.4672785424797 L461.3394805571739,184.0697266459345 L464.48549220002604,183.18517367612176 L466.8807423767097,182.40536034059122 L473.14294927017204,182.40765390922508 L475.896760676624,181.77692253489874 L477.57641743952706,182.0032213067783 L481.4066770581629,183.71269446192196 L484.4647685700487,185.3495379436584 L488.14900431899184,187.11176317738224 L491.8691726431998,186.82965423541077 L493.32711777149086,186.0406666253445 L493.68032734111364,185.0506094983716 L495.4211459342541,184.10948183558904 L499.5044626254994,182.54373898150396 L502.9945095634374,181.54221401136158 L504.12218080844514,180.8679048329908 L505.9486259639184,180.25552200773606 L511.59539194061404,178.08504155717557 L515.6083725270854,174.59423009635873 L516.8874193019319,174.17297799059656 L518.6595833330693,174.2899499909262 L519.9692110230336,176.63932879493186 L521.4638532494682,178.76623144144793 L524.768885650937,181.14007497754864 L527.467651410176,183.19052533626763 L528.7956276492118,186.23332639059322 L529.6427189980042,189.20884943165737 L532.0838405473658,194.52992866233728 L527.6939501820547,196.45729083770289 L526.680192845865,197.3502535591732 L525.5219406857394,197.68893719411454 L525.3422778094158,198.26385839834887 L526.0555776545633,200.68357330712797 L527.4638287957855,202.98784526133335 L530.4638165689445,206.30663907460664 L533.6105927346752,208.28751785143004 L536.5524767691082,209.51534159345192 L541.4737105346087,212.02374115607563 L547.582248329599,214.67204840536814 L552.9400246584221,216.87081620241344 L557.2924534027123,219.04588379024156 L565.5768233084092,221.58562879086222 L571.2381152197856,223.4334805869186 L576.9827401248627,225.7553365673174 L582.8703308081188,226.50915612499713 L588.6294816478767,227.88529730534526 L590.3588323978477,228.1131251229808 L590.2120440052764,229.22244781891706 L589.3573074277051,231.70638264944566 L589.5973676113882,232.36234327874496 L591.2602048709754,234.01371269516304 L590.8664755888205,236.8248633174632 L589.5102120032993,238.79350972823923 L589.8053178341963,240.24763224214055 L589.0140366554954,244.8630568564531 L586.7158808843135,248.28659030400837 L583.6677281698426,250.5144099704166 L580.1264581990804,251.94483227510085 L578.9307444179327,252.64895784571243 L577.2189776941552,254.38366025582917 L574.2403965615797,257.03349655087743 L570.1364377526289,259.49602474082303 L567.4399655620255,261.5594719884673 L565.7985349430213,262.98989429315156 L564.1800400103555,264.98376995890067 L562.7029818101154,268.99369245386 L560.8031424583568,270.9401677011747 L559.0913757345783,271.97150906355796 L557.0745643824908,273.42563157745917 L555.8788506013437,274.5747094630501 L554.9407810300731,275.7941234534143 L553.4866585161716,279.8514463668077 L553.1816138878612,282.50128266185595 L553.2290143062955,284.21304938563367 L553.6273307257177,285.36212727122444 L551.4836085758876,286.90875705336043 L547.9775066575106,288.55171671812064 L546.4813353853201,290.0723527224054 L543.612081024295,291.5195945304051 L540.8651503237435,292.6472657754126 L539.3697435744325,293.0394660118119 L537.677089922604,293.1380894630702 L534.9064590128361,292.86821288714634 L532.8949993208936,292.84374815505123 L529.8055623710113,292.52494211493723 L525.7344780458151,292.6228010433175 L519.8736456632868,293.2114836593554 L514.7238195572727,293.4079660389941 L511.7482965162093,294.4538333360588 L506.7123843190119,297.65794871763626 L502.42952715661704,300.79707965458624 L497.71700813680195,298.2015244838738 L493.45173500060014,296.00275668682843 L487.4311173365762,294.0249360015169 L484.9655310551193,292.7810572790576 L483.3439780309425,292.15950017926696 L481.21095920140283,292.0922221660055 L479.4334435101199,291.6036920469819 L475.4349888583299,290.0264813497272 L472.7469264193834,288.60446879670053 L468.992354565666,285.65035239621966 L466.3264632901798,284.4500514778048 L462.77219643049204,283.91717903185884 L459.61701051310484,283.2061727553455 L455.2852238865191,281.3399724102177 L452.4197921398829,280.6067949702433 L449.0650657513451,279.5410500783513 L447.1988654062174,278.7635303114545 L445.48862772819535,277.8522190409128 L443.6445985465286,277.11904160093843 L441.3563815727612,276.4753133376866 L437.69049437288857,276.3636929975029 L435.6912670469941,276.09763903596877 L432.69204379671316,274.8086534637092 L431.67981550627866,273.9248650167745 L431.1675851780377,273.08924151115184 L430.07661103117294,272.9187529093643 L421.15921618251593,274.3797561291674 L417.96580412122984,275.00742941198183 L412.2616989286868,275.44397197530344 L408.3312868130368,275.6893838191322 L403.4727439235296,276.6725602402031 L402.13559340995727,277.54564536684643 L398.95517823759724,278.2834099440886 L398.0499831500785,277.8002314852108 L396.819865839423,277.96078128958476 L396.1180338374454,276.09228737582305 L395.6707879538328,274.33235571073305 L395.22277754734125,270.84230877279435 L395.46130868526825,268.96311153874103 L396.2671157986506,267.05409791244676 L398.53392613183456,263.80258211243506 L399.7273463443481,262.9975395219313 L401.6661763628832,262.2215488007905 L402.6806982219512,261.595404563732 L406.26019433661247,258.07554123355237 L407.18450249607906,256.43487513742605 L408.1692079629066,254.16730028136323 L408.49718827755646,253.0342773762099 L409.69060849006905,250.58780416670186 L413.5682685271392,245.12911081798697 L414.61260677844865,243.8470059516292 L417.6401173752146,241.57178586678677 L420.7494319199232,240.61001608629894 L422.04759176671865,239.8493158227176 L425.7838150713641,237.20941832508282 L428.311327705937,235.1062158877838 L430.45887247015816,232.4892540764882 L431.2195727337401,230.9005755360639 L433.054427640871,228.19340002516773 L435.2692504183539,225.50916020061067 L437.2830036789299,223.33867975005015 L438.28988030921835,221.50458936579722 L438.3342226361408,219.69190562212742 L437.86480558906675,217.5221896944449 L437.12627648894573,216.11240950746588 L435.7164963019671,209.8930158951698 L435.1125232283693,205.1499159602361 L433.43286646546716,200.71797683663664 z"/>
	<path id="canakkale-bayramic" title="Bayramiç" class="district" d="M361.67551366196244,324.97970280769505 L363.1304006987425,326.7090535576662 L363.48896192851026,328.4169976670538 L364.5011902189447,331.8955767618231 L365.1754993973148,334.7006112010997 L365.6181581436604,339.8030368886799 L366.841394748414,343.8725921681208 L367.4109642925033,345.15928417174644 L368.5707454983855,347.01478119658276 L368.7182984138337,350.1982544604551 L368.27487514461006,352.79228058541145 L368.2962817851941,354.16230558273594 L368.88649344698734,356.20816880418704 L370.61584419695834,358.127121227895 L373.79931746083093,360.1087645275964 L378.24884061062346,362.47037569764973 L380.12574427604324,363.6936123024037 L383.45677045536394,365.6546134844 L385.03856828988626,366.81439469028226 L387.61118777425963,367.9313626149983 L389.42463604080797,368.31133048535 L392.48196302981427,368.4802900413817 L394.21054925690777,367.8472650984214 L395.15932214846987,367.78380969954986 L399.01863363646856,368.3954280019269 L403.04614015762195,369.55520920780924 L403.95209976801715,370.1882341507695 L404.81677514300287,371.663763305254 L405.4077513276747,373.0551949431617 L405.512490961957,375.6071723098298 L406.4620283763971,376.87245767287214 L408.7181353892905,378.87550761315686 L412.55527571382777,383.28221748178316 L415.59196058512964,386.97256941375053 L415.54991182684074,388.6805135231383 L414.9589356421695,390.7256122217113 L413.5040486053904,394.247004597647 L413.2723981733648,395.3012816463693 L413.1668940162046,397.1774207889108 L413.41995108881355,397.8524944901595 L415.649299800977,400.71333909952796 L412.79915851190026,401.95568877623117 L410.79687309449383,402.99696893602805 L409.00865408291946,404.22402815517194 L406.55377112175285,406.49313205699065 L405.9933758522,407.42737901387153 L404.47197532503753,409.10856482253024 L402.39017952832177,410.3363885645522 L398.4666481185737,411.590970607303 L395.6906655486598,412.5779696427639 L393.2625408882232,413.11160661158783 L389.0454326933337,414.2599199743006 L385.6287799516801,415.48697919344454 L383.9208358422925,416.23468256810037 L379.3841570844112,418.636813450686 L378.31611862388485,419.009900615136 L375.8604711398413,419.250725321697 L372.6578848040198,420.42503246226096 L371.1364842768573,421.1719713140388 L368.28099132763407,421.8929163879657 L365.3452234762245,422.0259433687327 L361.128115281335,420.9854277318138 L358.59295741798263,420.2644826578869 L356.05703503175124,419.0366589158651 L353.41484396548356,417.03513802133625 L351.97371834050796,415.2469190097615 L350.93320270358856,414.71328204093754 L349.224494071323,414.28591375215166 L346.7160945086991,414.3394303536097 L344.26044702465555,414.89982562316254 L341.27116257178756,416.5550176539703 L339.3499165794464,417.86235177530125 L334.91950650160237,421.3852731969928 L333.90498464253443,422.6130969390146 L332.70391920124183,424.5351074542344 L331.5563703614071,426.8569634346331 L330.2757945408052,428.88524262989085 L328.8071460922227,431.7147418012624 L323.23759692620143,430.5939512621566 L318.81100946274836,429.118422107672 L316.0380849843464,428.2789759876596 L311.7888668285825,427.43876534476925 L309.9066115030168,426.9303576309183 L306.47161021229175,426.2942745964462 L299.37377981320657,426.19259305367603 L295.6849569269955,426.57408996978376 L291.00378334517745,427.56644066539036 L289.1719865295586,427.8714852937009 L286.6528836466427,428.6604729037672 L282.2010669282162,430.18646056819784 L281.2339454875826,430.39058817661623 L278.94419946805874,430.288142110968 L270.93047066116395,429.57637131157685 L266.24929707934587,428.7621544465374 L262.2806588197968,427.99839609144414 L258.4129375801407,427.5404468875394 L256.90453394190314,423.70636465451355 L256.05361997872143,421.0527057450753 L254.54062920321644,418.2010354102424 L253.69736046881417,415.9196991423763 L253.1025616697524,413.3654282070743 L252.33345165451345,411.6544260061746 L251.21724825267512,410.2408232048057 L249.6797927450748,407.2897648958367 L248.7126713044417,403.32189115916594 L248.7379005594142,401.6108889582662 L248.41527190491087,399.80049878323024 L247.44815046427675,395.6346136211648 L247.39845647720836,392.8571020054953 L247.54753843841303,391.1705645366906 L248.11787250537992,387.0291441067204 L248.31588393077402,384.0283918106832 L248.61404785318297,381.5238148624494 L249.13468793308186,379.6140367132772 L250.59798472151846,375.7707802057156 L251.63926488131528,372.42293452307945 L253.62320174965083,366.6691353434678 L254.8135638706524,360.2463786456312 L255.0115752960465,356.501745589328 L254.9741136750256,354.36490414539827 L256.0910815997424,353.5659777379184 L259.2103349418646,350.3182845522966 L261.29824692160435,349.1837326013871 L267.2011280624204,347.40545238722603 L270.2424000709903,346.1424605928175 L272.02144480802923,344.7762582098829 L275.34635480432604,341.39936065788385 L277.20261635204025,339.053804468268 L278.07875957019553,337.71359586318437 L278.9036797555263,336.0117679368203 L279.2385407760776,334.4911319325355 L280.26988213846107,331.6815103559911 L281.1720191344667,331.0117883148884 L283.775219533959,330.3925247837317 L285.7086978923486,330.2640849402324 L287.43575507368513,330.4445123394337 L290.5802376707813,331.2434387469135 L291.8952170208916,331.83594397734134 L295.0137058401368,333.6149887143805 L297.17883463055097,333.94984973493183 L298.85466877906407,333.7434285578796 L300.8905932031015,333.20214636027595 L301.9219345654849,332.58364735199723 L306.0511226294076,330.86270635368396 L307.14744843641836,330.25108805130685 L309.31945793273445,328.29008686931076 L311.6810691027877,326.6876469170829 L313.2200536561441,326.32908568731443 L316.46698231888854,326.6241915182113 L321.0847005018343,327.80537936467687 L325.175662421859,328.4376397847591 L328.27503816915424,328.4796885430476 L329.81478724538863,328.20598935273375 L331.01661720955923,327.72128184810003 L333.27272422245215,326.3711344456027 L334.4745541866237,325.9705244575458 L339.78798818852357,325.14866236372677 L341.6014364550714,324.558450701933 L344.63812132637327,322.9552462268273 L346.40952083463213,322.3443924473281 L348.83382288067884,322.3864412056165 L350.0356528448504,322.59744951993673 L353.34603690646617,323.75646620294117 L355.7711034753903,324.3894911459013 L358.3016742014757,324.83214989224655 L361.67551366196244,324.97970280769505 z"/>
	<path id="canakkale-bozcaada" title="Bozcaada" class="district" d="M124.33244428729759,391.1705645366906 L124.47770363411229,390.6782118032772 L121.67649180922547,389.938153657401 L118.5274220748613,388.3227168162478 L117.37834418927113,387.98709127281836 L117.33935352249418,387.4488671667267 L116.50067192535991,386.89841069458726 L114.75985333221888,386.7699708510882 L114.1474705069646,386.27303098040676 L111.50222134918394,385.0153908461441 L110.76904390920893,383.9427652483504 L109.0060541526075,383.41524446255016 L108.35468066057632,382.888488199628 L106.59092638109635,382.5582143163444 L105.77747403893503,383.4037766193807 L104.9326762587767,382.78757117973583 L101.83712312587096,381.4496561432862 L100.06190100322152,380.12167990425 L98.22169443594524,376.6813269533794 L98.89753266007139,375.5949399437823 L101.55119156951005,374.88928532741477 L105.98313069310908,375.2195592106984 L109.77745773648044,374.0146711550156 L121.85462563979257,374.4894398622358 L124.13366833902495,373.63546780754194 L126.39971414933191,373.5850092975959 L128.8240161953785,375.6469274994843 L131.36299667312088,376.25472318747137 L132.97461089988465,378.6278022006942 L133.8843931246703,378.99630222787636 L133.33011403814092,379.5857493667922 L134.23836721717112,381.42519141119107 L135.2184855467301,382.1912433349183 L133.86986718998835,382.410661400896 L133.24142938429662,383.46264488098444 L133.86986718998835,384.4114177725468 L133.20779037766567,385.3158483371867 L134.1924958444927,386.2179853331929 L134.50212761007108,387.00238580599137 L135.20166604341466,387.3884698593668 L134.46695955768462,388.10865041041586 L134.62215770191233,388.6927458891859 L135.44707788724367,388.8701151968752 L135.7375965808731,389.52989844056435 L135.4103807891007,390.28371799824396 L134.05258815782398,390.83799708477324 L133.03118559285403,391.7263726689758 L132.51283908159007,391.3884535569125 L131.13058171821788,392.5918125668392 L129.70933368806922,392.13539240869045 L128.90582014332136,392.32422955954934 L128.78349648284558,392.8586310512513 L126.83319862114155,393.56657923625255 L125.86684170338549,393.32269643817983 L125.65506886618792,392.15603452639556 L125.19253252501483,391.508483648754 L124.33244428729759,391.1705645366906 z"/>
	<path id="canakkale-eceabat" title="Eceabat" class="district" d="M262.3532884932042,243.91887110215856 L259.6965714922546,245.73002580007253 L257.4167642701442,247.4830767592606 L257.5941335778338,248.03047513988798 L254.12931589486783,249.87068170716478 L253.4588293308871,250.45477718593486 L252.17290185013928,251.06257287392188 L249.03988709621257,252.00522958246046 L247.98637457036875,252.47923376680276 L246.43286408233126,252.4830563811925 L245.64769908665443,252.91959894451412 L245.52231733466715,254.25522041232992 L244.68745835192237,255.37524642855792 L239.90230965870046,256.3951199477715 L238.98411768225685,256.7039871904719 L237.40155532485653,256.63135751706466 L234.20814326357095,257.7498544875365 L233.0154875739354,258.8385350657676 L232.2693132450359,259.1886865438785 L230.93522082297562,259.2980133154284 L229.23262837373403,260.91956633960547 L227.00098609293553,261.2483111771331 L225.4665886768471,260.4631461814565 L224.31063008535443,260.6527478551934 L223.69977630585566,261.3415829682455 L223.87485204491128,262.35381125867946 L224.85497037447033,263.2437158886379 L224.82209589071743,263.722307210248 L223.79534166560194,264.8377460892081 L224.95512287148466,268.64048288423703 L226.6554217520927,270.89964798864224 L227.95740421327758,271.9478088543409 L228.4000629596227,273.27731413913284 L229.96121867644,275.8789854928691 L230.12253300369218,277.5372356151886 L230.97497601263,278.4584856831441 L231.20892001328951,279.7696424188647 L229.3457777596733,281.0234599387376 L227.61872057833676,281.6694817706233 L225.60267374912632,282.94011879381156 L223.10344846103789,283.7497485215831 L221.3633943907754,285.2726780945019 L220.31905613946702,285.4859799774558 L219.8519326610264,286.11594682890416 L219.69291190240875,287.06166162895465 L218.27089934938158,288.0004957231032 L217.27166794787365,289.4614989429064 L215.8037840221686,290.5325954949441 L214.3030256127111,291.96148875387235 L209.32368810848416,293.80857602705095 L208.26711749112832,296.1411353277413 L205.99113288340737,297.3888366645904 L204.00566696931588,298.72369360952825 L201.99038466298396,299.47369055281797 L200.3267828805183,299.6640567494328 L200.0790774680558,299.95839805745175 L197.2136457214196,301.0195558120759 L196.6096726478223,301.12735353786974 L194.51182187066905,302.2076243644433 L193.0080053696996,302.6051762609883 L190.2213194794942,303.7871286303318 L189.31765343773202,304.01266287933345 L188.86887850836342,304.8498154307119 L187.78554959027758,305.6625032499952 L186.07684095801204,306.3903290298239 L183.89565718715994,306.56158215448954 L182.91324528896692,307.3069919605116 L182.93618097530637,307.8796195961119 L181.92624625350592,309.38190705132547 L180.33603866732562,310.112790922666 L179.0669306898937,310.31921209971824 L177.52182995351328,309.05698482818764 L175.77336613159383,308.7993406183115 L173.5975340208872,309.44001079005125 L171.83301521852977,311.07532522603185 L171.45381187105605,311.8643128360981 L169.62889576133873,312.7503948516668 L167.69006574280363,311.785566979667 L165.6380863383283,312.1181344315846 L164.11897937979984,311.07379618027585 L162.67556018618976,308.7420014024636 L163.2932946715905,308.08680529604226 L164.72601054490912,307.2267170583244 L167.73593711548153,303.5011970739706 L168.24205126069853,302.07077476928634 L169.10749115856177,300.3391304506815 L171.68622682595907,297.65565514900237 L172.45457231832052,297.23287399748426 L173.5616014456228,296.09755752369693 L173.83453611305825,295.5180491821948 L174.75884427252586,294.8949630366481 L176.50501452581184,292.8659193185123 L177.07993573004669,291.6755571975111 L177.44843575722845,290.1228112323516 L177.25730503773582,289.2092063931759 L178.61127505462258,287.18474981230787 L179.4614244949269,286.55401843798165 L180.4316040270724,285.2826168919155 L181.17777835597192,283.4263553442014 L183.20299945971783,280.5311072053241 L183.35819760394654,279.6671963532166 L184.07379101772761,278.6909006380474 L184.9010047716924,276.52194923324276 L186.4560443054858,275.09076240568066 L188.36352888602394,273.97455900384267 L189.1723940909178,273.21080064874934 L190.12881221125937,271.6817548928068 L190.14486719169733,270.6504135304235 L191.76718473875206,269.40653480796425 L192.6616765059788,268.41036149796776 L193.0080053696996,267.2566964751091 L194.39637891609527,265.9386590334867 L194.84668289122035,264.9394276319783 L195.89560827979724,264.2788798654111 L196.261050215467,262.7016691681564 L195.75722963888452,261.1810331638716 L194.92160613326172,259.94556419306997 L196.79086456990143,259.05642408598953 L198.47816656158406,256.81484300777777 L198.5951385619133,255.0143916301554 L197.61807832386577,251.69101067961438 L198.05920802445587,249.200195143184 L198.46746324129205,244.88369897415822 L196.26410830697904,242.20786890125885 L194.56992560939491,240.6520648445874 L192.38262565551884,238.92653670900623 L190.6089325786259,237.736939110883 L186.52867397889315,235.31493063347 L184.18541135791136,234.1650882250012 L183.127311694799,233.84322409337537 L183.80926610194913,233.28512239245623 L185.40023821100792,233.25224790870357 L186.5477870508421,232.282068376558 L186.8344831300815,230.9571502290339 L187.96062532933325,230.6597508295029 L188.5309593963001,230.04201634410228 L188.576830768978,228.5458450719124 L188.09823944736848,227.37230245422666 L187.17240224214484,226.3363739545756 L185.8467195717425,225.2415771933207 L183.83525987980056,224.64524934850314 L181.86584894614654,225.00533962402756 L180.7037741716299,224.5542711260246 L179.32763299128214,224.84326077389775 L179.5653996063307,224.08179598743828 L181.7909257041052,223.0955614748554 L184.2251665475653,221.7263010004088 L185.47745502168274,220.44954779419686 L189.14945840457887,218.97478316259034 L189.330650326658,218.32264514768076 L191.37880711674234,217.39069175943393 L191.61963182330388,216.62999149585244 L193.10127716081237,216.16363254029002 L193.70830832592117,215.55583685230275 L194.89790592404475,215.15981400151367 L196.17771722176818,215.38458372763733 L197.33749842765033,215.1208233347371 L201.17922588945657,214.66058056219856 L203.82906218450475,213.740095017121 L204.71973133734096,212.78749951116882 L205.66850422890352,211.30891226517244 L207.49189129286486,209.89836755531553 L209.32215906272816,208.97253035009237 L210.76175564194776,208.62543696349334 L212.00257627289523,208.73170564353137 L212.73881180438178,210.07573686300492 L213.19905457692033,210.40983336067836 L215.5132653285392,209.98475864052634 L216.3420081282605,209.3127430307896 L216.51861291307165,208.20571390348718 L217.32442002645303,207.42895865946838 L220.30835281917552,205.05129250897778 L221.3511620247279,204.7860030703217 L223.36415076242633,203.8762208455359 L225.31139053261893,203.315061053105 L225.77851401105949,202.7768369470133 L225.74411048155054,201.5688907998187 L227.33202449909737,200.61247267947664 L228.4077081884027,200.40758054818028 L228.5736096529223,201.3242434788678 L228.5193285285864,203.13616269965968 L228.8977673531822,205.5421161966353 L229.97956722551152,207.57039539189296 L231.4665642231655,209.78751173800975 L233.16992119528555,211.11242988553383 L235.71195976453993,213.30202340804357 L238.92907203504296,215.925101402363 L241.09267177970162,217.3035361513451 L242.41682540434795,217.62845837448293 L246.2562592975197,218.0068971990788 L248.82505616750296,219.11545537213703 L249.9336143405618,219.73701247192767 L251.66449413628823,222.76528759157185 L252.39384896187283,224.98240393768847 L252.7455294857396,227.5512008076718 L252.312809536808,231.0664770005837 L252.44813008620872,233.98618987155595 L253.0429288852705,235.71706966728283 L255.36860748005927,237.71782603893368 L258.66675917562713,241.07025885883766 L262.3532884932042,243.91887110215856 z"/>
	<path id="canakkale-ezine" title="Ezine" class="district" d="M131.18562736543177,345.224268616374 L133.52277380339004,345.3473567997275 L133.2506036588321,346.1493412987192 L131.6542798896283,347.10652394193914 L127.72004515958776,346.77319196714376 L127.28197355051066,345.9757946054198 L127.69940304188279,345.35576655138505 L128.7827319599681,344.94827585742644 L131.18562736543177,345.224268616374 zM254.9741136750256,354.36490414539827 L255.0115752960465,356.501745589328 L254.8135638706524,360.2463786456312 L253.62320174965083,366.6691353434678 L251.63926488131528,372.42293452307945 L250.59798472151846,375.7707802057156 L249.13468793308186,379.6140367132772 L248.61404785318297,381.5238148624494 L248.31588393077402,384.0283918106832 L248.11787250537992,387.0291441067204 L247.54753843841303,391.1705645366906 L247.39845647720836,392.8571020054953 L247.44815046427675,395.6346136211648 L248.41527190491087,399.80049878323024 L248.7379005594142,401.6108889582662 L248.7126713044417,403.32189115916594 L249.6797927450748,407.2897648958367 L251.21724825267512,410.2408232048057 L252.33345165451345,411.6544260061746 L253.1025616697524,413.3654282070743 L253.69736046881417,415.9196991423763 L254.54062920321644,418.2010354102424 L256.05361997872143,421.0527057450753 L256.90453394190314,423.70636465451355 L258.4129375801407,427.5404468875394 L255.02992384511748,427.99839609144414 L253.27381479441806,428.5327975831461 L248.74554578819368,429.6016005665499 L245.20886295469927,430.288142110968 L237.8564464372496,430.3141358888191 L233.2433153915709,431.16199176048923 L230.59730171091223,430.7889045960393 L228.79990842480186,429.80496365209024 L225.7808075796935,426.75222380035086 L224.1860128562452,425.9716459419423 L222.52394011953555,426.00604947145104 L220.08205404729546,426.4127756425318 L218.31753524493803,426.8539053431211 L217.36799783049747,427.6000796720211 L217.09659220881798,429.19487439546907 L217.84276653771747,430.0427302671393 L220.45514121174568,431.6367604677093 L221.43831763281673,432.45097733274883 L221.87944733340584,433.2651941977881 L221.6080417117264,434.62222230618715 L219.94596897501725,435.5037171844879 L217.9788516099967,435.87680434893787 L214.95975076488878,435.87680434893787 L208.27705628854176,435.3683966350872 L205.69908514402246,435.0969910134073 L201.89940644050563,435.130630020038 L198.4399404176851,435.3683966350872 L197.1509548454257,435.7751228061677 L195.75952320751801,436.79270275674753 L194.23353554308758,437.5388770856475 L191.18003116847026,438.11609185851574 L186.46521858002126,437.67496215792636 L184.26033459995222,437.2682359868456 L181.78404499820323,437.0304693717965 L179.57916101813416,437.5052380790167 L177.8154067386547,437.5732806151562 L176.5264211663953,437.3355140001072 L173.88040748573664,436.24989151338787 L171.74356604180696,435.9112078784467 L168.85978574609928,435.74148379953704 L164.8231049504114,435.74148379953704 L161.27495427374654,435.43643917122654 L160.3582913430589,435.07481984994615 L160.79330486062454,433.9716133370336 L160.82694386725547,432.88140371304655 L160.56318347435501,430.70251351082845 L160.80553722667204,427.5022207436408 L160.63428410200635,425.3623212081992 L160.13887327708136,423.3630938823043 L159.25432030726864,421.3141725693414 L158.6709893513763,419.26678030213446 L158.6763410115223,415.96021885490865 L158.1755785264508,413.74616060030394 L157.01885541208065,411.9365349481459 L156.62818422143692,410.92124856620023 L156.5509674107621,408.5963344942895 L156.01962401057165,407.69190392964947 L154.62742784978596,405.9205044213902 L154.69394134016983,403.7760177486808 L154.25586973109225,402.7974284648776 L154.6213116667625,401.8501846190712 L158.43857439647329,397.57115007106614 L158.85141675057747,396.587209127117 L158.93245617564227,395.56886465365943 L158.48062315476173,393.4641331706045 L158.7359737960042,391.2454877787319 L158.94698211032426,387.9106389850211 L159.5180807001686,385.9351118683435 L159.59835560235544,384.8433731986006 L159.4645640987102,381.7554652944747 L159.0257279667551,380.7050108601421 L158.11747478772494,379.911436112808 L155.83308042834705,378.80058437111575 L153.9233022791749,377.3602232690179 L153.6740678209564,376.3808694623366 L154.73446105270227,374.30213175713294 L154.72146416377677,373.285316329431 L155.68782108153235,371.27844377475645 L155.23675258352924,369.2838035861296 L155.4599932638973,368.3013916879364 L157.2375089551802,366.7264745593156 L158.02955465675862,365.8480377725267 L158.48979742929768,364.7907026322925 L158.61823727279642,363.7731226817127 L159.22221034639372,362.8962149406797 L159.49285144519567,361.91303851960856 L159.24438150985466,360.9344492358054 L159.70462428239375,359.9497437689784 L159.72373735434272,357.7700890438824 L159.09759311728396,356.90159105450687 L157.46763034144973,355.27774446169605 L156.82543112395356,353.2104745996617 L157.2864384193701,352.2632307538554 L158.82695201848253,350.61721299758324 L159.69927262224775,348.4673746647281 L160.89422188051682,341.9903368425555 L162.07311615834845,342.6699976810722 L163.4507863844527,342.9199966621686 L170.1525939327487,344.535433503322 L177.61051460735862,346.73496582324526 L185.72133781975577,347.42227189054137 L194.14179279773077,347.6630965971023 L200.94681093455304,347.4566754200501 L203.18074678398506,347.73190365611975 L206.92690888604452,348.522420311942 L208.33592455014565,349.48495461530774 L209.22965179449386,350.54993498432185 L210.29539668638571,352.71506377473634 L212.39171841778295,354.15848296834605 L213.76633055237522,354.5713253224506 L217.20362541173427,354.640132381468 L219.71202497435775,354.46811473392444 L227.68599859159764,354.29609708638094 L231.98185264291845,354.1240794388374 L235.93443592202948,354.3305006158897 L240.5743252684377,354.0896759093287 L245.90075615926344,354.0216333731892 L250.23177826297018,354.05527237982005 L254.9741136750256,354.36490414539827 z"/>
	<path id="canakkale-gelibolu" title="Gelibolu" class="district" d="M414.4986928696309,150.4559492701723 L400.9459958118342,152.4895801255758 L398.83973528302295,152.68529798233655 L396.2931095765011,153.35119740904946 L395.3756821229354,153.81602731885587 L394.1493874266699,155.33513427738484 L393.32140914982705,156.09277644945428 L390.0125541339672,157.82289172230332 L388.639471045131,158.41386790697499 L386.23428207103336,159.15545509860726 L383.87419994673564,160.18909002962442 L382.1073875757442,161.24030898683492 L379.7755927979324,162.25941798317047 L376.77636954765046,163.94671997485307 L371.91476856663127,165.86643692143883 L366.39491338767886,167.30679802353683 L364.14568708068794,167.53844845556193 L361.79707279955966,168.0254495288297 L360.5952428353891,168.41535619659507 L359.51726557744973,169.86489157322853 L357.407946957127,170.28079201884492 L351.2726508614079,171.92069359209324 L350.16944434849506,171.85188653307586 L345.5631940087184,173.08429741236554 L343.6320092189628,174.23413982083434 L342.1304862866268,175.42450194183556 L340.99899242723006,177.20278215599672 L340.3659674842699,177.89008822329282 L338.13661877210535,179.7302947905698 L337.2734724428761,179.97800020303237 L334.1725676498244,179.91225123552675 L332.8644690056155,180.99558015361205 L331.1802251054449,181.78227419504458 L330.15194183457345,183.23333861743407 L330.17870013530296,184.3648324768315 L330.7375663590993,187.09800176557877 L331.1741089224209,188.35717094559735 L330.5280870905357,188.8586979535466 L331.13741182427896,189.44967413821826 L332.69627397246234,190.26694909476961 L332.39887457293145,190.92061615543503 L330.6641721628144,191.89079568758046 L328.7995008634422,192.09262972736494 L327.15730572155996,193.28222732548818 L326.98758164265035,194.77763407480003 L327.1840640222895,195.17977310861284 L325.8790234695921,196.49398793584544 L324.96006697027144,197.12624835592777 L319.5105478960919,195.9075988884415 L314.72692824862554,197.69505337713838 L314.52280064020704,198.49703787613015 L313.304151172721,200.05666454719147 L309.8905565225798,201.48861589763175 L308.75676909454813,202.91215749641424 L309.7934621170775,204.58799164492723 L310.7598190348321,206.6055675198933 L311.2070649184462,208.32650851820657 L311.27740102321957,209.8234443132743 L310.9318366823763,210.47787589681772 L308.70325249308974,212.57419762821502 L307.8798613535154,214.07572056055048 L306.65509570300486,215.84253293154202 L299.1880007538599,220.30581749313828 L298.39595505228203,222.0879203216893 L297.17883463055097,223.6842440908932 L296.1268511504631,223.93118498047798 L293.22319325992845,223.79739347683298 L291.42121283654956,226.48622043865794 L289.94491915918707,227.4296416700744 L287.76985157135897,228.58560026156695 L286.2943224168744,228.78284716408356 L285.19111590396216,229.56648311400411 L281.63531999851733,231.27519174626977 L280.08486760199145,231.67962434871671 L278.51377308776114,231.73161190441874 L275.9954347277232,232.20026442861516 L273.8746482642315,233.06111718921082 L271.1942310540639,234.8241069458125 L270.5566189738362,235.7338891705983 L269.6774176641689,236.27211327669008 L267.5917992530637,236.86767659862966 L267.2011280624204,237.42577829954865 L267.55663120067675,239.0717960558208 L266.09868607238565,241.03126819206113 L263.941202510751,242.53967183029846 L262.3532884932042,243.91887110215856 L258.66675917562713,241.07025885883766 L255.36860748005927,237.71782603893368 L253.0429288852705,235.71706966728283 L252.44813008620872,233.98618987155595 L252.312809536808,231.0664770005837 L252.7455294857396,227.5512008076718 L252.39384896187283,224.98240393768847 L251.66449413628823,222.76528759157185 L249.9336143405618,219.73701247192767 L248.82505616750296,219.11545537213703 L246.2562592975197,218.0068971990788 L242.41682540434795,217.62845837448293 L241.09267177970162,217.3035361513451 L238.92907203504296,215.925101402363 L235.71195976453993,213.30202340804357 L233.16992119528555,211.11242988553383 L231.4665642231655,209.78751173800975 L229.97956722551152,207.57039539189296 L228.8977673531822,205.5421161966353 L228.5193285285864,203.13616269965968 L228.5736096529223,201.3242434788678 L228.4077081884027,200.40758054818028 L229.2830868836799,200.05819359294748 L230.5835402991088,199.11247879289704 L231.90998749238912,199.03679102797793 L234.33887667570372,197.81355442322388 L235.8434576995512,196.52151075945238 L235.905384052667,195.63925135827367 L238.0085864899653,195.02381044150678 L240.6920617916449,195.0001102322896 L242.03915110263017,193.6751920847654 L244.75626541094022,192.1644948778943 L245.5276689948132,191.5490539611274 L247.65992330147532,189.2279625036066 L248.7287262848787,187.88622485276704 L250.3563954920794,187.4955536621237 L251.6293260839014,186.94433266710658 L254.15454514984077,185.47874231003564 L255.35484606825537,184.97645077920842 L257.9083524806797,183.3159070882549 L262.40068891163867,182.72951804085096 L265.9434879281574,182.0636186141379 L268.8219165637192,181.02692559160903 L270.6980557062604,180.05521701370745 L271.94499252023184,179.70124292120678 L274.6873360835148,178.26241086486493 L280.7591767803626,174.54988776943645 L283.058097074422,172.87023100653357 L284.5726168956834,171.91534193194752 L285.6773524543517,171.5246707413042 L287.5878951264018,171.42910538155775 L288.5871265279103,171.6202361010506 L290.7491972268129,170.7999030529875 L293.2140189853925,168.9581674399546 L294.0809879290117,168.49027943863615 L296.24152958215836,167.77850863924496 L297.4555919123769,166.54762680571133 L299.2438109239518,165.2861640570586 L301.2002249686799,165.33891613563867 L303.356944007437,164.88249597748995 L308.2628873153781,162.8450425076964 L309.1260336446074,162.6340341933765 L309.90049531999284,162.05605489763013 L311.0526312970955,161.70131628225147 L313.0962009499129,162.3037603100929 L314.0984904429334,162.31140553887252 L314.5617913069834,163.15696784190877 L316.42111094621015,163.3182821691607 L319.8171215701578,163.02011824675196 L320.7681880303544,163.2854076854079 L325.17872051337105,162.34045740823547 L327.22534825769986,162.72424789297702 L328.3728970975346,162.6623215398613 L330.4829802407353,162.1699688064479 L331.57777700199006,162.39932566983921 L334.5555936116881,161.4796046476398 L335.4783727253997,160.61034213538642 L336.65420891171937,159.0163119348164 L337.49441955461015,157.4910887932637 L338.0662826673325,154.97733757049429 L337.95389780427024,153.2969162847134 L340.01810957479256,152.76939549891324 L343.0609106291179,151.11573251386147 L344.93934334029416,150.224298838147 L345.769615185771,149.2839356982423 L346.36976564497826,147.82981318434094 L347.6801578578206,146.74724878913364 L348.3361184871203,147.48348432062002 L348.56012369036586,148.2518298129811 L348.0670064340743,149.05075622046112 L349.09528970494523,150.3015156488221 L350.99742262533846,150.79463290511347 L353.05016655269077,150.88866921910403 L356.4966356865858,150.594327911085 L360.92551671867295,148.92384542271787 L365.5554672676666,146.78088779576444 L366.57381174112453,145.98731304843017 L370.39719065385833,143.61805664959732 L373.76262036268804,140.22051697989303 L375.22209453673554,138.99575132938304 L376.2993072717969,137.72970144346272 L376.61581974327675,136.2725208380494 L376.1517543563482,135.53704982944112 L376.5347803182119,133.8833868443892 L378.90327219416713,131.9155049564913 L379.25571724091094,131.04318435272606 L378.8413458410513,130.23584819358845 L378.06611964278835,130.73890424729353 L376.86811229300724,130.83599865279587 L376.56306766469686,131.74501635470364 L375.6028269299653,131.9162694793693 L375.0431961832899,131.21826009178147 L375.75802507419303,128.96215307888826 L375.31001466770186,127.4239330484101 L374.53020133217143,125.7725636319922 L373.1739377466502,124.22593384985643 L372.61736509148784,123.34367444867759 L372.1242478351958,121.65943054850686 L369.96752879643867,119.44690133965808 L368.45683158956774,118.18696763676137 L367.36738648845846,117.55700078531301 L363.41021607207887,114.59829724756423 L361.84294417223856,113.9981467883568 L359.2657375505967,113.6067110748356 L357.58837435632813,113.66252124492749 L355.3681999187001,114.29783975652158 L353.63120393994916,115.41098506684772 L352.209955909801,117.15027461423246 L351.5295305484059,117.69002776608 L349.4622606863715,118.18085145373763 L348.54636227856236,118.57381621301482 L347.0394876860804,119.80011090928073 L345.9538651993616,119.93619598155959 L344.88047507869027,116.41556812850195 L343.0135102106845,113.45151293060742 L343.0135102106845,111.5249152781198 L343.1916440412517,109.95382076388886 L343.99133497160955,107.16789939656172 L345.1182416937393,106.5455777738931 L346.92557377726365,105.83457149737978 L347.5486599228104,104.88579860581737 L349.0899380447993,104.50047907531984 L351.1939050049766,103.70002362208402 L352.23136255038395,102.18856189233489 L353.34985952085566,100.90875059461096 L354.0088782416669,100.49743728626248 L356.97293343956136,99.6534040289822 L361.7068590999589,98.10983233835816 L363.5180137978737,96.68170360230793 L365.51494755513414,96.1748249342129 L367.65561161345335,94.74822524391851 L369.2473482453896,94.41871588351293 L371.6624760169012,94.19929781753518 L376.95909051548557,94.55556547866978 L379.8130544189528,94.61061112588368 L383.2159457488025,93.23829255992537 L384.9452964987739,91.45466068561828 L386.97586926266536,90.82316478841418 L389.8305976890101,90.5487010752225 L393.64480232720837,90.7138380168642 L399.298449009806,91.39044076386878 L406.9551456326881,92.04945948468003 L412.8282103812632,92.4882956166355 L416.53308824791173,93.17483716105369 L419.2502025562218,93.80556853537998 L422.873276474928,95.12284145412451 L424.82128076799853,95.6167232332939 L428.4168318630978,97.235982688837 L430.2279865610117,98.30631471799678 L432.8900552221068,100.96838337909273 L434.0972368464238,103.9874842242012 L434.1247596700308,105.41484843737356 L433.3564141776693,107.96682580404172 L432.75244110407255,109.00963500959438 L430.3373133325619,112.60518610469325 L428.27921774506257,115.40410436094598 L425.83656714994504,117.84675495606417 L423.6959030916248,119.57534118315719 L421.4183894381489,121.60667846992685 L420.5674754749666,122.78633727063647 L417.0820156742957,126.62882925531997 L415.79226557915774,131.10205261432984 L415.2708609763818,133.48965756223413 L415.05144291040426,137.33214954691763 L414.4749926604134,139.91164973719268 L414.55756113123425,140.59819128161092 L415.98416082152886,142.13488226633308 L416.0116836451358,142.84818211148024 L417.1370613215095,144.41239591980934 L416.91764325553197,145.7571916621609 L415.92987969719246,147.2663598232761 L415.4627562187529,148.77629250726943 L414.4986928696309,150.4559492701723 z"/>
	<path id="canakkale-gokceada" title="Gökçeada" class="district" d="M114.27667487334136,277.02500528694804 L108.61308939333031,281.83614775802107 L107.84092128657932,283.5211561810698 L104.285889904013,283.7229902208541 L101.95638869483471,284.5846075043278 L101.02978696673358,285.8965287629264 L100.083307643805,285.535673964524 L98.96786876484526,285.723746592505 L98.20411040975179,286.278025679034 L97.26451179272519,286.2122767115285 L96.34937790779352,286.521143954229 L95.8180345076031,286.07389807061577 L94.55198462168315,285.7015754290436 L91.22631010250785,284.98139487799483 L89.00919375639131,285.18017082626733 L87.41975069308901,285.5968357947616 L85.93504726406903,286.2971387509833 L84.46639881548597,286.2336833521117 L83.29667881219035,286.55248939222565 L82.06273888714433,287.5104365583237 L80.8387377595123,287.59529859777854 L79.7003631942136,287.4041678782857 L77.52911822077498,287.8353587814614 L76.64762334247375,288.59529452216486 L75.7324894575426,288.9041617648653 L73.19350897979972,288.9981980788557 L72.47562199738466,289.4332115964214 L71.66981488400329,289.33000100789536 L70.43434591320128,290.0211296895814 L69.52762177992811,290.13810168991097 L68.84948998716749,290.7015550509758 L67.90224614136089,290.4676110503166 L65.7638756516752,291.0738776925478 L64.99170754492425,290.9974254047505 L63.84110061357758,291.55170449127985 L62.9886576046393,292.635033409365 L61.72948842462084,292.56851991898156 L60.67674042165447,293.22295150252495 L58.00626200890085,293.92478350450256 L56.42905131164653,293.35215586890206 L55.828900852438736,293.60597746438856 L52.76775124904192,293.36973989509545 L51.86332068440174,293.0134722339608 L47.59346041093235,292.5073580887439 L45.86258061520533,292.4859514481606 L44.61105666396686,293.03640792029995 L44.60876309533238,293.74282705954545 L43.59041862187493,295.1197327627716 L42.27314570313058,294.58991840833755 L41.56213942661701,295.0700387757035 L41.088135242274475,294.3582679763123 L40.31137999825603,294.07157189707317 L39.37331042698543,294.4767690223978 L37.99181758649122,294.68395472232805 L37.41460281362288,294.2290636099352 L35.72577177618429,293.8819702233363 L33.572875351817615,294.05398787087967 L32.576702041820624,294.5065854146388 L32.13633686410952,295.190833390423 L30.651633435089025,294.8743209189429 L28.682987024312993,295.46911971800455 L27.689871805829,296.3766083741565 L26.598133136085707,296.680123956711 L25.491104008783424,295.9759983860994 L24.075207638780782,296.0249278502896 L23.244935793303952,293.9469546679637 L22.73041189642899,293.3536849146581 L22.461299843383046,292.1992553689214 L21.67384127907262,291.4530810400216 L20.361155497595774,290.9477314176826 L18.533181296366465,290.5410052466019 L16.810711252297935,289.9561452449537 L16.40322055833876,288.9286264969604 L14.883349076931822,288.30171773702403 L12.228925644615671,287.73673533020326 L11.699875813060245,287.49132348637454 L9.537805114156598,287.2160952503048 L8.264109999457169,286.87282447809577 L4.905560996529445,285.4079986439027 L4.12498313812052,284.4003574907366 L5.134917859920485,282.93017999639784 L5.837514384776064,280.44471612011336 L5.67620005752439,277.45848975875765 L6.6761959819108805,275.5517697010973 L7.512584010411189,274.8132406009771 L12.05155633692653,274.2452001026445 L20.248770634533997,267.4394174429442 L23.530102826786887,265.65043390849155 L31.718907372737362,262.6359202006509 L41.939049205456755,256.7590328376859 L44.02237404792855,256.51591456249105 L47.73719071199105,257.2016915840312 L52.84038092244927,256.12218528033566 L54.644654914461114,256.17570188179366 L57.50932213821986,257.0893067209695 L60.63469166336604,256.7636199749536 L63.15685263779346,254.69558559004142 L72.09794769566692,250.73612160502827 L74.64686697082328,249.98000847871467 L77.11245325228082,249.8798559817005 L79.18431025158314,248.9830706458402 L80.983997106327,248.74606855366903 L83.08184788348028,249.23383414981467 L86.09177445405271,247.7445435835267 L89.50613362707281,247.56411618432543 L91.61315867876107,248.5625830629559 L93.19877912767387,247.01595328082018 L93.7782874691762,247.51977385740315 L93.63761525962951,250.29116929004894 L94.91131037432939,252.4639433092433 L99.76067898930066,252.92418608178198 L103.11616990071687,254.85766444017136 L102.04966048594702,258.9493908830735 L102.90974872366479,264.6978384025394 L100.30119666402706,267.41877532523915 L101.6582247724258,269.0082183885413 L99.9831551467907,270.8476604329401 L99.45716340674625,273.2559074985496 L100.6612869395513,277.0334150386056 L102.20027149290772,278.2558871204817 L104.3929231069288,278.963835305483 L105.98848235325511,278.07240162976865 L108.41201987642418,275.6458060150878 L112.08708135083128,274.3705818546317 L114.33019147479922,272.45468752243573 L115.41734300727455,275.06706219646355 L114.68645913593403,276.677147377471 L114.27667487334136,277.02500528694804 z"/>
	<path id="canakkale-lapseki" title="Lapseki" class="district" d="M278.57187682648697,252.86378877442226 L278.77141729763713,252.37908126978846 L280.78593508109157,251.3362720642357 L282.64678376607327,250.9868851090029 L283.46100063111317,250.62755935635627 L282.62919973988033,249.08704575724423 L282.49923085062505,248.31946478776115 L284.00610544310655,246.32329555337805 L284.74234097459305,244.86840851659886 L285.512980035588,244.3278908418732 L287.56572396294087,243.90587421323306 L288.0083827092865,242.9968565113253 L286.92352474544515,242.40435128089746 L288.32260161213236,241.24686364364905 L290.24308308159596,240.20481896097417 L292.1115769953582,239.45252844905042 L293.2101963710025,239.20635208234367 L295.0159994087703,239.40359898486025 L295.691073110019,238.82485516623606 L295.27440814152476,238.12837482440423 L294.2797638772843,237.82715281048345 L291.2759534897354,238.16813001405876 L290.3738164937292,238.01369639270845 L291.34705411738673,236.70865584001157 L292.11616413262567,236.24000331581513 L294.12762382456816,235.4892418496474 L298.23311167927335,234.83098765171422 L299.32790844052863,234.84016192624986 L302.36841592622,235.23159763977117 L304.04654364336716,234.47930712784733 L304.8829316718674,232.91585784239624 L305.5610634646281,232.19261919983546 L307.15127105080836,231.11081932750614 L309.1566145597273,230.7637259409072 L309.69178057430673,230.07412630497694 L309.66043513631035,229.1612859886793 L311.01516967607506,227.8585390046163 L312.6512486349337,226.88683042671488 L312.85537624335234,226.12230754874355 L312.5335121117265,225.42582720691183 L312.73763972014456,224.62384270791995 L314.2338109923341,223.50611026032595 L315.14129964848627,223.36696709653523 L315.76973745417894,222.82568489893157 L316.6986327509136,221.4457211041935 L319.45320868024356,220.16973242085945 L320.3194131009858,218.7041420637885 L320.9004504882431,218.16133082042887 L325.4707682527554,215.68504121867997 L326.7872766486218,215.18274968785286 L330.27808810943924,213.318842911359 L330.3935310640125,212.22557519586007 L329.9294656770844,211.4901041872517 L329.34689924406956,209.4404183514107 L329.31249571456067,208.74699610109084 L329.893533101819,208.20494938060918 L333.6863310994348,206.70648453978546 L336.15115285801437,204.86780701826467 L336.9768375662232,203.9985445060113 L338.83386363681495,204.1269843495105 L339.6045026978104,203.73249054447734 L340.9133658648973,202.54059937772013 L345.1052448048138,200.17210750176514 L345.3598309231778,199.35636159096978 L343.3376679109439,200.07883571065258 L343.64729967652175,199.17669871464665 L344.8078454052829,198.19581586220949 L345.7191566758246,197.75621520737602 L348.8911620965272,196.6300730081243 L350.9958935795819,196.28527319015933 L353.0417568010333,196.52533337384224 L355.0081096431753,195.9603509670215 L357.1105475575961,195.76233954162691 L359.0149740466228,195.79597854825772 L366.08604614497847,196.7057607730435 L367.77334813666107,196.7478095313319 L370.27180890187157,198.2707391042507 L371.5523847224735,198.61324535358182 L373.56843155168343,197.94046522096716 L377.1616890781487,197.10178362383257 L379.1104578940967,197.41523800380082 L381.3566261095772,197.146125950755 L382.6387309759346,197.45269962482138 L384.5301605760353,198.23939366625393 L387.78014733029073,197.87318720770554 L390.52631350796423,198.85254101438682 L391.6654525961404,199.0841914464121 L394.0171249687807,198.37930135292262 L395.85427344454547,197.15835831680246 L396.65090628339135,195.56050550184256 L397.51405261262164,195.3143291351358 L400.57061507874994,195.1300791215448 L402.65546896697725,195.7738073847965 L404.4001101745077,196.7057607730435 L406.4482669645931,199.06660742021876 L408.3328158587923,200.1461137239142 L410.27699753747333,200.64381811747344 L414.424534150468,202.8823411041733 L415.3733070420301,203.1116979675647 L417.0606090337122,202.2561968671148 L419.27084467392723,201.47791257734013 L421.5200709809187,201.10253184425625 L422.7555399517207,201.29977874677274 L425.02158576202714,202.31200703720674 L426.1179115690379,202.32500392613218 L427.8594946850564,201.21338766156202 L430.3548973587544,201.57653602859844 L433.43286646546716,200.71797683663664 L435.1125232283693,205.1499159602361 L435.7164963019671,209.8930158951698 L437.12627648894573,216.11240950746588 L437.86480558906675,217.5221896944449 L438.3342226361408,219.69190562212742 L438.28988030921835,221.50458936579722 L437.2830036789299,223.33867975005015 L435.2692504183539,225.50916020061067 L433.054427640871,228.19340002516773 L431.2195727337401,230.9005755360639 L430.45887247015816,232.4892540764882 L428.311327705937,235.1062158877838 L425.7838150713641,237.20941832508282 L422.04759176671865,239.8493158227176 L420.7494319199232,240.61001608629894 L417.6401173752146,241.57178586678677 L414.61260677844865,243.8470059516292 L413.5682685271392,245.12911081798697 L409.69060849006905,250.58780416670186 L408.49718827755646,253.0342773762099 L408.1692079629066,254.16730028136323 L407.18450249607906,256.43487513742605 L406.26019433661247,258.07554123355237 L402.6806982219512,261.595404563732 L401.6661763628832,262.2215488007905 L399.7273463443481,262.9975395219313 L398.53392613183456,263.80258211243506 L396.2671157986506,267.05409791244676 L395.46130868526825,268.96311153874103 L395.22277754734125,270.84230877279435 L395.6707879538328,274.33235571073305 L396.1180338374454,276.09228737582305 L396.819865839423,277.96078128958476 L396.20748301416774,278.7887595664277 L394.4513739634683,278.4730116178255 L392.97508028610577,278.5341734480631 L392.02095573439766,279.2115407179457 L390.86729071153906,279.5341693724496 L390.0668352583031,278.965364351239 L388.91317023544497,278.9959452663578 L388.4513984171494,278.70389752697287 L388.02097203685224,277.4263797978829 L386.91317838667146,277.02653433270393 L382.37420606015615,277.5647584387957 L381.712893770711,277.81093480550226 L380.31305238114584,277.7191920601457 L377.0424235091854,278.1855510157083 L374.7542065354165,278.9852419460663 L370.91095002785477,280.14043601468086 L369.51110863828956,280.6519018200436 L368.35591456967495,281.31780124675663 L364.8238188734475,283.0288034476562 L362.49125957275777,284.00586368570356 L358.29249992693974,284.339195660499 L354.42707225591704,284.3170244970378 L346.5845965736878,284.07237717608695 L343.18552785822766,283.85066554147534 L340.60832123658633,283.8063232145531 L336.25436344654065,283.31702857265134 L333.855290655466,282.8284984536277 L331.4783890278538,282.0953210136533 L330.34536612270057,281.5181062407851 L326.5686231055222,280.4737679894763 L323.81404717619125,280.2963986817869 L320.0151329955534,279.4072585747065 L317.54878219121736,277.9187325312963 L315.50521253840054,276.27500834365816 L313.8163815009614,273.89810671604545 L312.52816045158,271.276557767482 L312.283513130629,270.41035334674064 L311.7949830116065,266.5892680026402 L311.01746324470906,263.8790344002322 L310.88443626394184,262.5457065010503 L310.37297045857935,260.8132976595673 L308.307229642301,258.19174871100404 L307.329404881376,257.6581117421799 L300.93187743851195,256.74756499451615 L298.1100234959201,256.5480245233657 L291.6230468763342,255.30338127802855 L287.9579241993401,254.54803267459286 L284.89218745867527,254.34849220344236 L281.07110211457496,254.34849220344236 L278.57187682648697,252.86378877442226 z"/>
	<path id="canakkale-yenice" title="Yenice" class="district" d="M553.6273307257177,285.36212727122444 L554.3543919826683,286.4171688428248 L558.0829700585343,290.7084357568776 L559.2786838396813,291.7405416421387 L561.0378509818928,292.95995563250284 L562.6792816008981,295.49281992722166 L564.0393678008093,298.4003004321463 L566.4315598859805,301.42551746027857 L569.0813961810295,304.63804259351383 L570.86349900958,307.5462876213164 L572.0362771043882,310.8528490685421 L572.3879576282544,312.2832713732264 L572.3405572098205,314.5577269351908 L571.9422407903978,316.152521658639 L570.9338351143539,317.69991596365276 L570.3711462761664,319.2243745823275 L570.0424014386386,322.2029557149034 L569.6203848099995,323.4453053916068 L569.3864408093399,325.9315337907692 L569.5454615679582,328.02632647641053 L569.9185487324085,328.9338151325624 L571.0133454936628,330.34818245680935 L572.801564505237,331.0958858314651 L575.2296891656746,331.33594601514807 L577.1516996808933,331.7357914803272 L584.5981525123337,333.7915934991919 L589.1348312702152,335.3657461049347 L591.7510285586328,336.8068717299104 L592.8183024962807,337.60809170602437 L594.0728845390322,339.07597563172914 L594.8733399922671,341.18452972917385 L595.3534603596331,343.4261108073856 L595.9673722306438,349.05758632652186 L595.1669167774089,352.8473262326255 L593.6990328517044,355.1424239122952 L593.0851209806926,355.43600069743616 L591.4574517734919,356.9038846231409 L589.8290180434132,358.9329283412767 L588.5476776999337,361.52160280608734 L586.920008492733,363.7631838842991 L584.972004199662,367.3396219074486 L584.2778174264633,369.20811582121036 L583.1570268873581,374.2256794693357 L583.0767519851714,376.7340790319594 L583.6103889539953,379.10945161381613 L583.7441804576396,380.87091232466184 L582.8366918014879,384.4473503478115 L582.4628401141596,385.0880205195513 L579.6868575442462,387.756969886549 L578.8864020910113,388.7179751441589 L578.0056717355875,390.5061941557336 L577.4987930674931,392.1873799643925 L576.4307546069667,394.64302744843604 L575.8436010366844,396.4847630614689 L573.8420801421554,400.1139531631985 L572.1073777320399,401.50232670959434 L570.4797085248392,402.51608404578417 L569.3313951621261,403.02372723675717 L568.1838463222904,403.10323761606594 L562.7664372089869,403.0497210146081 L560.1242461427181,403.9304513700311 L558.0156920452733,404.9449732290989 L554.8390994873023,406.7599505414026 L551.3696946670688,408.30810936929436 L548.6204703978839,409.29510840475524 L545.0975489761929,411.3501459007421 L543.4698797689922,412.52445304130583 L542.6694243157564,413.3256730174197 L540.5341119175827,415.99462238441737 L537.35828388249,418.2362034626291 L529.0838527742068,420.9854277318138 L526.495178309396,422.10621827091967 L524.5471740163254,422.6130969390146 L521.531131262729,422.98694862634255 L519.0976549421464,423.0939818292585 L514.9921670874402,423.1734922085675 L510.2681802244563,422.58633863828555 L507.4662038766919,421.9991850680037 L505.7047431658459,421.3592794191416 L502.7154587129785,419.8111205912499 L500.2865695296633,417.8095996967212 L495.26900588153796,414.6330071387506 L493.26748498700954,413.2721564159617 L487.9563445537427,409.9892951779532 L485.9005425348779,409.4556582091292 L484.03281314399464,409.3218667054843 L481.6039239606805,408.36086144787436 L478.4816125270453,406.73319224067353 L476.399816730329,405.79894528379276 L472.50304362130987,405.2653083149689 L466.41744151265914,405.5321267993807 L464.5206602524125,405.68197328346304 L460.75920769279406,406.1460386703917 L457.82343984138447,406.8402254435896 L454.3807933218789,407.16056052945953 L449.14992779079944,407.4006207131424 L446.8540655882526,407.4006207131424 L443.86554565826214,407.2133126080396 L441.9435351430425,406.6261590377576 L438.92749238944606,405.45185189719376 L437.32658148297435,404.62463814322894 L434.1767472257327,402.70339215088717 L430.1201888352168,400.5948380534424 L428.2516949214556,399.95416788170246 L426.1698991247403,399.4205309128786 L422.83428580815104,399.1001958270087 L419.60494117160107,399.3937726121496 L418.137057245896,399.76762429947746 L415.649299800977,400.71333909952796 L413.41995108881355,397.8524944901595 L413.1668940162046,397.1774207889108 L413.2723981733648,395.3012816463693 L413.5040486053904,394.247004597647 L414.9589356421695,390.7256122217113 L415.54991182684074,388.6805135231383 L415.59196058512964,386.97256941375053 L412.55527571382777,383.28221748178316 L408.7181353892905,378.87550761315686 L406.4620283763971,376.87245767287214 L405.512490961957,375.6071723098298 L409.8947360984881,375.1515166745588 L416.40159031290057,374.89004985029277 L424.9030847159414,374.20350830587455 L432.55442967867793,372.20886811724756 L435.52995271974197,371.2608597485632 L436.5765845396843,370.70505161627807 L438.99553492558596,368.80827035603136 L441.21953197760394,366.7157712390241 L442.9848153028399,365.6691394190814 L447.0069701638468,364.13244843435916 L448.7401435282073,363.02083216978895 L449.5574184847586,361.8434669377132 L450.79976816146217,359.65310889232563 L451.4534352221273,357.5606097753182 L452.5650514866976,355.4023616908053 L454.592566159077,353.73493729395 L456.12925714379935,352.7869289252657 L459.0069212564841,348.6340406521257 L460.1185375210534,346.7701338756318 L460.6743456533387,344.5140268627386 L460.9358124776047,340.62336993674296 L461.75308743415553,336.9284308675078 L462.4075190177002,334.63944937086194 L463.38840187013676,332.5469502538547 L464.07494341455487,331.86040870943646 L467.475541175771,329.63641165741797 L470.3853152493301,328.0018617443156 L472.3149709933292,326.6937631001066 L475.8791766504311,325.15707211538444 L479.6391001642935,323.228180894263 L487.02897830276356,320.35051678157913 L491.21397653677866,318.29089214832453 L494.18949957784264,315.93616168417304 L496.5763400028693,313.64718018752717 L498.99605491164743,310.9659984544819 L500.5656203801233,308.80851489284703 L501.7750955730734,305.8001173680301 L502.3309037053592,303.9362105915362 L502.4945116012444,302.6281119473275 L502.42952715661704,300.79707965458624 L506.7123843190119,297.65794871763626 L511.7482965162093,294.4538333360588 L514.7238195572727,293.4079660389941 L519.8736456632868,293.2114836593554 L525.7344780458151,292.6228010433175 L529.8055623710113,292.52494211493723 L532.8949993208936,292.84374815505123 L534.9064590128361,292.86821288714634 L537.677089922604,293.1380894630702 L539.3697435744325,293.0394660118119 L540.8651503237435,292.6472657754126 L543.612081024295,291.5195945304051 L546.4813353853201,290.0723527224054 L547.9775066575106,288.55171671812064 L551.4836085758876,286.90875705336043 L553.6273307257177,285.36212727122444 z"/>
	
</g></g></svg>