<svg xmlns="http://www.w3.org/2000/svg" version="1.2" baseProfile="tiny" width="600" height="600" stroke-linecap="round" stroke-linejoin="round"><rect id="backgroundrect" width="100%" height="100%" x="0" y="0" fill="none" stroke="none" class="" style=""/>































































































































































































































































































































































































































































































































































































































<g class="currentLayer" style=""><title>Layer 1</title><g class="city city-22" id="edirne" title="Edirne">
	<path id="edirne-ipsala" title="İpsala" class="district" d="M130.9823312162211,531.9945731401061 L132.27099997308665,529.9349407544285 L132.2882907141028,528.1651825563647 L131.94959561067947,527.5183054219002 L132.49679670870222,526.0374043090377 L132.06859659296413,522.316843683453 L133.21893942170522,520.5623420215796 L133.5403437841124,519.4272557290284 L134.48624902790436,519.4008110662987 L135.87764512845064,518.572889702377 L136.6353864258973,516.7909262753611 L137.91591836346242,515.6507544707465 L138.30343438269335,514.6885755883509 L138.09492838809402,513.3775305784062 L140.2277921474851,511.81017576046577 L142.04026864688132,509.3437024097161 L143.20993642146323,508.7059791969656 L143.9514040803071,507.59123495266783 L146.8521801612709,506.4612341721803 L148.4439454371161,506.60973112443145 L149.47121887392248,505.08916301747456 L150.6652971064097,503.93373467666964 L152.24384005088996,502.9929149449404 L153.53047460292987,504.9599910110639 L154.41026818989906,504.95490549900063 L154.33703681618516,502.1202410748606 L155.07952157744228,501.63813453125033 L156.9113230226793,502.2412762619695 L156.89504938407646,501.0807624091016 L157.51649895822436,500.8285210107569 L158.62005507598252,501.69000675429686 L159.55375509082285,499.3059186989742 L160.62476393137524,500.23555030416424 L164.34023904489584,501.4286114342382 L164.43991508133865,499.72598199541113 L163.44722312656268,499.4696721874159 L163.50926637373624,498.0833615989326 L164.6931735820964,497.68567455557474 L166.13135639362667,498.45765528679897 L166.75382307018697,498.07319057480584 L166.44258973190682,496.37971505769303 L166.92978178757954,495.2130985903488 L167.90213169410242,494.9069507641322 L168.4767945572674,495.8569244175755 L169.95566146530382,496.4966818351513 L171.15380810744125,496.1173026352217 L171.15584231226688,495.11545675873157 L168.61003497332825,494.23464606935045 L168.23370708063663,493.32535651241415 L170.19061212263307,492.80053166747126 L169.9505759532403,491.08874830693014 L169.16435578823905,490.4164436121486 L166.99284213716643,490.18861267170826 L165.79571259744125,491.05314972248635 L164.4429663885776,490.35440036497505 L164.38092314140403,488.8958755051916 L164.75013131720647,487.52075304324785 L165.36751248170316,487.21155390979305 L168.5296838827262,488.08524488228534 L169.00263650462267,487.61432646521433 L168.09741535733684,485.3553420066515 L165.9513292665818,485.1285281686239 L165.2810587766253,483.14721266872255 L166.56260781660268,482.4037108050532 L171.3511259755013,482.85225296904525 L172.82795867871312,482.21961526835827 L173.21344049311944,479.9138440988119 L173.16767088454873,478.63432926366016 L172.04275561612423,475.59929566422215 L172.0732686885043,472.9944963853479 L172.65911967820858,472.3506705581214 L174.55703278026937,471.56445039311944 L175.29036361981179,471.92145333997007 L175.3696976080015,473.66680108012963 L173.8715057541233,473.33319148877047 L173.15546565559606,474.1651812623431 L173.85726632034607,475.44266189266943 L175.01676307080197,475.4131659227016 L176.01250633281484,474.467260678909 L177.91041943487664,474.27197701567445 L182.85150295567684,476.06106015957903 L184.4514050508235,475.80983586364704 L185.31695920401444,473.4603292903555 L186.0869057304128,465.8737623941733 L187.35726664385083,463.70326584551344 L189.37621493302186,461.88773803887915 L190.31398335751243,462.5020678961381 L189.94680938653454,464.9949859096175 L190.63945612957082,467.0851313676756 L192.2769910139857,468.55382725158586 L194.17592121846081,469.4722707302361 L195.09945020917309,470.65109242653256 L197.3350413122439,471.12302794601624 L201.40039965572817,470.95927445757474 L202.70534205119657,470.4049536426639 L204.45780950824485,469.15391767506713 L205.78919656644416,467.5235025075406 L205.89904362701202,465.92156620756913 L203.62581973467195,463.7693775023377 L202.4734427011062,462.0779361900505 L200.86540378665808,460.82384891521576 L199.92560115734193,459.3317596758136 L199.0112260883414,458.56893286630356 L199.80761727747063,455.66510547810117 L200.23886870044765,455.1962212658556 L202.9758912929695,454.85956036725844 L204.90126616017352,456.3730087573267 L207.32908961924187,456.79307205376364 L208.99408626879898,455.8553036292723 L209.76199859037268,454.6836016498648 L211.67211692138613,452.9921603375774 L213.91381063893277,451.32106107354366 L217.05360578687714,450.0842645397244 L219.9136977713348,449.8828782620138 L227.40567414313716,450.45448981794004 L229.069653690282,450.2124194437221 L230.64005981545978,448.70914207778077 L230.8923012138053,447.46115741742193 L230.28610817584894,446.14197558817574 L226.84423361133724,442.54956986658885 L225.19144219073274,440.02207037107837 L221.60920749327306,437.9420959371471 L217.2549920645884,435.6627694303307 L216.59082418910873,434.5612475173979 L216.31213812803333,432.5656925837192 L216.59794390599683,431.22006609174304 L218.4399163753609,430.01988524478037 L220.45479625487968,430.0076800158282 L223.55797571596804,430.38807631817076 L224.88834567175405,430.0982021305568 L226.23295506131734,429.1055101757808 L229.48056306500592,425.61786600270017 L232.36303130254026,419.3240362730346 L232.676298845646,418.2042065166736 L232.5664517850782,416.7100830724462 L234.04938710276582,415.507868020658 L237.2105414013755,412.5247066442668 L243.35587417879003,403.89357557026176 L244.31500175394694,403.07684233287955 L256.85282319505694,396.96710813990916 L261.71864113731965,394.51690842776225 L263.5656991187472,393.73577377482394 L267.15301932827043,391.32015554470814 L269.67441620930475,389.82806630530615 L275.0386143337806,388.26579699942926 L280.86355985120025,386.3475418491141 L281.8582860108018,385.60200578061955 L289.06852501429296,387.94540973943504 L290.4883999823947,388.30139558387316 L294.1469173608052,388.26579699942926 L296.31436260222665,389.2249245745868 L298.94255523659297,389.4019003943931 L308.9233812122249,389.82806630530615 L310.02388602274516,390.0772563964128 L310.8406192601266,391.603927117846 L314.32216081873213,392.7054490307787 L315.9200287090532,394.4813098433185 L316.98595203754104,398.6015917170863 L317.73148810603607,400.55544545184534 L323.6988279612303,401.97532041994697 L327.2505495863099,404.56893157228166 L327.7041772623666,405.1273207968432 L328.6358430723813,406.27359521593377 L330.12793231178273,410.28708133637014 L330.4117038849216,411.85036774465993 L330.23472806511467,413.6964086236746 L329.4881748942073,415.36649078529564 L329.630569231983,418.2428564083554 L330.80227121138944,423.74843176819377 L331.72580020210376,430.6393006141027 L331.5488243822968,432.69893299978037 L330.87346838027776,434.6171881500952 L326.2202248422656,441.5436555804482 L322.1009600709103,448.14973575080654 L319.0140542484258,451.20409429608543 L317.31142480959943,452.2334019377179 L311.24949443002487,457.2111011453752 L306.0266735409113,460.5319405227763 L304.08705923993006,462.25491200985664 L303.3293179424823,464.7915654270814 L301.5626110516579,467.69030730322015 L296.67848526596663,473.01687263842695 L291.09255881552644,477.97931530989416 L288.05447390884956,480.9909555538404 L286.91531920664875,483.67508882090357 L286.2236895660258,486.0144243700683 L282.40955551847475,490.9616105053452 L276.7829449715265,496.0522080808099 L272.8050574355354,498.68040071517595 L272.409404597002,502.8484864023397 L271.2143092621035,507.64412427812744 L271.07191492432787,512.1905720628081 L270.45656796465585,514.5583864795279 L268.7041005076085,515.9792785500423 L264.7729996825984,520.0985433213974 L263.4477152388769,522.9881312758222 L263.7792906254101,524.5036138707158 L262.8791549901879,526.2082775143678 L260.98429319536496,528.2923203579497 L258.04893563236976,529.8545896638267 L255.44413635349446,530.9439063478072 L251.70221657724403,532.1756173695633 L246.35124078413315,534.4956279728868 L239.01081267182013,535.7741257056261 L224.1336556815453,536.2806427071408 L220.26459810370875,536.5908589430082 L213.61173122236744,535.9714435736859 L209.74267364453192,533.6504158679495 L208.0410613081168,529.4731762590716 L206.33843186929045,523.7468896756817 L203.86280459682683,520.4982645695808 L189.78203879568127,516.9394232276123 L184.36596844815898,516.0108087248352 L173.84404398898005,513.9989801525536 L165.0237318662173,512.451967382867 L157.44123337968585,512.296350713727 L151.25216519852626,515.2367937887857 L145.3722961508222,521.4258619699452 L142.27725350903526,525.6041186812357 L137.63519809756247,529.6277758257991 L131.8346630380471,531.8786234650604 L130.9823312162211,531.9945731401061 z"/>
	<path id="edirne-merkez" title="Merkez" class="district" d="M337.3849580262568,239.47286794601732 L337.67584931628386,236.49174077445133 L338.2525463842734,233.97746361030576 L338.1589729623064,231.32282631321021 L337.7419609731076,228.7668479501445 L335.3446505864194,226.43361501545598 L333.11821340506333,223.6355662781725 L332.348266878664,221.5444037177019 L332.7622275606248,219.66784976630672 L333.8484929373678,218.05472533979588 L334.42620710776964,216.30124078033504 L333.351129857567,213.96292233358298 L333.1802566522369,211.20352348798133 L332.0512729741612,208.5814334680915 L330.0221536608641,204.98597643926672 L329.3549344781454,204.30655202759633 L328.84028065732946,202.72597487829108 L328.99691442888235,200.22898845516104 L329.5380129124282,198.66468494445883 L331.20809507404886,197.21327980156408 L331.03722186871875,195.23298140407553 L331.5478072798845,193.4733942301386 L330.29575420987493,192.20811882876433 L329.0121709650729,189.62569580296912 L329.019290681961,187.14803432567987 L329.49224330385755,185.86851949052806 L329.1443942787204,185.27656588634824 L327.09188160993244,183.72650180942335 L326.8294691874609,182.32391758233726 L328.32766104133907,180.57856984217798 L331.07994017005257,179.20141317540885 L331.9261693774017,177.1061822052875 L331.820390726483,174.9194120180248 L330.72802273526423,173.09371318726372 L329.85738307000975,170.61198330032374 L329.8370410217567,169.42705898955126 L328.9145291334557,167.0856892355613 L319.810445437554,167.09586025968795 L318.93878866988723,166.99211581359455 L314.1767151737176,165.39323082086133 L309.47770202713474,163.93775726831578 L303.16759865886695,162.17206747990264 L292.2225595960135,153.6640057978323 L285.7222580765748,149.00262544051836 L285.0560559962685,148.33540625780012 L285.50866656991195,147.63563979787602 L287.63542771482514,146.6246399996718 L288.44809254255836,145.03084051900186 L287.0516109299475,144.48974203545586 L287.06483326131143,142.43926357149255 L286.6244279166217,141.3418100682106 L285.77311319720803,140.64407781311183 L284.4132472714552,140.46608489089286 L283.6555059740075,140.8393614763464 L279.4569072144645,141.91240452172406 L277.5600112148149,141.97444776889762 L272.2914207171307,140.35827203514873 L270.9885125264879,139.53238487605225 L268.896332863604,136.46378689699586 L266.99943686395653,135.32768350203196 L264.96523203859493,134.79268763296216 L263.72334999271243,134.91168861524562 L262.38179191038705,136.00507370887698 L260.99446421949096,135.92980813033859 L258.7731125501974,135.11917750743245 L256.98606361111877,135.4904198880609 L253.62657434203572,133.67082367177565 L251.05940785242967,132.8418852054413 L249.3211798291597,132.92833891051916 L247.37241160646465,132.57031886125566 L245.59858499874997,131.1168795135356 L242.83715194832286,131.18197406794707 L240.54256890531633,130.63375586751243 L238.3466447963384,129.66140596099004 L237.766896421112,128.94333165763769 L236.9674539247448,126.6324749760281 L235.99205271098396,125.63876591883944 L233.9710702169894,124.34094324025942 L232.85937727992876,124.29924204133957 L230.2393214648639,125.10377004976964 L229.6199060955426,123.05227448339352 L228.36175041105724,122.19180584226609 L217.59368716801072,113.67153893124319 L218.1144436033025,112.51000797596232 L217.81338128914945,111.43493072575919 L218.45822421878938,110.86433627224561 L218.1581790070486,109.36004180389156 L218.4724636525666,108.82504593482176 L217.93339937384638,107.11224547186809 L218.52840428526332,106.24160580661375 L218.88235592487624,104.2938546863309 L220.89825290680938,101.72973950396393 L221.3752739383561,99.3263265028004 L222.21234922399253,96.98800805604846 L223.03213376861277,96.59845783199192 L223.13689531711913,95.3006351534119 L224.66560024337645,93.2379514604963 L224.84155896077107,92.28797780705285 L226.44756367039253,90.85182920034832 L227.53484614954783,88.4179031268044 L229.93622494588624,86.02669535459303 L230.78753966529897,84.37288683157489 L232.16876474171914,83.2215269004208 L233.44827957687096,79.95662815571704 L234.67287088173833,78.18178444559005 L237.05899314188616,77.80749075772371 L238.78196462896665,77.14535708706875 L259.2277573286654,77.03347582167389 L263.59214378147715,76.93074847799316 L272.4175414163035,76.95007342383407 L294.55579253070357,76.87887625494652 L306.5077629821082,76.71919117615575 L312.22692984861027,66.3528833861182 L313.6396850998239,65.9612989572363 L317.2849801468695,63.63721994426187 L317.03884136300087,63.28021699741107 L319.3954676531809,64.03083857796913 L321.0126604893427,64.97674382176174 L323.8168118411016,65.91858065590377 L327.374636080657,65.98977782479145 L329.75363862391674,66.55528676624162 L331.7573303768972,68.41658418144647 L332.43980609580535,72.10968304188859 L332.5252426984699,73.65262740192469 L334.0112293233965,76.02959574035843 L337.4510696830816,78.11058727670239 L348.0645333593998,81.46397393130924 L354.6451859694406,83.79924107082314 L361.7781251895685,87.96020704109823 L365.59937895400776,89.65876807027439 L370.7784644393762,92.37544861454339 L378.7606841740902,95.51727796731271 L383.600057453624,97.00326459223865 L387.336891717811,98.53196951849725 L392.55869550451223,100.39936954817817 L398.62977980580047,103.32964159911008 L407.121567849268,106.98103926063222 L415.527919290071,111.94755034175004 L416.67419370916184,113.13654306217352 L419.5607303563485,116.74522242236313 L420.11301696643363,120.35390178255274 L420.11301696643363,122.26503721597899 L417.9476059298379,125.06715436291319 L415.655057091656,127.48684100267958 L411.8338033272157,130.79852645836658 L409.3713983861171,133.6850631055533 L405.7627190259275,138.44103398724627 L401.89874696015545,143.28040726677906 L397.4407870853778,149.3097903691479 L394.59696873952294,155.16830026618632 L389.71386005624515,167.82003717751635 L388.3560283353179,172.87300196371206 L385.5111928870498,179.4953557726734 L383.47291965203897,183.9533156474511 L380.203952497685,188.87812552964908 L376.1284231300748,195.24722083785304 L370.7784644393762,201.2338856388892 L369.8874827258676,202.63443566114995 L366.95721067493594,209.13066877093894 L365.85365455717886,212.14434321971066 L364.7500984394196,219.70141414592516 L364.7928167407524,223.01309960161217 L365.556660652676,226.53735946154939 L367.08536557893433,231.37774984349485 L371.16089494654466,242.46620034653535 L365.834329611337,242.46620034653535 L357.21031825422097,241.5721673257895 L352.22753353450025,241.18871971620902 L344.1141075885499,240.16653179146522 L337.3849580262568,239.47286794601732 z"/>
	<path id="edirne-enez" title="Enez" class="district" d="M227.08833819038125,592.1897452297635 L224.6249161468703,592.8366223642283 L222.54595881535028,594.2554802299172 L221.05488667836224,596.3822413748318 L220.02863034396717,597.0077593586302 L215.09161523281722,597.7471928126487 L211.7341601685597,597.9750237530891 L204.6602128883684,598.6310548092679 L202.12966208561932,598.9829722440551 L198.2494163812445,599.0083998043722 L195.20624596250502,598.2130257176563 L192.3776841528408,596.6894063034612 L186.2384539899021,597.1725299494842 L174.17561937551426,595.5136359144027 L171.84238644082626,594.8525193461606 L169.45931548791629,594.8993060571439 L167.79330173594587,596.0882987775672 L162.47487322004076,595.7465523669066 L154.77032244398777,596.4330964954657 L153.3911315723932,597.7176968426809 L151.46270539795125,597.936373861407 L151.14435234278199,597.2294876845942 L144.4365619311552,599.1497770397348 L139.34596435569023,599.3674369560484 L135.9793553697191,598.9636472982144 L131.51427577805225,597.6709101316976 L127.46010556110934,596.6354998755891 L124.30912228662567,595.5573713181481 L123.29303697635771,595.0152557321896 L118.69776827586793,593.2871987330456 L115.97396801471103,591.870375072182 L111.84453221922865,589.9490686146289 L107.3306317117532,585.1442768171272 L104.04742512362196,578.9419863046027 L104.7441402763074,577.1183216786671 L105.68597711044922,575.4889236135531 L105.75717427933745,573.9836120427865 L104.96586860227171,569.6822859395614 L105.18963113306063,567.1873337212566 L105.76124268898769,565.5365765054767 L105.75208876727396,564.3231733271489 L104.09828024425622,559.6160233612646 L103.30188905512694,557.931701765866 L101.99287825000735,556.3165431345298 L100.53943890228646,555.0299085824892 L101.37041157344709,554.73800019005 L101.08969130754707,553.5103575779448 L102.31936812447799,552.7353255394823 L104.03725409949493,553.3201594267736 L105.82735434581144,551.0093027451641 L105.39305161559753,550.0633975013716 L101.51280591122168,549.2751431315439 L100.87101428882067,550.4183662433967 L101.5656952366815,551.9816526516864 L102.27766692555747,552.704812467102 L101.19038444640222,553.2977831736947 L101.24530797668763,551.6673680061681 L100.5740203843178,550.3786992493024 L100.96865612043786,549.612821132554 L100.20481220851536,547.9468073805838 L97.0894275184753,543.876363525037 L95.3593363145057,542.1839051103373 L93.07390719321398,540.3907535567818 L96.2289588773479,540.3958390688454 L101.58908859217348,540.8270904918218 L104.89670563820903,540.7599617325848 L109.00986779508855,541.5400792831106 L114.03028530407852,540.0734176040256 L114.86125797523812,539.3777195537522 L114.8765145114287,538.5233535271009 L116.03295995464566,538.0168365255861 L119.50941600118773,537.7829029706695 L122.79058838449339,536.6315430395153 L124.29183154560951,536.5867905333578 L126.07888048468914,536.1341799597149 L128.50060132928064,535.1404709025263 L130.74941476371743,534.7163391964384 L130.9823312162211,531.9945731401061 L131.8346630380471,531.8786234650604 L137.63519809756247,529.6277758257991 L142.27725350903526,525.6041186812357 L145.3722961508222,521.4258619699452 L151.25216519852626,515.2367937887857 L157.44123337968585,512.296350713727 L165.0237318662173,512.451967382867 L173.84404398898005,513.9989801525536 L184.36596844815898,516.0108087248352 L189.78203879568127,516.9394232276123 L203.86280459682683,520.4982645695808 L206.33843186929045,523.7468896756817 L208.0410613081168,529.4731762590716 L209.74267364453192,533.6504158679495 L213.61173122236744,535.9714435736859 L220.26459810370875,536.5908589430082 L224.1336556815453,536.2806427071408 L224.79070384013687,539.444848312989 L225.50165842659953,545.0806127816505 L225.50165842659953,546.6428820875275 L224.41234174261865,550.526179099141 L222.70767809896665,555.4520060837516 L222.2815121880542,559.0515315222273 L222.43509465236912,560.8863842747024 L222.86126056328266,562.1648820074414 L224.06856112713388,563.3721825712929 L230.24949248899196,566.4631568034283 L231.03062714192964,567.2442914563668 L231.03062714192964,568.5583877735497 L229.2547663293904,578.5748123336253 L228.1888430009005,581.3809978902101 L227.44330693240641,586.5661859900541 L227.08833819038125,592.1897452297635 z"/>
	<path id="edirne-havsa" title="Havsa" class="district" d="M451.63708914504673,258.77950594351444 L447.0102902697646,257.2660575534463 L443.26226787903727,254.44461546067117 L440.9300520467615,251.8896542000183 L437.38545013857004,248.9502282273723 L435.11731175829357,246.33118951472036 L432.7535657512243,241.95561493536982 L431.4435378436914,240.90087973342054 L427.3547861447172,239.52779147630199 L423.0107417401606,238.85650388393304 L416.1758135269488,238.50560355155844 L408.1895253825825,239.11281369192847 L403.1426632108636,239.3681063975112 L389.0242646204488,240.35774704504905 L382.8596068971925,240.2621394182572 L380.49586089012337,240.64558702783765 L375.6086837971942,241.95561493536982 L371.16089494654466,242.46620034653535 L367.08536557893433,231.37774984349485 L365.556660652676,226.53735946154939 L364.7928167407524,223.01309960161217 L364.7500984394196,219.70141414592516 L365.85365455717886,212.14434321971066 L366.95721067493594,209.13066877093894 L369.8874827258676,202.63443566114995 L370.7784644393762,201.2338856388892 L376.1284231300748,195.24722083785304 L380.203952497685,188.87812552964908 L383.47291965203897,183.9533156474511 L385.5111928870498,179.4953557726734 L388.3560283353179,172.87300196371206 L389.71386005624515,167.82003717751635 L394.59696873952294,155.16830026618632 L397.4407870853778,149.3097903691479 L401.89874696015545,143.28040726677906 L405.7627190259275,138.44103398724627 L409.3713983861171,133.6850631055533 L411.8338033272157,130.79852645836658 L415.655057091656,127.48684100267958 L417.9476059298379,125.06715436291319 L420.11301696643363,122.26503721597899 L427.12797230668934,121.74122947344866 L435.8669162364388,121.60697195497487 L445.1795059269389,122.58542447597321 L452.1293667127841,124.44061927670212 L456.98806493815766,126.43108869831748 L459.95698688077084,127.47768708096547 L461.0035852634189,129.6024140210546 L461.07071402265603,133.34840220695608 L460.6994716420269,137.26221229094972 L460.02513274242017,142.05276465467392 L459.6284628014755,147.10267813363157 L458.74358370244386,148.1228318535499 L455.58141230141973,155.74092892452526 L455.5132664397704,160.05954576876576 L458.0641592907725,163.59601085765516 L462.72248834084917,166.58832615576048 L470.4422956530917,169.10463752473154 L472.75416943711434,168.59506921597873 L474.0123251215998,167.67662573732846 L475.8827764585184,165.1257328863263 L481.46056608965705,160.56911407751872 L482.9221422566793,159.5835418396315 L486.4250429659503,158.9031003255483 L489.85979781357184,160.0931101483843 L494.211979037431,163.2217171697888 L494.9270020335448,165.53460805622376 L493.0219692145939,171.21309082621784 L491.9336696330263,174.07013150343684 L490.5056578456241,176.28029504619104 L489.0430645761885,179.34075620594604 L487.0027571363521,183.01351301813455 L486.35689710429995,186.17568441915745 L485.5411809693309,188.89643337307743 L485.47303510768154,191.85518429156423 L485.13230579943354,195.42521376007204 L485.37132486641303,199.2006979159413 L484.6908833523305,204.81103482428574 L482.10642612171034,208.65364773939197 L477.27722386630353,212.39455041323 L473.2983192278981,215.28515547006742 L470.0680019652258,219.80820989925658 L469.08141262492563,222.05193782162937 L465.3415270535007,229.70359927222313 L463.7009408618469,232.26262894252685 L460.4787604184759,237.2871148611674 L456.1255620922035,245.9589300316795 L453.13324679409936,250.78711518467284 L451.63708914504673,254.2900158939437 L451.39908718047855,258.0644829474004 L451.63708914504673,258.77950594351444 z"/>
	<path id="edirne-kesan" title="Keşan" class="district" d="M392.3969762208958,575.7238742708824 L389.2683691994919,574.9640987686101 L388.1149750635118,575.3414437637146 L384.0506338224418,574.8156018163587 L376.73461616803206,578.0011665728734 L375.6778467612569,579.1779540643448 L373.1300052174927,579.3589982938017 L371.392794296635,579.1026884858062 L368.5937284569386,577.6329754994833 L367.00298028350664,577.617718963293 L363.23359874211394,578.359186622137 L360.5586193967647,578.4812389116586 L357.7025958219583,578.0194744163017 L350.08449875098313,578.1893305192195 L342.73186540971744,578.5636242070857 L335.3548216105475,578.3052801942649 L331.48779823753654,581.1379104135793 L328.24324154108695,581.1094315460243 L326.966778013173,581.2945441851323 L325.4065429121212,583.2219532571613 L324.2480632640776,584.0386864945438 L322.3715093126832,585.9640613617474 L321.19675602603775,587.7033064874306 L320.1654141795792,588.5688606406218 L318.8208047900159,589.0428303649308 L315.95562729349575,589.1648826544523 L314.4940511264745,589.0072317804869 L312.0052015226459,589.5218856013031 L310.0106636913802,590.9142988042624 L308.6243531028965,594.0093414460484 L307.33365014120534,595.2146078050747 L306.74067943461296,596.644653797303 L305.29639400860583,598.4550960918739 L304.0026397396778,598.6056272489507 L302.27865115018403,597.9373909638198 L300.4041314036142,596.8389203581252 L298.61504825971,596.2561206756593 L295.3176022378005,597.1837180760239 L292.27850022871127,596.3425743807372 L289.73472709459827,594.6836803456556 L286.5196663681154,592.8203487256254 L280.9164491766601,589.916521337423 L279.67761843801543,589.9053332108836 L277.4227023891028,587.5934594268612 L274.37342935588765,587.041172816776 L271.8906823665348,587.1184726001396 L269.1587452860755,586.857077280081 L266.4725778141869,587.7602642225409 L264.484142597397,588.8628032378862 L263.18733702123,590.5033894295398 L260.2896122475041,592.9108708403537 L255.3108959374336,594.1374963500463 L253.85033687282464,593.9330587650976 L252.7132163754485,593.3421222633302 L248.72108940567915,592.1978820490649 L246.33395004311694,591.834776487738 L245.5365417515764,593.5719874085961 L243.7952624210675,593.4072168177418 L241.8485284031981,591.9222472952288 L241.55458580593313,590.4962697126509 L240.15912129573564,590.1962245009101 L233.9731044218139,591.3191055645091 L230.59734151412806,591.5876206014566 L227.08833819038125,592.1897452297635 L227.44330693240641,586.5661859900541 L228.1888430009005,581.3809978902101 L229.2547663293904,578.5748123336253 L231.03062714192964,568.5583877735497 L231.03062714192964,567.2442914563668 L230.24949248899196,566.4631568034283 L224.06856112713388,563.3721825712929 L222.86126056328266,562.1648820074414 L222.43509465236912,560.8863842747024 L222.2815121880542,559.0515315222273 L222.70767809896665,555.4520060837516 L224.41234174261865,550.526179099141 L225.50165842659953,546.6428820875275 L225.50165842659953,545.0806127816505 L224.79070384013687,539.444848312989 L224.1336556815453,536.2806427071408 L239.01081267182013,535.7741257056261 L246.35124078413315,534.4956279728868 L251.70221657724403,532.1756173695633 L255.44413635349446,530.9439063478072 L258.04893563236976,529.8545896638267 L260.98429319536496,528.2923203579497 L262.8791549901879,526.2082775143678 L263.7792906254101,524.5036138707158 L263.4477152388769,522.9881312758222 L264.7729996825984,520.0985433213974 L268.7041005076085,515.9792785500423 L270.45656796465585,514.5583864795279 L271.07191492432787,512.1905720628081 L271.2143092621035,507.64412427812744 L272.409404597002,502.8484864023397 L272.8050574355354,498.68040071517595 L276.7829449715265,496.0522080808099 L282.40955551847475,490.9616105053452 L286.2236895660258,486.0144243700683 L286.91531920664875,483.67508882090357 L288.05447390884956,480.9909555538404 L291.09255881552644,477.97931530989416 L296.67848526596663,473.01687263842695 L301.5626110516579,467.69030730322015 L303.3293179424823,464.7915654270814 L304.08705923993006,462.25491200985664 L306.0266735409113,460.5319405227763 L311.24949443002487,457.2111011453752 L317.31142480959943,452.2334019377179 L319.0140542484258,451.20409429608543 L322.1009600709103,448.14973575080654 L326.2202248422656,441.5436555804482 L330.87346838027776,434.6171881500952 L331.5488243822968,432.69893299978037 L331.72580020210376,430.6393006141027 L330.80227121138944,423.74843176819377 L329.630569231983,418.2428564083554 L329.4881748942073,415.36649078529564 L330.23472806511467,413.6964086236746 L330.4117038849216,411.85036774465993 L330.12793231178273,410.28708133637014 L328.6358430723813,406.27359521593377 L327.7041772623666,405.1273207968432 L330.5296877647919,403.53758972582375 L332.0248283114322,403.11040671249793 L334.7710048256688,403.47656358106286 L339.9897573051311,403.93425966676915 L342.8579861088891,404.7275995486596 L352.4401079387509,407.90095907622214 L355.88910222014874,410.4030310114158 L357.23167740488736,411.68559715380553 L359.4896447610379,412.99765926616317 L361.411968321003,413.60792071377136 L366.02045935285776,412.9061200490219 L368.0607667926952,412.38434651131683 L370.19261344967185,413.0647880254 L377.53710997163716,413.9262737689401 L379.71370913477233,413.8357516542118 L383.11489960277595,412.6569299579152 L385.3820208806402,412.11278016713135 L387.6938946646618,412.6111603493445 L390.77673207749604,414.92405123577976 L391.72975703817724,416.32968677010365 L392.59124278171794,419.729860135694 L392.45495105841815,422.26956486015655 L388.5096107996318,432.5616241740684 L387.3307891033352,435.0555592899606 L386.1072149008801,437.14061923595517 L385.6535872248254,438.99988244633465 L385.6993568333961,441.08595949474187 L386.741886806393,445.2123439829859 L389.0995301989864,452.19475204603617 L390.36887401001104,458.76930204160163 L390.278351895283,461.71584773113614 L389.68944959834084,465.47912665805325 L387.05922275915,473.9587094725687 L385.2904816634988,476.58791920934743 L383.52275767026,481.48526732640295 L382.88808576474696,484.88544069199315 L382.7975636500189,489.14811690353633 L383.4769880616892,490.23641648510414 L384.7921014812856,493.81763408015155 L388.8727163609584,498.1250627978525 L391.9108012676344,500.52847579901584 L394.5857806129836,502.9318888001794 L402.38492191341595,508.7802276730911 L404.9236095354664,511.1836406742546 L407.4175446513585,512.9971342760637 L410.22881572000654,515.3100251624988 L414.0826167616515,518.8007206428174 L415.3519605726773,520.3426479004407 L417.6017911095254,523.9553956702811 L418.3452929731958,525.6732816452982 L419.15999200575254,529.1070193905067 L419.24136019876585,538.2253425201854 L418.8863914567406,540.2788722913871 L417.10646223455115,543.2366061074614 L415.7638870498125,544.7866701843861 L413.35437143417266,546.6866174912728 L407.05647329485646,548.7401472624744 L403.11316724089477,549.8630283260734 L402.23642496116554,550.4102294240953 L400.7484041314133,552.1128588629222 L399.3681961574064,554.123670332791 L396.56913031771,555.1885765588673 L394.5186518537465,555.7011961748582 L393.68971338741153,556.9634202689946 L391.2852832838352,557.9093255127871 L389.78607432754575,558.737246876709 L388.7221852038814,562.4435680685158 L388.4852003417275,564.5337135265739 L388.4852003417275,567.0968116065281 L390.9689644334926,571.0401176604896 L392.3969762208958,575.7238742708824 z"/>
	<path id="edirne-lalapasa" title="Lalapaşa" class="district" d="M476.3567461828271,1.8736759342514007 L477.3301131917634,5.635937758755684 L478.2099067787316,8.337361766834624 L480.5034727193257,13.553062939059137 L482.6078576111603,19.961825241357577 L482.89061208188696,21.814985837261116 L483.3198293000373,26.90456631031327 L484.2942134113848,30.132849368160453 L481.4819252403245,32.77426433389119 L479.69284209642024,34.75863114103048 L475.9529565249943,37.81502389113474 L471.36684174621837,42.043118620646666 L468.0816009532615,44.12512725940329 L464.4393572134528,46.88961161706809 L460.53673525599925,48.41831654332682 L448.46983223196025,52.90678949048476 L438.1065757491608,58.63104186904954 L433.85610476656916,61.53588635966447 L426.5278818832078,64.74484447167075 L423.88239850782634,66.17590756631188 L422.79816733590894,66.99976052058284 L419.37256641000215,70.42536144649006 L414.9491880172558,75.15285346062801 L411.523587091349,81.35412687073976 L408.2708935755968,89.46348440703959 L403.153851337402,95.92411893238493 L400.8551998847453,99.47990896711522 L398.62977980580047,103.32964159911008 L392.55869550451223,100.39936954817817 L387.336891717811,98.53196951849725 L383.600057453624,97.00326459223865 L378.7606841740902,95.51727796731271 L370.7784644393762,92.37544861454339 L365.59937895400776,89.65876807027439 L361.7781251895685,87.96020704109823 L354.6451859694406,83.79924107082314 L348.0645333593998,81.46397393130924 L337.4510696830816,78.11058727670239 L334.0112293233965,76.02959574035843 L332.5252426984699,73.65262740192469 L332.43980609580535,72.10968304188859 L331.7573303768972,68.41658418144647 L329.75363862391674,66.55528676624162 L327.374636080657,65.98977782479145 L323.8168118411016,65.91858065590377 L321.0126604893427,64.97674382176174 L319.3954676531809,64.03083857796913 L317.03884136300087,63.28021699741107 L316.7204883078316,62.822520911704885 L317.05409789919145,59.70917042649059 L317.9481309199369,58.36761234416523 L319.345629634959,57.462391196879786 L321.42560406889123,57.96992530080738 L324.1463530228102,56.33340751880478 L324.3446879932836,54.9623534665116 L324.0446427815417,53.92999451764125 L322.9949930916557,53.25667272044681 L321.0808063509921,52.950524894229964 L319.6273670032712,52.36569100693888 L318.7150261390973,51.41673445590823 L318.5685633916725,49.911422885141256 L321.6483494972679,48.16912645222014 L322.7315635667719,47.20389626258637 L322.90650518175227,45.25105963024026 L324.69457122324417,44.409915934953744 L325.79100762411423,42.76831264088774 L325.121754236571,42.122452608835644 L322.9237959227684,41.487780703323146 L320.17660230611955,39.07216247320759 L319.74636798555485,37.7519635415485 L318.51363986138705,36.27106242868595 L316.61064124726175,34.47689377271794 L316.5099481084076,33.27874713058062 L319.7778981603483,30.51324567050301 L322.23623469179677,28.10779846451399 L326.73386156066937,24.12380831404535 L335.99254482329724,19.044398865119984 L337.495822189239,17.992714970408475 L340.42609424017166,16.390778670437097 L340.35489707128335,15.340111878138394 L341.2702892426962,14.437942038090991 L341.3241956705683,13.369984504776612 L342.0910908897288,12.108777513053173 L341.87648228065257,10.959451786724454 L342.8549348016512,10.49361888171684 L343.8954305698236,11.381549287986733 L347.1949107965587,12.29287304974812 L348.024866365305,13.388292348204967 L350.07127641961824,13.903963271433739 L352.05564322675684,13.423890932648742 L356.93264929555994,14.453198574281181 L360.6816887886995,16.64200296636926 L361.32754882075074,16.691840984590417 L363.62111476134487,14.98107472646223 L365.8790821174954,15.501831161754525 L368.41471843230704,15.488608830389696 L369.8061145328543,14.958698473383286 L370.82931956001045,15.242470046521058 L371.8932086836737,16.135485964854347 L374.47868301670724,16.108024199712005 L376.2687832630248,16.570805797481583 L378.41893776343,16.148708296219176 L379.7655813578199,15.296376474393186 L380.8782913972907,15.47131808937402 L384.4829023478312,17.32956419734108 L385.6139202307305,17.436359950672404 L386.7490065232821,18.3303929714185 L391.4256434167862,18.652814436238085 L394.4728822451758,18.706720864110086 L396.3677440399997,19.487855517048654 L397.9564580086061,19.370888739590413 L398.56163394415114,18.15951976608813 L399.1810493134734,15.358419721566621 L400.02524431599795,14.443027550154389 L401.7665236465069,14.892586816559007 L402.30965633487847,13.918202705211376 L403.78140352602566,12.34677947762025 L405.8898568275125,10.641098731555461 L406.81948843270266,10.348173236703577 L408.2739448828347,10.83129688272661 L409.0927123250427,9.307677468531537 L410.0823529725808,8.879477352793185 L410.97028337885047,7.159557172950757 L411.8622821947703,6.285866200458502 L414.08465096647717,6.095668049287223 L414.52607341358123,6.504543219184799 L414.1304205750479,7.96408518138095 L416.4453456663084,9.604671373034266 L419.5922605311408,10.496670188954877 L421.30302678926967,12.198282525368949 L424.6625160583517,13.355745070999104 L428.283400647494,13.406600191633194 L429.43170927141057,12.932630467324273 L430.34710144282235,14.350471230600448 L431.2635107166476,14.936322220304215 L432.8990113962368,14.773585834275533 L435.102055222104,14.968869497510081 L435.9106516401838,14.498968182851875 L437.08235361959134,14.708491279863932 L436.7985820464535,13.295736028651026 L437.5746311873287,10.060333253914962 L438.9741641071763,9.568055686177685 L439.4359286025335,8.837776153873333 L441.2382340778038,9.560935969289059 L441.65117765735124,8.695381816098111 L444.6597665940593,7.543004782531224 L444.7380834798357,6.778143768195777 L446.0318377487648,6.649988864197934 L447.4486614096287,5.807828066498735 L450.49386603319374,6.117027199953616 L453.295983180128,7.094462618539284 L455.2071186135538,7.05886403409551 L456.0096124171589,6.5431931108666115 L457.4671201745299,7.1341296126337745 L459.25620331843413,6.959187997652814 L460.265168911813,7.309071227614865 L461.5070509576966,6.51979975537486 L462.95540479335284,6.3855422369010695 L464.2115262730126,5.8159648858001685 L465.56528958429067,3.972975314023424 L468.3592699119225,4.412363556301377 L469.0356430163549,4.121472266274725 L469.8432223320235,2.2825511041489515 L471.2203789987925,1.3051156855631554 L472.96674384136395,1.076267642710065 L474.0611460374084,1.469886276417324 L475.3945673004323,1.2451066432149507 L476.3567461828271,1.8736759342514007 z"/>
	<path id="edirne-meric" title="Meriç" class="district" d="M232.5664517850782,416.7100830724462 L230.93095110548785,415.2861396946938 L227.2286983233313,413.4889197314878 L225.7691563611346,413.2732940199994 L224.517103291125,412.6325195000109 L223.19588725705376,410.01348078735913 L222.06486937415337,409.008583603631 L220.06422892841186,408.4685022224978 L217.80321026502344,408.5335967769094 L216.48911394783926,407.39545917712 L217.96289534381316,406.16985076984037 L218.34634295339492,404.9706870252904 L217.30991559487393,403.2894167371299 L215.0488969314854,400.4639062347039 L212.75634809330353,398.31883724636117 L211.52463707154806,396.87760312759326 L209.98982953081185,393.2506159239753 L210.03661624179688,390.5939444220545 L210.77096418375157,389.74262970264107 L213.4622171677027,387.8762467753728 L216.067016446578,386.37093520460587 L218.4958570080576,384.59507439206607 L219.22206813071188,383.7010413713201 L220.53514734548276,380.4178347831881 L220.14152871177498,379.50956232866463 L218.316846983426,378.3541339878598 L216.19313714574974,378.2117396500846 L212.2325403507728,379.4526045935546 L210.01322288630485,379.7475642932319 L207.60472437307834,379.25630382790723 L206.99446292546872,377.0034219838204 L207.3097646734011,375.8835922274595 L208.49875739382378,375.0332946104587 L212.30170331483447,373.49441866007334 L215.22688985370365,372.88110590522734 L214.11417981423176,369.39244462973375 L214.43456707422558,368.37635931946625 L215.58694410779339,367.8271240166188 L218.85896256938526,367.15583642424986 L220.02863034396717,366.16111026464864 L220.60227610471878,364.3171035904591 L219.5058397038498,362.6266793805845 L216.56743083361567,360.2761557048804 L210.89098226844752,357.8676571916536 L210.91335852152616,356.4559190428533 L210.09255687449365,354.5498691214904 L208.97781263019613,353.28255951529064 L208.45807329731662,351.6185799681458 L209.06731764251185,349.2110985573316 L211.45750831230993,347.8461471195146 L214.34913047156107,347.7363000589451 L215.739509469695,346.50458903718936 L215.58592700537906,345.8027883724399 L213.77548471080843,342.1473223012669 L214.04094844051883,339.2933329312861 L214.53322600825618,337.5174721187464 L215.62762820429953,335.60328537808203 L218.005613645147,333.39922444980385 L218.14292247085803,331.9976573251303 L215.27571076951227,329.9156486863739 L213.34728459507033,326.56734754383024 L212.50919220702156,324.47008236888354 L212.70956138232054,322.0992166449257 L215.30113832982988,319.6591879569059 L215.62661110188725,318.1609961030278 L216.83696297297632,317.19678301580683 L220.3907188028815,317.0442176539048 L221.88891065675972,316.59669259232544 L223.22131481737136,315.50534170351955 L225.17008304006634,315.6863859329767 L226.36822968220383,316.5427861644533 L228.39836609791416,318.8485573339996 L229.4764946553547,319.56154612528854 L231.00113117196287,319.85854002979113 L237.48312484797407,318.943147858379 L239.11252291308756,318.8668651774278 L244.2529585067744,319.30116790764225 L248.44647175425501,318.5719054777505 L251.36352147382166,317.07473072628517 L252.24534926561552,316.261048796141 L253.84321715593552,314.02749189789506 L255.1318859128021,313.1110826240701 L258.31643356690483,311.3575980646094 L262.8252485623157,307.5780454990894 L264.37327843441483,307.0572890637971 L267.7602294686411,307.1712045340172 L270.43012330192585,306.53043001402864 L273.14171833413207,305.0108790094844 L274.34088207868183,303.55540545693884 L274.9440238094013,301.62087666802097 L275.1484613943505,298.4841328273149 L275.69973090202234,297.8698029700561 L278.7032343266669,296.7967599246783 L280.7201484110123,296.82422168982066 L283.2232374486192,296.57706580353937 L284.6044625250384,296.12547233230924 L286.4433836871656,293.9936256753315 L287.23570646664365,290.101174742004 L287.91614798072516,288.421938658669 L288.78780474839294,287.1658171790087 L290.72741904937425,286.1344753325507 L295.3603205391322,286.6826935329855 L297.2653533580832,284.1440059109355 L297.6671088110914,282.0640314770044 L298.5702957535516,281.54937765618814 L300.15290710768306,281.5727710116798 L301.3480024425816,282.7058230994056 L301.0744018935707,282.7709176538171 L301.7060224918457,286.019542759918 L302.245086770566,287.275664239578 L306.8749369530861,291.4742629991224 L313.62239435880775,298.22172040484327 L321.94839470900763,309.3111880102967 L323.0967033329252,312.2546823925934 L323.5279547559002,314.1922624887492 L323.3479276288563,316.38208398324997 L321.94839470900763,319.9348227107422 L321.41034753269963,323.8465985899106 L320.6322641870009,331.27653171454006 L320.6800680003962,334.3390270791205 L320.4410489334157,335.1527090092646 L316.66047926548265,339.31570918436506 L314.50727345783946,342.09138166856957 L302.208471083709,350.1305591383945 L301.2035738999814,350.99204488193465 L297.8542556550253,354.91602599005535 L294.025882173697,359.17463379194777 L292.59075066940466,362.284932969924 L292.54294685600837,364.39033496417227 L293.9780783602997,365.63526831729297 L293.547844039737,366.5445578742289 L290.96338680911583,368.6021560550812 L288.283321951703,369.7982684923934 L286.895994260808,372.1426895536213 L286.60917138043214,373.48323053353397 L285.50866656991195,375.97106303495 L282.97201315268705,383.3887909306273 L281.8582860108018,385.60200578061955 L280.86355985120025,386.3475418491141 L275.0386143337806,388.26579699942926 L269.67441620930475,389.82806630530615 L267.15301932827043,391.32015554470814 L263.5656991187472,393.73577377482394 L261.71864113731965,394.51690842776225 L256.85282319505694,396.96710813990916 L244.31500175394694,403.07684233287955 L243.35587417879003,403.89357557026176 L237.2105414013755,412.5247066442668 L234.04938710276582,415.507868020658 L232.5664517850782,416.7100830724462 z"/>
	<path id="edirne-suleoglu" title="Süleoğlu" class="district" d="M484.2942134113848,30.132849368160453 L485.1099295463548,31.73173436089392 L486.6060871954064,33.77204180073057 L488.2049721881418,35.472637034732095 L488.6128302556258,36.32191754932005 L489.8028400784608,42.647277453778784 L490.2452796279772,49.48322276940303 L491.74143727702983,53.9716957165611 L494.5974608518362,59.31046628071993 L496.22991022418864,61.87254725826143 L497.1819180824564,65.81687041463583 L498.3159872725947,68.94547743604032 L499.08695090140736,72.70875636295744 L500.58310855046,81.23309168363079 L501.39882468543,92.02454828216867 L500.58310855046,100.412591879543 L498.9964287866783,104.22164041503068 L495.09685813646263,109.4810769910004 L492.3761091825427,115.37518547248263 L488.7938744850819,125.12411209802322 L486.66304493051746,132.19704227580198 L485.2685975227323,135.88098721453 L483.8070213557111,138.7370107893363 L480.64383285227575,141.18619339907028 L477.65151755416946,142.546059324824 L473.70719439779543,143.66792328601025 L467.3818344933371,145.06237069379492 L459.6284628014755,147.10267813363157 L460.02513274242017,142.05276465467392 L460.6994716420269,137.26221229094972 L461.07071402265603,133.34840220695608 L461.0035852634189,129.6024140210546 L459.95698688077084,127.47768708096547 L456.98806493815766,126.43108869831748 L452.1293667127841,124.44061927670212 L445.1795059269389,122.58542447597321 L435.8669162364388,121.60697195497487 L427.12797230668934,121.74122947344866 L420.11301696643363,122.26503721597899 L420.11301696643363,120.35390178255274 L419.5607303563485,116.74522242236313 L416.67419370916184,113.13654306217352 L415.527919290071,111.94755034175004 L407.121567849268,106.98103926063222 L398.62977980580047,103.32964159911008 L400.8551998847453,99.47990896711522 L403.153851337402,95.92411893238493 L408.2708935755968,89.46348440703959 L411.523587091349,81.35412687073976 L414.9491880172558,75.15285346062801 L419.37256641000215,70.42536144649006 L422.79816733590894,66.99976052058284 L423.88239850782634,66.17590756631188 L426.5278818832078,64.74484447167075 L433.85610476656916,61.53588635966447 L438.1065757491608,58.63104186904954 L448.46983223196025,52.90678949048476 L460.53673525599925,48.41831654332682 L464.4393572134528,46.88961161706809 L468.0816009532615,44.12512725940329 L471.36684174621837,42.043118620646666 L475.9529565249943,37.81502389113474 L479.69284209642024,34.75863114103048 L481.4819252403245,32.77426433389119 L484.2942134113848,30.132849368160453 z"/>
	<path id="edirne-uzunkopru" title="Uzunköprü" class="district" d="M301.3480024425816,282.7058230994056 L302.0335294687287,283.08011678727195 L304.9851606703267,282.599027346074 L308.57858349432576,280.8119784069949 L311.23423789383327,280.9625095640716 L312.31948616816396,281.25746926374893 L313.20741657443455,282.1515022844949 L315.09109024271817,283.2621781191417 L317.75386435911474,286.28297228480204 L320.8346675671235,288.24191153162434 L323.8066408169756,289.19391938989315 L327.4376964302439,288.98643049770646 L331.63019257531215,287.0152860219319 L334.133281612918,285.1326294560608 L338.38985520998443,282.58682211712215 L342.0331160522054,280.6777208885211 L344.3968620592756,278.4563692192273 L345.18104801945117,275.36641208950465 L345.4566827732887,272.07506868207133 L346.1340729801333,271.067120191105 L346.0303285340392,269.08783889602927 L346.57651252964865,267.62626272900775 L346.64058998164785,266.00601858560805 L347.3810405380783,262.7278975095393 L346.65482941542507,259.8261043261625 L346.21442407073437,258.93715681747994 L345.5065207915086,255.94382441696183 L345.54618778560337,254.51377842473337 L344.6470692527944,251.62927598237218 L345.16680858567395,249.58388303047198 L344.3978791616879,248.18841852027475 L343.22109167021574,247.18860684861002 L339.33982886342864,246.82448418487047 L337.99420237145307,245.6944834043825 L337.3849580262568,239.47286794601732 L344.1141075885499,240.16653179146522 L352.22753353450025,241.18871971620902 L357.21031825422097,241.5721673257895 L365.834329611337,242.46620034653535 L371.16089494654466,242.46620034653535 L375.6086837971942,241.95561493536982 L380.49586089012337,240.64558702783765 L382.8596068971925,240.2621394182572 L389.0242646204488,240.35774704504905 L403.1426632108636,239.3681063975112 L408.1895253825825,239.11281369192847 L416.1758135269488,238.50560355155844 L423.0107417401606,238.85650388393304 L427.3547861447172,239.52779147630199 L431.4435378436914,240.90087973342054 L432.7535657512243,241.95561493536982 L435.11731175829357,246.33118951472036 L437.38545013857004,248.9502282273723 L440.9300520467615,251.8896542000183 L443.26226787903727,254.44461546067117 L447.0102902697646,257.2660575534463 L451.63708914504673,258.77950594351444 L455.6495581630702,263.64227257853884 L457.3501533970709,266.5328776353763 L458.47201735825854,269.62690317474977 L459.39046083690835,276.46183138796135 L461.0564745888788,280.7468838525833 L463.16492789036556,283.5357786681528 L466.1572431884698,286.6298042075262 L468.4355525928744,290.67685470758113 L470.51044151474105,294.1116095552023 L471.32615764971115,298.5665181227421 L472.8223152987638,303.2929930344673 L473.5709026744977,305.6394483005207 L476.5296535929839,311.0799291059477 L478.90967323865596,313.90340540354805 L480.9164162988733,317.67787245700464 L482.58243005084466,322.9149327798954 L484.0785876998973,326.5876895920839 L484.48644576738127,328.6279970319206 L484.41829990573194,330.9744522979739 L484.01044183824695,334.1030593193787 L482.2081363629777,341.99170563212687 L480.9835450581114,348.4187757778537 L480.64383285227575,349.57522122107116 L479.2493854444906,352.53397213955793 L477.27722386630353,355.59443329931315 L474.89720422063147,357.907324185748 L468.9115565220078,362.83823668242206 L466.83768470255336,364.2998128494436 L462.5872137199617,366.00040808344505 L456.32999967715375,367.53013011211624 L452.01036573050044,369.0944336228185 L447.1140347158565,371.3056142679854 L440.517108467213,374.6376417719261 L437.03658401102075,376.99019965245566 L431.3011435059158,380.14728554141516 L428.5468301723778,383.44574866573737 L420.31745455138184,392.01483649256886 L417.73299732076157,393.95343369113743 L415.1139586081091,394.63387520522065 L409.0947465298683,395.5177372018397 L405.5247170613602,395.48315571980856 L399.84521718895417,394.59929372318953 L393.1119992170097,393.3411380387039 L387.90952037615034,393.0695716945181 L383.2166098440433,393.17128193578645 L380.7338628546905,394.76914982610697 L378.59184517358676,396.50330943972693 L375.9056777016981,398.0676129504293 L375.29338204926387,398.6799086028627 L372.0966291662095,402.86325082621687 L369.1948359828334,407.26120165864626 L367.8339529546663,409.5283229365106 L367.69867833377975,411.16077230886265 L368.0607667926952,412.38434651131683 L366.02045935285776,412.9061200490219 L361.411968321003,413.60792071377136 L359.4896447610379,412.99765926616317 L357.23167740488736,411.68559715380553 L355.88910222014874,410.4030310114158 L352.4401079387509,407.90095907622214 L342.8579861088891,404.7275995486596 L339.9897573051311,403.93425966676915 L334.7710048256688,403.47656358106286 L332.0248283114322,403.11040671249793 L330.5296877647919,403.53758972582375 L327.7041772623666,405.1273207968432 L327.2505495863099,404.56893157228166 L323.6988279612303,401.97532041994697 L317.73148810603607,400.55544545184534 L316.98595203754104,398.6015917170863 L315.9200287090532,394.4813098433185 L314.32216081873213,392.7054490307787 L310.8406192601266,391.603927117846 L310.02388602274516,390.0772563964128 L308.9233812122249,389.82806630530615 L298.94255523659297,389.4019003943931 L296.31436260222665,389.2249245745868 L294.1469173608052,388.26579699942926 L290.4883999823947,388.30139558387316 L289.06852501429296,387.94540973943504 L281.8582860108018,385.60200578061955 L282.97201315268705,383.3887909306273 L285.50866656991195,375.97106303495 L286.60917138043214,373.48323053353397 L286.895994260808,372.1426895536213 L288.283321951703,369.7982684923934 L290.96338680911583,368.6021560550812 L293.547844039737,366.5445578742289 L293.9780783602997,365.63526831729297 L292.54294685600837,364.39033496417227 L292.59075066940466,362.284932969924 L294.025882173697,359.17463379194777 L297.8542556550253,354.91602599005535 L301.2035738999814,350.99204488193465 L302.208471083709,350.1305591383945 L314.50727345783946,342.09138166856957 L316.66047926548265,339.31570918436506 L320.4410489334157,335.1527090092646 L320.6800680003962,334.3390270791205 L320.6322641870009,331.27653171454006 L321.41034753269963,323.8465985899106 L321.94839470900763,319.9348227107422 L323.3479276288563,316.38208398324997 L323.5279547559002,314.1922624887492 L323.0967033329252,312.2546823925934 L321.94839470900763,309.3111880102967 L313.62239435880775,298.22172040484327 L306.8749369530861,291.4742629991224 L302.245086770566,287.275664239578 L301.7060224918457,286.019542759918 L301.0744018935707,282.7709176538171 L301.3480024425816,282.7058230994056 z"/>	
</g></g></svg>