<svg xmlns="http://www.w3.org/2000/svg" version="1.2" baseProfile="tiny" width="600" height="600" stroke-linecap="round" stroke-linejoin="round"><rect id="backgroundrect" width="100%" height="100%" x="0" y="0" fill="none" stroke="none" class="" style=""/>































































































































































































































































































































































































































































































































































































































<g class="currentLayer" style=""><title>Layer 1</title><g class="city city-30" id="hakkari" title="Hakkari">
	<path id="hakkari-semdinli" title="Şemdinli" class="district" d="M493.355406490067,411.32753962069495 L489.9847829500012,408.75879897843606 L485.61661399461946,404.81227926442017 L483.9256182051256,402.2859971451738 L481.9532634523383,400.07603102237124 L480.6847797760728,399.2863024943376 L478.85263083664427,396.60292383994505 L476.0352518573985,395.18162478209985 L471.66708290201575,393.76032572425527 L469.13106288606343,393.76032572425527 L466.0304302703704,392.1819301312637 L461.66320865156547,390.1301220066825 L456.3088623197906,389.3403934786493 L452.08184651434453,389.49855147687083 L450.1085444249794,389.9719640084607 L446.72750018256863,389.9719640084607 L443.6268675668746,389.49855147687083 L442.9229964903518,389.02407748220594 L440.6683354376931,388.3925069523942 L438.4136743850344,388.23541041724786 L435.0316828060478,388.7088229488376 L432.7779690899649,388.7088229488376 L429.6773364742719,388.3925069523942 L426.1551390819255,388.3925069523942 L424.18278432913814,387.6038398874364 L420.65963960021486,386.97226935762444 L418.54613169749086,386.02438283136973 L416.85513590799803,385.5509702997798 L410.79691849969936,385.5509702997798 L403.8927295283653,384.91939976996815 L400.2293789860832,385.07755776819 L394.7338795043726,385.07755776819 L392.47921845171487,384.6041452366002 L390.5068636989265,383.8144167085667 L387.12487211993897,383.8144167085667 L385.99754159361015,383.9725747067885 L384.3188611796138,385.0053782790686 L383.2928956669969,385.98723162373375 L381.9903078739694,385.9426501745704 L380.09658205705176,384.50224478136994 L379.48365529189607,382.58630393042887 L379.66554391463126,381.2605365493622 L380.52667286289443,380.32963343231205 L381.2968574997895,380.213933957103 L382.09830424371796,377.7598313269781 L381.0060251707289,375.76215781923804 L381.7762098076239,374.99365855271094 L381.9524144108993,373.525655119552 L381.16423037904605,369.6375158746785 L381.4493786886468,367.5443106901599 L381.87946949448946,366.5242446747834 L380.93308025432,363.8536035772945 L379.33208143961656,362.94286825867573 L377.7727654342904,361.67866573597723 L375.9046177049454,361.08000056150036 L374.5215063028937,361.44726678555867 L374.278988139247,360.39323395177246 L373.07871269650735,359.8200438911031 L372.8295631768231,358.3339955856642 L372.08874597380697,357.33515883179416 L372.66567394904615,356.78425949570607 L372.2166364116674,355.757824701878 L371.11867331921746,355.1389917289699 L370.639321011383,352.4683506314811 L369.1529499224677,351.70728160648133 L367.3359583682661,349.83379927855276 L365.5720176623625,347.26612009936923 L364.9856163213563,346.9243289891182 L362.69779848851147,347.42003224528986 L360.68470826292355,347.54634635125205 L360.5558704884853,345.53062797123175 L361.03143345001354,343.33021501610654 L361.65667559066674,342.4672455358766 L363.84407574637635,340.6224227109815 L367.1427017066093,337.0007106980114 L369.6796690591393,332.8663120196651 L373.1080801303873,329.1395151622389 L377.62213891858767,323.73879103504316 L378.6746298553531,321.87592333786813 L380.167632300307,318.4144922492704 L381.4920088345999,316.70341377186514 L383.1214277466055,315.56234096590276 L384.9876808027979,314.801271940903 L388.99301984928496,314.26947894017087 L394.89871606872737,310.88447319299604 L401.3822875999857,306.4730326519925 L408.8491944979069,301.07230852479734 L413.77155535068556,299.05659014477646 L416.0451631348783,298.5619483516804 L421.20435813184474,296.1280135199865 L425.8889375038598,294.45408625021685 L430.7089860063497,292.32479132113775 L434.3742312217844,290.004433038502 L438.2782052545595,286.049421619884 L439.8053118162764,285.09835070440283 L444.82903768276697,283.4636975684199 L449.7504511989688,282.43620131151636 L454.7741770654593,281.7897702986503 L457.08188896641605,280.8769120538807 L460.20525765995137,278.55761523432034 L464.48153496738917,274.79154424310786 L465.6022341376804,273.042253094991 L468.9624369754025,266.50151762490884 L470.18450115940664,265.2075941361016 L472.83135955483885,263.5729410001186 L478.7380031108571,261.93722640106034 L481.52127797334106,261.3290080589056 L485.3902005527764,261.6325864984453 L488.44536101278686,262.85008464582995 L491.1263235249811,264.4093739034656 L494.75841196022964,266.2733030637164 L500.80052464672474,267.10973596706367 L507.20167789580523,268.9163461212472 L506.93358164458596,271.94363881204146 L506.2979188015879,272.5943156772088 L504.4913479497311,273.6058899879828 L504.381456906828,274.2767346515808 L505.9748770289182,275.77339758777293 L507.1732577985032,277.5810692050319 L508.97888131378306,278.0757109981281 L512.176142260305,278.0343139381909 L514.2214419295021,278.8611936738604 L517.3268112280803,278.82934978160074 L518.9666508424297,278.2306846071238 L522.3571684506076,280.4300360991736 L523.2050346867965,280.4300360991736 L525.3242266089802,282.1124550735456 L525.9788361835122,282.92872017846184 L526.5775529000169,284.6111391528339 L525.7022139031027,285.7267368449883 L525.9229433254837,286.95484962312617 L527.1393234900282,288.12139754289615 L528.8720020888984,290.6922611113056 L531.6732763463395,292.1793708798199 L532.4841964560351,293.43826608714227 L533.8843599164684,293.95519860481943 L534.7691722791506,295.10051726308296 L534.1325620995767,295.6482322099444 L533.2856431999636,297.74356032061377 L534.1979283233712,301.356780628981 L537.7078103402202,301.88326631433665 L539.3201771938443,302.51377538107295 L541.1883249231893,301.9299706896504 L543.9356009957557,302.3460642151733 L545.2334521059001,302.84919771287196 L546.5398292452338,301.6412527331652 L547.5515847092006,302.0902516140229 L550.6039031594808,302.26114716914844 L552.2541634761739,303.5540091948804 L555.7649928295997,303.532779933374 L557.6340878955216,304.46262158734874 L558.6932101883245,305.3075461952984 L560.1909493161625,305.5750348902773 L559.9522204988211,306.65454283787125 L560.99239606009,310.36329482301676 L561.0776563519983,313.227122200213 L561.44995962666,315.27999178786945 L562.1746721078704,316.0920110404845 L562.4702411198161,317.2139775110906 L564.4160704484549,318.60343267667645 L564.3213367907805,320.58093838598546 L566.8583041433086,321.5543000260481 L568.0131074303638,323.3704633479098 L570.7120693375163,324.3438249879722 L571.3799416241235,325.1027710868214 L575.4648569430581,324.4860610400642 L579.2068364212089,324.2419245327422 L580.217644548599,324.66332537364167 L583.3940640904322,327.3965927925741 L585.7377747813044,329.2063873359838 L586.9712070042302,329.88466224110914 L589.5394364637908,331.7475299382845 L591.7097845611191,333.7059293122382 L593.9796029990056,336.37550894665173 L595.6696514519226,339.74353128462167 L597.0480261710903,341.6371814109814 L597.232756803556,343.8174265676754 L598.079675703168,346.8160597554363 L597.6637949459764,347.82126528775797 L596.2835255536551,348.9623380937203 L593.1971029866131,353.51495322374024 L592.5453354218106,355.0721195552254 L591.5686314111833,355.8162051710203 L590.0509982152355,356.37453474863514 L585.8789279312401,357.4933168300157 L582.0791609219073,359.44747035166796 L581.7722238710411,361.4260375240523 L580.553949033344,361.988612953969 L578.1192940311038,364.4469614363949 L577.7289913614838,366.4467578702857 L575.172129940843,368.56119231631044 L574.9864519718014,369.873160677398 L574.4189973623282,370.9144559542805 L576.0105228112637,373.32397713524256 L575.6183254684912,374.5701347856607 L575.5624326104628,377.72586450856795 L576.0370482354133,378.3616808906808 L575.3862280071884,380.1629837294881 L576.4084041734982,381.6522164241531 L576.5296632553219,382.77736728398537 L577.9051959647592,384.85995783775076 L578.1837129183225,387.82887005940273 L577.6730985034565,389.63017289820993 L577.9326687254845,391.0886231636907 L579.6994514411176,392.6298675490462 L579.9684950289147,393.43233363398326 L581.9020089820551,394.3897733279159 L583.6962644584154,395.65079146138845 L584.5602354164081,397.6399732645264 L584.699493893189,399.8785988903625 L585.3408407556478,401.2850374651533 L584.2068788732813,402.7530408983119 L585.1921089130988,406.38855193126074 L584.978958183331,407.6071115417208 L583.9653080462105,407.336438457516 L582.0223207273021,405.9087706212192 L581.762750505274,404.815463653646 L580.3218515720413,404.20087653303955 L579.4474599117029,403.0874017670356 L579.9590216631476,402.46220001567593 L579.7951324353687,400.8063176181866 L579.0827353296556,399.04110452393996 L577.7384647272509,397.97327267017465 L576.4339822610708,397.57946986923326 L574.146164428226,398.11975457456816 L573.4858708342331,399.60580288000676 L571.0872146219093,398.8298733719529 L570.0565124264084,399.09205475155517 L567.795220017712,398.800152405844 L564.9228955170146,397.7355049413044 L563.3171600194282,396.2770546758239 L562.0439396602795,396.26750150814627 L558.5672144236178,394.3982650325184 L557.7553469773443,394.2082631420375 L555.4542664324263,395.46397396013344 L553.318022451861,395.0128521531251 L551.4754528100876,396.03397963157664 L550.6029558229029,394.8897224363887 L549.0597445393823,393.6456877121211 L547.9939908905408,393.60641357833435 L545.4134460554818,394.8005595380625 L544.8459914460107,396.0053201285432 L543.5614030479413,395.8662684656773 L542.7987971036587,395.2081613589829 L541.3398987754688,396.3800165941289 L540.5725561483041,395.20285404360624 L538.3813666462872,394.4545225755102 L536.3048048700576,391.8210326856573 L535.4180978342217,392.0662306560546 L533.9734095546818,391.0949919421427 L533.2430130540096,391.06845536526 L532.5050378607237,389.9539191361804 L531.6742236829174,389.7543640780214 L531.3862333635851,388.239656269549 L529.359880425923,388.08362119747795 L529.0718901065918,388.8054160886913 L528.0781340375843,389.01452431452805 L526.6182883728164,386.6824899380641 L526.1209366700238,388.0485929159928 L525.4615904126086,388.323511852499 L523.2732429203232,388.2693772356579 L520.7637483285195,389.089888192875 L520.90016479557,390.91985053471603 L520.0958760419121,391.8571224302178 L518.5431913926236,392.96635134392056 L517.7786907751885,392.67763338743526 L514.8665781382673,394.94916436860643 L513.8851374447571,394.85894000720475 L512.1316174411983,396.66130430908714 L512.4129764044918,398.17601211755976 L509.46107563134694,399.02305965165965 L507.0633667556001,398.7704314397352 L506.5641203796546,399.4646282909904 L504.86080921466237,400.1153051561575 L503.79695023897546,399.52831607550917 L502.70277649283264,399.69921163063464 L502.23668689707245,400.6725732706973 L499.9195016303488,402.0524752686047 L500.06444412659164,402.88996963502734 L498.97879640963913,403.67439084768426 L497.8202037762777,403.971600508772 L497.1921196258943,405.0266948056336 L496.06668377271797,406.03614619025683 L496.8065536391583,407.27062774684634 L495.6801704494053,408.3618117882688 L495.7284846148202,410.21831070699255 L493.73339378419064,411.5164800481011 L493.355406490067,411.32753962069495 z"/>
	<path id="hakkari-merkez" title="Merkez" class="district" d="M12.3717850708056,294.01357907396175 L11.484130698393955,290.35577731643116 L10.951727542260542,289.08308308912996 L9.390516863782793,286.73724969268693 L7.865304975218578,283.8755452416416 L7.510053758938369,282.92128993693484 L3.4298751228878217,274.6110955203045 L1.9037158977487962,269.80054486298354 L2.1168666275165435,267.69354065848586 L3.2877746363763265,261.68990550451224 L3.6420785160797493,258.07137788076807 L4.24553191546741,253.42004668474397 L4.280583368808124,248.64877016120946 L4.174481672212153,245.3486814600594 L3.4999780295682683,238.86738792219467 L3.0035736633523555,230.95524215880724 L3.5359768194837784,227.85470851581616 L4.210480462127691,226.50240455786684 L5.416439924327207,225.389991254938 L10.880677299005301,222.72571893590109 L13.364593803237398,221.89034749562921 L24.5071666189381,218.39176519939554 L27.48748748938509,217.39823576090208 L35.01028724533461,215.41011542083987 L38.807212244937006,213.66082427272303 L43.30516631133278,210.27157267324665 L47.19019361257388,207.58713255577845 L51.8207747997141,204.21804875473316 L55.706749437532,201.26611994228605 L62.83924652386159,192.55893833548882 L65.52684039209339,189.39790129720495 L67.44330228685232,187.42994875557346 L69.3588168450365,185.04377976226863 L70.5571976146216,181.73413789344073 L71.86073274422586,179.31824793402706 L74.73495191807686,175.65089300881874 L74.97462807199409,174.96518786216598 L74.70842649392839,170.2236323047403 L74.84105361467184,166.31744818758634 L75.48050580397603,158.8330720435501 L75.63965834887097,153.49497423779817 L75.61313292472047,147.35228742095808 L75.39145616576252,145.07438766133532 L79.16659242410043,145.68366746656537 L84.76440425609877,146.40121650547735 L89.05110226588042,147.0465860552679 L92.18678633491419,147.29709134104215 L98.58509757426523,147.0816143367532 L101.1760631116681,146.72390128037267 L103.12757645976777,146.18573950118866 L107.28638403168901,144.28572059637736 L110.10092100120443,141.59809608968345 L115.18811841833681,138.04856356583463 L117.58677463066061,137.08157070422408 L123.025433917767,133.38980212828338 L129.45595460072744,129.58976431866063 L131.8233487060187,128.94439476887004 L134.12632392409037,129.05160253947662 L139.5962453182293,131.23821647462273 L143.27570058231606,132.42174780359716 L147.75470791717677,133.53309964345067 L152.45728668415006,133.38980212828338 L154.85594289647386,133.53309964345067 L159.68641210130858,134.50009250506147 L163.56480804651204,135.34926296531216 L168.5837972301176,135.74625015547963 L177.91411517450172,134.84506800453835 L182.48311948415375,134.3037218361282 L197.82997202745923,131.99716257347185 L202.30140066970552,131.20318819313712 L206.61272943048306,130.73508297692405 L211.11731485291648,130.59072399868137 L217.5525722187599,131.74453436154727 L220.6730989025658,132.03325231803257 L225.1776843249982,131.96107282891117 L231.19421892391955,131.63626512786533 L234.9579871433378,131.5279958941834 L239.4947820093795,130.77117272148473 L241.6187106144464,130.22982655307487 L246.89442801035267,129.22037516845165 L251.04565688965846,127.81499805673627 L253.94071746819816,126.51682871562775 L256.06464607326603,125.76000554292915 L259.08854442624295,124.28244894209266 L262.8854694258463,122.083097450043 L265.13728846877467,120.9653768317377 L268.2578151525795,120.24464340359974 L273.02007612388735,119.59502800150793 L276.011765033255,118.55054833539938 L278.55346906866913,117.46891746165491 L283.38014892719565,115.63046341521164 L285.438711308467,115.05302750224122 L287.91599645666156,114.9086685239983 L291.00526103343384,115.48610443696901 L298.50153536523493,118.08138165611064 L301.46196216757005,118.58663807996008 L305.4303550875648,118.84457360726114 L310.1604066152624,119.42307098330718 L310.0476735626298,120.94414757023145 L310.26366630212794,124.06803340087953 L311.0404822950606,126.61766770778263 L310.84154161394395,128.56757537713355 L310.0789356696623,130.48245476499943 L308.41541264089483,133.26879533769747 L308.15489508228893,134.6295910002494 L308.2581547691545,137.91163482911907 L307.9161662649485,140.92725142608495 L307.9720591229769,142.58101089742354 L309.38832730521375,147.75245900035142 L309.6232667762469,149.1323609982593 L309.2575948576229,150.5855039483635 L308.3225736563731,151.7424987004552 L304.1950281914854,156.13164851687682 L303.01559415343536,156.90863948800654 L299.28971939708924,157.6325573053703 L297.0407423638913,157.66440119762993 L294.3436751298915,159.46994988873823 L292.4584753421641,160.03040239250373 L289.91392929702056,159.9497311987799 L287.6327428202144,159.2353665490939 L285.2047191740106,158.22803809062142 L283.8727639471033,158.05395814626996 L281.9203032624278,158.96893931719012 L280.7209751562659,160.13124138465847 L278.8272493393482,162.651154725453 L276.21828440698613,164.11385084323518 L274.60118087047795,164.39301563204248 L269.67503067139313,164.9057022974191 L262.7746310463663,165.41732749972041 L260.9642708482024,165.2740299845529 L253.99661032622652,164.22848885536894 L251.7192131957255,164.6753648100759 L243.01413739199558,169.4965300981505 L241.16019971130066,168.73546107315062 L239.17742425616945,169.0836209618533 L236.37141331584422,171.9708005267065 L236.20373474176006,173.04075530662257 L238.53797206686528,179.95724870536594 L241.02567791740353,185.27305578653647 L244.0097881341568,190.7608198859075 L247.4921973902795,193.76157599981906 L249.48160420144927,195.09052777011152 L253.80524833772324,196.76339357680575 L258.09099901092713,199.1209030670774 L260.69238525067584,201.5219325434369 L268.115714666067,209.45318464217996 L270.8317286316019,213.82641251247193 L271.40581459711063,216.05548497063057 L271.9420070995493,219.7854662172823 L272.1333690880515,224.54400518391319 L271.78853857411616,226.25932951361995 L270.6024731800285,230.28970481058548 L267.61836296327533,236.89200513903612 L266.0107327925342,241.17925450022761 L263.9834325182963,244.77973725169156 L261.9551849074796,247.09478821895038 L260.00367155938085,247.99597036989164 L255.98601713739635,249.41090064928454 L252.2364589666301,250.18258430503747 L247.26199460213036,250.7398524195773 L243.62706415715132,251.6399731074432 L241.48418882054932,252.32567825409598 L237.42864093549366,256.01320097773515 L234.94188242153217,258.5851260092202 L233.25751798807494,260.5573244031526 L231.11558998804986,263.3871849619387 L229.89068379431632,267.03118769949026 L229.39333209152454,271.0180430103682 L229.6614283427429,272.94778288128816 L230.31130123439192,274.66204574791976 L230.96212146261672,275.1768553394468 L233.21962452500588,276.0769760273127 L235.55386185011105,277.3199492885047 L238.53797206686528,279.37812619153806 L242.16058713634584,283.950909119989 L242.87487891521346,286.0090860230219 L242.6200453760684,291.03935953693315 L241.90575359720174,296.3562280811789 L239.22479108500664,303.53914871182593 L238.66680984130244,309.79541207772434 L238.66680984130244,312.7770618562803 L239.294893991685,315.0082572405891 L234.8177813299789,315.35854005544286 L230.2743551078986,314.0943375327445 L226.98141316712457,313.0010305651712 L224.57233625245686,312.8641018284558 L220.63899478580186,313.2398597571169 L216.0036769157786,313.2398597571169 L209.93598614171282,312.215547889439 L206.1854806343698,311.83978996077815 L202.40371301999528,311.0192790035607 L198.3481651349406,309.4132853706112 L193.5309586421801,308.45690713975375 L190.4208526607191,307.70539128243183 L187.6461038274264,305.7576065392311 L185.54206929047044,304.59636593483833 L182.88857953900256,303.81088325910605 L180.5410795018221,303.60495942249537 L178.55925138326674,303.91278371433623 L175.26536210591686,305.07508578180455 L172.88754729828173,305.1769862370348 L168.2825441987122,305.96246891276667 L165.78252297267744,305.34788179216025 L163.73911797663285,304.45943719812294 L162.09264700624684,304.4254703797128 L159.0744326727297,305.38184861057005 L157.18354886554144,305.7576065392311 L152.5179162250625,305.5187773472857 L148.09669642138175,305.10905260021457 L145.19974116968945,304.0157456326416 L142.36436279548434,303.5709926040853 L139.00984397722408,303.26422977531945 L137.54620896614807,302.92243866506874 L133.24624824429318,301.4183454873495 L130.6240205998568,301.4873405872448 L128.12399937382003,303.707921340801 L126.75130867411318,304.22060800617726 L122.26945932952302,304.6982663900683 L120.44015239982298,305.21095305544475 L119.03714692966037,306.33822684142785 L116.71996166293667,307.7393581008417 L112.29779452268113,309.0725557234356 L107.45027325946594,309.7211096624522 L101.80888394493567,311.15620774027616 L96.59474342651964,311.4979988505271 L91.68469794923743,312.38644344456475 L88.17860527869664,313.34282167542193 L84.3977850008979,313.17192612029675 L80.95137453469272,312.5573389996903 L77.62811782346196,311.63492758724254 L75.15841136788191,310.02893395429305 L73.23721279023894,307.8423200191473 L70.64529991625827,305.9974971942521 L69.48670728289594,305.65570608400117 L65.21706133149672,306.09939764948217 L61.954434161179364,307.05577588033964 L61.10088390553065,307.02180906192984 L58.6008626794939,304.9721238634992 L56.923129602074354,302.9903723018889 L53.78270885015762,297.3869087273083 L52.53222456885135,296.6353928699864 L51.00796001686594,295.2002947921625 L49.97157380190319,295.02939923703696 L48.93424025036464,295.5420859024132 L47.13524809112229,295.4741522655933 L46.06854710570484,295.1323611553423 L43.07970020606763,290.9979624769958 L41.12818685796793,289.49493076235194 L38.20091683581994,288.70944808661966 L35.8534167986395,288.2986618764734 L32.407006332433326,288.09379950293777 L27.802950569441577,289.11917283369087 L23.44236030667426,289.4269971255318 L19.631225258418823,290.34940853797946 L16.521119276958785,291.783445152728 L14.477714280914213,292.33009863651455 L12.3717850708056,294.01357907396175 z"/>
	<path id="hakkari-cukurca" title="Çukurca" class="district" d="M228.90924310080612,373.19235571390374 L226.1790190866202,373.07134892331777 L225.6039857845346,373.4598444088826 L221.94631926171428,372.7635246314769 L220.84930350584017,373.48001220731356 L219.07210008786228,372.7932455975858 L217.0590098622754,372.9843089511423 L216.33524471763974,374.67734255626726 L215.19370414265984,374.8705288359746 L214.25015691221876,375.9203158174598 L213.40797469549074,376.14003867404926 L212.40853460702226,378.344697481476 L213.1796665804951,379.3583947184001 L212.1177022779607,381.2891960523957 L212.039073342091,382.42602300605677 L210.18987234428107,385.26437526944505 L208.30940923943666,385.68789903649525 L207.45206963748177,383.28050078168405 L205.59528994705636,382.52261614591015 L205.39066524647887,381.764731510136 L204.06155202930194,380.2213641986301 L202.51170938974383,378.89984266986505 L201.8741518735933,377.9827385727939 L201.8106803229515,376.1050103925641 L201.41753564360113,375.99037238043013 L200.85102837070576,373.4598444088826 L198.986669987668,371.8644654066863 L197.8536554418783,371.626697677816 L195.4227897859442,371.6967542407867 L192.62151552850304,370.7531135668329 L190.45779878721243,370.81467842520107 L189.02637321974674,371.2031739107664 L186.8541304492659,371.1766373338834 L185.3829167455775,370.6034472732141 L183.65213281986095,370.4091995304314 L182.19702383797616,369.72137145762844 L180.30803470394252,369.571705164009 L178.1443179626519,368.7787922467497 L176.98856733901997,368.69918251610125 L176.2013306437435,368.1440373277122 L174.94232033324496,368.3552684796998 L174.82485059772938,370.2775781090923 L173.36879427926877,370.43573610731414 L172.82597042079254,370.95585301421795 L171.48075248181192,369.65131489465745 L169.47429361226068,368.9199668357667 L167.94813438712063,368.95499511725177 L165.06065250119536,368.16102073691707 L164.48656653568761,368.57605279936485 L162.48010766613635,368.41683333806765 L161.4494054706354,368.9104136680888 L159.11232613579983,368.82231223283765 L158.79023169970574,370.22450495532684 L155.99653613487797,369.0250516802226 L155.20172074698607,368.3818050565825 L152.10203546786983,368.0644275970637 L151.37069163062174,370.10880548011755 L150.08041921309174,370.44422781191685 L149.00235018875364,371.439880176561 L147.75186590744636,371.8103307898456 L145.98887253811952,371.8198839575233 L143.8962060400852,372.5331871441339 L141.12714122625334,372.4981588626485 L138.49922956235713,373.1774952308493 L137.53105158092123,372.27737454298307 L135.1001859249871,373.5829741256192 L134.67483180202746,375.407629152083 L133.68391774275025,375.71545344392393 L132.23638745348092,374.56058161798285 L129.82825787538908,374.73678448848494 L127.03550964713813,374.1200744417277 L125.3284091358397,374.2792939030246 L124.66716820527003,372.56821542561914 L123.82498598854096,369.1301365246785 L122.08662337020999,367.1207869231099 L120.79635095268,366.3713939919385 L118.73494656167912,366.8384377450766 L115.95735571865603,368.89236879580824 L115.2099071596023,369.0685716663106 L112.41715893135134,367.0146406155787 L111.0008907491135,366.4149139780267 L109.66325150274733,362.86219706495154 L109.09674422985296,362.43018159329915 L108.34171697818479,360.64055484832056 L103.51882646596448,357.8722591479027 L102.97600260748825,358.10153517217026 L101.79562123286141,359.74149562353 L100.43429857207616,360.6225099760403 L96.2328608542008,361.00145229392695 L95.17847524428277,361.51307749622833 L92.29951938754772,362.09475926150014 L91.50470399965582,361.53112236850865 L89.54561195894271,361.6096706360817 L88.56227659227895,362.7825873343031 L86.21761856482993,363.17002135679274 L84.52567543875935,364.51914092551624 L83.29034854268093,366.1410565045956 L82.94457069216776,365.34814358733615 L81.44114754486998,364.97769297405193 L80.3251850574618,364.1699195737382 L77.78442835862552,364.67729892373814 L76.16732482211839,364.2590824720645 L75.34124732719494,362.6870556575251 L74.05286958281854,361.98012124936594 L70.45583260090862,360.7955284573164 L67.56835071498335,360.0089843185086 L68.42095363405627,355.7886071310622 L65.43589608072526,354.92245326160605 L63.79226712006866,353.9172477292843 L61.705284641495126,352.0957770920461 L57.752049106728194,351.65739284194143 L52.90168583378261,350.2743064548082 L50.378928529904584,349.0790990320047 L46.726946026544084,348.053725701252 L43.60926135246862,346.45091645752836 L42.96980916316444,344.9478847428845 L41.41522984072232,342.37065239602293 L39.69107727104243,342.99691561045796 L36.33371644304975,341.6934389539729 L35.0633380936316,340.1904072393288 L33.60633443859521,339.3635275036596 L33.89906144081043,336.7459595599362 L31.065577739757927,336.15897047928786 L27.405069207207205,335.93924762269785 L26.27773868087837,334.36722080815844 L26.24173989096184,333.4416250064852 L27.023292566778508,331.5002090417364 L26.33931555836658,331.3802637142262 L23.950132711810795,329.5089043124484 L23.398782824144305,327.51866104623537 L22.59070472417814,326.7915588396454 L21.32032637476,327.1800543252102 L18.557892916964747,326.97094609937335 L17.20699095852332,327.2002221236412 L16.291863825385406,326.86161540261605 L14.708864405641194,327.4019001079507 L15.520731851912572,323.9818660792904 L16.771216133219852,320.65205641203147 L16.132711280492458,313.37572703075693 L15.848510307468487,307.3731533398584 L15.60030812436004,304.82776488525633 L13.61374332292165,297.7117164283541 L12.3717850708056,294.01357907396175 L14.477714280914213,292.33009863651455 L16.521119276958785,291.783445152728 L19.631225258418823,290.34940853797946 L23.44236030667426,289.4269971255318 L27.802950569441577,289.11917283369087 L32.407006332433326,288.09379950293777 L35.8534167986395,288.2986618764734 L38.20091683581994,288.70944808661966 L41.12818685796793,289.49493076235194 L43.07970020606763,290.9979624769958 L46.06854710570484,295.1323611553423 L47.13524809112229,295.4741522655933 L48.93424025036464,295.5420859024132 L49.97157380190319,295.02939923703696 L51.00796001686594,295.2002947921625 L52.53222456885135,296.6353928699864 L53.78270885015762,297.3869087273083 L56.923129602074354,302.9903723018889 L58.6008626794939,304.9721238634992 L61.10088390553065,307.02180906192984 L61.954434161179364,307.05577588033964 L65.21706133149672,306.09939764948217 L69.48670728289594,305.65570608400117 L70.64529991625827,305.9974971942521 L73.23721279023894,307.8423200191473 L75.15841136788191,310.02893395429305 L77.62811782346196,311.63492758724254 L80.95137453469272,312.5573389996903 L84.3977850008979,313.17192612029675 L88.17860527869664,313.34282167542193 L91.68469794923743,312.38644344456475 L96.59474342651964,311.4979988505271 L101.80888394493567,311.15620774027616 L107.45027325946594,309.7211096624522 L112.29779452268113,309.0725557234356 L116.71996166293667,307.7393581008417 L119.03714692966037,306.33822684142785 L120.44015239982298,305.21095305544475 L122.26945932952302,304.6982663900683 L126.75130867411318,304.22060800617726 L128.12399937382003,303.707921340801 L130.6240205998568,301.4873405872448 L133.24624824429318,301.4183454873495 L137.54620896614807,302.92243866506874 L139.00984397722408,303.26422977531945 L142.36436279548434,303.5709926040853 L145.19974116968945,304.0157456326416 L148.09669642138175,305.10905260021457 L152.5179162250625,305.5187773472857 L157.18354886554144,305.7576065392311 L159.0744326727297,305.38184861057005 L162.09264700624684,304.4254703797128 L163.73911797663285,304.45943719812294 L165.78252297267744,305.34788179216025 L168.2825441987122,305.96246891276667 L172.88754729828173,305.1769862370348 L175.26536210591686,305.07508578180455 L178.55925138326674,303.91278371433623 L180.5410795018221,303.60495942249537 L182.88857953900256,303.81088325910605 L185.54206929047044,304.59636593483833 L187.6461038274264,305.7576065392311 L190.4208526607191,307.70539128243183 L193.5309586421801,308.45690713975375 L198.3481651349406,309.4132853706112 L202.40371301999528,311.0192790035607 L206.1854806343698,311.83978996077815 L209.93598614171282,312.215547889439 L216.0036769157786,313.2398597571169 L220.63899478580186,313.2398597571169 L224.57233625245686,312.8641018284558 L226.98141316712457,313.0010305651712 L230.2743551078986,314.0943375327445 L234.8177813299789,315.35854005544286 L239.294893991685,315.0082572405891 L240.37485768917776,317.7447090487477 L242.34531776881147,321.0203840991654 L244.28262106826008,323.81733930261686 L245.99066891613535,335.51996970794903 L245.49805389622668,337.8021153198732 L242.80477600853402,343.8004431584702 L241.03136193686333,346.56024715428566 L238.3380840491708,349.4675945175695 L234.2323273255485,355.20904829194086 L231.67072922202357,358.5951155021911 L229.86415837016676,362.9736506878597 L229.96268137414836,365.25579629978404 L230.5386620128117,368.2576138767708 L230.49697920343436,370.86138280051483 L228.90924310080612,373.19235571390374 z"/>
	<path id="hakkari-yuksekova" title="Yüksekova" class="district" d="M451.22261223923397,130.62150642786534 L452.7544554838338,131.33480961447626 L452.89466129719267,131.9313518628023 L454.23987923617426,132.80599743686085 L455.9782418545053,132.6446550494132 L457.5233478111803,133.28896313612853 L460.6618738899434,133.48639526813676 L460.96596893107926,134.3005374469025 L462.108456842637,133.61907815255108 L463.79092660294054,131.05989067796986 L464.8974157245807,130.48563915422517 L466.70777592274476,130.55144986489472 L468.0359418033439,131.20849550851386 L469.5488383164096,131.24140086384858 L471.50698302054593,129.72032427692437 L474.5365653929837,128.90405917200798 L479.2448281794178,128.5983578063178 L480.4725763828818,127.34370845129706 L480.72835725860375,126.48710774951891 L481.8329517070913,125.99671180872406 L484.45233734179624,125.52329927713421 L487.4042381149411,126.45207946803362 L489.62574238741377,126.2291722222179 L491.68241009553265,126.74928912912162 L496.46835448125955,126.56247162786633 L498.3213448253766,127.20890264073222 L497.121069382638,131.13419309324186 L498.5790203742522,132.15744349784416 L499.18626311994603,131.45369347891136 L500.63758275552357,131.9037538228442 L502.10974379578875,132.84951742294862 L504.323669375647,133.368572866777 L506.09424143758815,133.29957776688173 L507.896075606562,134.70707780474754 L508.4512148405347,137.68235880485165 L509.3473952421375,139.7585805801648 L510.3042051846528,140.3593686807924 L510.3667293987179,141.54714586206816 L512.7653856110417,143.02364099982955 L512.8781186636753,144.63812633738144 L514.5975345504701,144.98416329993367 L516.4401041922445,146.3799872439709 L516.5537845814539,147.93715357545597 L518.4266689936838,148.65257968821732 L520.231345172387,150.38594889020465 L520.0162997694646,151.58858655453477 L520.5221775014476,153.1691050736767 L520.5193354917182,154.331407141145 L520.9863724240552,155.27504781509896 L521.8238179578992,158.62396381771327 L523.510077064509,160.35202570432384 L522.9502011476513,161.58756872398882 L522.1127556138072,162.33696165516034 L520.8831127371886,164.24016494919738 L518.141520684082,167.03605868957368 L516.6598862780497,167.76422235923857 L515.2682488468079,167.85232379448976 L513.9666083903572,170.24273864009592 L511.6825799038195,171.98459954668544 L508.28732561275785,173.53539709971852 L508.0078613226177,175.1169770819357 L507.36935646988945,175.5489925535885 L505.7986724256426,175.74324029637077 L501.8984877391747,177.53286704134936 L501.9780640116212,179.97847796687194 L501.41913543134024,181.90291052241577 L499.6750887935485,185.5713269106993 L499.36909907925906,187.16776737597093 L499.4354126396323,188.67398347984113 L501.61902344903376,190.12075765149336 L502.8429823061915,189.71846314594984 L504.3075646538423,190.07617620233012 L505.37237096610613,191.5229503739826 L505.53247084757686,192.92408163339672 L507.11073358443707,195.1892438361159 L509.31802780825876,197.57010551404443 L509.31802780825876,198.70268661540376 L509.8911664371916,199.29498301142874 L511.39364224791245,199.16230012701456 L513.0344291988378,200.11337104249571 L514.9215236597188,201.69707395086363 L514.9385757181004,202.7564141000265 L516.5765206592962,204.64794130023535 L517.7076405319322,205.32940059458662 L517.6233275766016,206.6350001772222 L516.6475709025514,208.88211750766112 L516.9980854359486,210.79593543245147 L516.6106247760591,211.79901803862305 L514.8883668795316,213.028192279836 L511.89951997989544,213.74680278182348 L511.49311258847104,214.98340726456382 L512.8942233854788,216.9768349200026 L514.2669140851858,216.91420859855907 L515.0048892784715,217.33773236560899 L516.4419988653971,218.9182508847514 L515.2805642223063,220.0126193153994 L515.888754304577,220.81826978956246 L517.2718657066287,221.3553701056709 L517.6858517906668,222.15995911675884 L516.8010394279854,223.68846594521057 L515.9901193182899,223.45175967941566 L514.9215236597188,224.34975744113078 L513.6861967636404,224.17355457062868 L512.5683396030777,225.63412776226025 L512.7530702355443,227.0246443909212 L513.4143111661139,227.304870642804 L514.2839661435672,228.52343025326405 L515.4605581718879,228.94801548338938 L516.3074770715,228.75801359290818 L517.4272289052153,229.60718405315887 L517.3448106230385,230.68987638997888 L515.984435298829,231.65686925158957 L516.1217991024574,232.632353817803 L514.8968929087229,233.55370376717502 L514.3966991962009,237.01088900347128 L512.6564419047163,240.26215040315682 L512.874329317368,242.97100417135698 L512.3021380250119,244.85828551926465 L511.3424860727682,245.06633228202608 L509.8276948865488,246.1490246188458 L507.9585998206261,246.50143035985 L506.991369175768,246.18511436340663 L507.1524163938145,247.56713928746484 L508.0391234296503,250.35666424938913 L508.8850949926856,250.3205745048283 L510.56093339695155,250.9436533300375 L511.0687058020882,252.49020503076923 L512.4527645407156,253.15892676821716 L513.1717930024662,255.60029184143815 L514.0281852678463,257.5523224369398 L513.0514812572192,259.37910038955437 L512.9775890042336,260.09134211308987 L510.72008594184445,262.1251053653907 L506.7857971386137,262.3628730942611 L507.0624194190232,263.6536121938425 L506.4447559709845,264.7989308521058 L506.76779774365536,266.2138611314987 L507.5872438825422,267.9790742257453 L507.20167789580523,268.9163461212472 L500.80052464672474,267.10973596706367 L494.75841196022964,266.2733030637164 L491.1263235249811,264.4093739034656 L488.44536101278686,262.85008464582995 L485.3902005527764,261.6325864984453 L481.52127797334106,261.3290080589056 L478.7380031108571,261.93722640106034 L472.83135955483885,263.5729410001186 L470.18450115940664,265.2075941361016 L468.9624369754025,266.50151762490884 L465.6022341376804,273.042253094991 L464.48153496738917,274.79154424310786 L460.20525765995137,278.55761523432034 L457.08188896641605,280.8769120538807 L454.7741770654593,281.7897702986503 L449.7504511989688,282.43620131151636 L444.82903768276697,283.4636975684199 L439.8053118162764,285.09835070440283 L438.2782052545595,286.049421619884 L434.3742312217844,290.004433038502 L430.7089860063497,292.32479132113775 L425.8889375038598,294.45408625021685 L421.20435813184474,296.1280135199865 L416.0451631348783,298.5619483516804 L413.77155535068556,299.05659014477646 L408.8491944979069,301.07230852479734 L401.3822875999857,306.4730326519925 L394.89871606872737,310.88447319299604 L388.99301984928496,314.26947894017087 L384.9876808027979,314.801271940903 L383.1214277466055,315.56234096590276 L381.4920088345999,316.70341377186514 L380.167632300307,318.4144922492704 L378.6746298553531,321.87592333786813 L377.62213891858767,323.73879103504316 L373.1080801303873,329.1395151622389 L369.6796690591393,332.8663120196651 L367.1427017066093,337.0007106980114 L363.84407574637635,340.6224227109815 L361.65667559066674,342.4672455358766 L361.03143345001354,343.33021501610654 L360.5558704884853,345.53062797123175 L360.68470826292355,347.54634635125205 L358.8459279674575,347.90936672300916 L356.51547998865954,346.9795250690344 L356.31559197096504,346.0751585288676 L353.2879042716809,343.97133871359574 L351.7977438364584,343.99575236432804 L350.8238818355617,342.8599868737423 L349.4085609899016,342.27618218232 L348.7160579522994,341.43656488974693 L344.92955365503985,340.8442684937219 L343.0907733595748,340.39951546516556 L341.4509337452244,338.56636873409906 L339.8376195550235,337.5685934433044 L336.7161455346418,338.5048038757309 L335.7119687632904,338.60882725711156 L333.38341545764496,336.10377439937156 L332.74206859518716,334.66655339539693 L330.53098502505844,333.011732460983 L329.1725043740036,332.77608765826346 L326.2367083226634,330.9981370071131 L325.5110485048751,331.1775242668411 L324.7512845703239,330.3739967188285 L324.3723499396256,329.11722443765746 L322.4899921616286,329.8443266442474 L321.45265861009,329.86343297960303 L319.3855701996283,331.45138174027227 L317.6642596396779,331.3473583588912 L316.14567910715226,332.17954540993725 L314.66878138400295,332.5616721170501 L313.4542958926133,332.2952448851463 L311.05753435344207,332.413067286506 L309.76441992618265,331.7347923813809 L308.4874102207269,332.1434556653767 L307.9351129964846,332.98413442102486 L306.3720076448502,332.9321227303345 L304.7369047133849,332.44172678953976 L302.19993736085576,333.404473798849 L301.6106940101202,332.24854050983254 L299.6051824771457,330.0534348700842 L298.0269197402845,330.79539755972826 L295.318484467364,330.47271278483265 L294.4630395385617,329.63627988148596 L291.67313332004017,329.5365023524062 L291.48650801442193,328.32112713117226 L290.0986599294862,328.1470471868206 L288.73449525897155,329.00577081474967 L287.7435811996933,327.7076014736412 L287.18370528283566,329.17560490679955 L285.16303636463334,331.7178089721757 L284.3928517277383,331.57451145700827 L284.5330575410961,329.2095717252096 L283.6700339196804,328.26062373587945 L283.48814529694516,326.85418516108905 L282.31060593204774,327.0760309438292 L281.7156785618513,328.14280133451973 L280.9113898081923,328.45593294173693 L280.99665010009966,329.3624224080551 L277.0595192871374,332.2145736914227 L276.66732194436486,333.11575584236397 L274.090566455612,335.88086715355547 L273.97404405667226,337.2480315945595 L273.1650186201303,338.8296115767767 L272.2262080725733,339.9940365703959 L271.24760938879353,339.7488385999986 L269.68071469085396,341.05974549801067 L266.6786050791415,341.27203811307345 L264.3462624271899,341.250808851567 L263.3364016363777,341.70511504780114 L262.439273898198,342.7740083646421 L261.0040589844251,342.29741144382615 L260.07945848552015,342.64663279560455 L257.1900819264412,342.4035577513579 L256.98261521613335,343.9904450489514 L257.3321824129527,345.40749825449507 L257.22797538951136,347.12069965805136 L258.0493162015518,347.3956185945573 L258.5002484120831,349.0185956367119 L257.9811079680259,350.24352402562386 L258.3628846084547,352.0204132136986 L256.66904680923045,351.92806592614676 L256.0125425615448,352.66365983733886 L253.36189481980534,353.1529943150585 L252.92422532134827,353.5510429683011 L253.57978223245811,354.8534581617108 L254.42006977603256,357.98689716003656 L253.3183173372754,358.84562078796506 L252.65518173355213,361.47486482551676 L251.19817807851473,362.12660315375956 L249.84822345665015,362.1860450859772 L247.60398310633627,363.2570613289683 L249.42381667026729,363.90455380490977 L251.0172367923563,364.76752328513976 L247.77639836330349,366.3597178981102 L246.07024518858282,366.8501138389052 L245.52647399352975,368.7554400590928 L244.6558716794986,369.5218163994695 L244.19830811292962,371.7455815422512 L243.36180991566135,372.9142523881714 L242.3386864127749,373.30805518911274 L237.2135955325723,374.0776159187151 L236.0502662163259,373.8865525651587 L233.60329583858817,375.16136971861033 L231.20369228968855,374.92360198974 L230.42308695044863,373.7241487146356 L228.90924310080612,373.19235571390374 L230.49697920343436,370.86138280051483 L230.5386620128117,368.2576138767708 L229.96268137414836,365.25579629978404 L229.86415837016676,362.9736506878597 L231.67072922202357,358.5951155021911 L234.2323273255485,355.20904829194086 L238.3380840491708,349.4675945175695 L241.03136193686333,346.56024715428566 L242.80477600853402,343.8004431584702 L245.49805389622668,337.8021153198732 L245.99066891613535,335.51996970794903 L244.28262106826008,323.81733930261686 L242.34531776881147,321.0203840991654 L240.37485768917776,317.7447090487477 L239.294893991685,315.0082572405891 L238.66680984130244,312.7770618562803 L238.66680984130244,309.79541207772434 L239.22479108500664,303.53914871182593 L241.90575359720174,296.3562280811789 L242.6200453760684,291.03935953693315 L242.87487891521346,286.0090860230219 L242.16058713634584,283.950909119989 L238.53797206686528,279.37812619153806 L235.55386185011105,277.3199492885047 L233.21962452500588,276.0769760273127 L230.96212146261672,275.1768553394468 L230.31130123439192,274.66204574791976 L229.6614283427429,272.94778288128816 L229.39333209152454,271.0180430103682 L229.89068379431632,267.03118769949026 L231.11558998804986,263.3871849619387 L233.25751798807494,260.5573244031526 L234.94188242153217,258.5851260092202 L237.42864093549366,256.01320097773515 L241.48418882054932,252.32567825409598 L243.62706415715132,251.6399731074432 L247.26199460213036,250.7398524195773 L252.2364589666301,250.18258430503747 L255.98601713739635,249.41090064928454 L260.00367155938085,247.99597036989164 L261.9551849074796,247.09478821895038 L263.9834325182963,244.77973725169156 L266.0107327925342,241.17925450022761 L267.61836296327533,236.89200513903612 L270.6024731800285,230.28970481058548 L271.78853857411616,226.25932951361995 L272.1333690880515,224.54400518391319 L271.9420070995493,219.7854662172823 L271.40581459711063,216.05548497063057 L270.8317286316019,213.82641251247193 L268.115714666067,209.45318464217996 L260.69238525067584,201.5219325434369 L258.09099901092713,199.1209030670774 L253.80524833772324,196.76339357680575 L249.48160420144927,195.09052777011152 L247.4921973902795,193.76157599981906 L244.0097881341568,190.7608198859075 L241.02567791740353,185.27305578653647 L238.53797206686528,179.95724870536594 L236.20373474176006,173.04075530662257 L236.37141331584422,171.9708005267065 L239.17742425616945,169.0836209618533 L241.16019971130066,168.73546107315062 L243.01413739199558,169.4965300981505 L251.7192131957255,164.6753648100759 L253.99661032622652,164.22848885536894 L260.9642708482024,165.2740299845529 L262.7746310463663,165.41732749972041 L269.67503067139313,164.9057022974191 L274.60118087047795,164.39301563204248 L276.21828440698613,164.11385084323518 L278.8272493393482,162.651154725453 L280.7209751562659,160.13124138465847 L281.9203032624278,158.96893931719012 L283.8727639471033,158.05395814626996 L285.2047191740106,158.22803809062142 L287.6327428202144,159.2353665490939 L289.91392929702056,159.9497311987799 L292.4584753421641,160.03040239250373 L294.3436751298915,159.46994988873823 L297.0407423638913,157.66440119762993 L299.28971939708924,157.6325573053703 L303.01559415343536,156.90863948800654 L304.1950281914854,156.13164851687682 L308.3225736563731,151.7424987004552 L309.2575948576229,150.5855039483635 L309.6232667762469,149.1323609982593 L309.38832730521375,147.75245900035142 L307.9720591229769,142.58101089742354 L307.9161662649485,140.92725142608495 L308.2581547691545,137.91163482911907 L310.2608242923985,137.03168193968418 L311.8495077316035,135.70166870631624 L313.07062457903095,135.0552376934504 L314.254795299965,134.97987381510313 L318.1199285330942,135.52652729888962 L319.9047106436855,135.97021886437074 L322.4227312646795,137.09536972420298 L324.1951979997744,136.93296587368008 L325.42389353981514,137.8458241184499 L327.0267870276703,140.91026801688005 L328.50273741424274,142.6521289234698 L331.1145443563352,145.02980621217216 L333.3189965704264,146.2876399564189 L335.11419938336155,147.0423402029668 L338.8486001688999,147.65905024972403 L341.929338716482,147.88832627399148 L345.8266813932196,147.95625991081175 L354.7420659169879,147.8681584755607 L358.1884763831941,147.74609022189958 L365.0083523991986,145.42891632849003 L368.45381552882793,144.4937673591388 L371.6463397924658,143.19347509187966 L376.6890123904915,138.51879170819848 L379.88153665413046,134.98305820432915 L383.90771710530515,132.78795256458045 L385.7938642296094,132.13727569941338 L390.1468757997623,129.29255465757288 L393.95611617486315,127.70779028612958 L396.82180931952394,126.89470957043963 L408.6843579335531,125.47128758644385 L412.565595888486,124.78027512441474 L414.9074119062056,125.28659301133916 L428.0479175622664,130.52915914031334 L434.2008686282394,131.4271569020285 L437.5335987052372,131.49933639114988 L441.5076756446908,131.06838238257248 L446.63560853462366,132.28906491918312 L447.91735492296345,132.03749817033392 L450.1852786876965,130.88581073361837 L451.22261223923397,130.62150642786534 z"/>
	<path id="hakkari-derecik" title="Derecik" class="district" d="M493.355406490067,411.32753962069495 L492.39859654755276,412.1098379072011 L492.566275121638,412.78280549694995 L491.88135077664924,414.52148201431356 L493.14130842372356,415.8217742815728 L493.06267948785285,417.0382109658822 L491.40768248827465,417.57000396661425 L490.63844518795634,418.4754319698568 L487.73864792653274,418.317273971635 L487.20056075094146,417.48402545751384 L485.48114486414454,416.9235729537485 L485.10884158948284,418.0731374643127 L483.7882544014982,417.91604092916623 L482.41461636521353,418.2599549655683 L482.3634601900701,420.5028264437057 L480.4773130657659,421.39445542696916 L478.43769741602944,421.8540689385799 L478.02750067829766,422.4431809453788 L479.296931691139,424.47057541922777 L478.776843910505,425.56494384987633 L479.25335420860904,426.7707659034324 L478.1042349410137,426.7410449373236 L477.13226761327064,427.2187033212149 L476.55439230145555,428.52961021922704 L475.13717678264095,429.643084985231 L473.8109055751954,429.8882829556283 L472.47326632882823,431.07712159997953 L471.68887164328214,431.26712349046073 L469.951456361528,432.7138976621132 L468.4679272823412,433.17563409987446 L466.52304529027913,432.6109357438079 L465.69317844904845,433.0068614708997 L465.0006754114463,434.59162584234303 L464.06281220046606,435.2295651506064 L463.94060578206654,436.4523706133677 L461.24922256752643,436.7623178313593 L458.9670887541424,439.35653358742564 L456.56748520524184,439.18245364307427 L456.0199246638816,439.86815878972675 L453.2290711087852,440.4169351996642 L452.445623759814,439.8501139174465 L450.96777870008896,441.5505777640988 L449.4008840021494,442.79461248836657 L448.208187252025,442.84025540060486 L446.22162245058576,442.30209362142074 L443.61076284507,443.5397595672364 L442.70226706796865,444.71373772853343 L440.9676937959449,445.11709369715237 L440.3623457234037,447.1338735402481 L439.29848674771665,447.2527574046832 L438.6846126459841,448.4723784782187 L435.77913136510057,448.88528761451596 L433.504576244331,448.7292525424446 L433.4145792695397,447.0425877157713 L432.4321912394528,447.1243203725708 L431.93389220008424,449.17825142330224 L430.1415313968775,449.4266337829257 L429.91985463791855,447.9044957329262 L428.95451866621306,447.36314956451594 L427.129948419398,445.5936906179683 L424.46224861927806,446.0331363311484 L422.7845155418586,447.2527574046832 L421.4014041398078,447.0330345480938 L419.2651601592425,448.85768957455764 L417.48132538522805,449.02221635123135 L416.0982139831773,449.50836643972485 L415.5999149438078,451.4253687537411 L413.06294759127866,452.3414113877368 L412.8829536416961,453.79986165321765 L413.87292036439743,455.0555724713136 L415.3536074338529,456.2964228063551 L416.29431265456253,457.9830876330287 L418.03646461920175,457.91833838543437 L418.7725451393338,459.494611052275 L420.3100724033945,460.8734515871076 L417.8602600159263,461.13987881901113 L417.6963707881493,461.9964795207891 L415.70980598670997,462.83928120258804 L413.8852357398949,463.23839131890605 L413.263782945549,464.5811421091778 L412.32781440772237,464.856061045684 L411.65236342850267,466.26249962047484 L410.94280833251804,466.46736199401005 L409.7254808313979,468.17207169296364 L408.5204687057761,468.91509584568337 L407.2690370878931,470.7938854889883 L406.26201830681026,471.8288119874189 L405.1621605412067,476.6552845908699 L402.3930957273738,477.17964735007473 L399.5056138414485,478.20608214390285 L398.1765006242726,480.66973794170593 L398.21628876049635,481.8851131629401 L399.349303306286,485.6936426771649 L399.4421422908067,487.21153487486345 L398.08271430317507,487.70193081565816 L396.845492733942,487.53528111283424 L394.8409285375454,485.68939682486393 L389.7546784569898,482.49439296816973 L388.8641820748467,481.6738820109526 L388.0523146285744,479.08497357026295 L388.31093751402665,476.5565685248658 L387.5350688576698,475.48661374494964 L385.0767304410114,473.83816158898776 L381.81410327069403,473.294692494427 L379.1606135192252,473.6184387323978 L373.86594939178383,472.33619133741877 L372.88071935196746,471.4880823402435 L372.13990214895136,469.57214148930206 L371.50234463280077,468.8397319673358 L371.0447810662318,466.71255996440743 L368.4452894996367,466.7475882458929 L367.7992059542949,465.7498129550979 L367.0432313660509,463.6842058105378 L365.6951714173399,463.0048694423373 L366.1915757835558,461.55703380760934 L365.07277128641715,459.2356140618985 L363.316409273128,457.44280292769383 L363.0644177437133,456.63927537968186 L364.6322597782287,456.5511739444304 L366.8225019436688,455.2445128987194 L367.2165939595959,454.5121033767531 L367.16922713075877,452.15565534955687 L366.75903039302693,450.8755308807289 L365.69611875391666,449.021154888156 L365.33328884502305,447.83868502225647 L363.6943965672495,446.276211375395 L362.435386256752,446.30805526765437 L360.93575245576244,445.2465921923407 L361.11764107849666,443.98238966964226 L359.5630617560555,441.85203327748803 L355.901605886926,439.61446911472694 L353.9756706264,438.09339252780256 L352.9733885282012,438.29719343826275 L351.18292239814906,436.36957649349335 L351.4898594490143,435.2465485598113 L351.1270295401217,434.1596103706903 L351.640485964717,431.7713184512348 L351.37996840611316,430.84359972341076 L348.06523772407365,429.15481197058676 L347.54514994343964,425.4492443746673 L348.3494386970976,423.9823024045837 L350.6855706953574,422.4516726499813 L351.9161609085518,421.01975896138345 L353.21874870157825,420.2682431040616 L354.70227778076514,418.7386748125345 L355.25457500500943,417.54452885280665 L355.32562524826466,416.14764344569403 L355.85423905808887,414.9280223721586 L355.9328679939595,413.0885068626404 L359.35843705547705,411.7181580324102 L360.47913622576925,408.7821511660932 L362.0251895190212,405.36105567435726 L362.1199231766965,404.21998286839545 L362.80674219483785,403.26466610061306 L362.63337960129184,402.2743210513455 L363.91133664332443,401.24894772059247 L368.0625655226312,400.8063176181866 L369.21452679995593,401.47928520793545 L372.5917816960605,402.6108048462199 L373.30986282123433,402.28281275594793 L376.83016554042615,401.86778069350015 L380.53898823839285,400.5674884262409 L383.316579081415,399.01138355783166 L384.2317062145529,399.1355747376431 L385.1705167621089,397.561424996953 L385.30503855600796,394.8111741688156 L386.00701495937716,393.07886642990377 L385.0757831044346,392.0004199453852 L385.3997722136823,390.8147656902599 L386.42573772630016,389.5686080398417 L386.0468030956009,387.6494827996748 L384.91094654008083,386.57952801975875 L384.3188611796138,385.0053782790686 L385.99754159361015,383.9725747067885 L387.12487211993897,383.8144167085667 L390.5068636989265,383.8144167085667 L392.47921845171487,384.6041452366002 L394.7338795043726,385.07755776819 L400.2293789860832,385.07755776819 L403.8927295283653,384.91939976996815 L410.79691849969936,385.5509702997798 L416.85513590799803,385.5509702997798 L418.54613169749086,386.02438283136973 L420.65963960021486,386.97226935762444 L424.18278432913814,387.6038398874364 L426.1551390819255,388.3925069523942 L429.6773364742719,388.3925069523942 L432.7779690899649,388.7088229488376 L435.0316828060478,388.7088229488376 L438.4136743850344,388.23541041724786 L440.6683354376931,388.3925069523942 L442.9229964903518,389.02407748220594 L443.6268675668746,389.49855147687083 L446.72750018256863,389.9719640084607 L450.1085444249794,389.9719640084607 L452.08184651434453,389.49855147687083 L456.3088623197906,389.3403934786493 L461.66320865156547,390.1301220066825 L466.0304302703704,392.1819301312637 L469.13106288606343,393.76032572425527 L471.66708290201575,393.76032572425527 L476.0352518573985,395.18162478209985 L478.85263083664427,396.60292383994505 L480.6847797760728,399.2863024943376 L481.9532634523383,400.07603102237124 L483.9256182051256,402.2859971451738 L485.61661399461946,404.81227926442017 L489.9847829500012,408.75879897843606 L493.355406490067,411.32753962069495 z"/>
	
</g></g></svg>