<svg xmlns="http://www.w3.org/2000/svg" version="1.2" baseProfile="tiny" width="600" height="600" stroke-linecap="round" stroke-linejoin="round"><rect id="backgroundrect" width="100%" height="100%" x="0" y="0" fill="none" stroke="none" class="" style=""/>































































































































































































































































































































































































































































































































































































































<g class="currentLayer" style=""><title>Layer 1</title><g class="city city-32" id="isparta" title="Isparta">
	<path id="isparta-sarkikaragac" title="Şarkikarağaç" class="district" d="M545.7193548134823,326.17621903415187 L536.1503285263542,332.36760177673733 L531.8920873051951,335.70133170022484 L524.5429181669919,339.61706588382884 L517.3320609412948,343.0341093005846 L511.5219796805401,344.85629441763524 L509.82201837294565,345.0907623915471 L501.7489187990792,345.325230365459 L499.6232314629222,345.6073060498096 L496.9962860608798,345.65372356748776 L493.4423565643896,346.16907703298926 L486.29624108497103,346.54398775269595 L477.4109268759693,346.87248095472484 L475.74922205481204,347.0593412181978 L474.0492607472174,347.85677036805004 L471.8862978601725,349.2623880187601 L468.0979247673077,351.0524379312648 L462.52621084512595,346.19645146649157 L460.6241768142971,342.1724097416394 L457.4400600200354,336.1893107322241 L456.2462614560759,333.5339906824918 L453.4604044949839,326.7725056073996 L453.1072676970996,326.31666177994674 L451.4916668467768,323.7137102116974 L449.78974366808154,319.71704292034724 L448.9716434196484,318.7779808319389 L444.8360191421982,312.6342057997923 L444.23961032799264,309.54803597058736 L443.0458117640319,305.73822894271035 L442.2718536153348,304.6384908315706 L439.75084925265713,302.19740547881327 L436.345041024169,295.83820555693035 L434.4439879288885,293.31737728918813 L432.8960716314942,290.7953588286844 L431.65813096779755,284.6242093630356 L431.06074121804255,277.11171265576917 L431.0823218001354,271.26310542834403 L429.3136950040619,266.64872809404864 L427.43422249087524,264.10052539280383 L426.4611344255928,261.6046911730419 L425.90886771112423,258.97555536405076 L425.4880463603103,249.3445155422509 L425.2231937618971,247.86867651864353 L421.17683461946734,241.2690576590437 L420.22532713627777,238.88034078776963 L418.23598984152716,234.85629906291726 L416.9529261425461,229.330234073716 L416.84306136098115,225.7608459835555 L417.2629017762447,224.7682252209036 L418.899102273111,223.40069373854465 L423.1004492323901,221.84392160719108 L427.23509257429095,215.59302922655664 L430.6183392851368,211.16670234849497 L434.068289613361,204.62064216313942 L435.0403967430941,203.65420564122877 L438.2843506058857,201.90700266811928 L439.12795517860997,202.06053753428475 L447.3560425693256,202.24025664119168 L449.6553554977759,201.9331869088607 L453.1994756387699,200.78108031623822 L455.9421714356741,199.3468980392644 L460.45741777085107,198.78393686332421 L462.7989109279377,197.99007829175466 L464.44492078030015,196.76179936242963 L466.55393221211284,194.7396618615353 L468.15776183583887,193.5113829322102 L470.96323750792294,192.53780525373386 L477.5462959818255,189.51828621914325 L480.8795149796374,186.9319973495473 L483.3053685939959,184.29572038399016 L484.8876176356301,181.6082651297115 L485.83716324772007,181.09648224249264 L489.3812833887141,180.07172627529442 L493.93870995252746,180.6346874512351 L496.7657662067045,181.40355197482396 L501.1956711490592,183.2721546095529 L504.12866844260293,184.06482298836133 L508.49579350977774,183.52804605316229 L511.02758816350183,182.73418748159278 L514.5079474937667,182.4533019900028 L518.6013915425804,182.63183090414907 L521.7021288151185,182.0426854874671 L524.7822664411141,180.20026709347945 L528.0733052102895,176.02745127350556 L529.3181124228335,173.44235259667056 L531.7027667441058,170.06339534826589 L532.7994526886486,168.19479271353723 L534.4660621875545,164.71347888768872 L535.2468868850999,162.66515714605288 L536.0061310005524,157.59731636982642 L537.48341993837,149.50876636624875 L537.9581927444151,147.99484117429031 L544.1508388695445,149.32071591001508 L546.9308102173375,151.1333794849781 L549.5361750372871,153.19955411802852 L553.7747975474539,157.41402668463644 L556.7283944875402,161.16670445998685 L559.8203033401315,164.20169600046992 L562.7739002802188,165.88819914277 L569.2019709372709,169.13385480194526 L573.3709470234107,172.29619696785272 L576.5325023000291,173.43402124734348 L579.4860992401165,174.69919615225868 L584.0719729348698,177.1438520832988 L585.635584201059,178.32452330218473 L586.8519442826629,179.88367581906036 L589.179704342053,183.97317814576638 L593.2447012599268,189.95984773346467 L595.5381285750781,193.71133531605372 L597.0664261614802,197.42116615200894 L598.7693302757237,202.01650040212868 L599.2902070526044,204.4194995865351 L599.4638326448975,209.05649058328876 L598.7349975314847,211.62730694699195 L597.5882838739091,213.60897789401346 L595.7470678471606,215.8013129597272 L593.6272661243024,217.48781610202678 L592.0636548581123,219.13147230493175 L590.3960644236558,222.12480709878062 L588.5891811411464,224.99079126720562 L588.1026371085036,227.1414695862852 L586.3654002500211,231.23097191299087 L583.5510961579892,234.7717953768881 L583.0302193811094,236.58445895185105 L581.6402337072124,239.53494680630516 L581.2086220653531,239.80750094856813 L578.0961135662193,241.17979320197082 L575.3867695780028,244.50995254717537 L573.5798862954921,249.90628652543063 L571.2864589803407,255.09076619223237 L571.0775197082594,256.9462767065904 L571.4600845726341,260.4442532310924 L572.189900621596,263.7756027690581 L571.9122958610369,269.80392910339 L571.425751828395,273.68157711864285 L570.6959357794331,275.95841587038535 L569.3755965295642,278.4030718014255 L567.0821692144128,281.9022385186884 L564.8240555790497,285.0217337452009 L563.1966835021302,286.66658014086636 L559.58291693711,289.30761787746724 L554.2093519959622,292.6246851023013 L550.5033774892717,295.82749382208146 L543.693722903393,303.6411092978743 L542.6441218652362,307.25691490571296 L542.9737162099279,319.38140856175266 L545.7193548134823,326.17621903415187 z"/>
	<path id="isparta-aksu" title="Aksu" class="district" d="M400.42023838823957,401.79630629538156 L401.257957347666,393.64824665375517 L400.9862382004056,391.43448811834395 L399.3794657700295,388.4601964086705 L398.9429494504218,384.52779952641316 L399.02534803659495,380.6941886433166 L399.56976726666704,376.33213217434763 L399.651184917291,374.217159638097 L399.1067656872189,373.06029227443076 L397.4175946706697,371.5737415159746 L395.1025867734245,371.0774311346486 L390.2273370915151,370.3180881531472 L379.5783007641896,370.51566015146886 L371.1618737479361,369.85510316912826 L367.7570464549962,369.0291093930126 L359.44950328475744,366.58326326921167 L357.08054393228,366.3190404762755 L355.66407299854257,364.6991881285898 L354.7655360350359,362.51875499048583 L354.6831374488626,358.68514410738965 L356.80784384946935,355.7763129995696 L358.1428971325839,354.62063582866415 L358.08796474180144,350.39069075616334 L360.13125349178523,345.8631974934191 L361.1661404966973,344.17788454388005 L364.5709677896361,340.04672547054037 L367.26657868015735,335.9488917945075 L368.49274811725724,334.59326223975836 L371.5699429366029,333.86724465556443 L376.3098235126562,333.4697202733991 L379.87748610684275,333.3376088769311 L381.1036555439427,332.743702689205 L383.88166502063615,332.5449404981225 L387.585677656227,334.5611270352121 L389.3827515832405,334.99078662192363 L392.81504507157103,335.22168401755255 L396.62794155317755,335.18835862024554 L401.69447366727377,336.11432858828306 L405.4259524982564,339.31951769358517 L407.2504926206617,340.013400073233 L414.9312179746552,340.7072824528807 L416.4291065590166,340.6739570555733 L425.8254881894007,337.83177674236794 L429.4215979145273,337.2378705546419 L437.26515856976863,335.4204462086352 L438.7905133495207,335.18835862024554 L443.91099691885006,333.93270525741804 L448.95006283755555,331.98316951494286 L453.1072676970996,326.31666177994674 L453.4604044949839,326.7725056073996 L456.2462614560759,333.5339906824918 L457.4400600200354,336.1893107322241 L460.6241768142971,342.1724097416394 L462.52621084512595,346.19645146649157 L468.0979247673077,351.0524379312648 L471.50373299579786,354.7825020441567 L476.61146440298126,361.05957866553223 L478.0926770829972,363.4209211033043 L480.2595637122403,367.31166123892734 L481.2326517775238,369.7253721581821 L481.78589942754166,373.4280618375717 L482.2057398428063,378.1507467131153 L481.34349749463706,382.2009726787093 L481.43178169410805,383.2209678748639 L482.33816614201237,386.6546739902733 L484.01850873861474,390.7060901486278 L485.85383915206535,397.9769777254168 L486.58365520102643,401.51780118931356 L488.4189856144781,403.8255849528419 L490.49758804425016,405.2478653022054 L491.91307804243826,408.3864036128932 L494.01326105430314,409.48614172403296 L495.6936036509055,410.69418737642155 L496.55584599907377,411.68680813907355 L496.90996373250834,412.92103803220334 L497.86049028014764,419.60039980678835 L499.3426838957139,422.1497927007942 L501.13387220942957,422.92817876647075 L504.84867513606787,423.68395116968924 L503.93444320376625,424.8610518102922 L502.8573759702166,428.31856178092113 L502.47481110584204,428.73989001830574 L501.91862064917404,432.5342245402901 L501.7106623126409,436.3273688695136 L501.7106623126409,440.080046644864 L501.9882670732013,444.38021309026215 L502.9613551384838,447.4152046307453 L504.28169438835266,450.66086028992095 L506.018931246836,456.057194268176 L507.30395681691675,457.86985784313885 L509.25405668967994,461.16788198379703 L509.8279039862423,462.87580859579464 L503.779455386917,465.3585506951859 L498.81788337663505,468.68632965486864 L497.52697219325654,470.3026114242708 L496.6431492629944,472.0474340118586 L494.1152783514696,474.1028969100601 L492.0170572107043,475.4085383688484 L488.7897792522581,476.32260640927626 L487.74115914964955,476.9426968377435 L485.9666467402782,478.736317328531 L484.75617227197324,479.3897331543056 L480.8834387218366,479.32427255245227 L476.2043761498637,478.9981597359455 L472.95061293157494,478.018631093664 L470.7719550757361,476.7463150321831 L469.48104389235766,474.8860437467808 L468.94349121113265,472.27595102196534 L469.158316096513,469.8610499099495 L468.2440841642102,465.58706770529295 L466.65693044482856,462.1605027464493 L464.66759315007795,459.7789270317409 L463.45711868177295,459.3218930115271 L462.03181932808764,458.24476856284554 L458.26698868841544,454.6563373885096 L455.65770012626757,453.6446735416821 L453.45255701058744,451.58921064348016 L451.8389180313633,450.6096820011991 L448.747009178772,449.76107456262463 L447.26775836985456,449.8919957663317 L445.734556105705,450.57754679665265 L443.50292773018333,450.77273840945236 L440.3560864868106,450.38116499109196 L436.6452073023705,448.1626456846369 L434.7892772423763,446.59635201119517 L429.9218750448644,441.73441458261766 L428.17384789533446,439.5480304807086 L425.9147533244211,437.3295111742535 L425.1074433670354,436.2202515210261 L422.76791208104834,431.9129439190618 L421.7192919784409,428.61730016392556 L420.9659334762863,424.27785735741526 L420.80506004613915,422.4830466738668 L420.1596044544499,419.9050891535975 L418.76079036060605,417.91508685724926 L416.44872527000973,415.14193772418025 L414.86157155062807,413.5423186534316 L410.63962494480546,409.72537046898884 L408.7572096249698,408.84343763310704 L404.91096133467465,406.3309407146917 L403.4856619809894,405.09195005051805 L400.42023838823957,401.79630629538156 z"/>
	<path id="isparta-atabey" title="Atabey" class="district" d="M170.88426256978113,261.91176090537306 L173.81431705667492,261.4285426444176 L179.02406576102518,260.0681523186244 L181.41166288894644,259.10171579671385 L184.9204693501513,256.9081905382394 L185.84451063795015,256.7439439372249 L192.30102842594343,256.5558934809909 L195.19478829749914,257.1271860062583 L199.46381980970625,257.3021443421216 L204.23901406554833,256.46900940944 L208.83273524469965,255.28357741950998 L214.18668147485278,254.09814542957997 L216.17699970515324,253.3518945684497 L220.15567429465497,251.33332764583818 L222.2901900507588,250.76203512057077 L225.72738821683737,249.09457506244632 L230.5741907678062,246.0655344857683 L234.95210612602742,243.12575836616284 L240.88480433049153,238.03411373471712 L243.38030436887715,235.400217154682 L248.2280878553958,233.16146457129048 L252.1714487651093,232.10814397782858 L256.3678910466404,231.44996738101025 L263.792592222168,228.97436643818486 L265.54160030724665,228.6077870678049 L264.916744362101,235.68348303179383 L264.2624603504649,238.86010751083305 L263.51891120380645,241.02625833580515 L261.82287363841004,243.58993354294276 L259.5912452628884,245.64777682666653 L258.2522682375756,247.41640326947328 L255.48504905192812,252.0736275431637 L254.027378825104,253.91485574439002 L252.18223905615577,255.39545553904156 L247.68955423862155,257.0914802234293 L245.69531226612185,259.7634629718152 L241.32132065009938,267.38069664204744 L241.76764632520332,273.48281492756 L242.24438100234792,275.54065821128364 L245.01160018799544,279.9086656440573 L247.45118690004927,282.90557101618924 L247.71898230511192,285.1431334068202 L249.38559180401836,287.3092842317922 L252.0037087861134,291.49757255765894 L254.62182576820953,295.2883365013605 L255.96080279352287,296.62373277917305 L256.3472914000968,299.0064986866426 L258.6985939126795,303.04958349567033 L258.78785904769984,304.8194001312386 L252.24207612468626,306.0821946506317 L245.9935166732252,308.2126396927747 L238.91116200453538,311.0286357652386 L232.48407228303253,312.79726220804577 L221.117972068891,319.6575332822986 L217.69646887160744,320.88462201886233 L216.6252872513573,320.88462201886233 L211.92366316174162,320.3073785297902 L209.245709111115,319.6575332822986 L206.50889892750766,317.96031840514985 L200.05140020396408,311.4261601474038 L198.4446277735886,310.63111138307323 L196.12471519859588,309.9455603527526 L189.48868620501105,310.234777193669 L186.46151909869835,306.7213281632745 L183.89342982963615,303.3411807221092 L181.9040925348856,299.302856684125 L179.551809086753,293.81606805603604 L178.75627035596253,291.66538973695646 L178.64836744549822,286.1357541694721 L179.551809086753,283.10671359279405 L179.87747968924657,281.2190678738895 L180.38462336843136,274.9431814452749 L180.02265815059923,273.7137123231887 L176.00670801020965,266.7344219728386 L174.59612268977003,264.9348505182465 L172.28111479252533,263.31142759227805 L170.88426256978113,261.91176090537306 z"/>
	<path id="isparta-egirdir" title="Eğirdir" class="district" d="M281.95069018229293,505.5346975346168 L280.6421221590198,503.93269807834605 L276.90966239248786,501.21310761952094 L276.5643730790011,500.4585254090635 L276.3103107716332,492.9115131117286 L276.04643910876933,492.5687375965683 L273.8844571572748,489.78011595760694 L269.8057271417057,484.88604332448267 L267.35633107415475,482.6675240180277 L266.6706571249287,481.30594349947336 L264.65973924808475,473.8172506474265 L268.41181772561043,473.24476792939794 L272.5896222316975,471.82962873660017 L277.1480297310602,469.492090154048 L278.6400327021236,469.0648109528584 L282.76388575297756,467.3199883652707 L286.0745432331474,464.45519438960685 L286.8337873485998,462.4140138045367 L288.32579031966276,460.27523741306686 L291.6903992550653,457.01529944075975 L292.2603228094295,454.7110862555145 L293.8337434311164,452.011729073626 L296.98156561003896,447.3045167039748 L297.849693571506,445.00030351872954 L298.0390141325942,443.55183892862436 L297.849693571506,440.78583095212144 L297.33372147237446,438.41615716502247 L296.98156561003896,432.45805220358784 L295.9506023473251,425.6763338515591 L293.9700934725212,419.98126149029963 L293.07449931566396,418.1376529035513 L291.20189335132494,415.0098263277123 L289.709890380262,409.1505073654384 L288.9506462648095,407.01054078120757 L286.7798358933672,402.3687890134099 L284.6364917173171,397.00340004694016 L282.60105045173077,393.64586626823325 L279.3492491045417,389.94198639608265 L278.55567224485077,388.3126125063096 L276.7850835776782,381.448770853774 L275.64523646895077,378.0162549311258 L274.03454029637555,373.9922132062734 L272.73185788640075,369.6801448332654 L272.2708181780511,365.7620302641395 L271.48410786720797,362.4044964854326 L270.50709605972673,360.03482269833364 L268.93367543803987,357.6318235139277 L267.46815772681833,354.5039969380886 L264.4027341340685,346.86652999091973 L262.23192376262665,342.455675618751 L261.44717532288314,339.8324907735651 L261.1577993357276,335.3668875343913 L261.505050520314,333.1876445890483 L262.026908232744,332.48424066731286 L264.19968047528494,330.7608415494228 L265.8810040074361,329.8467735089951 L266.95316656323604,328.58159860407994 L268.344133172683,326.1905013472837 L270.6915119430669,322.6389661485378 L270.8072623379292,318.10314153646664 L270.57478061265476,316.6273025128593 L269.9087253744219,315.43115878808044 L264.63423492379263,309.5599378981973 L259.5059038700663,305.09433465902345 L258.78785904769984,304.8194001312386 L258.6985939126795,303.04958349567033 L256.3472914000968,299.0064986866426 L255.96080279352287,296.62373277917305 L254.62182576820953,295.2883365013605 L252.0037087861134,291.49757255765894 L249.38559180401836,287.3092842317922 L247.71898230511192,285.1431334068202 L247.45118690004927,282.90557101618924 L245.01160018799544,279.9086656440573 L242.24438100234792,275.54065821128364 L241.76764632520332,273.48281492756 L241.32132065009938,267.38069664204744 L245.69531226612185,259.7634629718152 L247.68955423862155,257.0914802234293 L252.18223905615577,255.39545553904156 L254.027378825104,253.91485574439002 L255.48504905192812,252.0736275431637 L258.2522682375756,247.41640326947328 L259.5912452628884,245.64777682666653 L261.82287363841004,243.58993354294276 L263.51891120380645,241.02625833580515 L264.2624603504649,238.86010751083305 L264.916744362101,235.68348303179383 L265.54160030724665,228.6077870678049 L265.36307003720543,223.98626857694353 L265.54160030724665,223.26382157103245 L267.0296795361114,220.80964409790462 L268.07143308987173,216.98198417861312 L268.7551451679986,216.40474068954063 L274.6466440793762,213.04720691083378 L280.8363473978566,210.80964452020288 L285.8646230255161,209.14813542588377 L288.45331194112185,208.64349369523077 L290.8036335181548,207.92104668931972 L292.55950815208166,207.01888057650137 L297.05219296961536,205.32166569935296 L298.74823053501217,204.52780712778352 L299.4917796816702,203.6244508222045 L300.32557489889786,201.02506983223776 L300.0577794938352,197.1628943228779 L307.3559399834541,202.31880936341622 L314.6599860863714,209.79679048061442 L319.11049067526915,216.3047644976189 L322.4201672198892,225.16693979582976 L322.53395574365186,240.81321383159087 L323.2186487573286,256.4594878673522 L328.46861581921564,271.9676995428405 L337.25583647324856,280.9679372013239 L345.55847496573995,283.40545197579826 L346.4795734468888,284.062438379856 L350.48767610288144,283.9315171761488 L352.1121053731521,283.1757447729304 L354.25152580700336,281.7951211702007 L356.7705682985815,281.3357067644648 L360.507932742862,280.3490369656177 L366.08651321389203,279.659915357014 L374.56277729867554,280.2181157619105 L381.41461211319057,280.38236236292505 L387.48071755241165,280.15265516005684 L392.49133634017716,279.52780396054584 L397.9345477053511,278.47686375260594 L400.7782798638724,278.73989635278105 L404.8678001704889,279.659915357014 L409.2005924934247,280.31690176107134 L413.7236863129992,280.4156877602324 L418.1643815464004,280.15265516005684 L420.90021079445734,279.4956687559995 L426.04521775252954,276.8665329470084 L427.7245794135816,274.7301369410606 L431.0823218001354,271.26310542834403 L431.06074121804255,277.11171265576917 L431.65813096779755,284.6242093630356 L432.8960716314942,290.7953588286844 L434.4439879288885,293.31737728918813 L436.345041024169,295.83820555693035 L439.75084925265713,302.19740547881327 L442.2718536153348,304.6384908315706 L443.0458117640319,305.73822894271035 L444.23961032799264,309.54803597058736 L444.8360191421982,312.6342057997923 L448.9716434196484,318.7779808319389 L449.78974366808154,319.71704292034724 L451.4916668467768,323.7137102116974 L453.1072676970996,326.31666177994674 L448.95006283755555,331.98316951494286 L443.91099691885006,333.93270525741804 L438.7905133495207,335.18835862024554 L437.26515856976863,335.4204462086352 L429.4215979145273,337.2378705546419 L425.8254881894007,337.83177674236794 L416.4291065590166,340.6739570555733 L414.9312179746552,340.7072824528807 L407.2504926206617,340.013400073233 L405.4259524982564,339.31951769358517 L401.69447366727377,336.11432858828306 L396.62794155317755,335.18835862024554 L392.81504507157103,335.22168401755255 L389.3827515832405,334.99078662192363 L387.585677656227,334.5611270352121 L383.88166502063615,332.5449404981225 L381.1036555439427,332.743702689205 L379.87748610684275,333.3376088769311 L376.3098235126562,333.4697202733991 L371.5699429366029,333.86724465556443 L368.49274811725724,334.59326223975836 L367.26657868015735,335.9488917945075 L364.5709677896361,340.04672547054037 L361.1661404966973,344.17788454388005 L360.13125349178523,345.8631974934191 L358.08796474180144,350.39069075616334 L358.1428971325839,354.62063582866415 L356.80784384946935,355.7763129995696 L354.6831374488626,358.68514410738965 L354.7655360350359,362.51875499048583 L355.66407299854257,364.6991881285898 L357.08054393228,366.3190404762755 L359.44950328475744,366.58326326921167 L367.7570464549962,369.0291093930126 L371.1618737479361,369.85510316912826 L379.5783007641896,370.51566015146886 L390.2273370915151,370.3180881531472 L395.1025867734245,371.0774311346486 L397.4175946706697,371.5737415159746 L399.1067656872189,373.06029227443076 L399.651184917291,374.217159638097 L399.56976726666704,376.33213217434763 L399.02534803659495,380.6941886433166 L398.9429494504218,384.52779952641316 L399.3794657700295,388.4601964086705 L400.9862382004056,391.43448811834395 L401.257957347666,393.64824665375517 L400.42023838823957,401.79630629538156 L396.5210195782626,400.0336308163794 L394.3688469822642,399.44686578521913 L392.91706236873847,399.3814051833658 L388.2105336013727,399.83843920357964 L384.9028189278528,399.6099221934729 L379.9549800152674,400.39306903019366 L377.9107103297343,401.2083510714606 L376.21663463543655,402.4806671329415 L374.683432371287,404.1457468055436 L372.28994963006784,409.82296627538864 L371.02650464208,413.44472284703187 L370.2466608800851,417.7520304489959 L370.16524322946117,420.0026849599973 L368.79389533100897,425.4525776124961 L367.53045034302016,427.76869272535106 L367.74527522840054,429.98840222456727 L367.4764988877881,432.9900683677433 L365.432229202255,437.2319153678536 L363.49586242718715,440.0705251027762 L360.322535923973,441.57135817436415 L357.5798401270679,444.0838550927797 L356.2084922286147,444.9324625313541 L344.8060973991346,446.9879254295557 L340.5831698577637,448.3911626947437 L336.6574657879438,450.05505217458506 L332.86516895288133,452.11051507278677 L330.92880217781357,453.57921293982844 L328.6432223470587,455.70013643988364 L321.78550191924586,462.61753676666325 L321.19399778278927,466.14169753190646 L319.338067722795,473.5161318789003 L318.20901090511296,475.6691905835015 L315.25050928727813,478.6387215221312 L314.7129566060537,479.8134417772126 L313.0718514314388,482.2283428892283 L310.51749526007245,484.4147269911369 L308.9264177984915,484.98006855259973 L305.4843149546644,487.0688568481085 L302.57976479206224,487.37235600215695 L299.81843121971355,488.11265589948243 L298.88654244751723,488.72203459310094 L297.7388478543923,490.3752123380936 L297.30821714808235,491.5499325931748 L296.73436985151983,495.4216296446225 L295.51604789881685,498.33641171624726 L293.5080728286223,501.1643097163207 L291.42750852775066,502.7306033897624 L288.3797417748954,503.42686615493193 L282.49903315456436,505.1669279714758 L281.95069018229293,505.5346975346168 z"/>
	<path id="isparta-gelendost" title="Gelendost" class="district" d="M300.0577794938352,197.1628943228779 L299.96262874551644,196.03935235651855 L299.81941215526285,194.34689825041374 L300.0577794938352,192.68538915609432 L301.3074913841277,190.73585341361928 L304.49062724283937,188.38998348174024 L310.68033056131975,184.4540160211998 L313.4475497469668,183.08291396055785 L315.76451951531004,180.70014805308844 L317.23690377538037,178.91247852610604 L319.5577972859229,176.58446148564119 L322.25831285419173,175.52876050665756 L328.0154235952635,172.44140048469154 L331.0504381859732,169.7610863869787 L332.92500602141183,167.73061753675728 L336.4514693225113,165.04911324628333 L339.7758599003764,164.0743453750459 L343.3915883364968,161.5023388185815 L346.7836634672895,161.58327192632768 L349.1271184954758,159.71585948436012 L352.80856961342454,160.06815654160818 L355.6876154517351,159.66111061735515 L358.0977740972985,159.06601423686817 L360.3294024728202,157.84725684963112 L362.2706739256366,157.38665225113417 L367.4931747921334,155.32880896741054 L372.67055262334384,152.72942797744378 L375.30338363868515,152.40450535369803 L379.58811011968663,154.59803061217275 L383.0243273502154,155.49186537566396 L391.86157571728177,159.52661883536504 L397.9316048987022,162.15218406607312 L403.91236894510007,165.45615917053638 L406.5677614780835,166.70110079851494 L409.2015734289741,168.56970343324392 L412.10219984937856,169.59802997872524 L415.65122466812016,169.78846082048096 L419.2885336863339,171.76418080369734 L423.77435195501937,174.68848441740994 L427.1213040505288,176.61183591914346 L430.00034988883937,180.18598478034795 L430.8930012390472,181.99983854807195 L432.43208911649464,187.6318306929997 L432.9009763092428,188.68753167198338 L434.1065460997991,192.9389002141817 L437.4986212305918,199.87058285409313 L438.2843506058857,201.90700266811928 L435.0403967430941,203.65420564122877 L434.068289613361,204.62064216313942 L430.6183392851368,211.16670234849497 L427.23509257429095,215.59302922655664 L423.1004492323901,221.84392160719108 L418.899102273111,223.40069373854465 L417.2629017762447,224.7682252209036 L416.84306136098115,225.7608459835555 L416.9529261425461,229.330234073716 L418.23598984152716,234.85629906291726 L420.22532713627777,238.88034078776963 L421.17683461946734,241.2690576590437 L425.2231937618971,247.86867651864353 L425.4880463603103,249.3445155422509 L425.90886771112423,258.97555536405076 L426.4611344255928,261.6046911730419 L427.43422249087524,264.10052539280383 L429.3136950040619,266.64872809404864 L431.0823218001354,271.26310542834403 L427.7245794135816,274.7301369410606 L426.04521775252954,276.8665329470084 L420.90021079445734,279.4956687559995 L418.1643815464004,280.15265516005684 L413.7236863129992,280.4156877602324 L409.2005924934247,280.31690176107134 L404.8678001704889,279.659915357014 L400.7782798638724,278.73989635278105 L397.9345477053511,278.47686375260594 L392.49133634017716,279.52780396054584 L387.48071755241165,280.15265516005684 L381.41461211319057,280.38236236292505 L374.56277729867554,280.2181157619105 L366.08651321389203,279.659915357014 L360.507932742862,280.3490369656177 L356.7705682985815,281.3357067644648 L354.25152580700336,281.7951211702007 L352.1121053731521,283.1757447729304 L350.48767610288144,283.9315171761488 L346.4795734468888,284.062438379856 L345.55847496573995,283.40545197579826 L337.25583647324856,280.9679372013239 L328.46861581921564,271.9676995428405 L323.2186487573286,256.4594878673522 L322.53395574365186,240.81321383159087 L322.4201672198892,225.16693979582976 L319.11049067526915,216.3047644976189 L314.6599860863714,209.79679048061442 L307.3559399834541,202.31880936341622 L300.0577794938352,197.1628943228779 z"/>
	<path id="isparta-gonen" title="Gönen" class="district" d="M123.53842732892866,353.97079058117225 L122.68697527180638,352.94127384292995 L120.04335396541865,350.97507540180123 L116.37759781626491,347.9793602224303 L113.98411507504575,345.22644436629804 L112.41363726000836,344.5908814319382 L110.79705547413575,344.97769407925455 L111.63477443356268,338.9945950698395 L112.2625731853578,335.8084490487127 L112.92862842359064,333.526849525926 L115.20145609219838,327.3925960358671 L117.66948993519378,316.45829514080117 L118.4532574393875,312.0831465514614 L117.86567704512964,309.6587238973579 L115.90674875241868,306.1881218063581 L114.57365734040377,300.8631993937617 L114.14302663409381,299.76941224642655 L109.63660871886471,292.7806003539887 L108.18678597643714,290.2133545685683 L106.77620065599808,286.97960083700275 L102.4267324287169,275.66443825842504 L101.53015733630929,270.1371830764627 L100.35401561224275,267.96151070940266 L100.23728428183114,266.39283665043934 L100.64829627714684,264.64563367732956 L99.94300361692757,261.2940508624275 L98.82669896139156,260.0812444389952 L98.44413409701639,258.6196877285196 L98.53241829648695,256.4797211442888 L96.97469264359611,248.81249937809562 L97.59170110434431,247.13670797064478 L98.12042536562194,244.17669857410277 L98.20870956509302,242.3937898181641 L101.64394586007248,241.9403263762329 L104.50239205183948,241.15003838294643 L105.58730676978551,241.1940755151026 L107.79441175656538,242.5104287087396 L109.20499707700493,243.8279720951374 L113.1483579867185,246.63682701103568 L118.35712575551943,249.48971905908988 L120.23856013980523,250.05982139159627 L128.77564222867014,254.09814542957997 L133.04467374087727,255.06458195149105 L136.01102284310855,255.23954028735392 L141.25706616279734,254.66943795484755 L143.13751961153386,255.59064715184127 L148.63664430303965,256.9950746097903 L154.2073772896722,257.6972883387649 L156.74015287894565,258.39950206773926 L158.36752495586467,259.32190145749416 L159.99587796833353,260.6382546511311 L164.69848299349948,263.053155763147 L170.88426256978113,261.91176090537306 L172.28111479252533,263.31142759227805 L174.59612268977003,264.9348505182465 L176.00670801020965,266.7344219728386 L180.02265815059923,273.7137123231887 L180.38462336843136,274.9431814452749 L179.87747968924657,281.2190678738895 L179.551809086753,283.10671359279405 L178.64836744549822,286.1357541694721 L178.75627035596253,291.66538973695646 L179.551809086753,293.81606805603604 L181.9040925348856,299.302856684125 L183.89342982963615,303.3411807221092 L186.46151909869835,306.7213281632745 L189.48868620501105,310.234777193669 L185.91808080417607,311.2095450649068 L183.41865702359172,312.3640320430511 L181.09776351304865,314.31356778552623 L173.77802244133687,321.5344672663539 L171.5169659993248,323.628016332907 L168.98811415224964,325.5049503169627 L166.57795550668618,326.804640811946 L163.69204311952743,328.8267783128405 L160.2999679887342,330.0907630249947 L155.89556737067105,331.245250003139 L151.9983104317932,333.73632345185723 L150.24243579786634,335.46924411183517 L148.2491747609159,337.02244566490594 L144.82669062808304,339.18859648987825 L142.44694098455926,340.92151714985596 L138.10237743502663,343.195975516077 L134.29438563116915,344.8920002004644 L132.33055266071014,345.50613966512685 L131.49675744348198,346.1202791297895 L129.47406834004224,348.503045037259 L128.40288671979158,350.1990697216464 L127.83688690762608,352.76274492878406 L125.93289100569763,353.8101145584409 L123.53842732892866,353.97079058117225 z"/>
	<path id="isparta-merkez" title="Merkez" class="district" d="M264.65973924808475,473.8172506474265 L264.04469265843517,466.8201074056618 L262.98430132923147,464.46233554617254 L260.2170821435839,461.86533494172784 L259.52356070996035,460.9072297691439 L259.47451393247684,459.45876517903883 L260.3475465716919,455.27642781697716 L260.2161012080346,452.80439745243444 L259.40388657289935,451.2797605256271 L257.5646324172494,446.87604731002426 L257.27819923674286,444.8753332788271 L256.3325773668521,443.1221793419127 L255.6096278667377,442.7294157307916 L253.8645435238567,439.9158000438496 L252.29308477326953,436.7391755648106 L252.34311248630343,435.58944935771007 L253.0160342733834,434.862241580755 L252.89145545857428,433.74346038543956 L253.58988156994593,432.41163468590975 L252.96698749589933,431.26309867157016 L252.79238096805682,429.7503636723726 L249.8996020320509,430.29428176413745 L249.32575473548786,430.99054452930716 L247.05685080907836,431.9891162557642 L244.33867840091494,433.6530057356057 L243.41659898421568,434.5301778004435 L240.499296659468,433.8041602162492 L239.17699553849894,432.56397935931466 L237.35736009384277,431.56540763285767 L236.06056329716642,431.777261944311 L232.84407562976557,430.17288210251814 L230.37506085122087,429.780118491397 L228.38081887872164,430.35498159494705 L226.53567910977392,430.2645269451132 L224.54045620172437,429.59801899896814 L222.32452279499768,429.39449603684153 L218.15358483775825,429.780118491397 L214.69382515403706,429.0767145696615 L210.0186863242628,429.3266550494658 L209.27121343540608,429.0541009072028 L206.1851901961132,429.371882374383 L204.93253549917185,429.0088735822857 L203.69753764212513,427.4425799088444 L202.61262292417908,427.102184779206 L201.71506689622217,425.51446763606674 L200.5183255256126,424.13027345505435 L199.71395837487427,421.08933095076657 L198.7232134696977,418.82082354835023 L196.19828536482177,417.23191621245036 L194.68372087611561,417.0045893951042 L190.92477584974222,415.93817668127184 L189.016856205615,416.1202761737008 L186.9411965824919,417.0736205752411 L185.29518673012947,416.981975732646 L184.13572091040774,416.5285122907148 L181.05950702661147,415.93103552470615 L179.812737942968,415.295472590346 L178.79060310020193,414.14574638324547 L176.24703721988107,412.663956395833 L171.63467826528628,411.0905215658258 L170.33788146860937,410.5156584622753 L168.11802431968292,410.2371533562077 L165.2507497079691,409.69918622824724 L162.88179035549229,408.2459608670984 L160.76296956818348,407.9138970867869 L158.06932054876236,407.9436519058111 L155.65131441880087,407.70204277533327 L152.25923928800822,404.4944732845091 L150.21496960247455,403.8291555311246 L146.57471777761242,400.9548400133732 L144.30581385120288,399.7444139754627 L142.88443823971636,399.4123501951511 L139.54239082195656,397.3545069114274 L138.59480708096623,397.0224431311155 L137.4480934233906,395.57040796272776 L136.9998058771865,394.11718260157886 L135.1536851726889,390.9715031343251 L134.2316057559897,388.0067329667393 L133.6577584594272,383.37688312655155 L132.7602024314703,379.65634055574753 L132.2618871722323,376.6915703881619 L132.4610170888171,375.69299866170496 L132.43649370007586,370.97269417168275 L132.01272954261407,366.7070433163526 L130.1921131624076,362.6830015915002 L126.17714395756781,357.87224245164435 L124.33200418861949,354.8170176342247 L123.53842732892866,353.97079058117225 L125.93289100569763,353.8101145584409 L127.83688690762608,352.76274492878406 L128.40288671979158,350.1990697216464 L129.47406834004224,348.503045037259 L131.49675744348198,346.1202791297895 L132.33055266071014,345.50613966512685 L134.29438563116915,344.8920002004644 L138.10237743502663,343.195975516077 L142.44694098455926,340.92151714985596 L144.82669062808304,339.18859648987825 L148.2491747609159,337.02244566490594 L150.24243579786634,335.46924411183517 L151.9983104317932,333.73632345185723 L155.89556737067105,331.245250003139 L160.2999679887342,330.0907630249947 L163.69204311952743,328.8267783128405 L166.57795550668618,326.804640811946 L168.98811415224964,325.5049503169627 L171.5169659993248,323.628016332907 L173.77802244133687,321.5344672663539 L181.09776351304865,314.31356778552623 L183.41865702359172,312.3640320430511 L185.91808080417607,311.2095450649068 L189.48868620501105,310.234777193669 L196.12471519859588,309.9455603527526 L198.4446277735886,310.63111138307323 L200.05140020396408,311.4261601474038 L206.50889892750766,317.96031840514985 L209.245709111115,319.6575332822986 L211.92366316174162,320.3073785297902 L216.6252872513573,320.88462201886233 L217.69646887160744,320.88462201886233 L221.117972068891,319.6575332822986 L232.48407228303253,312.79726220804577 L238.91116200453538,311.0286357652386 L245.9935166732252,308.2126396927747 L252.24207612468626,306.0821946506317 L258.78785904769984,304.8194001312386 L259.5059038700663,305.09433465902345 L264.63423492379263,309.5599378981973 L269.9087253744219,315.43115878808044 L270.57478061265476,316.6273025128593 L270.8072623379292,318.10314153646664 L270.6915119430669,322.6389661485378 L268.344133172683,326.1905013472837 L266.95316656323604,328.58159860407994 L265.8810040074361,329.8467735089951 L264.19968047528494,330.7608415494228 L262.026908232744,332.48424066731286 L261.505050520314,333.1876445890483 L261.1577993357276,335.3668875343913 L261.44717532288314,339.8324907735651 L262.23192376262665,342.455675618751 L264.4027341340685,346.86652999091973 L267.46815772681833,354.5039969380886 L268.93367543803987,357.6318235139277 L270.50709605972673,360.03482269833364 L271.48410786720797,362.4044964854326 L272.2708181780511,365.7620302641395 L272.73185788640075,369.6801448332654 L274.03454029637555,373.9922132062734 L275.64523646895077,378.0162549311258 L276.7850835776782,381.448770853774 L278.55567224485077,388.3126125063096 L279.3492491045417,389.94198639608265 L282.60105045173077,393.64586626823325 L284.6364917173171,397.00340004694016 L286.7798358933672,402.3687890134099 L288.9506462648095,407.01054078120757 L289.709890380262,409.1505073654384 L291.20189335132494,415.0098263277123 L293.07449931566396,418.1376529035513 L293.9700934725212,419.98126149029963 L295.9506023473251,425.6763338515591 L296.98156561003896,432.45805220358784 L297.33372147237446,438.41615716502247 L297.849693571506,440.78583095212144 L298.0390141325942,443.55183892862436 L297.849693571506,445.00030351872954 L296.98156561003896,447.3045167039748 L293.8337434311164,452.011729073626 L292.2603228094295,454.7110862555145 L291.6903992550653,457.01529944075975 L288.32579031966276,460.27523741306686 L286.8337873485998,462.4140138045367 L286.0745432331474,464.45519438960685 L282.76388575297756,467.3199883652707 L278.6400327021236,469.0648109528584 L277.1480297310602,469.492090154048 L272.5896222316975,471.82962873660017 L268.41181772561043,473.24476792939794 L264.65973924808475,473.8172506474265 z"/>
	<path id="isparta-keciborlu" title="Keçiborlu" class="district" d="M95.11778164805209,233.73513748207998 L97.41513270540219,235.11933166309234 L98.00369403520982,236.51066700067076 L98.29699376456409,239.6480151185974 L98.20870956509302,242.3937898181641 L98.12042536562194,244.17669857410277 L97.59170110434431,247.13670797064478 L96.97469264359611,248.81249937809562 L98.53241829648695,256.4797211442888 L98.44413409701639,258.6196877285196 L98.82669896139156,260.0812444389952 L99.94300361692757,261.2940508624275 L100.64829627714684,264.64563367732956 L100.23728428183114,266.39283665043934 L100.35401561224275,267.96151070940266 L101.53015733630929,270.1371830764627 L102.4267324287169,275.66443825842504 L106.77620065599808,286.97960083700275 L108.18678597643714,290.2133545685683 L109.63660871886471,292.7806003539887 L114.14302663409381,299.76941224642655 L114.57365734040377,300.8631993937617 L115.90674875241868,306.1881218063581 L117.86567704512964,309.6587238973579 L118.4532574393875,312.0831465514614 L117.66948993519378,316.45829514080117 L115.20145609219838,327.3925960358671 L112.92862842359064,333.526849525926 L112.2625731853578,335.8084490487127 L111.63477443356268,338.9945950698395 L110.79705547413575,344.97769407925455 L108.13675826340373,346.80702035287106 L102.24133560982693,350.356175166095 L93.64147364578257,354.7134708640198 L85.79497018389333,359.4456772816517 L78.74694825944297,363.3721232001043 L69.48201199271561,366.92246820608887 L58.84278502088725,368.9660291766811 L54.98574643954515,369.9884047583572 L49.711255988916314,372.8389164208898 L45.32255033964816,373.3768835488498 L41.95303672649814,373.4304422230936 L39.33786255105096,373.054341310626 L32.28984062660113,371.2250150370092 L26.822105872684823,368.63277520360816 L25.599860177783647,367.36283952764927 L23.131826334788265,365.9715041900711 L20.389130537883567,366.0012590090954 L15.775790647738457,367.0295855545767 L13.256748156160391,365.7287048668322 L11.237001859369588,363.76250642570346 L8.618884877273494,362.0676719340771 L7.023883673494275,360.7370364273082 L5.1532395802543824,358.0138753902005 L2.4605714963825687,355.8655774566425 L1.6326618924533136,354.3111857108109 L4.114428833143014,351.62254026377127 L5.037489185391557,348.4613882906247 L6.8433915323533885,345.175266077576 L7.725252591514799,343.95650869033904 L12.93598223141488,335.2930955832108 L14.290654225523184,333.3268971420822 L15.521728340371162,330.29071540883814 L17.531665281665862,327.3783137227353 L18.168292453407798,324.83844237081723 L17.531665281665862,317.3211848925071 L18.557723866631168,312.2688166221735 L18.803938689600447,310.00387979804026 L18.86573762923062,306.3690311060264 L17.655263160925163,302.3616520798276 L17.64153006322979,301.6511070015263 L18.721540103427234,298.9767438676181 L20.055612450992506,296.73561089870464 L21.59371939289013,295.09314488856074 L24.886720033165844,292.496144284116 L25.952996975667915,291.367841546713 L26.44542662160702,290.13956261738775 L26.6651561847354,287.7496555533527 L27.34886826286285,285.0288749017666 L28.525009986928858,282.971031618043 L32.13583374530064,278.2245428872797 L33.065760646396846,276.39878719194576 L34.29683476124587,272.0176876388013 L35.880064738429354,270.931041648032 L44.57802025744087,265.85367932971826 L46.895970961334505,264.8324939408026 L50.26057989673752,262.8912895476543 L51.47105436504194,261.7463241115977 L53.05134153557702,258.8089283775143 L53.5025718884295,256.19526507441606 L53.48197224188645,254.30285858446754 L54.097018831535024,252.2616779993977 L55.51250882972367,249.87296112812322 L58.8565181185826,246.68681510699662 L61.33926599482264,244.84439671300896 L63.35018387166612,244.2469199470001 L68.74532939490636,241.16075011779526 L71.1868779780593,240.41330906390354 L76.52120549721919,239.96579658577753 L79.24918726087921,239.6170701068122 L82.53237854565778,238.67086686183794 L85.28095995586088,237.2271630427769 L87.49689336258754,236.35594194174396 L90.94291994861395,236.10719165470067 L92.19459371000548,235.7084770797743 L94.65674193970196,234.36474945263504 L95.11778164805209,233.73513748207998 z"/>
	<path id="isparta-senirkent" title="Senirkent" class="district" d="M299.96262874551644,196.03935235651855 L300.0577794938352,197.1628943228779 L300.32557489889786,201.02506983223776 L299.4917796816702,203.6244508222045 L298.74823053501217,204.52780712778352 L297.05219296961536,205.32166569935296 L292.55950815208166,207.01888057650137 L290.8036335181548,207.92104668931972 L288.45331194112185,208.64349369523077 L285.8646230255161,209.14813542588377 L280.8363473978566,210.80964452020288 L274.6466440793762,213.04720691083378 L268.7551451679986,216.40474068954063 L268.07143308987173,216.98198417861312 L267.0296795361114,220.80964409790462 L265.54160030724665,223.26382157103245 L265.36307003720543,223.98626857694353 L265.54160030724665,228.6077870678049 L263.792592222168,228.97436643818486 L256.3678910466404,231.44996738101025 L252.1714487651093,232.10814397782858 L248.2280878553958,233.16146457129048 L243.38030436887715,235.400217154682 L240.88480433049153,238.03411373471712 L234.95210612602742,243.12575836616284 L230.5741907678062,246.0655344857683 L225.72738821683737,249.09457506244632 L222.2901900507588,250.76203512057077 L220.15567429465497,251.33332764583818 L216.17699970515324,253.3518945684497 L214.18668147485278,254.09814542957997 L208.83273524469965,255.28357741950998 L204.23901406554833,256.46900940944 L199.46381980970625,257.3021443421216 L195.19478829749914,257.1271860062583 L192.30102842594343,256.5558934809909 L185.84451063795015,256.7439439372249 L185.54042061754896,253.10314428140606 L185.64832352801378,249.38379190336303 L184.64482646069163,246.09171872650958 L184.56340881006776,244.2814355370686 L186.24571327776923,238.3554657801799 L186.1368294317541,235.5573225991308 L185.13333236443148,233.48400680951423 L183.04393964361356,230.88224543402578 L181.1448484194331,228.05196704843 L178.7297850961211,225.71442846587766 L176.0714497564882,224.562321873255 L175.0669717536163,223.54113648433957 L171.94759670563377,221.76417869220558 L168.6908906806961,217.94485012224075 L166.84673184729814,215.1467069411915 L165.49009798209124,212.05220576265972 L165.21837883482985,207.21407218930113 L165.4086803314673,203.69110161681894 L165.49009798209124,194.1778908783556 L165.97860388583157,190.522808909405 L166.33075974816657,189.37070231678234 L167.79627745938865,187.56041912734136 L169.23432897521997,181.5035281667457 L170.83521579229702,179.42902218436856 L171.79555169543343,178.86249043014516 L176.4334149743203,180.30381386368424 L178.5492929549797,180.23716306906982 L181.85896949959968,179.6456372668658 L183.35195340621348,178.5923166734039 L184.22008136768008,177.11052668599177 L185.19611223961144,173.02816551585147 L186.2270755023248,170.4609197304311 L195.31642430565933,162.52709478578012 L198.13857588208882,159.20169621161926 L199.65804504854304,157.1938410238565 L200.77042596187977,156.47020382518443 L207.05822283532834,150.47996365920343 L207.61539422754706,149.95627884437485 L212.12867869162432,147.71514587546127 L215.4932876270263,146.44640039226343 L217.5444238614071,144.62897604625633 L219.8221562077639,142.11528893507983 L222.53051926043022,139.97413215808803 L225.38209890335006,138.05792181292017 L227.2900185474773,137.1117185679461 L229.83358442779766,136.6392120418394 L233.0951951304834,134.97056179095424 L236.60400159168876,133.4030779247518 L239.41438194152144,131.31190924372086 L244.15328158202493,129.94318756860085 L248.93338051561557,129.14575841874876 L251.43672803839917,128.49948374953976 L254.3707062674917,126.33333292456767 L257.0172703805284,123.44592528644522 L259.29402179133484,119.78727273921176 L260.586894845813,118.21859868024836 L263.55422488359517,116.67610886202625 L264.4164672317638,119.01007686629579 L265.8309762944027,125.8239304228709 L267.1346396399273,129.7218117150598 L269.13378629017456,133.72800054849762 L270.12256932425254,135.30976672783186 L273.5813480724234,138.9077194442556 L276.32306293377934,142.77941649570323 L278.1005181497996,146.79631706398948 L279.3875055909793,151.03578367857807 L280.79809091141954,155.2014583419865 L281.59461057775917,159.88724724194026 L282.6373450670693,164.94556647607854 L284.8434691182989,172.90438546871016 L286.5601063302398,177.96151451008788 L288.8898282607292,183.83749617101523 L291.4647840786395,188.74704131003236 L295.02067544622884,192.98650792462087 L297.6564492682185,194.99555330514434 L299.96262874551644,196.03935235651855 z"/>
	<path id="isparta-sutculer" title="Sütçüler" class="district" d="M518.1923414183643,514.2849947132958 L518.4012806904457,516.0560015416247 L517.9059082378573,518.806537012235 L517.4625253694022,525.3835422093764 L517.4468304006074,527.7936825503481 L516.97794320786,530.378781227183 L516.1765188637712,532.6794238341455 L515.2377635427277,536.4023467904714 L514.6904015060067,541.2392901710689 L513.8311019644864,544.9860169826143 L512.8040624439718,547.0367191097722 L511.4856850652026,548.1400277991946 L509.5895366476707,549.1124152849103 L508.24467400905985,549.254048223466 L506.70754800271106,548.811296516384 L502.2776430603574,546.5356479574021 L498.6295437510972,543.8481927031235 L496.62254961645186,542.772258447203 L493.5738019280464,541.4761385305025 L488.44056619657096,540.6537153326697 L487.0074193584892,541.0655220279667 L483.15038077714763,543.626816849582 L478.7724654189254,544.9229367662826 L475.3852949658812,546.5035127528557 L473.9776524520906,546.8510490390602 L470.3560384026719,546.8510490390602 L467.6721987387474,548.3054645929701 L465.1698321515136,550.2026318539623 L463.3462729646587,550.803679198254 L456.2580326826716,552.1950145358325 L450.9678472632472,553.9648311714003 L443.72363822886155,556.6522864256791 L440.9093341368295,557.1902535536393 L437.4701740996508,557.5699250443898 L434.1604975550313,558.6125339030032 L431.3206891387082,558.6756141193347 L430.04351105302504,559.6241977498306 L428.32393103443513,559.9086538197035 L425.17022324221426,561.3630693736134 L422.7208271746634,563.2292916228204 L420.0634727705803,564.6206269603985 L415.65907215251764,565.1574038955977 L413.41861535704913,564.9050830302713 L409.92648480018767,563.8934191834435 L408.77977114261193,564.3671159023112 L405.91347746644743,568.5720669268313 L404.9757030809532,569.0469538384601 L404.6362993807643,570.1526429134046 L402.7607506097758,571.6070584673145 L402.10842846923947,572.9353135885613 L399.1901452089414,575.2430973520896 L398.0954211354982,575.5596886265087 L395.6725103277887,575.4335281938454 L394.76024026658666,576.0024403335907 L390.66875808887147,576.1916809825857 L389.39256093873763,575.8762799009277 L388.19385769702944,577.2676152385059 L386.47427767843953,577.5199361038323 L385.6659867855035,579.0374318740738 L384.80570630843494,579.2909429321612 L382.3827955007244,581.5035112748116 L380.3502970417881,585.7727327084244 L379.43802698058596,586.7201261461595 L375.3720491271619,587.8674719677384 L372.403738153831,589.069566656322 L370.5821408380747,590.475184307032 L366.6760554792495,591.8010590427566 L364.85445816349426,591.8808019577418 L361.47807800149553,591.0774218440846 L359.06105280708385,589.069566656322 L356.7431021031897,586.8201023380816 L354.45850320798627,585.0919424491475 L348.92995044999003,582.3199835088395 L342.60585896120296,578.8684245020157 L341.38753700850054,576.584444593707 L340.7460051590095,574.1397886626669 L339.46196052447914,572.0974178848356 L337.04787813671646,570.4323382122336 L336.05124761824203,569.1159850185966 L334.8339066010894,568.5244592163926 L329.0767958600175,567.5044640202381 L326.48614507331274,565.5156519166507 L324.0289015213643,564.7372658509742 L322.00817428902366,563.4839928736687 L319.6892426495802,563.0757567566548 L317.6076974131593,560.9500724855554 L315.37410716653795,560.2728528045616 L313.2925619301175,561.0429075209114 L310.70289207896195,561.1345523635063 L308.24074384926547,560.2109627809907 L304.31798258609547,559.0755188870216 L303.011376433922,558.1543096900282 L302.3404165179411,556.6403844980694 L302.1795430877929,554.0862308330198 L302.25801793176737,548.852953263018 L302.81028464623756,544.6491924312586 L302.4649953327502,540.5620704900746 L301.9853178489567,537.9781620060008 L300.426611260515,531.7046559629079 L299.68796679160556,529.8110592801986 L297.6750870436625,527.8472412245919 L296.58821045461735,526.1047990225263 L295.4493442814387,522.6853752202486 L294.14371906481557,520.3704503001549 L292.6458304804536,518.7220333262059 L289.9737620431254,516.6058705971947 L288.14235537187295,515.5489794254499 L286.4502415486754,514.1445519675011 L285.23093866042313,511.99744422670403 L284.57273090658725,509.7491701012248 L283.087594484372,507.10456178634087 L281.95069018229293,505.5346975346168 L282.49903315456436,505.1669279714758 L288.3797417748954,503.42686615493193 L291.42750852775066,502.7306033897624 L293.5080728286223,501.1643097163207 L295.51604789881685,498.33641171624726 L296.73436985151983,495.4216296446225 L297.30821714808235,491.5499325931748 L297.7388478543923,490.3752123380936 L298.88654244751723,488.72203459310094 L299.81843121971355,488.11265589948243 L302.57976479206224,487.37235600215695 L305.4843149546644,487.0688568481085 L308.9264177984915,484.98006855259973 L310.51749526007245,484.4147269911369 L313.0718514314388,482.2283428892283 L314.7129566060537,479.8134417772126 L315.25050928727813,478.6387215221312 L318.20901090511296,475.6691905835015 L319.338067722795,473.5161318789003 L321.19399778278927,466.14169753190646 L321.78550191924586,462.61753676666325 L328.6432223470587,455.70013643988364 L330.92880217781357,453.57921293982844 L332.86516895288133,452.11051507278677 L336.6574657879438,450.05505217458506 L340.5831698577637,448.3911626947437 L344.8060973991346,446.9879254295557 L356.2084922286147,444.9324625313541 L357.5798401270679,444.0838550927797 L360.322535923973,441.57135817436415 L363.49586242718715,440.0705251027762 L365.432229202255,437.2319153678536 L367.4764988877881,432.9900683677433 L367.74527522840054,429.98840222456727 L367.53045034302016,427.76869272535106 L368.79389533100897,425.4525776124961 L370.16524322946117,420.0026849599973 L370.2466608800851,417.7520304489959 L371.02650464208,413.44472284703187 L372.28994963006784,409.82296627538864 L374.683432371287,404.1457468055436 L376.21663463543655,402.4806671329415 L377.9107103297343,401.2083510714606 L379.9549800152674,400.39306903019366 L384.9028189278528,399.6099221934729 L388.2105336013727,399.83843920357964 L392.91706236873847,399.3814051833658 L394.3688469822642,399.44686578521913 L396.5210195782626,400.0336308163794 L400.42023838823957,401.79630629538156 L403.4856619809894,405.09195005051805 L404.91096133467465,406.3309407146917 L408.7572096249698,408.84343763310704 L410.63962494480546,409.72537046898884 L414.86157155062807,413.5423186534316 L416.44872527000973,415.14193772418025 L418.76079036060605,417.91508685724926 L420.1596044544499,419.9050891535975 L420.80506004613915,422.4830466738668 L420.9659334762863,424.27785735741526 L421.7192919784409,428.61730016392556 L422.76791208104834,431.9129439190618 L425.1074433670354,436.2202515210261 L425.9147533244211,437.3295111742535 L428.17384789533446,439.5480304807086 L429.9218750448644,441.73441458261766 L434.7892772423763,446.59635201119517 L436.6452073023705,448.1626456846369 L440.3560864868106,450.38116499109196 L443.50292773018333,450.77273840945236 L445.734556105705,450.57754679665265 L447.26775836985456,449.8919957663317 L448.747009178772,449.76107456262463 L451.8389180313633,450.6096820011991 L453.45255701058744,451.58921064348016 L455.65770012626757,453.6446735416821 L458.26698868841544,454.6563373885096 L462.03181932808764,458.24476856284554 L463.45711868177295,459.3218930115271 L464.66759315007795,459.7789270317409 L466.65693044482856,462.1605027464493 L468.2440841642102,465.58706770529295 L469.158316096513,469.8610499099495 L468.94349121113265,472.27595102196534 L469.48104389235766,474.8860437467808 L470.7719550757361,476.7463150321831 L472.95061293157494,478.018631093664 L476.2043761498637,478.9981597359455 L480.8834387218366,479.32427255245227 L484.75617227197324,479.3897331543056 L485.9666467402782,478.736317328531 L487.74115914964955,476.9426968377435 L488.7897792522581,476.32260640927626 L492.0170572107043,475.4085383688484 L494.1152783514696,474.1028969100601 L496.6431492629944,472.0474340118586 L497.52697219325654,470.3026114242708 L498.81788337663505,468.68632965486864 L503.779455386917,465.3585506951859 L509.8279039862423,462.87580859579464 L511.49549442069963,467.11289482486114 L512.7981768306739,472.17121405899985 L514.3882733567057,477.1355080650212 L515.4045225861738,479.4432918285495 L515.8989141032131,481.18216345233213 L516.4462761399342,484.40758583457114 L516.4727613997754,493.3233198070258 L517.0201234364965,500.65847779290704 L517.7234542256173,503.2828528308544 L517.9843830818311,505.24310030817793 L518.0363726659647,512.7674989430543 L518.1923414183643,514.2849947132958 z"/>
	<path id="isparta-uluborlu" title="Uluborlu" class="district" d="M185.84451063795015,256.7439439372249 L184.9204693501513,256.9081905382394 L181.41166288894644,259.10171579671385 L179.02406576102518,260.0681523186244 L173.81431705667492,261.4285426444176 L170.88426256978113,261.91176090537306 L164.69848299349948,263.053155763147 L159.99587796833353,260.6382546511311 L158.36752495586467,259.32190145749416 L156.74015287894565,258.39950206773926 L154.2073772896722,257.6972883387649 L148.63664430303965,256.9950746097903 L143.13751961153386,255.59064715184127 L141.25706616279734,254.66943795484755 L136.01102284310855,255.23954028735392 L133.04467374087727,255.06458195149105 L128.77564222867014,254.09814542957997 L120.23856013980523,250.05982139159627 L118.35712575551943,249.48971905908988 L113.1483579867185,246.63682701103568 L109.20499707700493,243.8279720951374 L107.79441175656538,242.5104287087396 L105.58730676978551,241.1940755151026 L104.50239205183948,241.15003838294643 L101.64394586007248,241.9403263762329 L98.20870956509302,242.3937898181641 L98.29699376456409,239.6480151185974 L98.00369403520982,236.51066700067076 L97.41513270540219,235.11933166309234 L95.11778164805209,233.73513748207998 L95.90841570109352,232.12480667648248 L97.79573569867767,227.27120059723126 L98.88261228772282,225.97627087329175 L99.68305569626187,223.4875778100956 L100.05188746294114,220.57517612399278 L101.71359228409912,218.6827696340446 L103.41649639834365,217.68776848587027 L104.93498462924858,216.39283876193113 L108.25839427156392,212.8829603098193 L113.16209108441386,209.24930181056652 L114.86401426310857,208.35308666155325 L117.03874837674968,206.2869120285026 L120.03452554547187,203.00078981545423 L121.1214021345175,200.76084703930167 L121.49121483674662,199.21716702831844 L123.31673589470114,195.75727667216788 L130.37456717464863,187.44378023676572 L134.08740823018684,183.4352110178063 L137.1852026960765,179.57779627949012 L140.83722574753486,176.4904362575242 L142.130098802013,174.89795834334151 L145.96359493016158,170.92152432892803 L147.72731704848647,168.6494463482291 L149.3821553207962,168.81488314200453 L152.68104157437085,170.66920346360172 L158.6078541655366,172.8639189148371 L161.94499690554787,173.6863421126702 L164.92900284767381,173.71966750997726 L166.23168525764905,174.31238350494226 L169.2971088503989,177.20931268515244 L171.79555169543343,178.86249043014516 L170.83521579229702,179.42902218436856 L169.23432897521997,181.5035281667457 L167.79627745938865,187.56041912734136 L166.33075974816657,189.37070231678234 L165.97860388583157,190.522808909405 L165.49009798209124,194.1778908783556 L165.4086803314673,203.69110161681894 L165.21837883482985,207.21407218930113 L165.49009798209124,212.05220576265972 L166.84673184729814,215.1467069411915 L168.6908906806961,217.94485012224075 L171.94759670563377,221.76417869220558 L175.0669717536163,223.54113648433957 L176.0714497564882,224.562321873255 L178.7297850961211,225.71442846587766 L181.1448484194331,228.05196704843 L183.04393964361356,230.88224543402578 L185.13333236443148,233.48400680951423 L186.1368294317541,235.5573225991308 L186.24571327776923,238.3554657801799 L184.56340881006776,244.2814355370686 L184.64482646069163,246.09171872650958 L185.64832352801378,249.38379190336303 L185.54042061754896,253.10314428140606 L185.84451063795015,256.7439439372249 z"/>
	<path id="isparta-yalvac" title="Yalvaç" class="district" d="M463.81516015740584,49.452831529466565 L463.12654340152983,51.85464052111188 L462.98823148902585,57.71514967614638 L463.5091082659054,59.56946999774356 L464.3429034831336,61.086965767985426 L466.0448266618278,65.30262852735444 L470.21478368351796,70.69896250560933 L476.99010552515756,76.47496797461503 L478.93530072017217,78.87677696626034 L480.01236795372074,82.29143999749412 L481.3327072035896,90.554948336935 L481.8535839804702,92.61993277722436 L483.3828625024216,96.0774427478533 L485.5369969695186,100.20860182119307 L486.71804337133307,104.17075352247507 L488.0736963009913,107.71276717913288 L489.7756194796855,111.59041519438527 L491.6864819304622,115.25858928370647 L492.8331955880378,116.86058873997722 L496.55094132132507,120.48591588990327 L499.0523269730096,122.2140757788374 L501.6233590487203,123.56256417702075 L504.9595208531812,125.92390661479264 L508.1210761297996,128.62207360392011 L512.4293450639947,133.51138546600026 L515.5565675963742,135.49305641302183 L519.82952285078,136.16789570849366 L523.9641661926809,137.6437347321014 L528.3773952306913,140.08839066314152 L533.1025617734989,143.5030536943753 L536.5417218106767,147.04387715827212 L537.9581927444151,147.99484117429031 L537.48341993837,149.50876636624875 L536.0061310005524,157.59731636982642 L535.2468868850999,162.66515714605288 L534.4660621875545,164.71347888768872 L532.7994526886486,168.19479271353723 L531.7027667441058,170.06339534826589 L529.3181124228335,173.44235259667056 L528.0733052102895,176.02745127350556 L524.7822664411141,180.20026709347945 L521.7021288151185,182.0426854874671 L518.6013915425804,182.63183090414907 L514.5079474937667,182.4533019900028 L511.02758816350183,182.73418748159278 L508.49579350977774,183.52804605316229 L504.12866844260293,184.06482298836133 L501.1956711490592,183.2721546095529 L496.7657662067045,181.40355197482396 L493.93870995252746,180.6346874512351 L489.3812833887141,180.07172627529442 L485.83716324772007,181.09648224249264 L484.8876176356301,181.6082651297115 L483.3053685939959,184.29572038399016 L480.8795149796374,186.9319973495473 L477.5462959818255,189.51828621914325 L470.96323750792294,192.53780525373386 L468.15776183583887,193.5113829322102 L466.55393221211284,194.7396618615353 L464.44492078030015,196.76179936242963 L462.7989109279377,197.99007829175466 L460.45741777085107,198.78393686332421 L455.9421714356741,199.3468980392644 L453.1994756387699,200.78108031623822 L449.6553554977759,201.9331869088607 L447.3560425693256,202.24025664119168 L439.12795517860997,202.06053753428475 L438.2843506058857,201.90700266811928 L437.4986212305918,199.87058285409313 L434.1065460997991,192.9389002141817 L432.9009763092428,188.68753167198338 L432.43208911649464,187.6318306929997 L430.8930012390472,181.99983854807195 L430.00034988883937,180.18598478034795 L427.1213040505288,176.61183591914346 L423.77435195501937,174.68848441740994 L419.2885336863339,171.76418080369734 L415.65122466812016,169.78846082048096 L412.10219984937856,169.59802997872524 L409.2015734289741,168.56970343324392 L406.5677614780835,166.70110079851494 L403.91236894510007,165.45615917053638 L397.9316048987022,162.15218406607312 L391.86157571728177,159.52661883536504 L383.0243273502154,155.49186537566396 L379.58811011968663,154.59803061217275 L375.30338363868515,152.40450535369803 L372.67055262334384,152.72942797744378 L367.4931747921334,155.32880896741054 L362.2706739256366,157.38665225113417 L360.3294024728202,157.84725684963112 L358.0977740972985,159.06601423686817 L355.6876154517351,159.66111061735515 L352.80856961342454,160.06815654160818 L349.1271184954758,159.71585948436012 L346.7836634672895,161.58327192632768 L343.3915883364968,161.5023388185815 L339.7758599003764,164.0743453750459 L336.4514693225113,165.04911324628333 L332.92500602141183,167.73061753675728 L331.0504381859732,169.7610863869787 L328.0154235952635,172.44140048469154 L322.25831285419173,175.52876050665756 L319.5577972859229,176.58446148564119 L317.23690377538037,178.91247852610604 L315.76451951531004,180.70014805308844 L313.4475497469668,183.08291396055785 L310.68033056131975,184.4540160211998 L304.49062724283937,188.38998348174024 L301.3074913841277,190.73585341361928 L300.0577794938352,192.68538915609432 L299.81941215526285,194.34689825041374 L299.96262874551644,196.03935235651855 L297.6564492682185,194.99555330514434 L295.02067544622884,192.98650792462087 L291.4647840786395,188.74704131003236 L288.8898282607292,183.83749617101523 L286.5601063302398,177.96151451008788 L284.8434691182989,172.90438546871016 L282.6373450670693,164.94556647607854 L281.59461057775917,159.88724724194026 L280.79809091141954,155.2014583419865 L279.3875055909793,151.03578367857807 L278.1005181497996,146.79631706398948 L276.32306293377934,142.77941649570323 L273.5813480724234,138.9077194442556 L270.12256932425254,135.30976672783186 L269.13378629017456,133.72800054849762 L267.1346396399273,129.7218117150598 L265.8309762944027,125.8239304228709 L264.4164672317638,119.01007686629579 L263.55422488359517,116.67610886202625 L266.2282551920225,116.77489486118725 L269.81847930385123,115.9786559040958 L272.8338751835677,114.43497589311264 L275.31662305980774,112.64254559508618 L278.35261858606674,109.63135790982264 L281.0609816387335,107.73895141987418 L285.3074516332985,104.32904915968442 L286.7229416314856,102.98532153254507 L289.45190433069536,100.99293885067478 L292.8165132660979,99.45044903245298 L294.4576184407123,98.10553121255266 L295.4836770256776,96.48805925038906 L295.7298918486479,94.44687866531926 L296.5705536147232,92.72943051123389 L298.99150255133304,89.368326154244 L300.98182078163404,84.51472007499284 L303.1771545418177,81.02983567086162 L304.96147630668565,79.18741727687436 L306.459364891047,76.72371826165865 L307.62864006626535,74.33381119762348 L307.7522379455251,71.91891008560776 L308.5517004185144,69.82893159733777 L309.51596006384955,68.8827283523637 L312.77855170208454,68.55899592137864 L313.47599687790733,68.13647749123302 L315.07590275943517,65.14909366118877 L316.1833789950238,64.42664665527778 L320.1022165159955,62.982942836216665 L323.8356572180773,61.96294764006208 L329.02676814698367,59.57304057602659 L335.01734154887924,58.87558761809615 L338.7095829578744,57.78061027800011 L348.55719494111156,54.49567825771241 L350.28069870189864,50.93581170964002 L351.5725908208275,47.00222463462168 L351.63438976045705,42.84607151330133 L352.8654638753056,39.883681731237395 L354.9783990493166,37.54376276316309 L355.9632583411948,34.930099460064454 L356.66070351701757,33.83512211996882 L359.0816524536274,31.967709678000837 L361.2975858603541,31.196464768889935 L364.7848117394661,28.457831225889386 L366.3444992634581,26.840359263725773 L368.7242489069809,23.80298733772072 L370.2829554954225,22.110533231616312 L372.8481019578353,18.799416970586915 L373.9967774865117,17.67944558251064 L377.5252026587097,14.842026040349399 L380.1305674786602,13.249548126166344 L381.7922722998176,11.058403253213612 L382.8389305313255,10.51091458316579 L385.28047911447993,10.709676774248237 L388.35767393382554,9.93843186513734 L390.45000946129295,8.967234572182633 L392.6453432214771,8.793466429080434 L398.32790286077216,9.813461625235036 L399.82579144513454,10.435932439224361 L403.14920108744934,11.20836754109624 L406.36961249704854,11.530909779320314 L409.5086062560237,11.457117828139864 L411.4341827400461,12.01888881131956 L411.9089555460911,12.328338929172906 L413.48924271662565,16.534480146454126 L414.22788718553454,17.953189917534907 L415.704195187803,19.546858024478624 L417.94072824107326,21.18932403462248 L422.1665985890941,23.554237050677408 L425.88042058018317,25.296679252743004 L428.8349984558188,27.88534850786093 L431.0705505735397,30.548999906920052 L436.52749503640905,35.005081604005966 L438.8052273827664,38.887490390302446 L442.68286561065054,39.83369363527652 L444.0571563157526,40.62993259236805 L448.6116400729159,42.148618555370575 L453.51435595021707,44.06482890053838 L457.5567913504476,45.03602619349308 L460.34657205373776,46.77846839555869 L461.9670775818081,48.297154358561215 L463.81516015740584,49.452831529466565 z"/>
	<path id="isparta-yenisarbademli" title="Yenişarbademli" class="district" d="M545.7193548134823,326.17621903415187 L553.954308753046,335.1026647414552 L556.4802177934713,343.63039587383224 L556.5900825750363,355.08838158372686 L554.283903097739,363.21620794841664 L549.0133363893077,370.5442247777323 L544.510842216277,376.27262253629897 L541.4365902035803,381.7034721046224 L540.7332594144597,384.2016867099065 L540.7332594144597,387.5842145365938 L541.8270025523524,392.1688370518647 L542.0624270842764,395.83701114118594 L542.0094565645934,401.55945793594776 L541.7230233840863,407.15574429804656 L541.9319626561688,409.55874348245237 L541.3326110353141,410.9179436154846 L539.2736273165355,412.53065480660416 L537.6364458841208,412.7627423949939 L534.9614346401431,412.29856721821403 L531.3820008193608,410.8227281946066 L529.0895544397588,410.48590364325105 L523.0783813913201,410.359743210588 L519.8128469464357,411.0333923132988 L517.4154404630173,412.08790309952184 L513.3151298653554,414.74322314925416 L510.57047219735057,417.9900690011907 L509.91030257241664,419.29690065274 L505.6716800622496,422.62705999794457 L504.84867513606787,423.68395116968924 L501.13387220942957,422.92817876647075 L499.3426838957139,422.1497927007942 L497.86049028014764,419.60039980678835 L496.90996373250834,412.92103803220334 L496.55584599907377,411.68680813907355 L495.6936036509055,410.69418737642155 L494.01326105430314,409.48614172403296 L491.91307804243826,408.3864036128932 L490.49758804425016,405.2478653022054 L488.4189856144781,403.8255849528419 L486.58365520102643,401.51780118931356 L485.85383915206535,397.9769777254168 L484.01850873861474,390.7060901486278 L482.33816614201237,386.6546739902733 L481.43178169410805,383.2209678748639 L481.34349749463706,382.2009726787093 L482.2057398428063,378.1507467131153 L481.78589942754166,373.4280618375717 L481.2326517775238,369.7253721581821 L480.2595637122403,367.31166123892734 L478.0926770829972,363.4209211033043 L476.61146440298126,361.05957866553223 L471.50373299579786,354.7825020441567 L468.0979247673077,351.0524379312648 L471.8862978601725,349.2623880187601 L474.0492607472174,347.85677036805004 L475.74922205481204,347.0593412181978 L477.4109268759693,346.87248095472484 L486.29624108497103,346.54398775269595 L493.4423565643896,346.16907703298926 L496.9962860608798,345.65372356748776 L499.6232314629222,345.6073060498096 L501.7489187990792,345.325230365459 L509.82201837294565,345.0907623915471 L511.5219796805401,344.85629441763524 L517.3320609412948,343.0341093005846 L524.5429181669919,339.61706588382884 L531.8920873051951,335.70133170022484 L536.1503285263542,332.36760177673733 L545.7193548134823,326.17621903415187 z"/>
	
</g></g></svg>