<svg xmlns="http://www.w3.org/2000/svg" version="1.2" baseProfile="tiny" width="600" height="600" stroke-linecap="round" stroke-linejoin="round"><rect id="backgroundrect" width="100%" height="100%" x="0" y="0" fill="none" stroke="none" class="" style=""/>































































































































































































































































































































































































































































































































































































































<g class="currentLayer" style=""><title>Layer 1</title><g class="city city-36" id="kars" title="Kars">
	<path id="kars-akyaka" title="Akyaka" class="district" d="M490.3713856035259,60.00777106727924 L493.20984649166945,62.79232466349278 L494.90856373361953,65.17561071090667 L496.0265109251352,66.0207044879234 L498.9113771683979,68.79674634825318 L501.8658514443399,72.19657685262541 L507.6116781418641,78.503773142389 L511.7797227653252,82.97608236809765 L512.4687719777064,84.55440139337487 L512.5411924561503,86.4111757782735 L512.0876855765727,88.69718484416033 L512.2768225542565,91.32852719446853 L511.2980914281002,95.89324955262794 L511.7431609703831,96.6009395932376 L513.0565731425527,97.47278454017435 L514.3685790918405,100.52120194877978 L513.9530402300893,101.87092006746848 L513.1536025214391,102.77924388247783 L513.1514931871152,104.95095249507033 L512.285259891551,108.45292383004607 L512.6311907206244,110.67448689567135 L512.6480653952132,112.53004531830088 L513.0931349374961,114.60082906255907 L512.7296263223933,116.69957993900633 L514.0690536178877,118.51622756902502 L514.3805319863415,119.47562179933603 L514.4508431304616,122.37812373565096 L513.7048418913441,127.30155496319168 L513.3483643906529,128.50414164732035 L513.6176560726346,130.13839493697577 L515.1996568153443,132.1885073226594 L516.3780715908035,134.32738495398664 L517.9446038818073,135.78653967689323 L518.7419322561339,137.67492908078813 L520.1931542707796,138.77051108523705 L520.7612683152738,140.21993810999098 L521.9530422081151,142.17277351414756 L522.5745927221401,145.03150080877526 L523.0998169687201,146.45539262587823 L523.406373557086,148.5237444455984 L523.8507399879267,149.6485095445055 L524.8709546891142,150.6674859260019 L525.3750855924587,152.40752793306794 L525.6345337142626,154.69353699895487 L526.2026477587569,156.16849923135965 L526.740528011278,156.6354287426898 L526.8241982727812,158.81929697797312 L527.454186124101,160.1665831721236 L527.1434108670882,161.86893034884787 L527.7516022637299,164.5258079068069 L528.6628346915314,166.52363391491974 L529.007359297721,168.3013707523276 L528.8815023497464,169.74107007892877 L529.2886038742035,171.0932201221555 L530.4930337729871,173.20777850810094 L531.105443838276,175.42447772464982 L531.3761417431399,177.6217215448933 L532.0279260491368,178.35737871769194 L532.0785500729036,179.78370245933314 L532.685335246663,180.81119057671333 L532.579165419041,181.95054722284922 L533.1543105779472,182.7615940563317 L533.3483693357193,184.65119942249564 L533.8075011068256,185.67503965306847 L533.9642949582144,189.7375695940939 L531.1518491933957,193.87548919580328 L531.5280138144402,195.6313387123674 L530.4206132945432,196.5347986783005 L532.4427617994471,198.5642397054097 L532.5946338707481,200.0598732963889 L533.1008741084149,200.2094366554868 L533.6120361261703,201.57861017048086 L533.4046182510154,203.37215451738697 L532.6086960995715,206.15184426452387 L531.5638724979414,207.48940276052144 L531.5498102691181,208.454876802178 L533.230949725038,210.11466529948424 L533.2478243996267,211.11661820921344 L534.6435006104178,214.2331295048879 L534.5063938793832,215.16090871620267 L533.419383591281,215.6181105293799 L532.8104890831976,214.9943218853374 L532.2233910297915,215.96952362514676 L532.9103309078488,217.91141536888153 L532.478620482949,219.65875314956205 L530.4937368844279,220.1548657553504 L530.6202969438455,221.82073406400204 L529.5860200138333,222.03352746109258 L529.1690749291984,220.9634806642945 L527.6714475594329,222.15390772573238 L526.9338836576087,223.29812822094502 L526.6463110781568,224.53962569768456 L525.5227389951112,225.04911388843277 L526.0367134586326,226.33924985593606 L525.482661642963,228.35166741127784 L525.8292955834763,230.46136194814704 L525.6380492714687,231.57883127343953 L524.9883742997956,232.364342899271 L526.0964779311341,232.99177943012083 L525.6556270574989,234.3342017751948 L525.8679667127429,235.58785887462528 L523.515355830472,238.417403074795 L523.6637123445661,239.7780648539055 L521.8953870699365,240.4091492715624 L521.5726589184243,241.48284395516797 L522.5802176136701,242.60517712953686 L522.1182733967984,244.48383883527913 L522.6006078454643,245.28029412153214 L521.3012579021181,245.58185276426622 L520.88150037172,247.06532673255475 L521.4664890908016,249.04248138209297 L520.4779144044682,249.48144376123392 L520.5144761994104,250.5575703693776 L518.7686504908995,250.71321353982086 L517.520627682761,245.4480969146664 L516.9075145060312,241.89383920211995 L516.7204868626707,239.30870341803714 L516.8625153737938,233.51585916809805 L516.5468183366925,230.28139953232198 L515.6721477038343,227.75462993715539 L514.5211542745822,226.7660526123862 L511.5181653091974,225.29473826678884 L510.23709626332214,223.94988399717653 L509.6064053005618,222.69622689774602 L508.5264261268719,219.22465461949741 L507.99698321164414,217.06145774278855 L507.24113841234896,212.3751391577203 L505.9298355745027,210.07453854460425 L504.978525794553,209.28659499423475 L503.6897225228246,206.97991456977323 L503.3873846031072,205.7712480742989 L503.40425927769576,204.01661452000383 L502.88676925696967,200.50369952460628 L502.12037778605594,197.5501271729897 L501.46859348005904,196.66004279201658 L500.10104172691655,195.56810867437474 L498.804504229335,195.186296521881 L496.50532981659546,195.186296521881 L495.2305887736912,195.58756407068032 L493.99100330284796,195.5413575044549 L489.5874163465827,192.5342828129985 L488.14885033787874,191.7378275267451 L482.36927429117634,192.44430160508557 L479.96393005081467,194.90662519999066 L478.61325297226097,197.40177977616068 L477.3237465890918,201.11776047049614 L475.45136082116346,205.31039837431433 L473.5178043578513,206.58472683231932 L471.0006653983376,207.5939755156631 L466.6111406708978,207.91134166789536 L459.98150289177926,207.48697083598321 L457.2189780392865,206.47893811490863 L454.5176238821775,203.98378353873846 L450.7419154429088,198.62260589432594 L451.43448021249554,191.59677590353095 L451.94282978448683,189.03839128936798 L452.4279766789173,184.64268768661202 L452.9363262509088,182.0052655249584 L454.16114638148713,178.16890456598333 L455.0386294601106,174.33254360700803 L457.18804113587305,169.4577508702309 L461.27804038935994,162.78333397520268 L466.9626963914998,154.59139616835142 L470.4058331190797,148.7170824463835 L471.4457349406205,146.3994583615002 L472.99328322271197,143.72190944496674 L475.81276010194307,139.76516822135176 L477.17046829490926,138.43490549896865 L478.6526272129683,135.86679318665307 L477.85740817296653,132.76000958913107 L478.02685803029635,131.44798630078432 L480.3625942379779,127.76362062544527 L481.4840569866996,126.62669590384724 L484.7014949416524,125.00825012369016 L487.9667444746058,121.59139614755063 L489.5487452173168,118.80319466452994 L493.1557069106965,108.75691439731838 L493.68233738015886,107.01079257890673 L493.9101454871093,102.70750210860143 L494.7545823279963,100.49809866566716 L496.2458816947908,99.50830537862879 L496.9342277957298,98.02483141034058 L500.01385590820706,89.49364013041355 L500.1073697298874,88.23633514417573 L499.0210625532261,86.51453257114605 L497.71960327555604,85.50649985007136 L496.295099495676,82.95905889633033 L495.5139426844968,81.05486198293731 L494.1653749402669,80.39094658401484 L493.81452233110576,79.70879175105597 L493.8180378883113,77.92375914003367 L492.2754113863084,76.87438370181005 L491.75440580837596,77.18931792950399 L490.38404160946754,75.53682520581232 L489.1922677166257,75.58546369657584 L488.0827578624055,74.86682999554438 L486.41919619251433,75.14650131743487 L485.3096863382942,73.98768927499323 L485.05586310801897,72.54798994839206 L484.84774212142264,69.19193408570703 L485.37929437097347,67.43365264460456 L487.8057319545708,63.9961273098905 L489.03055208514843,61.758756734767196 L490.3713856035259,60.00777106727924 z"/>
	<path id="kars-arpacay" title="Arpaçay" class="district" d="M327.78248971648117,68.53045061132266 L330.4430634099997,67.8568075142475 L334.1878349458557,66.33807064015552 L335.8985050823067,65.21816939032477 L337.6323778963165,64.17973761252289 L339.1581297237315,62.740038285921884 L342.6026726741923,57.26334422594585 L346.0929178683323,51.905814468340566 L348.4511536421333,49.18692283465808 L349.1444215231615,48.90725151276766 L352.9355984141364,48.94737826764758 L354.0458113797988,49.30730309929791 L356.1495208118823,50.86616672826973 L357.39754362002094,51.266218314799886 L360.032805301656,50.94642023802955 L362.94579600256753,49.90677249795856 L365.28082909880754,48.347908868986764 L370.1583131664446,43.83060903932188 L373.2470817276566,43.532698283395234 L379.7621123418585,42.59397541165858 L382.017693845243,42.191491900590215 L387.5884457939074,38.87313086824691 L392.8132669134987,32.876004957100946 L397.68161053240027,25.87935806076392 L402.70674800268984,15.993584813072104 L405.0748273366671,11.05069818922608 L406.2405861061849,8.11658123391482 L406.9823686766552,6.650130737393739 L410.30457023634693,4.144032500801828 L411.47032900586464,4.144032500801828 L414.0500448836445,3.717229744351579 L416.3822655341198,3.1056007229999354 L418.2553544134896,3.4108072525411703 L419.5975941547487,4.083234387347321 L423.0611211141229,6.5273185482157885 L429.8102878382459,13.555580463548974 L435.0400307379272,20.949847021877968 L439.2376060419185,28.633512600250093 L444.3260235419165,39.44463313471864 L445.75896465909204,42.925933111119896 L448.10595064983295,48.245768038383396 L448.91452880721795,49.831382837275136 L451.60955496135534,51.13611035200744 L454.1428654840161,51.0424812572876 L455.85283250902563,49.977298309565775 L457.26678961728845,48.57286188876823 L457.86724678807644,45.76155712263492 L458.18294382517706,42.78123360109826 L459.35503059766563,42.64990967603669 L461.466474255603,43.45730862271162 L463.18417550646643,45.019820138490736 L464.20087465044764,44.88606428889115 L466.3770045609758,43.56309734012237 L468.255718331875,44.67691877860771 L470.30177262578087,46.635833994109774 L471.9372098380233,47.7253361872134 L473.82928272630494,50.61811042537554 L475.1103517721794,51.69788492032645 L476.34782790870025,52.35450454563441 L477.5093680095694,53.471973870927044 L480.13337990814523,55.03448538670608 L483.13285331632386,54.56269202629967 L484.3084556460185,54.827771800961074 L484.88781947357086,56.1543866365369 L485.63733626989574,56.537414751299856 L486.7960639250011,58.069527210351765 L488.68743370184126,58.36379007947119 L490.3713856035259,60.00777106727924 L489.03055208514843,61.758756734767196 L487.8057319545708,63.9961273098905 L485.37929437097347,67.43365264460456 L484.84774212142264,69.19193408570703 L485.05586310801897,72.54798994839206 L485.3096863382942,73.98768927499323 L486.41919619251433,75.14650131743487 L488.0827578624055,74.86682999554438 L489.1922677166257,75.58546369657584 L490.38404160946754,75.53682520581232 L491.75440580837596,77.18931792950399 L492.2754113863084,76.87438370181005 L493.8180378883113,77.92375914003367 L493.81452233110576,79.70879175105597 L494.1653749402669,80.39094658401484 L495.5139426844968,81.05486198293731 L496.295099495676,82.95905889633033 L497.71960327555604,85.50649985007136 L499.0210625532261,86.51453257114605 L500.1073697298874,88.23633514417573 L500.01385590820706,89.49364013041355 L496.9342277957298,98.02483141034058 L496.2458816947908,99.50830537862879 L494.7545823279963,100.49809866566716 L493.9101454871093,102.70750210860143 L493.68233738015886,107.01079257890673 L493.1557069106965,108.75691439731838 L489.5487452173168,118.80319466452994 L487.9667444746058,121.59139614755063 L484.7014949416524,125.00825012369016 L481.4840569866996,126.62669590384724 L480.3625942379779,127.76362062544527 L478.02685803029635,131.44798630078432 L477.85740817296653,132.76000958913107 L478.6526272129683,135.86679318665307 L477.17046829490926,138.43490549896865 L475.81276010194307,139.76516822135176 L472.99328322271197,143.72190944496674 L471.4457349406205,146.3994583615002 L470.4058331190797,148.7170824463835 L466.9626963914998,154.59139616835142 L461.27804038935994,162.78333397520268 L457.18804113587305,169.4577508702309 L455.0386294601106,174.33254360700803 L454.16114638148713,178.16890456598333 L452.9363262509088,182.0052655249584 L452.4279766789173,184.64268768661202 L451.94282978448683,189.03839128936798 L451.43448021249554,191.59677590353095 L450.7419154429088,198.62260589432594 L449.50443930638875,200.40763850534827 L448.11579421000926,202.9526475345512 L446.64418196356866,206.4594827186032 L445.31108267104366,208.428125632258 L444.2838368554437,209.4361583533326 L440.6459382586514,211.79026130628853 L433.09311515723107,214.5273923740074 L428.28875467947944,215.29588052807134 L423.2622109863075,214.9590589795341 L421.8742690013696,214.57481490250183 L419.98571167029405,213.13389961363166 L418.62519103156336,211.16525669997688 L415.8204794925977,207.99524306446241 L414.34886724615643,207.3714544204198 L410.54433123779745,207.1319098534093 L403.29665850185995,207.3714544204198 L398.96408580115775,207.61099898743026 L396.3745263632001,206.3439663030398 L395.8035998729426,196.63815547117298 L395.15251867838725,189.88348506638454 L394.72783936789915,186.8496592050083 L394.33198762650136,178.72459932295675 L394.4451885685349,176.22822878451754 L395.2938440780689,170.55090095014174 L395.4351694777506,167.95725343017548 L395.20876759368326,159.29473822518688 L394.0486337156957,152.0013965351922 L393.31317914819533,150.1908287165191 L389.0959167238507,145.29658058343674 L387.5961800197607,142.60444011967408 L384.42655364281,136.38965696236124 L382.813615996687,129.97788791745597 L382.16253480213084,124.39783706460754 L381.65277900725783,120.87397840878818 L381.1156018661776,118.7205092302319 L380.23811878755413,116.81144846776255 L379.1061093672146,114.9036036675622 L377.4362196943532,113.3374442649758 L372.3140528451778,109.7637311561238 L366.7383791164248,106.09274106574476 L362.38049440383844,104.03776483098474 L359.23899248453665,102.96042226057193 L357.14442350118713,102.0800655777516 L352.2486585360791,100.61118315669239 L350.1259650950824,99.14351669790221 L346.3340850926659,94.98370977534955 L344.6923198774526,91.80153651714413 L343.730463425885,89.50093590402804 L343.10750668897765,88.52208627741163 L340.8997367635945,85.83116177591818 L339.71147842795887,81.27859904044969 L338.2961150968144,78.2934116698367 L337.1641056764748,77.31456204322014 L332.91942190592215,75.01396143010413 L330.71165198053984,72.6647223262245 L327.78248971648117,68.53045061132266 z"/>
	<path id="kars-digor" title="Digor" class="district" d="M476.56087067538505,321.6585321298069 L477.4566346514796,322.38567756672177 L477.8981886365556,324.10626417748273 L478.8509046393883,325.14591191755346 L480.2578306332382,325.424367277175 L481.64225706097073,324.73005282152513 L482.7988753817521,325.59703391938564 L483.24042936682895,327.14130600112827 L484.7275100649765,328.38888328921337 L485.4271059489757,330.00854503163964 L486.3306041509233,330.55572805272965 L486.499350896813,332.32860104106095 L488.52009317883466,331.95651658672 L488.9623502753522,333.1809905916924 L491.0309041353767,335.71627192274264 L492.1924442362458,336.0676850185092 L493.16765980519745,337.01735155066757 L494.1913900635912,339.4991305418778 L494.4606817455728,341.8264823249139 L496.33939551647194,343.9690078430481 L496.3724417542078,345.90725169997563 L496.0314327052236,347.4600355176021 L494.79817523735136,347.36275853607503 L494.78059745132043,350.8464904370144 L495.104028714275,351.92626493196525 L495.7691721376545,352.62422727442214 L496.00330824757566,353.6188844105369 L495.7825312550377,355.1351893600907 L496.57423473783336,356.36209528960114 L495.9554966695736,358.75632499743693 L495.85213928771697,360.3881463625542 L494.4023234959521,360.17900085227086 L494.1499064885599,362.0637423693586 L493.2618767383186,362.6741554284413 L492.2381464799249,364.62577487032877 L492.49196971019944,365.27023487294565 L492.5833741975559,368.31743631928214 L492.1586948870686,368.94122496332494 L491.01402946078724,369.13456296410976 L490.4873989913249,369.68539387200724 L490.7201288783637,370.84785380125584 L489.96147163330403,372.1939240331375 L489.8377240196518,373.95706932331615 L489.15711214456604,375.2204541208992 L489.92069116971425,377.00548673192174 L489.80467778191525,378.2494161331994 L488.04619606746206,382.4615094333231 L488.788681749374,384.40340117705796 L488.8505555562009,385.2436311049983 L489.70342973438255,386.2176168825385 L490.73208177286466,388.3844616460546 L491.08434060490737,390.5537383341092 L493.1655504708736,393.36625906251135 L494.0929544618223,395.5926859772132 L494.36013680948,397.32421624839554 L494.91700107091435,398.9256385567855 L496.961649141937,400.4772064121428 L497.2442999413019,402.6100042321245 L498.50568186682295,403.7213937460717 L498.48740096935126,406.45122904017614 L500.85477719188776,408.62050572823046 L501.21898891843136,410.9733927189173 L500.0940106125042,413.75308246605437 L500.0476052573845,414.874199678154 L501.95092792872543,415.94789436175955 L502.3263894383291,416.55952338311124 L502.3186552124753,418.2959175033699 L502.6948198335197,419.93138675529457 L503.8788595005083,420.8190392117292 L504.8611061838716,420.16971536003587 L505.69851191034684,421.430668233081 L506.35592110787235,421.64224566790244 L508.08205969602966,420.855518079802 L509.3961749796414,421.14370113757604 L511.10403267032785,422.5846164264462 L511.85776813529924,423.50023601507 L512.9356379746657,425.51751741948857 L513.3694577338892,427.41806644607436 L514.4044377753423,427.2806627096673 L514.7334939298263,428.64740430012284 L513.8208552791423,429.032864339424 L513.8011681587884,429.82688770113907 L514.6027152017625,430.41054959030186 L514.523966720347,431.2787466504312 L513.2091483252943,432.2028779749386 L514.0493664975336,434.96797617484646 L513.8496828482312,436.6800510497236 L514.8516166519485,437.9276283378088 L514.5886529729377,439.0645530594067 L513.4404719894509,439.7807548359002 L513.266100352032,440.6647594055275 L513.6717956536074,441.8624822405801 L514.8319295315952,442.51545397908063 L514.8593508778017,443.38365103921006 L512.963762432314,443.9356979093764 L510.39459322615176,442.3950737144408 L507.61378747618807,442.35494695956106 L506.53451141393833,443.2523271141485 L506.54787053132156,444.48896074181187 L507.41199449256254,444.73093723336046 L508.05393523838165,446.75794633593154 L509.20070999898616,447.488739659654 L509.7723396006859,449.4391431392723 L510.5823239809533,450.43136835084874 L512.3105719034345,453.85308617606466 L514.3242830710446,455.2465789364403 L516.2015906190613,456.9695974717391 L516.9497011925033,458.72179910149623 L518.8354460778141,460.8363574874416 L518.6294344255409,462.19093945520643 L519.5849628741378,464.5596339553915 L519.4007476765432,465.32325826037936 L520.6740824965636,468.181985555007 L521.8349194859928,468.4081545370576 L522.5169375839616,469.5341355982339 L523.3916082168205,469.9706660528367 L523.8929266743988,471.6219428142593 L523.8352715362203,474.09642603185495 L524.3963544663009,475.33913947086364 L523.5814483059459,475.73067932151037 L522.4740477860481,475.4996464903836 L520.9173590552213,476.2425994367967 L519.6953513704075,476.0589891341643 L517.1395412816287,476.95636928875183 L516.0244065358777,476.8724678921847 L514.4888111482865,477.24820023333325 L512.8512646017217,478.0774865008517 L511.3796523552803,478.3997165021601 L510.6364635619261,478.90434084383196 L509.94952368387027,480.2978336042079 L508.5981434938743,480.0035707350882 L507.91612539590545,481.4858287411078 L506.60974433814766,483.4179927866895 L505.6085136458719,484.10865935553215 L506.3186562014889,486.0967576654924 L506.1323316695697,487.37838189711204 L505.62960698910825,488.1663254474814 L505.49812514960297,489.74342851048965 L504.9166519877268,491.30472406399963 L502.890284814175,491.721799122297 L501.6380433373902,491.54062074420295 L500.15658753077116,494.3555733971435 L497.71608771834997,494.3920522652161 L496.8814944376399,494.0309114712967 L495.4204288628165,492.65930603176463 L490.7053635380982,489.4126867732975 L489.1409405814181,489.19624548939964 L487.9512760228995,489.48442854717376 L484.5088424067617,491.7935408961732 L482.9648096818772,493.20040924150896 L481.42710495996204,494.9976014752223 L479.6517485709202,498.2186855260385 L479.21581947737354,498.2430047714202 L474.75246804860666,497.10364812528417 L469.8117039512612,496.48958717939433 L465.44819434714555,498.0897935255151 L459.45205997655216,500.9558165937574 L458.7841041074073,498.922727679841 L457.54522174800496,493.5043998087814 L456.0152512519437,489.93433458673644 L455.0435512401983,486.65731627154224 L453.82927778123855,480.7355800210799 L453.29491308592304,475.4424962637364 L453.24639839648,470.8218396411988 L453.05233963870705,469.5621027304229 L452.1045454159627,467.92420155396024 L449.5058455292704,464.7736433147512 L445.0368692089743,460.6989537510346 L440.95671351566426,456.87718433928853 L435.8317342207228,451.8783634510644 L434.86003420897816,450.4082650677362 L432.9412430859308,445.53590425549726 L429.90520788280867,442.1336418265868 L427.84087269143265,440.07501770501955 L422.6434729180478,434.53022975797455 L420.9672552422157,432.09465733298975 L417.42146424422054,427.7682635795717 L415.6482171895026,425.1211137197654 L413.09803199225314,421.0476401183178 L411.8591496328507,417.2672134237209 L410.0134820996881,413.6545895222581 L401.2695882168674,402.1880653247508 L399.2052530254899,399.2892112752429 L395.70797671693845,393.6653857807074 L394.57877974236345,392.6622169087092 L391.738912631339,390.55009044730184 L388.2275740939627,388.4379639858946 L384.19663620153574,384.951800160417 L382.8227564454225,383.9486312884188 L380.318976603292,383.6324810984557 L378.60900957828255,383.6324810984557 L376.9602132486583,383.0512511338312 L372.62482810218995,380.9914110499949 L372.2275701379091,371.80360014475986 L372.34991152867906,369.79726240076326 L373.0213829550293,366.3646009151257 L374.3347951271996,362.08806161474024 L374.4648707438226,360.5158224008084 L374.12175236051473,358.6505362800265 L373.54520097872705,353.82559799628194 L373.4242658108395,347.90021385901224 L373.6668392580547,346.64169291050536 L374.90994028610555,343.33792342539107 L377.5480144135045,338.9337080867513 L379.36696371190084,334.7386382583951 L383.3395433547078,327.23979894492453 L386.06831885802325,321.5247762802071 L389.858089526116,316.54297886375036 L392.16288883038476,314.07822334430716 L398.5302660419335,310.0922990262342 L405.56489601118614,306.63167040840756 L407.5054835889114,306.15987704800125 L414.0240297603195,306.474811275695 L417.29912285345074,306.474811275695 L419.1180721518476,305.268576704759 L423.0906517946531,303.38018730086407 L426.2743404004286,301.54530023680906 L435.8556400097238,299.02825833979534 L438.1906731059646,299.86727230546654 L443.52658583326706,303.7996942836997 L445.19436617180384,305.8972291978779 L446.55910547918234,308.2574119621792 L449.1360089111975,311.1939608420288 L455.80713026534664,314.9172373099785 L460.60516274012735,317.1059693943385 L462.947930062222,318.4046170977252 L464.7211771169393,319.89903472643545 L466.31302141982655,320.80371065463737 L468.1783760733426,322.45498741606 L470.63434433747017,323.1237666640589 L475.11386732938564,323.24171500416054 L476.56087067538505,321.6585321298069 z"/>
	<path id="kars-kagizman" title="Kağızman" class="district" d="M372.62482810218995,380.9914110499949 L376.9602132486583,383.0512511338312 L378.60900957828255,383.6324810984557 L380.318976603292,383.6324810984557 L382.8227564454225,383.9486312884188 L384.19663620153574,384.951800160417 L388.2275740939627,388.4379639858946 L391.738912631339,390.55009044730184 L394.57877974236345,392.6622169087092 L395.70797671693845,393.6653857807074 L399.2052530254899,399.2892112752429 L401.2695882168674,402.1880653247508 L410.0134820996881,413.6545895222581 L411.8591496328507,417.2672134237209 L413.09803199225314,421.0476401183178 L415.6482171895026,425.1211137197654 L417.42146424422054,427.7682635795717 L420.9672552422157,432.09465733298975 L422.6434729180478,434.53022975797455 L427.84087269143265,440.07501770501955 L429.90520788280867,442.1336418265868 L432.9412430859308,445.53590425549726 L434.86003420897816,450.4082650677362 L435.8317342207228,451.8783634510644 L440.95671351566426,456.87718433928853 L445.0368692089743,460.6989537510346 L449.5058455292704,464.7736433147512 L452.1045454159627,467.92420155396024 L453.05233963870705,469.5621027304229 L453.24639839648,470.8218396411988 L453.29491308592304,475.4424962637364 L453.82927778123855,480.7355800210799 L455.0435512401983,486.65731627154224 L456.0152512519437,489.93433458673644 L457.54522174800496,493.5043998087814 L458.7841041074073,498.922727679841 L459.45205997655216,500.9558165937574 L454.1316157009568,502.7238257330126 L448.87656078939284,500.49010304469647 L439.63627022908173,493.93363448976964 L433.66685409325333,489.5598182078572 L429.3898271964056,489.0369544321491 L423.95407264445265,492.9219538818878 L415.74594967982995,487.89759778601297 L415.3008801375477,487.8428794839039 L415.64610785517874,496.20262008388937 L415.3761130617556,499.7690374191268 L415.30228636042926,507.11344952442306 L415.8176670468323,510.2117213860614 L416.75069592931106,512.0368807519636 L417.83067510300157,515.136368575871 L419.00908987846014,521.504362979089 L418.9844809780191,523.8815692151577 L418.66526838371146,525.8769632987323 L417.4383389188093,528.9752351603706 L416.4807011358886,530.418582373779 L409.0185794103839,538.4427173874959 L405.3856025936793,542.1781534781368 L402.7341693488971,545.235082622626 L399.469622927383,547.782523576367 L397.2963054626203,549.0933309024447 L396.02929864556916,547.8603451615887 L394.6301068775725,547.5867536510438 L391.14478346352035,548.2263498045844 L387.5279782099637,549.6417298858039 L380.00327956619134,551.468105213975 L378.6033846867532,552.0165041973343 L376.35975607786895,551.9702976311089 L371.36907106819893,552.107701367516 L368.7816209645652,552.0165041973343 L362.04932891503074,552.9746824653762 L358.7489238100169,553.8428795255057 L356.2936586573301,555.4406539470882 L353.81167526987684,557.4044330116668 L351.2769585243344,560.0977894376983 L348.4785749883398,562.6549580895922 L347.50125008506586,563.3395448470892 L344.9405182161978,564.024131604586 L339.97655144129345,564.6637277581269 L338.72712241027256,564.3293381341273 L336.17271854437615,562.6877890708575 L334.29962966500693,562.2670661257529 L333.56979998903677,562.5199862777233 L329.8475280192995,565.8857698385611 L328.6072394370141,567.5686616189801 L324.98269995760415,569.0411919268465 L323.37679342589354,568.4940089057566 L318.973909581069,565.1707840243369 L315.7627996290878,562.352183484589 L313.1837868627495,561.4681789149614 L306.6891464803418,560.2899114762143 L305.1563635385159,559.8691885311097 L303.9399807452314,559.9530899276768 L300.85050907257875,560.6692917041703 L298.41774348601064,560.7531931007372 L295.40139540324253,561.846343180648 L293.3820593441024,563.3614321679325 L290.7060171988776,567.0214785978899 L288.7605078410645,568.5779103023236 L283.28678527128653,571.6907737111911 L281.8517348197872,572.2379567322808 L276.8645653673227,574.4680315337899 L274.09149384321137,575.5198388965516 L265.5282996007805,577.0337119215671 L254.5815575726653,579.810969744166 L248.01309048893123,580.6949743137934 L240.59385856134017,582.3353074147943 L238.48733668349132,583.2667345129164 L237.41579484709476,580.328969670798 L236.90322660645717,578.4162610215211 L235.39856812227924,577.5723832067737 L234.82975096634408,576.3065664846521 L234.91060878208276,575.0966840269087 L233.98320479113409,573.5487640583586 L232.5354983336938,572.2829473362372 L231.16935280343372,571.6080882768929 L230.5021000457297,571.7491399001073 L229.2336870057969,570.1732527993682 L227.86683836409463,567.922506639285 L228.19237896137304,566.4876711617601 L227.63903025714492,565.8687463667939 L227.0863846643576,563.5061316779545 L227.2488034072757,561.4523714054632 L226.46834970753875,559.9895687957494 L226.82623343111223,558.723752073628 L226.4845212706859,555.4321422112048 L226.04507661993298,553.7431706194404 L226.19132379970392,552.2524008775375 L227.07021310120973,550.0867720762905 L227.2649749704236,548.7638051275218 L229.4284488750108,544.9104206967792 L230.64553477973521,543.1776744633278 L231.72199839621956,544.3510780529983 L232.52846721928142,544.618589752198 L234.1596857628769,543.5132800495961 L235.67489091867182,542.9490735567391 L236.59596690665117,541.8583554013662 L238.2208574472743,541.2783413990111 L239.84363865357508,539.5249238069852 L240.41878381248037,537.687604818392 L241.5451683412899,537.0467927025823 L243.10185707211753,536.6880838332008 L244.1016815415102,535.7384173010424 L246.28132700924456,530.365080033939 L247.27412036422555,529.212347802843 L249.01432118120692,528.1423010060447 L251.1616235226462,527.2704560591083 L252.61354864873343,527.7386015327073 L254.7474918727895,525.6994328074455 L256.1586365352878,527.0005124353704 L258.4142180386715,526.7330007361709 L259.55677413062966,525.7176722414818 L260.75136046923615,525.5389257879256 L261.55501684653336,526.3767237913279 L263.2748274317199,526.3414608855242 L264.016610002191,528.1751319873101 L264.71690899763087,528.4073807807061 L265.1591660941477,526.2344562058446 L266.14774078048174,525.8781792610015 L268.27254355580226,523.2517007597697 L269.97407324351707,521.5639451302743 L271.3964676890747,519.3448139891873 L272.4834779771776,516.6928002803046 L273.06916980769995,514.0882090999164 L273.152840069204,510.32602183935575 L271.84224034279845,503.4777223398476 L271.45201349293,497.35292039044725 L270.41984589724086,487.22517065120684 L269.8067327205112,484.8139174716037 L266.9063980255415,479.7494346208487 L265.76313882214254,478.30243952063313 L264.5355062458002,475.93982483179366 L264.2015283112278,474.44419124081423 L263.7831770037106,470.92398047180245 L263.0575659963873,468.6087883114572 L260.24090156292164,466.6316336619188 L259.6552097323978,464.65447901238036 L260.0461396937078,456.4066069411512 L259.7951289091979,447.9179743406422 L258.93030183651604,442.5653084321135 L257.2294752602421,437.45340305286413 L256.61565897207095,429.15810845314024 L256.8947942142289,425.1551606632999 L256.778077714989,420.38494068166466 L258.61038613076846,418.4843916550788 L260.198011765008,417.3219317258299 L261.63306221650663,417.16385663084844 L262.9767081806487,418.0612367854358 L264.32035414479077,417.9031616904542 L266.1217256571575,416.7419177234747 L267.52654231668424,415.3155939818335 L269.1753386463091,412.0945099310171 L271.6481815850254,405.01882548718953 L273.51142690421756,400.4249200345719 L274.70179457417777,396.2529534893283 L279.0378828320869,390.65587916471264 L283.8928673336045,385.11109121766765 L292.01450759096,378.03540677384 L296.3505958488692,374.65503166577315 L298.0907966658498,373.7576515111855 L303.1595270454945,372.4371164869551 L304.9306647658887,372.1732526745628 L307.2509325218645,372.64869392177644 L310.67086657188435,372.96606007400874 L312.74715465776126,373.49378769879337 L317.5409684638943,375.34205034780825 L320.1059190014094,376.60908303219895 L324.83856211215783,379.24893711839036 L329.14441657809505,380.8333359550132 L333.5712062119191,382.5758098866175 L335.03719356683035,383.2628285686526 L336.19732744481865,384.16020872324026 L338.51829831223546,386.48391261946887 L342.9148541540876,387.4870814914672 L346.3650219960793,387.96252273868083 L350.82345164475754,387.539367869038 L355.43375336473684,385.48074374747057 L363.70867191627343,382.36544841406516 L368.4413150270219,381.30877720222696 L371.2811821380479,380.88683829485325 L372.62482810218995,380.9914110499949 z"/>
	<path id="kars-merkez" title="Merkez" class="district" d="M518.7686504908995,250.71321353982086 L518.6962300124549,252.71711935927937 L517.9199949813656,253.20593619145302 L517.0994639294797,254.55808623467973 L516.5271312163391,256.5449685823708 L515.265749290818,258.274066929015 L515.2516870619941,260.1977192387136 L515.7326152877781,260.834883467716 L515.4288711451768,261.80035750937276 L514.4290466757843,262.23202411489916 L514.1717078883042,262.89472355155243 L514.2680341557484,265.14182182482875 L513.4018008601844,266.08905643244884 L512.4589284175293,264.7138031061093 L511.0667677639436,266.4307418300628 L510.6336511161616,267.6223848537697 L511.6285538054663,269.1253142183635 L511.4598070595775,270.6890416964117 L509.6380453154158,271.417403095596 L508.91735608818107,272.458266797936 L507.3156682251176,271.2702716610361 L503.43308684678453,273.3434873298325 L502.9739550756783,275.1905340165784 L503.3001987843977,278.59522837002703 L503.715034534708,279.44761792065833 L503.9308897471581,281.9901950253231 L505.3328939609202,284.6847674136239 L505.6654656726095,285.7195513046182 L505.5628114021937,288.08946176707235 L504.5369718094761,289.16194048840873 L503.85214126574346,288.8482222229838 L503.09629646644754,287.7307528976912 L503.17293561354,286.0575888154251 L502.21600094205945,285.6113306626694 L501.89116345622324,286.8564760262164 L501.01719593480595,285.9153212299417 L500.9989150373349,284.5315561677187 L500.44486322166534,284.38564069542804 L498.7222401907141,285.9286968149017 L499.7213615486659,287.853565086869 L499.9920594535299,289.37473388549927 L500.47298767931403,290.18091686990516 L501.3743765469379,290.6040717395481 L502.0085830669045,291.9075832920114 L502.06342575931825,292.94358314527506 L501.2850813939052,293.5770994874703 L500.68040555446885,294.9669443610386 L498.1801412695453,295.0703011539113 L498.0634247703048,292.3368179729996 L496.586890743775,291.8589448012478 L496.0834629518728,292.0547147265709 L495.899950865719,293.78259711094614 L495.031608235831,294.51460639693767 L493.74702363275054,297.75636180632836 L493.0973486610765,297.4548031635944 L492.2775207206323,296.27896764938555 L491.6686262125488,296.5318878013558 L491.06887215320097,298.1697889778187 L490.00647076554156,299.3456244920275 L487.03301248068624,301.3191312547587 L486.3256823708348,300.7415491769415 L485.21687562805545,301.394520915442 L484.285252968459,302.74059114732347 L482.64137841892256,302.49131888216 L482.1168572837833,302.7709902040507 L482.2399017859948,304.18637028527013 L481.4116365082557,305.5239287812676 L481.93967320060045,306.6158628989094 L481.657725512677,307.37097546801346 L479.9414304846967,306.5769521062986 L478.18013632447895,308.0178673951687 L478.7524690376196,309.8150596288819 L478.17451143294886,311.1793692947996 L478.62450275532035,311.8238292974168 L478.4445062263721,313.74504968257685 L477.12476605123106,315.0813922163055 L476.61008847626874,314.4867866667211 L475.7818231985297,315.45590859518484 L474.7967640694025,315.4923874632577 L473.80045515721537,316.6925422228482 L475.10121132344386,316.74969244949546 L475.783229421412,318.79858887291016 L475.13566378406284,321.0444711839171 L476.56087067538505,321.6585321298069 L475.11386732938564,323.24171500416054 L470.63434433747017,323.1237666640589 L468.1783760733426,322.45498741606 L466.31302141982655,320.80371065463737 L464.7211771169393,319.89903472643545 L462.947930062222,318.4046170977252 L460.60516274012735,317.1059693943385 L455.80713026534664,314.9172373099785 L449.1360089111975,311.1939608420288 L446.55910547918234,308.2574119621792 L445.19436617180384,305.8972291978779 L443.52658583326706,303.7996942836997 L438.1906731059646,299.86727230546654 L435.8556400097238,299.02825833979534 L426.2743404004286,301.54530023680906 L423.0906517946531,303.38018730086407 L419.1180721518476,305.268576704759 L417.29912285345074,306.474811275695 L414.0240297603195,306.474811275695 L407.5054835889114,306.15987704800125 L405.56489601118614,306.63167040840756 L398.5302660419335,310.0922990262342 L392.16288883038476,314.07822334430716 L389.858089526116,316.54297886375036 L386.06831885802325,321.5247762802071 L383.3395433547078,327.23979894492453 L379.36696371190084,334.7386382583951 L377.5480144135045,338.9337080867513 L374.90994028610555,343.33792342539107 L373.6668392580547,346.64169291050536 L373.4242658108395,347.90021385901224 L373.54520097872705,353.82559799628194 L374.12175236051473,358.6505362800265 L374.4648707438226,360.5158224008084 L374.3347951271996,362.08806161474024 L373.0213829550293,366.3646009151257 L372.34991152867906,369.79726240076326 L372.2275701379091,371.80360014475986 L372.62482810218995,380.9914110499949 L371.2811821380479,380.88683829485325 L368.4413150270219,381.30877720222696 L363.70867191627343,382.36544841406516 L355.43375336473684,385.48074374747057 L350.82345164475754,387.539367869038 L346.3650219960793,387.96252273868083 L342.9148541540876,387.4870814914672 L338.51829831223546,386.48391261946887 L336.19732744481865,384.16020872324026 L335.03719356683035,383.2628285686526 L333.5712062119191,382.5758098866175 L329.14441657809505,380.8333359550132 L324.83856211215783,379.24893711839036 L320.1059190014094,376.60908303219895 L317.5409684638943,375.34205034780825 L312.74715465776126,373.49378769879337 L310.67086657188435,372.96606007400874 L307.2509325218645,372.64869392177644 L304.9306647658887,372.1732526745628 L304.1459923975047,366.61022529348145 L303.67701706622074,355.89394981600196 L303.7438126531353,348.4802278613675 L303.67701706622074,346.5103689854437 L304.01169811223394,342.10858557134225 L304.01169811223394,336.20022490583983 L303.17499549720156,325.4267992017131 L302.2700910723702,319.5184385362105 L299.35639726001864,311.87246778818024 L297.51424528406216,309.091562078774 L294.0647805535128,304.5158960601929 L293.0930805417682,302.8366521665813 L291.6531083101803,301.04067589513727 L289.10784489301943,298.6659015836066 L286.964058108787,297.33320693668543 L284.0166149472567,296.52216010320325 L278.62445330465823,294.20575198058907 L274.7053101313832,292.1787428780181 L273.4994740097181,291.1938134400561 L271.2888916385696,287.25531165047744 L269.84891940698327,283.78009148542174 L269.2463529018708,281.3469509849749 L269.31314848878543,278.04561342439894 L269.7146251217132,274.45366088151076 L269.7483744708913,270.74740788532813 L270.38469032518043,265.99664329999797 L271.0885048778265,262.40590671937883 L272.16004671422303,259.1045691588027 L272.8631581554275,254.5289031402217 L272.03559598913,249.80853761161885 L270.0837586283453,244.6954162701003 L268.5776939212851,239.82427142013074 L267.6017752408935,235.48450208175285 L267.462559175535,233.21794841217135 L267.6017752408935,231.28821629112738 L268.8568291634438,226.176310911878 L268.6058183789332,221.11182806112336 L268.7731589019398,218.74921337228363 L269.2751804709603,217.97707733141235 L270.1955533474967,217.68767831136924 L271.17147202788976,216.67478174121823 L272.091844904426,214.9383876209595 L272.48207175429445,213.2992704822277 L272.64941227730185,209.58572171243063 L272.2866067736399,207.55992857212865 L271.5898233354062,205.10003690176205 L271.8689585775641,202.3507462113522 L273.06776358481767,198.68583593231855 L273.4861148923342,193.86332957311228 L273.20697965017695,191.54813741276737 L272.063720446778,189.18430676165866 L270.62093576942624,187.26795022557465 L271.4913877336374,185.132720481055 L273.49244289530503,165.22133832472565 L273.88266974517427,160.27723573861064 L273.93469999182327,152.1874387623629 L274.6103900868206,146.20976824752233 L275.5462314150639,143.1078484990769 L276.7935511117611,141.40063747327608 L280.14598646342546,139.51224806938131 L281.28924566682434,139.42226686146867 L286.1238399365471,141.04071264162587 L289.2161240549653,143.15283910303313 L292.4609833561246,146.6985850796961 L297.3412798695262,150.85960796451795 L299.3887403863144,153.21735880428108 L301.9424411407694,157.57779950123359 L302.588600555237,159.25461147030705 L302.9767180707808,163.16757805223477 L303.3001493337355,169.70823909766338 L303.88162249561225,173.11901326245763 L305.3363600674635,178.4862707182154 L308.92433775193143,184.970997499266 L310.0767374040658,187.72636800102123 L310.4648549196112,189.4323630645529 L313.3208935937842,189.84943812285027 L317.85244683234805,190.74803423970687 L323.04351860276194,192.41147062382032 L323.8879554436488,192.78233911589246 L328.0637342929638,195.18751248415018 L334.5154848774572,198.0997421186177 L334.72430897549435,200.3504882787012 L335.63132273464896,201.15180741403069 L337.06848252047064,203.42200897041943 L337.59933165858075,203.77220610391697 L339.67702596733994,203.6639854619681 L341.31738495967096,203.17881651660156 L346.3158041951941,198.6675964982822 L348.48701232563445,197.69482668301117 L354.8944668893321,196.66247471655475 L363.0308724869523,194.11624972508292 L365.5859794642904,193.0121559847503 L369.19575360343475,192.77261141773982 L370.63994450366954,193.34776157101868 L371.5286773653524,194.06882719658836 L374.1386270351041,199.11142272649968 L376.08273017003415,201.32082616943416 L378.6097126897241,203.57765214086285 L382.8579120174829,205.54629505451763 L386.0514441834346,205.78705558379733 L390.5225298380546,205.1620509774855 L392.0778123459992,205.11462844899089 L394.52112460418505,205.4988725260229 L396.3745263632001,206.3439663030398 L398.96408580115775,207.61099898743026 L403.29665850185995,207.3714544204198 L410.54433123779745,207.1319098534093 L414.34886724615643,207.3714544204198 L415.8204794925977,207.99524306446241 L418.62519103156336,211.16525669997688 L419.98571167029405,213.13389961363166 L421.8742690013696,214.57481490250183 L423.2622109863075,214.9590589795341 L428.28875467947944,215.29588052807134 L433.09311515723107,214.5273923740074 L440.6459382586514,211.79026130628853 L444.2838368554437,209.4361583533326 L445.31108267104366,208.428125632258 L446.64418196356866,206.4594827186032 L448.11579421000926,202.9526475345512 L449.50443930638875,200.40763850534827 L450.7419154429088,198.62260589432594 L454.5176238821775,203.98378353873846 L457.2189780392865,206.47893811490863 L459.98150289177926,207.48697083598321 L466.6111406708978,207.91134166789536 L471.0006653983376,207.5939755156631 L473.5178043578513,206.58472683231932 L475.45136082116346,205.31039837431433 L477.3237465890918,201.11776047049614 L478.61325297226097,197.40177977616068 L479.96393005081467,194.90662519999066 L482.36927429117634,192.44430160508557 L488.14885033787874,191.7378275267451 L489.5874163465827,192.5342828129985 L493.99100330284796,195.5413575044549 L495.2305887736912,195.58756407068032 L496.50532981659546,195.186296521881 L498.804504229335,195.186296521881 L500.10104172691655,195.56810867437474 L501.46859348005904,196.66004279201658 L502.12037778605594,197.5501271729897 L502.88676925696967,200.50369952460628 L503.40425927769576,204.01661452000383 L503.3873846031072,205.7712480742989 L503.6897225228246,206.97991456977323 L504.978525794553,209.28659499423475 L505.9298355745027,210.07453854460425 L507.24113841234896,212.3751391577203 L507.99698321164414,217.06145774278855 L508.5264261268719,219.22465461949741 L509.6064053005618,222.69622689774602 L510.23709626332214,223.94988399717653 L511.5181653091974,225.29473826678884 L514.5211542745822,226.7660526123862 L515.6721477038343,227.75462993715539 L516.5468183366925,230.28139953232198 L516.8625153737938,233.51585916809805 L516.7204868626707,239.30870341803714 L516.9075145060312,241.89383920211995 L517.520627682761,245.4480969146664 L518.7686504908995,250.71321353982086 z"/>
	<path id="kars-sarikamis" title="Sarıkamış" class="district" d="M68.62897160583124,367.5124692971454 L69.6323116324308,363.7417703007012 L70.37339109145964,361.89472361395514 L72.68451839869937,358.8402263940041 L74.75588470448854,357.7081655214825 L78.16175652568353,357.7495082386315 L80.53405452830786,358.2371091085361 L84.19656202554282,359.9710713042568 L85.30888432552909,360.83805240211694 L91.54477969757305,367.2486054847532 L94.8367474652936,369.1333470018408 L97.06139206526463,369.62459575855263 L99.56868746460053,369.85076474060327 L102.35933677474206,370.3784923653878 L106.17512256615892,370.90621999017225 L111.18971336483067,371.7732010880326 L113.39185839868445,371.4716424452987 L115.31064952173111,370.49157685641313 L119.86751477217823,366.1931502351842 L121.41576616571119,365.59003294971603 L126.01622432551345,365.40034283573834 L127.82603317517341,365.6654226103996 L131.1397973975719,367.2486054847532 L134.60683991415152,368.19097624329703 L136.04610903429779,368.3417555646641 L141.54022183587068,368.53022971637296 L142.5217654077923,368.11558658261345 L145.33421117261028,366.00467608347543 L148.12486048275258,363.06326335454963 L152.07142500223407,356.8411844236222 L153.88123385189473,354.9941377368763 L156.84625479945527,353.5982130519623 L161.05437677506444,352.01503017760865 L164.73938383841738,349.97829337688506 L168.4897802658034,346.8861013265922 L169.5142136356386,347.00040177988654 L171.21504021191262,347.75429838672164 L172.80688451480003,347.67890872603795 L173.89670724866752,346.5468478535165 L174.98723309397585,344.4736321847199 L176.557280942186,340.212900393833 L178.45357249911464,326.8263717734342 L180.84133895344604,325.67242358006894 L183.0118439724448,325.4328790130584 L183.78175100056322,325.6991747499889 L184.2584605577004,326.57831547054013 L188.50806610834084,326.31201973360976 L190.09358240825736,324.6072406323473 L192.17197982845815,324.0478979885664 L192.7879054509539,323.0897197205243 L196.72884507890603,320.74656042799023 L199.16090755403258,320.05467789687873 L200.44338282279006,320.05467789687873 L204.47361760377478,320.6346918992341 L211.52723158194,324.1208557247117 L214.88599493657446,325.9679024114576 L216.93134611903872,327.2361510581174 L219.89355462083458,329.61214133191663 L222.54990964570533,332.04163394555604 L228.93134908607874,338.16643589495646 L230.4275702329626,340.2262759787929 L231.58770411095023,342.60226625259236 L233.78633358759635,345.9291390208194 L235.67910958731952,349.9953168486521 L238.24406012483385,353.004823464647 L241.23650241860162,356.9129261974984 L243.28255671250668,360.18629662588546 L244.3815198951097,366.998117257321 L244.7176071640052,370.3784923653878 L245.02275752948808,378.8792845885875 L245.0536944329015,382.9989647562604 L244.68667026059177,384.951800160417 L244.2591785043398,389.01797798825 L243.4041949918357,393.7176721582783 L241.96914454033643,398.47086866814635 L241.38907760134262,399.31596244516294 L240.22894372335503,400.1598402599106 L239.40489711426295,401.16422509417805 L239.06880984536744,402.21968034374703 L238.91623466262564,405.91620564177686 L241.32790690595806,417.3219317258299 L242.00008144374985,418.378602937668 L243.71004846875937,419.2236967146848 L244.2901154077532,420.0675745294325 L247.9237953358986,422.70864457789327 L249.87774203100636,422.49706714307183 L251.1602172997632,421.2300344586813 L251.8316887261142,420.96617064628896 L255.25162277613325,421.1765321188414 L256.778077714989,420.38494068166466 L256.8947942142289,425.1551606632999 L256.61565897207095,429.15810845314024 L257.2294752602421,437.45340305286413 L258.93030183651604,442.5653084321135 L259.7951289091979,447.9179743406422 L260.0461396937078,456.4066069411512 L259.6552097323978,464.65447901238036 L260.24090156292164,466.6316336619188 L263.0575659963873,468.6087883114572 L263.7831770037106,470.92398047180245 L264.2015283112278,474.44419124081423 L264.5355062458002,475.93982483179366 L265.76313882214254,478.30243952063313 L266.9063980255415,479.7494346208487 L269.8067327205112,484.8139174716037 L270.41984589724086,487.22517065120684 L271.45201349293,497.35292039044725 L271.84224034279845,503.4777223398476 L273.152840069204,510.32602183935575 L273.06916980769995,514.0882090999164 L272.4834779771776,516.6928002803046 L271.3964676890747,519.3448139891873 L269.97407324351707,521.5639451302743 L268.27254355580226,523.2517007597697 L266.14774078048174,525.8781792610015 L265.1591660941477,526.2344562058446 L264.71690899763087,528.4073807807061 L264.016610002191,528.1751319873101 L263.2748274317199,526.3414608855242 L261.55501684653336,526.3767237913279 L260.75136046923615,525.5389257879256 L259.55677413062966,525.7176722414818 L258.4142180386715,526.7330007361709 L256.1586365352878,527.0005124353704 L254.7474918727895,525.6994328074455 L252.61354864873343,527.7386015327073 L251.1616235226462,527.2704560591083 L249.01432118120692,528.1423010060447 L247.27412036422555,529.212347802843 L246.28132700924456,530.365080033939 L244.1016815415102,535.7384173010424 L243.10185707211753,536.6880838332008 L241.5451683412899,537.0467927025823 L240.41878381248037,537.687604818392 L239.84363865357508,539.5249238069852 L238.2208574472743,541.2783413990111 L236.59596690665117,541.8583554013662 L235.67489091867182,542.9490735567391 L234.1596857628769,543.5132800495961 L232.52846721928142,544.618589752198 L231.72199839621956,544.3510780529983 L230.64553477973521,543.1776744633278 L229.4284488750108,544.9104206967792 L227.2649749704236,548.7638051275218 L227.07021310120973,550.0867720762905 L226.19132379970392,552.2524008775375 L226.04507661993298,553.7431706194404 L226.4845212706859,555.4321422112048 L226.82623343111223,558.723752073628 L226.46834970753875,559.9895687957494 L227.2488034072757,561.4523714054632 L227.0863846643576,563.5061316779545 L227.63903025714492,565.8687463667939 L228.19237896137304,566.4876711617601 L227.86683836409463,567.922506639285 L229.2336870057969,570.1732527993682 L230.5021000457297,571.7491399001073 L231.16935280343372,571.6080882768929 L232.5354983336938,572.2829473362372 L233.98320479113409,573.5487640583586 L234.91060878208276,575.0966840269087 L234.82975096634408,576.3065664846521 L235.39856812227924,577.5723832067737 L236.90322660645717,578.4162610215211 L237.41579484709476,580.328969670798 L238.48733668349132,583.2667345129164 L232.59034102610752,585.9114524481845 L227.23825673565793,587.9299498148717 L221.30258994900822,588.8139543844995 L217.0213443835136,589.6128415952907 L214.56396989650293,590.3703860889333 L211.2073158761923,591.8429163967996 L201.47625352992003,594.4098127468461 L192.88915349848662,596.4283101135336 L190.3108438435899,597.3123146831612 L187.41543092870864,597.9847418179673 L188.17830684241613,591.983968020014 L189.35601850643397,585.1210769732769 L189.6611688719168,581.4634624678577 L189.72655823594837,576.9388668645782 L187.98213875031996,565.8529388572958 L186.78263063162495,562.2330191822183 L184.82024659922246,555.8224660995822 L183.03293731568047,552.3533257458719 L180.2851778034525,547.9795094639594 L177.77788240411738,544.6611484316162 L175.31417991413585,542.7374961219175 L171.62917285078217,540.8904494351718 L167.46464378452734,537.9490367062458 L159.0483998333076,528.1824277609247 L158.63426719443808,527.4662259844315 L157.95857709944076,524.9783671818757 L157.13031182170172,522.8285458901266 L156.21415761381164,521.2076681854314 L153.70686221447573,517.8139174924046 L151.74447818207398,513.2504110965143 L151.1777703604634,511.6672282221607 L149.14999696402862,507.481886091957 L146.59910865533834,502.7311215066271 L144.96367144309588,501.22211233068793 L143.85134914311035,499.8650984383848 L143.13206613875798,498.2430047714202 L141.71459347328968,494.01996781087513 L139.40346616604992,488.3645272973429 L138.3136434321824,486.1393163449106 L136.54742749187608,483.6502415800856 L133.6477959083486,481.7278052326563 L132.62265942707256,481.2377724382135 L129.87560302628538,479.464899449882 L123.18198210601751,476.410402229931 L119.75853249879228,474.4879658825016 L111.47306727563635,470.60418239503196 L110.09989063096388,469.5110323151211 L108.29008178130245,467.248126532347 L106.78542329712532,464.7590517675221 L104.82303926472285,462.64814126838377 L101.77083249845356,460.87526828005247 L98.28199352719602,459.4805595574076 L95.03361866882985,458.651273289889 L92.61280597676264,457.74538139941785 L90.89088605725297,456.72762098019064 L89.99652830404082,455.82294505198865 L88.64514811404482,453.22078579613867 L83.1939251103848,448.58310570183386 L77.63371983333883,444.4354584019718 L75.03923861529418,442.7756699046658 L72.35757157853931,441.4563508427044 L70.98369182242533,440.21242144142656 L68.36741414970277,436.63019659669095 L65.48957902085247,431.3504884243073 L64.72599999570417,428.9003244520935 L62.24050105104548,422.1128230660399 L61.34684640927487,418.83215686403815 L60.671156314277596,415.1745423586191 L60.34350638267603,412.98702623652844 L59.82039147041909,406.01105069876587 L59.79859501574262,403.63627638723534 L59.99476310783807,399.8655773907911 L61.499421592016645,389.94818912410295 L62.10972232298161,386.81830224346834 L63.178451713612745,383.76380502351714 L63.766955989901255,381.2382513906198 L64.07210635538411,378.86226111682043 L64.61701772231751,377.05290926041613 L66.09987975181743,373.6214637370476 L67.95328151083324,370.0015440619704 L68.62897160583124,367.5124692971454 z"/>
	<path id="kars-selim" title="Selim" class="district" d="M270.62093576942624,187.26795022557465 L272.063720446778,189.18430676165866 L273.20697965017695,191.54813741276737 L273.4861148923342,193.86332957311228 L273.06776358481767,198.68583593231855 L271.8689585775641,202.3507462113522 L271.5898233354062,205.10003690176205 L272.2866067736399,207.55992857212865 L272.64941227730185,209.58572171243063 L272.48207175429445,213.2992704822277 L272.091844904426,214.9383876209595 L271.17147202788976,216.67478174121823 L270.1955533474967,217.68767831136924 L269.2751804709603,217.97707733141235 L268.7731589019398,218.74921337228363 L268.6058183789332,221.11182806112336 L268.8568291634438,226.176310911878 L267.6017752408935,231.28821629112738 L267.462559175535,233.21794841217135 L267.6017752408935,235.48450208175285 L268.5776939212851,239.82427142013074 L270.0837586283453,244.6954162701003 L272.03559598913,249.80853761161885 L272.8631581554275,254.5289031402217 L272.16004671422303,259.1045691588027 L271.0885048778265,262.40590671937883 L270.38469032518043,265.99664329999797 L269.7483744708913,270.74740788532813 L269.7146251217132,274.45366088151076 L269.31314848878543,278.04561342439894 L269.2463529018708,281.3469509849749 L269.84891940698327,283.78009148542174 L271.2888916385696,287.25531165047744 L273.4994740097181,291.1938134400561 L274.7053101313832,292.1787428780181 L278.62445330465823,294.20575198058907 L284.0166149472567,296.52216010320325 L286.964058108787,297.33320693668543 L289.10784489301943,298.6659015836066 L291.6531083101803,301.04067589513727 L293.0930805417682,302.8366521665813 L294.0647805535128,304.5158960601929 L297.51424528406216,309.091562078774 L299.35639726001864,311.87246778818024 L302.2700910723702,319.5184385362105 L303.17499549720156,325.4267992017131 L304.01169811223394,336.20022490583983 L304.01169811223394,342.10858557134225 L303.67701706622074,346.5103689854437 L303.7438126531353,348.4802278613675 L303.67701706622074,355.89394981600196 L304.1459923975047,366.61022529348145 L304.9306647658887,372.1732526745628 L303.1595270454945,372.4371164869551 L298.0907966658498,373.7576515111855 L296.3505958488692,374.65503166577315 L292.01450759096,378.03540677384 L283.8928673336045,385.11109121766765 L279.0378828320869,390.65587916471264 L274.70179457417777,396.2529534893283 L273.51142690421756,400.4249200345719 L271.6481815850254,405.01882548718953 L269.1753386463091,412.0945099310171 L267.52654231668424,415.3155939818335 L266.1217256571575,416.7419177234747 L264.32035414479077,417.9031616904542 L262.9767081806487,418.0612367854358 L261.63306221650663,417.16385663084844 L260.198011765008,417.3219317258299 L258.61038613076846,418.4843916550788 L256.778077714989,420.38494068166466 L255.25162277613325,421.1765321188414 L251.8316887261142,420.96617064628896 L251.1602172997632,421.2300344586813 L249.87774203100636,422.49706714307183 L247.9237953358986,422.70864457789327 L244.2901154077532,420.0675745294325 L243.71004846875937,419.2236967146848 L242.00008144374985,418.378602937668 L241.32790690595806,417.3219317258299 L238.91623466262564,405.91620564177686 L239.06880984536744,402.21968034374703 L239.40489711426295,401.16422509417805 L240.22894372335503,400.1598402599106 L241.38907760134262,399.31596244516294 L241.96914454033643,398.47086866814635 L243.4041949918357,393.7176721582783 L244.2591785043398,389.01797798825 L244.68667026059177,384.951800160417 L245.0536944329015,382.9989647562604 L245.02275752948808,378.8792845885875 L244.7176071640052,370.3784923653878 L244.3815198951097,366.998117257321 L243.28255671250668,360.18629662588546 L241.23650241860162,356.9129261974984 L238.24406012483385,353.004823464647 L235.67910958731952,349.9953168486521 L233.78633358759635,345.9291390208194 L231.58770411095023,342.60226625259236 L230.4275702329626,340.2262759787929 L228.93134908607874,338.16643589495646 L222.54990964570533,332.04163394555604 L219.89355462083458,329.61214133191663 L216.93134611903872,327.2361510581174 L214.88599493657446,325.9679024114576 L211.52723158194,324.1208557247117 L204.47361760377478,320.6346918992341 L200.44338282279006,320.05467789687873 L199.16090755403258,320.05467789687873 L196.72884507890603,320.74656042799023 L192.7879054509539,323.0897197205243 L192.17197982845815,324.0478979885664 L190.09358240825736,324.6072406323473 L188.50806610834084,326.31201973360976 L184.2584605577004,326.57831547054013 L183.78175100056322,325.6991747499889 L183.0118439724448,325.4328790130584 L180.84133895344604,325.67242358006894 L178.45357249911464,326.8263717734342 L179.3915231616819,320.5289031818233 L179.7402664365191,314.72268334692444 L179.67487707248756,313.36445349235225 L179.1953550695857,311.21584816287225 L177.77788240411738,306.99281120232695 L177.0803958544422,303.2221122058825 L176.09885228252054,295.22837624889286 L175.70651609832746,286.8941708565582 L175.94627709977948,284.02936375058493 L176.77524548895937,278.5234865961509 L176.99321003573195,272.3767973259069 L177.29836040121555,270.49205580881943 L178.45357249911464,267.66372757091875 L179.8274522552286,265.4008217881446 L182.18217247182275,263.36530094969 L183.0547337703577,261.81981290567796 L183.621441591969,258.7276208553852 L184.53689268841683,254.6930580465486 L185.496639805662,249.48873953484858 L186.01975471791746,246.05729401148 L186.45568381146492,242.21120535435207 L186.56466608485158,239.9872103641886 L186.65185190356107,233.95360558497003 L187.2192628366132,231.20066700775294 L188.0039352049972,228.90128235690608 L188.91938630144642,225.43214200319585 L189.1246948422774,223.58023146737355 L192.40611593838008,228.5048786571831 L194.40717110004775,230.57323047690326 L196.61634724831313,231.87674202936657 L201.7103896398405,233.40399063934197 L204.932749374881,234.03385909472988 L206.75240178471955,233.8089060749484 L210.41701861627837,233.00029116600447 L214.8606829246911,230.61822108085948 L218.83748123614512,227.20136710471996 L220.21487654946455,225.85286494830046 L222.83959155948187,222.93212357794926 L224.8406467211502,221.49364021361717 L229.85664374270357,218.61667348495286 L235.4182552426326,215.6059509066892 L238.8747510875944,212.99892780176282 L244.09886909574556,208.05482521564784 L247.19185632560456,203.91933753847664 L249.32298710389526,201.53726745333185 L251.9216869905876,199.7850658235748 L255.45622820552336,197.2230333226046 L259.64044439213217,194.9309444453723 L264.7084716603361,191.5153064315019 L269.8025140518643,188.32340547514372 L270.62093576942624,187.26795022557465 z"/>
	<path id="kars-susuz" title="Susuz" class="district" d="M327.78248971648117,68.53045061132266 L330.71165198053984,72.6647223262245 L332.91942190592215,75.01396143010413 L337.1641056764748,77.31456204322014 L338.2961150968144,78.2934116698367 L339.71147842795887,81.27859904044969 L340.8997367635945,85.83116177591818 L343.10750668897765,88.52208627741163 L343.730463425885,89.50093590402804 L344.6923198774526,91.80153651714413 L346.3340850926659,94.98370977534955 L350.1259650950824,99.14351669790221 L352.2486585360791,100.61118315669239 L357.14442350118713,102.0800655777516 L359.23899248453665,102.96042226057193 L362.38049440383844,104.03776483098474 L366.7383791164248,106.09274106574476 L372.3140528451778,109.7637311561238 L377.4362196943532,113.3374442649758 L379.1061093672146,114.9036036675622 L380.23811878755413,116.81144846776255 L381.1156018661776,118.7205092302319 L381.65277900725783,120.87397840878818 L382.16253480213084,124.39783706460754 L382.813615996687,129.97788791745597 L384.42655364281,136.38965696236124 L387.5961800197607,142.60444011967408 L389.0959167238507,145.29658058343674 L393.31317914819533,150.1908287165191 L394.0486337156957,152.0013965351922 L395.20876759368326,159.29473822518688 L395.4351694777506,167.95725343017548 L395.2938440780689,170.55090095014174 L394.4451885685349,176.22822878451754 L394.33198762650136,178.72459932295675 L394.72783936789915,186.8496592050083 L395.15251867838725,189.88348506638454 L395.8035998729426,196.63815547117298 L396.3745263632001,206.3439663030398 L394.52112460418505,205.4988725260229 L392.0778123459992,205.11462844899089 L390.5225298380546,205.1620509774855 L386.0514441834346,205.78705558379733 L382.8579120174829,205.54629505451763 L378.6097126897241,203.57765214086285 L376.08273017003415,201.32082616943416 L374.1386270351041,199.11142272649968 L371.5286773653524,194.06882719658836 L370.63994450366954,193.34776157101868 L369.19575360343475,192.77261141773982 L365.5859794642904,193.0121559847503 L363.0308724869523,194.11624972508292 L354.8944668893321,196.66247471655475 L348.48701232563445,197.69482668301117 L346.3158041951941,198.6675964982822 L341.31738495967096,203.17881651660156 L339.67702596733994,203.6639854619681 L337.59933165858075,203.77220610391697 L337.06848252047064,203.42200897041943 L335.63132273464896,201.15180741403069 L334.72430897549435,200.3504882787012 L334.5154848774572,198.0997421186177 L328.0637342929638,195.18751248415018 L323.8879554436488,192.78233911589246 L323.04351860276194,192.41147062382032 L317.85244683234805,190.74803423970687 L313.3208935937842,189.84943812285027 L310.4648549196112,189.4323630645529 L310.0767374040658,187.72636800102123 L308.92433775193143,184.970997499266 L305.3363600674635,178.4862707182154 L303.88162249561225,173.11901326245763 L303.3001493337355,169.70823909766338 L302.9767180707808,163.16757805223477 L302.588600555237,159.25461147030705 L301.9424411407694,157.57779950123359 L299.3887403863144,153.21735880428108 L297.3412798695262,150.85960796451795 L296.83503963185876,150.42186154764596 L297.819395649545,148.9943218437358 L299.1173393700089,145.21024726233134 L299.3261634680468,142.344224194089 L299.0139819881523,139.24230444564355 L298.1048588946737,136.09661005551075 L296.7014484580302,132.9047090991527 L295.9997432397073,130.65761082587662 L295.47944077321574,128.14056892886282 L295.5314710198649,125.75849884371787 L296.59738796473124,119.73583772492111 L297.3251083063784,117.03883341208206 L299.560299577968,111.24112531306662 L303.6404552712787,102.61144108934356 L308.4743464295607,93.80179444979512 L313.4122980811407,84.27351410921536 L317.28503589929596,77.80216291312472 L319.67561479939127,74.83521497654806 L323.3922618775999,70.96967092311483 L326.01697688761647,69.21746929335784 L327.78248971648117,68.53045061132266 z"/>
	
</g></g></svg>