<svg xmlns="http://www.w3.org/2000/svg" version="1.2" baseProfile="tiny" width="600" height="600" stroke-linecap="round" stroke-linejoin="round"><rect id="backgroundrect" width="100%" height="100%" x="0" y="0" fill="none" stroke="none" class="" style=""/>































































































































































































































































































































































































































































































































































































































<g class="currentLayer" style=""><title>Layer 1</title><g class="city city-41" id="kocaeli" title="Kocaeli">
	<path id="kocaeli-izmit" title="İzmit" class="district" d="M350.8709656204749,365.74874952868316 L351.0849774464592,362.98350903406686 L350.00249182341656,360.7171137552267 L350.1695591198299,359.6777287981764 L351.61379376485945,358.6308983901445 L351.1857701128899,356.8841955898294 L349.9859231659202,355.81205064845966 L349.75396196098427,354.1502259893363 L348.8219749768576,352.96491019304415 L346.67633383118397,352.69538486750525 L343.5048166422426,350.7238294475419 L337.47658675677667,350.0269352356515 L334.161474536208,350.0358697768296 L332.9271095527884,350.97846387111724 L328.1456711438632,351.22565284371086 L327.1087493289325,351.70960715752364 L324.4011545498678,351.35222551040033 L321.4077504290036,350.5079113690715 L320.20514203911773,351.0380274789711 L315.8572501679936,350.64044039654635 L314.48895520315153,351.6366417379026 L310.16315487535337,352.2531250791902 L307.8739186980505,351.77512712616283 L306.83285471874734,353.61117533825865 L305.4756055255702,354.0489678559848 L304.65821842245526,352.2516359889939 L303.0855766818347,352.1429324046606 L300.8280970980674,346.07042258395745 L301.7918406757249,344.59324510918105 L303.3948582884192,340.93752867714915 L303.7110435022922,337.8729810530671 L302.94474309312363,332.7192398835101 L302.0431319810735,330.23841561639586 L303.5757327994126,328.9265271534143 L305.83045094026653,326.15384120781624 L308.76034187406333,321.1936817637841 L313.08890364477674,312.0521570484098 L315.2994386989768,310.39926693046476 L323.550630131762,307.18878846714045 L331.03414043392235,305.1472458079488 L336.0392557190367,302.13183816034604 L337.66298415360166,300.6740188581223 L340.27807059498343,296.7830261750676 L341.4958669209076,293.81675850394436 L342.35191422484485,288.66301733438735 L342.71228252537367,283.0208545804287 L343.70502125364766,279.66593436805863 L344.877253771459,271.78864722938295 L345.19205826387395,268.2386562012917 L345.82442869162105,265.46745934588995 L346.86135050655076,263.81308013774833 L350.3780480599818,256.5195163560406 L350.6486694657429,253.69917952415938 L350.60310565763,250.00325765682612 L349.0705048392918,246.50240660521428 L341.4958669209076,242.2719013573925 L339.51177018581484,240.0829387687623 L337.84385866459513,236.6312276936299 L337.70854796171454,230.35769069642004 L336.91049095901224,229.0636713157944 L339.85280838593104,227.10849588799078 L341.88246892913673,226.47563255454335 L344.40642775429274,224.6276716208766 L350.44846485433783,221.6614039497534 L353.60479410724184,220.83495889078074 L356.04038675908924,222.2942672832009 L357.9333558779572,224.3849499188721 L359.8277057182804,227.7398701312419 L363.3444032717133,231.28986115933316 L366.3198580136239,233.81833631273042 L369.83655556705486,237.36832734082168 L371.32497329873826,238.1962614899906 L375.1578560660442,238.7308448704793 L382.10150427813846,238.43898319199513 L385.66376563968424,237.85525983502714 L389.27021008788387,236.1040897641231 L392.6074138517785,233.47882374796325 L394.8165681845205,232.2145861712646 L399.64080895864237,232.2622370575478 L401.8043994832705,233.96426715197236 L403.247253406842,237.75846897226467 L404.4208666461114,238.77849575676248 L406.7653316817311,238.82763573324172 L411.4086979448614,237.36832734082168 L415.42245522315983,237.17474561529662 L417.31542434202686,237.56339815654314 L419.1642103742391,239.2654282509679 L419.0744634794714,245.39303440893576 L415.91813422656827,249.08746718607267 L415.1062700092858,250.83863725697677 L415.1518338173997,255.89558756377124 L416.05344492944886,258.035410175922 L418.2625992621889,259.00778607413656 L422.8617824386644,259.9801619723512 L425.43130507193337,260.272023650835 L427.9566446185484,261.92640285897664 L429.1744409444707,263.96794551816845 L430.07605205651987,267.95572906398576 L431.5189059800913,270.9711367115884 L433.95311791047965,274.5211277396797 L435.441535642164,275.63943447713643 L439.7700974128774,276.46587953610896 L444.95470648753,276.2231578341043 L452.4851613192595,274.03419524547417 L455.8665481698108,273.8882644062322 L459.60968404234717,274.3751969004377 L466.55333225444434,275.5902945006569 L477.46379321526604,275.39522368493544 L479.7185113561209,273.11095932373905 L480.3950648705219,270.6792750331044 L481.7923549859795,268.0048690404652 L485.48992705040587,262.7528479179493 L486.1209167566948,259.8342311331091 L486.21204437291965,256.33338008149735 L487.29314927450514,252.9784598691274 L489.68317811823874,249.67119054304072 L492.88507117925474,247.48371704460698 L497.3033798447368,245.87847781294494 L502.62329962226806,246.02440865218688 L506.0060671942774,245.68489608741982 L507.7637256102639,246.12119951494952 L509.341890236715,248.45609294282156 L511.50686148280124,248.9906763233102 L516.1060446592758,252.92931989264804 L520.8957673969496,255.90154392455662 L521.9354506547957,257.2700178149996 L523.0524543142882,260.0590837527575 L524.5229226670181,262.6590352355794 L525.3182182268051,262.94940782386703 L525.795947851261,265.99906454598573 L527.3630667060481,267.7815055110131 L530.2349673386109,272.33365424124605 L530.5829091460176,274.445184139666 L529.3209297334397,276.97961565384867 L527.057927263838,279.98311057988064 L525.7089623994095,284.39379574146045 L525.4052036786566,289.1320807462366 L524.6651369771891,291.7603249427893 L523.0993988438582,293.6842294764694 L521.1415358164667,294.6700071864513 L512.0039212076688,295.6557848964328 L509.65393328621474,296.7815370848712 L507.6960702588241,300.72315883460186 L507.1313551825177,308.55875144777974 L507.2611429995659,313.48615090749195 L508.6542909506501,324.9357654272043 L510.3070145358306,330.51985366350556 L503.83419234090263,333.0944906129895 L498.0627766466158,336.66086163324053 L494.6965777321027,339.05978593955575 L490.18714145039576,343.0148095010536 L485.8585796796824,344.95956129748265 L478.10444797176183,344.7644904817611 L472.93364611169034,344.3118070620717 L466.2606193053563,342.69018783824976 L462.71354587984973,342.3655661754461 L457.6642475080777,341.00453773598485 L455.2590307283078,341.3931902772313 L452.85381394853505,342.4951170225283 L448.9463722224997,344.8300104504004 L446.60190718687903,347.03386394099397 L444.07656764026393,348.20131065492996 L440.4093714479151,349.4327882473089 L436.622052488723,349.1096556747017 L428.2051744809807,347.0993839096333 L425.7405866785168,345.8679063172543 L421.23115039680994,344.8300104504004 L411.85329025432543,345.41373380736843 L407.94584852829007,344.8940413288433 L406.2019973268819,345.02359217592533 L402.7750466682186,346.3205897369437 L397.0643827180839,346.450140584026 L391.5939643016338,345.41373380736843 L388.52738194349934,344.5053887875967 L386.00204239688424,344.2462870934324 L377.4056705996085,345.154632113204 L376.5634305102505,346.2565588585008 L374.03947168509353,354.23063685993907 L372.175497716844,362.4012747672951 L370.6125210264293,366.48584917587505 L350.8709656204749,365.74874952868316 z"/>
	<path id="kocaeli-cayirova" title="Çayırova" class="district" d="M46.677317609366725,278.9630837953829 L50.403884824408635,284.2225503688806 L50.85952290553661,287.1486126047024 L49.81983964769063,289.5832750757298 L50.63170386497309,294.67149627664753 L51.87435317714041,296.91406611234623 L54.30994582898589,298.5282398851863 L53.117002489305804,302.8763832585196 L52.30513827202334,304.8732532118209 L50.88575661323881,305.74883824727294 L48.29828460101638,308.37410426343274 L47.15642795527974,309.03079304002176 L48.400457988905146,311.90324802877524 L48.34937129496076,315.04820652346007 L47.2586013431704,314.63870671946466 L43.53065340666943,315.13159557445556 L40.71536235388254,314.1458178644737 L36.73336166911776,314.4749067978664 L34.14588965689438,313.57251813888024 L33.334025439613825,314.0922106174052 L31.381685298052822,311.68435176991215 L28.109375442680793,311.27485196591675 L25.117352043275716,312.8339294014921 L23.950642411296883,316.17098053150573 L22.50502704481015,318.1395577710764 L21.389404106774748,318.55054666526826 L17.74844162212714,315.4740863196154 L18.807454980385714,313.8792707193277 L18.43880235110919,310.87577579329576 L19.96588028361588,306.6765414395972 L22.08528772158924,304.49651339214506 L22.87367967408572,302.21075994075244 L20.951715404600307,300.3508862855149 L17.600704426125482,294.23817102951045 L21.14915857309014,290.99493258186686 L25.777336900181233,289.6547514051544 L27.148393307939507,289.8111058757709 L29.386542791298005,288.61685553830057 L31.047550705226207,288.33095022060195 L34.48968929992872,286.02137132606777 L39.39953480444488,283.42588711383485 L40.07332687592961,282.82876194509976 L45.48851643406003,279.8699397249582 L46.677317609366725,278.9630837953829 z"/>
	<path id="kocaeli-basiskele" title="Başiskele" class="district" d="M381.57268795974016,511.8344541511108 L379.73356697773374,510.0758386292248 L375.1633789518757,506.4707512638689 L370.7215980216077,503.3228145887913 L366.53248911815007,501.26935920802873 L359.2547063132273,499.4437346273072 L356.46288752522446,498.98807302722525 L351.4273963680345,498.8049149330743 L349.1409216336488,499.38268192925705 L339.56837976559166,494.3242425322661 L338.6060169093913,493.4814174811337 L337.28328575266215,490.8874223590972 L336.5017974074543,488.0998455115358 L336.0806773627762,479.47652418448996 L336.02130634008506,472.2142312969058 L335.3599407617205,470.6581320417231 L332.9547239819477,468.3247277040474 L330.7303817131694,467.3523518058327 L326.822939987134,464.692836715157 L322.1933809385848,461.19198566354515 L324.5157544308795,456.1588607998922 L326.9955301693798,451.5382139206276 L327.71626677043645,448.6210862259838 L329.19363873045785,445.0234443116094 L330.3769170199321,437.8743222789472 L330.0055029477403,433.9714168743217 L328.4149118281662,430.0700005598925 L326.2168032670901,427.2615764495821 L324.3914894996629,423.90665623721225 L323.14055585874786,420.3685779306917 L323.00524515586727,415.55434932590174 L324.7297662568629,411.0677205643083 L327.23163353869194,407.31223508912103 L327.43459959301236,405.16049975539966 L326.48742467285024,403.1174680060116 L321.92275953282467,400.92999450757776 L320.0284096924995,399.39772069553675 L318.74433873659274,397.06431635786106 L316.1734353818676,390.644848521409 L314.3812589294313,387.72772082676516 L311.33814883607994,386.0122889205733 L309.072384923563,384.1896425202446 L307.0772424168072,380.46989520976985 L303.01930205185397,378.71872513886575 L296.6265617014859,370.58233630602564 L296.44292574757526,370.1088056235874 L300.19434594886127,370.6582799060394 L301.79736356155547,370.5078817962083 L307.09381107430266,371.9671901886284 L308.5546143768267,371.931452023916 L309.737892666301,371.04991062767857 L311.7578881593008,372.88446974957805 L311.9898493642377,374.05638373410324 L309.38304725160555,374.9036760558247 L309.7337505019276,376.8722532953955 L310.9405010561859,377.80144557791584 L314.1078760807539,376.95415325619445 L316.22866424018446,377.6808292720118 L317.04328990038215,377.0851931934731 L319.4291765797433,378.70979059768763 L321.856484902842,378.70979059768763 L323.9441357472817,377.12837680916715 L325.70731704910054,376.8290696797013 L327.3310454836655,377.35471851901195 L330.2816472393329,379.0671722448109 L333.2653863099903,378.1469145034685 L336.27812053126416,378.8795468800713 L339.02161406823694,377.08966046406204 L341.6836450391897,377.2549494758567 L344.1758472708139,376.2885299384274 L347.5793256646922,376.166424542327 L349.0829313324129,374.06531827528136 L350.77293439695956,369.58911314506213 L350.8709656204749,365.74874952868316 L370.6125210264293,366.48584917587505 L373.356014563402,366.5751945876558 L375.6894338273597,367.41504145839565 L381.6403433111809,371.71851212583846 L385.69828367613417,373.57838578107584 L386.9505980385054,375.1091705029205 L387.79559957077873,377.3710985111716 L388.7427744909408,378.17371812700276 L389.7562240410855,380.7989841431625 L389.8915347439661,383.02368489650485 L389.6209133382059,387.2184519796145 L388.97887786025296,389.8437179957743 L389.24949926601505,394.1471886632172 L389.0133958967029,397.61230155011674 L389.6209133382059,403.1561843511166 L388.7427744909408,409.2465632541759 L387.38966746213794,413.7689301804819 L386.7807692991768,414.75321880026723 L388.2346689944103,417.70757374981963 L393.8141644060397,422.22994067612547 L395.2349267862833,424.0168489117418 L395.37023748916295,426.0598806611301 L394.693683974762,428.2845814144725 L391.85353993573193,431.02004010516185 L390.5349509433771,435.25054535298386 L389.8238793925263,436.38076481201114 L389.11418856313355,440.830166318696 L387.8025031780683,445.8841384450979 L385.69828367613417,448.3470936298558 L384.97754707507556,451.9134646501069 L384.737301541391,458.00831082375515 L386.5405237654903,461.76826356953137 L387.08176657701256,468.64190391586925 L386.96164381016933,472.5314075087276 L387.6312937172816,476.5802437525951 L385.08248190588154,478.71411000396046 L382.39559794868654,482.08541020849015 L381.4636109645599,487.3493440525767 L380.53162398043514,490.5434425237411 L380.25686041030156,495.98457810119316 L381.57268795974016,511.8344541511108 z"/>
	<path id="kocaeli-dilovasi" title="Dilovası" class="district" d="M148.86451271320533,342.167517179332 L144.5649460931084,343.7682891404049 L141.09519306924844,345.5417955642543 L138.25228758730216,346.386109705583 L136.2488607517968,345.9885226231584 L131.93824836003688,343.93804542278855 L127.99352715463729,342.7869787010123 L125.5979754250713,343.23519485011275 L121.82170223754409,345.1263393994734 L119.66087315583121,344.73024140724505 L118.7758307012765,346.2729388506606 L115.3019355130422,346.75689316447347 L115.18043202474084,348.22960336866066 L113.2225689973493,348.22960336866066 L113.18805096090128,346.4144024193136 L110.43489237372177,346.49481328991635 L110.24297209106626,344.85383589354205 L107.56851462699143,346.38313152519027 L106.0290102013627,346.20444070162864 L103.531285083907,343.62086921096665 L102.69180643746611,341.89799185379314 L98.1395677905616,338.25716632372456 L100.15956328356145,332.9038870678571 L102.15470579031816,329.5117396005785 L106.0441981374,325.93792312934585 L110.30510455667459,321.08646726964736 L113.58569874079339,315.87167340204 L116.05442870763162,311.0931829619624 L116.62880883414473,309.1975711420128 L116.7309822220335,303.36182666252876 L115.919118004752,295.0824851708393 L117.1355336092171,292.38425373505845 L121.39644002849167,286.58573651048323 L122.20830424577224,285.19939353768416 L127.65248895452109,280.31219951327324 L130.66246173287968,276.8843138812824 L138.1031696698424,269.91834994277116 L141.65300453826518,267.9855108679127 L144.35921859587276,267.291594836415 L148.72091768157705,264.99392866345164 L151.42575101772746,263.93667462404517 L160.89473877643678,261.31140860788537 L163.93784886978625,261.67623570599045 L170.26155314725736,264.3015017221502 L175.7071185774624,268.021249032625 L180.5769231596981,269.5162955897574 L184.90410420895438,269.62648826428716 L187.9485950237629,270.5378114644514 L190.58577300847256,270.7939349782231 L195.99682040222865,272.36194695497653 L201.81241918316832,273.638097253246 L203.8089424113822,274.4764550337892 L205.8068463610561,274.5926040691043 L204.250773277931,280.51769396036923 L202.01814668040493,286.11369491824126 L201.07511392461623,289.5713623541589 L199.72338761727056,291.74245586043287 L198.62295261527436,294.86209982178 L197.742052325094,298.96454331271593 L196.73550638223887,300.3211044815881 L192.64857086666908,302.52495797218165 L190.3841876756103,302.6947142545653 L181.990781932654,304.4577970470402 L178.6894769266645,305.406347502113 L172.40029068564235,306.83140682001715 L169.7907271300911,308.4589824046246 L163.3151434922459,313.03644566819514 L155.7681200030201,319.37699172424084 L151.90209992072423,322.8703973248709 L148.44339266852725,326.87158268245537 L147.46860331920485,329.5832159300033 L146.99639658058146,332.12658198536394 L148.86451271320533,342.167517179332 z"/>
	<path id="kocaeli-darica" title="Darıca" class="district" d="M47.062538896138676,347.67566181561943 L42.111271747882995,350.0090661532953 L37.24837077293879,353.20465371465605 L35.55284482256068,353.17040464014 L34.2867232456074,354.5999312286331 L32.01405572580089,354.7056566325739 L29.456959585654033,353.6856298480762 L24.758364464205016,352.67155942436375 L23.842946137575673,352.16526875760576 L20.828831194842728,352.7102757694688 L17.99421004164514,351.58601267122674 L13.331513678104137,353.32378093036374 L12.061249936778424,351.277771000583 L11.524149289630486,346.63776594876566 L10.22765184060352,345.76069182311716 L12.367770100445682,344.35796885815836 L12.49479647457759,341.8354500655466 L11.248004998037857,337.72258294323603 L8.880067697631226,334.1517446523958 L7.4275487238548905,333.444426809131 L5.912897284469288,333.7496902993822 L5.036139158663239,335.00052606431376 L2.215325220043905,334.2604482367292 L2.282980571483712,331.9255548088571 L3.6982200658967663,331.3448096322818 L3.2577699208061013,330.0314320791037 L6.3616317583076665,330.67769722431825 L7.455163153013302,331.8183403147203 L8.775132866827185,331.71261491077956 L10.495511803447492,329.35389603976586 L9.205917961710128,327.6473986747522 L8.786178638489218,326.33848839216324 L9.364700929376674,327.3734060786242 L11.32670612114255,327.2408770511495 L15.09193353700774,325.39589429787554 L20.247547461040007,323.5285751916562 L21.31208370512912,321.68210334818605 L25.479101065260743,324.2880111917933 L34.22873294437341,330.72832629099423 L37.4817126993338,332.8428343698069 L48.96241162229623,336.61469983715386 L49.70662048813793,342.0856172185327 L48.759445567975845,343.4347329364233 L47.062538896138676,347.67566181561943 z"/>
	<path id="kocaeli-derince" title="Derince" class="district" d="M267.92412403335175,193.30465934071717 L277.3986346778935,197.25521563162584 L281.9080709596004,197.4383737257765 L284.2911961960443,197.25521563162584 L288.119936798975,195.9239689960916 L294.3746050035482,194.54804965466695 L297.6897172241169,193.20637938775832 L298.7059282171769,194.51826785073996 L300.6444611441568,198.8947039378039 L301.7269467671995,200.49994316946598 L304.52290771957473,201.91011158540658 L306.7320620523167,204.29265589956188 L309.0309632798235,209.01009364158907 L310.83556622538185,213.62925143065758 L311.1503707177969,215.4772123643242 L313.94633167017207,219.4649959101415 L316.06573910814546,221.31295684380814 L320.66492228462005,223.50043034224194 L326.0304058702642,225.25160041314606 L330.49427834385915,226.03039458583555 L334.82284011457256,227.6832847037807 L336.91049095901224,229.0636713157944 L337.70854796171454,230.35769069642004 L337.84385866459513,236.6312276936299 L339.51177018581484,240.0829387687623 L341.4958669209076,242.2719013573925 L349.0705048392918,246.50240660521428 L350.60310565763,250.00325765682612 L350.6486694657429,253.69917952415938 L350.3780480599818,256.5195163560406 L346.86135050655076,263.81308013774833 L345.82442869162105,265.46745934588995 L345.19205826387395,268.2386562012917 L344.877253771459,271.78864722938295 L343.70502125364766,279.66593436805863 L342.71228252537367,283.0208545804287 L342.35191422484485,288.66301733438735 L341.4958669209076,293.81675850394436 L340.27807059498343,296.7830261750676 L337.66298415360166,300.6740188581223 L336.0392557190367,302.13183816034604 L331.03414043392235,305.1472458079488 L323.550630131762,307.18878846714045 L315.2994386989768,310.39926693046476 L313.08890364477674,312.0521570484098 L308.76034187406333,321.1936817637841 L305.83045094026653,326.15384120781624 L303.5757327994126,328.9265271534143 L302.0431319810735,330.23841561639586 L302.94474309312363,332.7192398835101 L303.7110435022922,337.8729810530671 L303.3948582884192,340.93752867714915 L301.7918406757249,344.59324510918105 L300.8280970980674,346.07042258395745 L303.0855766818347,352.1429324046606 L304.65821842245526,352.2516359889939 L305.4756055255702,354.0489678559848 L301.4314723751961,355.2968254405235 L300.97169212969385,356.59680118193444 L296.5161039848485,356.2930267818798 L295.15885479167036,355.1583400522633 L291.1658083352407,355.3906381228935 L287.71538541179143,358.1633240684916 L285.5145154077981,358.41646940187053 L282.5487257160943,356.62509389566503 L278.1925495162224,357.11947184085227 L276.5646789172822,356.92737920552355 L274.401088392655,357.5438625468111 L271.526426317177,357.5959807036833 L267.99316010624773,360.6069210806969 L266.79469388073716,360.7037119434596 L267.1523007383497,358.81852375488415 L268.5219764246489,357.4247353311034 L269.48572000230644,353.43099542450074 L269.2068142677995,350.83253303187513 L269.5368066962527,349.51915547869703 L270.9575690764963,348.26087426278394 L271.5913202257006,346.3741969840123 L272.858822524111,344.4592269915099 L272.7828828439216,340.13639815151464 L271.92131265415384,338.65922067673824 L272.1242787084742,332.86070345216314 L271.51538054551304,330.0433448006745 L271.5913202257006,328.45746374156505 L273.84879980946977,325.03851265075224 L278.4894046296829,319.5407916458391 L280.0841379136304,315.99080061774765 L283.5566523804085,310.1074052519807 L285.17900009351433,303.7370773920081 L285.44962149927454,301.1594622621315 L287.29840753148767,295.56792857484845 L291.62696930220113,289.683044118885 L294.9641730660977,284.18830129436446 L297.082199782612,277.57525173238747 L299.6489609729656,272.4572487275427 L298.5844247288765,268.42479247583503 L296.45121007632395,266.04671543226874 L293.1747580565785,263.2487149533328 L291.5054658138998,260.9912542156706 L289.70914719709003,259.53939127423234 L279.9722994755358,255.10934794010006 L277.930212439209,253.9910412026435 L276.0662384709595,252.27114202586256 L274.5888665109372,249.79329593914127 L274.49635817325424,245.9305959698171 L273.6306458191121,240.84386385909568 L270.28791916938405,231.3330447750273 L268.1975068820272,230.26387801405008 L265.8364731889111,223.54957031872146 L264.79955137398133,221.65395849877166 L264.70842375775464,219.61092674938348 L266.24240529755093,214.16383481114613 L265.56585178315,209.88567867704117 L265.6555986779186,208.28043944537905 L267.32489092059546,205.7028243155024 L268.8119279308217,204.34179587604123 L269.2634238475754,202.5429749188541 L269.3531707423421,199.43077640848887 L267.92412403335175,193.30465934071717 z"/>
	<path id="kocaeli-gebze" title="Gebze" class="district" d="M4.871833305164252,319.0791736849714 L5.832815439907435,318.31824859463813 L9.147927660476142,312.68353129166104 L10.675005592982842,310.47669962067476 L13.53447973242357,311.9389861934876 L17.74844162212714,315.4740863196154 L21.389404106774748,318.55054666526826 L22.50502704481015,318.1395577710764 L23.950642411296883,316.17098053150573 L25.117352043275716,312.8339294014921 L28.109375442680793,311.27485196591675 L31.381685298052822,311.68435176991215 L33.334025439613825,314.0922106174052 L34.14588965689438,313.57251813888024 L36.73336166911776,314.4749067978664 L40.71536235388254,314.1458178644737 L43.53065340666943,315.13159557445556 L47.2586013431704,314.63870671946466 L48.34937129496076,315.04820652346007 L48.400457988905146,311.90324802877524 L47.15642795527974,309.03079304002176 L48.29828460101638,308.37410426343274 L50.88575661323881,305.74883824727294 L52.30513827202334,304.8732532118209 L53.117002489305804,302.8763832585196 L54.30994582898589,298.5282398851863 L51.87435317714041,296.91406611234623 L50.63170386497309,294.67149627664753 L49.81983964769063,289.5832750757298 L50.85952290553661,287.1486126047024 L50.403884824408635,284.2225503688806 L46.677317609366725,278.9630837953829 L50.32518370130583,275.8196143908943 L58.82076283215089,271.7186599901547 L62.0226558931669,269.2795302485382 L63.46689053819742,267.41072205212265 L65.99361080626964,261.700061149132 L69.57934443259853,258.45533361129173 L71.81749391595704,256.0757674775293 L72.68458699155822,247.97809498979416 L72.45952939390997,244.82866922452024 L72.68458699155822,241.09105283168924 L74.224091417186,235.90008440722357 L77.88162255933094,231.59065737899527 L78.2682245675591,231.12308305734234 L84.78246840622855,227.5939392919999 L86.32197283185728,225.89786555836062 L88.27983585924977,219.21780693754795 L90.36610598223038,215.86139763498173 L98.03463295975851,208.52465023758003 L99.60727470037715,206.3088840254157 L100.24931017833008,203.4021799621463 L99.96073939361636,201.15216467546594 L98.61315525064406,197.62302091012353 L96.91210641443351,191.25418214034727 L96.81545591237528,189.69808288516475 L97.36084088827188,184.36713998224235 L98.52755052024976,181.6852885386215 L101.56513772776867,178.86495170674013 L102.01387220160706,177.5843341378817 L101.5002438192451,176.165231180763 L102.49574399043533,175.4728042394617 L105.76805384580737,174.78186638835675 L107.02036820817955,174.01945220782702 L111.77005002357296,178.13827569092277 L112.7324128797733,182.0143774720141 L113.95158992715463,182.25709917401866 L115.29917407012502,180.4567891266351 L125.54688873112693,181.69869035038852 L131.37629472664582,183.2592568761603 L135.1208113206422,184.54434171560777 L143.92705277952885,188.16878725351629 L147.67156937352524,191.38075480703702 L151.33048123712638,196.1994506824158 L152.26661038562642,197.98933709842487 L154.01184230849083,199.87005801641118 L156.9044537629243,202.30174230704586 L159.92547231294685,205.51370986056634 L162.2229928189965,210.83720731250693 L164.43490859465373,215.19577431721467 L165.58366884767904,216.6193445449224 L169.11555433714733,218.91254344729685 L173.3695571491323,221.2072314398676 L181.62489074629275,221.80435660860266 L185.92169592347344,221.39038953401825 L192.98408618095476,222.17067279690406 L197.32369372333213,220.84091525156626 L206.81201158245312,213.81985497578998 L211.6196836990805,208.58868111602308 L213.8329801961949,204.55026850352988 L217.2792609552689,201.24746644803216 L218.38521884309944,198.90661665937463 L218.47082357349183,192.9413213328085 L219.23574326120425,190.18799355976287 L221.3206326627277,187.0221878023291 L224.80971578700024,184.31502182537028 L227.8307343370228,183.2592568761603 L231.14998872196583,182.8467788917721 L236.36497366869207,181.4351213856351 L236.68668176839668,184.23758913516025 L237.59657720919546,188.11815818684047 L240.7059619325276,191.99277087773552 L241.72079220412945,193.6248137329318 L241.97622567385326,195.81377632156196 L240.90616654393176,200.09937790664858 L239.14160452065568,204.46390127214175 L237.7015120399995,205.87555877827867 L233.81754257874917,208.78375193174438 L233.29424914618232,210.60937651246596 L231.53106784436346,222.42679631067577 L231.29358375359413,224.8182751660091 L231.6332412322522,226.88215417814604 L231.35709694066054,231.35091385738343 L232.8248038504742,237.16134380352946 L230.84208783684045,241.3114381807486 L229.84382622273307,244.57403480094484 L229.47379287199936,247.38990436223713 L227.81830784390075,253.25096337505897 L225.85630265213487,256.2782837442324 L225.0113011198625,259.04948059963425 L221.52774088142144,263.6820402004697 L219.05901091458415,266.16137537738757 L216.591661669205,267.5834565148989 L209.3207824715718,273.6738354179583 L205.8068463610561,274.5926040691043 L203.8089424113822,274.4764550337892 L201.81241918316832,273.638097253246 L195.99682040222865,272.36194695497653 L190.58577300847256,270.7939349782231 L187.9485950237629,270.5378114644514 L184.90410420895438,269.62648826428716 L180.5769231596981,269.5162955897574 L175.7071185774624,268.021249032625 L170.26155314725736,264.3015017221502 L163.93784886978625,261.67623570599045 L160.89473877643678,261.31140860788537 L151.42575101772746,263.93667462404517 L148.72091768157705,264.99392866345164 L144.35921859587276,267.291594836415 L141.65300453826518,267.9855108679127 L138.1031696698424,269.91834994277116 L130.66246173287968,276.8843138812824 L127.65248895452109,280.31219951327324 L122.20830424577224,285.19939353768416 L121.39644002849167,286.58573651048323 L117.1355336092171,292.38425373505845 L115.919118004752,295.0824851708393 L116.7309822220335,303.36182666252876 L116.62880883414473,309.1975711420128 L116.05442870763162,311.0931829619624 L113.58569874079339,315.87167340204 L110.30510455667459,321.08646726964736 L106.0441981374,325.93792312934585 L102.15470579031816,329.5117396005785 L100.15956328356145,332.9038870678571 L98.1395677905616,338.25716632372456 L95.31323096611172,338.8006842453914 L91.68745641750047,337.8059719942315 L90.73613933296501,337.9414792020991 L87.80624839916825,339.58543477886616 L85.98369607465634,339.63904202593477 L81.67032223997926,340.8690305281173 L79.68208334051309,342.0960408499073 L78.94615880341911,343.36772387758776 L75.5123045374662,342.8733459324004 L73.81815930854525,344.15843077184786 L71.0028682557574,344.1882125757749 L69.30872302683835,345.13676303084793 L65.19831524648166,345.0652867014232 L62.13449433126149,343.39750568151464 L56.42383038112774,344.9253122229666 L55.38414712328178,344.78682683470635 L52.52191154092388,346.71370954877926 L50.62065809330916,347.44783101557846 L49.68729038772628,347.05768938413553 L47.062538896138676,347.67566181561943 L48.759445567975845,343.4347329364233 L49.70662048813793,342.0856172185327 L48.96241162229623,336.61469983715386 L37.4817126993338,332.8428343698069 L34.22873294437341,330.72832629099423 L25.479101065260743,324.2880111917933 L21.31208370512912,321.68210334818605 L20.247547461040007,323.5285751916562 L15.09193353700774,325.39589429787554 L11.32670612114255,327.2408770511495 L9.364700929376674,327.3734060786242 L8.786178638489218,326.33848839216324 L9.020901286344241,324.74665097226807 L7.225963390992625,321.26664718340515 L4.871833305164252,319.0791736849714 z"/>
	<path id="kocaeli-golcuk" title="Gölcük" class="district" d="M201.98086720103973,384.7927240497652 L204.7381679525917,384.49043873990684 L210.30247542818285,382.8628631552994 L212.73116447273966,383.28725386125825 L215.30759071329817,382.8807322376557 L220.29337589800184,380.6188042294045 L222.51771816678115,380.6009351470483 L225.19907923814557,381.2293312099069 L229.47379287199936,380.2405753195324 L230.65154827564118,379.66876468413517 L236.7971394850341,378.88103597026776 L239.24377790854447,377.1983640483955 L241.8119198203562,376.6235752326055 L245.51501477061214,377.21027676996624 L250.30059534391165,376.13813182859633 L252.150762097582,376.4240371462952 L256.15485432567556,375.6750247775325 L258.80722024642256,373.9000292634867 L261.2262442407717,374.2291181968794 L264.4695589455272,374.07872008704834 L267.1246863091913,371.1109633257289 L269.1902456103031,370.48256726287036 L273.14739330882475,369.87055119217183 L274.37899684932813,369.21237332538635 L275.7459110927102,370.6150962903453 L273.76181435761833,371.46983406304855 L275.75557614291694,372.6328135063954 L278.13179777207125,372.583673529916 L277.6761596909433,371.2896541492904 L280.9691803681851,371.23604690222203 L283.4116766273211,372.7802334358339 L288.0867994839842,374.1010564399936 L292.5313418571675,371.71851212583846 L294.37046283917385,371.6812848709298 L296.44292574757526,370.1088056235874 L296.6265617014859,370.58233630602564 L303.01930205185397,378.71872513886575 L307.0772424168072,380.46989520976985 L309.072384923563,384.1896425202446 L311.33814883607994,386.0122889205733 L314.3812589294313,387.72772082676516 L316.1734353818676,390.644848521409 L318.74433873659274,397.06431635786106 L320.0284096924995,399.39772069553675 L321.92275953282467,400.92999450757776 L326.48742467285024,403.1174680060116 L327.43459959301236,405.16049975539966 L327.23163353869194,407.31223508912103 L324.7297662568629,411.0677205643083 L323.00524515586727,415.55434932590174 L323.14055585874786,420.3685779306917 L324.3914894996629,423.90665623721225 L326.2168032670901,427.2615764495821 L328.4149118281662,430.0700005598925 L330.0055029477403,433.9714168743217 L330.3769170199321,437.8743222789472 L329.19363873045785,445.0234443116094 L327.71626677043645,448.6210862259838 L326.9955301693798,451.5382139206276 L324.5157544308795,456.1588607998922 L322.1933809385848,461.19198566354515 L317.264205333657,459.2472338671159 L313.115137352478,458.2748579689012 L307.46522514649445,456.45965701955424 L304.99925662257147,455.35624118406105 L302.41454605326527,453.1523876934676 L298.2668587935453,451.2716667754813 L293.15680867762404,451.2716667754813 L289.7298580189607,452.0504609481708 L286.48378187129,452.11449182661374 L282.6357111679457,452.82776603066395 L277.22466377418965,454.19028356032135 L272.0552426355763,454.7740069172896 L265.98282966345465,455.0331086114538 L262.6166307489416,454.57893610156793 L260.1506622250186,453.6065602033535 L245.48187745562126,446.6033690099335 L240.19233355016559,444.59458633506136 L236.64526012465905,444.01086297809326 L229.31086773995943,443.4911704995682 L225.58291980345848,442.84341626415727 L222.2167208889454,441.67596955022117 L217.70728460723848,439.6016669067098 L215.84054919607178,439.6016669067098 L214.79810449531053,435.3711616588879 L212.90375465498542,430.22784412070536 L211.01078553611748,426.39939322589714 L208.54205556928113,423.69967269992003 L207.69705403700686,422.16739888787896 L208.23691612706915,418.84970593041777 L210.2997139852666,414.3273390041118 L214.69593110742176,409.4029177247923 L217.199179110708,405.5372395750754 L217.6051112193497,402.728815464765 L215.40700265827167,399.0462954091989 L214.39217238666978,394.1948395495002 L212.0932711591601,392.69979299236786 L209.59002315587387,392.00736605106647 L203.87521704136486,389.30764552508936 L202.86038676976295,388.4320604896373 L201.98086720103973,384.7927240497652 z"/>
	<path id="kocaeli-kandira" title="Kandıra" class="district" d="M334.4155272844718,113.23627948313819 L336.5473612155682,112.99206869093729 L340.8262170137953,113.24521402431631 L343.98806915253084,114.05379000093274 L345.61593975146917,113.49687026749896 L350.7052790455207,114.1729172166404 L352.48088684046064,115.27931123252628 L355.0849275101785,114.72536967948523 L359.7890455174581,115.18996582074547 L361.6530194857076,116.05363813462671 L365.4030589655355,114.16249358526608 L367.6274012343138,114.37692257353996 L370.13479140197535,116.90986499752628 L372.8354825737495,117.96711903693267 L375.48094488720784,116.6790560170925 L378.0974120500468,118.03412809576827 L379.54026597361826,117.9179790604532 L381.20817749483797,116.90986499752628 L382.3596991907795,115.30909303645322 L384.0345143192888,116.06406176600117 L384.9209374952997,117.43700292703309 L386.4977214002946,116.51078882490532 L387.81354894973225,116.91433226811529 L389.2992052385013,115.4803384090331 L391.3965211331468,116.08937629933905 L394.12068456970604,115.55479291885052 L394.892507864709,117.66632281727053 L396.8476094491834,117.83310091926143 L398.0930202042669,116.62842695041667 L397.54073162108256,115.87941458165415 L399.0912818183733,114.72834785987791 L400.8075185906222,115.30760394625685 L402.43262774664424,114.90554959324325 L404.36563778779265,115.75433100516094 L406.4574307966057,115.47587113844415 L407.9845087291143,116.63140513080936 L409.4038903878979,116.23381804838476 L410.98205501435086,118.24260072325688 L412.40695955896877,117.75417913885502 L412.6969110651406,116.51674518569064 L415.07313269429494,116.8860395543847 L415.75520909452837,115.50714203256737 L418.8383601101592,116.72223963278662 L422.0913398651215,116.59566696609701 L423.3312277343716,117.79736275454908 L424.4178555217886,117.63356283295099 L427.02327691296364,118.38853156249886 L429.0487952917959,117.42062293487339 L429.08055188532865,115.28228941291891 L433.2006247158902,114.58092793043951 L435.35040802593915,115.67838740514725 L437.03903036902767,115.26293124036653 L438.6130528311063,115.96131454245318 L440.9561371452679,115.24208397761765 L442.1297503845373,117.30447389955827 L443.54775132186563,117.28660481720217 L443.5698428651916,115.81687279340761 L445.09692079769826,116.10426720130258 L447.38753769646024,114.67027334222033 L448.3706113745294,113.44475211062681 L452.6121876933914,112.4425944084852 L455.82788796898654,113.14544498116109 L457.0774408884435,112.58703615753092 L458.44711657474267,113.23032312235279 L461.6131108778526,113.02780685564966 L462.9910708928995,113.55047751456746 L466.1777760178782,113.24074675372728 L468.24747748336335,114.69112060496926 L472.4517743228611,115.26590942075921 L474.87908264595984,114.8921477814761 L476.3564546059803,113.74108105969984 L477.5549208314928,113.95848822836652 L480.0733567708173,111.98544371820671 L482.3971109845682,112.09712548293277 L485.4429825208339,111.26770224356747 L487.53615625110695,110.01388829824322 L488.0939677201227,108.74816163134827 L490.2161366010132,109.48823945893275 L492.63654131682233,108.91940700392823 L492.3645391896031,110.3310645100652 L493.3172369955986,111.0115787297957 L495.6037117299834,110.00197557667244 L495.99583662404586,108.24187096459028 L497.9868369664273,106.7825625721702 L497.03966204626613,103.36212239116114 L495.237820543624,103.49018414804695 L494.5350333215199,102.72032451653561 L495.38969990400005,101.2967542888278 L498.3002607373851,100.66091277498768 L500.49008496971544,101.53203053985072 L501.23705527847244,100.85598359070917 L503.5276721772325,101.57521415554473 L503.5677130995148,100.09952577096487 L505.08926814618906,99.96401856309734 L507.14930456147124,101.92366126149 L509.1057868674028,101.966844877184 L509.62217669268193,103.02707709698302 L512.4581785673367,102.52078643022506 L515.372881565098,99.64386417088267 L514.4464174668038,95.47887889170009 L511.4074495378277,94.3054758169786 L511.47924705364187,92.64067297746263 L512.3352943575791,91.34367541644438 L514.5734438409377,90.88950290655859 L514.787455666921,92.13587140090107 L517.8112356598598,92.37114765192385 L518.9434272553906,91.02947738501524 L517.5875587836706,89.917127008344 L517.8940789473388,88.57843492182802 L517.194053168151,87.16231014510198 L515.4115417659214,86.38351597241244 L516.5340683112445,85.39029281144903 L519.66140241353,84.2288024582983 L521.5709401898935,85.35008737614773 L525.8746489743637,85.37391281928919 L528.0699960925247,84.71573495250385 L532.0740883206182,82.69057228547189 L532.9177091314325,80.53585877135775 L535.6156388602933,77.75274919438517 L535.6612026684053,75.86458282541724 L536.582143880866,73.41354036223005 L537.7571378415926,72.3190590679149 L540.4937277712758,71.3228577265588 L541.8910178867334,72.01379557766383 L543.5589294079531,73.87069105250852 L545.6203465446924,74.79690515463639 L551.9620002011161,76.09092453526196 L555.4911242476692,77.18093855898796 L557.3564789373768,76.84887144520258 L560.2173337982766,77.43706207275959 L561.2252604625888,76.76399330401082 L563.260443891627,77.16604765702444 L564.1040647024431,77.95526546108842 L568.2945543273607,78.7876668808464 L569.9983646064857,77.34771666097875 L572.6162124907846,76.66124608046286 L574.5713140752599,76.83398054323912 L574.5395574817253,78.97231406519343 L576.5692180249318,80.72497322629384 L581.0883193568455,82.55953234819333 L583.1083148498444,81.75542364216594 L585.4942015292037,81.81200906962721 L586.3226344039825,82.95563034042168 L585.7703458207964,84.06053526611112 L587.2932815889305,86.44159049007003 L592.263878837597,88.758614835586 L596.085715833238,90.22387958879142 L595.1067843195432,91.67574253022975 L593.409877647706,92.98912008340784 L595.1509674061961,95.75733875841688 L594.8900110506427,97.16601808416117 L592.0609127832756,98.52555743342609 L589.6253201314302,99.13608441392827 L585.8393818936961,99.04227173155849 L579.9657928115206,101.10763983389177 L575.7449273145274,105.14307426599223 L574.6141164404556,107.34841684678213 L571.7422158078929,110.21044820416105 L572.830224316768,115.79453644046237 L570.9593467412288,124.19449423805588 L570.4374340301182,125.64784626969052 L568.6093588197757,126.77508754832533 L566.825466696088,127.24415096017455 L562.2138570264905,131.4672107570147 L558.9512122213252,133.29730260832517 L551.8156437265717,136.81602274229314 L548.2036763925415,141.64960951963567 L546.3327988170014,143.0106379590968 L543.8958254436968,143.76113941805565 L541.67700606075,143.76113941805565 L535.1075333637618,145.40360590462643 L526.1880727453215,148.4532626267451 L524.8832909675469,150.37716716042536 L526.0141018416177,152.0196336469962 L526.4932121875316,154.6478778435487 L527.4928545230972,156.85322042433864 L529.9740109830565,159.95052803274046 L532.2798158178539,169.3347744501193 L534.1506933933949,171.5877679171924 L534.6726061045036,173.32404708613294 L534.2804812104421,175.52938966692287 L533.0185017978631,178.95429711852094 L531.4969467511888,181.30110326796387 L527.3188836193933,184.9136360843018 L525.5791745823605,186.03938827274004 L517.79052483799,189.84103554401406 L516.4415599735615,191.06060041482218 L516.1378012528095,192.98450494850258 L517.7477224727933,195.8003745097948 L517.4867661172399,196.41090149029702 L519.7483878653816,198.5685931848039 L520.7935940090609,201.05537381270335 L521.7504339794278,204.57558303686776 L521.0103672779604,206.21804952343842 L521.8374194312793,209.64295697503664 L523.2733697475621,212.9278899481781 L525.013078784595,214.47654375237903 L528.319906676416,214.52270554846584 L531.0178364052749,213.39695336002742 L533.5417952304318,213.02170263054808 L536.3253296896851,214.3827310700092 L538.7195006977929,218.0890765687169 L544.2879503377584,223.3917267579086 L546.3769819036562,227.4748120762921 L547.4208073258765,230.1015671826483 L547.3641977460987,233.30608928518706 L545.3759588466335,237.00052206232402 L545.1578048562749,239.34583912157058 L549.1177139977127,242.81839745945172 L549.2916849014157,244.55467662839237 L548.6827867384545,245.68042881683078 L545.7239006540393,247.69814603288097 L543.9828108955484,249.62205056656137 L540.894136994085,253.98657393205434 L533.6715830474809,258.3510972975475 L527.3630667060481,260.6026016744242 L525.3182182268051,262.94940782386703 L524.5229226670181,262.6590352355794 L523.0524543142882,260.0590837527575 L521.9354506547957,257.2700178149996 L520.8957673969496,255.90154392455662 L516.1060446592758,252.92931989264804 L511.50686148280124,248.9906763233102 L509.341890236715,248.45609294282156 L507.7637256102639,246.12119951494952 L506.0060671942774,245.68489608741982 L502.62329962226806,246.02440865218688 L497.3033798447368,245.87847781294494 L492.88507117925474,247.48371704460698 L489.68317811823874,249.67119054304072 L487.29314927450514,252.9784598691274 L486.21204437291965,256.33338008149735 L486.1209167566948,259.8342311331091 L485.48992705040587,262.7528479179493 L481.7923549859795,268.0048690404652 L480.3950648705219,270.6792750331044 L479.7185113561209,273.11095932373905 L477.46379321526604,275.39522368493544 L466.55333225444434,275.5902945006569 L459.60968404234717,274.3751969004377 L455.8665481698108,273.8882644062322 L452.4851613192595,274.03419524547417 L444.95470648753,276.2231578341043 L439.7700974128774,276.46587953610896 L435.441535642164,275.63943447713643 L433.95311791047965,274.5211277396797 L431.5189059800913,270.9711367115884 L430.07605205651987,267.95572906398576 L429.1744409444707,263.96794551816845 L427.9566446185484,261.92640285897664 L425.43130507193337,260.272023650835 L422.8617824386644,259.9801619723512 L418.2625992621889,259.00778607413656 L416.05344492944886,258.035410175922 L415.1518338173997,255.89558756377124 L415.1062700092858,250.83863725697677 L415.91813422656827,249.08746718607267 L419.0744634794714,245.39303440893576 L419.1642103742391,239.2654282509679 L417.31542434202686,237.56339815654314 L415.42245522315983,237.17474561529662 L411.4086979448614,237.36832734082168 L406.7653316817311,238.82763573324172 L404.4208666461114,238.77849575676248 L403.247253406842,237.75846897226467 L401.8043994832705,233.96426715197236 L399.64080895864237,232.2622370575478 L394.8165681845205,232.2145861712646 L392.6074138517785,233.47882374796325 L389.27021008788387,236.1040897641231 L385.66376563968424,237.85525983502714 L382.10150427813846,238.43898319199513 L375.1578560660442,238.7308448704793 L371.32497329873826,238.1962614899906 L369.83655556705486,237.36832734082168 L366.3198580136239,233.81833631273042 L363.3444032717133,231.28986115933316 L359.8277057182804,227.7398701312419 L357.9333558779572,224.3849499188721 L356.04038675908924,222.2942672832009 L353.60479410724184,220.83495889078074 L350.44846485433783,221.6614039497534 L344.40642775429274,224.6276716208766 L341.88246892913673,226.47563255454335 L339.85280838593104,227.10849588799078 L336.91049095901224,229.0636713157944 L334.82284011457256,227.6832847037807 L330.49427834385915,226.03039458583555 L326.0304058702642,225.25160041314606 L320.66492228462005,223.50043034224194 L316.06573910814546,221.31295684380814 L313.94633167017207,219.4649959101415 L311.1503707177969,215.4772123643242 L310.83556622538185,213.62925143065758 L309.0309632798235,209.01009364158907 L306.7320620523167,204.29265589956188 L304.52290771957473,201.91011158540658 L301.7269467671995,200.49994316946598 L300.6444611441568,198.8947039378039 L298.7059282171769,194.51826785073996 L297.6897172241169,193.20637938775832 L304.79905201116736,188.62742703399113 L308.11692567465224,184.9568196999958 L310.28741980657,180.18428562070372 L315.43613012331457,171.74114420741608 L322.4557180155983,157.56202735779974 L322.96658495504494,152.65249698044377 L324.45500268672833,149.71601111324742 L326.6254968186461,148.47708806988666 L330.2416063170506,147.0550069323753 L333.1355984929412,147.0550069323753 L336.3692481474909,146.4578817636401 L338.62396628834483,144.7141571437177 L339.3902666975134,143.52139589644375 L339.5172930716453,140.72190632731147 L338.75099266247673,138.33638383276346 L336.3692481474909,132.6004083964348 L335.2619095382042,129.2961172507408 L335.30471190340177,122.78134764172259 L334.92225205954605,117.09004491128425 L334.4155272844718,113.23627948313819 z"/>
	<path id="kocaeli-karamursel" title="Karamürsel" class="district" d="M130.74530502035682,395.63181158897515 L134.19848938672325,396.0770495576828 L138.43730426266808,394.5596666476053 L144.2004356282062,394.2901413220664 L146.09892763290566,394.8813101300163 L149.30220141537976,394.0206159965276 L152.08849731754918,392.4868530942902 L155.84958256904005,392.57768759626737 L157.22616186262886,392.19648050600256 L161.59062239124938,391.8003825137742 L163.75697435879468,391.0409465136373 L164.9899586207552,389.95391067030397 L169.46625758746936,390.3291613997834 L170.58878413279436,389.90923796441365 L172.56321581768228,390.31724867821265 L175.4599694364882,390.0641033448336 L179.86447088738913,390.3455413919433 L183.146445792967,388.88623299952326 L186.58306150183802,386.51709049713514 L188.98689756015077,386.51262322654594 L191.37416496096904,384.76145315564196 L193.17600646361026,384.70486772818066 L194.21154755708287,385.3838928577149 L196.78659307618418,385.855934449957 L199.54803599210953,385.924432598989 L201.98086720103973,384.7927240497652 L202.86038676976295,388.4320604896373 L203.87521704136486,389.30764552508936 L209.59002315587387,392.00736605106647 L212.0932711591601,392.69979299236786 L214.39217238666978,394.1948395495002 L215.40700265827167,399.0462954091989 L217.6051112193497,402.728815464765 L217.199179110708,405.5372395750754 L214.69593110742176,409.4029177247923 L210.2997139852666,414.3273390041118 L208.23691612706915,418.84970593041777 L207.69705403700686,422.16739888787896 L208.54205556928113,423.69967269992003 L211.01078553611748,426.39939322589714 L212.90375465498542,430.22784412070536 L214.79810449531053,435.3711616588879 L215.84054919607178,439.6016669067098 L211.27450333458805,441.41686785605674 L208.8099155321251,442.6483454484358 L202.91837707099694,446.9935106413763 L202.13688872579007,448.4200590494768 L201.7765204252622,453.2179076621069 L201.2352776137409,457.0433803765225 L199.8517947128615,459.5718555299196 L197.3278358877055,461.97077983623467 L191.4956684492704,466.75224845670493 L189.9175038228184,468.25920773540804 L185.5447589654492,470.34989037107925 L180.22345846646078,475.3591897915906 L177.38331442742887,477.74173410574593 L172.3326353342016,480.5620709376271 L169.89842340381327,481.58358681232113 L163.90195011188013,483.1888260439832 L160.29412494222336,485.03529788745345 L156.12986902500703,485.6324230561888 L154.43296235316888,486.39781541711113 L151.3663799950344,487.02918966036225 L143.43137377612138,487.41933129180507 L133.28583250301014,487.2734004525631 L127.78503821448544,488.19663637429835 L120.1648364879864,489.75273562948075 L114.21392700416712,489.8018756059605 L106.05248246614866,493.0600049555677 L103.61827053575846,494.3242425322661 L100.86787339149609,494.5178242577913 L95.90694119303554,493.15679581833 L94.96114699433157,491.7957673788691 L94.50965107757791,486.44695539359054 L94.04296722478601,484.8342707109467 L92.81826729157319,484.1254637774855 L87.4348343269755,482.19113561243074 L86.34130293226988,481.1532397455768 L84.98405373909081,477.000167187965 L85.24777153756139,475.112000818997 L86.42828838412133,471.14655362612484 L89.18558913567234,464.2565332876272 L90.15485559916229,460.6484677418785 L91.17382803513851,458.5339596630657 L92.52555434248418,457.26972208636704 L94.5993979723456,453.9624527602805 L95.41126218962806,449.58601667321653 L93.02123334589452,441.6595895580614 L91.89456463619709,436.26163759630344 L91.48863252755538,433.19857906241765 L92.21074985006922,427.46111453589265 L93.56247615741489,425.0785702217373 L97.48510581948852,422.8896076331072 L103.43739602476688,421.1875775386825 L105.42149275985966,420.21520164046797 L106.95409357819784,418.8050332245274 L109.88536523345272,414.525388000226 L111.86946196854646,411.1213278113767 L115.70096401439241,408.7387834972215 L119.53384678169931,407.3777550577603 L125.66563077651207,402.952178994217 L128.37184483411966,398.9643954483998 L129.61725558920222,395.38313352618513 L130.74530502035682,395.63181158897515 z"/>
	<path id="kocaeli-kartepe" title="Kartepe" class="district" d="M387.6312937172816,476.5802437525951 L386.96164381016933,472.5314075087276 L387.08176657701256,468.64190391586925 L386.5405237654903,461.76826356953137 L384.737301541391,458.00831082375515 L384.97754707507556,451.9134646501069 L385.69828367613417,448.3470936298558 L387.8025031780683,445.8841384450979 L389.11418856313355,440.830166318696 L389.8238793925263,436.38076481201114 L390.5349509433771,435.25054535298386 L391.85353993573193,431.02004010516185 L394.693683974762,428.2845814144725 L395.37023748916295,426.0598806611301 L395.2349267862833,424.0168489117418 L393.8141644060397,422.22994067612547 L388.2346689944103,417.70757374981963 L386.7807692991768,414.75321880026723 L387.38966746213794,413.7689301804819 L388.7427744909408,409.2465632541759 L389.6209133382059,403.1561843511166 L389.0133958967029,397.61230155011674 L389.24949926601505,394.1471886632172 L388.97887786025296,389.8437179957743 L389.6209133382059,387.2184519796145 L389.8915347439661,383.02368489650485 L389.7562240410855,380.7989841431625 L388.7427744909408,378.17371812700276 L387.79559957077873,377.3710985111716 L386.9505980385054,375.1091705029205 L385.69828367613417,373.57838578107584 L381.6403433111809,371.71851212583846 L375.6894338273597,367.41504145839565 L373.356014563402,366.5751945876558 L370.6125210264293,366.48584917587505 L372.175497716844,362.4012747672951 L374.03947168509353,354.23063685993907 L376.5634305102505,346.2565588585008 L377.4056705996085,345.154632113204 L386.00204239688424,344.2462870934324 L388.52738194349934,344.5053887875967 L391.5939643016338,345.41373380736843 L397.0643827180839,346.450140584026 L402.7750466682186,346.3205897369437 L406.2019973268819,345.02359217592533 L407.94584852829007,344.8940413288433 L411.85329025432543,345.41373380736843 L421.23115039680994,344.8300104504004 L425.7405866785168,345.8679063172543 L428.2051744809807,347.0993839096333 L436.622052488723,349.1096556747017 L440.4093714479151,349.4327882473089 L444.07656764026393,348.20131065492996 L446.60190718687903,347.03386394099397 L448.9463722224997,344.8300104504004 L452.85381394853505,342.4951170225283 L455.2590307283078,341.3931902772313 L457.6642475080777,341.00453773598485 L462.71354587984973,342.3655661754461 L466.2606193053563,342.69018783824976 L472.93364611169034,344.3118070620717 L478.10444797176183,344.7644904817611 L485.8585796796824,344.95956129748265 L490.18714145039576,343.0148095010536 L494.6965777321027,339.05978593955575 L498.0627766466158,336.66086163324053 L503.83419234090263,333.0944906129895 L510.3070145358306,330.51985366350556 L512.1350897461749,334.2276882524097 L514.1799382254179,335.8701547389803 L519.6186000483343,336.8544433587657 L522.5774861327486,336.7606306763959 L524.7963055156954,340.8437159947794 L526.7969709082837,347.6473691018889 L527.0151248986404,350.88465118874734 L526.7969709082837,357.97123143316276 L527.6668254268001,363.4138561008111 L527.842177051962,369.84225847844124 L527.7731409790632,375.630352071642 L515.921027983909,376.12919728741826 L506.4879389831067,377.3904566837241 L499.68926652409596,377.9429091465689 L493.76597146943504,377.86398736616263 L487.11227476351166,377.548300244537 L480.6781127694041,378.0218309269753 L478.7036810845181,378.7306378604365 L477.9001011959833,379.7566210057197 L476.76376743607915,383.14132302201637 L475.9422381685918,386.8238430775826 L474.46072404419704,390.4170177213679 L474.42068312191657,394.85152832608924 L474.6664515414336,401.2397252684181 L474.1321123372029,407.1380115361485 L473.151800102049,408.80877073644984 L469.0938597370957,412.77123974892936 L462.2938065566269,415.6704983612169 L460.2102978765616,417.6807701262853 L456.15235751160833,422.29397155456854 L455.3846763809816,425.60570815124424 L455.1651416691648,429.4505390382122 L453.19070998427884,435.8372468903446 L451.87350171338113,438.7901127497006 L449.1879984776424,443.34821784071886 L441.83979887836546,451.09595413231244 L435.862655686844,455.64959195274156 L431.8599441802094,457.8385545413717 L428.89829665287806,458.6069250826867 L423.90836930380004,460.43999511439006 L421.6591740487776,461.80102355385105 L419.6847423638906,463.7517317110656 L416.230177276068,465.94069429969585 L411.0207152151732,467.7737643313988 L398.5182824133193,473.74650510894674 L390.12763811327824,475.6987023563577 L387.6312937172816,476.5802437525951 z"/>
	<path id="kocaeli-korfez" title="Körfez" class="district" d="M266.79469388073716,360.7037119434596 L265.07569566557305,359.6598597158203 L263.08883748756404,359.3635307667472 L260.3729583797516,362.36255842219003 L255.1165517892877,361.12661355922205 L252.1990873486111,360.9211191121263 L250.1583810337405,359.9621450256787 L246.94544220106252,357.53790618602574 L244.74595291852728,352.5241394949254 L243.7090311035966,352.97831200481136 L241.68351272476428,350.27561329844144 L240.03216986104093,349.3404646551354 L240.31107559554982,348.16259430982507 L236.51409158615093,345.36906110147805 L233.7526486702256,344.7555559405831 L229.54973255218687,342.974604065752 L224.1649188661311,344.01398902280215 L223.14318498723773,343.8874163561127 L219.52707548883325,341.7312137518022 L217.48084628813308,340.03365092796656 L213.29035666321548,340.9166814144004 L211.40567187309526,340.7960651084963 L208.09608253835802,339.69562745339584 L205.65220555776293,339.73583288869713 L203.36020793754574,338.9555496258114 L199.64606721562492,339.8266673906744 L195.69858456731004,339.63457475534557 L194.86324808524162,339.0910568336791 L190.67690062469643,339.47375301414024 L181.3280356328313,339.59585841024057 L176.07439048528082,340.93008322616754 L172.50384479498828,340.02918365737753 L169.042376099876,337.0837632490032 L164.43352787319657,335.71826753895306 L160.68763055774303,336.61916710774284 L157.21511609096493,338.5534952727976 L154.36530700173003,339.2742149278296 L151.92557218551022,340.91221414381135 L148.86451271320533,342.167517179332 L146.99639658058146,332.12658198536394 L147.46860331920485,329.5832159300033 L148.44339266852725,326.87158268245537 L151.90209992072423,322.8703973248709 L155.7681200030201,319.37699172424084 L163.3151434922459,313.03644566819514 L169.7907271300911,308.4589824046246 L172.40029068564235,306.83140682001715 L178.6894769266645,305.406347502113 L181.990781932654,304.4577970470402 L190.3841876756103,302.6947142545653 L192.64857086666908,302.52495797218165 L196.73550638223887,300.3211044815881 L197.742052325094,298.96454331271593 L198.62295261527436,294.86209982178 L199.72338761727056,291.74245586043287 L201.07511392461623,289.5713623541589 L202.01814668040493,286.11369491824126 L204.250773277931,280.51769396036923 L205.8068463610561,274.5926040691043 L209.3207824715718,273.6738354179583 L216.591661669205,267.5834565148989 L219.05901091458415,266.16137537738757 L221.52774088142144,263.6820402004697 L225.0113011198625,259.04948059963425 L225.85630265213487,256.2782837442324 L227.81830784390075,253.25096337505897 L229.47379287199936,247.38990436223713 L229.84382622273307,244.57403480094484 L230.84208783684045,241.3114381807486 L232.8248038504742,237.16134380352946 L231.35709694066054,231.35091385738343 L231.6332412322522,226.88215417814604 L231.29358375359413,224.8182751660091 L231.53106784436346,222.42679631067577 L233.29424914618232,210.60937651246596 L233.81754257874917,208.78375193174438 L237.7015120399995,205.87555877827867 L239.14160452065568,204.46390127214175 L240.90616654393176,200.09937790664858 L241.97622567385326,195.81377632156196 L241.72079220412945,193.6248137329318 L240.7059619325276,191.99277087773552 L237.59657720919546,188.11815818684047 L236.68668176839668,184.23758913516025 L236.36497366869207,181.4351213856351 L238.7646675626305,181.65252855430182 L240.42429475510346,182.43281181718763 L245.14774286279373,186.01258464920588 L246.59335822928045,186.65438252383146 L249.019285830922,186.746706116005 L252.33854021586507,187.34383128474002 L255.4009804096271,188.3072726417766 L260.038823786924,190.55579883826059 L266.4633207308258,192.61967785039758 L267.92412403335175,193.30465934071717 L269.3531707423421,199.43077640848887 L269.2634238475754,202.5429749188541 L268.8119279308217,204.34179587604123 L267.32489092059546,205.7028243155024 L265.6555986779186,208.28043944537905 L265.56585178315,209.88567867704117 L266.24240529755093,214.16383481114613 L264.70842375775464,219.61092674938348 L264.79955137398133,221.65395849877166 L265.8364731889111,223.54957031872146 L268.1975068820272,230.26387801405008 L270.28791916938405,231.3330447750273 L273.6306458191121,240.84386385909568 L274.49635817325424,245.9305959698171 L274.5888665109372,249.79329593914127 L276.0662384709595,252.27114202586256 L277.930212439209,253.9910412026435 L279.9722994755358,255.10934794010006 L289.70914719709003,259.53939127423234 L291.5054658138998,260.9912542156706 L293.1747580565785,263.2487149533328 L296.45121007632395,266.04671543226874 L298.5844247288765,268.42479247583503 L299.6489609729656,272.4572487275427 L297.082199782612,277.57525173238747 L294.9641730660977,284.18830129436446 L291.62696930220113,289.683044118885 L287.29840753148767,295.56792857484845 L285.44962149927454,301.1594622621315 L285.17900009351433,303.7370773920081 L283.5566523804085,310.1074052519807 L280.0841379136304,315.99080061774765 L278.4894046296829,319.5407916458391 L273.84879980946977,325.03851265075224 L271.5913202257006,328.45746374156505 L271.51538054551304,330.0433448006745 L272.1242787084742,332.86070345216314 L271.92131265415384,338.65922067673824 L272.7828828439216,340.13639815151464 L272.858822524111,344.4592269915099 L271.5913202257006,346.3741969840123 L270.9575690764963,348.26087426278394 L269.5368066962527,349.51915547869703 L269.2068142677995,350.83253303187513 L269.48572000230644,353.43099542450074 L268.5219764246489,357.4247353311034 L267.1523007383497,358.81852375488415 L266.79469388073716,360.7037119434596 z"/>
	
</g></g></svg>