<svg xmlns="http://www.w3.org/2000/svg" version="1.2" baseProfile="tiny" width="600" height="600" stroke-linecap="round" stroke-linejoin="round"><rect id="backgroundrect" width="100%" height="100%" x="0" y="0" fill="none" stroke="none" class="" style=""/>































































































































































































































































































































































































































































































































































































































<g class="currentLayer" style=""><title>Layer 1</title><g class="city city-43" id="kutahya" title="Kütahya">
	<path id="kutahya-saphane" title="Şaphane" class="district" d="M177.29072158972875,497.8490819595219 L176.00948970695046,497.92014578237547 L174.41419976510105,498.5089603145901 L174.17982807922687,499.3424374369148 L173.16343620148572,500.4195619518801 L172.1782938818625,501.92306940396645 L171.53767794047334,503.48748870421304 L170.3361324308925,505.63361615438896 L169.02286975104425,506.96149444428016 L168.16819433655752,509.75227228748435 L167.02133555368036,510.4832144654062 L165.89166402776672,510.7207706732308 L165.1346434823945,509.62131181394 L164.1307514279002,507.44168284727607 L162.81670750909896,505.8173668963388 L161.20344907133247,505.15139735645465 L159.590190633566,503.62352516510396 L159.44097399355945,502.5128991336506 L159.8573743554627,501.888552690009 L159.86831170080353,500.09774435410066 L159.05582318977312,499.2926927609174 L157.80662210406433,498.97392075554586 L156.65273217061096,497.6825895745508 L156.31054950923544,496.4745045860411 L155.44571798835992,495.35068098748616 L154.75119655922012,492.71218276468255 L153.85355300232212,491.85231050815514 L152.9230974094021,491.68683332065336 L155.51134206040493,488.2595266641755 L160.20502568950934,485.6819402895319 L166.10728597877085,482.6322870916472 L169.2041171881208,480.7460501936211 L173.87280117073195,477.3197587346126 L175.8571481111323,476.25075579940193 L180.21099279571928,475.0568835754629 L184.00937658478526,473.86199615405474 L184.9046764248242,473.04476219123956 L186.16247113901477,470.5615891812439 L186.235126361636,467.63782046955686 L185.43670015175803,461.9791097754788 L184.29921623631614,458.9923988206926 L182.1945584971671,454.87475788506663 L180.30786642588123,452.3905696776018 L180.01802677434986,451.6362779578854 L179.6305322537045,446.92068571282033 L178.90476126644774,442.92892926339175 L178.42117435459392,441.60815735578586 L173.8329579841337,434.9961762380017 L172.35954131893806,430.9211735960876 L171.2525257226596,427.7029976182929 L178.5094543562741,423.55388556111745 L179.99380836680962,422.50620177276284 L180.8641085603553,420.9549800396178 L182.92892311290515,418.52358210055843 L184.28359145725864,417.30839072976335 L188.12181843292186,414.75110830450654 L191.2506804393403,412.2780872692044 L193.39752508194712,410.0426224417268 L194.1537643883678,409.009151417943 L196.508418592449,404.60827038837215 L198.60292022521023,399.21046544391356 L204.2911210413741,401.01142575451524 L205.26454477670399,401.48552297269504 L206.28640532711532,402.4651885306042 L207.8191961527313,405.2163736725044 L209.8144804384725,407.9665436169349 L210.95743302658505,409.2629507852769 L215.14253009734335,414.4800505801938 L216.86984942223484,415.7439714295168 L220.76276312460368,419.3489376431284 L221.80884208255475,421.11944202965026 L223.02523113224106,423.90108309563044 L224.33927505104134,428.1375021351687 L224.77755010362625,430.6044319856548 L224.46114832769655,435.2205348787247 L223.9502180524904,439.5513672829116 L224.0963097366859,442.45990803255853 L223.70647149918244,445.24256429600814 L222.1986803200582,449.984551675276 L220.83619958617692,452.7672079387255 L218.913570523057,455.73970612894095 L215.92142533339774,460.039067411578 L212.68553359042954,463.2643497716579 L210.37384752875866,465.2876383280443 L208.15981633620225,467.5322399327458 L202.32083640212574,474.0132605769857 L201.1528841675204,476.7959168404353 L199.2060366968597,479.1034606882358 L197.1380971884973,479.64151534698374 L195.31312299449183,480.58970978334355 L192.36941461991358,482.8982688286129 L187.79526055060433,487.3560009164666 L185.36248245123124,489.9163289341318 L182.66173939100943,492.16194573630247 L180.00943314586857,494.78521599706625 L177.29072158972875,497.8490819595219 z"/>
	<path id="kutahya-altintas" title="Altıntaş" class="district" d="M377.34883017392593,475.174646481906 L377.15039547988584,468.51596628053227 L377.15039547988584,464.2561976991991 L376.82696255337993,462.0471280059243 L376.13869103586285,460.153784725613 L375.1676110173906,458.47058732145405 L373.0629532782425,450.8454391292728 L376.7050892767252,447.47904432095504 L379.1738043679319,445.3227648960858 L380.36831872693654,443.49540945128115 L382.4323520405343,438.6437807453254 L385.55808909114114,434.81750148339864 L387.8346193999319,432.37290597723785 L389.352566685443,430.95264471763693 L390.90020105116446,429.84810987099945 L394.17906093654295,427.12636545571036 L398.21572260624725,423.33967889508756 L400.097727243815,421.88084013165195 L404.43829086620303,420.0656670564794 L406.50232417980135,419.9479041500364 L411.9959964966888,418.9225547060072 L413.9998744109127,418.449472685297 L417.85450740458793,416.7530777140367 L418.94746069971393,415.9246765790587 L421.1935226893408,413.0059838547181 L422.3161630646772,410.9938624704945 L423.19661936461074,408.8639781798279 L424.47160133576534,406.5371455801102 L424.835658687823,404.64380229979895 L427.56765130616174,396.7161252617554 L428.63013628212383,394.2705145581253 L429.93480533348986,391.9426667609383 L432.3636772380988,388.4321139119749 L434.7308312654264,385.74996219798965 L437.2198585694087,383.54190770218423 L441.3783935157682,380.07094755452516 L444.2924148101351,377.82228515994603 L448.2986081606764,375.8893491783307 L451.4860630885631,374.1147840019315 L454.67273677749785,372.10266261770795 L458.1937807382793,369.30274799727977 L463.05074330854274,363.62271815634574 L464.4468173174,361.37405576176695 L466.3592902741317,357.35082819078906 L468.2412949117004,354.1560017547892 L470.97250629108663,353.3671933211151 L476.22399453257117,352.77533319649245 L478.5911485598997,352.69716299135354 L481.1715808213728,352.9337040017089 L483.2660824541341,353.3671933211151 L488.69959937164765,355.18135119881833 L492.64485608386167,355.8523967260494 L494.46670532205553,355.7732113234412 L500.2634983526742,356.00975233379637 L503.42048496139705,356.28588604545587 L505.36342623729456,356.6807978610273 L508.2469792124971,357.74574000636073 L510.1891392494416,358.6533265439469 L512.6180111540491,359.32335687370846 L515.9265581196375,359.6390832866719 L519.1132318085722,359.48071248145567 L520.4788374982661,360.15175800868656 L522.2092817789692,361.7293748760344 L523.3928587926324,363.38617714599064 L525.0318981158447,368.6712951713529 L526.0037593732695,370.9595502672359 L527.7943590533474,373.7990575889682 L531.7708653236773,378.69027899622824 L532.6208533044475,379.55827283251045 L535.7770586742182,384.0149897228947 L537.9324969453063,386.5001931278288 L543.0980489019706,393.5497243548967 L541.7168184332203,398.063292303564 L538.0942134085602,405.5097657411423 L535.9637747839649,409.56141884126157 L535.4153450390191,411.5014612051624 L533.8341173983226,414.24046397743047 L531.989612230494,419.1773692708107 L530.650568665199,422.31534464852774 L530.0357336092571,424.797502461054 L529.4427732439949,428.3649063682999 L529.3326185516346,431.0470580822854 L529.5529279363564,433.07237703361005 L531.1771237194631,436.3250697253621 L532.6263219771186,438.83565306702974 L536.1833029297336,442.4314825034174 L538.0496827882448,446.2262906437946 L538.2692109340126,447.2242297561516 L537.8520293331568,449.50740886468816 L537.2153195865322,451.90429008979 L535.3270650373404,453.6159130230901 L533.6583386339162,455.3559614855319 L531.8802387770857,457.09702514544273 L530.2771364457075,459.4939063705447 L528.2787272041543,461.3770976761626 L525.9514163634249,462.8887267080037 L524.4365940337254,464.3150791524205 L523.7342602150559,465.5993039511303 L521.8053812403118,465.4175836041193 L516.4359259169381,465.37799090281527 L514.2265821580974,465.0186109986703 L512.5703555779206,465.21758970266 L504.3173472793426,464.7394316946029 L501.8626944892883,465.21758970266 L497.5674427261696,466.57389352169264 L494.71435807012915,468.328154748705 L492.6276688268971,470.32098738101143 L486.8902499566992,474.1482818404075 L484.7426240751413,475.46397776066647 L481.27626684106303,476.9796675823851 L478.02396908008427,479.5308588228259 L476.612270292169,480.00901683088307 L475.4466617744223,480.04962472965667 L474.67948512266173,479.49126612152196 L471.9185866630646,476.8994669823075 L470.9670376184155,475.62336376335236 L469.8014291006692,473.43053722958695 L468.2983253552631,469.2052853622112 L467.6538032191099,464.7394316946029 L467.070998960236,462.188240454162 L466.48819470136215,456.88586407182106 L465.99679539998004,453.89509232715756 L465.38352282194273,451.06472178264903 L464.30931926168586,449.74902586239006 L462.7757471971173,449.0312812515694 L459.67657227090876,448.35414453952245 L455.13601147657556,449.19066725425535 L452.74307656380165,450.0677978677613 L449.39859260637814,452.0616456975371 L448.3251702850752,453.09816231372906 L446.9134714971604,455.0118095434269 L444.0908551602834,459.75582731763353 L441.45261121629403,462.5070124595334 L439.6729488815579,464.06229498255595 L438.23156301343175,465.8561489108724 L435.8690964198208,467.8489815431785 L433.53709814537524,470.00221537563993 L431.2972860673711,470.4011879810888 L426.3887617262156,470.4803733836971 L424.24113584465624,470.36058008231544 L422.9520915723487,470.60016668507876 L420.2833793091964,472.27524250948284 L418.5959031709031,473.6701238323504 L414.4842425617181,479.131886217377 L412.95067049714953,480.92574014569357 L411.5389717092348,483.1185666794589 L409.35619007479386,485.83929589727893 L407.568715350528,484.1175209892855 L405.4023397340991,482.72162446894845 L404.20079422451727,482.36630535468095 L401.90707665876346,482.3906700939449 L399.90476122244604,482.8160378335966 L396.5727770882694,481.4434908550546 L391.11191680740393,480.82929638610653 L390.56583077931674,480.4973268136336 L387.1979096533074,479.2912722200627 L384.8495053608489,478.88925402220576 L379.9526996039868,476.6649563668909 L377.34883017392593,475.174646481906 z"/>
	<path id="kutahya-aslanpasa" title="Aslanpaşa" class="district" d="M347.0594147305142,399.57796692781307 L349.759376551784,395.00247193351646 L352.66402297871605,390.38839943538517 L354.21946973396723,388.710278018573 L361.2029647340619,382.3429594908986 L362.6404444074224,381.1226921327569 L365.19353330554424,378.339020671838 L367.4528763573695,374.1452399260117 L371.8246895378745,367.9677633251033 L372.85201876095556,364.53639587874807 L373.84966090382613,357.86350291280377 L374.1426255111686,351.1906099468591 L374.9355830483759,343.9837231120441 L375.28714057718673,337.2346903358995 L375.1113618127818,333.9931648163101 L373.70278798067767,332.96375458240357 L369.62393940751707,331.40035047962647 L362.31779271986903,327.93040552943654 L360.82093888608665,326.7872931789645 L358.4155041500659,324.11732383461117 L357.4467678484527,322.05850336679816 L356.1561610982406,318.74185323447796 L355.4225777214541,316.33888082456 L354.7764931073948,313.02223069223976 L353.80853804473463,304.7859336235182 L351.9890325233993,296.01564268592597 L350.40467992689025,291.63100481586446 L348.0281510321269,283.16628831654225 L348.1461181140175,282.1774859814091 L348.5562685642971,281.4881668997301 L349.78828239304187,280.76331590662437 L352.54683713577896,279.58162605231746 L355.27570479830564,278.7430729426461 L356.4491257055821,278.70449543881125 L359.559237977131,279.39076892808237 L364.3130770056107,280.19175973138823 L366.16148836820344,280.0394801109878 L368.7731701877935,280.07704241735337 L371.32625908591524,279.6577658625176 L373.84966090382613,278.81921275284617 L375.8152581093569,278.3613586941757 L378.215224172707,275.5218513724434 L380.5597222703999,277.3877843210826 L383.75420834886484,280.2821123061592 L384.9557538584452,281.0059481017956 L387.2713461148817,282.94802086063504 L388.7658562318045,283.7479964664717 L392.3118998390792,286.37532751711274 L395.1837342299898,289.38437281622424 L397.4993264864253,293.9537766257049 L400.1367891914617,298.5241956326547 L402.12972976034376,301.5454233013982 L404.39610396274674,304.23569659513817 L409.7882152157551,313.68109384983876 L412.87489031871723,317.89517854505186 L415.8053176310956,320.7387466566614 L421.90132518068,324.8513116049409 L427.33249838133503,328.86235680628687 L433.5066298262108,333.02669682550254 L439.0159269221573,336.3778636717801 L441.2432391769145,337.088501900315 L443.0408700075682,337.2915413941823 L447.02596990638034,337.2915413941823 L449.99624040535696,337.4438210145826 L452.41886239834224,337.849900002317 L454.21649322899634,338.5615534283214 L455.2711658154297,339.3229515303233 L456.91254885550103,340.9472674812605 L461.2101443354788,344.19691458060464 L462.7343415326135,346.8882030718138 L465.6257068973452,350.7987437236955 L468.2412949117004,354.1560017547892 L466.3592902741317,357.35082819078906 L464.4468173174,361.37405576176695 L463.05074330854274,363.62271815634574 L458.1937807382793,369.30274799727977 L454.67273677749785,372.10266261770795 L451.4860630885631,374.1147840019315 L448.2986081606764,375.8893491783307 L444.2924148101351,377.82228515994603 L441.3783935157682,380.07094755452516 L437.2198585694087,383.54190770218423 L434.7308312654264,385.74996219798965 L432.3636772380988,388.4321139119749 L429.93480533348986,391.9426667609383 L428.63013628212383,394.2705145581253 L427.56765130616174,396.7161252617554 L424.835658687823,404.64380229979895 L424.47160133576534,406.5371455801102 L423.19661936461074,408.8639781798279 L422.3161630646772,410.9938624704945 L421.1935226893408,413.0059838547181 L418.94746069971393,415.9246765790587 L417.85450740458793,416.7530777140367 L413.9998744109127,418.449472685297 L411.9959964966888,418.9225547060072 L406.50232417980135,419.9479041500364 L404.43829086620303,420.0656670564794 L400.097727243815,421.88084013165195 L398.21572260624725,423.33967889508756 L394.17906093654295,427.12636545571036 L390.90020105116446,429.84810987099945 L389.352566685443,430.95264471763693 L387.8346193999319,432.37290597723785 L385.55808909114114,434.81750148339864 L382.4323520405343,438.6437807453254 L380.36831872693654,443.49540945128115 L379.1738043679319,445.3227648960858 L376.7050892767252,447.47904432095504 L373.0629532782425,450.8454391292728 L372.14734122542745,447.8506065947319 L370.65126863059805,445.44864938228346 L368.3333326573035,442.2457013665288 L365.0466603823962,439.65288702984503 L363.52090070735596,437.5169115543625 L360.67484720189117,434.39010334880817 L358.50300291279257,431.7597267057592 L356.03819401635,427.4512286458977 L354.36556141816175,423.79042657147266 L353.3679192752921,421.0067551105539 L352.92808174480115,419.1763540733414 L352.0773125250785,416.65967954685783 L351.2554491466129,412.2364641729616 L350.4632728483586,409.0335161572069 L349.55391070716814,406.40313951415794 L349.26016486087167,404.3443190463447 L347.0594147305142,399.57796692781307 z"/>
	<path id="kutahya-cavdarhisar" title="Çavdarhisar" class="district" d="M337.7962644658182,289.1793029274183 L339.60405140286014,287.7265553487989 L341.67277215017555,284.6972061003007 L342.71963234707965,283.7084037651676 L346.2391138299546,282.22520026246787 L348.1461181140175,282.1774859814091 L348.0281510321269,283.16628831654225 L350.40467992689025,291.63100481586446 L351.9890325233993,296.01564268592597 L353.80853804473463,304.7859336235182 L354.7764931073948,313.02223069223976 L355.4225777214541,316.33888082456 L356.1561610982406,318.74185323447796 L357.4467678484527,322.05850336679816 L358.4155041500659,324.11732383461117 L360.82093888608665,326.7872931789645 L362.31779271986903,327.93040552943654 L369.62393940751707,331.40035047962647 L373.70278798067767,332.96375458240357 L375.1113618127818,333.9931648163101 L375.28714057718673,337.2346903358995 L374.9355830483759,343.9837231120441 L374.1426255111686,351.1906099468591 L373.84966090382613,357.86350291280377 L372.85201876095556,364.53639587874807 L371.8246895378745,367.9677633251033 L367.4528763573695,374.1452399260117 L365.19353330554424,378.339020671838 L362.6404444074224,381.1226921327569 L361.2029647340619,382.3429594908986 L354.21946973396723,388.710278018573 L352.66402297871605,390.38839943538517 L349.759376551784,395.00247193351646 L347.0594147305142,399.57796692781307 L344.61491804684823,399.44497605933014 L339.24624396242564,398.36379075448747 L333.99319324303553,397.5800583081602 L329.4573198824195,396.34862377785566 L322.3378893045187,395.41667250100545 L320.2426064328034,394.63294005467816 L315.9075114830865,393.47663013710473 L310.9700813006721,393.4390678307393 L306.6349863509552,393.92433222108184 L305.31469252053125,394.2228002770665 L302.01317670551896,395.8643745849826 L300.2335143707819,396.050155721871 L294.1468816886323,395.11820444502064 L293.63048274075646,394.7821740826706 L289.5828837257113,389.7457794372955 L288.6930525583426,388.92549988207213 L287.11416863450415,386.94789521180587 L285.4204425845882,385.2697737949938 L282.6353257174508,381.61404770791546 L280.798632939151,378.7786011760604 L278.0994523568348,375.1969845042437 L276.52056843299636,372.8468023627312 L275.91823320030034,370.720978861942 L275.80339107422236,368.03476635807937 L276.3518208191672,363.7303290880954 L279.01740812650837,362.27453591706785 L281.82361844537394,360.05226865669164 L284.21030344652513,357.62188591510164 L285.88762347843056,355.4838800446803 L288.4039941457652,353.43013556421397 L289.9195977144172,352.6332055507853 L294.04844558056527,351.25050659754993 L297.20933838405415,350.4119534878785 L303.0475370791772,346.3887259169007 L303.95064930874486,344.41822762891985 L306.3053035128256,340.9391459015059 L307.85371911750104,339.01128590723727 L312.36928026534105,336.28649589954 L315.1114289900676,333.7718517679949 L318.04654373616313,331.4663383151332 L320.6269759976372,328.8674327936335 L322.5300740869351,325.4309893599318 L323.5620907437342,321.32350039899904 L328.0776518915742,313.69429141694 L330.5932413199558,310.6344862443618 L331.1096402678307,309.7543100384478 L333.077581190221,304.34736831676514 L334.9806792795183,301.33020143789895 L336.2384739937089,298.6896728201565 L337.14158622327756,295.7973752300187 L337.5611115409915,293.9527614282355 L337.7962644658182,289.1793029274183 z"/>
	<path id="kutahya-domanic" title="Domaniç" class="district" d="M246.90458096699672,112.18470013606232 L248.7131491429917,110.23247540252949 L252.3295042560286,106.61735721422457 L256.1685124706458,102.42357646839824 L259.28487465381784,100.76068301362619 L262.17780249645654,98.98916342963525 L264.5980807725823,97.14556482532133 L267.93709605733517,92.98833118839102 L269.5503544951016,91.21681160440002 L270.9136164679364,88.1793407761472 L273.38936270971885,84.31143841797767 L275.7822976224937,78.74409549613998 L276.64478542650966,77.00912302104501 L277.4236806625655,76.10458207586674 L278.8705352033604,75.59901373613761 L280.7619147083644,75.41830858659571 L284.7126400932485,75.30968245737677 L290.38834108616555,74.80309892017829 L296.23044597605315,74.8396460290743 L300.3756998602118,74.62239377063644 L304.1592401091728,74.76756700875151 L311.44819953985626,76.32183433430461 L314.37003322375284,77.37053332012859 L316.09422759283325,77.22536008201348 L318.12544887040804,76.43046046352356 L320.9910333496954,75.67109275646035 L322.77147692338497,74.69548798842871 L325.60893680036696,72.85087418664544 L326.9448554098494,72.52601099645801 L332.5369638348044,72.77879516632265 L336.0978509821841,73.03157933618715 L339.7696740608782,73.82749415214647 L343.24774987924934,74.73101989985537 L344.916476282673,75.49038760691867 L347.47659633137,75.70763986535654 L350.314056208352,76.43046046352356 L354.59837062613036,78.16543293861851 L357.6459837814458,78.65780371124646 L358.1647264461807,78.5887702833316 L357.31161350959906,80.85976702223583 L356.42178234223024,84.48605238270346 L356.70849703795005,86.94384545596547 L357.7858255540176,89.55696374203592 L359.7014234665623,93.41471412551209 L364.0341746994202,99.91603871913873 L366.4763276662276,102.87127855237534 L367.12241228028785,103.36974050981934 L369.5169096709678,104.42757627286723 L370.2348682686948,105.11181936719964 L371.0723564262185,106.94729639175873 L371.91062582269467,109.5908706019093 L372.50905486062607,114.00900998845874 L371.40750793701824,118.98652318061242 L371.1442304098867,120.91539837235051 L370.8090788990869,125.70611523014635 L370.8809528827546,128.81668027619128 L371.16844881742645,130.21663758640543 L372.1739033498263,133.3272026324504 L372.1020293661581,135.41140303699697 L372.33561981307923,136.78293481806958 L373.0051415957272,137.8103146570375 L370.40595959938304,138.61942704009823 L369.83174896899095,139.51178561564433 L369.5333156889783,140.81834475867964 L367.5770933508828,144.102508571981 L364.6966653314905,146.50345058696018 L362.2240440455192,147.24454473957542 L357.8225437848042,147.84452644395293 L354.23665699093124,147.77447781856873 L352.3890268672911,147.03236846848426 L351.0570144525728,145.65576070006475 L349.31875778234047,145.16135953249824 L347.22659986643833,145.58469687721134 L345.6774030228103,146.1501618676314 L344.5367941515568,146.8912560202465 L341.3032461254477,149.53990621774375 L339.5095214895582,150.24546845893207 L336.81971577467624,150.84545016330952 L333.5596056241683,151.16320697121168 L331.25026327935547,151.19873888263845 L325.7073729084345,151.58755951339418 L320.4636970564787,152.5763618485272 L315.24736456787525,153.31441040873432 L311.10367316162075,154.44127959969714 L305.46234668263224,156.47776572318477 L301.57099545816993,159.10814236623395 L298.9624385943915,161.15579566188438 L296.65309624957865,162.42682289349273 L294.6156250603802,162.1090660855906 L293.1750204312075,161.33244002154873 L291.49066924872636,159.31930343985573 L289.28991911836886,154.8707081292262 L287.7415035136944,151.97536494668032 L286.7633923446464,149.60995484312798 L285.64934559779124,147.3501252763864 L283.8829643252541,144.52584591669398 L280.8400386036558,140.92494049295982 L279.7806785835053,140.14729923144859 L275.433083810541,139.19402880774217 L273.313582531287,137.67630859108522 L264.72776643876625,134.92207785677698 L262.14655293834056,134.39315997525307 L256.9841259374878,133.7576463594488 L255.54430254726816,132.94548838398015 L254.7833758071303,131.53233350666466 L254.53884801486834,128.24918489083265 L254.593534741572,126.34264404341985 L254.89196802158466,123.83612149162968 L254.81071917048166,121.71740437312587 L253.83260800143415,120.79966586084628 L252.8544968323867,122.24733745211918 L252.12091345560066,122.52956234859454 L251.57717114437253,121.89404873279027 L251.76779344888337,119.63421916604871 L252.4740334623175,118.61090011695825 L252.36544124786218,117.55103395897153 L251.5232656566214,117.58656587039829 L250.78968227983586,116.45665108702752 L248.2897176305122,113.49125927909762 L246.90458096699672,112.18470013606232 z"/>
	<path id="kutahya-dumlupinar" title="Dumlupınar" class="district" d="M523.7342602150559,465.5993039511303 L523.1412998497947,467.31092688443044 L520.6132105981671,473.33003268012277 L520.2429033344858,474.2731511291356 L517.9593418751198,477.3258499194285 L515.1484441225357,479.92272504598947 L513.7437764851976,482.03433578220813 L512.0305194614581,483.20384326688315 L509.98914207749544,484.91546620018335 L508.3422903647539,486.77023197665966 L505.5751419935341,489.3955326323623 L504.87280817486453,489.73765417952853 L502.8751801722643,490.0229246684118 L498.87836168915874,490.0229246684118 L496.9026083772402,490.30819515729513 L494.1135853153387,490.27976962815393 L492.7745417500456,490.42291247133016 L492.3573601491888,490.878736135062 L492.0503332406944,493.81773280878934 L492.66516829663726,497.1567172854349 L492.0503332406944,499.7241516853851 L490.0956733805035,503.1199872203134 L487.7902372304568,505.2021572299213 L483.7941999863042,506.31481365631345 L482.0817242015178,507.20006584957423 L478.94192484975747,510.2243391107256 L477.4489772107397,513.3623144884427 L476.28493117089806,514.6181137580113 L475.14275982173797,515.4454996955196 L471.146722577586,517.3286910011379 L469.0608145733075,518.8697607595896 L465.83351645882055,520.3529642622893 L462.53981303333705,521.4656206886814 L459.9710993561573,523.121407761168 L458.72736694311914,524.8320154969988 L458.6664303047923,521.9793106081653 L457.78363028799924,519.3996938385828 L456.52505433485567,517.3225998163218 L452.8430751497742,515.6982838653844 L449.85796111069124,514.2079739803996 L443.48617621072833,512.3623449811469 L440.883088019621,510.42331781471546 L440.2823152648301,508.79088028402344 L441.21042714089157,503.8935676919473 L440.9924614730279,501.2205527551861 L440.22762853812594,498.05110625591976 L439.317485157982,496.51308208987604 L438.04328442578,494.8339454755944 L436.18627943470403,493.13044412204897 L434.38396117033324,490.4330644460236 L434.05662204906173,489.60567850851476 L434.1839639983866,485.84437188462556 L433.94724859565486,484.66166683284933 L432.6730478634518,482.03535097967745 L431.2347869511387,480.56839063648727 L428.83169593197647,480.733867823989 L426.3918866820272,482.3196062710918 L424.31691602308905,482.6505606460949 L421.7864830546015,482.6505606460949 L420.73024799026257,482.9104511982452 L416.5615569375163,484.802779281087 L415.43266665055614,486.1276119785702 L414.23190237992736,487.07377601999144 L411.774124634062,487.4524446760536 L410.79054479234384,487.0270769364018 L409.35619007479386,485.83929589727893 L411.5389717092348,483.1185666794589 L412.95067049714953,480.92574014569357 L414.4842425617181,479.131886217377 L418.5959031709031,473.6701238323504 L420.2833793091964,472.27524250948284 L422.9520915723487,470.60016668507876 L424.24113584465624,470.36058008231544 L426.3887617262156,470.4803733836971 L431.2972860673711,470.4011879810888 L433.53709814537524,470.00221537563993 L435.8690964198208,467.8489815431785 L438.23156301343175,465.8561489108724 L439.6729488815579,464.06229498255595 L441.45261121629403,462.5070124595334 L444.0908551602834,459.75582731763353 L446.9134714971604,455.0118095434269 L448.3251702850752,453.09816231372906 L449.39859260637814,452.0616456975371 L452.74307656380165,450.0677978677613 L455.13601147657556,449.19066725425535 L459.67657227090876,448.35414453952245 L462.7757471971173,449.0312812515694 L464.30931926168586,449.74902586239006 L465.38352282194273,451.06472178264903 L465.99679539998004,453.89509232715756 L466.48819470136215,456.88586407182106 L467.070998960236,462.188240454162 L467.6538032191099,464.7394316946029 L468.2983253552631,469.2052853622112 L469.8014291006692,473.43053722958695 L470.9670376184155,475.62336376335236 L471.9185866630646,476.8994669823075 L474.67948512266173,479.49126612152196 L475.4466617744223,480.04962472965667 L476.612270292169,480.00901683088307 L478.02396908008427,479.5308588228259 L481.27626684106303,476.9796675823851 L484.7426240751413,475.46397776066647 L486.8902499566992,474.1482818404075 L492.6276688268971,470.32098738101143 L494.71435807012915,468.328154748705 L497.5674427261696,466.57389352169264 L501.8626944892883,465.21758970266 L504.3173472793426,464.7394316946029 L512.5703555779206,465.21758970266 L514.2265821580974,465.0186109986703 L516.4359259169381,465.37799090281527 L521.8053812403118,465.4175836041193 L523.7342602150559,465.5993039511303 z"/>
	<path id="kutahya-emet" title="Emet" class="district" d="M276.3518208191672,363.7303290880954 L273.30811385861585,365.2917027959339 L268.4792758906578,366.72516162263616 L268.0074075630978,364.6105052940095 L265.2285406075846,360.62280963445835 L263.1121642841407,358.043192864876 L261.60359186606496,355.94579489322825 L261.0746930949432,354.50218409183253 L260.5192321994217,351.8545490918048 L260.7309479556612,344.2557960338261 L261.2067224779853,340.8863556331004 L261.15437946813967,336.5880095479325 L260.8364152143049,335.3159671188547 L259.566901915819,332.29067866023394 L257.10599921414206,330.22779740254356 L254.61853438806526,329.36792514601603 L251.73420017390833,328.92123825950824 L250.0146932385456,328.19943285881055 L247.84519266630508,328.71515317323315 L245.27882270598343,330.02171231626824 L242.9765115117478,330.22779740254356 L239.74843215830833,330.02171231626824 L235.99145403374763,330.46839920277614 L233.47742708327155,331.5343565455787 L231.81026315775443,331.9810434320865 L226.65096111271322,332.2561619462765 L217.6284324455146,331.7749583458113 L214.32066671887864,331.08766965907097 L208.0496616438409,328.817688117636 L206.11843895223817,327.5456456885583 L204.23955927048203,326.6857734320308 L199.1599435986378,325.82691637297273 L197.33418816567882,325.99848474529045 L193.81470668280292,326.5832384876278 L188.49681313032036,327.16697703249594 L187.19995646848457,327.5111289746008 L185.16248527928562,328.61160303136086 L183.65469410016286,329.0582899178687 L180.6906735128085,329.4714752878883 L178.8914802042488,329.95267888835355 L176.13995661208745,331.43080640370647 L172.35641636312644,333.0815174888465 L165.26511038753003,335.7291524888744 L160.39642923297274,337.070228345867 L158.80895168065305,337.2417967181849 L153.38480963057324,337.13824657631255 L151.08249843633763,337.2417967181849 L144.65290185385948,337.2763134321422 L142.8013655354547,337.55143194633223 L139.53734919018115,338.4092738079209 L139.4771937908068,335.10683644017155 L139.62719166976592,333.9017970440699 L139.14829219163022,330.67651468399004 L139.11860511141882,328.7720042315159 L139.41781963038548,322.9823330638937 L139.6568787499773,320.72859468196816 L139.44750671059637,318.4362787962079 L138.78970351224322,315.5602243655794 L138.76001643203182,312.87908784906347 L138.34127235327048,308.41018858904715 L138.58033147286181,306.42852312890363 L139.35766423101114,302.81543533553736 L140.28499486811907,300.7555996702549 L142.16856198359335,297.41356960120135 L143.72400873884501,294.26645744626035 L145.63726293453018,291.19650029898867 L148.62784564628336,285.52256164287076 L149.82392248319405,281.36532800594046 L152.7840368757838,277.6344773061313 L154.18948575207492,276.08020998057805 L157.38944050320853,271.84480613850906 L159.03394849909145,270.56261173473786 L162.41358820939558,268.8530191963763 L164.38699780445558,266.6764358221202 L165.1143312696184,264.5404603466378 L166.09166119971286,264.7333478658114 L167.91507291581277,264.65619285814194 L169.3509901112683,263.91712910046544 L170.69628358818505,262.47960948388595 L171.98220290468146,259.9537981801784 L172.49078946302757,258.2442056418168 L174.01576789911581,255.83514204708297 L176.646980692528,253.42607845234897 L178.17195912861527,252.45453447419465 L183.03595284945538,251.19568961221816 L185.93747432057586,251.28807258192774 L189.1725848245906,251.78247374949422 L195.95061398006888,250.57743435339268 L200.13649228977974,249.58863201825955 L201.34975638365492,249.15514269885313 L204.39346334420577,247.14708210450684 L209.31683122546625,242.23251115545204 L213.05115342039372,241.0579276834305 L217.45109120320313,240.31683353081536 L219.8534009834118,240.00719830266794 L220.9947910936188,239.14225005879382 L223.08773024847352,236.48446308407256 L223.39710087382798,235.4337337033099 L223.63459751551375,232.46631150044138 L224.490835407907,230.21054272357713 L225.44238445255564,228.8806340387472 L227.51188643882364,227.52128462730653 L229.36654771304046,226.65633638343238 L231.0555863292393,226.53248229217337 L232.07822811860365,227.64513871856548 L235.5742724328918,232.00236625695496 L238.11876770253133,234.19722318565897 L241.66246759294654,240.22343536363647 L244.3975851670969,243.74718577970106 L246.75223937117858,245.41617041928922 L249.08345640667306,247.70341031770286 L256.5036639814456,254.40980480013542 L262.52076639678654,259.26143350609135 L264.3519905024152,261.20858225227744 L265.5894730038307,262.90903801341506 L267.5152270227622,267.2977366733538 L269.2277028075487,270.9757971047576 L269.6800401612856,272.3351465161982 L270.27456300445283,275.36348056722693 L271.6300125877579,277.8984286481586 L279.6213058371099,285.3773884047557 L286.66105004181475,289.425995912467 L288.3735258266013,290.075722292842 L292.08441085294055,291.9609439933986 L294.10547602412754,292.8258922372728 L296.5554413804642,293.5680015873572 L301.0741274841172,294.71111393782934 L304.35611232530636,295.32936919665485 L305.85452863699527,295.35982512073497 L312.7044317761413,295.9476244554805 L317.4613957604312,296.2562444861585 L320.69572502549335,295.916153333931 L323.0738163981632,295.4532232879139 L326.5940791199907,293.93854866366485 L330.4948052118888,292.022871039028 L334.1572534231471,290.87874349108654 L337.7962644658182,289.1793029274183 L337.5611115409915,293.9527614282355 L337.14158622327756,295.7973752300187 L336.2384739937089,298.6896728201565 L334.9806792795183,301.33020143789895 L333.077581190221,304.34736831676514 L331.1096402678307,309.7543100384478 L330.5932413199558,310.6344862443618 L328.0776518915742,313.69429141694 L323.5620907437342,321.32350039899904 L322.5300740869351,325.4309893599318 L320.6269759976372,328.8674327936335 L318.04654373616313,331.4663383151332 L315.1114289900676,333.7718517679949 L312.36928026534105,336.28649589954 L307.85371911750104,339.01128590723727 L306.3053035128256,340.9391459015059 L303.95064930874486,344.41822762891985 L303.0475370791772,346.3887259169007 L297.20933838405415,350.4119534878785 L294.04844558056527,351.25050659754993 L289.9195977144172,352.6332055507853 L288.4039941457652,353.43013556421397 L285.88762347843056,355.4838800446803 L284.21030344652513,357.62188591510164 L281.82361844537394,360.05226865669164 L279.01740812650837,362.27453591706785 L276.3518208191672,363.7303290880954 z"/>
	<path id="kutahya-gediz" title="Gediz" class="district" d="M268.4792758906578,366.72516162263616 L273.30811385861585,365.2917027959339 L276.3518208191672,363.7303290880954 L275.80339107422236,368.03476635807937 L275.91823320030034,370.720978861942 L276.52056843299636,372.8468023627312 L278.0994523568348,375.1969845042437 L280.798632939151,378.7786011760604 L282.6353257174508,381.61404770791546 L285.4204425845882,385.2697737949938 L287.11416863450415,386.94789521180587 L288.6930525583426,388.92549988207213 L289.5828837257113,389.7457794372955 L293.63048274075646,394.7821740826706 L294.1468816886323,395.11820444502064 L300.2335143707819,396.050155721871 L302.01317670551896,395.8643745849826 L305.31469252053125,394.2228002770665 L306.6349863509552,393.92433222108184 L310.9700813006721,393.4390678307393 L315.9075114830865,393.47663013710473 L320.2426064328034,394.63294005467816 L322.3378893045187,395.41667250100545 L329.4573198824195,396.34862377785566 L333.99319324303553,397.5800583081602 L339.24624396242564,398.36379075448747 L344.61491804684823,399.44497605933014 L347.0594147305142,399.57796692781307 L349.26016486087167,404.3443190463447 L349.55391070716814,406.40313951415794 L350.4632728483586,409.0335161572069 L351.2554491466129,412.2364641729616 L352.0773125250785,416.65967954685783 L352.92808174480115,419.1763540733414 L353.3679192752921,421.0067551105539 L354.36556141816175,423.79042657147266 L356.03819401635,427.4512286458977 L358.50300291279257,431.7597267057592 L360.67484720189117,434.39010334880817 L363.52090070735596,437.5169115543625 L365.0466603823962,439.65288702984503 L368.3333326573035,442.2457013665288 L370.65126863059805,445.44864938228346 L372.14734122542745,447.8506065947319 L373.0629532782425,450.8454391292728 L375.1676110173906,458.47058732145405 L376.13869103586285,460.153784725613 L376.82696255337993,462.0471280059243 L377.15039547988584,464.2561976991991 L377.15039547988584,468.51596628053227 L377.34883017392593,475.174646481906 L376.42071829786494,474.8914063879612 L373.8355986026737,475.1279473983165 L370.46767747666297,473.684336596921 L368.6294222204581,472.73817255550006 L365.80758712253356,471.6498808683719 L362.80372334858095,471.36664077442737 L359.83657780541597,470.51489009765453 L357.74285741160725,469.37888412946756 L353.50151113623974,466.4459786405565 L351.91715853973164,465.80741943234415 L347.9672143938,464.67141346415747 L346.74691914934914,464.5770000995092 L343.9985205129989,463.3942950477329 L341.1040301924541,463.3942950477329 L339.79311122946586,463.8907266102383 L337.626735613036,466.0439604426995 L336.6439370102713,466.82464729661865 L333.02133198561074,468.24389335875014 L330.6541779582827,468.88245256696234 L328.92529615548466,470.23063480624035 L327.83234286035866,472.0996133472876 L327.2503198404383,474.110719534042 L326.1034610575616,476.1918743461806 L325.11988121584346,477.5877708665172 L323.244907728851,481.6333327818205 L321.4425894644787,484.99262120785284 L318.09341807333857,486.459581551043 L315.5629851048519,486.7905359260465 L313.46926471104325,486.67175782213434 L310.42946394525706,485.8677214264203 L308.51777222747745,485.91543570747916 L304.00299231859,487.52350849890706 L301.0538152713411,488.0026817044336 L298.442914690704,488.1651132995273 L297.71323750868265,488.81585487737146 L296.12888491217404,491.3081646645909 L294.73202966436423,492.55381195946615 L293.83516734642023,493.7192586542636 L291.93831916874603,494.82988468571705 L289.6656950547199,497.59223699977974 L288.56102317530053,498.4054101727179 L286.58058242966524,499.02874141889 L285.642314447215,499.75968359681184 L284.0220248588723,500.416516359472 L281.973616324334,500.4368203088589 L280.097080359435,498.7038782287025 L278.19007607537304,496.1080182996108 L275.7354232853183,493.9222981481309 L269.0073934228275,491.2706023582257 L267.5464765808787,491.1629914264761 L266.22227655569054,491.41476039887124 L263.8785596969492,492.4177754985753 L258.76535075013044,495.2024621569633 L258.0770792326138,496.1232462616508 L257.430994618554,497.6947719441829 L256.30522928740595,498.777987643964 L254.01229296060467,499.86120334374533 L250.75999519962545,500.34951332649587 L249.63422986847644,500.6743765166835 L249.4670447325533,501.81241287980896 L248.52877675010404,503.8976284818247 L247.69519478734497,504.62958585721594 L247.19520185748064,506.3087224714975 L247.11160928951858,507.8568986122344 L247.9201916057844,510.3299196475367 L247.96159727028913,512.4212264343682 L246.69911512238093,513.1887157211863 L244.22415011955007,515.1135301230472 L241.3812215698979,517.0200709704596 L238.8906317880095,517.5073657557409 L236.92112838771413,520.4179369003267 L234.35163347158186,523.275717776507 L233.37977221415804,524.0097055468368 L230.26653498679707,525.3314926519122 L226.7243975742865,527.1964104030822 L224.3798994765936,527.2999605449543 L221.78227995815593,527.0065684763163 L219.05106857877018,527.6562948566911 L218.42529617748602,528.0359787102229 L217.0464094255937,529.6430363041815 L215.65658532836014,530.1851517528069 L214.46128973040248,531.1597413233691 L212.82146916823717,532.9302457098911 L211.31992790073764,533.1830298797556 L209.65276397522,533.9779294982455 L208.12387934436765,535.4580874085373 L206.06687718134657,535.1332242183496 L202.89817198832893,535.0245980891308 L202.2614622417044,534.0814796401177 L202.04505905174727,532.0744342432408 L203.54113164657713,526.5050609264644 L203.9747192654444,523.6665688022016 L204.8676753886243,522.5935050771134 L206.4199971880639,522.7366479202897 L207.59263685638638,522.5660947454414 L210.25431796896348,521.386435286073 L211.1285243572728,519.8991709934962 L210.93555833590386,518.2525206982333 L209.20355157729426,516.5916576383999 L208.5621543969521,515.1906851307167 L208.79652608282677,512.7724847587585 L207.68638553073671,511.89839973766016 L204.20752847341208,511.5126246993128 L202.6208321600449,512.6912689612117 L200.22867848622357,513.4425150885203 L197.10137895771066,513.4831229872937 L195.88186495221325,512.7115729105985 L194.49047837707315,510.4355001843476 L194.25610669119942,509.3593908668515 L193.5209608365074,508.6680413902337 L193.067842243818,507.22544578630755 L192.23894771477657,506.4305461678178 L190.64053281711557,506.5716586160552 L188.73743472781774,507.7543636678315 L187.49682727059167,510.1908375942376 L186.75230654846484,510.90756700758845 L185.23592174085888,510.5492023009132 L182.94689160882317,508.57768881546315 L182.4234615103711,507.7898955792582 L180.8250466127096,502.61340368311494 L179.2141318918022,500.3789540531067 L178.41726815983077,498.40744056765664 L177.29072158972875,497.8490819595219 L180.00943314586857,494.78521599706625 L182.66173939100943,492.16194573630247 L185.36248245123124,489.9163289341318 L187.79526055060433,487.3560009164666 L192.36941461991358,482.8982688286129 L195.31312299449183,480.58970978334355 L197.1380971884973,479.64151534698374 L199.2060366968597,479.1034606882358 L201.1528841675204,476.7959168404353 L202.32083640212574,474.0132605769857 L208.15981633620225,467.5322399327458 L210.37384752875866,465.2876383280443 L212.68553359042954,463.2643497716579 L215.92142533339774,460.039067411578 L218.913570523057,455.73970612894095 L220.83619958617692,452.7672079387255 L222.1986803200582,449.984551675276 L223.70647149918244,445.24256429600814 L224.0963097366859,442.45990803255853 L223.9502180524904,439.5513672829116 L224.46114832769655,435.2205348787247 L224.77755010362625,430.6044319856548 L224.33927505104134,428.1375021351687 L223.02523113224106,423.90108309563044 L221.80884208255475,421.11944202965026 L220.76276312460368,419.3489376431284 L216.86984942223484,415.7439714295168 L215.14253009734335,414.4800505801938 L210.95743302658505,409.2629507852769 L209.8144804384725,407.9665436169349 L207.8191961527313,405.2163736725044 L206.28640532711532,402.4651885306042 L205.26454477670399,401.48552297269504 L204.2911210413741,401.01142575451524 L198.60292022521023,399.21046544391356 L200.08883671365177,395.5121010631231 L201.4106930219818,393.5009948763687 L202.24974365741053,391.8655117532688 L203.02395145974828,390.9020893548691 L205.16610866863795,388.9640773859068 L206.76530480525196,387.8006610860481 L211.2488351560215,386.3753238391005 L215.3456522251006,385.36926314698866 L220.34480028479436,383.7764183176008 L230.82824579394133,380.00394452154876 L234.0532001915692,378.3278534996753 L239.47265480793084,375.30967142334 L242.82651363278774,373.71682659395196 L250.40687519290861,371.4529362373332 L255.18102643416302,370.6153983251311 L258.6317588891818,369.8184683117024 L263.1152892399533,368.64490003715014 L268.4792758906578,366.72516162263616 z"/>
	<path id="kutahya-hisarcik" title="Hisarcık" class="district" d="M268.4792758906578,366.72516162263616 L263.1152892399533,368.64490003715014 L258.6317588891818,369.8184683117024 L255.18102643416302,370.6153983251311 L250.40687519290861,371.4529362373332 L242.82651363278774,373.71682659395196 L239.47265480793084,375.30967142334 L234.0532001915692,378.3278534996753 L230.82824579394133,380.00394452154876 L220.34480028479436,383.7764183176008 L215.3456522251006,385.36926314698866 L211.2488351560215,386.3753238391005 L206.76530480525196,387.8006610860481 L205.16610866863795,388.9640773859068 L203.6794109412424,385.27281938740185 L202.3044303841152,380.92066783635903 L199.97165087071468,376.64567129298587 L198.32714287483128,374.8975012507895 L196.44279452040448,373.3046564214018 L195.0975010434877,373.4985591380448 L194.34985536554882,373.9645347764699 L193.24362100822387,375.3634768892148 L191.89754629235313,376.2964433635343 L190.4624103358516,376.9177442147679 L187.86088462264885,377.03449192374154 L186.06637874780634,377.3065648455235 L183.40547887418273,376.95733691607194 L180.62426820181045,376.2964433635343 L178.2321145279896,375.5583948033273 L175.63058881478733,374.3919329110604 L173.56733674014308,373.6538843508531 L170.06816747004328,373.1493312085932 L165.1346434823945,373.3432339252364 L159.03394849909145,374.6254283290076 L155.20665886876859,374.74217603798127 L152.60513315556585,374.47010311619925 L151.6481154382475,373.61530684701836 L150.6012552413429,372.17778723043887 L149.76376708381972,367.8256356793961 L148.95674724545995,365.06632895774135 L146.80365269122947,359.58730821573596 L144.47087317782993,350.0667863483044 L143.15526678112457,345.5978870882881 L142.46777650255999,343.65479913197925 L139.53734919018115,338.4092738079209 L142.8013655354547,337.55143194633223 L144.65290185385948,337.2763134321422 L151.08249843633763,337.2417967181849 L153.38480963057324,337.13824657631255 L158.80895168065305,337.2417967181849 L160.39642923297274,337.070228345867 L165.26511038753003,335.7291524888744 L172.35641636312644,333.0815174888465 L176.13995661208745,331.43080640370647 L178.8914802042488,329.95267888835355 L180.6906735128085,329.4714752878883 L183.65469410016286,329.0582899178687 L185.16248527928562,328.61160303136086 L187.19995646848457,327.5111289746008 L188.49681313032036,327.16697703249594 L193.81470668280292,326.5832384876278 L197.33418816567882,325.99848474529045 L199.1599435986378,325.82691637297273 L204.23955927048203,326.6857734320308 L206.11843895223817,327.5456456885583 L208.0496616438409,328.817688117636 L214.32066671887864,331.08766965907097 L217.6284324455146,331.7749583458113 L226.65096111271322,332.2561619462765 L231.81026315775443,331.9810434320865 L233.47742708327155,331.5343565455787 L235.99145403374763,330.46839920277614 L239.74843215830833,330.02171231626824 L242.9765115117478,330.22779740254356 L245.27882270598343,330.02171231626824 L247.84519266630508,328.71515317323315 L250.0146932385456,328.19943285881055 L251.73420017390833,328.92123825950824 L254.61853438806526,329.36792514601603 L257.10599921414206,330.22779740254356 L259.566901915819,332.29067866023394 L260.8364152143049,335.3159671188547 L261.15437946813967,336.5880095479325 L261.2067224779853,340.8863556331004 L260.7309479556612,344.2557960338261 L260.5192321994217,351.8545490918048 L261.0746930949432,354.50218409183253 L261.60359186606496,355.94579489322825 L263.1121642841407,358.043192864876 L265.2285406075846,360.62280963445835 L268.0074075630978,364.6105052940095 L268.4792758906578,366.72516162263616 z"/>
	<path id="kutahya-merkez" title="Merkez" class="district" d="M510.87037961638146,155.92346790492746 L511.20474988822775,157.49093279758193 L511.345372899753,160.77915740076065 L511.8383346790421,161.90704178919282 L512.7976961132196,162.62681679495194 L516.6179545929657,162.94558880032343 L518.0765277180565,163.24101126390013 L520.1382173147947,164.7516250982718 L523.5920747256265,170.30374005806954 L524.1311296031361,171.48238431996847 L524.2694088978024,174.05083391738816 L525.4381423713602,176.9593746670352 L525.8389179542045,180.55926489330014 L526.8068730168651,183.2048694983893 L530.0107339627643,187.80269883701123 L536.4200183324659,195.3933303152354 L539.5910672423421,199.86121437778243 L540.6926141659499,201.59618685287725 L547.1347105716754,208.66602202933208 L548.7370316641016,209.70761463287056 L553.8768027353201,210.9217908061963 L559.5517224892841,213.43745013521053 L564.4586843525345,216.43025227481257 L565.2930475542462,217.0383555589447 L571.5343655490716,222.58945532127305 L575.1397833167681,225.14876814146865 L576.6085125482462,227.79538794402717 L577.2756906140336,230.18110199696642 L577.2428785780115,231.95871276577344 L575.072596766817,236.81744785401474 L573.2062169083068,239.86100986708362 L571.9351411319159,242.41220110752448 L571.5343655490716,244.40807933223869 L571.6015520990226,246.27299708340868 L571.9687344068918,248.52876586027296 L572.5031018506843,250.3500301202614 L573.4710569133449,252.73574417320063 L574.0382363931593,253.43013924222623 L578.8780117064597,257.63711755515396 L580.0467451800175,259.67563407358034 L579.8795600440944,261.75780408318815 L578.9451982564098,266.70283095632306 L578.0436485047471,269.43574254377506 L576.8756962701423,270.6499187171008 L574.8390063198959,272.16763893375787 L573.0702813305006,272.94832578767705 L569.4320515267812,274.163517158472 L564.1243140806864,276.41827073786703 L563.2563576039997,277.3725563590426 L562.4891809522392,279.281127601394 L562.4219944022882,281.7541486366962 L562.5219929882612,285.70123639747385 L563.4235427399228,289.1711813476637 L565.5602312761424,292.42387403941575 L566.7281835107482,293.5081049366664 L569.4648635628031,295.2867309029428 L571.0007793442312,296.9354115931443 L572.9702827445266,299.7982684566713 L575.2733751777162,302.400219570579 L576.4749206872971,303.9615932784176 L578.3444255016194,308.1695867888145 L578.7116078094887,313.2445589380244 L578.1436470907203,317.40788375977064 L578.2436456766942,319.1438714323349 L579.278787289304,323.30719625408113 L580.3467409379367,325.25942098761396 L582.5834280601283,328.4258218944725 L587.3567980624297,334.28148089760157 L588.5247502970356,336.3636509072092 L590.4270671473809,339.31279955562997 L591.6957992069127,340.6142827113185 L594.3660739479707,343.693376635814 L595.9012084904457,345.99279890385964 L597.0996290442155,347.4942759610074 L595.848084241647,348.49221507336455 L595.4965267128363,349.4058927957667 L596.0894870780975,354.57020232227825 L596.0676123874158,355.99655476669494 L595.7379295492867,357.109211193087 L595.0355957306182,358.16501656119635 L592.6864101992071,360.8755938043231 L590.5567528135648,362.3598125044921 L586.1654086592362,365.1272408059015 L585.8794752024704,365.6693562545269 L585.5943229846566,368.4936356142192 L584.9138638566698,369.60629204061127 L583.5302896710593,370.34840139069576 L582.1904648668124,371.661051718547 L579.1826948980961,373.287398064423 L577.5139684946719,375.42743432978284 L574.5280732166374,377.9948687297332 L573.0351255776195,378.76540360895905 L570.8171881902975,379.13696588273615 L569.1265870961927,379.22224247016027 L561.6829423528316,379.3359445867258 L559.22360212906,379.19381694101884 L554.1299241560629,380.3917499548351 L551.0119994949853,382.2749412604531 L548.2011017424031,385.10023581761476 L546.4448765762523,386.58343932031426 L545.1495823923225,387.98136623558975 L544.4909979550164,389.0940226619819 L543.6121041329884,391.51932941622516 L543.0980489019706,393.5497243548967 L537.9324969453063,386.5001931278288 L535.7770586742182,384.0149897228947 L532.6208533044475,379.55827283251045 L531.7708653236773,378.69027899622824 L527.7943590533474,373.7990575889682 L526.0037593732695,370.9595502672359 L525.0318981158447,368.6712951713529 L523.3928587926324,363.38617714599064 L522.2092817789692,361.7293748760344 L520.4788374982661,360.15175800868656 L519.1132318085722,359.48071248145567 L515.9265581196375,359.6390832866719 L512.6180111540491,359.32335687370846 L510.1891392494416,358.6533265439469 L508.2469792124971,357.74574000636073 L505.36342623729456,356.6807978610273 L503.42048496139705,356.28588604545587 L500.2634983526742,356.00975233379637 L494.46670532205553,355.7732113234412 L492.64485608386167,355.8523967260494 L488.69959937164765,355.18135119881833 L483.2660824541341,353.3671933211151 L481.1715808213728,352.9337040017089 L478.5911485598997,352.69716299135354 L476.22399453257117,352.77533319649245 L470.97250629108663,353.3671933211151 L468.2412949117004,354.1560017547892 L465.6257068973452,350.7987437236955 L462.7343415326135,346.8882030718138 L461.2101443354788,344.19691458060464 L456.91254885550103,340.9472674812605 L455.2711658154297,339.3229515303233 L454.21649322899634,338.5615534283214 L452.41886239834224,337.849900002317 L449.99624040535696,337.4438210145826 L447.02596990638034,337.2915413941823 L443.0408700075682,337.2915413941823 L441.2432391769145,337.088501900315 L439.0159269221573,336.3778636717801 L433.5066298262108,333.02669682550254 L427.33249838133503,328.86235680628687 L421.90132518068,324.8513116049409 L415.8053176310956,320.7387466566614 L412.87489031871723,317.89517854505186 L409.7882152157551,313.68109384983876 L404.39610396274674,304.23569659513817 L402.12972976034376,301.5454233013982 L400.1367891914617,298.5241956326547 L397.4993264864253,293.9537766257049 L395.1837342299898,289.38437281622424 L392.3118998390792,286.37532751711274 L388.7658562318045,283.7479964664717 L387.2713461148817,282.94802086063504 L384.9557538584452,281.0059481017956 L383.75420834886484,280.2821123061592 L380.5597222703999,277.3877843210826 L378.215224172707,275.5218513724434 L372.9020180539416,254.52452211417028 L368.2513025672475,226.8522694950142 L367.25522290228247,222.81584435693495 L366.84507245200285,220.0362336858933 L366.52242076444946,216.6089270294156 L366.90366537347165,212.49534688366674 L367.72396627403083,210.28729238786138 L368.74973301920676,208.11578500095194 L369.83409268585,204.99303758527503 L370.85985943102594,199.9282174107585 L371.27000988130555,195.92935457904463 L372.1785907835439,192.54062542640168 L374.2004371936839,187.9326441130862 L377.89335372410665,182.372407573534 L381.2925244082338,180.5826144350949 L385.51277723187224,179.5542193986576 L388.2674257798457,178.0689855010193 L390.17286758600216,176.69846891741588 L392.4876786034851,174.14626247950568 L393.5134453486606,172.28032953086642 L394.4509320921558,169.6905607865907 L395.0962354672631,166.72009299131398 L394.8024896209676,162.9882270940355 L392.2533069176109,158.41882328455495 L391.1978530922241,156.018896467045 L390.9048884848816,154.49610026304123 L390.87598264362373,152.36317037996668 L391.22754017243545,149.24042296428973 L391.69628354418336,147.64148695008578 L392.23533842169337,142.65991296805475 L393.95953279077423,142.44266070961692 L399.58523449070475,140.76250889786604 L402.76878322382737,138.92703187330696 L404.87578467983496,138.21131765742507 L406.4796682501661,138.05599244461672 L408.9452583855617,138.1493906117957 L413.58972396063314,138.8651048276774 L416.60608755783164,140.26506213789156 L419.1919884919759,141.6650194481057 L423.76458008337914,143.65582168547326 L426.4700105773186,145.0872501172367 L428.2176421149862,146.393809260272 L432.0957122772491,152.086021470838 L433.24491477698484,154.1082948297549 L434.20193249430366,156.69095719174533 L435.3511349940399,158.61983238348336 L436.97923697191135,160.29896899776486 L438.17609504777454,161.91719376388625 L440.1393485364477,163.19228178537202 L441.43229900351884,163.72119966689604 L443.0838381499785,163.9699230468832 L447.9197072685128,164.2734670902146 L452.1032418613655,165.60337577504458 L454.9578889953116,166.30386202888633 L457.25629399478305,166.1637647781179 L460.6499960062391,164.90390471867218 L462.1038816976112,163.61967991996244 L462.9484010057111,161.96389284747568 L463.00230649346224,160.93651300850775 L466.35694655727264,161.12737013274287 L470.462357254834,160.25937629646074 L474.20058564452506,159.04520012313503 L477.8395966871957,158.30816676039734 L481.84500879878453,158.09091450195945 L487.9863282076378,158.74165607980365 L490.65660294869565,158.26451326921585 L495.6307513618972,157.65742518255306 L497.2322912153703,156.83308483745228 L501.104892704962,155.70520044902025 L504.21188002069925,154.63010632899352 L505.6157664190854,154.91233122546885 L508.36650877229374,154.12859877914173 L509.75008295790406,154.28493918941945 L510.4031987225392,154.78847713420998 L510.87037961638146,155.92346790492746 z"/>
	<path id="kutahya-pazarlar" title="Pazarlar" class="district" d="M172.35954131893806,430.9211735960876 L173.8329579841337,434.9961762380017 L178.42117435459392,441.60815735578586 L178.90476126644774,442.92892926339175 L179.6305322537045,446.92068571282033 L180.01802677434986,451.6362779578854 L180.30786642588123,452.3905696776018 L182.1945584971671,454.87475788506663 L184.29921623631614,458.9923988206926 L185.43670015175803,461.9791097754788 L186.235126361636,467.63782046955686 L186.16247113901477,470.5615891812439 L184.9046764248242,473.04476219123956 L184.00937658478526,473.86199615405474 L180.21099279571928,475.0568835754629 L175.8571481111323,476.25075579940193 L173.87280117073195,477.3197587346126 L169.2041171881208,480.7460501936211 L166.10728597877085,482.6322870916472 L160.20502568950934,485.6819402895319 L155.51134206040493,488.2595266641755 L152.9230974094021,491.68683332065336 L151.5996786231665,492.21270560976916 L149.03565237970486,492.76801862549587 L145.95913338313056,491.86550807525634 L144.49509158537066,491.72744121942674 L143.7263524557036,491.35181815577243 L142.28418534862487,489.40873019946366 L141.71388091299838,489.15594602959914 L141.1763885133939,482.9561350843651 L141.4826341829363,479.9308466257442 L141.34513612722307,479.38568558471115 L141.2451375412505,475.37667077830366 L142.2623106579437,472.1960571068746 L141.86622250881655,468.68550425791136 L142.5755874780623,464.46025239053546 L143.3279205897174,463.6369272429042 L144.0896285688087,462.1516933452659 L144.77086893574912,460.20555979654904 L145.20601903252197,458.3304900706859 L145.88725939946283,456.5965327930602 L147.71145235451579,452.91745716418694 L148.85440494262832,451.78551198587786 L152.69341315724554,450.0870866196788 L156.0972712750894,448.45972507633337 L158.03005644459864,446.725767798708 L159.2284769983674,445.2395187036003 L163.55732203646164,438.552412973085 L164.2112190400497,437.03164716402 L165.35417162816321,435.7220424285768 L168.3494417736331,433.88250461414015 L170.36425703319784,432.25514307079504 L172.35954131893806,430.9211735960876 z"/>
	<path id="kutahya-simav" title="Simav" class="district" d="M205.16610866863795,388.9640773859068 L203.02395145974828,390.9020893548691 L202.24974365741053,391.8655117532688 L201.4106930219818,393.5009948763687 L200.08883671365177,395.5121010631231 L198.60292022521023,399.21046544391356 L196.508418592449,404.60827038837215 L194.1537643883678,409.009151417943 L193.39752508194712,410.0426224417268 L191.2506804393403,412.2780872692044 L188.12181843292186,414.75110830450654 L184.28359145725864,417.30839072976335 L182.92892311290515,418.52358210055843 L180.8641085603553,420.9549800396178 L179.99380836680962,422.50620177276284 L178.5094543562741,423.55388556111745 L171.2525257226596,427.7029976182929 L172.35954131893806,430.9211735960876 L170.36425703319784,432.25514307079504 L168.3494417736331,433.88250461414015 L165.35417162816321,435.7220424285768 L164.2112190400497,437.03164716402 L163.55732203646164,438.552412973085 L159.2284769983674,445.2395187036003 L158.03005644459864,446.725767798708 L156.0972712750894,448.45972507633337 L152.69341315724554,450.0870866196788 L148.85440494262832,451.78551198587786 L147.71145235451579,452.91745716418694 L145.88725939946283,456.5965327930602 L145.20601903252197,458.3304900706859 L144.77086893574912,460.20555979654904 L144.0896285688087,462.1516933452659 L143.3279205897174,463.6369272429042 L142.5755874780623,464.46025239053546 L141.86622250881655,468.68550425791136 L142.2623106579437,472.1960571068746 L141.2451375412505,475.37667077830366 L141.34513612722307,479.38568558471115 L141.4826341829363,479.9308466257442 L141.1763885133939,482.9561350843651 L141.71388091299838,489.15594602959914 L140.57483451965047,490.25540488888987 L140.69202036258707,492.33757489849756 L140.5537410679218,494.6704986830315 L139.83812618705286,496.65520973558284 L138.65220545653048,498.94549522640466 L138.49205147118357,500.45915465318444 L137.60534525962592,502.5687349944642 L136.68660825099926,503.596114833432 L135.35068964151776,504.0265585604303 L132.9475986223551,503.3189659243034 L132.16714090839466,503.5270814055172 L130.27654264234417,502.9849659568918 L128.3429762338829,501.91596302168114 L126.36644168301132,499.8896288728869 L126.15316344886625,498.6815438843772 L126.42581584343262,497.46533731611294 L125.6852013160709,496.31714897829403 L124.65943457089546,495.89178123864247 L123.64773012687243,493.8187480062587 L123.76179101399745,492.70812197480507 L123.07820693019846,490.5975264360559 L122.1235329297377,490.0615021722466 L120.27199661133292,489.46862685015446 L118.90482844373449,488.69098558864346 L116.9962616817665,488.3955631250664 L115.78534130475035,487.0443352933805 L115.12988182325626,485.84132629221756 L114.88691650889982,483.38962440377145 L114.00724144791982,480.3399712058865 L112.83382054064336,478.953211462774 L112.24711008700487,477.8100991123017 L112.24711008700487,476.7360201897444 L112.72679080409407,474.5868471471605 L112.19320459925422,469.28548596228876 L111.47368352362017,468.2103918422622 L111.12681342852653,467.0672794917899 L111.1549380308314,465.16581463172395 L110.80650545783269,463.67144395686165 L110.11354650659794,463.0470975132201 L108.61981762862763,462.70091517617664 L106.67297015796646,461.52227091427756 L105.25970889214611,459.54771183641935 L103.81988550192648,458.71524991156406 L101.87303803126579,458.1609520933067 L100.19259304354875,457.0523564567921 L99.92619056060556,455.7701620530207 L102.05975414101249,452.7205088551359 L102.24647025075873,450.84949991915 L102.13944051420896,448.8394089298649 L103.5534830189828,446.6212024593664 L105.34017650429658,444.99282571855156 L106.83312414331436,442.98273472926655 L107.20655636280634,441.56145827219655 L108.27372877248655,439.1706682319106 L108.35341514568447,437.1605772426256 L108.05966929938799,436.0864983200685 L106.4331297994226,433.071361836141 L104.75346605065809,431.9972829135835 L102.40662423610613,429.84810987099945 L101.73944617031768,427.87355079314153 L101.07304934348275,425.03201307647066 L100.93945748253415,419.4870044989583 L100.72617924838912,417.92766118605823 L99.97931480940372,416.29928444524364 L97.92621884114675,414.0810779747448 L96.6192060729222,413.28414796131614 L95.44578516564621,412.9024337128459 L94.11299151197582,411.5857225951173 L92.59270050960572,409.5065981779176 L90.48569905359761,408.1208536322741 L88.6193191950874,406.2833462127761 L84.19203804892663,404.55141933008935 L80.00537850026276,401.6053162740768 L78.24524713934831,401.0165017418619 L76.21871329549018,400.8083862606481 L72.77813694685918,400.66930420734894 L70.93831921274776,400.1495231030492 L69.44459033477744,398.76377855740566 L67.84461295920991,397.6551829208911 L66.05791947389662,396.9618030493346 L60.218158300868055,396.3729885171199 L58.61739968634846,396.6156207122911 L57.07132779853255,397.4470674396771 L55.204166701068814,398.10491539980677 L50.35032908661698,398.59017979014925 L49.25737579149049,398.4521129343195 L42.16372609903597,395.8186906988625 L39.25673595524482,394.95171206004966 L35.92318934316212,393.8085997095775 L29.549841965293695,392.7690375009777 L28.136580699472873,393.04618641010626 L25.229590555681725,392.73350558955076 L21.896043943599516,393.8085997095775 L20.349190816830593,393.8085997095775 L19.2827996461034,392.90710435680734 L18.349219097372256,390.86249665356485 L17.309390051043884,383.41196242610926 L17.496106160790113,380.91660704648166 L18.669527068066103,377.4862547975959 L18.802337690062153,375.2680483270972 L19.789042487591423,367.9220794389831 L19.575764253446373,366.7089184631266 L20.41090869411098,365.678493031751 L20.72809170899371,364.23285183541657 L20.834340206589964,362.0989067548726 L20.56950020155186,357.38432970727706 L19.960133818279665,354.527564028566 L19.403891683805597,352.8413210319992 L16.278935872150797,351.3956798356651 L15.431291608239796,351.1550780354323 L12.068057915946682,348.71149772674113 L10.584485144363697,346.1643672761775 L9.10169361173422,342.58478099929926 L8.333735721020169,340.0386657462049 L4.519727152896223,333.53328036270085 L3.9634850184216717,332.3292561640686 L3.540053505942197,329.95470928329223 L3.2752135009050605,327.0979436045811 L2.612722868834254,324.0696095535523 L2.7189713664300257,321.4189289611166 L3.0103734958669577,319.7672026785071 L4.308011396656248,318.49414505196 L7.6009335831872065,315.7520966872838 L11.025885152760218,312.72376263625506 L13.710222194971031,311.4842065261961 L15.687537984795647,311.11772023976573 L16.888302255423476,314.283105949155 L17.94766227557397,316.3023337156639 L19.571858058681265,318.9184975941423 L21.655422346102142,321.3498955332017 L24.162418146002004,323.5985579277804 L26.139733935825646,325.02186477978944 L30.095146754427418,326.58120809268917 L33.8029068249551,327.6370134607985 L39.382515426663204,328.3710012311283 L41.18327121312892,328.8755543733882 L43.6910482519818,329.1049890014581 L46.586319811479086,328.4633842008379 L49.14565862122454,327.5121441720701 L54.03777694436856,324.6543632958899 L57.004141248582,323.23207164135033 L58.09865702161356,322.86457015745077 L60.762681851048754,320.8686919327364 L65.49386494989332,316.99672878468954 L67.70477118663861,315.17647972217037 L70.53754362990297,310.6243342696686 L73.00079004843998,304.4631008282694 L74.51014370546878,301.2966999214109 L77.29135437784105,297.85518050036245 L79.8335059306215,294.8613631632911 L81.43504578409411,293.27968550606585 L82.90611873243023,292.17718105436705 L84.31000513081626,290.69702314407544 L86.21622817592521,287.90929089327926 L87.64667669871007,284.91547355620787 L87.80526820615144,282.6089449058769 L88.25604308198227,280.30343145301526 L89.84508311220898,277.30859891847456 L90.90444313235946,276.41420994798966 L96.62545598454588,272.52498844296395 L100.6503990699558,271.01031381871496 L104.72924764311784,269.8062896200827 L107.32530468364945,269.25605259170266 L112.6463231919441,268.4144538896232 L113.22053382233523,265.7434693478006 L113.2916265670504,264.550612321331 L112.93460036556846,261.681664272988 L112.32523398229625,259.10103230593626 L111.86039680531204,258.1670506341473 L111.04400209951797,257.4777315524683 L110.86431714034796,256.11330615368104 L111.71977379378819,252.63117883385902 L112.8752262051481,248.98661991894346 L112.54866832282963,247.50849240359045 L108.95106294466231,241.07518604040922 L107.99638894420156,239.97065119377177 L105.85188801845479,238.10877903500997 L104.51987560373695,235.94133243797785 L104.03394497502504,234.13732653496817 L104.5581563124301,224.45944905978953 L105.38548836356546,221.38340072770197 L107.14640096343197,220.81285974993534 L108.54325621124181,219.96313946810122 L111.33618546790746,217.7723433292744 L112.29007822941517,216.6150182142316 L113.56427896161676,218.5276502464603 L116.60876716112159,222.48387478446213 L119.51028863224258,224.77111468287578 L122.1977506302645,227.2431205207085 L125.55082821616978,229.6846704344612 L128.4765680948315,232.4348403788919 L133.56633987306256,236.8550101603801 L134.7319483908103,237.5971195104646 L136.87176188284042,240.06912534829746 L139.58344228840306,243.9014957950402 L140.36858743608113,244.5816780994951 L142.0334076447397,247.73386624178295 L144.4825917621233,251.07183552095918 L145.5528891276156,252.12256490172177 L146.31459710670595,252.43118493239987 L148.50206617486353,252.70934903899786 L153.97230132316426,252.40072900831981 L154.84728895042807,252.80376240364606 L157.59881254258994,255.25241869968414 L158.10739910093605,256.2239626778385 L158.97457433867015,258.8655064930505 L161.21673013353237,263.0623328312848 L162.3237457298108,263.83997409279596 L165.1143312696184,264.5404603466378 L164.38699780445558,266.6764358221202 L162.41358820939558,268.8530191963763 L159.03394849909145,270.56261173473786 L157.38944050320853,271.84480613850906 L154.18948575207492,276.08020998057805 L152.7840368757838,277.6344773061313 L149.82392248319405,281.36532800594046 L148.62784564628336,285.52256164287076 L145.63726293453018,291.19650029898867 L143.72400873884501,294.26645744626035 L142.16856198359335,297.41356960120135 L140.28499486811907,300.7555996702549 L139.35766423101114,302.81543533553736 L138.58033147286181,306.42852312890363 L138.34127235327048,308.41018858904715 L138.76001643203182,312.87908784906347 L138.78970351224322,315.5602243655794 L139.44750671059637,318.4362787962079 L139.6568787499773,320.72859468196816 L139.41781963038548,322.9823330638937 L139.11860511141882,328.7720042315159 L139.14829219163022,330.67651468399004 L139.62719166976592,333.9017970440699 L139.4771937908068,335.10683644017155 L139.53734919018115,338.4092738079209 L142.46777650255999,343.65479913197925 L143.15526678112457,345.5978870882881 L144.47087317782993,350.0667863483044 L146.80365269122947,359.58730821573596 L148.95674724545995,365.06632895774135 L149.76376708381972,367.8256356793961 L150.6012552413429,372.17778723043887 L151.6481154382475,373.61530684701836 L152.60513315556585,374.47010311619925 L155.20665886876859,374.74217603798127 L159.03394849909145,374.6254283290076 L165.1346434823945,373.3432339252364 L170.06816747004328,373.1493312085932 L173.56733674014308,373.6538843508531 L175.63058881478733,374.3919329110604 L178.2321145279896,375.5583948033273 L180.62426820181045,376.2964433635343 L183.40547887418273,376.95733691607194 L186.06637874780634,377.3065648455235 L187.86088462264885,377.03449192374154 L190.4624103358516,376.9177442147679 L191.89754629235313,376.2964433635343 L193.24362100822387,375.3634768892148 L194.34985536554882,373.9645347764699 L195.0975010434877,373.4985591380448 L196.44279452040448,373.3046564214018 L198.32714287483128,374.8975012507895 L199.97165087071468,376.64567129298587 L202.3044303841152,380.92066783635903 L203.6794109412424,385.27281938740185 L205.16610866863795,388.9640773859068 z"/>
	<path id="kutahya-tavsanli" title="Tavşanlı" class="district" d="M348.1461181140175,282.1774859814091 L346.2391138299546,282.22520026246787 L342.71963234707965,283.7084037651676 L341.67277215017555,284.6972061003007 L339.60405140286014,287.7265553487989 L337.7962644658182,289.1793029274183 L334.1572534231471,290.87874349108654 L330.4948052118888,292.022871039028 L326.5940791199907,293.93854866366485 L323.0738163981632,295.4532232879139 L320.69572502549335,295.916153333931 L317.4613957604312,296.2562444861585 L312.7044317761413,295.9476244554805 L305.85452863699527,295.35982512073497 L304.35611232530636,295.32936919665485 L301.0741274841172,294.71111393782934 L296.5554413804642,293.5680015873572 L294.10547602412754,292.8258922372728 L292.08441085294055,291.9609439933986 L288.3735258266013,290.075722292842 L286.66105004181475,289.425995912467 L279.6213058371099,285.3773884047557 L271.6300125877579,277.8984286481586 L270.27456300445283,275.36348056722693 L269.6800401612856,272.3351465161982 L269.2277028075487,270.9757971047576 L267.5152270227622,267.2977366733538 L265.5894730038307,262.90903801341506 L264.3519905024152,261.20858225227744 L262.52076639678654,259.26143350609135 L256.5036639814456,254.40980480013542 L249.08345640667306,247.70341031770286 L246.75223937117858,245.41617041928922 L244.3975851670969,243.74718577970106 L241.66246759294654,240.22343536363647 L238.11876770253133,234.19722318565897 L235.5742724328918,232.00236625695496 L232.07822811860365,227.64513871856548 L231.0555863292393,226.53248229217337 L229.36654771304046,226.65633638343238 L227.51188643882364,227.52128462730653 L225.44238445255564,228.8806340387472 L224.490835407907,230.21054272357713 L223.63459751551375,232.46631150044138 L223.39710087382798,235.4337337033099 L223.08773024847352,236.48446308407256 L220.9947910936188,239.14225005879382 L219.8534009834118,240.00719830266794 L217.45109120320313,240.31683353081536 L213.05115342039372,241.0579276834305 L209.31683122546625,242.23251115545204 L204.39346334420577,247.14708210450684 L201.34975638365492,249.15514269885313 L200.13649228977974,249.58863201825955 L195.95061398006888,250.57743435339268 L189.1725848245906,251.78247374949422 L185.93747432057586,251.28807258192774 L183.03595284945538,251.19568961221816 L178.17195912861527,252.45453447419465 L176.646980692528,253.42607845234897 L174.01576789911581,255.83514204708297 L172.49078946302757,258.2442056418168 L171.98220290468146,259.9537981801784 L170.69628358818505,262.47960948388595 L169.3509901112683,263.91712910046544 L167.91507291581277,264.65619285814194 L166.09166119971286,264.7333478658114 L165.1143312696184,264.5404603466378 L162.3237457298108,263.83997409279596 L161.21673013353237,263.0623328312848 L158.97457433867015,258.8655064930505 L158.10739910093605,256.2239626778385 L157.59881254258994,255.25241869968414 L154.84728895042807,252.80376240364606 L153.97230132316426,252.40072900831981 L148.50206617486353,252.70934903899786 L146.31459710670595,252.43118493239987 L145.5528891276156,252.12256490172177 L144.4825917621233,251.07183552095918 L142.0334076447397,247.73386624178295 L140.36858743608113,244.5816780994951 L139.58344228840306,243.9014957950402 L136.87176188284042,240.06912534829746 L134.7319483908103,237.5971195104646 L133.56633987306256,236.8550101603801 L128.4765680948315,232.4348403788919 L125.55082821616978,229.6846704344612 L122.1977506302645,227.2431205207085 L119.51028863224258,224.77111468287578 L116.60876716112159,222.48387478446213 L113.56427896161676,218.5276502464603 L112.29007822941517,216.6150182142316 L113.69474586675375,214.71761414404295 L114.05567826299983,213.57247139863222 L113.80646303702068,211.8060278019878 L112.8283518679722,210.4547999703018 L112.79632107090322,209.67715870879056 L113.37443789605894,207.1889097114484 L114.38145490636481,206.04985815085365 L117.38609991926995,205.24277616273156 L120.00403165048323,204.28442975167866 L123.69929189776403,202.53524451201287 L124.1680352695129,202.1068311799532 L124.27272128920359,199.5404119774722 L125.53910963187545,197.73336048205437 L127.6164240076736,196.9151113217698 L128.15938507994827,196.36588949085905 L128.05704277711615,194.49488055487308 L124.07116163935191,185.01090579633782 L128.52969234362914,186.27990263300762 L130.3648226440229,186.69004241061918 L131.57261806522743,186.61187220548032 L135.49834380361781,187.04333112994814 L142.69433579890494,188.23618815641774 L145.8724158593569,189.05443731670232 L151.29187047571855,189.59350717291963 L154.16057991081703,190.02496609738745 L159.68628302477495,191.08483225537407 L164.51824594854463,192.22286861849952 L168.6853745233859,194.02788971897866 L169.74239082667827,194.2634155318646 L172.7923476988528,195.71514791301485 L174.06107975838373,196.0684366323436 L177.92586885844673,196.22579224009075 L183.42188489219424,196.81460677230558 L185.56638581794198,196.57908095941968 L187.5593263868241,195.244096287243 L189.85460643048447,192.88985335585323 L191.69598664250145,190.81072893865337 L193.35690065639636,189.47574426647674 L195.41077786360535,187.47479005441588 L197.25293931457583,185.1987173281649 L198.2794872987043,183.43328892898995 L199.72868555635924,180.41104606277713 L201.7825627635687,170.63977042041978 L202.8395790668606,167.4622023413986 L205.13407787156748,164.16585615846503 L206.40280993109937,161.92836093604888 L207.79185278937996,158.0046227170659 L209.8152616774265,153.37430705942512 L210.8722779807179,151.29416744475603 L212.56287907482275,146.5064961793683 L214.19410600850628,144.58371217244616 L216.57922853175143,142.62235066168927 L219.25419070652742,140.91580371573576 L220.86744914429391,140.1107521225524 L223.82678229793112,137.08850925633973 L228.47984150148284,132.54347018612322 L234.2453849739856,126.14061974702204 L239.46952985211777,121.3143709777994 L240.6445132372998,119.88497294097456 L241.7023107795457,117.75204305790004 L243.56556568224386,115.65566028372163 L246.90458096699672,112.18470013606232 L248.2897176305122,113.49125927909762 L250.78968227983586,116.45665108702752 L251.5232656566214,117.58656587039829 L252.36544124786218,117.55103395897153 L252.4740334623175,118.61090011695825 L251.76779344888337,119.63421916604871 L251.57717114437253,121.89404873279027 L252.12091345560066,122.52956234859454 L252.8544968323867,122.24733745211918 L253.83260800143415,120.79966586084628 L254.81071917048166,121.71740437312587 L254.89196802158466,123.83612149162968 L254.593534741572,126.34264404341985 L254.53884801486834,128.24918489083265 L254.7833758071303,131.53233350666466 L255.54430254726816,132.94548838398015 L256.9841259374878,133.7576463594488 L262.14655293834056,134.39315997525307 L264.72776643876625,134.92207785677698 L273.313582531287,137.67630859108522 L275.433083810541,139.19402880774217 L279.7806785835053,140.14729923144859 L280.8400386036558,140.92494049295982 L283.8829643252541,144.52584591669398 L285.64934559779124,147.3501252763864 L286.7633923446464,149.60995484312798 L287.7415035136944,151.97536494668032 L289.28991911836886,154.8707081292262 L291.49066924872636,159.31930343985573 L293.1750204312075,161.33244002154873 L294.6156250603802,162.1090660855906 L296.65309624957865,162.42682289349273 L298.9624385943915,161.15579566188438 L301.57099545816993,159.10814236623395 L305.46234668263224,156.47776572318477 L311.10367316162075,154.44127959969714 L315.24736456787525,153.31441040873432 L320.4636970564787,152.5763618485272 L325.7073729084345,151.58755951339418 L331.25026327935547,151.19873888263845 L333.5596056241683,151.16320697121168 L336.81971577467624,150.84545016330952 L339.5095214895582,150.24546845893207 L341.3032461254477,149.53990621774375 L344.5367941515568,146.8912560202465 L345.6774030228103,146.1501618676314 L347.22659986643833,145.58469687721134 L349.31875778234047,145.16135953249824 L351.0570144525728,145.65576070006475 L352.3890268672911,147.03236846848426 L354.23665699093124,147.77447781856873 L357.8225437848042,147.84452644395293 L362.2240440455192,147.24454473957542 L364.6966653314905,146.50345058696018 L367.5770933508828,144.102508571981 L369.5333156889783,140.81834475867964 L369.83174896899095,139.51178561564433 L370.40595959938304,138.61942704009823 L373.0051415957272,137.8103146570375 L373.34732425710274,138.33618694615353 L375.95666235983424,139.6112749676392 L381.17533856529576,140.6071836850577 L383.1143736464272,141.5716212809267 L386.94478823256316,142.4111895880675 L392.23533842169337,142.65991296805475 L391.69628354418336,147.64148695008578 L391.22754017243545,149.24042296428973 L390.87598264362373,152.36317037996668 L390.9048884848816,154.49610026304123 L391.1978530922241,156.018896467045 L392.2533069176109,158.41882328455495 L394.8024896209676,162.9882270940355 L395.0962354672631,166.72009299131398 L394.4509320921558,169.6905607865907 L393.5134453486606,172.28032953086642 L392.4876786034851,174.14626247950568 L390.17286758600216,176.69846891741588 L388.2674257798457,178.0689855010193 L385.51277723187224,179.5542193986576 L381.2925244082338,180.5826144350949 L377.89335372410665,182.372407573534 L374.2004371936839,187.9326441130862 L372.1785907835439,192.54062542640168 L371.27000988130555,195.92935457904463 L370.85985943102594,199.9282174107585 L369.83409268585,204.99303758527503 L368.74973301920676,208.11578500095194 L367.72396627403083,210.28729238786138 L366.90366537347165,212.49534688366674 L366.52242076444946,216.6089270294156 L366.84507245200285,220.0362336858933 L367.25522290228247,222.81584435693495 L368.2513025672475,226.8522694950142 L372.9020180539416,254.52452211417028 L378.215224172707,275.5218513724434 L375.8152581093569,278.3613586941757 L373.84966090382613,278.81921275284617 L371.32625908591524,279.6577658625176 L368.7731701877935,280.07704241735337 L366.16148836820344,280.0394801109878 L364.3130770056107,280.19175973138823 L359.559237977131,279.39076892808237 L356.4491257055821,278.70449543881125 L355.27570479830564,278.7430729426461 L352.54683713577896,279.58162605231746 L349.78828239304187,280.76331590662437 L348.5562685642971,281.4881668997301 L348.1461181140175,282.1774859814091 z"/>
	
</g></g></svg>