<svg xmlns="http://www.w3.org/2000/svg" version="1.2" baseProfile="tiny" width="600" height="600" stroke-linecap="round" stroke-linejoin="round"><rect id="backgroundrect" width="100%" height="100%" x="0" y="0" fill="none" stroke="none" class="" style=""/>































































































































































































































































































































































































































































































































































































































<g class="currentLayer" style=""><title>Layer 1</title><g class="city city-44" id="malatya" title="Malatya">
	<path id="malatya-akcadag" title="Akçadağ" class="district" d="M104.34551813639587,369.73499354364407 L104.62477136967206,369.1728503201675 L105.73497324830402,368.61259032357054 L107.05556103168006,368.46381540010435 L110.56779478678061,368.35176340078493 L112.42872622478755,368.0532719404131 L115.9409599798881,366.7830354103134 L117.53171959057937,365.5504634177999 L118.22190644355294,364.50527249977836 L118.76225009818336,362.0768514388982 L118.82203602075495,359.1644410700332 L119.0324219254995,358.342412537211 L120.14262380413192,356.2510890877285 L121.82344069059477,354.15976563824614 L122.66422752574135,353.525118179916 L125.51578899723847,350.6861536593446 L127.0770340385591,348.4451136729564 L129.11808002811014,347.736078752893 L130.6187823630303,347.92251821394547 L131.66919831909067,348.37072621122326 L134.16053068750148,348.4827782105427 L135.15116072099028,348.2210096743173 L137.25199263311333,347.0637667569767 L138.87302359700462,346.3537902234739 L139.8038677079237,345.1965473061329 L141.48468459438655,341.7973227889644 L144.3362460658837,339.0336873435656 L148.2684948466426,333.24558952998234 L150.1589408540197,330.85483300668824 L150.9096704133947,328.98761355584475 L150.93994176659564,325.92548665007405 L151.5097999905967,323.6100592019528 L151.92981501625553,320.8831466807005 L152.89093048037418,317.14870777901353 L153.43959875713526,315.42273034411875 L153.52133141077712,312.76926367115993 L155.64032613481888,312.8831988973587 L161.33815159100234,312.74101526797 L164.4462627808751,312.9170969811862 L165.4959219531061,312.7984536877892 L166.60233991258738,311.8973296260358 L167.87146639552347,311.48396132602545 L172.677043716119,311.6063710731812 L173.69264761599885,311.38415030142176 L174.79603844016123,310.5291652982114 L180.59451614573695,305.16479353247456 L181.80082957078113,304.59605901492074 L183.7450072300896,304.3738382431611 L185.0610543104861,304.61677451059313 L190.90872296501226,306.3747668024363 L192.35342329651147,305.9623401158657 L194.30062809114028,304.0555729005565 L195.00822097220413,303.86348375886615 L197.35349406142055,304.3211078905403 L201.44693779797268,304.1619752192378 L202.75238990474895,304.00378416137517 L204.0328681451351,303.3201728041829 L205.6591965958367,301.7439119061937 L208.48956812009342,300.0273506056956 L209.83437298603022,299.0424229478126 L211.90871746410113,297.79007707306613 L214.03225289112387,297.57256436850497 L215.4209512192017,297.15448800129644 L217.43929369385168,297.35787650426255 L222.6769945813864,298.7072085632939 L224.00363663540264,299.6196319863234 L224.3842989019,301.2815797073214 L225.7185087942166,301.7231964105214 L227.70809348332673,301.06218377588084 L228.75548230406676,300.37857241868846 L229.5092389987621,299.3070163243567 L230.7518780476474,298.7928953863027 L234.45936203089136,299.84373598496217 L235.53475185334233,300.3060681838348 L239.28915643404764,302.6939998668098 L240.6445562736042,303.3437131401743 L243.17448461734472,302.4181071289897 L245.31088536947772,302.39739163331706 L250.68480734641503,302.96706776431085 L251.72916903183523,303.1525656119236 L253.2366824212254,304.3248743442988 L253.6756170426342,304.39172889851466 L256.9653563517098,303.7674391880207 L258.74682548756584,303.13279172969067 L260.5948916004625,301.60643634400355 L261.2260493146949,300.545237997508 L261.3380533215372,299.0057000236658 L262.18338085966377,298.22604409562825 L262.94243504116946,298.3927096744478 L266.2783381638756,300.0264089922559 L268.5615549790314,301.7702770825042 L267.5573028366007,303.5122619458732 L267.3771882850575,305.60358539535576 L268.33754696534675,308.6289893769796 L269.4780201971801,310.384156828504 L270.9492079627287,312.2890408169338 L272.5399675734204,313.9321562691387 L274.701342191944,315.5752717213435 L278.3331477921858,317.9660282446373 L280.88426608316774,318.86244423919266 L282.99644975273947,320.31158732282756 L284.1581129318123,320.79086856361414 L284.7567289413537,321.41986634130626 L282.8344980131164,324.7183382204314 L282.2578287346439,325.94337730542765 L281.9361956068878,328.2663376610662 L281.61229212764164,329.42734703216564 L280.11461692804136,332.9084919185845 L279.4531878606081,333.95556606348515 L277.117752961182,336.36609646901195 L276.112744034921,336.9668458435142 L275.0282728065104,338.02804419000995 L272.4900198406392,341.8500531415855 L270.9249908801689,344.66547732616533 L267.6844425200432,351.14942747165657 L264.57860168166144,355.35749793349225 L263.16644305485363,357.5740559704492 L263.141469188463,359.6540800586558 L262.9045958496686,360.5420215322541 L263.0249244786407,361.73692898718133 L265.03569911499125,365.0608244291771 L265.81594324373594,367.0024313417539 L266.20644370002367,368.7952633308643 L266.2662296225962,372.0447713111272 L265.7561573211653,375.74154567522817 L265.305870942306,381.9787930995287 L264.25545498624564,386.6473125333575 L263.354882228527,389.3365605170232 L262.2446803498951,391.87609196378327 L261.6437939888632,392.84689542007163 L261.1034503342323,394.63972740918206 L260.98387848908965,398.3741663108693 L260.4730494038294,400.50315429793807 L259.60274799931216,402.1839342877293 L257.9219311128489,403.0803502822844 L256.5710719762723,403.0803502822844 L254.85998373660811,402.78091720847306 L251.01854901545153,401.5492868293991 L246.27578475274652,399.34496976715775 L242.25347869621697,398.5238828477752 L241.32263458529786,398.44949538604214 L240.0921040776934,399.08414284437214 L239.8824749567796,400.0926108382469 L239.0265524450323,400.61803113757657 L238.65345801683435,402.45229411803194 L238.19106309669513,403.60200412785565 L236.29002211569784,403.7131145137353 L235.4726955792812,405.90142414750244 L235.6861086193452,406.82985499900616 L234.9399197629507,408.1123325038216 L234.7265067228867,409.1509321277653 L233.58906062637416,409.28369962275735 L232.73692203377658,410.5445200184608 L232.73692203377658,411.2290729890928 L233.37640437014002,412.1358467314842 L232.59464667373425,413.2187021870919 L232.27831103278754,416.00211151472377 L230.76474337275764,415.5991009625497 L228.36346828011935,415.97292149809414 L225.81234998913882,415.78554042360196 L221.85058663900975,414.59063296867504 L218.09845240979493,413.1339569775225 L215.51706276561345,412.2375409829675 L211.46448535588294,411.45317698773147 L208.46308068604264,411.3044020642653 L206.0618055934053,411.86466206086243 L204.02075960385426,411.97671406018185 L199.03809486703452,411.26673752667904 L193.03452874352453,410.2215466086577 L191.14332595231667,410.14621753348496 L189.19233723853907,410.33359860797714 L185.95103209458404,410.33359860797714 L178.74645003284024,410.07183007175183 L174.66435805373817,409.69800953620745 L171.84306793544292,409.06336207787706 L168.15071962879827,407.75640262363055 L166.04988771667752,407.2338071646198 L163.61834127083827,407.0464260901277 L161.84746710860384,407.27053008876675 L158.78627651619198,407.9805066222695 L157.0146455701263,408.65281861818585 L155.30431411429237,409.9597780724324 L153.5932258746286,412.4993095191925 L152.81298174588343,413.9183209727584 L151.7020230834207,415.3749969639107 L149.57091981809856,417.2054934906076 L148.760404336152,418.54917586900103 L147.85983157843384,419.3335398642367 L145.49790924495701,420.63955770504356 L142.55629049768828,417.95030972137783 L141.89561821408486,417.2036102637284 L139.55488582784847,413.20740282581596 L135.08229339245912,405.02854848893884 L132.29051784353402,402.04080904490104 L129.88924275089573,399.1651216001828 L129.07872726894917,397.74611014661684 L128.50886904494763,396.1020530809724 L128.1183685886599,394.3101627053014 L127.93825403711674,391.9947352571804 L127.51823901145883,389.67836619561945 L126.8575667278545,387.4749907468176 L126.0175366765387,385.2348923738691 L124.30644843687398,382.2838758539781 L120.22435645777375,378.84792841266267 L116.47222222855754,377.279200422191 L113.23016030077267,376.0842929672638 L110.49892745824899,374.36679005332604 L107.85699510766611,372.08808552935153 L104.34551813639587,369.73499354364407 z"/>
	<path id="malatya-arapgir" title="Arapgir" class="district" d="M393.9084175282611,211.90834008209697 L392.7581061066383,211.76050677207044 L390.87371436990003,210.97990923059328 L387.43488864631206,209.2059095102759 L385.50054917679347,209.170128199569 L385.3113532192893,206.92532175942208 L384.65068093568635,205.05810230857855 L384.65068093568635,203.82553031606483 L384.1406086342564,202.9291143215098 L384.35023775517067,201.3236634068913 L383.8401654537398,200.6136868733885 L383.78037953116916,194.48849144840742 L382.0390199383044,192.17306400028613 L380.6586462323573,190.86610454603954 L378.49727161383373,188.43862509859886 L375.7660387713086,184.59213419759223 L374.86546601359186,183.9942096634088 L371.8035186373497,184.0318742009953 L369.52257217368486,183.84449312650315 L367.3611975551613,183.28423312990597 L365.08025109149645,182.9857416695341 L363.7891778774901,182.23904221188465 L362.8886051197724,181.41701367906245 L362.6184332924563,180.70797875899933 L362.8886051197724,177.6825747773752 L362.7690332746293,175.74002625135893 L361.6285600427978,170.9603964316504 L361.20778823330863,167.26268045410995 L361.1782736639385,166.10449592332935 L360.5773873029062,163.93878501211398 L360.15737227724736,160.35312103389296 L359.4369140710738,158.82205758100758 L359.28707087273017,156.7683986691116 L359.76687182095964,151.57728377627183 L359.40664271787233,148.2157237966896 L359.106956321187,144.18185182119106 L358.2063835634693,141.82875983548348 L357.846154460382,137.90788147274372 L357.33608215895117,136.71297401781652 L357.78636853781137,134.69603803006714 L357.36559672832226,133.3890785758208 L356.25539484969033,132.3052815067733 L353.6740052055089,130.84954712906077 L352.8037038009916,130.5501140552492 L350.7626578114406,128.45879060576664 L349.17114141691854,126.51718369319008 L347.4002672546827,125.9569236965929 L346.01989354873655,125.91925915900661 L344.3390766622718,126.96539169046758 L342.8981602499237,127.45032261189198 L340.88662882974376,126.85333969114821 L337.7353809615599,124.91079116513191 L335.3636204382936,123.93998770884373 L332.4220016910249,122.93151971496904 L329.03009656489775,120.80253172790023 L327.04959328174766,118.67354374083145 L326.0286918950575,117.1424802879461 L325.48834824042615,113.52009338557824 L324.52798956013686,110.79318086432599 L323.507844957277,109.26211741144064 L322.15698582069996,107.7310539585553 L319.0352525218881,105.07947051247587 L316.9336638259352,104.22071905550709 L316.00357649884734,103.43635506027113 L314.953160542787,101.49380653425482 L314.3825455349551,98.8422230881754 L314.2327023366115,95.29422364754065 L314.59293143969876,89.87900475606239 L315.7334046715321,84.65022532563651 L316.09363377461847,79.27267097174452 L315.7031333183307,77.2180704464087 L314.2924882591831,75.79905899284276 L312.8818432000345,74.94030753587383 L311.50071271025706,73.74540008094675 L310.14985357368005,72.1390075528886 L307.9589643857873,69.86124464235371 L307.35883480858524,68.96482864779853 L305.88764704303577,67.91869611633741 L304.3566733549156,65.93942466617442 L303.73838096579254,63.785954729674614 L305.8604028251556,63.20874569116367 L308.29119248716404,62.20027769728898 L311.56352576814896,59.996902248487196 L314.0245867833579,59.28786732842406 L315.1650600151903,59.175815329104545 L317.6866637368011,58.31612225869607 L319.367480623264,57.382983339994034 L321.0482975097277,57.158879341355274 L325.61094722088865,56.897110805130104 L329.0028523470167,56.30012788438635 L332.30470019737265,55.17960789119227 L333.82961961485313,54.41030971099096 L335.7382284341512,55.36416412536538 L337.39331467039455,56.570370941568456 L338.04793268335686,57.50633470058929 L342.4244135723349,61.68144869203696 L343.7457581395408,62.78219480299823 L346.0206503325659,64.14000138298633 L350.77022564974095,66.05524311925255 L351.96216018201426,66.31136197483971 L355.7021858699492,66.19554352176169 L362.82881919720177,65.48085892106056 L364.4960139747246,65.17389293973173 L366.2797534620701,64.4337847761599 L368.38815321249217,63.079744649930404 L372.74647128954825,59.182406623182246 L374.4008007419622,58.189004444342046 L381.1407175320758,54.67207824721613 L383.37928410126165,53.66172702646204 L387.2835318803087,52.173036178361414 L390.2947747399385,51.309576654194174 L392.5522609048738,51.01485164758093 L393.93036425933184,51.26061275533189 L397.2829166262984,52.325577555586136 L400.68011923923586,55.21256436158035 L401.8940005025799,56.72008747847424 L402.61370192492416,58.20501187281624 L403.10334106294397,60.14379394507391 L404.5730152608338,62.87353130664509 L405.55077996921284,63.83115217477814 L410.763506990357,67.10985017167047 L411.81165259492826,67.46013037122357 L416.34327416905836,67.89986384754428 L419.85021043734764,68.04393070381207 L422.88264324421874,68.04958038445008 L424.1449586726834,68.34618861794257 L426.19432928436413,69.33111627582582 L428.2898637096764,71.40454906995477 L434.67030818053405,79.35553295443444 L436.3170697946467,81.74723109116809 L437.5052204077703,84.53629009943775 L439.601511616912,88.43174489930652 L440.5149496997413,89.4204390109484 L444.5168225928598,90.9392614891182 L446.8484735731362,93.19819213085992 L446.3754836793767,94.00892130240614 L444.6651522235428,96.10024475188865 L442.50377760502016,97.10871274576337 L441.1831898216446,98.30362020069056 L440.58230346061134,99.27442365697873 L439.531887504551,103.38268309421068 L438.9915438499196,104.8393590853629 L438.271085643746,105.73577507991821 L436.4404255589396,106.55780361274043 L434.4894368451606,106.7819076113792 L432.29779087343655,107.75271106766763 L431.4577608221198,108.9852830601811 L430.37707351285894,111.33743343244896 L429.56655803091144,114.40050195165935 L429.4167148325697,117.27618939637755 L429.56655803091144,120.52569737664042 L429.4167148325697,121.7573277557142 L428.0355843427922,125.67914773189365 L427.2250688608457,127.02377172372651 L425.124236948723,129.82507170671187 L423.95349236369015,130.98231462405255 L422.9931336834009,132.28927407829912 L420.7719731423067,134.6056431398601 L417.65023984349483,137.21956204835297 L416.4492239052605,137.9295385818558 L413.5076051579918,139.16116896092984 L411.52710187484263,139.4229374971549 L410.5364718413529,139.83348095684613 L408.55521177437345,141.96246894391493 L407.8044822149985,143.90501746993124 L407.6849103698553,147.825895832671 L408.01486811974206,150.4030918170173 L408.52494042117206,151.5979992719445 L409.7259563594073,152.7929067268717 L412.2770746503873,153.7269872590133 L417.2900107404066,156.2288541681868 L420.41174403921946,156.37857070509276 L421.7921177451675,156.6026747037315 L423.1429768817436,157.12527016274214 L425.0039083197515,158.5452232297478 L425.7849092323269,159.85218268399439 L426.4145533789,161.64501467310507 L427.3756688430187,167.06023356458329 L428.336027523307,168.85212394025424 L431.90804720097816,172.36340045674214 L434.4266237872687,175.07430554952018 L437.67549676952405,178.34170418513665 L438.7266695094147,180.41607859270502 L439.1534955895427,183.7070175643129 L438.697911723874,186.29080484273712 L437.5846827099226,188.8557598523677 L436.7688697411657,190.09021507176055 L436.57588986451185,191.51675943284377 L436.4018295836084,195.7813267010589 L437.34099831665725,198.4093698111469 L435.6957502702052,198.15701740931846 L433.6312439819228,198.8895926653731 L432.48925718243066,199.8359141722301 L432.5603948624523,201.25869207955483 L433.58962087127225,202.6616961046466 L437.62781938823287,205.87730600108168 L438.0743218479415,207.4648662603466 L437.5748445201323,208.55619623691135 L435.45812014757956,210.6503445267127 L433.10527922006276,212.4902571878062 L431.79679997796666,212.90550871469566 L430.27263734431557,212.37067228096961 L427.0320889841918,209.9968647995894 L424.7897384958572,209.0062874610683 L423.94668130922014,209.0778500824823 L421.94423129500024,209.84997310300255 L420.4685028264707,210.1352819752193 L418.76044172212585,210.10515034515026 L416.15483499538453,209.77181918751094 L413.66577297846516,209.2322746865864 L412.5411922070628,208.76900087427413 L407.48966014171145,205.95545991657332 L405.87771058378024,205.20405239172547 L403.4060545949506,204.77750150356002 L401.2136518393963,204.86130509968973 L399.5615927384742,205.84340791725393 L398.62696470840444,207.14471769086265 L397.11718096752475,209.77276080095064 L396.3550996506997,210.8462001221618 L395.0587289498839,211.7219006210445 L393.9084175282611,211.90834008209697 z"/>
	<path id="malatya-arguvan" title="Arguvan" class="district" d="M303.73838096579254,63.785954729674614 L304.3566733549156,65.93942466617442 L305.88764704303577,67.91869611633741 L307.35883480858524,68.96482864779853 L307.9589643857873,69.86124464235371 L310.14985357368005,72.1390075528886 L311.50071271025706,73.74540008094675 L312.8818432000345,74.94030753587383 L314.2924882591831,75.79905899284276 L315.7031333183307,77.2180704464087 L316.09363377461847,79.27267097174452 L315.7334046715321,84.65022532563651 L314.59293143969876,89.87900475606239 L314.2327023366115,95.29422364754065 L314.3825455349551,98.8422230881754 L314.953160542787,101.49380653425482 L316.00357649884734,103.43635506027113 L316.9336638259352,104.22071905550709 L319.0352525218881,105.07947051247587 L322.15698582069996,107.7310539585553 L323.507844957277,109.26211741144064 L324.52798956013686,110.79318086432599 L325.48834824042615,113.52009338557824 L326.0286918950575,117.1424802879461 L327.04959328174766,118.67354374083145 L329.03009656489775,120.80253172790023 L332.4220016910249,122.93151971496904 L335.3636204382936,123.93998770884373 L337.7353809615599,124.91079116513191 L340.88662882974376,126.85333969114821 L342.8981602499237,127.45032261189198 L344.3390766622718,126.96539169046758 L346.01989354873655,125.91925915900661 L347.4002672546827,125.9569236965929 L349.17114141691854,126.51718369319008 L350.7626578114406,128.45879060576664 L352.8037038009916,130.5501140552492 L353.6740052055089,130.84954712906077 L356.25539484969033,132.3052815067733 L357.36559672832226,133.3890785758208 L357.78636853781137,134.69603803006714 L357.33608215895117,136.71297401781652 L357.846154460382,137.90788147274372 L358.2063835634693,141.82875983548348 L359.106956321187,144.18185182119106 L359.40664271787233,148.2157237966896 L359.76687182095964,151.57728377627183 L359.28707087273017,156.7683986691116 L359.4369140710738,158.82205758100758 L360.15737227724736,160.35312103389296 L360.5773873029062,163.93878501211398 L361.1782736639385,166.10449592332935 L361.20778823330863,167.26268045410995 L361.6285600427978,170.9603964316504 L362.7690332746293,175.74002625135893 L362.8886051197724,177.6825747773752 L362.6184332924563,180.70797875899933 L362.8886051197724,181.41701367906245 L363.7891778774901,182.23904221188465 L365.08025109149645,182.9857416695341 L367.3611975551613,183.28423312990597 L369.52257217368486,183.84449312650315 L371.8035186373497,184.0318742009953 L374.86546601359186,183.9942096634088 L375.7660387713086,184.59213419759223 L378.49727161383373,188.43862509859886 L380.6586462323573,190.86610454603954 L382.0390199383044,192.17306400028613 L383.78037953116916,194.48849144840742 L383.8401654537398,200.6136868733885 L384.35023775517067,201.3236634068913 L384.1406086342564,202.9291143215098 L384.65068093568635,203.82553031606483 L384.65068093568635,205.05810230857855 L385.3113532192893,206.92532175942208 L385.50054917679347,209.170128199569 L383.15300573608704,210.28123205836644 L381.9837747187129,212.23696317253788 L382.0163164234043,213.558988441819 L383.0909494620245,216.46951558380468 L384.2193141525784,218.73786235994302 L385.45135822784255,221.8329457361018 L385.9364566628824,227.13328778794158 L385.68142051216694,228.44213046906756 L384.56592114672463,230.599366859326 L382.2024852455872,232.53249925094593 L380.439935705482,233.2198770618967 L375.26277752434964,234.4034851555479 L369.62019728775635,235.4910486783542 L367.98857135024343,236.15582776675322 L365.39507316478256,237.70666510187152 L364.2190310929384,238.75279763333248 L358.9866276922145,243.87705797195613 L357.56236052412584,245.55501312142835 L350.16631215338833,255.6905401859168 L349.45720570466386,256.8910973214819 L347.254964759321,263.7253276665261 L346.9159256034742,265.2488582118941 L346.933331631564,268.4503439067345 L344.37313193462296,268.74695214022694 L341.04176951489677,268.6349001409076 L338.24999396597167,268.03697560672435 L336.02883342487746,267.700819608766 L331.8869555232038,266.2074206934668 L330.0858100077685,265.27334016132534 L325.5534316498071,263.5181727098012 L323.12188520396927,261.94944471932956 L320.75088146453237,258.8873178135586 L319.2199077764113,256.3101218292123 L318.4691782170363,255.33931837292414 L315.5275594697676,252.68773492684443 L312.70626935147135,251.30544639742527 L308.864077846485,248.80357948825153 L306.4325314006471,246.41282296495766 L304.15158493698135,243.64918751955884 L302.77045444720295,242.37989260289856 L300.6393511818808,241.52114114592973 L298.4787333471876,241.66991606939573 L297.3677746847262,241.33376007143758 L295.98740097877817,240.32529207756286 L295.05655686785906,239.35448862127444 L293.8562977134551,237.48726917043095 L293.5558545329403,234.12570919084865 L293.10556815408006,231.6238422816749 L292.0248808448192,228.8969297604229 L290.73456441464316,225.0504388594163 L290.6445071388711,223.89319594207538 L289.67582383645305,222.29716116185352 L288.1683104470624,220.56647565976056 L285.47340322837846,218.25858111915653 L283.21288992812373,215.41020046418825 L282.4591332334284,212.30946740739162 L282.5749211594209,208.5232397665233 L281.93770917454844,201.23891819732188 L281.35801276075654,199.58073693008262 L280.0540742216404,196.62407072955375 L279.0974994605009,195.00072915958174 L278.66310554207354,193.73896715043892 L278.4020151207174,191.53935815539555 L277.2138645075938,188.1137684619165 L276.98228865560884,183.60626492626955 L277.3584102191271,181.01023667312998 L277.96762120228914,178.23436025301544 L277.9093488473782,177.11572348670074 L277.18510672205304,174.8445518702433 L276.86574394578696,172.75322842076102 L276.17025960600256,170.7334675926926 L276.37307767244675,169.6515537505244 L277.4454403595779,168.35401043067446 L278.3732573351767,167.9575911725783 L280.43095256898806,167.56023030104217 L281.8506790340967,166.83895440626333 L282.95179950676857,165.8295447989492 L284.1694646892624,164.09885929685595 L284.45931289615834,163.19773523510244 L284.57510082214986,161.28625995259483 L283.82134412745546,159.80792685233055 L282.05349710054094,157.6808220921409 L280.8653464874164,155.2646420059762 L280.37268021407624,152.8126806091044 L279.880013940737,151.5509185999616 L279.3003175269451,149.206301135211 L278.2862271947259,146.06978676770717 L278.1704392687334,144.59145366744264 L277.73528856647476,142.93233078676369 L277.416682574038,140.84100733728116 L277.27138007867444,138.24497908414156 L276.7499560197944,135.61222790685542 L275.1561692737824,131.2497328409157 L274.3736547935472,127.13864856336494 L274.63474521490235,123.49648777876439 L274.3153824386363,121.94659205708578 L272.287201774195,116.32139336856358 L271.707505360404,113.79692773683803 L270.46108239236855,110.01070009596944 L269.50526441506025,107.91937664648718 L268.51993186837996,106.51354778107634 L265.5056618734308,100.52771114516486 L263.7090570609741,95.11908354776415 L262.346846166947,92.88275162857417 L260.43369664466934,91.62098961943138 L257.21736536710443,90.43079023170236 L252.00085442681154,88.77260896446312 L251.42115801301918,88.19539992595219 L250.00067476408117,85.85172407464114 L248.83144374670798,83.3555068461055 L250.4502043591097,81.77077142715954 L251.77079214248624,79.0071359817606 L251.8911207714583,78.14744291135212 L252.97105129689066,76.35555253568114 L253.69150950306476,75.68324053976474 L255.3125404669574,75.30942000422019 L257.0539000598217,75.23503254248708 L258.6741742398845,74.71149547003674 L260.2051479280042,73.85274401306782 L263.3571525800175,72.39606802191558 L265.15829809545284,72.35934509776888 L267.4990304816897,73.18043201715139 L268.84988961826673,74.07684801170672 L269.7201910227839,75.01092854384831 L273.9528829840581,78.2971594482579 L276.41394399926793,79.56739597835762 L277.49463130852973,79.90355197631591 L279.74606320282345,80.2020434366878 L280.97659371042795,80.05232689978202 L282.4175101227779,78.85741944485494 L285.17901431850254,75.64557600217833 L286.2294302745638,74.86121200694252 L289.2913776508041,73.40453601579016 L291.75243866601306,73.25576109232406 L294.7243287664832,73.81507947548155 L296.2848170239744,73.14370909300467 L296.79488932540437,72.47139709708826 L297.1551184284917,71.12677310525527 L298.89647802135636,68.1390336612177 L300.57729490781924,66.08443313588188 L303.73838096579254,63.785954729674614 z"/>
	<path id="malatya-battalgazi" title="Battalgazi" class="district" d="M367.00248201973375,309.9849127300885 L368.4555069733632,312.01785614631206 L373.3155727297204,316.90106344438306 L374.8329243089005,318.0865547649136 L379.2487579570381,320.32759475130183 L381.2148823474178,321.119491654055 L388.0206393307437,323.16655927187344 L395.4734464887324,323.8021483436431 L404.90675692987026,325.04413647055327 L407.17256771693627,325.5620238623657 L415.32010243087814,328.4217038786097 L421.3554534752483,330.77573747775693 L423.41617584438006,331.4028520285697 L430.2204192600453,333.10434751403335 L441.0045888377602,336.06948823551943 L440.0593658340716,338.32465242350247 L439.18906442955443,339.8180513388015 L436.39728888062837,343.14194678079724 L434.32597153787685,346.5778942221126 L434.44630016684937,348.9309862078201 L436.27771703548524,354.383869636885 L437.3576475609167,355.5787770918122 L438.91889260223826,356.8113490843257 L441.0802672207609,358.9026725338079 L446.7833901637552,363.7952959662755 L449.00455070484935,366.521266874088 L450.53476760914015,368.01560740282684 L451.61545491840195,369.69638739261785 L452.78619950343574,371.0777343085975 L455.9979900780197,373.8046468298498 L457.1384633098521,374.4392942881798 L458.66943699797224,375.7085892048401 L460.260196608664,376.64266973698165 L462.8718576060459,378.6596057247311 L465.66363315497193,380.3403857145221 L465.84374770651607,381.19913717149115 L465.7234190775426,382.76786516196273 L466.32354865474554,384.3365931524344 L468.93520965212656,387.32433259647223 L471.75649977042366,389.7141475063264 L473.2095247240531,391.29699969839305 L468.1973454178622,394.17268714311126 L466.0359707993396,395.51731113494435 L464.05471073236015,395.9278545946356 L461.14336333829186,395.70375059599655 L459.1923746245129,395.9278545946356 L456.7608281786741,398.91559403867325 L453.8192094314054,401.23102148679453 L449.52673154756064,402.2394894806692 L448.5065869446998,402.61331001621363 L446.73571278246493,403.956992394607 L444.4540095349688,405.26489346229306 L441.42233351192806,405.56338492266497 L439.20117297083385,406.1236449192621 L435.2991955432768,408.1773038311581 L430.6464885563429,409.2978238243522 L428.0650989121624,411.09065581346283 L426.8648397577584,412.7337712656676 L426.2942247499275,413.06992726362574 L423.7726210283167,413.74223925954226 L419.4203572218994,414.4522157930451 L418.279883990067,415.9456147083442 L418.36994126583903,417.5143426988157 L417.79932625800717,419.19512268860683 L417.1689253276047,423.1913301265193 L416.38868119885865,424.83444557872406 L417.000919317341,425.65364927122715 L419.8070737590374,427.6508113767439 L420.66526662227426,428.91539822620575 L421.8049830702773,432.50012059098714 L422.16294182187454,434.05943244706236 L422.21440312231545,439.92662578957686 L421.8738503988089,441.8305681645672 L420.4155279583691,444.4765019300088 L420.38449982133835,445.6968329478067 L421.47880923954114,448.22506503329083 L419.4786295768113,448.1629185462732 L415.0597687933533,448.29003636062714 L413.3411127153887,448.1826924285062 L411.89262846474026,447.70341118771967 L406.187235170256,445.4520134534954 L404.4996072293221,444.9181186332088 L397.4600040425222,443.1412940725723 L395.1881389848165,441.8541085005587 L394.3935159633009,440.09799943559494 L391.7220690433474,435.5415320010854 L390.16082400202583,433.7110354743885 L389.41085122648116,433.11405255364474 L387.6097057110458,432.9643360167391 L386.01894610035407,433.3004920146973 L384.0376860333746,434.30896000857194 L382.41665506948243,435.5038674634991 L381.9005284974118,434.9662061894537 L378.9891811033436,432.7628307406521 L376.6174205800764,431.23082567432704 L374.84654641784056,429.4756582228027 L373.76585910857966,427.9069302323311 L373.04540090240516,427.30994731158734 L371.2147408175978,426.63763531567076 L369.2334807506183,426.6743582398177 L366.65209110643684,426.07737531907384 L363.98064418648426,422.9399193381304 L363.26018598030976,421.2968038859256 L361.72996907601896,418.68288497743254 L360.7991249651008,416.70267191382993 L359.68816630263854,415.76953299512775 L357.9778348468037,414.9851689998921 L355.87624615085264,413.15467247319515 L352.33449782638195,408.56148211453916 L351.67382554277896,407.96355758035565 L349.18249317436863,406.76865012542845 L345.6710162030993,405.6481301322343 L344.5002716180655,405.16319921081003 L340.89798058719384,402.9221592244219 L339.06732050238736,401.6151997701752 L337.8367899947829,400.4570152393949 L336.39587358243386,399.44854724552016 L334.8648998943137,399.2988307086143 L332.10339569858814,399.71031578174524 L330.5429074410969,399.5229347072533 L329.1920483045208,398.6274603261377 L328.3217469000027,397.6189923322629 L327.1510023149689,395.8261603431523 L325.0198990496476,393.510732895031 L323.96872630975605,391.34408037037593 L322.85852443112407,389.663300380585 L324.62712824186895,388.18873373407916 L327.0359711728076,386.62000574360735 L328.16130872803933,385.696282959302 L328.4087770404544,384.407214160409 L328.59645943029795,381.456197640518 L330.1236491992693,379.6661904917264 L331.2542842413123,376.2584914536007 L330.41652454148465,374.29334420503267 L329.64914573784927,374.143627668127 L330.0373758426479,373.2246129510199 L330.83048529650284,372.4939209218444 L329.9896984613567,371.00523007374375 L329.44708445523537,370.77076832726874 L329.970022081776,369.0127760354255 L331.0098430642166,368.928972439296 L331.8415484934036,368.1191848811893 L332.46665193699573,366.8969706365121 L333.95600251446535,366.6672169572352 L332.9805081575754,363.9845602676471 L332.88742374648393,362.1239321108811 L333.60334124967846,361.6917315420775 L333.5617181390279,360.18797487894244 L334.4887783307954,359.4186766987409 L335.47108374215543,359.79061400740625 L336.41327961052457,358.57781589712573 L336.6229087314388,357.5910050123631 L337.56359103214743,355.3292495303026 L338.5133547388159,353.51946849927805 L339.97773144989543,352.4648614468601 L341.2597232579408,352.28501327988516 L342.39035829998375,352.6192860509642 L344.831742935612,349.6249553128488 L346.30898497180215,347.5825957622286 L344.95055799692483,345.3189570532887 L342.75891202520074,344.2728245218277 L340.4476942083345,343.8999455997226 L337.98663319312556,345.0571885170636 L337.3865036159236,345.76716505056646 L336.4556595050054,348.1946444980071 L334.3843421622539,349.2031124918816 L332.88363982733426,349.4272164905206 L331.23309429407095,349.0910604925622 L329.6120633301787,347.708771963143 L328.4715900983463,346.28976050957704 L327.84118916794387,345.09485305464983 L327.270574160112,342.7794256065286 L326.67044458291,339.41786562694637 L326.49033003136685,336.01958272321747 L326.8505591344541,332.3971958208496 L327.1510023149689,328.02716784739266 L326.79077321188254,326.49610439450726 L324.7792417917017,324.62888494366376 L323.9089403871845,323.134544414925 L323.6387685598702,321.8652494982649 L323.69855448244084,320.59501296816495 L324.68918451593055,319.40010551323775 L327.6905891857708,317.6449380617137 L329.0717196755483,317.0470135275302 L330.3325215363532,315.88977061018966 L331.14530736978986,314.24383031766575 L332.7966096868825,315.03478560697926 L334.19060550176977,315.3681167646183 L336.08710577978843,315.32668577327354 L337.400882508694,314.81444806209896 L341.5821131695272,312.4905460930207 L346.09481514790696,310.8785038843247 L350.24577445554064,309.6176834886216 L353.55746049568603,308.9830360302913 L355.47893464009394,308.85685982937713 L357.93242781700343,308.9340721314293 L363.8731808826215,309.3464988179997 L367.00248201973375,309.9849127300885 z"/>
	<path id="malatya-darende" title="Darende" class="district" d="M159.85107136502322,239.1727572274204 L159.5756020508972,240.24713816207128 L159.87604523141383,245.62469251596326 L160.8061325585026,248.31394049962896 L161.55686211787668,249.62089995387552 L163.38752220268313,251.89960447785 L166.89975595778415,254.36380684943745 L171.13169113522798,256.94100283378384 L174.2534244340408,258.65944736116137 L180.07687600600664,261.5351348058795 L181.45724971195335,262.0200657273039 L183.4385097789328,263.25263771981736 L185.74972759579953,265.1198571706609 L186.7706289824902,267.1744576959968 L187.22091536134903,268.8552376857878 L187.04080080980586,271.8429771298254 L187.16037265494714,273.89663604172165 L187.6704449563785,275.39097657046017 L188.9312468171839,276.8843754857593 L191.33252190982128,277.59435201926203 L192.83398102857126,277.8184560179008 L197.2460307575587,277.96817255480676 L201.14800818511716,278.56515547555045 L202.0788522960353,279.1998029338805 L203.30938280363978,281.21673892162994 L204.26974148392858,283.98037436702873 L205.74092924947857,289.3588703343604 L205.95055837039283,291.33814178452326 L206.67101657656687,293.4671297715921 L208.29204754045907,296.1554361418184 L209.83437298603022,299.0424229478126 L208.48956812009342,300.0273506056956 L205.6591965958367,301.7439119061937 L204.0328681451351,303.3201728041829 L202.75238990474895,304.00378416137517 L201.44693779797268,304.1619752192378 L197.35349406142055,304.3211078905403 L195.00822097220413,303.86348375886615 L194.30062809114028,304.0555729005565 L192.35342329651147,305.9623401158657 L190.90872296501226,306.3747668024363 L185.0610543104861,304.61677451059313 L183.7450072300896,304.3738382431611 L181.80082957078113,304.59605901492074 L180.59451614573695,305.16479353247456 L174.79603844016123,310.5291652982114 L173.69264761599885,311.38415030142176 L172.677043716119,311.6063710731812 L167.87146639552347,311.48396132602545 L166.60233991258738,311.8973296260358 L165.4959219531061,312.7984536877892 L164.4462627808751,312.9170969811862 L161.33815159100234,312.74101526797 L155.64032613481888,312.8831988973587 L153.52133141077712,312.76926367115993 L153.43959875713526,315.42273034411875 L152.89093048037418,317.14870777901353 L151.92981501625553,320.8831466807005 L151.5097999905967,323.6100592019528 L150.93994176659564,325.92548665007405 L150.9096704133947,328.98761355584475 L150.1589408540197,330.85483300668824 L148.2684948466426,333.24558952998234 L144.3362460658837,339.0336873435656 L141.48468459438655,341.7973227889644 L139.8038677079237,345.1965473061329 L138.87302359700462,346.3537902234739 L137.25199263311333,347.0637667569767 L135.15116072099028,348.2210096743173 L134.16053068750148,348.4827782105427 L131.66919831909067,348.37072621122326 L130.6187823630303,347.92251821394547 L129.11808002811014,347.736078752893 L127.0770340385591,348.4451136729564 L125.51578899723847,350.6861536593446 L122.66422752574135,353.525118179916 L121.82344069059477,354.15976563824614 L120.14262380413192,356.2510890877285 L119.0324219254995,358.342412537211 L118.82203602075495,359.1644410700332 L118.76225009818336,362.0768514388982 L118.22190644355294,364.50527249977836 L117.53171959057937,365.5504634177999 L115.9409599798881,366.7830354103134 L112.42872622478755,368.0532719404131 L110.56779478678061,368.35176340078493 L107.05556103168006,368.46381540010435 L105.73497324830402,368.61259032357054 L104.62477136967206,369.1728503201675 L104.34551813639587,369.73499354364407 L102.7244871725046,368.72652554976935 L101.2835707601551,368.12954262902554 L98.31243744351575,366.29904610232865 L95.79083372190539,365.2538551843073 L88.70658028913458,363.7595146555686 L86.78586292855607,363.1625317348248 L85.7354469724943,362.4148906637358 L83.99408737962958,359.9874112162951 L83.18357189768393,359.3527637579648 L80.51212497773136,358.1578563030379 L77.84067805777832,357.7096483057601 L76.52009027440134,357.07500084743003 L75.46967431834096,356.0665328535554 L73.3688424062179,355.5806603186913 L72.07776919221294,355.02040032209436 L70.93729596037959,353.07879340951774 L70.39695230574962,351.69650488009836 L70.39695230574962,348.746429973647 L69.76655137534716,344.48845399950955 L68.95603589340013,343.255882006996 L66.88471855064954,341.79920601584377 L65.47407349150191,341.31427509441943 L63.40351293257979,341.2389460192466 L62.05265379600279,341.6127665547913 L59.26087824707676,343.9281940029125 L56.97993178341146,344.5637830746823 L56.28898814660849,344.48845399950955 L50.826522461559264,343.29354654458257 L48.9655910235514,342.8076740097185 L46.14354412142628,341.6871540165244 L44.07298356250509,341.0157836340475 L42.061452142323745,340.60429856091656 L38.27980334373876,340.90373163472816 L34.37706913235048,340.7540150978225 L28.82454617152967,338.66269164834 L27.233786560838404,337.616559116879 L21.980949996703906,333.69568075413923 L19.819575378180346,331.23053676911235 L18.76915942211904,330.37178531214323 L12.915436496952232,329.3256527806823 L11.054505058945757,328.4669013237135 L9.73391727556924,326.86050879565533 L8.38305813899225,322.7522493584237 L7.692871286018672,318.8680939198305 L7.272856260359841,317.85962592595575 L6.221683520469622,316.5526664717095 L2.290191523540553,313.19204810556664 L2.0798056187973764,311.54799103992224 L3.4601793247440646,309.0084595931622 L4.691466616179312,304.67609615729174 L5.9817830463548844,302.2486167098511 L8.773558595279987,298.8879983437085 L10.004089102885384,296.9831143552784 L12.045135092435487,294.74207436889026 L15.55736884753604,290.6714794692449 L17.29797165657092,289.14041601635955 L18.16827306108813,287.75812748694017 L18.798673991490134,286.2647285716413 L19.564539227464905,285.9474048424762 L22.175443441016995,284.0434624674858 L23.886531680682175,281.80242248109766 L24.96721898994349,278.1423710411435 L26.318078126520014,276.0133830540748 L30.25032690727847,272.6894876120788 L33.34178885288988,270.93432016055465 L35.1126630151257,268.506840713114 L37.214251711077225,267.1622167212811 L39.19475499422684,266.67634418641705 L40.63567140657541,265.8552572670345 L43.157275128185766,261.4475647559913 L44.23796243744801,258.94569784681755 L46.06862252225447,256.74232239801586 L46.21922250442748,255.62180240482178 L45.73866477236722,253.45609149360615 L46.18895115122607,251.28943896895112 L49.55058492415408,250.54273951130168 L50.78111543175763,249.53427151742696 L51.59163091370419,247.81582699004946 L51.89207409421988,245.76216807815345 L52.6723182229655,242.8120931717019 L54.0231773595425,240.72076972221961 L54.71336421251654,237.35920974263735 L55.734265599207205,233.9976497630551 L56.064223349093524,232.39219884843664 L56.30412382320826,228.6200954091631 L57.204696580925486,225.8564599637643 L57.71476888235682,224.8479919698896 L59.7263003025363,222.79339144455392 L62.54759042083296,221.3367154534014 L66.65995375313551,220.4035765346995 L67.41068331250958,220.06742053674137 L68.82132837165814,217.86404508793945 L72.03311894624207,213.34524219101652 L73.35370672961812,211.88856619986404 L75.39475271916916,210.39422567112553 L78.51648601798057,209.01287875514583 L79.29673014672666,208.90082675582644 L81.54816204102134,207.74264222504607 L82.92853574696943,207.59292568814016 L86.14032632155336,209.7972427503818 L87.19149906144452,210.13245713490022 L89.68283142985345,210.3198382093924 L90.67270467951334,209.75957821279522 L92.44433562557901,208.26523768405673 L93.13452247855305,206.99594276739643 L94.3650529861566,202.06565479734252 L94.96518256335952,200.64664334377656 L99.45593781066896,201.1758300968648 L101.01642606815975,201.88580663036763 L102.42782791113815,203.00632662356168 L105.72891897766382,207.11364444735398 L106.83987764012561,208.19744151640117 L109.66116775842274,210.1023255048312 L113.77353109072436,211.37162042149126 L116.95505031210828,212.75390895091067 L118.33618080188481,213.79909986893193 L120.40749814463587,216.00247531773385 L121.03789907503881,218.6173358396667 L121.06741364440941,219.51375183422172 L121.96798640212756,220.82071128846835 L123.82891784013498,222.6879307393121 L125.39016288145561,223.8084507325062 L127.43120887100665,224.51748565256932 L130.46288489404648,225.30184964780497 L132.86415998668477,225.71333472093593 L136.49596558692662,225.41390164712465 L138.7473974812227,225.37717872297776 L140.66811484180073,226.12387818062751 L142.2293598831223,227.20673363623504 L145.14070727719007,230.34418961717853 L146.10106595747885,231.05322453724168 L148.08232602445833,232.06169253111636 L152.5246471066467,232.6596170652998 L154.20546399311095,233.51836852226862 L156.3070526890625,236.28200396766744 L158.49794187695622,238.37332741714994 L159.85107136502322,239.1727572274204 z"/>
	<path id="malatya-dogansehir" title="Doğanşehir" class="district" d="M122.40313710438664,526.79140721155 L120.13429918200126,525.0626049363361 L117.91313864090705,523.7556454820898 L114.79140534209424,521.3648889587957 L113.38000349911628,520.4684729642404 L109.68841197630336,518.9374095113551 L107.25686553046458,517.5927855195221 L105.84622047131602,516.5475946015008 L104.91537636039692,514.978866611029 L104.04507495588065,512.8498786239602 L103.74538855919481,511.35647970866137 L103.6553312834223,508.10697172839855 L102.75475852570415,505.753879742691 L102.48458669838939,503.476116832156 L102.75475852570415,501.3471288450872 L104.2554608606243,499.33019285733775 L105.24609089411402,497.57502540581373 L107.166808254693,494.88577742214795 L109.65814062310194,490.21725798831903 L109.98885515681904,488.20032200056966 L110.76909928556374,485.8848945524484 L111.63940069008142,484.9517556337465 L115.48159219506874,483.0092071077302 L119.06042292720997,480.65799834890174 L120.0737564756003,479.42448474294883 L120.61410013023072,478.15424821284887 L121.39434425897588,477.10905729482755 L122.62563155041113,476.02526022578 L124.09606253213033,475.68910422782193 L127.06795263259951,474.34542184942876 L128.41881176917605,473.897213852151 L129.6788568461516,473.11284985691503 L131.63060234376044,471.28235333021814 L133.34093379959438,468.92926134451056 L140.90498818059513,462.6929555336498 L142.6160764202594,460.9745110062722 L144.50727921146728,457.9123841005015 L146.48853927844672,455.0734195799299 L148.22914208748162,453.094148129767 L148.61964254376934,451.2645932165098 L148.67942846634094,448.6130097704301 L149.3098293967434,446.37196978404194 L150.84080308486355,443.4962823393237 L152.82206315184303,440.1723868973277 L153.48197865161566,438.60365890685614 L154.62245188344946,434.5697869313574 L155.01295233973673,431.357943488681 L154.74278051242106,429.19223257746535 L153.39192137584408,427.10090912798313 L151.08070355897829,424.97192114091433 L149.06992892262866,423.4775806121755 L145.49790924495701,420.63955770504356 L147.85983157843384,419.3335398642367 L148.760404336152,418.54917586900103 L149.57091981809856,417.2054934906076 L151.7020230834207,415.3749969639107 L152.81298174588343,413.9183209727584 L153.5932258746286,412.4993095191925 L155.30431411429237,409.9597780724324 L157.0146455701263,408.65281861818585 L158.78627651619198,407.9805066222695 L161.84746710860384,407.27053008876675 L163.61834127083827,407.0464260901277 L166.04988771667752,407.2338071646198 L168.15071962879827,407.75640262363055 L171.84306793544292,409.06336207787706 L174.66435805373817,409.69800953620745 L178.74645003284024,410.07183007175183 L185.95103209458404,410.33359860797714 L189.19233723853907,410.33359860797714 L191.14332595231667,410.14621753348496 L193.03452874352453,410.2215466086577 L199.03809486703452,411.26673752667904 L204.02075960385426,411.97671406018185 L206.0618055934053,411.86466206086243 L208.46308068604264,411.3044020642653 L211.46448535588294,411.45317698773147 L215.51706276561345,412.2375409829675 L218.09845240979493,413.1339569775225 L221.85058663900975,414.59063296867504 L225.81234998913882,415.78554042360196 L228.36346828011935,415.97292149809414 L230.76474337275764,415.5991009625497 L232.27831103278754,416.00211151472377 L233.28634709436753,416.42112949537193 L235.62783626443377,417.8401409489379 L238.71929821004565,420.5293889326036 L239.22937051147608,422.99359130419083 L239.56008504519318,425.5707872885374 L240.49017237228148,429.67904672576907 L241.18111600908537,434.3099016220117 L242.17098925874524,436.102733611122 L244.51247842881196,438.41816105924335 L245.74300893641646,438.940756518254 L249.22497133831604,439.35224159138494 L251.35607460363775,438.86636905652085 L254.32796470410693,437.96995306196584 L257.5094839254908,436.5132770708133 L260.7810604226459,436.43888960908043 L263.00297774756996,436.70065814530545 L264.29329417774596,437.0735370674105 L268.28532888107554,438.7543170572015 L269.7262452934246,438.940756518254 L272.2773635844046,439.5386810524374 L273.2384790485242,440.7712530449509 L273.62822272098254,443.012293031339 L273.74855134995505,444.95389994391564 L273.5381654452105,448.9501073818282 L272.3674208601776,451.4896388285882 L269.2456875613648,457.1289617187053 L268.43592886324944,458.24948171189936 L268.1052143295324,460.11670116274286 L269.1949830447542,462.8417304571158 L267.75406663240517,464.9707184441845 L265.622963367083,466.27767789843114 L263.7022460065045,466.94998989434765 L261.69071458632453,467.28614589230585 L260.3406122335774,467.9961224258086 L260.0401690530613,468.51871788481935 L259.44003947585924,471.02058479399307 L257.93933714093913,473.897213852151 L257.78873715876614,476.39908076132474 L257.9688517103102,477.6316527538382 L259.71021130317496,480.9932127334205 L260.5502413544917,483.75684817881927 L263.04157372290155,487.11746654496187 L264.75266196256536,488.6118070737006 L267.66400935663313,490.74079506076936 L268.7151820965238,491.7115985170576 L271.5667435680214,492.8321185102517 L272.97738862716994,493.98936142759266 L275.73889282289366,497.1268174085361 L277.8094533818149,498.6578808614214 L280.24099982765455,499.25580539560485 L281.2619012143448,500.1889443143068 L284.71359226304344,502.4676488382813 L285.43405046921794,503.4384522945697 L286.9824301854288,506.48080531810734 L287.20492463145285,507.1728911962569 L287.23519598465424,509.0401106471004 L286.78490960579495,510.53445117583925 L282.7928749024649,514.6427106130709 L281.8317594383463,515.763230606265 L280.6012289307409,517.8922185933338 L279.1905838715933,519.6097215072716 L277.630095614102,521.1040620360102 L273.78790410911563,523.9044204055558 L271.6568008437925,525.0626049363361 L264.81244788513595,528.1623963796933 L262.6813446198143,528.6482689145573 L260.5502413544917,528.7970438380233 L259.1395962953431,529.0955352983952 L255.86801979818807,529.1331998359818 L254.7570611357263,529.8431763694844 L253.64685925709387,531.7847832820612 L251.45521328536984,534.1378752677688 L248.1836367882148,536.9015107131676 L244.55183118797203,540.3751226920692 L243.41135795613917,540.8600536134936 L240.94954015710036,541.5700301469965 L237.4380631858306,542.1302901435934 L234.04615805970303,543.138758137468 L232.00511207015248,544.4457175917146 L230.38408110626025,545.2677461245369 L227.98280601362197,546.2008850432387 L226.84233278178908,546.3506015801447 L225.46120229201162,545.4541855855894 L223.63054220720514,543.3995850602537 L221.43889623548156,541.9061861449545 L218.22710566089765,541.1594866873052 L216.2761169471182,540.1877416175771 L214.41518550911078,540.1877416175771 L210.78337990886897,541.6076946845827 L207.63137525685568,541.719746683902 L204.84035649176042,544.0351741320235 L203.39944007941136,545.043642125898 L200.96789363357306,545.7159541218145 L199.61703449699607,545.7903415835475 L197.66604578321756,545.5662375849088 L195.92544297418266,545.0059775883118 L194.12429745874638,544.8939255889925 L192.74316696896983,545.192417049364 L188.9312468171839,546.4249890418778 L186.7706289824902,546.7234805022497 L184.6690402865382,546.7611450398359 L182.47815109864402,546.61142850293 L180.61721966063755,546.6867575781027 L178.0055586632556,547.2470175747 L174.67343945969915,547.3590695740194 L171.1619624884289,546.3873245042912 L166.9292705271543,543.6990181340652 L164.43793815874443,541.4203136100905 L162.60727807393843,538.3205221667336 L161.04603303261734,536.6774067145288 L159.63538797346922,536.0050947186122 L157.2643842340314,535.7809907199735 L152.9121204276146,537.3873832480317 L152.07133359246802,537.5361581714976 L148.16935616490957,537.3497187104451 L143.54692053117802,538.4702387036392 L142.64634777345987,538.8807821633304 L139.5246144746475,538.7320072398645 L137.45329713189648,538.3958512419063 L135.86253752120476,537.9099787070423 L133.67164833331054,536.6030192527957 L132.6507469466208,534.54841872746 L130.84960143118545,531.7847832820612 L127.06795263259951,528.9467603749292 L124.84679209150534,528.0503443803741 L122.40313710438664,526.79140721155 z"/>
	<path id="malatya-doganyol" title="Doğanyol" class="district" d="M597.8389562024286,387.871410004914 L597.6073803504436,390.1416400079315 L596.9739522847208,393.5097912815916 L595.8917514077984,397.78848275140155 L594.602948545283,404.6311876174027 L594.2154752243156,411.6622151713358 L593.2256019746561,415.4616254003594 L592.3825447880191,416.97009013069305 L590.4353399933898,419.625440030531 L589.006532122322,417.68100827763527 L587.1910077141154,414.10758527413 L585.7205767323962,412.4494040068905 L582.7335509553263,411.1622184348769 L580.4586587623012,411.53415574354216 L576.6898752888264,412.7921512989265 L575.7249759055571,413.53602591625685 L573.2661852418373,413.6499611424556 L571.7495904464876,413.9927084344916 L571.0374568624437,414.5360193891745 L569.5670258807245,414.9079566978399 L563.9138506705114,415.50870607234236 L559.8695978829111,415.50870607234236 L557.7331971307776,414.9079566978399 L554.6765472413467,413.19233701078144 L551.4140521501522,410.9625963856693 L550.1729266689271,409.3901019414389 L549.4146292712518,405.9880525839513 L548.9090976728028,405.04455591741305 L547.9441982895326,404.27243289689284 L546.5880416661462,403.8430571684083 L543.9688128304629,404.12930765406446 L541.6712171225377,404.12930765406446 L538.522996389675,403.9579340080467 L537.0291051092254,403.4428714565531 L536.3631353388121,402.6716900494725 L535.2370409997501,400.35532098791157 L534.088243145787,396.1811486099037 L533.4215165915434,394.8374662315105 L532.4339136933739,393.86572116178246 L530.2044285301491,392.3497235239316 L529.4234276175737,390.72073227332197 L528.9413563178541,388.4618016315802 L528.9867633476543,387.34693131902395 L531.9972494234556,385.4024995661283 L536.4092991524427,383.2866941672149 L537.5346367076753,382.6011995831432 L539.4878957729443,380.942076702464 L540.0418615365157,379.9769229268137 L542.1676673150275,380.2311585555218 L545.360538293861,379.7754176507267 L547.5809420511259,378.9854039748529 L549.1618634720263,377.76224811673603 L550.1207085846559,376.33005407501497 L551.4685405859125,375.0278026879666 L553.2530368570884,374.2669790287221 L554.6061663451554,374.2293144911358 L557.4448624915424,374.9647145875095 L559.0182160741433,374.8413632269141 L564.6812294741459,373.0579473722001 L573.0921249609338,370.82538190676877 L574.4694715315616,370.5541972361472 L577.8522952517296,371.2349837530207 L579.2228307678864,371.28018119812424 L580.40871102952,370.7208628149667 L582.0494183729929,369.3451655796252 L583.5357418151422,368.83386948189025 L584.3621497575198,369.06268154772744 L585.2248833237358,369.86587781175643 L585.886312391169,371.2669986099691 L586.8042911769774,374.41857879250733 L587.7063775023557,375.5117919959513 L591.6197066873638,378.7622415896538 L593.3103617636169,380.5428326040488 L594.46597067205,382.06824637629626 L597.1200115639137,386.361062047701 L597.8389562024286,387.871410004914 z"/>
	<path id="malatya-hekimhan" title="Hekimhan" class="district" d="M202.0788522960353,279.1998029338805 L201.14800818511716,278.56515547555045 L197.2460307575587,277.96817255480676 L192.83398102857126,277.8184560179008 L191.33252190982128,277.59435201926203 L188.9312468171839,276.8843754857593 L187.6704449563785,275.39097657046017 L187.16037265494714,273.89663604172165 L187.04080080980586,271.8429771298254 L187.22091536134903,268.8552376857878 L186.7706289824902,267.1744576959968 L185.74972759579953,265.1198571706609 L183.4385097789328,263.25263771981736 L181.45724971195335,262.0200657273039 L180.07687600600664,261.5351348058795 L174.2534244340408,258.65944736116137 L171.13169113522798,256.94100283378384 L166.89975595778415,254.36380684943745 L163.38752220268313,251.89960447785 L161.55686211787668,249.62089995387552 L160.8061325585026,248.31394049962896 L159.87604523141383,245.62469251596326 L159.5756020508972,240.24713816207128 L159.85107136502322,239.1727572274204 L161.7967625919914,236.96090725766152 L162.84717854805317,235.98916218793366 L164.28809496040222,233.3375787418543 L165.21893907132036,230.87243475682703 L165.81906864852238,229.864908376392 L167.46961418178566,227.99674731210882 L168.6100874136176,227.43648731551193 L173.23327983117997,226.39129639749035 L174.88382536444325,225.6069324022547 L176.32474177679137,223.77643587555778 L177.01492862976494,221.5730604267559 L176.56464225090656,217.98833806197453 L175.72461219958984,215.4855295393611 L175.06393991598736,214.5891135448057 L173.74335213261037,213.61831008851757 L171.22174841099954,212.8716106308679 L167.25998506087046,213.09571462950694 L163.74775130577132,213.54392262678445 L161.91709122096486,213.46859355161166 L160.44590345541488,212.90927516845446 L156.9344264841451,209.95825864856346 L154.83283778819265,207.26901066489748 L154.2024368577897,205.663559750279 L153.33213545327342,202.52610376933578 L152.9416349969857,197.55909287513504 L153.3624068064739,193.9367059727672 L153.66209320315974,192.70413398025372 L154.9826809865358,190.53748145559868 L156.00358237322646,188.52148708128894 L157.02448375991668,187.0648110901367 L158.6447579399795,181.64959219865818 L159.5756020508972,179.8567602095478 L161.4668048421051,177.95187622111777 L162.69733534970956,176.94340822724305 L163.0272930995968,176.2710962313265 L163.59790810742817,172.42460533032013 L163.53736540102628,169.69769280906792 L163.74775130577132,167.5696464354388 L164.7081099860601,162.75141046470404 L165.57916817440764,159.65161902134707 L167.13965643189934,155.72979904516762 L167.58994281075678,155.13281612442387 L170.56183291122693,153.56408813395228 L172.63239347014812,151.47276468446975 L172.84277937489315,149.60554523362623 L172.57260754757655,147.29011778550495 L171.94220661717407,144.45115326493334 L171.28153433357159,142.17339035439858 L170.68140475636866,136.45873838910876 L170.68140475636866,132.31375602773025 L170.23111837751074,130.29682003998082 L167.71027143973023,127.75728859322078 L166.71964140624053,126.97292459798486 L164.85870996823311,125.8900691423773 L162.21677761765022,124.99365314782196 L160.2657889038717,124.17162461499976 L158.37458611266382,124.02284969153352 L155.2982598436522,124.27143563960371 L154.6375875600497,122.10572472838805 L152.26658382061188,119.0059332850311 L151.57639696763783,117.81102583010389 L150.58576693414904,115.38260476922355 L150.49570965837745,112.17076132654718 L150.79615283889268,110.45325841260936 L151.3962824160947,109.14629895836276 L153.13688522512956,108.47398696244622 L154.8782448179943,108.69809096108497 L156.79896217857188,109.78094641669279 L158.51005041823706,111.46172640648379 L159.8306382016131,112.05870932722753 L161.9617414669348,112.17076132654718 L162.95237150042544,111.53611386821692 L163.58277243082793,110.49092295019562 L163.2225433277402,108.32427042554056 L161.30182596716216,104.44011498694738 L160.34071050304306,103.17082007028733 L158.27014994412184,99.80926009070508 L157.6094776605189,98.46463609887223 L156.04898940302766,94.65486812201216 L155.1779312146806,89.3893657674397 L155.20820256788062,86.62573032204075 L155.7788175757115,84.90728579466335 L157.18946263486006,83.93648233837504 L166.8248343586128,81.43461542920127 L170.69654043296936,79.0071359817606 L172.58774322417725,77.96100345029961 L174.20877418806992,77.51279545302195 L177.87085114151222,75.94406746255021 L180.03146897620502,75.53352400285894 L182.52280134461583,75.64557600217833 L184.02350367953596,76.39227545982787 L185.10419098879635,77.36307891611617 L186.81527922846107,80.2020434366878 L188.3159815633812,81.17284689297611 L189.54651207098567,81.396950891615 L192.51840217145488,81.47133835334797 L194.40960496266274,82.14365034926439 L199.42254105268205,84.45907779738569 L204.31514851373024,86.25190978649621 L206.11553724533576,86.58806578445449 L208.60762639757547,86.55134286030778 L209.77383027962836,86.23778558490139 L211.72860291255705,85.76697886507183 L213.92024888428153,85.69164978989916 L216.59169580423412,86.2151868623495 L217.76244038926794,86.25190978649621 L218.96269954367193,85.91575378853805 L221.5440891878534,84.64645887187775 L224.99653702038285,83.71237833973615 L227.96767033702218,82.14365034926439 L229.31852947359872,81.65871942784017 L233.58073600424348,80.57492235879279 L236.13185429522494,80.57492235879279 L237.3926561560294,80.76230343328484 L239.10374439569412,81.62105489025376 L242.31553497027807,83.60032634041679 L243.27589365056684,84.01086980010803 L246.3681123800086,84.45907779738569 L247.35798562966846,84.34702579806631 L248.83144374670798,83.3555068461055 L250.00067476408117,85.85172407464114 L251.42115801301918,88.19539992595219 L252.00085442681154,88.77260896446312 L257.21736536710443,90.43079023170236 L260.43369664466934,91.62098961943138 L262.346846166947,92.88275162857417 L263.7090570609741,95.11908354776415 L265.5056618734308,100.52771114516486 L268.51993186837996,106.51354778107634 L269.50526441506025,107.91937664648718 L270.46108239236855,110.01070009596944 L271.707505360404,113.79692773683803 L272.287201774195,116.32139336856358 L274.3153824386363,121.94659205708578 L274.63474521490235,123.49648777876439 L274.3736547935472,127.13864856336494 L275.1561692737824,131.2497328409157 L276.7499560197944,135.61222790685542 L277.27138007867444,138.24497908414156 L277.416682574038,140.84100733728116 L277.73528856647476,142.93233078676369 L278.1704392687334,144.59145366744264 L278.2862271947259,146.06978676770717 L279.3003175269451,149.206301135211 L279.880013940737,151.5509185999616 L280.37268021407624,152.8126806091044 L280.8653464874164,155.2646420059762 L282.05349710054094,157.6808220921409 L283.82134412745546,159.80792685233055 L284.57510082214986,161.28625995259483 L284.45931289615834,163.19773523510244 L284.1694646892624,164.09885929685595 L282.95179950676857,165.8295447989492 L281.8506790340967,166.83895440626333 L280.43095256898806,167.56023030104217 L278.3732573351767,167.9575911725783 L277.4454403595779,168.35401043067446 L276.37307767244675,169.6515537505244 L276.17025960600256,170.7334675926926 L276.86574394578696,172.75322842076102 L277.18510672205304,174.8445518702433 L277.9093488473782,177.11572348670074 L277.96762120228914,178.23436025301544 L277.3584102191271,181.01023667312998 L276.98228865560884,183.60626492626955 L277.2138645075938,188.1137684619165 L278.4020151207174,191.53935815539555 L278.66310554207354,193.73896715043892 L279.0974994605009,195.00072915958174 L280.0540742216404,196.62407072955375 L281.35801276075654,199.58073693008262 L281.93770917454844,201.23891819732188 L282.5749211594209,208.5232397665233 L282.4591332334284,212.30946740739162 L283.21288992812373,215.41020046418825 L285.47340322837846,218.25858111915653 L288.1683104470624,220.56647565976056 L289.67582383645305,222.29716116185352 L290.6445071388711,223.89319594207538 L289.32316257166525,224.15402286486096 L287.1920593063431,225.23781993390818 L284.28071191227485,229.94306229188388 L282.4197804742679,231.92233374204676 L280.67842088140225,232.29615427759148 L278.51780304670996,231.698229743408 L274.07548196452154,230.98919482334486 L269.60288952913174,229.644570831512 L268.5524735730713,229.5692417563392 L266.7513280576351,230.1295017529364 L265.73042667094484,231.2132988219836 L264.89039661962767,234.94773772367088 L264.62022479231246,238.30929770325315 L263.8997665861379,239.6906446192328 L262.8190792768766,242.30550514116544 L258.64693002200386,247.16046403604676 L256.66566995502444,248.4297589527071 L255.04463899113222,249.0653480244768 L252.16356295026395,249.36383948484865 L250.48198927997038,248.50508802787962 L246.8501836797285,245.51734858384208 L245.97988227521085,244.5832680517005 L244.77962312080734,243.94862059337044 L238.17592742009538,242.4166155270454 L236.97491148186154,242.23017606599288 L234.6636936649948,242.3422280653123 L232.59237632224378,242.7904360625898 L230.4915444101221,243.0522045988151 L229.1406852735451,242.7904360625898 L225.7185087942166,240.026800617191 L224.45846371724195,239.5785926199135 L223.01754730489247,239.61625715749972 L221.4563022635718,241.072933148652 L220.4656722300821,242.9768755236423 L218.18472576641634,245.7414525824808 L216.32379432840892,247.12279949846052 L215.18332109657698,248.20565495406805 L213.47223285691226,250.74518640082812 L213.11200375382498,252.65007038925813 L213.0817324006245,255.37698291051038 L213.4124469343416,257.61708128345884 L213.2921183053691,258.9617052752917 L212.51187417662345,260.6048207274964 L210.8908432127308,262.77147325215174 L209.59976999872583,265.8712646955087 L209.23954089563765,269.6810326723688 L208.88006857638115,271.28648358698695 L207.85916718969096,274.6480435665693 L206.9888657851733,276.1791070194548 L204.64737661510608,278.5321990051624 L203.41684610750255,279.0547944641731 L202.0788522960353,279.1998029338805 z"/>
	<path id="malatya-kale" title="Kale" class="district" d="M473.2095247240531,391.29699969839305 L471.75649977042366,389.7141475063264 L468.93520965212656,387.32433259647223 L466.32354865474554,384.3365931524344 L465.7234190775426,382.76786516196273 L465.84374770651607,381.19913717149115 L465.66363315497193,380.3403857145221 L462.8718576060459,378.6596057247311 L460.260196608664,376.64266973698165 L458.66943699797224,375.7085892048401 L457.1384633098521,374.4392942881798 L455.9979900780197,373.8046468298498 L452.78619950343574,371.0777343085975 L451.61545491840195,369.69638739261785 L450.53476760914015,368.01560740282684 L449.00455070484935,366.521266874088 L446.7833901637552,363.7952959662755 L441.0802672207609,358.9026725338079 L438.91889260223826,356.8113490843257 L437.3576475609167,355.5787770918122 L436.27771703548524,354.383869636885 L434.44630016684937,348.9309862078201 L434.32597153787685,346.5778942221126 L436.39728888062837,343.14194678079724 L439.18906442955443,339.8180513388015 L440.0593658340716,338.32465242350247 L441.0045888377602,336.06948823551943 L445.99406462904994,337.4498935380592 L449.63646520291246,338.64009292578817 L451.6835654631032,339.10148351122115 L457.4964220614494,339.8434749016721 L458.9055535529373,339.9451691531554 L465.9686170384677,339.05157799891913 L469.5958819357304,338.1193806936567 L471.4295691558572,337.5063903444387 L475.9180540516771,335.6740105908627 L478.95729791301727,334.7766529828677 L481.76042521939246,334.80866783981605 L483.91347521578626,334.41883987579723 L486.018847830888,333.51112451996613 L487.7730727488634,332.5017149126518 L490.5126302135173,331.7907967657092 L491.8127848334837,331.764431589399 L493.0962902091897,332.2823189812112 L496.62592999238,334.56102350518586 L497.2116806768107,335.3764607439305 L497.3978494989954,336.4207100485121 L496.93318422736576,338.5892458000465 L496.61987572173933,341.98282063657723 L496.6720938060106,342.9376166643915 L497.3819570385644,344.363219412035 L498.94849956669543,345.64946337060894 L501.3785324448745,346.82365532986375 L503.83202562178303,347.7454948872897 L505.6808485185096,348.63814442808643 L507.13084633681865,349.56940011990895 L509.0394551561168,351.0552661276908 L511.17055842143895,353.9535522949608 L511.7585794573615,355.06653938063755 L513.2176586816297,358.6380791572638 L513.7224334962502,361.50717530790445 L514.19618017384,363.1173342897213 L514.6888464471801,363.7698724034049 L516.3113909787321,365.05517474853923 L518.3267063180626,365.2726874531004 L521.9252134297838,364.9224072535474 L523.5727318277276,365.5033827458169 L525.7530260420007,366.5881214283039 L525.137760788198,367.39414253265187 L523.6976011596793,370.3818819766895 L522.4663138682454,374.52780595150773 L520.9656115333248,376.13325686612615 L517.2740200105113,378.4496259276871 L514.4224585390147,379.4204293839753 L511.0600679822578,379.4580939215619 L505.86777412452375,378.89783392496463 L503.7661854285717,377.6652619324512 L501.24533849079126,376.54474193925716 L498.8137920449534,376.4694128640843 L497.1624897278598,376.9552853989484 L496.4125169523151,377.73964939418437 L494.3109282563631,379.15866084775024 L488.66834801977075,380.0550768423056 L486.44718747867654,380.80177629995507 L485.45655744518683,381.58614029519094 L483.8657978344951,382.4458333655994 L481.3441941128852,384.12567174195107 L480.6237359067107,384.9853648123595 L480.2332354504229,386.1802722672868 L478.43284671881696,388.345983178502 L476.78154440172426,389.65388424618834 L473.2095247240531,391.29699969839305 z"/>
	<path id="malatya-kuluncak" title="Kuluncak" class="district" d="M77.67494239900415,121.26768876709166 L76.65555457997456,118.70650021121955 L76.14548227854415,116.87694529796231 L75.90482502059864,113.21689385800818 L76.65555457997456,108.8468658845512 L77.7657564586065,107.76401042894338 L79.38678742249824,106.86759443438805 L82.98907845337085,107.27907950751899 L87.70157136287399,109.9673858777453 L89.14248777522303,110.45325841260936 L91.27359104054518,110.49092295019562 L93.55453750421096,110.04271495291809 L96.01635530324974,109.29507388182874 L98.14745856857236,108.3986578872734 L101.02853460943966,108.06250188931527 L104.48022565813925,108.02577896516868 L105.86135614791579,107.76401042894338 L106.7021429830633,107.31580243166584 L110.15383403176197,106.49471551228334 L112.34472321965569,106.45705097469678 L115.82668562155484,106.79320697265521 L117.89800296430587,107.31580243166584 L119.21859074768287,107.87606242826277 L120.89940763414617,109.07096988318997 L123.54133998472906,109.93066295359844 L124.86192776810509,110.15476695223747 L130.11476433224007,111.79788240444219 L132.00521033961763,112.61896932382471 L134.58659998379957,114.48618877466822 L135.1874863448314,115.49465676854292 L135.99800182677797,117.77336129251763 L136.83803187809377,119.0059332850311 L140.37978020256494,122.40421618875995 L141.9107538906851,123.41268418263464 L142.9611698467464,123.71117564300653 L144.49214353486704,124.53320417582873 L146.92368998070535,126.43808816425876 L149.47480827168678,128.267643077516 L152.26658382061188,129.16405907207132 L153.31699977667273,129.20172360965756 L154.24784388759136,128.49174707615475 L155.14841664530857,127.0727356225888 L155.2982598436522,124.27143563960371 L158.37458611266382,124.02284969153352 L160.2657889038717,124.17162461499976 L162.21677761765022,124.99365314782196 L164.85870996823311,125.8900691423773 L166.71964140624053,126.97292459798486 L167.71027143973023,127.75728859322078 L170.23111837751074,130.29682003998082 L170.68140475636866,132.31375602773025 L170.68140475636866,136.45873838910876 L171.28153433357159,142.17339035439858 L171.94220661717407,144.45115326493334 L172.57260754757655,147.29011778550495 L172.84277937489315,149.60554523362623 L172.63239347014812,151.47276468446975 L170.56183291122693,153.56408813395228 L167.58994281075678,155.13281612442387 L167.13965643189934,155.72979904516762 L165.57916817440764,159.65161902134707 L164.7081099860601,162.75141046470404 L163.74775130577132,167.5696464354388 L163.53736540102628,169.69769280906792 L163.59790810742817,172.42460533032013 L163.0272930995968,176.2710962313265 L162.69733534970956,176.94340822724305 L161.4668048421051,177.95187622111777 L159.5756020508972,179.8567602095478 L158.6447579399795,181.64959219865818 L157.02448375991668,187.0648110901367 L156.00358237322646,188.52148708128894 L154.9826809865358,190.53748145559868 L153.66209320315974,192.70413398025372 L153.3624068064739,193.9367059727672 L152.9416349969857,197.55909287513504 L153.33213545327342,202.52610376933578 L154.2024368577897,205.663559750279 L154.83283778819265,207.26901066489748 L156.9344264841451,209.95825864856346 L160.44590345541488,212.90927516845446 L161.91709122096486,213.46859355161166 L163.74775130577132,213.54392262678445 L167.25998506087046,213.09571462950694 L171.22174841099954,212.8716106308679 L173.74335213261037,213.61831008851757 L175.06393991598736,214.5891135448057 L175.72461219958984,215.4855295393611 L176.56464225090656,217.98833806197453 L177.01492862976494,221.5730604267559 L176.32474177679137,223.77643587555778 L174.88382536444325,225.6069324022547 L173.23327983117997,226.39129639749035 L168.6100874136176,227.43648731551193 L167.46961418178566,227.99674731210882 L165.81906864852238,229.864908376392 L165.21893907132036,230.87243475682703 L164.28809496040222,233.3375787418543 L162.84717854805317,235.98916218793366 L161.7967625919914,236.96090725766152 L159.85107136502322,239.1727572274204 L158.49794187695622,238.37332741714994 L156.3070526890625,236.28200396766744 L154.20546399311095,233.51836852226862 L152.5246471066467,232.6596170652998 L148.08232602445833,232.06169253111636 L146.10106595747885,231.05322453724168 L145.14070727719007,230.34418961717853 L142.2293598831223,227.20673363623504 L140.66811484180073,226.12387818062751 L138.7473974812227,225.37717872297776 L136.49596558692662,225.41390164712465 L132.86415998668477,225.71333472093593 L130.46288489404648,225.30184964780497 L127.43120887100665,224.51748565256932 L125.39016288145561,223.8084507325062 L123.82891784013498,222.6879307393121 L121.96798640212756,220.82071128846835 L121.06741364440941,219.51375183422172 L121.03789907503881,218.6173358396667 L120.40749814463587,216.00247531773385 L118.33618080188481,213.79909986893193 L116.95505031210828,212.75390895091067 L113.77353109072436,211.37162042149126 L109.66116775842274,210.1023255048312 L106.83987764012561,208.19744151640117 L105.72891897766382,207.11364444735398 L102.42782791113815,203.00632662356168 L101.01642606815975,201.88580663036763 L99.45593781066896,201.1758300968648 L94.96518256335952,200.64664334377656 L95.50552621799041,199.33968388953002 L95.8059693985061,197.65890389973873 L96.46588489827967,196.05345298512054 L96.58621352725079,192.9903844659099 L96.3160416999365,191.5713730123442 L95.47601164861885,189.89059302255293 L93.19430840112369,186.41698104365125 L89.89246055076818,182.98103360233588 L89.29233097356573,181.9735072219009 L88.3917582158485,179.3963112375546 L87.91120048378872,176.7814507156217 L86.350712226297,174.5780752668198 L85.21023899446504,173.23345127498698 L83.61947938377332,171.74005235968787 L82.11877704885318,170.8436363651328 L80.46747473176049,168.37849238010563 L79.47684469826983,166.13745239371744 L79.59717332724281,162.21657403097797 L80.25708882701545,159.45293858557915 L82.92853574696943,155.00852315038907 L84.70016669303371,151.19875517352898 L85.72031129589453,149.5933042589108 L89.59277415408188,145.18655336130698 L90.64319011014224,143.35605683461006 L90.46307555859954,141.6752768448191 L88.33197229327646,138.3146584786765 L87.31107090658625,136.33444541507367 L84.94006716714844,132.63767105097298 L83.64899395314349,131.36743452087296 L81.99844841988019,128.97761961101884 L80.19730290444481,127.37122708296067 L79.2369442241551,125.87782816766158 L78.78665784529719,123.8232276423259 L77.67494239900415,121.26768876709166 z"/>
	<path id="malatya-puturge" title="Pütürge" class="district" d="M493.6275524578601,501.49684538199307 L490.5656050816179,502.1314928403231 L488.70467364361093,502.6540882993337 L487.0533713265192,503.9243248294335 L485.61321169799953,504.52130775017724 L483.8415807519353,504.6333597494969 L482.10097794289993,504.4092557508579 L478.7090728167719,502.9158568355591 L477.5088136623679,501.8697243040978 L474.80709538921485,498.9940368593796 L473.64618899397135,496.62305421831843 L473.0657357963501,494.6249504993623 L472.85610667543494,491.7859859787907 L472.1356484692604,489.7323270668947 L470.2747170312535,488.5741425361143 L468.11334241273084,487.7153910791453 L464.51105138185915,485.8105070907153 L462.8605058485959,485.0638076330659 L461.1494176089316,484.9517556337465 L456.91748243148777,485.5487385544902 L453.97586368421906,485.7361196289824 L450.4038440065479,485.43668655517087 L445.5407511148703,483.8312356405524 L441.78937366948537,482.78510310909144 L438.5473117417009,481.328427117939 L435.6654789170038,479.76064074090704 L434.16477658208413,477.9678087517963 L432.9940319970503,475.68910422782193 L431.5833869379027,472.3652087858259 L431.1633719122438,471.0959138691659 L430.3225850770977,469.78895441491926 L426.87089402839814,466.3897298977506 L425.04023394359257,464.8963309824517 L424.31977573741716,464.07430244962956 L423.71888937638573,461.72121046392164 L423.5387748248426,460.1534240868897 L422.7585306960965,458.06115902396755 L422.1584011188945,457.42651156563744 L421.64984238512426,456.22218797631393 L420.9172756376703,452.5235303853336 L420.2074124051155,450.8399255552235 L419.6087963955732,450.3427536590837 L421.47880923954114,448.22506503329083 L420.38449982133835,445.6968329478067 L420.4155279583691,444.4765019300088 L421.8738503988089,441.8305681645672 L422.21440312231545,439.92662578957686 L422.16294182187454,434.05943244706236 L421.8049830702773,432.50012059098714 L420.66526662227426,428.91539822620575 L419.8070737590374,427.6508113767439 L417.000919317341,425.65364927122715 L416.38868119885865,424.83444557872406 L417.1689253276047,423.1913301265193 L417.79932625800717,419.19512268860683 L418.36994126583903,417.5143426988157 L418.279883990067,415.9456147083442 L419.4203572218994,414.4522157930451 L423.7726210283167,413.74223925954226 L426.2942247499275,413.06992726362574 L426.8648397577584,412.7337712656676 L428.0650989121624,411.09065581346283 L430.6464885563429,409.2978238243522 L435.2991955432768,408.1773038311581 L439.20117297083385,406.1236449192621 L441.42233351192806,405.56338492266497 L444.4540095349688,405.26489346229306 L446.73571278246493,403.956992394607 L448.5065869446998,402.61331001621363 L449.52673154756064,402.2394894806692 L453.8192094314054,401.23102148679453 L456.7608281786741,398.91559403867325 L459.1923746245129,395.9278545946356 L461.14336333829186,395.70375059599655 L464.05471073236015,395.9278545946356 L466.0359707993396,395.51731113494435 L468.1973454178622,394.17268714311126 L473.2095247240531,391.29699969839305 L476.78154440172426,389.65388424618834 L478.43284671881696,388.345983178502 L480.2332354504229,386.1802722672868 L480.6237359067107,384.9853648123595 L481.3441941128852,384.12567174195107 L483.8657978344951,382.4458333655994 L485.45655744518683,381.58614029519094 L486.44718747867654,380.80177629995507 L488.66834801977075,380.0550768423056 L494.3109282563631,379.15866084775024 L496.4125169523151,377.73964939418437 L497.1624897278598,376.9552853989484 L498.8137920449534,376.4694128640843 L501.24533849079126,376.54474193925716 L503.7661854285717,377.6652619324512 L505.86777412452375,378.89783392496463 L511.0600679822578,379.4580939215619 L514.4224585390147,379.4204293839753 L517.2740200105113,378.4496259276871 L520.9656115333248,376.13325686612615 L522.4663138682454,374.52780595150773 L523.6976011596793,370.3818819766895 L525.137760788198,367.39414253265187 L525.7530260420007,366.5881214283039 L527.6525534553388,368.2481859224225 L529.136606545998,371.0165294350198 L529.6111100074171,371.515584558039 L538.4730486568939,378.98822881517196 L540.0418615365157,379.9769229268137 L539.4878957729443,380.942076702464 L537.5346367076753,382.6011995831432 L536.4092991524427,383.2866941672149 L531.9972494234556,385.4024995661283 L528.9867633476543,387.34693131902395 L528.9413563178541,388.4618016315802 L529.4234276175737,390.72073227332197 L530.2044285301491,392.3497235239316 L532.4339136933739,393.86572116178246 L533.4215165915434,394.8374662315105 L534.088243145787,396.1811486099037 L535.2370409997501,400.35532098791157 L536.3631353388121,402.6716900494725 L537.0291051092254,403.4428714565531 L538.522996389675,403.9579340080467 L541.6712171225377,404.12930765406446 L543.9688128304629,404.12930765406446 L546.5880416661462,403.8430571684083 L547.9441982895326,404.27243289689284 L548.9090976728028,405.04455591741305 L549.4146292712518,405.9880525839513 L550.1729266689271,409.3901019414389 L551.4140521501522,410.9625963856693 L554.6765472413467,413.19233701078144 L557.7331971307776,414.9079566978399 L559.8695978829111,415.50870607234236 L563.9138506705114,415.50870607234236 L569.5670258807245,414.9079566978399 L571.0374568624437,414.5360193891745 L571.7495904464876,413.9927084344916 L573.2661852418373,413.6499611424556 L575.7249759055571,413.53602591625685 L576.6898752888264,412.7921512989265 L580.4586587623012,411.53415574354216 L582.7335509553263,411.1622184348769 L585.7205767323962,412.4494040068905 L587.1910077141154,414.10758527413 L589.006532122322,417.68100827763527 L590.4353399933898,419.625440030531 L588.8634999784495,421.28644613808933 L587.3499323184182,422.37212643401597 L584.463558790741,424.0303077012555 L583.944405083351,425.00299438442295 L584.0707879829641,426.3127786789887 L584.9009798444905,428.05382192891796 L587.1705745507053,430.2694383524353 L588.8665271137688,431.43327256385356 L590.8356786394679,431.6225368652251 L590.7002143338956,433.1884400153779 L590.0698134034932,435.4294800017661 L589.1389692925741,436.73643945601265 L586.0475073469627,439.12625436586677 L578.1830097854457,443.0480743420462 L576.2320210716676,444.39269833387914 L572.9907159277127,447.492489777236 L570.6492267576459,449.24765722876043 L568.9979244405532,450.14407322331573 L567.2875929847183,451.8992406748398 L566.9568784510013,453.2062001290864 L566.8373066058591,456.0451646496581 L566.927363881632,459.6298870144394 L566.6269207011154,464.7842789831323 L565.5462333918537,466.94998989434765 L562.6046146445859,470.385937335663 L559.7235386037181,471.88027786440153 L556.9915489773637,474.0836533132034 L554.9807743410131,475.01679223190536 L552.2192701452884,475.8388207647276 L550.0578955267649,476.1005893009529 L543.5745284550254,476.17497676268596 L541.1134674398165,476.5855202223772 L538.9218214680934,477.22110929414697 L536.3707031771124,478.3783522114876 L533.128641249328,480.4696756609701 L527.4557896595352,483.7935711029661 L525.2641436878102,484.57793509820186 L523.0732544999174,484.57793509820186 L521.1820517087091,483.9809521774581 L519.0214338740168,484.01767510160494 L516.4998301524059,484.65232255993493 L514.0985550597676,485.7361196289824 L510.3766921837529,488.3500385374753 L507.85508846214384,489.76904999104136 L503.5028246557266,491.636269441885 L500.38109135691377,493.5044305061682 L499.1800754186804,494.512898500043 L498.52015991890687,495.4083728811585 L497.19957213553124,497.98556886550494 L495.337883913694,500.6748168491709 L493.6275524578601,501.49684538199307 z"/>
	<path id="malatya-yazihan" title="Yazıhan" class="district" d="M367.00248201973375,309.9849127300885 L363.8731808826215,309.3464988179997 L357.93242781700343,308.9340721314293 L355.47893464009394,308.85685982937713 L353.55746049568603,308.9830360302913 L350.24577445554064,309.6176834886216 L346.09481514790696,310.8785038843247 L341.5821131695272,312.4905460930207 L337.400882508694,314.81444806209896 L336.08710577978843,315.32668577327354 L334.19060550176977,315.3681167646183 L332.7966096868825,315.03478560697926 L331.14530736978986,314.24383031766575 L327.14721839581915,311.9820748356049 L325.62305576216994,310.6704073141602 L323.39357059894417,309.5715444300781 L321.79902706910275,309.368155927112 L318.8899500265245,309.40017078406044 L316.1693121576201,308.8031878633166 L311.5695800387887,307.5357761735357 L309.3885290406853,307.0621446133874 L306.9304951607967,307.1195830332066 L302.40795499262566,307.53483456009604 L300.1376035025806,307.45291419084566 L289.7870710594646,304.1817491014707 L287.71953763586373,304.0367406317632 L286.5419819963599,304.2354210675312 L282.49016137045925,305.40772979990663 L281.14308615303196,305.105471885776 L279.60757176193175,303.4237502825453 L278.5571558058705,302.54428332990386 L277.3833840855172,302.1535137524456 L274.9480537205288,302.2486167098511 L270.4580552570492,302.1553969793247 L268.5615549790314,301.7702770825042 L266.2783381638756,300.0264089922559 L262.94243504116946,298.3927096744478 L262.18338085966377,298.22604409562825 L261.3380533215372,299.0057000236658 L261.2260493146949,300.545237997508 L260.5948916004625,301.60643634400355 L258.74682548756584,303.13279172969067 L256.9653563517098,303.7674391880207 L253.6756170426342,304.39172889851466 L253.2366824212254,304.3248743442988 L251.72916903183523,303.1525656119236 L250.68480734641503,302.96706776431085 L245.31088536947772,302.39739163331706 L243.17448461734472,302.4181071289897 L240.6445562736042,303.3437131401743 L239.28915643404764,302.6939998668098 L235.53475185334233,300.3060681838348 L234.45936203089136,299.84373598496217 L230.7518780476474,298.7928953863027 L229.5092389987621,299.3070163243567 L228.75548230406676,300.37857241868846 L227.70809348332673,301.06218377588084 L225.7185087942166,301.7231964105214 L224.3842989019,301.2815797073214 L224.00363663540264,299.6196319863234 L222.6769945813864,298.7072085632939 L217.43929369385168,297.35787650426255 L215.4209512192017,297.15448800129644 L214.03225289112387,297.57256436850497 L211.90871746410113,297.79007707306613 L209.83437298603022,299.0424229478126 L208.29204754045907,296.1554361418184 L206.67101657656687,293.4671297715921 L205.95055837039283,291.33814178452326 L205.74092924947857,289.3588703343604 L204.26974148392858,283.98037436702873 L203.30938280363978,281.21673892162994 L202.0788522960353,279.1998029338805 L203.41684610750255,279.0547944641731 L204.64737661510608,278.5321990051624 L206.9888657851733,276.1791070194548 L207.85916718969096,274.6480435665693 L208.88006857638115,271.28648358698695 L209.23954089563765,269.6810326723688 L209.59976999872583,265.8712646955087 L210.8908432127308,262.77147325215174 L212.51187417662345,260.6048207274964 L213.2921183053691,258.9617052752917 L213.4124469343416,257.61708128345884 L213.0817324006245,255.37698291051038 L213.11200375382498,252.65007038925813 L213.47223285691226,250.74518640082812 L215.18332109657698,248.20565495406805 L216.32379432840892,247.12279949846052 L218.18472576641634,245.7414525824808 L220.4656722300821,242.9768755236423 L221.4563022635718,241.072933148652 L223.01754730489247,239.61625715749972 L224.45846371724195,239.5785926199135 L225.7185087942166,240.026800617191 L229.1406852735451,242.7904360625898 L230.4915444101221,243.0522045988151 L232.59237632224378,242.7904360625898 L234.6636936649948,242.3422280653123 L236.97491148186154,242.23017606599288 L238.17592742009538,242.4166155270454 L244.77962312080734,243.94862059337044 L245.97988227521085,244.5832680517005 L246.8501836797285,245.51734858384208 L250.48198927997038,248.50508802787962 L252.16356295026395,249.36383948484865 L255.04463899113222,249.0653480244768 L256.66566995502444,248.4297589527071 L258.64693002200386,247.16046403604676 L262.8190792768766,242.30550514116544 L263.8997665861379,239.6906446192328 L264.62022479231246,238.30929770325315 L264.89039661962767,234.94773772367088 L265.73042667094484,231.2132988219836 L266.7513280576351,230.1295017529364 L268.5524735730713,229.5692417563392 L269.60288952913174,229.644570831512 L274.07548196452154,230.98919482334486 L278.51780304670996,231.698229743408 L280.67842088140225,232.29615427759148 L282.4197804742679,231.92233374204676 L284.28071191227485,229.94306229188388 L287.1920593063431,225.23781993390818 L289.32316257166525,224.15402286486096 L290.6445071388711,223.89319594207538 L290.73456441464316,225.0504388594163 L292.0248808448192,228.8969297604229 L293.10556815408006,231.6238422816749 L293.5558545329403,234.12570919084865 L293.8562977134551,237.48726917043095 L295.05655686785906,239.35448862127444 L295.98740097877817,240.32529207756286 L297.3677746847262,241.33376007143758 L298.4787333471876,241.66991606939573 L300.6393511818808,241.52114114592973 L302.77045444720295,242.37989260289856 L304.15158493698135,243.64918751955884 L306.4325314006471,246.41282296495766 L308.864077846485,248.80357948825153 L312.70626935147135,251.30544639742527 L315.5275594697676,252.68773492684443 L318.4691782170363,255.33931837292414 L319.2199077764113,256.3101218292123 L320.75088146453237,258.8873178135586 L323.12188520396927,261.94944471932956 L325.5534316498071,263.5181727098012 L330.0858100077685,265.27334016132534 L331.8869555232038,266.2074206934668 L336.02883342487746,267.700819608766 L338.24999396597167,268.03697560672435 L341.04176951489677,268.6349001409076 L344.37313193462296,268.74695214022694 L346.933331631564,268.4503439067345 L346.66013266892844,276.2591441618258 L346.9045738460241,278.96157473364667 L347.8490400658824,285.66209597025943 L348.7935062857415,290.2835347321054 L350.2427473202203,293.4614800909542 L351.55274012997614,295.2514872397458 L360.9603199208945,301.03676021301 L363.6332804085068,302.4002164736361 L365.4851304405546,304.4651747468081 L366.47878760936464,307.46703839244077 L367.00248201973375,309.9849127300885 z"/>
	<path id="malatya-yesilyurt" title="Yeşilyurt" class="district" d="M382.41665506948243,435.5038674634991 L378.93469266758234,438.93981490481417 L376.95343260060287,441.77783781194626 L374.7928147659096,445.5132183270731 L374.04208520653464,446.44635724577506 L372.48159694904336,449.20999269117385 L369.08969182291537,454.66287612023865 L368.1891190651986,456.8295286448937 L367.4383895058236,458.21087556087343 L365.7273012661584,459.96604301239756 L364.34692756021127,460.4142510096753 L360.98529378728466,460.4519155472616 L359.36426282339244,462.05736646188006 L357.2028882048689,462.87939499470224 L356.2425295245796,462.7673429953829 L354.3815980865727,460.30219901035565 L352.82035304525203,458.7711355574703 L351.530036615076,458.0244360998209 L348.97891832409505,457.3521241039044 L348.31824604049206,457.5762281025434 L345.10645546590723,459.2570080923344 L343.6057531309875,459.7052160896122 L341.89466489132326,459.55549955270624 L338.4429738426246,458.32292756019285 L336.01142739678676,455.5216275772075 L334.8111682423818,454.5884886585055 L332.5597363480872,453.281529204259 L330.0684039796778,452.6092172083427 L328.29752981744286,450.8163852192321 L327.036727956637,450.330512684368 L324.3652810366844,449.99435668640984 L321.03316183312705,449.8079172253573 L318.7522153694622,450.330512684368 L317.1909703281406,450.44256468368735 L313.88912247778467,450.181737760902 L311.4583328157771,449.8079172253573 L307.04552630295797,449.6214777643048 L302.2429761176823,448.35124123420513 L300.2919874039042,448.01508523624693 L298.7610137157832,448.0527497738332 L296.629910450461,448.76178469389635 L295.6097658476011,449.9199692246767 L294.8287649350247,453.3559166659921 L294.19836400462225,454.4764366591862 L292.54781847135985,456.7918641073074 L290.9570588606672,458.2852630226065 L289.6364710772916,459.144956093015 L284.8036495388155,461.31066700423037 L282.76260354926444,461.8709270008275 L280.9016721112575,462.0206435377332 L276.6091942274118,461.94531446256065 L274.2979764105456,461.31066700423037 L272.0170299468798,461.4603835411363 L270.2158844314444,462.13269553705265 L269.1949830447542,462.8417304571158 L268.1052143295324,460.11670116274286 L268.43592886324944,458.24948171189936 L269.2456875613648,457.1289617187053 L272.3674208601776,451.4896388285882 L273.5381654452105,448.9501073818282 L273.74855134995505,444.95389994391564 L273.62822272098254,443.012293031339 L273.2384790485242,440.7712530449509 L272.2773635844046,439.5386810524374 L269.7262452934246,438.940756518254 L268.28532888107554,438.7543170572015 L264.29329417774596,437.0735370674105 L263.00297774756996,436.70065814530545 L260.7810604226459,436.43888960908043 L257.5094839254908,436.5132770708133 L254.32796470410693,437.96995306196584 L251.35607460363775,438.86636905652085 L249.22497133831604,439.35224159138494 L245.74300893641646,438.940756518254 L244.51247842881196,438.41816105924335 L242.17098925874524,436.102733611122 L241.18111600908537,434.3099016220117 L240.49017237228148,429.67904672576907 L239.56008504519318,425.5707872885374 L239.22937051147608,422.99359130419083 L238.71929821004565,420.5293889326036 L235.62783626443377,417.8401409489379 L233.28634709436753,416.42112949537193 L232.27831103278754,416.00211151472377 L232.59464667373425,413.2187021870919 L233.37640437014002,412.1358467314842 L232.73692203377658,411.2290729890928 L232.73692203377658,410.5445200184608 L233.58906062637416,409.28369962275735 L234.7265067228867,409.1509321277653 L234.9399197629507,408.1123325038216 L235.6861086193452,406.82985499900616 L235.4726955792812,405.90142414750244 L236.29002211569784,403.7131145137353 L238.19106309669513,403.60200412785565 L238.65345801683435,402.45229411803194 L239.0265524450323,400.61803113757657 L239.8824749567796,400.0926108382469 L240.0921040776934,399.08414284437214 L241.32263458529786,398.44949538604214 L242.25347869621697,398.5238828477752 L246.27578475274652,399.34496976715775 L251.01854901545153,401.5492868293991 L254.85998373660811,402.78091720847306 L256.5710719762723,403.0803502822844 L257.9219311128489,403.0803502822844 L259.60274799931216,402.1839342877293 L260.4730494038294,400.50315429793807 L260.98387848908965,398.3741663108693 L261.1034503342323,394.63972740918206 L261.6437939888632,392.84689542007163 L262.2446803498951,391.87609196378327 L263.354882228527,389.3365605170232 L264.25545498624564,386.6473125333575 L265.305870942306,381.9787930995287 L265.7561573211653,375.74154567522817 L266.2662296225962,372.0447713111272 L266.20644370002367,368.7952633308643 L265.81594324373594,367.0024313417539 L265.03569911499125,365.0608244291771 L263.0249244786407,361.73692898718133 L262.9045958496686,360.5420215322541 L263.141469188463,359.6540800586558 L263.16644305485363,357.5740559704492 L264.57860168166144,355.35749793349225 L267.6844425200432,351.14942747165657 L270.9249908801689,344.66547732616533 L272.4900198406392,341.8500531415855 L275.0282728065104,338.02804419000995 L276.112744034921,336.9668458435142 L277.117752961182,336.36609646901195 L279.4531878606081,333.95556606348515 L280.11461692804136,332.9084919185845 L281.61229212764164,329.42734703216564 L281.9361956068878,328.2663376610662 L282.2578287346439,325.94337730542765 L282.8344980131164,324.7183382204314 L284.7567289413537,321.41986634130626 L284.1581129318123,320.79086856361414 L282.99644975273947,320.31158732282756 L280.88426608316774,318.86244423919266 L278.3331477921858,317.9660282446373 L274.701342191944,315.5752717213435 L272.5399675734204,313.9321562691387 L270.9492079627287,312.2890408169338 L269.4780201971801,310.384156828504 L268.33754696534675,308.6289893769796 L267.3771882850575,305.60358539535576 L267.5573028366007,303.5122619458732 L268.5615549790314,301.7702770825042 L270.4580552570492,302.1553969793247 L274.9480537205288,302.2486167098511 L277.3833840855172,302.1535137524456 L278.5571558058705,302.54428332990386 L279.60757176193175,303.4237502825453 L281.14308615303196,305.105471885776 L282.49016137045925,305.40772979990663 L286.5419819963599,304.2354210675312 L287.71953763586373,304.0367406317632 L289.7870710594646,304.1817491014707 L300.1376035025806,307.45291419084566 L302.40795499262566,307.53483456009604 L306.9304951607967,307.1195830332066 L309.3885290406853,307.0621446133874 L311.5695800387887,307.5357761735357 L316.1693121576201,308.8031878633166 L318.8899500265245,309.40017078406044 L321.79902706910275,309.368155927112 L323.39357059894417,309.5715444300781 L325.62305576216994,310.6704073141602 L327.14721839581915,311.9820748356049 L331.14530736978986,314.24383031766575 L330.3325215363532,315.88977061018966 L329.0717196755483,317.0470135275302 L327.6905891857708,317.6449380617137 L324.68918451593055,319.40010551323775 L323.69855448244084,320.59501296816495 L323.6387685598702,321.8652494982649 L323.9089403871845,323.134544414925 L324.7792417917017,324.62888494366376 L326.79077321188254,326.49610439450726 L327.1510023149689,328.02716784739266 L326.8505591344541,332.3971958208496 L326.49033003136685,336.01958272321747 L326.67044458291,339.41786562694637 L327.270574160112,342.7794256065286 L327.84118916794387,345.09485305464983 L328.4715900983463,346.28976050957704 L329.6120633301787,347.708771963143 L331.23309429407095,349.0910604925622 L332.88363982733426,349.4272164905206 L334.3843421622539,349.2031124918816 L336.4556595050054,348.1946444980071 L337.3865036159236,345.76716505056646 L337.98663319312556,345.0571885170636 L340.4476942083345,343.8999455997226 L342.75891202520074,344.2728245218277 L344.95055799692483,345.3189570532887 L346.30898497180215,347.5825957622286 L344.831742935612,349.6249553128488 L342.39035829998375,352.6192860509642 L341.2597232579408,352.28501327988516 L339.97773144989543,352.4648614468601 L338.5133547388159,353.51946849927805 L337.56359103214743,355.3292495303026 L336.6229087314388,357.5910050123631 L336.41327961052457,358.57781589712573 L335.47108374215543,359.79061400740625 L334.4887783307954,359.4186766987409 L333.5617181390279,360.18797487894244 L333.60334124967846,361.6917315420775 L332.88742374648393,362.1239321108811 L332.9805081575754,363.9845602676471 L333.95600251446535,366.6672169572352 L332.46665193699573,366.8969706365121 L331.8415484934036,368.1191848811893 L331.0098430642166,368.928972439296 L329.970022081776,369.0127760354255 L329.44708445523537,370.77076832726874 L329.9896984613567,371.00523007374375 L330.83048529650284,372.4939209218444 L330.0373758426479,373.2246129510199 L329.64914573784927,374.143627668127 L330.41652454148465,374.29334420503267 L331.2542842413123,376.2584914536007 L330.1236491992693,379.6661904917264 L328.59645943029795,381.456197640518 L328.4087770404544,384.407214160409 L328.16130872803933,385.696282959302 L327.0359711728076,386.62000574360735 L324.62712824186895,388.18873373407916 L322.85852443112407,389.663300380585 L323.96872630975605,391.34408037037593 L325.0198990496476,393.510732895031 L327.1510023149689,395.8261603431523 L328.3217469000027,397.6189923322629 L329.1920483045208,398.6274603261377 L330.5429074410969,399.5229347072533 L332.10339569858814,399.71031578174524 L334.8648998943137,399.2988307086143 L336.39587358243386,399.44854724552016 L337.8367899947829,400.4570152393949 L339.06732050238736,401.6151997701752 L340.89798058719384,402.9221592244219 L344.5002716180655,405.16319921081003 L345.6710162030993,405.6481301322343 L349.18249317436863,406.76865012542845 L351.67382554277896,407.96355758035565 L352.33449782638195,408.56148211453916 L355.87624615085264,413.15467247319515 L357.9778348468037,414.9851689998921 L359.68816630263854,415.76953299512775 L360.7991249651008,416.70267191382993 L361.72996907601896,418.68288497743254 L363.26018598030976,421.2968038859256 L363.98064418648426,422.9399193381304 L366.65209110643684,426.07737531907384 L369.2334807506183,426.6743582398177 L371.2147408175978,426.63763531567076 L373.04540090240516,427.30994731158734 L373.76585910857966,427.9069302323311 L374.84654641784056,429.4756582228027 L376.6174205800764,431.23082567432704 L378.9891811033436,432.7628307406521 L381.9005284974118,434.9662061894537 L382.41665506948243,435.5038674634991 z"/>
	
</g></g></svg>