<svg xmlns="http://www.w3.org/2000/svg" version="1.2" baseProfile="tiny" width="600" height="600" stroke-linecap="round" stroke-linejoin="round"><rect id="backgroundrect" width="100%" height="100%" x="0" y="0" fill="none" stroke="none" class="" style=""/>































































































































































































































































































































































































































































































































































































































<g class="currentLayer" style=""><title>Layer 1</title><g class="city city-53" id="rize" title="Rize">
	<path id="rize-ikizdere" title="İkizdere" class="district" d="M306.36741654448315,407.6314403452306 L302.17370273749583,407.52110152571396 L296.0419645995908,406.85482480786396 L290.486828741959,406.07679467024724 L287.7613151856676,405.35393394238884 L285.66445828217394,404.24347274597227 L281.26252698508864,403.91104168717214 L279.48066577174444,405.35393394238884 L278.327461211199,407.5762709354725 L277.48925234080104,412.5202988099644 L278.2754068386735,420.5184486246648 L279.00817223652024,423.62915457488174 L280.84342254989014,428.1289979708072 L281.4720792026889,430.7955194424573 L282.1007358554866,435.2387788283743 L282.31028807308485,444.01637338094173 L282.0486814829611,447.45951038995867 L281.36663573013766,449.4031711337502 L279.37522229919523,451.90418437612567 L275.0773997471589,454.06993735920076 L268.4745028015309,457.1254738996593 L263.07553006147265,459.4029803025012 L255.26603945527245,461.0693793972512 L253.16918255177876,462.1798405936677 L251.38732133843462,464.79119265555994 L250.54911246803664,466.6230999795849 L249.6054601250894,470.0676515888516 L247.77154453922174,473.84463425691865 L246.09379207092553,477.9554625840358 L244.28123212506677,480.7874922849607 L241.53436292876648,483.06641328805296 L237.65564481192763,484.6210589630359 L230.68569780362566,485.56601193017786 L222.29960491715224,485.1204128513609 L218.3167780552654,485.1204128513609 L215.43376665389928,485.6763507496943 L211.29344194693772,487.065488195403 L208.46248491809706,488.45321104086116 L204.00849924848626,489.67542565704457 L196.5126696049353,492.341947128695 L191.0629772198538,495.6195759084368 L183.98758673900053,498.453020209612 L179.113161906692,501.17471109102047 L176.28220487785137,503.3404640740955 L164.75149399988706,512.7843353445131 L163.07507625909315,514.783165498063 L153.22211784942505,521.505345887072 L148.81885182483745,524.6146372370387 L147.0369906114953,525.5595902041803 L141.56327313140036,528.7976101769166 L134.68141813814046,532.3878656119554 L131.29387974153525,533.8463184699242 L126.63568076432918,534.35133075925 L119.32938242586681,534.35133075925 L114.03585315835775,535.5862767776853 L110.22387141655312,535.3613553379016 L103.23523822324174,536.3713799165531 L99.74225635408729,536.4279639265618 L90.79557791734757,533.9594864899411 L87.40670479324211,532.0511907524046 L85.87176816751398,530.0877256051101 L86.66593103039193,527.169405288922 L86.18943331266598,522.9623841447905 L84.07122076916141,518.5290269606252 L81.47784523543211,515.1636929653703 L80.10174118228099,512.3571260689489 L79.9949629822305,509.3836363430026 L81.63667780800913,507.08349633615734 L82.27200809831007,504.8399403393207 L81.58328870798337,503.0433980215509 L80.20718465483023,501.69669858334885 L76.23637034044958,498.8915462871778 L73.21988618902009,496.02980998099844 L68.66713068436326,490.3077519688895 L66.5489181408607,486.0427322144993 L64.43070559735614,480.76910248170805 L64.43070559735614,477.23401645642724 L64.74837074250709,473.81209845116376 L66.39142029578596,471.2658180007816 L69.3545153471897,468.14520984881324 L71.68361483579275,467.1351852701615 L75.17793143244742,464.89021467307447 L77.66586349362748,461.29995923803574 L79.51846526450456,457.65311979298855 L82.00773205318382,454.2297871874748 L84.65449668693785,452.6029968997305 L89.47152823672093,450.9196226019777 L91.43090820764851,448.95615745468297 L91.74857335279847,445.9260837187282 L91.21868653504879,441.4375571248047 L92.38390364309942,438.96907968818414 L95.13611174940468,436.8372771111145 L101.75369069754035,431.28214192853045 L102.49446446039053,430.3287013598873 L102.54785356041629,424.60522874752854 L101.70030159751462,420.4533770131552 L99.15898043630983,416.4146932987989 L96.03571808483085,413.3846195628441 L94.97727917682971,411.42115441554944 L93.49439692362608,410.2979618168809 L89.84258248189565,408.4462500893531 L87.5134829932926,405.8094352229572 L86.66593103039193,402.21917978791834 L83.64811215146017,400.19913063061523 L80.89590404515693,397.6740691839861 L79.35963269192956,395.7106040366916 L77.87808516622718,391.6705057220851 L76.81964625822604,386.11678513975164 L75.39015310504814,382.9183739740216 L69.61879139231493,375.4563576541516 L68.56035248431175,372.70637476773896 L64.96059241510784,368.6111070433742 L63.21343411677998,366.1977990165119 L63.26682321680474,363.2808933005741 L62.260438681328054,360.9807532937289 L61.7839409636011,358.8475361164087 L62.895768971628,356.0423838202378 L63.560463266943316,355.3973261061409 L66.07242042313473,353.0688940942914 L66.9720267585609,351.7221946560894 L72.79544284381964,348.4686140806009 L78.50006818152272,346.7937273843496 L80.34065740489359,346.0708666564911 L80.7450798375854,344.2828119402228 L88.37171277619922,349.1589390027046 L91.60041860022943,352.69261042773473 L93.50640947113126,353.3659601468362 L96.62967182261227,353.81580302640356 L100.65387523701864,353.47912816685306 L102.71869868049646,353.92755644617034 L106.84701083995284,352.6374410179767 L111.66537711723518,352.412519578193 L112.77720512526207,352.1324287286508 L116.58785213956648,349.9440421415723 L120.34644478134842,349.1589390027046 L122.67554426995247,349.1023549926962 L126.0644173940569,347.58731812471876 L128.075851737511,346.2972026965252 L130.08728608096408,346.2406186865166 L133.05171585986804,346.74563097584223 L137.3935844194244,346.0722812567414 L141.20556616123108,345.96052783697445 L144.38088288523556,347.81223956450236 L148.98702748991815,349.60736728202187 L151.21068350597196,350.22413299111435 L158.1459275992566,350.11237957134756 L163.70373291189085,349.7191207017888 L168.9452078068744,348.934017562921 L175.19173250983334,348.5407586933618 L181.65047888539405,348.6539267133789 L185.5145149997252,349.27069242247154 L189.64416188668085,352.9741158775272 L191.97326137528387,353.0292852872854 L198.64422942344532,351.85092327885866 L206.63791242473206,349.4390298522466 L212.03821989229164,348.4290052735949 L216.1144776792225,347.475564704952 L220.22543838116974,345.7101435926871 L222.13142925207256,346.8333361913555 L223.29664636012524,348.18003562955766 L222.7667595423735,350.9851879257286 L223.34870073265074,353.73375621189103 L224.9904155584273,356.20223364851176 L226.6307956567057,360.5790068226686 L228.484732155083,367.25592000367084 L229.59656016310993,369.27596916097394 L232.34876826941314,370.39774715939234 L235.3665871483439,370.4543311694009 L241.13661413357687,369.27596916097394 L246.11247825593495,368.99587831143185 L248.9714645622887,369.8927348700665 L256.0121521281256,373.03456202578826 L258.71230586190535,374.6627669137823 L262.841952748862,376.737985480844 L265.965215100342,377.85976347926214 L269.1418665518457,378.58969720837183 L276.71244093543226,378.758034638147 L284.880973239304,380.1202946791017 L288.6395658810829,382.4204346859469 L294.14531682119167,387.97556986853056 L298.6980723258485,393.3057836113306 L300.6574522967781,395.99776788748477 L302.1403345499807,398.9160882036727 L304.3106014660088,401.94616193962736 L305.8455380917359,405.19974251511576 L306.36741654448315,407.6314403452306 z"/>
	<path id="rize-iyidere" title="İyidere" class="district" d="M2.898433090702852,259.2370448974585 L5.3263024143539335,255.77976188593928 L9.059535233621219,251.97307261261807 L11.12702813210052,250.9008056229571 L15.268687566564353,247.45908321419049 L19.583861576107836,244.6001761085114 L24.10858780325259,242.15574687614452 L33.495726315199676,236.39408005702995 L37.778866864728315,235.09830622783534 L37.00205545936056,236.60485549431152 L36.61364975667769,239.33220477672074 L36.85256597929029,242.53061594245085 L38.44089170504314,245.5606896784057 L39.23505456791807,246.27647740501317 L42.17278979681019,251.49352312779604 L42.251538719347565,253.724347722381 L41.815082826640904,255.7868348871904 L42.92691083466781,261.5088928992993 L43.1257852322621,263.5289420566024 L45.50827382089089,268.9992012241737 L47.400917416787294,271.58509048156156 L48.41264086226592,274.73116143803384 L47.08325227163833,275.2319299266089 L43.69571387503211,274.8952550670585 L39.98250196827348,275.0296420908287 L37.77753213722808,273.3674867968291 L31.042497169036977,271.3389500380246 L26.174745974231655,270.9273013652129 L21.7354423071275,271.90054633735895 L16.663477804723883,271.5200188700518 L14.401114691153026,270.5991141071636 L8.565686058388096,264.5856484435111 L3.0238974757627517,259.7661053910377 L2.898433090702852,259.2370448974585 z"/>
	<path id="rize-camlihemsin" title="Çamlıhemşin" class="district" d="M462.2916178958584,363.0998244685469 L454.7437338797829,370.97066026072815 L449.4502046122749,374.47038127975344 L444.7332776250401,377.24724157092044 L439.910907165255,379.8585936328122 L434.617377897747,383.1362224125544 L429.7950074379609,385.24680598587105 L417.8985812248249,389.35621971273775 L413.96780873546254,391.13437222725463 L407.31152268980986,392.35658684343815 L404.5860091335185,392.57867908272146 L397.19562296251775,392.07932519439635 L390.7488891344623,392.8007713220048 L378.3279150135765,394.41200100699666 L373.45349018126797,395.13344713460486 L370.62386787992756,396.6895074098384 L365.64399957506777,400.35473665813856 L363.60053177159983,402.1880585824137 L358.3590568766163,404.29864215573036 L356.4717521907229,405.4656873621557 L351.7548252034871,407.1872558666641 L342.3743603290432,409.07574720069755 L337.70948771433285,409.3544234499894 L333.4637195348221,409.0205777909391 L328.0126924222393,408.2991316633309 L319.5745451632404,406.96516362738055 L313.54691577038534,407.13208645690577 L306.36741654448315,407.6314403452306 L305.8455380917359,405.19974251511576 L304.3106014660088,401.94616193962736 L302.1403345499807,398.9160882036727 L300.6574522967781,395.99776788748477 L298.6980723258485,393.3057836113306 L294.14531682119167,387.97556986853056 L288.6395658810829,382.4204346859469 L284.880973239304,380.1202946791017 L286.3638554925056,374.7334969262931 L288.11101379083345,370.35672375213613 L292.71715839551604,369.6847886332851 L294.3575384937924,368.95485490417576 L296.316918464722,367.4398180361985 L298.0106876630241,365.13967802935304 L301.6638368322548,357.7328311192414 L302.08694544995495,355.8811193917135 L302.08694544995495,352.3474479666833 L302.7743301127814,346.7357287740909 L305.1047643288847,342.9205518992683 L305.2635969014607,341.35034562153277 L304.6803209836842,335.73862642894034 L303.9929363208578,331.86828014435963 L303.7273255482313,328.2214406993122 L303.1453843579561,324.46143323424764 L302.0335563499292,320.9263472089672 L310.02723935121804,317.8411040632542 L315.05649257360085,315.0359517670831 L317.4923702622554,312.67922775022936 L321.14551943148507,308.02236372653056 L324.9561664457905,300.6155168164187 L327.4440985069695,295.17354965385186 L327.70970927959496,293.54675936610795 L326.8101029441688,289.5066610515014 L326.2802161264171,282.0446447316315 L325.2738315909414,275.87274383995515 L325.4860532635412,272.33765781467457 L326.5444921715433,269.13924664894444 L328.2382613698454,265.4372377941389 L330.09219786822376,263.1356831870436 L333.53312536485373,260.3305308908724 L334.32728822772964,258.9838314526705 L337.18493980658417,255.84200429694874 L337.34377237915913,252.64359313121864 L336.126500898583,244.78973254203987 L336.4975551437577,242.15150307539403 L338.5089894872108,238.95450650991415 L341.737695311241,234.68948675552394 L342.6386363741674,230.5376350211507 L342.53185817411793,228.51758586384764 L341.737695311241,223.63721500061507 L342.26758212899273,218.53050809734881 L343.11513409189337,216.3421215102702 L343.0083558918439,213.9868120936667 L341.3679757935655,209.88447136805115 L350.58426918543347,209.7925223517871 L353.4459249467887,208.9197139974061 L363.33225154397286,204.69288844977171 L369.9658472221155,202.7619591082321 L376.7302461953199,201.38413846452525 L379.46243338911455,200.37269928562344 L381.10948712489613,199.22404388245113 L382.9313901632586,196.28308996225977 L384.144657461334,188.19440573154554 L386.56184896497814,190.37713391762307 L389.9493873615833,192.62068991445994 L394.13242334856574,194.4724016419878 L405.4082012739075,198.45591594658555 L412.39683446721887,200.36421168412224 L421.66117804910857,205.4695039871383 L426.54494597392284,209.59447831675743 L428.0932298746554,210.60308829515873 L433.05574672200703,211.65555088131694 L437.422975104076,211.40375203677897 L441.55262199103163,210.7304023176781 L450.24837165765257,210.05705259857695 L452.908483566413,209.59447831675743 L455.0920977574475,209.8038391537888 L457.8710004137646,211.06707717722847 L460.64990307008077,212.91878890475647 L466.4079175078085,215.35897433637263 L470.06106667704023,216.66323576706841 L472.0858482954977,217.71569835322637 L473.8717136913457,219.52497207324816 L476.0553278823792,222.8068446537407 L477.48482103555705,225.66858095992006 L480.34380734191177,229.11879097018786 L483.0439610756905,231.68629042432332 L484.4734542288684,231.81218984659208 L484.4734542288684,233.66390157411993 L487.01477539007226,235.1789384420974 L490.547799084247,237.91336072575763 L493.0490784204304,239.3449361789727 L497.81405559768905,240.48086017989309 L499.8788790411668,241.23908591400712 L503.45194456035983,243.4260579008351 L505.6355587513933,245.8252199251953 L506.7874285844406,251.38035510777914 L508.49454505774816,254.03131597667692 L509.8839963859067,255.41903882213526 L510.1616197060383,257.01895170512546 L509.3674568431625,260.76339856743755 L508.2956706601559,262.9517851545159 L508.5345868827675,265.26607116386316 L508.0967962625616,267.0343214766285 L506.70734493440295,269.13783204869424 L506.5885541868453,270.5269694944028 L507.4614659722606,271.83123092509857 L511.07457331647095,275.0296420908287 L508.65337763032517,276.5432643585559 L505.7543494989501,278.942426382916 L503.425250010347,281.7447494785863 L503.0555304926726,284.5499017747576 L504.27280197324865,288.2533252298133 L503.0555304926726,292.85360524350375 L500.83187447661874,296.72536612833494 L496.8076710622114,300.0921147238402 L496.01350819933646,305.87075674595735 L495.167290963935,308.1708967528027 L493.1558566204819,311.70598277808335 L490.1900921140757,319.78476480704586 L488.3908794432243,322.92800656301773 L482.24979821281465,329.2116608744607 L479.07314676130886,330.5017763026543 L476.74404727270587,331.9050597508651 L473.24973067605015,335.10205631634483 L468.750364271419,340.8821129387124 L467.42631459079143,343.07049952579086 L464.99177162963815,348.17579182880695 L463.19122423128454,353.5625895816155 L462.2916178958584,363.0998244685469 z"/>
	<path id="rize-ardesen" title="Ardeşen" class="district" d="M355.8671206329365,139.67078794876264 L359.0077344419237,138.99177982866073 L362.71560743868133,137.44845095567916 L367.02143835572014,136.44549937827856 L369.54807751441723,136.31677075550934 L372.87288371849303,137.25747992190034 L377.1186518980038,135.83014826943617 L387.72306189052904,131.69668633831589 L391.62980928488,129.45878874248007 L395.0894229665184,128.03853009126686 L399.16701548095153,127.07801652137272 L403.2179134453698,126.61968604030389 L406.5173598269339,125.80063249543095 L409.28424993574384,124.24881602094791 L412.12455005708915,123.03933280701644 L415.00889618595556,121.29230149800426 L421.08057158633363,116.23793480399559 L424.93526460815906,113.28283488130216 L428.4829703048395,111.27834632675123 L432.88356687442456,107.72345589796771 L434.8683066678658,110.9204524634475 L440.9426515232443,119.46180877422952 L443.28643301435403,121.56673394654541 L444.5170517699376,124.17525680793699 L445.7076287005019,132.25545343714978 L446.0653356706712,133.4748388528328 L448.64536392939306,137.72571260472068 L450.59139662531516,140.0824366215744 L455.9516622678543,142.43774603817792 L458.33415085648414,143.74342206912405 L464.64741193447423,146.43540634527795 L467.1873983681778,147.7821057834801 L470.48284056723924,150.01293037806488 L473.10424537848166,152.32721638741228 L473.8183245913199,153.67391582561453 L473.8984082413575,157.16656384338867 L474.37490595908355,160.57433584615012 L475.04894334690357,161.8375738695898 L476.63726907265436,163.22671131529825 L481.0845811047619,165.3302218873639 L486.12718160215127,167.13949560738547 L493.3133544655567,171.47383077403595 L499.8254899411411,172.73565419722541 L500.8972761241497,173.2831044940576 L506.9716209795282,178.2907893798091 L508.2422815601301,179.72236483302396 L508.8776118504311,181.53163855304564 L513.4437146300933,184.72863511852557 L515.3096636759778,187.84358486949293 L518.5650640500199,190.45210773088436 L524.9183669530294,193.35628204457015 L533.2163678244617,195.96480490596184 L536.2341867033914,197.73164061847694 L538.4178008944269,200.59337692465667 L540.0061266201789,203.24433779355442 L541.3555361233191,204.46513780948763 L545.1675178651237,206.23197352200268 L546.4782202707449,207.57867296020493 L550.4089927601073,213.00790872052 L554.1408908518763,216.4156807232813 L560.4541519298665,220.96079132721334 L563.7495941289278,222.64416562496612 L565.6155431748124,223.9484270556619 L567.3627014731402,226.34617447977175 L567.8779062883842,228.11442479253716 L567.8779062883842,230.89128508370382 L569.6651064117314,234.34149509397167 L570.5446918346469,235.2765458593621 L564.813371946932,239.4694210009914 L560.045725314673,242.578712350958 L545.3370282577047,251.1285562632412 L538.818219144616,255.9650745187173 L531.0767996409483,259.8509814060505 L524.8022456604751,263.4794310478451 L522.0713931941808,265.9408354832143 L517.1609307193547,269.81684016879615 L515.4431364260412,271.6204554878168 L511.07457331647095,275.0296420908287 L507.4614659722606,271.83123092509857 L506.5885541868453,270.5269694944028 L506.70734493440295,269.13783204869424 L508.0967962625616,267.0343214766285 L508.5345868827675,265.26607116386316 L508.2956706601559,262.9517851545159 L509.3674568431625,260.76339856743755 L510.1616197060383,257.01895170512546 L509.8839963859067,255.41903882213526 L508.49454505774816,254.03131597667692 L506.7874285844406,251.38035510777914 L505.6355587513933,245.8252199251953 L503.45194456035983,243.4260579008351 L499.8788790411668,241.23908591400712 L497.81405559768905,240.48086017989309 L493.0490784204304,239.3449361789727 L490.547799084247,237.91336072575763 L487.01477539007226,235.1789384420974 L484.4734542288684,233.66390157411993 L484.4734542288684,231.81218984659208 L483.0439610756905,231.68629042432332 L480.34380734191177,229.11879097018786 L477.48482103555705,225.66858095992006 L476.0553278823792,222.8068446537407 L473.8717136913457,219.52497207324816 L472.0858482954977,217.71569835322637 L470.06106667704023,216.66323576706841 L466.4079175078085,215.35897433637263 L460.64990307008077,212.91878890475647 L457.8710004137646,211.06707717722847 L455.0920977574475,209.8038391537888 L452.908483566413,209.59447831675743 L450.24837165765257,210.05705259857695 L441.55262199103163,210.7304023176781 L437.422975104076,211.40375203677897 L433.05574672200703,211.65555088131694 L428.0932298746554,210.60308829515873 L426.54494597392284,209.59447831675743 L421.66117804910857,205.4695039871383 L412.39683446721887,200.36421168412224 L405.4082012739075,198.45591594658555 L394.13242334856574,194.4724016419878 L389.9493873615833,192.62068991445994 L386.56184896497814,190.37713391762307 L384.144657461334,188.19440573154554 L384.9254730492035,184.93233755455603 L383.2343733059019,181.8527528098437 L380.80650398225083,178.86653168164565 L378.16107407599907,174.2252282606989 L376.77429220284097,172.52487875994353 L374.90967788445766,169.1694469664402 L371.3539638227738,166.36712387076966 L366.0203927302454,163.93118223990396 L364.67632213710914,163.01169207726605 L363.20278297641124,161.08217733597627 L356.2208234206031,153.72908523537265 L355.7016144228563,152.6723788484641 L355.875128997939,150.32838623386226 L357.5662287412406,146.79047100808125 L357.5662287412406,145.09012150732602 L356.2208234206031,141.4135754570242 L355.8671206329365,139.67078794876264 z"/>
	<path id="rize-cayeli" title="Çayeli" class="district" d="M302.0335563499292,320.9263472089672 L303.1453843579561,324.46143323424764 L303.7273255482313,328.2214406993122 L303.9929363208578,331.86828014435963 L304.6803209836842,335.73862642894034 L305.2635969014607,341.35034562153277 L305.1047643288847,342.9205518992683 L302.7743301127814,346.7357287740909 L302.08694544995495,352.3474479666833 L302.08694544995495,355.8811193917135 L301.6638368322548,357.7328311192414 L298.0106876630241,365.13967802935304 L296.316918464722,367.4398180361985 L294.3575384937924,368.95485490417576 L292.71715839551604,369.6847886332851 L288.11101379083345,370.35672375213613 L286.3638554925056,374.7334969262931 L284.880973239304,380.1202946791017 L276.71244093543226,378.758034638147 L269.1418665518457,378.58969720837183 L265.965215100342,377.85976347926214 L262.841952748862,376.737985480844 L258.71230586190535,374.6627669137823 L256.0121521281256,373.03456202578826 L248.9714645622887,369.8927348700665 L246.11247825593495,368.99587831143185 L241.13661413357687,369.27596916097394 L235.3665871483439,370.4543311694009 L232.34876826941314,370.39774715939234 L229.59656016310993,369.27596916097394 L228.484732155083,367.25592000367084 L226.6307956567057,360.5790068226686 L224.9904155584273,356.20223364851176 L223.34870073265074,353.73375621189103 L222.7667595423735,350.9851879257286 L223.29664636012524,348.18003562955766 L222.13142925207256,346.8333361913555 L220.22543838116974,345.7101435926871 L217.3023851547843,343.0181593165329 L214.21382571832163,338.09110664504345 L211.62311963959485,332.26012441366834 L210.70082293665655,327.51979897520687 L210.66478529413996,324.6976714760333 L213.9789136782108,322.37065406443395 L215.56723940396262,320.7424491764396 L219.48466461831856,318.4423091695942 L220.43766005377046,316.7037654620835 L220.86076867147068,313.4487702863448 L224.4084743681521,310.47528056039846 L226.41990871160522,307.6701282642276 L230.38938829848558,305.14506681759855 L231.607994506563,303.9667048091718 L234.89008943061793,299.0297499359307 L234.62581338549273,295.0462356313328 L232.61304431453942,291.5111496060524 L231.34238373393754,287.52763530145455 L232.18993569683818,281.7489932793371 L230.3373339259611,278.55058211360705 L228.43134305505725,276.86720781585444 L225.04246993095285,274.90374266855963 L218.79594522799187,271.64874749282126 L211.70186856213223,265.5900146211617 L209.95604499130462,263.6817188836254 L206.46172839464896,264.13014716294276 L202.0678054625671,264.18673117295117 L196.61410889498381,262.84003173474895 L190.15669724692435,262.3350194454233 L188.62042589369702,260.70822915767906 L187.98509560339608,258.68818000037595 L185.3917200696668,255.88302770420503 L183.80339434391394,252.23618825915764 L180.10352971216173,249.72385821478042 L179.53627052439222,248.14374973529345 L181.45293921529998,243.32845048357046 L182.97853274852238,241.56020017080505 L184.80177051438713,241.42298394653454 L187.77420865829558,240.17247732534693 L188.40953894859652,238.6574404573696 L186.71443502279217,235.57219731165662 L185.49716354221604,231.92535786660923 L186.5035480776927,230.07364613908138 L188.51498242114576,228.6151932811123 L188.8860366663225,227.10015641313478 L188.30276074854504,223.73340781762946 L188.93809103884598,218.85162235414677 L189.73225390172394,215.09302948933268 L189.6801995291984,212.90464290225418 L188.71652627374257,208.88859279190163 L193.9820262637365,207.2476565016551 L196.58874907247116,205.96744327521307 L201.21758404466493,205.08756191958122 L204.41559113618052,205.42565137938195 L207.10373232245308,205.08897651983128 L209.45952636106904,204.0039781279184 L213.3302361129024,201.64301031031408 L221.40800694673055,199.35135790496997 L225.89803025885692,196.33543017151734 L233.99181782269204,188.5367389920968 L240.35045963570445,179.41964037947852 L247.41517229655273,171.23051953099946 L251.4300326184544,168.1580077875384 L252.6352915515253,169.3533449989676 L253.5028644269367,171.513439581042 L253.98069687216287,175.00608759881612 L259.0099500945457,178.45205380833335 L259.79076568241516,180.61214839040747 L261.43781941819674,182.12859985863503 L263.17163044151715,185.4840316521387 L266.6846332231823,187.18438115289405 L269.9360294147216,187.96524049101126 L276.8298969554887,188.7927816373854 L282.3369826230977,189.71085719977307 L290.2278916068358,189.80280621603714 L294.6938898239528,190.63034736241124 L297.2525624426647,193.11155620128358 L298.64067904332205,195.31691799136453 L300.50529336170536,200.74049535067877 L301.67584937975994,203.12975517328707 L304.5868900586402,205.22619274410175 L302.6235059052099,208.7909853746369 L301.67051046975797,211.3146322210157 L301.0885692794828,215.52306796539727 L301.82934304233294,217.59970113270896 L301.35284532460804,219.226491420453 L302.0936190874582,220.96644972821446 L302.0415647149347,222.59324001595834 L300.50529336170536,224.8367960127952 L297.6476417828528,226.91342918010687 L295.68826181192424,228.76514090763484 L292.51161036041856,232.69207120222416 L292.08850174271834,235.49722349839521 L291.03006283471717,236.9005069466059 L290.55356511699017,240.43559297188634 L290.55356511699017,244.64261411601785 L291.03006283471717,248.3460375710737 L290.7644520620907,251.7693701765874 L288.8597959186881,257.4914281886964 L287.6411897106107,262.4283830619372 L286.8470268477348,263.3266542208221 L283.1952124060044,265.45845679789204 L282.0299952979527,267.87176482475434 L281.92455182540346,269.21846426295633 L280.3882804721741,273.4820694170963 L279.3832306641977,274.8853528653071 L278.1659591836215,277.9140120010115 L278.1659591836215,281.3939286165337 L279.54206323677465,286.8358957791006 L284.3590947865558,293.28788752031886 L285.2587011219819,297.15964840515005 L285.3654793220334,299.90821669131265 L283.8825970688308,303.2749652868178 L283.7771535962805,304.84658616480385 L285.20664674945846,307.20331018165734 L288.9118502912136,310.28855332737055 L293.3591623233202,312.2520184746653 L295.52942923934825,313.7670553426425 L300.08218474400513,319.3221905252266 L302.0335563499292,320.9263472089672 z"/>
	<path id="rize-derepazari" title="Derepazarı" class="district" d="M37.778866864728315,235.09830622783534 L40.97286977374222,235.0233324145741 L48.2097622821709,236.28232663726303 L50.2278702631272,236.00789418872202 L53.341789522102474,236.53836928255157 L55.69624883321714,235.7914603504394 L59.88061954770076,235.57785571265728 L62.319166691355775,233.95672382591405 L67.11884678362969,233.53800215185126 L70.13800039005966,231.91262646435732 L73.80583156179804,232.3695423451758 L73.76712446427996,233.43615093383585 L74.96304030484723,234.64280494726708 L75.50760912510461,236.94718875486282 L75.15123688243557,239.56278461750534 L76.74089733568866,242.11189426838808 L75.96675538532239,243.84053577414744 L77.04654993333344,247.7405886639829 L76.57005221560749,249.5908857912604 L75.30072636250583,251.05075324947978 L68.94742345949538,253.1825558265497 L68.20664969664523,254.92109953406055 L68.20664969664523,257.6144984104649 L70.0592514675223,258.34443213957434 L73.76445500927747,258.62452298911626 L74.98306121735587,259.7463009875348 L74.66539607220489,261.3179218655206 L72.7060161012763,262.4962838739475 L70.27147314012404,263.0012961632733 L64.07700280968857,263.0012961632733 L60.68946441308337,263.3945550328323 L56.18876328095102,264.40316501123357 L53.277722602071776,265.9747858892196 L51.26628825861971,268.33150990607334 L50.313292823167785,268.6116007556154 L48.777021469940436,270.57506590290996 L47.400917416787294,271.58509048156156 L45.50827382089089,268.9992012241737 L43.1257852322621,263.5289420566024 L42.92691083466781,261.5088928992993 L41.815082826640904,255.7868348871904 L42.251538719347565,253.724347722381 L42.17278979681019,251.49352312779604 L39.23505456791807,246.27647740501317 L38.44089170504314,245.5606896784057 L36.85256597929029,242.53061594245085 L36.61364975667769,239.33220477672074 L37.00205545936056,236.60485549431152 L37.778866864728315,235.09830622783534 z"/>
	<path id="rize-findikli" title="Fındıklı" class="district" d="M432.88356687442456,107.72345589796771 L436.4459545736137,105.40916988862047 L445.4113191953608,100.31519438760584 L448.4691798993099,98.45640965882689 L456.1812353979633,89.28414163645022 L461.3986851979364,85.08843729432053 L466.97651142307734,83.15467875228029 L471.7428233278372,83.14760575102915 L475.20644119197823,82.08099716236912 L483.24683965578754,78.46952272357707 L487.8236202554558,77.07897067761827 L491.48878197219165,75.09004272581979 L495.2633913439805,72.64136969270228 L499.78144393362106,71.21403804023812 L503.78429170801655,67.56436939469029 L509.97342312845,64.46073644572452 L512.6735768622298,62.1521088373779 L515.9997177938047,58.649558617852264 L516.6123577165946,60.60595076389594 L518.6077753300398,62.67834013045688 L523.4568403398387,69.37222851446164 L524.3537772202634,71.5309084962857 L525.6578059883814,77.66320058095602 L527.0018765815176,80.25474823934493 L528.7129972373278,84.6159608107496 L530.9126281583704,87.20609386888835 L536.658630048594,92.00017411685786 L539.1438926547704,93.03707610026348 L541.5877787084285,94.59030717499658 L546.3968018932061,98.86664373138845 L548.55505626173,101.28419555900135 L550.4303484001182,104.30719629370508 L551.651624063197,108.23695578879479 L551.9786323008517,110.82708884693352 L552.9156110062958,114.06652341991975 L554.5039367320486,117.21825277739279 L559.7200518045195,122.48763870943364 L564.1606901991229,126.28725498150398 L568.1541948810157,130.34574309936318 L571.0879259274051,133.9741927411576 L573.531811981062,138.5942771583512 L574.9586356792385,143.81981048263543 L577.6881534180326,149.64937811376038 L580.5805079119024,155.3488025218658 L581.7630764774632,157.16232004263807 L591.8669636572491,170.37610097987127 L594.4750211934861,175.64548691191226 L595.2892049688717,181.77636439633233 L595.0863263887757,188.6866866186195 L595.9819285416991,194.34367301921864 L596.6746521145285,196.67493423156824 L597.1231205547404,200.08695003508043 L596.3089367793538,206.0028082814684 L594.0265527532732,212.69528206522284 L592.5596872300786,216.53875094504969 L589.7487511137465,219.13029860343866 L586.4079281796628,220.72738228592823 L583.3927787557357,221.85057488459714 L579.9291608915945,224.18183609694677 L577.6881534180326,226.42822129428416 L572.3505781430035,233.25083830105794 L570.5446918346469,235.2765458593621 L569.6651064117314,234.34149509397167 L567.8779062883842,230.89128508370382 L567.8779062883842,228.11442479253716 L567.3627014731402,226.34617447977175 L565.6155431748124,223.9484270556619 L563.7495941289278,222.64416562496612 L560.4541519298665,220.96079132721334 L554.1408908518763,216.4156807232813 L550.4089927601073,213.00790872052 L546.4782202707449,207.57867296020493 L545.1675178651237,206.23197352200268 L541.3555361233191,204.46513780948763 L540.0061266201789,203.24433779355442 L538.4178008944269,200.59337692465667 L536.2341867033914,197.73164061847694 L533.2163678244617,195.96480490596184 L524.9183669530294,193.35628204457015 L518.5650640500199,190.45210773088436 L515.3096636759778,187.84358486949293 L513.4437146300933,184.72863511852557 L508.8776118504311,181.53163855304564 L508.2422815601301,179.72236483302396 L506.9716209795282,178.2907893798091 L500.8972761241497,173.2831044940576 L499.8254899411411,172.73565419722541 L493.3133544655567,171.47383077403595 L486.12718160215127,167.13949560738547 L481.0845811047619,165.3302218873639 L476.63726907265436,163.22671131529825 L475.04894334690357,161.8375738695898 L474.37490595908355,160.57433584615012 L473.8984082413575,157.16656384338867 L473.8183245913199,153.67391582561453 L473.10424537848166,152.32721638741228 L470.48284056723924,150.01293037806488 L467.1873983681778,147.7821057834801 L464.64741193447423,146.43540634527795 L458.33415085648414,143.74342206912405 L455.9516622678543,142.43774603817792 L450.59139662531516,140.0824366215744 L448.64536392939306,137.72571260472068 L446.0653356706712,133.4748388528328 L445.7076287005019,132.25545343714978 L444.5170517699376,124.17525680793699 L443.28643301435403,121.56673394654541 L440.9426515232443,119.46180877422952 L434.8683066678658,110.9204524634475 L432.88356687442456,107.72345589796771 z"/>
	<path id="rize-guneysu" title="Güneysu" class="district" d="M181.45293921529998,243.32845048357046 L179.53627052439222,248.14374973529345 L180.10352971216173,249.72385821478042 L183.80339434391394,252.23618825915764 L185.3917200696668,255.88302770420503 L187.98509560339608,258.68818000037595 L188.62042589369702,260.70822915767906 L190.15669724692435,262.3350194454233 L196.61410889498381,262.84003173474895 L202.0678054625671,264.18673117295117 L206.46172839464896,264.13014716294276 L209.95604499130462,263.6817188836254 L211.70186856213223,265.5900146211617 L218.79594522799187,271.64874749282126 L225.04246993095285,274.90374266855963 L228.43134305505725,276.86720781585444 L230.3373339259611,278.55058211360705 L232.18993569683818,281.7489932793371 L231.34238373393754,287.52763530145455 L232.61304431453942,291.5111496060524 L234.62581338549273,295.0462356313328 L234.89008943061793,299.0297499359307 L231.607994506563,303.9667048091718 L230.38938829848558,305.14506681759855 L226.41990871160522,307.6701282642276 L224.4084743681521,310.47528056039846 L220.86076867147068,313.4487702863448 L220.43766005377046,316.7037654620835 L219.48466461831856,318.4423091695942 L215.56723940396262,320.7424491764396 L213.9789136782108,322.37065406443395 L210.66478529413996,324.6976714760333 L206.44037275464007,328.23417210156407 L199.3422919062757,330.4169002876416 L195.40217632440965,330.68001593418114 L191.1777637849077,330.19056424760754 L189.50935440911724,329.7393067677899 L187.27368584555825,328.3091459148252 L181.13260461514852,322.10188001689363 L176.66126748802952,320.14690247110013 L173.0761894213313,319.2061933047089 L169.02929563941476,316.0459763457347 L166.7215517908206,314.84215153280394 L163.06573316658844,314.54084167950884 L157.0674677787468,313.60013251311756 L153.26883331194756,312.62264374022095 L148.69071798477708,311.1557032807508 L145.8864555059483,309.3492587612295 L142.90467426953614,308.74805365488953 L140.77578390602764,307.54422884195867 L139.922893033124,305.2115530293587 L139.63993080298937,301.60007859056657 L138.7870399300857,298.40308202508675 L137.22540875434473,294.30215589972113 L136.6581495665772,292.04445390038234 L137.2614463968623,286.8910651888589 L137.90078086966497,285.61226656266695 L141.73411825148153,281.32319860402316 L142.33741508176763,280.2325418111095 L142.30137743925005,277.29866089216927 L140.77578390602764,274.4397537864901 L140.73974626351108,271.9557157471172 L140.02967123317347,269.81259636804555 L138.32655894236768,268.7587191816374 L136.58740900904328,265.8998120759582 L138.32655894236768,264.9209087028115 L141.05874613616228,260.9713448042186 L141.91163700906594,260.2569716778613 L146.88082749392078,259.08992647143634 L150.78490543327027,257.73615403198323 L153.23413039693023,256.34418738577415 L156.74846790609558,249.0462646949287 L156.6763926210614,246.11238377598852 L157.84828336661627,245.43479025613667 L163.101770809105,244.8321705495462 L165.2666988151311,245.17167460959723 L169.27755495453206,247.54113002870287 L171.62000171814051,247.08987254888532 L172.7918924636964,244.49408108974552 L176.30622997286275,243.02714063027528 L178.50586089390316,243.36523009007598 L181.45293921529998,243.32845048357046 z"/>
	<path id="rize-hemsin" title="Hemşin" class="district" d="M341.3679757935655,209.88447136805115 L343.0083558918439,213.9868120936667 L343.11513409189337,216.3421215102702 L342.26758212899273,218.53050809734881 L341.737695311241,223.63721500061507 L342.53185817411793,228.51758586384764 L342.6386363741674,230.5376350211507 L341.737695311241,234.68948675552394 L338.5089894872108,238.95450650991415 L336.4975551437577,242.15150307539403 L336.126500898583,244.78973254203987 L337.34377237915913,252.64359313121864 L337.18493980658417,255.84200429694874 L334.32728822772964,258.9838314526705 L333.53312536485373,260.3305308908724 L330.09219786822376,263.1356831870436 L328.2382613698454,265.4372377941389 L326.5444921715433,269.13924664894444 L325.4860532635412,272.33765781467457 L325.2738315909414,275.87274383995515 L326.2802161264171,282.0446447316315 L326.8101029441688,289.5066610515014 L327.70970927959496,293.54675936610795 L327.4440985069695,295.17354965385186 L324.9561664457905,300.6155168164187 L321.14551943148507,308.02236372653056 L317.4923702622554,312.67922775022936 L315.05649257360085,315.0359517670831 L310.02723935121804,317.8411040632542 L302.0335563499292,320.9263472089672 L300.08218474400513,319.3221905252266 L295.52942923934825,313.7670553426425 L293.3591623233202,312.2520184746653 L288.9118502912136,310.28855332737055 L285.20664674945846,307.20331018165734 L283.7771535962805,304.84658616480385 L283.8825970688308,303.2749652868178 L285.3654793220334,299.90821669131265 L285.2587011219819,297.15964840515005 L284.3590947865558,293.28788752031886 L279.54206323677465,286.8358957791006 L278.1659591836215,281.3939286165337 L278.1659591836215,277.9140120010115 L279.3832306641977,274.8853528653071 L280.3882804721741,273.4820694170963 L281.92455182540346,269.21846426295633 L282.0299952979527,267.87176482475434 L283.1952124060044,265.45845679789204 L286.8470268477348,263.3266542208221 L287.6411897106107,262.4283830619372 L288.8597959186881,257.4914281886964 L290.7644520620907,251.7693701765874 L291.03006283471717,248.3460375710737 L290.55356511699017,244.64261411601785 L290.55356511699017,240.43559297188634 L291.03006283471717,236.9005069466059 L292.08850174271834,235.49722349839521 L292.51161036041856,232.69207120222416 L295.68826181192424,228.76514090763484 L297.6476417828528,226.91342918010687 L300.50529336170536,224.8367960127952 L302.0415647149347,222.59324001595834 L302.0936190874582,220.96644972821446 L301.35284532460804,219.226491420453 L301.82934304233294,217.59970113270896 L301.0885692794828,215.52306796539727 L301.67051046975797,211.3146322210157 L302.6235059052099,208.7909853746369 L304.5868900586402,205.22619274410175 L305.4905005765681,205.7948620446871 L310.1300133687668,207.54189335369938 L311.4740839619031,207.67910957797017 L318.5428008052511,207.4952115454425 L322.4882552971211,206.99019925611657 L331.80999216153725,209.47140809498916 L335.62597808584565,209.88447136805115 L341.3679757935655,209.88447136805115 z"/>
	<path id="rize-kalkandere" title="Kalkandere" class="district" d="M48.41264086226592,274.73116143803384 L51.586622858771165,273.81167127539567 L54.94746670536249,274.08044532293616 L58.40040674949964,272.48053243994593 L65.25289773774517,272.16507658414855 L69.73090850236738,271.5935780830629 L72.15877782601845,272.4225338296873 L75.15390633743604,274.13844393319476 L78.39062052647074,274.7962330495436 L79.92822660719833,277.25480828441266 L82.14120480324718,277.42597491468837 L84.40623737182054,278.43034109233906 L86.41767171527462,281.1237399687433 L92.18769870050761,286.5105377215518 L93.93485699883445,289.37227402773124 L94.51679818911066,293.2992043223206 L94.25252214398645,295.93601918871644 L93.03525066340828,297.33930263692713 L93.4583592811085,298.4610806353454 L97.95772568574162,301.65949180107543 L99.97049475669493,304.07138522768753 L100.92215546464561,306.70820009408317 L102.08737257269826,307.7748086827433 L106.64012807735512,310.29987012937227 L107.06323669505531,310.97321984847326 L107.38090184020527,314.45172186374543 L108.8637840934089,316.58352444081555 L109.8167795288588,317.1451207401496 L116.2755259044205,318.15514531880126 L117.86385163017337,320.0068570463291 L119.87528597362441,321.5204793140563 L123.89815466053159,326.96386107687346 L128.6097427377634,332.125737389898 L134.6453804956239,338.07271684179057 L137.2921451293779,339.64433771977673 L138.66824918252902,341.1579599875039 L141.20556616123108,345.96052783697445 L137.3935844194244,346.0722812567414 L133.05171585986804,346.74563097584223 L130.08728608096408,346.2406186865166 L128.075851737511,346.2972026965252 L126.0644173940569,347.58731812471876 L122.67554426995247,349.1023549926962 L120.34644478134842,349.1589390027046 L116.58785213956648,349.9440421415723 L112.77720512526207,352.1324287286508 L111.66537711723518,352.412519578193 L106.84701083995284,352.6374410179767 L102.71869868049646,353.92755644617034 L100.65387523701864,353.47912816685306 L96.62967182261227,353.81580302640356 L93.50640947113126,353.3659601468362 L91.60041860022943,352.69261042773473 L88.37171277619922,349.1589390027046 L80.7450798375854,344.2828119402228 L82.57899542345407,342.545682832962 L83.50796576389462,341.0716693722409 L83.48661012388573,338.39241649833866 L81.88493712312643,335.3326361571295 L77.71658313865072,330.33343887287907 L75.3607891000338,327.84798623325617 L68.93007200198824,321.6591101385773 L62.843714599104516,316.27089778551846 L57.06034033886408,312.5618159294619 L53.42187317214008,309.90519665956293 L50.96730929847713,305.8976341507115 L49.28021373767825,300.36796177263176 L49.268201190172064,296.66878211832636 L48.428657592274845,292.96394406302034 L46.94444061157199,290.5860010424133 L44.67940804299863,287.95625917726875 L44.40845836037019,285.43827073189067 L43.50484784244229,282.4959022114491 L39.98250196827348,275.0296420908287 L43.69571387503211,274.8952550670585 L47.08325227163833,275.2319299266089 L48.41264086226592,274.73116143803384 z"/>
	<path id="rize-pazar" title="Pazar" class="district" d="M251.4300326184544,168.1580077875384 L253.0530612592246,166.91457416760164 L255.9360726605887,163.7274798038735 L259.1193977495977,162.1247377203828 L264.6798725172324,157.67723453371516 L268.64401319411087,155.18187969234066 L273.7827140715456,154.7857916222813 L276.1425122926633,153.63713621910898 L289.461758021473,148.59267172685168 L293.5887354534281,148.79778876313262 L297.4661188427667,146.98285664211 L305.0754003238703,145.4649905736323 L307.75286369013895,143.41806401157513 L309.5200429009775,143.22426377729596 L314.66274796091295,143.8353710853877 L316.5220233692943,142.42077083517546 L322.5069414821295,142.69803248421698 L325.87178951122456,144.9359300800528 L332.86042270453595,147.0337822511178 L335.6433295433538,146.22887470874696 L339.6848844152694,146.44106474627887 L345.50429631802535,144.35735857771607 L351.32904713078534,141.33718704351287 L355.8671206329365,139.67078794876264 L356.2208234206031,141.4135754570242 L357.5662287412406,145.09012150732602 L357.5662287412406,146.79047100808125 L355.875128997939,150.32838623386226 L355.7016144228563,152.6723788484641 L356.2208234206031,153.72908523537265 L363.20278297641124,161.08217733597627 L364.67632213710914,163.01169207726605 L366.0203927302454,163.93118223990396 L371.3539638227738,166.36712387076966 L374.90967788445766,169.1694469664402 L376.77429220284097,172.52487875994353 L378.16107407599907,174.2252282606989 L380.80650398225083,178.86653168164565 L383.2343733059019,181.8527528098437 L384.9254730492035,184.93233755455603 L384.144657461334,188.19440573154554 L382.9313901632586,196.28308996225977 L381.10948712489613,199.22404388245113 L379.46243338911455,200.37269928562344 L376.7302461953199,201.38413846452525 L369.9658472221155,202.7619591082321 L363.33225154397286,204.69288844977171 L353.4459249467887,208.9197139974061 L350.58426918543347,209.7925223517871 L341.3679757935655,209.88447136805115 L335.62597808584565,209.88447136805115 L331.80999216153725,209.47140809498916 L322.4882552971211,206.99019925611657 L318.5428008052511,207.4952115454425 L311.4740839619031,207.67910957797017 L310.1300133687668,207.54189335369938 L305.4905005765681,205.7948620446871 L304.5868900586402,205.22619274410175 L301.67584937975994,203.12975517328707 L300.50529336170536,200.74049535067877 L298.64067904332205,195.31691799136453 L297.2525624426647,193.11155620128358 L294.6938898239528,190.63034736241124 L290.2278916068358,189.80280621603714 L282.3369826230977,189.71085719977307 L276.8298969554887,188.7927816373854 L269.9360294147216,187.96524049101126 L266.6846332231823,187.18438115289405 L263.17163044151715,185.4840316521387 L261.43781941819674,182.12859985863503 L259.79076568241516,180.61214839040747 L259.0099500945457,178.45205380833335 L253.98069687216287,175.00608759881612 L253.5028644269367,171.513439581042 L252.6352915515253,169.3533449989676 L251.4300326184544,168.1580077875384 z"/>
	<path id="rize-merkez" title="Merkez" class="district" d="M48.41264086226592,274.73116143803384 L47.400917416787294,271.58509048156156 L48.777021469940436,270.57506590290996 L50.313292823167785,268.6116007556154 L51.26628825861971,268.33150990607334 L53.277722602071776,265.9747858892196 L56.18876328095102,264.40316501123357 L60.68946441308337,263.3945550328323 L64.07700280968857,263.0012961632733 L70.27147314012404,263.0012961632733 L72.7060161012763,262.4962838739475 L74.66539607220489,261.3179218655206 L74.98306121735587,259.7463009875348 L73.76445500927747,258.62452298911626 L70.0592514675223,258.34443213957434 L68.20664969664523,257.6144984104649 L68.20664969664523,254.92109953406055 L68.94742345949538,253.1825558265497 L75.30072636250583,251.05075324947978 L76.57005221560749,249.5908857912604 L77.04654993333344,247.7405886639829 L75.96675538532239,243.84053577414744 L76.74089733568866,242.11189426838808 L75.15123688243557,239.56278461750534 L75.50760912510461,236.94718875486282 L74.96304030484723,234.64280494726708 L73.76712446427996,233.43615093383585 L73.80583156179804,232.3695423451758 L75.77455462523133,231.97203967486612 L81.98504168567268,231.89848046185506 L87.46943698577257,230.14437615159193 L91.21868653504879,229.95057591731288 L96.31868031496347,228.10735179128602 L98.74521491111432,227.6348753077151 L103.1698365757108,227.80038353698984 L103.49551008586522,229.10323036743569 L104.8395806790015,229.9576489185637 L106.9831530450177,233.02874606177483 L108.32989309315445,232.35681094292374 L110.37736507912513,233.97511362916674 L110.95663681439984,235.24259545335698 L113.67147255068627,235.66131712741972 L119.5162442759549,235.88340936670315 L123.94220066805161,234.87904318905248 L126.7958480644044,233.7261439851293 L130.5878088937004,231.7159970295777 L136.26440495389136,227.99559837151926 L138.54812370747212,226.8554305698482 L139.14741635525547,225.96140321171387 L144.08056919759375,223.88194084390193 L148.24491899956573,223.54385138410126 L153.54512190457697,222.656897027218 L157.91768919664995,222.45319459118744 L162.11674191363824,220.69484648017357 L165.64442669781104,218.46826568633935 L168.16572694650515,216.03515325597428 L175.98723010021052,213.8736440736497 L179.7658436545011,211.57491866705473 L182.29114808569796,210.4941640758924 L185.14879966455047,209.95520138056168 L188.71652627374257,208.88859279190163 L189.6801995291984,212.90464290225418 L189.73225390172394,215.09302948933268 L188.93809103884598,218.85162235414677 L188.30276074854504,223.73340781762946 L188.8860366663225,227.10015641313478 L188.51498242114576,228.6151932811123 L186.5035480776927,230.07364613908138 L185.49716354221604,231.92535786660923 L186.71443502279217,235.57219731165662 L188.40953894859652,238.6574404573696 L187.77420865829558,240.17247732534693 L184.80177051438713,241.42298394653454 L182.97853274852238,241.56020017080505 L181.45293921529998,243.32845048357046 L178.50586089390316,243.36523009007598 L176.30622997286275,243.02714063027528 L172.7918924636964,244.49408108974552 L171.62000171814051,247.08987254888532 L169.27755495453206,247.54113002870287 L165.2666988151311,245.17167460959723 L163.101770809105,244.8321705495462 L157.84828336661627,245.43479025613667 L156.6763926210614,246.11238377598852 L156.74846790609558,249.0462646949287 L153.23413039693023,256.34418738577415 L150.78490543327027,257.73615403198323 L146.88082749392078,259.08992647143634 L141.91163700906594,260.2569716778613 L141.05874613616228,260.9713448042186 L138.32655894236768,264.9209087028115 L136.58740900904328,265.8998120759582 L138.32655894236768,268.7587191816374 L140.02967123317347,269.81259636804555 L140.73974626351108,271.9557157471172 L140.77578390602764,274.4397537864901 L142.30137743925005,277.29866089216927 L142.33741508176763,280.2325418111095 L141.73411825148153,281.32319860402316 L137.90078086966497,285.61226656266695 L137.2614463968623,286.8910651888589 L136.6581495665772,292.04445390038234 L137.22540875434473,294.30215589972113 L138.7870399300857,298.40308202508675 L139.63993080298937,301.60007859056657 L139.922893033124,305.2115530293587 L140.77578390602764,307.54422884195867 L142.90467426953614,308.74805365488953 L145.8864555059483,309.3492587612295 L148.69071798477708,311.1557032807508 L153.26883331194756,312.62264374022095 L157.0674677787468,313.60013251311756 L163.06573316658844,314.54084167950884 L166.7215517908206,314.84215153280394 L169.02929563941476,316.0459763457347 L173.0761894213313,319.2061933047089 L176.66126748802952,320.14690247110013 L181.13260461514852,322.10188001689363 L187.27368584555825,328.3091459148252 L189.50935440911724,329.7393067677899 L191.1777637849077,330.19056424760754 L195.40217632440965,330.68001593418114 L199.3422919062757,330.4169002876416 L206.44037275464007,328.23417210156407 L210.66478529413996,324.6976714760333 L210.70082293665655,327.51979897520687 L211.62311963959485,332.26012441366834 L214.21382571832163,338.09110664504345 L217.3023851547843,343.0181593165329 L220.22543838116974,345.7101435926871 L216.1144776792225,347.475564704952 L212.03821989229164,348.4290052735949 L206.63791242473206,349.4390298522466 L198.64422942344532,351.85092327885866 L191.97326137528387,353.0292852872854 L189.64416188668085,352.9741158775272 L185.5145149997252,349.27069242247154 L181.65047888539405,348.6539267133789 L175.19173250983334,348.5407586933618 L168.9452078068744,348.934017562921 L163.70373291189085,349.7191207017888 L158.1459275992566,350.11237957134756 L151.21068350597196,350.22413299111435 L148.98702748991815,349.60736728202187 L144.38088288523556,347.81223956450236 L141.20556616123108,345.96052783697445 L138.66824918252902,341.1579599875039 L137.2921451293779,339.64433771977673 L134.6453804956239,338.07271684179057 L128.6097427377634,332.125737389898 L123.89815466053159,326.96386107687346 L119.87528597362441,321.5204793140563 L117.86385163017337,320.0068570463291 L116.2755259044205,318.15514531880126 L109.8167795288588,317.1451207401496 L108.8637840934089,316.58352444081555 L107.38090184020527,314.45172186374543 L107.06323669505531,310.97321984847326 L106.64012807735512,310.29987012937227 L102.08737257269826,307.7748086827433 L100.92215546464561,306.70820009408317 L99.97049475669493,304.07138522768753 L97.95772568574162,301.65949180107543 L93.4583592811085,298.4610806353454 L93.03525066340828,297.33930263692713 L94.25252214398645,295.93601918871644 L94.51679818911066,293.2992043223206 L93.93485699883445,289.37227402773124 L92.18769870050761,286.5105377215518 L86.41767171527462,281.1237399687433 L84.40623737182054,278.43034109233906 L82.14120480324718,277.42597491468837 L79.92822660719833,277.25480828441266 L78.39062052647074,274.7962330495436 L75.15390633743604,274.13844393319476 L72.15877782601845,272.4225338296873 L69.73090850236738,271.5935780830629 L65.25289773774517,272.16507658414855 L58.40040674949964,272.48053243994593 L54.94746670536249,274.08044532293616 L51.586622858771165,273.81167127539567 L48.41264086226592,274.73116143803384 z"/>
	
</g></g></svg>