<svg xmlns="http://www.w3.org/2000/svg" version="1.2" baseProfile="tiny" width="600" height="600" stroke-linecap="round" stroke-linejoin="round"><rect id="backgroundrect" width="100%" height="100%" x="0" y="0" fill="none" stroke="none" class="" style=""/>































































































































































































































































































































































































































































































































































































































<g class="currentLayer" style=""><title>Layer 1</title><g class="city city-54" id="sakarya" title="Sakarya">
	<path id="sakarya-adapazari" title="Adapazarı" class="district" d="M162.65151566702642,223.5232596999659 L163.3284089566869,220.69551082966595 L163.60623829199474,215.5975522430971 L164.8400531128865,210.852060937812 L166.90988166093447,207.62057681804149 L168.0641362630795,204.8937617601093 L167.74589538808928,202.62194991983435 L165.1191453088107,197.72425683399481 L163.68579851074225,195.80651439900956 L163.24884873793928,192.5253644350582 L165.1191453088107,190.00041700186125 L170.8891554589191,187.5780055050379 L177.49517933618313,182.88218004393366 L180.3201985320235,178.18635458282952 L181.9126657675855,176.11641036728983 L184.61897606561251,173.9455323393825 L185.17589759684455,172.73432659097077 L185.01677715934943,170.86625000016645 L181.3948929154209,167.13009681855777 L181.59442489259686,164.60675150936677 L183.41294417825114,160.63188185088862 L189.26125168649224,159.96700038846672 L193.7128353545018,158.83590084034677 L198.9347639976839,158.57956099941308 L205.28947861255494,157.14245576617853 L209.7019136014978,156.3718341193716 L214.23558320948544,156.73070989667877 L217.15026550899174,156.67944192849203 L220.5094747449932,157.244991702552 L222.53384031089945,157.244991702552 L227.0270983792047,155.19106872707076 L233.03200060371043,155.21189633914656 L233.94757454961274,160.69116043910435 L234.76464536754276,164.24306936004209 L235.07530907884143,167.30312621118796 L233.75309401489713,169.86972886853673 L232.00276920245415,172.09027274062478 L228.38593640098594,174.1618190801703 L226.9071266207756,175.74151334992422 L226.44113105382723,178.50517725999077 L226.79094344419258,180.57672359953614 L227.9578266524879,183.14332625688488 L231.10866388700788,187.2383552158007 L232.70239398318546,187.28802105998153 L236.00856307335513,186.49817392510465 L237.83718524392992,186.9419622747211 L239.5092126982403,186.44850808092366 L242.57796399278283,189.32271854739284 L244.57202090392872,190.6845239523532 L249.72701793451364,193.54751955078132 L251.46723986203534,194.8452399955083 L253.90077226721468,195.60785102228598 L258.4660133905767,198.18566854767545 L262.4048756488804,204.8056449397882 L262.104314822501,209.57997447717847 L263.35833541323325,214.03387921340146 L263.4833586141226,215.72091579154642 L263.27877519448634,222.1918946511165 L264.6502418224172,226.7323140836547 L266.4220352653162,229.10826398430882 L270.1689427101341,229.32134647708494 L274.11538213212793,227.45326988628065 L278.16158754270975,224.5678445517707 L282.27598742650366,223.50723845990746 L285.5202763465362,221.38602627618113 L287.8287855508262,220.53690055308834 L293.7478132535092,220.5801579012458 L296.1901856829927,222.06532685465544 L299.43826318487004,224.6383380080275 L303.64485189356185,223.97025229759402 L309.7507829672711,220.26934584411376 L311.5932966046119,220.35586054042878 L312.1994696998298,221.67280647322565 L311.2952614994629,224.93953732112467 L312.4911905019036,226.123506961437 L314.2175209626608,225.52591470726045 L319.0997401003967,221.60231301696894 L322.0371538909761,217.83892372726098 L326.41549164331195,212.7297502726512 L327.5533290574618,212.04404119815368 L329.7166092910218,211.95592437783273 L335.67604853338645,213.37700837100883 L337.58801950455427,214.32065941044607 L340.2286610505989,213.19757048235536 L344.4794498808169,207.2520882966993 L346.0087740856279,202.91353648889645 L346.86120500077845,205.36478621782493 L344.4794498808169,220.58336214925745 L343.752042166555,222.6244681326922 L332.57698858408287,237.1461201215862 L331.63489456526486,239.37787886171515 L329.39079125234235,242.88492831048939 L326.90043011948717,245.54445416017646 L324.90132176588173,248.6958320796552 L322.93378492765294,249.87659747195602 L321.525695341886,251.3473473093131 L319.00123697242435,255.49684848442746 L318.3293951252242,257.9497003373617 L318.76255631618164,262.0959972644643 L320.8147048156191,267.01131371436804 L320.7376703181013,270.4206335987862 L319.26264911973783,274.2272802366518 L317.1574604744693,277.86249960589265 L316.2595665771775,278.7644954211781 L312.391424513315,277.30015407984445 L304.55790011823507,274.7463684145424 L298.1678254061421,273.35732690148285 L294.66591292064123,272.9696128920707 L290.50857577593604,273.4694755818915 L288.05736332214826,274.1359591683189 L281.58015122761685,276.6336704934168 L275.1963908185998,278.5626277964428 L266.8880308322652,279.8315100090646 L261.51582177589296,280.27049198666356 L258.85497446000795,282.1770195536081 L257.4544620379311,283.8015732955253 L255.63973133412145,283.82720727961873 L251.82336655547658,284.82212628724255 L251.3699995946771,282.439767890565 L250.48220858230604,282.8338903960006 L248.13076211710546,281.8646053724701 L246.8931587143676,283.0694026248584 L244.95466767028483,283.01653253266596 L243.96458494809457,281.96874343284935 L242.7888617154943,283.33054883780966 L243.6753898672512,286.52358198144003 L242.41758069467292,288.17216758344483 L242.41758069467292,289.9777613380217 L241.7154301927118,290.94544423754644 L241.4679095121649,294.39962359412795 L240.39574084999722,295.76142899908825 L238.0645001546371,296.15394938051804 L237.7146877642718,300.44443746814585 L236.45561573107926,303.1920801381538 L232.08232942120165,303.5060964432977 L231.48499635028878,300.1047871789086 L232.1757811067145,296.2260449607807 L232.72638833487133,294.9235181440361 L232.32227293805917,289.61888556071443 L233.6419622807744,287.48005001292387 L234.669930821415,284.6410862745832 L235.9163742484572,282.5022507267927 L237.7500478614924,280.919352209027 L238.15290039768965,277.8032210176768 L236.9797028863192,275.802168134388 L234.5954220451278,274.4067181253052 L232.9827490397239,272.9183449238839 L225.7945464189279,254.7742905577955 L218.1302453462615,240.8165862189556 L216.66406417220225,237.88630141228225 L215.3064890110367,235.97817172133202 L213.03333990396814,237.00192896106094 L211.86014239259757,238.91005865201123 L209.25612380438992,239.6069825945496 L208.00968037734708,241.74742026634604 L207.5689420226987,245.0974615625483 L202.32554474906058,247.3308224266832 L198.43845977597456,247.9348231768833 L196.49491728943087,248.7727340319353 L194.47812888721404,247.9348231768833 L188.17014011509912,247.98128477305238 L183.76907087169243,248.91211882044294 L174.74845749847609,253.19139204002988 L170.16427346588702,254.2616108759281 L166.6434180711614,255.51767609650318 L164.8476302765773,255.0530601348109 L163.70979286242877,253.47176374105106 L163.70979286242877,250.44695361803343 L165.36035168628234,244.9580767740406 L164.66325262678217,238.11860939312834 L164.77312150029,233.55896447252016 L163.45343215757552,225.65088037971552 L162.65151566702642,223.5232596999659 z"/>
	<path id="sakarya-akyazi" title="Akyazı" class="district" d="M494.7308172761964,445.37257503603615 L492.70518884967527,445.83719099772856 L488.56932033542535,450.7621201916671 L483.56081513618517,457.11614399881125 L481.92919922155573,458.0437737981902 L472.1938067402279,459.6138553239089 L467.6639257140857,459.4360195592613 L465.1041072474042,458.5436364880108 L463.0216500932066,457.18663745506814 L458.77338698421835,455.6518026574778 L453.84949344618525,455.2592822760478 L446.81535982042334,456.5810345808624 L444.8465601215789,457.5439111083694 L442.399136249635,457.6160066886321 L437.19362479444874,460.5062383951595 L432.41117164530004,461.14869012149956 L420.14374363082055,462.3983468460514 L412.0690128582669,462.148415501141 L403.31865165666835,461.36337473828155 L396.1443405026376,461.00610108498023 L392.3456557726033,461.22078570176234 L383.3982883150579,459.97112897721047 L378.9252360165938,458.4731430317539 L370.1193089479336,456.6162813089907 L366.7992483909987,456.86621265390085 L364.4629562531783,457.65125341676054 L361.73391446408124,460.00797782934455 L357.03607297613974,465.46801644123235 L354.19589945291915,462.6290527028917 L349.8832304525643,459.67473603613075 L342.62935907978596,455.60694318531404 L336.78862873523485,453.3799908172028 L329.7267121759417,448.63289738791167 L327.4750316993292,446.59980202450606 L324.7472527708477,444.6788553415093 L321.90076494455195,443.063914343627 L323.19898565681115,440.9811531360409 L328.58129759810316,435.0244560823438 L329.80374667346024,433.3790747283509 L330.64354898245966,427.5185051150042 L330.8721267537818,424.274204003187 L332.01754133162177,420.25447487254525 L333.0859214119433,418.073984100603 L339.8434885630123,409.3568273848515 L344.17762619382245,402.2786435270697 L344.84694231979284,398.939817098908 L343.64217329304574,395.8284922795754 L339.9407288303697,388.1911671437569 L336.32894747136106,386.0971910681298 L333.5190826029008,381.91084104088117 L332.09205010790896,377.49859152881004 L326.1616566596898,372.9149147481142 L325.71586686258195,371.44416491075714 L326.47358323160404,369.2941144949259 L329.8176381402247,367.70961385315445 L333.6529458280958,367.59746517274596 L336.4186105750284,366.46476350062 L338.06790653826926,361.1473139252518 L339.36107580806816,358.48778807556465 L340.2084552807584,357.9222383015045 L341.2338981001685,353.73588827425607 L341.0558347534486,352.4910379217218 L341.50162455055727,346.4382134276747 L340.61004495634006,343.60886243336915 L338.157569641936,341.4027376773335 L334.9915780800359,339.9319878399763 L332.8952294590723,339.76216269535774 L329.72923789717294,341.9682874513933 L326.2955198848835,345.64516204478616 L324.2888343675887,347.39948783117603 L320.31966345452395,347.9089632650319 L318.491041283949,347.00376320173484 L317.1978720141509,345.64516204478616 L315.8150396406839,342.47776288524915 L314.6115334745524,338.74321182764623 L313.4522274299478,332.12483755953934 L312.72987115814556,326.46613557092786 L311.40007893051046,317.9796847120167 L310.8204259082082,316.96233596831104 L310.6423625614876,314.4726352632425 L308.94760361610633,311.64328426893684 L309.6169197420767,309.21126002807836 L309.4830565168831,306.38190903377256 L310.42009909324145,301.0772764504508 L311.80672004855245,297.56542062965906 L312.2626127305816,288.29392900788844 L312.53412776281425,286.62772004181943 L314.1164921134572,281.4592679989936 L316.2595665771775,278.7644954211781 L317.1574604744693,277.86249960589265 L319.26264911973783,274.2272802366518 L320.7376703181013,270.4206335987862 L320.8147048156191,267.01131371436804 L318.76255631618164,262.0959972644643 L318.3293951252242,257.9497003373617 L319.00123697242435,255.49684848442746 L321.525695341886,251.3473473093131 L322.93378492765294,249.87659747195602 L324.90132176588173,248.6958320796552 L326.90043011948717,245.54445416017646 L329.39079125234235,242.88492831048939 L331.63489456526486,239.37787886171515 L332.57698858408287,237.1461201215862 L334.0722155522881,240.91912215532906 L342.8036338446619,259.77291745600263 L347.010222553353,269.0460112017792 L348.69740433504336,271.25213595781486 L349.2858973816513,275.3663904048009 L350.5007692933183,276.42058800064063 L353.4457602475863,277.17038203537163 L359.26123337983665,277.3097668238794 L360.3435049269242,277.7118999493441 L366.59971641382276,281.3086683424452 L369.91346266768244,283.82560515561295 L372.23712619935253,286.86163014667125 L372.7776305425881,289.3657499677924 L372.74479616659727,291.9515781132111 L374.19582301327637,295.32565126950095 L375.3197689606603,297.051138823786 L378.8115785612399,299.6353648451987 L380.5038117853913,302.69542169634485 L381.39791710083836,305.0441354888998 L382.3892626836435,309.33141932851595 L384.4325711587745,312.3738528155979 L386.5680684588041,314.2947994985947 L387.49374528962636,315.9033320004537 L396.7151535006342,317.7057215070188 L397.37689246291376,318.2937010171604 L402.1618713332936,325.37028275093644 L403.85915599990534,326.4885653070097 L407.16658795068906,326.9083217965386 L411.025889990246,326.8810856884393 L413.41774799512746,326.573477879319 L415.5633481800769,325.00660060161175 L417.9160575058931,325.2308979624286 L419.5918735420488,327.0573193290813 L420.6791965315965,329.3323354173678 L422.23756653055295,334.2188136351664 L424.64836744466066,338.1728556815688 L429.8816618333782,342.4617416451906 L432.08661646723476,343.46947764486157 L438.260742014156,345.5201963723309 L440.25985036776075,348.5418022473371 L442.55194238405494,355.1057042992456 L444.34646731802417,358.9091466890993 L445.49188189586334,360.4760239668065 L448.7563765857365,362.6388913746846 L457.222594148952,366.0706409951845 L463.45607414477973,367.227374527398 L469.42309055083433,366.182789675593 L472.36303006264274,364.9523584391113 L479.47798676776716,364.61591239788584 L482.09463396212595,364.65436337402576 L489.59223743360576,365.3625021846054 L494.76617737341763,367.1152258469893 L496.94208621312805,368.6821031246966 L500.38085566787714,372.15070159733085 L505.88819081005704,376.00380983136546 L501.0097602541651,382.83686871625457 L498.39690164165177,385.8728937073127 L495.51884229997944,391.1999560267162 L494.69924576081974,393.39967228672884 L494.06781545330114,397.4354226574286 L494.62347412391824,403.337647494927 L496.8751546005309,406.3993064700788 L499.9072829372372,409.428922965114 L501.0047088117056,411.46362045252516 L499.9072829372372,412.926359669853 L496.3346502572938,413.8555915932378 L494.5893768873119,415.24783735430896 L494.3090218307736,417.2809327177142 L494.2799760366274,421.74284807396674 L493.15476722862854,428.3468032260211 L493.80261472414287,432.13102012780473 L498.21883829493186,434.48614241638336 L498.9790803851838,436.4134975954034 L495.7145856953114,440.26820795344395 L496.1932098684101,442.8748637109385 L494.7308172761964,445.37257503603615 z"/>
	<path id="sakarya-arifiye" title="Arifiye" class="district" d="M232.1757811067145,296.2260449607807 L231.48499635028878,300.1047871789086 L232.08232942120165,303.5060964432977 L236.45561573107926,303.1920801381538 L256.5944539590904,300.3146654236731 L256.7169514387486,301.14776990670754 L259.9321945646352,303.85535947656984 L259.27171846297125,306.33224318959174 L254.49305389566655,310.18374929962044 L254.34277348247713,311.7089713531761 L255.33411906528238,314.53031172745256 L264.3989325600249,314.3396589707581 L264.3989325600249,316.92068074415937 L263.69551919744885,318.01332931613916 L263.85211391371416,324.46668481164505 L262.7534251786302,330.1189783042331 L259.1807924986882,332.2562117280179 L254.76078034605456,335.7552505567628 L253.09759291604922,337.64255263563723 L252.0910930058638,339.7525499513229 L251.91555538037449,341.6959263704013 L253.18473029848747,346.026467558175 L252.44090539622988,351.13564101278496 L251.6528803724467,352.85632219505254 L251.39020536451903,354.855772954335 L248.76471814585454,362.18388815702724 L247.9640645159203,363.78601216286296 L244.6894669411259,358.95080191325104 L242.13091133505938,361.7304870633759 L240.7278731917519,364.7168462102536 L237.77277935256336,367.1953320472812 L234.81768551337393,366.9405943303532 L232.713759728721,363.12914132047035 L233.1772295744402,353.5035802934098 L230.14383837711827,352.99250273554827 L228.61451417230793,353.6061162297835 L225.7692892066264,353.5708695016549 L221.58290626777506,352.24431082482323 L217.61120963348122,352.51667190581526 L214.22295460333433,353.4362910851647 L214.2191660214897,347.04862267389825 L213.4879697253824,343.0096680551864 L207.81898842447686,336.9167904609938 L206.2404126556793,333.88557184195275 L205.35893594638262,330.17665476844314 L204.40800190325902,324.17189399457135 L203.85108037202698,322.43519157224557 L199.72152616085216,314.28358463055395 L197.86638391736236,309.77200343012066 L202.01361817714704,307.47776185376415 L205.09499807783922,306.3755005377493 L209.4089299388098,306.4652194820761 L211.43455836533013,307.4489236216591 L217.70971276145428,305.73465093541506 L223.91035838129054,305.10181195310986 L226.86040077801957,302.8171831207884 L227.88458073681554,301.00998724220585 L229.25983594659175,299.8997153061617 L229.5098823483691,297.96434950711233 L232.1757811067145,296.2260449607807 z"/>
	<path id="sakarya-erenler" title="Erenler" class="district" d="M247.9640645159203,363.78601216286296 L248.76471814585454,362.18388815702724 L251.39020536451903,354.855772954335 L251.6528803724467,352.85632219505254 L252.44090539622988,351.13564101278496 L253.18473029848747,346.026467558175 L251.91555538037449,341.6959263704013 L252.0910930058638,339.7525499513229 L253.09759291604922,337.64255263563723 L254.76078034605456,335.7552505567628 L259.1807924986882,332.2562117280179 L262.7534251786302,330.1189783042331 L263.85211391371416,324.46668481164505 L263.69551919744885,318.01332931613916 L264.3989325600249,316.92068074415937 L264.3989325600249,314.3396589707581 L255.33411906528238,314.53031172745256 L254.34277348247713,311.7089713531761 L254.49305389566655,310.18374929962044 L259.27171846297125,306.33224318959174 L259.9321945646352,303.85535947656984 L256.7169514387486,301.14776990670754 L256.5944539590904,300.3146654236731 L236.45561573107926,303.1920801381538 L237.7146877642718,300.44443746814585 L238.0645001546371,296.15394938051804 L240.39574084999722,295.76142899908825 L241.4679095121649,294.39962359412795 L241.7154301927118,290.94544423754644 L242.41758069467292,289.9777613380217 L242.41758069467292,288.17216758344483 L243.6753898672512,286.52358198144003 L242.7888617154943,283.33054883780966 L243.96458494809457,281.96874343284935 L244.95466767028483,283.01653253266596 L246.8931587143676,283.0694026248584 L248.13076211710546,281.8646053724701 L250.48220858230604,282.8338903960006 L251.3699995946771,282.439767890565 L251.82336655547658,284.82212628724255 L255.63973133412145,283.82720727961873 L257.4544620379311,283.8015732955253 L258.85497446000795,282.1770195536081 L261.51582177589296,280.27049198666356 L266.8880308322652,279.8315100090646 L275.1963908185998,278.5626277964428 L281.58015122761685,276.6336704934168 L288.05736332214826,274.1359591683189 L290.50857577593604,273.4694755818915 L294.66591292064123,272.9696128920707 L298.1678254061421,273.35732690148285 L304.55790011823507,274.7463684145424 L312.391424513315,277.30015407984445 L316.2595665771775,278.7644954211781 L314.1164921134572,281.4592679989936 L312.53412776281425,286.62772004181943 L312.2626127305816,288.29392900788844 L311.80672004855245,297.56542062965906 L310.42009909324145,301.0772764504508 L309.4830565168831,306.38190903377256 L309.6169197420767,309.21126002807836 L308.94760361610633,311.64328426893684 L310.6423625614876,314.4726352632425 L310.8204259082082,316.96233596831104 L311.40007893051046,317.9796847120167 L312.72987115814556,326.46613557092786 L310.7635971805316,328.98467450810153 L307.2440046464202,334.78115916121476 L306.6694030665781,336.23588775851357 L304.4316140567308,338.6086334111562 L299.5531835008389,342.4377097851034 L296.58546105549993,345.947963481889 L293.38537225699275,350.9818371082246 L289.71676217030745,357.877378829341 L283.68281415165575,365.9136328426128 L280.21499890276124,370.228152790328 L279.0481156944659,372.68100464326227 L278.0479300873566,378.1378390071384 L277.4139740586074,379.6614589366881 L273.1467680403936,381.3533018868506 L271.7790899943082,382.4107037307021 L265.74387911504084,385.53965191409924 L258.9661061941314,388.53722592901744 L257.00740938020755,388.365798660393 L255.02219249336815,387.6176067496677 L252.0431043024929,385.7783683909684 L248.8758498799773,381.82913271658373 L247.82893843011107,379.82167133727154 L247.61425212555503,377.0980605273512 L247.61425212555503,368.0412535223621 L248.15096788694598,365.5900037934338 L247.9640645159203,363.78601216286296 z"/>
	<path id="sakarya-ferizli" title="Ferizli" class="district" d="M343.193857774708,156.79639698091805 L342.2643923620405,158.45459532695796 L342.1507349066865,160.1400297810969 L336.4173477144135,164.0428038593125 L334.3222619540663,167.117279826511 L333.12633295162556,169.58294867149203 L331.3318080176556,174.55433946160005 L329.77596373992895,176.3006546279608 L327.59247773652777,177.47661364824415 L324.7800871468385,177.97006784204166 L316.40479554790596,178.38822220756472 L311.49858205848284,179.41197944729367 L306.144053050722,181.04454380924017 L302.3441054600736,182.86615880387535 L299.02404490313734,183.13211138884392 L297.6487896933618,182.90460978001542 L289.18257213014635,179.03227605791068 L285.622568056354,176.71880899348398 L275.36182555917003,170.64675901136695 L270.36721182669515,166.66067448484804 L267.16586016757304,161.95523627970869 L266.3576293739495,159.52641628686195 L265.0114199583187,154.02312032681658 L265.2816721299372,151.44370067742128 L266.7175446492354,148.36922471022262 L266.8362535470489,144.95349632978116 L266.4182466834708,141.42401714492522 L265.13139171674703,137.742336179515 L263.45683854120693,136.07292296543417 L260.5850935026105,135.5794687716369 L256.09814973738037,133.91005555755615 L253.08622717051367,133.14904665478423 L253.5800056709948,129.92557315504294 L254.4703224045956,126.43294282232128 L258.8019343141767,121.2981353836181 L258.35614451706886,119.39801631269704 L259.00399201258244,118.3197868567697 L258.6402881554519,116.82981153134266 L259.2060497109882,111.69500409263935 L259.9347202858664,110.56550666852536 L259.53060488905356,106.35512478118925 L259.69225104777775,103.58184812708778 L260.98794603880776,101.47665718341977 L262.5665218076053,100.70603553661294 L268.59668124441106,100.19175373073969 L272.36126873784025,98.85718443387863 L279.0001269910943,95.72503200246987 L281.1457271760437,94.23505667704283 L283.41256198003794,91.92479386062789 L285.47607622501,88.99771330196619 L286.2451583395683,86.42950852061169 L286.448478898589,77.76041552503511 L293.8728364543978,75.10890029537711 L297.35580603067234,74.81410947830337 L304.2876479466166,75.69848192952458 L311.6185538169119,77.9702937697996 L313.9396916273522,80.03222736531005 L315.76452521608167,80.7051194477609 L322.06619968512155,81.46292410252119 L325.4153060362025,82.39375814991173 L328.5686689919528,85.44740650503437 L331.34822520565143,91.38808231867289 L331.8344265424408,93.45482228620085 L330.98452134852005,96.01822069553785 L330.5058971754206,100.6067038482511 L330.6119774670838,102.09027067765486 L333.1642187700752,105.26247620920942 L334.8665548791472,115.44878063831236 L334.2805875537698,121.45354141218417 L332.3660908613722,129.14533876420109 L330.930218342074,133.05772558645168 L328.7505209205181,135.69001532803955 L327.84631272015054,139.0624863603235 L328.59140048302373,141.289438728435 L330.66501761291505,144.46004213598377 L334.0747412735186,151.79296371069339 L335.0319896197174,152.97212697898837 L339.357287226222,152.37133047680004 L341.65190496374595,152.58921934159372 L343.8139223366912,154.5390042566956 L343.193857774708,156.79639698091805 z"/>
	<path id="sakarya-geyve" title="Geyve" class="district" d="M214.22295460333433,353.4362910851647 L217.61120963348122,352.51667190581526 L221.58290626777506,352.24431082482323 L225.7692892066264,353.5708695016549 L228.61451417230793,353.6061162297835 L230.14383837711827,352.99250273554827 L233.1772295744402,353.5035802934098 L232.713759728721,363.12914132047035 L234.81768551337393,366.9405943303532 L237.77277935256336,367.1953320472812 L240.7278731917519,364.7168462102536 L242.13091133505938,361.7304870633759 L244.6894669411259,358.95080191325104 L247.9640645159203,363.78601216286296 L248.15096788694598,365.5900037934338 L247.61425212555503,368.0412535223621 L247.61425212555503,377.0980605273512 L247.82893843011107,379.82167133727154 L248.8758498799773,381.82913271658373 L252.0431043024929,385.7783683909684 L255.02219249336815,387.6176067496677 L257.00740938020755,388.365798660393 L258.9661061941314,388.53722592901744 L261.11296923969644,390.27392835134333 L270.45308634851784,397.0829553761445 L273.43091167877736,399.5342051050731 L275.3908713533162,402.39399645548974 L278.28913646482886,410.15628726376326 L278.3686966835765,411.79045374971565 L279.68459744444556,414.9562507852469 L282.6902057082356,418.1572945489064 L284.7562456744382,419.48385322573836 L288.9161085403733,420.57489967371254 L291.2776578904951,421.9014583505443 L292.78046202238977,423.7406967092435 L296.72563858376805,431.1617351042741 L298.7386384041387,434.1929537233151 L300.37530576122845,438.4481950828146 L300.86403281924845,440.94430428390666 L304.24092210385913,443.39074764081755 L310.9694434607827,444.04441423519836 L312.3143900157979,443.90022307467325 L316.0082573147846,442.6281366140396 L318.3849609922852,442.3013033168493 L321.90076494455195,443.063914343627 L324.7472527708477,444.6788553415093 L319.53668987320106,447.996854157595 L313.82603417199834,447.3624130512841 L306.6138371995164,447.996854157595 L303.00710728296735,450.7941626717841 L298.09836807231443,453.4633012655062 L291.08570307700853,454.98692119505563 L284.7751885836638,461.85042043605563 L282.57023394980723,462.6130314628334 L283.1713556025655,465.53530564947744 L284.67415973446015,468.8404874735166 L285.1755153986312,471.5096260672385 L285.1755153986312,476.9744710511439 L281.5687854820814,483.32849485828785 L278.76397205608293,487.26811778863777 L277.2611679241875,490.9546051260655 L275.3580369773254,492.987700489471 L273.15434520408377,496.29128018950405 L271.2512142572209,497.68993444659844 L267.1431286765029,497.81650224305963 L265.74135339381036,498.7072831903042 L263.5363987599545,501.88429509387635 L258.82845438709165,503.9173904572814 L254.8213976555773,500.3590730403206 L249.31153679216607,502.7734739171149 L247.71275525352803,502.52514469621036 L246.75171832548386,506.1908044215623 L241.36814352357618,511.27594601608456 L237.6464932910597,513.6374768006863 L237.10220036597875,514.4000878274642 L236.58695323504244,517.7052696515029 L236.58695323504244,521.6641180699226 L237.0744174324475,528.892901584253 L237.21712068194688,533.6143610294507 L236.950657092173,540.2455522896043 L231.9269975655527,541.466370782051 L226.41082239906626,541.1795905850065 L221.66878078959778,539.73928110376 L218.62528670735668,537.8519790248856 L214.9680423662069,536.8122005450984 L208.20163519083363,537.5331563477246 L197.0770960329636,540.9825293322888 L194.98074741199926,542.0751779042687 L185.2011548091452,547.8492328213003 L182.81434824672334,549.0812661817877 L180.51089048489374,549.4689801912 L170.06450747729983,550.6833901876232 L165.20249410940357,552.0371849725543 L157.62406755855994,556.0505056071727 L155.1993751776871,558.3207153234418 L154.95059163652388,559.6713058603611 L155.12865498324453,563.5148013503608 L154.02112622385698,566.115048611832 L151.11023250619388,569.3897900797601 L149.79938318778434,569.6220980606063 L145.90724677223668,567.9126317463797 L141.35337139441,565.33481422099 L139.02086783843433,563.4266845300399 L138.16338548082348,561.9831708007821 L134.6425300860985,558.8430077493442 L133.12709734805208,558.2021581470101 L130.198523581779,555.8950995786065 L128.34716992013324,555.3824198967393 L125.85680878727806,555.2975073244302 L117.74419219627396,556.5792065290987 L115.82464406141605,556.4077792604742 L114.24227971077389,555.4689345930544 L112.7950414459402,553.8892403233006 L109.46235228285428,551.027846848878 L107.34200931020558,549.7461476442095 L101.41666730444672,547.6537736925882 L98.92630617159222,546.5435017565442 L96.03056678130999,544.6209529495411 L94.54923127987065,543.1261712520966 L93.24722198576605,540.8111020636643 L90.50176300867393,534.4170251563744 L89.26037102409134,530.3123834534235 L87.86743576570376,526.8277637407309 L85.94915049146152,524.251548339347 L81.66173870340657,520.3856231132659 L80.67670742367729,518.9068626558799 L79.22189199515422,515.0890011499732 L77.86810541583334,506.11710671729367 L76.11272916093012,500.19886063973706 L73.15384673989676,494.98074275273046 L71.09664679799911,492.7537903846189 L68.23753036555307,492.8178753448522 L66.97466975051516,493.40104848297636 L69.95123222015985,486.75704023077594 L78.4553356018264,484.12635261319406 L84.85046175637896,484.15839509331073 L96.65694564636897,486.8259315630269 L104.90721404441206,486.3997665774747 L121.50625396847272,480.444671647784 L136.33223758901877,476.4073191530781 L151.06224380282148,470.5579644077721 L162.22340591852839,461.24802180986154 L171.72643204668884,454.46462876915336 L174.48830821177745,448.8700117407752 L173.1054758383111,442.04336135190994 L172.22399912901375,440.14003803297686 L165.99051913318678,434.2842747916478 L163.69716425627777,431.5991149578674 L159.08014584769856,426.972180829014 L155.84595981258647,424.95831095367873 L147.87730933169593,423.46673350424555 L146.87838658520138,422.9812899304774 L144.702477745491,420.29613009669714 L143.0557075034814,416.3036370741547 L140.37970586021547,410.9333174065938 L136.96871933899766,405.0391031891244 L135.79299610639814,402.65193842042925 L132.5878558654307,397.98815543944175 L130.11517478118685,394.86080938005057 L126.85068009131305,390.2050370190923 L123.28183599321568,384.31562917364073 L129.6681221234633,383.94073215627503 L135.11610281673623,383.9070875521527 L140.67142666229,384.6889240670003 L150.78820304935903,384.89399593974736 L154.14362370351523,384.2467378413898 L159.0548886353979,385.6421878504724 L161.87233066754828,386.9367040471879 L166.05871360639807,389.83014000172676 L167.883547195129,390.3748621637109 L172.82133219992815,390.5799340364578 L178.16196974092298,389.04830348687915 L184.76420503634225,382.0678491934535 L185.80985362559426,379.5829548604023 L190.1578827231698,372.0930251331208 L192.8679816030414,365.2151067760682 L194.04875627810122,362.96892891988665 L201.50973679174692,357.2477440950477 L203.84476606895177,354.4568440768823 L207.52095331932776,353.0613940677993 L211.3587867284287,353.46993568928747 L214.22295460333433,353.4362910851647 z"/>
	<path id="sakarya-hendek" title="Hendek" class="district" d="M342.1507349066865,160.1400297810969 L342.2643923620405,158.45459532695796 L343.193857774708,156.79639698091805 L347.3322520101878,155.58198698449456 L350.954136254117,155.17985385902995 L357.8556695152987,154.96196499423618 L359.7247032255552,155.17985385902995 L365.2737127680324,158.61000135552393 L367.2286210001116,159.15632564151386 L372.11715444092414,159.85004533604067 L382.0659703661931,159.19317449364803 L388.3625933927726,160.10478305296851 L393.10716072347157,161.38167588561953 L403.5156579126145,162.58487101400215 L410.2151334753912,163.2417418563948 L412.34305361173,163.9354615509215 L425.4262895835239,169.40671503085022 L430.5749723110344,171.33887658188792 L433.85083274644296,172.76316482307578 L436.63922898444713,176.0090680588987 L439.1990474511286,179.98553984138286 L443.5117164514835,185.16520675224936 L448.17040926035907,189.47011395592966 L450.1253174924383,190.85595122097746 L451.7645105707571,191.1475377900396 L456.96875916532923,191.1475377900396 L461.7701552237034,191.6586153479012 L465.8832922468824,191.75954916026876 L463.73895492254786,196.35283868499954 L463.3335766651201,198.7432077017063 L462.4937743561206,200.83718377733348 L461.8850755396722,205.32152886966736 L462.08713323807797,207.08546740009237 L462.98628999598594,209.18104559972542 L465.5056969229858,210.6886442892166 L467.7952632180495,209.84272281413544 L473.3291184331466,209.58478084919588 L475.1249062277307,210.02696707480652 L479.441363809931,212.41573396750752 L480.802727552942,212.67207380844116 L488.5680574748104,211.16607724295568 L493.78240895430247,211.20292609508988 L496.3586446089804,213.08221755393512 L498.3602786838149,217.11957004864092 L498.04203780882614,219.9505231669525 L492.9135608511561,227.04472826479267 L492.2177246522709,229.35979745322513 L492.01566695386447,233.32986073968573 L493.5222596676045,236.12236288185719 L495.2599558738964,237.40886845854317 L501.5477388761717,237.55626386708002 L504.12523739146377,237.00513320907265 L505.8641964583712,236.1592117339915 L508.18154568696605,234.21102894289533 L510.23874562886317,234.28472664716384 L512.1507166000308,236.0855140297229 L512.7884612106247,237.40886845854317 L513.3390684387808,241.56157388166906 L512.7884612106247,242.66543732168986 L508.76119870926914,245.7158814288009 L504.58870723718235,247.002387005487 L496.62131961690733,247.84670635656235 L492.2177246522709,247.66406421989703 L491.20364757839474,248.434685866704 L488.0174502466543,252.6626911181041 L485.8150213340275,254.50032735279757 L484.4827033851627,256.485358996028 L481.03509390610867,259.535803103139 L479.15216872908695,262.14566310864524 L477.32733514035743,263.9464504912045 L476.689590529763,265.30665377215894 L477.4422554563256,268.7976819808747 L480.542578266244,274.23689298068666 L480.78883608617593,277.12872681122 L480.44154941704113,278.84460162146985 L476.5014242981226,282.76499906374966 L473.332907014992,284.13641721274496 L472.01953197535266,285.1169171043163 L470.97767196794604,287.12598060763423 L472.1357151519357,292.5171278872711 L474.8786484077987,297.5638185056534 L476.4622756190566,299.23002747172245 L478.7998306174918,300.22975285136386 L481.94814213078126,299.37742288025925 L485.2315797298799,298.9368387786545 L488.39883415239626,298.8871729344736 L491.1026187291919,297.90827516690797 L492.6092114429327,298.25112970415677 L494.0387696591557,297.46608894129736 L496.7034055568861,297.4180252211223 L499.13820082267813,299.5248182887962 L501.6487677253738,305.9941950243604 L503.50264710825013,311.5311355885282 L504.9322053244732,314.03044903763185 L505.85914501591105,314.17784444616876 L507.94539075195394,313.19734455459735 L510.7653585053333,311.3356764598163 L519.1861130864077,309.3746766766734 L522.1992985138886,308.88442673088775 L523.3194558794265,309.3746766766734 L526.6799279760436,311.92365596995796 L528.2256693688496,314.8154898004914 L529.3066780553222,319.4712621614496 L529.3837125528399,323.19459835101156 L528.9593913861867,325.7916413644711 L528.1486348713327,326.9692025087605 L527.2987296774118,331.72270443407467 L526.4488244834918,332.946727174533 L526.2164581303243,338.8281243999555 L525.7138396055391,340.39660380166896 L521.1170269668004,345.2478352913389 L520.6156713026307,348.6299190676579 L517.8272750646265,354.7884837460899 L515.6639948310672,359.0997994457936 L513.9452415339995,360.59938751525596 L508.5275694954869,362.5443660583403 L506.8972164414722,364.07599660791914 L506.61307280308847,365.4650381209787 L507.0677026245028,371.5114541190022 L506.5170953963459,374.77818496690094 L505.88819081005704,376.00380983136546 L500.38085566787714,372.15070159733085 L496.94208621312805,368.6821031246966 L494.76617737341763,367.1152258469893 L489.59223743360576,365.3625021846054 L482.09463396212595,364.65436337402576 L479.47798676776716,364.61591239788584 L472.36303006264274,364.9523584391113 L469.42309055083433,366.182789675593 L463.45607414477973,367.227374527398 L457.222594148952,366.0706409951845 L448.7563765857365,362.6388913746846 L445.49188189586334,360.4760239668065 L444.34646731802417,358.9091466890993 L442.55194238405494,355.1057042992456 L440.25985036776075,348.5418022473371 L438.260742014156,345.5201963723309 L432.08661646723476,343.46947764486157 L429.8816618333782,342.4617416451906 L424.64836744466066,338.1728556815688 L422.23756653055295,334.2188136351664 L420.6791965315965,329.3323354173678 L419.5918735420488,327.0573193290813 L417.9160575058931,325.2308979624286 L415.5633481800769,325.00660060161175 L413.41774799512746,326.573477879319 L411.025889990246,326.8810856884393 L407.16658795068906,326.9083217965386 L403.85915599990534,326.4885653070097 L402.1618713332936,325.37028275093644 L397.37689246291376,318.2937010171604 L396.7151535006342,317.7057215070188 L387.49374528962636,315.9033320004537 L386.5680684588041,314.2947994985947 L384.4325711587745,312.3738528155979 L382.3892626836435,309.33141932851595 L381.39791710083836,305.0441354888998 L380.5038117853913,302.69542169634485 L378.8115785612399,299.6353648451987 L375.3197689606603,297.051138823786 L374.19582301327637,295.32565126950095 L372.74479616659727,291.9515781132111 L372.7776305425881,289.3657499677924 L372.23712619935253,286.86163014667125 L369.91346266768244,283.82560515561295 L366.59971641382276,281.3086683424452 L360.3435049269242,277.7118999493441 L359.26123337983665,277.3097668238794 L353.4457602475863,277.17038203537163 L350.5007692933183,276.42058800064063 L349.2858973816513,275.3663904048009 L348.69740433504336,271.25213595781486 L347.010222553353,269.0460112017792 L342.8036338446619,259.77291745600263 L334.0722155522881,240.91912215532906 L332.57698858408287,237.1461201215862 L343.752042166555,222.6244681326922 L344.4794498808169,220.58336214925745 L346.86120500077845,205.36478621782493 L346.0087740856279,202.91353648889645 L346.8245820429429,200.11302372669576 L346.9773881773621,195.7616549268462 L346.4659296282712,193.13256943326982 L344.84062801671763,190.38332463925602 L344.1902547999729,187.3985676163842 L344.90377104746943,185.87014131481712 L346.70587314512875,184.60286122620104 L351.58430370102064,183.21542183714743 L352.0111505889037,181.9865927246715 L351.40624035430073,180.03520568556374 L347.57219552704527,170.58267405113355 L346.29923202708676,167.8895035973238 L343.0536802464392,162.60249437806635 L342.1507349066865,160.1400297810969 z"/>
	<path id="sakarya-karapurcek" title="Karapürçek" class="district" d="M321.90076494455195,443.063914343627 L318.3849609922852,442.3013033168493 L316.0082573147846,442.6281366140396 L312.3143900157979,443.90022307467325 L310.9694434607827,444.04441423519836 L304.24092210385913,443.39074764081755 L300.86403281924845,440.94430428390666 L300.37530576122845,438.4481950828146 L298.7386384041387,434.1929537233151 L296.72563858376805,431.1617351042741 L292.78046202238977,423.7406967092435 L291.2776578904951,421.9014583505443 L288.9161085403733,420.57489967371254 L284.7562456744382,419.48385322573836 L282.6902057082356,418.1572945489064 L279.68459744444556,414.9562507852469 L278.3686966835765,411.79045374971565 L278.28913646482886,410.15628726376326 L275.3908713533162,402.39399645548974 L273.43091167877736,399.5342051050731 L270.45308634851784,397.0829553761445 L261.11296923969644,390.27392835134333 L258.9661061941314,388.53722592901744 L265.74387911504084,385.53965191409924 L271.7790899943082,382.4107037307021 L273.1467680403936,381.3533018868506 L277.4139740586074,379.6614589366881 L278.0479300873566,378.1378390071384 L279.0481156944659,372.68100464326227 L280.21499890276124,370.228152790328 L283.68281415165575,365.9136328426128 L289.71676217030745,357.877378829341 L293.38537225699275,350.9818371082246 L296.58546105549993,345.947963481889 L299.5531835008389,342.4377097851034 L304.4316140567308,338.6086334111562 L306.6694030665781,336.23588775851357 L307.2440046464202,334.78115916121476 L310.7635971805316,328.98467450810153 L312.72987115814556,326.46613557092786 L313.4522274299478,332.12483755953934 L314.6115334745524,338.74321182764623 L315.8150396406839,342.47776288524915 L317.1978720141509,345.64516204478616 L318.491041283949,347.00376320173484 L320.31966345452395,347.9089632650319 L324.2888343675887,347.39948783117603 L326.2955198848835,345.64516204478616 L329.72923789717294,341.9682874513933 L332.8952294590723,339.76216269535774 L334.9915780800359,339.9319878399763 L338.157569641936,341.4027376773335 L340.61004495634006,343.60886243336915 L341.50162455055727,346.4382134276747 L341.0558347534486,352.4910379217218 L341.2338981001685,353.73588827425607 L340.2084552807584,357.9222383015045 L339.36107580806816,358.48778807556465 L338.06790653826926,361.1473139252518 L336.4186105750284,366.46476350062 L333.6529458280958,367.59746517274596 L329.8176381402247,367.70961385315445 L326.47358323160404,369.2941144949259 L325.71586686258195,371.44416491075714 L326.1616566596898,372.9149147481142 L332.09205010790896,377.49859152881004 L333.5190826029008,381.91084104088117 L336.32894747136106,386.0971910681298 L339.9407288303697,388.1911671437569 L343.64217329304574,395.8284922795754 L344.84694231979284,398.939817098908 L344.17762619382245,402.2786435270697 L339.8434885630123,409.3568273848515 L333.0859214119433,418.073984100603 L332.01754133162177,420.25447487254525 L330.8721267537818,424.274204003187 L330.64354898245966,427.5185051150042 L329.80374667346024,433.3790747283509 L328.58129759810316,435.0244560823438 L323.19898565681115,440.9811531360409 L321.90076494455195,443.063914343627 z"/>
	<path id="sakarya-karasu" title="Karasu" class="district" d="M282.94025211001366,24.911150944535407 L290.82302806908007,26.92982719188828 L300.9183358256953,29.18081142008733 L304.3924653776649,30.260643000020565 L316.6358990404585,32.5004123601787 L343.0663088525888,36.643505039269655 L360.6503800563789,38.88007015141625 L374.9030249576978,39.92625712722686 L377.7179412686176,41.563627861190824 L383.4677456488857,44.37855973944411 L386.17026736506716,45.37508087107386 L390.7696057250356,47.704569175558895 L391.54879072451376,48.73313278730529 L399.9278709052909,52.1873121438868 L419.8090855678354,61.779228566824735 L425.95921676307086,65.5938858247194 L435.9939072101619,67.1159036302632 L437.97407265454177,67.83365518487764 L448.712176464211,68.84619755656571 L456.7843815155334,70.12949888524004 L457.5332578602506,72.70731641062959 L459.46417174064476,72.80985234700306 L460.95182154515925,75.2578978279199 L461.59588045882816,80.10432294557252 L463.28432510113504,83.01217801616434 L466.70288878604146,87.04312201484663 L468.0301552924475,89.69623936851043 L469.1149525607648,93.11356987295787 L468.7537744248639,96.6334363137787 L465.9388581139448,102.85768807645005 L464.731563365968,104.95006202807149 L463.4851199389258,106.02188298797554 L459.8657614162264,107.09210182387376 L453.9947224169143,108.46992846889228 L448.858668295555,109.0098442588589 L445.95535174158266,112.44479812737056 L445.6307965635173,116.32674459351018 L446.51858757588917,118.5761266977035 L446.1864552341338,120.52270736479376 L445.1988982331747,122.60867282039165 L443.8501630963141,124.0393695576028 L442.2665358850562,124.87728041265493 L440.72205735286514,127.44067882199192 L439.3859508221542,131.83530496999904 L439.3657450523145,133.10739143063245 L440.3305705622033,135.3215268066973 L440.5654626365999,137.5356621827622 L440.1499814942529,140.9914436633496 L439.2142017785094,145.12652572241137 L439.4743510652074,150.1187441245951 L435.79311237237107,154.81937595771691 L433.8925071467394,154.896277909997 L432.4452688819057,157.38277436705388 L432.17375384967227,159.52641628686195 L431.3895174077338,161.20864649298926 L431.48044337201685,162.81557687084245 L429.5495294916235,163.54294116949185 L429.7010727654278,165.80033389371414 L431.26954564930475,167.4841662238474 L431.8416215079169,169.2833514824009 L430.5749723110344,171.33887658188792 L425.4262895835239,169.40671503085022 L412.34305361173,163.9354615509215 L410.2151334753912,163.2417418563948 L403.5156579126145,162.58487101400215 L393.10716072347157,161.38167588561953 L388.3625933927726,160.10478305296851 L382.0659703661931,159.19317449364803 L372.11715444092414,159.85004533604067 L367.2286210001116,159.15632564151386 L365.2737127680324,158.61000135552393 L359.7247032255552,155.17985385902995 L357.8556695152987,154.96196499423618 L350.954136254117,155.17985385902995 L347.3322520101878,155.58198698449456 L343.193857774708,156.79639698091805 L343.8139223366912,154.5390042566956 L341.65190496374595,152.58921934159372 L339.357287226222,152.37133047680004 L335.0319896197174,152.97212697898837 L334.0747412735186,151.79296371069339 L330.66501761291505,144.46004213598377 L328.59140048302373,141.289438728435 L327.84631272015054,139.0624863603235 L328.7505209205181,135.69001532803955 L330.930218342074,133.05772558645168 L332.3660908613722,129.14533876420109 L334.2805875537698,121.45354141218417 L334.8665548791472,115.44878063831236 L333.1642187700752,105.26247620920942 L330.6119774670838,102.09027067765486 L330.5058971754206,100.6067038482511 L330.98452134852005,96.01822069553785 L331.8344265424408,93.45482228620085 L331.34822520565143,91.38808231867289 L328.5686689919528,85.44740650503437 L325.4153060362025,82.39375814991173 L322.06619968512155,81.46292410252119 L315.76452521608167,80.7051194477609 L313.9396916273522,80.03222736531005 L311.6185538169119,77.9702937697996 L304.2876479466166,75.69848192952458 L297.35580603067234,74.81410947830337 L293.8728364543978,75.10890029537711 L286.448478898589,77.76041552503511 L285.9622775617995,67.37865196722016 L285.597310844054,64.04142766306471 L285.07196082819786,62.75652421038451 L277.82566661910965,57.36537693074753 L276.6928806474207,56.13174144625418 L276.32791392967454,54.43829637208596 L276.6524691077399,46.37480625071524 L276.97576142518886,43.910739529740056 L278.95971545141344,38.827200059223536 L281.1053156363629,34.77062207644784 L282.94025211001366,24.911150944535407 z"/>
	<path id="sakarya-kaynarca" title="Kaynarca" class="district" d="M227.97550670109857,6.688592502161001 L229.17775000661442,6.951340839118089 L231.82723157696475,3.4138510342329544 L252.19843615814256,11.834614808905085 L250.08061890672434,13.705895647721007 L255.14342711241136,15.39613647387758 L261.65852502539235,18.16300463195578 L272.3069657313934,22.18914225862068 L282.94025211001366,24.911150944535407 L281.1053156363629,34.77062207644784 L278.95971545141344,38.827200059223536 L276.97576142518886,43.910739529740056 L276.6524691077399,46.37480625071524 L276.32791392967454,54.43829637208596 L276.6928806474207,56.13174144625418 L277.82566661910965,57.36537693074753 L285.07196082819786,62.75652421038451 L285.597310844054,64.04142766306471 L285.9622775617995,67.37865196722016 L286.448478898589,77.76041552503511 L286.2451583395683,86.42950852061169 L285.47607622501,88.99771330196619 L283.41256198003794,91.92479386062789 L281.1457271760437,94.23505667704283 L279.0001269910943,95.72503200246987 L272.36126873784025,98.85718443387863 L268.59668124441106,100.19175373073969 L262.5665218076053,100.70603553661294 L260.98794603880776,101.47665718341977 L259.69225104777775,103.58184812708778 L259.53060488905356,106.35512478118925 L259.9347202858664,110.56550666852536 L259.2060497109882,111.69500409263935 L258.6402881554519,116.82981153134266 L259.00399201258244,118.3197868567697 L258.35614451706886,119.39801631269704 L258.8019343141767,121.2981353836181 L254.4703224045956,126.43294282232128 L253.5800056709948,129.92557315504294 L253.08622717051367,133.14904665478423 L252.5684543183491,141.48009148512946 L251.63646318445092,144.30463610741765 L250.2207964349925,145.9980811815859 L245.92959606509362,149.54197948249433 L241.55757261583304,153.54728949708337 L237.2676351065483,155.65248044075136 L233.03200060371043,155.21189633914656 L227.0270983792047,155.19106872707076 L222.53384031089945,157.244991702552 L220.5094747449932,157.244991702552 L217.15026550899174,156.67944192849203 L214.23558320948544,156.73070989667877 L209.7019136014978,156.3718341193716 L205.28947861255494,157.14245576617853 L198.9347639976839,158.57956099941308 L193.7128353545018,158.83590084034677 L189.26125168649224,159.96700038846672 L183.41294417825114,160.63188185088862 L183.46472146346824,157.18411099033023 L182.50999883849994,154.35796424403617 L180.59929072794694,149.96494022003492 L175.5061738674982,144.2597766352542 L173.3163735610218,140.27208998472938 L170.7704465611056,138.80774864339574 L168.46193735681643,139.2114838928662 L165.9943077150314,140.42268964127797 L162.9697565420151,140.37302379709698 L161.378552167068,138.706814831028 L160.06517712742863,135.17252927415464 L159.3087236190199,131.48764406073266 L159.98561690868115,129.720501282296 L159.1104545024603,125.93308013250058 L158.15446901687577,123.25753304275507 L156.085903329444,120.93605535829917 L156.32458398568593,120.27918451590662 L154.85208850855147,117.24956802087148 L155.12991784385935,115.17962380533187 L156.36373266475118,113.86748424455254 L163.48752939418188,109.77726165765411 L165.0787337691291,108.56605590924248 L168.9001499902343,104.67930307108524 L170.29182238800624,102.15435563788827 L171.4460769901505,98.46947042446634 L171.80472940482218,96.09672477182383 L171.32736809233765,94.22864818101942 L169.61619195896068,91.80463456019018 L167.5072147318481,81.70804907541405 L165.2378542066242,78.37563114327598 L164.32354312133668,76.0028854906335 L163.88533048791894,73.17513662033352 L162.85104764420234,71.40799384189684 L164.0444509254125,69.33804962635723 L172.20253049855847,66.0568996624059 L178.21122130490951,64.28975688396909 L180.240638313276,64.28975688396909 L182.46958729881834,63.48228638502799 L184.18076343219462,62.017945043694326 L187.48440680113436,56.81745052075184 L194.0108704596501,53.0316314949622 L196.99501009298484,51.0626210917902 L201.21296454721283,46.518997411240406 L202.84458046184153,46.014328349402305 L204.5166079161519,44.801520476984685 L204.99396922863647,43.23784744728907 L206.70514536201264,34.20026593037032 L205.71001119736283,28.192300908486732 L208.33676127664145,25.113018569270718 L209.37104412035805,22.740272916628236 L213.23160902052916,18.39851686081363 L218.60381807690132,16.17637086471957 L222.0665818833355,16.277304677087187 L224.29426800826224,15.620433834694616 L226.8818694084756,14.157694617366719 L227.12055006471755,12.642085307846207 L225.52808282915476,9.663736780997775 L227.0801385250366,8.25066340785074 L227.97550670109857,6.688592502161001 z"/>
	<path id="sakarya-kocaali" title="Kocaali" class="district" d="M456.7843815155334,70.12949888524004 L466.58165416699813,72.03602645218437 L477.62915882735183,72.5166636539351 L486.789949728837,73.75190126243432 L498.38932447796174,73.78714799056272 L507.6385156225001,74.63787583766155 L517.074610138064,77.01542786232143 L525.1278722801616,76.62290748089187 L537.8878159345059,75.78019025382221 L542.8925325519012,76.80234536954534 L542.5995488892125,77.41435673977468 L538.5988064607727,81.56225579088301 L537.7552155699263,83.01858651218762 L541.388465559391,82.27680309748568 L543.0958531109226,82.66131285888622 L547.5297567303209,84.60468927796485 L549.5339165263865,85.8030780343299 L551.5544935104474,88.96887506986106 L552.2402268244134,92.25322928182416 L551.8247456820651,93.78325770739724 L550.7273198075967,94.53785811414562 L552.1770837936616,96.37068797682173 L555.4845157444454,97.38963884453321 L557.6932589601466,97.25345830403721 L561.6750584793624,94.321571373358 L563.6425953175913,93.46443503023589 L565.0431077396682,93.79607469944382 L566.550963314024,95.78591271469176 L566.2541910694897,97.81259958207379 L563.3597145398231,103.63632034328616 L561.6308583578362,105.00293212026409 L558.544427014683,105.22082098505763 L552.4940618080356,108.13348242766685 L552.0798435263035,109.55937279286057 L552.3286270674652,111.76709967290195 L549.843317377071,115.90698810398125 L547.7608602228726,117.94809408741585 L540.5979148143773,123.26073729076681 L535.3810376136548,124.79557208835732 L535.3835633348854,126.01318633279243 L537.0050763645942,129.3760446210413 L538.1833253184243,130.2668255682859 L540.585286208227,130.26362132027424 L541.4314028203023,130.9525346427837 L542.1512333708743,134.87934058108667 L541.540008833196,136.72178318779768 L537.3940374340256,140.03016925984812 L534.6346869901674,140.73029745039838 L531.0229056311588,142.63362076933106 L529.2485864670307,145.87471763313658 L525.1594437955376,150.04184217231503 L521.8848462207438,154.04875431090983 L520.6106198601713,155.04046907052216 L515.1639020275111,158.38570399470703 L511.9473960410096,162.7595025306382 L507.6018926646632,166.94905680589832 L504.3866495387765,169.15518156193397 L501.5477388761717,170.51538484288838 L499.3453099635449,171.06651550089592 L496.8536859700748,174.88918337881972 L493.95668371917765,177.82908092952812 L488.5390116806644,181.90808864838553 L482.91801908313045,183.3419896336084 L476.13898330160606,184.6653440624287 L471.7644341311143,185.17962586830194 L469.5910510126336,185.84130308271202 L468.1715956813312,186.9083176705986 L465.8832922468824,191.75954916026876 L461.7701552237034,191.6586153479012 L456.96875916532923,191.1475377900396 L451.7645105707571,191.1475377900396 L450.1253174924383,190.85595122097746 L448.17040926035907,189.47011395592966 L443.5117164514835,185.16520675224936 L439.1990474511286,179.98553984138286 L436.63922898444713,176.0090680588987 L433.85083274644296,172.76316482307578 L430.5749723110344,171.33887658188792 L431.8416215079169,169.2833514824009 L431.26954564930475,167.4841662238474 L429.7010727654278,165.80033389371414 L429.5495294916235,163.54294116949185 L431.48044337201685,162.81557687084245 L431.3895174077338,161.20864649298926 L432.17375384967227,159.52641628686195 L432.4452688819057,157.38277436705388 L433.8925071467394,154.896277909997 L435.79311237237107,154.81937595771691 L439.4743510652074,150.1187441245951 L439.2142017785094,145.12652572241137 L440.1499814942529,140.9914436633496 L440.5654626365999,137.5356621827622 L440.3305705622033,135.3215268066973 L439.3657450523145,133.10739143063245 L439.3859508221542,131.83530496999904 L440.72205735286514,127.44067882199192 L442.2665358850562,124.87728041265493 L443.8501630963141,124.0393695576028 L445.1988982331747,122.60867282039165 L446.1864552341338,120.52270736479376 L446.51858757588917,118.5761266977035 L445.6307965635173,116.32674459351018 L445.95535174158266,112.44479812737056 L448.858668295555,109.0098442588589 L453.9947224169143,108.46992846889228 L459.8657614162264,107.09210182387376 L463.4851199389258,106.02188298797554 L464.731563365968,104.95006202807149 L465.9388581139448,102.85768807645005 L468.7537744248639,96.6334363137787 L469.1149525607648,93.11356987295787 L468.0301552924475,89.69623936851043 L466.70288878604146,87.04312201484663 L463.28432510113504,83.01217801616434 L461.59588045882816,80.10432294557252 L460.95182154515925,75.2578978279199 L459.46417174064476,72.80985234700306 L457.5332578602506,72.70731641062959 L456.7843815155334,70.12949888524004 z"/>
	<path id="sakarya-pamukova" title="Pamukova" class="district" d="M123.28183599321568,384.31562917364073 L126.85068009131305,390.2050370190923 L130.11517478118685,394.86080938005057 L132.5878558654307,397.98815543944175 L135.79299610639814,402.65193842042925 L136.96871933899766,405.0391031891244 L140.37970586021547,410.9333174065938 L143.0557075034814,416.3036370741547 L144.702477745491,420.29613009669714 L146.87838658520138,422.9812899304774 L147.87730933169593,423.46673350424555 L155.84595981258647,424.95831095367873 L159.08014584769856,426.972180829014 L163.69716425627777,431.5991149578674 L165.99051913318678,434.2842747916478 L172.22399912901375,440.14003803297686 L173.1054758383111,442.04336135190994 L174.48830821177745,448.8700117407752 L171.72643204668884,454.46462876915336 L162.22340591852839,461.24802180986154 L151.06224380282148,470.5579644077721 L136.33223758901877,476.4073191530781 L121.50625396847272,480.444671647784 L104.90721404441206,486.3997665774747 L96.65694564636897,486.8259315630269 L84.85046175637896,484.15839509331073 L78.4553356018264,484.12635261319406 L69.95123222015985,486.75704023077594 L66.97466975051516,493.40104848297636 L63.82383251599529,494.8541749562695 L60.61364083256825,497.0811273243808 L59.059059415456574,498.7361214224091 L57.05363675877665,502.616465764543 L51.8872739826556,506.6890649873772 L50.13189772775302,507.7080158550885 L46.72091120653519,507.5157609743883 L42.156932943787304,505.54354632320485 L40.05048143790456,502.74463568500994 L38.79646084717235,499.75347016611477 L37.140850580856366,494.02747896925825 L35.836315565522,490.46275305627404 L34.031687746632905,486.96371422752884 L33.22850839546889,484.48202414248965 L31.422617715964947,473.219092381465 L30.97177647639603,464.56602062594703 L31.773692966945177,460.3027686464182 L30.570186800813687,443.24976072830395 L30.82149606320592,437.3955996109805 L31.673926978357215,433.95904361846306 L32.52635789350775,428.29553525783416 L34.98388465037146,424.66832650862233 L37.315125345732284,422.37248280826003 L39.59837733772079,421.4240253968051 L47.272781295306984,419.3236408251548 L58.70798416447634,412.89752143774797 L63.47275726501435,410.9253067865645 L66.6324345238399,408.57018449798596 L68.43832520334391,406.47140205034134 L70.49552514524085,405.0070607090078 L75.05950340798873,403.034846057824 L77.76833942724465,402.2081500708129 L81.42937235024057,399.85302778223456 L86.89629595273972,394.95373257238913 L93.6172401459725,386.61788137002634 L96.07350404222134,381.71377978816344 L100.22831546569677,383.9070875521527 L108.46721811820437,386.2894459488301 L111.9830220704712,386.52816242569963 L114.53021193100224,385.20961436889706 L116.7629494983893,383.5225777907521 L123.28183599321568,384.31562917364073 z"/>
	<path id="sakarya-sogutlu" title="Söğütlü" class="district" d="M253.08622717051367,133.14904665478423 L256.09814973738037,133.91005555755615 L260.5850935026105,135.5794687716369 L263.45683854120693,136.07292296543417 L265.13139171674703,137.742336179515 L266.4182466834708,141.42401714492522 L266.8362535470489,144.95349632978116 L266.7175446492354,148.36922471022262 L265.2816721299372,151.44370067742128 L265.0114199583187,154.02312032681658 L266.3576293739495,159.52641628686195 L267.16586016757304,161.95523627970869 L270.36721182669515,166.66067448484804 L275.36182555917003,170.64675901136695 L285.622568056354,176.71880899348398 L289.18257213014635,179.03227605791068 L297.6487896933618,182.90460978001542 L299.02404490313734,183.13211138884392 L302.3441054600736,182.86615880387535 L306.144053050722,181.04454380924017 L311.49858205848284,179.41197944729367 L316.40479554790596,178.38822220756472 L324.7800871468385,177.97006784204166 L327.59247773652777,177.47661364824415 L329.77596373992895,176.3006546279608 L331.3318080176556,174.55433946160005 L333.12633295162556,169.58294867149203 L334.3222619540663,167.117279826511 L336.4173477144135,164.0428038593125 L342.1507349066865,160.1400297810969 L343.0536802464392,162.60249437806635 L346.29923202708676,167.8895035973238 L347.57219552704527,170.58267405113355 L351.40624035430073,180.03520568556374 L352.0111505889037,181.9865927246715 L351.58430370102064,183.21542183714743 L346.70587314512875,184.60286122620104 L344.90377104746943,185.87014131481712 L344.1902547999729,187.3985676163842 L344.84062801671763,190.38332463925602 L346.4659296282712,193.13256943326982 L346.9773881773621,195.7616549268462 L346.8245820429429,200.11302372669576 L346.0087740856279,202.91353648889645 L344.4794498808169,207.2520882966993 L340.2286610505989,213.19757048235536 L337.58801950455427,214.32065941044607 L335.67604853338645,213.37700837100883 L329.7166092910218,211.95592437783273 L327.5533290574618,212.04404119815368 L326.41549164331195,212.7297502726512 L322.0371538909761,217.83892372726098 L319.0997401003967,221.60231301696894 L314.2175209626608,225.52591470726045 L312.4911905019036,226.123506961437 L311.2952614994629,224.93953732112467 L312.1994696998298,221.67280647322565 L311.5932966046119,220.35586054042878 L309.7507829672711,220.26934584411376 L303.64485189356185,223.97025229759402 L299.43826318487004,224.6383380080275 L296.1901856829927,222.06532685465544 L293.7478132535092,220.5801579012458 L287.8287855508262,220.53690055308834 L285.5202763465362,221.38602627618113 L282.27598742650366,223.50723845990746 L278.16158754270975,224.5678445517707 L274.11538213212793,227.45326988628065 L270.1689427101341,229.32134647708494 L266.4220352653162,229.10826398430882 L264.6502418224172,226.7323140836547 L263.27877519448634,222.1918946511165 L263.4833586141226,215.72091579154642 L263.35833541323325,214.03387921340146 L262.104314822501,209.57997447717847 L262.4048756488804,204.8056449397882 L258.4660133905767,198.18566854767545 L253.90077226721468,195.60785102228598 L251.46723986203534,194.8452399955083 L249.72701793451364,193.54751955078132 L244.57202090392872,190.6845239523532 L242.57796399278283,189.32271854739284 L239.5092126982403,186.44850808092366 L237.83718524392992,186.9419622747211 L236.00856307335513,186.49817392510465 L232.70239398318546,187.28802105998153 L231.10866388700788,187.2383552158007 L227.9578266524879,183.14332625688488 L226.79094344419258,180.57672359953614 L226.44113105382723,178.50517725999077 L226.9071266207756,175.74151334992422 L228.38593640098594,174.1618190801703 L232.00276920245415,172.09027274062478 L233.75309401489713,169.86972886853673 L235.07530907884143,167.30312621118796 L234.76464536754276,164.24306936004209 L233.94757454961274,160.69116043910435 L233.03200060371043,155.21189633914656 L237.2676351065483,155.65248044075136 L241.55757261583304,153.54728949708337 L245.92959606509362,149.54197948249433 L250.2207964349925,145.9980811815859 L251.63646318445092,144.30463610741765 L252.5684543183491,141.48009148512946 L253.08622717051367,133.14904665478423 z"/>
	<path id="sakarya-sapanca" title="Sapanca" class="district" d="M197.86638391736236,309.77200343012066 L199.72152616085216,314.28358463055395 L203.85108037202698,322.43519157224557 L204.40800190325902,324.17189399457135 L205.35893594638262,330.17665476844314 L206.2404126556793,333.88557184195275 L207.81898842447686,336.9167904609938 L213.4879697253824,343.0096680551864 L214.2191660214897,347.04862267389825 L214.22295460333433,353.4362910851647 L211.3587867284287,353.46993568928747 L207.52095331932776,353.0613940677993 L203.84476606895177,354.4568440768823 L201.50973679174692,357.2477440950477 L194.04875627810122,362.96892891988665 L192.8679816030414,365.2151067760682 L190.1578827231698,372.0930251331208 L185.80985362559426,379.5829548604023 L184.76420503634225,382.0678491934535 L178.16196974092298,389.04830348687915 L172.82133219992815,390.5799340364578 L167.883547195129,390.3748621637109 L166.05871360639807,389.83014000172676 L161.87233066754828,386.9367040471879 L159.0548886353979,385.6421878504724 L154.14362370351523,384.2467378413898 L150.78820304935903,384.89399593974736 L140.67142666229,384.6889240670003 L135.11610281673623,383.9070875521527 L129.6681221234633,383.94073215627503 L123.28183599321568,384.31562917364073 L116.7629494983893,383.5225777907521 L114.53021193100224,385.20961436889706 L111.9830220704712,386.52816242569963 L108.46721811820437,386.2894459488301 L100.22831546569677,383.9070875521527 L96.07350404222134,381.71377978816344 L97.27827306896769,378.53676788459137 L99.08416374847242,371.6652580235624 L99.28495858626326,367.52857384049497 L99.98710908822368,363.96545005151654 L103.69865643582031,359.00206988143754 L105.60431310391365,356.8392024735597 L111.82390163297615,353.7198670341979 L115.53544898057277,349.4566150546691 L116.43208001724953,347.6590319201215 L116.92080707526884,341.3130187330067 L116.6960178857929,334.43990674797186 L116.73264084362833,329.66878145859334 L118.08769028356409,325.802856232512 L118.83909234951184,321.8408035660805 L119.87842663568796,318.1991757008162 L120.61341151364059,317.0953122607954 L122.41930219314452,316.3327012340176 L128.30423265922119,315.823225800162 L134.38995796309,316.16287608939916 L139.8076300016033,316.24778866170846 L146.02595567005085,315.6534006555433 L154.6538193919898,314.2964016226006 L165.49421491147746,313.7596900806456 L173.60683150248076,314.69533050005373 L180.52099336981436,314.59439668768596 L188.34315201935948,313.9936001854976 L194.34931710448149,312.1896085549266 L197.86638391736236,309.77200343012066 z"/>
	<path id="sakarya-serdivan" title="Serdivan" class="district" d="M149.51902813124602,265.2249454478613 L148.00738397504497,259.21698042597774 L146.73315761447165,246.8982489451076 L146.61444871665879,241.5968206097976 L147.13095870820857,233.1664440910905 L148.92169506033238,228.9256218476436 L151.07108382712798,227.71441609923176 L159.4286953774491,226.65381000736866 L161.21943172957288,225.5932039155055 L162.65151566702642,223.5232596999659 L163.45343215757552,225.65088037971552 L164.77312150029,233.55896447252016 L164.66325262678217,238.11860939312834 L165.36035168628234,244.9580767740406 L163.70979286242877,250.44695361803343 L163.70979286242877,253.47176374105106 L164.8476302765773,255.0530601348109 L166.6434180711614,255.51767609650318 L170.16427346588702,254.2616108759281 L174.74845749847609,253.19139204002988 L183.76907087169243,248.91211882044294 L188.17014011509912,247.98128477305238 L194.47812888721404,247.9348231768833 L196.49491728943087,248.7727340319353 L198.43845977597456,247.9348231768833 L202.32554474906058,247.3308224266832 L207.5689420226987,245.0974615625483 L208.00968037734708,241.74742026634604 L209.25612380438992,239.6069825945496 L211.86014239259757,238.91005865201123 L213.03333990396814,237.00192896106094 L215.3064890110367,235.97817172133202 L216.66406417220225,237.88630141228225 L218.1302453462615,240.8165862189556 L225.7945464189279,254.7742905577955 L232.9827490397239,272.9183449238839 L234.5954220451278,274.4067181253052 L236.9797028863192,275.802168134388 L238.15290039768965,277.8032210176768 L237.7500478614924,280.919352209027 L235.9163742484572,282.5022507267927 L234.669930821415,284.6410862745832 L233.6419622807744,287.48005001292387 L232.32227293805917,289.61888556071443 L232.72638833487133,294.9235181440361 L232.1757811067145,296.2260449607807 L229.5098823483691,297.96434950711233 L229.25983594659175,299.8997153061617 L227.88458073681554,301.00998724220585 L226.86040077801957,302.8171831207884 L223.91035838129054,305.10181195310986 L217.70971276145428,305.73465093541506 L211.43455836533013,307.4489236216591 L209.4089299388098,306.4652194820761 L205.09499807783922,306.3755005377493 L202.01361817714704,307.47776185376415 L197.86638391736236,309.77200343012066 L194.34931710448149,312.1896085549266 L188.34315201935948,313.9936001854976 L180.52099336981436,314.59439668768596 L173.60683150248076,314.69533050005373 L165.49421491147746,313.7596900806456 L165.5573579422292,307.53223406996267 L165.3969746441193,300.6158647367701 L164.60137245664455,294.760101495441 L164.80090443382124,287.1355933516693 L164.60137245664455,283.6525757629826 L162.77148742545552,276.33247118031977 L160.7420704170891,271.9394471563184 L158.0357601190629,272.04038096868595 L153.0613521564277,270.98137700082873 L151.19105558555628,269.214234222392 L149.51902813124602,265.2249454478613 z"/>
	<path id="sakarya-tarakli" title="Taraklı" class="district" d="M324.7472527708477,444.6788553415093 L327.4750316993292,446.59980202450606 L329.7267121759417,448.63289738791167 L336.78862873523485,453.3799908172028 L342.62935907978596,455.60694318531404 L349.8832304525643,459.67473603613075 L354.19589945291915,462.6290527028917 L357.03607297613974,465.46801644123235 L354.4749916488419,468.1451656549837 L350.3959518622693,472.8922590842747 L346.20325462034356,476.7838182944495 L344.68403330045305,481.2809803788301 L344.2066719879686,485.0635951566078 L343.50325862539256,488.0627712955322 L343.4982071829322,490.54926775258895 L342.1469463248419,496.3553651497373 L341.5092017142467,502.82794613331333 L339.3345557351518,507.01589828456747 L334.2325988503982,515.0585607938626 L333.7817576108292,517.0580115531452 L333.6314771976398,521.2459637043994 L333.7817576108292,530.4790043500304 L334.0065468003059,535.8092709174455 L332.3938737949027,538.8549086525388 L329.7683865762382,542.7096190105794 L329.2430365603835,546.9456348820088 L329.99317576571553,551.2761760697824 L330.74331497104765,553.6553302184484 L333.3688021897121,559.2723769829083 L335.62048266632536,561.5570058152298 L337.4213219033691,562.6993202313904 L337.9454090586096,564.6971688666677 L337.72061986913303,570.7884443368546 L337.0828752585392,580.5453795323936 L336.2582272769185,582.9245336810595 L331.9809183737855,588.4935167253441 L329.69261493933607,593.3960161832013 L329.279659518219,597.6304299306246 L325.78532419640817,597.8274911833423 L324.6424353397987,598.2344306808245 L320.52677259539064,598.2921071450348 L316.6396876223032,598.8720760351473 L314.6279506625481,598.8720760351473 L310.2837101468173,597.5951832024962 L304.0653844783697,594.8106916803538 L301.7783439045358,593.1284614742265 L299.628955137741,590.5762779329305 L295.10286269344493,586.8641566114093 L293.227514680114,586.4572171139268 L289.06638895356264,583.7304020559948 L287.4663445543097,581.875142457237 L287.05465199380757,580.2505887153197 L287.23776678298776,573.52166789081 L286.8715372046267,564.2966378652086 L284.95072620915386,559.8299161369389 L282.2077929532916,555.7701339061516 L280.2415189756768,553.6232877383318 L279.32720789038945,549.0412130816417 L278.8687894871304,548.2289362106831 L274.0219304466151,544.1675518558898 L270.1815713162837,541.6153683145935 L268.62698989917266,537.43863103138 L269.11066551473164,534.3737678082168 L268.38073207924003,530.9740606678336 L264.251177868066,529.7260060672875 L261.3428098716334,529.5673957907097 L259.6960396296238,530.1954284009976 L256.1852871198173,532.4448105051908 L248.8594326919815,535.825292157504 L241.37319496603715,538.9830785730057 L236.950657092173,540.2455522896043 L237.21712068194688,533.6143610294507 L237.0744174324475,528.892901584253 L236.58695323504244,521.6641180699226 L236.58695323504244,517.7052696515029 L237.10220036597875,514.4000878274642 L237.6464932910597,513.6374768006863 L241.36814352357618,511.27594601608456 L246.75171832548386,506.1908044215623 L247.71275525352803,502.52514469621036 L249.31153679216607,502.7734739171149 L254.8213976555773,500.3590730403206 L258.82845438709165,503.9173904572814 L263.5363987599545,501.88429509387635 L265.74135339381036,498.7072831903042 L267.1431286765029,497.81650224305963 L271.2512142572209,497.68993444659844 L273.15434520408377,496.29128018950405 L275.3580369773254,492.987700489471 L277.2611679241875,490.9546051260655 L278.76397205608293,487.26811778863777 L281.5687854820814,483.32849485828785 L285.1755153986312,476.9744710511439 L285.1755153986312,471.5096260672385 L284.67415973446015,468.8404874735166 L283.1713556025655,465.53530564947744 L282.57023394980723,462.6130314628334 L284.7751885836638,461.85042043605563 L291.08570307700853,454.98692119505563 L298.09836807231443,453.4633012655062 L303.00710728296735,450.7941626717841 L306.6138371995164,447.996854157595 L313.82603417199834,447.3624130512841 L319.53668987320106,447.996854157595 L324.7472527708477,444.6788553415093 z"/>
	
</g></g></svg>