<svg xmlns="http://www.w3.org/2000/svg" version="1.2" baseProfile="tiny" width="600" height="600" stroke-linecap="round" stroke-linejoin="round"><rect id="backgroundrect" width="100%" height="100%" x="0" y="0" fill="none" stroke="none" class="" style=""/>































































































































































































































































































































































































































































































































































































































<g class="currentLayer" style=""><title>Layer 1</title><g class="city city-66" id="yozgat" title="Yozgat">
	<path id="yozgat-sefaatli" title="Şefaatli" class="district" d="M182.81615374408497,290.40547120574706 L183.51064096353363,290.15214030512266 L188.37273505008878,287.09139156886954 L192.6907230080192,283.9906852773131 L195.45773507920927,282.44992194480767 L197.09005346507846,282.06233365836306 L201.2720148908537,281.8537552196785 L203.6945175539701,281.9728287344831 L204.89346497809785,282.24134350612303 L207.3925252874528,283.73176031894593 L209.12669268483583,284.3878633770304 L210.6817698740549,284.7163144816258 L213.51235213363884,284.954461511235 L215.68057404317727,284.35829478610583 L219.4031895915213,284.5668732247904 L220.16876605390672,284.8353879964304 L222.31032949734475,286.3258048092533 L224.01920552945296,288.41318749831146 L228.22645832050307,292.64629090717096 L230.41997159531786,294.07757053814464 L234.44881772861504,296.8801934671367 L235.6477651527428,297.92388481166574 L236.84602902645707,299.65244865409784 L241.0279904522323,303.82641488110806 L243.65487468878848,305.495841541691 L245.51618246296124,307.6727291546291 L247.22505849506945,310.564857007501 L248.49988001502226,313.4266171183423 L249.92850037786468,315.5139998074004 L255.41057468886805,321.98312801104737 L261.2761207814757,328.5721288806051 L263.7498897255563,330.8377222663171 L266.9119939353687,332.6270215928107 L271.60388396912435,334.38595317727356 L274.66755691948856,336.61798221653055 L276.4235979300833,337.22773451046294 L279.27058539957505,337.2557047991755 L282.39099303420477,336.94962992555014 L286.10472242718185,336.9448350189138 L284.2529843587896,340.14064029209266 L283.3985463427355,341.30500345363856 L279.17557189218957,344.2179092352684 L275.2137136993499,347.0469041507607 L272.4378154727939,348.9329007610889 L270.70569872664845,350.7917262338106 L269.8991092394939,352.0120299727814 L264.98779952321513,358.69692897506764 L262.2488130189515,361.9758459632781 L262.02255783230106,362.2475573393423 L257.9889268461122,365.3818279773538 L255.07085013368464,367.0736308689067 L252.08168417832036,367.60027144780776 L250.1123754389189,368.37704632290905 L247.1464501975923,369.958566361824 L245.3671684729614,371.73348096840823 L243.16066774030338,373.0368964224105 L237.53778204425407,376.9479419355233 L233.21979408632365,380.2764062923102 L228.45134640632892,383.5497292227781 L222.66850991367465,388.8361137894396 L220.81130344197965,390.108362350305 L218.83515919844933,391.27432381406294 L217.61023685863466,390.7716577683442 L214.122079101895,388.8129384073635 L211.78228603873202,387.31133347905563 L208.15673464901164,385.4597003662885 L206.52783401520614,384.89709798761436 L200.01086437915762,383.1797222606672 L196.72982239751042,382.5092344826734 L195.28479682475964,382.5092344826734 L193.5868575992575,382.2942628351402 L190.14518127059134,380.95328727915256 L188.6994721474275,379.2367107033115 L187.0473307995853,376.01773004805636 L186.68026422788793,374.8637558508895 L185.83129461513664,373.9790955764686 L184.63781559431263,373.28143666086834 L182.18318606179255,372.2081767254146 L178.05317446739352,369.6596838481534 L175.85009148679924,368.53288078859293 L173.18834617918725,366.62850370282507 L171.53620483134503,364.83121286527074 L169.01253670712828,361.5315179483025 L167.52102970630406,359.9220276206749 L166.78689656290982,359.35862609089475 L165.15799592910435,358.9566530845408 L162.2898183968144,359.5464266008214 L160.33896551855992,359.6742907777929 L159.47222359507467,356.29627905242955 L154.99565194136386,348.8034382819053 L152.5902380385684,346.4291603457675 L147.60168712563856,343.2013890283457 L142.35543770706562,340.1478326520473 L143.27344591151459,336.3582581070574 L144.02808556729292,334.59453161595815 L144.31449319027504,333.46852770750377 L144.96454963288886,329.1794837212191 L144.8346750544485,326.35048880572685 L145.06844929564033,324.92080747696536 L145.77113912004344,324.1608147750916 L148.24285741288443,322.21408268070206 L149.9079862185708,320.66213123271154 L151.78159790017472,319.17171441988864 L154.3312409400798,317.4687234128508 L155.0339307644829,316.86056942113055 L158.0518058371862,315.0049405528331 L160.41962446727518,313.17967942656617 L162.12576629773176,311.40796142440627 L162.80726605933674,309.37492101056097 L164.61730755254578,306.83042388882996 L166.50937509529615,306.4572203222947 L167.38158542208322,305.97533220533376 L168.52106396029384,304.98917974044184 L169.6003900621738,304.75422931525685 L173.00652176937163,304.2947174292659 L174.33055891904903,304.7622208263175 L175.75986283230398,306.3493349229751 L177.1775463885408,305.944964463303 L179.82972199037332,303.20227786726645 L180.87008571872073,300.64739178115656 L181.8851580817928,296.4494510209642 L182.74369740032412,291.6129885270209 L182.81615374408497,290.40547120574706 z"/>
	<path id="yozgat-akdagmadeni" title="Akdağmadeni" class="district" d="M576.3627848840644,333.75941871011366 L573.7728123698012,335.8979470699604 L572.2546469028756,336.880902930428 L571.1117506126027,338.5591202531777 L569.9551833140716,337.27008951908465 L567.8758229582019,335.83241667926256 L565.7971461527452,334.8182939256581 L564.2789806858206,333.8457270295693 L562.2358485018317,332.2817883149879 L557.6984408613781,329.38646385769164 L556.3607327034435,328.0550781149768 L555.6737645385363,327.0193782815086 L554.1555990716116,325.5825045927924 L553.1610332209247,324.86406774843437 L549.7261923963878,323.55345993447753 L545.7492960944649,322.8134460102554 L543.6159352559813,322.49698217225125 L542.15177027167,322.6448251268745 L540.1270939488286,323.257774025231 L536.4577953326864,322.8134460102554 L534.469347181725,321.79932325665106 L533.3660968153962,321.5244152761625 L532.2635299994795,321.6514803020279 L529.5156573398499,322.43305008376547 L526.9126973677426,322.7718901527397 L524.5626510483875,324.56758268808187 L523.3698555779761,324.6522927053254 L518.019022946239,323.55345993447753 L516.7353152709184,322.898156027499 L515.6327484550021,320.9330434576698 L514.8193234637191,320.04518657882454 L513.7523012692708,319.580080635091 L511.45693898294314,319.4114597517101 L510.0830026531281,319.5377256264693 L507.8047291271214,320.5526475311798 L506.5217050022152,320.5526475311798 L505.6535959779038,320.00283157020283 L504.8948550196477,318.81928878211124 L501.2248728530916,314.74042153672343 L500.2487628635515,314.04276262112325 L498.8385983618566,313.7047217032551 L497.19329251814224,313.57765667738977 L495.6928993619515,313.7262987831191 L491.6982307492956,314.4655135562349 L485.6057459196235,316.24122731392526 L481.90021913159944,317.4879030393965 L480.6705119388945,317.59339098539783 L479.6766296386205,318.12162986651106 L474.3073411457366,320.27773955069136 L471.69549501826225,322.0438634951087 L469.75216119454865,322.9524983027119 L467.5504453147804,323.7604400709498 L462.6924525307035,325.25005773266673 L461.85031842208053,325.3507507720318 L458.6888977626797,325.2620449992579 L456.36619345983854,325.1989120618782 L453.01953063855836,324.87126010838904 L450.6230028911294,324.8209135887065 L449.6298041412679,324.26550356998695 L449.1116729283331,323.60860136079634 L448.50673081296713,320.5798186687862 L449.7159314932865,316.64240116917307 L450.5361919886983,315.25347654682116 L452.7816550948883,313.20924801749095 L454.422859636125,312.32538689417606 L456.04219056415144,311.6692838360916 L458.09352535309375,310.0541994507215 L458.3956546355707,307.9835989348908 L458.2657800571303,303.9454883959128 L458.0067144506626,302.6580559640319 L457.53164691373655,301.7997676761114 L454.03391945121746,299.5781276012332 L452.8896560601185,298.41696104411176 L451.31407235851384,297.68493863095046 L448.05353688925123,298.13965561030494 L445.82994739627236,298.1644292945931 L444.9010023852183,298.01338973554573 L443.5195470008614,297.2310208027019 L442.56941192701026,295.8676690157443 L441.7060877555892,293.924133525779 L439.84888128389366,290.6931656039328 L438.5535532515553,289.7333851255412 L437.0497423432999,289.69103011691936 L436.52614272706273,286.36656151566297 L436.4680409419707,283.74694418996137 L436.70044808233746,279.7655733795143 L436.72984075009,277.8603971426404 L437.13723679614446,275.85292956418925 L437.8645344354099,273.91338982975435 L438.12701779394075,272.7562190281632 L438.2432213641244,270.9189706353053 L438.0101306733451,267.3124016936057 L437.6321272950431,265.2705706175936 L437.4865310571074,262.88830117039504 L437.3990366042638,259.4519514142886 L437.42842927201536,257.1384089622123 L437.68681132807,254.39092745953926 L437.4462015827498,252.17008653576718 L437.3805807431168,249.46496004171598 L438.14479010467517,246.70948702798216 L437.9923583626111,245.43324271158636 L437.3593906803187,243.54484864793992 L437.4462015827498,242.21745866075557 L437.9048639097675,240.04856255887813 L437.9923583626111,237.2411447232498 L438.9964939190786,235.6843983686229 L441.39712296898387,232.8010611779178 L443.9078036353569,230.17265319004937 L446.1778745564102,228.20754062022016 L446.7452213990692,227.49309953139237 L447.7274833423255,224.71125453115835 L448.53475637989266,223.2567995181086 L449.47395464713975,222.185137884867 L451.06731065947685,220.67953720102872 L453.3592551937413,219.68379492286388 L456.2404201838759,219.42886572002726 L456.76401980011354,219.07164517561333 L457.5282291616724,217.94883787158315 L459.73267924309226,215.83028828938833 L461.3048451926317,214.60518964378105 L462.0027501641446,213.6869650229051 L463.7273478557481,210.1651060984491 L463.8148423085918,209.01672595902457 L463.2474954659318,205.9032332497709 L463.1818746262993,203.60647297092214 L463.3343063683629,202.20316362866095 L464.6439889593705,199.4724642992154 L466.3029658113416,196.84405631134695 L467.0890487861111,195.8227411977879 L467.5907747891381,194.6487882229692 L467.8313845344593,193.09284101944843 L467.78763730803746,190.20870467763723 L467.5142171429005,187.90235458551552 L468.7698992512928,187.25983709623424 L470.71596727665803,186.60293488704366 L473.9683001409662,187.2046956699153 L475.43588287734065,187.88397411007594 L476.2602446752293,188.92047309465036 L477.22405075733855,191.89011860481122 L477.5883831273843,192.35682285075683 L479.7586556881614,193.6378620737891 L480.41486408449055,194.74708380901592 L481.01638844779325,196.36136904327998 L482.24814629173636,197.67037855502468 L484.1060363138449,198.69089451747774 L486.50119696044726,199.31902728684975 L489.99345601966365,199.7114104799307 L493.731793227504,199.34539927335004 L495.52269530915305,198.82195529887335 L497.98552744662754,196.72817940096664 L500.49279036093685,193.4828267592112 L502.1784256790079,191.630394495338 L502.9515211959342,190.0800413495598 L505.87164855960077,188.8429554373614 L507.1997870117549,188.43698667547724 L509.3181097411567,188.49532470622046 L510.9593142823934,189.02516188954567 L512.6073543277589,188.905289223635 L515.4454556418837,187.35973098449318 L517.7196278654128,186.87624456532 L518.9602718647243,185.67432130178878 L519.5426568164664,185.4809267341196 L523.4614513332973,184.9454954930519 L525.4205068165057,184.88156340456612 L531.2142801157656,185.80298462986633 L532.698268062048,186.17299159197734 L533.5356173177817,186.6380975357108 L534.4686636313124,185.84454048738206 L535.1781889598434,184.5443216378041 L536.902786651447,182.79258241329586 L537.8310481120884,182.09412434658952 L538.8700447396097,181.7185233267361 L539.4948098169488,182.03338886252817 L539.5809371689668,182.9947676431319 L540.4490461932776,184.05204455646418 L541.384143158048,184.5291377667887 L544.3090553746043,185.01342333706793 L545.2639753013462,184.96787172402185 L546.2612753536844,184.04724964982773 L547.4287794588215,180.90738495407376 L548.2203308368934,180.27365812695916 L551.5444364945498,178.91030634000163 L552.2731012346412,181.53471857233973 L553.3852377563379,187.84241825256024 L553.6559237198232,191.17088260934707 L553.8459507345933,191.96284135546364 L555.55414321629,195.51346971973828 L556.8282811858292,197.6687802528125 L557.6683646432135,199.3485958777743 L559.485241640551,202.39096413858772 L561.220092588347,204.70530574177013 L564.2564235221969,207.93787196582844 L565.557903508251,208.54043189980607 L567.2934380064596,209.0478928521614 L570.302426923796,210.15711458738832 L572.4986744002614,211.39340134848064 L574.5862373610846,211.99516213135226 L576.8904858027793,213.70694380055687 L577.8125953097049,215.19656146227376 L577.947938291448,217.09854109472337 L577.785253293191,219.6022815100447 L577.161855316678,222.13878712071494 L576.5384573401647,223.37427473070102 L575.1282928384692,224.61056149179333 L572.1459623872342,225.62468424539782 L569.8957144281535,227.1782339956003 L567.5374655038445,229.93610446265225 L565.3412180273796,231.39375608012625 L565.0431900473793,232.34474589635104 L565.5039030256357,233.16867068671053 L565.9379575377911,235.73634319051757 L565.6125875412779,236.56026798087703 L565.8019310056354,237.47929175285896 L566.561355514305,238.46224761332667 L566.8320414777903,241.2201180803786 L567.4287809882028,242.076008914981 L569.0556309707691,242.96306664272004 L572.688701415031,243.88209041470205 L577.4872253131917,246.00623405463952 L580.8762682600686,248.16154458771368 L582.5297767087364,249.3027323671834 L584.6446816860736,251.52117583763737 L587.3016421407954,253.61335343333187 L588.6304641433625,254.15198127882394 L592.6429050667523,254.880807087561 L595.6252355179882,256.9098517458759 L596.8720314710135,258.716732396703 L596.8262335933541,261.04465956868864 L594.8931530258326,263.3438173008557 L594.5404410128065,264.3587392055662 L594.5944414954198,265.5310938781728 L596.1946330118868,267.14777656575495 L596.7906889718857,268.28896434522466 L597.5501134805548,270.3491758966765 L597.3327444492703,271.58546265776874 L596.1132905127585,272.7266504372385 L595.4625505197312,273.74077319084296 L595.1638389893184,274.9770599519352 L595.8692630153726,279.8582749078186 L596.2212914779872,280.93553059880264 L596.8720314710135,281.7602545402682 L597.9568259761963,282.58417933062765 L598.4448809709661,284.0418309481017 L598.4175389544531,286.0389095621738 L598.254853956196,287.084998360021 L597.8481414605545,287.84579021300095 L597.5767719466552,289.5256058379627 L597.5501134805548,291.2054214629245 L597.3060859831689,293.1393671396169 L596.7906889718857,294.8191827645787 L595.2725235049611,297.22782419827763 L593.6190150562933,298.84450688585986 L592.8595905476237,300.1127596911949 L592.6969055493677,302.17297124264667 L593.1849605441379,305.02514154021503 L593.0222755458808,310.19165344096575 L593.2123025606509,312.75932594477274 L593.0222755458808,313.9005137242426 L592.0735075728537,314.7564045588448 L590.5820005720295,315.42209743020226 L589.226520103362,316.563285209672 L588.1150671320788,318.3381998162563 L586.054846187769,320.8419402315776 L584.2919696730464,322.4586229191598 L583.8585987113036,323.02921680889466 L583.2352007347912,324.77216537123616 L582.7738042061209,325.37472530521393 L580.2795287496557,327.65710086415345 L577.975280307961,329.46398151498056 L577.4598832966778,330.25594026109724 L577.2158557992924,331.87262294867935 L576.3627848840644,333.75941871011366 z"/>
	<path id="yozgat-candir" title="Çandır" class="district" d="M414.9307345341048,377.26360662242143 L417.42706064180805,377.8653674052932 L420.03617256763124,378.93543073632264 L422.4614094323988,380.8086409289537 L423.4915199045537,382.2263349911241 L425.39110650184546,386.02549934938696 L427.7937862029898,391.61715963856756 L429.48694057560266,395.09506525218984 L431.43232505055437,398.8670584728462 L432.942287912526,401.06072825901185 L433.78920687403826,401.78316085890026 L437.93083882545585,407.6425367686149 L441.7067713060017,411.4952442509845 L442.896832574762,413.60899892654294 L443.37736851498994,414.97314986460657 L444.01853880223774,419.0128587057969 L443.995298088201,422.0096753535641 L442.5994881451753,432.01504720157646 L442.4169801849457,434.27184992512167 L435.2014220269723,434.4732360038517 L432.82266659027823,434.286234645031 L430.4671518676194,433.88506078978315 L427.21960385620145,433.56380204514267 L424.8640891335426,433.590973182749 L421.7306940410692,433.9114327762835 L418.5289439073117,433.93860391388995 L416.3333799812593,433.6980594309626 L414.75506207800396,432.92208370696727 L412.6510939072724,432.2268222446854 L410.6612786554859,431.95990577525754 L409.7008903254402,432.09336400997154 L408.71726128135924,432.73508234814665 L407.36383146392984,424.9657352949218 L406.9147388426911,423.75582052032985 L406.192226056316,422.9334940321825 L405.567460978978,421.65485226246847 L403.1271860051267,420.0309772149317 L401.38891730526643,418.3415717766969 L399.9828541060482,416.6513671873563 L397.75584686100416,413.2717571597808 L396.75991390949156,412.0618423851889 L394.78718741802595,408.91078957394984 L392.9320315975695,405.3713493251603 L391.8492877436253,403.11774320603934 L391.1110532977549,398.85107545072475 L390.412464775829,395.7767411456686 L390.46851590968197,389.68720971740544 L390.88548166151645,387.49513823345205 L391.8110089205063,383.850210038661 L396.4577846270151,383.95409968245013 L401.8195540653572,384.1634772722408 L404.4703625663641,384.05878847734556 L406.0787566877835,384.1283146235737 L408.8191102928731,383.1533502741667 L412.5123331734646,380.5417244595259 L414.32989372121557,378.73084805316836 L414.9307345341048,377.26360662242143 z"/>
	<path id="yozgat-aydincik" title="Aydıncık" class="district" d="M317.68065019806465,147.0873101451375 L317.3990274279733,146.1786753375344 L313.30866175751936,141.5523895844879 L311.72145769889806,138.45967480399207 L308.233983492571,133.1732902373306 L305.8285695897755,129.99586543959123 L305.46765497179393,128.44950804934334 L305.8285695897755,126.59387918104579 L306.5257910108753,125.63729530707852 L307.39184938394754,124.96281177355435 L308.76305151211193,124.31629852874269 L310.6147895805042,122.93776287076975 L312.20199363912593,121.39140548052184 L312.85136653132724,120.54830106361659 L315.80977271811287,118.41057185487595 L320.23507809086095,117.0048650592966 L322.27957737567493,116.55494298657854 L325.1662107691118,116.16176064239147 L326.4164244742023,115.79574943581083 L327.30640711172475,114.98061530761811 L327.547016857045,113.34954790012665 L327.3788634554856,112.14043227664078 L326.969416758192,111.71848049263521 L324.9973738171399,110.67798575253042 L324.1073911796174,110.62204517510538 L322.27957737567493,110.87537607572997 L321.2453656010428,111.24058813120452 L319.8502392084297,111.26855841991704 L314.9443978954532,110.59407488639286 L313.81380551261054,110.05944279643114 L311.5286964824754,107.24802920527245 L310.638713844954,104.46378675172015 L310.0378730320647,99.45870337439578 L309.89296034454105,97.37771389418616 L309.9893409527526,95.43817415975118 L310.66263810940364,90.6856225319454 L312.24027246224546,88.75647176188937 L312.8998986106393,88.15471097901761 L314.75163667903155,87.45225715678103 L317.3730525122859,87.620878040162 L318.33549149356924,87.95811980692416 L320.30753443462135,89.19520571912243 L321.8947384932441,90.77033254918895 L326.94549249374273,94.76289147512102 L328.43699949456646,95.74744563780081 L331.99624649424135,97.79966567819181 L334.23350699547797,98.67153953491558 L336.34977907364015,99.09349131892122 L337.5042957209336,98.95284072425267 L339.1639561233167,97.34974360547375 L341.015694191709,96.28127857665642 L344.0458731718429,94.11637823030938 L345.7540656535381,93.04791320149205 L348.78424463367355,90.96692372128241 L353.13777721307235,87.87420894078659 L356.6491756838477,85.96184034395804 L359.7032789284314,84.04947174712949 L362.42175892030895,82.67173524026265 L366.6782273410851,81.74392080611388 L368.1936586063581,81.29399873339581 L372.4029620486463,79.69090161461676 L373.72563209749865,79.07235865851763 L374.3620175318562,79.71567529890501 L376.9109770213488,81.11019397899945 L378.4564845047869,81.71275391297709 L381.94054095904977,81.67279635767356 L387.1307392437683,82.47913982369943 L386.97352264881397,83.5284252259711 L387.2407908602366,85.42880655620853 L387.2407908602366,87.92775206489344 L387.03025733308095,89.62834561861311 L387.11775178592455,91.88195173773408 L386.6973682820259,94.89315310541066 L385.9611844873935,97.924333250739 L385.5237122231739,98.90808826231267 L384.13952263716635,100.526369252107 L382.36981061831494,102.32925414740379 L380.47705952515105,105.56581612699244 L379.75864804125314,106.61030662262763 L378.77775319882335,109.31463396557277 L378.6547141245113,110.23605519087297 L379.0053754863008,112.0181621574119 L379.8639148048307,114.41561547562569 L379.93363694694136,115.15243279542345 L379.5658868248314,117.11914366746484 L379.51325344304314,119.2089238098412 L379.3034034663001,120.35570564705351 L378.4093195263004,122.79391567167691 L376.0790961689179,125.35439581552933 L374.3620175318562,127.50571059307316 L372.50481106016116,129.1239915828675 L370.62983227773174,130.57844659591723 L366.28450230328633,132.72896222235497 L363.56875651306046,133.7534739403383 L360.6951105774668,134.98256834147594 L358.97803194040466,136.27319737778106 L357.7866035708188,137.4000004373416 L356.26980520472017,138.17038210359422 L354.26358474302475,138.58514152764522 L350.0433444941305,139.74391063144853 L346.3467038614739,140.68770808771882 L344.160709641201,141.00656937904117 L340.5864245324433,139.7838681867522 L338.36351858987695,139.121371919819 L335.5958229682744,138.68823202032843 L332.47951663612184,138.6626591849341 L328.1211992038328,139.19809042600193 L325.6583670663588,139.7838681867522 L323.6972609319117,140.98099654364694 L322.8476077687474,141.79692982294566 L321.4524813761338,142.50977260956125 L319.79623872581533,143.80919230803315 L318.7722802073758,145.0326926514282 L317.68065019806465,147.0873101451375 z"/>
	<path id="yozgat-cayiralan" title="Çayıralan" class="district" d="M442.4169801849457,434.27184992512167 L442.5994881451753,432.01504720157646 L443.995298088201,422.0096753535641 L444.01853880223774,419.0128587057969 L443.37736851498994,414.97314986460657 L442.896832574762,413.60899892654294 L441.7067713060017,411.4952442509845 L437.93083882545585,407.6425367686149 L433.78920687403826,401.78316085890026 L432.942287912526,401.06072825901185 L431.43232505055437,398.8670584728462 L429.48694057560266,395.09506525218984 L427.7937862029898,391.61715963856756 L425.39110650184546,386.02549934938696 L423.4915199045537,382.2263349911241 L422.4614094323988,380.8086409289537 L420.03617256763124,378.93543073632264 L417.42706064180805,377.8653674052932 L414.9307345341048,377.26360662242143 L414.8323032746551,375.35283632780505 L414.05032160236277,373.6026954055091 L412.66544846594167,369.26730065507235 L412.1069877786492,365.1149115079261 L411.5929578681911,362.8429249133654 L411.3475632699796,359.65591030235316 L411.5929578681911,357.3319788858979 L412.24096365956626,352.57862810698606 L413.2239091532347,347.56395491638875 L414.4973635723619,343.3851937827421 L415.9266674856178,341.2954136403657 L417.1556911279092,339.20643264909535 L418.00466074066105,338.21388697535497 L418.51800710070563,337.97813739906394 L420.26106065345664,337.76955896037924 L426.0917456750094,337.63929733008973 L429.82188027789533,338.08282619395925 L431.1404490242704,338.13557016695984 L433.4638368775241,338.5790990308295 L435.6976796266965,338.5790990308295 L439.2719647354537,338.23945981074917 L442.4443222014601,337.76955896037924 L448.47597104438904,336.6203796698487 L451.1479696081926,336.26156082322274 L452.45491799754956,335.39927677977187 L457.3812658229106,331.6384716746005 L458.051145227497,330.6003743878139 L458.62054272139557,326.83956928264246 L458.6888977626797,325.2620449992579 L461.85031842208053,325.3507507720318 L462.6924525307035,325.25005773266673 L467.5504453147804,323.7604400709498 L469.75216119454865,322.9524983027119 L471.69549501826225,322.0438634951087 L474.3073411457366,320.27773955069136 L479.6766296386205,318.12162986651106 L480.6705119388945,317.59339098539783 L481.90021913159944,317.4879030393965 L485.6057459196235,316.24122731392526 L491.6982307492956,314.4655135562349 L495.6928993619515,313.7262987831191 L497.19329251814224,313.57765667738977 L498.8385983618566,313.7047217032551 L500.2487628635515,314.04276262112325 L501.2248728530916,314.74042153672343 L504.8948550196477,318.81928878211124 L505.6535959779038,320.00283157020283 L506.5217050022152,320.5526475311798 L507.8047291271214,320.5526475311798 L510.0830026531281,319.5377256264693 L511.45693898294314,319.4114597517101 L513.7523012692708,319.580080635091 L514.8193234637191,320.04518657882454 L515.6327484550021,320.9330434576698 L516.7353152709184,322.898156027499 L518.019022946239,323.55345993447753 L523.3698555779761,324.6522927053254 L524.5626510483875,324.56758268808187 L526.9126973677426,322.7718901527397 L529.5156573398499,322.43305008376547 L532.2635299994795,321.6514803020279 L533.3660968153962,321.5244152761625 L534.469347181725,321.79932325665106 L536.4577953326864,322.8134460102554 L540.1270939488286,323.257774025231 L542.15177027167,322.6448251268745 L543.6159352559813,322.49698217225125 L545.7492960944649,322.8134460102554 L549.7261923963878,323.55345993447753 L553.1610332209247,324.86406774843437 L554.1555990716116,325.5825045927924 L555.6737645385363,327.0193782815086 L556.3607327034435,328.0550781149768 L557.6984408613781,329.38646385769164 L562.2358485018317,332.2817883149879 L564.2789806858206,333.8457270295693 L565.7971461527452,334.8182939256581 L567.8758229582019,335.83241667926256 L569.9551833140716,337.27008951908465 L571.1117506126027,338.5591202531777 L569.7603714464109,341.0332920775743 L568.3508904951285,344.9946841103696 L566.1006425360476,347.689421640042 L564.6091355352239,350.7637559450981 L564.3377660213251,351.68277971708017 L563.2809970830693,352.8559335407928 L562.0875180622448,353.26749636041944 L559.1865301101387,353.1092644414174 L556.8282811858292,352.06317564356993 L555.0927466876201,350.00296409211836 L552.9511832441816,349.3372712207609 L551.4603597937709,349.40120330924657 L550.0775373085888,348.98884133851385 L548.7760573225347,348.35511451139934 L547.1492073399678,347.2770596693091 L545.1703288947868,345.660376981727 L542.9467394018079,344.202725364253 L541.9439709461665,344.0125274010081 L539.1783259758025,343.88546237514277 L536.6573920532364,343.56899853713844 L535.4099125497976,342.99840464740356 L534.4064605437436,342.7762406399158 L530.909416631637,342.6491756140504 L529.6619371281981,342.8393735772955 L527.6017161838889,344.202725364253 L526.8969757082472,345.08978309199216 L525.9482077352202,347.34019260668884 L524.6467277491669,351.2712168974534 L523.833302757884,355.3596739561141 L523.6166172770126,357.92734645992095 L524.4840427509108,362.871694353184 L524.5380432335247,365.787796739238 L524.3213577526537,366.6756536180832 L523.5352747778837,368.19723732404293 L523.1825627648572,369.8139200116252 L522.640507287472,371.39863665496443 L521.827082296189,372.73002239767914 L521.7997402796741,374.72630186064526 L522.1524522927018,376.31101850398454 L522.1524522927018,377.2939743644522 L521.7457397970603,379.19595399690184 L521.7457397970603,381.0659675851086 L521.3663693179318,382.8728482359357 L520.4169177944931,383.7918720079177 L518.7634093458254,385.0281587690099 L516.9738743650014,387.50073229119454 L516.0524484084882,388.45092295631326 L513.1514604563816,390.7964314526324 L512.0940079677133,392.0966503022104 L511.15549325087875,394.6091813796985 L509.0727151429463,393.83080820238496 L506.71720042028744,393.6709779811708 L504.74994233212465,394.82015727170125 L502.9433185909802,396.6653971756199 L501.6855858313488,397.68111823143647 L500.86190758387283,398.7775535489662 L500.01567217277216,401.2908837775604 L498.7579394131408,403.8849282678677 L497.7975510830961,404.60656171665005 L494.27521580571465,406.21125713764116 L492.03385400200136,408.1364121521669 L489.45003344145346,410.62257124315465 L488.28321288672987,411.5320052018636 L485.42460506021996,412.84181386471454 L483.2064839705429,414.8476831409535 L482.0171062521956,416.50512253494514 L481.55981102600344,417.46730046665505 L481.44497455664634,419.2326252599665 L480.53038410426166,419.9278867222485 L479.45515930485885,420.4089756881033 L473.82953940715936,422.0664150820952 L471.38242892918026,423.0829352890179 L468.24903383670585,425.48917926939845 L465.25303237721414,427.8418801256722 L462.0970801211171,429.6335769054841 L456.49333383662827,431.50518879590305 L449.4493468322774,433.2161713140016 L446.750689802372,433.83151766567653 L442.4169801849457,434.27184992512167 z"/>
	<path id="yozgat-bogazliyan" title="Boğazlıyan" class="district" d="M373.31823605144365,499.57128595331136 L372.15893455126195,503.95622807232434 L371.3967758409417,507.842499901149 L370.7562891041069,509.26818547438023 L370.2819051175948,512.1331421896457 L366.94481200209367,511.9421450752946 L364.29195284984814,511.5505610333197 L361.3034704448974,510.4453350536232 L358.4981795505888,509.12593657749966 L356.08934789572913,508.27004574289725 L353.67983269045595,507.2007815629738 L350.81370580940467,505.7391341899695 L349.19710908302983,505.1333776515674 L347.13005263459223,504.96076101265595 L343.53936231592616,504.39895778508804 L340.97809891900295,503.5974092256985 L339.0115243812522,502.7950615152029 L336.7701625775389,501.56516796295926 L332.5615426856632,499.6400129484335 L328.513557140806,497.42077032687354 L327.1874693398895,496.2707918852369 L319.7770993142558,491.1642163174416 L317.3990274279733,490.0941529864121 L314.5629767650866,489.0512607929893 L312.61895939096047,488.62371495124097 L310.40015475087085,488.49025671652726 L305.8032782245007,488.5701718271343 L301.64113976069746,488.971345682382 L297.5473563381793,488.46308557892075 L294.68874851166896,488.40954245481385 L289.67969108635305,489.98706673819873 L288.3303625714003,490.52249797926646 L285.378791888743,493.27797099300017 L284.2823770265421,492.1072146226057 L282.5058295035624,491.0906944156831 L281.63635337842595,489.85360850348457 L280.8236119375546,488.173792878523 L281.069006535766,486.14075246467763 L280.78601666484855,484.21879405457616 L281.069006535766,481.324268748386 L280.08674459250966,478.5176500638637 L279.27400315163925,476.92654021167584 L278.12085360517335,475.2251475068502 L276.8166394174675,474.2749568417314 L278.095562239898,473.14335887553443 L280.02795925700605,472.26748926328025 L283.89275329122154,470.884158698671 L286.88943830112623,470.46939927461995 L288.2695265846571,470.1465422277671 L290.16227767782004,469.03971794585846 L291.2272492210307,468.0719459564062 L292.33118313777203,466.32020673189794 L293.040708466303,464.38386360188724 L293.4747629784584,461.9864102836734 L293.98742578809146,458.4365810705048 L294.26358015488,453.31881738722444 L294.8944971859343,450.8758124559645 L295.4857682930435,449.58518341965953 L296.1166853240974,445.94265267818656 L296.35319376694184,444.09901107648017 L297.502242010931,438.7159292259841 L298.2712362253796,436.7452225984123 L299.5426399932692,434.7745159708405 L301.8974711655135,431.87040085137755 L302.69585804771464,428.99185856730884 L302.76284598817364,427.56537384297167 L302.60768004445845,425.6466120372944 L301.69787444496393,420.77099113915364 L300.96579195280833,418.41109792292514 L300.1892786838183,414.00218127073 L299.9233775732218,410.06076801558646 L299.5904885221667,408.1675790453036 L299.05868630097564,407.3900050190963 L297.9711575941422,406.6380038282833 L295.2212342832736,406.01546511665373 L293.912235242678,406.1705004312315 L290.89572727080076,405.8340578155756 L287.0582752530982,405.88520348636416 L285.3945135482383,405.6007056926028 L282.11210446576507,403.9664416806869 L277.7421666764584,401.0103817393294 L276.588333579578,400.0250284255435 L272.64014639499607,396.2386504849778 L271.81988589958326,394.9424273909301 L271.35370451802464,392.42669970901784 L270.9210171066948,388.4333416319797 L269.88612178165016,381.7252672476174 L269.53135911738394,378.9242426208377 L267.6386080242215,373.4268821621733 L266.3371280381683,369.9689553262029 L265.7157807128925,367.92872255240303 L264.29673005583015,364.7129385015721 L262.2488130189515,361.9758459632781 L264.98779952321513,358.69692897506764 L269.8991092394939,352.0120299727814 L270.70569872664845,350.7917262338106 L272.4378154727939,348.9329007610889 L275.2137136993499,347.0469041507607 L279.17557189218957,344.2179092352684 L283.3985463427355,341.30500345363856 L284.2529843587896,340.14064029209266 L286.10472242718185,336.9448350189138 L288.07744891864843,337.54579665067934 L289.735058669793,337.6648701654839 L291.3420856903873,337.30764962107 L296.1358247356578,334.59453161595815 L297.5897364637751,333.6699137862337 L301.05807125854216,332.50714892689996 L304.1942005526672,330.9871635231524 L306.21272492179327,329.4527933994956 L307.609218415232,331.1094336423813 L310.4240790153206,335.1051891727376 L311.18350352399017,337.0902805202187 L311.8315093153654,343.4635105911371 L311.78707853853007,349.15666307078885 L311.6975334344483,352.342878530695 L311.3844673453653,353.9363858362011 L310.2231151939455,356.96596767931726 L309.485564298487,359.47370385016893 L309.4636906852759,360.59651115419905 L309.79863038756906,361.64100164983427 L313.6183100945372,365.01022271303066 L314.9368788409123,366.0291403732716 L316.83578188779103,366.00276838677127 L321.57141914796904,365.3234899466107 L323.47032219484726,365.61118434479636 L325.3692252417265,366.49904122364154 L327.6030679908984,367.2302644856967 L330.2395219332346,367.83122611746234 L332.71875928061746,367.75290930906726 L335.89111674662246,368.0661765426472 L337.16457116575015,368.6671381744128 L338.73126871198684,369.8618690779894 L340.4237395341862,370.9583043955192 L343.422475195331,372.2321512585969 L344.1094433602378,372.76039013970984 L344.7123348243656,373.72096976920767 L347.15876175193125,378.7939809905481 L349.08569036573647,380.6743835431337 L350.3420560245423,381.6733224257228 L354.4809537743092,382.51562769152196 L356.57535223926084,382.82889492510185 L359.8618626242113,383.0055073195436 L362.9002442092997,382.09127845419806 L364.687044988472,381.1514767534583 L365.93794224397504,379.9231815034268 L367.03299000534986,376.05848675446606 L367.0774207821847,374.67355788764456 L366.7424810798915,373.3677449803241 L365.2455056757645,370.0768407255226 L363.6815423311799,365.81976278348094 L363.8380753757207,363.80909860060564 L365.0219846907647,361.4579960465439 L367.300941767184,358.6633646286127 L368.7753600076878,358.0104581749525 L370.8082389354841,357.4886125026879 L372.4610638337389,357.3575517212923 L373.48912365465515,357.7755077497676 L375.1419485529104,359.31707023337896 L376.28142709112007,360.7011999490943 L377.50976718299887,363.2600817907346 L376.52682168933,367.51795888388233 L376.0134753292854,370.1815295204179 L375.9239302252027,374.1772850507743 L376.7503426743303,376.8680268249162 L378.15777297437506,379.2702750497664 L379.2077064085015,380.08061427132276 L382.9159673981763,381.6733224257228 L391.8110089205063,383.850210038661 L390.88548166151645,387.49513823345205 L390.46851590968197,389.68720971740544 L390.412464775829,395.7767411456686 L391.1110532977549,398.85107545072475 L391.8492877436253,403.11774320603934 L392.9320315975695,405.3713493251603 L394.78718741802595,408.91078957394984 L396.75991390949156,412.0618423851889 L397.75584686100416,413.2717571597808 L399.9828541060482,416.6513671873563 L401.38891730526643,418.3415717766969 L403.1271860051267,420.0309772149317 L405.567460978978,421.65485226246847 L406.192226056316,422.9334940321825 L406.9147388426911,423.75582052032985 L407.36383146392984,424.9657352949218 L408.71726128135924,432.73508234814665 L407.9626216255799,433.2968855757148 L405.8818941688851,435.38187081145463 L404.600920695217,436.2913047701639 L403.8462810394386,437.2271107153733 L402.35955889150364,438.32354603290315 L401.2843340921014,439.3928102128265 L400.59873302801924,440.756161999784 L400.14143780182707,442.0931418002413 L398.1974204277005,445.35527661522417 L396.3675559725198,449.84730498245085 L395.06402533522703,453.9381594944296 L394.6976423139432,454.84759345313864 L394.4460957620169,456.55857597123736 L394.9457711138053,458.72427546869045 L396.10438906357444,461.4341968693782 L397.7209857899493,464.35749161538695 L398.7271719976549,466.6031062234471 L399.0012757132044,468.42197414086536 L398.9711994950393,469.4552765210155 L398.52484107545274,471.84393917706257 L397.4728569900867,473.6084648192679 L395.6204353712814,474.89190149561836 L392.94433550500065,477.0048570200708 L391.20675035555246,478.7158395381694 L385.74039770404534,484.4913045817465 L385.14570884487097,486.09520085163155 L384.04792688184506,488.0203558661571 L383.17913430712167,488.87624670075945 L378.9021593739609,491.65729254988764 L377.3696393483665,493.39464705448654 L376.27185738533956,495.0528855995843 L375.60881348488203,496.6567818694694 L373.8972032511222,498.6802324700419 L373.31823605144365,499.57128595331136 z"/>
	<path id="yozgat-cekerek" title="Çekerek" class="district" d="M387.1307392437683,82.47913982369943 L391.34072623647,84.47302183334737 L393.9901676366508,85.02523524764254 L396.83715510614365,85.98581487714019 L396.21854198252,87.04708754600284 L396.10985746687726,88.1563092812298 L396.35388496426265,88.59983814509933 L398.95684493637003,90.27965377006115 L400.5296944363221,91.83320352026371 L402.3998883658613,92.65712831062316 L405.1115328536109,95.22480081443024 L407.84983580746047,98.26716907524347 L409.25931675874386,100.61347672266882 L410.26276876479784,102.70485516725726 L410.6421392439254,104.00427486572913 L411.0215097230539,107.3007731782732 L411.0215097230539,108.7592239468533 L410.4794542456693,111.73845927028698 L410.34411126392615,114.71849374482677 L410.53345472828414,116.1441793180579 L411.3468797195671,117.69772906826046 L412.26898922649275,118.93401582935263 L413.2717576821342,119.85303960133467 L415.0072921803428,120.58186541007169 L417.7182531176794,121.18442534404943 L418.96504907070573,121.18442534404943 L424.4963390114337,121.69108714529851 L427.9120404244115,122.42071210514163 L429.32220492610645,123.11757186963573 L431.1923988556457,124.35385863072803 L433.9307018094962,125.65327832919989 L437.1030592755022,126.57310125228793 L440.8988147180211,127.01663011615754 L442.11895220494597,127.01663011615754 L444.39585863012763,126.35093724480012 L445.18194160489713,125.97054131831015 L447.64955859526043,125.3999474285753 L448.7610115665446,125.33681449119574 L450.7672320282395,125.87544233668771 L453.0714804699341,126.8575990460493 L456.46052341681104,127.49212502426995 L458.4667438785064,128.31604981462942 L459.9309088628167,131.39038411968556 L460.50030635671527,132.31020704277358 L461.15104634974165,134.11628854249466 L462.04581384015387,135.6698382926972 L462.6965538331802,136.3986641014342 L464.97414380877444,136.52572912729957 L467.65776272959715,135.92316919332183 L470.2333806851906,134.90904643971743 L471.0167294583084,134.8666914310956 L471.28673187138213,136.84938532525837 L471.96823163298666,138.32701572038428 L473.05097548693084,141.16320299583123 L473.7126522865632,143.83636344563956 L474.39483559858024,145.5713204969203 L475.01618292385456,147.91523069102735 L475.0968418725698,151.83027195967043 L475.37709754183606,154.59693308888927 L475.6983662358725,156.54286603217278 L475.77834163417526,158.46562359338026 L475.6177072871568,160.2469314088131 L475.1569943089005,161.2314855714929 L473.6524998502325,163.29489372736893 L471.4268597060146,164.13879729538024 L469.8827193234016,165.100176075984 L466.0124568858828,167.09245978341963 L462.88453019671215,168.21846369187404 L461.7211273940527,168.92171666521674 L456.84809650089346,171.1018008825792 L455.0038774870416,171.78187847384584 L448.2456145552604,173.51683552512657 L446.46086442732616,174.149763201135 L443.9344621014573,175.97822093182614 L443.2926082637984,177.57252738843832 L443.0923279928344,179.07253401453403 L442.4101446808173,181.76886984641854 L442.27001684618443,185.52008513831714 L442.4101446808173,186.5517892162551 L442.3834862147169,188.51929923940259 L442.6992865054506,190.72175968773496 L443.23724068035847,192.8315186077631 L441.06491746834183,195.10110774900556 L438.4523877904549,195.83632676659113 L436.14950644958583,196.8360648002863 L434.1979700209183,197.6823658216157 L432.04888752293937,198.24656650250202 L429.6147645028039,198.27213933789636 L425.62351364221223,197.7590843277986 L423.47374759382024,198.0411846682417 L420.90838289441933,198.73404867720555 L419.0443409185949,198.73404867720555 L417.46533946492707,199.06729468843733 L415.8863380112592,200.29798739178705 L412.09263321997946,202.707427976592 L409.83349910553267,205.34862238215743 L408.1013823593873,207.22023427257636 L406.5005072925078,208.24554514166587 L404.1538787252169,209.14299183378378 L401.1496746607708,209.50181068040982 L398.605500024168,208.5787911528975 L397.48721154875744,207.14351576639356 L396.8289525011882,205.47648655912886 L396.30261868329893,201.19463493279903 L395.2280774343102,195.81075393119679 L394.7017436164209,193.45245901718056 L392.3557985995426,190.42687292959465 L391.06183766803025,188.2475878633383 L389.635951506839,186.81151332572824 L388.38642135216156,185.78620245663885 L386.56612660275994,184.99104710609788 L384.81145269299134,184.47879124710622 L381.7416277889118,183.78672638924849 L376.56578406286206,181.35091381794322 L371.7412852490149,179.81254793875607 L370.05291572929224,179.17162875168688 L368.71520757135767,177.68440854328827 L368.14512652704605,176.27390684107243 L368.36454620956863,172.47953738944602 L367.72816077521105,171.09540767373062 L363.8469615310877,165.94168219067706 L363.1012080306758,164.73656232272154 L361.71975264631936,162.9160961030912 L358.122910373938,159.5324903199854 L354.7454877840792,156.2248038919564 L354.26358474302475,155.558311869493 L353.14461271720023,152.66138910998455 L351.4124959710553,149.37927551734992 L352.09194508142167,146.5846440994187 L351.74128371963263,144.7641778797883 L351.1493290621104,143.2513848359954 L350.3598283352767,140.45675341806415 L350.0433444941305,139.74391063144853 L354.26358474302475,138.58514152764522 L356.26980520472017,138.17038210359422 L357.7866035708188,137.4000004373416 L358.97803194040466,136.27319737778106 L360.6951105774668,134.98256834147594 L363.56875651306046,133.7534739403383 L366.28450230328633,132.72896222235497 L370.62983227773174,130.57844659591723 L372.50481106016116,129.1239915828675 L374.3620175318562,127.50571059307316 L376.0790961689179,125.35439581552933 L378.4093195263004,122.79391567167691 L379.3034034663001,120.35570564705351 L379.51325344304314,119.2089238098412 L379.5658868248314,117.11914366746484 L379.93363694694136,115.15243279542345 L379.8639148048307,114.41561547562569 L379.0053754863008,112.0181621574119 L378.6547141245113,110.23605519087297 L378.77775319882335,109.31463396557277 L379.75864804125314,106.61030662262763 L380.47705952515105,105.56581612699244 L382.36981061831494,102.32925414740379 L384.13952263716635,100.526369252107 L385.5237122231739,98.90808826231267 L385.9611844873935,97.924333250739 L386.6973682820259,94.89315310541066 L387.11775178592455,91.88195173773408 L387.03025733308095,89.62834561861311 L387.2407908602366,87.92775206489344 L387.2407908602366,85.42880655620853 L386.97352264881397,83.5284252259711 L387.1307392437683,82.47913982369943 z"/>
	<path id="yozgat-kadisehri" title="Kadışehri" class="district" d="M443.23724068035847,192.8315186077631 L442.6992865054506,190.72175968773496 L442.3834862147169,188.51929923940259 L442.4101446808173,186.5517892162551 L442.27001684618443,185.52008513831714 L442.4101446808173,181.76886984641854 L443.0923279928344,179.07253401453403 L443.2926082637984,177.57252738843832 L443.9344621014573,175.97822093182614 L446.46086442732616,174.149763201135 L448.2456145552604,173.51683552512657 L455.0038774870416,171.78187847384584 L456.84809650089346,171.1018008825792 L461.7211273940527,168.92171666521674 L462.88453019671215,168.21846369187404 L466.0124568858828,167.09245978341963 L469.8827193234016,165.100176075984 L471.4268597060146,164.13879729538024 L473.6524998502325,163.29489372736893 L475.1569943089005,161.2314855714929 L475.6177072871568,160.2469314088131 L475.77834163417526,158.46562359338026 L475.6983662358725,156.54286603217278 L475.37709754183606,154.59693308888927 L475.0968418725698,151.83027195967043 L475.01618292385456,147.91523069102735 L474.39483559858024,145.5713204969203 L473.7126522865632,143.83636344563956 L473.05097548693084,141.16320299583123 L471.96823163298666,138.32701572038428 L471.28673187138213,136.84938532525837 L471.0167294583084,134.8666914310956 L473.05302613816843,134.59178345060707 L477.0928090780732,133.83099159762727 L478.0689190676122,133.26039770789242 L479.5870845345378,131.92981111628376 L482.894784982287,131.5494151897938 L484.33160795008325,131.5494151897938 L486.55451389264965,131.7707800461755 L491.13635230993793,131.00998819319562 L494.8234232368151,129.5843026199645 L496.55895773502425,129.36213861247668 L497.26369821066544,129.48920363834202 L501.49350816534024,131.42235016392846 L502.956989599237,131.9929440536633 L504.99055207744584,132.08804303528578 L506.8887715739115,131.83471213466117 L508.7863075199642,131.2952851380631 L512.0666659511988,128.72841178536214 L513.4221464198674,128.09388580714162 L515.2116814006908,127.68232298751488 L516.4858193702312,127.84055490651703 L517.8146413727987,127.65035694327199 L520.7969718240332,129.26703963085424 L522.3691377735727,129.8056674763462 L525.5414952395796,130.18606340283617 L526.7616327265046,130.1540973585934 L531.1807861455363,129.5523365757216 L533.4850345872305,129.6154695131013 L535.1932270689261,130.2811623844586 L536.0879945593379,130.85175627419358 L539.0969834766743,132.08804303528578 L540.2631204809843,132.94393386988813 L542.4860264235506,135.0041454213399 L543.2181089157062,136.84219296530384 L543.6248214113477,141.1216471383155 L543.5708209287334,142.16773593616279 L543.1094244000641,143.87951760536748 L542.350683441808,144.60834341410435 L538.1755575201611,147.80974274502597 L537.0907630149793,148.95093052449567 L536.7927350349796,149.80682135909802 L536.5213655210807,153.89527841775868 L537.1447634975941,156.62118284056777 L538.012872521905,158.7445273293991 L539.0156409775459,162.26318964943096 L540.0457514497003,164.92596113486036 L541.6459429661672,166.9861726863121 L544.112876406118,168.91931921189854 L546.1190968678129,170.78933280010529 L548.5593718416633,174.05466421951255 L551.5444364945498,178.91030634000163 L548.2203308368934,180.27365812695916 L547.4287794588215,180.90738495407376 L546.2612753536844,184.04724964982773 L545.2639753013462,184.96787172402185 L544.3090553746043,185.01342333706793 L541.384143158048,184.5291377667887 L540.4490461932776,184.05204455646418 L539.5809371689668,182.9947676431319 L539.4948098169488,182.03338886252817 L538.8700447396097,181.7185233267361 L537.8310481120884,182.09412434658952 L536.902786651447,182.79258241329586 L535.1781889598434,184.5443216378041 L534.4686636313124,185.84454048738206 L533.5356173177817,186.6380975357108 L532.698268062048,186.17299159197734 L531.2142801157656,185.80298462986633 L525.4205068165057,184.88156340456612 L523.4614513332973,184.9454954930519 L519.5426568164664,185.4809267341196 L518.9602718647243,185.67432130178878 L517.7196278654128,186.87624456532 L515.4454556418837,187.35973098449318 L512.6073543277589,188.905289223635 L510.9593142823934,189.02516188954567 L509.3181097411567,188.49532470622046 L507.1997870117549,188.43698667547724 L505.87164855960077,188.8429554373614 L502.9515211959342,190.0800413495598 L502.1784256790079,191.630394495338 L500.49279036093685,193.4828267592112 L497.98552744662754,196.72817940096664 L495.52269530915305,198.82195529887335 L493.731793227504,199.34539927335004 L489.99345601966365,199.7114104799307 L486.50119696044726,199.31902728684975 L484.1060363138449,198.69089451747774 L482.24814629173636,197.67037855502468 L481.01638844779325,196.36136904327998 L480.41486408449055,194.74708380901592 L479.7586556881614,193.6378620737891 L477.5883831273843,192.35682285075683 L477.22405075733855,191.89011860481122 L476.2602446752293,188.92047309465036 L475.43588287734065,187.88397411007594 L473.9683001409662,187.2046956699153 L470.71596727665803,186.60293488704366 L468.7698992512928,187.25983709623424 L467.5142171429005,187.90235458551552 L465.59890888611244,188.88291299266504 L462.2590815689606,190.80487140276642 L458.59388425529517,191.97802522647905 L454.2752127469512,191.79981452982514 L451.3885793535138,191.13092505404342 L449.3263077579654,191.17407921377134 L448.53612348071874,191.33390943498557 L443.23724068035847,192.8315186077631 z"/>
	<path id="yozgat-saraykent" title="Saraykent" class="district" d="M436.14950644958583,196.8360648002863 L438.4523877904549,195.83632676659113 L441.06491746834183,195.10110774900556 L443.23724068035847,192.8315186077631 L448.53612348071874,191.33390943498557 L449.3263077579654,191.17407921377134 L451.3885793535138,191.13092505404342 L454.2752127469512,191.79981452982514 L458.59388425529517,191.97802522647905 L462.2590815689606,190.80487140276642 L465.59890888611244,188.88291299266504 L467.5142171429005,187.90235458551552 L467.78763730803746,190.20870467763723 L467.8313845344593,193.09284101944843 L467.5907747891381,194.6487882229692 L467.0890487861111,195.8227411977879 L466.3029658113416,196.84405631134695 L464.6439889593705,199.4724642992154 L463.3343063683629,202.20316362866095 L463.1818746262993,203.60647297092214 L463.2474954659318,205.9032332497709 L463.8148423085918,209.01672595902457 L463.7273478557481,210.1651060984491 L462.0027501641446,213.6869650229051 L461.3048451926317,214.60518964378105 L459.73267924309226,215.83028828938833 L457.5282291616724,217.94883787158315 L456.76401980011354,219.07164517561333 L456.2404201838759,219.42886572002726 L453.3592551937413,219.68379492286388 L451.06731065947685,220.67953720102872 L449.47395464713975,222.185137884867 L448.53475637989266,223.2567995181086 L447.7274833423255,224.71125453115835 L446.7452213990692,227.49309953139237 L446.1778745564102,228.20754062022016 L443.9078036353569,230.17265319004937 L441.39712296898387,232.8010611779178 L438.9964939190786,235.6843983686229 L437.9923583626111,237.2411447232498 L437.9048639097675,240.04856255887813 L437.4462015827498,242.21745866075557 L437.3593906803187,243.54484864793992 L437.9923583626111,245.43324271158636 L438.14479010467517,246.70948702798216 L437.3805807431168,249.46496004171598 L437.4462015827498,252.17008653576718 L437.68681132807,254.39092745953926 L437.42842927201536,257.1384089622123 L437.3990366042638,259.4519514142886 L437.4865310571074,262.88830117039504 L437.6321272950431,265.2705706175936 L438.0101306733451,267.3124016936057 L438.2432213641244,270.9189706353053 L438.12701779394075,272.7562190281632 L437.8645344354099,273.91338982975435 L437.13723679614446,275.85292956418925 L436.72984075009,277.8603971426404 L436.70044808233746,279.7655733795143 L436.4680409419707,283.74694418996137 L436.52614272706273,286.36656151566297 L437.0497423432999,289.69103011691936 L434.1706280044039,289.85965100030046 L432.24916779390196,290.3399408150493 L430.6510269286746,291.3996151816998 L427.9742435119798,292.40974217977396 L426.11703704028577,292.81331348834 L423.8285102580855,293.11619175754095 L422.83531150822404,293.11619175754095 L420.30890918235565,292.0053717201019 L418.3443852958435,290.314367979655 L416.5521161133693,288.5474448841315 L414.00452372470136,286.3258048092533 L412.8171966575932,285.6697017511688 L411.714629841677,285.3492421576342 L411.1623211080993,283.1635638825293 L409.56007894039476,278.5676458715135 L408.5333862203046,276.8398811801874 L406.45470941484785,274.38089322680605 L401.54613390022024,271.5702787867533 L398.91719901242493,270.1358025513555 L396.93832056724347,268.75966434670073 L391.6045766958274,265.9778193464666 L389.95175179757223,264.5433431110686 L389.0754401683074,262.9626222232597 L388.6748796263808,260.73778554395733 L388.8498685320691,258.0150777255725 L389.7514715266091,254.61868552476955 L390.3024131593607,252.18846701120682 L392.4808883250927,248.93911861392107 L394.10910540848516,247.2409225135196 L398.69162737618655,244.9569486523679 L402.6480171657234,242.14633421231522 L403.9501807021901,241.53178701174647 L406.0541488729212,240.94600925099616 L409.0091373076432,240.3314620504274 L410.16091975328396,240.3314620504274 L411.93883437708985,239.453194984855 L412.99081846245537,238.42868326687167 L415.3948652644253,236.9350698496244 L415.89522416662714,236.49633589239141 L418.90079533189834,232.54373452176284 L420.77850831597897,228.7086083637268 L421.4798310395565,227.50828340240776 L422.03077267230856,225.69261208941384 L422.93237566684763,223.61402006252243 L424.33433756359017,221.33084535247684 L424.81008865092826,220.24719645264412 L426.88876545638453,218.43232429075636 L429.56828307473046,216.5878835379438 L432.07281178738816,215.1526081514399 L433.9006255913316,213.45521120214445 L435.8542126712373,210.61502817116715 L437.10579347715384,208.4780981135326 L437.83240756600617,206.92614666554212 L438.63352864985796,204.70130998623978 L437.9075981114187,201.68531371192674 L437.0312864821539,199.54838365429217 L436.14950644958583,196.8360648002863 z"/>
	<path id="yozgat-sarikaya" title="Sarıkaya" class="district" d="M306.21272492179327,329.4527933994956 L307.17789810472823,328.5121925476497 L310.1363042915134,326.24659916193764 L311.33456816522767,325.2029078174085 L313.8295271721059,322.6895775888145 L314.4713810097662,322.0430643440027 L316.0011668337095,321.05930933242894 L317.35322955031285,319.80703954921535 L318.3730867662752,318.1072451466017 L319.08739694769594,314.94740167319594 L319.70259231925587,312.919955317093 L321.2323781431991,309.99026736223584 L322.1503863476471,309.0960172745421 L323.5468798410858,308.1793909558783 L324.6364591991583,307.86612372229837 L326.52989384273377,307.62078433273444 L327.6010173396588,307.66473764356834 L328.65641917709,308.0619157432858 L330.4794481281423,308.4047515677904 L332.81855764089227,307.4401761827624 L334.97447564299955,307.9228634508294 L336.45778003887034,308.5957486821414 L338.06754126111633,309.5475376494723 L340.3991317193239,311.30327262951096 L341.8920058209742,312.9910797655334 L343.02943370794526,313.30994105685585 L345.6665712006945,313.42342051391796 L346.77597352073906,313.6192125349055 L348.2606450174349,314.2737172907779 L349.0221201773421,314.3863975967339 L350.7159581003685,313.74627756077086 L352.95253505119155,313.6128193260569 L354.82067832949167,313.19965820421805 L356.4427434591688,311.8019429196994 L358.04977047976365,310.10214851708577 L358.68068751081796,308.8051262719321 L359.694392773065,304.31070045138733 L359.8857868886611,302.92497243345974 L359.84750806554155,301.20280179987606 L358.64240868769895,298.3857941509749 L356.9595075712786,297.69213099090507 L353.76527649206196,297.3125342155211 L351.3174824636703,296.8873858270913 L346.9755702412896,296.52936613157124 L345.88530733280453,296.0378882013375 L345.02471736303505,294.18225933303995 L344.8141838358795,292.8628608569163 L345.0629961861541,291.3420763020627 L345.4266450057863,290.4478262143689 L346.30637438711625,289.5535761266751 L348.0466937382151,288.61377442593533 L355.16176998550117,286.7357693266679 L356.5001616938483,286.6015119408479 L360.44014627347633,285.7967667770342 L365.3555572922328,283.87400921582673 L366.8279248814975,282.64411566358297 L369.39123892965983,281.5932319590993 L371.4760676888314,279.93819001842564 L374.8610093332311,275.4437641978808 L376.46735280341335,273.7223927154033 L378.0743798240072,272.91684840048356 L380.5795920870784,272.7162614728595 L382.607002611571,272.7162614728595 L384.2516249048723,273.0734820172735 L385.8969307485866,273.9237787941332 L388.51697948101446,274.81802888182705 L390.3106157643151,275.54365808613977 L391.8308318824784,277.3393506214819 L393.2560344932566,278.4757434943153 L394.0332313126601,278.6020093690745 L395.13443102775074,279.2325395917647 L395.00455644931037,280.4696255039631 L396.34294815765753,283.1707562424839 L396.7318883425656,283.52398103136744 L398.7401594554986,284.38226931928796 L400.4025540595334,284.6348010688065 L404.2242844177406,284.6348010688065 L407.6352009778286,284.8617599829307 L411.714629841677,285.3492421576342 L412.8171966575932,285.6697017511688 L414.00452372470136,286.3258048092533 L416.5521161133693,288.5474448841315 L418.3443852958435,290.314367979655 L420.30890918235565,292.0053717201019 L422.83531150822404,293.11619175754095 L423.8285102580855,293.11619175754095 L426.11703704028577,292.81331348834 L427.9742435119798,292.40974217977396 L430.6510269286746,291.3996151816998 L432.24916779390196,290.3399408150493 L434.1706280044039,289.85965100030046 L437.0497423432999,289.69103011691936 L438.5535532515553,289.7333851255412 L439.84888128389366,290.6931656039328 L441.7060877555892,293.924133525779 L442.56941192701026,295.8676690157443 L443.5195470008614,297.2310208027019 L444.9010023852183,298.01338973554573 L445.82994739627236,298.1644292945931 L448.05353688925123,298.13965561030494 L451.31407235851384,297.68493863095046 L452.8896560601185,298.41696104411176 L454.03391945121746,299.5781276012332 L457.53164691373655,301.7997676761114 L458.0067144506626,302.6580559640319 L458.2657800571303,303.9454883959128 L458.3956546355707,307.9835989348908 L458.09352535309375,310.0541994507215 L456.04219056415144,311.6692838360916 L454.422859636125,312.32538689417606 L452.7816550948883,313.20924801749095 L450.5361919886983,315.25347654682116 L449.7159314932865,316.64240116917307 L448.50673081296713,320.5798186687862 L449.1116729283331,323.60860136079634 L449.6298041412679,324.26550356998695 L450.6230028911294,324.8209135887065 L453.01953063855836,324.87126010838904 L456.36619345983854,325.1989120618782 L458.6888977626797,325.2620449992579 L458.62054272139557,326.83956928264246 L458.051145227497,330.6003743878139 L457.3812658229106,331.6384716746005 L452.45491799754956,335.39927677977187 L451.1479696081926,336.26156082322274 L448.47597104438904,336.6203796698487 L442.4443222014601,337.76955896037924 L439.2719647354537,338.23945981074917 L435.6976796266965,338.5790990308295 L433.4638368775241,338.5790990308295 L431.1404490242704,338.13557016695984 L429.82188027789533,338.08282619395925 L426.0917456750094,337.63929733008973 L420.26106065345664,337.76955896037924 L418.51800710070563,337.97813739906394 L418.00466074066105,338.21388697535497 L417.1556911279092,339.20643264909535 L415.9266674856178,341.2954136403657 L414.4973635723619,343.3851937827421 L413.2239091532347,347.56395491638875 L412.24096365956626,352.57862810698606 L411.5929578681911,357.3319788858979 L411.3475632699796,359.65591030235316 L411.5929578681911,362.8429249133654 L412.1069877786492,365.1149115079261 L412.66544846594167,369.26730065507235 L414.05032160236277,373.6026954055091 L414.8323032746551,375.35283632780505 L414.9307345341048,377.26360662242143 L414.32989372121557,378.73084805316836 L412.5123331734646,380.5417244595259 L408.8191102928731,383.1533502741667 L406.0787566877835,384.1283146235737 L404.4703625663641,384.05878847734556 L401.8195540653572,384.1634772722408 L396.4577846270151,383.95409968245013 L391.8110089205063,383.850210038661 L382.9159673981763,381.6733224257228 L379.2077064085015,380.08061427132276 L378.15777297437506,379.2702750497664 L376.7503426743303,376.8680268249162 L375.9239302252027,374.1772850507743 L376.0134753292854,370.1815295204179 L376.52682168933,367.51795888388233 L377.50976718299887,363.2600817907346 L376.28142709112007,360.7011999490943 L375.1419485529104,359.31707023337896 L373.48912365465515,357.7755077497676 L372.4610638337389,357.3575517212923 L370.8082389354841,357.4886125026879 L368.7753600076878,358.0104581749525 L367.300941767184,358.6633646286127 L365.0219846907647,361.4579960465439 L363.8380753757207,363.80909860060564 L363.6815423311799,365.81976278348094 L365.2455056757645,370.0768407255226 L366.7424810798915,373.3677449803241 L367.0774207821847,374.67355788764456 L367.03299000534986,376.05848675446606 L365.93794224397504,379.9231815034268 L364.687044988472,381.1514767534583 L362.9002442092997,382.09127845419806 L359.8618626242113,383.0055073195436 L356.57535223926084,382.82889492510185 L354.4809537743092,382.51562769152196 L350.3420560245423,381.6733224257228 L349.08569036573647,380.6743835431337 L347.15876175193125,378.7939809905481 L344.7123348243656,373.72096976920767 L344.1094433602378,372.76039013970984 L343.422475195331,372.2321512585969 L340.4237395341862,370.9583043955192 L338.73126871198684,369.8618690779894 L337.16457116575015,368.6671381744128 L335.89111674662246,368.0661765426472 L332.71875928061746,367.75290930906726 L330.2395219332346,367.83122611746234 L327.6030679908984,367.2302644856967 L325.3692252417265,366.49904122364154 L323.47032219484726,365.61118434479636 L321.57141914796904,365.3234899466107 L316.83578188779103,366.00276838677127 L314.9368788409123,366.0291403732716 L313.6183100945372,365.01022271303066 L309.79863038756906,361.64100164983427 L309.4636906852759,360.59651115419905 L309.485564298487,359.47370385016893 L310.2231151939455,356.96596767931726 L311.3844673453653,353.9363858362011 L311.6975334344483,352.342878530695 L311.78707853853007,349.15666307078885 L311.8315093153654,343.4635105911371 L311.18350352399017,337.0902805202187 L310.4240790153206,335.1051891727376 L307.609218415232,331.1094336423813 L306.21272492179327,329.4527933994956 z"/>
	<path id="yozgat-sorgun" title="Sorgun" class="district" d="M411.714629841677,285.3492421576342 L407.6352009778286,284.8617599829307 L404.2242844177406,284.6348010688065 L400.4025540595334,284.6348010688065 L398.7401594554986,284.38226931928796 L396.7318883425656,283.52398103136744 L396.34294815765753,283.1707562424839 L395.00455644931037,280.4696255039631 L395.13443102775074,279.2325395917647 L394.0332313126601,278.6020093690745 L393.2560344932566,278.4757434943153 L391.8308318824784,277.3393506214819 L390.3106157643151,275.54365808613977 L388.51697948101446,274.81802888182705 L385.8969307485866,273.9237787941332 L384.2516249048723,273.0734820172735 L382.607002611571,272.7162614728595 L380.5795920870784,272.7162614728595 L378.0743798240072,272.91684840048356 L376.46735280341335,273.7223927154033 L374.8610093332311,275.4437641978808 L371.4760676888314,279.93819001842564 L369.39123892965983,281.5932319590993 L366.8279248814975,282.64411566358297 L365.3555572922328,283.87400921582673 L360.44014627347633,285.7967667770342 L356.5001616938483,286.6015119408479 L355.16176998550117,286.7357693266679 L348.0466937382151,288.61377442593533 L346.30637438711625,289.5535761266751 L345.4266450057863,290.4478262143689 L345.0629961861541,291.3420763020627 L344.8141838358795,292.8628608569163 L345.02471736303505,294.18225933303995 L345.88530733280453,296.0378882013375 L346.9755702412896,296.52936613157124 L351.3174824636703,296.8873858270913 L353.76527649206196,297.3125342155211 L356.9595075712786,297.69213099090507 L358.64240868769895,298.3857941509749 L359.84750806554155,301.20280179987606 L359.8857868886611,302.92497243345974 L359.694392773065,304.31070045138733 L358.68068751081796,308.8051262719321 L358.04977047976365,310.10214851708577 L356.4427434591688,311.8019429196994 L354.82067832949167,313.19965820421805 L352.95253505119155,313.6128193260569 L350.7159581003685,313.74627756077086 L349.0221201773421,314.3863975967339 L348.2606450174349,314.2737172907779 L346.77597352073906,313.6192125349055 L345.6665712006945,313.42342051391796 L343.02943370794526,313.30994105685585 L341.8920058209742,312.9910797655334 L340.3991317193239,311.30327262951096 L338.06754126111633,309.5475376494723 L336.45778003887034,308.5957486821414 L334.97447564299955,307.9228634508294 L332.81855764089227,307.4401761827624 L330.4794481281423,308.4047515677904 L328.65641917709,308.0619157432858 L327.6010173396588,307.66473764356834 L326.52989384273377,307.62078433273444 L324.6364591991583,307.86612372229837 L323.5468798410858,308.1793909558783 L322.1503863476471,309.0960172745421 L321.2323781431991,309.99026736223584 L319.70259231925587,312.919955317093 L319.08739694769594,314.94740167319594 L318.3730867662752,318.1072451466017 L317.35322955031285,319.80703954921535 L316.0011668337095,321.05930933242894 L314.4713810097662,322.0430643440027 L313.8295271721059,322.6895775888145 L313.1507616121525,319.7662828428057 L312.70235254132734,314.38879505005207 L312.9839753114187,313.7798419072258 L312.64630140747437,311.1953872301913 L311.50340511720054,309.7409322171416 L310.65580260527435,308.02595394351266 L309.92577076435776,307.63277159932557 L303.13401386234773,305.8634510504838 L301.30961781046847,304.98917974044184 L299.3614991338651,302.6980135193354 L298.0976144205174,300.34771011637986 L295.6655420516215,295.36740042334367 L294.58621594974153,294.1582847998578 L292.9901257357523,292.9579598385388 L287.75481312378645,289.4904431892956 L285.7697827248891,288.66332179451183 L284.6152660775972,286.0285205977948 L283.26935531470815,285.4747088812875 L281.94121686255403,284.3063499642112 L281.72111362961795,283.3074110816221 L282.7471227992961,280.0236991867753 L282.69859071998405,278.6251847511505 L282.23445998966355,277.36891921240647 L281.25766644971094,276.28367201036167 L281.06217103163766,274.8276186950999 L281.4039462380592,271.0308517901553 L280.2562650948956,270.03111375646006 L278.9130885336587,269.40298098708814 L278.1803224910905,267.5761215586092 L277.7900152053569,264.52096688009874 L277.91168717884284,263.2647013413547 L277.6184440517334,262.0659746822477 L276.54390280274316,259.49590472512256 L276.2021275963221,258.12536057821023 L275.2984739505439,256.5837980945988 L272.7064507850406,254.589916084951 L271.9395072218311,253.39518518137444 L271.62028917903325,251.86401166214196 L269.5921951041267,248.12957854347079 L269.24085019192563,244.26488379451018 L269.7042973718336,241.35197801288035 L270.02351541463145,240.30668836613918 L270.7897754274289,238.7387538960273 L270.7740537679331,237.97316713641104 L269.9592616758245,235.84422858983717 L269.5286249157328,234.31385422171076 L269.5286249157328,232.07303452028685 L269.81571608912697,229.62763213570872 L271.0132964124287,223.95126182928456 L272.6421970462342,219.63904246092392 L273.96760129673714,215.13902258263667 L274.12755209334256,212.13341527270256 L274.09542522393934,208.08171916492125 L273.87190423893907,206.25166313201794 L273.520559326738,205.01937212645612 L272.81786950233396,200.79985428639978 L272.0673311490323,198.52227363409668 L269.8608304163748,195.08672302909628 L268.79654242357765,193.04569110419027 L268.1362327247708,190.80567055387252 L268.1786128503671,184.9303116220365 L268.73228868477025,183.4119245205011 L270.4145062507776,181.71932247784218 L270.5423301779798,180.17536254091243 L271.5430479823821,178.50753418254163 L273.8855752471963,177.21290939070622 L276.759904733202,177.23848222610047 L278.42093223641075,177.53656558866504 L280.0819597396204,177.48701822008871 L282.78608517282765,176.96437339671797 L284.04245083163397,176.3666083693767 L286.1286466916316,174.7491265306885 L288.0877021748405,172.83196302722345 L289.70634955245345,171.58688560396445 L292.21839731965304,169.02320885568787 L293.19792506125725,166.60817421314044 L293.325748988459,164.79090459793437 L292.98534088286254,160.335637181587 L293.4118763404771,156.4189976107317 L296.0879762067588,155.55591441617472 L300.4169009712953,155.13396263216916 L302.4135517272097,155.35932324408125 L305.3473500991336,155.86518589422434 L310.80755079692585,155.38729353279376 L313.42896663017973,154.62809998202607 L315.78653200407615,153.51648079348095 L316.5931214912313,152.75249233607676 L317.85700620457845,150.4077829908636 L317.68065019806465,147.0873101451375 L318.7722802073758,145.0326926514282 L319.79623872581533,143.80919230803315 L321.4524813761338,142.50977260956125 L322.8476077687474,141.79692982294566 L323.6972609319117,140.98099654364694 L325.6583670663588,139.7838681867522 L328.1211992038328,139.19809042600193 L332.47951663612184,138.6626591849341 L335.5958229682744,138.68823202032843 L338.36351858987695,139.121371919819 L340.5864245324433,139.7838681867522 L344.160709641201,141.00656937904117 L346.3467038614739,140.68770808771882 L350.0433444941305,139.74391063144853 L350.3598283352767,140.45675341806415 L351.1493290621104,143.2513848359954 L351.74128371963263,144.7641778797883 L352.09194508142167,146.5846440994187 L351.4124959710553,149.37927551734992 L353.14461271720023,152.66138910998455 L354.26358474302475,155.558311869493 L354.7454877840792,156.2248038919564 L358.122910373938,159.5324903199854 L361.71975264631936,162.9160961030912 L363.1012080306758,164.73656232272154 L363.8469615310877,165.94168219067706 L367.72816077521105,171.09540767373062 L368.36454620956863,172.47953738944602 L368.14512652704605,176.27390684107243 L368.71520757135767,177.68440854328827 L370.05291572929224,179.17162875168688 L371.7412852490149,179.81254793875607 L376.56578406286206,181.35091381794322 L381.7416277889118,183.78672638924849 L384.81145269299134,184.47879124710622 L386.56612660275994,184.99104710609788 L388.38642135216156,185.78620245663885 L389.635951506839,186.81151332572824 L391.06183766803025,188.2475878633383 L392.3557985995426,190.42687292959465 L394.7017436164209,193.45245901718056 L395.2280774343102,195.81075393119679 L396.30261868329893,201.19463493279903 L396.8289525011882,205.47648655912886 L397.48721154875744,207.14351576639356 L398.605500024168,208.5787911528975 L401.1496746607708,209.50181068040982 L404.1538787252169,209.14299183378378 L406.5005072925078,208.24554514166587 L408.1013823593873,207.22023427257636 L409.83349910553267,205.34862238215743 L412.09263321997946,202.707427976592 L415.8863380112592,200.29798739178705 L417.46533946492707,199.06729468843733 L419.0443409185949,198.73404867720555 L420.90838289441933,198.73404867720555 L423.47374759382024,198.0411846682417 L425.62351364221223,197.7590843277986 L429.6147645028039,198.27213933789636 L432.04888752293937,198.24656650250202 L434.1979700209183,197.6823658216157 L436.14950644958583,196.8360648002863 L437.0312864821539,199.54838365429217 L437.9075981114187,201.68531371192674 L438.63352864985796,204.70130998623978 L437.83240756600617,206.92614666554212 L437.10579347715384,208.4780981135326 L435.8542126712373,210.61502817116715 L433.9006255913316,213.45521120214445 L432.07281178738816,215.1526081514399 L429.56828307473046,216.5878835379438 L426.88876545638453,218.43232429075636 L424.81008865092826,220.24719645264412 L424.33433756359017,221.33084535247684 L422.93237566684763,223.61402006252243 L422.03077267230856,225.69261208941384 L421.4798310395565,227.50828340240776 L420.77850831597897,228.7086083637268 L418.90079533189834,232.54373452176284 L415.89522416662714,236.49633589239141 L415.3948652644253,236.9350698496244 L412.99081846245537,238.42868326687167 L411.93883437708985,239.453194984855 L410.16091975328396,240.3314620504274 L409.0091373076432,240.3314620504274 L406.0541488729212,240.94600925099616 L403.9501807021901,241.53178701174647 L402.6480171657234,242.14633421231522 L398.69162737618655,244.9569486523679 L394.10910540848516,247.2409225135196 L392.4808883250927,248.93911861392107 L390.3024131593607,252.18846701120682 L389.7514715266091,254.61868552476955 L388.8498685320691,258.0150777255725 L388.6748796263808,260.73778554395733 L389.0754401683074,262.9626222232597 L389.95175179757223,264.5433431110686 L391.6045766958274,265.9778193464666 L396.93832056724347,268.75966434670073 L398.91719901242493,270.1358025513555 L401.54613390022024,271.5702787867533 L406.45470941484785,274.38089322680605 L408.5333862203046,276.8398811801874 L409.56007894039476,278.5676458715135 L411.1623211080993,283.1635638825293 L411.714629841677,285.3492421576342 z"/>
	<path id="yozgat-yenifakili" title="Yenifakılı" class="district" d="M218.83515919844933,391.27432381406294 L220.81130344197965,390.108362350305 L222.66850991367465,388.8361137894396 L228.45134640632892,383.5497292227781 L233.21979408632365,380.2764062923102 L237.53778204425407,376.9479419355233 L243.16066774030338,373.0368964224105 L245.3671684729614,371.73348096840823 L247.1464501975923,369.958566361824 L250.1123754389189,368.37704632290905 L252.08168417832036,367.60027144780776 L255.07085013368464,367.0736308689067 L257.9889268461122,365.3818279773538 L262.02255783230106,362.2475573393423 L262.2488130189515,361.9758459632781 L264.29673005583015,364.7129385015721 L265.7157807128925,367.92872255240303 L266.3371280381683,369.9689553262029 L267.6386080242215,373.4268821621733 L269.53135911738394,378.9242426208377 L269.88612178165016,381.7252672476174 L270.9210171066948,388.4333416319797 L271.35370451802464,392.42669970901784 L271.81988589958326,394.9424273909301 L272.64014639499607,396.2386504849778 L276.588333579578,400.0250284255435 L277.7421666764584,401.0103817393294 L282.11210446576507,403.9664416806869 L285.3945135482383,405.6007056926028 L287.0582752530982,405.88520348636416 L290.89572727080076,405.8340578155756 L293.912235242678,406.1705004312315 L295.2212342832736,406.01546511665373 L297.9711575941422,406.6380038282833 L299.05868630097564,407.3900050190963 L299.5904885221667,408.1675790453036 L299.9233775732218,410.06076801558646 L300.1892786838183,414.00218127073 L300.96579195280833,418.41109792292514 L301.69787444496393,420.77099113915364 L302.60768004445845,425.6466120372944 L302.76284598817364,427.56537384297167 L302.69585804771464,428.99185856730884 L301.8974711655135,431.87040085137755 L299.5426399932692,434.7745159708405 L298.2712362253796,436.7452225984123 L297.502242010931,438.7159292259841 L296.35319376694184,444.09901107648017 L296.1166853240974,445.94265267818656 L295.4857682930435,449.58518341965953 L294.8944971859343,450.8758124559645 L294.26358015488,453.31881738722444 L293.98742578809146,458.4365810705048 L293.4747629784584,461.9864102836734 L293.040708466303,464.38386360188724 L292.33118313777203,466.32020673189794 L291.2272492210307,468.0719459564062 L290.16227767782004,469.03971794585846 L288.2695265846571,470.1465422277671 L286.88943830112623,470.46939927461995 L283.89275329122154,470.884158698671 L280.02795925700605,472.26748926328025 L278.095562239898,473.14335887553443 L276.8166394174675,474.2749568417314 L275.00249662178175,474.62898078172094 L274.03869053967287,474.4523683872792 L273.5089389697194,474.0104378256218 L273.39546960118696,473.2144833239749 L273.7550171183434,472.41932797343384 L273.49048310857245,471.1814429101295 L272.01606486806963,470.3862875595885 L270.3427334574288,469.079675501162 L270.2203779335303,468.2429642931054 L271.16572815449223,466.1875476482901 L271.71393558559265,464.3095425490227 L271.4302621642627,460.92913337034116 L271.56218739394166,459.2277406655154 L271.3735274799967,458.8297634146919 L268.34950045357857,456.11185050294347 L266.1566707291768,454.3657053361778 L263.61454674381264,452.81854879482364 L262.1230397429889,451.7452888593701 L257.4195293522136,449.5460250154619 L255.76738800437187,448.1778783218679 L253.31207492143875,445.5222991963931 L250.44389738914884,441.6592027496446 L250.673570327864,440.21034179433735 L251.84380863465174,439.1914241340965 L253.97785302354794,437.7697343163956 L256.43316610648105,435.89172921712816 L256.68539620882086,435.3019557008476 L257.8098366379477,431.2774307306727 L258.98007494473546,427.4950485456374 L259.73676525175244,423.09572170671504 L259.50777586344987,418.7499379918994 L259.0538983893219,416.09595716863674 L258.7134902837259,415.15695461900293 L257.5145428595996,414.70383594186063 L255.88974352827034,414.51763373414593 L254.89517767758434,412.3447418767381 L254.69899870909796,410.8878894103702 L254.0462080648325,409.8457963680533 L252.577258227632,409.3687031577287 L251.5567174612571,409.6540001025962 L250.7761028897894,410.38682166686357 L249.41310336658046,411.2762768479209 L247.86759588314186,411.54319331734877 L247.55726399571103,411.0804848269334 L247.43832622387572,408.2618788758201 L247.2086532851606,406.46458803826573 L247.5764034072705,404.2381530567512 L246.56679944750124,401.2061737603168 L244.84561950796183,398.6848520206619 L243.39991038479803,397.531676974601 L242.11551915906574,396.8068469213944 L239.36149454572035,396.08281601929394 L238.21449695296928,396.1099871569003 L234.79606133833988,395.89501550936717 L231.6066151120125,395.38515710369364 L228.85327404908116,394.63395506398666 L226.0076536804139,394.0713526853125 L223.18527402578349,393.18589325978553 L218.83515919844933,391.27432381406294 z"/>
	<path id="yozgat-yerkoy" title="Yerköy" class="district" d="M142.35543770706562,340.1478326520473 L136.26295287739353,337.5537881617401 L134.37020178423109,336.4237884977553 L132.27990462175575,334.648873891171 L130.6831308573535,331.90538814402834 L130.3673305666198,330.130473537444 L130.3276846426757,327.08730612552455 L131.21493307854556,324.0209633315291 L131.53073336927923,321.1168482120661 L132.08304210285638,318.603517983472 L132.99011350070023,316.36749318868465 L134.17333926533172,312.07924835350616 L134.78443333441348,310.6735415579268 L136.6771844275759,307.03101081645394 L137.58425582541977,304.72545987543833 L137.64372471133692,304.1260965458848 L137.18984723720894,302.88101912262584 L136.4010300607883,301.6135654683967 L134.9026875558357,300.068806380361 L133.2464449055158,298.63912505159954 L132.31955054570037,298.01738549107597 L124.76700203419566,295.08929583843087 L122.26315687194952,293.9592961744462 L120.11339082355803,293.24485508561844 L118.35871691378989,292.94517342084157 L117.25478299704761,292.57676476094286 L116.16998849186487,291.93105066723723 L115.20344820810485,290.24803843785116 L115.0209402478757,288.45234590250897 L115.66962958966346,286.64386694946967 L115.14534642301376,286.2059321433427 L113.33188717773956,285.7975659281401 L112.60869084095185,285.83672433233767 L112.47539851044732,284.9416750935379 L112.74403382269452,283.5591436800346 L113.78849885351914,282.3092713501391 L115.75097208879222,281.5572701593261 L117.2294916317718,279.91021972971316 L116.90822293773584,276.66486708795776 L116.7749306072318,273.8542526479051 L112.85476898957535,272.4829093498867 L105.28923302022548,271.5718770889655 L88.19500429584113,266.2735052557131 L76.51176063952339,262.6253804564976 L64.5639829734357,258.4889743314727 L54.145991131291254,254.1176177812629 L46.877799591528586,248.2958019735337 L44.25706730868774,244.33440994073842 L43.66647975199106,243.7150678335332 L38.517294492042254,239.14951756454792 L36.988875768925055,238.02750941162387 L35.483697759844105,235.04427833265981 L33.88145559213953,233.31012043248518 L30.71183232778472,233.3364924189855 L25.788218704075305,234.01257425472184 L20.147560697292548,233.4251981917594 L18.13450473146878,233.0400073586331 L16.414008342342456,232.7115562540378 L9.012524472075249,229.71074385074016 L3.866073413778082,226.2640051302548 L2.2358056791470204,222.308207155202 L2.167450637862423,216.27381715325782 L1.9965630346514018,213.93310356357503 L2.94806520932962,213.15792699068595 L3.5386527660262956,212.3467886180236 L5.113552917216943,211.1872203631142 L5.628266378088107,208.37580677195547 L5.6802162094638575,205.5444144031449 L5.319301591482798,203.85740641822844 L4.271418808593985,200.7247340824291 L3.962454021988677,198.57581675820342 L4.082758894649523,197.19008874027583 L4.958386973501746,195.58299586596652 L6.659060400655527,193.3541634311338 L7.8785143371679,192.79156105245954 L12.826052225328056,192.4303447525154 L13.667502783537977,192.53103779188032 L16.450236514222873,192.47030230781894 L18.391519686697848,192.55101656953207 L21.277469529722197,192.87227531417273 L24.730082664993446,192.6708892354428 L27.255117890036246,192.10908600787477 L30.123978972740176,190.9439236952228 L32.477443044159415,189.7188250496155 L34.93343967750506,189.19697937735103 L37.71617340819046,189.65888871666024 L39.468113116307435,190.22149109533433 L42.25084684699233,190.8240510293121 L44.53595587712746,189.75958175602514 L46.236629304281735,189.57817445494697 L46.889419948547186,189.79953931132877 L48.847108330930524,189.5581956772952 L50.084334578176836,190.1407768336212 L50.95996265702907,190.0201050166044 L53.236185531796735,187.86559363463627 L54.60191925665782,186.82749634784963 L57.40174174766362,185.80298462986633 L62.07380881944775,184.6586002459722 L63.96382571095951,184.7385153565794 L68.10340701113853,185.30111773525357 L71.91693476439133,185.10053080762964 L75.06058311305729,184.57788598425907 L76.72639546915671,183.99530482793307 L78.9082883869519,181.86716543246524 L81.2268913873163,180.44068070812804 L83.16817455979127,178.99501635724516 L83.75192661235957,178.25180582859883 L84.90302550758784,175.56106405445692 L86.39043120593485,176.6966577761842 L87.81016541341032,177.50220209110398 L89.15881037795,178.57546202655777 L90.89161067450797,181.29177663609403 L92.34552240262522,183.2153333484075 L94.23895704620116,184.8248236760351 L94.88901348881498,185.11571467864502 L96.38120404005176,186.41273692379875 L98.17894162583013,191.46576936748738 L100.16807332720416,200.43224477760705 L101.46818621243179,202.33342525895057 L102.80726147119196,203.80865820075817 L104.0315002605941,205.50845260337175 L106.13546843132565,207.34170524069924 L111.56696001177838,208.6387274858529 L114.91362283305904,209.5777300354866 L118.77704976644898,211.0090096664603 L121.95214143410658,212.81988607281784 L123.42450902337129,214.22878947282146 L125.26120898268076,216.5990716534288 L125.60503484034092,217.49332174112251 L126.3699277523123,221.33963601464362 L126.44648539855132,222.56952956688733 L126.9024135239174,223.508532116521 L127.79513036309152,224.61136064289943 L129.24835854079572,225.44647354874394 L134.0174897712035,227.443552162816 L135.26701992588093,228.30823365958508 L137.995753173951,231.31943502726162 L139.37242370541765,233.10873435375524 L140.54539621385658,236.17907290328105 L141.2597063952778,239.6377988903575 L141.82090128422192,246.673525228209 L142.38141262275352,250.60934442560995 L143.22354673137644,253.23295750684193 L144.16684630110026,254.12720759453575 L146.15597800247377,254.8424478344695 L148.55318930031578,254.93195275834952 L151.07754097494603,254.15677618546033 L152.9388487491188,253.17302117388667 L155.56573298567497,251.38452099849917 L159.39088109594638,249.6847265958856 L162.8332409750251,248.2838147069426 L164.95019660360083,247.5382067249781 L167.2961416204787,246.9124714089243 L170.5600948418055,246.97160859077363 L173.08513006684828,247.7172165727381 L175.0995531334976,248.52196173655176 L176.45093229968845,249.44657956627628 L178.41477263578713,251.0560698939039 L179.86800081349233,253.17302117388667 L181.72999213807762,256.0947176176832 L184.3309014589464,260.65627213113794 L185.73354690609997,264.2932088148683 L187.2380413647679,266.2615179891219 L187.82452761898784,269.3622242806785 L186.85525313357618,271.26979797087057 L185.4273163211468,272.1640480585644 L179.63901142518975,274.19149441466715 L175.9157123264327,274.728523957947 L173.85002297881965,275.65234263656544 L172.549226543179,276.9941173436591 L171.96274028895905,278.574039080362 L171.73375090065696,280.66142176942014 L171.68248461969375,283.01652007901214 L172.01400656992274,286.08765777964413 L172.24367950863885,287.0418442002932 L173.1063201296464,288.0847363937162 L174.70446099487376,289.67504709479806 L176.71068145656915,290.54931840483994 L180.04230616876703,291.10632672577174 L182.81615374408497,290.40547120574706 L182.74369740032412,291.6129885270209 L181.8851580817928,296.4494510209642 L180.87008571872073,300.64739178115656 L179.82972199037332,303.20227786726645 L177.1775463885408,305.944964463303 L175.75986283230398,306.3493349229751 L174.33055891904903,304.7622208263175 L173.00652176937163,304.2947174292659 L169.6003900621738,304.75422931525685 L168.52106396029384,304.98917974044184 L167.38158542208322,305.97533220533376 L166.50937509529615,306.4572203222947 L164.61730755254578,306.83042388882996 L162.80726605933674,309.37492101056097 L162.12576629773176,311.40796142440627 L160.41962446727518,313.17967942656617 L158.0518058371862,315.0049405528331 L155.0339307644829,316.86056942113055 L154.3312409400798,317.4687234128508 L151.78159790017472,319.17171441988864 L149.9079862185708,320.66213123271154 L148.24285741288443,322.21408268070206 L145.77113912004344,324.1608147750916 L145.06844929564033,324.92080747696536 L144.8346750544485,326.35048880572685 L144.96454963288886,329.1794837212191 L144.31449319027504,333.46852770750377 L144.02808556729292,334.59453161595815 L143.27344591151459,336.3582581070574 L142.35543770706562,340.1478326520473 z"/>
	<path id="yozgat-merkez" title="Merkez" class="district" d="M313.8295271721059,322.6895775888145 L311.33456816522767,325.2029078174085 L310.1363042915134,326.24659916193764 L307.17789810472823,328.5121925476497 L306.21272492179327,329.4527933994956 L304.1942005526672,330.9871635231524 L301.05807125854216,332.50714892689996 L297.5897364637751,333.6699137862337 L296.1358247356578,334.59453161595815 L291.3420856903873,337.30764962107 L289.735058669793,337.6648701654839 L288.07744891864843,337.54579665067934 L286.10472242718185,336.9448350189138 L282.39099303420477,336.94962992555014 L279.27058539957505,337.2557047991755 L276.4235979300833,337.22773451046294 L274.66755691948856,336.61798221653055 L271.60388396912435,334.38595317727356 L266.9119939353687,332.6270215928107 L263.7498897255563,330.8377222663171 L261.2761207814757,328.5721288806051 L255.41057468886805,321.98312801104737 L249.92850037786468,315.5139998074004 L248.49988001502226,313.4266171183423 L247.22505849506945,310.564857007501 L245.51618246296124,307.6727291546291 L243.65487468878848,305.495841541691 L241.0279904522323,303.82641488110806 L236.84602902645707,299.65244865409784 L235.6477651527428,297.92388481166574 L234.44881772861504,296.8801934671367 L230.41997159531786,294.07757053814464 L228.22645832050307,292.64629090717096 L224.01920552945296,288.41318749831146 L222.31032949734475,286.3258048092533 L220.16876605390672,284.8353879964304 L219.4031895915213,284.5668732247904 L215.68057404317727,284.35829478610583 L213.51235213363884,284.954461511235 L210.6817698740549,284.7163144816258 L209.12669268483583,284.3878633770304 L207.3925252874528,283.73176031894593 L204.89346497809785,282.24134350612303 L203.6945175539701,281.9728287344831 L201.2720148908537,281.8537552196785 L197.09005346507846,282.06233365836306 L195.45773507920927,282.44992194480767 L192.6907230080192,283.9906852773131 L188.37273505008878,287.09139156886954 L183.51064096353363,290.15214030512266 L182.81615374408497,290.40547120574706 L180.04230616876703,291.10632672577174 L176.71068145656915,290.54931840483994 L174.70446099487376,289.67504709479806 L173.1063201296464,288.0847363937162 L172.24367950863885,287.0418442002932 L172.01400656992274,286.08765777964413 L171.68248461969375,283.01652007901214 L171.73375090065696,280.66142176942014 L171.96274028895905,278.574039080362 L172.549226543179,276.9941173436591 L173.85002297881965,275.65234263656544 L175.9157123264327,274.728523957947 L179.63901142518975,274.19149441466715 L185.4273163211468,272.1640480585644 L186.85525313357618,271.26979797087057 L187.82452761898784,269.3622242806785 L187.2380413647679,266.2615179891219 L185.73354690609997,264.2932088148683 L184.3309014589464,260.65627213113794 L181.72999213807762,256.0947176176832 L179.86800081349233,253.17302117388667 L178.41477263578713,251.0560698939039 L176.45093229968845,249.44657956627628 L175.0995531334976,248.52196173655176 L173.08513006684828,247.7172165727381 L170.5600948418055,246.97160859077363 L167.2961416204787,246.9124714089243 L164.95019660360083,247.5382067249781 L162.8332409750251,248.2838147069426 L159.39088109594638,249.6847265958856 L155.56573298567497,251.38452099849917 L152.9388487491188,253.17302117388667 L151.07754097494603,254.15677618546033 L148.55318930031578,254.93195275834952 L146.15597800247377,254.8424478344695 L144.16684630110026,254.12720759453575 L143.22354673137644,253.23295750684193 L142.38141262275352,250.60934442560995 L141.82090128422192,246.673525228209 L141.2597063952778,239.6377988903575 L140.54539621385658,236.17907290328105 L139.37242370541765,233.10873435375524 L137.995753173951,231.31943502726162 L135.26701992588093,228.30823365958508 L134.0174897712035,227.443552162816 L129.24835854079572,225.44647354874394 L127.79513036309152,224.61136064289943 L126.9024135239174,223.508532116521 L126.44648539855132,222.56952956688733 L126.3699277523123,221.33963601464362 L125.60503484034092,217.49332174112251 L125.26120898268076,216.5990716534288 L123.42450902337129,214.22878947282146 L121.95214143410658,212.81988607281784 L118.77704976644898,211.0090096664603 L114.91362283305904,209.5777300354866 L111.56696001177838,208.6387274858529 L106.13546843132565,207.34170524069924 L104.0315002605941,205.50845260337175 L102.80726147119196,203.80865820075817 L101.46818621243179,202.33342525895057 L100.16807332720416,200.43224477760705 L98.17894162583013,191.46576936748738 L96.38120404005176,186.41273692379875 L94.88901348881498,185.11571467864502 L94.23895704620116,184.8248236760351 L92.34552240262522,183.2153333484075 L90.89161067450797,181.29177663609403 L89.15881037795,178.57546202655777 L87.81016541341032,177.50220209110398 L86.39043120593485,176.6966577761842 L84.90302550758784,175.56106405445692 L86.55243265377891,173.89403484719224 L88.097940137217,171.86578933998337 L90.15952818235283,170.35938950503896 L94.23075444124723,168.37110155313363 L97.33954171885884,166.72485027462687 L98.83378292133372,165.72031733429523 L101.70264400403715,164.29463176106412 L102.56186687298103,164.013330571727 L104.8121148320613,163.17022615482188 L106.22022868251864,163.19020493247365 L109.22648339820333,163.7927648664514 L110.97842310632032,164.37454687167127 L112.55879166081422,164.67582683866016 L117.24863104333178,166.18222667360442 L118.45099621952326,166.86550086929532 L120.59802806626362,167.48803958092486 L124.205123594838,167.567954691532 L126.76501989093614,168.150535847858 L130.2518105468497,169.5362638657856 L135.5595795025779,172.50830682926465 L137.48377391473147,173.97474910890537 L138.30813571262098,174.75791719285522 L140.04298666041706,176.02297339376614 L141.77783760821313,177.0067284053398 L144.80118108421922,178.13113401158205 L148.33992157150854,179.61755506887468 L151.44939239953268,180.66204556450987 L155.53702386833496,181.20387001442612 L158.38879619071798,181.2238487920779 L159.4708564942491,181.12395490381908 L160.34716812351337,180.62208800920624 L161.25765727342045,179.7382268858915 L163.35342283919906,178.41243520091916 L166.11838425914902,175.29974164277158 L166.99469588841478,173.23153858025918 L167.25239439405638,171.90574689528688 L168.14579478364303,169.75682957106122 L169.21418407891645,167.75975095698914 L169.24972870038434,166.6633156394594 L168.74458494529364,165.01786351205868 L168.38435387772464,163.05674669775973 L169.08772725254076,161.51678251636037 L170.83009725487776,159.5356869244097 L172.53282133327062,157.17259710375694 L173.5608811541864,156.2447826696082 L174.87808279973592,155.6757870820854 L179.20700756427246,156.1816497322285 L180.12706641996002,156.41340355298928 L186.20588024137587,157.2996621296223 L192.71806502453316,157.82630270852326 L195.06332649099798,158.22747656377095 L198.41545771558143,159.88651425997506 L203.9713554711722,161.88279372294102 L205.46217892158387,162.0793848950346 L209.47872114745041,162.0234443176096 L211.47537190336578,161.74214312827246 L213.7844051979502,160.8422989828362 L218.3539397078079,159.2959415925883 L221.3123458945936,158.3681271584395 L224.24614426651647,156.48372885032347 L226.29064355133136,154.54338996478245 L227.10885339550458,153.53166466449622 L228.11845735527385,151.7319763736237 L230.59564405141765,149.45439572132062 L232.56837054288422,148.52658128717184 L235.2137106405874,148.75114274797784 L237.49881967072253,150.2135892720883 L238.8693382484724,151.47864547299912 L239.13387225824334,152.54711050181643 L239.35055773911478,156.455758561611 L239.23025286645395,158.22747656377095 L239.35055773911478,160.22375602673708 L239.7839287008572,161.62946282231644 L240.96236961259837,163.42915111318894 L242.7416513372308,164.49761614200625 L244.08892920094394,164.6662370253872 L245.6036769158049,164.18834466395663 L247.43217427016037,163.26053022980784 L252.6989302011184,161.68620255084744 L256.09070734964695,161.51678251636037 L259.0730378008819,161.8548234342285 L260.0587174962019,162.13612462356562 L261.38138754505326,162.92328846304582 L262.9453508896393,163.48509169061396 L266.91336103619483,163.73842259123856 L269.36662346788927,163.23255994109536 L271.0023596058226,163.06393905771438 L273.2150122921969,163.03596876900187 L276.8706399000829,163.14784992385182 L278.5781488313655,163.0919093464269 L279.97327522397813,162.8106081570898 L282.1141551170037,160.8422989828362 L284.6877224213585,159.6891239367754 L289.90662982341604,157.60893360767182 L293.4118763404771,156.4189976107317 L292.98534088286254,160.335637181587 L293.325748988459,164.79090459793437 L293.19792506125725,166.60817421314044 L292.21839731965304,169.02320885568787 L289.70634955245345,171.58688560396445 L288.0877021748405,172.83196302722345 L286.1286466916316,174.7491265306885 L284.04245083163397,176.3666083693767 L282.78608517282765,176.96437339671797 L280.0819597396204,177.48701822008871 L278.42093223641075,177.53656558866504 L276.759904733202,177.23848222610047 L273.8855752471963,177.21290939070622 L271.5430479823821,178.50753418254163 L270.5423301779798,180.17536254091243 L270.4145062507776,181.71932247784218 L268.73228868477025,183.4119245205011 L268.1786128503671,184.9303116220365 L268.1362327247708,190.80567055387252 L268.79654242357765,193.04569110419027 L269.8608304163748,195.08672302909628 L272.0673311490323,198.52227363409668 L272.81786950233396,200.79985428639978 L273.520559326738,205.01937212645612 L273.87190423893907,206.25166313201794 L274.09542522393934,208.08171916492125 L274.12755209334256,212.13341527270256 L273.96760129673714,215.13902258263667 L272.6421970462342,219.63904246092392 L271.0132964124287,223.95126182928456 L269.81571608912697,229.62763213570872 L269.5286249157328,232.07303452028685 L269.5286249157328,234.31385422171076 L269.9592616758245,235.84422858983717 L270.7740537679331,237.97316713641104 L270.7897754274289,238.7387538960273 L270.02351541463145,240.30668836613918 L269.7042973718336,241.35197801288035 L269.24085019192563,244.26488379451018 L269.5921951041267,248.12957854347079 L271.62028917903325,251.86401166214196 L271.9395072218311,253.39518518137444 L272.7064507850406,254.589916084951 L275.2984739505439,256.5837980945988 L276.2021275963221,258.12536057821023 L276.54390280274316,259.49590472512256 L277.6184440517334,262.0659746822477 L277.91168717884284,263.2647013413547 L277.7900152053569,264.52096688009874 L278.1803224910905,267.5761215586092 L278.9130885336587,269.40298098708814 L280.2562650948956,270.03111375646006 L281.4039462380592,271.0308517901553 L281.06217103163766,274.8276186950999 L281.25766644971094,276.28367201036167 L282.23445998966355,277.36891921240647 L282.69859071998405,278.6251847511505 L282.7471227992961,280.0236991867753 L281.72111362961795,283.3074110816221 L281.94121686255403,284.3063499642112 L283.26935531470815,285.4747088812875 L284.6152660775972,286.0285205977948 L285.7697827248891,288.66332179451183 L287.75481312378645,289.4904431892956 L292.9901257357523,292.9579598385388 L294.58621594974153,294.1582847998578 L295.6655420516215,295.36740042334367 L298.0976144205174,300.34771011637986 L299.3614991338651,302.6980135193354 L301.30961781046847,304.98917974044184 L303.13401386234773,305.8634510504838 L309.92577076435776,307.63277159932557 L310.65580260527435,308.02595394351266 L311.50340511720054,309.7409322171416 L312.64630140747437,311.1953872301913 L312.9839753114187,313.7798419072258 L312.70235254132734,314.38879505005207 L313.1507616121525,319.7662828428057 L313.8295271721059,322.6895775888145 z"/>
	
</g></g></svg>