<svg xmlns="http://www.w3.org/2000/svg" version="1.2" baseProfile="tiny" width="600" height="600" stroke-linecap="round" stroke-linejoin="round"><rect id="backgroundrect" width="100%" height="100%" x="0" y="0" fill="none" stroke="none" class="" style=""/>































































































































































































































































































































































































































































































































































































































<g class="currentLayer" style=""><title>Layer 1</title><g class="city city-69" id="bayburt" title="Bayburt">
	<path id="bayburt-aydintepe" title="Aydıntepe" class="district" d="M271.29387492696156,64.7967029148066 L274.8297500355101,65.64517404989174 L279.5955534464232,65.7785290416536 L285.967959140333,67.16708789337478 L289.3958273727147,68.95237784558749 L298.1241330530388,72.71965636286174 L302.56861600735147,74.968354911447 L307.60173643677876,78.00884872361877 L310.706934126608,78.60394537435646 L315.09876372878824,78.7373003661183 L318.4726285230856,79.13403146661012 L324.041733075497,81.91114917005221 L326.1829693955268,83.62976162638394 L331.1094330347392,90.24083534298106 L337.5884955188648,96.52185545496758 L341.33768420784503,99.76238175478227 L344.9788660206594,102.33946697058143 L348.67405127155524,104.3897999689208 L354.61712963269866,106.17508992113359 L358.09765121721085,106.17508992113359 L364.59831507657236,105.56999164601388 L364.77652642224973,111.482618593258 L364.22434126783946,114.51477771844488 L356.0050179914568,124.6014159078371 L354.2499062537274,127.75692840040358 L353.34804883772586,132.76940915325466 L352.04521589394966,135.86491189952844 L352.44619142172235,140.13393857330672 L353.5492116445881,144.40463218448235 L353.1482361168145,151.58246461606777 L352.5460977821785,156.4715920015392 L351.54433400571986,161.54574943808035 L347.9855074359854,169.96211635565442 L345.17867874157076,172.9325987971513 L341.2188766440617,184.1344181051527 L338.01107242187146,186.8581938118901 L335.1542905472292,187.78501100463535 L332.9982032817271,187.35327421880606 L331.7952766984061,185.74301269328095 L331.04462890903835,182.09241979379817 L331.7453235181785,174.91292042481598 L331.695370337949,173.3660025203775 L330.44249057440237,167.30168427000422 L330.94337246262927,163.58941468683167 L330.2926310337186,160.43223525686827 L327.48580233930295,156.34823863415937 L326.6838512837566,155.7914815435534 L321.87214495047266,156.4099153178492 L320.21828965914943,158.5135903128937 L317.9123428529636,163.83612142159137 L317.5613205054185,165.9397964166356 L317.6612268658737,170.02545997674133 L319.1152694362846,173.55269950884423 L319.66610450474104,178.1934532221592 L321.0701938949253,184.44446846099925 L321.2200534356081,190.1370596718361 L322.1219108516116,199.54358740324275 L323.7258129627053,207.95995432081682 L323.82706940911334,212.23064793199245 L322.57013938770797,220.83204490063645 L315.519990545843,221.66718053654546 L310.8432928077695,223.37579136849496 L305.19993352799264,226.80468159417353 L302.63747039090816,227.99154102085444 L298.0971313339971,229.34842806203204 L295.10804103604823,229.73182366334743 L290.02226725448844,229.77349709827328 L285.9382572493864,229.46678061722085 L283.333941447786,228.8416790933367 L275.84096441363425,224.9643827078588 L269.7615273713275,217.84155921037532 L270.59723057567817,211.3021638018501 L270.1962550479054,208.82676176726946 L267.7904018812625,206.0413093768422 L265.5344082553043,204.06098774917777 L263.6807402430716,203.1325036190354 L261.72581578443095,203.00915025165554 L256.26201793628434,203.75260433072833 L252.80444781295614,205.4845522862362 L248.0926478401293,205.7946026420828 L243.98298620193748,203.81428101441807 L240.47411281243063,202.82412020058592 L235.6124532989191,201.9573127541335 L232.4046490767298,200.59542490076467 L230.95060650631797,199.54358740324275 L227.29187357612835,192.6741383901068 L224.4850448817137,189.4569492138503 L220.57519596443223,187.84835462572227 L215.71353645092069,185.1245789189848 L211.95489716027492,182.0307431101084 L204.08524614548543,176.83156536879062 L198.4715887566551,174.04777991576043 L194.81285582646552,171.88076129962906 L191.65500478450573,169.40535926504845 L184.73851445189732,164.3928785121974 L179.92680811861337,161.97915316130658 L173.66240930087235,160.30888188948842 L170.40330181250354,160.1855285221086 L165.49168911876535,159.25704439196647 L161.93286254902998,159.13369102458662 L158.57519878615886,158.4519136292036 L156.36915834042725,156.1015318993999 L154.96641903619494,153.00602915312612 L151.20777974555014,146.7566808516832 L149.2785069199992,141.9325640246957 L152.42150701648762,140.83738615485103 L153.4394718243715,139.582182294892 L154.6707502126852,136.67337653708495 L156.65267639036762,133.69789328339706 L160.8824956782966,130.19399087485255 L165.48763886090856,129.46553923235308 L168.8075002171215,128.07698038063216 L175.39456957741587,125.76327127356276 L178.39311047703023,123.91297076286625 L185.94279112117025,120.80579945481341 L190.86925476038266,120.21070280407571 L194.24311955467996,121.0041650050592 L198.09896503387606,121.399229168154 L203.77472637650433,120.40906835432182 L208.96985712018287,119.15219755696565 L216.30487409794114,119.15219755696565 L220.000059348837,117.36690760475292 L222.89194345823552,113.136220491106 L224.17722528463355,112.27608079424142 L229.103688923846,111.08588749276633 L232.1562332615428,111.01920999688534 L237.1353502528877,110.09405974153711 L243.2404389282823,106.85520037911947 L249.61284462219203,102.0277496773378 L251.48676392370766,99.91240612051448 L253.14736964478863,95.9450951155973 L253.6280002437374,91.25099940557769 L254.48530482332006,90.19416109586444 L258.98379121571713,86.42521564119313 L263.7495946266283,84.57324819309935 L265.67751736622733,83.51640988338633 L266.9627991926264,80.60593718818217 L267.2841196492249,77.6321208718914 L268.9433752843569,70.4909610630406 L271.29387492696156,64.7967029148066 z"/>
	<path id="bayburt-merkez" title="Merkez" class="district" d="M372.10479297024546,453.43648928136713 L364.96553845554365,447.8772530622921 L359.02246009440023,442.6547381974159 L353.3993521039044,437.4972338910236 L346.75962939147854,433.00150373124995 L341.0298646107669,429.6292893770702 L336.8000453228388,428.5057735714762 L332.83619296747395,429.10087022221364 L325.00434435934363,432.1313624100033 L318.4321259445225,435.8452989305727 L315.0582611502262,436.837126681802 L310.82844186229715,437.43222333253976 L299.5835759672594,437.23385778229385 L297.601649789577,436.968814736167 L287.9093827394514,440.0759860442197 L286.3027804564548,440.86944824520316 L283.7862202417402,443.18315735227253 L281.10899979872624,443.911608994772 L276.5038566161143,442.19132960104326 L275.1119179995004,440.7377601908384 L272.8086713652175,436.70377169004007 L271.52338953881946,434.9851592337084 L267.13291002259115,431.67962237540985 L261.5638054701797,427.18389221563604 L257.3339861822507,426.3904300146525 L252.46017589517072,426.3237525187717 L249.9436156804561,425.6636453095501 L247.05173157105855,424.0767209075832 L239.34139069861737,421.03456015801453 L232.2196873012927,417.6623458038348 L230.66573837042563,416.07542140186814 L226.32926229228076,408.7375629801684 L224.13402253416663,407.3490041284474 L219.85019980815517,408.20914382531157 L217.54695317387228,409.20097157654095 L203.677520187953,414.0934328368064 L192.05733039822942,417.06724915309735 L186.75689295028602,418.78752854682625 L185.20159393346796,419.9310476011845 L183.7137992142547,416.30712570005426 L182.16120036933958,413.5316749340093 L181.62521624635545,409.2326433870845 L180.3399344199574,404.80359072319163 L178.62667534674299,402.0931505156305 L176.4854390267132,399.58107585831533 L172.5755901094318,398.3908825568402 L169.57704920981837,395.74545290776314 L167.38180945170424,391.5147657941164 L166.8458253287201,388.869336145039 L168.88175494448691,385.82884233286717 L174.66417307733008,381.1997571813315 L177.34139352034396,379.48114472499975 L184.14177646107007,375.77887676620963 L185.2137447070364,374.1252748683615 L185.53506516363686,371.018103560309 L184.57110379383738,361.43154659002374 L184.57110379383738,357.6626011353524 L183.76780265233907,355.0188384236725 L182.0005401410403,351.71330156537374 L181.57256289422492,348.2744097153132 L182.8038412825386,345.63064700363327 L185.05308447873713,344.63881925240406 L188.26628904473418,344.5721417565229 L195.279985565892,345.63064700363327 L198.7605071504061,344.77050730676876 L200.3671094334037,343.1835829048021 L201.49173103150247,338.819540799393 L201.54573446958685,335.05226228211876 L199.93913218658736,330.0264460300913 L198.38653334167319,327.84442497738695 L193.08474580777784,323.68041535962095 L189.06824010028055,321.6967598571624 L182.21520380742393,319.05133020808523 L174.0755356022154,316.47257805488914 L166.52450487212155,315.8124708456676 L161.7060481090779,313.7621378473282 L156.832237821996,310.7866545936404 L153.512376465785,306.75433303023914 L151.10247304128526,303.38211867605946 L148.63991626465693,300.6716784684985 L143.98076964396063,297.101098564073 L138.46566852963355,293.7955617057745 L133.48520145233675,291.0851214982133 L128.9880651458936,289.6965626464924 L120.45552192862209,287.8896025081183 L117.38542647354808,285.0674774949568 L115.38594917848849,279.95498049828404 L114.10066735208949,278.45640377835934 L112.03098558752029,277.7512892594183 L104.44215245076822,277.9629903088403 L104.28149222246799,276.2427109151115 L101.1762945326387,271.94534630558377 L100.90897751412263,270.160056353371 L101.44361155115482,264.2107567833923 L101.1762945326387,260.441811328721 L99.35502858325651,257.3346400206682 L98.33841386132553,252.1104582183949 L96.67780814024263,246.55788974890785 L96.35648768364311,244.2425137044416 L96.46449455981187,238.42490218882776 L98.71238767005653,232.27557013120628 L101.39095819902238,226.98637777044897 L110.01125700317968,222.68901316092104 L113.11780477896087,218.855057147766 L115.20638774685915,216.80472414942633 L118.68690933137233,212.3089939896526 L120.88214908948646,206.68974802428454 L123.55936953250037,203.97930781672355 L124.89865479698281,201.86229732250308 L126.61191387019718,196.90482550375378 L127.03989111701256,194.32607335055755 L126.82522745062892,190.88718150049698 L124.148007007615,183.87937668340805 L122.9707320573857,178.1934532221592 L122.8100718290845,174.09445416287699 L123.02338540951624,171.4490245138 L124.148007007615,167.81343405089046 L125.16597181549889,161.86246754351475 L126.23658997551425,158.62360818109713 L129.2891343132111,155.18471633103664 L135.60753656903742,151.74749141837322 L141.06998433123397,144.80469715976812 L144.3358422493625,142.75603109882567 L149.2785069199992,141.9325640246957 L151.20777974555014,146.7566808516832 L154.96641903619494,153.00602915312612 L156.36915834042725,156.1015318993999 L158.57519878615886,158.4519136292036 L161.93286254902998,159.13369102458662 L165.49168911876535,159.25704439196647 L170.40330181250354,160.1855285221086 L173.66240930087235,160.30888188948842 L179.92680811861337,161.97915316130658 L184.73851445189732,164.3928785121974 L191.65500478450573,169.40535926504845 L194.81285582646552,171.88076129962906 L198.4715887566551,174.04777991576043 L204.08524614548543,176.83156536879062 L211.95489716027492,182.0307431101084 L215.71353645092069,185.1245789189848 L220.57519596443223,187.84835462572227 L224.4850448817137,189.4569492138503 L227.29187357612835,192.6741383901068 L230.95060650631797,199.54358740324275 L232.4046490767298,200.59542490076467 L235.6124532989191,201.9573127541335 L240.47411281243063,202.82412020058592 L243.98298620193748,203.81428101441807 L248.0926478401293,205.7946026420828 L252.80444781295614,205.4845522862362 L256.26201793628434,203.75260433072833 L261.72581578443095,203.00915025165554 L263.6807402430716,203.1325036190354 L265.5344082553043,204.06098774917777 L267.7904018812625,206.0413093768422 L270.1962550479054,208.82676176726946 L270.59723057567817,211.3021638018501 L269.7615273713275,217.84155921037532 L275.84096441363425,224.9643827078588 L283.333941447786,228.8416790933367 L285.9382572493864,229.46678061722085 L290.02226725448844,229.77349709827328 L295.10804103604823,229.73182366334743 L298.0971313339971,229.34842806203204 L302.63747039090816,227.99154102085444 L305.19993352799264,226.80468159417353 L310.8432928077695,223.37579136849496 L315.519990545843,221.66718053654546 L322.57013938770797,220.83204490063645 L323.82706940911334,212.23064793199245 L323.7258129627053,207.95995432081682 L322.1219108516116,199.54358740324275 L321.2200534356081,190.1370596718361 L321.0701938949253,184.44446846099925 L319.66610450474104,178.1934532221592 L319.1152694362846,173.55269950884423 L317.6612268658737,170.02545997674133 L317.5613205054185,165.9397964166356 L317.9123428529636,163.83612142159137 L320.21828965914943,158.5135903128937 L321.87214495047266,156.4099153178492 L326.6838512837566,155.7914815435534 L327.48580233930295,156.34823863415937 L330.2926310337186,160.43223525686827 L330.94337246262927,163.58941468683167 L330.44249057440237,167.30168427000422 L331.695370337949,173.3660025203775 L331.7453235181785,174.91292042481598 L331.04462890903835,182.09241979379817 L331.7952766984061,185.74301269328095 L332.9982032817271,187.35327421880606 L335.1542905472292,187.78501100463535 L338.01107242187146,186.8581938118901 L341.2188766440617,184.1344181051527 L345.17867874157076,172.9325987971513 L347.9855074359854,169.96211635565442 L351.54433400571986,161.54574943808035 L352.5460977821785,156.4715920015392 L353.1482361168145,151.58246461606777 L353.5492116445881,144.40463218448235 L352.44619142172235,140.13393857330672 L352.04521589394966,135.86491189952844 L353.34804883772586,132.76940915325466 L354.2499062537274,127.75692840040358 L356.0050179914568,124.6014159078371 L364.22434126783946,114.51477771844488 L364.77652642224973,111.482618593258 L364.59831507657236,105.56999164601388 L381.01671034005665,103.26628416332679 L384.65789215286907,102.93456362131889 L388.1384137373813,102.27445641209749 L392.3695831112622,102.14110142033564 L397.13538652217443,102.93456362131889 L400.025920545621,102.8028755669541 L404.3637467097159,101.08426311062237 L406.6669933439988,100.48916645988469 L411.43279675491,101.41431671523299 L413.2527126183412,102.8028755669541 L424.8729024080629,106.77018657187122 L427.2828058325607,106.90187462623601 L430.9779910834585,105.64667076627697 L435.529130827986,103.26628416332679 L438.63432851781533,103.0012411171999 L441.2588956086968,103.19960666744569 L446.8820035991926,104.12475692279423 L451.59380357201945,103.39797221769152 L457.5368819331628,103.06791861308096 L459.733471777228,101.87772531160559 L462.3566887821584,99.6290267630204 L466.8430244009861,96.82523806122603 L468.39562324590025,99.13894716829523 L471.82349147828194,101.38764571688061 L480.8731176152065,104.29645147468771 L484.4062925518522,104.22977397880663 L491.47534259704526,103.03958067733156 L495.33118807624135,103.30462372345843 L500.6856289622692,101.84938737585624 L508.0759994640638,101.84938737585624 L512.7877994368906,101.25429072511876 L516.2143175833204,99.53567826878704 L523.1753607523457,95.3049911551402 L528.7120632419077,91.48937145335205 L528.8187200321225,95.28665484377278 L528.4474463952945,105.1699266707281 L526.1671512221985,122.58108778264398 L524.6294033227576,126.3783711730647 L521.9265312466539,129.58555872493895 L520.3361299950806,132.13763987978265 L518.7457287435072,136.391664116988 L517.5792544808926,140.64735529159012 L516.3601268661464,142.9377272751011 L516.6773970648901,147.25842900818745 L516.4127802182788,151.77416241672552 L514.0271783409188,157.99350584502224 L512.5960872316929,162.64092730792504 L511.32295617886325,165.3897070756176 L511.2176494745984,167.55005794216072 L512.2248135948648,171.47736244954933 L515.4056160980114,177.30330865214836 L520.2834766429481,182.47414845771686 L522.8270385767045,185.48463739674213 L525.4246039485442,189.73866163394746 L526.8570451437212,196.4164128464256 L527.6522457695079,201.5205751561132 L527.8115559118562,204.6627521495033 L527.3336254848132,208.06663831422637 L526.3791147166783,212.32232948882876 L525.0546803976681,214.35099230100707 L519.9648563582525,219.12843488087773 L513.4439412096119,222.0089027029354 L510.10382856411604,222.53232104560075 L505.9685152928355,222.27061187426807 L499.7662204288895,224.23426412796243 L496.48011122147796,226.98304389565507 L494.88835988395374,229.2750828165629 L494.3591261907293,231.69714285443894 L494.676396389473,234.70763179346423 L496.32080107913066,237.71812073248958 L501.1973115381155,249.82842092186908 L505.59859174195935,263.1155789135475 L506.33978892966354,264.42412477021145 L508.7253908070235,266.45445451978657 L511.80088660590616,268.0897201062671 L514.0271783409188,268.80983706178154 L516.5194370084956,270.6434681985079 L522.5097683779608,278.3663891589202 L526.9096984958536,280.2650308541306 L529.0306835266033,281.96697393649197 L533.1119933597996,287.13781374206064 L535.8162155218552,288.64305821157336 L538.6257443881747,290.2799907354507 L541.3826199023628,292.8320718902946 L545.9418601626029,298.0695891917441 L552.1441550265498,303.5021381686453 L554.4771035517773,306.90602433336824 L556.5440851444417,309.19639631687926 L560.2554714267637,310.3749210565752 L564.9740218293522,310.89833939924074 L569.6385687938572,309.91651327239356 L572.7667179448733,307.1027229462172 L574.5690826909246,305.92419820652117 L582.9990193758359,302.3886239874331 L585.861201594287,302.1935923119815 L588.8840440410372,302.8470317716148 L593.9725179945028,305.8591876480373 L596.9940103553012,308.5429568572458 L598.242839860993,311.58011679462356 L599.4336156707456,314.69562278966157 L599.7508858694891,317.44440255735424 L599.6982325173567,322.3535331915899 L597.4192874302117,329.3580041338847 L595.9341928829023,332.4335036313941 L592.2228066005803,343.7570093693781 L589.9438615134371,355.08218204475935 L585.384621253196,365.68557082722907 L581.6205816187424,372.3616551023104 L578.1751622689836,377.0757540610942 L574.6230861290089,380.21626411708746 L572.3954443080453,381.45979941526747 L565.6625656649239,382.7050016508443 L560.6267450635918,384.3402672373247 L557.657906054925,386.76232727520085 L548.2208052497471,391.9998445766502 L542.6814025882821,395.62043260298634 L534.5430844690255,400.181173321244 L522.1384947411347,406.922268154809 L516.0941599335832,409.47601624705 L510.58175899115906,411.24296988789536 L504.1661505467823,413.6000193672875 L497.85719889261964,414.6468560526184 L494.3591261907293,415.62868217946544 L489.428612293662,417.85404360449246 L486.6190834273415,419.687674741219 L484.0215180555027,423.54830175272656 L483.6502444186756,426.4937801332682 L479.1436575105669,434.0216694182285 L475.32696452398096,441.0911509190073 L468.3821223863799,445.6068843275453 L463.13298820461506,451.9562488728098 L457.8852041088041,454.7066955778995 L451.7355625969896,457.6521739584408 L447.9188696104046,459.1574184279536 L440.4434436936291,459.9425459419519 L430.10583555840157,462.10289680849525 L423.3729569152802,461.6444890243136 L417.8592058869051,460.26926567176855 L408.42210508172815,456.1469294889282 L399.9503157323017,452.9730806849945 L393.52390660030755,451.1877907327818 L389.5614043308947,450.52601658616334 L384.9022577101993,454.1632739864696 L379.0118327011883,452.84139263062957 L372.10479297024546,453.43648928136713 z"/>
	<path id="bayburt-demirozu" title="Demirözü" class="district" d="M104.44215245076822,277.9629903088403 L112.03098558752029,277.7512892594183 L114.10066735208949,278.45640377835934 L115.38594917848849,279.95498049828404 L117.38542647354808,285.0674774949568 L120.45552192862209,287.8896025081183 L128.9880651458936,289.6965626464924 L133.48520145233675,291.0851214982133 L138.46566852963355,293.7955617057745 L143.98076964396063,297.101098564073 L148.63991626465693,300.6716784684985 L151.10247304128526,303.38211867605946 L153.512376465785,306.75433303023914 L156.832237821996,310.7866545936404 L161.7060481090779,313.7621378473282 L166.52450487212155,315.8124708456676 L174.0755356022154,316.47257805488914 L182.21520380742393,319.05133020808523 L189.06824010028055,321.6967598571624 L193.08474580777784,323.68041535962095 L198.38653334167319,327.84442497738695 L199.93913218658736,330.0264460300913 L201.54573446958685,335.05226228211876 L201.49173103150247,338.819540799393 L200.3671094334037,343.1835829048021 L198.7605071504061,344.77050730676876 L195.279985565892,345.63064700363327 L188.26628904473418,344.5721417565229 L185.05308447873713,344.63881925240406 L182.8038412825386,345.63064700363327 L181.57256289422492,348.2744097153132 L182.0005401410403,351.71330156537374 L183.76780265233907,355.0188384236725 L184.57110379383738,357.6626011353524 L184.57110379383738,361.43154659002374 L185.53506516363686,371.018103560309 L185.2137447070364,374.1252748683615 L184.14177646107007,375.77887676620963 L177.34139352034396,379.48114472499975 L174.66417307733008,381.1997571813315 L168.88175494448691,385.82884233286717 L166.8458253287201,388.869336145039 L167.38180945170424,391.5147657941164 L169.57704920981837,395.74545290776314 L172.5755901094318,398.3908825568402 L176.4854390267132,399.58107585831533 L178.62667534674299,402.0931505156305 L180.3399344199574,404.80359072319163 L181.62521624635545,409.2326433870845 L182.16120036933958,413.5316749340093 L183.7137992142547,416.30712570005426 L185.20159393346796,419.9310476011845 L184.453646316005,420.9028721036495 L183.5436883842899,423.7450003655755 L182.2044031198065,425.7286558680341 L179.79584978126064,427.51394582024676 L178.56322130699309,429.29923577245967 L175.5120270552482,431.9446654215367 L171.2268542432848,434.39006258297076 L168.65764067643775,434.9851592337084 L161.642594069328,438.02731998327704 L159.66066789164557,439.8776204939738 L158.10806904673143,443.18315735227253 L156.07348951691657,448.47234971302976 L154.19957021540287,450.787725757496 L148.63046566299144,456.53865977722876 L141.13343837098193,463.28308848558805 L139.42017929776756,464.27491623681726 L133.63641107897246,465.4651095382924 L129.29858491487468,466.0602061890301 L127.79998950804492,466.7869908941325 L125.44408952163147,468.83732389247206 L121.58824404243347,473.86147320710245 L116.66178040322296,477.76210671613865 L115.31574470897985,480.37086374248133 L112.9665951523252,486.75356703568616 L109.59273035802883,489.0672761427555 L103.97097245348496,490.8525660949683 L100.9724315538725,492.9028990933076 L99.25782239470522,495.6800167967497 L98.72318835767399,497.9270484079381 L97.43790653127496,500.969209157507 L96.1526247048769,502.75449910971975 L94.11804517506205,504.34142351168646 L91.11950427544768,505.3982618213996 L88.28027351818255,510.68745418215696 L85.17507582835329,515.1181737834468 L81.59059762552911,516.9117984226446 L80.39982181577656,513.466238822996 L80.02449792109363,511.3508952661724 L79.8638376927934,506.1933909597803 L79.32785356981022,502.9545315973626 L77.82925816297949,499.45062918881814 L74.88337061549755,494.62317848703645 L72.84879108568269,490.7892224738811 L69.95690697628514,486.62354591871826 L64.54846265217488,484.70656791214066 L62.192562665760505,482.06113826306375 L59.997322907647316,478.55723585451915 L57.26609902654904,475.8467956469579 L43.450669478711305,471.0860224410575 L38.20288538290032,469.69746358933634 L33.919062656888855,467.05370087765647 L30.65320473875839,463.218077927104 L28.671278561075965,461.69783102101815 L23.477497903349366,458.85570275909237 L20.21028989926888,456.80536976075274 L15.765806944956218,451.78122044612235 L14.373868328341338,449.86257550214776 L13.463910396625261,447.2854902863487 L12.981929711725506,440.5410615779894 L13.142589940026703,438.49072857964984 L12.445945588743292,431.6812893128068 L10.732686515528897,425.7303228054312 L9.072080794445988,420.7061734908008 L5.699566086099665,416.8722174776454 L2.96834220500331,412.8382289768473 L2.7536785386196527,409.46601462266784 L4.1996205933179525,402.65657535582466 L5.966883104615761,397.83079159144 L6.234200123131856,391.6147820379378 L6.555520579731372,389.89616958160576 L8.96542400423013,381.9615475717715 L11.000003534043081,377.79753795400563 L13.463910396625261,374.8220547003178 L17.01328636469607,372.8083943247128 L18.925008072868906,370.7230556410356 L19.567648986067937,369.26781929343366 L20.692270584166714,364.11031498704136 L22.29887286716621,362.72342307271737 L27.333343382546424,362.0616489260989 L37.50759111756885,361.92996087173384 L39.755484227815444,361.4665522753612 L44.41463084851176,358.2927034714276 L47.252511519824935,357.1691876658335 L49.34109448772321,355.84730630999337 L59.14001832806271,355.84730630999337 L66.15506493517341,355.5155857679855 L69.47492629138634,354.85547855876416 L75.52601152869659,354.06201635778064 L81.52444341387535,352.7384680645437 L84.84430477008922,352.2767264055679 L87.46752177501874,350.95317811233093 L89.77076840930069,347.0525446032946 L91.59068427273189,341.63166418817264 L93.03662632743018,338.9862345390955 L97.37445249152603,332.8385694188709 L99.73035247794041,328.5412048093428 L101.97959567413895,321.5984105507378 L104.1208319941687,313.4004124321739 L104.97813657375235,304.47396267111026 L105.03214001183576,298.85471670574236 L104.76347290736868,287.68123533349035 L104.49615588885163,284.04564487058104 L104.44215245076822,277.9629903088403 z"/>
	
</g></g></svg>