<svg xmlns="http://www.w3.org/2000/svg" version="1.2" baseProfile="tiny" width="600" height="600" stroke-linecap="round" stroke-linejoin="round"><rect id="backgroundrect" width="100%" height="100%" x="0" y="0" fill="none" stroke="none" class="" style=""/>































































































































































































































































































































































































































































































































































































































<g class="currentLayer" style=""><title>Layer 1</title><g class="city city-71" id="kirikkale" title="Kırıkkale">
	<path id="kirikkale-bahsili" title="Bahşılı" class="district" d="M158.0263095241437,417.113428488952 L157.02479825912582,419.0216501528643 L156.49415587144819,421.119622808216 L155.98181149713847,425.1472406265133 L156.41608434774434,428.10521374306694 L157.5420221036652,429.7257484199577 L160.96497047107388,431.20550010319994 L167.78159038450144,432.93468252518926 L170.22132550026024,433.7579569880481 L172.80134538517277,435.06938117888416 L174.29080367334333,436.33795837165343 L175.06541957259657,438.9026572559489 L174.60430963571883,440.775683171449 L172.5951877678933,442.83386932859565 L170.1542327845767,443.6846882902116 L166.54830428348615,443.3296703062279 L161.52123007746712,440.9960391615079 L158.593547938558,439.9937254567265 L153.33835849921584,440.2446864454044 L149.34695184983653,441.0786726577799 L137.90581402448888,442.3304171013085 L134.3791769146615,443.0404530692759 L131.21971993975495,443.24856705988697 L128.29325766840284,442.74817533246164 L123.8078046580818,443.28988380802286 L121.41320464196596,444.23557826535864 L117.03875957941281,447.08796413667574 L113.14738206977876,449.21501154071564 L110.51978735010843,449.9250475086831 L107.52623236307284,450.1744782474303 L100.40830516284865,450.3412754899052 L97.64774487936987,450.7177169729224 L91.69357132936265,451.0926282060085 L88.08520309315563,451.10640045538713 L86.8458176543505,444.7818774907129 L85.52226135405326,439.6371772228117 L83.04349047644214,435.51009315900177 L79.75350767284272,433.7411242388074 L76.84900301753359,432.56283179196504 L72.78928378491219,431.38300909519177 L67.23522679388978,429.2926876894949 L60.52717509311289,427.09524878863067 L56.08441744731759,425.16560362568487 L53.007911466348475,423.45019345307423 L48.90549686920132,420.50293208603756 L46.29985976557238,416.75075925531377 L45.40203724297318,414.23196786894687 L45.23125578486942,409.4621788341319 L46.72681341082823,403.40544960737634 L47.75272202700468,400.94021696859323 L51.170790924182114,397.61804436847046 L54.780379027945315,395.894982946205 L57.72635918022398,393.31345131266863 L61.24201748203022,389.83060246979437 L63.04864133524893,387.2322380870175 L68.55146388884091,383.7952967420724 L71.18759768141751,381.93910357581296 L75.259515589617,375.4401321190087 L77.06369970772013,373.81500669232486 L82.47625206202937,369.75219312561524 L85.01967592020682,367.1415867433908 L86.22246533227607,364.1239338795298 L86.17611036507532,358.3778453887598 L84.55734611577051,352.6332871479208 L83.9095964425367,351.06631121861363 L86.77750507110994,349.38303629455316 L90.4615050959043,345.24830098108833 L93.68805478649443,340.06993521470616 L92.97565213269272,348.1389431006794 L94.04913558362617,354.00439108606446 L96.34736606267023,355.2530750297312 L103.168865446329,353.1382696251389 L106.31124427542545,348.90865881595414 L109.68295820540214,345.73645070906576 L112.28859530903267,341.40890390429956 L114.51119399948772,339.1976927540565 L117.34738607155549,338.14029005176036 L120.7191000015338,336.4095773798401 L122.78799537969601,336.98648160381344 L128.68971462471342,337.5633858277869 L140.64563655948484,334.00708498822655 L147.92580614490655,331.0261581227086 L157.35294263219424,329.4882569420897 L162.66546584675754,327.7131670221715 L163.13511485654072,328.2365124985612 L166.73982349007426,329.4163351953345 L169.14296257909396,329.54793668939743 L170.639740072613,330.6818518882417 L171.66808842390506,333.6306435052092 L171.49242749557004,335.99028889875586 L169.84682615999102,337.3537415872448 L166.1738049432177,337.68580582226394 L163.8816738019627,340.3025332042125 L162.7349982975559,344.2459872763069 L161.20772411509245,347.6002951249801 L160.00249496790752,351.39837545363275 L155.007137318394,355.37855552407024 L153.0992644578707,359.31435834650983 L151.8062048465187,362.70539219352594 L147.34026971712504,367.66952296957317 L145.53730546657977,368.1607331974127 L137.93631071343648,369.1936519008136 L134.91957824280166,370.42244259537756 L130.33531596029246,373.1248639734602 L126.53542851749972,377.30244628499196 L124.65439274325061,381.2351886075694 L124.34088678087508,385.3133046735887 L123.51869604686485,388.1151922971837 L123.18079273333234,391.64241838805594 L124.20914108462443,393.55829130162283 L129.29232919830665,399.93484276395 L131.81989477823177,402.5531003958294 L136.3443835504043,405.72224800285585 L138.66579151304754,406.3863764728943 L143.80875313706565,408.37723163307857 L151.15479557061147,412.2472337084865 L158.0263095241437,417.113428488952 z"/>
	<path id="kirikkale-baliseyh" title="Balışeyh" class="district" d="M373.1011586537765,142.7564486163416 L373.9526262091765,147.761896140525 L376.2508566882198,157.80186593758015 L376.60705801512034,160.18752557995293 L379.42007260358895,166.2014078086416 L380.5691878431105,171.56799431653246 L381.12422758194595,180.61483190839184 L380.9656447994219,182.50316032320154 L379.61891101552305,189.8590717413456 L378.6283785585255,192.04579889269317 L374.6662487305353,197.6113178916093 L373.15971229655463,201.0421382368308 L372.36801825149126,203.87463085904508 L372.9230579903267,210.434812313088 L375.0224500574366,216.30026029847323 L375.2993599930746,220.07691712809236 L375.6567811875329,229.61955569758402 L371.17864738255946,257.2528089509326 L369.83191359866066,261.57729525583693 L368.92067253292555,265.70284906971597 L367.13844603086386,269.4795058993351 L361.9076539426802,278.8232119778016 L358.22365391788423,283.44609701924384 L355.96567906825106,285.2349591885408 L353.5479015685344,286.4285541346928 L351.48754526327855,288.3658505472932 L350.14081147937964,290.55257769864096 L347.4863796734344,296.51749192953866 L345.4260233681768,303.22763787681606 L344.8319478674891,306.0096322513085 L344.6733650849657,309.19102185778274 L346.2982286720605,316.79483376474315 L347.8425810003356,319.77729088019197 L356.55975456893884,329.07202896086744 L358.86896385600403,332.2090413193439 L355.28987244118684,333.25879277198504 L352.2804591758989,333.4500740133556 L348.39640087161246,334.1187932331869 L345.0063889282663,335.6964809120107 L340.6648802897755,338.89623351765675 L334.26667494870077,342.2887976146039 L325.3555424383962,346.7800811619833 L322.2326814902255,347.5911136253942 L313.1690655351851,347.6400816231851 L309.7790535918396,347.257519140444 L304.967895943565,345.68595246134396 L302.70748135881547,344.3913610197485 L300.6459051860001,343.6736738021263 L295.4041342897938,343.4579085618604 L290.5636998201309,343.9246347908044 L286.7540534368742,343.56502605702786 L281.9136189672112,343.9246347908044 L280.30949312860093,343.7088695505385 L280.27045736674864,341.3752384058183 L279.64100570688277,338.5274432842943 L277.70385602497043,333.02160403268556 L275.9399275362783,330.4308908995636 L272.75607321021306,324.3864036722557 L271.33614737284324,323.19892972582755 L267.5069831086607,318.8805644206471 L266.6030612482732,316.77494051564065 L264.7964373950545,301.3377792120754 L263.8925155346655,295.56261597261715 L262.0846718138889,289.57168749289286 L259.50343206141787,285.3068809352961 L254.3836479209997,276.293708841918 L252.44649823908736,272.2982262721709 L248.57463861038065,267.76562597665543 L247.54141078885738,265.17338259360247 L245.56278560997623,254.75697131353024 L242.85102002881308,243.58308631763094 L241.94831803598174,237.86148182575636 L241.00170081106774,233.5446467705068 L239.3658584159529,231.1696988776507 L236.5260067412101,225.2323291455102 L235.23538686497534,221.88567254649186 L234.5900769268555,218.75478118773947 L234.5900769268555,212.22367448238498 L235.0206901747872,209.74007884443031 L235.96730739970195,207.42021994908882 L238.5485471521739,202.5081176706943 L238.72054847783477,198.72993059114415 L238.72054847783477,190.03964123319926 L238.89254980349625,182.10529534115096 L239.67814451076976,177.78080903624652 L244.9894478577744,178.00422552616732 L249.83720153278495,177.57728579542828 L253.73833798288143,176.81675157973916 L258.51167973686165,176.19853060762964 L265.1014042845238,174.63155467832243 L267.41183343914753,173.15792399480404 L270.2150890871529,170.6406628583684 L273.2830559952181,166.64977103841412 L276.1229076699601,160.14008783209314 L277.94173019875853,157.6687341935862 L281.615971283088,157.8110474371658 L286.5393567466884,158.38183066141545 L294.4550773297642,157.1469189671276 L305.4009489266123,156.10175826427903 L315.8552138976343,156.00688276855934 L317.4459211931087,155.34122404858985 L322.59742189003066,151.82470970723458 L326.0057318467448,150.30517152578727 L331.76228685237567,149.59207505795808 L334.60335839467626,149.97157704083713 L341.45901406995455,151.39776997649557 L348.23903795664705,153.01218365366267 L357.1391916589305,152.96474590580277 L363.3507572636492,151.54008322007536 L365.3586592639185,150.5897980129467 L368.0094314671897,147.59662914798085 L369.52450697407494,146.45659294941282 L373.1011586537765,142.7564486163416 z"/>
	<path id="kirikkale-delice" title="Delice" class="district" d="M358.86896385600403,332.2090413193439 L356.55975456893884,329.07202896086744 L347.8425810003356,319.77729088019197 L346.2982286720605,316.79483376474315 L344.6733650849657,309.19102185778274 L344.8319478674891,306.0096322513085 L345.4260233681768,303.22763787681606 L347.4863796734344,296.51749192953866 L350.14081147937964,290.55257769864096 L351.48754526327855,288.3658505472932 L353.5479015685344,286.4285541346928 L355.96567906825106,285.2349591885408 L358.22365391788423,283.44609701924384 L361.9076539426802,278.8232119778016 L367.13844603086386,269.4795058993351 L368.92067253292555,265.70284906971597 L369.83191359866066,261.57729525583693 L371.17864738255946,257.2528089509326 L375.6567811875329,229.61955569758402 L375.2993599930746,220.07691712809236 L375.0224500574366,216.30026029847323 L372.9230579903267,210.434812313088 L372.36801825149126,203.87463085904508 L373.15971229655463,201.0421382368308 L374.6662487305353,197.6113178916093 L378.6283785585255,192.04579889269317 L379.61891101552305,189.8590717413456 L380.9656447994219,182.50316032320154 L381.12422758194595,180.61483190839184 L380.5691878431105,171.56799431653246 L379.42007260358895,166.2014078086416 L376.60705801512034,160.18752557995293 L376.2508566882198,157.80186593758015 L373.9526262091765,147.761896140525 L373.1011586537765,142.7564486163416 L375.8885560235296,141.08694594165988 L393.424152168039,127.26113781539995 L395.2807905911303,126.78523008686999 L399.74916545564116,124.36284444615396 L402.4011575264701,122.27252304045709 L405.6582039060063,120.4668281219196 L407.93081716633554,118.80344644696171 L408.8396184969542,117.56853475267363 L410.62062513145736,113.86226941987877 L413.8020397224061,109.5393133649054 L418.83887286888756,103.55144538504312 L421.3005656006885,100.36852552863797 L422.9681245523089,97.56510765511186 L424.74791131925423,93.81140457445709 L428.2696689588495,89.77307500664311 L431.6413828888278,84.35752050096126 L431.33763586691555,82.64670107814344 L433.04301071282964,77.99015053821991 L435.7157405321429,75.39178615544307 L438.6897776382528,76.70014984641726 L442.1078465354295,77.82488354567576 L446.9360823295143,78.89758874728172 L451.46545057191804,80.9343514053948 L456.2936863660028,85.32922920712349 L460.3094903665399,89.72410700885219 L465.0096400670466,98.62098010747708 L466.12581888250816,101.99977195504566 L465.8562281522146,103.45810013925428 L461.7818705088995,109.66632410917552 L461.2317102402968,111.09251704483393 L463.24449171079664,115.11095336354559 L463.7238996610431,120.16995963531251 L463.5555579380557,123.11722100234923 L462.8468148869283,125.23814740666553 L463.0590718419984,126.66587059225496 L464.2569817838363,128.0935937778444 L466.92727186803245,130.2726696795371 L469.1401116180258,131.66213661685248 L471.03822553808504,132.31555333737407 L472.7533593244632,133.77847227137573 L473.82074343760746,135.6790426856331 L474.9918162931706,139.43580626614965 L474.73564410601625,141.86278265665877 L475.19309444022053,144.3708622935088 L477.35957922301225,148.50100685718058 L477.87680306755396,151.58752096793506 L477.5035235948434,156.61439199115202 L477.83898717326025,157.81716843688963 L480.0567063934849,160.36809507180678 L480.9106136839997,161.91058700221845 L480.83010242517946,165.86628307376066 L481.1789845467323,168.69877569597492 L482.8416640281215,170.9329405951824 L486.2633925279715,170.18311812901013 L488.48477135086955,172.43411577745815 L491.83208792968856,172.93144700502145 L492.55058992128,173.44714123175632 L497.77894227434876,175.2650781497417 L501.36535289451285,176.74942058277668 L503.54037675021254,177.9460760287905 L507.3951582331092,182.73269781284614 L510.14229997345205,185.22241445052464 L512.2404721730032,188.09469357094397 L515.523135771255,194.9395015121461 L518.804579501949,198.91203033292882 L523.3071106580825,201.78430945334821 L526.093288160277,205.75836852406195 L527.5815265808898,209.2519291164529 L531.0154537563179,216.57570528604674 L534.5640484821881,221.89026329628467 L536.5487729988567,224.09229294694197 L540.9366366045465,228.39994650260564 L545.3635359720911,233.85681775642334 L547.1567412821723,236.72909687684293 L550.400369118571,242.61749861119253 L551.988636678929,248.54109609395434 L554.6784446440531,255.2175765427505 L557.0828036006322,258.0898556631698 L559.4847228220972,260.16793506941906 L555.4225638543587,264.29348888329815 L553.8599135127179,264.52455662287366 L551.6519532329559,263.4090044232008 L548.1582525471918,263.8711399023521 L546.9932790294163,263.4472606714749 L543.9582485454125,263.79462740580374 L539.880231299424,265.83292031384786 L534.9141504712987,264.67911186590095 L531.7876299204546,263.60181591450237 L526.8215490923309,262.71733145440516 L522.4385649568708,263.71658465932455 L518.2385609550947,266.06245780349246 L513.1187768146759,268.29356220283813 L508.61258605587216,269.3693279043057 L502.4510350210244,269.7549508869086 L497.3007541916602,269.1397904146611 L493.8363303272853,268.98523517163386 L488.87024949915997,269.10153416638707 L487.3685925354097,268.90872267508576 L478.539191151483,269.6003956438813 L476.36294742822713,270.6776915952801 L473.3279169442236,274.9455586527387 L471.7652666025813,278.0228912639073 L471.55056991239394,280.67634464419893 L472.1019500485561,284.7911867085613 L473.9720070147839,290.7897664379402 L474.61609708534434,294.02012404220534 L474.52338715094595,299.441799547611 L473.60482687986246,304.8252188047425 L470.79425202650873,307.04561145457126 L469.7402864565033,308.5988151344998 L468.04223081593466,310.0831575675348 L468.3471977054045,314.5652596153285 L468.46918446119366,326.12017684403787 L471.3785685867332,333.69491400230993 L480.56295143000307,340.2948819545577 L493.7716773467181,346.0409704453277 L496.84208398989824,346.66990316695393 L492.09801905730706,350.76332173228263 L490.5805038153053,350.8520762282787 L487.58084949047975,352.48944365441014 L484.8629845715275,354.9684485425719 L482.74529449104966,356.20948123658377 L478.54529048927213,357.58058517472733 L476.00430636621195,357.2714746886728 L471.16997123433646,356.16510398858566 L466.2990400757252,355.81008600460217 L462.31129302901934,356.5185917226385 L459.5226757917077,357.53620792672945 L457.58186650712355,358.73286337274345 L453.5941194604161,363.0267446790284 L452.6755591893326,365.28539357713134 L449.60515254615245,370.68564558350346 L443.67659621486087,375.7767871038208 L441.6296584527408,376.79593355784283 L431.9597683214337,379.2749384460046 L427.12299345444427,380.8526261248284 L424.1806729048406,383.3744780110572 L423.3133470711883,384.66906945265276 L416.8053536499034,380.20533040403075 L404.23583833352,370.65044983509114 L401.64727937570046,367.5899499731632 L399.1709482332065,363.0451076782 L396.3981892741472,359.84535507255424 L391.99812699287855,357.8514394125081 L378.5039520676225,353.1199066259672 L372.8474262017377,350.4297272473325 L365.15738111686954,345.00499124206505 L363.7533135577504,342.77847759251233 L360.7951347298937,335.91377640220776 L358.86896385600403,332.2090413193439 z"/>
	<path id="kirikkale-celebi" title="Çelebi" class="district" d="M139.9551915217269,599.4610707624882 L137.7362524339445,597.6201800955386 L134.1169053897164,598.8887572883078 L131.85405106985206,598.3087925644725 L129.43627357013702,596.504627895866 L124.24817684647675,591.9873300996599 L122.05729471252633,589.2864389715083 L121.48029735765027,587.0155480739579 L122.46960994708846,584.9114544188823 L126.24875964139764,582.8899942600788 L127.4564285236981,581.3781073282864 L127.58695435239017,578.4369669609736 L126.50615169611066,576.5884250443689 L123.31741789981507,574.0818756574497 L122.91974107594666,572.3129067372553 L125.41193049669369,567.4895589548566 L127.03191461355627,560.372366525943 L127.05143249448287,558.3662088664493 L125.92549473856042,554.9491607706063 L124.34820598622196,549.5871650125084 L125.63150665711063,548.2390148233294 L129.4509119808307,550.4609377230889 L136.5310232867604,551.608625171312 L138.46329349844072,551.1403686924372 L138.94148158112856,548.4624313132499 L138.23029879488465,546.4975904018921 L136.22971599996376,542.722463822204 L135.22820473494514,541.4309328804702 L132.9555914746159,540.4714661737557 L130.58782854477343,540.6199004170594 L128.41036495395977,540.165416187563 L125.92793447367526,538.5632445098438 L124.7654006910177,536.896802335024 L124.82639406891136,534.3581176995544 L126.95018348717903,529.6923856600453 L128.70801263808298,528.3886127188639 L133.98271995835015,529.0558016887642 L134.78783254655104,527.3908897638752 L135.07084181997809,525.2133441121132 L134.55727757811135,522.4328799875517 L132.4713040541374,520.7235908146649 L128.55796892846277,519.5942663656135 L127.47960600729809,518.4373974178047 L127.43081130498251,514.7969328320413 L128.88001396374216,507.5129431606526 L130.284081522862,505.0905575199363 L131.3282881524064,504.43714079941464 L134.2803676424725,504.0561085666047 L135.12573586008273,504.55190954423716 L136.67130805591572,507.150273927014 L137.75821004998585,507.76084364946865 L138.95611999182228,507.28799642080077 L140.31383258374217,505.7179599916317 L140.56634516822322,503.6505923348992 L139.48798224705854,501.0369254528126 L137.87775707065924,499.4362840250241 L134.10226697902272,496.62215440198145 L128.49331594789484,495.1378119689464 L126.56958480911999,494.00848751989486 L125.6925000350059,491.55855738042135 L126.62203911410901,488.81634950413394 L128.09685899158504,487.38403556875153 L130.61100602837345,487.1560283290379 L132.5213186240116,487.74211405259723 L133.96564181253996,488.8913317507511 L136.4431928225925,492.34051509514416 L139.02321270750502,493.73763328211413 L142.0741014697617,492.79193882477847 L143.54770147967994,491.1178454003037 L145.20428162327926,492.5302660865836 L150.0483756956156,494.49663724787246 L155.6756247401114,494.53183299628455 L158.69967641609307,494.07581851685734 L166.20308176460597,492.2502303492171 L168.91850694844499,491.9686643619197 L173.37102353470354,492.70624482864446 L182.889650088831,497.41176336635897 L188.2656064164052,500.258028237952 L189.58184351135634,501.4164274356917 L193.1097004887415,505.3155042597881 L195.9092965340734,506.9651136853673 L196.74978528145311,508.125043133038 L197.56099720744146,511.81294546666135 L197.81350979192325,516.5184640043758 L198.76500648706855,519.6095688649232 L201.36942372314041,523.6142329342562 L203.35658797492465,525.4398211018961 L206.2952489218548,526.9103912855525 L212.00056949005528,527.5041282587665 L215.21126090239227,528.8155524496028 L219.57838675959925,532.374913789025 L224.65547553549004,537.9006462897363 L230.70357888745428,543.0514675573611 L236.41499879344377,548.9046735432985 L242.14227697768558,555.9958517233858 L234.41319613096346,560.3356405275999 L230.60232988015042,563.4343966378021 L226.22544508248012,566.4443982520081 L222.34382651331015,569.3671756201496 L218.4256119174019,571.979312252305 L215.42595759257875,575.2999546024973 L211.79075227009997,582.1172180449419 L209.67306218962136,584.1983579510529 L206.6734078647982,585.5709921391278 L203.85063433586475,584.8181091730935 L198.83819854054195,581.6305985668953 L193.93311109031032,578.2212017207077 L192.13258657488143,577.6014504986668 L188.1802156873529,577.1148310206204 L180.38038252227463,575.344331850495 L175.43991891286575,573.8385659184265 L171.4155758394232,572.3327999863579 L169.6162711915514,572.112443996299 L163.1216963134032,574.3695626444711 L158.2166088631724,575.6978195845478 L155.4279916258616,577.2035855166165 L149.22618496160618,582.41561678148 L146.74497434887945,584.9068636690895 L145.01764188692397,585.604657637609 L143.05243525118038,588.0698902763919 L139.9551915217269,599.4610707624882 z"/>
	<path id="kirikkale-karakecili" title="Karakeçili" class="district" d="M143.54770147967994,491.1178454003037 L142.0741014697617,492.79193882477847 L139.02321270750502,493.73763328211413 L136.4431928225925,492.34051509514416 L133.96564181253996,488.8913317507511 L132.5213186240116,487.74211405259723 L130.61100602837345,487.1560283290379 L128.09685899158504,487.38403556875153 L126.62203911410901,488.81634950413394 L125.6925000350059,491.55855738042135 L126.56958480911999,494.00848751989486 L128.49331594789484,495.1378119689464 L134.10226697902272,496.62215440198145 L137.87775707065924,499.4362840250241 L139.48798224705854,501.0369254528126 L140.56634516822322,503.6505923348992 L140.31383258374217,505.7179599916317 L138.95611999182228,507.28799642080077 L137.75821004998585,507.76084364946865 L136.67130805591572,507.150273927014 L135.12573586008273,504.55190954423716 L134.2803676424725,504.0561085666047 L131.3282881524064,504.43714079941464 L130.284081522862,505.0905575199363 L128.88001396374216,507.5129431606526 L127.43081130498251,514.7969328320413 L127.47960600729809,518.4373974178047 L128.55796892846277,519.5942663656135 L132.4713040541374,520.7235908146649 L134.55727757811135,522.4328799875517 L135.07084181997809,525.2133441121132 L134.78783254655104,527.3908897638752 L133.98271995835015,529.0558016887642 L128.70801263808298,528.3886127188639 L126.95018348717903,529.6923856600453 L124.82639406891136,534.3581176995544 L124.7654006910177,536.896802335024 L125.92793447367526,538.5632445098438 L128.41036495395977,540.165416187563 L130.58782854477343,540.6199004170594 L132.9555914746159,540.4714661737557 L135.22820473494514,541.4309328804702 L136.22971599996376,542.722463822204 L138.23029879488465,546.4975904018921 L138.94148158112856,548.4624313132499 L138.46329349844072,551.1403686924372 L136.5310232867604,551.608625171312 L129.4509119808307,550.4609377230889 L125.63150665711063,548.2390148233294 L124.34820598622196,549.5871650125084 L125.92549473856042,554.9491607706063 L122.59159670287664,554.9736447695018 L117.24735693180949,553.1633591011715 L112.64479663593232,552.0462766515676 L108.76561780187794,550.2482329826851 L105.9818800347976,547.9681605855487 L104.091085320086,545.5978034424853 L102.521115773096,541.2151676402044 L101.6879462310639,536.030680874098 L101.36712106334232,529.6388269124614 L100.82306013252719,522.7649442225709 L99.45070912991434,513.9216298715297 L95.90455413916044,497.03838238320367 L93.98082300038561,492.58994583389125 L91.58866271938459,485.3549241602932 L91.0763183450749,480.7993701158132 L89.32458853196081,473.4021419495333 L88.21328918673365,464.77306258882703 L88.08520309315563,451.10640045538713 L91.69357132936265,451.0926282060085 L97.64774487936987,450.7177169729224 L100.40830516284865,450.3412754899052 L107.52623236307284,450.1744782474303 L110.51978735010843,449.9250475086831 L113.14738206977876,449.21501154071564 L117.03875957941281,447.08796413667574 L121.41320464196596,444.23557826535864 L123.8078046580818,443.28988380802286 L128.29325766840284,442.74817533246164 L131.21971993975495,443.24856705988697 L134.3791769146615,443.0404530692759 L137.90581402448888,442.3304171013085 L149.34695184983653,441.0786726577799 L153.33835849921584,440.2446864454044 L158.593547938558,439.9937254567265 L161.52123007746712,440.9960391615079 L166.54830428348615,443.3296703062279 L163.54986982622003,444.69312299471693 L158.44350422893862,448.58760906902046 L156.81864064184396,450.20508324604947 L149.51895317549574,459.02238334826416 L148.06853064917829,462.09053445984694 L148.6662657525387,468.56808241761786 L148.26614919355546,473.04253321575675 L146.85964189931997,475.99438533258626 L145.74224321630376,479.5078391740797 L144.9212723498506,488.18741678250774 L143.54770147967994,491.1178454003037 z"/>
	<path id="kirikkale-keskin" title="Keskin" class="district" d="M166.54830428348615,443.3296703062279 L170.1542327845767,443.6846882902116 L172.5951877678933,442.83386932859565 L174.60430963571883,440.775683171449 L175.06541957259657,438.9026572559489 L174.29080367334333,436.33795837165343 L172.80134538517277,435.06938117888416 L170.22132550026024,433.7579569880481 L167.78159038450144,432.93468252518926 L160.96497047107388,431.20550010319994 L157.5420221036652,429.7257484199577 L156.41608434774434,428.10521374306694 L155.98181149713847,425.1472406265133 L156.49415587144819,421.119622808216 L157.02479825912582,419.0216501528643 L158.0263095241437,417.113428488952 L159.587739998229,414.7690855947152 L163.43520227578034,411.5907564881031 L164.35620228197791,409.62591557674506 L165.21986851295526,404.4047028122958 L166.69834799310556,402.7520328868548 L169.28934668603995,401.33349120085103 L171.8974235247853,398.5132405780844 L172.9330910814242,393.86434128781576 L176.83788713419418,390.0157627114411 L180.8610103400805,387.3010993339109 L183.5020236028883,384.7823079475441 L189.1158541042466,381.5029823454883 L196.74246607610547,379.55803468323285 L198.30633628530563,376.90917205273416 L199.4237349683242,373.4232627099981 L201.5438647839169,372.70557549237606 L206.5550807116827,370.0108053639484 L208.70326748110813,368.6442921755973 L211.62485028222824,366.3091307809463 L219.5015351034525,360.6319035370698 L224.25657884406388,356.9669549524109 L228.18089277776045,354.9914022915363 L231.0731987574914,353.15969312417224 L239.12188490437734,349.06321405898177 L240.49667564210654,348.59648783003763 L248.45875119238235,347.8772703624846 L253.5858545381472,348.4526443365271 L256.3354360136058,349.5299402879257 L259.83035656692925,349.4580185411703 L269.3685010019849,346.6194049192322 L271.144628166256,345.68595246134396 L274.23699242547974,345.14730448564455 L277.9612480796835,343.81751729563683 L280.30949312860093,343.7088695505385 L281.9136189672112,343.9246347908044 L286.7540534368742,343.56502605702786 L290.5636998201309,343.9246347908044 L295.4041342897938,343.4579085618604 L300.6459051860001,343.6736738021263 L302.70748135881547,344.3913610197485 L304.967895943565,345.68595246134396 L309.7790535918396,347.257519140444 L313.1690655351851,347.6400816231851 L322.2326814902255,347.5911136253942 L325.3555424383962,346.7800811619833 L334.26667494870077,342.2887976146039 L340.6648802897755,338.89623351765675 L345.0063889282663,335.6964809120107 L348.39640087161246,334.1187932331869 L352.2804591758989,333.4500740133556 L355.28987244118684,333.25879277198504 L358.86896385600403,332.2090413193439 L360.7951347298937,335.91377640220776 L363.7533135577504,342.77847759251233 L365.15738111686954,345.00499124206505 L372.8474262017377,350.4297272473325 L378.5039520676225,353.1199066259672 L391.99812699287855,357.8514394125081 L396.3981892741472,359.84535507255424 L399.1709482332065,363.0451076782 L401.64727937570046,367.5899499731632 L404.23583833352,370.65044983509114 L416.8053536499034,380.20533040403075 L423.3133470711883,384.66906945265276 L422.8302795182669,387.03177534606135 L422.82418018047935,390.1886809536402 L422.4240636214937,391.4526673966164 L420.0916768508302,394.1153022764937 L415.9746238429885,396.6004281643793 L415.062162909694,398.56067832594437 L414.8072105900973,401.72064443338496 L416.2185973545649,406.8117859537024 L416.8187721930409,410.62057803187196 L416.74801987468476,418.63296667039936 L416.57235894634897,419.8418641158611 L416.0063403994947,423.7241081907167 L415.26588079186104,425.6277391048362 L413.50073243561104,427.70887901094716 L407.53679994513976,432.66841903720155 L401.36061049959835,435.5896661554119 L396.34817470427544,435.45653441141803 L393.41927269780695,436.2981718734483 L390.2781137362683,439.66319147163813 L389.0838633971053,444.1927312672917 L388.472709750609,445.43223371137253 L386.8258885474722,446.96707439212946 L379.8616646595409,451.6894256790844 L376.1435083431262,453.99245182518547 L373.9318884606922,455.8226307426183 L368.47298113918373,459.54113807486107 L366.684655299333,461.66665522896994 L365.367198336824,464.6185073457998 L364.42668044969986,468.1595056860504 L363.34465792586093,475.6562000978433 L362.26507513713767,485.1192656709248 L359.9546459825155,486.5867753547193 L356.8976578824698,487.3932170683374 L350.2530392947038,490.38638593330296 L347.2155690755854,492.01304160991776 L341.37972267869293,495.56475169968513 L335.46824449321144,500.597743722626 L332.82601136284654,502.29326064613406 L326.975526555258,505.34457900847644 L319.63802319461615,508.8350791010054 L314.6158284588299,510.679030267817 L310.0876800839831,511.5420912288806 L308.5860231202337,512.0730879549252 L305.6241846897035,514.1144413628314 L298.7441316632658,516.0333747762602 L298.3110786802194,520.6822740665289 L298.9234521942751,522.3930934893466 L300.9935674399959,524.8139488801316 L306.9221237712875,529.949467648447 L311.1111489650432,534.9074774247707 L312.5701105642661,537.5639913049241 L312.3419953309429,541.1554878928968 L311.7223026115411,544.3521799986806 L310.45242048378907,548.0125378335464 L309.36917809239236,550.0783752403479 L308.28715556855354,551.0822191950602 L306.0291807189204,551.2000484397445 L302.02923499663564,550.6093719663925 L294.5941422313633,548.4853850622145 L291.34685479228955,547.4218613601944 L286.3112415133644,544.2343507539963 L283.0175991070915,541.4600076291583 L281.65256730982554,539.9848466957093 L279.58245206410396,535.9710011267905 L276.4303142945458,533.9051637199892 L272.3352189027455,532.8416400179692 L268.1535129143375,532.9303945139649 L264.024261230917,534.3030287020397 L261.5186532670324,535.9847733761691 L259.1191737806853,538.4209312662638 L253.36627837772875,547.9834630848584 L251.53037770312096,550.0646029909694 L247.40112601970202,552.8083411171879 L242.14227697768558,555.9958517233858 L236.41499879344377,548.9046735432985 L230.70357888745428,543.0514675573611 L224.65547553549004,537.9006462897363 L219.57838675959925,532.374913789025 L215.21126090239227,528.8155524496028 L212.00056949005528,527.5041282587665 L206.2952489218548,526.9103912855525 L203.35658797492465,525.4398211018961 L201.36942372314041,523.6142329342562 L198.76500648706855,519.6095688649232 L197.81350979192325,516.5184640043758 L197.56099720744146,511.81294546666135 L196.74978528145311,508.125043133038 L195.9092965340734,506.9651136853673 L193.1097004887415,505.3155042597881 L189.58184351135634,501.4164274356917 L188.2656064164052,500.258028237952 L182.889650088831,497.41176336635897 L173.37102353470354,492.70624482864446 L168.91850694844499,491.9686643619197 L166.20308176460597,492.2502303492171 L158.69967641609307,494.07581851685734 L155.6756247401114,494.53183299628455 L150.0483756956156,494.49663724787246 L145.20428162327926,492.5302660865836 L143.54770147967994,491.1178454003037 L144.9212723498506,488.18741678250774 L145.74224321630376,479.5078391740797 L146.85964189931997,475.99438533258626 L148.26614919355546,473.04253321575675 L148.6662657525387,468.56808241761786 L148.06853064917829,462.09053445984694 L149.51895317549574,459.02238334826416 L156.81864064184396,450.20508324604947 L158.44350422893862,448.58760906902046 L163.54986982622003,444.69312299471693 L166.54830428348615,443.3296703062279 z"/>
	<path id="kirikkale-merkez" title="Merkez" class="district" d="M224.19192586349595,172.16326153967745 L226.54383051508688,172.39738977911512 L229.8008768946246,173.633831723334 L233.81668089516086,176.1510928597699 L238.09597628820006,177.6247235432883 L239.67814451076976,177.78080903624652 L238.89254980349625,182.10529534115096 L238.72054847783477,190.03964123319926 L238.72054847783477,198.72993059114415 L238.5485471521739,202.5081176706943 L235.96730739970195,207.42021994908882 L235.0206901747872,209.74007884443031 L234.5900769268555,212.22367448238498 L234.5900769268555,218.75478118773947 L235.23538686497534,221.88567254649186 L236.5260067412101,225.2323291455102 L239.3658584159529,231.1696988776507 L241.00170081106774,233.5446467705068 L241.94831803598174,237.86148182575636 L242.85102002881308,243.58308631763094 L245.56278560997623,254.75697131353024 L247.54141078885738,265.17338259360247 L248.57463861038065,267.76562597665543 L252.44649823908736,272.2982262721709 L254.3836479209997,276.293708841918 L259.50343206141787,285.3068809352961 L262.0846718138889,289.57168749289286 L263.8925155346655,295.56261597261715 L264.7964373950545,301.3377792120754 L266.6030612482732,316.77494051564065 L267.5069831086607,318.8805644206471 L271.33614737284324,323.19892972582755 L272.75607321021306,324.3864036722557 L275.9399275362783,330.4308908995636 L277.70385602497043,333.02160403268556 L279.64100570688277,338.5274432842943 L280.27045736674864,341.3752384058183 L280.30949312860093,343.7088695505385 L277.9612480796835,343.81751729563683 L274.23699242547974,345.14730448564455 L271.144628166256,345.68595246134396 L269.3685010019849,346.6194049192322 L259.83035656692925,349.4580185411703 L256.3354360136058,349.5299402879257 L253.5858545381472,348.4526443365271 L248.45875119238235,347.8772703624846 L240.49667564210654,348.59648783003763 L239.12188490437734,349.06321405898177 L231.0731987574914,353.15969312417224 L228.18089277776045,354.9914022915363 L224.25657884406388,356.9669549524109 L219.5015351034525,360.6319035370698 L211.62485028222824,366.3091307809463 L208.70326748110813,368.6442921755973 L206.5550807116827,370.0108053639484 L201.5438647839169,372.70557549237606 L199.4237349683242,373.4232627099981 L198.30633628530563,376.90917205273416 L196.74246607610547,379.55803468323285 L189.1158541042466,381.5029823454883 L183.5020236028883,384.7823079475441 L180.8610103400805,387.3010993339109 L176.83788713419418,390.0157627114411 L172.9330910814242,393.86434128781576 L171.8974235247853,398.5132405780844 L169.28934668603995,401.33349120085103 L166.69834799310556,402.7520328868548 L165.21986851295526,404.4047028122958 L164.35620228197791,409.62591557674506 L163.43520227578034,411.5907564881031 L159.587739998229,414.7690855947152 L158.0263095241437,417.113428488952 L151.15479557061147,412.2472337084865 L143.80875313706565,408.37723163307857 L138.66579151304754,406.3863764728943 L136.3443835504043,405.72224800285585 L131.81989477823177,402.5531003958294 L129.29232919830665,399.93484276395 L124.20914108462443,393.55829130162283 L123.18079273333234,391.64241838805594 L123.51869604686485,388.1151922971837 L124.34088678087508,385.3133046735887 L124.65439274325061,381.2351886075694 L126.53542851749972,377.30244628499196 L130.33531596029246,373.1248639734602 L134.91957824280166,370.42244259537756 L137.93631071343648,369.1936519008136 L145.53730546657977,368.1607331974127 L147.34026971712504,367.66952296957317 L151.8062048465187,362.70539219352594 L153.0992644578707,359.31435834650983 L155.007137318394,355.37855552407024 L160.00249496790752,351.39837545363275 L161.20772411509245,347.6002951249801 L162.7349982975559,344.2459872763069 L163.8816738019627,340.3025332042125 L166.1738049432177,337.68580582226394 L169.84682615999102,337.3537415872448 L171.49242749557004,335.99028889875586 L171.66808842390506,333.6306435052092 L170.639740072613,330.6818518882417 L169.14296257909396,329.54793668939743 L166.73982349007426,329.4163351953345 L163.13511485654072,328.2365124985612 L162.66546584675754,327.7131670221715 L163.7096724763019,324.8944466493357 L164.12808704865307,320.8316330826262 L166.16526587031305,318.0144429597213 L165.5382539455628,315.3931248279801 L167.74133475509055,310.14895831456624 L168.99413873703398,306.56358272631746 L168.35126853403142,302.1335091761768 L170.1810698708493,297.18009014964616 L172.17189372530692,294.079803789513 L173.13558909603182,292.0659948803644 L174.41888976692215,287.87770081931575 L175.70341030536787,281.79648759366466 L177.37218912454605,276.39929608715454 L180.55116398037921,270.64096559693684 L182.7664434654858,268.10381121139847 L185.5270037489662,266.37156828954727 L186.9396103809907,265.9691125577036 L191.3701693512071,262.8275094494345 L193.1353177074571,259.8481128338476 L194.869969374761,251.95508368993515 L196.69977071157894,247.84636262529668 L199.621353512699,244.6649730188226 L202.9271945945523,241.64425965509946 L204.33980122657454,239.99311997958932 L207.1967310471274,233.5492375202996 L208.03234032427514,229.52314995193336 L208.38488204850216,221.34702457079248 L208.35316549199752,214.9444588596391 L204.98267142957786,208.41947315400841 L201.18278398678513,198.7085070921106 L203.68473234799308,195.39857649143534 L206.76001846140673,191.73974890650044 L209.54863569871839,188.8047295389114 L211.40649398936745,185.46878468940977 L215.3808224929374,182.69597181450288 L217.30333376415518,180.92700289430846 L223.1355205583735,174.45557593626154 L224.19192586349595,172.16326153967745 z"/>
	<path id="kirikkale-sulakyurt" title="Sulakyurt" class="district" d="M239.67814451076976,177.78080903624652 L238.09597628820006,177.6247235432883 L233.81668089516086,176.1510928597699 L229.8008768946246,173.633831723334 L226.54383051508688,172.39738977911512 L224.19192586349595,172.16326153967745 L224.33465036776778,162.66040946839087 L223.39169274552876,154.16140135181655 L220.69456557505845,144.93552451803455 L218.16699999513258,138.0677628278679 L217.4399589306363,130.76694040723856 L217.8608132381047,127.93291753509305 L219.6223019916829,123.3697122409584 L223.68080135674563,118.27857072064103 L225.86436428534836,112.32283798932897 L227.9942530414043,105.44742504950767 L232.08812856564754,93.03250735959642 L232.79931135188986,89.19158003287663 L232.90665969698358,80.79662891160802 L233.41168486594643,76.38950911043169 L233.30311665329492,73.6029239861461 L234.5473815623314,72.0099338080125 L235.05484646640747,70.00836689831164 L234.36196169353383,65.6196100963068 L235.9782862077231,62.86056947077863 L239.01209682416805,60.20558584055596 L240.69429418648366,56.4273987610058 L240.42470345619017,54.77472883556459 L238.1106146988954,52.245225699681015 L237.3335590645258,50.288036037978074 L237.93739350567597,48.538960366886165 L244.76011275689416,39.03151754580656 L247.72317105498138,36.86774414342357 L251.37789425838594,35.23037671729206 L253.7297989099768,35.328312712873746 L255.38027971578708,33.94037602548939 L256.49401879612986,28.065746540518298 L257.6699711219257,26.936422091466984 L259.8632929909917,26.58752510720712 L261.46985856471844,25.611225651252063 L262.0602744627312,24.52627845019865 L262.24935393420293,19.86207666062027 L261.31005591463656,13.45645044960486 L260.41711286227013,10.982036311235863 L260.35002014658494,8.946803903053764 L261.8614360507977,7.4364472211923625 L267.01049701260337,3.8740253819079125 L269.1586837820296,3.4945233990288425 L274.6590666005052,4.1632426188601475 L276.33028515479975,3.6842743904683797 L278.627295766286,1.9826364672364227 L280.88771035103395,2.1280102106780485 L288.70584152948175,3.3552706553112843 L291.46640181296215,3.9811428770754667 L297.4083766873897,5.828154543749046 L298.87709722707433,5.858759542368257 L300.00425485055456,4.819719839243769 L302.24637142193615,5.102816076472166 L305.2679833628038,6.210717026490135 L306.97579794383273,7.2084399814785405 L318.17540199272054,5.95975603781198 L322.73526692407114,5.900076290504354 L325.3299252196806,5.216054571363549 L331.4463411548853,8.09445469150677 L337.2138749685365,10.148050098860612 L339.24251471728934,11.353887044460286 L341.1296498293267,14.301148411496992 L341.44925512949123,22.4283057948469 L342.4105107650998,29.439910978524175 L344.4049942222332,35.60222745051627 L345.93592800737014,38.23731783163639 L348.2134207379298,40.96116270875233 L351.23991214902713,43.32845935195376 L352.9843227567944,43.686537835799285 L361.13669764609966,42.79287187611619 L370.9968871164346,42.4807008901996 L379.22123419165547,41.140201950675184 L385.2729971462915,41.452372936591786 L391.0039349332076,41.407995688593864 L397.9108250459178,42.25728440027883 L401.36427010227254,43.23970485595774 L402.8232317014971,43.95433157371796 L407.1305840483667,47.749351402508836 L409.90822247765715,51.054691253391056 L413.57392448908286,53.77853613050699 L417.84590067677436,55.564337799942145 L420.2307417524285,56.028003529024204 L419.9099165847054,60.17039009214391 L421.0785497051543,64.22402215926759 L422.24718282560167,67.39929076601788 L423.9989126387158,69.59825991681315 L428.0879086927262,72.08950680442264 L435.7157405321429,75.39178615544307 L433.04301071282964,77.99015053821991 L431.33763586691555,82.64670107814344 L431.6413828888278,84.35752050096126 L428.2696689588495,89.77307500664311 L424.74791131925423,93.81140457445709 L422.9681245523089,97.56510765511186 L421.3005656006885,100.36852552863797 L418.83887286888756,103.55144538504312 L413.8020397224061,109.5393133649054 L410.62062513145736,113.86226941987877 L408.8396184969542,117.56853475267363 L407.93081716633554,118.80344644696171 L405.6582039060063,120.4668281219196 L402.4011575264701,122.27252304045709 L399.74916545564116,124.36284444615396 L395.2807905911303,126.78523008686999 L393.424152168039,127.26113781539995 L375.8885560235296,141.08694594165988 L373.1011586537765,142.7564486163416 L369.52450697407494,146.45659294941282 L368.0094314671897,147.59662914798085 L365.3586592639185,150.5897980129467 L363.3507572636492,151.54008322007536 L357.1391916589305,152.96474590580277 L348.23903795664705,153.01218365366267 L341.45901406995455,151.39776997649557 L334.60335839467626,149.97157704083713 L331.76228685237567,149.59207505795808 L326.0057318467448,150.30517152578727 L322.59742189003066,151.82470970723458 L317.4459211931087,155.34122404858985 L315.8552138976343,156.00688276855934 L305.4009489266123,156.10175826427903 L294.4550773297642,157.1469189671276 L286.5393567466884,158.38183066141545 L281.615971283088,157.8110474371658 L277.94173019875853,157.6687341935862 L276.1229076699601,160.14008783209314 L273.2830559952181,166.64977103841412 L270.2150890871529,170.6406628583684 L267.41183343914753,173.15792399480404 L265.1014042845238,174.63155467832243 L258.51167973686165,176.19853060762964 L253.73833798288143,176.81675157973916 L249.83720153278495,177.57728579542828 L244.9894478577744,178.00422552616732 L239.67814451076976,177.78080903624652 z"/>
	<path id="kirikkale-yahsihan" title="Yahşihan" class="district" d="M201.18278398678513,198.7085070921106 L204.98267142957786,208.41947315400841 L208.35316549199752,214.9444588596391 L208.38488204850216,221.34702457079248 L208.03234032427514,229.52314995193336 L207.1967310471274,233.5492375202996 L204.33980122657454,239.99311997958932 L202.9271945945523,241.64425965509946 L199.621353512699,244.6649730188226 L196.69977071157894,247.84636262529668 L194.869969374761,251.95508368993515 L193.1353177074571,259.8481128338476 L191.3701693512071,262.8275094494345 L186.9396103809907,265.9691125577036 L185.5270037489662,266.37156828954727 L182.7664434654858,268.10381121139847 L180.55116398037921,270.64096559693684 L177.37218912454605,276.39929608715454 L175.70341030536787,281.79648759366466 L174.41888976692215,287.87770081931575 L173.13558909603182,292.0659948803644 L172.17189372530692,294.079803789513 L170.1810698708493,297.18009014964616 L168.35126853403142,302.1335091761768 L168.99413873703398,306.56358272631746 L167.74133475509055,310.14895831456624 L165.5382539455628,315.3931248279801 L166.16526587031305,318.0144429597213 L164.12808704865307,320.8316330826262 L163.7096724763019,324.8944466493357 L162.66546584675754,327.7131670221715 L157.35294263219424,329.4882569420897 L147.92580614490655,331.0261581227086 L140.64563655948484,334.00708498822655 L128.68971462471342,337.5633858277869 L122.78799537969601,336.98648160381344 L120.7191000015338,336.4095773798401 L117.34738607155549,338.14029005176036 L114.51119399948772,339.1976927540565 L112.28859530903267,341.40890390429956 L109.68295820540214,345.73645070906576 L106.31124427542545,348.90865881595414 L103.168865446329,353.1382696251389 L96.34736606267023,355.2530750297312 L94.04913558362617,354.00439108606446 L92.97565213269272,348.1389431006794 L93.68805478649443,340.06993521470616 L90.4615050959043,345.24830098108833 L86.77750507110994,349.38303629455316 L83.9095964425367,351.06631121861363 L82.05905735723445,348.5704735812113 L74.14821624438989,339.17014825529924 L71.37301755021502,336.2687943861914 L69.79816853299215,332.01469957811133 L70.90946787822088,328.7460857255722 L70.39712350391196,326.9771168053777 L70.73868642011789,325.26170663276713 L76.03657122398668,321.18818131654086 L76.7623924209235,320.1705651124497 L77.78830103710072,316.5255097768935 L79.83889840189497,310.57742829523625 L81.5479328504841,306.7181379693449 L82.18958318592806,302.96596513862124 L82.27497391497877,299.5887035409835 L82.01880172782353,293.85485704966123 L82.44575537308177,292.03232938188313 L86.81532096540442,284.1025742396275 L87.43867328748047,281.822501842491 L88.20840971650162,277.1996168010487 L89.16966535211097,273.6616789606599 L90.03455145064768,271.8529235422604 L92.8731832578319,268.0548432136077 L95.5617713553959,263.8405349037327 L97.74167468132521,261.2681847697822 L102.31251842069852,259.3920983544202 L105.09015684998744,257.5695706866422 L107.35423103741121,255.63992552369643 L109.8756972795473,251.67351770263778 L112.73750657033148,246.74305242507148 L115.33826420372995,239.4544720038899 L116.26780328283303,238.28842155649534 L121.55470927868072,234.91115995885758 L127.86264442047116,231.38699436784742 L132.41762988159215,229.4451072054542 L134.14862194622185,228.11838051530822 L137.7374723015023,224.05862744846073 L140.42972000174052,222.21008553185615 L144.9798259926295,219.95908788340813 L153.5994101566015,215.37598934017092 L158.18123270399434,213.96968965361484 L161.00156649781138,214.2099388927763 L167.50590031642122,213.28566793447402 L170.0383453665768,212.68274946167418 L172.7940261798275,211.07445678423085 L176.44630964811563,209.54726735312877 L179.13855734835465,208.70256939123664 L185.00246069907834,208.09965091843677 L188.943852778585,207.41715944922703 L192.82181174508156,205.96954301453502 L196.37772567629952,203.83943511063305 L198.26852039101112,202.1515694367796 L201.18278398678513,198.7085070921106 z"/>
	
</g></g></svg>