<svg xmlns="http://www.w3.org/2000/svg" version="1.2" baseProfile="tiny" width="600" height="600" stroke-linecap="round" stroke-linejoin="round"><rect id="backgroundrect" width="100%" height="100%" x="0" y="0" fill="none" stroke="none" class="" style=""/>































































































































































































































































































































































































































































































































































































































<g class="currentLayer" style=""><title>Layer 1</title><g class="city city-77" id="yalova" title="Yalova">
	<path id="yalova-ciftlikkoy" title="Çiftlikköy" class="district" d="M501.3214830388689,199.39440360918363 L501.75844535846204,201.98205509117895 L501.64010139690447,208.43004648827463 L503.03473946694214,220.41378757342193 L502.4776125094612,223.36856071881297 L499.5954818764694,229.10678356667694 L497.3178157855858,238.25367543467556 L497.3178157855858,243.70710087093556 L498.57226177808764,247.17361936530241 L503.96510507241146,251.60355410361078 L511.35705097888115,262.45478048167695 L514.2391816118711,268.7625981527487 L514.8436461539754,275.97820757330817 L513.0775901122819,278.7616572757812 L503.5936871007574,286.9429079200603 L499.64099878476236,293.76024596032977 L499.9195622635019,296.4858461885707 L496.1088867013732,303.30540920861836 L495.82850254630137,306.5427547858351 L494.75976553962846,308.3049387701345 L494.85262003254104,311.60013382158337 L496.0160322084606,313.5870407634764 L495.69013114509767,318.586570324993 L495.0856666029914,321.02959812140784 L491.7374428291007,322.56483416833544 L491.04012379408186,328.24520754196755 L489.41425982992416,330.1208654949529 L489.87853229449456,333.07341366056573 L489.92586987911795,340.0620751437531 L487.83209209772906,342.80992516977545 L484.0924229125345,340.75849381431595 L477.9185094719333,338.21979188743995 L474.2607707216649,337.6568720035665 L472.03226289173324,337.7280713564677 L466.0877546689216,335.25834380271453 L463.20380335959936,333.42496046551423 L455.29842672760736,325.9512533906885 L451.8992240164324,324.131219932157 L447.5150354098356,317.58310444504457 L443.2036738565052,312.2965524921462 L436.91141645435215,307.370447263309 L432.088444851828,304.6070223788395 L427.41476870850335,300.4618850521351 L424.09931710858314,296.77731853950917 L419.1252293705329,293.6467719916438 L416.41060096005435,282.686521604448 L415.46931129659686,275.96263271486106 L412.07739129074747,264.12796527485006 L411.0978674243225,254.96327356862616 L403.77692789478874,244.09424735233475 L403.66404596222634,239.85788585472608 L404.9458020997035,237.04996137469328 L403.2361870242911,229.11123352623324 L414.63180018404205,217.0918927646353 L425.16805411525604,215.02711153050663 L431.5331385706774,215.40535809279316 L444.20504583891045,202.78972275064945 L461.95481939609266,188.18718046661257 L467.1528503229336,189.59781764596337 L470.6194180583799,187.99360722591308 L488.91903586771764,200.57809285116247 L497.1011553021207,201.2211120070495 L501.3214830388689,199.39440360918363 z"/>
	<path id="yalova-altinova" title="Altınova" class="district" d="M487.83209209772906,342.80992516977545 L484.065112767561,340.75849381431595 L477.8911993269598,338.21979188743995 L474.2607707216649,337.6568720035665 L477.9185094719333,338.21979188743995 L484.0924229125345,340.75849381431595 L487.83209209772906,342.80992516977545 zM487.83209209772906,342.80992516977545 L489.92586987911795,340.0620751437531 L489.87853229449456,333.07341366056573 L489.41425982992416,330.1208654949529 L491.04012379408186,328.24520754196755 L491.7374428291007,322.56483416833544 L495.0856666029914,321.02959812140784 L495.69013114509767,318.586570324993 L496.0160322084606,313.5870407634764 L494.85262003254104,311.60013382158337 L494.75976553962846,308.3049387701345 L495.82850254630137,306.5427547858351 L496.1088867013732,303.30540920861836 L499.9195622635019,296.4858461885707 L499.64099878476236,293.76024596032977 L503.5936871007574,286.9429079200603 L513.0775901122819,278.7616572757812 L514.8436461539754,275.97820757330817 L514.2391816118711,268.7625981527487 L511.35705097888115,262.45478048167695 L503.96510507241146,251.60355410361078 L498.57226177808764,247.17361936530241 L497.3178157855858,243.70710087093556 L497.3178157855858,238.25367543467556 L499.5954818764694,229.10678356667694 L502.4776125094612,223.36856071881297 L503.03473946694214,220.41378757342193 L501.64010139690447,208.43004648827463 L501.75844535846204,201.98205509117895 L501.3214830388689,199.39440360918363 L504.1235039132649,198.30416351788728 L507.5500167694172,198.499961738365 L513.9660801621247,194.46162344101214 L524.2492600832421,193.46928245995454 L527.2825068517582,191.21982790423914 L532.3804005803572,181.1695942463091 L536.3877091863011,176.82420873957057 L536.7554858052943,172.37647416303707 L545.2726096847182,169.6397490359054 L556.4461003320089,162.31289062643813 L559.2881760857009,158.99322079742956 L560.13843193258,153.71334378386578 L562.4288427577842,153.3506720800263 L565.27091851148,157.24883665135545 L566.3542209288076,160.95787794154126 L569.6077695334516,154.79023399649327 L572.8066978481485,152.64980344990724 L574.2250047104969,155.115081044104 L574.2413907974822,164.89609214887713 L575.3920582390812,171.05706115459063 L583.652466755742,179.88800589409126 L585.6588520732115,182.71373021234928 L587.5123005788246,186.8121429637123 L591.4212926628609,191.36222661004106 L592.4426920849122,194.42157380500527 L596.1350236854834,199.7481753939105 L597.564254605822,200.96746431233987 L593.7717858070109,211.07109748494554 L592.2842932440587,210.69952586199355 L590.6420431929178,216.05060222845842 L587.0735175828992,222.00909807435968 L578.9878939940752,228.621737975039 L573.933696497433,230.6553694922734 L568.8813196771268,234.2153371373227 L566.265007788556,239.30164091018702 L562.3997119364802,245.69623279260705 L560.378761208356,247.80328864252056 L557.7624493197869,249.25620043765633 L549.9135136540762,251.79935232408846 L544.7409721958783,255.07007259797757 L542.9585300671995,258.630040243027 L542.0063163457518,267.20288732826157 L542.5415951872544,271.77967073192815 L544.0272670738742,279.845222427743 L547.1788578039477,291.68878978686666 L546.1083001209425,298.2280053548667 L543.3736442708141,303.1696854421508 L541.5912021421371,305.05869327380526 L540.2475430093837,308.2181645587864 L538.9694282245712,313.60929056125804 L535.3335375902831,323.9042719947852 L533.7768593267253,329.82939314401426 L533.4291101473821,332.6506675027159 L524.5442096489688,333.84770662336376 L510.1171703970323,332.6506675027159 L506.19361290234497,334.5530252130391 L499.0383549189884,339.77282777259273 L491.4206451473956,343.93353995774413 L487.83209209772906,342.80992516977545 z"/>
	<path id="yalova-armutlu" title="Armutlu" class="district" d="M162.19684747813753,415.9694852553181 L159.6042043818774,417.80509357229687 L151.0634117101447,426.27114162818 L149.89453750522998,425.8728702478901 L148.65647759971344,422.8313228911509 L146.72838136450355,421.175937936203 L143.55676319478016,420.0879228246847 L138.61908898336694,419.4026290530127 L129.24988858073348,419.747500918627 L125.86889263287426,418.4236379506242 L121.04956238301665,419.30917990233024 L116.88203425988686,416.7371032787821 L107.72767366438813,415.0438936676055 L106.17827810615967,413.82015478961966 L104.55969684733131,410.8787315228976 L92.97109199642402,410.171187953444 L93.28424832546638,407.3588135138549 L90.3329319918747,407.08069104158574 L86.63149700964759,404.82011158697924 L81.58458221833469,403.1024271982428 L80.60141699924506,400.42132656556515 L78.46758433856209,399.4401104833984 L74.0597269396545,393.739712291763 L67.17757040604616,386.8467249390363 L65.25311552350092,386.07243197623797 L61.934022570914195,381.19527630252026 L58.92444459471086,378.7678233645523 L55.69092342971497,379.3841427631014 L53.52978062405279,377.6486585361401 L48.2916948179178,376.07337285320557 L44.35903394157073,376.7141670293146 L39.78367432015179,375.4570534546565 L36.724938082992736,375.9042743900658 L33.25290831855137,373.4300968767566 L30.649341164301056,373.9151424683945 L24.056672167424342,371.983860020955 L15.745284713477389,371.61451337778124 L12.95418789706774,369.1025112082433 L10.936878521609955,368.2614688521003 L6.543586533355274,368.70423982795353 L3.6778419873506323,367.7029989277833 L3.858088944184459,365.6003930374261 L2.6691872996198427,360.8656360695104 L3.2882172523771587,352.63321089033366 L4.977804888141566,349.81193653163194 L9.367455523733497,347.4178582903364 L10.587308665934366,344.63663356764164 L10.818534560052434,341.29248896107333 L12.094828668532621,340.01312558863367 L12.499018814157111,337.39654936952246 L15.093482586749595,335.992587129506 L17.500416697180846,333.7386826142342 L19.168156216964938,333.32483637549706 L21.06894230719942,331.2934298380407 L25.55326811203433,329.88946759802457 L30.143193144106178,325.041236661423 L36.140500980534426,323.728498592311 L43.10276727273853,323.59944976517784 L47.366791241443636,321.8038910842062 L48.025876073498836,320.7158759726879 L50.71501501533429,320.19523070459957 L56.5721307742285,317.2693822963246 L58.58944014968817,317.16480824675125 L63.190289239750186,315.4626987164621 L68.62682876603276,314.4414329982884 L86.17814860306738,308.2849139521312 L90.55323382800451,305.7595619039241 L91.45993064116111,304.6626468732933 L95.02117354585418,303.04063661501795 L98.4822792523073,299.6675672713336 L98.9156002192395,301.5743749412132 L103.26519597553354,305.00974371868574 L106.35124235766608,308.46958727371816 L108.3922205254384,309.5954270414651 L114.09457879614186,311.39321070221496 L126.03821553171792,314.1588605664625 L130.38234925901688,316.85108609803126 L131.9827237545315,320.8760745167151 L132.3049834652317,323.1077292342055 L131.86437979297207,331.0531320220001 L136.4524841487135,332.31914551577074 L138.18758869276706,334.05685472251037 L140.7365355570666,333.2358371843711 L143.3127925663415,331.010857406215 L145.86173943064102,330.87290865996954 L149.2227079388523,333.2002375079204 L153.00425267967515,333.2002375079204 L155.41300746643685,335.5631660323219 L157.4284961655661,336.2128601275434 L165.83091743609518,337.3075501783961 L177.16826895323447,339.30558201917995 L174.96889194461056,345.97829637386957 L174.333475904868,352.1125656222453 L173.12272614432496,360.1514175607224 L169.77632304676473,373.47904643187576 L166.8905510611121,380.03828681787945 L159.96651897187544,393.50608941505675 L158.23505578048275,399.43121056428583 L157.54319877446088,406.0594253234121 L162.19684747813753,415.9694852553181 z"/>
	<path id="yalova-cinarcik" title="Çınarcık" class="district" d="M326.5820721094765,239.67543751291723 L323.7946166457315,242.51006175028783 L319.0644995361256,252.36227220796192 L315.3284717035938,256.6631581191372 L311.86372464447794,259.043886481764 L307.6397555550688,260.10297685616604 L301.0616519688431,262.30348185676223 L299.03159785906286,263.39372194805856 L297.19089408777234,266.5042436779205 L293.83356693222385,269.7460392146937 L291.5595421940011,273.9801757325243 L289.7188384227106,282.5819475548747 L285.54948962324846,298.3971038180065 L270.82203877659396,313.21769412030255 L268.92671471535266,314.60830648164995 L262.9166621446,317.38730622456666 L258.9657945049373,319.7680345871937 L256.041788316321,323.21007830400055 L253.63849555855063,327.12604271355497 L248.5424225062839,326.72554635348683 L241.79135466855178,328.41875596466343 L227.99973145636162,328.7013283964894 L221.0174377245114,327.50206429606345 L209.82209896124417,323.7640982687615 L201.22486532322645,324.04667070058713 L196.7241534314063,325.3861085270372 L188.52928926268265,328.34755661176257 L182.64304268248262,330.11196557584026 L178.77774683040502,335.0469707237896 L177.16826895323447,339.30558201917995 L165.83091743609518,337.3075501783961 L157.4284961655661,336.2128601275434 L155.41300746643685,335.5631660323219 L153.00425267967515,333.2002375079204 L149.2227079388523,333.2002375079204 L145.86173943064102,330.87290865996954 L143.3127925663415,331.010857406215 L140.7365355570666,333.2358371843711 L138.18758869276706,334.05685472251037 L136.4524841487135,332.31914551577074 L131.86437979297207,331.0531320220001 L132.3049834652317,323.1077292342055 L131.9827237545315,320.8760745167151 L130.38234925901688,316.85108609803126 L126.03821553171792,314.1588605664625 L114.09457879614186,311.39321070221496 L108.3922205254384,309.5954270414651 L106.35124235766608,308.46958727371816 L103.26519597553354,305.00974371868574 L98.9156002192395,301.5743749412132 L98.4822792523073,299.6675672713336 L107.24883578916678,296.9686668004304 L111.44731540993283,295.0529592114383 L112.89475309359091,293.5733476589646 L119.06502518152556,290.7587482395974 L126.99589128216067,283.3206408412224 L132.89124124402042,280.0209958302173 L134.79202733425302,277.60911775069644 L136.03554926876652,274.4563214050496 L134.98137767274466,273.292656981074 L137.41562192814942,270.17101035232133 L140.86580357661427,264.2303143446453 L143.59135604508296,261.7227621346636 L149.73067663538137,257.4574758999388 L151.91366755702197,257.1192789736591 L155.17449886699137,254.91209903372845 L158.66655607108262,254.04658190002587 L162.8887044841632,250.95163502861107 L167.8464061352244,250.13284247024973 L172.5000548389011,250.5244389112052 L176.61114199575158,249.33407472989182 L179.03082084050342,251.03395928040288 L182.5720363055504,250.50441409320177 L187.62987515485156,248.83790423936307 L189.50335110011065,249.36522444678596 L193.12103497108492,248.5731316457626 L197.03730976044866,249.46979849635923 L199.8903095721327,248.23715969926096 L202.33729856185997,248.63543107955078 L205.6090539298214,246.9533463672651 L208.30365490065196,247.7654639862919 L211.10385509871944,247.31824305088261 L212.67691944925863,248.6710307560014 L221.43983463345347,250.78253656547133 L223.6191842024294,250.95830996794564 L229.9769859525253,248.65990585711057 L236.46041436950424,249.89254465420885 L238.9984371758136,249.59884732349238 L243.5865415315531,251.28983195489076 L248.4331819263861,251.7103531329623 L256.1073326642582,250.37981522562504 L258.9293809783041,248.4129331017353 L262.82198697535705,247.825538440302 L267.7196063074743,246.25470271692404 L269.66408862966944,247.33604288910777 L272.9504094082838,246.85099729746986 L277.60405811196233,243.48015293356377 L280.4643406289719,238.98791876146706 L279.2135359891348,235.17207844192967 L281.8917508729801,235.22325297682738 L284.70469580536815,236.10879492853346 L287.1717122347434,238.55849766428292 L292.8212708918303,240.19385780122755 L294.42346606367533,239.78001156249059 L300.12946568704155,240.50757994994748 L313.98299189451177,238.55849766428292 L319.1937675556714,239.9624599042994 L326.5820721094765,239.67543751291723 z"/>
	<path id="yalova-termal" title="Termal" class="district" d="M339.3122410203212,360.9279355032986 L330.54022245446663,361.702228466097 L319.40314533381104,361.4908553871721 L310.3434599075572,359.2347258921221 L306.82409255849245,355.85053164954695 L302.4963449181768,351.0557002276213 L297.4184786292257,346.54121625774303 L292.57183823439465,343.93353995774413 L285.0123901054155,340.47814636226815 L276.99049018819824,337.37429957174083 L266.2576032131671,333.70753289734 L260.6608441696968,330.95745789153943 L257.19791778691325,328.7013283964894 L253.63849555855063,327.12604271355497 L256.041788316321,323.21007830400055 L258.9657945049373,319.7680345871937 L262.9166621446,317.38730622456666 L268.92671471535266,314.60830648164995 L270.82203877659396,313.21769412030255 L285.54948962324846,298.3971038180065 L289.7188384227106,282.5819475548747 L291.5595421940011,273.9801757325243 L293.83356693222385,269.7460392146937 L297.19089408777234,266.5042436779205 L299.03159785906286,263.39372194805856 L301.0616519688431,262.30348185676223 L307.6397555550688,260.10297685616604 L311.86372464447794,259.043886481764 L315.3284717035938,256.6631581191372 L319.0644995361256,252.36227220796192 L321.1109397328911,255.49059377604908 L323.68173471317095,260.7281961738279 L327.85654554162625,263.0510750622226 L329.1237362684505,265.9657985716068 L328.56478863463525,271.9331943366208 L329.49697491643684,277.0795725634954 L331.65811772209713,282.59084747398725 L329.1619704714142,286.73598480069165 L325.8064639921961,288.42029449275566 L324.9489254399933,291.56419091928984 L321.2220009891212,293.9315694032477 L320.96164427369735,295.7093282459943 L321.8555963525333,299.7165168264531 L322.78960331066725,301.3118273273907 L325.0017250536118,301.6833989503426 L324.7905265991398,306.3714313429171 L325.2730058270258,308.3205136285815 L326.7823465059583,308.8055592202195 L328.14603307835785,310.88146535323926 L330.84973743084817,313.28889347320376 L330.4073130822581,317.0913839140722 L335.3140357960332,322.5336844514412 L341.8320570633149,326.38734942720737 L344.63043658504813,331.2355803638089 L345.162074073888,336.8202796069799 L343.8857799654078,346.08287042344296 L343.10653049546465,349.15779247685424 L340.4155708772969,354.1350722405888 L339.67091425765653,356.4735259874308 L339.3122410203212,360.9279355032986 z"/>
	<path id="yalova-merkez" title="Merkez" class="district" d="M451.8992240164324,324.131219932157 L440.98791076089793,326.0202277638115 L433.02427248629425,327.64223802208716 L426.61913315157494,330.6036861068126 L419.40561352560667,334.6242245659402 L412.8275099393848,335.82348866636625 L406.0764421016527,337.58567265066563 L400.3048981303455,340.4069470093674 L396.1501147415382,342.8744495833422 L388.3029997521578,346.6124156106439 L381.0312184835779,349.64506304827046 L371.7421278395383,353.1004566437464 L365.6246553652183,355.0050393338478 L355.6418870388245,358.5294073024467 L345.71738035504046,360.36279063964696 L339.3122410203212,360.9279355032986 L339.67091425765653,356.4735259874308 L340.4155708772969,354.1350722405888 L343.10653049546465,349.15779247685424 L343.8857799654078,346.08287042344296 L345.162074073888,336.8202796069799 L344.63043658504813,331.2355803638089 L341.8320570633149,326.38734942720737 L335.3140357960332,322.5336844514412 L330.4073130822581,317.0913839140722 L330.84973743084817,313.28889347320376 L328.14603307835785,310.88146535323926 L326.7823465059583,308.8055592202195 L325.2730058270258,308.3205136285815 L324.7905265991398,306.3714313429171 L325.0017250536118,301.6833989503426 L322.78960331066725,301.3118273273907 L321.8555963525333,299.7165168264531 L320.96164427369735,295.7093282459943 L321.2220009891212,293.9315694032477 L324.9489254399933,291.56419091928984 L325.8064639921961,288.42029449275566 L329.1619704714142,286.73598480069165 L331.65811772209713,282.59084747398725 L329.49697491643684,277.0795725634954 L328.56478863463525,271.9331943366208 L329.1237362684505,265.9657985716068 L327.85654554162625,263.0510750622226 L323.68173471317095,260.7281961738279 L321.1109397328911,255.49059377604908 L319.0644995361256,252.36227220796192 L323.7946166457315,242.51006175028783 L326.5820721094765,239.67543751291723 L342.52391406934055,238.87889475233743 L351.9131419116182,237.13673558604134 L352.10795427910494,236.73846420575154 L359.5891133258245,238.0979268502047 L361.07478521244434,237.5127571685498 L368.3374630993664,238.66084673407815 L371.64016996496605,237.46380761343025 L382.769964380298,236.38691740080284 L390.3221298039498,232.80914991752837 L396.49968459721185,231.72113480601004 L403.2361870242911,229.11123352623324 L404.9458020997035,237.04996137469328 L403.66404596222634,239.85788585472608 L403.77692789478874,244.09424735233475 L411.0978674243225,254.96327356862616 L412.07739129074747,264.12796527485006 L415.46931129659686,275.96263271486106 L416.41060096005435,282.686521604448 L419.1252293705329,293.6467719916438 L424.09931710858314,296.77731853950917 L427.41476870850335,300.4618850521351 L432.088444851828,304.6070223788395 L436.91141645435215,307.370447263309 L443.2036738565052,312.2965524921462 L447.5150354098356,317.58310444504457 L451.8992240164324,324.131219932157 z"/>
	
</g></g></svg>