<svg xmlns="http://www.w3.org/2000/svg" version="1.2" baseProfile="tiny" width="600" height="600" stroke-linecap="round" stroke-linejoin="round"><rect id="backgroundrect" width="100%" height="100%" x="0" y="0" fill="none" stroke="none" class="" style=""/>































































































































































































































































































































































































































































































































































































































<g class="currentLayer" style=""><title>Layer 1</title><g class="city city-80" id="osmaniye" title="Osmaniye">
	<path id="osmaniye-bahce" title="Bahçe" class="district" d="M508.97153749535096,408.5963324864484 L502.9871912946731,409.7954282409203 L497.9787794154125,413.7574256373711 L494.54708979443654,413.6150997317957 L490.07025065194523,412.705993009934 L485.44944389324536,412.9479470494119 L480.1697084295905,413.5546112219262 L478.63174668336023,414.091891515473 L475.5572074949029,416.6662113325652 L471.5524160170964,419.0555074724095 L468.6924439489479,419.79026495994185 L465.54592095238706,419.97350956337 L460.7562291054434,419.00925155309756 L458.538574094227,417.63046934283716 L457.53772230077465,414.5526716347724 L457.7162975170339,406.9702590152514 L457.4491268446467,404.8300332101639 L455.3574434976138,401.8714334480185 L451.067485395394,400.44639531844643 L448.6006556638165,401.3643974094064 L446.92011060537936,403.9849731458106 L443.70160380071354,407.1090267731872 L438.05364347252436,416.02218660983704 L436.5156817262941,417.1252123780453 L433.79829297035525,417.67672526214903 L428.79403400309985,417.40096882009703 L426.46978758372757,416.114698448461 L421.2855690962126,411.97835181768016 L420.0701501824501,410.55509276192805 L419.46244072556885,408.6247976675639 L416.709060065576,402.78943553897886 L414.42080555025774,400.6296399218747 L411.3656466178299,398.80253110905204 L406.01946456207577,398.88970572621713 L403.35883227021924,398.53033281463934 L400.80479138651555,398.80075203523273 L400.8560106345907,396.2958160971081 L397.49907342972347,390.3110117676692 L396.36671275608023,387.8292037892011 L396.240741091898,384.8652668055962 L400.60406730622464,378.12435610278897 L402.3662863007807,376.9928651534656 L406.81267075522675,374.99674432777283 L409.3722488549391,373.48808972867505 L412.56030097156116,372.1929239879404 L419.94417851826785,368.3109849133757 L423.25958660307396,365.7775837941367 L429.1331884835921,363.3509271040787 L431.48235237499665,361.9490169341625 L435.34179193259274,360.38521104665466 L437.77539836812133,356.71853990427206 L440.5440063721368,353.53755591466546 L443.56455770451544,350.7888868632438 L449.31218792084826,347.2289601500427 L453.08856923832354,344.48029109862097 L455.3117614655473,342.48417027292817 L458.7517569105369,340.76024774164796 L460.7659192334559,339.1964418541401 L462.0671649953415,337.362216746039 L464.70980133517475,335.04408355898215 L468.4847983486482,333.4269054568839 L471.2118772326025,330.24592146727673 L473.9389561165554,329.3279193763168 L475.9946475595371,328.08790492399226 L483.462967650365,325.66302730775396 L485.60310163746794,322.10310059455327 L487.993794648935,319.62307168990475 L492.56753507156805,318.59832516976286 L496.63600453346425,316.2268197681155 L498.8176676406283,315.5258646831574 L503.63919847961915,312.82700969868677 L507.8018006136549,316.3139943852801 L509.0310625674383,317.9507422993957 L512.2149617720534,321.10859832934614 L517.0835589471139,323.565499274339 L519.859088471137,326.2554588897108 L527.6845589944834,337.7162524361575 L527.8216050906815,339.1768720421235 L527.1848252497596,342.7439150506031 L525.4101475191858,346.9549827818104 L527.3204870419559,348.6504401319756 L534.4191979642477,350.57895615252 L535.7841217102273,354.14599916099957 L536.238173422886,357.59562329737986 L535.8298037422938,360.75347932733024 L537.6944612329974,364.3792317718595 L536.64792740748,367.30225005761156 L538.2855590418557,369.6417321305045 L543.5071537374247,374.3367079406679 L541.091543253924,376.9839697843673 L537.1933431842702,381.78213187607275 L534.9964527330866,384.8154527386453 L528.5179100036936,392.36584202941174 L521.1063463769466,396.5288747674878 L517.3175063234523,399.6351376566675 L512.9251097250835,404.9261031964269 L510.50949924158124,407.5377835637328 L508.97153749535096,408.5963324864484 z"/>
	<path id="osmaniye-duzici" title="Düziçi" class="district" d="M409.160450342631,228.58252711488026 L412.8869967160343,226.21813800851137 L417.1741862102506,225.74668344629342 L419.7683719100122,224.24336606865515 L421.8822041210766,223.74878354678086 L425.34157982209126,222.20632654510902 L428.66529373091106,221.57297626529942 L433.16981895344264,218.3848759804138 L437.826617616195,215.84791671353528 L441.9269260701398,212.78968881748736 L445.31847087505776,212.33424591964663 L449.4686142730759,210.70817244844906 L453.31559509465296,210.5783000596119 L454.07419368775464,215.00107757536227 L455.087504217223,219.16588938725803 L456.45381226720303,222.02841916314014 L456.6060857074253,226.25549855872515 L457.1113566681577,227.36208247457247 L460.40184728092856,229.96308839895994 L461.00955673780993,231.26537043497373 L466.4761732417362,235.42840317304922 L467.0838826986158,236.66485947773427 L465.7674095927064,244.08003915820439 L466.171626361293,246.031683138405 L469.6143904142848,247.85345472976837 L470.11966137501867,249.6752263211313 L469.9175529907244,253.05724565236306 L470.92947921619253,255.90554283768768 L472.2224191540672,256.8466728883039 L473.1332911873883,260.23936666245356 L476.8183084407305,265.26702927689905 L481.3671313913269,267.2560338073135 L482.64207537717516,267.2560338073135 L489.1026221545419,268.775362849329 L491.86846155055383,271.6378926252111 L494.10549681779554,273.03980279512723 L497.5676411268166,273.7692230612003 L503.0162616787166,273.1856868483417 L507.102727092642,271.7268463161956 L510.2284855291731,270.0900984020805 L510.41121365743925,271.63433447757166 L509.54325504817973,274.27981724745183 L507.9540740538771,276.9057302053147 L507.8405611257125,280.9904836953243 L506.59191891590103,287.9217552968387 L506.0243542750791,288.7241175895191 L500.88720212362955,292.9245108778088 L500.3860840749026,295.61447049318065 L500.7044739953634,297.89524313002386 L499.6579401698462,298.94845483128074 L499.2938682173188,300.8769708518251 L499.61225813778117,308.8294308258419 L500.3860840749026,309.2386178043712 L503.63919847961915,312.82700969868677 L498.8176676406283,315.5258646831574 L496.63600453346425,316.2268197681155 L492.56753507156805,318.59832516976286 L487.993794648935,319.62307168990475 L485.60310163746794,322.10310059455327 L483.462967650365,325.66302730775396 L475.9946475595371,328.08790492399226 L473.9389561165554,329.3279193763168 L471.2118772326025,330.24592146727673 L468.4847983486482,333.4269054568839 L464.70980133517475,335.04408355898215 L462.0671649953415,337.362216746039 L460.7659192334559,339.1964418541401 L458.7517569105369,340.76024774164796 L455.3117614655473,342.48417027292817 L453.08856923832354,344.48029109862097 L449.31218792084826,347.2289601500427 L443.56455770451544,350.7888868632438 L440.5440063721368,353.53755591466546 L437.77539836812133,356.71853990427206 L435.34179193259274,360.38521104665466 L431.48235237499665,361.9490169341625 L429.1331884835921,363.3509271040787 L423.25958660307396,365.7775837941367 L419.94417851826785,368.3109849133757 L412.56030097156116,372.1929239879404 L409.3722488549391,373.48808972867505 L406.81267075522675,374.99674432777283 L402.3662863007807,376.9928651534656 L400.60406730622464,378.12435610278897 L396.240741091898,384.8652668055962 L396.36671275608023,387.8292037892011 L397.49907342972347,390.3110117676692 L400.8560106345907,396.2958160971081 L400.80479138651555,398.80075203523273 L395.0890001622282,399.36116028843503 L393.1869664634705,399.170799389728 L388.4664898166268,397.9254477159447 L387.20400456679596,397.2476205906429 L383.3348748811844,396.7138984447358 L381.07984366191505,397.080387651592 L378.16726804169247,394.3957652576788 L376.1531057187733,393.8495895950339 L371.7330230403643,394.3957652576788 L365.8995659759069,393.89584551434587 L362.8942419875481,392.53307496846264 L358.12254609262925,391.3962467976806 L353.10167547734943,391.3962467976806 L349.5661630562229,390.6703846792465 L343.6980983917149,390.6703846792465 L341.36416184433006,392.2146207547382 L336.90947156587185,394.1680438087585 L334.1519379938736,396.39544423101063 L331.2172135096195,399.34870677169744 L328.53027944172294,401.3021298257173 L325.91394487792974,401.93725917934705 L323.6519921386499,401.7557936497388 L319.2679013642934,400.48375586865967 L316.298569279987,400.7559541630724 L314.0352322367054,400.48375586865967 L311.7372875933731,399.574649146798 L308.2377670762991,394.57723078728725 L305.6560401125551,392.3960862843465 L304.4184723347609,391.89616654101354 L294.83493572886545,390.7486639273129 L290.64603181879255,389.59582409215375 L287.43998375014434,387.8932504467099 L284.62015649805505,385.4203378373399 L283.29399326413295,383.27833295843254 L279.2767430503075,380.9157229258836 L279.38195015445996,374.7868136170494 L281.1317104129954,373.2158914342625 L281.6909692298081,371.0916772935524 L280.92129620469206,368.09037975973433 L280.8631554366079,364.89516317957026 L281.58576212565566,362.03263340368767 L283.78818979284813,359.29997601664326 L287.80544000667356,358.91391699777034 L289.1343718486008,358.37841577804335 L295.28898744152406,353.7741727326846 L295.8344032183158,352.0698200134211 L295.09795348924723,350.7301774271942 L290.0646241379498,348.3995907233995 L288.6650927919194,345.8608523827008 L289.1966655286903,337.95820647563545 L289.74900282549095,336.05459748856657 L292.29196927717896,336.1809117297648 L294.84462585687936,338.0578346095379 L296.4559557152165,337.0419834584947 L295.65167509004976,331.78659939512875 L294.5331574564274,328.23200990338734 L291.48353574000674,324.65251337816994 L286.53049602082507,321.8700419241736 L284.3972835537326,320.19237531220546 L283.287071744121,318.1624520839389 L282.9479172636303,315.3177130462533 L283.2746130081035,313.2949061132652 L285.3593748351273,307.6249978499113 L288.98763562438864,299.9732013514226 L290.01478919387796,296.8651593884232 L293.47970211090114,284.7407713072321 L295.06611449720157,278.69547846792364 L295.7901054902511,274.36165464315724 L296.8574038757982,271.52759004839015 L298.0354465815065,268.9835144862327 L303.848139085934,258.85702630455415 L306.2194518413731,257.47646502047445 L311.8438790015288,257.6116746307709 L324.80788598032507,258.19698991744934 L327.97102062491183,258.8178866805212 L334.32774460212926,262.2070223070314 L337.3261470704762,261.71955608043623 L340.0103125303677,259.54196972513495 L342.63218431016804,259.6629467448739 L344.40132482473314,261.3157063233667 L347.57276529333217,267.067451982426 L349.29345516782706,268.73088600383676 L351.2923901467265,269.8659351007991 L353.95025383058095,269.672016054453 L362.1384120024529,266.5799857558309 L369.2232798847253,266.8699747884404 L371.384178431858,264.7760049026649 L373.02734728223936,260.9776822976254 L375.5800038619428,258.6239676341745 L378.786051930591,257.2878831955871 L385.47639317229067,255.5212628926343 L389.78019431452987,254.903924277202 L392.9516347831289,254.87190094844746 L397.8368436062139,254.34351602399957 L400.0572672254326,253.59808409354878 L406.51781400279924,250.48114676145113 L407.59618682036216,249.4386095031127 L409.2172068067118,246.52982380791815 L410.76485868095756,242.2511512715625 L410.76762728896125,239.84584346734087 L409.160450342631,228.58252711488026 z"/>
	<path id="osmaniye-hasanbeyli" title="Hasanbeyli" class="district" d="M388.4664898166268,397.9254477159447 L393.1869664634705,399.170799389728 L395.0890001622282,399.36116028843503 L400.80479138651555,398.80075203523273 L403.35883227021924,398.53033281463934 L406.01946456207577,398.88970572621713 L411.3656466178299,398.80253110905204 L414.42080555025774,400.6296399218747 L416.709060065576,402.78943553897886 L419.46244072556885,408.6247976675639 L420.0701501824501,410.55509276192805 L421.2855690962126,411.97835181768016 L426.46978758372757,416.114698448461 L428.79403400309985,417.40096882009703 L433.79829297035525,417.67672526214903 L436.5156817262941,417.1252123780453 L438.05364347252436,416.02218660983704 L443.70160380071354,407.1090267731872 L446.92011060537936,403.9849731458106 L448.6006556638165,401.3643974094064 L451.067485395394,400.44639531844643 L455.3574434976138,401.8714334480185 L457.4491268446467,404.8300332101639 L457.7162975170339,406.9702590152514 L457.53772230077465,414.5526716347724 L458.538574094227,417.63046934283716 L460.7562291054434,419.00925155309756 L465.54592095238706,419.97350956337 L468.6924439489479,419.79026495994185 L471.5524160170964,419.0555074724095 L475.5572074949029,416.6662113325652 L478.63174668336023,414.091891515473 L480.1697084295905,413.5546112219262 L485.44944389324536,412.9479470494119 L490.07025065194523,412.705993009934 L494.54708979443654,413.6150997317957 L497.9787794154125,413.7574256373711 L496.87133621380735,415.6752672149975 L495.48980081980477,420.6744646483281 L495.02882758713554,425.8711392756437 L491.70234507031364,430.21385846950835 L490.57690591668086,434.6206243208821 L491.49746807801444,438.3691328589701 L491.1901525895693,440.67125438164976 L486.8392851112618,447.7110494861653 L485.86750370184996,449.9473452775163 L485.9187229499267,452.11781533753856 L484.0249950751798,455.53897429280374 L481.7727324639154,460.40652026347686 L478.90583887575787,464.3525059955505 L477.7803997221251,465.142414771493 L472.3040930901848,467.51036202550137 L471.382146624848,469.0884005035667 L470.5128037115897,474.15342366822597 L465.08633202371976,487.17802310217996 L464.0121121181622,488.88949211672264 L460.17343712059596,490.59918205744526 L457.9723937574068,492.37469772949623 L454.3385957521368,494.6768192521759 L452.905841110059,497.50554662548353 L449.7828512815315,500.4000997301202 L447.6330271664146,505.6626000887651 L446.09783402818937,508.2280245367587 L444.7162986341852,509.47693435818144 L442.2591590306216,510.33266886545255 L439.2898269463182,512.7006161194608 L435.1452207643072,513.7538278207178 L431.97101168770456,515.3976920301118 L428.9006254112527,516.0559493433975 L426.3285885755241,518.897130233443 L426.01712017507214,514.2519684902311 L425.4426340142383,511.8644514242065 L423.80638668386746,508.7973281590597 L420.31378768680247,503.171896741198 L419.340621973392,501.18289221078425 L418.2359473797891,497.546465323337 L418.147351923661,495.9559733285334 L417.17557051425234,493.68231698696866 L417.1312727861877,488.910841002559 L415.71651409613753,485.44342612798175 L412.4883171634561,482.604024311756 L407.97825472491735,477.43225671791527 L401.21454537110947,472.9436534708362 L397.9877327424314,472.48998964681516 L395.9085081314161,471.4670222004931 L392.63739777467333,467.0922796778738 L389.7192849384422,460.0453682780798 L389.6306894823127,458.2271548343559 L390.82534383604536,455.72755611769054 L393.786370096341,454.080133760657 L397.7219463740459,451.1820225083816 L406.40291677063277,446.51373280551337 L409.58127875924225,443.5017608287773 L410.49907231257225,440.9879295215546 L410.49907231257225,439.312041983406 L407.5435832682867,435.19882331228143 L406.56626464286927,429.48977542489456 L405.4325196652258,428.21417949617665 L403.5014155824261,427.4705266395456 L401.7627297559048,425.7323715177078 L399.5395375286811,425.794639101397 L398.2355231587906,424.4283104078748 L398.7186452554913,423.06198171435267 L398.52622699921267,419.2138450423617 L397.6568840859514,418.40614552822217 L396.93150878890003,416.10936122700167 L395.86974761936006,415.36392929655153 L395.3866255226593,412.75758615070475 L392.82566311894664,412.819853734394 L390.9208608121838,410.8966749353084 L389.14895168961664,410.4181040778118 L389.44796135404954,408.66749543923635 L390.4543503635089,407.5164346778963 L391.83450145350986,404.6645793449328 L392.2262594860761,402.5314698351237 L391.70852978932754,400.7559541630724 L389.02159572143256,399.62090506611 L388.4664898166268,397.9254477159447 z"/>
	<path id="osmaniye-kadirli" title="Kadirli" class="district" d="M246.35937818657823,3.1631997171694466 L252.76316849986398,2.1989417068969814 L259.9297103182554,3.956666640751463 L263.51228907545016,3.693363715437119 L265.1623794458434,5.269623119683207 L267.0478014965752,5.995485238116751 L269.1699395316533,7.511256132493383 L271.33914390279824,11.873545138374276 L270.91416257418166,16.11485712451675 L270.39643287743166,18.17502460771807 L269.1699395316533,20.477146130397717 L269.07580685951666,24.111793944025834 L266.5300717998266,27.202045168828246 L265.2094457819102,29.566434275197096 L264.07846941227024,33.62450165791097 L265.8226924548002,36.83572990245227 L270.2067832291566,38.65394334617622 L273.5069639699415,38.230523777089964 L276.0526990296315,39.56305006803791 L281.38088513335794,41.13930947228399 L284.9634638905527,42.83476682244926 L288.45190997561093,43.25996546535526 L290.24458365820936,44.22778162326668 L293.1668494064474,51.86356645737868 L292.72802503780986,54.96982934655834 L292.72802503780986,60.84966832063559 L291.6676481722732,67.08710113247042 L290.7747720909799,70.52960897357161 L286.8142783412368,77.4840085347423 L286.311775988508,82.21812396893874 L283.8560206889477,86.80635534992078 L284.8610253944053,89.17252353010888 L283.5224034244641,93.97780191709327 L280.57937311619474,100.75963131775379 L280.8022460605187,106.17691109871133 L281.46948058948595,112.85021699637062 L280.65412553230334,116.49198110527728 L278.1111590806184,125.35532687497553 L275.38131158866037,130.84732775636 L274.5521134914585,133.6547062438319 L273.72014678625,138.5080196239475 L273.6993822262216,140.21059326939178 L280.5323067801279,160.07217339241694 L280.8271635325554,161.58616521297333 L279.3764129384528,166.99810777247217 L279.2075278502076,172.83169082723745 L279.80139426706796,175.67998801256206 L282.2266948785858,179.209670470828 L284.053976161235,182.6432829428309 L285.2098700029101,187.6424803761615 L285.23478747494676,189.85386913403644 L284.0387488172109,197.88105020848016 L285.8577242758493,206.40103473097838 L286.0183035400823,208.9202032596604 L284.3737503856977,212.1919200140712 L283.70928446473414,215.19499662170898 L283.77019384082337,217.0986056087778 L284.93716211451573,218.87767942846827 L287.7168445505455,220.5731367786335 L288.25810741533047,222.68845555024552 L288.55850138376655,227.66986224537905 L287.5521123743072,232.24919825726238 L287.30985917395515,238.3763284922767 L287.9369488868645,244.58885427063606 L288.46021579962314,246.4889051100655 L293.49216084691886,262.1732199044572 L296.8574038757982,271.52759004839015 L295.7901054902511,274.36165464315724 L295.06611449720157,278.69547846792364 L293.47970211090114,284.7407713072321 L290.01478919387796,296.8651593884232 L288.98763562438864,299.9732013514226 L285.3593748351273,307.6249978499113 L283.2746130081035,313.2949061132652 L282.9479172636303,315.3177130462533 L283.287071744121,318.1624520839389 L284.3972835537326,320.19237531220546 L286.53049602082507,321.8700419241736 L291.48353574000674,324.65251337816994 L294.5331574564274,328.23200990338734 L295.65167509004976,331.78659939512875 L296.4559557152165,337.0419834584947 L294.84462585687936,338.0578346095379 L292.29196927717896,336.1809117297648 L289.74900282549095,336.05459748856657 L289.1966655286903,337.95820647563545 L288.6650927919194,345.8608523827008 L290.0646241379498,348.3995907233995 L295.09795348924723,350.7301774271942 L295.8344032183158,352.0698200134211 L295.28898744152406,353.7741727326846 L289.1343718486008,358.37841577804335 L287.80544000667356,358.91391699777034 L283.78818979284813,359.29997601664326 L281.58576212565566,362.03263340368767 L280.8631554366079,364.89516317957026 L278.500148505181,362.987996044862 L277.04524499907154,359.8532679745673 L275.3107120845573,358.4068809591588 L267.9448304898782,356.5975628845332 L266.39717861563236,355.6937933841307 L265.1305404537962,353.2226598485804 L263.2077421950086,351.77449375935225 L259.2209466692285,351.6552958134331 L258.3294548919355,347.3748442032576 L255.42103218371835,343.0943925930821 L252.18452942702623,339.477535517651 L250.35447953637197,337.97065999237316 L243.9756066951229,335.1970839074756 L242.2396894766068,335.13659539760613 L237.87636326228014,335.91938787827013 L233.18634130348033,335.73970142248146 L231.35629141282607,336.04036489800905 L228.4478687046089,335.43725887313406 L226.94728316643295,334.17233738733415 L224.27280783455552,333.14759086719226 L222.30294323969966,333.2667888131115 L215.21945966142903,336.3428074473564 L205.32168604707795,338.0898579382923 L200.88914463264985,338.71253377518445 L195.9485636494873,340.9648412309128 L192.88371458904248,343.13353221711503 L187.75486826160667,345.4658979947295 L181.87572916508128,345.5459563166157 L178.68629274445746,346.5902726487738 L175.62144368401417,349.08275507016066 L170.30571631630684,351.41334177395527 L168.74145279403808,355.11203624509176 L167.55371996031582,359.6130930089085 L165.30145734905147,361.62166735133917 L162.54946099305897,365.0784077829984 L155.35661739863204,365.40042014436193 L153.793738180365,366.6048531202925 L151.41688820891875,372.1626797330057 L141.97593491522994,371.24289856822605 L139.70982926394473,369.8445465459493 L137.594612748877,364.89516317957026 L136.34735484307032,363.72097445857446 L133.52614328697933,363.9486959074948 L132.46853502944327,364.6834533950267 L128.84027424018342,368.6756950464123 L126.7485908931506,368.37681064470445 L124.09072720929623,364.85602355553675 L121.074328788923,364.70836042850266 L117.4308406556405,368.00676329020865 L113.93685735457366,372.08084233730017 L111.59461498317808,372.6875065098147 L105.90650983893106,369.78583710989915 L103.9214179000525,372.24985435017084 L97.97860081943735,381.1985956632141 L96.43510185719839,383.2534259249566 L92.95080868414708,385.6765244673752 L83.84208835093858,388.8432758664244 L79.05239650399349,390.1473369762579 L77.13513546121453,391.5154447435997 L77.42168638962983,393.44218169032433 L78.51667085521723,395.2016856979986 L77.75945656611879,397.44153963698903 L75.6137853630087,397.7777845889105 L70.13886303507017,397.97348270907645 L68.38494986452781,396.29047887564894 L68.15515540019338,392.70030790751355 L67.07539827862864,390.31279084148895 L67.25397349488641,386.7955618999609 L71.30167839675573,375.9147464187332 L75.02407185815369,367.2933546885128 L78.02939584651256,361.18401519169544 L79.93558245727569,357.95321713513727 L81.67426828379688,356.47658586479423 L85.85071345785205,354.8256053601217 L87.09381845165338,352.76899602455944 L88.13066214915663,348.3017416633163 L88.42413459758383,342.0002621939725 L87.8731816047849,338.248195508245 L84.77372494428941,326.8621230622257 L81.24374973917158,318.69261608220654 L81.04856287488934,314.04567526517485 L82.32904407674496,305.06846877101606 L80.93781855472974,301.9622058818365 L79.43446440854868,300.25073686729445 L79.50644821665219,297.1764973068688 L78.95964813586014,295.19460907173385 L77.81482872619934,293.7873616803585 L76.52050448432286,286.6888571397932 L77.26664434140547,280.8054600180764 L78.11245408663044,276.5214502602614 L79.85529282515697,270.50995982352725 L86.6716057310418,252.28512761461755 L87.07028528362143,248.51171204305354 L87.07028528362143,243.20473483891686 L88.41306016556804,238.85667842359297 L90.5005906005925,233.18854923405885 L93.9461232615892,233.34332865637202 L99.63838131784307,233.20811904607555 L106.69971603208056,233.34332865637202 L107.859762785764,233.5461430718168 L110.23107554120165,235.2398213481624 L119.1529148341372,234.23998186149595 L126.11042674822548,234.83597159109235 L129.8383574256306,235.6454501790516 L137.90192823732212,237.94935077555098 L139.6946019199221,238.01695558069895 L150.8673195201216,235.57784537390373 L156.45437047222157,233.61374787696482 L159.88052287719023,231.24402154913716 L162.516237697013,228.5344921217486 L167.10105255165888,218.4418063426443 L172.4250857433799,214.51183227494786 L173.7955467053653,213.09035229301492 L178.69736717647328,206.04521996704008 L182.38653734182233,205.0969736211454 L184.65264299310752,202.52265380405316 L184.90735492947718,199.3398907406268 L182.51804622201325,194.82282231243224 L182.8696594385231,190.94088323786752 L184.20412849645746,187.41831707488004 L188.97444008737605,180.6222550836621 L189.71227412044493,177.03208411552674 L190.02789543290376,170.93519813544714 L189.81748122459737,167.27742236216378 L188.18400250223013,159.5562419847063 L188.02619184599922,155.6938727221583 L188.2892096063811,148.7181242751517 L190.92492442620238,134.8324531124672 L191.0827350824318,130.15704711432045 L192.98061586918269,127.92253039678874 L198.72547747751204,127.10949366119047 L200.41155975195772,126.49927134103662 L201.2019973371036,123.31650827761024 L200.93897957672326,120.40416443477667 L202.04503847432647,116.2037711464874 L204.6281497420708,112.74880978864849 L206.31423201651648,111.7329586376048 L208.6869290759574,108.75300998962328 L209.26695245279691,103.46916074514245 L208.10690569911492,98.86313862596342 L208.054302147038,96.08600439342628 L210.05739003794278,89.380675167013 L213.64135309914084,84.36724514312499 L215.27483182150817,81.1844820796986 L216.22308006288338,77.99993994245249 L215.9074587504276,74.61436246358122 L214.58960134051472,70.14354995469911 L214.53699778843773,66.0107614715578 L215.8548551983491,60.05086417559433 L215.6430566860424,55.30963244611939 L216.117872958731,53.208546265064385 L218.5431735702474,48.061685704699656 L220.07144518846363,42.03240452976848 L220.43967005299646,35.86791374454087 L221.12490053399137,32.142533166108564 L220.43967005299646,25.369599134546814 L219.2810076033178,22.66006970715819 L216.27568361496037,20.69597221021982 L214.85261910089656,16.292764506485693 L213.5015383949377,13.90346836664136 L215.09348799724677,12.56026763277489 L222.54242783204657,8.439932666371815 L229.09572297754806,5.956345614083761 L232.49142069447134,4.017155150620916 L239.70364454492932,2.7451173695419295 L246.35937818657823,3.1631997171694466 z"/>
	<path id="osmaniye-merkez" title="Merkez" class="district" d="M151.41688820891875,372.1626797330057 L153.793738180365,366.6048531202925 L155.35661739863204,365.40042014436193 L162.54946099305897,365.0784077829984 L165.30145734905147,361.62166735133917 L167.55371996031582,359.6130930089085 L168.74145279403808,355.11203624509176 L170.30571631630684,351.41334177395527 L175.62144368401417,349.08275507016066 L178.68629274445746,346.5902726487738 L181.87572916508128,345.5459563166157 L187.75486826160667,345.4658979947295 L192.88371458904248,343.13353221711503 L195.9485636494873,340.9648412309128 L200.88914463264985,338.71253377518445 L205.32168604707795,338.0898579382923 L215.21945966142903,336.3428074473564 L222.30294323969966,333.2667888131115 L224.27280783455552,333.14759086719226 L226.94728316643295,334.17233738733415 L228.4478687046089,335.43725887313406 L231.35629141282607,336.04036489800905 L233.18634130348033,335.73970142248146 L237.87636326228014,335.91938787827013 L242.2396894766068,335.13659539760613 L243.9756066951229,335.1970839074756 L250.35447953637197,337.97065999237316 L252.18452942702623,339.477535517651 L255.42103218371835,343.0943925930821 L258.3294548919355,347.3748442032576 L259.2209466692285,351.6552958134331 L263.2077421950086,351.77449375935225 L265.1305404537962,353.2226598485804 L266.39717861563236,355.6937933841307 L267.9448304898782,356.5975628845332 L275.3107120845573,358.4068809591588 L277.04524499907154,359.8532679745673 L278.500148505181,362.987996044862 L280.8631554366079,364.89516317957026 L280.92129620469206,368.09037975973433 L281.6909692298081,371.0916772935524 L281.1317104129954,373.2158914342625 L279.38195015445996,374.7868136170494 L279.2767430503075,380.9157229258836 L283.29399326413295,383.27833295843254 L284.62015649805505,385.4203378373399 L287.43998375014434,387.8932504467099 L290.64603181879255,389.59582409215375 L294.83493572886545,390.7486639273129 L304.4184723347609,391.89616654101354 L305.6560401125551,392.3960862843465 L308.2377670762991,394.57723078728725 L311.7372875933731,399.574649146798 L314.0352322367054,400.48375586865967 L316.298569279987,400.7559541630724 L319.2679013642934,400.48375586865967 L323.6519921386499,401.7557936497388 L325.91394487792974,401.93725917934705 L328.53027944172294,401.3021298257173 L331.2172135096195,399.34870677169744 L334.1519379938736,396.39544423101063 L336.90947156587185,394.1680438087585 L341.36416184433006,392.2146207547382 L343.6980983917149,390.6703846792465 L349.5661630562229,390.6703846792465 L353.10167547734943,391.3962467976806 L358.12254609262925,391.3962467976806 L362.8942419875481,392.53307496846264 L365.8995659759069,393.89584551434587 L371.7330230403643,394.3957652576788 L376.1531057187733,393.8495895950339 L378.16726804169247,394.3957652576788 L381.07984366191505,397.080387651592 L383.3348748811844,396.7138984447358 L387.20400456679596,397.2476205906429 L388.4664898166268,397.9254477159447 L389.02159572143256,399.62090506611 L391.70852978932754,400.7559541630724 L392.2262594860761,402.5314698351237 L391.83450145350986,404.6645793449328 L390.4543503635089,407.5164346778963 L389.44796135404954,408.66749543923635 L389.14895168961664,410.4181040778118 L390.9208608121838,410.8966749353084 L392.82566311894664,412.819853734394 L395.3866255226593,412.75758615070475 L395.86974761936006,415.36392929655153 L396.93150878890003,416.10936122700167 L397.6568840859514,418.40614552822217 L398.52622699921267,419.2138450423617 L398.7186452554913,423.06198171435267 L398.2355231587906,424.4283104078748 L399.5395375286811,425.794639101397 L401.7627297559048,425.7323715177078 L403.5014155824261,427.4705266395456 L405.4325196652258,428.21417949617665 L406.56626464286927,429.48977542489456 L407.5435832682867,435.19882331228143 L410.49907231257225,439.312041983406 L410.49907231257225,440.9879295215546 L409.58127875924225,443.5017608287773 L406.40291677063277,446.51373280551337 L397.7219463740459,451.1820225083816 L393.786370096341,454.080133760657 L390.82534383604536,455.72755611769054 L389.6306894823127,458.2271548343559 L389.7192849384422,460.0453682780798 L392.63739777467333,467.0922796778738 L395.9085081314161,471.4670222004931 L397.9877327424314,472.48998964681516 L401.21454537110947,472.9436534708362 L407.97825472491735,477.43225671791527 L412.4883171634561,482.604024311756 L415.71651409613753,485.44342612798175 L417.1312727861877,488.910841002559 L417.17557051425234,493.68231698696866 L418.147351923661,495.9559733285334 L418.2359473797891,497.546465323337 L419.340621973392,501.18289221078425 L420.31378768680247,503.171896741198 L423.80638668386746,508.7973281590597 L425.4426340142383,511.8644514242065 L426.01712017507214,514.2519684902311 L426.3285885755241,518.897130233443 L424.08878470027736,521.3842754333705 L423.93512695605335,526.3834728667009 L422.24627607360554,529.934504210803 L420.9159599276751,531.4484960313598 L421.0696176718991,534.8038292552965 L422.1438375774552,538.1573834054132 L421.6316450967139,541.5127166293491 L418.20272408374166,545.392876630094 L416.155338464775,547.1701713759653 L414.261610590028,548.0241268094169 L410.98634732127834,551.0503313767103 L407.30133006793466,556.3128317353553 L406.3281643545242,558.3516503327205 L406.3281643545242,561.1145519746995 L408.6316462138651,566.179575139359 L408.7853039580877,569.6665598259524 L407.50482275623057,579.5991289612846 L408.58042696578997,582.625333528578 L408.3243307254185,586.6371449919804 L406.17450661030307,589.4658723652883 L404.89540971244776,592.0971225446106 L404.56594535996953,594.4437209127825 L403.19271578997905,597.2066225547619 L401.62153074769986,595.7015261033039 L398.34349887094663,593.5701956673149 L397.0076455090104,592.2696927051206 L395.2274305624296,589.3057557215166 L390.33114730732876,582.5452752066919 L387.98336771992604,581.7642617998481 L382.72301251229925,581.2963653852692 L379.36469100342873,581.4529238814021 L375.47894966979567,582.4919029921016 L371.39248425587033,580.4637588376543 L369.3284869888763,580.5687241930157 L366.4560561847116,582.5452752066919 L358.32188586891834,581.9724134367516 L354.5579632874607,582.0240065775229 L350.63346144177007,581.5561101629442 L348.08357347007313,582.2837513551979 L342.07569410136347,581.990204174949 L335.3369022195908,579.7877107861716 L330.8849805491362,576.7188084472057 L322.18462989652136,573.4435335451553 L318.9481271398277,569.8551416508394 L316.4383839841887,569.438838377032 L314.2539522690225,568.3464870517421 L311.1378839605041,567.7220321410307 L305.18952966388025,564.2901987428477 L299.6855369518997,562.833137284521 L297.33914166849723,562.624985647617 L295.3152892175625,561.2728895446523 L294.42518174427136,559.1931522494338 L295.2751444015032,555.2400502220814 L295.67936117009003,551.8598099646695 L296.6912873955566,548.6877213441612 L295.5575424179146,545.3074810867492 L292.6449667976906,542.5001025992774 L291.2274394996353,541.7190891924338 L287.5451908542968,542.6032888808197 L284.02490577719146,542.186985607012 L282.8510159834901,541.6674960516625 L281.7186553098484,538.963303845733 L279.6145132267965,536.9867528320563 L276.7005533025722,536.518856417478 L274.9203383559913,536.9867528320563 L272.89648590505664,536.7786011951528 L270.7923438220062,535.1667603145133 L268.6480569228979,530.694168731811 L266.1383137672589,527.6768595336162 L263.454148307366,525.8479716469744 L262.3563952337736,524.3855729671886 L260.44467140700175,523.4444429165717 L252.147153218972,523.1295468504868 L249.5432773911948,524.0190837603323 L242.75049765334643,524.3322007525978 L235.45383125876734,525.7234364795959 L234.1276680248452,519.8418184316988 L234.54157492144455,518.4416873356024 L236.28441365997256,516.2569846850222 L238.093698990594,515.1646333597323 L240.48992921806834,512.5600692877053 L241.96836589221272,506.9132889840076 L241.70673243583263,498.54986295764223 L238.97550063987143,489.51394702743386 L237.6396472779368,488.1333857433542 L235.7334606671736,484.0824346559189 L233.74975303229536,483.52202640271605 L232.81396352693912,482.54175672806673 L233.2707838476015,477.5852570664087 L231.35352280482252,474.72984358580567 L231.04897592437948,469.5491806228667 L228.5212368167143,467.2239311405308 L226.88637379034378,462.04326817759244 L226.0474855651277,457.6009208498247 L224.36278759468533,456.0335568146773 L220.64454704529416,451.81359371437134 L215.5599984459216,445.1296133737941 L212.85783703400395,443.22600438672526 L209.22680763674055,441.7333614520049 L202.54477221905168,439.5290889894084 L199.11723551008126,439.08254146066594 L194.58502420750935,438.9704598100252 L187.75902117361346,439.70877544519703 L186.9076742123784,436.6558847706079 L186.9575091564503,428.0220395236497 L187.50430923724386,424.88909052717486 L189.84378300063437,419.7102066380556 L190.589922857717,416.8957118553053 L189.49493839212812,411.71504889236627 L185.36555955414275,406.66425831826456 L181.93110132516185,399.62980043520827 L179.14588167312482,391.50832844832075 L178.74720212054515,386.5198054579087 L178.87040517672537,383.21606537474344 L179.4476599455613,379.7397551310679 L178.57416412029457,378.09944906931355 L173.17260990446286,376.1531423105716 L158.73431916352766,371.3158405948332 L156.3713122321022,371.196642648914 L153.3064631716574,372.1306564042518 L151.41688820891875,372.1626797330057 z"/>
	<path id="osmaniye-sumbas" title="Sumbas" class="district" d="M90.5005906005925,233.18854923405885 L91.84613409054417,230.8615206779038 L93.04078844427686,227.34429173637548 L94.98158265509218,223.6367018961402 L95.23075737545169,215.00285664918204 L94.6825729906578,206.24269716102575 L94.63273804658591,197.92908520161185 L95.77755745624374,188.91273908342018 L97.76818661113096,183.8601694354992 L98.46449152414169,178.1689122863093 L98.51432646821361,174.58763668727218 L101.30093042425385,166.850444645438 L104.23703921251133,159.6878934473637 L103.09221980285054,155.53019793074694 L102.29624500169601,148.24133249147448 L101.40060031239767,146.77003844259062 L100.80258098353193,144.27577694738457 L99.21063138122284,141.90960876719598 L99.11096149307758,138.6485664557031 L107.47077336119986,130.6551877838336 L111.30252683875418,126.3071313685097 L113.29177168963962,124.3875107170636 L115.4319056767425,119.65517435668689 L115.88042017339107,117.41709949151618 L118.91481454579201,111.0871548410574 L122.14993299848237,107.63397255703772 L127.57363607834716,105.5862585905742 L135.13608884131168,104.75543111677841 L137.77318796513475,102.45330959409877 L138.76850254257988,100.66356133149033 L141.65477638676396,97.40073994617777 L143.89458026201214,93.37291681839868 L144.88851053545395,87.29737972415496 L146.77946980219443,84.67502491393152 L150.36204855938777,81.92635586250941 L153.49749712393574,80.58315512864296 L157.12991082520244,75.402492165704 L158.57235559529283,72.91000974431773 L159.31987975637875,70.4157482491117 L159.46800028459268,67.3450668363255 L158.32456517893368,62.358322919733226 L159.46800028459268,59.80001476701824 L161.35895955133313,53.788524330283536 L162.45394401692204,51.6144961226218 L164.69374789216872,49.24832794243321 L166.6290048869769,44.12815348936424 L170.2212737721827,39.6235385779074 L174.38664451422216,35.321738081895944 L179.18602648918124,32.669139016737255 L188.001274373964,30.23002880994142 L190.84601909808842,29.011363243453413 L192.63177126067794,27.433324765388107 L196.20327558585544,22.916256337193502 L200.33127011984197,18.685618793969507 L202.22915090659436,17.1805223425114 L208.47789917165284,15.10078504729289 L213.5015383949377,13.90346836664136 L214.85261910089656,16.292764506485693 L216.27568361496037,20.69597221021982 L219.2810076033178,22.66006970715819 L220.43967005299646,25.369599134546814 L221.12490053399137,32.142533166108564 L220.43967005299646,35.86791374454087 L220.07144518846363,42.03240452976848 L218.5431735702474,48.061685704699656 L216.117872958731,53.208546265064385 L215.6430566860424,55.30963244611939 L215.8548551983491,60.05086417559433 L214.53699778843773,66.0107614715578 L214.58960134051472,70.14354995469911 L215.9074587504276,74.61436246358122 L216.22308006288338,77.99993994245249 L215.27483182150817,81.1844820796986 L213.64135309914084,84.36724514312499 L210.05739003794278,89.380675167013 L208.054302147038,96.08600439342628 L208.10690569911492,98.86313862596342 L209.26695245279691,103.46916074514245 L208.6869290759574,108.75300998962328 L206.31423201651648,111.7329586376048 L204.6281497420708,112.74880978864849 L202.04503847432647,116.2037711464874 L200.93897957672326,120.40416443477667 L201.2019973371036,123.31650827761024 L200.41155975195772,126.49927134103662 L198.72547747751204,127.10949366119047 L192.98061586918269,127.92253039678874 L191.0827350824318,130.15704711432045 L190.92492442620238,134.8324531124672 L188.2892096063811,148.7181242751517 L188.02619184599922,155.6938727221583 L188.18400250223013,159.5562419847063 L189.81748122459737,167.27742236216378 L190.02789543290376,170.93519813544714 L189.71227412044493,177.03208411552674 L188.97444008737605,180.6222550836621 L184.20412849645746,187.41831707488004 L182.8696594385231,190.94088323786752 L182.51804622201325,194.82282231243224 L184.90735492947718,199.3398907406268 L184.65264299310752,202.52265380405316 L182.38653734182233,205.0969736211454 L178.69736717647328,206.04521996704008 L173.7955467053653,213.09035229301492 L172.4250857433799,214.51183227494786 L167.10105255165888,218.4418063426443 L162.516237697013,228.5344921217486 L159.88052287719023,231.24402154913716 L156.45437047222157,233.61374787696482 L150.8673195201216,235.57784537390373 L139.6946019199221,238.01695558069895 L137.90192823732212,237.94935077555098 L129.8383574256306,235.6454501790516 L126.11042674822548,234.83597159109235 L119.1529148341372,234.23998186149595 L110.23107554120165,235.2398213481624 L107.859762785764,233.5461430718168 L106.69971603208056,233.34332865637202 L99.63838131784307,233.20811904607555 L93.9461232615892,233.34332865637202 L90.5005906005925,233.18854923405885 z"/>
	<path id="osmaniye-toprakkale" title="Toprakkale" class="district" d="M187.75902117361346,439.70877544519703 L194.58502420750935,438.9704598100252 L199.11723551008126,439.08254146066594 L202.54477221905168,439.5290889894084 L209.22680763674055,441.7333614520049 L212.85783703400395,443.22600438672526 L215.5599984459216,445.1296133737941 L220.64454704529416,451.81359371437134 L224.36278759468533,456.0335568146773 L226.0474855651277,457.6009208498247 L226.88637379034378,462.04326817759244 L228.5212368167143,467.2239311405308 L231.04897592437948,469.5491806228667 L231.35352280482252,474.72984358580567 L233.2707838476015,477.5852570664087 L232.81396352693912,482.54175672806673 L233.74975303229536,483.52202640271605 L235.7334606671736,484.0824346559189 L237.6396472779368,488.1333857433542 L238.97550063987143,489.51394702743386 L241.70673243583263,498.54986295764223 L241.96836589221272,506.9132889840076 L240.48992921806834,512.5600692877053 L238.093698990594,515.1646333597323 L236.28441365997256,516.2569846850222 L234.54157492144455,518.4416873356024 L234.1276680248452,519.8418184316988 L235.45383125876734,525.7234364795959 L231.48364738101017,526.371019349963 L223.22627400903676,529.7174572048011 L218.75220347455044,529.9789810562952 L209.7625332855153,529.1428163610408 L202.23745673060512,529.2993748571737 L198.2105163887656,528.9328856503173 L192.84218546898282,527.8867902443396 L189.46586800808754,526.9456601937234 L185.60089123448432,525.4832615139378 L179.98753850634444,524.5421314633209 L174.45585971432354,525.7447853654319 L169.06399562650586,528.319105182524 L166.95431632744675,522.4108010273317 L165.4122016692111,519.4699920033831 L164.46672203583938,516.3993105905975 L165.0633570607063,511.73102088772924 L165.2626968369954,507.06273118486143 L168.14897068117943,498.0463850666698 L168.69577076197152,495.295936941428 L168.7456057060449,490.94788052610465 L170.08976489199475,486.3436374807452 L170.28772036428057,484.5538892181368 L172.37801940731012,482.5061752516728 L175.11478841927996,481.67534777787756 L179.642846809845,479.50131957021534 L182.0058537412704,479.81443656248115 L184.72739540921614,477.9553044209045 L185.6991768186263,476.62277812995603 L189.04780819948135,454.8807169795182 L189.24576367176712,448.74291230158565 L188.30028403839688,444.77735675749534 L187.75902117361346,439.70877544519703 z"/>
	
</g></g></svg>