<svg xmlns="http://www.w3.org/2000/svg" version="1.2" baseProfile="tiny" width="600" height="600" stroke-linecap="round" stroke-linejoin="round"><rect id="backgroundrect" width="100%" height="100%" x="0" y="0" fill="none" stroke="none" class="" style=""/>































































































































































































































































































































































































































































































































































































































<g class="currentLayer" style=""><title>Layer 1</title><g class="city city-2" id="adiyaman" title="Adıyaman">
	<path id="adiyaman-merkez" title="Merkez" class="district" d="M228.02209558816045,435.1287900373728 L230.87251462434764,433.8230076903156 L237.53954292111848,430.2792177956844 L238.68965661143307,429.56378915342714 L239.02671807043367,428.5098243471181 L238.44337282874383,427.45752720664154 L235.97343066196711,424.733395068816 L235.8345013486551,423.8295201874556 L237.2095858020031,422.23606548424647 L240.59835592727393,420.9736424488411 L241.1106577701111,419.87131533338186 L240.38206824632212,417.53908466625626 L238.78595988543336,414.720729408879 L236.4091635082634,410.93346030266395 L235.72004253939252,409.5409593323028 L234.99934672658804,407.04196208190075 L234.3110151288154,405.1508290275423 L232.76305840492623,401.8696965015718 L231.09117041859483,399.9443762976416 L230.39494510983877,397.09183389069284 L229.86685584503394,395.7727102169735 L228.6812204552929,393.82237502555193 L228.41914925063676,392.48407319475564 L227.36218134992893,391.4301083884467 L226.83330271402684,389.4572597082826 L226.42282974287812,386.7706500516939 L225.34139133812081,385.1646878547387 L222.03471580707978,381.8460328475311 L220.71172984622402,379.2995071208952 L219.8315810715499,378.1204673771285 L216.9203804607888,374.6508886120553 L216.78460863187044,373.5143743470241 L217.75316696956142,371.5448609985256 L217.87630886090557,369.80215020328353 L216.73487825267347,365.6813479305148 L216.62752378329623,363.50837935041875 L216.76013812782105,362.81212886523815 L217.71764527013505,361.2420214836875 L217.8778876031028,360.1788845152981 L217.52030249554457,359.00401393611327 L216.2802005000168,356.8427190168467 L214.90116919117702,355.8321135221893 L214.88064554261936,354.52799884096515 L215.64159928144107,352.5484794974698 L215.9123535681797,351.18933184376425 L215.86025507568738,349.34405959980677 L215.55792594501497,348.11665754689005 L214.76302924896325,347.12606404222606 L211.6963225318243,343.78739704502505 L211.41688516300408,342.8301568570166 L211.30953069362678,339.34723676528154 L209.22638036504847,337.62787329169817 L207.14401940756736,337.56950498755106 L203.51133361290266,337.17510201810165 L201.00113352010965,334.7719955530837 L198.4940909117102,333.4428658843677 L198.89272331638284,332.3889010780588 L198.17281687467647,331.0305872572693 L199.7018286922043,328.55160199686037 L201.1226966692575,328.1597005261598 L202.4812043295396,326.4470077159077 L203.76314299327998,325.85915550985703 L204.5975082442498,324.79935387313327 L204.68986466275837,323.5269248427315 L205.261369337973,322.2052996702631 L205.41608607325188,320.4592535433555 L206.63566442022199,318.9750309521925 L207.19217104456797,317.6534057797241 L207.3003148850434,315.32117511259855 L207.2379545682723,313.08566906377365 L207.74788829781485,311.78072054963314 L207.50081514402746,309.61108730120236 L207.95154604119244,308.58297131530117 L207.70447288740505,308.0609919096448 L208.23966649209515,307.1479448662046 L207.7534138955038,305.54865333258044 L207.99259333830688,305.22179082935793 L206.8961568826818,303.8993318239733 L204.04731658869096,302.17913451747347 L202.82615949952364,301.68300393222495 L198.4743566342507,299.43415655673806 L196.3138479380325,298.47524870289635 L192.77588667517085,296.7225319126578 L191.77417475134885,295.8953696596052 L188.79982445271847,290.80231820633276 L188.3617234931268,288.454244713796 L187.64181705142042,286.33797677201414 L187.64181705142042,283.8573238457721 L188.20542801565168,282.60073764078174 L189.0816299348341,281.90615482143403 L192.86982183587577,280.2193108315897 L195.56236665239143,278.5991734750559 L199.4452830852371,277.4084600704597 L201.26083661147126,275.8541955143204 L201.60500241035717,275.225485495367 L203.07717950880362,274.1339982078206 L206.55199108379588,272.71231308538614 L207.77314817296238,271.8517975156782 L208.58698977537455,270.82701686144225 L209.24453590031067,268.90836732084324 L208.7440746239488,266.6595199453561 L207.6792130122575,264.6091248039683 L207.22690337289526,263.0515249161633 L206.48489454043494,261.96420679319897 L204.54619912285563,260.97861628603346 L201.73919549707833,260.25818464627775 L204.02521419793695,258.17443618823467 L205.18322159923503,256.45507271465107 L206.3420183716312,255.82636269569792 L209.75446962985242,255.79300937904242 L211.22585735720074,255.52868434454876 L213.44872637019006,255.39693874376013 L215.6715953831785,254.96668095890612 L222.8106675967702,252.22170299817037 L225.0335366097595,251.1960885110185 L229.04117367614657,248.7162694176929 L230.66885688097003,247.3929765793921 L232.14024460831834,245.87206533990803 L233.42376201425597,243.98676911596414 L234.42626330917614,242.9945079454675 L238.5901958530392,239.35649493128494 L239.05987165656552,238.0332020929838 L239.02829681263088,236.37971141979483 L238.7962217097122,235.7668442262526 L240.45942661396202,235.31990978307098 L241.56691426496496,234.79959804324756 L244.54126456359543,233.88988633147258 L249.32090656418112,232.9368153080461 L250.81834353777515,233.17445768921556 L255.26960716144188,233.45629321495306 L257.874531786038,233.23949665669318 L261.0335949216855,232.50322219152653 L263.7206141405122,231.44675588646822 L265.3056713060241,231.57683382142395 L266.2434441708786,232.42150656572085 L266.48972795356786,233.34789493582312 L266.1360897015013,234.66451711079338 L265.9166445361568,237.3052659569807 L267.6343160461936,238.9645934605843 L268.27212789367104,238.47263203991798 L269.7695648672651,238.99044228099228 L270.1374117991013,239.5866328162067 L271.8306128050894,239.9501839677502 L272.5915665439112,239.6133154695312 L274.7268153649818,239.2756131383956 L276.4444868750194,239.56078399579894 L277.64748842892357,240.52052568255647 L279.65959535865005,241.3760382547665 L281.27938485249007,241.29849179354278 L282.82576283418285,240.93494064199933 L284.9365411512041,241.0908673973633 L287.70960181975227,241.0391697565475 L289.9924630362166,240.46882804174095 L291.56252215085965,240.5722233233725 L292.5934408053218,240.18365718433768 L294.09087777891585,240.0535792493817 L295.66172626465715,240.70146742541198 L296.91287945556184,241.63536029176186 L299.24468168012487,242.46502404356363 L299.80908201545435,242.38664374942374 L300.0301059229959,243.4497807178128 L300.69238827452205,243.50147835862884 L301.42887150929425,244.3052932900227 L302.8765781036914,243.78664921603212 L303.564120330365,245.445976719636 L304.4529521871216,246.9760601211999 L309.0455132373957,248.26933497451125 L313.5544009512429,249.12901671130305 L315.05736352252484,248.96391779385914 L317.5320419158916,248.99810494343086 L321.1623595972618,249.19572334461378 L325.01291181507446,249.12901671130305 L329.083698569331,249.493401695763 L329.9914753324481,249.3941755787132 L333.5294365953088,250.02205176475013 L335.2826298047727,250.6507617837035 L345.3013277851908,254.91665098392298 L349.4029000122827,257.8600811787579 L351.5634087085018,259.1500207004037 L352.627480949094,260.5725396557545 L353.22266675725996,262.3252564459932 L349.9349361325793,263.35003710022886 L347.618131958885,264.5082310210858 L344.67535650418927,266.69037176326253 L342.48327296403636,269.33612360694815 L340.91795007598324,272.7431649032923 L339.2271171832903,274.495881693531 L338.4448504248129,274.9586589621242 L337.7557294559421,276.1160190500648 L337.8188791438114,278.43157305886274 L339.35262718792995,282.168812190095 L342.75165913747963,287.4227933962293 L347.2250251519004,293.5356225062388 L348.01834310575487,298.2684581396333 L349.1763505070529,300.109561219009 L349.9215168239068,303.34733443332726 L349.9420404724646,305.6178614646402 L349.47157529784,309.83121919112773 L349.56235297415225,311.52973684180154 L350.10228280543237,315.4070599029862 L350.65326383208935,320.06818590557157 L350.4535529442035,325.385538413351 L349.6862842365955,328.3923399098311 L348.85349772782297,330.21843399671155 L347.8217897022625,331.97281845278303 L347.11609194032684,333.9114799833756 L346.97637325591666,338.04729124863917 L346.4577564442916,341.0265762588783 L345.73942874478234,342.05969524227794 L341.1823893939347,347.5721646524912 L340.1735731302274,348.6686549375361 L325.2284101249274,360.15136802905744 L323.5170535836777,361.57472081732453 L315.7291183272316,368.64395628242636 L310.6250448052186,373.0866180609192 L306.3529684208801,376.11426538030884 L305.25100636756605,377.6610254402009 L303.30994283669224,381.9811137799852 L302.66660539152673,383.5887436427734 L300.66397091498084,389.22128499294604 L300.4942561288333,389.9784052810225 L300.1935057403573,394.5561479919695 L299.9117002582416,395.9194648102571 L299.1412740662393,401.2685029688593 L299.5414852131092,406.26649746966353 L300.68528393463674,415.3794574128223 L297.2270491527103,415.6687974348074 L293.7325033002586,415.6296072877375 L292.55870847699356,415.3377657670032 L290.19138455300424,413.96944595121715 L288.95996563955805,414.05282924285575 L287.7838027029978,414.70655424930044 L286.62658467279874,416.59101664032795 L285.5198863928939,417.3939977388055 L284.54185560202313,417.51657117751404 L283.00179258911754,417.34897076132086 L279.65485913206015,416.5451558299267 L276.8841665768074,416.1549220250591 L275.3954126852949,416.13491003506596 L273.74720583191385,416.5593309895053 L272.8781082526167,417.1997146692882 L271.633270030499,418.79817236999594 L269.13964673077095,422.5420821645591 L266.9601931281924,426.0500172437857 L265.7753471095495,427.5025541841263 L265.0783324296953,427.8369211835963 L263.21304852426505,427.9178029764856 L260.20238715510925,427.31577561085646 L257.947153927088,426.2559739741326 L256.14344096732896,425.10695221535553 L255.05016199609656,424.7292259042337 L253.86136912196287,424.6375042834316 L251.7032285390392,424.7892618742134 L250.03528740819945,425.10445071660666 L249.11251259421275,425.63893761600866 L247.70980015242267,427.0731302321888 L246.99541930840434,428.73579306745796 L246.57152702858417,430.8220430242504 L246.6796708690596,432.496379520349 L247.46272699863528,434.7719095491604 L247.27722479052,435.9092576471078 L246.4602257037151,437.1916926725063 L245.2327536457607,438.24565747881525 L244.06132693579022,438.9235636398354 L242.22998598758917,439.5506059929558 L240.66703121283132,439.54810449420705 L240.0852647133379,438.59253197203094 L240.61177523594634,437.400150901602 L240.5959878139786,436.7330845684952 L239.80977420000931,435.935940300432 L238.76701497907297,435.5540448247284 L237.44718650260987,435.5740568147216 L235.75319612552445,436.13689403328067 L233.14590338763205,436.4612550377541 L231.26404268913598,436.11354671162195 L228.02209558816045,435.1287900373728 z"/>
	<path id="adiyaman-besni" title="Besni" class="district" d="M198.4940909117102,333.4428658843677 L201.00113352010965,334.7719955530837 L203.51133361290266,337.17510201810165 L207.14401940756736,337.56950498755106 L209.22638036504847,337.62787329169817 L211.30953069362678,339.34723676528154 L211.41688516300408,342.8301568570166 L211.6963225318243,343.78739704502505 L214.76302924896325,347.12606404222606 L215.55792594501497,348.11665754689005 L215.86025507568738,349.34405959980677 L215.9123535681797,351.18933184376425 L215.64159928144107,352.5484794974698 L214.88064554261936,354.52799884096515 L214.90116919117702,355.8321135221893 L216.2802005000168,356.8427190168467 L217.52030249554457,359.00401393611327 L217.8778876031028,360.1788845152981 L217.71764527013505,361.2420214836875 L216.76013812782105,362.81212886523815 L216.62752378329623,363.50837935041875 L216.73487825267347,365.6813479305148 L217.87630886090557,369.80215020328353 L217.75316696956142,371.5448609985256 L216.78460863187044,373.5143743470241 L216.9203804607888,374.6508886120553 L219.8315810715499,378.1204673771285 L220.71172984622402,379.2995071208952 L222.03471580707978,381.8460328475311 L225.34139133812081,385.1646878547387 L226.42282974287812,386.7706500516939 L226.83330271402684,389.4572597082826 L227.36218134992893,391.4301083884467 L228.41914925063676,392.48407319475564 L228.6812204552929,393.82237502555193 L229.86685584503394,395.7727102169735 L230.39494510983877,397.09183389069284 L231.09117041859483,399.9443762976416 L232.76305840492623,401.8696965015718 L234.3110151288154,405.1508290275423 L234.99934672658804,407.04196208190075 L235.72004253939252,409.5409593323028 L236.4091635082634,410.93346030266395 L238.78595988543336,414.720729408879 L240.38206824632212,417.53908466625626 L241.1106577701111,419.87131533338186 L240.59835592727393,420.9736424488411 L237.2095858020031,422.23606548424647 L235.8345013486551,423.8295201874556 L235.97343066196711,424.733395068816 L238.44337282874383,427.45752720664154 L239.02671807043367,428.5098243471181 L238.68965661143307,429.56378915342714 L237.53954292111848,430.2792177956844 L230.87251462434764,433.8230076903156 L228.02209558816045,435.1287900373728 L224.84803440164418,433.88471132612796 L222.3441492776383,432.61144846281 L220.74251531906054,431.1072138816536 L218.67830989684177,428.76330955369866 L216.61647258791925,427.0747978980216 L215.55634720281776,426.5336403352886 L213.86393556792868,426.05585407420034 L211.6355409572504,426.0275037550432 L210.97799483231515,426.1967718370693 L210.50752965769067,424.81677836045407 L208.5664661268169,423.7578105566467 L207.87813452904433,422.60045046870596 L206.53146743523828,420.9136064788616 L204.68433906506942,419.2275963219335 L203.43160713196832,418.49966018593057 L201.2718878068483,418.00352960068204 L198.32832298105345,417.9376568002879 L195.6049926917022,417.73920456618833 L183.33185085436014,415.0934527225026 L181.7665279663078,414.66319493764837 L176.7879644489344,413.73680656754607 L174.50273511917476,412.24924864471734 L172.5924570611366,411.1902808409102 L170.83926385167354,410.49569802156225 L168.96056063757098,410.0004012692301 L166.89477647315584,409.6693696014259 L165.0160732590523,409.83446851887 L162.94949972353905,410.3305991041184 L161.32181651871554,410.9259558064164 L155.99908720245625,413.20815649855865 L152.86844142635027,414.86164717174773 L151.02131305618147,415.9531344592944 L148.60978435068364,417.07714123057974 L145.35441794103627,417.6399784491388 L137.02576348221237,417.44152621503935 L133.4254419025805,416.812816196086 L130.70132224213108,416.21745949378817 L127.47674130531975,414.7624210546982 L125.34780745303571,414.0678382353505 L122.49896715904491,412.6127997962606 L115.1096643072723,409.3383379336215 L112.10373916470769,408.2802039627306 L109.34883403142175,407.08949055813434 L105.96716824603664,405.2041943341906 L102.64865214851993,402.26076413935596 L100.73916346158086,399.1188817104217 L99.39249636777438,397.46539103723245 L98.547079921428,396.8700343349346 L96.82546155589873,396.73828873414595 L93.28750029303754,396.80416153454024 L88.9664829006007,397.20106600273897 L84.77176488390155,397.0026137686396 L83.20565262475017,396.83751485119546 L81.23380362104038,396.30803094929166 L79.16723008552708,395.5800948132887 L77.72662783101525,395.24989697840095 L76.5062601129465,395.21654366174545 L75.03408301450047,395.6468014465995 L72.96829885008535,397.0359670852948 L70.02473402429098,398.45765220772927 L67.55163437312113,399.9793972801297 L66.33047728395421,401.00417793436566 L65.17246988265619,402.3274707726665 L64.29547859237513,404.0801875629054 L63.82580278884926,406.3949077387866 L63.66950731137365,408.1151050452867 L63.85737763278391,411.1244080405157 L63.5755721506683,411.9840897773074 L62.38598990543604,413.53835433344693 L61.35270313767939,414.46474270354923 L59.56793508428126,415.49035719070116 L56.56200994171666,416.77946287943075 L53.087198366724344,417.67249793287783 L51.0379909953747,417.9334876357057 L45.05929429637649,417.5532598258346 L39.58026950264157,417.48738702544057 L36.950874373995674,417.5207403420958 L39.07980822627967,414.87498849841006 L43.21216592620765,412.7578867237116 L44.87142397496623,411.2694949679665 L45.40424946636097,410.2113609970754 L45.62290526060727,407.92916030493296 L45.1532294570814,406.60670129954826 L43.995222055783344,404.2586278070116 L43.68184172973352,402.8035893679219 L43.74420204650423,400.4546820424687 L44.05758237255405,399.33067527118317 L45.34109977849165,397.4453790472393 L46.969572354413735,394.4685955357491 L47.97128427823618,391.6577447746196 L49.3171620009445,385.2263914905513 L52.03733480590176,384.5968476386814 L53.41478737254471,383.86974533559464 L56.16969250583019,382.1495480290949 L60.991171174629415,380.76121622331596 L63.715290835078854,379.7356017361638 L65.28061372313162,378.87591999937206 L66.62728081693855,377.85030551222013 L69.19431562881377,375.1386808681399 L70.97908368221144,373.8820946631496 L76.30181299847077,370.9053111516594 L79.6826894127577,368.1269798742684 L84.34787260408089,363.43083288919496 L89.10699095610896,356.8493896801777 L90.17106319670212,354.53466950429623 L89.98319287529183,352.9804049481567 L89.16935127287965,349.8710420029616 L87.25986258594057,344.64541111598425 L86.66467677777514,342.26481813970844 L86.07028034070831,340.4787480328143 L85.22486389436193,338.79190404297 L82.78254971602767,334.85621267763827 L81.8116232650417,333.59962647264797 L79.90213457810263,332.0787152331637 L78.3991720068201,331.6818107649652 L76.99014459624294,330.06083957551516 L76.73991395806198,327.1832821810746 L77.08407975694783,324.5708836540441 L78.11736652470493,321.92513181035844 L78.74333780570642,320.80029120615654 L80.99778166262998,319.312733283328 L83.65954100630871,318.1220198787318 L86.72703709454584,317.5591826601727 L89.04463063933872,316.17085085439373 L91.36143481303297,314.1204557130059 L91.9558312500998,313.78942404520154 L97.02832992817815,311.70567558715845 L101.22304794487728,311.3087711189597 L103.03939084220963,311.2754178023042 L106.76522242648107,310.316509948463 L109.36383208229093,310.0855382306246 L110.39711885004756,310.1847643476742 L114.3731810725,311.04444608446596 L116.81549525083425,312.30103228945654 L118.5055387724284,312.7971628747046 L123.17072196375157,313.78942404520154 L125.95720194097171,314.8475580160925 L128.61185694476512,315.2944924592741 L129.6909272362265,314.7408274027954 L129.51568685239008,312.2785188007141 L129.9032680616862,311.20620967024433 L131.39517943759176,310.2314589909918 L132.84920100077548,310.8018007057983 L133.04654377536642,309.52937167539665 L135.6562046265533,310.95939512699505 L141.9490710226999,314.11461888259134 L143.7819907130978,314.75416872945743 L145.04340572828144,314.7333229065479 L146.30403137236635,314.32808010918546 L148.02564973789524,314.3239109446035 L154.41639815023936,314.9934787764598 L155.45047428909422,315.56715582293174 L156.309310044113,316.91462981580815 L158.38614540390512,317.1681150223888 L165.65388510652986,316.7562015616951 L166.78821137487674,316.51105468427835 L168.79795019130782,315.2244504942981 L171.69809960669193,315.3036646213544 L174.43721731801006,316.39848724056645 L175.6907386222102,317.5041496876914 L179.19791441223538,319.1526373633821 L181.60076003565106,319.947280132696 L184.72588021406858,320.03316492308346 L185.92572428358014,319.71797608069045 L187.0150563993208,321.74669156625225 L187.96703794394583,322.66807693885636 L191.98651557680805,325.1462283663489 L193.60709444174714,328.4432037177306 L196.06677478424504,332.1562616943877 L198.4940909117102,333.4428658843677 z"/>
	<path id="adiyaman-celikhan" title="Çelikhan" class="district" d="M323.4996874195137,191.79883454533459 L324.5566553202206,192.63850429213323 L326.4977188510943,194.88735166762044 L327.15526497603054,196.14393787261076 L327.8443859449013,198.9881419503958 L327.90674626167157,200.21220867164732 L329.06554303406864,202.79125388202226 L329.65993947113543,204.64403062222712 L329.53521883759413,205.99984294426724 L330.56771623425254,207.12384971555272 L330.50535591748144,208.08359140231033 L329.53521883759413,208.77734038874155 L328.97160787336287,209.8029548758937 L328.5327175426739,211.52315218239352 L328.9084581854944,215.75568806595754 L328.9084581854944,218.73247157744788 L329.7230891590039,221.34487010447856 L329.5660043104305,223.16429352802794 L328.6898023912472,225.18133535276024 L327.6249407795568,226.768953225555 L326.93581981068604,229.50142369254462 L325.9996256880278,231.2074458394659 L323.7301837802351,233.8023338752525 L322.5366546795107,236.20043734277237 L320.7818827278505,240.74816206872964 L319.42495380976555,243.1946278453995 L318.2543164708933,245.6169124674945 L317.857262808417,246.85265284957552 L317.5320419158916,248.99810494343086 L315.05736352252484,248.96391779385914 L313.5544009512429,249.12901671130305 L309.0455132373957,248.26933497451125 L304.4529521871216,246.9760601211999 L303.564120330365,245.445976719636 L302.8765781036914,243.78664921603212 L301.42887150929425,244.3052932900227 L300.69238827452205,243.50147835862884 L300.0301059229959,243.4497807178128 L299.80908201545435,242.38664374942374 L299.24468168012487,242.46502404356363 L296.91287945556184,241.63536029176186 L295.66172626465715,240.70146742541198 L294.09087777891585,240.0535792493817 L292.5934408053218,240.18365718433768 L291.56252215085965,240.5722233233725 L289.9924630362166,240.46882804174095 L287.70960181975227,241.0391697565475 L284.9365411512041,241.0908673973633 L282.82576283418285,240.93494064199933 L281.27938485249007,241.29849179354278 L279.65959535865005,241.3760382547665 L277.64748842892357,240.52052568255647 L276.4444868750194,239.56078399579894 L274.7268153649818,239.2756131383956 L272.5915665439112,239.6133154695312 L271.8306128050894,239.9501839677502 L270.1374117991013,239.5866328162067 L269.7695648672651,238.99044228099228 L268.27212789367104,238.47263203991798 L267.6343160461936,238.9645934605843 L265.9166445361568,237.3052659569807 L266.1360897015013,234.66451711079338 L266.48972795356786,233.34789493582312 L266.2434441708786,232.42150656572085 L265.3056713060241,231.57683382142395 L263.7206141405122,231.44675588646822 L261.0335949216855,232.50322219152653 L257.874531786038,233.23949665669318 L255.26960716144188,233.45629321495306 L250.81834353777515,233.17445768921556 L249.32090656418112,232.9368153080461 L244.54126456359543,233.88988633147258 L241.56691426496496,234.79959804324756 L240.45942661396202,235.31990978307098 L238.7962217097122,235.7668442262526 L237.18116844246208,233.07273007341666 L236.42968715682102,232.21304833662487 L232.82936557718915,230.1951726789761 L231.76450396549782,229.36884425883977 L229.2282546264582,228.83936035693597 L227.06853530133816,227.4835480348961 L224.18812016341354,224.70521675750513 L222.71673243606523,223.6804361032692 L219.74238213743487,222.68817493277254 L218.64594568180897,221.82849319598097 L215.60923506640825,219.94319697203727 L213.8244670130106,218.619904133736 L211.22585735720074,215.6439544551623 L210.3496554380183,213.19665484557572 L208.53331254068596,210.2198713340856 L208.34544221927518,209.1283840465394 L208.50252706784943,206.91288998770747 L210.0678499559027,204.3655304281549 L210.69382123690414,202.1500363693232 L211.0072015629544,201.68725910073013 L212.41543960243342,201.0585490817768 L214.51358798188136,200.76087073062783 L216.5170118295254,200.1655140283297 L218.73988084251468,199.00815394038895 L220.24284341379678,197.12285771644505 L221.3077050254881,196.4949815304081 L223.1864082395907,195.8996248281102 L225.5655727300561,195.76704539440516 L227.97631206445524,196.32904878004803 L232.45362493436858,196.39575541335853 L234.39468846524235,196.26317597965345 L236.52362231752596,195.76704539440516 L241.56454615166965,193.8492296867224 L242.94199871831208,193.0879402340642 L244.60125676707116,191.76548122867933 L246.3228751325995,189.71508608729152 L246.98042125753568,188.72282491679465 L247.79505223104604,185.68016860491022 L248.85912447163918,184.6545541177583 L251.08199348462765,184.02667793172114 L252.67889121661548,183.9933246150659 L254.71388990819412,184.29100296621482 L259.7232388984032,185.41584357041654 L264.32606177295605,185.58094248786063 L266.8615217408967,185.91197415566506 L270.30554784305247,186.14294587350327 L271.934020418975,186.04371975645347 L274.3131849094395,185.58094248786063 L277.788785855531,185.74604140530454 L280.57526583275063,186.04371975645347 L281.8903580826228,186.4739775413077 L283.73748645279164,188.06159541410244 L286.3360961086006,188.65695211640033 L288.68447512622953,189.8143122043411 L289.93641768823346,190.64064062447738 L292.47266702727217,193.12129355071946 L296.07298860690395,194.21278083826564 L297.85775666030173,194.34536027197095 L299.42307954835496,193.94845580377196 L302.7731704898058,192.46006404802702 L303.4622914586766,192.26161181392766 L306.1232614312567,192.85696851622575 L307.4691391539655,193.51819801891799 L309.09761172988715,194.87401034095808 L311.03867526076095,197.05698491605094 L312.0403871845828,197.15621103310053 L314.2948310415069,196.4282748970976 L315.9856639341997,195.00658977466313 L319.4920503531267,194.9732364580079 L320.93186323653936,194.57633198980912 L322.71663128993794,193.02206743366966 L323.4996874195137,191.79883454533459 z"/>
	<path id="adiyaman-gerger" title="Gerger" class="district" d="M590.4515735770814,197.0211301006464 L590.2589670290807,198.12762638068781 L588.2729093456,203.36326326266146 L586.7304782193997,208.53052584549218 L585.9576839141018,209.4902675322498 L585.0112279671658,210.18901951617943 L581.7819108037637,211.2454858212377 L580.1408082902678,212.1251795480227 L579.1359388820523,212.97068612523594 L578.4973376634774,213.96795029323076 L577.7553288310161,216.2259698307983 L577.1372512609981,217.21072650504746 L573.8676761715807,219.95236913411742 L572.6094186407906,221.4699450419359 L572.2920914592487,222.90330382519954 L571.70322061987,224.07317140688596 L570.7015086960478,224.9278501461796 L565.4695570561008,228.39492741250345 L563.6626866119483,228.98111195272116 L561.3924553330573,228.68426743448845 L558.4449436517716,227.40433390783943 L556.7209571729479,227.1074893896067 L553.254039308939,227.07580373878432 L551.155101558393,227.66032061316918 L547.5445181544824,228.9919517806342 L544.865392646639,230.21101550438752 L541.9810306532227,231.97707362128827 L536.250985850208,236.14290287154176 L533.6484293389066,238.2708444741533 L532.8511645295605,239.61081397078203 L532.4162210543623,241.30432862395764 L532.270187401165,245.07492107184504 L531.8849743051638,246.72174108170304 L531.3576744114581,247.84408018715567 L530.6401360830461,248.69042059728514 L529.1340160273706,249.87362950563363 L528.112569826089,251.45040755051537 L527.489756029481,253.3882352481915 L525.0024476985403,259.0174412666986 L522.8166791271744,262.4211472313773 L521.9831032473037,263.400067075212 L521.1013757304323,263.70024692511004 L517.6936606988011,263.54765550141184 L515.5418350846646,263.8136482017383 L511.79942670732714,265.0727359054778 L507.25896414954525,267.5250385125625 L505.0179396012936,269.0651279091235 L504.13779082661955,270.01569743380094 L504.1085840959802,270.93708280640504 L504.5561575087517,271.2539393146307 L507.76968725018605,271.9760386202193 L509.5410359949122,272.69730409289116 L510.46144269560256,273.7504350662842 L510.49696439502895,275.77664905309666 L509.53629976832144,277.58773414748237 L507.5107735299234,279.9516504654303 L505.2200186024749,281.94451113558773 L504.6524607827519,282.9959744431479 L504.6382521029814,285.0972333924347 L505.2515934464096,288.1473942005667 L505.8191512661315,292.4733193707659 L505.827044977116,293.67987560077336 L504.6777206578995,294.9806549503321 L502.9024250576825,295.465111874751 L500.89663309674313,295.26499197481894 L494.3922152462345,293.93502847318666 L491.32235104470203,294.08178306647045 L489.61178387455067,294.48035520050183 L488.98581259354904,292.3540812637232 L487.4197003343977,290.1385872048912 L488.2343313079081,288.38587041465263 L488.04646098649744,284.97882911830845 L487.0131742187408,283.6230167962683 L485.66650712493384,282.66410894242694 L483.94488875940544,280.6137138010389 L481.4402142643005,278.23228699184693 L480.6263726618892,276.2152451671146 L480.53243750118344,274.85859901215827 L481.2523439428907,273.5361400067734 L484.41456456293093,270.5268370115442 L485.7604422856397,267.7818590508087 L486.73136873662514,266.657018446607 L487.0131742187408,265.56553115906064 L486.85687874126467,264.67249610561356 L485.60414680816353,261.79577254408946 L484.66479520111193,261.2329353255304 L480.97053846077506,260.736804740282 L478.5282242824413,260.10892855424504 L476.8689662336832,259.1500207004037 L475.2097081849241,258.95156846630437 L471.3583665960131,259.81125020309594 L467.75804501638123,260.77015805693725 L465.9109166462124,260.77015805693725 L463.56253762858444,260.53835250618266 L460.96392797277457,260.6050591394934 L459.89985573218144,261.03448309143096 L457.89564251343825,263.0848782328187 L455.0783770633821,264.5732699885637 L453.91958029098595,264.87094833971315 L452.5421277243434,264.24307215367594 L452.072451920818,262.49035536343706 L451.0075903091267,260.6709319398877 L449.5054171089428,258.91821514964886 L448.09638969836465,258.091052896596 L445.77958552467044,255.8422055211089 L444.5892139083396,254.0561354142148 L444.15111294874885,252.56857749138624 L444.27662295338837,250.84838018488642 L445.0281042390294,249.59179397989612 L445.2783348772104,247.54139883850831 L445.3406951939815,243.73828690688185 L445.15282487257076,241.19176118024552 L445.4977800425557,240.10027389269908 L446.561852283148,238.94207997184236 L448.4405554972515,237.85142651721208 L450.44397934489547,235.8001975429081 L454.29532093380647,233.91573515188063 L454.7334218933982,232.2947639624306 L454.3395257153154,231.3533665998333 L456.12350439761485,230.6254304638301 L458.06535729958676,228.24400365463788 L459.4428098662293,225.96180296249543 L460.13114146400187,225.16882785901458 L461.38387339710295,224.2757928055673 L464.64002917784893,222.62146829946204 L469.1797023645326,220.9679776262727 L471.8098868642763,219.71139142128243 L475.6920139260238,217.39667124540117 L478.19668842112867,216.43692955864333 L480.82687292087326,215.87492617300074 L483.0805274066982,215.84240668926168 L485.05316578150655,216.37105675824878 L487.3383951112662,216.37105675824878 L489.62441381212494,215.67647393890132 L495.54153956545105,212.73304374406646 L498.92320535083655,210.88110083677805 L501.5841753234167,209.85632018254236 L503.8701940242745,209.29348296398328 L506.4372288361497,208.92993181244 L513.1997710358226,208.8640590120457 L515.4542148927468,208.63225346129084 L518.3346300306713,207.90431732528768 L520.4319890390211,207.07798890515136 L523.2816187041101,205.12681988081334 L526.2867544755768,203.8035270425123 L529.3550399349122,200.76087073062783 L530.4822618633738,198.84305502294507 L530.795642189424,194.27865363866022 L530.7017070287183,191.10425172598713 L530.8264276622597,188.5902454830898 L531.1713828322446,187.43288539514907 L532.9553615145442,185.87862083900984 L534.6777692511715,185.08481190261233 L537.1200834295054,183.53054734647284 L540.5009598437928,180.78556938573732 L542.5359585353714,179.5948559811413 L550.7391029895554,176.12194188440264 L553.9636839263667,174.00567394262075 L554.934610377353,172.84831385468001 L555.5921565022892,170.8637915136865 L555.7334539288955,169.47712737374022 L557.9839509303279,169.11941305261158 L560.2928613930388,169.53799717663608 L562.7809590950776,170.62698296543346 L564.133941157671,170.9871987853112 L565.5445473104453,170.93633497741186 L568.1715743257954,170.04913675437965 L569.1298708392077,169.46878904457628 L572.6749364419545,166.46031988226378 L576.5010181557178,163.5902669840707 L577.8579470738035,162.83147903016135 L579.2969705861183,162.6788876064631 L585.0420134400014,162.48543836986192 L586.5883914216942,162.72724991561313 L588.6226007421748,164.23565366135145 L589.2675169295366,165.24125615851045 L589.7750825457838,166.82303720089058 L591.4509173876079,168.11381055545283 L593.6066898572361,169.21113467341362 L596.1753034113086,170.7795743891319 L597.462767672738,172.06868007786105 L597.7437837837545,172.7657643959578 L599.549864856808,181.94376330659452 L599.5222368683659,183.11363088828094 L599.0809784243808,184.6912427660791 L597.7343113305747,187.44622672181117 L595.8674486829464,189.5441503394328 L594.5697225972382,190.58810915074542 L591.8495497922813,192.12986621313902 L590.7973181181635,192.99621861326187 L590.5770835817208,193.74083140759245 L590.4515735770814,197.0211301006464 z"/>
	<path id="adiyaman-golbasi" title="Gölbaşı" class="district" d="M67.1301102065954,253.75262023265122 L69.67898948320835,254.86745484185656 L71.9957936569026,255.66126377825378 L75.94028103542078,258.17443618823467 L77.81898424952384,260.62173579782103 L78.8838458612147,262.4411592213706 L81.16907519097475,263.59851930931137 L82.82833323973287,264.02877709416543 L84.98884193595151,264.3264554453143 L88.24499771669706,264.4582010461027 L89.18434932374883,264.09464989455944 L94.0058279925476,263.10238872406285 L98.07582537570534,263.26748764150676 L98.95281666598638,263.13574204071836 L103.49248985266955,261.7132230853675 L105.96558950383987,261.9116753194668 L107.43697723118773,262.5070320217649 L109.06544980710981,263.9620704608546 L110.97493849404891,266.70704842158995 L113.57354814985878,268.7249240792389 L117.988500703001,271.10551705551444 L121.65118259940355,271.96603262522274 L125.12678354549405,271.86680650817317 L127.85090320594348,271.3706759229246 L129.7919667368172,271.3039692896138 L132.07719606657682,271.4365487233189 L134.2692796067301,271.40319540666366 L136.5229340925555,271.13887037216995 L140.49899631500787,270.0473830846235 L141.9395985695197,269.7830580501301 L143.81830178362276,269.88228416717965 L143.17733245175208,272.1844968493153 L141.23626892087842,277.244194985932 L140.23455699705636,279.39381624436965 L139.04418538072548,281.17988635126375 L138.13640861760842,282.1387942051051 L136.85289121167082,282.8667303411083 L135.131272846142,283.4620870434062 L132.8768289892184,284.55357433095264 L131.15442125259102,285.5458355014495 L129.78249428363696,285.98276394963426 L129.06021972863522,287.66627260781337 L130.03114617962115,289.3489474330759 L129.50858251250477,290.1385872048912 L129.18494036217618,292.3740932537163 L129.3586020038163,292.87439300354663 L128.71131770315856,293.50560452124927 L129.1723104246024,294.3502772655459 L128.2984766187149,298.2292679925634 L128.28979353663328,298.95220113106825 L128.97575702111007,300.85334018042306 L130.23717203629369,302.69194176104946 L131.76065825613338,306.0080952695077 L132.17981430936416,308.4712377045055 L133.04654377536642,309.52937167539665 L132.84920100077548,310.8018007057983 L131.39517943759176,310.2314589909918 L129.9032680616862,311.20620967024433 L129.51568685239008,312.2785188007141 L129.6909272362265,314.7408274027954 L128.61185694476512,315.2944924592741 L125.95720194097171,314.8475580160925 L123.17072196375157,313.78942404520154 L118.5055387724284,312.7971628747046 L116.81549525083425,312.30103228945654 L114.3731810725,311.04444608446596 L110.39711885004756,310.1847643476742 L109.36383208229093,310.0855382306246 L106.76522242648107,310.316509948463 L103.03939084220963,311.2754178023042 L101.22304794487728,311.3087711189597 L97.02832992817815,311.70567558715845 L91.9558312500998,313.78942404520154 L91.36143481303297,314.1204557130059 L89.04463063933872,316.17085085439373 L86.72703709454584,317.5591826601727 L83.65954100630871,318.1220198787318 L80.99778166262998,319.312733283328 L78.74333780570642,320.80029120615654 L78.11736652470493,321.92513181035844 L77.08407975694783,324.5708836540441 L76.73991395806198,327.1832821810746 L76.99014459624294,330.06083957551516 L78.3991720068201,331.6818107649652 L79.90213457810263,332.0787152331637 L81.8116232650417,333.59962647264797 L82.78254971602767,334.85621267763827 L85.22486389436193,338.79190404297 L86.07028034070831,340.4787480328143 L86.66467677777514,342.26481813970844 L87.25986258594057,344.64541111598425 L89.16935127287965,349.8710420029616 L89.98319287529183,352.9804049481567 L90.17106319670212,354.53466950429623 L89.10699095610896,356.8493896801777 L84.34787260408089,363.43083288919496 L79.6826894127577,368.1269798742684 L76.30181299847077,370.9053111516594 L70.97908368221144,373.8820946631496 L69.19431562881377,375.1386808681399 L66.62728081693855,377.85030551222013 L65.28061372313162,378.87591999937206 L63.715290835078854,379.7356017361638 L60.991171174629415,380.76121622331596 L56.16969250583019,382.1495480290949 L53.41478737254471,383.86974533559464 L52.03733480590176,384.5968476386814 L49.3171620009445,385.2263914905513 L49.662117170928965,382.4964225223105 L49.3171620009445,380.3801545805286 L48.59725555923766,379.2553139763267 L46.87563719370884,377.6685299364481 L45.3103143056556,377.1056927178893 L42.2420288463203,376.44446321519683 L36.98165984683171,375.9158131462095 L35.6357821241234,376.0809120636536 L32.535921820853446,377.2716254682497 L30.563283446045055,378.72666390733934 L27.401062826004402,380.08247622937944 L23.362640286781318,381.93441913666794 L19.010837421507954,383.48868369280734 L16.38065292176388,385.0104287652078 L14.501949707660838,385.2414004830462 L12.59246102072175,385.10965488225736 L11.08949844943923,384.61352429700906 L9.273155552106882,383.6212631265124 L6.956351378412624,381.9677724533231 L4.9845023747028385,381.27318963397545 L4.357741722602751,380.87628516577695 L3.481539803420318,378.2638866387465 L3.3244549548460984,376.6429154492962 L3.8572804462408357,375.2537498106009 L3.669410124830579,373.93129080521624 L3.199734321304704,373.2692274696076 L4.263806561897398,370.6901822592324 L4.765057209357925,370.2599244743782 L6.956351378412624,369.6645677720803 L9.712045882796264,369.4994688546362 L10.557462329142655,369.1025643864375 L11.40287877548905,367.84597818144715 L11.653109413670009,365.8614558404537 L11.5591742529651,364.7366152362519 L10.963988444799664,362.52112117742024 L10.181721686322135,361.1653088553801 L9.273155552106882,360.30562711858835 L7.23815686052779,359.9087226503898 L3.9820010797822314,359.7102704162904 L0.7574201429708838,358.8831081632377 L-0.024846615506646894,358.0234264264459 L0.00593885732939706,357.1303913729988 L0.882930147610443,355.9396779684028 L1.7591320667928803,355.70787241764816 L2.4166781917290114,354.8156711971173 L3.6378352808959233,354.35206009560807 L4.6395472047183635,353.65747727626035 L7.707832664053662,350.8466265151303 L10.807692967323614,347.40706573504735 L10.713757806618709,346.3155784475009 L9.336305239975747,345.12486504290496 L7.921752231710081,344.24517131612 L6.518250418821404,343.0085971011228 L6.486675574886752,342.01633593062587 L7.739407507988319,339.0729057357913 L8.553249110400053,335.9643766235123 L8.303018472219094,334.1783065166182 L7.301306548397101,332.82249419457827 L7.081861383052186,332.1604308589694 L7.2073713876917465,330.8046185369295 L8.052787834038138,328.68835059514714 L8.209083311514188,326.406149903005 L9.242370079270838,324.85188534686546 L10.807692967323614,323.13168804036565 L12.905051975673409,321.87510183537535 L14.533524551595491,320.3867100796301 L16.036487122877574,317.0463754165965 L16.94426388599466,313.73939407021845 L17.820465805177093,312.1851295140791 L18.947687733639093,311.0602889098775 L20.576160309561182,310.1672538564304 L22.391713835795358,308.8114415343902 L23.456575447486223,307.8191803638936 L25.429213822294614,305.4385873876178 L28.058608950940528,301.8005743734352 L31.690505374507055,299.5183736812926 L37.42055017752108,294.9539722970079 L38.954298221639654,293.46641437417895 L40.26939047151191,291.7462170676794 L42.30438916309101,290.026853594096 L45.59211978777123,287.77800621860877 L49.47424684951869,284.8345760237739 L50.85169941616122,284.10663988777077 L52.32308714350909,282.9817992835693 L53.63817939338135,281.4942413607403 L56.48701968737218,276.86396717606135 L58.36572290147524,274.78021871801803 L61.37164804403982,271.0763329034412 L62.37335996786227,269.35613559694133 L62.3417851239276,265.7181225827588 L62.68674029391208,263.9987591091754 L66.56886735565958,254.5397585057176 L67.1301102065954,253.75262023265122 z"/>
	<path id="adiyaman-kahta" title="Kahta" class="district" d="M433.4977606052467,227.03744742463041 L434.7086558701353,229.1370387080849 L437.52671069128957,231.68356443472103 L438.7786532532926,232.60995280482362 L442.31661451615423,233.93241181020824 L444.1321680423884,234.1308640443076 L445.9800857836545,234.0316379272578 L447.4822589838393,233.50298785827044 L449.2046667204659,232.37814725406872 L451.14573025133956,231.9153699854759 L454.3395257153154,231.3533665998333 L454.7334218933982,232.2947639624306 L454.29532093380647,233.91573515188063 L450.44397934489547,235.8001975429081 L448.4405554972515,237.85142651721208 L446.561852283148,238.94207997184236 L445.4977800425557,240.10027389269908 L445.15282487257076,241.19176118024552 L445.3406951939815,243.73828690688185 L445.2783348772104,247.54139883850831 L445.0281042390294,249.59179397989612 L444.27662295338837,250.84838018488642 L444.15111294874885,252.56857749138624 L444.5892139083396,254.0561354142148 L445.77958552467044,255.8422055211089 L448.09638969836465,258.091052896596 L449.5054171089428,258.91821514964886 L451.0075903091267,260.6709319398877 L452.072451920818,262.49035536343706 L452.5421277243434,264.24307215367594 L453.91958029098595,264.87094833971315 L455.0783770633821,264.5732699885637 L457.89564251343825,263.0848782328187 L459.89985573218144,261.03448309143096 L460.96392797277457,260.6050591394934 L463.56253762858444,260.53835250618266 L465.9109166462124,260.77015805693725 L467.75804501638123,260.77015805693725 L471.3583665960131,259.81125020309594 L475.2097081849241,258.95156846630437 L476.8689662336832,259.1500207004037 L478.5282242824413,260.10892855424504 L480.97053846077506,260.736804740282 L484.66479520111193,261.2329353255304 L485.60414680816353,261.79577254408946 L486.85687874126467,264.67249610561356 L487.0131742187408,265.56553115906064 L486.73136873662514,266.657018446607 L485.7604422856397,267.7818590508087 L484.41456456293093,270.5268370115442 L481.2523439428907,273.5361400067734 L480.53243750118344,274.85859901215827 L480.6263726618892,276.2152451671146 L481.4402142643005,278.23228699184693 L483.94488875940544,280.6137138010389 L485.66650712493384,282.66410894242694 L487.0131742187408,283.6230167962683 L488.04646098649744,284.97882911830845 L488.2343313079081,288.38587041465263 L487.4197003343977,290.1385872048912 L488.98581259354904,292.3540812637232 L489.61178387455067,294.48035520050183 L488.2872191714978,294.9631444590878 L486.4598250787884,296.1596946940989 L482.58795984131973,299.51670601546016 L480.80082367462666,301.5971191418375 L479.668076148477,303.93518663937795 L480.0651298109534,305.36854542264155 L481.2184009856606,305.61202463422563 L482.5848023569261,305.4569317117781 L484.4358775825868,304.9908191115197 L491.68309363665384,302.0290445925244 L493.2034223721009,301.65215211431877 L494.45299682080844,301.57794098476074 L496.4911529967807,301.92064631339446 L498.03989909176795,303.12970404215093 L498.63745301322916,304.24453865135604 L498.78506540862276,305.52447217800534 L498.79769534619606,310.5057900204821 L499.0502940976725,312.31270595028576 L500.80506604933265,316.2834182981054 L500.9597827846116,318.063651574585 L500.3361796169054,319.42863605870537 L499.5239167566905,319.9514492972778 L498.0612121114238,320.4625888750213 L496.7713797367,320.56098115915444 L489.28735235312337,320.35669209464015 L487.5215292060861,320.64603211662563 L484.92844514796525,321.4656898734309 L483.596776105027,322.40208423852977 L482.8429267060914,323.4060190698559 L482.4521880124014,325.18124934883724 L482.6203240563525,326.8264016928622 L483.11999596161627,328.35815276025943 L484.60638173983335,329.6013976385874 L485.26550660696574,330.6270121257398 L485.5552058000648,331.8335683557472 L485.19130572371955,333.4061772360467 L484.6561121190303,334.0782465666522 L481.4757359637269,334.8236931938994 L479.0918352466716,335.1555586946201 L477.5762427378153,335.6750366015272 L475.28154095487594,336.99082494358083 L472.63714777536086,339.2088205011619 L470.645564494192,340.36201142452063 L467.5022887805123,340.97654628389546 L465.7143632427201,340.8848246630932 L461.940380021449,340.2811296316313 L457.9272173573731,339.46230570774253 L456.6665917132884,339.3163849473754 L453.52094788631325,339.2571828103121 L452.1434953196699,339.48648686231763 L450.66579262353537,340.8072782018696 L449.8219549193857,342.47077487005527 L449.7098642234185,344.6262329589075 L450.7739364640108,347.8048040361626 L451.75907159476776,348.84792901455853 L453.51384354642795,349.9911139429207 L457.03601738732186,351.19933783876075 L460.9947134456101,351.70130525442397 L461.8598641694156,351.9072619847708 L464.79632465532507,353.1088152172798 L465.8327689074752,353.81340403162415 L466.0845782878526,354.7589705588031 L465.30152215827684,356.39828607241384 L462.5166209232536,357.302160953774 L459.6330483009345,357.61484829741767 L456.1140319444342,358.3286092738423 L454.8431444760708,358.47036086962777 L450.75025533106054,358.6246199591586 L448.7239397215634,358.823072193258 L441.7822102825623,359.8586926754067 L439.7685246106394,360.27894446526415 L435.1775423025626,361.8732330013899 L429.92427764295877,363.26823547049986 L427.95479675254484,363.6009348041372 L423.60615137166457,364.0712165689778 L418.9662280554889,363.7952178736547 L416.740201558107,363.75269239491917 L409.70532632949903,364.21130049893003 L407.61822914542813,364.7724700516565 L403.08171344313797,366.5343590039755 L401.13986054116606,367.4340647207536 L394.7735826328713,370.9236554758197 L392.3510027319969,372.51460868028005 L388.7491024101679,368.0736145676198 L387.4655850042303,367.7425828998156 L386.52623339717854,367.0480000804679 L385.1795663033725,367.0480000804679 L383.6773931031877,366.78367504597423 L382.6125314914973,366.2216716603316 L379.1685053893406,365.2952832902293 L375.47424864900375,364.072050401894 L374.12758155519685,363.1790153484469 L373.4708248013589,361.42629855820803 L373.1258696313748,359.5735218180034 L372.5938335110783,357.92003114481435 L372.1241577075529,353.85259417869395 L370.9653609351567,351.8347185210452 L368.868001926807,349.15644719362047 L366.98929871270343,348.03160658941874 L365.67420646283205,347.8990271557137 L364.3283287401233,348.46186437427303 L363.51448713771106,349.3215461110646 L356.31305460734916,353.85259417869395 L352.27463206812655,357.1929288417276 L349.5820872516109,359.0115184323608 L346.8263927472277,360.63248962181103 L345.85625566733944,360.86346133964895 L344.7290337388779,360.6650091055498 L342.75639536406953,359.5735218180034 L341.25343279278746,358.15183669556893 L340.4395911903752,356.06808823752584 L340.22014602503083,354.9440814662404 L340.0638505475547,352.5626546570484 L340.3188174123256,350.34382526655116 L340.1735731302274,348.6686549375361 L341.1823893939347,347.5721646524912 L345.73942874478234,342.05969524227794 L346.4577564442916,341.0265762588783 L346.97637325591666,338.04729124863917 L347.11609194032684,333.9114799833756 L347.8217897022625,331.97281845278303 L348.85349772782297,330.21843399671155 L349.6862842365955,328.3923399098311 L350.4535529442035,325.385538413351 L350.65326383208935,320.06818590557157 L350.10228280543237,315.4070599029862 L349.56235297415225,311.52973684180154 L349.47157529784,309.83121919112773 L349.9420404724646,305.6178614646402 L349.9215168239068,303.34733443332726 L349.1763505070529,300.109561219009 L348.01834310575487,298.2684581396333 L347.2250251519004,293.5356225062388 L342.75165913747963,287.4227933962293 L339.35262718792995,282.168812190095 L337.8188791438114,278.43157305886274 L337.7557294559421,276.1160190500648 L338.4448504248129,274.9586589621242 L339.2271171832903,274.495881693531 L340.91795007598324,272.7431649032923 L342.48327296403636,269.33612360694815 L344.67535650418927,266.69037176326253 L347.618131958885,264.5082310210858 L349.9349361325793,263.35003710022886 L353.22266675725996,262.3252564459932 L359.76576379158746,262.12680421189384 L365.99626987096383,261.4980941929404 L369.6321131500221,261.5589639958366 L373.92155569852486,261.29463896134286 L377.77210791633763,260.5341833416006 L379.3066453315544,260.1372788734022 L382.02997562090565,257.9876576149648 L382.9069669111862,256.89617032741836 L383.9710391517793,254.81242186937527 L384.1589094731892,254.05196624963304 L385.4740017230614,252.66280061093767 L386.82066881686836,252.19918950942838 L389.6695091108583,251.73641224083508 L393.8965913425906,250.54569883623907 L395.8684403463,249.88446933354686 L397.93501388181335,248.49530369485126 L399.21853128775194,246.3456824364141 L400.5651983815579,244.79141788027442 L402.5686222292028,243.2038000074799 L404.5096857600765,242.27824547029383 L408.54889767039737,241.9472138024896 L414.5915334283639,241.81463436878425 L418.003984686585,241.25263098314161 L419.0688462982763,240.55804816379396 L420.4147240209842,239.23558915840914 L421.9800469090374,237.0192612666612 L422.41893723972737,235.7293217450154 L422.7946778825478,233.71227992028284 L423.7332401185013,232.35646759824294 L426.5512949396557,230.6362702917431 L427.9918971941675,229.3463307700973 L429.18147943940016,228.65174795074964 L433.4977606052467,227.03744742463041 z"/>
	<path id="adiyaman-sincik" title="Sincik" class="district" d="M323.4996874195137,191.79883454533459 L324.4390390265645,189.88018500473538 L327.97700028942614,185.05145858595682 L329.60468349424957,182.6041589763705 L330.3877396238253,181.7778305562342 L332.64139410965106,178.47001537693941 L334.7079676451644,175.95684296695876 L338.3398640687309,172.9141866550743 L340.0306969614238,171.85605268418337 L342.097270496937,170.96301763073632 L343.7565285456952,170.66533927958736 L345.63523175979776,170.79791871329218 L346.4174985182753,171.32656878227957 L348.04597109419785,172.94753997172955 L350.83245107141755,176.9824574541109 L351.6612907246984,178.53755584316656 L354.0309827619831,179.67740543986326 L361.37371271895245,181.2508481530795 L363.13401026830076,181.72363141666935 L369.08507897885687,183.71732591974273 L370.59593526112235,184.14174687418213 L372.38859702550445,184.23680382664975 L376.9977348688435,184.12423638293808 L379.0840426818164,184.1792693554196 L377.13350669776196,186.0545595843667 L377.7578992365671,186.4948233642173 L378.4983293268312,187.98571661871134 L379.2624405500455,191.2610123142671 L379.7928979281457,192.32748461432192 L380.4188692091472,192.8894879999646 L381.23271081155934,194.74226474016945 L381.42058113296923,196.1305965459484 L382.04734178506885,198.21434500399172 L382.7988230707108,198.94228113999486 L384.7083117576498,200.26474014537928 L388.3086333372817,203.27487697352493 L389.1856246275624,204.43223706146568 L389.623725587154,205.55624383275088 L391.0951133145014,208.49967402758577 L392.31627040366874,210.5175496852345 L393.881593291722,212.1051675580295 L396.88751843428616,213.49349936380844 L400.2691842196717,214.7834388854543 L404.18209675425567,215.7098272555566 L409.2545954323341,217.13151237799104 L412.9804270166054,217.39667124540117 L416.04871247594076,217.23073849504058 L420.4628756579848,216.70208842605345 L422.2476437113826,216.80131454310305 L423.9692620769118,217.46254404579523 L427.7266685051179,219.1493880356398 L429.981112362041,219.90984365538202 L431.9221758929147,220.93545814253392 L432.67365717855574,222.75404773316686 L432.892312972803,225.26805397606415 L433.4977606052467,227.03744742463041 L429.18147943940016,228.65174795074964 L427.9918971941675,229.3463307700973 L426.5512949396557,230.6362702917431 L423.7332401185013,232.35646759824294 L422.7946778825478,233.71227992028284 L422.41893723972737,235.7293217450154 L421.9800469090374,237.0192612666612 L420.4147240209842,239.23558915840914 L419.0688462982763,240.55804816379396 L418.003984686585,241.25263098314161 L414.5915334283639,241.81463436878425 L408.54889767039737,241.9472138024896 L404.5096857600765,242.27824547029383 L402.5686222292028,243.2038000074799 L400.5651983815579,244.79141788027442 L399.21853128775194,246.3456824364141 L397.93501388181335,248.49530369485126 L395.8684403463,249.88446933354686 L393.8965913425906,250.54569883623907 L389.6695091108583,251.73641224083508 L386.82066881686836,252.19918950942838 L385.4740017230614,252.66280061093767 L384.1589094731892,254.05196624963304 L383.9710391517793,254.81242186937527 L382.9069669111862,256.89617032741836 L382.02997562090565,257.9876576149648 L379.3066453315544,260.1372788734022 L377.77210791633763,260.5341833416006 L373.92155569852486,261.29463896134286 L369.6321131500221,261.5589639958366 L365.99626987096383,261.4980941929404 L359.76576379158746,262.12680421189384 L353.22266675725996,262.3252564459932 L352.627480949094,260.5725396557545 L351.5634087085018,259.1500207004037 L349.4029000122827,257.8600811787579 L345.3013277851908,254.91665098392298 L335.2826298047727,250.6507617837035 L333.5294365953088,250.02205176475013 L329.9914753324481,249.3941755787132 L329.083698569331,249.493401695763 L325.01291181507446,249.12901671130305 L321.1623595972618,249.19572334461378 L317.5320419158916,248.99810494343086 L317.857262808417,246.85265284957552 L318.2543164708933,245.6169124674945 L319.42495380976555,243.1946278453995 L320.7818827278505,240.74816206872964 L322.5366546795107,236.20043734277237 L323.7301837802351,233.8023338752525 L325.9996256880278,231.2074458394659 L326.93581981068604,229.50142369254462 L327.6249407795568,226.768953225555 L328.6898023912472,225.18133535276024 L329.5660043104305,223.16429352802794 L329.7230891590039,221.34487010447856 L328.9084581854944,218.73247157744788 L328.9084581854944,215.75568806595754 L328.5327175426739,211.52315218239352 L328.97160787336287,209.8029548758937 L329.53521883759413,208.77734038874155 L330.50535591748144,208.08359140231033 L330.56771623425254,207.12384971555272 L329.53521883759413,205.99984294426724 L329.65993947113543,204.64403062222712 L329.06554303406864,202.79125388202226 L327.90674626167157,200.21220867164732 L327.8443859449013,198.9881419503958 L327.15526497603054,196.14393787261076 L326.4977188510943,194.88735166762044 L324.5566553202206,192.63850429213323 L323.4996874195137,191.79883454533459 z"/>
	<path id="adiyaman-samsat" title="Samsat" class="district" d="M392.3510027319969,372.51460868028005 L387.03695649781935,376.05006024574743 L382.0583929804468,379.25698164215953 L380.4267629201306,380.50439568506954 L373.90813638985236,386.4187725609802 L372.50621331916057,387.8171103617557 L363.870493503073,396.52566134046805 L357.4244891138439,402.61180779715335 L356.31147586515283,403.41061973104894 L351.0384769280905,406.77346788282483 L349.2071359798885,407.80325153455897 L344.09201126249945,410.2447143137307 L340.16962627473566,411.1869455092444 L336.6008795390375,411.57467781536303 L322.9163421778239,412.4935616892178 L320.5355989451621,412.76372355412616 L311.04656897174436,414.3546767585867 L308.4755873043773,414.684040760558 L300.68528393463674,415.3794574128223 L299.5414852131092,406.26649746966353 L299.1412740662393,401.2685029688593 L299.9117002582416,395.9194648102571 L300.1935057403573,394.5561479919695 L300.4942561288333,389.9784052810225 L300.66397091498084,389.22128499294604 L302.66660539152673,383.5887436427734 L303.30994283669224,381.9811137799852 L305.25100636756605,377.6610254402009 L306.3529684208801,376.11426538030884 L310.6250448052186,373.0866180609192 L315.7291183272316,368.64395628242636 L323.5170535836777,361.57472081732453 L325.2284101249274,360.15136802905744 L340.1735731302274,348.6686549375361 L340.3188174123256,350.34382526655116 L340.0638505475547,352.5626546570484 L340.22014602503083,354.9440814662404 L340.4395911903752,356.06808823752584 L341.25343279278746,358.15183669556893 L342.75639536406953,359.5735218180034 L344.7290337388779,360.6650091055498 L345.85625566733944,360.86346133964895 L346.8263927472277,360.63248962181103 L349.5820872516109,359.0115184323608 L352.27463206812655,357.1929288417276 L356.31305460734916,353.85259417869395 L363.51448713771106,349.3215461110646 L364.3283287401233,348.46186437427303 L365.67420646283205,347.8990271557137 L366.98929871270343,348.03160658941874 L368.868001926807,349.15644719362047 L370.9653609351567,351.8347185210452 L372.1241577075529,353.85259417869395 L372.5938335110783,357.92003114481435 L373.1258696313748,359.5735218180034 L373.4708248013589,361.42629855820803 L374.12758155519685,363.1790153484469 L375.47424864900375,364.072050401894 L379.1685053893406,365.2952832902293 L382.6125314914973,366.2216716603316 L383.6773931031877,366.78367504597423 L385.1795663033725,367.0480000804679 L386.52623339717854,367.0480000804679 L387.4655850042303,367.7425828998156 L388.7491024101679,368.0736145676198 L392.3510027319969,372.51460868028005 z"/>
	<path id="adiyaman-tut" title="Tut" class="district" d="M133.04654377536642,309.52937167539665 L132.17981430936416,308.4712377045055 L131.76065825613338,306.0080952695077 L130.23717203629369,302.69194176104946 L128.97575702111007,300.85334018042306 L128.28979353663328,298.95220113106825 L128.2984766187149,298.2292679925634 L129.1723104246024,294.3502772655459 L128.71131770315856,293.50560452124927 L129.3586020038163,292.87439300354663 L129.18494036217618,292.3740932537163 L129.50858251250477,290.1385872048912 L130.03114617962115,289.3489474330759 L129.06021972863522,287.66627260781337 L129.78249428363696,285.98276394963426 L131.15442125259102,285.5458355014495 L132.8768289892184,284.55357433095264 L135.131272846142,283.4620870434062 L136.85289121167082,282.8667303411083 L138.13640861760842,282.1387942051051 L139.04418538072548,281.17988635126375 L140.23455699705636,279.39381624436965 L141.23626892087842,277.244194985932 L143.17733245175208,272.1844968493153 L143.81830178362276,269.88228416717965 L145.6338553098565,270.37841475242794 L147.6688540014356,270.5768669865271 L149.07788141201277,270.510994186133 L151.61413075105193,269.9156374838349 L153.11709332233448,269.02260243038785 L156.0282939330955,266.97220728900004 L159.31602455777622,266.87298117195047 L163.10421645881786,265.61556113404356 L165.04527998969164,265.61556113404356 L167.08027868127115,266.4760767037517 L170.4303696227221,267.1373062064441 L172.71638832357985,268.4597652118288 L174.6258770105189,270.2791886353782 L176.06647926503072,271.07299757177566 L177.25606151026344,270.9404181380706 L179.76073600536841,270.11408971793423 L181.4515688980612,269.3861535819311 L183.58050275034475,268.22879349399034 L187.1184640132064,267.33575844054326 L190.78114590960848,266.8396278552952 L193.34897009258188,266.2109178363418 L194.5385523378146,265.78149388440403 L198.32674423885717,262.7054842558641 L201.73919549707833,260.25818464627775 L204.54619912285563,260.97861628603346 L206.48489454043494,261.96420679319897 L207.22690337289526,263.0515249161633 L207.6792130122575,264.6091248039683 L208.7440746239488,266.6595199453561 L209.24453590031067,268.90836732084324 L208.58698977537455,270.82701686144225 L207.77314817296238,271.8517975156782 L206.55199108379588,272.71231308538614 L203.07717950880362,274.1339982078206 L201.60500241035717,275.225485495367 L201.26083661147126,275.8541955143204 L199.4452830852371,277.4084600704597 L195.56236665239143,278.5991734750559 L192.86982183587577,280.2193108315897 L189.0816299348341,281.90615482143403 L188.20542801565168,282.60073764078174 L187.64181705142042,283.8573238457721 L187.64181705142042,286.33797677201414 L188.3617234931268,288.454244713796 L188.79982445271847,290.80231820633276 L191.77417475134885,295.8953696596052 L192.77588667517085,296.7225319126578 L196.3138479380325,298.47524870289635 L198.4743566342507,299.43415655673806 L202.82615949952364,301.68300393222495 L204.04731658869096,302.17913451747347 L206.8961568826818,303.8993318239733 L207.99259333830688,305.22179082935793 L207.7534138955038,305.54865333258044 L208.23966649209515,307.1479448662046 L207.70447288740505,308.0609919096448 L207.95154604119244,308.58297131530117 L207.50081514402746,309.61108730120236 L207.74788829781485,311.78072054963314 L207.2379545682723,313.08566906377365 L207.3003148850434,315.32117511259855 L207.19217104456797,317.6534057797241 L206.63566442022199,318.9750309521925 L205.41608607325188,320.4592535433555 L205.261369337973,322.2052996702631 L204.68986466275837,323.5269248427315 L204.5975082442498,324.79935387313327 L203.76314299327998,325.85915550985703 L202.4812043295396,326.4470077159077 L201.1226966692575,328.1597005261598 L199.7018286922043,328.55160199686037 L198.17281687467647,331.0305872572693 L198.89272331638284,332.3889010780588 L198.4940909117102,333.4428658843677 L196.06677478424504,332.1562616943877 L193.60709444174714,328.4432037177306 L191.98651557680805,325.1462283663489 L187.96703794394583,322.66807693885636 L187.0150563993208,321.74669156625225 L185.92572428358014,319.71797608069045 L184.72588021406858,320.03316492308346 L181.60076003565106,319.947280132696 L179.19791441223538,319.1526373633821 L175.6907386222102,317.5041496876914 L174.43721731801006,316.39848724056645 L171.69809960669193,315.3036646213544 L168.79795019130782,315.2244504942981 L166.78821137487674,316.51105468427835 L165.65388510652986,316.7562015616951 L158.38614540390512,317.1681150223888 L156.309310044113,316.91462981580815 L155.45047428909422,315.56715582293174 L154.41639815023936,314.9934787764598 L148.02564973789524,314.3239109446035 L146.30403137236635,314.32808010918546 L145.04340572828144,314.7333229065479 L143.7819907130978,314.75416872945743 L141.9490710226999,314.11461888259134 L135.6562046265533,310.95939512699505 L133.04654377536642,309.52937167539665 z"/>
	
</g></g></svg>