<svg xmlns="http://www.w3.org/2000/svg" version="1.2" baseProfile="tiny" width="600" height="600" stroke-linecap="round" stroke-linejoin="round"><rect id="backgroundrect" width="100%" height="100%" x="0" y="0" fill="none" stroke="none" class="" style=""/>































































































































































































































































































































































































































































































































































































































<g class="currentLayer" style=""><title>Layer 1</title><g class="city city-4" id="agri" title="Ağrı">
	<path id="agri-merkez" title="Merkez" class="district" d="M156.8079351787211,221.53348354825582 L154.69975532604803,219.83297608936556 L152.76261403548511,219.1544907901115 L150.55336594156546,218.21132595524523 L154.78397886042052,211.72004082521184 L155.84584326685285,209.84464187376375 L157.13057610270124,207.90912397174893 L158.76127330281673,204.66426217232396 L159.89764314350197,202.16346998186253 L161.8490376475741,199.722015976376 L163.52897322163045,198.23387675844953 L165.9248088378522,196.38814689948867 L168.642637504712,194.81021963850765 L169.85286490630818,193.1721734269597 L170.22344845754617,191.98150589949987 L170.29795389179827,190.85017655701515 L169.58140597629256,189.62983993706797 L168.49427450954886,189.00444669805452 L166.78971974852175,188.70697500758757 L164.270140324107,188.76631319256265 L162.21962119881192,188.97477760556725 L160.119863699576,189.00444669805452 L158.5882911206836,188.73664410007527 L156.75999255146257,188.14091995354934 L156.1425692571798,187.6943220350528 L155.49987890258512,185.96804931163427 L155.72274733200095,184.09265036018616 L156.34017062628374,183.22912361568098 L157.59963640182093,182.2469205012255 L159.18109522799625,181.74020363216212 L161.08325135812754,181.56218907723715 L165.3818909778214,181.47240103418284 L168.69187587865298,181.14526025122834 L170.91537718608174,180.04360000123114 L172.66917032104914,178.25720832724573 L173.41033742352568,176.6792810662643 L173.5833196056597,174.4462914737824 L173.38571823655565,171.82682291337093 L171.5574196673346,166.64644321193126 L171.80425941038038,165.24731127146708 L172.69378950802002,163.25245518447713 L174.7196894463442,160.0966006625147 L175.7076962918656,157.77460379257036 L175.83144010005873,155.77974770558046 L174.76892782028506,149.02222150875113 L174.1268853390314,146.72989373129437 L173.28659361533272,145.2113046552882 L171.38443748520154,142.38337168187246 L170.07508546238233,140.5969800078868 L166.81433893549178,136.93518938245322 L165.01130742658353,134.16659459401217 L164.31937869804796,132.767462653548 L163.75119377770523,131.04040916453755 L162.61482393702067,125.74135309314782 L162.66406231096158,123.38890636512379 L163.08388423614036,122.46604143564349 L163.33137185252633,120.68043052724956 L163.55359240860128,117.52457600528739 L163.41494751355702,115.3431169418628 L164.7372570032025,114.99177242556343 L169.7809509654208,112.99301251061411 L171.57361650086818,111.99363255313988 L174.0394224379524,109.64352812189158 L175.9001146742395,108.67069419453736 L178.67949130852531,107.96878592753006 L180.92113306951126,107.9149131016975 L183.76788853129494,107.45504216814086 L184.8887094117879,107.40116934230826 L186.30107329587707,107.67131423706287 L192.28547934969993,108.4278760954947 L194.6618787656817,108.99549268071658 L197.62071631551447,110.80530732245548 L201.67769917889444,112.93913968478194 L203.15744189048138,113.29048420108127 L206.49722896501368,112.34497706943972 L207.6400775391121,111.26439749042036 L211.06991900808885,109.10323833238188 L211.7424115363845,108.94083908929237 L213.4683461176752,109.2109839840469 L215.82206996671016,110.26501753294578 L216.97334089424595,110.47972807068474 L221.54732668400266,110.06904536940996 L223.90688139311038,109.62947434123957 L224.80742533755205,109.18990331306901 L227.38596123602724,107.5479532735622 L229.7215446315053,105.81855748777653 L232.00853752638437,104.5576210570566 L234.27091123429273,103.53169506946202 L237.31202869847374,102.97422843693329 L243.5154159416644,102.35898515061318 L245.8995898377421,102.41754256999651 L250.49819481446968,102.32931605812558 L252.56555864663943,102.35898515061318 L253.8554744692177,102.00685986872166 L260.78901496808226,100.83414994987261 L264.12167543586025,99.92533880104433 L267.3331835888106,99.51465609976985 L268.6224515380478,99.69032835791934 L269.7899192991163,100.48202466798134 L272.4909032591015,103.29668462633707 L273.19643732780537,104.88007724646089 L273.46400901777264,107.98752430173255 L273.7801712083396,109.98159962313093 L274.2421049007043,111.76955282829977 L274.72865778003967,112.88370532776568 L276.11575460381755,113.58795589154842 L277.8183657448205,112.82514790838214 L278.7914715034915,113.20616151716963 L280.2757493284674,113.32405712152786 L281.443217089536,113.00160093212382 L281.8086176540437,113.61684421844413 L281.4918075901357,114.78955413729321 L283.02467591571104,115.20023683856776 L284.36253436554824,116.31438933803334 L284.5329250543169,117.3988727450114 L285.7010406887263,118.16089996258567 L286.62555594679833,119.1579376232848 L287.52545201789866,120.74133024340854 L288.1577763990329,121.41591171470351 L289.22871103224367,122.03115500102382 L290.37155960634124,123.29209143174353 L291.41787505258213,125.31505508003762 L293.2183150681251,127.3965761477147 L294.28860182799474,129.09708360660483 L294.8483643949,130.53369229547405 L296.1622515311079,132.4395411050016 L297.2565096046067,132.87911213317216 L299.3245213101167,135.07774803961595 L299.5681216864553,137.07182336101403 L299.957493564592,138.33197902614197 L301.51433320379715,141.5284333588765 L302.80360115303455,143.81529577719093 L304.4336504798094,147.68477005003749 L304.84699367157515,149.70773369833123 L305.18777504911236,157.53568952148663 L305.1631558621415,159.88110935918448 L305.358165737881,162.28586738185726 L306.8417956895155,166.976707057253 L307.35296775582185,167.97296395236026 L306.4880568451523,168.78027557425762 L304.91372462573116,170.6775359622754 L302.7673202459205,173.78107918958872 L302.2153321591115,174.93973532778531 L301.6426121253791,176.76282298458477 L301.5408960107914,179.00440099857613 L300.4570039107537,184.8187623605388 L299.7210197950087,186.69103824961962 L297.778695517715,189.17933819061264 L291.6051104482253,194.77196212451042 L289.47879014199515,196.17655942411739 L285.61487353433023,199.2316951847404 L282.6301210508444,201.86755982257895 L280.9741567904169,203.83821217622383 L280.8316246553251,205.04605654670286 L280.87244067582856,208.19956877188983 L281.19961671319754,212.2642344426803 L281.05643670476536,213.12619965600206 L280.29972064209704,214.5307969556088 L277.7036921634059,217.31500705588508 L276.1909079114108,219.26145567618485 L273.3486875630169,223.94214539888756 L272.16307934839125,226.28288064303462 L270.73192713740343,228.69700785280853 L269.7102308781334,230.0274324211967 L268.46307469608206,232.7374697902541 L267.95190262977565,235.5708681228124 L267.27746648145654,238.502642919935 L267.35909852246294,240.64584446936246 L268.1151667117899,243.18333264263742 L268.46307469608206,244.88384010152743 L268.46307469608206,245.7458053148492 L267.80872262134335,248.03735232671426 L265.80549824996496,252.32375542556957 L265.2735942367371,252.98896770976367 L263.39281792686944,253.50661529711155 L261.7167695928601,254.1960313146505 L259.7128973481412,255.2063419904099 L255.84509350042794,254.7238288546917 L253.74533600119287,253.868890531696 L251.56329858760864,252.32453619116126 L249.6002423633928,250.2211536869141 L246.21834352167377,247.00049562083487 L244.4185513794722,245.48893343515468 L242.89151391396848,243.77983755475472 L241.0645110914307,239.80339839583513 L239.70138558128167,238.22625190044576 L237.95601479975164,237.1089763386131 L235.69234534516028,236.18845370590822 L230.5657235952525,233.52682380354054 L226.96613931084852,231.25869975942865 L222.11227223763865,227.54537860493775 L219.0303387529541,224.19355191943953 L215.97626382194596,221.03847816306933 L213.87650632271016,219.78925321622606 L211.77674882347486,218.93509565882223 L208.8587272941449,219.19821366325107 L207.4683911036605,219.78925321622606 L204.68642297600934,221.76146710105436 L203.05054278916305,222.6156246584586 L201.19568141294786,222.74757404346857 L196.4234463807452,222.1229615700473 L191.869544664569,220.8081523134951 L187.80673094111705,219.82204537108092 L185.78860548288912,218.90230350396763 L183.0617065892501,218.1137302562728 L179.35263171016203,217.98178087126263 L174.30764200126163,218.08093810141835 L171.33519911126064,218.57360118982942 L167.7906840608693,219.42775874723378 L165.39031333125882,220.6113993843672 L164.05439850144523,221.00568600821447 L162.00906236288102,221.235231092197 L160.18205954034391,221.235231092197 L156.8079351787211,221.53348354825582 z"/>
	<path id="agri-diyadin" title="Diyadin" class="district" d="M293.41138132384015,307.1780036070392 L294.16356227311934,303.9573455409595 L294.8878846687206,301.8110209291649 L295.91411604138005,299.37347075163746 L297.45411097371067,296.4627766254931 L298.6014946611981,293.40686009927805 L299.20466474197224,292.2794345847524 L302.19395233884705,289.296129258573 L302.64681580443414,288.2405341784905 L303.4313904207789,284.7481696864725 L303.4618404678209,283.8026625548306 L302.61636575739135,280.45552046288316 L302.3747090010772,279.07278459984633 L302.07280002401967,273.5067066960689 L302.2237545125487,271.94205245014786 L302.64681580443414,269.9409502384238 L303.5220926885645,266.921729695022 L303.9147039334079,265.9754417977886 L305.09188979459594,263.9743395860644 L307.20525263399907,261.3915670084663 L309.2881654263603,259.3904647967423 L311.099619288706,258.0444249165188 L312.12585066136575,256.7709962363307 L312.94087532475316,255.27973395603692 L313.51424323182584,253.82438689296458 L314.11806118594126,253.13262857865024 L316.9861964679891,250.87699678400682 L318.07268006139174,249.78626725229464 L318.6466958418063,248.73067217221214 L319.58222494667933,246.32981797749844 L322.11800120462766,241.59994002251375 L322.69201698504156,240.25390014229032 L323.4765916013871,239.30839301064856 L332.65436535460276,235.52480295289783 L335.03918712402094,234.61521103847792 L338.6614469753716,232.79602720963763 L342.40485914154993,230.03133624915557 L345.0015354935822,227.8483156545471 L346.2091714018124,226.64749817439431 L348.5635431241886,223.77350003106363 L354.0277068849275,215.84248314979385 L355.65775621170184,212.45864507503282 L357.5903623888758,209.3301173487826 L358.6528746686494,207.07995091328178 L359.8015541028189,208.35806418702063 L363.364857480109,210.98455963775797 L365.632414174748,212.40399148360828 L368.75386793325345,213.255806744237 L373.2008705481113,214.6041889212357 L377.6770274633287,215.3849545130126 L386.423965444563,216.84030157608467 L389.10356958428457,216.66306778675136 L391.69571082292714,216.73411745560304 L393.9924218179261,217.1947691547515 L395.200057726157,217.58515195063984 L397.6146816692759,219.14746389978546 L400.7659376014829,221.9863275914865 L401.35485446874765,222.80300840048506 L402.41542312849793,226.35158801511096 L403.0924507701825,227.2034032757395 L405.4189639388821,228.4807357838866 L407.86339005570255,230.0781821846622 L410.2190575247619,231.39142991003078 L411.72147580329533,232.81086175588123 L412.1335232483788,233.8399108058431 L412.04541247395866,235.9339241229889 L411.13255893603053,237.06993805902405 L409.83616438003895,237.95688777128294 L408.3343939748465,238.34727056717117 L405.21294021634066,238.56041957372636 L403.97615000775005,238.84461824913328 L403.03349429612166,239.55433417205828 L401.20778722026705,242.2159640744259 L400.79509190184245,244.02577871616467 L400.1770207342183,249.38495373812137 L399.8530840635554,253.14668235930242 L400.0299534857377,254.31783074696784 L400.47115523118015,255.06346188711456 L401.6787911394109,255.95041159937335 L406.09663945390844,257.1574752042604 L408.157524552665,258.6128222673327 L409.63014065749695,259.49977197959083 L410.71986361760673,260.45777136070126 L412.015610300257,261.94903364099537 L413.223246208488,265.5686629244729 L413.6650958272723,268.6565908399507 L414.0181867982942,272.95080159472343 L414.2345764942971,277.0201518590648 L413.3703134569688,287.9040242084349 L412.70300391540394,293.2038610454162 L412.62461124110325,300.49152707906165 L412.21969040277475,306.0505780925134 L411.7376726368289,305.96235158064263 L409.93788049462654,306.2645078646604 L407.00884511849455,307.14677298336835 L405.1468571355251,308.1055531300705 L403.1799136712613,309.9708021288253 L402.1549780452849,311.2824883230104 L401.5064568306181,312.92131530015024 L401.8414073480833,314.6608610386291 L402.36424113453273,318.49363932866186 L402.71992359892033,323.0064644491327 L403.1177178304944,331.85644243192354 L403.07560606330844,332.99089483677557 L404.707599010107,337.4537509593722 L405.0425495275722,340.0763425821507 L404.8119066180599,342.90037172760776 L404.7490629039518,345.09354227490917 L403.70339533105283,346.9845565381928 L400.0940929465284,349.8398163073209 L399.2985044833807,350.62136266468946 L398.5664076076835,352.2851741407662 L398.39925628562156,353.7475480941646 L396.5158884823884,360.6057930523327 L395.59526046436497,363.2783536729848 L395.0095829638072,364.53929010370456 L393.50327744522514,366.68249165313256 L392.10127953459687,367.7412097955818 L389.7987376795268,368.436871937855 L388.9215171753723,368.62425567988157 L383.816275245728,369.15361475110615 L382.7071160853789,369.17859925004296 L379.9873437984948,368.87644296602537 L375.36347176145534,367.8169440579842 L374.50568745754083,367.2875849867591 L372.81085079663325,366.8339601779372 L372.3087489571062,366.5310231283275 L370.4052970802918,366.5060386293907 L370.3839172600284,365.3715862245388 L369.56824472329987,363.35408793538727 L369.46328924200486,362.5725415780187 L366.65994129409023,360.6057930523327 L366.3042588297026,360.1771527424469 L365.2579433834618,359.7235279336248 L363.9609009541283,358.56331026424425 L361.86891793498864,357.1267015753747 L359.4206045781203,355.6135778585112 L357.3078896120582,353.62184483388853 L353.91821629024304,348.4024268528597 L353.206851361468,347.1165059232029 L352.32833511063126,346.28420980236893 L349.6714065378553,344.16677351746995 L346.15604578782376,341.0905570858689 L342.6834446783192,338.5187152265558 L338.8545132310871,337.2078097979625 L337.3268278922413,336.17407615444984 L334.8584304617916,333.82865631675213 L329.64888092419363,328.20636329036677 L327.8076248881473,327.02116112204914 L323.58089920934,324.60078778754075 L321.48891619020037,323.76849166670695 L318.664188422022,322.9112110469358 L315.8608404741067,321.5753211194053 L314.5216862775872,320.74302499857123 L310.9233977398656,317.33888701842375 L309.41644434794307,316.38088763731366 L307.094466292633,315.39790375726653 L304.16543091650055,313.83403027693765 L302.34490682737624,312.2709375622003 L299.7922858625542,309.79981446422613 L298.9558813789032,309.1697366316621 L296.7796748253908,307.934565465471 L295.1476818785924,307.3794411297178 L293.41138132384015,307.1780036070392 z"/>
	<path id="agri-dogubeyazit" title="Doğubeyazıt" class="district" d="M594.7094138206073,226.45542983881725 L593.5238056059816,232.82960013008406 L590.7833013721753,235.23513891834855 L589.7052401322094,236.2876109360638 L584.2456114848604,244.03749020004116 L583.156536398092,244.91038613164775 L581.7299193004936,244.91038613164775 L579.4882775395079,245.80202043745706 L578.1679116698868,246.70692775832654 L577.9184804334761,249.14291640467042 L577.6826545372339,250.20788067185427 L577.8381441391524,252.5517389783684 L578.6732528761213,253.97195158981074 L578.9090787723632,255.0376966225859 L578.840404198183,256.1401376381751 L578.2547266976245,258.15295133377595 L579.626922434552,259.31941512789035 L579.8672834441832,260.35080647462803 L581.1189747396239,261.6047160150216 L581.2796473282727,262.3995353874504 L580.6680548940611,263.12096279425236 L580.8345583427822,264.60363665303663 L580.2683170424637,265.56163603414694 L581.9812941569285,266.38768603024687 L582.4937619699167,267.14659018545393 L581.9255770495741,268.0796050676275 L582.0247016707971,269.15315775632064 L580.537184479114,270.64988539575705 L576.1906022321617,274.2453109458897 L575.1125409921962,277.32465043985763 L573.7623729488741,278.10931985959365 L576.3013885735282,279.52875170544394 L577.4669127145723,280.5562392242224 L577.7856663985049,281.55639994728864 L578.1044200824374,283.906504378537 L578.4808344937471,284.1618147270479 L578.4218780196866,285.3056363190012 L578.9116702657286,286.54236901637574 L580.053870966485,286.9928707628312 L580.6855474742773,287.85405521056094 L580.6369569736781,289.1227992971984 L580.2909926094103,290.09172939659356 L579.4494051390282,290.83111441200623 L578.8818680920278,292.49024129453244 L578.9719224864717,292.96026218078197 L578.5371994744421,294.0314725727 L577.7992717386729,297.62611735724056 L576.8054340330796,297.6183097013229 L571.5168439478405,297.13813886238006 L566.5295149663174,297.58005218732586 L565.8129670508118,297.5246178303096 L564.9273241932198,298.28352198551676 L564.8508751389434,299.08458748268004 L563.553184836269,299.69514617544957 L561.3024728485036,302.0132392174353 L560.1939615614964,302.92907725658944 L558.7699359572626,303.63098552359696 L557.8940111997913,303.826176921541 L557.0057768488338,303.1515954502461 L556.567814470098,304.04010669368796 L555.6212715184214,304.8435144876265 L554.219921481135,305.4134733696235 L553.0369047598742,305.6859605611536 L552.4091154921306,304.97077927908623 L550.4855795417352,304.24857110669217 L549.4237151353029,304.4062857562314 L548.0929832922207,305.9358055505223 L546.5128202127277,306.7844977487837 L546.4894967724398,307.78309694066627 L545.679655095783,307.7752892847488 L544.8808272659293,308.16411054945365 L543.938171554301,309.5148350232276 L543.3473110670118,310.0051558148634 L542.3353329078612,309.2353209413717 L540.4577959647002,306.8742857918379 L538.3321235318119,306.7759093272745 L537.4510157876098,305.01684444900076 L537.0091661688253,304.6217770595615 L536.8219307731824,303.0446305641723 L535.1931771930904,301.6736061850122 L533.9388944042848,302.26854956594605 L533.5482267794654,301.8602091614467 L530.4850816216791,302.43016804344416 L529.7056899920644,301.85864763026325 L529.3778660813534,301.2387197503925 L529.1582370186441,299.7326229238547 L528.551827571164,298.8253733062102 L528.595882958374,298.25619518980477 L527.5437366520614,297.95560043697054 L526.8142312697292,297.27789590330804 L526.884849463934,296.3105273350966 L525.4653589730895,296.28163900820095 L524.1955272240916,295.7460338122418 L523.7575648453555,295.98650961450915 L523.0300030830474,295.6047152401301 L521.701214859989,295.6695187842478 L520.666561133892,296.55646849650645 L519.4816007926084,296.518991748101 L518.3659628988455,297.0975390516077 L516.2985990666765,297.83067794228623 L516.0122390498104,299.8762837927416 L515.5995437313868,300.4251620037612 L510.93032056045405,301.1372202234613 L509.556181203503,300.5719459350151 L507.0618688394002,300.4384350188211 L505.8438669577086,301.7103021678257 L504.81310047165925,302.3544337810416 L504.0725812425248,302.4770139789506 L503.0677296901294,301.4854416773939 L501.9540354163908,302.7815125597437 L500.35573188334064,303.57086657302995 L500.3123243694724,302.9275157254058 L500.75352611491485,301.50418005159656 L501.7395893404119,300.2666665886301 L501.02239355156513,300.0363407390559 L499.57115726699607,299.15173332357284 L499.37031653118527,299.59286588292673 L498.1341741959361,300.0012062874261 L496.4633088486582,300.231532137 L495.35220606828466,300.73668747487983 L494.3590162360335,300.696868429699 L493.7921270623731,300.187028498269 L493.4170083977462,299.30476337956105 L491.2757870046658,298.91984594281485 L490.7859947586234,298.39751376191634 L490.41217184067915,297.4223375377869 L489.18574760555003,297.4730873012526 L487.7701443547537,297.9204659853406 L486.63118302070365,299.00182632995194 L484.6856193767037,298.22964915968424 L483.47927921515594,297.36143782162844 L481.59461566523976,297.8931391896284 L479.92439819130294,299.6974884722248 L479.2985525435828,299.7880572808709 L478.710283549659,299.1017643256989 L478.04297400809423,299.4156320935935 L477.0925438163698,301.10598959979046 L477.6432361564965,301.66892159146147 L479.56223699350244,305.05822502536495 L478.6234685219219,305.1581630211126 L478.2159561902281,306.08961637210234 L477.2247099780001,305.8944249741581 L476.9344627210862,306.2668501614357 L475.5959563979082,306.4667261529306 L475.1437408056629,307.2482725102994 L473.7223066947948,308.57947784427887 L472.9344927117434,308.9113032207841 L472.598894320937,310.99204352286927 L474.10325621949437,312.35526024611187 L474.1039040928361,313.17428335188595 L474.506233437799,314.62963041495817 L476.0585379636146,315.0387515850491 L476.88652009382844,314.9716057441562 L478.2353923904681,315.52360701754253 L479.67626270157587,315.74690597679086 L480.0196355724782,317.32639476895537 L478.3073063313549,317.6207433970554 L474.22829577437034,317.6004434916691 L472.3598290579877,316.8977544590699 L468.2983110812188,315.7828211940126 L462.7278960925034,314.1580479975247 L454.7072241268945,312.6706895451899 L450.68522642394635,312.505167239733 L443.8294307260412,312.6980163409019 L441.8417553148545,312.8635386463589 L436.19683489188685,314.35089709869374 L427.71876434730234,316.1958461920627 L425.797172016931,315.44240739599786 L424.0394916419153,314.23222072874375 L421.1732999798917,311.231738559545 L418.51637140711654,308.7356309626343 L415.2731174604418,306.84461669935064 L413.7875438887821,306.3402421270626 L412.21969040277475,306.0505780925134 L412.62461124110325,300.49152707906165 L412.70300391540394,293.2038610454162 L413.3703134569688,287.9040242084349 L414.2345764942971,277.0201518590648 L414.0181867982942,272.95080159472343 L413.6650958272723,268.6565908399507 L413.223246208488,265.5686629244729 L412.015610300257,261.94903364099537 L410.71986361760673,260.45777136070126 L409.63014065749695,259.49977197959083 L408.157524552665,258.6128222673327 L406.09663945390844,257.1574752042604 L401.6787911394109,255.95041159937335 L400.47115523118015,255.06346188711456 L400.0299534857377,254.31783074696784 L399.8530840635554,253.14668235930242 L400.1770207342183,249.38495373812137 L400.79509190184245,244.02577871616467 L401.20778722026705,242.2159640744259 L403.03349429612166,239.55433417205828 L403.97615000775005,238.84461824913328 L405.21294021634066,238.56041957372636 L408.3343939748465,238.34727056717117 L409.83616438003895,237.95688777128294 L411.13255893603053,237.06993805902405 L412.04541247395866,235.9339241229889 L412.1335232483788,233.8399108058431 L411.72147580329533,232.81086175588123 L410.2190575247619,231.39142991003078 L407.86339005570255,230.0781821846622 L405.4189639388821,228.4807357838866 L403.0924507701825,227.2034032757395 L402.41542312849793,226.35158801511096 L401.35485446874765,222.80300840048506 L400.7659376014829,221.9863275914865 L397.6146816692759,219.14746389978546 L395.200057726157,217.58515195063984 L393.9924218179261,217.1947691547515 L391.69571082292714,216.73411745560304 L389.10356958428457,216.66306778675136 L386.423965444563,216.84030157608467 L377.6770274633287,215.3849545130126 L373.2008705481113,214.6041889212357 L368.75386793325345,213.255806744237 L365.632414174748,212.40399148360828 L363.364857480109,210.98455963775797 L359.8015541028189,208.35806418702063 L358.6528746686494,207.07995091328178 L348.58103570440437,197.5335300226252 L346.7255264548487,195.12018357844306 L346.4015897841863,192.56473779655732 L346.54865703266705,190.15139135237501 L347.2263325476935,187.80909457704416 L347.40320196987517,184.04736595586309 L346.99050665145046,180.07170756253512 L345.9597401654021,175.31606434302185 L344.42881545985017,171.6253853906928 L343.7511399448235,169.7796555317322 L343.5451162222823,167.47327397362295 L343.66302917040343,165.87582757284767 L344.16318738990714,164.1721970515902 L344.9879301534141,162.43343207870316 L346.10810316056603,161.02493095113758 L347.2269804210348,163.0767829263271 L349.0760109371772,167.06415280353193 L350.7546507645514,169.49779915310052 L352.4818810925251,172.22423259958543 L353.89294922993207,173.63195296155922 L354.8414358016321,174.2183079209835 L358.66129702208684,175.03889255794093 L362.94309193490596,176.15304505740693 L365.93561889848837,176.71051168993571 L366.68974346779106,176.47550124681078 L367.6142587258623,175.80170054110732 L368.9760884893281,175.18567648919537 L370.67934750367283,174.92177771917466 L374.5717705383555,174.892108626687 L376.81017293263506,175.1271190698118 L379.34011833051056,175.77203144861969 L381.2623585342229,176.76906910931876 L383.06215067642523,177.9121099356803 L385.6413344482418,178.9973741082501 L388.0643807447988,179.30577651700207 L391.79613119083245,180.3746446121445 L397.31860355229094,180.9609995715689 L401.3328267751431,181.04922608343986 L403.5712291694216,180.46287112401515 L406.3933654442353,178.615579733871 L407.95020508344055,177.70676858504282 L410.3097597925475,177.384312395639 L412.4749524992569,176.6808425974479 L414.2514212011709,176.71051168993571 L415.3217079610409,177.5014272344055 L416.4652044084804,178.02922477444685 L420.1140270668246,178.5281339875921 L421.89049576873924,179.3487186245497 L423.7388784115407,180.3746446121445 L427.58335881896534,184.0106699730496 L430.2351044050104,185.91651878257716 L431.93771554601335,186.67854600015124 L433.3001931828206,186.91277567768424 L438.6283035418807,188.8186244872116 L445.31824366440657,190.69480420425143 L448.18897043982014,191.86751412310036 L452.1060126614734,193.0402240419495 L455.21969193988315,193.68591718634892 L462.0320801239191,194.56505924268956 L466.8729897303029,195.00463027086022 L468.8924109352139,195.35675555275157 L470.9358034537546,195.41531297213464 L472.9552246586658,194.00837337575285 L475.80133224710806,192.74743694503292 L476.6046951903519,192.71776785254548 L479.54798377999316,193.0113357150538 L481.5913762985331,193.39234932384073 L482.92988262171207,194.71184317394363 L484.65711294968503,197.37971920104533 L486.96807715819295,199.54946678059332 L491.05551006861486,201.98233236457025 L492.1504160154548,202.4515724852283 L493.4882744652918,202.65691383586542 L498.93753713917965,202.77402867463186 L504.71138435707184,202.97000083816792 L508.2798707210919,203.20423051570134 L511.71813454350587,203.12615395652344 L516.194291458723,202.3836458787437 L519.6979904886105,201.1320786351254 L520.4760863715428,201.09304035553646 L529.4290480753186,201.3280507986612 L535.2676826273432,201.75825263973047 L543.5740667364755,201.96905934951016 L546.7220833019758,206.0977477988263 L549.5552334235919,210.10463681582547 L550.3041750061642,211.5154802401662 L551.1004113426532,212.1361888856289 L553.1373251277803,212.2486191308447 L555.1036207187028,212.69990164289177 L558.8729478185334,214.39338221145593 L562.2444806867915,215.662907063685 L567.0912211532461,217.27128418274563 L573.9042572106242,220.0078675819237 L575.8472293612589,220.74178723819392 L577.8841431463866,221.70056738489578 L583.7610022255485,223.50647819867586 L588.099162119064,224.60111155834718 L594.7094138206073,226.45542983881725 z"/>
	<path id="agri-eleskirt" title="Eleşkirt" class="district" d="M163.41494751355702,115.3431169418628 L163.55359240860128,117.52457600528739 L163.33137185252633,120.68043052724956 L163.08388423614036,122.46604143564349 L162.66406231096158,123.38890636512379 L162.61482393702067,125.74135309314782 L163.75119377770523,131.04040916453755 L164.31937869804796,132.767462653548 L165.01130742658353,134.16659459401217 L166.81433893549178,136.93518938245322 L170.07508546238233,140.5969800078868 L171.38443748520154,142.38337168187246 L173.28659361533272,145.2113046552882 L174.1268853390314,146.72989373129437 L174.76892782028506,149.02222150875113 L175.83144010005873,155.77974770558046 L175.7076962918656,157.77460379257036 L174.7196894463442,160.0966006625147 L172.69378950802002,163.25245518447713 L171.80425941038038,165.24731127146708 L171.5574196673346,166.64644321193126 L173.38571823655565,171.82682291337093 L173.5833196056597,174.4462914737824 L173.41033742352568,176.6792810662643 L172.66917032104914,178.25720832724573 L170.91537718608174,180.04360000123114 L168.69187587865298,181.14526025122834 L165.3818909778214,181.47240103418284 L161.08325135812754,181.56218907723715 L159.18109522799625,181.74020363216212 L157.59963640182093,182.2469205012255 L156.34017062628374,183.22912361568098 L155.72274733200095,184.09265036018616 L155.49987890258512,185.96804931163427 L156.1425692571798,187.6943220350528 L156.75999255146257,188.14091995354934 L158.5882911206836,188.73664410007527 L160.119863699576,189.00444669805452 L162.21962119881192,188.97477760556725 L164.270140324107,188.76631319256265 L166.78971974852175,188.70697500758757 L168.49427450954886,189.00444669805452 L169.58140597629256,189.62983993706797 L170.29795389179827,190.85017655701515 L170.22344845754617,191.98150589949987 L169.85286490630818,193.1721734269597 L168.642637504712,194.81021963850765 L165.9248088378522,196.38814689948867 L163.52897322163045,198.23387675844953 L161.8490376475741,199.722015976376 L159.89764314350197,202.16346998186253 L158.76127330281673,204.66426217232396 L157.13057610270124,207.90912397174893 L155.84584326685285,209.84464187376375 L154.78397886042052,211.72004082521184 L150.55336594156546,218.21132595524523 L146.27481039545268,216.05953598430767 L141.2512005068155,213.34481402169953 L139.31405921625264,212.9372543827921 L137.3989456192947,212.9372543827921 L131.31671069093153,212.4758219180521 L127.57718576480178,212.1229158705687 L125.6853956081313,211.4171037756024 L124.35595951173164,210.76594527206032 L119.80529716226205,209.62524674247425 L117.71072264975695,209.35432108212765 L114.57955079113141,209.21846786915842 L112.25886848250369,209.02796106476507 L109.53326533554768,209.1638142777342 L105.7036860149733,209.48939352950518 L100.61269729883837,208.59385539573714 L95.22886983242418,207.3719572446063 L89.91242119350788,207.34541121448592 L82.47872247514057,208.26827614396612 L81.10458311818893,208.10509613528484 L79.86520141623369,207.50781045757546 L78.46838649233615,207.34541121448592 L76.801408385106,207.48048366186313 L72.88177467008722,207.45393763174272 L69.68322398396376,207.20955800151674 L66.31169111570642,206.63959911951966 L61.53556884345536,206.42176551941378 L60.03379843826294,206.24140866771322 L55.94895702120642,205.51685819854455 L50.90331943896465,204.14192999142512 L46.33775600264455,203.56260192232656 L43.81493721152324,203.63521312236207 L40.87100074854091,203.59851713954865 L38.17455190194457,203.7164127439066 L36.54320682848719,200.2459096884585 L35.332979426890866,198.51729466826455 L33.853884588645045,196.16719023701603 L32.934552317304586,195.3294287570395 L31.61224282765917,194.70793934598478 L30.334636598565734,194.49244804265444 L28.294483446731586,193.8709586316001 L20.359330762178374,189.27849542076828 L18.185067828690332,187.95509774270667 L15.06944493025631,185.3075216209909 L13.388213609516946,184.145742420427 L12.133282947370159,183.74130584388655 L9.443312834186871,183.25488888020928 L6.506502977958812,181.9853640279802 L3.30147355842223,180.14822259052917 L2.4048168540276063,179.3916607320973 L1.8891096743323634,178.4734803961678 L1.3734024946378722,175.7181586227871 L1.171913885485414,172.2336017866871 L0.7909643607860333,167.07352199063328 L1.0371562304897355,164.3455270129646 L1.7770275862831948,162.6434580228911 L3.1893914703723243,160.7524437596076 L4.847947224165863,159.21277401262324 L10.58616140828448,155.56581793343358 L12.69369338761661,153.56705801848466 L13.881245222265495,152.7027505083876 L16.50383650795088,151.6494977250803 L17.89352482509417,151.27082641306868 L23.744468970603776,149.97397476512745 L26.972173957086916,148.94804877753268 L30.580828468269566,147.4349250606688 L31.388078651560892,146.97583489270403 L32.374141877058086,145.62511041893006 L34.88465107469355,143.43740523077108 L38.00027397312749,139.87164877312622 L40.28661899466472,137.35914509878813 L41.09386917795683,136.6837828619009 L44.14211324889226,135.2518587665822 L48.82688538001646,133.41549809472278 L50.53079226770254,133.0641535784232 L52.2120235884419,133.38817129901065 L55.05877905022564,134.71156897707243 L56.000139015171555,134.90129501587415 L57.34512407176277,134.84664142445 L61.06586067099452,133.79338864114294 L62.859174079783095,133.09069960854367 L65.25760118937022,131.4432842098945 L68.41792734835538,130.33537783516303 L70.63754141573595,129.9848140844553 L73.14805061337219,131.25433893668446 L75.32231354686024,131.8211747563143 L76.39778329345991,131.87504758214698 L79.06572571303856,131.4432842098945 L81.44147725567822,130.8756676246727 L89.35395437328563,129.57959674232313 L98.3205214172293,127.9314005780818 L101.41346874871664,126.9858934464402 L103.67778607664906,126.49947648276307 L107.62268685197918,125.98651348896558 L113.09203359944826,125.4188969037435 L118.02364547361744,124.122826021394 L123.45735918731361,122.4246608592795 L125.39838771792407,121.82659441597825 L132.23474721558983,120.77334163267133 L138.28717997025194,120.2057250474495 L148.37392002134658,118.42245643583085 L156.26436944534856,117.45040327406868 L158.81958190353606,116.7750410371817 L163.41494751355702,115.3431169418628 z"/>
	<path id="agri-hamur" title="Hamur" class="district" d="M156.8079351787211,221.53348354825582 L160.18205954034391,221.235231092197 L162.00906236288102,221.235231092197 L164.05439850144523,221.00568600821447 L165.39031333125882,220.6113993843672 L167.7906840608693,219.42775874723378 L171.33519911126064,218.57360118982942 L174.30764200126163,218.08093810141835 L179.35263171016203,217.98178087126263 L183.0617065892501,218.1137302562728 L185.78860548288912,218.90230350396763 L187.80673094111705,219.82204537108092 L191.869544664569,220.8081523134951 L196.4234463807452,222.1229615700473 L201.19568141294786,222.74757404346857 L203.05054278916305,222.6156246584586 L204.68642297600934,221.76146710105436 L207.4683911036605,219.78925321622606 L208.8587272941449,219.19821366325107 L211.77674882347486,218.93509565882223 L213.87650632271016,219.78925321622606 L215.97626382194596,221.03847816306933 L219.0303387529541,224.19355191943953 L222.11227223763865,227.54537860493775 L226.96613931084852,231.25869975942865 L230.5657235952525,233.52682380354054 L235.69234534516028,236.18845370590822 L237.95601479975164,237.1089763386131 L239.70138558128167,238.22625190044576 L241.0645110914307,239.80339839583513 L242.89151391396848,243.77983755475472 L244.4185513794722,245.48893343515468 L246.21834352167377,247.00049562083487 L249.6002423633928,250.2211536869141 L251.56329858760864,252.32453619116126 L253.74533600119287,253.868890531696 L255.84509350042794,254.7238288546917 L259.7128973481412,255.2063419904099 L257.93448502620237,257.8429873938403 L255.99216074890882,261.56255467306556 L255.17454459215656,263.5831760245843 L254.5616564112628,266.5641390539885 L254.45929242333324,267.5494652308108 L254.50010844383678,272.5752533450789 L255.44017266209966,276.12305219411314 L256.07444066325786,279.8683847378669 L256.1152566837607,283.98223864093904 L255.86971268739887,286.8898097047166 L255.97207667532837,288.0476850773217 L256.7896928320805,290.2400748590312 L257.97530104670597,292.4082609073955 L259.3863691841127,294.20636406525773 L261.26714549398025,296.10362445327587 L264.9464181993674,300.34162008544087 L267.7270905803363,302.73076279627804 L268.76951878652875,304.2829247927306 L270.14560176350363,307.53090965452265 L269.2670855126667,307.8838157020055 L265.6266852077591,310.556376322658 L263.5761660824641,311.640859729636 L262.67627001136293,312.2709375622003 L260.3329121357895,314.81779492257624 L258.6801872420686,316.12870035116964 L255.87683929415317,317.33888701842375 L252.4457020784941,319.05344825796595 L249.28602379285002,320.41510345002496 L245.54131587998938,321.4738215924744 L243.84647921908186,321.4738215924744 L236.29357180591035,317.6917930659071 L235.2472563596695,317.41462128082634 L233.63664323313526,317.2889180205503 L233.05031785923563,317.41462128082634 L229.13781075097103,319.43211956997783 L227.44362196340546,320.5665719748298 L226.313730856134,321.6252901172791 L225.6230978742807,322.81049228559647 L225.5187902663277,325.4580684073119 L225.93666857148236,327.82769197835484 L226.12519971380857,329.7944405040407 L227.92434398266903,333.2493282476536 L229.83816183294414,335.4034605153661 L225.78700982963613,335.9796655220973 L219.7980686624242,336.15611854583886 L216.07279694980343,336.4200173158595 L215.1482816917324,336.24356429211804 L213.97951818398076,335.71576675207683 L212.5431829862627,334.8061748376568 L210.81465691160662,334.8061748376568 L206.18884125454292,332.9581026819207 L205.5804881870386,332.9869910088164 L204.36313417868814,333.95514034262 L203.1943706709372,333.80835641136565 L201.9530453489578,332.4591934687753 L201.7580354732185,331.8135003243759 L201.83124516078834,330.4049991968104 L201.0518535311736,328.85049490358244 L200.15130958673137,327.94090298916257 L199.17755595471982,327.3248789372504 L198.2038023227077,326.06316174093894 L197.30261050492408,323.3640550901664 L196.54783806227937,321.6619861000925 L195.69588461843676,320.3713805768853 L194.62494998522584,319.75535652497337 L190.656725769608,319.46178866246544 L185.59294773380861,318.5818658405327 L180.47993132406816,317.37870606360445 L178.92179593818065,316.7626820116925 L175.44077247523956,315.91164751665593 L174.19879927991894,315.0606130216189 L172.56810207980277,312.91897300337473 L171.71614863596005,310.777332985131 L170.7663663175768,308.72391947875747 L169.84120318616436,306.3175999249011 L169.13502124411946,304.1174024872739 L168.4411488955596,300.0816251433788 L169.99539704139943,299.4570126699576 L170.53637128140588,298.72465454487093 L170.55904684835235,297.58395601528485 L169.1622319244549,293.4849366584558 L168.4411488955596,289.90122259219993 L168.84671760722978,288.97835766271965 L169.61250389667651,288.2998723634658 L170.94193999307623,286.7523949605639 L171.0766976480719,285.8022032353714 L171.05466995446648,282.40821520791684 L170.82921003168502,280.58981214466877 L170.8518855986316,279.367913993538 L171.12204878196428,277.711910173379 L172.90175685058546,273.5043643992931 L174.90627696864618,271.60398094890843 L177.60985242199672,269.83945071149253 L180.94380863645716,268.07492047407686 L181.91237928173928,267.0427483617476 L182.47538121535047,258.6542028436966 L182.74619227202498,256.56409335450996 L183.15111311035332,254.8534359429265 L184.30044041786408,251.54142830260906 L185.83201299675738,249.0437591745149 L185.92206739120178,246.60074363784491 L185.38174102453644,244.70036018746 L183.89487170619446,243.18020958027026 L180.4255099633973,240.68254045217574 L177.3617169322696,237.9951452852796 L174.65878935225936,236.06743503918275 L169.9280182139015,231.75058208224814 L169.02682639611805,230.99089716144934 L167.9455257894462,229.66047259306137 L166.796846355276,228.92733370238287 L165.01713828665544,228.0856683944474 L162.49431949553417,226.6740442045147 L161.4356944558084,225.77850607074652 L160.37642154274135,224.36688188081393 L159.0703088866295,223.25351014694036 L156.8079351787211,221.53348354825582 z"/>
	<path id="agri-patnos" title="Patnos" class="district" d="M116.75381372461942,446.2097133003436 L115.38615310108159,444.0860308907108 L113.92908595644045,440.8716189493652 L112.57632641975302,436.7116998763778 L111.97898719905149,432.78522971533204 L111.76972410980287,429.2374308662975 L111.76972410980287,426.61718154029415 L112.396865504206,423.0787518783614 L113.33887334249299,420.4850485824785 L114.93005026878807,415.7848397199817 L116.45449624092713,413.0029719164807 L117.44055946642429,409.57228790621264 L117.77680573057249,405.4662416590582 L117.79948129751835,403.03493760626486 L117.68739920946913,399.06396380648755 L117.05960994172487,391.7973784438198 L116.52187506842485,388.66338535842726 L114.90802257518332,386.44835337455635 L113.51768638469892,385.2061553180392 L110.38003579266022,380.9111637976743 L109.43802795437317,378.75000463963613 L109.1024295635661,377.12913527110715 L109.46070352131908,371.72623737601106 L109.12445725717161,368.86316995096496 L108.33988264082608,365.86424931295016 L107.1743584997818,363.5141448817018 L105.98615879179101,361.7855298615076 L104.91068904519119,359.8406427723913 L102.51226193560413,356.7339764827113 L102.0859612770123,355.9235417984468 L99.28390907577993,351.925241202957 L97.7154077164315,349.9803541138408 L96.97553636063729,348.6842832314911 L95.81001221959299,345.7938890107331 L95.09216855740493,343.47033060960484 L94.15080859245904,338.4999768523535 L93.54569489166128,335.9874731780154 L92.69374144781784,332.9893333055919 L96.8504968057619,332.38736303433194 L100.77013052078071,332.17031019981806 L103.36097601274105,332.33349020849914 L106.94241984358742,332.2515098213627 L110.05156400860828,332.495889451589 L114.53419965723897,331.8986037738797 L116.3592588597525,331.4644981048517 L119.01683530586885,330.0255471192068 L123.32001003895245,328.7771029379556 L126.38315519673907,327.5005511954003 L128.43367432203405,326.9852459048275 L129.4922993617592,326.90326551769124 L130.57359996843155,327.12109911779663 L134.38050372205925,329.7272946631481 L136.02480626234365,330.75868600988525 L138.09735308124334,331.3832984833068 L140.73290183375497,331.7627505609103 L142.01698679626224,331.5183709306844 L143.1883417973783,330.6501595926282 L144.1795880096064,329.48291503292194 L144.87799547155504,327.6364044083694 L144.87799547155504,324.3517235637639 L145.4189697115615,320.4970838371612 L145.4409974051669,317.26627581838875 L145.62175406739635,316.20755767593903 L146.59032471267847,312.54264398813825 L147.49151653046204,308.66067746582377 L148.2573028199086,306.2715347549863 L148.86565588741303,305.18548981682466 L150.6673916496389,303.61068561821065 L152.24431536242457,302.63394786289786 L153.3029404021504,301.439376507479 L153.86659020910338,300.2713511821809 L153.9339690366013,299.4031398441249 L153.43834593048734,296.66109108580457 L153.46102149743388,295.76555295203633 L154.8578364213314,294.1907487534222 L157.20054642356456,293.97369591890856 L158.8675245307947,294.5436548009055 L160.85001695524994,295.6296997390671 L163.64299892970382,296.74229070734935 L165.60281578721322,297.7198092282539 L167.24711832749682,299.4570126699576 L168.4411488955596,300.0816251433788 L169.13502124411946,304.1174024872739 L169.84120318616436,306.3175999249011 L170.7663663175768,308.72391947875747 L171.71614863596005,310.777332985131 L172.56810207980277,312.91897300337473 L174.19879927991894,315.0606130216189 L175.44077247523956,315.91164751665593 L178.92179593818065,316.7626820116925 L180.47993132406816,317.37870606360445 L185.59294773380861,318.5818658405327 L190.656725769608,319.46178866246544 L194.62494998522584,319.75535652497337 L195.69588461843676,320.3713805768853 L196.54783806227937,321.6619861000925 L197.30261050492408,323.3640550901664 L198.2038023227077,326.06316174093894 L199.17755595471982,327.3248789372504 L200.15130958673137,327.94090298916257 L201.0518535311736,328.85049490358244 L201.83124516078834,330.4049991968104 L201.7580354732185,331.8135003243759 L201.9530453489578,332.4591934687753 L203.1943706709372,333.80835641136565 L204.36313417868814,333.95514034262 L205.5804881870386,332.9869910088164 L206.18884125454292,332.9581026819207 L210.81465691160662,334.8061748376568 L212.5431829862627,334.8061748376568 L213.97951818398076,335.71576675207683 L215.1482816917324,336.24356429211804 L216.07279694980343,336.4200173158595 L219.7980686624242,336.15611854583886 L225.78700982963613,335.9796655220973 L229.83816183294414,335.4034605153661 L232.9667421982042,339.04807429778083 L234.13874507266235,340.7118857738573 L235.54009510994882,343.3344773966357 L237.86984764535498,347.40226612979353 L238.8740513244091,348.7803173992798 L239.29257750290554,350.3605869570361 L239.06906120014833,352.3780852461877 L237.39560435950523,355.87435356616476 L237.28352227145524,356.9838214720795 L237.72990700362908,359.60563232926626 L237.53489712788968,361.353766489255 L237.08138578896234,363.0347548083507 L235.88929884092312,364.3964100004098 L235.42866089524074,365.58161216872685 L235.34508523421016,366.5396115498372 L235.80507530655143,367.82553247949375 L235.76361141270593,369.31289093182875 L234.29876978796938,372.9184664346546 L233.1481467337755,374.6837774376617 L229.7170095181164,376.70049496122186 L226.0137654991005,378.7679622482468 L223.71251939071215,380.3818047264497 L220.95063533664205,382.55077154040606 L216.1596119775408,388.1730645667915 L213.71129862067232,390.36701587968486 L211.34720879817564,392.3337644053705 L209.75732761856307,393.84610735664234 L208.29248599382652,394.9555752625575 L206.2419668685315,396.1157929319378 L204.02429642117443,396.5444332418235 L200.78169034784094,397.50243262293355 L198.85685865076312,398.8133380515272 L192.83098870309624,405.11645867394185 L192.26604314946007,406.20094208091984 L192.05678006021213,407.8147845591231 L192.11962377432047,410.2859076570972 L192.30815491664595,411.29387603608103 L194.37940598886337,414.2443892074058 L195.802135846414,416.0089194448215 L196.9942227944532,417.8499647102318 L197.5805481683522,420.4717755674185 L197.55916834808858,422.18633680696036 L196.93202695368547,423.9266633110312 L196.57699236263903,424.105458631548 L196.03213088258497,424.38028811985373 L190.09048446928972,423.7244450227607 L186.951538130568,423.3215699774039 L183.93892709340463,423.0943671901969 L182.72546032510257,423.6237262614219 L182.2233584855755,424.25380409398565 L181.84694407426497,425.3382875009641 L181.63768098501697,427.22930176424757 L181.67914487886162,428.7923944789847 L182.09767105735818,432.2465014570057 L182.0348273432491,433.65890641253026 L181.63768098501697,436.1799985083778 L181.26126657370713,437.2644819153562 L179.90073255692357,440.2649640845546 L179.37789877047408,441.75232253688955 L179.02221630608653,443.41691477855784 L178.4572707524506,447.0224902813835 L178.1015882880631,448.73705152092566 L177.47379902031878,449.3421448545529 L175.6953866983805,450.3251287346001 L174.7961385006205,450.4765972594048 L172.72488742840312,450.3501132335369 L171.38573323188376,449.9972071860537 L170.59079264207753,449.5685668761682 L169.54447719583663,448.6613172585233 L166.09260803325532,446.3416626853542 L165.46481876551093,446.13944439708393 L163.22576849789039,445.93800687440574 L155.33855844059502,445.66083508932496 L151.2167882430826,444.7278202071514 L149.6262591901288,443.79480532497826 L148.0784897777027,442.2067281113037 L145.44229315184924,439.23123044104193 L143.93598763326793,438.3489653223341 L142.26188291928275,437.869575248983 L140.54631431145367,437.81882548551755 L138.391487578205,438.2224812964661 L136.38308022009664,438.75184036769093 L132.76341186211124,439.9620270349451 L129.35300659337457,440.99576067845777 L126.57039059238218,441.5758695131481 L121.96725050226496,442.73608718252854 L120.25168189443514,443.6940865636387 L118.95463946510172,444.22344563486365 L116.75381372461942,446.2097133003436 z"/>
	<path id="agri-taslicay" title="Taşlıçay" class="district" d="M358.6528746686494,207.07995091328178 L357.5903623888758,209.3301173487826 L355.65775621170184,212.45864507503282 L354.0277068849275,215.84248314979385 L348.5635431241886,223.77350003106363 L346.2091714018124,226.64749817439431 L345.0015354935822,227.8483156545471 L342.40485914154993,230.03133624915557 L338.6614469753716,232.79602720963763 L335.03918712402094,234.61521103847792 L332.65436535460276,235.52480295289783 L323.4765916013871,239.30839301064856 L322.69201698504156,240.25390014229032 L322.11800120462766,241.59994002251375 L319.58222494667933,246.32981797749844 L318.6466958418063,248.73067217221214 L318.07268006139174,249.78626725229464 L316.9861964679891,250.87699678400682 L314.11806118594126,253.13262857865024 L313.51424323182584,253.82438689296458 L312.94087532475316,255.27973395603692 L312.12585066136575,256.7709962363307 L311.099619288706,258.0444249165188 L309.2881654263603,259.3904647967423 L307.20525263399907,261.3915670084663 L305.09188979459594,263.9743395860644 L303.9147039334079,265.9754417977886 L303.5220926885645,266.921729695022 L302.64681580443414,269.9409502384238 L302.2237545125487,271.94205245014786 L302.07280002401967,273.5067066960689 L302.3747090010772,279.07278459984633 L302.61636575739135,280.45552046288316 L303.4618404678209,283.8026625548306 L303.4313904207789,284.7481696864725 L302.64681580443414,288.2405341784905 L302.19395233884705,289.296129258573 L299.20466474197224,292.2794345847524 L298.6014946611981,293.40686009927805 L297.45411097371067,296.4627766254931 L295.91411604138005,299.37347075163746 L294.8878846687206,301.8110209291649 L294.16356227311934,303.9573455409595 L293.41138132384015,307.1780036070392 L287.40624332309545,307.95954996440804 L284.47720794696266,308.4639245366959 L280.35543774945097,308.7918460852421 L274.1209525858766,307.70736267826396 L270.14560176350363,307.53090965452265 L268.76951878652875,304.2829247927306 L267.7270905803363,302.73076279627804 L264.9464181993674,300.34162008544087 L261.26714549398025,296.10362445327587 L259.3863691841127,294.20636406525773 L257.97530104670597,292.4082609073955 L256.7896928320805,290.2400748590312 L255.97207667532837,288.0476850773217 L255.86971268739887,286.8898097047166 L256.1152566837607,283.98223864093904 L256.07444066325786,279.8683847378669 L255.44017266209966,276.12305219411314 L254.50010844383678,272.5752533450789 L254.45929242333324,267.5494652308108 L254.5616564112628,266.5641390539885 L255.17454459215656,263.5831760245843 L255.99216074890882,261.56255467306556 L257.93448502620237,257.8429873938403 L259.7128973481412,255.2063419904099 L261.7167695928601,254.1960313146505 L263.39281792686944,253.50661529711155 L265.2735942367371,252.98896770976367 L265.80549824996496,252.32375542556957 L267.80872262134335,248.03735232671426 L268.46307469608206,245.7458053148492 L268.46307469608206,244.88384010152743 L268.1151667117899,243.18333264263742 L267.35909852246294,240.64584446936246 L267.27746648145654,238.502642919935 L267.95190262977565,235.5708681228124 L268.46307469608206,232.7374697902541 L269.7102308781334,230.0274324211967 L270.73192713740343,228.69700785280853 L272.16307934839125,226.28288064303462 L273.3486875630169,223.94214539888756 L276.1909079114108,219.26145567618485 L277.7036921634059,217.31500705588508 L280.29972064209704,214.5307969556088 L281.05643670476536,213.12619965600206 L281.19961671319754,212.2642344426803 L280.87244067582856,208.19956877188983 L280.8316246553251,205.04605654670286 L280.9741567904169,203.83821217622383 L282.6301210508444,201.86755982257895 L285.61487353433023,199.2316951847404 L289.47879014199515,196.17655942411739 L291.6051104482253,194.77196212451042 L297.778695517715,189.17933819061264 L299.7210197950087,186.69103824961962 L300.4570039107537,184.8187623605388 L301.5408960107914,179.00440099857613 L301.6426121253791,176.76282298458477 L302.2153321591115,174.93973532778531 L302.7673202459205,173.78107918958872 L304.91372462573116,170.6775359622754 L306.4880568451523,168.78027557425762 L307.35296775582185,167.97296395236026 L310.1990753442645,170.7290664913328 L315.6729572051222,176.6222851780648 L316.5974724631935,177.15008271810598 L318.1057216017991,176.88618394808523 L322.2177736991919,175.21534558168267 L324.74771909706726,172.84025665149758 L325.3074816639728,171.28653312386137 L325.6722343551386,169.08711645182584 L326.59674961320985,164.9240743164714 L327.42343599674143,160.4971334110963 L327.8374270618481,159.50009575039738 L329.95402926795794,158.09315615401536 L332.75154635580157,157.1843450051872 L336.03561632297976,156.62687837265847 L338.3958189054279,156.83221972329588 L341.04756449147305,157.5068011945907 L342.5558136300786,158.2102709927818 L344.5992061486186,159.50009575039738 L346.10810316056603,161.02493095113758 L344.9879301534141,162.43343207870316 L344.16318738990714,164.1721970515902 L343.66302917040343,165.87582757284767 L343.5451162222823,167.47327397362295 L343.7511399448235,169.7796555317322 L344.42881545985017,171.6253853906928 L345.9597401654021,175.31606434302185 L346.99050665145046,180.07170756253512 L347.40320196987517,184.04736595586309 L347.2263325476935,187.80909457704416 L346.54865703266705,190.15139135237501 L346.4015897841863,192.56473779655732 L346.7255264548487,195.12018357844306 L348.58103570440437,197.5335300226252 L358.6528746686494,207.07995091328178 z"/>
	<path id="agri-tutak" title="Tutak" class="district" d="M150.55336594156546,218.21132595524523 L152.76261403548511,219.1544907901115 L154.69975532604803,219.83297608936556 L156.8079351787211,221.53348354825582 L159.0703088866295,223.25351014694036 L160.37642154274135,224.36688188081393 L161.4356944558084,225.77850607074652 L162.49431949553417,226.6740442045147 L165.01713828665544,228.0856683944474 L166.796846355276,228.92733370238287 L167.9455257894462,229.66047259306137 L169.02682639611805,230.99089716144934 L169.9280182139015,231.75058208224814 L174.65878935225936,236.06743503918275 L177.3617169322696,237.9951452852796 L180.4255099633973,240.68254045217574 L183.89487170619446,243.18020958027026 L185.38174102453644,244.70036018746 L185.92206739120178,246.60074363784491 L185.83201299675738,249.0437591745149 L184.30044041786408,251.54142830260906 L183.15111311035332,254.8534359429265 L182.74619227202498,256.56409335450996 L182.47538121535047,258.6542028436966 L181.91237928173928,267.0427483617476 L180.94380863645716,268.07492047407686 L177.60985242199672,269.83945071149253 L174.90627696864618,271.60398094890843 L172.90175685058546,273.5043643992931 L171.12204878196428,277.711910173379 L170.8518855986316,279.367913993538 L170.82921003168502,280.58981214466877 L171.05466995446648,282.40821520791684 L171.0766976480719,285.8022032353714 L170.94193999307623,286.7523949605639 L169.61250389667651,288.2998723634658 L168.84671760722978,288.97835766271965 L168.4411488955596,289.90122259219993 L169.1622319244549,293.4849366584558 L170.55904684835235,297.58395601528485 L170.53637128140588,298.72465454487093 L169.99539704139943,299.4570126699576 L168.4411488955596,300.0816251433788 L167.24711832749682,299.4570126699576 L165.60281578721322,297.7198092282539 L163.64299892970382,296.74229070734935 L160.85001695524994,295.6296997390671 L158.8675245307947,294.5436548009055 L157.20054642356456,293.97369591890856 L154.8578364213314,294.1907487534222 L153.46102149743388,295.76555295203633 L153.43834593048734,296.66109108580457 L153.9339690366013,299.4031398441249 L153.86659020910338,300.2713511821809 L153.3029404021504,301.439376507479 L152.24431536242457,302.63394786289786 L150.6673916496389,303.61068561821065 L148.86565588741303,305.18548981682466 L148.2573028199086,306.2715347549863 L147.49151653046204,308.66067746582377 L146.59032471267847,312.54264398813825 L145.62175406739635,316.20755767593903 L145.4409974051669,317.26627581838875 L145.4189697115615,320.4970838371612 L144.87799547155504,324.3517235637639 L144.87799547155504,327.6364044083694 L144.1795880096064,329.48291503292194 L143.1883417973783,330.6501595926282 L142.01698679626224,331.5183709306844 L140.73290183375497,331.7627505609103 L138.09735308124334,331.3832984833068 L136.02480626234365,330.75868600988525 L134.38050372205925,329.7272946631481 L130.57359996843155,327.12109911779663 L129.4922993617592,326.90326551769124 L128.43367432203405,326.9852459048275 L126.38315519673907,327.5005511954003 L123.32001003895245,328.7771029379556 L119.01683530586885,330.0255471192068 L116.3592588597525,331.4644981048517 L114.53419965723897,331.8986037738797 L110.05156400860828,332.495889451589 L106.94241984358742,332.2515098213627 L103.36097601274105,332.33349020849914 L100.77013052078071,332.17031019981806 L96.8504968057619,332.38736303433194 L92.69374144781784,332.9893333055919 L92.24541309562049,331.9360805222848 L91.2146466095721,330.36908397958865 L89.12979019718735,327.99165275262783 L87.40385561589584,326.181838110889 L84.93804967881164,323.96680612701823 L82.7637867453236,320.5087953210382 L81.37409842818035,318.99645236976653 L76.86878721260388,314.80920650106674 L76.24099794485954,314.37744312881415 L74.2908991874698,314.1877170900123 L72.67704669422817,314.2689167115573 L69.65083031689755,314.1072982340592 L68.48530617585328,313.64742730050256 L68.30584526030623,313.1344643067052 L67.27507877425705,312.75657376028505 L66.6472895065127,312.1077575535186 L65.9300937176658,313.3507363756272 L65.34700771047268,313.37806317133976 L64.40564774552678,311.8376126587639 L64.80927283717286,310.1901972601148 L64.62981192162583,308.46158223992046 L64.04737378777389,307.84009282886603 L62.81447081923183,304.4906084401432 L62.02989620288706,302.9501579275673 L61.29002484709349,300.57350746619835 L60.617532318797224,298.89876527183685 L60.706938839900445,297.6292404196077 L61.15526719209779,295.08940994955765 L61.15526719209779,293.41466775519615 L60.9311030159988,292.28021535034435 L59.676172353851996,288.9846037874541 L58.64475799446157,287.33718838880486 L57.523937113968586,286.12153636240794 L55.59651392352547,284.58186661542413 L53.35487216253954,282.1232357669185 L52.727082894795146,281.15118260515624 L50.620198788805034,277.4503537001336 L48.28915050671661,273.9111432726092 L45.599180393533366,270.5343320881741 L43.940624639740534,269.04853516702264 L42.10260797039991,266.83350318315144 L39.95037273051733,264.8620700639147 L45.89072339712954,257.4065394280373 L49.74621765135699,251.9497687071083 L50.351331352155526,250.54439064190996 L51.09120270794905,248.27548583220633 L52.727082894795146,245.70910933203547 L55.75329927212662,242.11680684427006 L57.74810129006696,240.14459295944172 L61.13323949849239,238.4971775607922 L61.93984180844261,237.49701683772608 L62.186681551487546,236.14707312954386 L61.29002484709349,234.4715501695908 L60.460746970196766,232.2299721555992 L60.41604370964554,231.60848274454483 L60.706938839900445,228.09659911273243 L60.460746970196766,224.9360599972194 L59.13843748055143,220.6410684768547 L56.784713631516325,216.83249392016705 L55.28294322632394,215.23817058175845 L53.62373959918991,213.99597252524165 L52.18934802149531,213.42835594001969 L48.401232594765766,212.64524805146738 L46.36107944293224,211.8348133672029 L43.985327900291786,210.51141568914107 L42.5729640162027,209.56590855749957 L39.72620855441828,206.48578829793973 L38.17455190194457,203.7164127439066 L40.87100074854091,203.59851713954865 L43.81493721152324,203.63521312236207 L46.33775600264455,203.56260192232656 L50.90331943896465,204.14192999142512 L55.94895702120642,205.51685819854455 L60.03379843826294,206.24140866771322 L61.53556884345536,206.42176551941378 L66.31169111570642,206.63959911951966 L69.68322398396376,207.20955800151674 L72.88177467008722,207.45393763174272 L76.801408385106,207.48048366186313 L78.46838649233615,207.34541121448592 L79.86520141623369,207.50781045757546 L81.10458311818893,208.10509613528484 L82.47872247514057,208.26827614396612 L89.91242119350788,207.34541121448592 L95.22886983242418,207.3719572446063 L100.61269729883837,208.59385539573714 L105.7036860149733,209.48939352950518 L109.53326533554768,209.1638142777342 L112.25886848250369,209.02796106476507 L114.57955079113141,209.21846786915842 L117.71072264975695,209.35432108212765 L119.80529716226205,209.62524674247425 L124.35595951173164,210.76594527206032 L125.6853956081313,211.4171037756024 L127.57718576480178,212.1229158705687 L131.31671069093153,212.4758219180521 L137.3989456192947,212.9372543827921 L139.31405921625264,212.9372543827921 L141.2512005068155,213.34481402169953 L146.27481039545268,216.05953598430767 L150.55336594156546,218.21132595524523 z"/>
	
</g></g></svg>