<svg xmlns="http://www.w3.org/2000/svg" version="1.2" baseProfile="tiny" width="600" height="600" stroke-linecap="round" stroke-linejoin="round"><rect id="backgroundrect" width="100%" height="100%" x="0" y="0" fill="none" stroke="none" class="" style=""/>































































































































































































































































































































































































































































































































































































































<g class="currentLayer" style=""><title>Layer 1</title><g class="city city-12" id="bingol" title="Bingöl">
	<path id="bingol-adakli" title="Adaklı" class="district" d="M237.76905270493404,93.36267654671423 L241.89548471232158,93.60501263484682 L244.1947376847723,94.3802275404325 L247.41284885703072,93.55420022927052 L252.13569570511712,93.65712792261735 L254.0998604808499,94.43234282820308 L255.35380687737558,96.86091523830694 L258.8227073289383,98.56638803059573 L260.1598989064088,99.49664591729866 L262.4580981423908,102.2874195774071 L265.3843243131058,108.28067767101136 L268.39379566476475,110.5033946944219 L270.44120562144246,110.65843767553915 L276.5012440470003,113.03489479787267 L278.4243131004951,113.96515268457559 L286.15557756377365,114.9996411468193 L289.20719837413924,115.67062547686419 L292.59285364475613,116.91096932580142 L295.7688153583069,117.4282135569232 L297.73298013403956,117.32398298138244 L300.24087292708884,116.80804163245459 L304.2535013959681,116.75592634468406 L305.54854351473284,117.17024288245945 L311.9015206783017,121.61437404708629 L319.9257238795915,122.95764558937003 L323.6875630691653,122.75048732048258 L329.83084667567016,124.09375886276649 L332.7981685686212,123.06057328271687 L337.18698095645846,123.2677315516045 L342.24386226479703,122.6475596271359 L344.8771496974979,122.75048732048258 L348.4714447887144,123.52570222606842 L353.2364410955075,125.43833328724465 L356.2448587106987,126.83241723510471 L364.353360829404,133.60219311648876 L365.52300830851505,136.34085148882713 L367.65471718260636,140.01107063006253 L368.0730505602711,141.30222688457573 L367.78011182225896,146.36652997367113 L366.7769547050386,148.4342040159648 L364.85493938801363,150.91358883164486 L361.9287132172986,153.75647777952403 L359.2121806036519,156.85733740186689 L357.7084986642896,160.57706606648435 L356.4956479900041,166.31365636781896 L356.1194640710461,169.2073577212743 L356.4124028090592,173.23847523032012 L357.1647706469731,178.8187196683434 L358.54411168315045,184.34815170079025 L359.50511934166394,190.75702921436385 L359.7559086209683,196.33727365238715 L360.17424199863297,200.42050644920351 L360.42503127793736,206.05286617499718 L360.42503127793736,209.04949522179928 L358.0836288467799,213.39069869307932 L356.07836834880794,215.9235016787241 L352.7348625368979,221.71090438563508 L352.19113451958043,223.4671895834998 L350.8117934834041,226.36089093695526 L349.9340310058366,229.04873690371736 L348.84762870767025,236.64454009626348 L346.38188537332894,240.05548568084043 L345.7549121750656,243.25927299653034 L346.5072800129805,245.68784540663424 L348.4292953300076,249.20302156675262 L350.89503866434904,251.37232042019832 L353.2364410955075,252.81982253802317 L355.472469879899,255.21712577546478 L353.3829104645136,256.3024266432849 L349.9561594716576,259.24824328451064 L345.35870726322185,262.8142318502052 L342.0984466322585,264.6226323358405 L337.8771783427819,265.39784724142623 L334.28288325156655,265.60370262811966 L330.27130851915496,264.93271829807463 L327.4704769880936,265.2936166658854 L320.70022018332753,264.0532728169482 L312.75926216298365,261.67681569461485 L310.7529479285431,261.2116867512633 L303.3557179255157,258.5251436666955 L301.3072542323694,258.0078994355737 L296.54331166204383,255.68225471881635 L293.53384031038394,253.30579759648296 L291.6529207155971,252.22049672866282 L288.93638810194926,251.18600826641892 L282.58341093837925,249.22256479966657 L277.4843801713349,248.70662345073876 L274.97648737828564,248.8095511440856 L272.59504296135674,248.4994651818511 L268.79105431307516,246.53602171509877 L266.11667115813407,244.36541997945878 L263.4412342667254,241.00658968265174 L261.35167485134093,239.1460739092459 L259.6382993549135,238.31874371588967 L255.75106552568582,237.3884858291869 L250.40229921580388,236.76831390471827 L246.4318202056315,236.71750149914203 L243.67313813327695,237.02758746137616 L241.039850700575,237.02758746137616 L233.39183141824225,237.54352881030397 L231.7617011027597,237.49271640472767 L226.36973159770315,238.16370073477256 L220.2001045795087,238.35913306391183 L218.2907341000947,232.62775429135428 L198.50999312903414,229.55816384167352 L192.0737707845193,220.2047725690685 L190.16756151450826,210.6976411975403 L188.77241443131496,199.74040194379893 L188.85565961226186,193.64291327465384 L187.06114640782383,185.2692894121333 L187.14439158876866,183.04657238872295 L186.30877856990784,176.27809938953294 L187.06114640782383,174.52051130947376 L187.39518086807405,172.14405418714045 L188.64912726459764,169.81840947038322 L191.07272114023434,168.4230226403289 L192.3688169954657,165.63224898021994 L193.7060085729362,166.25242090468873 L195.58692816772316,165.2700477302153 L196.1717519072797,162.84147532011121 L197.25815420544384,161.91121743340844 L203.52788618806798,161.7561744522914 L208.08318893779696,161.44608849005706 L209.58792461362586,160.93014714112937 L212.80603578588327,159.32760204218732 L216.5257255167514,157.00195732543008 L218.36449565283155,156.433900688732 L220.95563362682663,154.10825597197461 L223.63107051823536,147.8036090339421 L223.75646515788804,145.84016556718956 L223.42137696117018,142.53345055815328 L222.75330804066874,141.96409103926098 L217.27809335466534,138.76030372357104 L216.73436533734892,138.19224708687298 L216.73436533734892,136.3317313134673 L219.20010867169142,133.12794399777752 L223.00409731997203,130.90522697436685 L225.6784804749141,129.56195543208307 L227.30861079039568,128.2707991775697 L233.78698259361832,123.82666801294286 L236.33597110890668,122.32705060734733 L236.8375496675163,120.72580839059982 L236.7543044865694,119.43334925389203 L235.79329682805692,116.38460491931964 L235.50035809004578,112.50853039139088 L236.25272592795974,108.63375874565638 L236.96294430716796,103.25936969432647 L237.38127768483275,97.16057814298729 L237.76905270493404,93.36267654671423 z"/>
	<path id="bingol-merkez" title="Merkez" class="district" d="M198.50999312903414,229.55816384167352 L218.2907341000947,232.62775429135428 L220.2001045795087,238.35913306391183 L226.36973159770315,238.16370073477256 L231.7617011027597,237.49271640472767 L233.39183141824225,237.54352881030397 L241.039850700575,237.02758746137616 L243.67313813327695,237.02758746137616 L246.4318202056315,236.71750149914203 L250.40229921580388,236.76831390471827 L255.75106552568582,237.3884858291869 L259.6382993549135,238.31874371588967 L261.35167485134093,239.1460739092459 L263.4412342667254,241.00658968265174 L266.11667115813407,244.36541997945878 L268.79105431307516,246.53602171509877 L272.59504296135674,248.4994651818511 L274.97648737828564,248.8095511440856 L277.4843801713349,248.70662345073876 L282.58341093837925,249.22256479966657 L288.93638810194926,251.18600826641892 L291.6529207155971,252.22049672866282 L293.53384031038394,253.30579759648296 L296.54331166204383,255.68225471881635 L301.3072542323694,258.0078994355737 L303.3557179255157,258.5251436666955 L310.7529479285431,261.2116867512633 L312.75926216298365,261.67681569461485 L320.70022018332753,264.0532728169482 L327.4704769880936,265.2936166658854 L330.27130851915496,264.93271829807463 L334.28288325156655,265.60370262811966 L337.8771783427819,265.39784724142623 L342.0984466322585,264.6226323358405 L345.35870726322185,262.8142318502052 L349.9561594716576,259.24824328451064 L353.3829104645136,256.3024266432849 L355.472469879899,255.21712577546478 L360.6136501056502,256.4053543366315 L370.56092236043355,256.81967087440705 L374.8654358308572,257.4906552044516 L379.50503749799867,258.42091309115466 L383.6009111478238,260.0234581900963 L386.9444169597329,261.10875905791676 L391.62511434911454,263.7431868547137 L395.8463826385923,266.3789175337056 L402.1572103434545,269.0146482126968 L404.41431385719835,270.3071073494046 L407.30787419741466,272.7591316390053 L403.2783859450528,276.91662872089444 L399.3932595887615,279.11198521822564 L396.89590416038897,281.9939606319328 L395.11930447590026,286.52277913918675 L394.34270069923,295.512666279593 L394.39749499554875,299.4239186267665 L394.9528141140085,302.03228877967854 L395.7304716271476,304.3657507896015 L396.9506984567078,306.7669626736258 L399.67039227975863,313.835098577496 L401.3352958986734,315.82590257032814 L405.6092510115335,318.56977247144357 L408.6060775255813,321.6589061540379 L409.8273580916082,323.2366964912888 L410.6039618682796,325.2275004841211 L410.4374715063879,326.73623806507567 L408.71671985468566,330.7855959248412 L405.94223173531697,333.66757133854867 L402.72306682659195,338.1286399717009 L401.3352958986734,342.03989231887476 L401.39114393145877,346.0201974223446 L400.94752087857086,348.2846066759714 L399.3932595887615,349.93144976951817 L392.28896832374414,351.7841482497584 L390.0687455863688,353.0192805699184 L388.4596900002405,354.3912155204762 L387.4048997961045,357.27449381637757 L387.1277671051084,360.5681800034713 L387.5155421252097,362.8325892570984 L388.6809746584502,365.37190665371435 L389.9581032572645,367.08649962136263 L394.23100463365694,371.41076562411786 L395.1751525086867,373.4693194910511 L396.9506984567078,376.5571502914516 L397.5713492361641,380.2247636682985 L393.55872076728394,382.60903808379777 L391.60825456563185,383.4806662717586 L390.36168432437984,384.43698180234696 L388.7062643336742,386.5489538392452 L387.29531120346786,387.5039664876392 L386.23209110759035,387.62252876731696 L382.93916464612835,386.9450300263007 L381.260562453133,387.45836561083996 L375.8738616304159,390.2686825038625 L373.3417328986103,391.1650654535148 L365.66947767752015,393.32133548501747 L358.9824660536999,395.8254750623891 L356.9181963135395,395.9753065147288 L351.9424527132115,394.88739988252036 L349.8012602109102,395.2222406064459 L348.81812408657555,395.76554248145294 L343.6801050702285,400.98228278727726 L340.9182617884709,402.9600579581662 L335.48203535177225,405.85375931162196 L328.8677315442212,407.15924727027215 L325.38934746444954,407.10061757153017 L322.86459488791763,406.36318624957823 L320.4431084852172,406.80356043123874 L315.92468651185766,408.3331441273022 L313.97000536433285,409.2360414879254 L312.904677795521,410.757807890823 L312.2513611855671,414.16875347540025 L311.14177668511314,416.1947352874776 L308.7192365459452,418.84870631718877 L307.05960160936775,419.8388967848273 L304.5685685998012,420.64798662746426 L301.76984454167524,422.6479107956556 L300.52959671923037,425.29797317878445 L299.883656264551,428.3675636284652 L298.66342943499075,429.7929167489875 L293.99432314675556,432.4377676033389 L291.34206845763464,433.1895306294278 L284.57602659873913,434.468960944193 L281.1956400104616,434.9327870053503 L280.09343166528043,434.82855642980917 L277.55919546053934,433.34848225712767 L275.76573599256903,433.88136107458064 L271.60453068174854,435.67542985607906 L270.0365708178584,436.6486828551929 L267.89537831555805,438.6069147931685 L266.104026320522,441.04330449643766 L265.9975989372874,442.3579126304479 L266.98811121689573,445.1343545864197 L267.0861087083889,446.1805689884122 L265.9196224386809,447.88083025192356 L262.0956127975135,447.74793626810873 L260.223123094468,448.1505268661356 L258.1946803942073,448.99088588143474 L252.21683341312757,451.8611353553932 L249.24635031077247,453.88320852088737 L247.54456591548833,455.93524797684967 L245.44341539895854,456.98537102542474 L235.3833933421345,460.07971623679657 L230.11154979439337,461.4659828914909 L216.7238279726722,463.45808976651745 L213.59528440016672,463.8320169562702 L211.3107837382634,463.77078149314013 L209.57949472188452,463.2691718483496 L208.1664341187418,462.31806784653816 L207.19488909555264,458.95011737437164 L205.7259804596234,458.20226299486524 L204.19384763563508,458.09151800835315 L200.45202943894589,458.47195960907754 L198.48997213614945,459.27583792293694 L196.26448071643355,460.9682818932832 L194.33508924413385,461.5493673519238 L192.54795219496853,461.0985701127092 L188.49317426738358,458.96444907850855 L181.41101146818832,456.75606375923496 L179.6681313506661,456.7182801756013 L175.70818970517035,459.39700596700357 L172.65551515833602,459.9259761378733 L170.92422614195712,458.77162251375785 L168.90421333343886,455.1170379588533 L168.2688102434352,454.50077468096777 L163.5322648212671,451.5302032780508 L160.46694543682173,450.12048474385927 L157.29414493267404,449.59281745518376 L160.8958161791632,447.8456524326785 L165.95375122396948,445.67635357923274 L167.4163374410916,444.383894442525 L171.13602717195974,442.57549395688966 L173.18343712863845,441.80027905130356 L177.4047054181151,439.422519046776 L180.74821123002525,437.096874330019 L181.75136834724455,435.9086457688519 L182.58698136610542,434.100245283217 L183.0053147437702,431.3094716231083 L183.21395456436875,427.7434830574134 L183.33934920402038,418.1321211103446 L183.1728588421286,415.2384197568892 L182.71237600575705,413.06781802124925 L181.16654460769007,407.7976595454605 L179.5364142922074,404.28248338534206 L177.4468548768219,401.6480555885448 L175.60808474074176,399.68330923959815 L173.64391996500794,398.65012365954857 L170.13287005474044,397.358967405035 L163.8220423498762,396.32447894279113 L155.96432951047828,396.06650826832725 L150.11293090551897,395.13625038162445 L146.71146958788702,394.04182933844476 L144.55447103857065,392.13962133482215 L144.01074302125426,389.91690431141194 L142.130877162934,378.54795428428383 L140.16565865073352,372.45046561513846 L138.6198272526644,368.21349271939926 L136.4048731976273,363.7172462670018 L133.98022558552398,357.56764231008657 L133.3121566650225,352.5033392209911 L133.604041666566,347.4911514196659 L134.18991914258916,344.54533477844035 L134.85798806309054,338.1377601470605 L134.18991914258916,328.1120816622164 L134.44070842189558,325.735624539883 L135.777899999365,318.0355907717956 L136.90645175623695,316.02003201727274 L139.66618756506023,312.81885046597165 L140.2973757091932,309.7948608930903 L140.2973757091932,308.14150338857195 L139.75364769187576,303.5423292428281 L139.71149823316895,300.85578615826057 L140.21307679177863,295.0162681635791 L141.13298872805308,287.0582637210282 L142.55342548646945,283.13007390532925 L143.6819772433414,281.0115874574595 L145.39535273976887,276.25737033059806 L146.64929913629456,273.7245673449534 L147.73675517092735,272.7956123404447 L153.2952150378746,266.28380713352436 L156.38793157047937,259.41110355879357 L157.6829736892441,257.1883865353831 L159.3552534634325,255.22494306863032 L161.6956021581233,251.03878257846742 L163.40897765455182,248.66232545613377 L165.0812574287402,245.40642285267361 L166.16765972690536,241.53034832474512 L169.69662315712426,239.86917352706138 L175.3393819414871,237.54352881030397 L179.10016739459329,235.73512832466872 L183.32143568407,234.49478447573145 L185.76294307965705,234.3175924973119 L198.50999312903414,229.55816384167352 z"/>
	<path id="bingol-genc" title="Genç" class="district" d="M168.17397396134496,585.3883199165044 L166.49642550481823,582.2561911214993 L165.11708446864097,581.015847272562 L161.087596216278,578.8700002986131 L157.2730702033217,578.3579675962682 L154.84631511828195,577.4680990575872 L153.99594978887382,576.0857410494756 L155.87897685659703,567.4606609234626 L155.02545031778578,566.639845141078 L150.78205356248804,565.9258656986224 L147.0202143729142,565.6678950241585 L143.4259192816977,564.4275511752212 L142.59030626283683,563.7565668451763 L141.5871491456176,561.5859651095367 L139.16355526998188,553.0077887425172 L138.57767779395763,551.4052436435749 L136.98969693718388,548.5115422901196 L136.27947855797566,546.7539542100604 L135.2341719820486,545.7728839177811 L133.77158576492542,543.1892685265605 L132.01606080979116,541.9489246776229 L128.42176571857573,541.9997370831995 L125.32904918597096,541.0694791964966 L123.90861242755557,540.0884089042174 L121.86014873440921,537.2455199563382 L119.77058931902374,533.8358772539552 L117.01190724666913,531.820318499432 L112.45660449694017,530.9929883060756 L110.19950098319627,529.5976014760214 L109.196343865977,526.8068278159132 L108.52827494547557,525.6707145425167 L106.4798112523292,523.7072710757643 L104.93397985426014,522.9320561701783 L102.80227098016789,520.6064114534212 L101.12999120597948,517.2475811566146 L100.54516746642297,515.3349500954378 L99.08258124930079,507.0160472850767 L99.12367697153887,504.6943112149022 L99.20797588895348,501.3823846770888 L99.49986089049688,499.2117829414484 L101.12999120597948,495.18196831459716 L102.50933224215679,490.89288013108705 L108.52827494547557,484.17391665527947 L110.11625580225142,481.9003872262923 L111.57884201937354,481.1251723207069 L112.95818305555083,481.02224462736007 L116.13414476910152,482.4697467451846 L117.68102990363822,483.6579753063517 L121.27532499485264,485.8285770419916 L122.61251657232314,486.34451839091946 L124.07510278944635,486.34451839091946 L125.70523310492793,485.7243464664508 L126.6662407634425,484.8462038675183 L127.50290751876997,481.7453442451752 L128.33852053763087,480.0919867406573 L132.8105781064129,474.8726406704446 L134.10562022517556,472.96131249146265 L136.94754747847708,470.0154958502367 L139.83162419048327,468.1549800768311 L141.54499968691078,466.707477959006 L143.25942891980694,461.333088907676 L143.8021032006557,460.2477880398566 L146.0170572556928,457.7684032241763 L147.4806972092837,456.63098706858557 L151.86845586065218,454.9776295640674 L153.79152491414587,454.4603853329453 L155.79678541211885,450.636426092787 L157.29414493267404,449.59281745518376 L160.46694543682173,450.12048474385927 L163.5322648212671,451.5302032780508 L168.2688102434352,454.50077468096777 L168.90421333343886,455.1170379588533 L170.92422614195712,458.77162251375785 L172.65551515833602,459.9259761378733 L175.70818970517035,459.39700596700357 L179.6681313506661,456.7182801756013 L181.41101146818832,456.75606375923496 L188.49317426738358,458.96444907850855 L192.54795219496853,461.0985701127092 L194.33508924413385,461.5493673519238 L196.26448071643355,460.9682818932832 L198.48997213614945,459.27583792293694 L200.45202943894589,458.47195960907754 L204.19384763563508,458.09151800835315 L205.7259804596234,458.20226299486524 L207.19488909555264,458.95011737437164 L208.1664341187418,462.31806784653816 L209.57949472188452,463.2691718483496 L211.3107837382634,463.77078149314013 L213.59528440016672,463.8320169562702 L216.7238279726722,463.45808976651745 L230.11154979439337,461.4659828914909 L235.3833933421345,460.07971623679657 L245.44341539895854,456.98537102542474 L247.54456591548833,455.93524797684967 L249.24635031077247,453.88320852088737 L252.21683341312757,451.8611353553932 L258.1946803942073,448.99088588143474 L260.223123094468,448.1505268661356 L262.0956127975135,447.74793626810873 L265.9196224386809,447.88083025192356 L267.0861087083889,446.1805689884122 L266.98811121689573,445.1343545864197 L265.9975989372874,442.3579126304479 L266.104026320522,441.04330449643766 L267.89537831555805,438.6069147931685 L270.0365708178584,436.6486828551929 L271.60453068174854,435.67542985607906 L275.76573599256903,433.88136107458064 L277.55919546053934,433.34848225712767 L280.09343166528043,434.82855642980917 L281.1956400104616,434.9327870053503 L284.57602659873913,434.468960944193 L291.34206845763464,433.1895306294278 L293.99432314675556,432.4377676033389 L298.66342943499075,429.7929167489875 L299.883656264551,428.3675636284652 L300.52959671923037,425.29797317878445 L301.76984454167524,422.6479107956556 L304.5685685998012,420.64798662746426 L307.05960160936775,419.8388967848273 L308.7192365459452,418.84870631718877 L311.14177668511314,416.1947352874776 L312.2513611855671,414.16875347540025 L312.904677795521,410.757807890823 L313.97000536433285,409.2360414879254 L315.92468651185766,408.3331441273022 L320.4431084852172,406.80356043123874 L322.86459488791763,406.36318624957823 L325.38934746444954,407.10061757153017 L328.8677315442212,407.15924727027215 L335.48203535177225,405.85375931162196 L340.9182617884709,402.9600579581662 L343.6801050702285,400.98228278727726 L348.81812408657555,395.76554248145294 L349.8012602109102,395.2222406064459 L351.9424527132115,394.88739988252036 L356.9181963135395,395.9753065147288 L358.9824660536999,395.8254750623891 L365.66947767752015,393.32133548501747 L373.3417328986103,391.1650654535148 L375.8738616304159,390.2686825038625 L381.260562453133,387.45836561083996 L382.93916464612835,386.9450300263007 L386.23209110759035,387.62252876731696 L387.29531120346786,387.5039664876392 L388.7062643336742,386.5489538392452 L390.36168432437984,384.43698180234696 L391.60825456563185,383.4806662717586 L393.55872076728394,382.60903808379777 L397.5713492361641,380.2247636682985 L399.22044680806476,380.7641568967227 L400.1814544665773,381.74653007119633 L402.4385579803212,382.1595437267774 L404.4438184782931,380.81627218449336 L405.1129411352622,379.05868410443423 L406.19934343342845,377.81834025549705 L407.829473748911,377.14735592545213 L411.50701402107023,376.68222698210093 L412.7198646953558,378.8007134299704 L413.30468843491235,380.81627218449336 L413.51332825551094,382.93475863236273 L413.0960486143138,389.135174994855 L413.17929379526066,393.476378466135 L414.18245091247996,397.19741001294665 L415.2267037519384,399.005810498582 L417.52595672438906,401.74446887092006 L427.26353542210825,412.1310457235749 L430.69134015143095,416.11004794485007 L435.24664290115993,418.17772198714385 L437.9631755148076,419.72815179831525 L439.55115637158144,421.2264663217163 L441.89150506627334,426.0836111419242 L442.8114170025467,427.58322854751964 L446.0716776335109,430.4248146132042 L450.87776966254427,437.76264713128654 L458.0663598449741,444.2223370504366 L460.74179673638275,447.11603840389205 L463.66696917062905,451.9744861062938 L464.0010036308793,454.66102919086165 L464.502582189489,456.31438669537977 L467.2191148031367,461.2757620911288 L470.06104205643715,465.56485027463845 L471.0231034514174,466.65015114245875 L473.23805750645437,470.73208105708073 L473.3213026874014,473.212768754955 L472.52678539077965,476.31362837729796 L469.8524022358386,482.1531463719794 L468.1537790499585,484.4370988585201 L461.8071243051945,484.6351369520478 L457.62905921089225,485.57972654288784 L453.7333954899233,487.31777139003293 L449.71549833870586,489.6017238765739 L447.22551906560795,491.4400906526772 L443.0874959570751,493.7748555447944 L439.7935157591454,495.81126041442536 L437.5848841229133,498.1942319477303 L436.4594935754454,501.02539495586103 L434.33094591075616,504.0063894163321 L433.3667770428406,505.6949247400949 L430.91683975551206,507.6310076807683 L428.10441712330646,511.5552888498845 L427.34151192071477,511.9031583957526 L424.20769966587096,512.0021774425164 L422.03911001541024,512.3995565117661 L417.98117087842223,511.95266791913446 L414.68719068049165,511.9031583957526 L411.915863770526,514.1884137644876 L409.7462203835977,516.4723662510285 L407.9791043273191,519.6018892816453 L407.45750477582374,521.2904246054085 L407.2161991247274,523.4753580451853 L406.49333590790815,526.7039001225662 L405.6893349830763,527.9455468536979 L403.5607873183871,529.9324421999465 L402.8379241015679,531.3239203834185 L401.7926175256418,532.1681880453 L399.1814585587599,536.1901853789858 L396.0487000403837,540.1144665481027 L394.5218358987327,541.4551323259979 L391.06768775771735,543.6908781713511 L389.12249023840366,543.9188825553471 L387.1309283145103,543.491537195629 L385.64410615863187,542.348909511261 L382.7126113055805,541.0577532567481 L377.57037734336063,538.0285521550895 L374.51770279652624,534.4521405318405 L371.1836806128262,531.7708089760503 L370.0983320511277,530.1812926990506 L367.80856270688605,523.6251894975256 L366.80435185319806,521.5887846278943 L366.2827523017027,519.452057829305 L365.27854144801466,517.8638444345 L363.10889806108736,516.7212167501326 L361.62312964167546,517.1681053427643 L360.1363074857969,518.1113920514099 L356.07942208527567,521.4389531755544 L350.6568942226567,524.9658552754211 L349.45141970364494,525.0153647988028 L347.5631239535833,523.7242085442895 L344.9920069724749,521.2904246054085 L342.582111670919,521.2409150820267 L338.3640045908442,524.270116183685 L336.155372954612,524.1710971369212 L332.58004511981574,519.2540197357775 L331.65591823767056,518.6572996908054 L330.45044371865873,516.8202357968962 L328.763411633922,513.1943146502659 L326.9962955776433,510.9103621637253 L324.18387294543766,508.37625629588604 L321.65385168656735,507.2844410170945 L319.96681960183156,507.5319886340043 L317.3556606349508,508.42576581926767 L315.78875450752724,509.81724400273947 L314.2218483801058,513.542184196134 L314.2218483801058,517.1185958193821 L315.145975262251,518.6077901674237 L316.79296536121626,522.2832208374358 L317.19443895539735,523.6746990209075 L317.1143549838544,526.654390599184 L314.2218483801058,530.131783175669 L312.05325872964625,531.3239203834185 L307.7951096637999,532.9629461837997 L293.33363038152675,530.230802222433 L287.5496709104983,529.9324421999465 L282.8089105424605,530.3793307925785 L274.25257042499777,529.3370250371693 L271.80263313766926,529.2875155137873 L268.1071793455587,528.6412859454333 L265.8174100013159,527.6979992367878 L262.36220812383397,525.5612724381986 L257.7025854638067,521.8858417681863 L253.12304677532228,518.1113920514099 L251.47605667635705,516.3733472042644 L247.58039295539015,513.1448051268839 L245.04931796005218,511.9031583957526 L240.42973728579645,509.12150491100357 L238.1800099273241,507.3339505404762 L235.36864103158715,507.6310076807683 L231.95348113987552,507.03559051799044 L229.34232217299464,506.2903419028728 L228.01672169666958,506.7372304955046 L225.6068263951125,508.92346681747586 L225.24539478670297,510.95987168710707 L225.40556272978768,513.3936556259879 L227.09364855099108,516.6221977033688 L227.57520611671603,518.4097520738957 L227.9766797108971,524.0720780901576 L226.97246885721012,531.0750698843144 L225.96825800352218,536.1901853789858 L223.67848865928048,541.3561132792339 L221.2685933577245,542.5977600103654 L216.2875810750581,543.4420276722468 L212.23069567453678,544.7826934501425 L204.67856641076096,548.4086145967728 L200.34033337337297,550.891908059036 L193.1095937322363,555.511928319888 L187.76609610469262,562.3155791383227 L186.92310693055913,566.1903507840576 L187.16441258165443,569.7667624073059 L191.10117202486137,579.6504267329756 L191.70285554789965,582.5310992644885 L191.0105506886418,584.1792452402295 L189.81877474371072,585.3987429740587 L181.9884590524702,585.9211987339575 L177.5669808341352,586.6065147681394 L175.37415524491914,586.4853467240729 L169.1992595443863,585.2606374614667 L168.17397396134496,585.3883199165044 z"/>
	<path id="bingol-kigi" title="Kiğı" class="district" d="M237.76905270493404,93.36267654671423 L237.38127768483275,97.16057814298729 L236.96294430716796,103.25936969432647 L236.25272592795974,108.63375874565638 L235.50035809004578,112.50853039139088 L235.79329682805692,116.38460491931964 L236.7543044865694,119.43334925389203 L236.8375496675163,120.72580839059982 L236.33597110890668,122.32705060734733 L233.78698259361832,123.82666801294286 L227.30861079039568,128.2707991775697 L225.6784804749141,129.56195543208307 L223.00409731997203,130.90522697436685 L219.20010867169142,133.12794399777752 L216.73436533734892,136.3317313134673 L216.73436533734892,138.19224708687298 L217.27809335466534,138.76030372357104 L222.75330804066874,141.96409103926098 L223.42137696117018,142.53345055815328 L223.75646515788804,145.84016556718956 L223.63107051823536,147.8036090339421 L220.95563362682663,154.10825597197461 L218.36449565283155,156.433900688732 L216.5257255167514,157.00195732543008 L212.80603578588327,159.32760204218732 L209.58792461362586,160.93014714112937 L208.08318893779696,161.44608849005706 L203.52788618806798,161.7561744522914 L197.25815420544384,161.91121743340844 L196.1717519072797,162.84147532011121 L195.58692816772316,165.2700477302153 L193.7060085729362,166.25242090468873 L192.3688169954657,165.63224898021994 L191.07272114023434,168.4230226403289 L188.64912726459764,169.81840947038322 L187.39518086807405,172.14405418714045 L187.06114640782383,174.52051130947376 L186.30877856990784,176.27809938953294 L187.14439158876866,183.04657238872295 L187.06114640782383,185.2692894121333 L188.85565961226186,193.64291327465384 L188.77241443131496,199.74040194379893 L190.16756151450826,210.6976411975403 L192.0737707845193,220.2047725690685 L198.50999312903414,229.55816384167352 L185.76294307965705,234.3175924973119 L183.32143568407,234.49478447573145 L179.10016739459329,235.73512832466872 L175.3393819414871,237.54352881030397 L169.69662315712426,239.86917352706138 L166.16765972690536,241.53034832474512 L166.46059846491644,238.01647504682106 L165.49853706993522,234.3996740755502 L165.6660811682957,231.0916561843198 L165.24774779063196,228.09502713751786 L163.0327937355938,222.25550914283636 L160.48380522030544,219.3618077893811 L159.0212190031823,218.6895205771419 L154.9253453533572,217.8634932659799 L149.74306940536695,217.76968574799315 L148.7725781186454,214.03692826143322 L147.64402636177243,211.29826988909483 L144.13403018797166,206.0268085311119 L143.25626771040396,204.32133573882314 L142.4206546915431,201.84195092314312 L141.62613739492136,197.81083341409723 L141.54289221397644,196.00243292846181 L142.7968386105011,190.78308685824928 L142.96332897239185,188.45744214149204 L142.7968386105011,185.45951021249562 L142.33635577412954,184.0133109768649 L141.16670829501848,182.15279520345922 L135.90013342961362,181.01537904786883 L131.55347050048525,181.06749433563922 L128.71154324718478,180.8095236611755 L125.24264279562203,178.48387894441825 L120.6873400458941,176.31327720877806 L119.55878828902112,175.02081807207048 L118.47238599085698,172.48931796861984 L117.72001815294202,169.64642902074053 L115.75585337720814,165.71954208723548 L114.00032842207493,164.2212275638345 L112.66524431753979,163.55675764476106 L108.76958059657186,159.98164890370674 L107.32490789939908,159.98555755028937 L101.0499072344366,156.53161685330164 L97.35445344232595,150.49536364728684 L91.12160223607128,146.26881380910172 L84.94459906260104,143.42071333244536 L88.87082114113237,134.9832482424062 L89.95722343929754,131.05636130890124 L91.04362573746273,130.0231757288518 L92.3818710514019,129.86813274773442 L94.72221974609069,128.78283187991457 L97.73169109775061,126.09498591315251 L99.27752249581964,125.73278466314778 L102.32808956971762,125.73278466314778 L104.66949200087511,125.11391562087344 L108.26378709209159,123.718528790819 L114.53246533824594,124.2865854275172 L117.04035813129626,124.33870071528777 L119.4639520069309,123.61429821527818 L122.51557281729859,120.92775513071024 L125.5239904324888,118.65422570172353 L126.73684110677425,117.30965127724534 L128.65885642380132,112.60754943815459 L129.2436801633579,111.88444982033946 L132.9222741719848,109.55880510358224 L136.3490251648419,108.62854721687935 L140.86323219232963,108.31846125464486 L146.21305223867938,109.19660385357739 L148.76204075396873,108.9907484668842 L156.4522094950082,109.8688910658164 L158.50067318815354,110.79914895251932 L160.38053904647384,111.1092349147538 L162.3457575586743,110.28190472139738 L164.2677728757004,108.0083752924107 L164.68610625336413,107.13023269347819 L165.06229017232212,104.13230076448195 L165.60496445317088,101.80665604772474 L167.44373458925102,99.48231421316159 L169.65974238075583,96.00101299009427 L172.3341255356979,90.62662393876435 L173.50482675127657,87.83715316084984 L173.67658579550573,85.72778688834028 L175.81883203427464,85.43984992340827 L179.62176694608866,86.16425242341785 L183.13281685635815,84.2008089566653 L186.22553338896296,83.47640645665574 L193.7903074903498,83.01127751330453 L196.00526154538792,83.37347876330922 L201.14644177113905,83.37347876330922 L202.19069461059743,82.96046510772825 L206.49626181748874,79.85960548538534 L210.00625799129062,79.2915488486871 L213.8102466395713,79.34236125426324 L215.48147267729198,79.85960548538534 L219.20116240815904,81.66800597102046 L222.25278321852574,83.68356472554353 L225.4708943907832,84.25162136224161 L231.36338871798165,86.06002184787691 L233.07676421441013,86.83523675346274 L235.12522790755546,88.85079550798565 L236.08623556606804,92.15881339921623 L237.76905270493404,93.36267654671423 z"/>
	<path id="bingol-karliova" title="Karlıova" class="district" d="M539.7751930208719,87.63911506732227 L544.5823387863738,91.37708408265935 L546.6286950065848,94.13658857010563 L547.8194172150484,96.2980701303858 L548.5633551612231,98.55205632645868 L549.1460714278421,101.46530091282807 L545.7193204349873,103.58378736069768 L542.0828758850649,107.14977592639231 L541.2894123249118,108.80313343091036 L540.4527455695824,111.54179180324856 L540.5370444869958,118.15652470351556 L538.572879711264,123.94392741042645 L538.1966957923072,125.95948616494921 L538.279940973252,133.09146329633813 L538.8226152541008,135.88223695644692 L539.3663432714181,137.1733932109604 L539.408492730125,138.7238230221318 L538.9901593524603,142.03184091336254 L539.032308811167,148.12932958250744 L539.408492730125,151.59108757266108 L540.4527455695824,154.79487488835068 L541.5812973264553,156.81043364287373 L545.4685311556818,162.13270740643313 L548.0175196709713,166.93903982106465 L549.5222553468002,170.86592675456973 L549.9827381831707,174.07101695245356 L550.8183512020306,177.79074561707085 L550.3167726434209,185.33573640404077 L550.4421672830747,188.6945667008476 L550.8594469242705,192.88072719101064 L550.8594469242705,195.87735623781265 L550.4421672830747,199.03033114792623 L549.2303703452568,203.8366635625578 L549.2303703452568,209.67487867504468 L549.9827381831707,212.36272464180695 L551.6539642208925,215.30854128303255 L553.2008493554291,217.11694176866808 L555.8752325103691,218.77029927318625 L560.1797459807929,222.02620187664624 L564.1091292687249,226.26317477238547 L566.7413629649604,229.4669620880754 L568.4136427391486,233.29092132823362 L569.9183784149785,236.23673796945926 L574.7244704440119,243.884656449776 L577.4831525163664,249.9313327133448 L578.5274053558248,251.79184848675067 L580.7434131473308,253.54813368461538 L584.4209534194921,255.66792301467942 L588.0573979694133,258.45739379259373 L589.8540186467867,261.3510951460492 L591.5262984209749,263.1086832261082 L593.9077428379039,264.8662713061675 L596.2069958103555,267.39777140961803 L597.8782218480762,269.87845910749246 L599.0489230636558,273.75453363542124 L599.2501867289809,276.8931768413979 L597.8782218480762,280.8330925968456 L596.9172141895635,282.9007666391388 L594.8698042328851,285.43226674258926 L593.2807696396416,286.7768411670679 L590.773930583061,288.1201127093513 L584.9636277003398,289.9806284827575 L576.4378459404393,291.2209723316944 L574.265041344108,291.99618723728037 L569.8762289562719,293.9075154162622 L567.7445200821796,295.25078695854603 L566.0416819504278,297.2689514774574 L564.5632896862917,293.8658231860457 L562.9531803636937,289.47380730918945 L560.0669961787513,286.1110683657997 L558.73507328362,285.0140415582316 L557.1260176974907,284.9449888019355 L554.2398335125481,285.4257523316182 L553.2967393739871,285.83746310500493 L550.1323687615799,285.83746310500493 L544.4716964572688,285.1508441886292 L536.8679341065769,284.4642252722528 L530.6519426838051,282.47472416161514 L527.6551161697572,281.0337364547619 L522.4380669183348,276.09320717412123 L519.7183730952839,273.00407349152647 L515.4444179824218,266.3476483610429 L513.50238167251,264.5640026370986 L508.507670815766,262.71130415685843 L504.456054097583,261.6820272233919 L494.24324025294584,259.5544206001623 L485.9735164546892,257.97663026291144 L478.87027892613963,255.98582627007912 L475.6511140174145,255.43731286629503 L472.0431203521203,254.33898317653222 L468.99044580528596,252.96704822597468 L466.7712768043772,251.11434974573473 L464.6058483633196,248.84863760991354 L462.05369863862916,246.85913649927582 L459.88827019757144,245.76080680951273 L457.05793404541646,245.82985956580873 L445.5690453384326,249.12354575290252 L441.18550163293577,250.1528226863693 L435.8567563159384,252.00552116660958 L431.4721588739741,254.13312778983888 L427.58703251768276,257.426813976933 L424.25722527985147,260.03518412984477 L417.09813971851634,265.9359375876562 L410.9369425920631,270.3279534645128 L407.30787419741466,272.7591316390053 L404.41431385719835,270.3071073494046 L402.1572103434545,269.0146482126968 L395.8463826385923,266.3789175337056 L391.62511434911454,263.7431868547137 L386.9444169597329,261.10875905791676 L383.6009111478238,260.0234581900963 L379.50503749799867,258.42091309115466 L374.8654358308572,257.4906552044516 L370.56092236043355,256.81967087440705 L360.6136501056502,256.4053543366315 L355.472469879899,255.21712577546478 L353.2364410955075,252.81982253802317 L350.89503866434904,251.37232042019832 L348.4292953300076,249.20302156675262 L346.5072800129805,245.68784540663424 L345.7549121750656,243.25927299653034 L346.38188537332894,240.05548568084043 L348.84762870767025,236.64454009626348 L349.9340310058366,229.04873690371736 L350.8117934834041,226.36089093695526 L352.19113451958043,223.4671895834998 L352.7348625368979,221.71090438563508 L356.07836834880794,215.9235016787241 L358.0836288467799,213.39069869307932 L360.42503127793736,209.04949522179928 L360.42503127793736,206.05286617499718 L360.17424199863297,200.42050644920351 L359.7559086209683,196.33727365238715 L359.50511934166394,190.75702921436385 L358.54411168315045,184.34815170079025 L357.1647706469731,178.8187196683434 L356.4124028090592,173.23847523032012 L356.1194640710461,169.2073577212743 L356.4956479900041,166.31365636781896 L357.7084986642896,160.57706606648435 L359.2121806036519,156.85733740186689 L361.9287132172986,153.75647777952403 L364.85493938801363,150.91358883164486 L366.7769547050386,148.4342040159648 L367.78011182225896,146.36652997367113 L368.0730505602711,141.30222688457573 L367.65471718260636,140.01107063006253 L365.52300830851505,136.34085148882713 L364.353360829404,133.60219311648876 L356.2448587106987,126.83241723510471 L353.2364410955075,125.43833328724465 L348.4714447887144,123.52570222606842 L344.8771496974979,122.75048732048258 L342.24386226479703,122.6475596271359 L337.18698095645846,123.2677315516045 L332.7981685686212,123.06057328271687 L331.7265185810045,120.38836190228596 L330.918302710303,115.63023612884201 L330.5716234124408,111.82321435720924 L330.9562372231391,108.20641338593835 L330.918302710303,105.11337105676101 L331.37983928314117,101.21254176714122 L332.572668964541,99.21392048114389 L335.72860968520706,97.78596159623297 L337.6527324751683,96.12087815196622 L340.5009821472747,92.9327254226078 L342.116360152209,90.45855213570466 L345.00359807361923,87.50752396570175 L346.75385434641515,86.22548788654807 L349.097364250509,85.81117134877299 L353.33865353287143,84.29331359245803 L356.1278939627885,84.01710256727443 L363.5683271609902,84.93693739642323 L375.8812377856886,84.98253827322246 L383.69363995697864,83.8789970546828 L387.5619065297872,83.05166686132638 L391.7663150357822,80.93578617784547 L392.32374162717724,80.24525861488678 L397.3458496320828,75.46237807975167 L399.09399843194336,73.53020378566147 L402.73992661007463,70.49448827303173 L406.5713124065147,67.64247914979258 L412.82102339625214,65.1591856875296 L418.3636772161853,65.29729120012155 L420.89369847505554,65.61910310210408 L429.37522330331376,67.4587727604017 L436.29405695002123,68.56231397894139 L438.37729394660073,68.33300671275128 L447.8630296285459,64.4686581245709 L452.36459181842264,63.31951602923197 L457.08849240297786,63.54882329542206 L459.9525481220983,64.23935085838077 L466.16537833546823,66.49333705445366 L470.14534097384967,67.68938290878609 L477.5488933956852,68.79292412732576 L480.4129491148056,69.66715807967533 L484.50460781876,70.12707549424982 L488.18741677325863,70.77069929821502 L492.0567370825358,71.00000656440515 L497.7479677444084,69.5290525670837 L502.73319497294545,70.35638276043994 L511.58668877429113,73.02468549428791 L516.422285424418,73.2083918836788 L524.3832644376484,72.65596983331189 L529.7025261264359,72.93218085849549 L532.6045163583935,73.76081393404586 L534.3526651582541,74.8187542757863 L536.1756292473191,76.61152017509059 L537.8489627579762,80.9813870546447 L538.9659234137038,85.85677222557206 L539.7751930208719,87.63911506732227 z"/>
	<path id="bingol-solhan" title="Solhan" class="district" d="M468.1537790499585,484.4370988585201 L469.8524022358386,482.1531463719794 L472.52678539077965,476.31362837729796 L473.3213026874014,473.212768754955 L473.23805750645437,470.73208105708073 L471.0231034514174,466.65015114245875 L470.06104205643715,465.56485027463845 L467.2191148031367,461.2757620911288 L464.502582189489,456.31438669537977 L464.0010036308793,454.66102919086165 L463.66696917062905,451.9744861062938 L460.74179673638275,447.11603840389205 L458.0663598449741,444.2223370504366 L450.87776966254427,437.76264713128654 L446.0716776335109,430.4248146132042 L442.8114170025467,427.58322854751964 L441.89150506627334,426.0836111419242 L439.55115637158144,421.2264663217163 L437.9631755148076,419.72815179831525 L435.24664290115993,418.17772198714385 L430.69134015143095,416.11004794485007 L427.26353542210825,412.1310457235749 L417.52595672438906,401.74446887092006 L415.2267037519384,399.005810498582 L414.18245091247996,397.19741001294665 L413.17929379526066,393.476378466135 L413.0960486143138,389.135174994855 L413.51332825551094,382.93475863236273 L413.30468843491235,380.81627218449336 L412.7198646953558,378.8007134299704 L411.50701402107023,376.68222698210093 L407.829473748911,377.14735592545213 L406.19934343342845,377.81834025549705 L405.1129411352622,379.05868410443423 L404.4438184782931,380.81627218449336 L402.4385579803212,382.1595437267774 L400.1814544665773,381.74653007119633 L399.22044680806476,380.7641568967227 L397.5713492361641,380.2247636682985 L396.9506984567078,376.5571502914516 L395.1751525086867,373.4693194910511 L394.23100463365694,371.41076562411786 L389.9581032572645,367.08649962136263 L388.6809746584502,365.37190665371435 L387.5155421252097,362.8325892570984 L387.1277671051084,360.5681800034713 L387.4048997961045,357.27449381637757 L388.4596900002405,354.3912155204762 L390.0687455863688,353.0192805699184 L392.28896832374414,351.7841482497584 L399.3932595887615,349.93144976951817 L400.94752087857086,348.2846066759714 L401.39114393145877,346.0201974223446 L401.3352958986734,342.03989231887476 L402.72306682659195,338.1286399717009 L405.94223173531697,333.66757133854867 L408.71671985468566,330.7855959248412 L410.4374715063879,326.73623806507567 L410.6039618682796,325.2275004841211 L409.8273580916082,323.2366964912888 L408.6060775255813,321.6589061540379 L405.6092510115335,318.56977247144357 L401.3352958986734,315.82590257032814 L399.67039227975863,313.835098577496 L396.9506984567078,306.7669626736258 L395.7304716271476,304.3657507896015 L394.9528141140085,302.03228877967854 L394.39749499554875,299.4239186267665 L394.34270069923,295.512666279593 L395.11930447590026,286.52277913918675 L396.89590416038897,281.9939606319328 L399.3932595887615,279.11198521822564 L403.2783859450528,276.91662872089444 L407.30787419741466,272.7591316390053 L410.9369425920631,270.3279534645128 L417.09813971851634,265.9359375876562 L424.25722527985147,260.03518412984477 L427.58703251768276,257.426813976933 L431.4721588739741,254.13312778983888 L435.8567563159384,252.00552116660958 L441.18550163293577,250.1528226863693 L445.5690453384326,249.12354575290252 L457.05793404541646,245.82985956580873 L459.88827019757144,245.76080680951273 L462.05369863862916,246.85913649927582 L464.6058483633196,248.84863760991354 L466.7712768043772,251.11434974573473 L468.99044580528596,252.96704822597468 L472.0431203521203,254.33898317653222 L475.6511140174145,255.43731286629503 L478.87027892613963,255.98582627007912 L485.9735164546892,257.97663026291144 L494.24324025294584,259.5544206001623 L504.456054097583,261.6820272233919 L508.507670815766,262.71130415685843 L513.50238167251,264.5640026370986 L515.4444179824218,266.3476483610429 L519.7183730952839,273.00407349152647 L522.4380669183348,276.09320717412123 L527.6551161697572,281.0337364547619 L530.6519426838051,282.47472416161514 L536.8679341065769,284.4642252722528 L544.4716964572688,285.1508441886292 L550.1323687615799,285.83746310500493 L553.2967393739871,285.83746310500493 L554.2398335125481,285.4257523316182 L557.1260176974907,284.9449888019355 L558.73507328362,285.0140415582316 L560.0669961787513,286.1110683657997 L562.9531803636937,289.47380730918945 L564.5632896862917,293.8658231860457 L566.0416819504278,297.2689514774574 L564.1091292687249,299.2297891798216 L562.6454893151353,301.1945355287682 L557.2967230052532,305.01849476892636 L555.4158034104663,306.72396756121555 L553.0754547157754,310.96094045695475 L552.238787960448,313.44162815482895 L551.8215083192517,316.64541547051846 L550.7340522846181,323.052990101898 L549.3968607071484,325.99880674312396 L544.5075234971683,329.925693676629 L539.0734045334051,334.6799108034897 L536.7330558387155,336.54042657689575 L534.3516114217862,339.64128619923895 L533.2230596649146,342.43205985934725 L532.0523584493346,346.51398977396934 L528.5002128168271,349.4598064151954 L524.9059177256127,353.851822292052 L522.9417529498788,359.4333696122692 L522.2726302929096,364.54978798913544 L522.606664753161,370.18214771492904 L523.4844272307286,375.09140782290734 L524.1946456099367,377.57209552078155 L525.7415307444725,381.4989824542866 L527.1630212393566,387.0284144867332 L528.6667031787189,393.6431473870004 L531.4253852510735,402.1692084662493 L531.9691132683897,413.90035974338224 L532.0523584493346,420.77306331811326 L531.2999906114209,426.14745236944316 L529.6698602959382,431.10752488299744 L527.538151421846,436.4311015287514 L527.538151421846,437.8773007643818 L528.0818794391621,439.1697599010891 L532.5117875492376,441.856302985657 L539.5749830920147,443.3559203912524 L541.2051134074973,443.976092315721 L541.7488414248148,445.4222915513517 L541.9574812454132,451.6748232016138 L541.5812973264553,463.5089021720934 L543.0312387059665,472.466217257643 L540.982775012819,472.16916011735145 L539.3758268996273,471.52293054899764 L536.0818467016976,469.58554472613025 L530.3368754799718,467.0527417404852 L524.6329999804863,465.6130569158263 L521.1788518394709,465.1661683231944 L517.8047876699983,465.36420641672214 L514.5508494578403,466.90421317033974 L511.65834285409255,468.9406180399706 L503.3032664019537,471.7717810481014 L498.1209904539634,474.1052430580243 L495.2685258359873,476.2914793799955 L494.02406306767165,477.53312611112705 L491.9745456380566,480.2144576669181 L488.0377861948496,480.01641957339 L486.3907960958843,480.3642891192577 L481.0483522048093,483.9902102658882 L479.7227517284831,484.4370988585201 L475.3044347195512,484.7849684043883 L468.1537790499585,484.4370988585201 z"/>
	<path id="bingol-yayladere" title="Yayladere" class="district" d="M6.835329660255918,249.846645370718 L10.921719681870941,247.27996744802212 L13.889041574824075,244.59342436345463 L15.603470807719226,242.4228226278143 L16.062899907623116,239.73497666105214 L15.519171890306694,235.911017420894 L14.098735131890303,233.9996892419118 L10.796325042219319,232.34502885519962 L7.996547247626662,230.02068702063653 L7.035539589112094,228.21098365280696 L7.076635311352238,222.88870988924765 L6.700451392394238,221.95845200254485 L3.315849858246054,219.0647506490894 L3.1061563011798183,216.171049295634 L2.3959379219716164,213.89751986664712 L2.019754003013623,211.15886149430887 L2.061903461720407,209.14330273978595 L2.5213325616232543,206.71473032968208 L4.903830715019834,200.6159387783428 L5.530803913283177,197.30922376930647 L7.745757968321314,194.41552241585086 L9.125099004498606,190.1264342323411 L9.709922744054133,186.2503597044125 L10.880623959632866,182.06419921424944 L11.67408751978593,178.08519699297398 L11.507597157895175,173.12512447941953 L12.468604816408716,170.9545227437795 L15.937505267970455,167.44064946585544 L18.44539806101968,164.44271753685905 L19.364256260827464,163.92677618793147 L22.331578153778537,163.56457493792666 L28.057582119086234,163.40953195680956 L30.31468563283014,162.8922877256875 L33.073367705184715,162.8922877256875 L34.95428729997164,162.58220176345333 L38.79937167049242,160.51583060335395 L40.72138698751846,158.70743011771881 L44.524321899331404,155.55445520760534 L45.06804991664681,154.67631260867287 L45.48638329431157,152.60863856637937 L45.69502311491016,149.55989423180702 L44.98480473570196,147.59645076505447 L42.519061401358464,144.80567710494563 L38.5064329324803,141.4989620959094 L34.744593742905415,138.70818843580062 L33.282007525783264,137.106946219053 L32.23670094985721,134.88422919564243 L32.11130631020456,132.45565678553834 L33.86683126533777,131.16319764883073 L36.374724058388026,131.00815466771365 L38.46428347377352,130.49221331878582 L39.55173950840739,130.80229928102028 L41.45373383254667,129.6635802432355 L42.81937629464425,127.73792036011645 L44.99218089097666,129.0629515516808 L48.3019671359203,130.01926708226887 L52.002689610370375,130.2394541730993 L55.166006486307964,130.7983906344375 L55.89835333133825,131.2218273475726 L57.64544839473113,134.39043684401724 L58.45998668423862,135.16174310302014 L60.17230844419739,135.85878507695014 L62.85301401794547,136.50762040969258 L66.20284224866158,136.7460478512424 L68.80241011439807,136.59751928109662 L71.52526514685083,138.132314505937 L72.65592437665917,139.46907163724958 L76.47677280842251,140.42408428564354 L84.94459906260104,143.42071333244536 L91.12160223607128,146.26881380910172 L97.35445344232595,150.49536364728684 L101.0499072344366,156.53161685330164 L107.32490789939908,159.98555755028937 L108.76958059657186,159.98164890370674 L112.66524431753979,163.55675764476106 L114.00032842207493,164.2212275638345 L115.75585337720814,165.71954208723548 L117.72001815294202,169.64642902074053 L118.47238599085698,172.48931796861984 L119.55878828902112,175.02081807207048 L120.6873400458941,176.31327720877806 L125.24264279562203,178.48387894441825 L128.71154324718478,180.8095236611755 L131.55347050048525,181.06749433563922 L135.90013342961362,181.01537904786883 L141.16670829501848,182.15279520345922 L142.33635577412954,184.0133109768649 L142.7968386105011,185.45951021249562 L142.96332897239185,188.45744214149204 L142.7968386105011,190.78308685824928 L141.54289221397644,196.00243292846181 L141.62613739492136,197.81083341409723 L142.4206546915431,201.84195092314312 L143.25626771040396,204.32133573882314 L144.13403018797166,206.0268085311119 L147.64402636177243,211.29826988909483 L148.7725781186454,214.03692826143322 L149.74306940536695,217.76968574799315 L147.2351766123177,217.65633499709227 L140.79895426780286,216.2609481670382 L139.83689287282166,215.53784854922267 L137.12036025917388,214.6075906625198 L133.66726585462715,214.50466296917327 L124.74527918288308,211.80118241608 L123.33221857974038,212.6402385491846 L117.2437292695554,214.04995708337583 L105.21111254525724,215.84923739365132 L102.53251444444551,216.4212026769323 L96.19218211848752,219.79566756007029 L86.51361266295883,221.89461077502597 L81.38823848422274,225.69642101788168 L76.67066031847268,230.1653069441998 L72.21335506023902,234.00359788849465 L63.37566730590953,236.53509799194538 L56.72342898552241,239.83008706123346 L45.96688712356887,248.70141192196166 L36.34521943729431,253.34358118011662 L18.553932917190675,252.8380628887429 L13.570813161588928,254.2946851819276 L6.835329660255918,249.846645370718 z"/>
	<path id="bingol-yedisu" title="Yedisu" class="district" d="M332.7981685686212,123.06057328271687 L329.83084667567016,124.09375886276649 L323.6875630691653,122.75048732048258 L319.9257238795915,122.95764558937003 L311.9015206783017,121.61437404708629 L305.54854351473284,117.17024288245945 L304.2535013959681,116.75592634468406 L300.24087292708884,116.80804163245459 L297.73298013403956,117.32398298138244 L295.7688153583069,117.4282135569232 L292.59285364475613,116.91096932580142 L289.20719837413924,115.67062547686419 L286.15557756377365,114.9996411468193 L278.4243131004951,113.96515268457559 L276.5012440470003,113.03489479787267 L270.44120562144246,110.65843767553915 L268.39379566476475,110.5033946944219 L265.3843243131058,108.28067767101136 L262.4580981423908,102.2874195774071 L260.1598989064088,99.49664591729866 L258.8227073289383,98.56638803059573 L255.35380687737558,96.86091523830694 L254.0998604808499,94.43234282820308 L252.13569570511712,93.65712792261735 L247.41284885703072,93.55420022927052 L244.1947376847723,94.3802275404325 L241.89548471232158,93.60501263484682 L237.76905270493404,93.36267654671423 L236.08623556606804,92.15881339921623 L235.12522790755546,88.85079550798565 L233.07676421441013,86.83523675346274 L231.36338871798165,86.06002184787691 L225.4708943907832,84.25162136224161 L222.25278321852574,83.68356472554353 L219.20116240815904,81.66800597102046 L215.48147267729198,79.85960548538534 L213.8102466395713,79.34236125426324 L210.00625799129062,79.2915488486871 L206.49626181748874,79.85960548538534 L202.19069461059743,82.96046510772825 L201.14644177113905,83.37347876330922 L196.00526154538792,83.37347876330922 L193.7903074903498,83.01127751330453 L186.22553338896296,83.47640645665574 L183.13281685635815,84.2008089566653 L179.62176694608866,86.16425242341785 L175.81883203427464,85.43984992340827 L173.67658579550573,85.72778688834028 L173.4215815703307,84.42620757627277 L172.00009107544665,81.94551987839833 L169.36680364274474,78.27660361935703 L168.19294121776298,76.91900037293638 L165.94005264988877,73.54062684321573 L164.6018073359516,70.02675356529167 L163.64079967743808,66.77085096183136 L162.26145864126076,65.1683058628896 L157.32997197257583,60.82840527380355 L156.28466539664876,59.3287878682083 L154.5712899002213,54.161557085766006 L154.27940489867788,51.112812751193644 L154.23725543997003,48.11618370439151 L154.73883399858073,46.875839855454274 L157.287822513868,44.550195138697056 L159.1265926499482,42.172435134169426 L160.7567229654308,38.193432912893826 L163.3900103981337,36.385032427258515 L168.57228634612406,33.74930174826699 L174.5912290494428,31.682930588167785 L176.47214864422972,30.494702027001257 L180.06644373544412,29.254358178064038 L184.7471411248248,29.202242890293487 L190.63963545202319,29.564444140298182 L198.12116437246416,29.4094011591811 L202.1337928413433,30.132500776996245 L205.81133311350462,30.23542847034308 L207.98519144630265,29.977457795879175 L212.83237919757502,27.70392836689249 L215.13163217002673,25.688369612369407 L216.3012796491378,23.82785383896372 L218.2243487026315,21.50220912220649 L219.4519516874644,20.465114895574107 L223.25594033574504,24.72944831739284 L230.02725087697877,29.031565322845243 L231.50037445877865,29.263478353423725 L235.57517337924935,28.527349913665777 L245.88809218831503,27.830307939735757 L248.74055680629215,27.868091523369266 L255.54242570508734,28.566436379493705 L258.1757131377893,28.25635041725939 L259.8996259988934,27.210136015267143 L261.96811068492667,24.380275889330786 L268.4254077587948,20.34915838028478 L271.30948447080107,19.420203375776122 L274.38112627405343,18.760944985479597 L279.1461225808466,18.915987966596987 L284.8194397227708,19.61302994052701 L289.17664001657687,20.34915838028478 L295.4453182627333,22.558846581752693 L302.4642568738684,24.547044810196223 L300.92369415813766,27.121540026057367 L298.9152724507637,31.858819684393236 L298.35679212290006,35.03264070961493 L297.1291891380661,40.413544171915994 L296.57176254667087,43.909177099120214 L296.6455240994068,50.256819149563604 L297.0923083616987,52.923819001217474 L297.0174930724931,54.810392418508584 L295.93952066606926,58.58223637089641 L295.1207674306921,60.1000941272112 L293.074411210481,62.35277744108998 L291.9216235148518,64.33055261197924 L291.40107769982404,66.49333705445366 L292.8510190793352,69.57465344388294 L294.48852555009046,71.23061671278951 L299.3610029765869,72.61036895651269 L302.18817791933895,74.03572207703517 L305.350441058811,76.10600188371718 L307.9173430940497,79.00361188375511 L309.4800342756004,82.36113929836766 L310.26085299814247,83.2809741275165 L313.34830084840996,83.8789970546828 L316.0637797255901,83.46468051690738 L319.89621925849775,82.22303378577604 L322.20179464975445,81.71751549440265 L324.9552080397707,81.99372651958592 L326.2565725773404,82.54484568775874 L332.76655647459216,83.51158427590101 L336.89614969138273,83.5571851527001 L340.987808395337,85.07504290901524 L346.75385434641515,86.22548788654807 L345.00359807361923,87.50752396570175 L342.116360152209,90.45855213570466 L340.5009821472747,92.9327254226078 L337.6527324751683,96.12087815196622 L335.72860968520706,97.78596159623297 L332.572668964541,99.21392048114389 L331.37983928314117,101.21254176714122 L330.918302710303,105.11337105676101 L330.9562372231391,108.20641338593835 L330.5716234124408,111.82321435720924 L330.918302710303,115.63023612884201 L331.7265185810045,120.38836190228596 L332.7981685686212,123.06057328271687 z"/>
	
</g></g></svg>