<svg xmlns="http://www.w3.org/2000/svg" version="1.2" baseProfile="tiny" width="600" height="600" stroke-linecap="round" stroke-linejoin="round" style=""><rect id="backgroundrect" width="100%" height="100%" x="0" y="0" fill="none" stroke="none" class="" style=""/>































































































































































































































































































































































































































































































































































































































<g class="currentLayer" style=""><title>Layer 1</title><g class="city city-27" id="gaziantep" title="Gaziantep">
	<path id="gaziantep-sahinbey" title="Şahinbey" class="district" d="M300.0133051389223,404.9514992662069 L291.0879438101175,402.68634217099606 L285.6226616900358,400.8087369862853 L283.76586146110196,399.90937988100325 L281.52303758799883,398.38382566842563 L276.5833483015118,396.1541695115813 L275.0763543954406,395.8800233764185 L272.5543921434868,396.1541695115813 L269.3655011699144,397.1324175910105 L268.03429377457417,397.0929721039369 L264.5662644221511,396.42831564674407 L259.10009895276926,394.78541111012174 L256.2618976513588,393.68981270664807 L254.40509742242494,392.51630946620367 L250.2710226976817,389.19204104306243 L246.48675429580106,386.92293939914407 L244.98064373903094,386.41507875306945 L243.33408064353438,386.37563326599576 L236.92184807368338,386.68823875105534 L235.13659913806254,386.3845085005874 L233.0333444543838,385.59362648475843 L231.70213705904456,384.654823892403 L230.65095139185533,383.12926967982526 L230.15980918096784,381.17375965814347 L228.89926972964054,379.37504544757985 L226.72623045125098,378.0841918830911 L225.39502305591083,376.7144473444545 L224.5196238994535,375.42457991714264 L223.6786753657034,371.98197503278027 L223.7837939324216,370.0659104981723 L224.69452706088532,368.03150950234306 L224.94009816632905,365.60659818448346 L224.62474246617265,358.4097690678759 L224.27405279400887,355.5933612908091 L223.5735567989843,354.10725256530526 L220.7000215255674,352.6211438398012 L218.142725301608,351.79969157149014 L216.11102191124235,351.56499092340124 L213.2728206098319,351.6823412474457 L208.57781907948848,352.03439221957916 L206.85970469068067,351.7286896947575 L206.38446276719472,350.84412464712847 L206.6477008586412,349.90137750606533 L204.69461555599003,348.1924017785948 L203.79713266702908,347.8975467627184 L203.50651074727782,346.7191128363896 L202.18678689284002,345.65802923410564 L202.16028641383542,343.41851170549273 L200.78756160138846,342.50534867973505 L199.8379611037176,342.74103546500083 L199.20371630620403,342.29825987259795 L196.93439195409536,342.0043909938985 L196.27364667757814,341.266760385619 L195.5086661836392,341.2085782921852 L193.76670136372644,341.6799518627166 L192.63601425952342,341.55569857843443 L190.57957708875352,341.955084135056 L190.82426484489798,340.6583137475062 L191.74118141846205,339.8841960636837 L192.85596823526365,339.57947967603894 L194.21985955470788,338.3625863998134 L195.93002379981584,334.1014876586704 L195.60760130525796,332.3027734481068 L194.91328875533281,330.8087756251881 L195.2109774694865,329.619494189914 L195.73127020728,329.2871659613178 L198.38308480635627,328.5672858222216 L201.82814707697554,326.07728945069033 L203.0427523646942,324.39000874111025 L205.52143050093903,323.2273530096112 L207.47893255009112,323.4492338744009 L209.51151928975605,322.92362275914326 L211.04766372273244,321.90001236957903 L212.06439876721453,320.90401382096655 L212.53522394419957,319.07768776945136 L213.22953649412474,314.51187264066357 L214.59254446426877,312.74175640822864 L217.41749552617645,311.57910067672935 L219.50838331965352,311.42822168867224 L223.3412359330424,310.16793837666535 L227.03363600770575,309.80898444429425 L229.4628465831431,308.61871687184356 L231.04934192622713,308.5634931899401 L233.40346781114977,308.89582141853674 L236.03054862982276,309.5318798976012 L238.23627183231912,309.0614924642463 L240.26885857198405,308.0931057565856 L245.1016625931524,306.8476145022317 L246.21733275925425,305.7411685898127 L246.86129439906887,304.3023944487972 L249.56257655895547,302.78078478492677 L254.96602422802601,301.09350407534663 L255.78400567997227,301.23156328010487 L257.7167739487202,302.36562103347535 L260.1212507437524,304.1919470849906 L262.27750638544023,306.37821320605383 L265.67310109525,308.3702103032787 L268.52278593756296,308.8405977366335 L270.35661908469206,309.33859701093974 L271.86891308656345,310.0574910128588 L275.8590018753804,311.0258777205199 L278.3129462312221,311.4962651538745 L279.3782654872133,311.4962651538745 L281.65819003092327,310.58310212811676 L282.9222628794504,309.5042680566495 L283.91426414352827,305.9078257726993 L284.5582257833447,302.19994998776565 L285.57407747852665,300.5955048010404 L286.2683900284518,300.26317657244385 L291.15066161042955,299.3224017057349 L292.63822183189575,299.51568459239616 L293.5304046250575,300.20795289054075 L295.537374235018,303.05788933161983 L298.16445505369006,306.32200338697385 L300.8666205628758,306.9590480032149 L302.03087494048407,307.42943543656975 L303.1218113261808,308.286388643247 L305.12966428544144,310.3345955595522 L307.037698773785,311.85620522342236 L308.4749080851426,312.6027110662934 L310.23453989105906,314.42903711780866 L311.6973663321211,317.33419724079124 L312.83688692932685,320.23935736377354 L313.060374302268,321.457236777176 L311.94470413616614,325.5516783354324 L312.8121531489227,327.8483918203022 L313.1345756434806,330.7811637842364 L312.0445226070851,334.2671587043801 L310.7053650680432,336.01064923304017 L310.5816961660221,337.9198108074102 L311.3007424963515,339.0262567198293 L314.73432122606846,338.76098581925845 L316.18213072902813,336.6437493005743 L317.75095908611036,334.89236967449915 L323.20652436389094,324.40381466158595 L324.1287410332561,324.2697000055352 L325.94667389298286,324.61287574307687 L328.1250132671744,324.0754309816969 L331.1584347639199,324.29928412084064 L333.75106495988575,324.00147069343365 L336.678484540612,323.2253807352575 L338.40278237452196,323.50840210501156 L339.4045004809019,323.18001842512257 L339.91242632849287,322.44929077708116 L341.03516328899514,321.8822619003959 L342.6393256180829,321.50950204754884 L344.20285387936406,321.6436167035995 L346.1541724834158,322.74809034166475 L347.4102951882412,323.92652426799356 L350.25732998265255,325.03001176888193 L351.4330679011641,324.7174062838224 L353.1935830563798,325.4570091664553 L353.3358022937048,327.2074026553536 L354.8569297885781,328.0821063312144 L356.44872522746414,330.92020912617124 L359.96533879139736,332.06116983977984 L363.7186899677715,332.458583122048 L368.32888996530005,330.8679438557988 L370.8234683889492,330.4695444363538 L373.84098959829146,331.00008623749574 L376.97687961385463,329.85912552388714 L379.03508348322396,329.6234387386215 L383.7230182191669,330.61450660134983 L388.8764780362927,332.12329648192116 L389.76336073365235,333.5374171935154 L389.48068895760184,334.95153790510983 L387.9365943809238,335.32035320924945 L386.46493444685996,336.45441096262016 L385.3792981569644,338.6051761453169 L384.88815594607604,340.32697165608664 L383.8025196561815,342.3998320018129 L382.26107512740396,344.62948815865724 L380.68429662662004,345.72410042495403 L376.68979109130316,346.6629030173097 L374.2720640567692,348.0711069058429 L371.4691967273642,348.6184130389912 L368.3863076698102,348.4231578779761 L366.91464773574535,349.59666111842046 L366.03924857928905,351.5521711401025 L365.9685806352762,353.6644769729024 L366.31927030743896,356.5972489368364 L365.4085371789753,361.1739115745695 L365.0578475068115,363.75561870354716 L365.0225135348061,369.30954328353306 L365.3034186122561,373.7294101101478 L365.7583435018389,377.60197080361434 L365.7583435018389,379.9874366344002 L364.98806291209974,383.6252966797777 L363.55173695004146,389.13977577268963 L362.78057301100387,390.9779354703269 L361.4140316436574,392.38613935886013 L358.7860674756852,394.06848938255615 L356.9292672467503,396.4539552133417 L356.1934372797193,397.9400639388457 L354.2668524560727,401.1085226880457 L353.60080708375256,401.96942044343047 L351.07884483179964,404.19809046309797 L349.9225405978931,405.8025356498232 L349.11604268684744,407.79650502140197 L348.80068698669095,409.8703515043048 L348.9058055534092,412.0605621740755 L349.25649522557296,414.3681231678907 L350.16722835403573,417.2624357819279 L350.6451203254222,420.31058579555275 L350.08949361562225,420.7168743124126 L349.10809254314574,423.10332628037503 L348.12757481996925,427.79635310497576 L347.46152944765004,429.08720666946454 L346.5861302911927,430.0654547488938 L343.29212075090027,432.6856212277685 L342.34605365043114,435.2673283567462 L342.2762690557174,438.86574291505013 L343.04743299475683,440.93860326077635 L344.7637806849651,443.5597558768277 L346.02520348559176,446.9619291369397 L346.41034378046163,448.48748334951745 L345.81496635215353,451.65594209871716 L344.62421149553984,454.1982037406211 L343.993500095227,456.11426827522916 L342.1711504889994,459.04802637634026 L340.1041131266272,460.88618607397757 L337.75705403610516,461.6297335053179 L335.33932700157106,461.51238318127344 L333.657429934069,461.1208867220663 L332.2211039720097,460.0647338056663 L330.32896977107134,457.56191765083634 L327.5614364136736,455.6064076291544 L325.80887140215873,454.82341471074034 L321.9901523775728,453.68935695736957 L318.7668107812932,451.9685475837768 L317.1900322805094,450.1698333732133 L316.45420231347737,447.8612862422215 L315.64858775173184,444.6938136301984 L314.9127577846999,443.4029600657096 L312.7061512329034,441.9168513402056 L311.19915732683216,440.2739468035834 L309.1674539364674,436.79288256932404 L308.6065271308663,435.42412416786453 L308.5367425361537,433.1165631740494 L308.88654885901724,431.86416895945746 L310.67356449323745,428.96985634542017 L314.3173803563935,422.32131949913787 L315.088544295431,421.1478162586934 L315.12299491813815,418.64401396668626 L314.00202465623533,414.81089876029347 L311.89965332185864,410.46992290782595 L310.8484676546693,409.0222735322191 L309.3776910699057,407.6929606178332 L305.9087783681824,406.3232160791971 L300.0133051389223,404.9514992662069 z"/>
	<path id="gaziantep-sehitkamit" title="Şehitkamit" class="district" d="M389.48068895760184,334.95153790510983 L389.76336073365235,333.5374171935154 L388.8764780362927,332.12329648192116 L383.7230182191669,330.61450660134983 L379.03508348322396,329.6234387386215 L376.97687961385463,329.85912552388714 L373.84098959829146,331.00008623749574 L370.8234683889492,330.4695444363538 L368.32888996530005,330.8679438557988 L363.7186899677715,332.458583122048 L359.96533879139736,332.06116983977984 L356.44872522746414,330.92020912617124 L354.8569297885781,328.0821063312144 L353.3358022937048,327.2074026553536 L353.1935830563798,325.4570091664553 L351.4330679011641,324.7174062838224 L350.25732998265255,325.03001176888193 L347.4102951882412,323.92652426799356 L346.1541724834158,322.74809034166475 L344.20285387936406,321.6436167035995 L342.6393256180829,321.50950204754884 L341.03516328899514,321.8822619003959 L339.91242632849287,322.44929077708116 L339.4045004809019,323.18001842512257 L338.40278237452196,323.50840210501156 L336.678484540612,323.2253807352575 L333.75106495988575,324.00147069343365 L331.1584347639199,324.29928412084064 L328.1250132671744,324.0754309816969 L325.94667389298286,324.61287574307687 L324.1287410332561,324.2697000055352 L323.20652436389094,324.40381466158595 L317.75095908611036,334.89236967449915 L316.18213072902813,336.6437493005743 L314.73432122606846,338.76098581925845 L311.3007424963515,339.0262567198293 L310.5816961660221,337.9198108074102 L310.7053650680432,336.01064923304017 L312.0445226070851,334.2671587043801 L313.1345756434806,330.7811637842364 L312.8121531489227,327.8483918203022 L311.94470413616614,325.5516783354324 L313.060374302268,321.457236777176 L312.83688692932685,320.23935736377354 L311.6973663321211,317.33419724079124 L310.23453989105906,314.42903711780866 L308.4749080851426,312.6027110662934 L307.037698773785,311.85620522342236 L305.12966428544144,310.3345955595522 L303.1218113261808,308.286388643247 L302.03087494048407,307.42943543656975 L300.8666205628758,306.9590480032149 L298.16445505369006,306.32200338697385 L295.537374235018,303.05788933161983 L293.5304046250575,300.20795289054075 L292.63822183189575,299.51568459239616 L291.15066161042955,299.3224017057349 L286.2683900284518,300.26317657244385 L285.57407747852665,300.5955048010404 L284.5582257833447,302.19994998776565 L283.91426414352827,305.9078257726993 L282.9222628794504,309.5042680566495 L281.65819003092327,310.58310212811676 L279.3782654872133,311.4962651538745 L278.3129462312221,311.4962651538745 L275.8590018753804,311.0258777205199 L271.86891308656345,310.0574910128588 L270.35661908469206,309.33859701093974 L268.52278593756296,308.8405977366335 L265.67310109525,308.3702103032787 L262.27750638544023,306.37821320605383 L260.1212507437524,304.1919470849906 L257.7167739487202,302.36562103347535 L255.78400567997227,301.23156328010487 L254.96602422802601,301.09350407534663 L249.56257655895547,302.78078478492677 L246.86129439906887,304.3023944487972 L246.21733275925425,305.7411685898127 L245.1016625931524,306.8476145022317 L240.26885857198405,308.0931057565856 L238.23627183231912,309.0614924642463 L236.03054862982276,309.5318798976012 L233.40346781114977,308.89582141853674 L231.04934192622713,308.5634931899401 L229.4628465831431,308.61871687184356 L227.03363600770575,309.80898444429425 L223.3412359330424,310.16793837666535 L219.50838331965352,311.42822168867224 L219.12765977128444,310.0811583051033 L217.91040443566612,307.36533652007466 L215.38844218371318,304.764892784737 L213.9264990919504,302.57073756625897 L214.37965728293184,299.32141556855794 L214.522759869557,296.73872230240346 L213.50867487297546,294.2447813821647 L212.01581455570627,292.8878566268275 L208.98857650406288,289.1484244522348 L206.59293320203162,286.80930706876086 L203.6920141003109,284.91395141486646 L202.38024038957474,284.27394838709466 L198.89719409904947,282.1438920851118 L196.77362238146648,280.5986151289972 L196.15351117275588,279.9063468308527 L195.72420341287855,278.28217890059045 L196.55896850152828,277.1362875010978 L201.13118447915076,276.8710166005266 L203.83511668693697,276.1245107576558 L205.1716241780764,275.3523653481868 L209.56540359706634,273.42249489310313 L210.84802678089642,270.88417779990647 L216.0509541588317,270.45816653951 L217.1136233669224,272.5339852967666 L218.36886272244774,274.19365416539506 L220.46416726242478,275.6245392089959 L221.9225769569868,275.2350150241424 L226.19710422045563,276.0170218053796 L227.59897955980773,275.70441632032004 L230.9618903455117,272.30125692303125 L231.52281715111184,272.06655627494246 L232.4335502795765,270.2283965773052 L233.4502853240586,269.25014849787595 L237.23367037663905,267.764039772372 L238.1099528823965,267.09938331517895 L240.3165594341921,264.59656716034897 L240.94727083450587,262.05331938126807 L241.01793877851966,260.56721065576403 L240.80770164508144,257.2034967455492 L240.94727083450587,255.7952928570158 L241.96400587898887,253.1356808910674 L243.15476073560353,251.2975211934302 L246.3083177371695,249.30256568467468 L248.83116333842258,246.05620209850423 L250.4070584899063,244.7268891841183 L252.7196669577212,243.94389626570427 L253.91130516363603,242.5366785143479 L254.68158575337512,240.85432849065188 L256.29369822616457,239.4461246021187 L258.85099445012486,238.07736620065913 L260.56822548963237,237.33381876931873 L263.05573711887916,236.55181198808145 L265.8930550709904,236.0045058549328 L267.71540467721707,235.33984939774 L270.5536059786266,232.21083613561393 L273.14623617459335,227.28212252574758 L274.8979178368081,224.1925547506949 L275.38817669839625,222.90170118620608 L276.7900520377493,220.6720450293617 L278.5417336999632,218.36448403554684 L281.5195041907989,215.19602528634695 L285.7242468595532,212.77111396848738 L287.3708099550498,212.30171267230972 L291.294647546355,211.5197058910722 L295.60450878182917,211.9102162131025 L297.9869018443586,212.5758588074722 L302.78702194142124,213.70991656084294 L304.3629170929049,214.45346399218334 L310.00398572371853,217.6603820912801 L315.4348172210939,221.14144632553965 L317.7120917169033,221.8455482698061 L321.4610261467765,222.51020472699923 L322.89735210883487,222.54965021407287 L325.70021943823804,221.80610278273247 L327.20721334431005,220.82884084048007 L328.25839901149834,219.6553376000357 L329.6593910015504,217.07363047105807 L330.35988699657685,216.44743336376203 L331.7264283639216,216.09538239162856 L335.580481360514,216.25217820274688 L337.998208395048,216.72157949892454 L339.50431895182,216.56478368780648 L341.36200253005404,215.39128044736205 L342.55275738666774,213.78782139781367 L344.0942019154443,209.75945103040576 L345.5314112268028,208.93799876209457 L349.45524881810786,208.31180165479856 L354.71029380475306,208.74274360107944 L360.5262655969984,209.6026552192877 L362.8035400928069,209.6026552192877 L364.4677701743061,210.14601680372857 L366.8581133805354,211.5670404755609 L368.4728759012264,212.98806414739323 L369.4348432890989,214.23552767610087 L370.67683240512235,215.03232651499064 L373.1599272878691,217.73532851672022 L376.109430601099,220.3002713136915 L377.19595024029377,220.92449614663406 L378.0024481513385,225.63724571477144 L378.7789121861779,229.55319644401936 L378.5616082583392,231.35486906611322 L378.93438166300666,233.40011757088786 L379.7408795740506,235.0637309882237 L380.42370858307515,238.00932273545686 L381.7275321501078,240.64329513480726 L382.6903828872813,241.30104863176223 L384.6461182378322,241.8207429239592 L385.2361955703384,242.72207230359453 L385.2980300213503,245.14796975863067 L385.8253895535454,250.79656350759336 L386.49320162446406,251.9868310800441 L387.2793825016064,254.89790802608798 L388.3553019492,260.0731559301654 L389.30755249477045,261.4133163534963 L391.4187573221509,263.722849621665 L393.7781833028746,265.34011459168937 L398.6622215834518,265.9870205796989 L401.80782844131704,263.86189496360015 L404.4976270603013,261.04351491217994 L406.3606107343354,260.0268074828536 L410.41695072066443,257.3464866361917 L412.1553821433772,256.37612765417714 L413.64559241274503,255.8219185607906 L414.39025587277877,254.94425647339943 L414.8460641116608,253.78850370213826 L416.1543044251953,251.70972653335093 L417.6445146945639,250.04611311601508 L418.70011710825315,247.9663498100512 L420.5631007822874,246.5808270765853 L422.115145502667,245.95660224364298 L423.91541137639,246.09564758557786 L427.9823515543212,247.2730953747298 L429.37892679787217,248.0363655496069 L432.1111261832634,249.9070677740802 L433.07309357113684,250.98195729684 L433.35223194998673,252.81814472012377 L433.10401079664155,257.4618646858823 L433.5200683170169,261.2279225642497 L430.98220577766074,262.69628082057056 L429.16780631513564,264.06010853614566 L425.2784193465359,267.82320800298265 L422.61158780935557,269.76688437854233 L422.09306177016333,270.7589383784473 L421.64873707218385,273.2400595153868 L420.9076070093498,274.93522932238164 L420.9076070093498,276.17578989085143 L421.6116364015761,279.02967088063804 L422.5373864681429,279.9388893576885 L425.64854270330284,281.1794499261582 L427.0195008171486,282.3371749717732 L427.90815021310766,283.74340658595264 L429.1307056445279,289.07742257550194 L431.6491344992811,290.1523120982621 L433.4273166405004,291.68279699672416 L437.5022069621323,297.30673731626564 L438.50215836991174,297.80276431621814 L440.87218454223876,298.0098531233553 L443.7245194324513,299.2494275546485 L444.87287352265696,299.12616040754284 L446.4284516402374,299.58076964606784 L448.5025557970091,300.77991245311017 L450.3920399500489,302.1033085444351 L451.0960693422752,303.0953625443401 L450.540442632476,306.89987977260427 L449.0210818362033,310.9519174322564 L449.5396078753964,313.5158740920511 L450.2065365970159,314.507928091956 L452.2444234324828,316.41018670608827 L453.874202891275,318.7256367973181 L454.0588228950079,319.4287526044077 L454.0588228950079,321.99270926420235 L453.874202891275,322.94433163985684 L452.2806407537885,324.7223369697067 L449.9106145814626,326.0447469238545 L448.8364618324704,328.77437462935893 L447.6881077422627,329.76642862926377 L447.79940975408306,330.88372205062825 L449.3549878716625,334.2326439031906 L449.9848159226751,336.96227160869495 L450.021916593283,339.6909131770224 L448.7622604912557,342.0891987911071 L445.87282493043745,344.7359909737564 L444.98417553447655,346.96860554213134 L444.24304547164434,349.53256220192577 L442.1318406442649,350.23567800901566 L441.5391132638582,350.77312277039556 L440.3289247226405,353.7344927124581 L439.790081649543,354.36857891716886 L437.4076885870154,352.8430247045912 L435.5508883580825,351.004865006954 L433.5191849677168,349.5572156313468 L430.0502722659935,348.65785852606524 L425.4603893023674,348.1105523929166 L421.8519074112188,348.3837123909024 L420.23979493843035,348.3058075539317 L416.5261944805634,347.5238007726945 L408.29249565378313,345.45094042696826 L406.29524288612356,344.7468384827017 L403.5630435007324,342.67299199979857 L401.3202196276294,340.24808068193926 L399.5685379654145,337.2364177438573 L398.9378265651018,336.4149654755465 L396.5907674745797,335.04620707408696 L393.47254444501925,335.04620707408696 L391.2650545439226,334.7336015890274 L389.48068895760184,334.95153790510983 z"/>
	<path id="gaziantep-islahiye" title="Islahiye" class="district" d="M95.93576637114417,420.6675674535704 L92.89262803209658,421.33814073382416 L90.92894253784415,421.02454911158776 L90.29999783613077,421.4761999385825 L88.90872268838088,420.7612504853703 L87.64641653845504,420.7612504853703 L85.76841592631676,421.3430714197086 L84.38155752506778,421.47521380140563 L83.27383750266767,421.03835503206375 L82.20056810297567,421.27700022885983 L81.55483976455878,420.66165063050914 L79.1256291891233,420.33030853908986 L76.89163880902106,419.550274032206 L76.81302072130747,420.05616240392703 L74.69386575022635,418.348172813633 L72.88918313000148,417.34428516760596 L67.74897355237832,416.90742639826396 L66.97515956543846,416.1599344182161 L64.36662908206937,409.9857295539958 L61.722764626695664,405.75224265380416 L59.11335079402635,403.18927213118667 L57.13111496447005,401.6361060776573 L55.04376056819464,400.3156683978631 L53.4431316363067,399.733847463525 L50.38232631125637,399.6944019764514 L46.79946154981306,399.8502116503926 L45.477087647475656,400.08294002412794 L43.35528262849307,401.20910868008366 L40.433163143568834,401.7919157515985 L37.545494281348994,402.06310347523066 L35.7372782639243,402.41318217301045 L29.927489916780228,402.25737249906894 L27.597214462961645,402.0246441253339 L25.092035847712197,400.1993042109955 L23.144250640861223,399.22894522898105 L19.074660415030447,397.6363336883777 L17.439580860435328,397.6363336883777 L15.596030871005139,398.2960594596864 L13.160636850466517,397.67479303827486 L12.200436161194345,397.06240185145447 L10.416953924174809,396.8987030800985 L9.352518017482781,396.47367795687865 L8.150279619965762,395.1887412154509 L5.83237105635068,393.57936534284147 L4.150473988847667,392.2037039811441 L3.497678856030248,391.41282196531523 L2.703547835187104,388.878449420826 L2.2256558638014767,388.151666321492 L3.1019383695589515,386.6201952858531 L3.3121755029971762,385.3194803495958 L4.128390256343994,383.86098346504355 L5.5002317194898485,382.29302535386154 L5.663651340019248,380.06928602007815 L4.977288933796694,378.39186668226654 L5.7943870364436965,372.88626282394625 L5.6963352641260565,370.9534339573319 L4.226442028661635,368.1459014148568 L4.226442028661635,366.6144303792182 L4.847436586672429,365.48431717455503 L7.198912423695429,362.56732340545017 L9.288916867871391,360.8899040676386 L10.497338710488771,360.41655822275345 L11.803812325422859,359.43140718308604 L13.991868541916462,357.2806420003892 L14.318707782974334,355.4207872848616 L13.633228726051964,353.56191870651054 L13.535176953733396,351.70206399098265 L14.38407563118702,350.8628612534883 L15.461761777379957,348.89453144850773 L15.559813549698525,346.123485981576 L16.98907271735541,344.744866208348 L18.63033571704996,343.1700051369281 L20.5896044648024,342.80513438149586 L22.615124410065853,341.893943630092 L25.259872214742515,341.31015042140024 L27.154656463582455,339.9976018390207 L28.722601471363586,339.5232698569586 L29.604184072923093,338.83100155881414 L30.583818446798382,337.4089917498052 L31.95565990994517,334.4919979807004 L33.94849593110274,332.88755279397515 L34.86276245676813,331.3195946827932 L37.181554369685244,330.04353317595695 L38.58607975693605,329.05936827346676 L41.03560736627669,328.11169044651956 L41.7210864232,327.16302648239554 L45.18381567982292,319.94351621072053 L45.73855904032177,317.13598366824544 L46.3268696742276,316.2612799923849 L49.8213995056553,314.9487314100054 L50.53956248668448,314.51088650348663 L52.36897888731451,312.3236342452466 L53.806188198671194,309.6255629294014 L55.01461004128951,307.72922113833016 L54.981926117182695,306.52613378258053 L55.60203732589516,305.2865593512877 L58.3784041762946,301.38441454251574 L58.57450772092803,300.10835303567956 L57.9870804363233,298.03056200406917 L58.70524341735341,295.58790021702634 L60.82793178563431,293.1807393683501 L61.12208710258724,290.3002326747888 L62.00366970414582,287.52918720785703 L62.710349144271675,286.46613133121923 L65.90630691224645,284.2700038383875 L69.72502593683332,283.6053473811944 L70.66579294150237,285.11512339894284 L73.95891913249369,286.9138376095064 L74.93943685567008,287.6968305279205 L78.16277845194965,291.33370443612125 L86.25690808930459,295.47942512757356 L91.89709337081797,297.7485267714916 L96.90745060131874,298.922030011936 L100.65638503119291,300.13399260227754 L104.51043802778436,303.02830521631466 L106.6128093621629,304.7501007270843 L107.8742321627904,306.54881493764793 L108.89008385797231,308.7005662575215 L109.94126952516065,313.74564405425576 L110.04638809187976,316.210000859189 L110.04638809187976,324.5014422420937 L110.22129125331155,325.9490916177006 L110.22129125331155,331.65981200880447 L110.8873366256308,333.18536622138214 L112.63901828784556,334.2020736507085 L114.18046281662303,334.24151913778206 L116.0725970175624,333.73267235453056 L119.1908200471238,332.2850229789236 L123.67558444402896,330.6815639293753 L129.28131910283705,329.66485650004887 L134.46657949476867,329.5475061760045 L137.47968395761092,329.8216523111672 L138.7411067582375,330.52575425543375 L140.5281223924587,332.12921330498216 L142.55982578282433,333.26327105835287 L144.87243425063926,333.8500226785749 L146.90413764100495,333.88946816564885 L151.8093763047866,333.5374171935154 L154.82248076762698,332.3244684659973 L156.46904386312355,329.8995571481377 L157.69513269174277,329.0781048798268 L159.72771943140862,328.3740029355601 L161.30449793219253,328.09985680039733 L163.1612981611264,327.2793906692633 L164.94831379534762,327.2793906692633 L166.4544243521177,328.3345574484864 L169.85355245912925,329.8216523111672 L171.21921047717473,331.2288700625236 L171.95504044420665,333.5374171935154 L172.55130122181419,334.2020736507085 L174.72345715090444,334.67147494688606 L177.84168018046395,335.7660872131829 L181.06502177674352,338.07364820699803 L183.0967251671092,340.06860371575357 L184.8757906576278,343.65124007922805 L183.76100384082807,343.6749073714723 L181.2823257045823,344.4766368962464 L179.7700317027109,346.5800674944548 L178.40702373256687,349.26334675264746 L177.7383283123452,353.10928174233896 L177.19241844484822,354.4652203604997 L175.45752041933602,356.6505003443861 L174.7888249991162,357.89599159873995 L174.4664025045574,360.09606364027917 L172.8860906065746,362.77243993823384 L171.56636675213687,365.3659807133337 L170.82346999070344,368.6448868263399 L167.58864485352245,370.49192175856876 L166.51095870732763,371.63288247217736 L164.4474547421572,374.51733371444635 L163.90861166906072,377.0704428652953 L162.3839507769858,379.1452754853754 L161.38046597200648,381.53172745333796 L160.63668586127292,382.5484348826639 L160.2462454706018,383.85605277915937 L159.33551234213806,385.66068381278393 L157.68099910294075,387.61126314858143 L156.6775142979605,388.1299713036012 L157.7366501088514,389.1890826315319 L157.2905587122715,390.35075222585397 L153.77747854553994,391.7412056452042 L147.792787036965,392.8200397166716 L145.9147864248267,391.906876690914 L143.38664072777246,390.3921699872814 L140.9335797212311,388.33804624791543 L139.2605161467299,387.8400469736093 L136.99295849322345,387.5491365064401 L135.93293933303235,386.96830170927905 L134.94800486335595,385.18339341919125 L133.7024823501318,383.7722311191276 L132.01086844032673,382.4655993598092 L129.68765978091054,382.21610665406774 L125.93254190593599,381.30294362831006 L124.01832397249109,381.44889193048306 L121.54582928134658,381.9676000855029 L120.61654581757901,383.2742318448214 L120.4866934704566,384.54043197988915 L119.50087565147909,387.9850091386054 L118.33927132177146,390.8655158321665 L117.32518632518807,393.88901241637035 L116.86496133980613,394.41462353162837 L111.88817138271143,398.8966170003845 L107.27620468658253,402.50785134198725 L104.94504588346378,403.1222148031613 L103.31438307537049,404.2069656976895 L100.9302233142416,406.4948039479677 L99.97885611797035,407.0667635105372 L96.87299997861248,408.4157991684601 L96.04971843086419,409.17709706898364 L95.44639085885615,410.84071048631944 L94.83422979384626,411.3219454286192 L94.88899745045582,412.582228740626 L95.97905048685134,413.86026252181597 L97.0461364414439,416.5573477004843 L97.00638572293657,418.47439837226904 L95.93576637114417,420.6675674535704 z"/>
	<path id="gaziantep-araban" title="Araban" class="district" d="M598.2134785372169,165.94241785169473 L596.9820896127958,166.62975546395487 L596.1676415580483,167.56954419348733 L594.5740794205628,171.51212062650976 L593.1748541291113,173.02584119296546 L592.1660692283298,173.32365462037217 L590.1926668917754,173.08007873769174 L589.0937803623772,172.53080033018958 L584.8201364482095,169.62465407003043 L582.8396673172534,168.88998187328158 L579.8486465869158,168.39987169639014 L578.2462509564284,168.4994715512513 L575.7198719579736,169.39389797064885 L573.5132654061781,170.49344092283 L571.3764434490932,171.06046979951535 L569.997535191546,170.88493738203695 L567.2732859498566,169.59112540601774 L565.4474029464272,169.09509840606495 L563.034092658394,169.31993768238556 L561.01033941173,169.9648713960414 L559.6773653177904,170.7340583939798 L558.0873365775047,172.25961260655745 L557.3983241233807,173.50313158655788 L556.5874094658359,176.31756708927082 L555.7605945208868,178.1715049817375 L555.1130994838696,179.06888981266565 L552.3817834477795,180.93170293972392 L548.4438122676717,183.19587389775788 L546.4730599790176,184.91076644828968 L545.648011732669,186.60396398093107 L544.9422156418425,188.9874575373629 L544.0809500741881,190.7526430839137 L543.1057324468128,191.90938199235177 L533.5461263204944,201.5094274089285 L532.2467194999598,202.6503881225371 L528.1877294657313,205.11967561335442 L523.8036668890434,207.3631376906748 L522.6385291621341,208.24868887548072 L521.8187810115865,209.3196338495333 L520.3427043310207,209.20918648572672 L518.8922447801596,209.90835774410908 L514.8703554165387,209.5395424399695 L513.5850821848062,208.9882917581136 L512.1010553605398,208.84037118158716 L509.7274957910131,208.28912049973127 L505.96972786813706,207.88381812004835 L502.3762629150915,206.08017322360072 L499.44177653996485,204.05661973671656 L496.87123007650257,203.24700111452765 L495.0577139632768,203.17304082626438 L493.310449047563,202.39990927961878 L492.1894787856611,201.44335621808 L491.20101091878394,201.075527051117 L488.62958110602153,200.59725052034776 L487.4096757225028,200.55977730762785 L483.15634884223743,202.6582772199518 L481.24478095669394,202.76872458375843 L478.4092297031849,203.28348819007098 L473.6956778375377,203.39393555387753 L472.5420236515299,202.36342220407545 L471.6842914810753,200.33888258001477 L471.4210533896289,198.20488172932403 L469.3434158356554,197.72660519855478 L467.5634669958349,197.9839870017112 L466.7393020987863,197.76309227409808 L463.40995858648853,196.06989474145672 L461.13533413858045,196.25430239352684 L455.69566914820234,197.54219754648497 L452.86100124399354,198.83009269944318 L449.5970255799065,201.075527051117 L448.5749904396224,201.14948733938053 L446.16874694599073,201.77469830949966 L444.48684987848765,202.39990927961878 L443.06995760103337,203.43042262942086 L441.0753548812754,203.909685297367 L439.09753579822006,204.10592659555903 L435.3168007935393,204.20355417606646 L432.8116221782898,203.86037843852483 L429.2950086143576,203.02610638691456 L427.58131097204887,201.9955930371128 L423.9763624781018,197.62799148087046 L421.2953973521204,195.37072348307433 L419.0092893633092,192.9172141870865 L416.4599432830506,191.10173564451665 L415.1852702429212,190.51301174994083 L409.9107915716738,189.18862952143903 L408.6802859965518,189.13932266259684 L406.3941780077415,189.97359471420688 L404.0268018833161,191.29797694270866 L401.1249994322952,194.86779352288397 L399.64185595732795,195.935780085406 L398.02621008733786,196.34009632791202 L396.11464220179437,196.04622744921252 L394.43362848359163,195.08868825049714 L389.99568159959426,190.94987051928263 L389.21745086615545,189.27343731864764 L389.07788167672913,186.7893577701777 L388.37385228450194,184.5350481839123 L391.18290305900723,182.41978393958163 L392.9699186932295,179.99388648454521 L396.3337128282336,176.23966225230006 L397.770038790291,174.16680190657405 L399.1365801576367,171.54564929052248 L400.50312152498236,168.49552700254384 L401.1550333085006,166.35955387749962 L401.64529217008885,162.01759188785553 L401.5048396313623,159.55323508292201 L402.0657664369634,157.44092925012234 L403.46764177631644,155.68166052663247 L406.4100782951448,155.64221503955883 L412.5414057875465,155.72011987652925 L419.2318933869491,156.1697984291702 L421.5250681701609,155.86113749281813 L425.4135717894603,154.80498457641818 L428.77736592446456,153.28041650101713 L430.774618692123,152.06746777349906 L431.9309229260315,150.9718693700254 L433.2621303213698,149.13370967238822 L433.577486021528,148.11700224306188 L433.36724888808976,144.55803317183188 L433.5421520495197,142.52363217600237 L434.0677448831153,139.78611537308356 L435.04914595559194,137.71325502735726 L436.3450193789256,136.14825532770593 L437.7115607462704,134.93629273736443 L440.4790941036671,133.13659238962407 L443.7731036439594,131.4552285031049 L446.0848287624751,129.81232396648284 L447.73227520727187,129.30347718323128 L449.0979332253164,129.3429226703052 L450.7100456981068,129.73343299233525 L453.0226541659216,130.59433074772008 L455.22926071771917,131.22052785501606 L456.98182572923406,131.41578301603127 L461.6759439102773,131.65048366412006 L466.51139797934627,131.18108236794242 L470.4705695426578,131.10317753097166 L472.39715436630433,131.25898720491318 L473.3432214667746,131.96308914917967 L474.8502153728448,133.91859917086154 L476.9870373299285,137.6343640532099 L480.7006377877964,141.11542828746914 L484.48490618967617,143.34508444431353 L487.56779524723106,144.75328833284678 L490.9315893822353,146.00469641026191 L499.200622181021,149.87725710372834 L502.38862980529507,151.59806647732142 L504.7710228678226,152.41951874563233 L508.3795047589713,154.14032811922536 L511.42794319381915,154.84443006349184 L515.4568993518432,155.58797749483224 L524.7771178178182,155.8226781429211 L528.4200503316732,155.1570355485514 L531.1186824436573,153.82772263416578 L533.1857198060304,152.53686906967673 L536.6890831304589,150.5813590479951 L542.6455074614299,147.8823015949731 L544.4669737183564,147.1781996507063 L546.7795821861722,146.59144803048426 L548.8819535205507,146.3961928694691 L551.1936786390664,146.78768932867604 L553.296049973444,147.37345481172147 L555.257968769096,148.19490708003264 L557.395674075481,149.44730129462437 L559.9529702994404,151.20657001811423 L565.5242543355422,152.30216842158788 L567.275935997756,152.81101520483946 L581.0102509166244,155.9400284669655 L584.057806002172,156.1747291150546 L587.3518155424654,156.25263395202506 L589.7686592276991,156.83938557224744 L591.1705345670504,157.70028332763226 L593.2375719294225,159.69425269921095 L594.7445658354926,161.68920820796623 L595.5148464252318,163.05796660942576 L597.6870023543222,164.3103608240178 L598.2134785372169,165.94241785169473 z"/>
	<path id="gaziantep-karkamis" title="Karkamış" class="district" d="M578.2321173676256,419.0108569964724 L575.436316832623,421.238540878963 L573.4540810030667,421.46633856681393 L571.432094455003,420.03841193474375 L569.6433121221816,419.8766854377413 L566.639041152342,418.90928486725744 L565.0755128910608,419.22682103820114 L555.1537335516772,423.4820029562831 L552.0840947336259,423.90998649103364 L546.7998992200755,424.3596650436743 L540.6323544063672,427.61490386443666 L533.2855382769475,435.19632648001357 L531.7891445624784,435.838301782139 L523.8001334918436,436.9950406905771 L522.4954265755078,437.4013292074369 L519.5989242202871,438.72965598464555 L504.6561874588016,444.9827518230138 L495.1416321467915,446.9520677651711 L493.4535516341882,447.92735743307003 L490.7584529194038,451.2141526434913 L489.5305973921843,452.3058064982574 L488.32217554956685,452.8412789852839 L486.72331331627925,452.9763797785115 L486.493642498237,451.1342755321668 L485.58290936977323,446.90966386656686 L484.5670576745905,444.60210287275197 L481.1679295675808,439.43967475197337 L479.592034416097,437.24946408220285 L475.4570763420545,432.55545112042523 L476.4437775103312,429.3228934547304 L478.1848589809448,423.0757144394233 L479.42861479556757,420.26522348541783 L480.8278400870191,418.59865165655145 L484.3100030282443,416.1697957899845 L487.48122701581485,414.9893895893022 L491.4289150382249,413.66993804668493 L492.82814032967644,412.4560031819899 L494.84924352843996,410.13069171899195 L496.559407773546,405.5490983953743 L498.20685421834276,403.46637667787974 L501.9372383129131,401.45367069994103 L507.81327785757003,398.4341186644447 L509.24342037452607,397.4272726068868 L510.0516849841714,396.2478525433814 L511.17088854747203,392.2214544503273 L512.8501355670745,390.41682341670275 L514.311195309538,389.68806804301494 L517.1405631179448,387.9524666117693 L518.1661316554296,387.0501510949571 L522.2701725039675,382.1214374850906 L523.6375972206124,380.9420174215852 L526.0314738240434,379.4144909346538 L527.772555294656,378.61670595858686 L530.1045974470758,377.8524496465329 L536.2288581450761,376.88110452734145 L541.4211853314091,376.4294537003468 L545.6179778564637,376.3949388991571 L550.0638748841626,376.915619328531 L550.9348572941199,376.846589726152 L554.0742807068839,375.94427420933965 L556.7481790384637,374.90291335059226 L558.8311166882393,373.7915367522891 L561.2249932916692,372.0224066570308 L562.3751140804754,371.8133455755398 L563.4634004182706,371.1891207425977 L564.7689906839064,371.05007540066254 L567.2874195386585,370.0787302814711 L568.7679129657241,369.9258790190606 L568.6504275088034,372.05199077233624 L569.6229950882782,377.2775316724328 L572.5265642379004,386.39141146082517 L572.91435458067,387.4199525362734 L573.9001723996465,388.7729327429036 L577.9715293240787,393.5241416609381 L580.7160955996716,396.5022759350073 L581.3379735069834,397.5998466128347 L581.9050837576858,400.3985039207179 L581.9978354342023,403.3263451987678 L581.0508849844321,404.96234677515224 L578.8637121172395,406.99378935945094 L577.5130710372962,408.8871727389914 L576.3470499610867,412.758747295281 L576.3178994341816,415.4834443149013 L578.2321173676256,419.0108569964724 z"/>
	<path id="gaziantep-nizip" title="Nizip" class="district" d="M510.3370068081224,243.80485092376938 L511.1108207950623,245.36787834906693 L512.5277130725166,247.18237075445995 L513.7829524280428,247.96141912416675 L516.7315723919716,249.2483281399484 L518.6201731957111,250.5076253147783 L519.7040427870072,251.5765980144771 L523.098754147517,255.48860419501744 L524.1481731161049,257.0181029563026 L524.7674009755161,258.7103143517669 L525.1295741885814,260.6106006915453 L525.0165054781617,261.4330390970333 L524.2638918744261,262.5099008941469 L522.0378516380257,262.97239923008664 L520.4495895963403,262.73375403329067 L518.8922447801596,261.9754145442974 L516.3923662607111,259.5514893636146 L514.5072988541723,258.2024537056921 L512.7900678146648,257.475670606358 L511.2901407029941,257.5663952266279 L509.1259349176054,258.7625796221396 L507.81681125476985,261.9961234250112 L507.4378544050021,263.5828181425532 L507.4793718221098,266.6260374702941 L508.7655284031415,271.96597028290444 L509.34588889334475,273.3327564100102 L511.99593679382167,278.52871319480147 L513.0594893512116,280.302773975944 L516.9744934495156,285.43265956988654 L518.3224844815575,287.02527111048954 L520.8656471167149,289.5941584561683 L522.1376701089437,291.936234251173 L522.8487662955723,294.16884881954775 L522.884983616877,297.22094338188015 L522.533410595414,299.3184571570273 L519.6943259447041,304.7925046256887 L519.1333991391041,306.55078721200164 L518.0972304100181,311.0712400306545 L517.4250015925965,316.09166439796775 L517.3949677163912,317.3312388292606 L518.6784742495214,320.495753029753 L519.499105749369,321.70475720856393 L523.1429216125241,325.3209222360511 L527.1701110719481,327.9006570906749 L529.896127012238,329.50214386586964 L535.766866461093,332.72681243414956 L536.8949035173953,333.09858614981977 L539.5378846234707,333.4407757501848 L541.7930753867764,333.41119163487934 L545.0667678931646,332.92009532081124 L547.1143715709327,331.9812927284556 L548.8704699796483,330.4370019095179 L551.3235309861889,327.8365581741802 L553.0389953270978,327.08906619413233 L557.4954925463991,326.73898749635276 L558.7348316145219,327.0939968800166 L559.7047491460952,327.89375413043706 L561.2444269762723,330.4379880466948 L561.261210612975,331.68052088951805 L560.8548699349013,334.37760606818665 L559.3584762204332,338.1446500837309 L557.5502602030077,342.1907709203221 L554.7270758397012,346.4321469179281 L554.1405319043959,348.87678097932456 L554.0716306589833,351.2405517922198 L554.5698396642723,352.70693777418666 L556.1563350073582,356.0647348613406 L556.9893333974076,357.50843968824023 L559.0687376499812,359.71837310154797 L561.6198504288402,361.7823582126823 L562.9934585905866,362.4943492543639 L566.6355077551414,363.59783675525216 L567.5453575343047,364.4064692402643 L568.6548442553044,366.677543158536 L568.914548949551,367.8776721027554 L568.7679129657241,369.9258790190606 L567.2874195386585,370.0787302814711 L564.7689906839064,371.05007540066254 L563.4634004182706,371.1891207425977 L562.3751140804754,371.8133455755398 L561.2249932916692,372.0224066570308 L558.8311166882393,373.7915367522891 L556.7481790384637,374.90291335059226 L554.0742807068839,375.94427420933965 L550.9348572941199,376.846589726152 L550.0638748841626,376.915619328531 L545.6179778564637,376.3949388991571 L541.4211853314091,376.4294537003468 L536.2288581450761,376.88110452734145 L530.1045974470758,377.8524496465329 L527.772555294656,378.61670595858686 L526.0314738240434,379.4144909346538 L523.6375972206124,380.9420174215852 L522.2701725039675,382.1214374850906 L518.1661316554296,387.0501510949571 L517.1405631179448,387.9524666117693 L514.311195309538,389.68806804301494 L512.8501355670745,390.41682341670275 L511.17088854747203,392.2214544503273 L510.0516849841714,396.2478525433814 L509.24342037452607,397.4272726068868 L507.81327785757003,398.4341186644447 L501.9372383129131,401.45367069994103 L498.20685421834276,403.46637667787974 L496.559407773546,405.5490983953743 L494.84924352843996,410.13069171899195 L492.82814032967644,412.4560031819899 L491.4289150382249,413.66993804668493 L487.48122701581485,414.9893895893022 L484.3100030282443,416.1697957899845 L480.8278400870191,418.59865165655145 L479.42861479556757,420.26522348541783 L478.1848589809448,423.0757144394233 L476.4437775103312,429.3228934547304 L475.4570763420545,432.55545112042523 L473.6002761131206,429.6611385063878 L471.6383573174677,427.314132025499 L469.6764385218146,424.30246908741736 L468.415015721189,421.76020744551346 L465.96283806394695,414.87598381396543 L463.7200141908446,411.19966441869065 L462.8446150343874,409.5567598820686 L460.111532299696,405.33313435364556 L458.42963523219396,403.3766381947872 L453.70018307914427,399.5829684754679 L451.10666953387727,396.80600618547516 L449.0051815487999,393.9895984084085 L446.16698024738946,389.06187093571896 L445.1511285522066,386.4407183196674 L443.78458718486183,379.792181473385 L443.67946861814175,377.9145762886738 L443.8897057515801,375.95906626699224 L445.1511285522066,373.494709462059 L445.36136568564484,371.8912504125107 L442.38271184550877,367.00198228971794 L440.5965795605888,363.0515167592808 L439.790081649543,360.4698096303031 L439.5453938933996,355.85468764267284 L439.790081649543,354.36857891716886 L440.3289247226405,353.7344927124581 L441.5391132638582,350.77312277039556 L442.1318406442649,350.23567800901566 L444.24304547164434,349.53256220192577 L444.98417553447655,346.96860554213134 L445.87282493043745,344.7359909737564 L448.7622604912557,342.0891987911071 L450.021916593283,339.6909131770224 L449.9848159226751,336.96227160869495 L449.3549878716625,334.2326439031906 L447.79940975408306,330.88372205062825 L447.6881077422627,329.76642862926377 L448.8364618324704,328.77437462935893 L449.9106145814626,326.0447469238545 L452.2806407537885,324.7223369697067 L453.874202891275,322.94433163985684 L454.0588228950079,321.99270926420235 L454.0588228950079,319.4287526044077 L453.874202891275,318.7256367973181 L452.2444234324828,316.41018670608827 L450.2065365970159,314.507928091956 L449.5396078753964,313.5158740920511 L449.0210818362033,310.9519174322564 L450.540442632476,306.89987977260427 L451.0960693422752,303.0953625443401 L450.3920399500489,302.1033085444351 L448.5025557970091,300.77991245311017 L446.4284516402374,299.58076964606784 L444.87287352265696,299.12616040754284 L443.7245194324513,299.2494275546485 L440.87218454223876,298.0098531233553 L438.50215836991174,297.80276431621814 L437.5022069621323,297.30673731626564 L433.4273166405004,291.68279699672416 L431.6491344992811,290.1523120982621 L429.1307056445279,289.07742257550194 L427.90815021310766,283.74340658595264 L427.0195008171486,282.3371749717732 L425.64854270330284,281.1794499261582 L422.5373864681429,279.9388893576885 L421.6116364015761,279.02967088063804 L420.9076070093498,276.17578989085143 L420.9076070093498,274.93522932238164 L421.64873707218385,273.2400595153868 L422.09306177016333,270.7589383784473 L422.61158780935557,269.76688437854233 L425.2784193465359,267.82320800298265 L429.16780631513564,264.06010853614566 L430.98220577766074,262.69628082057056 L433.5200683170169,261.2279225642497 L437.3909049503119,258.64325702374146 L440.650463867899,255.62469112542198 L445.6882049267027,252.9778989427724 L450.76216330681586,252.31718703428686 L454.28142691864775,251.28272913577763 L456.1700277223872,250.249257374445 L459.91101200855985,246.61041119189048 L466.1713084987848,243.4675920092884 L467.6526852751515,242.3098669636738 L471.20904955759124,241.89667548657616 L471.7646762673893,241.11072415663142 L475.5798618947754,239.5802392581694 L476.7282159849831,238.46393197398191 L477.6168653809432,238.25782930402164 L479.54256685528856,238.58818525826416 L480.4320996005479,237.5132957355043 L481.9505770475206,237.1001042584067 L483.17313247894094,237.34762468979443 L483.95047986307964,238.75385630397415 L485.7657626749067,239.0427944967895 L487.6552468279456,238.58818525826416 L490.46959769825196,238.6710207811193 L491.5808511178519,238.2992470654491 L496.2113681492847,238.62960301969156 L497.6927449256506,238.836691826829 L499.43382639626316,239.4983898724915 L501.06360585505615,240.53186163382384 L504.32316477264243,241.15214191805887 L508.3238537530616,243.38475648643362 L510.3370068081224,243.80485092376938 z"/>
	<path id="gaziantep-nurdagi" title="Nurdağı" class="district" d="M190.57957708875352,341.955084135056 L188.51872317148363,341.93141684281187 L187.15571520133778,342.8445798685695 L184.8757906576278,343.65124007922805 L183.0967251671092,340.06860371575357 L181.06502177674352,338.07364820699803 L177.84168018046395,335.7660872131829 L174.72345715090444,334.67147494688606 L172.55130122181419,334.2020736507085 L171.95504044420665,333.5374171935154 L171.21921047717473,331.2288700625236 L169.85355245912925,329.8216523111672 L166.4544243521177,328.3345574484864 L164.94831379534762,327.2793906692633 L163.1612981611264,327.2793906692633 L161.30449793219253,328.09985680039733 L159.72771943140862,328.3740029355601 L157.69513269174277,329.0781048798268 L156.46904386312355,329.8995571481377 L154.82248076762698,332.3244684659973 L151.8093763047866,333.5374171935154 L146.90413764100495,333.88946816564885 L144.87243425063926,333.8500226785749 L142.55982578282433,333.26327105835287 L140.5281223924587,332.12921330498216 L138.7411067582375,330.52575425543375 L137.47968395761092,329.8216523111672 L134.46657949476867,329.5475061760045 L129.28131910283705,329.66485650004887 L123.67558444402896,330.6815639293753 L119.1908200471238,332.2850229789236 L116.0725970175624,333.73267235453056 L114.18046281662303,334.24151913778206 L112.63901828784556,334.2020736507085 L110.8873366256308,333.18536622138214 L110.22129125331155,331.65981200880447 L110.22129125331155,325.9490916177006 L110.04638809187976,324.5014422420937 L110.04638809187976,316.210000859189 L109.94126952516065,313.74564405425576 L108.89008385797231,308.7005662575215 L107.8742321627904,306.54881493764793 L106.6128093621629,304.7501007270843 L104.51043802778436,303.02830521631466 L100.65638503119291,300.13399260227754 L96.90745060131874,298.922030011936 L91.89709337081797,297.7485267714916 L86.25690808930459,295.47942512757356 L78.16277845194965,291.33370443612125 L74.93943685567008,287.6968305279205 L73.95891913249369,286.9138376095064 L70.66579294150237,285.11512339894284 L69.72502593683332,283.6053473811944 L70.706427009309,283.01859576097235 L72.24787153808644,281.5709463853652 L75.0507388674905,278.6381744214312 L77.46846590202543,276.9163789106615 L82.19791805507509,274.60881791684636 L86.33199277981838,270.42365173832036 L87.73386811916956,268.74228785180134 L90.22137974841718,266.08267588585284 L91.76282427719372,264.615303766709 L92.70889137766387,263.5788735938458 L93.61962450612761,261.93596905722364 L94.35545447315954,259.94199968564504 L95.896899001937,258.22020417487533 L98.28017541376569,257.0476870716078 L100.0663076986867,256.42148996431183 L106.05806600166406,255.60003769600064 L107.17903626356508,255.60003769600064 L112.3642966554967,256.8514457734157 L113.80062261755505,256.69563609947454 L116.18301568008263,254.6217896165714 L117.83046212487848,253.5271773502746 L123.61109994511833,251.33696668050385 L127.81495926457336,250.5549598992667 L137.69522118684935,249.85085795499998 L139.27199968763324,249.45936149579308 L141.16413388857168,248.44265406646667 L145.57911369076606,244.41329756188185 L147.29546138097436,242.61458335131863 L149.43316668735935,240.89377397772552 L152.20070004475602,237.68586974145194 L152.8667454170762,236.7086077991995 L154.68821167400367,232.28874097258466 L155.35425704632382,229.6291290066364 L155.00356737416007,225.48340831518402 L155.10868594087916,224.38780991171006 L156.33477476949838,222.04080343082126 L157.4910790034077,221.10200083846598 L158.89295434275888,220.59414019239128 L160.32928030481722,219.34174597779923 L162.04562799502557,218.36448403554684 L164.6735921629978,218.52127984666492 L170.52489792725052,220.6720450293617 L173.85335809024826,222.3928544029548 L177.32138744267044,223.60580313047285 L183.4182643123669,223.48845280642843 L189.54959180476865,226.8521667166433 L191.89665089529075,228.76823125125122 L192.6678148343291,229.9417344916959 L193.80998547943457,234.90594903992877 L194.27904395781923,237.06065877133284 L194.27904395781923,245.03949466917788 L198.23468212393,245.81459849017727 L200.01021421724974,245.69527589177937 L202.94028384587563,245.2367221045468 L204.0806877923807,245.3136408043407 L210.40635213081737,246.2060949493844 L211.20224985026,246.7632624543013 L212.0202313022081,248.0274903150153 L212.64387590812038,253.31417172007622 L214.0174840698666,258.031851974098 L215.27625682259352,260.7171035066444 L216.14988928044954,263.2781017549084 L216.0509541588317,270.45816653951 L210.84802678089642,270.88417779990647 L209.56540359706634,273.42249489310313 L205.1716241780764,275.3523653481868 L203.83511668693697,276.1245107576558 L201.13118447915076,276.8710166005266 L196.55896850152828,277.1362875010978 L195.72420341287855,278.28217890059045 L196.15351117275588,279.9063468308527 L196.77362238146648,280.5986151289972 L198.89719409904947,282.1438920851118 L202.38024038957474,284.27394838709466 L203.6920141003109,284.91395141486646 L206.59293320203162,286.80930706876086 L208.98857650406288,289.1484244522348 L212.01581455570627,292.8878566268275 L213.50867487297546,294.2447813821647 L214.522759869557,296.73872230240346 L214.37965728293184,299.32141556855794 L213.9264990919504,302.57073756625897 L215.38844218371318,304.764892784737 L217.91040443566612,307.36533652007466 L219.12765977128444,310.0811583051033 L219.50838331965352,311.42822168867224 L217.41749552617645,311.57910067672935 L214.59254446426877,312.74175640822864 L213.22953649412474,314.51187264066357 L212.53522394419957,319.07768776945136 L212.06439876721453,320.90401382096655 L211.04766372273244,321.90001236957903 L209.51151928975605,322.92362275914326 L207.47893255009112,323.4492338744009 L205.52143050093903,323.2273530096112 L203.0427523646942,324.39000874111025 L201.82814707697554,326.07728945069033 L198.38308480635627,328.5672858222216 L195.73127020728,329.2871659613178 L195.2109774694865,329.619494189914 L194.91328875533281,330.8087756251881 L195.60760130525796,332.3027734481068 L195.93002379981584,334.1014876586704 L194.21985955470788,338.3625863998134 L192.85596823526365,339.57947967603894 L191.74118141846205,339.8841960636837 L190.82426484489798,340.6583137475062 L190.57957708875352,341.955084135056 z"/>
	<path id="gaziantep-oguzeli" title="Oğuzeli" class="district" d="M486.72331331627925,452.9763797785115 L477.61863207954264,452.41329545053367 L472.27525216288177,452.2131096036341 L467.9512573386054,451.8965595698673 L459.7193252104254,449.501232367313 L457.4473508104171,449.83947741897043 L456.1426438940824,450.82758687016826 L454.1851418449305,452.70026136899526 L452.19318917307214,454.8470820029845 L451.54127738955583,455.09361629719564 L448.8850460439786,455.23660618783794 L447.4981876427288,454.8599017862836 L445.92582588844664,453.50692157965346 L444.364947675066,452.7268870727698 L442.68746735406387,452.86987696341214 L439.3554737938655,455.5876710227946 L439.0056674710029,455.4841266192259 L435.3945355319536,458.38435605632395 L431.61998397237505,461.2589459268246 L429.25525789585015,462.8318347238909 L426.5875430093706,464.1719951472219 L421.8686910479231,466.21329910328893 L413.5281069558233,469.60758326598614 L408.9479408345002,471.8401978343611 L407.44359697633047,468.74865778495507 L403.5895439797381,462.9984919067774 L402.25833658439785,461.6297335053179 L398.96521039340655,459.36063186139984 L396.0572244972834,458.0707644340876 L392.20317150069104,457.83606378599876 L390.17058476102613,456.58366957140703 L388.06909677594774,456.1931592493768 L386.141628603001,454.7849553608436 L385.3006800692499,452.2811530688364 L385.33601404125636,450.87393531748 L385.8262729028455,448.3306875383991 L385.8262729028455,446.92346978704285 L384.8457551796681,443.32505522873896 L383.16385811216605,440.03924615549454 L380.99170218307665,437.92694032269446 L378.5041905538292,436.67553224527956 L375.4557521189814,436.36292676022015 L371.84727022783284,436.24557643617544 L370.97098772207437,435.9319848139392 L370.09558856561796,435.0326277086574 L366.55689126918196,430.300155396983 L363.92892710120884,426.1534485683537 L361.75677117211944,423.22067660441945 L360.03954013261,421.18627560859017 L358.21807387568344,419.9348675311752 L355.65989430242394,419.1528607499379 L352.1565309779934,419.3086704238794 L350.6451203254222,420.31058579555275 L350.16722835403573,417.2624357819279 L349.25649522557296,414.3681231678907 L348.9058055534092,412.0605621740755 L348.80068698669095,409.8703515043048 L349.11604268684744,407.79650502140197 L349.9225405978931,405.8025356498232 L351.07884483179964,404.19809046309797 L353.60080708375256,401.96942044343047 L354.2668524560727,401.1085226880457 L356.1934372797193,397.9400639388457 L356.9292672467503,396.4539552133417 L358.7860674756852,394.06848938255615 L361.4140316436574,392.38613935886013 L362.78057301100387,390.9779354703269 L363.55173695004146,389.13977577268963 L364.98806291209974,383.6252966797777 L365.7583435018389,379.9874366344002 L365.7583435018389,377.60197080361434 L365.3034186122561,373.7294101101478 L365.0225135348061,369.30954328353306 L365.0578475068115,363.75561870354716 L365.4085371789753,361.1739115745695 L366.31927030743896,356.5972489368364 L365.9685806352762,353.6644769729024 L366.03924857928905,351.5521711401025 L366.91464773574535,349.59666111842046 L368.3863076698102,348.4231578779761 L371.4691967273642,348.6184130389912 L374.2720640567692,348.0711069058429 L376.68979109130316,346.6629030173097 L380.68429662662004,345.72410042495403 L382.26107512740396,344.62948815865724 L383.8025196561815,342.3998320018129 L384.88815594607604,340.32697165608664 L385.3792981569644,338.6051761453169 L386.46493444685996,336.45441096262016 L387.9365943809238,335.32035320924945 L389.48068895760184,334.95153790510983 L391.2650545439226,334.7336015890274 L393.47254444501925,335.04620707408696 L396.5907674745797,335.04620707408696 L398.9378265651018,336.4149654755465 L399.5685379654145,337.2364177438573 L401.3202196276294,340.24808068193926 L403.5630435007324,342.67299199979857 L406.29524288612356,344.7468384827017 L408.29249565378313,345.45094042696826 L416.5261944805634,347.5238007726945 L420.23979493843035,348.3058075539317 L421.8519074112188,348.3837123909024 L425.4603893023674,348.1105523929166 L430.0502722659935,348.65785852606524 L433.5191849677168,349.5572156313468 L435.5508883580825,351.004865006954 L437.4076885870154,352.8430247045912 L439.790081649543,354.36857891716886 L439.5453938933996,355.85468764267284 L439.790081649543,360.4698096303031 L440.5965795605888,363.0515167592808 L442.38271184550877,367.00198228971794 L445.36136568564484,371.8912504125107 L445.1511285522066,373.494709462059 L443.8897057515801,375.95906626699224 L443.67946861814175,377.9145762886738 L443.78458718486183,379.792181473385 L445.1511285522066,386.4407183196674 L446.16698024738946,389.06187093571896 L449.0051815487999,393.9895984084085 L451.10666953387727,396.80600618547516 L453.70018307914427,399.5829684754679 L458.42963523219396,403.3766381947872 L460.111532299696,405.33313435364556 L462.8446150343874,409.5567598820686 L463.7200141908446,411.19966441869065 L465.96283806394695,414.87598381396543 L468.415015721189,421.76020744551346 L469.6764385218146,424.30246908741736 L471.6383573174677,427.314132025499 L473.6002761131206,429.6611385063878 L475.4570763420545,432.55545112042523 L479.592034416097,437.24946408220285 L481.1679295675808,439.43967475197337 L484.5670576745905,444.60210287275197 L485.58290936977323,446.90966386656686 L486.493642498237,451.1342755321668 L486.72331331627925,452.9763797785115 z"/>
	<path id="gaziantep-yavuzeli" title="Yavuzeli" class="district" d="M521.8187810115865,209.3196338495333 L521.5016586128297,210.95267701438715 L522.2374885798615,212.54134400628269 L524.3310264212383,213.2474182249031 L525.9678726744319,214.14184464430065 L526.5694335478406,215.08163337383309 L526.5941673282448,216.2817623180521 L525.3910455814284,217.67714642328644 L523.6340638234127,218.35166425224776 L520.6783770650813,218.74118843710116 L518.5980894632074,219.36935781875098 L517.6484889655376,220.26772878685568 L516.567269422143,222.56246999737198 L515.9047574470235,225.94689278830066 L514.2899949263335,231.28583946373408 L512.7565005412578,234.92567178346548 L509.6709614358032,239.1611309580108 L509.3335220031431,240.3908440175352 L509.7107121543105,242.3641045084001 L510.3370068081224,243.80485092376938 L508.3238537530616,243.38475648643362 L504.32316477264243,241.15214191805887 L501.06360585505615,240.53186163382384 L499.43382639626316,239.4983898724915 L497.6927449256506,238.836691826829 L496.2113681492847,238.62960301969156 L491.5808511178519,238.2992470654491 L490.46959769825196,238.6710207811193 L487.6552468279456,238.58818525826416 L485.7657626749067,239.0427944967895 L483.95047986307964,238.75385630397415 L483.17313247894094,237.34762468979443 L481.9505770475206,237.1001042584067 L480.4320996005479,237.5132957355043 L479.54256685528856,238.58818525826416 L477.6168653809432,238.25782930402164 L476.7282159849831,238.46393197398191 L475.5798618947754,239.5802392581694 L471.7646762673893,241.11072415663142 L471.20904955759124,241.89667548657616 L467.6526852751515,242.3098669636738 L466.1713084987848,243.4675920092884 L459.91101200855985,246.61041119189048 L456.1700277223872,250.249257374445 L454.28142691864775,251.28272913577763 L450.76216330681586,252.31718703428686 L445.6882049267027,252.9778989427724 L440.650463867899,255.62469112542198 L437.3909049503119,258.64325702374146 L433.5200683170169,261.2279225642497 L433.10401079664155,257.4618646858823 L433.35223194998673,252.81814472012377 L433.07309357113684,250.98195729684 L432.1111261832634,249.9070677740802 L429.37892679787217,248.0363655496069 L427.9823515543212,247.2730953747298 L423.91541137639,246.09564758557786 L422.115145502667,245.95660224364298 L420.5631007822874,246.5808270765853 L418.70011710825315,247.9663498100512 L417.6445146945639,250.04611311601508 L416.1543044251953,251.70972653335093 L414.8460641116608,253.78850370213826 L414.39025587277877,254.94425647339943 L413.64559241274503,255.8219185607906 L412.1553821433772,256.37612765417714 L410.41695072066443,257.3464866361917 L406.3606107343354,260.0268074828536 L404.4976270603013,261.04351491217994 L401.80782844131704,263.86189496360015 L398.6622215834518,265.9870205796989 L393.7781833028746,265.34011459168937 L391.4187573221509,263.722849621665 L389.30755249477045,261.4133163534963 L388.3553019492,260.0731559301654 L387.2793825016064,254.89790802608798 L386.49320162446406,251.9868310800441 L385.8253895535454,250.79656350759336 L385.2980300213503,245.14796975863067 L385.2361955703384,242.72207230359453 L384.6461182378322,241.8207429239592 L382.6903828872813,241.30104863176223 L381.7275321501078,240.64329513480726 L380.42370858307515,238.00932273545686 L379.7408795740506,235.0637309882237 L378.93438166300666,233.40011757088786 L378.5616082583392,231.35486906611322 L378.7789121861779,229.55319644401936 L378.0024481513385,225.63724571477144 L377.19595024029377,220.92449614663406 L376.109430601099,220.3002713136915 L373.1599272878691,217.73532851672022 L370.67683240512235,215.03232651499064 L369.4348432890989,214.23552767610087 L368.4728759012264,212.98806414739323 L366.8581133805354,211.5670404755609 L364.4677701743061,210.14601680372857 L362.8035400928069,209.6026552192877 L363.95984432671526,209.09479457321297 L366.2724527945302,206.8256929292946 L367.4640910004449,204.12762161344946 L367.6743281338822,200.60711189211622 L367.3934230564321,196.8913470097679 L367.35897243372585,193.8402385846123 L367.5338755951577,192.3146843720347 L367.9190158900267,191.92417405000438 L371.63261634789455,191.53267759079748 L374.26058051586676,190.94592597057513 L376.15271471680717,189.77242273013073 L378.39465524060915,189.22511659698236 L381.05795338058783,187.93426303249353 L383.12499074295897,187.23016108822677 L385.2971466720501,185.8614026867672 L388.37385228450194,184.5350481839123 L389.07788167672913,186.7893577701777 L389.21745086615545,189.27343731864764 L389.99568159959426,190.94987051928263 L394.43362848359163,195.08868825049714 L396.11464220179437,196.04622744921252 L398.02621008733786,196.34009632791202 L399.64185595732795,195.935780085406 L401.1249994322952,194.86779352288397 L404.0268018833161,191.29797694270866 L406.3941780077415,189.97359471420688 L408.6802859965518,189.13932266259684 L409.9107915716738,189.18862952143903 L415.1852702429212,190.51301174994083 L416.4599432830506,191.10173564451665 L419.0092893633092,192.9172141870865 L421.2953973521204,195.37072348307433 L423.9763624781018,197.62799148087046 L427.58131097204887,201.9955930371128 L429.2950086143576,203.02610638691456 L432.8116221782898,203.86037843852483 L435.3168007935393,204.20355417606646 L439.09753579822006,204.10592659555903 L441.0753548812754,203.909685297367 L443.06995760103337,203.43042262942086 L444.48684987848765,202.39990927961878 L446.16874694599073,201.77469830949966 L448.5749904396224,201.14948733938053 L449.5970255799065,201.075527051117 L452.86100124399354,198.83009269944318 L455.69566914820234,197.54219754648497 L461.13533413858045,196.25430239352684 L463.40995858648853,196.06989474145672 L466.7393020987863,197.76309227409808 L467.5634669958349,197.9839870017112 L469.3434158356554,197.72660519855478 L471.4210533896289,198.20488172932403 L471.6842914810753,200.33888258001477 L472.5420236515299,202.36342220407545 L473.6956778375377,203.39393555387753 L478.4092297031849,203.28348819007098 L481.24478095669394,202.76872458375843 L483.15634884223743,202.6582772199518 L487.4096757225028,200.55977730762785 L488.62958110602153,200.59725052034776 L491.20101091878394,201.075527051117 L492.1894787856611,201.44335621808 L493.310449047563,202.39990927961878 L495.0577139632768,203.17304082626438 L496.87123007650257,203.24700111452765 L499.44177653996485,204.05661973671656 L502.3762629150915,206.08017322360072 L505.96972786813706,207.88381812004835 L509.7274957910131,208.28912049973127 L512.1010553605398,208.84037118158716 L513.5850821848062,208.9882917581136 L514.8703554165387,209.5395424399695 L518.8922447801596,209.90835774410908 L520.3427043310207,209.20918648572672 L521.8187810115865,209.3196338495333 z"/>
	
</g></g></svg>