<svg xmlns="http://www.w3.org/2000/svg" version="1.2" baseProfile="tiny" width="600" height="600" stroke-linecap="round" stroke-linejoin="round"><rect id="backgroundrect" width="100%" height="100%" x="0" y="0" fill="none" stroke="none" class="" style=""/>































































































































































































































































































































































































































































































































































































































<g class="currentLayer" style=""><title>Layer 1</title><g class="city city-31" id="hatay" title="Hatay">
	<path id="hatay-iskenderun" title="İskenderun" class="district" d="M361.9998753906391,161.03490638983763 L362.94761232293064,163.32317086191168 L367.0804152657203,163.8693556734987 L363.79289120848887,168.55773945923508 L360.8156968120371,170.2546012050369 L360.0462762880045,171.74917227988098 L356.6001392930397,175.1845438508 L356.06519006826306,176.71957305983548 L355.0947941448671,177.729836469503 L350.4605378771952,181.09143144277846 L349.08720598154525,182.81804181666234 L348.259660219461,185.25028964865376 L347.56314253637316,186.0915808508149 L346.3208387197206,188.5916555548334 L344.7219020865502,189.36392993984418 L342.1998578592463,191.3190097773987 L342.35058940876837,193.13724592577543 L340.6235802171813,195.0590072998783 L339.8709076430945,197.82443976638854 L338.14586879856006,199.52844118293027 L337.5192984358392,202.21890710667395 L334.0692207467684,207.33210130142243 L333.37959927836454,208.88497968730732 L331.058530450424,211.65041215381754 L330.1176897328155,212.48337374011592 L327.2951675799928,213.2794470275924 L326.1661587188635,213.92320733928878 L324.0963091401266,217.1812770868385 L321.4619551308248,219.98359785217076 L320.3959973753775,221.46150969528875 L319.5172225899266,226.12014485294304 L319.4856970370856,230.47653394928318 L319.14088630288325,233.9999614593255 L318.23157113811664,236.5000361633436 L315.118422795038,239.4629995203189 L312.61805238531235,242.1820241270214 L310.3600346630538,244.98434489235368 L309.3561428397632,245.06050138024395 L302.7810947252983,243.6087683298381 L299.8955214667927,244.63093119073864 L297.1981163518087,246.60148031489595 L295.85039896784207,248.07820221289052 L294.3450538196703,248.94924204313375 L292.43578752571835,248.7790798905044 L290.5541060905032,247.95563786519233 L287.14343534248474,247.50107882809786 L284.9327059494876,246.50628470503315 L282.01560713814,246.33612255240365 L280.0166900532964,245.25684232558575 L279.24037331457885,244.03476868397374 L280.7457184627514,239.94373735012553 L280.98117493553565,235.85270601627755 L279.475829787363,229.23304129545213 L278.6522247193839,227.98359891600472 L277.14687957121123,227.58496729970474 L276.0651590393435,229.31871734432858 L273.8544296463474,230.3694388881878 L271.8545273879775,230.88111529119976 L271.99836272281556,228.85344880112493 L272.9411737874757,227.04116237836445 L271.41218447467224,226.91026841480306 L270.5875942331669,227.25535250055546 L268.91575475905165,226.62706147546166 L266.40651778758934,223.2250083679947 L262.76925712852324,219.81581558978806 L256.3666143811587,223.2119189716384 L250.34917448257494,225.85478709045088 L244.4873920011447,230.0076955707096 L239.17336600033184,232.46255236004302 L238.31330951188033,237.46508165832617 L236.59418170850262,240.01394411239917 L232.53034091255267,241.80719141318718 L228.31084269944915,243.5064330492357 L225.73165840762,240.20195544187806 L225.4252694409435,236.8070420051507 L231.35502889568812,233.08727354976688 L233.23769550442955,232.1222280547843 L241.363406749276,228.38223053230467 L244.9021500557131,226.54376531683172 L246.6409813296164,225.4002280533567 L249.53640632338494,223.11434347152934 L254.69773042762222,219.71348030918566 L259.6196573649721,216.6434218911145 L261.3348444742437,215.4344376458588 L266.2104682558574,214.117168394384 L267.70399132171383,211.68373061726962 L269.3334683341989,210.26055624982286 L273.67906875866834,208.78502429695155 L276.4493767145971,206.77758687397267 L278.36258370265426,207.79142011900984 L279.9989569298233,208.04487843026914 L281.2580086964227,208.83500199212943 L282.3742103017103,208.98731496790973 L284.98393497285434,208.1769623389535 L287.6695180055238,207.842587759311 L289.5245997555293,204.1014002917081 L290.01915686572755,201.5668171791147 L290.4979511995042,200.827861257556 L290.8003994720755,198.82994339556313 L290.9087685599675,192.55536276049023 L290.55706161108213,191.12861855767352 L291.156047115067,189.09381239685865 L295.3371235606445,186.1689272838282 L296.5183466186677,184.9575631483258 L297.1971311782815,183.0976789206342 L296.7853286442929,179.30651375785342 L296.9981261259706,177.7512554817222 L298.1350163753111,175.5653262902506 L298.1478236311528,172.55714501859018 L297.87394539084363,171.36719989530684 L295.78833303568626,167.20596179918525 L295.2514134638571,165.4531726325889 L292.8140941598143,160.42089470622366 L291.46243608174353,157.03669077560576 L289.97679440409644,154.2165208334244 L289.6753313050514,152.91710075879885 L290.0556082861999,151.324954183846 L291.7570029661036,148.53810270511616 L292.21313830877676,146.83648117882106 L293.37465789627333,144.52084796891148 L293.394361366799,143.532003571463 L297.3202778690686,143.49035549214847 L301.32303790638815,142.87039408291758 L304.53962946972734,143.408249278642 L307.6537629863332,145.01943497556715 L310.28910216916046,145.6393963847982 L312.7530211584138,147.16966581334017 L315.72923038133837,147.62422485043467 L317.57741591665996,147.62422485043467 L320.10931187922756,147.95383964958398 L321.512198980666,149.27705862667528 L322.84710910878914,151.09529477505217 L325.4134861447767,152.87307278923748 L328.2163048270747,154.19034204071198 L331.2575355027339,155.3065105663519 L333.2594081081573,155.53854986539213 L334.9913431673766,156.35247232971787 L337.37841862157904,156.77133301311358 L341.26689852984896,158.70023405795595 L343.2106458972208,159.97942506548546 L345.1130159764888,160.85522467622192 L347.3198046753797,160.01750330943045 L350.5541293621929,159.52248613814476 L351.4260079329598,158.84064758250338 L354.2239007476255,158.87158615570877 L355.7893414809013,159.6771790041716 L357.1498661207097,161.0408561154543 L360.0443059409519,161.44781734761713 L361.9998753906391,161.03490638983763 z"/>
	<path id="hatay-altinozu" title="Altınözü" class="district" d="M366.34153512100244,408.9516432100575 L366.5769915937866,410.93885156594064 L365.0627798838774,410.97930970013226 L364.63028870583497,411.7777628778555 L362.5358097889411,413.49604363587645 L361.7959444706969,412.75351787894783 L360.8511630589842,413.82565843502624 L362.25109463984376,415.02274322904907 L363.5722123385989,417.09800752405505 L362.94564197587806,417.96428757380534 L361.6826495151735,417.38716418901294 L361.1664185873972,418.7389418490628 L361.3398091280237,420.52623942423446 L360.7270311946717,423.02036440263635 L361.7397895796979,423.30952106759423 L362.8993388201428,424.3233543126316 L364.6046741941526,424.22696875764575 L365.9632284869074,425.161075679423 L365.78983794627993,426.33555151610386 L364.245085857056,426.5925796627328 L365.3642429829224,429.1354923911894 L367.22917646819076,428.17044689620667 L368.42813264968606,429.3937104829417 L368.8547127865708,432.49946725471153 L367.5887648052864,432.9337972247098 L367.5089657496566,434.2213178481025 L366.90899507214635,435.02572075144207 L366.935594757356,436.79635909488746 L363.7564397880155,438.78237750564733 L364.80860511409384,440.21745132432704 L363.12297321061067,440.3816637513403 L362.353552686578,441.5561395880209 L362.89736847308933,441.97976005190964 L364.47561646220777,441.4216757890899 L365.85091870490936,443.92056054798496 L364.2992704010014,443.3529567241786 L363.00770790803483,443.38032546201435 L361.8205738088539,444.5167230547497 L363.67664073238575,445.82209285499164 L363.67664073238575,447.7938319242719 L366.0065761220638,447.4975355885747 L366.5316736115767,448.8588328096107 L364.1721830161102,449.52639202377253 L363.740677011595,450.973365293685 L365.2765625390824,451.5933267029156 L365.9149549841187,450.42123075648186 L366.65580547588917,450.1404037073867 L368.2379941591127,451.4314941661491 L368.4655692436857,454.92993282860226 L367.33754555608266,455.01798876772506 L366.32774269163446,452.9938921130203 L364.791857164147,452.84157913724005 L364.60565936767784,453.4651103818406 L365.1553861953488,455.3452236766281 L366.28636540352966,456.63274430002076 L367.7739774282293,458.90672943061526 L369.8773229068606,461.33064764674333 L369.52167526386916,463.07629714259974 L368.3729629322143,463.8521413629806 L368.70989227820553,465.05041610212714 L367.7257039254415,465.47879634650906 L366.4518745559479,465.03732670577085 L365.3218805212914,466.4890597561764 L365.88737012538274,467.1899374337906 L365.53763352354986,468.46674855107324 L366.3375944268973,469.86493407093144 L365.6302398350204,470.6181693339697 L365.65683952023,471.72005851813014 L366.2932616182146,473.4657080139868 L365.4056202710263,474.2094237160388 L368.8290982748865,476.20853152315465 L368.36015567637264,477.5448398966018 L367.30109413560933,477.1628675120283 L365.5455149117592,478.1481420741066 L365.9592877928023,480.3043226374959 L368.2961193971634,480.3602500582905 L369.0290885007245,480.648216778125 L369.8635304774927,481.8905194868328 L369.2468118500337,482.6473245852408 L366.14647076279675,483.5076549093748 L366.20361082732205,485.2247457222726 L365.0923350896659,486.1195844549819 L365.82136349912093,487.8223959264001 L362.81855459098676,489.6144532820645 L363.2224757367661,490.97218066773115 L361.92500220264077,492.6797519196427 L363.8254019348562,492.52981883410894 L364.5012309738911,493.73047346350165 L363.51802779465345,495.04298293448363 L364.39778775363055,496.60657082647754 L363.7249142351745,497.1372863514621 L362.9692861405098,498.89959507904484 L359.86894505327183,501.76498293591095 L358.2384828672605,502.389704125635 L354.2780852915719,505.2348629154051 L349.160108822491,507.95150763186115 L348.532553286243,508.047893186847 L346.4883182191904,507.1411550029049 L344.4854604402407,504.99925378099493 L343.76726893957465,503.7688505235202 L338.34191833029104,499.63736105548054 L333.54806395136063,496.9504649671064 L331.7363298365116,497.1372863514621 L329.4842231554107,496.9504649671064 L327.6094379348795,497.6691918215697 L327.25576063894056,498.9638521157021 L327.3365448680966,501.5460330332268 L327.05182971899933,502.70265969305837 L327.12670290699674,510.7359792203439 L328.60446319643347,514.3617420109885 L329.7177092811423,516.2692240436118 L331.09399669737013,517.5734038987302 L332.1244882058703,519.2393270713268 L332.49786897233486,520.6172835240887 L331.99444530039926,522.1463630075082 L330.29994683517947,524.0229064669256 L326.14547007481065,526.584858317355 L323.8943485672361,527.1167637874622 L320.24428065232917,525.4912987490575 L318.2522597821686,522.8960284351765 L317.88971592449406,521.8964745316184 L316.8986313570461,521.147999049073 L314.81794486951924,520.3316966945008 L312.7057328291514,520.4744901092946 L305.000690680031,522.4271900566029 L300.860006349031,524.1942585646789 L296.7449365297144,524.9760525106758 L293.9470437150488,526.0232042191649 L293.14412729112155,526.6717243113545 L292.1037840473586,522.3641229650686 L290.33244204708706,513.593037461347 L291.0811739270687,512.5982433382823 L291.13043260338276,509.11646390755527 L291.54223513737327,506.79607091715275 L291.42992535537525,505.13728741529593 L294.09481974399193,503.7414817856846 L296.26811254298934,501.895876899472 L297.2247160370183,501.35921164887134 L300.537854605934,500.2739816964369 L301.4215552590173,497.4502419188853 L301.49248775290954,494.78714473297754 L301.03044136907965,493.3258921215856 L299.4305195623829,490.14754869729575 L295.9558125351552,487.94734016434484 L291.5107095845313,487.1215182487861 L287.6971028642597,486.76334476667796 L286.2262387895079,486.8966186204856 L284.31303180145073,487.55822810903106 L282.2195380580831,487.65937344451004 L280.73192603338356,486.81689229722576 L279.96841655050855,484.09191796490694 L280.1792436851338,480.1496297714693 L280.9171386563264,476.42034175509946 L282.30229263429084,473.79532281313607 L284.1307746990867,471.1774435419128 L285.0410750373795,467.8027591722813 L285.0794968049045,465.28721518166026 L283.9091106556715,463.2298000635033 L283.4421384042101,459.92770234639204 L283.7977860472007,456.6874817756916 L283.69138730636126,454.74906116986324 L283.1958450226369,452.87370765556864 L281.72104025377894,451.3291588855467 L275.78536975787756,449.84886715218244 L275.3538637533614,449.5371015298821 L275.450410758939,447.89140742438144 L276.224757150603,444.6952148232424 L277.4030246880473,443.21254319963117 L280.6137052102288,440.2864681414775 L283.00570653206256,439.40352886000124 L284.46770404507896,438.48489122482647 L286.9464006372264,432.4114113155882 L288.15520855398455,430.5634265391295 L288.0842760600922,424.85050000224595 L288.70197986107655,421.18784891278 L289.2891432827461,420.1240379725645 L290.903842692336,418.51523216588555 L291.7244922397363,417.23128137786284 L292.8209903744983,414.72168711285843 L294.27018063167196,414.1112452646142 L297.78232425289855,414.8406816251867 L300.236391506889,415.69982200419736 L302.1919609565762,415.65698397975905 L307.1365468850296,412.73566870209856 L310.1945255106365,411.44695813358265 L317.059214641831,409.9428674977527 L321.46885134550865,410.28676163838134 L322.7495769296863,409.81435342443785 L324.13670125470423,408.6113189047983 L325.3455091714633,408.3114527337311 L327.7286439315605,408.5256428559222 L329.6497323078279,409.42762125937065 L333.49092388683533,409.81435342443785 L334.7706642974876,410.28676163838134 L336.30063878381645,410.0725715161903 L337.90056059051307,409.34194521049454 L342.0619335655659,408.3114527337311 L346.8282030857604,409.0408890943036 L348.3217261516178,409.4704592838089 L351.3806899507499,409.81435342443785 L353.6919070434286,410.5021417056958 L355.79032665442855,410.6734938034484 L360.9831763115069,410.4164656568192 L362.97519718166654,410.158247565067 L366.34153512100244,408.9516432100575 z"/>
	<path id="hatay-antakya" title="Antakya" class="district" d="M319.34974309045685,298.94002661738983 L321.361467431143,301.4591404433807 L324.1682268075452,303.66529870194796 L323.56135991535,305.8988256983507 L323.56135991535,307.07806131552456 L326.4508738679608,311.0596176980308 L329.38077993515014,313.41927887750154 L333.20719391126335,315.18872727582385 L337.0730148284288,318.97394271298816 L341.5900354464722,324.7249474938164 L343.25891940000855,327.28094961862905 L347.53161698353216,330.0832703839613 L350.40339781266994,330.68419267121936 L349.86056719968394,333.00934544211503 L350.7491937203977,336.88261681840237 L355.7331865899033,346.53902149384646 L359.9773141411638,357.5067456951493 L360.9142141646662,360.48636828385054 L362.88850191135276,362.0963640356529 L364.4184763976825,366.50630066254087 L366.4144379619482,369.1218000435178 L366.9543130543553,371.9729085589047 L366.9740165248819,374.52772073859387 L366.1346486804814,379.4100655794255 L365.6775281642828,380.9772233067896 L363.9987924754827,384.6934219268033 L362.09149652858423,386.29032828224956 L360.9733245762441,388.16449185142073 L361.1250412992924,388.8094421082405 L363.0835662695594,388.04073755859963 L364.5583710384164,388.2870561991189 L365.5504407793916,389.4543923650601 L363.9987924754827,389.7613982068672 L362.651075091517,390.89779579960276 L362.4225148334178,391.9413776727223 L363.0067227345085,392.801707996856 L364.6854584233077,393.0170880641703 L366.1346486804814,393.90716701638644 L368.14341750058867,392.55538935633626 L369.1739090090889,392.7921884358698 L367.65969729917975,394.1832342849882 L366.40655657373793,395.2791737435318 L367.35133798545064,396.46078925095236 L369.14238345624784,395.13400043849134 L370.08716486796055,395.82297866487244 L370.17484531179963,397.32349946533265 L369.1748941826151,398.1719303382337 L369.95515161543693,399.181003802778 L370.48221945200237,397.7613992707009 L371.5590141162387,398.5170144239858 L372.88899837673137,401.9143077509598 L371.73536017744505,401.07896627441494 L370.6585655132087,401.331234640551 L370.91076993593964,402.97573880092864 L370.27336266442967,404.3429857475811 L370.97677656220054,405.1664277728933 L372.1855844789596,404.5690753210049 L374.14115392864676,406.0148586457941 L373.83377978844493,407.673642147651 L372.23484315527463,408.9171348014821 L370.6861503719456,408.6291680816478 L369.4802979757654,409.1920121249607 L369.22907872656157,410.91148282810514 L367.0892818274569,410.4569237910109 L367.1345998096668,409.8524316683831 L368.6261525284706,409.3300457592616 L368.22814242384993,408.17460904455334 L366.34153512100244,408.9516432100575 L362.97519718166654,410.158247565067 L360.9831763115069,410.4164656568192 L355.79032665442855,410.6734938034484 L353.6919070434286,410.5021417056958 L351.3806899507499,409.81435342443785 L348.3217261516178,409.4704592838089 L346.8282030857604,409.0408890943036 L342.0619335655659,408.3114527337311 L337.90056059051307,409.34194521049454 L336.30063878381645,410.0725715161903 L334.7706642974876,410.28676163838134 L333.49092388683533,409.81435342443785 L329.6497323078279,409.42762125937065 L327.7286439315605,408.5256428559222 L325.3455091714633,408.3114527337311 L324.13670125470423,408.6113189047983 L322.7495769296863,409.81435342443785 L321.46885134550865,410.28676163838134 L317.059214641831,409.9428674977527 L310.1945255106365,411.44695813358265 L307.1365468850296,412.73566870209856 L302.1919609565762,415.65698397975905 L300.236391506889,415.69982200419736 L297.78232425289855,414.8406816251867 L294.27018063167196,414.1112452646142 L292.8209903744983,414.72168711285843 L290.29500545308827,412.57502611045516 L287.8350271579401,411.13757240152887 L284.8509365468053,410.4628735166273 L282.8677822383822,410.4521640105179 L281.44026579878675,410.9567007427898 L278.0266395301884,410.549739510627 L276.09865493923786,409.1634534420018 L274.2721432214946,406.1897805789169 L274.70266405248356,405.7851992370006 L273.1776154337862,403.5469124601047 L273.1352529721551,401.66203938482397 L269.77581124750316,401.44784926263293 L268.3256358168033,401.73581598246733 L265.61739379303015,400.36737909069166 L265.58980893429424,399.24883067480505 L261.77718738754896,397.3865665568666 L261.5072498413449,396.2727779214737 L259.46597029487026,394.3605361083572 L256.9271781176186,392.99566905195127 L254.65930866009722,391.50347786735404 L253.07613480334737,390.01009673763326 L250.88215336029805,386.7425074290974 L249.57285774385736,386.33078641644113 L244.37015635151624,385.9821324953195 L241.7604316803713,387.00786519158953 L240.01963005941542,387.4279158201087 L237.01879149833383,387.75872056438124 L235.09179208090876,388.4262797785434 L232.98943177580463,389.6959512250865 L230.80924276212238,391.41304203798455 L229.05464871179947,393.1003842228002 L226.71190606627977,393.32171401573083 L226.92667389501105,391.89021003242124 L226.30207387934274,391.16077367184823 L223.42241166199386,390.4015886831936 L222.46876368854458,389.399654889389 L221.20380088078747,386.72584819737153 L220.2265087427075,386.0666185990722 L219.13395130205066,383.91400787105295 L218.18621436975815,382.9418227053303 L216.02966952070858,379.1577972132892 L215.2257679232551,375.7902525143976 L214.04651521228453,373.4294013898035 L211.20133406835635,369.4371355011879 L210.91366339868023,367.6319887491671 L212.52343694063882,363.5361976348258 L212.23576627096264,362.56401246910326 L210.22404193027631,361.59182730338085 L209.36201509477235,360.5149269668093 L209.10291445735737,358.36231623878996 L209.47728039734727,354.0927931364493 L207.66653145602538,352.7386355861529 L204.6479597714707,352.7041271775776 L202.98104616498688,353.0515911535763 L200.69445841046524,352.9480659278506 L198.675837855096,353.60491563590324 L197.6059394055436,353.3978651844518 L196.65820247325206,352.53039518957814 L195.53707500033306,350.4122928701339 L195.0769989635557,348.6428444718116 L195.0198588990304,346.69847414036667 L193.46722542159625,344.12938261919794 L193.0938446551317,342.35874427575214 L192.11655251705167,340.37986553573216 L190.04768811184016,338.6008975764234 L192.684997641721,337.0492091356621 L194.98636299913682,336.16983968955566 L197.40299365912773,336.3090632689797 L200.4324022524715,337.2812484347024 L203.11798528514095,337.46687987393454 L204.76716576815176,336.81835978174496 L206.87642228794078,332.7416077893762 L208.2566503982739,331.25893616576536 L211.13335709504292,330.5176003539598 L214.50856159611538,330.8888632324241 L216.8099269535303,330.8424553726162 L218.95760524084432,328.0627435646263 L220.72205102643102,324.7737352438713 L221.75746840256255,321.8083919966493 L222.64018388211952,320.7433911113104 L224.35143029728692,317.65072373589715 L224.66767099922532,314.62826312275723 L224.29429023276168,312.26503210791657 L225.04203693921608,311.04890819192127 L228.11971903534862,310.11123143477397 L230.68018503017942,307.60996678563225 L231.80131250309756,305.802440143365 L232.08898317277476,304.6910313982183 L234.13124789277555,302.119559986803 L236.1833643480394,297.80005918928447 L239.0157382361258,298.7365460013084 L242.80373044471406,298.63897050119937 L244.90017970866052,299.58021709371627 L246.8340753407686,301.26755927853213 L247.10302771344635,302.3063813711585 L248.5000037737271,303.15005246356634 L249.3600602621786,305.227696648819 L251.75206158401335,307.11018983385316 L253.25642155865881,307.27202237061965 L256.8572307972516,306.3307757781028 L260.02751920485554,305.06467416692925 L260.91417537851765,304.93497014849146 L264.5731098551621,305.17295917314794 L268.5492702072711,305.0004171302718 L271.1294396726275,306.08207724733643 L272.77664980858475,306.3855132537736 L274.89083219600525,305.95237322889864 L280.0137345327176,302.0576828403922 L281.66192984220197,300.19660866757715 L283.238207484267,299.07211052607437 L286.42721418887123,298.8983785380749 L290.4388407879273,297.0813323348214 L292.5776525135048,295.4760963635121 L294.58740650713753,295.6950462661964 L299.84724796400394,294.8013974786107 L301.4195849119647,295.092934033815 L305.6055872251746,296.31619762055027 L307.35919610197215,296.3709350962211 L310.53244003015396,297.0468239262461 L313.34412527418857,298.23319921415975 L316.2917644648509,298.926937221034 L319.34974309045685,298.94002661738983 z"/>
	<path id="hatay-arsuz" title="Arsuz" class="district" d="M144.37307308594555,386.0106911782782 L141.55646197428055,381.62336350873227 L138.91718209734717,378.9305176947423 L134.7351204782434,372.66783651090185 L129.72945379115956,366.279021143994 L125.62620605415827,362.5830515910758 L124.40163536097876,361.24912310787516 L123.84008645099249,359.46182553270376 L122.94653406264646,357.71974587221683 L121.69733403130988,356.37034810241346 L120.44616365292072,353.09799901338414 L120.67176839044114,351.1690979685421 L121.55448386999808,349.610269857041 L121.64906052852206,347.68612859269194 L120.5239923614979,344.5125449488951 L121.73082993120343,340.84870391430576 L123.68738455441692,337.6525113131665 L125.11194547343453,335.9889680308167 L132.69679645234757,330.67943289072645 L133.6208892200074,329.08966620601984 L134.13022393309978,327.2714300576427 L135.63753942832506,323.63376781576545 L136.84831769213662,322.2308225154146 L138.56153445435663,321.2729166911715 L140.15258969931583,319.84974232372474 L143.7918207054346,317.8327853397594 L145.762167758016,317.30563965014505 L150.29593632600617,316.8249018203386 L151.4219896665566,315.1768278245912 L152.1736770671162,313.4180889323782 L152.11653700259185,307.84319602979565 L152.30766066669148,305.8167194848442 L152.92142377357064,304.198394117179 L154.64547744457977,303.3856615979765 L155.96265444923074,302.2361746088848 L157.77931443171127,298.67228896465144 L160.05309493039033,295.5320237843065 L161.65400191061326,294.57054812469346 L165.24298906689074,294.92277188118544 L166.8882288557964,294.4789223502006 L168.21131690160405,292.8486975313025 L169.1472317515812,287.83188889154025 L169.2467342777366,285.67213849278085 L169.66641819993643,283.8574721797738 L171.08112738369022,282.51640402583325 L173.33126371773753,279.9187538217057 L175.0897984621665,279.72241287636416 L178.16255469066857,277.70188605702896 L179.68366261526174,276.99981843429185 L182.0155683519914,273.9583186991796 L183.7603106670524,272.89688764921107 L187.6881975163746,271.3618584401753 L189.84868305952938,270.2706787621245 L197.207929300922,267.2339388075053 L200.92301866856445,266.12847978797527 L204.24699414627025,264.2007686882562 L205.64594055360266,262.71571717439866 L207.43698602439986,259.1089935057269 L209.57776809702895,256.0865328925874 L211.19049715956726,254.71214627519512 L214.61200481637582,252.98791579155758 L215.86810106239642,251.22560706397493 L217.52614810714374,247.70217955393304 L218.497529204067,246.20522858884254 L221.65501035582838,244.23824930005517 L223.47364068536143,241.41569946762712 L224.15735111260756,239.34638489823735 L224.46078455870514,237.49126045103858 L225.4252694409435,236.8070420051507 L225.73165840762,240.20195544187806 L228.31084269944915,243.5064330492357 L232.53034091255267,241.80719141318718 L236.59418170850262,240.01394411239917 L238.31330951188033,237.46508165832617 L239.17336600033184,232.46255236004302 L244.4873920011447,230.0076955707096 L250.34917448257494,225.85478709045088 L256.3666143811587,223.2119189716384 L262.76925712852324,219.81581558978806 L266.40651778758934,223.2250083679947 L268.91575475905165,226.62706147546166 L270.5875942331669,227.25535250055546 L271.41218447467224,226.91026841480306 L272.9411737874757,227.04116237836445 L271.99836272281556,228.85344880112493 L271.8545273879775,230.88111529119976 L271.9727482111322,232.2447924024825 L272.7254207852181,234.0915872338183 L270.42011473369803,235.68254386364777 L270.0674226112854,237.10214839572498 L271.78458006761053,238.21117725062496 L273.4780933593049,240.51134117393156 L272.86630059947737,244.12044473284993 L271.3609554513057,245.68284267972112 L269.9492017881308,245.68284267972112 L267.6596585130302,244.4072215075613 L267.26952979661974,246.63241888810134 L267.61434053082115,247.5712855903715 L267.26952979661974,250.4200142155121 L267.67246576887277,251.7408533023564 L267.038999191467,257.47281896121257 L267.5286304340347,260.07879878120286 L268.30494717275127,261.5376715023484 L267.9020112004983,262.9977341686167 L266.1474171501744,264.0401260966131 L265.3711004114578,267.02807830117763 L265.658771081134,269.7732817005922 L263.52981109081935,271.96159078231017 L261.833342278547,271.68314362346194 L260.365433724374,271.8568756114614 L259.4452816508174,272.7957423137316 L257.92121820564626,273.6298938451535 L255.53315757791762,274.4283470228764 L252.426905449522,277.31277400171535 L250.61418616114753,278.6324231434367 L248.8024520462984,280.43875984058064 L247.1916933308126,283.4279019902685 L246.76018732629746,287.9092353245535 L245.60950464758997,288.9861356611248 L242.15745661146667,289.9940191805457 L236.1833643480394,297.80005918928447 L234.13124789277555,302.119559986803 L232.08898317277476,304.6910313982183 L231.80131250309756,305.802440143365 L230.68018503017942,307.60996678563225 L228.11971903534862,310.11123143477397 L225.04203693921608,311.04890819192127 L224.29429023276168,312.26503210791657 L224.66767099922532,314.62826312275723 L224.35143029728692,317.65072373589715 L222.64018388211952,320.7433911113104 L221.75746840256255,321.8083919966493 L220.72205102643102,324.7737352438713 L218.95760524084432,328.0627435646263 L216.8099269535303,330.8424553726162 L214.50856159611538,330.8888632324241 L211.13335709504292,330.5176003539598 L208.2566503982739,331.25893616576536 L206.87642228794078,332.7416077893762 L204.76716576815176,336.81835978174496 L203.11798528514095,337.46687987393454 L200.4324022524715,337.2812484347024 L197.40299365912773,336.3090632689797 L194.98636299913682,336.16983968955566 L192.684997641721,337.0492091356621 L190.04768811184016,338.6008975764234 L188.6507120515604,340.80229605449756 L187.7689817455297,343.7676393017197 L185.6597252257407,348.2608720872376 L185.42919462058885,350.76332668150263 L181.59391408273908,355.34937518663634 L178.29555311671757,358.03627127501034 L175.45726818747337,359.70338439273 L172.66824193454428,360.8124132476302 L171.1471340099511,359.8426079721542 L168.64479325317276,358.7657076355828 L167.57785032419926,358.66218240985717 L165.45184585446432,359.59985916700435 L162.37416375833183,362.0321069989955 L161.4244564789868,364.1513992635632 L160.5900145022186,365.2628080087098 L159.87083782802725,367.90329623727547 L157.82857310802535,371.79441679041196 L157.57045764413766,373.0807474686814 L155.84443362607595,376.7279292715448 L154.86615631446875,377.8405279618148 L151.15500764093235,381.17594414237783 L149.139342606141,381.59242493552694 L147.930534689382,382.49559328409913 L147.57094635228538,383.4999069681502 L144.37307308594555,386.0106911782782 z"/>
	<path id="hatay-belen" title="Belen" class="district" d="M271.8545273879775,230.88111529119976 L273.8544296463474,230.3694388881878 L276.0651590393435,229.31871734432858 L277.14687957121123,227.58496729970474 L278.6522247193839,227.98359891600472 L279.475829787363,229.23304129545213 L280.98117493553565,235.85270601627755 L280.7457184627514,239.94373735012553 L279.24037331457885,244.03476868397374 L280.0166900532964,245.25684232558575 L282.01560713814,246.33612255240365 L284.9327059494876,246.50628470503315 L287.14343534248474,247.50107882809786 L290.5541060905032,247.95563786519233 L292.43578752571835,248.7790798905044 L294.3450538196703,248.94924204313375 L295.85039896784207,248.07820221289052 L297.1981163518087,246.60148031489595 L299.8955214667927,244.63093119073864 L302.7810947252983,243.6087683298381 L309.3561428397632,245.06050138024395 L310.3600346630538,244.98434489235368 L312.61805238531235,242.1820241270214 L315.118422795038,239.4629995203189 L315.43367832345103,240.88974372313575 L315.33811649140074,243.35649996370208 L314.4130385502137,245.6673733931183 L314.2209297125869,251.02331639301676 L314.540125935105,254.5300846713326 L315.1460076537739,256.1864882829431 L317.0286742625163,258.0737412484705 L319.13399008819925,259.6159101282455 L321.9407494646024,261.34966017286945 L323.44018357161644,262.77521443056287 L325.4499375652501,265.66440118989465 L326.055819283919,267.08995544758835 L326.055819283919,269.36394057818256 L324.3967870656454,271.82950687362563 L323.66381796208424,274.4878442790406 L324.75637540274107,277.4650869774955 L326.53461361769575,279.5189322602828 L327.1779319303634,280.68388853597696 L327.53949061451254,282.33434242197086 L327.1779319303634,283.4992986976655 L325.3494498655684,286.2897200117648 L323.99877696102385,289.33478958224686 L322.0422223378094,294.8311461066928 L320.6383500628457,297.6060981341892 L319.34974309045685,298.94002661738983 L316.2917644648509,298.926937221034 L313.34412527418857,298.23319921415975 L310.53244003015396,297.0468239262461 L307.35919610197215,296.3709350962211 L305.6055872251746,296.31619762055027 L301.4195849119647,295.092934033815 L299.84724796400394,294.8013974786107 L294.58740650713753,295.6950462661964 L292.5776525135048,295.4760963635121 L290.4388407879273,297.0813323348214 L286.42721418887123,298.8983785380749 L283.238207484267,299.07211052607437 L281.66192984220197,300.19660866757715 L280.0137345327176,302.0576828403922 L274.89083219600525,305.95237322889864 L272.77664980858475,306.3855132537736 L271.1294396726275,306.08207724733643 L268.5492702072711,305.0004171302718 L264.5731098551621,305.17295917314794 L260.91417537851765,304.93497014849146 L260.02751920485554,305.06467416692925 L256.8572307972516,306.3307757781028 L253.25642155865881,307.27202237061965 L251.75206158401335,307.11018983385316 L249.3600602621786,305.227696648819 L248.5000037737271,303.15005246356634 L247.10302771344635,302.3063813711585 L246.8340753407686,301.26755927853213 L244.90017970866052,299.58021709371627 L242.80373044471406,298.63897050119937 L239.0157382361258,298.7365460013084 L236.1833643480394,297.80005918928447 L242.15745661146667,289.9940191805457 L245.60950464758997,288.9861356611248 L246.76018732629746,287.9092353245535 L247.1916933308126,283.4279019902685 L248.8024520462984,280.43875984058064 L250.61418616114753,278.6324231434367 L252.426905449522,277.31277400171535 L255.53315757791762,274.4283470228764 L257.92121820564626,273.6298938451535 L259.4452816508174,272.7957423137316 L260.365433724374,271.8568756114614 L261.833342278547,271.68314362346194 L263.52981109081935,271.96159078231017 L265.658771081134,269.7732817005922 L265.3711004114578,267.02807830117763 L266.1474171501744,264.0401260966131 L267.9020112004983,262.9977341686167 L268.30494717275127,261.5376715023484 L267.5286304340347,260.07879878120286 L267.038999191467,257.47281896121257 L267.67246576887277,251.7408533023564 L267.26952979661974,250.4200142155121 L267.61434053082115,247.5712855903715 L267.26952979661974,246.63241888810134 L267.6596585130302,244.4072215075613 L269.9492017881308,245.68284267972112 L271.3609554513057,245.68284267972112 L272.86630059947737,244.12044473284993 L273.4780933593049,240.51134117393156 L271.78458006761053,238.21117725062496 L270.0674226112854,237.10214839572498 L270.42011473369803,235.68254386364777 L272.7254207852181,234.0915872338183 L271.9727482111322,232.2447924024825 L271.8545273879775,230.88111529119976 z"/>
	<path id="hatay-defne" title="Defne" class="district" d="M226.71190606627977,393.32171401573083 L229.05464871179947,393.1003842228002 L230.80924276212238,391.41304203798455 L232.98943177580463,389.6959512250865 L235.09179208090876,388.4262797785434 L237.01879149833383,387.75872056438124 L240.01963005941542,387.4279158201087 L241.7604316803713,387.00786519158953 L244.37015635151624,385.9821324953195 L249.57285774385736,386.33078641644113 L250.88215336029805,386.7425074290974 L253.07613480334737,390.01009673763326 L254.65930866009722,391.50347786735404 L256.9271781176186,392.99566905195127 L259.46597029487026,394.3605361083572 L261.5072498413449,396.2727779214737 L261.77718738754896,397.3865665568666 L265.58980893429424,399.24883067480505 L265.61739379303015,400.36737909069166 L268.3256358168033,401.73581598246733 L269.77581124750316,401.44784926263293 L273.1352529721551,401.66203938482397 L273.1776154337862,403.5469124601047 L274.70266405248356,405.7851992370006 L274.2721432214946,406.1897805789169 L276.09865493923786,409.1634534420018 L278.0266395301884,410.549739510627 L281.44026579878675,410.9567007427898 L282.8677822383822,410.4521640105179 L284.8509365468053,410.4628735166273 L287.8350271579401,411.13757240152887 L290.29500545308827,412.57502611045516 L292.8209903744983,414.72168711285843 L291.7244922397363,417.23128137786284 L290.903842692336,418.51523216588555 L289.2891432827461,420.1240379725645 L288.70197986107655,421.18784891278 L288.0842760600922,424.85050000224595 L288.15520855398455,430.5634265391295 L286.9464006372264,432.4114113155882 L284.46770404507896,438.48489122482647 L283.00570653206256,439.40352886000124 L280.6137052102288,440.2864681414775 L278.05520956245147,439.87236723857495 L276.14397292144696,440.18532280599834 L273.4574047152521,441.3788377646516 L271.1599800519414,441.472843429391 L269.2576099726743,442.1761009972516 L268.08229795580974,443.1518559983437 L264.26376536790576,448.60299460810467 L263.95836157475566,450.14159365251015 L264.93663888636286,453.82209391882554 L264.3396237294304,455.92234706142074 L260.3004122716385,459.7860988767214 L259.16746271640403,461.46273155542787 L258.59606207115496,463.1619731914763 L256.8050166003587,464.1936556133631 L254.77949983030453,464.4054658453074 L250.98855210113743,463.74742619213146 L247.70595391153643,463.6962585518304 L244.70413017692857,464.27219199149977 L243.76920050047863,464.8624047726481 L237.62171769642396,470.16242035175236 L236.693684234658,472.6577352752774 L236.25626718898513,477.225934603562 L237.01583597775493,479.4297129718827 L236.71831357281508,480.8267085466173 L235.69570345252515,481.6751394195185 L234.4760586269769,481.96429608447625 L232.00425824951344,481.8786200356 L231.03484749964372,481.4038319314098 L229.09208530579815,479.25003125826714 L226.02129942434965,477.19261614011003 L224.78293630180212,476.81897337139907 L221.8638671434029,477.04863278019303 L221.8481043669815,476.1930622365522 L223.02144603679432,474.5878262652428 L223.26773941836666,472.0984610673342 L224.73860349311855,470.6848062608738 L224.59969402591184,468.4584189352103 L224.14749937734376,467.7599211478432 L224.41054070886383,466.34983617675226 L223.71205267872347,465.3050643585097 L225.5750158169393,463.3368951245991 L226.2754741941322,463.1762525329559 L226.84391931880248,465.71916526141223 L227.68722785730716,465.86314862132963 L228.11380799419095,464.54825926010153 L230.35803328708158,462.1993075867401 L231.85746739409655,460.10738406000803 L232.10770146977399,458.48310896672615 L233.16774818406356,457.9940415210568 L234.50265831218763,454.3004518583854 L235.08095517211967,453.3318365280328 L237.71333883436904,450.65089016527526 L239.62063478126754,447.9520946256688 L240.21173889704227,446.01962374545667 L239.10243350643862,444.37154974970906 L237.86801107799624,443.34581705343896 L235.86219777846867,441.1896364900496 L234.6287605235517,439.4582663356724 L233.7834816379953,439.0025173534548 L233.29877626305995,437.50437644324103 L234.67309333223534,436.02884449036964 L236.88382272523222,435.7884755754667 L238.4059158233518,436.176397685657 L239.8669281628408,437.98630421817086 L240.58019379587546,439.45707639054916 L241.86486007415812,441.0040050508174 L244.08347085536542,442.0297377470875 L247.3108993274937,440.3459653976415 L249.20341767149893,438.0731702121707 L248.93742081940002,437.0343481195444 L247.36705421849268,434.48191583010146 L244.89426866750284,431.8973550223302 L243.2539547462286,429.58648159291397 L241.60477426321694,428.31800009149373 L240.85899790381507,427.25061931590864 L240.73289569245003,426.0666239182416 L239.4708884052718,423.7724097205513 L237.79510823705135,422.17788325535173 L234.64156777939428,420.76065861352123 L233.15494092822183,419.31725517897877 L232.73525700602113,417.8762316346825 L233.40320465684675,415.46659276003396 L233.19730338985204,413.67572534949215 L232.43773460108122,412.3834449456066 L234.43665168592577,411.0709354746252 L235.28488609206187,408.6458273133736 L235.56171985294992,406.10529447516353 L233.46921128310862,403.6302086187343 L231.96780682904102,402.41527464786225 L229.61816796883733,400.93141307912776 L228.7640225215435,400.06037324888456 L226.74146127206814,395.6575762927361 L226.71190606627977,393.32171401573083 z"/>
	<path id="hatay-dortyol" title="Dörtyol" class="district" d="M288.37884294445325,104.99444080880913 L285.1445182576401,100.63805171246901 L283.4401680571567,98.05230095957431 L281.7545361536734,95.12146612092735 L279.8235960421432,96.24834415267684 L279.3201723702086,95.36659481632374 L281.2501273082124,94.56576174835415 L278.1960893767107,90.785306091683 L279.5300143313085,89.43709826700284 L278.02269883608415,86.82992850188909 L274.42287477101763,82.1498743320156 L272.1756939575483,78.59788813901488 L269.63887212734903,75.6099359344504 L266.324748384907,70.19449567838802 L265.08540008883324,68.72967323162632 L260.99791512825254,65.55608958782949 L258.6857128620476,64.00916092756128 L263.2746511475104,60.62733688719008 L265.79571020128907,58.50804462262244 L267.1306203294121,56.806423096327244 L270.0959926435485,55.5522209363866 L274.1253523660777,53.64235901351703 L276.67104075801336,52.14897788379622 L278.52415216096534,50.77578121152734 L281.2186017553714,49.19434414268366 L286.53262775618333,46.8061242802543 L289.3009653650606,46.08977731603763 L290.9570420627553,45.19374863820526 L293.1559493734369,43.581372996156205 L297.7783835587934,41.402583475424514 L302.91901901897876,41.61082387199917 L305.36619005828527,42.29742220813347 L313.34905114182,46.26826908452992 L315.1785183801421,46.77637565217221 L317.9961146653334,47.22379501852676 L321.9870526203377,48.138862818331496 L325.2824580657803,48.3375836539197 L327.72174771687656,48.89566791673986 L330.32457617333654,49.890462039804554 L332.4338326931256,50.408088168432755 L334.8071157179601,50.44735635750102 L338.92612623138183,48.49703630043991 L341.43043733521364,49.21338326465616 L342.6165862608672,48.29831546485143 L343.0126260184363,46.54671624337836 L344.4953121755045,45.19374863820526 L347.2636497843817,44.47740167398858 L349.60343690932154,44.63685432050879 L353.854460675267,45.989821925681895 L355.07410550081516,45.47219579705371 L355.6671799636415,44.67612250957706 L356.1233153063146,42.434265897311214 L360.3989684104161,42.630606842653016 L362.21365804584406,42.143919287229906 L365.00662499287836,42.456874854653684 L367.68531181086394,42.42236644607835 L373.4741914513484,42.805528775775485 L375.5184265184019,41.48349974380775 L376.98732024610115,41.413292981534106 L379.89555249571134,42.76983042207716 L382.6609345840097,42.074902470079536 L385.0509655587919,41.97018729923057 L388.7946249586966,42.28314286665434 L390.46547925928644,42.805528775775485 L393.95003802177706,47.327320244252455 L395.2169711765858,49.30976881964236 L396.1676636294572,50.17961870476259 L398.50055453971305,51.60517296245588 L399.6187264920542,52.611866536753595 L400.1517053697764,53.48885609261347 L401.03737636991224,56.547015059451724 L401.76541960584194,57.501351048324736 L400.2896296634577,59.946688276672006 L399.70148106826275,61.557873973597786 L397.9527980590957,61.99815366921228 L397.1873182291682,62.78946717619597 L395.585426075419,67.05780033341323 L394.0554515890893,69.52098673860972 L392.9254575544337,70.66452400208503 L392.74418562559595,73.04084441328195 L392.0516086366142,75.50522076360171 L391.17775971879377,76.296534270585 L388.4094221099166,76.78084193576112 L385.93171069129534,79.06910640783516 L384.6933475687478,79.90444788438008 L382.8727468921622,81.97257250864658 L381.2698695648876,83.02805383299874 L378.5744347969562,85.88868190937178 L374.4938460510585,90.64013278664233 L373.36483718992923,92.1358938066094 L371.79841128312705,95.78783538996615 L370.6694024219978,100.18706251074448 L370.05071344748717,101.5507396220272 L369.72265066323257,105.51087699231404 L368.84781657188677,106.87455410359703 L365.90805876943466,109.5543105212311 L365.23124455687343,109.70543355188798 L363.6362486178082,111.86042417015396 L361.6865902092787,112.83855906149283 L358.5320645780953,112.87663730543782 L356.3548310849928,112.15672050585148 L354.4820162115142,110.90846807152748 L351.80628491410835,110.16713225972165 L350.2595624778319,109.38652825884799 L348.3552220515113,108.93791894737018 L344.85588568612644,108.67613102024795 L342.8796275923863,108.92482955101389 L340.43442690013336,108.13232609890734 L339.42166851510626,108.25370050148213 L335.54895138325685,109.70662349701125 L332.8279021036421,110.15166297311912 L330.40339005544007,109.89582477161328 L327.6252007113,108.92720944126057 L325.2548732070444,108.62853321531635 L323.0530103757839,108.88199152657593 L317.86311623928447,108.26678989783841 L314.55982940563155,107.29817456748572 L312.60130443536457,105.62987150464257 L308.9147850999852,103.48321050223952 L306.9326159650874,103.29519917276062 L302.1909757830499,103.94014942958025 L294.0209317295208,103.84971360021082 L288.37884294445325,104.99444080880913 z"/>
	<path id="hatay-erzin" title="Erzin" class="district" d="M258.6857128620476,64.00916092756128 L256.7055140742033,62.729969920031785 L253.14312660313544,60.02998443530193 L251.26144516792033,58.79720128758048 L247.7345239437986,56.8397415597793 L244.5819686596687,54.51815862425349 L239.61472374010987,51.34695487070336 L237.97046912473047,50.621088345500496 L233.7224008793649,46.461040194502175 L226.06366188597974,42.484243592489086 L224.4341848734956,41.7702765185191 L220.48068351249015,40.48156595000312 L216.50944902801155,39.396335997568876 L214.5755533959035,39.12740839970661 L212.35398709411731,39.599816613650304 L210.90085614283856,40.79809135279643 L209.6260415998177,42.28314286665434 L207.70002735591896,42.91976350761077 L206.06857999638123,43.84078103303215 L202.83031461546386,48.39827085520716 L201.31807325260723,49.48469075276497 L197.76553751680314,51.38265322440168 L196.48973780025597,52.697542585629776 L195.0888210458711,55.2059469055112 L192.07024936131546,51.85268154809869 L191.7993266415852,50.64131741259628 L192.99631247602883,47.93657214737334 L194.1154696018953,45.9791124195723 L194.65632986782862,43.64800992306031 L194.30856361304842,40.99086246276828 L194.50165762420153,38.613352106448374 L195.65923651759294,36.608294573716016 L202.52983668994517,32.412548069018804 L203.72583735086153,30.87394902461379 L206.7562311177325,25.967805281316405 L208.26157626590515,24.67314498718408 L209.91174192244227,23.86993202896795 L212.7194864723707,23.135735887902047 L215.8749972770804,21.212784568676188 L221.86682266398077,15.338025495026251 L223.89332460756123,12.926006730131027 L229.85657996219942,8.205494426066279 L232.9953428169623,6.53600141809944 L236.8325937018647,4.8141508247084746 L240.76934711292336,4.009747921368929 L244.7642257620327,4.639228891586008 L247.5148302474368,5.6173637829248895 L249.91766847805968,6.2468447531418265 L253.73817141301532,6.946532485632264 L256.6040412009953,7.191661181028653 L261.959444489912,7.0869460101796875 L268.3571613696443,7.646220218122699 L271.5412422066161,7.471298285000372 L277.41780229094053,5.2330115081042035 L280.24327996434306,4.7998714832292055 L285.4361296214223,3.869334396821504 L290.27037611493125,3.6599040551238526 L292.1234875178842,3.0649314934819594 L298.02861763447083,3.275551780303024 L299.38914227427915,3.905032750520246 L300.17038488062724,4.883167641859128 L302.08063634810543,6.106431228594402 L303.86675595127025,8.124578157682619 L305.39278974349486,11.116100197617193 L306.8902535034573,12.19419047931181 L308.3305771988945,12.33341405873582 L309.59751035370414,12.020458491312473 L311.67130062654616,12.33341405873582 L313.1687643865085,13.65544309070384 L313.97463633101455,15.464159678094406 L314.810063481309,15.811623654093221 L317.3153597586662,16.090070812941523 L319.93592133860017,15.498668086669733 L320.9447390295221,16.021053995790872 L323.01754412883776,17.89878740033209 L323.8244012468701,20.159683134570432 L323.1042393991515,22.281355289384628 L322.81656872947445,24.542251023622974 L322.21167218433175,27.186309087558318 L322.8451387617366,28.577354936676702 L324.2854624571746,29.48171323037198 L325.95533158423734,29.620936809796415 L329.8723815247694,30.59550186576534 L334.10567216724087,32.89090600857901 L336.3232977749218,33.30857674685147 L337.8779015994086,34.03920305254727 L339.6640212025735,34.31765021139543 L341.9673569070419,36.717769525058074 L348.1591725197794,38.908458497022636 L351.3274905803307,40.961113834686316 L356.1233153063146,42.434265897311214 L355.6671799636415,44.67612250957706 L355.07410550081516,45.47219579705371 L353.854460675267,45.989821925681895 L349.60343690932154,44.63685432050879 L347.2636497843817,44.47740167398858 L344.4953121755045,45.19374863820526 L343.0126260184363,46.54671624337836 L342.6165862608672,48.29831546485143 L341.43043733521364,49.21338326465616 L338.92612623138183,48.49703630043991 L334.8071157179601,50.44735635750102 L332.4338326931256,50.408088168432755 L330.32457617333654,49.890462039804554 L327.72174771687656,48.89566791673986 L325.2824580657803,48.3375836539197 L321.9870526203377,48.138862818331496 L317.9961146653334,47.22379501852676 L315.1785183801421,46.77637565217221 L313.34905114182,46.26826908452992 L305.36619005828527,42.29742220813347 L302.91901901897876,41.61082387199917 L297.7783835587934,41.402583475424514 L293.1559493734369,43.581372996156205 L290.9570420627553,45.19374863820526 L289.3009653650606,46.08977731603763 L286.53262775618333,46.8061242802543 L281.2186017553714,49.19434414268366 L278.52415216096534,50.77578121152734 L276.67104075801336,52.14897788379622 L274.1253523660777,53.64235901351703 L270.0959926435485,55.5522209363866 L267.1306203294121,56.806423096327244 L265.79571020128907,58.50804462262244 L263.2746511475104,60.62733688719008 L258.6857128620476,64.00916092756128 z"/>
	<path id="hatay-hassa" title="Hassa" class="district" d="M367.0804152657203,163.8693556734987 L362.94761232293064,163.32317086191168 L361.9998753906391,161.03490638983763 L362.65600095914846,159.9353970959238 L363.1298694252946,156.81179114730529 L361.56344351849157,153.55610129000226 L361.34473499565513,152.5434579900879 L361.5998949389649,150.8715850918748 L362.8382580615124,147.30888939276463 L363.0934180048213,145.2847927380595 L362.98406374340306,139.96097825648994 L362.6924523796217,135.69264509927268 L364.1859754454781,126.27779928385488 L364.62240731762563,124.95815014213385 L365.71594993180787,123.68133902485073 L366.0794789630096,122.58182973093693 L366.22528464490017,120.07342541105551 L366.22528464490017,115.3660025033466 L365.71594993180787,112.63864828078137 L365.90805876943466,109.5543105212311 L368.84781657188677,106.87455410359703 L369.72265066323257,105.51087699231404 L370.05071344748717,101.5507396220272 L370.6694024219978,100.18706251074448 L371.79841128312705,95.78783538996615 L373.36483718992923,92.1358938066094 L374.4938460510585,90.64013278664233 L378.5744347969562,85.88868190937178 L381.2698695648876,83.02805383299874 L382.8727468921622,81.97257250864658 L384.6933475687478,79.90444788438008 L385.93171069129534,79.06910640783516 L388.4094221099166,76.78084193576112 L391.17775971879377,76.296534270585 L392.0516086366142,75.50522076360171 L392.74418562559595,73.04084441328195 L392.9254575544337,70.66452400208503 L394.0554515890893,69.52098673860972 L395.585426075419,67.05780033341323 L397.1873182291682,62.78946717619597 L397.9527980590957,61.99815366921228 L399.70148106826275,61.557873973597786 L400.2896296634577,59.946688276672006 L401.76541960584194,57.501351048324736 L403.6411899998994,59.16132449530497 L406.2262853328863,61.10331493650332 L407.56710650216803,62.6538134321415 L408.7542406013489,63.16667978027674 L410.74330595092965,63.36421067074166 L411.81418957400734,64.10316659230081 L414.53031298599166,64.85283201996911 L416.58637013536054,64.05675873249245 L418.40992633252506,64.05675873249245 L422.9486207681466,65.97852010659531 L425.1209283936177,67.14942610790605 L427.91488051417826,69.35201453110362 L430.51376827653314,69.63284158019832 L436.9932545589486,69.82085290967721 L439.00990476726525,69.39842239091153 L442.2304370247106,69.0711874820085 L445.48939104968076,68.36792991414808 L447.8557778598313,67.00901258335878 L449.33058262868815,66.72818553426362 L453.3264464513238,66.54017420478502 L456.7400727199213,66.58777200971635 L458.5252071495599,67.28983963245348 L460.8531721921853,68.88317615252988 L463.0639015851823,70.75733972170114 L465.9741041818452,73.85000709711444 L468.9227285460337,78.95844151136997 L471.8319459691702,86.40868792824666 L472.6949579782014,87.31066633169554 L478.42768272768694,87.83781202131006 L480.4403922418993,89.04917615681246 L482.80382353147195,91.1101611103392 L482.1772531687501,91.73726219030945 L484.4559595350614,93.33059871038584 L484.4047305116932,94.58956065081959 L485.60467186671553,95.1143264501877 L485.43226649961446,95.86161198760973 L484.1101636273329,97.15389239149539 L483.60871030245073,98.80077644211934 L485.4647772259824,100.55594549896234 L484.9229317865219,102.19212004347686 L484.6904308343177,104.17575856399046 L485.179076903358,105.24432928469875 L483.7850563636572,105.3085863213559 L483.33581723566704,106.33074918225641 L482.5033456059522,106.56992815203644 L481.6216152999216,108.9212597156442 L480.26700170127197,108.9319692217538 L479.51038843308197,109.44364562476535 L479.0158313228827,110.91560774226711 L477.33414011350476,111.41538469404607 L477.05139531145903,112.14482105461862 L475.21306151140016,112.17099984733103 L474.18946621758414,113.49183893417549 L473.6348135222828,115.32554436915507 L473.9835649505894,116.52143921805494 L473.14912297382114,117.19494815783338 L472.3077847823689,118.76210588519736 L472.66146207830695,120.6017610457933 L470.4467919912058,119.8009279778237 L470.71869988446144,120.9301858998196 L469.42910773854726,121.75243798000824 L467.5631890797516,122.14630981581526 L468.1562635425789,123.84198161649381 L466.70510293835275,124.3417585682729 L464.9150426410828,127.5153422120697 L464.7239189769823,128.5422648534632 L462.80874164187253,131.30650737485004 L461.7083028130064,132.30844116865478 L461.63539997206055,133.2211290782133 L462.66786182761314,134.01006269495 L462.3861021990939,135.06792390954885 L463.55156248069557,136.57677432587207 L463.328913263754,137.84644577241565 L464.1495628111543,139.6456427988199 L463.96829088231743,141.00575007473267 L464.9859751349751,141.85775078300364 L466.6351556179858,144.7374179813492 L467.67451368822344,145.33358048811436 L468.7089458908288,145.22172564652575 L468.6705241233037,147.22083345364146 L469.2084288686582,148.51192391240414 L468.1651301043155,152.14125653841796 L466.86076035550707,153.25742506405805 L464.15054798468157,158.0945519902046 L462.1585271145209,158.71451339943525 L461.3989583257502,160.05320166312904 L461.7683983981095,160.5862970783598 L460.70047029561067,163.7063331916088 L455.02291526359613,163.34577981925412 L445.54357559362643,164.07164634445667 L442.0649278722932,165.6114353339854 L437.32919873141356,168.20670564786658 L435.5805157222473,169.92260651564104 L433.28604657951644,175.2904489667721 L432.4259900910639,176.90520449906768 L432.26737715333155,179.12802198936106 L430.8684307459983,180.21444188691856 L427.1434896430921,180.6035539422323 L421.0452655153523,181.48530327858518 L419.30446389439743,181.8863147851318 L417.9547761633782,182.97630451805927 L415.1824978603958,182.06599649874735 L413.14220348744743,179.55878212398935 L411.35706905780887,176.08295241887865 L409.8635459919516,175.5986447537025 L407.35036832638417,175.4665608450181 L404.29041935372476,175.730728662387 L402.5062700976124,176.4339862302474 L399.95565583804535,178.23794303714502 L396.89669203891225,181.88988462050133 L396.20411504992956,182.46224822480076 L394.67414056359985,182.46224822480076 L392.19741431850485,181.8458566509401 L388.9916596639548,179.602810093551 L384.32981853754615,175.2904489667721 L376.75284894684427,169.175320978219 L373.94805991749365,167.4594201104445 L371.79841128312705,166.35872087140746 L370.4142424786889,164.81893188187874 L367.0804152657203,163.8693556734987 z"/>
	<path id="hatay-kirikhan" title="Kırıkhan" class="district" d="M324.1682268075452,303.66529870194796 L321.361467431143,301.4591404433807 L319.34974309045685,298.94002661738983 L320.6383500628457,297.6060981341892 L322.0422223378094,294.8311461066928 L323.99877696102385,289.33478958224686 L325.3494498655684,286.2897200117648 L327.1779319303634,283.4992986976655 L327.53949061451254,282.33434242197086 L327.1779319303634,280.68388853597696 L326.53461361769575,279.5189322602828 L324.75637540274107,277.4650869774955 L323.66381796208424,274.4878442790406 L324.3967870656454,271.82950687362563 L326.055819283919,269.36394057818256 L326.055819283919,267.08995544758835 L325.4499375652501,265.66440118989465 L323.44018357161644,262.77521443056287 L321.9407494646024,261.34966017286945 L319.13399008819925,259.6159101282455 L317.0286742625163,258.0737412484705 L315.1460076537739,256.1864882829431 L314.540125935105,254.5300846713326 L314.2209297125869,251.02331639301676 L314.4130385502137,245.6673733931183 L315.33811649140074,243.35649996370208 L315.43367832345103,240.88974372313575 L315.118422795038,239.4629995203189 L318.23157113811664,236.5000361633436 L319.14088630288325,233.9999614593255 L319.4856970370856,230.47653394928318 L319.5172225899266,226.12014485294304 L320.3959973753775,221.46150969528875 L321.4619551308248,219.98359785217076 L324.0963091401266,217.1812770868385 L326.1661587188635,213.92320733928878 L327.2951675799928,213.2794470275924 L330.1176897328155,212.48337374011592 L331.058530450424,211.65041215381754 L333.37959927836454,208.88497968730732 L334.0692207467684,207.33210130142243 L337.5192984358392,202.21890710667395 L338.14586879856006,199.52844118293027 L339.8709076430945,197.82443976638854 L340.6235802171813,195.0590072998783 L342.35058940876837,193.13724592577543 L342.1998578592463,191.3190097773987 L344.7219020865502,189.36392993984418 L346.3208387197206,188.5916555548334 L347.56314253637316,186.0915808508149 L348.259660219461,185.25028964865376 L349.08720598154525,182.81804181666234 L350.4605378771952,181.09143144277846 L355.0947941448671,177.729836469503 L356.06519006826306,176.71957305983548 L356.6001392930397,175.1845438508 L360.0462762880045,171.74917227988098 L360.8156968120371,170.2546012050369 L363.79289120848887,168.55773945923508 L367.0804152657203,163.8693556734987 L370.4142424786889,164.81893188187874 L371.79841128312705,166.35872087140746 L373.94805991749365,167.4594201104445 L376.75284894684427,169.175320978219 L384.32981853754615,175.2904489667721 L388.9916596639548,179.602810093551 L392.19741431850485,181.8458566509401 L394.67414056359985,182.46224822480076 L396.20411504992956,182.46224822480076 L396.89669203891225,181.88988462050133 L399.95565583804535,178.23794303714502 L402.5062700976124,176.4339862302474 L404.29041935372476,175.730728662387 L407.35036832638417,175.4665608450181 L409.8635459919516,175.5986447537025 L411.35706905780887,176.08295241887865 L413.14220348744743,179.55878212398935 L415.1824978603958,182.06599649874735 L417.9547761633782,182.97630451805927 L419.30446389439743,181.8863147851318 L421.0452655153523,181.48530327858518 L427.1434896430921,180.6035539422323 L430.8684307459983,180.21444188691856 L432.26737715333155,179.12802198936106 L432.4259900910639,176.90520449906768 L433.28604657951644,175.2904489667721 L435.5805157222473,169.92260651564104 L437.32919873141356,168.20670564786658 L442.0649278722932,165.6114353339854 L445.54357559362643,164.07164634445667 L455.02291526359613,163.34577981925412 L460.70047029561067,163.7063331916088 L459.9103611275251,164.28226663127816 L459.84829519536856,166.05528486497028 L457.3026068034337,166.7121345730225 L456.04946607799116,168.7707396363027 L454.44855909776913,169.5025558871219 L453.6683016649464,169.40379044188944 L452.81612656470514,170.34622697952997 L451.8713451529925,170.44499242476246 L451.33738110174215,172.8760503116302 L448.7503154217037,174.78591223450002 L445.28841565031735,175.82830416249607 L446.6765251488606,188.00501260905446 L447.11000150042844,192.3340329675593 L447.0607428241144,195.42551039784948 L447.5434778519972,200.598201848762 L449.3059532905311,203.71466812664102 L450.80243187696635,208.17339250358398 L452.27920699287597,211.2422609765314 L452.37772434550595,212.01453536154258 L451.589585524473,213.38178230819486 L451.1078356701165,215.8556782195008 L449.6891857922577,219.95860900458206 L448.90203214475196,226.48664795091437 L446.87355985411887,233.7643523249153 L445.92877844240616,239.87710042322183 L443.7732187668819,241.43473858959965 L442.94567300479764,243.62304767131766 L438.9882309496871,247.70098960880975 L436.80213089484806,249.2467283239547 L435.66031477787715,250.4009750935396 L433.2092030444654,253.44485471889828 L433.8288771925023,255.58556599568502 L435.0002485152618,255.27618026363118 L434.7352368366891,256.7386228201466 L435.3352075142003,259.3315132437808 L432.80528189868613,261.1152409835826 L433.7796185161874,263.6712431083951 L435.83370531850454,263.94493048675037 L437.25334036988886,265.7084291594562 L437.8158744534013,267.14826275862913 L436.93217380031814,270.1564440302895 L437.46909337214646,270.84304236642384 L436.36077315507004,272.22575859967907 L433.4889923259323,273.56325691824964 L431.7265168873982,273.7822068209339 L429.374907680142,274.6282578035883 L426.5041120245305,275.93838738432305 L423.633316368919,275.6932586889267 L420.5359308022609,276.0121639819668 L418.5764206584676,277.1033436600176 L416.64745089399094,279.2880829063656 L414.839657473247,281.9821186654793 L410.7403504303508,288.68150970956424 L408.6695156780877,292.74279241533054 L403.31017169506504,299.52309972779875 L401.0137322052814,302.2980517552956 L399.48277254542546,303.5820025433183 L398.24933529050935,303.9925336108509 L392.0397865542979,304.09605883657656 L387.7858072677746,305.3288419842982 L381.66196862835153,307.58854777341304 L377.3656268801971,308.7189956405322 L370.8585557390458,311.1333942956742 L361.92697254969335,314.81508450711283 L358.1232175646845,315.2458446417416 L351.9737644135772,314.5663859763465 L341.1634553095884,310.4396562888002 L334.4524532484949,308.8867779029154 L324.1682268075452,303.66529870194796 z"/>
	<path id="hatay-kumlu" title="Kumlu" class="district" d="M437.46909337214646,270.84304236642384 L440.41377704223,272.1948200264735 L439.9182347585056,273.47282108888 L438.83552905311154,274.66157626703995 L439.41481108657086,275.3803031215033 L437.83951861803223,277.8946571670008 L438.7557299974827,278.6324231434367 L437.91143628545166,280.09843553532164 L437.6543059950893,282.3510016536971 L439.41481108657086,284.273952972923 L440.3467852424428,284.62260689404513 L441.769375814406,283.9336286676638 L442.24422945407844,285.29254599845336 L441.44820924483525,288.2352802883331 L441.27186318362897,290.6139805897767 L442.17132661313263,294.2254640389413 L444.47072162349514,294.2052349718455 L444.93670870143103,295.2345375034857 L445.9011935836694,295.71051555279894 L447.6213065605742,299.41957450207303 L448.2488620968204,300.22516735053586 L450.5147612072892,307.94434136527485 L453.13433761369697,307.40053644393447 L455.70859603789484,307.59806733439945 L458.73110841655466,306.8198432237723 L458.20404057998917,309.61978409885785 L458.1735002006743,312.3542779921632 L458.6700276579252,314.45096129938827 L458.3754607735641,315.7063534044523 L457.1577862950685,317.1390473328852 L454.8170139966013,317.41749449173363 L455.8790310579435,319.37614416465783 L458.15970777130644,320.59702786114684 L458.8335664632888,321.29909548388395 L461.1388725148098,322.7103704000978 L463.6008211570106,324.57620435340607 L463.8599217944246,325.04385278685635 L461.2600488585434,327.3261675333139 L458.8049964310276,328.47684446752885 L455.76967679652523,328.9064146570342 L456.3184184506689,332.3191772706108 L456.9479443339686,333.8994243943311 L457.625743720057,337.8857405573303 L458.5902286022954,340.3120386637048 L452.0585281229869,339.5552335652968 L450.42708076345014,339.855099736364 L448.7601671569654,340.8832123228808 L445.35639262363077,343.96755008243144 L442.3782130536537,345.4656909926452 L440.46303571854503,345.6798811148358 L434.03674880654967,345.528758084179 L431.3659433767753,345.802445462534 L427.0498981580953,343.7997678200484 L426.65878426815766,341.5829000553717 L425.8923192647039,339.8420103400082 L423.6008056425507,337.4537904775784 L415.5411010239662,331.22323781206666 L414.47317292146636,329.90120878009884 L411.68119114795843,323.41124807771155 L408.66360463692996,323.66113655360135 L404.8293092726056,323.37911955938296 L398.4168147899792,321.6691684172248 L396.86319613901776,322.37361593020864 L396.55779234586845,323.3112926873559 L394.475135511289,324.75350617677543 L394.1707168916661,326.3968203920295 L392.08806005708664,326.69787650822036 L380.707335481375,324.7201877133234 L366.9395354514611,326.1612112576194 L363.4973391506005,327.03344103298633 L356.8434771540333,327.78310646065466 L352.82988020792453,328.498263479748 L350.40339781266994,330.68419267121936 L347.53161698353216,330.0832703839613 L343.25891940000855,327.28094961862905 L341.5900354464722,324.7249474938164 L337.0730148284288,318.97394271298816 L333.20719391126335,315.18872727582385 L329.38077993515014,313.41927887750154 L326.4508738679608,311.0596176980308 L323.56135991535,307.07806131552456 L323.56135991535,305.8988256983507 L324.1682268075452,303.66529870194796 L334.4524532484949,308.8867779029154 L341.1634553095884,310.4396562888002 L351.9737644135772,314.5663859763465 L358.1232175646845,315.2458446417416 L361.92697254969335,314.81508450711283 L370.8585557390458,311.1333942956742 L377.3656268801971,308.7189956405322 L381.66196862835153,307.58854777341304 L387.7858072677746,305.3288419842982 L392.0397865542979,304.09605883657656 L398.24933529050935,303.9925336108509 L399.48277254542546,303.5820025433183 L401.0137322052814,302.2980517552956 L403.31017169506504,299.52309972779875 L408.6695156780877,292.74279241533054 L410.7403504303508,288.68150970956424 L414.839657473247,281.9821186654793 L416.64745089399094,279.2880829063656 L418.5764206584676,277.1033436600176 L420.5359308022609,276.0121639819668 L423.633316368919,275.6932586889267 L426.5041120245305,275.93838738432305 L429.374907680142,274.6282578035883 L431.7265168873982,273.7822068209339 L433.4889923259323,273.56325691824964 L436.36077315507004,272.22575859967907 L437.46909337214646,270.84304236642384 z"/>
	<path id="hatay-payas" title="Payas" class="district" d="M293.394361366799,143.532003571463 L293.62587714547806,139.63612323783354 L292.85645662144447,137.99756880307254 L291.7904988659982,136.6124726795708 L289.7305010225241,133.2020899562405 L289.7058716843671,129.52158968992535 L289.98664613935927,127.70692337691828 L290.8516284954431,126.11715669221168 L293.7569052244744,123.72060721391901 L294.43963047819335,121.8607229862273 L294.2997358374604,116.11566793101534 L293.8554225771035,113.53110712324376 L292.23579729988126,110.38965199777601 L288.37884294445325,104.99444080880913 L294.0209317295208,103.84971360021082 L302.1909757830499,103.94014942958025 L306.9326159650874,103.29519917276062 L308.9147850999852,103.48321050223952 L312.60130443536457,105.62987150464257 L314.55982940563155,107.29817456748572 L317.86311623928447,108.26678989783841 L323.0530103757839,108.88199152657593 L325.2548732070444,108.62853321531635 L327.6252007113,108.92720944126057 L330.40339005544007,109.89582477161328 L332.8279021036421,110.15166297311912 L335.54895138325685,109.70662349701125 L339.42166851510626,108.25370050148213 L340.43442690013336,108.13232609890734 L342.8796275923863,108.92482955101389 L344.85588568612644,108.67613102024795 L348.3552220515113,108.93791894737018 L350.2595624778319,109.38652825884799 L351.80628491410835,110.16713225972165 L354.4820162115142,110.90846807152748 L356.3548310849928,112.15672050585148 L358.5320645780953,112.87663730543782 L361.6865902092787,112.83855906149283 L363.6362486178082,111.86042417015396 L365.23124455687343,109.70543355188798 L365.90805876943466,109.5543105212311 L365.71594993180787,112.63864828078137 L366.22528464490017,115.3660025033466 L366.22528464490017,120.07342541105551 L366.0794789630096,122.58182973093693 L365.71594993180787,123.68133902485073 L364.62240731762563,124.95815014213385 L364.1859754454781,126.27779928385488 L362.6924523796217,135.69264509927268 L362.98406374340306,139.96097825648994 L363.0934180048213,145.2847927380595 L362.8382580615124,147.30888939276463 L361.5998949389649,150.8715850918748 L361.34473499565513,152.5434579900879 L361.56344351849157,153.55610129000226 L363.1298694252946,156.81179114730529 L362.65600095914846,159.9353970959238 L361.9998753906391,161.03490638983763 L360.0443059409519,161.44781734761713 L357.1498661207097,161.0408561154543 L355.7893414809013,159.6771790041716 L354.2239007476255,158.87158615570877 L351.4260079329598,158.84064758250338 L350.5541293621929,159.52248613814476 L347.3198046753797,160.01750330943045 L345.1130159764888,160.85522467622192 L343.2106458972208,159.97942506548546 L341.26689852984896,158.70023405795595 L337.37841862157904,156.77133301311358 L334.9913431673766,156.35247232971787 L333.2594081081573,155.53854986539213 L331.2575355027339,155.3065105663519 L328.2163048270747,154.19034204071198 L325.4134861447767,152.87307278923748 L322.84710910878914,151.09529477505217 L321.512198980666,149.27705862667528 L320.10931187922756,147.95383964958398 L317.57741591665996,147.62422485043467 L315.72923038133837,147.62422485043467 L312.7530211584138,147.16966581334017 L310.28910216916046,145.6393963847982 L307.6537629863332,145.01943497556715 L304.53962946972734,143.408249278642 L301.32303790638815,142.87039408291758 L297.3202778690686,143.49035549214847 L293.394361366799,143.532003571463 z"/>
	<path id="hatay-reyhanli" title="Reyhanlı" class="district" d="M458.5902286022954,340.3120386637048 L458.92420242770777,339.72658566304966 L458.32620209724985,337.73580747179636 L460.16355072378246,337.1015667210866 L459.96454567147066,335.61532526210544 L460.4354586170381,335.2440623836412 L462.17330471741514,335.3309283776408 L463.1693151524955,336.07464407969286 L464.55348395693363,335.877113189228 L466.10119156673636,334.30281579112403 L467.67648403527596,334.27068727279527 L467.02528433439716,331.7230147638457 L469.1522739776593,331.25298644014896 L471.4605355497581,332.4774399720073 L473.5599403342844,335.67006273777656 L477.5784631480245,334.1635922116999 L479.8325401761788,334.1612123214534 L480.0404117902251,336.599409879061 L483.24518127124895,340.32750795030756 L482.4757607472163,341.54125197605674 L481.76052476712914,341.6281179700561 L481.5792528382915,343.5201307160766 L479.8148070527059,345.1491655898518 L479.9960789815425,347.25893829343283 L478.2670994429012,347.6956481536781 L479.0453865286712,348.6142857888526 L479.3261609836643,350.0029517477243 L478.6197915653147,350.1552647235046 L478.66510954752357,351.7961990485124 L479.153755616564,354.33197210622905 L481.3802477859807,354.3974190880097 L484.874658283735,354.0261562095452 L489.65373505977027,354.5830505272421 L491.8083095617693,355.62187261986844 L493.02992473437087,355.8955599982235 L494.1520373808154,355.19587226573276 L495.45542195609744,355.3160567231846 L495.2386837803135,356.3001413401398 L495.58250934098953,359.1429202396636 L494.00721687245004,359.3832891545668 L493.2565146454166,360.8040836317673 L490.6763451800613,362.0618556270778 L490.39557072506796,363.9967063975366 L489.092186149786,365.7899536983245 L489.06952715868056,367.68791616996117 L490.48916221006573,369.3716885194072 L492.4043395451745,370.82699140518264 L493.4949266387797,372.8177695964358 L496.2080945301842,376.586325801874 L496.3854257649167,377.68821498603455 L495.8780613988771,378.85317126172873 L495.38448946220524,381.5936148806502 L493.3422247422051,382.9572919919329 L491.6556076651947,383.11079491283647 L489.4872407338287,383.7997731392177 L489.48034451914396,386.6068536850429 L487.67156592487356,386.62113302652244 L486.43615832290584,385.3110034457873 L483.90721788091696,385.01232721984337 L482.57329292631914,385.28482465307513 L483.6707762346075,388.60001176654265 L479.12912627840615,388.5869223701865 L476.28788582858397,386.39028367260556 L474.67417159252034,386.06542865394897 L472.0910466065851,384.7386398414883 L468.58284367946294,383.39995157779447 L466.6775180796168,383.5165661998763 L465.75244013842985,385.63585846444397 L467.21542282497137,386.81866391698725 L466.1937978782089,389.5876662188679 L466.4844240684638,390.66694644568577 L467.3553174657044,390.83591865319187 L467.04400263139746,392.4471043501176 L465.79480260006085,395.5147828779421 L462.28659967293856,395.12448087750505 L459.6827860429523,393.43475880244273 L456.7124878611854,393.10990378378654 L456.88390805475933,392.21268516083086 L452.1274902698277,389.5483980297996 L449.8675022005166,389.93870003023625 L448.8340551714375,389.65192325552493 L446.8538563835933,386.68895989854957 L445.5524421553629,386.8055745206314 L444.45397367354917,386.0523392575932 L440.91326002005957,384.62202521940645 L439.6226827006182,386.1165962942501 L440.07389217565895,387.8717653510932 L436.82380471242624,391.13459487913605 L435.7263214041389,390.06840404867404 L432.7993708575285,386.27247910540035 L429.3020048391961,380.98198308728263 L425.83616437370483,382.23023552160697 L424.8677387973604,381.71022950273215 L419.9064049189602,381.9696375396078 L418.14195913337363,383.1917111812197 L415.6445442442267,382.03508452138846 L416.1292496191611,383.7902535782315 L415.7420764233295,385.1158524455692 L415.63370733543667,387.36484872857454 L415.1824978603958,388.0669163513117 L416.5055859062045,390.1457504816876 L415.1283133164504,391.3416453305876 L412.21219967863,389.9256106338804 L411.74916812127276,388.2608774064069 L408.41238538772535,386.87102150241174 L409.6832592366411,389.66501265188117 L409.69311097190297,390.5622312748368 L408.8862538538716,391.4725392941487 L409.2093907704948,393.04445680200564 L410.2211639819957,393.6560885953734 L408.13555162683735,394.9328997126565 L405.66769194347887,396.0764369761319 L405.09333577765193,397.26043237379884 L403.7071966261603,398.996562308669 L404.4332695150375,401.1194244086066 L404.4844985384042,402.34506788558815 L402.82743666718306,402.46763223328634 L402.5230180475592,404.0597788082396 L400.9004372497581,404.55003619903243 L400.76546847665657,403.89675632634976 L398.75374413597035,403.3862698684612 L397.0809194883288,401.75247521419345 L397.33410908458507,399.2619200711612 L393.1924395800589,400.0579933586379 L391.04968716037627,399.84380323644683 L389.43498775078535,400.05680341351456 L387.22622870484184,399.71171932776247 L385.09529836747464,398.9156460402858 L381.8205815660838,396.5797837632806 L372.618075657002,390.86804717152063 L371.9530835267552,390.8620974459043 L369.21922699129783,394.09874818123495 L367.65969729917975,394.1832342849882 L369.1739090090889,392.7921884358698 L368.14341750058867,392.55538935633626 L366.1346486804814,393.90716701638644 L364.6854584233077,393.0170880641703 L363.0067227345085,392.801707996856 L362.4225148334178,391.9413776727223 L362.651075091517,390.89779579960276 L363.9987924754827,389.7613982068672 L365.5504407793916,389.4543923650601 L364.5583710384164,388.2870561991189 L363.0835662695594,388.04073755859963 L361.1250412992924,388.8094421082405 L360.9733245762441,388.16449185142073 L362.09149652858423,386.29032828224956 L363.9987924754827,384.6934219268033 L365.6775281642828,380.9772233067896 L366.1346486804814,379.4100655794255 L366.9740165248819,374.52772073859387 L366.9543130543553,371.9729085589047 L366.4144379619482,369.1218000435178 L364.4184763976825,366.50630066254087 L362.88850191135276,362.0963640356529 L360.9142141646662,360.48636828385054 L359.9773141411638,357.5067456951493 L355.7331865899033,346.53902149384646 L350.7491937203977,336.88261681840237 L349.86056719968394,333.00934544211503 L350.40339781266994,330.68419267121936 L352.82988020792453,328.498263479748 L356.8434771540333,327.78310646065466 L363.4973391506005,327.03344103298633 L366.9395354514611,326.1612112576194 L380.707335481375,324.7201877133234 L392.08806005708664,326.69787650822036 L394.1707168916661,326.3968203920295 L394.475135511289,324.75350617677543 L396.55779234586845,323.3112926873559 L396.86319613901776,322.37361593020864 L398.4168147899792,321.6691684172248 L404.8293092726056,323.37911955938296 L408.66360463692996,323.66113655360135 L411.68119114795843,323.41124807771155 L414.47317292146636,329.90120878009884 L415.5411010239662,331.22323781206666 L423.6008056425507,337.4537904775784 L425.8923192647039,339.8420103400082 L426.65878426815766,341.5829000553717 L427.0498981580953,343.7997678200484 L431.3659433767753,345.802445462534 L434.03674880654967,345.528758084179 L440.46303571854503,345.6798811148358 L442.3782130536537,345.4656909926452 L445.35639262363077,343.96755008243144 L448.7601671569654,340.8832123228808 L450.42708076345014,339.855099736364 L452.0585281229869,339.5552335652968 L458.5902286022954,340.3120386637048 z"/>
	<path id="hatay-samandag" title="Samandağ" class="district" d="M201.839230048015,497.90004117548654 L201.86188903912046,496.0318273319321 L201.1496085796121,493.0403052919974 L201.1831044795057,490.9460018750189 L198.70046719325308,485.07838247210884 L196.81878575803694,481.6965584317377 L195.0760137900284,477.8447060676696 L192.09093800536732,470.750253242654 L190.2732928493606,465.17417039494836 L188.55810574008893,462.5634307944649 L187.12270791228323,461.0926586220866 L183.62140119984576,456.5910962207058 L177.94187582077865,444.77613109162564 L175.66711014857327,436.770180302175 L174.60509308723212,435.30773774566006 L174.3292444998704,433.6834626523781 L172.16383308908328,430.60745450869075 L170.8308933080118,426.936473803362 L168.67336328543496,423.04654319534876 L165.6242512215646,418.1118407690927 L163.06575557378824,415.22741379025376 L160.8550261807912,412.4619813237432 L159.85803057218465,410.87935430977655 L155.4237645303499,404.65118153451147 L153.82581307070578,401.4966370126874 L152.72931493594382,399.8878312060085 L150.73926441283675,394.50332952315114 L149.65951422802252,392.66486430767867 L147.02811573929944,389.5364985785667 L144.37307308594555,386.0106911782782 L147.57094635228538,383.4999069681502 L147.930534689382,382.49559328409913 L149.139342606141,381.59242493552694 L151.15500764093235,381.17594414237783 L154.86615631446875,377.8405279618148 L155.84443362607595,376.7279292715448 L157.57045764413766,373.0807474686814 L157.82857310802535,371.79441679041196 L159.87083782802725,367.90329623727547 L160.5900145022186,365.2628080087098 L161.4244564789868,364.1513992635632 L162.37416375833183,362.0321069989955 L165.45184585446432,359.59985916700435 L167.57785032419926,358.66218240985717 L168.64479325317276,358.7657076355828 L171.1471340099511,359.8426079721542 L172.66824193454428,360.8124132476302 L175.45726818747337,359.70338439273 L178.29555311671757,358.03627127501034 L181.59391408273908,355.34937518663634 L185.42919462058885,350.76332668150263 L185.6597252257407,348.2608720872376 L187.7689817455297,343.7676393017197 L188.6507120515604,340.80229605449756 L190.04768811184016,338.6008975764234 L192.11655251705167,340.37986553573216 L193.0938446551317,342.35874427575214 L193.46722542159625,344.12938261919794 L195.0198588990304,346.69847414036667 L195.0769989635557,348.6428444718116 L195.53707500033306,350.4122928701339 L196.65820247325206,352.53039518957814 L197.6059394055436,353.3978651844518 L198.675837855096,353.60491563590324 L200.69445841046524,352.9480659278506 L202.98104616498688,353.0515911535763 L204.6479597714707,352.7041271775776 L207.66653145602538,352.7386355861529 L209.47728039734727,354.0927931364493 L209.10291445735737,358.36231623878996 L209.36201509477235,360.5149269668093 L210.22404193027631,361.59182730338085 L212.23576627096264,362.56401246910326 L212.52343694063882,363.5361976348258 L210.91366339868023,367.6319887491671 L211.20133406835635,369.4371355011879 L214.04651521228453,373.4294013898035 L215.2257679232551,375.7902525143976 L216.02966952070858,379.1577972132892 L218.18621436975815,382.9418227053303 L219.13395130205066,383.91400787105295 L220.2265087427075,386.0666185990722 L221.20380088078747,386.72584819737153 L222.46876368854458,389.399654889389 L223.42241166199386,390.4015886831936 L226.30207387934274,391.16077367184823 L226.92667389501105,391.89021003242124 L226.71190606627977,393.32171401573083 L226.74146127206814,395.6575762927361 L228.7640225215435,400.06037324888456 L229.61816796883733,400.93141307912776 L231.96780682904102,402.41527464786225 L233.46921128310862,403.6302086187343 L235.56171985294992,406.10529447516353 L235.28488609206187,408.6458273133736 L234.43665168592577,411.0709354746252 L232.43773460108122,412.3834449456066 L233.19730338985204,413.67572534949215 L233.40320465684675,415.46659276003396 L232.73525700602113,417.8762316346825 L233.15494092822183,419.31725517897877 L234.64156777939428,420.76065861352123 L237.79510823705135,422.17788325535173 L239.4708884052718,423.7724097205513 L240.73289569245003,426.0666239182416 L240.85899790381507,427.25061931590864 L241.60477426321694,428.31800009149373 L243.2539547462286,429.58648159291397 L244.89426866750284,431.8973550223302 L247.36705421849268,434.48191583010146 L248.93742081940002,437.0343481195444 L249.20341767149893,438.0731702121707 L247.3108993274937,440.3459653976415 L244.08347085536542,442.0297377470875 L241.86486007415812,441.0040050508174 L240.58019379587546,439.45707639054916 L239.8669281628408,437.98630421817086 L238.4059158233518,436.176397685657 L236.88382272523222,435.7884755754667 L234.67309333223534,436.02884449036964 L233.29877626305995,437.50437644324103 L233.7834816379953,439.0025173534548 L234.6287605235517,439.4582663356724 L235.86219777846867,441.1896364900496 L237.86801107799624,443.34581705343896 L239.10243350643862,444.37154974970906 L240.21173889704227,446.01962374545667 L239.62063478126754,447.9520946256688 L237.71333883436904,450.65089016527526 L235.08095517211967,453.3318365280328 L234.50265831218763,454.3004518583854 L233.16774818406356,457.9940415210568 L232.10770146977399,458.48310896672615 L231.85746739409655,460.10738406000803 L230.35803328708158,462.1993075867401 L228.11380799419095,464.54825926010153 L227.68722785730716,465.86314862132963 L226.84391931880248,465.71916526141223 L226.2754741941322,463.1762525329559 L225.5750158169393,463.3368951245991 L223.71205267872347,465.3050643585097 L224.41054070886383,466.34983617675226 L224.14749937734376,467.7599211478432 L224.59969402591184,468.4584189352103 L224.73860349311855,470.6848062608738 L223.26773941836666,472.0984610673342 L223.02144603679432,474.5878262652428 L221.8481043669815,476.1930622365522 L221.8638671434029,477.04863278019303 L216.87396323273958,477.5329404453691 L214.29871963501552,479.2762100509791 L213.78741457486956,482.9198220184728 L213.337190273356,484.29420863586523 L212.21310727985713,485.2080864905467 L211.0663652952548,485.5293716738331 L209.57284222939757,487.01204329744417 L208.90587975209917,488.3971394209461 L209.35905957419251,489.55733591614717 L208.87928006688952,491.4255497597022 L209.11867723377782,493.0046069382992 L208.97385672541344,496.07347541124665 L207.89213619354575,497.28959932724246 L203.86376164454288,498.2558347673484 L201.839230048015,497.90004117548654 z"/>
	<path id="hatay-yayladagi" title="Yayladağı" class="district" d="M293.14412729112155,526.6717243113545 L287.6340517585768,531.3791472190633 L285.62331259141774,534.2516747466693 L284.12781917850793,538.0130912813679 L282.50917907481283,540.4417692779891 L281.55257558078375,544.4399848922211 L281.3525853549467,546.7996460716922 L281.50134655741715,554.7746582879367 L281.094469891059,555.9277151123982 L279.419674896364,559.100108811072 L279.9831941534018,562.4855026868131 L281.31022289331656,564.8499236467766 L281.96536328829967,566.9846851979477 L281.40578472536686,569.8143747011153 L281.1594913437936,572.675002777488 L280.22751718792256,576.3626427145434 L279.8176850009856,580.7047524694038 L279.04038308874266,584.484018180952 L278.8591111599049,586.785372049382 L277.27101143552363,589.9803747053973 L276.25037166228634,592.581594744895 L276.05038143645015,594.5854623325037 L274.2435731892325,595.1732952234062 L272.67222141479795,597.1117158292348 L271.2624380986765,596.9724922498104 L270.69103745342744,596.0062568097046 L269.21623268457046,594.7318255826682 L268.24091089354204,593.1753773614136 L267.51385283113956,591.1477108713387 L267.10205029714996,585.8595947434673 L266.23411242048724,583.0465644720254 L265.00166033909835,580.2061654627482 L261.689506943708,576.1365531411192 L261.16933532182645,575.3035915548212 L257.81481946480693,573.42585815028 L257.67886551817907,572.1181084597918 L257.10746487293005,571.1863814282608 L254.41695597262913,568.687496669366 L252.55990387557102,567.7212612292598 L250.53635745257037,567.3833168142476 L245.54251284780185,567.9354513514502 L244.19676581088873,565.7447623794858 L240.5417720283495,565.9553826663076 L238.07785303909714,567.0965400395359 L235.4799504502675,564.808275567462 L229.6043755394694,561.4799990576388 L227.4251716993134,561.9036195215274 L225.61836345209662,562.6199664857439 L223.55541008804374,561.8655412775823 L222.1702561100784,560.831478965449 L220.40088445686035,560.0151766108767 L213.81302908655385,561.3943230087622 L211.53333754671712,561.1956021731738 L209.38073339177163,560.5030541114227 L209.94917851644095,558.765734231429 L212.36580917643272,552.8457572430942 L212.7372195958447,550.9858730154027 L213.97164202428615,549.776888770147 L214.0366634770217,548.2739880794401 L215.1853758086766,544.9314322281369 L216.23458561417613,543.5796545680874 L217.2837954196766,541.5615076389989 L215.9981439678666,538.9364886970361 L214.31448241143596,535.0370385280359 L212.56087353463846,531.727801140185 L209.0507002604635,532.666667842456 L206.07744655811774,531.9515108233622 L200.63239247830944,532.3965502994708 L198.9999599452455,534.9097143998448 L197.62958357017436,535.1024855098168 L194.83366110256128,537.8762475921901 L193.14704402555088,538.044029854573 L191.31757678722875,537.2955543720284 L188.53741709603702,537.282464975672 L187.7611003573195,537.6799066468482 L184.8804529664452,540.1847411313599 L183.5258393677955,540.5940822537696 L181.9702503697825,542.2766646580918 L178.61770485981447,541.199764321521 L176.07792750903656,537.4811858112607 L176.44047136671202,536.732710328715 L176.73799377165193,531.989589067308 L176.2779177348736,530.327235730081 L176.50155212534148,528.0829992275685 L177.60002060715598,526.9680206470518 L178.0325117851975,524.5286331443212 L178.5497278865001,523.6099955091468 L180.3447140514025,523.674252545804 L181.11807526954118,522.7413355691493 L180.36343234840177,521.70489336677 L182.31013523635252,520.1674842674875 L183.9780340163626,518.0553316736596 L186.8813403983423,515.7646873113391 L189.28220828191263,512.7767351067746 L190.44569821646178,512.1567736975438 L191.68603168606273,510.77524740941277 L193.35196011901934,508.3275302908186 L193.28004245160082,506.2260872031001 L195.15384249860568,504.13297373124465 L197.2463510684479,502.6538719430037 L201.83134865980475,498.4105276333753 L201.839230048015,497.90004117548654 L203.86376164454288,498.2558347673484 L207.89213619354575,497.28959932724246 L208.97385672541344,496.07347541124665 L209.11867723377782,493.0046069382992 L208.87928006688952,491.4255497597022 L209.35905957419251,489.55733591614717 L208.90587975209917,488.3971394209461 L209.57284222939757,487.01204329744417 L211.0663652952548,485.5293716738331 L212.21310727985713,485.2080864905467 L213.337190273356,484.29420863586523 L213.78741457486956,482.9198220184728 L214.29871963501552,479.2762100509791 L216.87396323273958,477.5329404453691 L221.8638671434029,477.04863278019303 L224.78293630180212,476.81897337139907 L226.02129942434965,477.19261614011003 L229.09208530579815,479.25003125826714 L231.03484749964372,481.4038319314098 L232.00425824951344,481.8786200356 L234.4760586269769,481.96429608447625 L235.69570345252515,481.6751394195185 L236.71831357281508,480.8267085466173 L237.01583597775493,479.4297129718827 L236.25626718898513,477.225934603562 L236.693684234658,472.6577352752774 L237.62171769642396,470.16242035175236 L243.76920050047863,464.8624047726481 L244.70413017692857,464.27219199149977 L247.70595391153643,463.6962585518304 L250.98855210113743,463.74742619213146 L254.77949983030453,464.4054658453074 L256.8050166003587,464.1936556133631 L258.59606207115496,463.1619731914763 L259.16746271640403,461.46273155542787 L260.3004122716385,459.7860988767214 L264.3396237294304,455.92234706142074 L264.93663888636286,453.82209391882554 L263.95836157475566,450.14159365251015 L264.26376536790576,448.60299460810467 L268.08229795580974,443.1518559983437 L269.2576099726743,442.1761009972516 L271.1599800519414,441.472843429391 L273.4574047152521,441.3788377646516 L276.14397292144696,440.18532280599834 L278.05520956245147,439.87236723857495 L280.6137052102288,440.2864681414775 L277.4030246880473,443.21254319963117 L276.224757150603,444.6952148232424 L275.450410758939,447.89140742438144 L275.3538637533614,449.5371015298821 L275.78536975787756,449.84886715218244 L281.72104025377894,451.3291588855467 L283.1958450226369,452.87370765556864 L283.69138730636126,454.74906116986324 L283.7977860472007,456.6874817756916 L283.4421384042101,459.92770234639204 L283.9091106556715,463.2298000635033 L285.0794968049045,465.28721518166026 L285.0410750373795,467.8027591722813 L284.1307746990867,471.1774435419128 L282.30229263429084,473.79532281313607 L280.9171386563264,476.42034175509946 L280.1792436851338,480.1496297714693 L279.96841655050855,484.09191796490694 L280.73192603338356,486.81689229722576 L282.2195380580831,487.65937344451004 L284.31303180145073,487.55822810903106 L286.2262387895079,486.8966186204856 L287.6971028642597,486.76334476667796 L291.5107095845313,487.1215182487861 L295.9558125351552,487.94734016434484 L299.4305195623829,490.14754869729575 L301.03044136907965,493.3258921215856 L301.49248775290954,494.78714473297754 L301.4215552590173,497.4502419188853 L300.537854605934,500.2739816964369 L297.2247160370183,501.35921164887134 L296.26811254298934,501.895876899472 L294.09481974399193,503.7414817856846 L291.42992535537525,505.13728741529593 L291.54223513737327,506.79607091715275 L291.13043260338276,509.11646390755527 L291.0811739270687,512.5982433382823 L290.33244204708706,513.593037461347 L292.1037840473586,522.3641229650686 L293.14412729112155,526.6717243113545 z"/>
	
</g></g></svg>