<svg xmlns="http://www.w3.org/2000/svg" version="1.2" baseProfile="tiny" width="600" height="600" stroke-linecap="round" stroke-linejoin="round"><rect id="backgroundrect" width="100%" height="100%" x="0" y="0" fill="none" stroke="none" class="" style=""/>































































































































































































































































































































































































































































































































































































































<g class="currentLayer" style=""><title>Layer 1</title><g class="city city-50" id="nevsehir" title="Nevşehir">
	<path id="nevsehir-acigol" title="Acıgöl" class="district" d="M223.37993610756303,576.4059244090661 L221.62224286887454,575.2058130823011 L218.7054835661528,572.4051227093983 L215.3882633259023,568.6536444608234 L213.3539630478897,565.8762070522712 L207.6721654677478,562.8701154942709 L206.05587209617573,562.1764020578095 L200.36788182112292,557.377248582102 L196.41797458420982,554.3414449029866 L190.8755126395477,549.1818704798434 L186.6479662474925,545.5828283309011 L183.04484992555285,542.1129693172402 L180.86295708551273,538.9040602368477 L178.19493769501952,533.0507723772433 L177.32899252340434,529.4078079623048 L177.4322041052414,522.0792486977858 L177.70984326038445,519.1312895506618 L178.47154473434216,516.0089331709083 L180.16937525556665,511.151647284324 L183.21824538303997,504.08403795307333 L186.68305818531712,497.27608672373856 L189.0042866608377,493.46001690752314 L191.49891059384527,490.6851631616764 L196.7296735613579,485.48037464118505 L198.4966558424121,483.13957622988454 L199.293449254196,480.5804583199579 L199.64746497989762,477.1829418620545 L199.882787386487,471.8644721825153 L199.60618034716362,469.4797515052191 L198.28920056291918,467.39861119583406 L196.48815845985905,465.4466540217306 L192.81485826227026,463.19240831106845 L184.05013073264848,461.8476118727882 L182.31720827360016,461.28437340296097 L180.41192247288427,458.7691777590301 L178.6108803698226,455.51634641264206 L175.31946302503178,452.1782541969682 L172.58229187470658,448.96934511657577 L170.01851618186924,448.05860401284116 L165.48030292848472,448.0146817468453 L164.82181303636173,447.84157634556834 L165.96126889984555,445.5834551408478 L168.07710632751076,442.57736358284745 L169.90601555766648,440.5026824302267 L172.87954123039896,436.49542157379466 L177.7965409891267,431.48569958757815 L180.20446719339054,428.69534386549776 L182.69186631566993,425.3675863006465 L184.96355323190875,423.06037550451913 L187.19395551541112,420.0542839465184 L190.32436279253608,417.7470731503911 L191.56703023785707,416.4048603748162 L191.86737594100333,415.17116143287814 L191.05303656030748,413.66746973820136 L189.08066323139712,411.6819249489246 L186.63661297349,410.71563509701923 L183.93453376099018,410.2324901710663 L180.03313596754015,409.8578590787499 L176.0450404453493,408.8915692268446 L169.7419091425458,406.90602443756785 L168.84190414892404,406.046956587946 L167.85520142656065,404.0071548818511 L168.0265326524102,402.29031101396015 L169.09890098770035,399.39144145824343 L170.2569349359133,397.94329851173785 L171.02792545223758,396.01071880792637 L171.37162001975628,393.86369509954784 L171.971279310231,392.4155521530423 L173.1726621228171,391.55648430342046 L175.27301781320554,391.449262301137 L178.27441061303296,392.30703831940593 L179.21776447102627,392.8974052476425 L182.72902248513134,393.9851272467125 L186.1061054428473,394.46827217266554 L190.7041814136981,394.1866529377517 L194.46727568748406,393.38055017359517 L198.4223435034886,391.56940261694876 L201.44541073550454,389.23506336241206 L202.2102085569178,388.97411342914353 L203.13395221436093,392.6106186873176 L204.87306736831874,397.32580312509197 L208.2418933994885,403.3560718800323 L212.95143787872422,407.7534658050146 L219.0367927438495,409.93020163450774 L224.97765139440446,414.7358142669793 L229.6500397041779,419.13450002331444 L236.09869933737048,424.48397365532105 L242.11180609521142,430.9676752150994 L243.4886485969214,433.5074156547335 L244.2493179550612,435.8650078736208 L246.34967364545037,438.35824238455393 L248.81333410390528,440.30761589595136 L255.188713513994,444.07072062670153 L259.282084849661,447.3816843839663 L261.89024152268945,450.05577528429325 L267.25208319913713,456.90248145421253 L268.33890115588366,459.39571596514514 L269.7879917648788,464.61083913645945 L271.45382669573183,474.31249259609984 L271.5260748030187,476.7618048410368 L271.16380215076924,478.2577455475965 L265.6213402061071,484.19758610783975 L263.04930758672197,486.6908206187729 L261.238976441297,490.3182830574773 L260.22440659183644,493.71838317808596 L260.2605306454798,502.92268156689266 L260.0427542078024,508.68037390638875 L259.5721093946245,511.7639753455584 L259.7537617786577,516.0709410758433 L260.2605306454798,518.383319197382 L260.97475479179246,519.8883027234116 L256.3230087983864,520.0329878349268 L252.86335657520073,522.5830629253835 L250.94052480557292,525.085340255786 L246.55816104076126,531.7253534092551 L244.2131939014178,536.152459455352 L242.02201201901266,541.060126764696 L240.02280367882463,544.9097841960847 L237.7160248247605,548.4222736443883 L230.91128523422947,552.8493796904852 L227.87376838075795,558.6238658375682 L223.37993610756303,576.4059244090661 z"/>
	<path id="nevsehir-avanos" title="Avanos" class="district" d="M463.4046623650737,220.47925825013533 L464.88884491189424,222.69474902021312 L464.8021471831505,224.42580303298496 L463.7710634805959,226.7188036842317 L463.5419337689183,229.67193015676665 L463.7328751953157,231.19629115308828 L465.9147680353566,241.08396832753394 L465.7207302615028,242.99458689834722 L464.6153342200249,245.41547885352247 L463.92484873753426,248.3117647465335 L463.7865452178719,251.16412837354923 L463.1992713172176,252.76341558833403 L461.67999683257233,254.70891360567327 L453.91022895186177,259.7651415205911 L450.4567694235865,262.963715950161 L449.8705276387501,264.04497879246713 L449.35240549792786,266.3353957810081 L446.140461071152,269.8788891817793 L443.6200342426854,273.7259629504625 L442.6870015428758,282.0246875609456 L442.0305758823911,284.4455795161208 L441.4443340975548,285.4829200924315 L437.4727524284556,289.28607159511864 L434.29589993950515,293.86819740355304 L433.3979591775209,297.7152711722363 L431.6020776535514,300.82729290116737 L430.5317735498995,303.29081529098573 L430.0136514090765,306.2723620532825 L430.1860147507449,316.9054259183025 L429.8412880674083,324.33991535375236 L429.94449964924536,327.40801481668814 L431.8786846928764,330.9528000488124 L434.77893014250355,339.55381319585433 L437.3695408466185,342.1904409869494 L439.01576557692283,345.21461818388946 L443.43734974283257,349.7670318712092 L448.0034301233152,354.76254371254487 L450.1956441215382,356.4638856042021 L454.4913101576067,357.7802617527206 L459.35773624123385,361.2927512010244 L460.84914359878337,362.6091273495428 L462.2517889959522,365.13336581294334 L462.90924677225496,367.8229586895041 L458.3225240754058,367.10211679463333 L453.08143994970953,366.8992992722413 L448.63921346743314,366.99877028640793 L440.02414273147406,366.7623651488432 L436.1888003504006,366.42390533440533 L434.7572557103181,365.9498032279223 L432.00563493853565,364.46290534083255 L429.27156013566605,362.2060759674647 L426.658242883546,360.93878941035297 L421.3717456618406,357.288074007298 L419.1743710845245,355.21339285467724 L418.17837931979534,353.89443304345303 L414.787878856441,353.2097624264611 L412.8072486009828,353.2097624264611 L410.7915264077002,353.762666245466 L405.5803736407362,354.2806906179448 L403.00627678971443,355.3180311942554 L400.4765609188829,358.13034804933335 L398.99341048788017,359.4131365826786 L398.05624932479793,360.75018203284196 L397.77241747474613,363.09743960090685 L398.4051044714088,366.0453987480308 L400.8037416333068,374.23431769352464 L401.7852837765796,378.7931905376088 L401.9380369176977,383.87008775417144 L400.6076396278164,391.5125620374249 L399.3649721824946,394.4605211845487 L396.87860517603474,399.4276127361219 L393.5634491674217,403.52271812454546 L389.92214456020207,405.92423260942854 L385.18989353296297,408.40842430089157 L381.6497362759435,410.78797765277676 L378.23343291713024,413.42589727522505 L376.9794121978068,412.86265880539776 L372.9593210852446,411.8563221815549 L370.00127714978794,410.44822600698654 L366.3671973532971,408.1513498616817 L364.4608794367625,406.2614005925134 L357.2577431403387,401.18967070136165 L352.4336338052643,397.1242774340531 L345.19746980265194,390.603112765043 L343.52544217688785,388.5103459734827 L339.5053510643256,384.8880508601897 L337.41531653212246,383.8016206924723 L330.1471569391394,382.15066022357456 L323.04000741382447,381.10427682779465 L317.9269056496055,381.1443235997317 L316.3188692045804,380.82265759288117 L313.38249970130994,380.99059566874683 L312.89637315085685,379.80727814956833 L311.06023910997146,372.20226697554676 L310.4120703760329,368.0102742356623 L310.33053322638193,363.514701127866 L310.8166597768351,361.0473032439898 L312.41024660040296,356.48326307449435 L313.5982119073499,352.4953796883547 L315.0844586858072,348.67543437808075 L315.0844586858072,347.7956972268139 L316.57999450662936,341.6091168781829 L317.5439906809894,339.88064652811636 L317.9847041354343,335.1925905487509 L317.8144050254026,331.0845668467996 L318.19628787820136,328.2334950511367 L317.9392910394267,325.06980006809283 L317.1053414581806,321.1348817674185 L315.86577036031514,316.99843777570504 L315.15877102472984,311.54949312953175 L314.0781457628928,305.93261040749223 L313.2173611703698,303.15517299894003 L311.29349728492326,299.5290023915886 L308.45414666858045,299.0406901402244 L310.2479639609123,296.92467038431346 L311.2687265052831,293.8436526078498 L312.34522330384516,292.816646682362 L313.40314201767734,289.2098535453025 L313.73135484791936,287.2010557916752 L313.7674789015627,284.71298860615354 L314.5880109771696,281.4717837419407 L316.44788368187795,278.9385024590706 L319.62473617083,276.25278507656833 L322.5425275893697,272.78292606290756 L327.23555821551065,265.5099155465591 L328.47512931337536,264.17028643369025 L333.4602487161163,257.84031280489677 L335.25922658754047,256.07437934559886 L337.73940089908945,252.97140043613715 L342.2858710790224,246.79257107562339 L344.6442557240051,244.2063247072879 L346.4680043750693,241.89265475439623 L347.8541359191434,239.06225226037864 L349.0699683531867,234.6803603116302 L350.3590810103348,225.8235645567309 L350.94222644771554,219.524594880405 L350.7966981173249,215.7498636674796 L351.3922289445269,213.3057187479537 L352.62457523166336,206.04175105107524 L354.03444543955965,203.44517003191723 L358.4869930800205,199.3875277527255 L362.896191856109,196.19541247991953 L365.316503450194,194.68009430306776 L369.85574881939715,190.51393819023946 L377.8525821801502,182.2358828814012 L380.6186525733898,181.04610620545856 L385.54700560611934,180.01780844861793 L392.2041526346244,179.20653835905017 L404.7825481131342,177.85399093265298 L412.8660792026295,177.63696326538005 L416.6704581091519,178.06972676857308 L426.00697780215353,180.50482886862918 L429.1198391103658,181.42461279183345 L432.2378609976688,181.88450475343558 L439.920931149637,181.64034862775355 L440.70121070832613,181.36260488689828 L443.2278302317037,183.47474914875073 L445.4541040519333,184.76012134480175 L445.8535328736448,186.7611681103121 L445.3106399531795,188.04654030636303 L445.48197117902976,189.33320433376664 L446.28186093826855,190.04758707187338 L447.7371442421737,190.33308180084538 L450.4763796241351,189.76080051154847 L452.44565660559147,191.29678799004543 L454.18683599118594,194.0470969401884 L455.41402169923026,196.6191331636429 L456.8971721302328,201.15604487472916 L456.46987618142646,205.83505803462498 L456.8971721302328,208.94191243814493 L456.52664255143657,212.22833139970626 L457.75382825948225,214.94376090332304 L459.0666795804525,216.94351583748102 L461.7491485924037,218.58672531826144 L463.4046623650737,220.47925825013533 z"/>
	<path id="nevsehir-derinkuyu" title="Derinkuyu" class="district" d="M223.37993610756303,576.4059244090661 L227.87376838075795,558.6238658375682 L230.91128523422947,552.8493796904852 L237.7160248247605,548.4222736443883 L240.02280367882463,544.9097841960847 L242.02201201901266,541.060126764696 L244.2131939014178,536.152459455352 L246.55816104076126,531.7253534092551 L250.94052480557292,525.085340255786 L252.86335657520073,522.5830629253835 L256.3230087983864,520.0329878349268 L260.97475479179246,519.8883027234116 L262.5126073611691,519.695819851842 L267.0116002134563,520.995402192774 L274.0083133462043,521.5237612160753 L277.737347797986,521.2356828243974 L278.891253282927,520.7538297297975 L280.5054824228615,519.3108541087032 L283.58118756161247,518.4440352709645 L285.2346371026458,517.3860253930088 L287.46400727033176,515.1240286942301 L288.8098862974898,511.4668541344106 L292.15394154901713,503.57505640006417 L293.92298806170885,501.26526194123113 L295.3834319447073,500.4953304549531 L300.1125866244908,501.21746418117687 L302.6887477071486,501.45774481280034 L307.10929975724036,502.32456365053935 L309.87743438211595,505.8848508588972 L311.6072604937088,509.5420254187164 L313.14511306308384,514.2585016878439 L314.798562604118,517.4338231530631 L318.950764541431,523.0636241886307 L321.75708745158744,525.518103758979 L325.73073335232266,527.4700609330828 L330.1616065605973,528.5216116542738 L333.40761080937983,529.6687578955737 L334.82057736473166,529.7643534156819 L340.70157329782023,529.6209601355195 L343.2220001262875,528.5216116542738 L345.0550378197175,527.3266676529203 L345.895180095873,526.0839258915121 L345.30480984776324,520.2668093097864 L343.9630592838787,514.5491637422273 L341.7419460427405,508.044792880804 L340.02347320514934,500.8570432337417 L340.4373516483173,497.36909858114103 L341.1608648369957,493.8669437836599 L342.66981816345793,490.1296756799662 L343.9898942951563,487.6106045419768 L347.0707600129995,484.66006173214754 L348.64164028856237,483.95213815080484 L354.55153546456546,483.8345814976989 L359.02266118975695,484.1782086375477 L362.44206089602505,483.9908930913895 L368.12179424453086,484.8796730621261 L373.2390244720234,484.7362797819636 L376.5614052913662,485.54884170288426 L379.2345852609516,486.5047969039672 L381.25856438077983,488.0356170570531 L381.4113175219003,491.52485354100605 L380.9148698132626,494.77510122468885 L379.9219743959867,499.0768996295627 L378.4326312700755,503.37869803443635 L375.7976395857694,505.4817994768192 L367.81628796229313,507.3937098789853 L365.60136741606436,508.3018673200143 L361.4388443205661,508.4930583602307 L358.0018986453862,508.92323820071795 L356.8180618017119,510.9307441229927 L356.0161078108358,516.4752842892744 L356.0161078108358,517.5746327705199 L357.42907436618907,519.6299364528484 L359.9113129093755,520.729284934094 L364.49390714295043,523.1204647681545 L368.04541767397143,524.4588020496709 L377.09604128528315,526.8964878124326 L378.8527024081536,528.6650049344362 L382.48058950973416,534.2573428607724 L387.33153385608614,539.0849166262417 L393.8204460061965,542.7847216207039 L393.62331188488713,545.2559949986387 L393.68936729726295,550.5227914240654 L392.40644733502586,562.4993598960127 L393.85347371238436,566.368394797694 L395.62974503580347,570.3601536778922 L396.9436284725924,574.4681773798436 L390.1409531136974,574.1297175654062 L380.58046428811053,574.4307142706123 L376.35395001187396,574.3183249429171 L366.58394167515667,575.630825597377 L363.55674597986877,577.1306417979953 L360.37989349091674,579.6445456105731 L356.75407062097213,581.670137171787 L351.9887918875453,583.6208025145378 L344.43576832869337,583.6957287330009 L339.61062687780014,583.0575640447104 L327.6824643648657,582.5705436246991 L323.6964330743092,581.3329691887025 L321.74779840922247,581.1068987019597 L312.5175866455135,581.9698420456401 L308.6812121486213,582.7578591708573 L304.72511221679883,584.4837458582182 L299.1506546817683,587.2224283261856 L291.4335247077935,590.6599915560262 L289.31562304849314,592.8108907584632 L284.3604350044845,595.6115811313663 L276.7671589287157,597.7133907423962 L266.33762858405885,596.4628979928711 L258.42542872041236,595.7123439768853 L253.23078980654236,595.6115811313663 L250.27377798690367,594.7615561012135 L246.31767805508127,594.2112359449146 L241.72269843168527,592.7618011670561 L237.56636803109626,590.4106681049332 L235.2482359030313,588.9095600729622 L234.09020195481747,586.4085745739125 L232.45120203524135,583.9579704976222 L230.65325627963676,582.3083018600773 L228.2959037504736,580.5578703770134 L223.37993610756303,576.4059244090661 z"/>
	<path id="nevsehir-gulsehir" title="Gülşehir" class="district" d="M202.2102085569178,388.97411342914353 L201.44541073550454,389.23506336241206 L198.4223435034886,391.56940261694876 L194.46727568748406,393.38055017359517 L190.7041814136981,394.1866529377517 L186.1061054428473,394.46827217266554 L182.72902248513134,393.9851272467125 L179.21776447102627,392.8974052476425 L178.27441061303296,392.30703831940593 L175.27301781320554,391.449262301137 L173.1726621228171,391.55648430342046 L171.971279310231,392.4155521530423 L171.37162001975628,393.86369509954784 L171.02792545223758,396.01071880792637 L170.2569349359133,397.94329851173785 L169.09890098770035,399.39144145824343 L168.0265326524102,402.29031101396015 L167.85520142656065,404.0071548818511 L168.84190414892404,406.046956587946 L169.7419091425458,406.90602443756785 L176.0450404453493,408.8915692268446 L180.03313596754015,409.8578590787499 L183.93453376099018,410.2324901710663 L186.63661297349,410.71563509701923 L189.08066323139712,411.6819249489246 L191.05303656030748,413.66746973820136 L191.86737594100333,415.17116143287814 L191.56703023785707,416.4048603748162 L190.32436279253608,417.7470731503911 L187.19395551541112,420.0542839465184 L184.96355323190875,423.06037550451913 L182.69186631566993,425.3675863006465 L180.20446719339054,428.69534386549776 L177.7965409891267,431.48569958757815 L172.87954123039896,436.49542157379466 L169.90601555766648,440.5026824302267 L168.07710632751076,442.57736358284745 L165.96126889984555,445.5834551408478 L164.82181303636173,447.84157634556834 L161.91124642855095,445.62996106954915 L160.7686942176132,445.0228003337262 L153.14651889892764,443.8084788620801 L150.02849701162472,442.9842904589841 L139.94678969775856,439.2986956094029 L136.17027791833257,437.5211356679295 L132.56716159639296,434.4427015541717 L130.34914470271025,433.4454077497986 L122.69290956202047,428.19798879466407 L119.19403693773751,425.59624045009457 L118.5706389834391,424.77205204699874 L115.97177135277639,420.1330856590401 L114.96752266149946,414.4516113693601 L114.79412720401314,411.9803379914249 L115.59092061579634,403.0912464527052 L115.83243571729591,401.3395231382883 L118.0504526109786,393.37667467953656 L119.88658665186557,387.43683411929385 L121.89611615023733,382.01630976288214 L123.90564564860833,375.6850443027359 L124.45989184307473,373.08329595816656 L124.59819536273716,370.7412057155131 L124.39074008324343,368.1833796369393 L124.3556481454196,363.152988349078 L123.52479491162904,359.29428809821974 L123.52479491162904,356.3011148537476 L124.45989184307473,354.0468691430852 L126.15772236429763,351.8791761330616 L128.8598015767975,346.5012822112933 L129.7257467484127,341.6879185907047 L129.51829146891964,339.130092512131 L126.12263042647385,334.14233165891244 L118.11960437081063,325.2106096855499 L115.52176885596663,321.0470372354272 L111.53676968122818,316.19104318019566 L112.69893209271618,315.07102539730494 L115.51867250851109,310.1129766652014 L116.30308053047463,306.8084720647008 L117.08852066825608,302.610020168052 L117.66960187399934,298.4399885611653 L117.66960187399934,295.1018963454915 L117.42705465668331,292.8902810694723 L116.73347282673569,290.114135492273 L116.73347282673569,287.12225407915327 L117.56535817634426,283.5671341962068 L118.77809426293209,280.7483581843647 L120.80620184603447,278.3623456757151 L123.52479491162904,280.50807755274076 L125.30519469832086,280.7367317021892 L128.31794077215238,280.5623344695593 L132.80351611880104,282.0724853209998 L136.4778484322079,283.6795235239017 L138.3717809589221,284.93905909289623 L139.18095976052575,286.03711574278924 L141.3690452954761,290.17743522856085 L142.87903073775544,291.7121308757049 L151.9007551061527,299.53416971699954 L154.65960068866264,301.4654575894582 L158.1595054287651,305.87447799661544 L162.63888808050444,304.5542263540384 L166.38030792210577,301.90984757482624 L168.2515339008151,300.0018126667187 L171.82059040074887,294.6239187449499 L173.41417722431515,291.54548463119187 L175.38861478486308,286.77604327659924 L176.49710717379577,282.74294579311066 L182.3213367368736,288.5536032180725 L189.03421801957006,293.5116519501764 L201.92431247522865,301.4512474445771 L206.5894759742739,304.6033159454457 L211.18858406094347,305.6535748352842 L218.87578267618363,306.4519266113238 L227.09864940116103,307.0397098768548 L243.9500043677328,308.04733833205006 L254.92552398030978,308.3845063151349 L262.4785475391625,308.00599972876006 L269.0913135874765,306.4932652146138 L271.20611889932286,305.1071301730433 L273.65636185214095,302.4175372964828 L275.83825469218027,299.4773291374757 L278.38964499519795,297.4607803957318 L280.5705057194193,296.0746453541612 L283.55848101360914,295.1923245401887 L286.8148064205745,294.4779418020818 L291.2116198068433,293.8048976672652 L294.40085768561505,294.0994352157072 L297.1865382794033,295.10835550225545 L302.724871760792,296.78773626091515 L308.45414666858045,299.0406901402244 L311.29349728492326,299.5290023915886 L313.2173611703698,303.15517299894003 L314.0781457628928,305.93261040749223 L315.15877102472984,311.54949312953175 L315.86577036031514,316.99843777570504 L317.1053414581806,321.1348817674185 L317.9392910394267,325.06980006809283 L318.19628787820136,328.2334950511367 L317.8144050254026,331.0845668467996 L317.9847041354343,335.1925905487509 L317.5439906809894,339.88064652811636 L316.57999450662936,341.6091168781829 L315.0844586858072,347.7956972268139 L315.0844586858072,348.67543437808075 L313.5982119073499,352.4953796883547 L312.41024660040296,356.48326307449435 L310.8166597768351,361.0473032439898 L310.33053322638193,363.514701127866 L310.4120703760329,368.0102742356623 L311.06023910997146,372.20226697554676 L312.89637315085685,379.80727814956833 L313.38249970130994,380.99059566874683 L312.5237793404238,380.9027511367554 L308.3106825698257,381.66751529762195 L300.6575437765922,383.8016206924723 L296.1874501672194,386.05457457178187 L289.0472729357159,389.1549698185374 L286.7002415647357,390.7645916841451 L284.8672038713058,392.5356924688544 L281.5221165039589,394.9514170986182 L279.30306749445816,395.9164151191711 L276.9880317138471,397.44594344090405 L275.4119908591919,400.06319376170705 L273.3539519173563,402.27610086907913 L271.64992870122313,403.52400995589835 L269.1088595563884,404.77191904271746 L265.28177410186345,405.65811535074863 L260.39367358604926,405.73820889462326 L257.3066151732966,405.536683203584 L254.50854918968713,404.811965814655 L250.0064599899453,401.87434131835346 L244.37833243235792,397.16432420599034 L241.516275268011,395.51465556844545 L237.85019988115033,394.50831894460276 L233.0900817268141,391.48930907307414 L230.51804910742976,390.4829724492313 L226.07995108842692,389.71820828836474 L221.09483168568585,389.919733979404 L217.0107493923838,390.241399986255 L211.1256249960225,390.2013532143178 L204.3074678998522,389.0335376713728 L202.2102085569178,388.97411342914353 z"/>
	<path id="nevsehir-hacibektas" title="Hacıbektaş" class="district" d="M308.45414666858045,299.0406901402244 L302.724871760792,296.78773626091515 L297.1865382794033,295.10835550225545 L294.40085768561505,294.0994352157072 L291.2116198068433,293.8048976672652 L286.8148064205745,294.4779418020818 L283.55848101360914,295.1923245401887 L280.5705057194193,296.0746453541612 L278.38964499519795,297.4607803957318 L275.83825469218027,299.4773291374757 L273.65636185214095,302.4175372964828 L271.20611889932286,305.1071301730433 L269.0913135874765,306.4932652146138 L262.4785475391625,308.00599972876006 L254.92552398030978,308.3845063151349 L243.9500043677328,308.04733833205006 L227.09864940116103,307.0397098768548 L218.87578267618363,306.4519266113238 L211.18858406094347,305.6535748352842 L206.5894759742739,304.6033159454457 L201.92431247522865,301.4512474445771 L189.03421801957006,293.5116519501764 L182.3213367368736,288.5536032180725 L176.49710717379577,282.74294579311066 L180.16937525556665,276.4982330336033 L182.49060373108648,273.1162185519338 L183.98097897281727,270.21088983945276 L185.29692664124138,267.0019807590607 L186.99475716246587,260.84382070019154 L189.5585328553032,253.6896586683023 L190.7021171820606,247.96555394397933 L192.5031592851214,243.32529572466788 L194.51268878349316,240.24686161091003 L195.82966856773686,238.7289597713524 L198.15089704325663,236.69044989661018 L200.71467273609557,235.43349799032143 L204.7337317328383,234.65323185322086 L206.95071651070452,233.65593804884807 L209.7219474830356,231.8344558413788 L213.36015574279907,228.88520486290233 L218.8334659276308,223.55252503848206 L222.95676862203015,219.9961133241827 L225.13969357788824,217.8284203141592 L227.21837483609124,212.9711344275749 L229.6779068312735,207.81156000443178 L230.44064042105083,204.5587286580436 L230.85555098003755,201.0901614757356 L232.1725307642804,198.70414896708647 L235.35970441141535,197.88125239534324 L237.43838566961915,197.92388282998607 L247.658396503147,200.82921154246714 L251.0540575455937,202.56414104929758 L254.83056932501967,204.86230902595534 L257.3592530800332,205.85960283032853 L259.4379343382362,206.33628859951733 L261.2740683791208,205.90352509632424 L262.7644436208516,205.07933669322807 L263.699540552298,203.51751258767476 L264.04633146727156,201.00360877509706 L264.3229385065941,196.5803782230587 L263.6654807302914,192.80693884148613 L263.5612370326356,190.55269313082388 L262.93783907833796,187.82046981962029 L262.1059537287294,185.43574914232397 L260.92830957996614,184.30798037131652 L259.33472275639906,184.09095270404362 L257.2209495603723,184.87121884114384 L254.41462665021578,186.5635179133314 L253.2369825014518,187.86439208561598 L250.94981384793783,189.29444939318222 L249.42537878420126,189.55539932645087 L244.7137700733296,188.47155282143913 L241.42235272853878,187.12675638315875 L241.11065375139003,186.21601527942425 L242.23153153014164,182.32760290745117 L245.2102177819665,174.69546327502036 L246.3888940465484,170.48926039025477 L249.92285860865684,158.91186780632717 L251.7930524715481,156.31011946175775 L255.5695642509749,151.80033620908083 L267.86825634270497,146.85649762185795 L270.9862782300095,145.33859578230027 L274.7978819472608,142.91124467036101 L276.32231701099744,141.47989553144205 L277.6042048574165,139.05125258814985 L278.3659063313751,134.84504970338446 L288.7500235800236,136.24281122713018 L291.6595580720163,136.47275720793138 L295.74776882859265,137.486844819891 L299.06292483720483,140.71383953922287 L302.96638686229153,144.03255428460452 L307.3126265734598,148.18191658984605 L309.19107736289885,150.2565977424669 L311.73214650773207,154.35945411900718 L313.72103368973563,158.18456675469227 L316.0783862188988,164.08565237435099 L316.6305681817299,166.02210757222062 L319.06120093399784,172.06012731527773 L321.82417497978116,179.8046562754035 L324.4756805171812,185.01461212130627 L325.8019493437906,188.74800473094152 L328.12214570349244,191.6520416120696 L331.9151713360115,192.2049454310744 L337.21921452663116,191.79026756682075 L346.42671974233446,190.13155610980638 L354.2718320777873,189.76209234290116 L356.4815920449222,190.36150209060736 L365.316503450194,194.68009430306776 L362.896191856109,196.19541247991953 L358.4869930800205,199.3875277527255 L354.03444543955965,203.44517003191723 L352.62457523166336,206.04175105107524 L351.3922289445269,213.3057187479537 L350.7966981173249,215.7498636674796 L350.94222644771554,219.524594880405 L350.3590810103348,225.8235645567309 L349.0699683531867,234.6803603116302 L347.8541359191434,239.06225226037864 L346.4680043750693,241.89265475439623 L344.6442557240051,244.2063247072879 L342.2858710790224,246.79257107562339 L337.73940089908945,252.97140043613715 L335.25922658754047,256.07437934559886 L333.4602487161163,257.84031280489677 L328.47512931337536,264.17028643369025 L327.23555821551065,265.5099155465591 L322.5425275893697,272.78292606290756 L319.62473617083,276.25278507656833 L316.44788368187795,278.9385024590706 L314.5880109771696,281.4717837419407 L313.7674789015627,284.71298860615354 L313.73135484791936,287.2010557916752 L313.40314201767734,289.2098535453025 L312.34522330384516,292.816646682362 L311.2687265052831,293.8436526078498 L310.2479639609123,296.92467038431346 L308.45414666858045,299.0406901402244 z"/>
	<path id="nevsehir-kozakli" title="Kozaklı" class="district" d="M265.54393151972965,18.337363655708856 L268.49991122354874,10.069642997693082 L271.4569230431874,5.1555165315848575 L274.60281205758827,4.508309023824699 L277.5484706032237,4.301616007374258 L281.879228577116,3.348244468996775 L284.33876057229827,3.9980356394628043 L285.44725296123175,4.908776743197286 L287.69932967692114,7.510525087766661 L291.5099012783521,12.844496743539603 L294.0045252113598,15.749825456020474 L298.02358420810407,18.828259569778435 L301.3500934907196,20.649741777247645 L307.5861372653286,24.769391961374527 L311.29246516910524,26.504321468204985 L313.0945393879833,27.632090239212406 L314.3764272344024,29.062147546778473 L314.9306734288695,30.927552020243375 L317.4252973618764,36.13104870938199 L319.6082223177352,38.9059024552285 L324.80492546324274,41.07359546525203 L327.3687011560801,41.421098099159366 L329.550593996121,41.421098099159366 L334.5047499243093,42.50494460417117 L344.34494213667676,45.28109018137049 L346.804474131859,46.190539453752095 L352.2788164325087,49.18371269822443 L355.81174887879905,51.611063810163714 L361.07863589995577,54.777342455913114 L362.9281874464789,55.58990437683371 L369.4965725146034,58.67996497276722 L373.75817872866514,60.11131411168616 L378.05487688055246,61.02076338406779 L382.2122393969561,62.23508485571396 L387.02809180548513,63.05927325880994 L392.1897030131672,63.40677589271715 L393.9215933563969,63.362853626721474 L398.0799879886208,64.5332528323717 L400.0193336113433,65.70494386937489 L402.2022585672022,67.56905651148683 L404.80112619786496,71.6447844296181 L406.3255612616008,76.54599258219807 L405.7702829513164,80.14503473114054 L406.11707386628905,83.05036344362145 L406.29666201868713,87.60665262499978 L406.76524260022757,88.35462297827968 L409.0988564655686,87.92315130643948 L411.15689540740345,86.48534301075647 L412.33557167198626,85.3007336602251 L413.8765205888159,84.83954986727007 L416.0945374825002,85.61077318490067 L417.0802080890463,87.29532126897132 L417.37642532892005,89.650329825153 L418.878153844651,93.16281927345692 L421.3314931449246,93.46381597866286 L423.1418242903487,94.19628435570884 L423.655817967899,95.71418619526646 L424.341142871299,100.00435811796493 L424.6869016704536,107.02933701457276 L423.5443494595158,114.14086861181909 L421.77736717846165,120.25510640469224 L420.0795366572378,126.76076909746848 L419.69868592025784,127.71414063584578 L415.9913259006631,130.7499443149609 L412.76906031570354,133.04811229161885 L411.00207803464934,134.6951972664579 L410.6552871196759,137.03728750911134 L414.98604509356824,143.2820002686189 L418.69340511316295,147.5747558540231 L421.18802904616905,149.78637113004226 L428.29001799239325,153.34149101298894 L430.54209470808325,155.0764205198194 L434.3805334366116,157.57740601886923 L437.69156098195253,160.40005752476998 L442.25764136243276,164.7935759556936 L442.54250532830383,165.43690796939555 L442.3433069753572,168.18721691953863 L442.77163503998213,173.6516635419459 L441.94387815364786,176.68746722106107 L440.5164619768382,180.0100574605011 L440.70121070832613,181.36260488689828 L439.920931149637,181.64034862775355 L432.2378609976688,181.88450475343558 L429.1198391103658,181.42461279183345 L426.00697780215353,180.50482886862918 L416.6704581091519,178.06972676857308 L412.8660792026295,177.63696326538005 L404.7825481131342,177.85399093265298 L392.2041526346244,179.20653835905017 L385.54700560611934,180.01780844861793 L380.6186525733898,181.04610620545856 L377.8525821801502,182.2358828814012 L369.85574881939715,190.51393819023946 L365.316503450194,194.68009430306776 L356.4815920449222,190.36150209060736 L354.2718320777873,189.76209234290116 L346.42671974233446,190.13155610980638 L337.21921452663116,191.79026756682075 L331.9151713360115,192.2049454310744 L328.12214570349244,191.6520416120696 L325.8019493437906,188.74800473094152 L324.4756805171812,185.01461212130627 L321.82417497978116,179.8046562754035 L319.06120093399784,172.06012731527773 L316.6305681817299,166.02210757222062 L316.0783862188988,164.08565237435099 L313.72103368973563,158.18456675469227 L311.73214650773207,154.35945411900718 L309.19107736289885,150.2565977424669 L307.3126265734598,148.18191658984605 L302.96638686229153,144.03255428460452 L299.06292483720483,140.71383953922287 L295.74776882859265,137.486844819891 L291.6595580720163,136.47275720793138 L288.7500235800236,136.24281122713018 L278.3659063313751,134.84504970338446 L278.1925108738887,133.11012019655402 L277.36165764009814,130.85587448589177 L275.8671539350939,127.90662350741533 L274.7762075150747,126.44297858467593 L273.16507472259406,122.60623946681548 L273.2166805135142,120.32874079180272 L274.3086590493514,117.10949706058783 L276.620598482507,111.5481630867195 L278.440218670297,106.8316868175921 L279.3237098108256,105.04379222529614 L281.0122512896828,103.19001423400661 L282.7276277798185,101.72636931126738 L284.5204129563331,100.62056167325775 L289.14532393846076,98.70219211432754 L291.0423528126297,97.33543454304929 L293.0735567431877,94.86416116511428 L297.33413084142995,90.61403601435298 L303.362719336546,87.66607686722921 L304.61054736095997,86.53830809622178 L305.33715689709396,84.76074815474851 L305.1297016176002,81.50791680836036 L301.4925254736547,79.16711839705962 L300.4872446665599,78.0393496260522 L297.2309192595929,72.8784833715564 L295.49799680054616,69.49646888988686 L292.93422110770797,65.11716060384423 L289.98959467789064,62.5580426939176 L288.9853459866121,62.08135692472903 L285.55562512216034,61.30109078762881 L279.45788486721307,60.82440501844002 L278.17599702079394,60.99751041971728 L272.80073783870876,59.133397777605325 L267.1137796794754,57.13364284344761 L261.84792477413663,53.95315405281713 L258.61430591517546,49.96397883532471 L257.0898708514388,46.437279242139915 L257.59870394989525,43.31492286238603 L258.0136145088819,39.32574764489351 L258.7071963388288,36.49276148817025 L262.17097702528713,28.050643597524424 L265.54393151972965,18.337363655708856 z"/>
	<path id="nevsehir-merkez" title="Merkez" class="district" d="M260.97475479179246,519.8883027234116 L260.2605306454798,518.383319197382 L259.7537617786577,516.0709410758433 L259.5721093946245,511.7639753455584 L260.0427542078024,508.68037390638875 L260.2605306454798,502.92268156689266 L260.22440659183644,493.71838317808596 L261.238976441297,490.3182830574773 L263.04930758672197,486.6908206187729 L265.6213402061071,484.19758610783975 L271.16380215076924,478.2577455475965 L271.5260748030187,476.7618048410368 L271.45382669573183,474.31249259609984 L269.7879917648788,464.61083913645945 L268.33890115588366,459.39571596514514 L267.25208319913713,456.90248145421253 L261.89024152268945,450.05577528429325 L259.282084849661,447.3816843839663 L255.188713513994,444.07072062670153 L248.81333410390528,440.30761589595136 L246.34967364545037,438.35824238455393 L244.2493179550612,435.8650078736208 L243.4886485969214,433.5074156547335 L242.11180609521142,430.9676752150994 L236.09869933737048,424.48397365532105 L229.6500397041779,419.13450002331444 L224.97765139440446,414.7358142669793 L219.0367927438495,409.93020163450774 L212.95143787872422,407.7534658050146 L208.2418933994885,403.3560718800323 L204.87306736831874,397.32580312509197 L203.13395221436093,392.6106186873176 L202.2102085569178,388.97411342914353 L204.3074678998522,389.0335376713728 L211.1256249960225,390.2013532143178 L217.0107493923838,390.241399986255 L221.09483168568585,389.919733979404 L226.07995108842692,389.71820828836474 L230.51804910742976,390.4829724492313 L233.0900817268141,391.48930907307414 L237.85019988115033,394.50831894460276 L241.516275268011,395.51465556844545 L244.37833243235792,397.16432420599034 L250.0064599899453,401.87434131835346 L254.50854918968713,404.811965814655 L257.3066151732966,405.536683203584 L260.39367358604926,405.73820889462326 L265.28177410186345,405.65811535074863 L269.1088595563884,404.77191904271746 L271.64992870122313,403.52400995589835 L273.3539519173563,402.27610086907913 L275.4119908591919,400.06319376170705 L276.9880317138471,397.44594344090405 L279.30306749445816,395.9164151191711 L281.5221165039589,394.9514170986182 L284.8672038713058,392.5356924688544 L286.7002415647357,390.7645916841451 L289.0472729357159,389.1549698185374 L296.1874501672194,386.05457457178187 L300.6575437765922,383.8016206924723 L308.3106825698257,381.66751529762195 L312.5237793404238,380.9027511367554 L313.38249970130994,380.99059566874683 L316.3188692045804,380.82265759288117 L317.9269056496055,381.1443235997317 L323.04000741382447,381.10427682779465 L330.1471569391394,382.15066022357456 L337.41531653212246,383.8016206924723 L339.5053510643256,384.8880508601897 L343.52544217688785,388.5103459734827 L345.19746980265194,390.603112765043 L352.4336338052643,397.1242774340531 L357.2577431403387,401.18967070136165 L364.4608794367625,406.2614005925134 L366.3671973532971,408.1513498616817 L370.00127714978794,410.44822600698654 L372.9593210852446,411.8563221815549 L376.9794121978068,412.86265880539776 L378.23343291713024,413.42589727522505 L375.3424765098673,415.9720968716235 L373.7633393077567,416.92805207270635 L370.35426075967155,419.58534916544687 L364.66007778970925,425.37533728876326 L360.98264912884616,429.8076106602717 L359.52117313002975,431.1188194833787 L358.99789041011536,432.3460592685529 L358.5840119669482,434.80312250160694 L358.6490352635059,439.38912380409994 L359.5655541102209,442.8822357821115 L360.30661326781205,444.32908689726463 L361.9641912721189,445.3392990151657 L363.708467005169,447.5224940014232 L365.25664073272924,450.33481085650135 L367.21972501927394,455.27477394966553 L367.9834907248684,460.7611817050707 L367.6119290302549,463.3538872301706 L366.2165084438142,465.0746065921199 L362.59687826878144,467.36631541201376 L360.2632644034404,468.54059011172257 L358.8895182491859,469.6050591464419 L358.5623375347619,472.1977646715417 L358.3879099614569,476.2373213117942 L358.4529332580147,481.9420485658249 L359.02266118975695,484.1782086375477 L354.55153546456546,483.8345814976989 L348.64164028856237,483.95213815080484 L347.0707600129995,484.66006173214754 L343.9898942951563,487.6106045419768 L342.66981816345793,490.1296756799662 L341.1608648369957,493.8669437836599 L340.4373516483173,497.36909858114103 L340.02347320514934,500.8570432337417 L341.7419460427405,508.044792880804 L343.9630592838787,514.5491637422273 L345.30480984776324,520.2668093097864 L345.895180095873,526.0839258915121 L345.0550378197175,527.3266676529203 L343.2220001262875,528.5216116542738 L340.70157329782023,529.6209601355195 L334.82057736473166,529.7643534156819 L333.40761080937983,529.6687578955737 L330.1616065605973,528.5216116542738 L325.73073335232266,527.4700609330828 L321.75708745158744,525.518103758979 L318.950764541431,523.0636241886307 L314.798562604118,517.4338231530631 L313.14511306308384,514.2585016878439 L311.6072604937088,509.5420254187164 L309.87743438211595,505.8848508588972 L307.10929975724036,502.32456365053935 L302.6887477071486,501.45774481280034 L300.1125866244908,501.21746418117687 L295.3834319447073,500.4953304549531 L293.92298806170885,501.26526194123113 L292.15394154901713,503.57505640006417 L288.8098862974898,511.4668541344106 L287.46400727033176,515.1240286942301 L285.2346371026458,517.3860253930088 L283.58118756161247,518.4440352709645 L280.5054824228615,519.3108541087032 L278.891253282927,520.7538297297975 L277.737347797986,521.2356828243974 L274.0083133462043,521.5237612160753 L267.0116002134563,520.995402192774 L262.5126073611691,519.695819851842 L260.97475479179246,519.8883027234116 z"/>
	<path id="nevsehir-urgup" title="Ürgüp" class="district" d="M393.8204460061965,542.7847216207039 L387.33153385608614,539.0849166262417 L382.48058950973416,534.2573428607724 L378.8527024081536,528.6650049344362 L377.09604128528315,526.8964878124326 L368.04541767397143,524.4588020496709 L364.49390714295043,523.1204647681545 L359.9113129093755,520.729284934094 L357.42907436618907,519.6299364528484 L356.0161078108358,517.5746327705199 L356.0161078108358,516.4752842892744 L356.8180618017119,510.9307441229927 L358.0018986453862,508.92323820071795 L361.4388443205661,508.4930583602307 L365.60136741606436,508.3018673200143 L367.81628796229313,507.3937098789853 L375.7976395857694,505.4817994768192 L378.4326312700755,503.37869803443635 L379.9219743959867,499.0768996295627 L380.9148698132626,494.77510122468885 L381.4113175219003,491.52485354100605 L381.25856438077983,488.0356170570531 L379.2345852609516,486.5047969039672 L376.5614052913662,485.54884170288426 L373.2390244720234,484.7362797819636 L368.12179424453086,484.8796730621261 L362.44206089602505,483.9908930913895 L359.02266118975695,484.1782086375477 L358.4529332580147,481.9420485658249 L358.3879099614569,476.2373213117942 L358.5623375347619,472.1977646715417 L358.8895182491859,469.6050591464419 L360.2632644034404,468.54059011172257 L362.59687826878144,467.36631541201376 L366.2165084438142,465.0746065921199 L367.6119290302549,463.3538872301706 L367.9834907248684,460.7611817050707 L367.21972501927394,455.27477394966553 L365.25664073272924,450.33481085650135 L363.708467005169,447.5224940014232 L361.9641912721189,445.3392990151657 L360.30661326781205,444.32908689726463 L359.5655541102209,442.8822357821115 L358.6490352635059,439.38912380409994 L358.5840119669482,434.80312250160694 L358.99789041011536,432.3460592685529 L359.52117313002975,431.1188194833787 L360.98264912884616,429.8076106602717 L364.66007778970925,425.37533728876326 L370.35426075967155,419.58534916544687 L373.7633393077567,416.92805207270635 L375.3424765098673,415.9720968716235 L378.23343291713024,413.42589727522505 L381.6497362759435,410.78797765277676 L385.18989353296297,408.40842430089157 L389.92214456020207,405.92423260942854 L393.5634491674217,403.52271812454546 L396.87860517603474,399.4276127361219 L399.3649721824946,394.4605211845487 L400.6076396278164,391.5125620374249 L401.9380369176977,383.87008775417144 L401.7852837765796,378.7931905376088 L400.8037416333068,374.23431769352464 L398.4051044714088,366.0453987480308 L397.77241747474613,363.09743960090685 L398.05624932479793,360.75018203284196 L398.99341048788017,359.4131365826786 L400.4765609188829,358.13034804933335 L403.00627678971443,355.3180311942554 L405.5803736407362,354.2806906179448 L410.7915264077002,353.762666245466 L412.8072486009828,353.2097624264611 L414.787878856441,353.2097624264611 L418.17837931979534,353.89443304345303 L419.1743710845245,355.21339285467724 L421.3717456618406,357.288074007298 L426.658242883546,360.93878941035297 L429.27156013566605,362.2060759674647 L432.00563493853565,364.46290534083255 L434.7572557103181,365.9498032279223 L436.1888003504006,366.42390533440533 L440.02414273147406,366.7623651488432 L448.63921346743314,366.99877028640793 L453.08143994970953,366.8992992722413 L458.3225240754058,367.10211679463333 L462.90924677225496,367.8229586895041 L462.2517889959522,376.3283763164378 L461.76979090877103,378.0839751249133 L460.58595406509767,380.77227617012124 L459.4898470659846,382.63768064358595 L458.0428206886269,386.6991984168362 L456.15817720427833,390.04633345197993 L454.36023144867227,392.7346344971879 L453.0453158960661,396.7961522704379 L452.47558796432384,399.4289045674749 L451.6860193632689,400.9661838773245 L449.53818634523543,403.7642905875219 L448.3976983659335,405.84930639096535 L447.87131929856287,410.45856065780896 L448.0034301233152,415.17762058964195 L448.266619657,418.0312760480102 L448.96742629767516,420.72086892457094 L450.7209910730893,424.45167787150075 L454.6234209823581,431.4753649367556 L455.80725782603156,433.945346483338 L457.25428420338983,436.1401679517704 L461.594331219648,439.3774973219246 L466.9861042548272,442.83443802205767 L471.32099069199387,446.8946639639551 L476.22044448180975,450.51695907724803 L478.785252290465,453.1096646023478 L480.3303296705699,457.5535644560312 L481.41611551149845,464.4687376876498 L482.0735732878019,467.55492278952477 L482.599952355171,468.25509538275014 L484.3091361503964,471.95877587127103 L484.76945980539074,474.8395597880481 L484.3741594469543,477.37930022768234 L483.65167837409376,480.10764804482767 L482.00751787542606,482.3709365749594 L477.89763268666445,483.31655712522 L472.53785524185514,483.3578957285101 L468.2638636379736,483.5232501416705 L464.7123531069526,483.0698173368324 L459.8459270233244,483.0698173368324 L458.39890064596534,483.6873127234777 L456.49258272943143,485.0049807033491 L454.6502559936364,486.9388522385131 L452.25058671591887,489.07941679012765 L450.5733985110627,491.5894451086471 L447.87751199347235,500.7666150390445 L445.5098383061262,512.2897507061539 L444.19492275351774,515.788030009577 L442.64881325759643,518.4220741379667 L439.65670950013396,520.933394287839 L435.74395843268155,523.1553442146806 L433.6064465728325,524.9664917713272 L430.51629181262365,526.5709463115234 L425.8800275564928,527.6405826716541 L420.19100516562264,527.6005358997169 L413.38523345927206,528.0113382699122 L411.4448557207302,528.2994166615898 L404.27681136213164,531.7976959650125 L398.1284974320846,536.0775332368885 L394.93925955331304,539.4117499585041 L394.0836355398807,540.8108033136025 L393.8204460061965,542.7847216207039 z"/>
	
</g></g></svg>