<svg xmlns="http://www.w3.org/2000/svg" version="1.2" baseProfile="tiny" width="600" height="600" stroke-linecap="round" stroke-linejoin="round"><rect id="backgroundrect" width="100%" height="100%" x="0" y="0" fill="none" stroke="none" class="" style=""/>































































































































































































































































































































































































































































































































































































































<g class="currentLayer" style=""><title>Layer 1</title><g class="city city-51" id="nigde" title="Niğde">
	<path id="nigde-ciftlik" title="Çiftlik" class="district" d="M141.12533078525496,143.1167934444221 L143.80056857947199,138.35145710435387 L145.5736686470165,134.37108141505482 L147.11977293668218,130.12117941380995 L148.21383413220565,125.49616347325963 L150.02492920119673,118.93305884629625 L152.44881544737808,113.02848757944786 L153.2311227848709,110.5958042175059 L156.05931481568442,103.81874571405002 L157.2293660141022,101.93622946308994 L159.11547685518147,101.02067358900682 L161.79266311101182,100.48301027600237 L168.31806105189628,100.3218502131893 L169.8651395723687,99.4618667745588 L173.1093281574907,97.14866414884064 L178.61568067493994,91.7150692724536 L187.48020678185324,82.24830489308734 L194.15661049772086,73.91105026429665 L197.06079253142872,71.70621388771127 L199.09790914749183,70.7378641999479 L205.66032785901675,66.70330538608225 L207.43342792656065,64.82078913512261 L208.41447834854804,62.77711282134944 L209.1305379912096,58.20489069447938 L209.1305379912096,54.81497213186512 L208.82950067205047,49.8662467548027 L209.98201571595376,50.52616942580327 L213.41033392347398,51.83906821337324 L217.0939006022565,53.6048823498828 L221.41169153596803,54.19395016568116 L223.76153624086658,55.09839155267377 L228.49142680566115,56.45713759949218 L232.30164348926758,57.99649406153151 L238.62050449920775,61.84488521663075 L241.28697421616778,63.97330949446888 L244.17654278778048,66.82556474407828 L245.28814013781778,68.72753134744673 L246.81183711893823,70.49334548395626 L249.22500682624934,71.94239673838516 L250.30445455967765,72.2591596204654 L254.0825216266744,72.39531208732461 L259.44858490801073,74.79465198799453 L261.51200575584534,77.10368668105403 L262.30600386301444,79.05150054367083 L264.4970489464795,85.661841740769 L265.92527130857775,87.24565615117044 L268.7515148777786,89.19347001378766 L270.4651868661359,90.732826475827 L271.6401092185852,92.27218293786673 L272.1486576994958,94.12830228198675 L272.52958194477657,97.47932013978408 L273.60902967820425,101.10125362041353 L274.656327795023,103.590898728694 L278.49869409523893,111.60583323185861 L279.89574107153425,117.76325908001735 L280.3711657050293,123.96653218742404 L280.21334031440244,127.95107580938206 L281.0696891931775,131.88977217209185 L281.387288436045,138.13750322786103 L280.8475645693315,144.16016592004672 L280.4354649382478,145.20075977389823 L278.5620190976509,146.8318107544348 L269.4178887493172,153.2601522254253 L267.79871714917533,153.71306757436443 L262.65477849168553,153.53245715914352 L259.63855991524844,153.622762366754 L257.9882129293036,154.4827458053845 L255.28861936492717,157.60730598871203 L253.82824738621935,159.01050998389255 L252.08242578125305,162.18091742646897 L250.5587288001326,165.44024076576937 L248.24005948103706,167.79512271807735 L247.7958102333444,168.70095341595584 L247.16061174760932,171.64351387317612 L245.99932862644783,173.40238145525385 L242.117018863172,169.35809746518404 L237.89762524090133,167.2393983635501 L234.0825374032629,164.63999769525057 L230.90946766700375,164.01480779640752 L230.06480955790443,163.1478778033455 L229.22112567961176,159.00773136211987 L226.99305982550618,155.54140070075835 L224.19117202646413,154.04928080885327 L222.3342881095744,154.09651737898807 L218.85725836173677,153.71167826347843 L216.08849441011037,151.16090347619962 L214.0971666419459,148.12664850048253 L210.48471881202624,145.19103459769406 L208.79735105544088,144.3727304856533 L203.83461932793062,143.16819794721607 L199.74966955693475,143.26544970925832 L196.7451417501733,144.3727304856533 L192.0522719560204,145.72036204538077 L189.75698417627686,146.8276428217758 L186.95509637723478,146.68315448959868 L185.77335440914067,146.92350527293172 L183.07668353718375,148.34477030963436 L180.30791958555736,148.18638886859415 L177.12315907962247,147.47506169479982 L174.02120819222736,149.41037175943973 L171.55640425218007,149.686844625817 L169.5348753290181,149.52985249566305 L165.63015825719626,148.58095316030833 L164.41236974926773,147.75153456117707 L158.1811895118988,144.47415018035434 L156.187913282121,144.07958588864005 L153.19702470664916,143.05288514365185 L151.9227308119523,143.05288514365185 L150.73222076660127,144.0003951681201 L148.24013836397648,145.10628663362868 L143.53168087692185,145.97460593757697 L142.72891469249512,145.5411409410459 L141.12533078525496,143.1167934444221 z"/>
	<path id="nigde-altunhisar" title="Altunhisar" class="district" d="M57.31907413122562,201.86658289412338 L60.53208733054407,198.0181917390246 L60.40348886410683,193.4362444359499 L60.05568846624243,191.91217039365972 L63.30767089781527,189.23635762661263 L68.77700264462347,183.48183193548618 L70.92713003422195,180.25446274657097 L72.02119122974482,177.99544324541907 L72.73725087240696,175.0362110575632 L73.71830129439435,172.93835161922382 L76.2074610046004,168.95797592992483 L80.73373733086953,164.81644017781278 L82.73285894548486,162.07255117733615 L86.9201029511465,154.86480629912177 L89.2212361157282,150.66908742244317 L93.97353398906816,143.78366266985452 L96.31266215509702,142.17067273084018 L98.1607779947298,141.20232304307692 L103.66713051217965,139.64212691774244 L105.666252126795,139.26562366755064 L107.66537374141035,139.26562366755064 L112.72065739552335,140.1797902307473 L113.88973436313444,140.93279673113145 L116.75592139539572,141.4718493550227 L122.33826391573993,142.92367923122436 L125.9974748243637,144.16016592004672 L130.18471883002533,145.82872829451358 L135.9550878959932,147.6570614209075 L137.20015486649984,147.44171823352823 L140.3303584472798,144.69921854393766 L141.12533078525496,143.1167934444221 L142.72891469249512,145.5411409410459 L143.53168087692185,145.97460593757697 L148.24013836397648,145.10628663362868 L150.73222076660127,144.0003951681201 L151.9227308119523,143.05288514365185 L153.19702470664916,143.05288514365185 L156.187913282121,144.07958588864005 L158.1811895118988,144.47415018035434 L164.41236974926773,147.75153456117707 L165.63015825719626,148.58095316030833 L169.5348753290181,149.52985249566305 L171.55640425218007,149.686844625817 L174.02120819222736,149.41037175943973 L177.12315907962247,147.47506169479982 L180.30791958555736,148.18638886859415 L183.07668353718375,148.34477030963436 L185.77335440914067,146.92350527293172 L186.95509637723478,146.68315448959868 L189.75698417627686,146.8276428217758 L192.0522719560204,145.72036204538077 L196.7451417501733,144.3727304856533 L199.74966955693475,143.26544970925832 L203.83461932793062,143.16819794721607 L208.79735105544088,144.3727304856533 L210.48471881202624,145.19103459769406 L214.0971666419459,148.12664850048253 L216.08849441011037,151.16090347619962 L218.85725836173677,153.71167826347843 L222.3342881095744,154.09651737898807 L224.19117202646413,154.04928080885327 L226.99305982550618,155.54140070075835 L229.22112567961176,159.00773136211987 L230.06480955790443,163.1478778033455 L230.90946766700375,164.01480779640752 L234.0825374032629,164.63999769525057 L237.89762524090133,167.2393983635501 L242.117018863172,169.35809746518404 L245.99932862644783,173.40238145525385 L247.3164886766234,180.62401944233136 L248.53135449213318,184.7641658835571 L248.12607447669433,192.1289028919253 L246.67447057524345,201.85407909614653 L246.43870672010837,205.70524887301812 L246.57315057138374,211.57925530036815 L245.19461398040903,210.65953149362588 L242.34011771782468,209.62171626154674 L239.77691646633644,209.4966782817785 L236.01930824627175,207.79477244603962 L232.5822219614946,205.7997220132877 L230.83542612572217,205.1356314096281 L221.13598421777246,200.2341426027005 L217.02960136903792,198.03347415877383 L214.17510510645357,196.33017901214907 L212.57249543001885,195.7897370773715 L210.4759507347693,195.62440908189973 L208.0150437179474,196.34546143189831 L204.92088667700258,197.93205446407288 L202.69769197692787,199.81596002591925 L200.23386226768727,202.81548222947808 L198.88162990848338,205.89975239710267 L197.43976831509607,209.8842960190608 L196.53860481922902,213.99804555344633 L196.38857327505255,217.98258917540446 L196.65843520840932,221.53783573349057 L196.35837212005563,225.6085166304004 L194.40601358414438,233.10662748385522 L192.84334737077083,237.17591906987877 L191.91198271990626,238.80419142864264 L190.04925341817903,240.94650881534395 L188.5167883598017,241.84678226967753 L185.12256823050382,242.53171253663174 L181.33670731705556,242.96100960050381 L176.79971445191677,242.36082729761503 L170.8812623033845,241.41748520580535 L170.13013035169402,241.11739405436077 L168.23719989496985,239.36130509405578 L166.37447059324197,238.24707776322938 L159.61525725883575,237.134239743289 L154.89803169452358,237.26205634483006 L148.85974915681106,238.37628367565688 L147.11685024426345,239.10428258008727 L143.66222780497176,241.20353132931254 L141.4088319499008,241.16046269183687 L136.21131059806154,242.27469002266318 L133.86731127800118,242.48864389915607 L130.86375770204577,241.80371363220178 L126.71743139025068,237.43294158384734 L125.6662363502071,237.09117110581334 L120.37811153337844,236.5340574404001 L109.66741804844503,232.53839933135157 L100.36935923270875,227.42712458058972 L91.93057198816749,220.87652375160363 L89.80187767630832,218.64112253551903 L84.35008208401402,215.71245518716205 L75.83627906738388,209.58837280027527 L70.19840539107743,204.26314417302106 L68.70490956495398,203.73103810356125 L61.609586602359045,203.14474890953554 L57.31907413122562,201.86658289412338 z"/>
	<path id="nigde-camardi" title="Çamardı" class="district" d="M398.16638673074846,391.71869413115996 L397.5876936317803,387.24511307721843 L396.6728909046249,384.1858505055475 L393.1568919245334,378.6202710949601 L391.60981340406096,375.76245860180563 L389.85132679861215,368.9423314608738 L389.7110375624987,361.72208278468247 L388.8322813751776,359.2143766348797 L387.320275163733,357.3096314097387 L385.63193317634097,353.90026249471623 L383.76920387461377,349.2363458493488 L382.81932883842927,345.2254053205505 L382.9596180745428,342.91775993837746 L383.6630127167219,340.15997782903753 L385.5617885582842,328.2772018183655 L385.1399466191382,326.1209913228008 L384.1910458137604,323.91476563532865 L383.1008815414623,319.40089456568387 L382.78425652940086,316.54308207252905 L382.6439672932879,312.73220231136077 L383.1008815414623,306.41500571127585 L383.8744208016983,302.9042171015518 L384.92951276496785,300.046404608397 L385.034729692053,297.69013334520275 L384.119926964897,291.8230734722845 L383.83934849266984,289.2153369386672 L382.6790396023157,285.204396409869 L379.1269940823898,275.97798281383564 L376.73623168362474,268.8577645214591 L375.2943700902374,263.44223068659403 L375.25929778120906,258.4782228897825 L375.7522585692185,256.0205319318868 L377.7913236468938,253.16271943873235 L379.4786914034797,250.35492213748492 L384.1910458137604,245.69100549211763 L386.85069591507556,241.9801561147641 L389.45773755284915,238.68193207064658 L390.67747452239036,235.74353954608534 L392.9902984566485,233.16497854108056 L399.0880090735481,229.0276107216275 L403.29278923372357,224.76937285506486 L404.97528583627803,224.349800967397 L411.8299737897064,224.529022071732 L414.0161477191394,225.24868511084412 L415.95097010053604,226.44904971662226 L418.55801173830963,228.48716878684994 L421.2488372254284,230.10710528029603 L425.8325931692719,232.1452243505236 L429.2813702237254,234.00412231641596 L430.62678296728444,234.423694204084 L432.72917304737217,234.12499236352565 L438.5745578854302,234.06386268452766 L443.4944234574606,230.52667716796398 L445.7234635423734,229.2068318259625 L447.7420697731153,227.64802501151445 L449.5083502250156,225.84886741373336 L450.9794387425932,225.00972363839747 L453.796914234537,224.2900605992853 L456.4887139524624,224.16919055217562 L457.79223477134826,222.01159074572504 L460.1050587056062,215.77358486616012 L462.0817730116756,209.0576560417022 L462.45977456453693,206.8389265562532 L462.6702084187066,201.80128528246667 L463.67951153407756,199.10324354123807 L466.9597466590334,195.62440908189973 L474.4447619441665,190.28806596755496 L476.63093587359884,189.3280521451094 L478.9866259633362,188.66812947410884 L482.4344287869843,187.34967344299383 L486.5135331731408,186.63001040388127 L492.4008099358707,187.16906302777247 L496.5218062467004,186.44939998865993 L504.4695811648461,183.5110074640987 L507.6709035944896,183.9458617715162 L513.0642453384027,183.72079340793286 L518.4566128515105,185.92562978451826 L523.4086280401505,187.58863491544005 L527.0990143345766,189.25302935724852 L532.0188799066094,190.82711859144587 L537.6957228151678,193.2556340207286 L540.9126329377129,195.82030191687028 L543.0559407116666,196.35101867544378 L543.5791026546731,198.31411495781015 L545.4652134957523,201.9179873969173 L546.1062573663255,203.7463205233108 L546.9363020133297,210.68592840046605 L547.5023301118154,214.07445765219404 L547.8413624324229,218.6466797790641 L548.3693955294613,221.98102590622582 L549.3124509500003,224.455388594757 L550.8965502411139,231.39499647191226 L553.8007322748217,237.79555172517624 L555.8758438923314,241.13128716322402 L560.1381036700813,246.0258294157201 L564.5883899934555,250.43689147977767 L566.4374800638942,252.4805677935504 L568.5866332226874,255.38561685684004 L569.1526613211723,256.6762866702287 L569.4166778696916,261.51664579815827 L569.4546728711382,268.83275692550535 L568.8506497712053,275.34167842790214 L567.1915347080036,280.5057469923438 L565.2674288654771,284.96960287008153 L563.3063022523082,292.55385099848763 L561.0811590906214,300.24646537602666 L559.2330432509899,302.936171251937 L556.2528712143867,305.5175108787147 L550.9345452425605,308.4753537556842 L545.0501911722505,309.98275606733864 L536.3366708403197,311.8652723182988 L532.9424507110218,312.5099125695498 L530.6413175464406,312.72525575692896 L526.9450858671757,312.4029356313033 L522.757841861513,310.8969226305355 L520.3816929248436,310.7885563814027 L514.8324742519144,310.1703130369915 L511.40902719842506,310.04944298988175 L509.400163275748,309.56596280144356 L506.06244853321664,308.15303363005876 L503.4310511252843,307.4681033631041 L501.4260841258308,307.9112935358395 L500.4080129332035,309.99942779797425 L499.8565982968124,312.81278234276704 L499.6656490587693,317.98657608341273 L499.7241029071497,324.2718185331122 L501.30722796745727,329.32752084842105 L502.47825339668043,332.32287511932157 L504.0954765352103,335.80865613309174 L507.0561639556863,340.3253058245093 L511.2911452708588,345.9214500745953 L511.91075606369213,347.09958570619256 L512.8060741747223,351.2730756086896 L513.2191480366114,355.2492833653299 L514.0102234513612,360.20773391859666 L514.2352707676265,363.2003095677244 L510.7484987117259,364.5090404226353 L504.4052819316281,367.24598286868036 L496.62410048136735,371.19718302936667 L487.77711052896734,376.13757254111135 L480.2618940888397,380.8501150674997 L477.4375989812523,383.4342333160499 L474.93285157814455,386.1711757620951 L471.19959912823913,393.530355526918 L470.12015139481076,394.89188019550886 L467.36405244366614,396.05195478558403 L464.00685308500994,396.58267154415717 L458.94377558444546,396.9633427270079 L455.7453758472222,397.0397548257557 L454.1466630940128,397.4190366977201 L452.12123724762733,400.915932198581 L447.3777074515431,405.0963686555101 L442.24351110211694,407.37622781995674 L440.1645025613812,409.2003930136909 L438.13907671499385,411.3288172915295 L432.27712995322923,414.21580531329687 L428.91895636376586,415.2800174522157 L425.98749586747994,415.8885356204229 L422.15000072129607,409.5796748856559 L420.924418366916,406.76770965174956 L418.31347980591755,397.7997078805713 L413.1432369166558,396.05195478558403 L410.85184606013837,395.7476957014803 L406.7474116730153,396.20338967219243 L404.34885542779926,395.67128360273307 L401.04523876349145,393.08716535418273 L398.16638673074846,391.71869413115996 z"/>
	<path id="nigde-bor" title="Bor" class="district" d="M398.16638673074846,391.71869413115996 L395.28850892881144,394.3792244784581 L392.0910834223941,399.39602608894984 L388.877095992269,403.0082343933749 L387.58136901983346,401.0826495049391 L385.7166912564928,399.0889883830739 L383.356130012724,397.4259832521517 L378.8697971495154,395.3489634771073 L376.6845974508885,393.77070631025106 L373.53783194640147,391.9006938572679 L370.71256260800664,391.0698859472502 L367.82786519042605,390.6961613188306 L366.89552630875545,390.32243669041145 L359.7865641148721,390.1140400574635 L357.45620402609956,389.90564342451614 L355.27100432747324,390.1140400574635 L350.52162914655145,392.2327391590976 L345.01527662910155,392.6898224406963 L340.0915141338452,392.77318109387534 L338.28529021888556,393.271943702063 L335.60518127063665,394.5181555670898 L331.05942032824083,395.6810087789371 L324.15504660368964,396.179771387125 L320.97905417501164,396.88693062826087 L318.823081400575,397.5927005585098 L316.5794278535676,398.8389124235367 L311.5981857407368,399.047309056484 L308.5965806263942,398.4651877951171 L306.9657182565765,397.7997078805713 L301.28400419398537,393.77070631025106 L297.3218075045892,392.2744184856871 L295.34022204448706,392.2327391590976 L291.9031357597098,394.10275161208074 L290.32975300746597,394.643193546858 L286.1337409245474,394.3514382607317 L283.686473139014,393.85267565254355 L279.141686427425,392.02573183703623 L272.12040500611226,388.36906558424914 L270.5762491780587,386.5407324578557 L267.95361984738395,385.2945205928288 L264.22426432070336,384.00662940121276 L262.4472673299346,382.8437761893649 L257.7855729215841,380.8070464300241 L254.98855627657355,379.97623852000595 L252.74587696037224,379.6025138915868 L250.793518424461,379.8512005402374 L246.9190025076361,380.7653671034342 L244.20869240439015,380.9320844097923 L241.9075592398077,379.8095212136478 L239.60545184442003,379.8512005402374 L233.3128950662518,385.25284126623933 L230.34051687609934,390.1140400574635 L227.83576947299218,393.4372716975349 L226.81574981875156,394.1861102652598 L217.08513252499955,395.05859750186676 L212.33575734407773,395.1822461707493 L208.22742603373044,394.30975893414177 L203.3621173868544,393.85267565254355 L198.7296499026941,394.30975893414177 L193.66072701729203,395.5156807834654 L189.87291764223107,396.2631300403041 L188.99513568571606,396.0922448012873 L189.10912069005877,387.92031816796873 L188.04818334195096,380.8653974872492 L185.28526477516337,371.8390446588452 L183.4537108592378,365.01197096348176 L180.81939075888738,356.9011740091612 L178.57086605784792,351.77044890599166 L173.14050354329297,343.70549921091947 L168.77107837684522,339.0777046485963 L162.57009929447312,331.8852421901312 L156.91566369445948,324.09537605055004 L147.34092332972216,315.11487048139463 L144.60918014873687,310.8538539930597 L141.39616694941842,306.54699024547597 L137.15534024940789,301.919195683153 L130.15159498260965,296.23830346900115 L127.36139795324334,292.03841665966365 L125.81919058680302,289.105581378648 L119.8646918984357,286.6617835296157 L118.10815375459964,286.29500545562803 L106.37062099978084,282.75226269551877 L94.71784632511383,277.19224052847665 L90.90470694908808,274.4441835953413 L80.88084618262667,269.73997693427066 L70.64168040796343,266.92940101125055 L66.9581137291815,266.19584486327506 L60.96074888533491,263.0198801771537 L54.920517886009634,260.3315636121297 L50.208163475728924,257.2153392941199 L49.26510805518929,254.89380080308354 L48.751688420246595,246.46346234491003 L47.20948105380626,241.4536072888496 L45.02428135517874,237.1773083807651 L40.311926944898644,229.84730414455467 L35.128044824348464,225.9975236785691 L31.70167507844033,224.10389294051893 L29.002081514064642,220.9890579333955 L28.445795723642618,219.21629724245454 L29.087813825022536,213.8410534232924 L29.9022707791256,211.45838525325848 L31.230147368170165,208.95345772522808 L33.97163285721909,205.8372334072183 L40.82632081064744,205.34958528612094 L46.48075641066115,205.34958528612094 L49.05077727779357,204.9216775331352 L57.31907413122562,201.86658289412338 L61.609586602359045,203.14474890953554 L68.70490956495398,203.73103810356125 L70.19840539107743,204.26314417302106 L75.83627906738388,209.58837280027527 L84.35008208401402,215.71245518716205 L89.80187767630832,218.64112253551903 L91.93057198816749,220.87652375160363 L100.36935923270875,227.42712458058972 L109.66741804844503,232.53839933135157 L120.37811153337844,236.5340574404001 L125.6662363502071,237.09117110581334 L126.71743139025068,237.43294158384734 L130.86375770204577,241.80371363220178 L133.86731127800118,242.48864389915607 L136.21131059806154,242.27469002266318 L141.4088319499008,241.16046269183687 L143.66222780497176,241.20353132931254 L147.11685024426345,239.10428258008727 L148.85974915681106,238.37628367565688 L154.89803169452358,237.26205634483006 L159.61525725883575,237.134239743289 L166.37447059324197,238.24707776322938 L168.23719989496985,239.36130509405578 L170.13013035169402,241.11739405436077 L170.8812623033845,241.41748520580535 L176.79971445191677,242.36082729761503 L181.33670731705556,242.96100960050381 L185.12256823050382,242.53171253663174 L188.5167883598017,241.84678226967753 L190.04925341817903,240.94650881534395 L191.91198271990626,238.80419142864264 L192.84334737077083,237.17591906987877 L194.40601358414438,233.10662748385522 L196.35837212005563,225.6085166304004 L196.65843520840932,221.53783573349057 L196.38857327505255,217.98258917540446 L196.53860481922902,213.99804555344633 L197.43976831509607,209.8842960190608 L198.88162990848338,205.89975239710267 L200.23386226768727,202.81548222947808 L202.69769197692787,199.81596002591925 L204.92088667700258,197.93205446407288 L208.0150437179474,196.34546143189831 L210.4759507347693,195.62440908189973 L212.57249543001885,195.7897370773715 L214.17510510645357,196.33017901214907 L217.02960136903792,198.03347415877383 L221.13598421777246,200.2341426027005 L230.83542612572217,205.1356314096281 L232.5822219614946,205.7997220132877 L236.01930824627175,207.79477244603962 L239.77691646633644,209.4966782817785 L242.34011771782468,209.62171626154674 L245.19461398040903,210.65953149362588 L246.57315057138374,211.57925530036815 L247.41780868048306,214.1300300876466 L248.56545257035486,216.73082006683254 L251.1306022834558,221.35166807472416 L252.616304263129,224.7707621659512 L254.9456901210943,228.86228272615583 L257.1065340495631,233.53175661506825 L260.9605911194554,242.53449115840453 L263.39129698128033,250.23683071214802 L265.37190821057516,254.60204551695713 L268.6121998724717,260.3788001822644 L271.40337113264343,264.74401498707357 L276.08455015712127,270.77779216634974 L280.40526378325154,274.8220761564196 L285.6719555223409,278.99417674803044 L290.2186906955434,281.24069245120563 L295.21454627046927,282.9106441365591 L304.4872750852402,285.6059072560146 L307.8181702121261,285.99074637152455 L315.0196843326128,288.3664679871272 L317.5858082765198,288.8805130150646 L319.92591067335536,290.09893866236484 L322.7618965506191,290.99782280581235 L327.35344634091234,291.51186783374976 L330.3686906865434,292.2176377639987 L333.8350038955114,292.795591092707 L341.1719360980796,293.3096361206441 L346.93353708679115,294.20713095320525 L349.04956639816794,294.72117598114266 L353.1900473251249,295.3630376106213 L357.55654979915323,295.0421067958821 L368.49423906196466,296.9037833835471 L376.41668397914447,297.03159998508863 L382.6283796003862,298.38062085570255 L384.92951276496785,300.046404608397 L383.8744208016983,302.9042171015518 L383.1008815414623,306.41500571127585 L382.6439672932879,312.73220231136077 L382.78425652940086,316.54308207252905 L383.1008815414623,319.40089456568387 L384.1910458137604,323.91476563532865 L385.1399466191382,326.1209913228008 L385.5617885582842,328.2772018183655 L383.6630127167219,340.15997782903753 L382.9596180745428,342.91775993837746 L382.81932883842927,345.2254053205505 L383.76920387461377,349.2363458493488 L385.63193317634097,353.90026249471623 L387.320275163733,357.3096314097387 L388.8322813751776,359.2143766348797 L389.7110375624987,361.72208278468247 L389.85132679861215,368.9423314608738 L391.60981340406096,375.76245860180563 L393.1568919245334,378.6202710949601 L396.6728909046249,384.1858505055475 L397.5876936317803,387.24511307721843 L398.16638673074846,391.71869413115996 z"/>
	<path id="nigde-merkez" title="Merkez" class="district" d="M208.82950067205047,49.8662467548027 L208.18748257067054,47.607227253650734 L206.90539482952343,45.18704768968574 L205.32129553840986,39.16299568661402 L204.64225666638885,35.23541381099486 L203.8502070208318,28.51253843210517 L203.81221201938462,23.779156242422033 L205.88732363689488,20.497603928940446 L211.8846884807415,14.902848989740463 L216.78799212906466,7.856264174339132 L221.9933073273548,4.952604421935815 L228.3676994932555,3.3924082966014533 L231.49887730484141,7.426967110467064 L234.25205356356605,10.438993112003084 L235.91116862676785,11.729662925391677 L240.551429957379,16.19490811401583 L242.7765731190658,18.07742436497547 L244.47368318371537,19.85157436680275 L246.0207617041878,22.487097118146995 L247.11384866890398,25.176802994057397 L249.30197105995023,26.791182243958055 L253.22519851709325,29.319728057055492 L257.5624740669315,30.878534871503508 L261.29670074764346,31.470381309074572 L264.08787200781535,32.384547872271796 L268.99117565613903,32.49291412140416 L276.45962901756315,33.30010374635482 L286.30423131565783,34.644956684310024 L293.4716473579216,32.384547872271796 L298.1489294591739,29.37252187073566 L300.14805107378925,27.059319245017157 L307.4323748128145,23.36236297652681 L312.69419539787236,20.417023897534182 L316.4284220785838,18.56090455341417 L320.04963798576046,17.71342491276054 L328.76218408688453,16.785365240700536 L330.60153184925974,17.028494645806248 L334.364011223356,18.359454474898236 L345.62319665225976,18.883224679039888 L350.17772567191247,19.569544256880537 L357.3071467127297,19.488964225474177 L361.80517034561467,17.39110478713482 L365.2276431682967,15.212665317389206 L368.22632559022003,12.509066332616007 L371.0837445452237,10.896076393601263 L380.30581335806505,9.484536533103022 L384.2952885100389,9.60540658021268 L393.3195884691923,9.281697143700624 L399.74074371379766,9.645696595915656 L407.49269823986765,14.526345739548557 L410.5478860485593,16.785365240700536 L413.4900630837148,19.85157436680275 L414.9611516012917,20.77963403886276 L417.33730053796165,23.523523039339807 L420.816278747412,28.566721556671677 L423.16514922150515,31.30922124626193 L424.89051197953825,32.963890511866005 L429.5863044661105,38.16824909201051 L430.80311874323303,39.9826891095412 L431.5951683887895,41.919388485067486 L432.81100843510535,47.56693723794741 L436.34746626212944,60.073513836576254 L436.7157255069272,63.34117304119453 L437.8468074730911,68.90814176266808 L439.00711636344647,76.33122982826163 L439.6579025420827,81.81761851832893 L441.72229762072334,84.92411766013454 L444.3254423352715,88.27235689615905 L449.95454793431975,96.2608944924836 L450.71834488649324,100.01203388554056 L450.322807179118,104.49117218302789 L450.5770814195737,107.39483193543079 L452.33167110179767,110.94591056085807 L454.396066180437,114.05240970266365 L456.34842471634886,115.9474297516003 L458.442046719179,117.52151898579797 L462.11976801312335,119.49850837702768 L466.7590551129273,120.99062826893218 L470.5215344870242,121.27265837885494 L476.8579316514776,121.51578778396019 L481.95023607623176,120.99062826893218 L485.06192927169104,120.1431486282789 L488.5983870987152,118.93305884629625 L495.1052746542791,118.57044870496766 L506.223196616264,116.83519940795733 L509.39139519849107,117.36035892298534 L511.56977528147263,121.43520775255392 L515.0487534909236,128.8985858338508 L515.4452654291055,129.34177600658575 L521.273114112647,130.8741859141941 L524.2435438411874,130.9144759298971 L526.1384227595237,130.63244581997478 L530.6646990857928,132.9317553368301 L531.627239122459,135.1504848222786 L532.2770510702892,140.960582948858 L532.6170576217028,142.5332828721689 L534.0033880591295,146.72900174884748 L535.4744765767072,149.99666095346575 L536.6338112362553,155.84704909574808 L537.7093620464582,163.59245728696723 L537.822372819993,165.73060674100955 L537.4258608818111,170.20835572761044 L537.397608188427,172.34650518165282 L536.8890597075168,177.83289387171996 L537.9353835935284,181.34368248144403 L538.9534547861575,182.95667242045823 L540.2832798368142,183.9653121239246 L543.5644891925773,187.27326134424615 L543.7632322770725,187.95958092208681 L543.5937161167682,191.67043029944048 L543.0559407116666,196.35101867544378 L540.9126329377129,195.82030191687028 L537.6957228151678,193.2556340207286 L532.0188799066094,190.82711859144587 L527.0990143345766,189.25302935724852 L523.4086280401505,187.58863491544005 L518.4566128515105,185.92562978451826 L513.0642453384027,183.72079340793286 L507.6709035944896,183.9458617715162 L504.4695811648461,183.5110074640987 L496.5218062467004,186.44939998865993 L492.4008099358707,187.16906302777247 L486.5135331731408,186.63001040388127 L482.4344287869843,187.34967344299383 L478.9866259633362,188.66812947410884 L476.63093587359884,189.3280521451094 L474.4447619441665,190.28806596755496 L466.9597466590334,195.62440908189973 L463.67951153407756,199.10324354123807 L462.6702084187066,201.80128528246667 L462.45977456453693,206.8389265562532 L462.0817730116756,209.0576560417022 L460.1050587056062,215.77358486616012 L457.79223477134826,222.01159074572504 L456.4887139524624,224.16919055217562 L453.796914234537,224.2900605992853 L450.9794387425932,225.00972363839747 L449.5083502250156,225.84886741373336 L447.7420697731153,227.64802501151445 L445.7234635423734,229.2068318259625 L443.4944234574606,230.52667716796398 L438.5745578854302,234.06386268452766 L432.72917304737217,234.12499236352565 L430.62678296728444,234.423694204084 L429.2813702237254,234.00412231641596 L425.8325931692719,232.1452243505236 L421.2488372254284,230.10710528029603 L418.55801173830963,228.48716878684994 L415.95097010053604,226.44904971662226 L414.0161477191394,225.24868511084412 L411.8299737897064,224.529022071732 L404.97528583627803,224.349800967397 L403.29278923372357,224.76937285506486 L399.0880090735481,229.0276107216275 L392.9902984566485,233.16497854108056 L390.67747452239036,235.74353954608534 L389.45773755284915,238.68193207064658 L386.85069591507556,241.9801561147641 L384.1910458137604,245.69100549211763 L379.4786914034797,250.35492213748492 L377.7913236468938,253.16271943873235 L375.7522585692185,256.0205319318868 L375.25929778120906,258.4782228897825 L375.2943700902374,263.44223068659403 L376.73623168362474,268.8577645214591 L379.1269940823898,275.97798281383564 L382.6790396023157,285.204396409869 L383.83934849266984,289.2153369386672 L384.119926964897,291.8230734722845 L385.034729692053,297.69013334520275 L384.92951276496785,300.046404608397 L382.6283796003862,298.38062085570255 L376.41668397914447,297.03159998508863 L368.49423906196466,296.9037833835471 L357.55654979915323,295.0421067958821 L353.1900473251249,295.3630376106213 L349.04956639816794,294.72117598114266 L346.93353708679115,294.20713095320525 L341.1719360980796,293.3096361206441 L333.8350038955114,292.795591092707 L330.3686906865434,292.2176377639987 L327.35344634091234,291.51186783374976 L322.7618965506191,290.99782280581235 L319.92591067335536,290.09893866236484 L317.5858082765198,288.8805130150646 L315.0196843326128,288.3664679871272 L307.8181702121261,285.99074637152455 L304.4872750852402,285.6059072560146 L295.21454627046927,282.9106441365591 L290.2186906955434,281.24069245120563 L285.6719555223409,278.99417674803044 L280.40526378325154,274.8220761564196 L276.08455015712127,270.77779216634974 L271.40337113264343,264.74401498707357 L268.6121998724717,260.3788001822644 L265.37190821057516,254.60204551695713 L263.39129698128033,250.23683071214802 L260.9605911194554,242.53449115840453 L257.1065340495631,233.53175661506825 L254.9456901210943,228.86228272615583 L252.616304263129,224.7707621659512 L251.1306022834558,221.35166807472416 L248.56545257035486,216.73082006683254 L247.41780868048306,214.1300300876466 L246.57315057138374,211.57925530036815 L246.43870672010837,205.70524887301812 L246.67447057524345,201.85407909614653 L248.12607447669433,192.1289028919253 L248.53135449213318,184.7641658835571 L247.3164886766234,180.62401944233136 L245.99932862644783,173.40238145525385 L247.16061174760932,171.64351387317612 L247.7958102333444,168.70095341595584 L248.24005948103706,167.79512271807735 L250.5587288001326,165.44024076576937 L252.08242578125305,162.18091742646897 L253.82824738621935,159.01050998389255 L255.28861936492717,157.60730598871203 L257.9882129293036,154.4827458053845 L259.63855991524844,153.622762366754 L262.65477849168553,153.53245715914352 L267.79871714917533,153.71306757436443 L269.4178887493172,153.2601522254253 L278.5620190976509,146.8318107544348 L280.4354649382478,145.20075977389823 L280.8475645693315,144.16016592004672 L281.387288436045,138.13750322786103 L281.0696891931775,131.88977217209185 L280.21334031440244,127.95107580938206 L280.3711657050293,123.96653218742404 L279.89574107153425,117.76325908001735 L278.49869409523893,111.60583323185861 L274.656327795023,103.590898728694 L273.60902967820425,101.10125362041353 L272.52958194477657,97.47932013978408 L272.1486576994958,94.12830228198675 L271.6401092185852,92.27218293786673 L270.4651868661359,90.732826475827 L268.7515148777786,89.19347001378766 L265.92527130857775,87.24565615117044 L264.4970489464795,85.661841740769 L262.30600386301444,79.05150054367083 L261.51200575584534,77.10368668105403 L259.44858490801073,74.79465198799453 L254.0825216266744,72.39531208732461 L250.30445455967765,72.2591596204654 L249.22500682624934,71.94239673838516 L246.81183711893823,70.49334548395626 L245.28814013781778,68.72753134744673 L244.17654278778048,66.82556474407828 L241.28697421616778,63.97330949446888 L238.62050449920775,61.84488521663075 L232.30164348926758,57.99649406153151 L228.49142680566115,56.45713759949218 L223.76153624086658,55.09839155267377 L221.41169153596803,54.19395016568116 L217.0939006022565,53.6048823498828 L213.41033392347398,51.83906821337324 L209.98201571595376,50.52616942580327 L208.82950067205047,49.8662467548027 z"/>
	<path id="nigde-ulukisla" title="Ulukışla" class="district" d="M346.9851713195273,549.1984724061166 L345.1292616334443,550.1543182959027 L344.0157158217942,550.0139978963847 L339.4962591111699,546.9783536097813 L335.04110163376424,545.2500508672028 L333.43654349571744,542.82153543792 L329.7675902790307,541.7003615526619 L327.63889596717155,541.279400354108 L321.31711226481247,540.9056757256884 L318.991623330072,541.0459961252064 L316.0757505266879,542.0268496109467 L314.24224814915084,543.0549396668212 L309.4928729682297,545.0166466383013 L306.70852132370203,545.9502635539067 L304.80877125133316,545.9044162946583 L302.41703462176133,546.6046289813621 L297.96285137516236,548.4260155533242 L295.17849973063426,548.613572522977 L293.63921505661267,549.033144410645 L292.0346569185659,550.294638695421 L289.97026183992523,551.4616598399277 L286.8264190278569,552.536986465937 L284.14046469477034,556.7410412079336 L282.73172694879804,558.048382751958 L280.6351822535484,562.6261621223737 L273.26610043437137,564.0738240659163 L270.80909034077496,566.3161718364327 L268.90934026840654,566.9705372638881 L263.86477315316324,568.0917111491458 L260.88460111655985,567.7638337799751 L258.7880564213102,568.2778788079125 L257.57611329822055,569.3059688637873 L252.62994349441738,569.3059688637873 L249.30976490640114,570.7050049263091 L247.12748790019361,572.1554454916243 L244.83512281286824,572.9028947484629 L242.11604463236597,574.2574728626222 L240.2494184074127,575.7509820654137 L238.25127102360335,575.0980059488442 L237.30139598741948,573.6961912645501 L235.17172744475363,572.4346969797738 L231.961636937854,572.5291701200434 L230.94648843764486,572.8556581783282 L228.5557260388798,574.6311974910418 L225.60770361888663,574.6770447502902 L224.10056856147406,575.2841736076109 L221.05512306084603,579.5354649197418 L218.564989119834,583.9729238906393 L216.17422672106892,587.5698497753151 L214.40599780755653,590.698577891302 L212.89886275014396,592.6144376035334 L210.27818188108196,594.4358241754953 L208.44467950354434,596.023806518556 L205.66032785901675,596.6309353758768 L203.13317314736358,596.1349513894614 L201.76243040283916,593.448024135324 L199.70582917064942,590.5151888543077 L197.69306832474507,586.3000196252212 L197.00720983707976,583.4894437022011 L197.01305522191794,580.678867779181 L198.16946718904663,576.1886149946034 L200.48229112330472,568.7669162398963 L203.3104831541176,561.2521336558056 L204.04895010532576,553.6011986048562 L204.11324933854434,545.8113324652752 L204.46689512124698,541.871246791679 L204.24184780498157,539.4427313623963 L203.05328622124387,535.8235765035396 L201.8647246375055,535.3192566518067 L199.679524938878,535.7318819850427 L195.27795015582123,537.4268412663495 L194.1215381886925,537.0142159331134 L192.7391046744917,535.7777292442911 L189.91188687448488,532.4322686300387 L177.83142487583373,524.2311664681077 L169.83104149414694,519.6492191650331 L163.88725934464867,514.9297300842132 L161.25293924429764,512.3178256179363 L159.54998379481054,510.21024100339343 L158.200674128026,507.8734200926075 L158.16852451141642,504.94197412247763 L159.67858226124832,499.67231793067606 L160.73854537854885,497.7481223531265 L161.79850849584997,494.95282884985613 L163.85510972803965,492.2492298650827 L167.7754144927633,490.14164525053945 L170.79552999242594,489.6387147096924 L174.0397185775473,489.45532567269834 L176.1284694263466,487.6214353027599 L178.69849029347904,485.01092014736923 L179.50223070871183,483.58965511066674 L180.59434344262198,479.6037221778224 L180.20952227411644,477.8629156372666 L179.18073454261886,476.1221090967109 L177.18843254364776,475.3885529487353 L173.8477951086976,473.7852881859253 L169.2854722425946,471.0358419419032 L165.46161632769918,467.04990900905887 L162.47365044464553,464.75893535752175 L159.4213853283733,462.97228155771757 L156.52986829514793,460.68130790618 L153.8302747307722,456.92322195869144 L153.05965816295446,453.99177598856215 L153.12395739617364,451.792496855522 L153.70265049514103,449.2264396484935 L156.40126982871067,445.33081192325983 L172.11269004260143,426.45424491086635 L179.63082917514905,416.64848867523835 L183.1653385405611,411.3802217943231 L185.63891055786533,406.84412175049727 L188.14463219177918,400.7506042031091 L188.99513568571606,396.0922448012873 L189.87291764223107,396.2631300403041 L193.66072701729203,395.5156807834654 L198.7296499026941,394.30975893414177 L203.3621173868544,393.85267565254355 L208.22742603373044,394.30975893414177 L212.33575734407773,395.1822461707493 L217.08513252499955,395.05859750186676 L226.81574981875156,394.1861102652598 L227.83576947299218,393.4372716975349 L230.34051687609934,390.1140400574635 L233.3128950662518,385.25284126623933 L239.60545184442003,379.8512005402374 L241.9075592398077,379.8095212136478 L244.20869240439015,380.9320844097923 L246.9190025076361,380.7653671034342 L250.793518424461,379.8512005402374 L252.74587696037224,379.6025138915868 L254.98855627657355,379.97623852000595 L257.7855729215841,380.8070464300241 L262.4472673299346,382.8437761893649 L264.22426432070336,384.00662940121276 L267.95361984738395,385.2945205928288 L270.5762491780587,386.5407324578557 L272.12040500611226,388.36906558424914 L279.141686427425,392.02573183703623 L283.686473139014,393.85267565254355 L286.1337409245474,394.3514382607317 L290.32975300746597,394.643193546858 L291.9031357597098,394.10275161208074 L295.34022204448706,392.2327391590976 L297.3218075045892,392.2744184856871 L301.28400419398537,393.77070631025106 L306.9657182565765,397.7997078805713 L308.5965806263942,398.4651877951171 L311.5981857407368,399.047309056484 L316.5794278535676,398.8389124235367 L318.823081400575,397.5927005585098 L320.97905417501164,396.88693062826087 L324.15504660368964,396.179771387125 L331.05942032824083,395.6810087789371 L335.60518127063665,394.5181555670898 L338.28529021888556,393.271943702063 L340.0915141338452,392.77318109387534 L345.01527662910155,392.6898224406963 L350.52162914655145,392.2327391590976 L355.27100432747324,390.1140400574635 L357.45620402609956,389.90564342451614 L359.7865641148721,390.1140400574635 L366.89552630875545,390.32243669041145 L367.82786519042605,390.6961613188306 L370.71256260800664,391.0698859472502 L373.53783194640147,391.9006938572679 L376.6845974508885,393.77070631025106 L378.8697971495154,395.3489634771073 L383.356130012724,397.4259832521517 L385.7166912564928,399.0889883830739 L387.58136901983346,401.0826495049391 L388.877095992269,403.0082343933749 L387.56091017289947,404.4878504873029 L383.5636411744749,412.9237461890216 L378.8736940727409,426.14859651587653 L377.2213986251833,432.45745725064353 L376.2081985865869,440.2862240950417 L373.8106165721776,444.6180954385792 L372.6912253756894,447.5828848699806 L374.02299888795994,456.8551457252622 L374.60948583337813,463.0875943612816 L375.5691031776263,468.10300666088744 L375.8886508821066,475.4760795345735 L374.23635543454907,477.3766568270556 L372.31809497686015,480.263644848823 L370.8255733815427,483.0769993936158 L369.44021717492313,486.95317676644106 L368.1074694318458,497.364672548503 L367.7879217273662,505.4212863782574 L367.2014347819473,509.9823940180373 L365.4429481764985,514.7699593322867 L363.25774847787164,516.9747957088724 L359.3666706373382,518.6461367051119 L357.0216970864712,520.8509730816977 L349.87961104517154,524.3464792716721 L347.48202903076157,526.8541854214748 L346.73576823310316,529.3632808821638 L346.84195939099436,533.84658711231 L347.3212809477154,542.5881312090188 L346.9851713195273,549.1984724061166 z"/>
	
</g></g></svg>