<svg xmlns="http://www.w3.org/2000/svg" version="1.2" baseProfile="tiny" width="600" height="600" stroke-linecap="round" stroke-linejoin="round"><rect id="backgroundrect" width="100%" height="100%" x="0" y="0" fill="none" stroke="none" class="" style=""/>































































































































































































































































































































































































































































































































































































































<g class="currentLayer" style=""><title>Layer 1</title><g class="city city-59" id="tekirdag" title="Tekirdağ">
	<path id="tekirdag-sarkoy" title="Şarköy" class="district" d="M295.53455143650706,416.3387798605488 L290.3337541847753,419.13148649068194 L286.51507029203776,423.37365159551507 L285.7902550965882,425.63114151875465 L275.7063878020895,434.1435862246972 L273.0325147591508,437.0289665647789 L272.34840836234946,439.9872363396513 L270.9494157453797,443.13501864498045 L270.7706941903377,445.64658031234836 L269.9833264506231,446.93568203050836 L268.14845181885494,448.8974491040246 L266.4357035830331,453.5071852157319 L264.44692983442286,456.0406137135373 L262.1026987707845,457.4234304192856 L261.49901707375295,459.6892505636442 L252.357409533338,466.9875655414976 L248.4563151457753,469.01180927340613 L241.79794432292147,471.45568789418263 L237.8839422674943,473.2279424372423 L236.06396109864662,475.38130459649506 L235.0621274928816,476.089373391607 L234.3829855837211,477.61692768929726 L233.1766150871851,478.5082613490267 L231.962301410425,480.14514979890316 L230.02912992338457,480.19825495853655 L228.01950532668644,479.72863874295507 L225.4518723192452,480.2201217889739 L224.11642514406768,480.7959483238223 L222.80182881697817,481.8413910742525 L220.44766877805966,482.30684217927484 L219.02286082536116,483.22004266944134 L217.35876456841154,485.07559942369085 L212.76264191124022,487.00196305745146 L211.5463424394241,487.1862691997086 L210.66961392218855,487.9068333264993 L209.07502049220028,490.22784118577084 L208.79998787694083,491.12229867841984 L207.33844271570555,492.80812717737047 L204.3954944426754,493.061157643859 L202.5904067367482,493.6380254563473 L200.9997848968709,494.9167143981084 L195.98068789276607,496.8680686952261 L194.38907315536105,497.89893355869816 L192.02498414116303,498.4133247127941 L188.60941664479878,498.8860647612954 L186.3188020476725,499.8294623030181 L184.01825847526666,499.79197630798296 L181.56480868354646,500.21265247449054 L178.0549159220209,500.4240318353844 L176.0204688871233,501.28100333299784 L173.56205460776275,501.51633207960856 L167.27006297274545,502.40350062877854 L163.3133663236141,502.34727163622546 L159.75382868568798,503.1167758120898 L152.2346157060461,505.52525099311083 L146.85608979680057,506.96013158085253 L145.4888699007261,507.56719644489715 L142.87059911935663,509.2155389488124 L137.64696522448085,513.2890170759863 L136.21123539897388,515.151862773715 L133.22658542976723,517.1948495031412 L134.1549446184589,519.1337084685804 L131.679651081123,523.7007521970531 L115.61357618034656,526.2175202526206 L116.86561996317054,523.9298332778246 L117.47228035278644,521.87330993908 L118.75510395897902,519.8178278779753 L119.04006554951862,517.9862205094429 L117.57852038828393,515.8557664582677 L117.54277607727552,514.8842544202682 L115.69002929000318,512.7912863641283 L115.58279635697792,511.85621904352433 L116.33144109309976,508.3429482866008 L116.61640268363935,503.10948686861076 L117.29355879774432,499.8575767992947 L118.96857692750181,493.76506132841143 L123.49519675771288,488.53159991042156 L124.60029170639118,486.92490851210107 L127.55813344234119,484.1582338229647 L130.33824652077743,481.80390507921715 L133.5105541227791,478.47702301983037 L136.18343426818956,474.66490558026396 L139.31999755918227,469.76777683995215 L140.10438660631252,468.3474741391687 L141.10224862196492,464.8716893772805 L141.0665043109565,462.9276240236419 L139.49871911422434,458.8156186237926 L136.0414499216842,455.189889881763 L133.68927567782123,453.7321011859441 L129.01967860357644,451.5266751446981 L126.48977570219964,450.85400978934155 L130.3531399836979,448.91723337918216 L133.76473588995006,448.05922060392874 L142.6680480236417,444.5532387904843 L144.47611442215322,443.6941847375909 L146.96630142240957,441.86986631253757 L149.8318036882548,440.47455427511085 L152.08270238426007,439.75919653651977 L154.4368624231785,439.2937454314975 L160.71296769774764,438.685639289813 L170.50393022148327,438.61483241030186 L174.97196909754084,438.1139778655241 L178.79263878533487,437.3621754095375 L181.59062401927534,437.0404206188174 L186.33170971553693,436.1813665659242 L189.98160102851244,434.9297508427996 L194.41687428614537,433.10543241774616 L198.4758393806627,431.0655695212396 L204.71818613927942,428.70499311165275 L206.18568868568275,427.45233611088827 L207.20837313953578,425.5207660889283 L207.1061046941503,423.8036992607816 L205.57108511584278,420.83397543187044 L205.29903119316708,418.43799558252806 L205.8441319360462,416.7198874767415 L207.89148663880883,412.8567474328213 L211.33684106101342,408.2418049329146 L213.67710053454027,406.4122801196619 L214.40390152504528,411.81026340475137 L216.29835000849357,417.5060520948439 L217.1820288084255,419.26060491802593 L219.834058105748,421.21404177042325 L221.9499227379431,421.6118098288539 L224.60195203526618,421.28068353937493 L229.1494227135647,419.9561783814595 L231.89577727604853,418.66499410801987 L242.53666008376263,415.18816806849173 L244.0835944324068,414.7570791255854 L255.1980893609832,412.4725159837092 L259.5876893323282,412.2403110700179 L264.5760065130643,412.1080688097544 L269.50177114953664,411.81026340475137 L273.82782567908885,411.81026340475137 L278.026789325055,410.5190791313116 L281.9427771755382,409.9224270436659 L284.5630337519643,410.2535533331446 L289.89985796503396,412.2403110700179 L292.0147296997014,413.4992157366215 L295.53455143650706,416.3387798605488 z"/>
	<path id="tekirdag-ergene" title="Ergene" class="district" d="M503.4899883961119,213.9352322224899 L507.389096988618,217.56408479743916 L505.0875605186844,217.77858799125258 L504.5712538041174,218.11387939129085 L498.20280905944287,225.07273785854653 L496.83558916336904,226.12442827481584 L490.94671392472446,230.07087052992568 L487.4884518346554,232.7646557842711 L486.394278758785,233.3196567663221 L484.91883303215826,233.3050788793639 L482.7642453963703,234.46610344781973 L481.2500766661508,237.67427985626122 L479.33279153955795,238.99461990361726 L474.7475907551944,241.765459703313 L467.8469529355035,247.71115502697455 L465.8889590102625,248.72431817056867 L456.0473587125985,251.65343217152486 L453.80936768445895,252.61661398840525 L450.96173757411725,254.41802430538144 L448.1935392660177,255.40932061853837 L441.413042047217,257.3846243013729 L438.6984602056295,257.6522326548197 L435.19651062432916,256.3839564894572 L430.1376977191033,256.2267235658368 L424.3451335406756,255.93620710431287 L420.05978780977216,255.10318499241637 L414.4260872358273,253.73078106306687 L410.0215938015614,252.98106116235988 L407.83920503498916,252.31568475048263 L402.16578855992276,249.19497566379027 L398.9120633606259,247.90483266799052 L395.64741628851937,247.74239335617062 L393.3617661790329,241.5415850107409 L390.2083236300637,231.7452449748377 L389.22336928227514,228.02475996757985 L387.68636390891095,224.92487643368486 L385.47915270413887,222.4445530955129 L382.32571015516965,220.5431801251091 L379.9606282434422,219.46858160076266 L377.4773915258822,218.6418071547053 L375.4280510280642,218.1878101037217 L373.1811239221715,218.02224695898218 L369.2393207359595,218.06285678693715 L365.771129670611,217.93894474779268 L361.908758286641,217.44329659121416 L358.88538531384165,216.04069561030846 L361.18394309119145,213.3083830832878 L363.4964014339328,210.0012852990586 L365.82176744453983,205.4269526271068 L368.1481263526746,201.74811872544373 L370.19746685049256,199.01997130898255 L372.9954520844331,194.88609907869605 L374.57217335891653,191.7029133336114 L375.32081809503893,189.51310645696344 L375.95130802532765,186.70165682931264 L376.54307495202255,181.24536199639044 L377.17356488231127,176.90531679340953 L377.6859000067652,171.82075807792108 L379.22290538012936,166.73724064007249 L379.8146723068254,163.96744211801655 L380.83934255573445,161.61103081898926 L386.27843521418896,154.9145743169811 L388.7219560306296,152.02086375578048 L390.42874688128285,150.27568243135727 L392.0858928555372,152.01565736758113 L396.90442455898256,156.07768144071662 L400.48084145488633,160.26257627535676 L402.16578855992276,162.68042295513638 L403.6144260532941,165.16074629330834 L404.88434199162344,168.50324751729312 L407.31991962783763,173.90123080238263 L409.8011705503422,178.48076986253386 L412.83447249842226,182.23978214246688 L417.22407246976655,187.20459392937025 L420.42914569019354,190.52939343347725 L423.014650853139,192.44534429083922 L426.5642595157839,193.42102143939812 L434.7338203762741,192.66193003993232 L442.4545915541031,190.0597772178956 L444.69456837729945,188.83106960284823 L451.93279135651426,184.24007648865845 L465.27236964536763,176.79390008594336 L471.37372495500614,174.22715070366212 L470.90805601436784,177.63525241895883 L471.29627894782186,181.91073840826778 L472.1888938255045,185.4125551111528 L473.82022446402993,187.36703324119006 L478.1681227391984,190.90945977203 L485.27329744965914,195.5504342129335 L487.87468897305274,197.13838261373633 L494.31958682738497,204.02018653564153 L503.4899883961119,213.9352322224899 z"/>
	<path id="tekirdag-cerkezkoy" title="Çerkezköy" class="district" d="M579.8795526113105,190.3044774632652 L578.7625428922967,194.06244846555836 L577.1262477661313,200.9463349427433 L576.5017152210112,203.8514995579825 L574.8544982220387,209.74513099965037 L574.7899598827171,212.45453541859393 L574.0790452526597,214.48710937162144 L571.1718412906386,216.04486072086792 L566.1984175728222,217.1621516284491 L562.6130645991667,217.77234032541338 L560.2559258676645,218.88963123299453 L554.9588175557146,221.02425039472942 L553.1179855387796,222.00617520912738 L549.4293712222119,224.77180862062391 L542.6190870775715,224.3375958447978 L533.9610206332997,224.62290591812243 L530.4272983311006,224.58229609016746 L522.234900827467,224.90821599144692 L515.7125569659504,223.1567870011845 L510.5097739191632,220.4702906903182 L507.389096988618,217.56408479743916 L503.4899883961119,213.9352322224899 L507.0108030304448,212.2327432813014 L512.0735875257828,210.55941011402922 L514.1080345606814,210.17205483199734 L517.505729901542,209.9783771909814 L526.6830817529643,208.6684499200241 L528.1158328858875,208.37793345850022 L529.9685796731587,207.1461020105332 L532.7963518329401,204.1139015232299 L535.6181666075516,199.74886565689206 L536.8533311324003,198.28691185051366 L538.8987000401075,196.7333256118266 L538.9513236090918,195.29115608060573 L540.1477651303476,192.14649760819628 L537.9683550563586,190.45546272104644 L539.2760011007518,189.87651235327834 L540.0931557663067,189.06327451653937 L540.8149922691714,189.6338946631885 L543.629856761089,189.97959883962557 L546.9223049639785,190.0129197241014 L551.6336037344009,189.235085327118 L555.828595790255,188.72694183886114 L560.9271245966013,188.72694183886114 L565.2839589495217,189.40377230477702 L571.2224790645663,190.68975019001732 L579.8795526113105,190.3044774632652 z"/>
	<path id="tekirdag-hayrabolu" title="Hayrabolu" class="district" d="M70.17064211825237,281.19239625937564 L73.56833745911237,278.78392107835487 L80.00827082580366,275.37269553013857 L84.788079525658,273.10895794105977 L89.00491532712894,271.5074729309387 L95.11322091946381,269.9413913605732 L99.26253968902998,268.2003751467096 L101.28705774864804,266.7040591782154 L107.1302597010041,261.65594518012244 L109.45363991655395,259.28807982705655 L111.37886822337146,256.1548754086857 L112.74013073427724,253.12579875430194 L113.07175850863364,251.94186607776896 L114.26720713236068,245.3620326714263 L116.02662155199997,237.28588329658947 L116.42477346073282,234.0829132763473 L116.49129759510934,231.68068576116573 L116.09314568637643,229.5918828155852 L114.63259342267003,225.83182925801216 L113.00622727178431,220.4702906903182 L111.047240449015,216.60610936875818 L108.72386023346522,213.71552264047727 L105.8355213244754,208.14572854480906 L105.10474874385775,205.74350102962748 L108.57691139931889,198.0338813840251 L113.25643744884381,187.85122734372993 L117.07710713663727,181.96280229026132 L120.86004671836687,179.75425241609565 L122.0604598297337,178.60155806875883 L122.32655636724192,177.82580622705518 L121.38131792057322,176.24514676973155 L122.26797541308895,176.24514676973155 L122.65222675643025,174.53953399562334 L123.65703905477906,173.64091139241503 L125.46014096565025,173.85749714150808 L125.6080826973243,174.63324898321176 L127.50054538571709,175.06746175903783 L129.62832478824836,173.30041360417727 L132.31808419163585,174.04388583904486 L134.15097302834738,174.19903620738566 L135.21535917837687,175.6245452963686 L137.28455762675577,180.39880327517557 L139.67942646432297,180.3061295652271 L140.32977434517142,180.8330160510017 L141.7784118385422,180.70910401185705 L144.35001643609547,181.29846715602383 L145.5911383461116,181.88783030019056 L147.30587237699004,182.13565437847984 L148.5767812128465,183.15818902083282 L149.49322563120202,183.2519040084212 L153.07063542463237,182.66254086425442 L162.6779119056856,182.38347845676907 L165.07278074325282,182.4761521667175 L173.64545800011572,185.9800514248823 L181.36027179277667,187.18897476477218 L185.55824254121512,188.39789810466195 L194.8408415306071,190.81574478444162 L198.12137496316177,190.87822144283388 L200.4278759207357,190.56792070615245 L207.4039739525543,188.30418311707362 L211.8680412385004,187.52947255300987 L217.01125043360753,187.06506272562754 L221.75730061750832,187.59403176668184 L225.9284631326913,188.9351973668352 L232.43194194117535,191.24995756026777 L234.95489455985634,192.32455608461424 L239.52718767635594,194.72157721159647 L252.06053317246227,204.72513149783396 L255.52971713533913,208.15614132120774 L256.71225809120284,210.13977522516134 L257.85508314594546,214.10808431070848 L258.95819229956777,217.001794871909 L261.4027060135355,219.81220322191993 L263.0181502916128,221.25957914134017 L267.0781082836574,224.02833638575623 L273.22712267464107,226.550310829523 L281.7005101787028,230.72479288776444 L285.8398999729888,232.46164399106868 L283.54729958080713,234.24535258816726 L278.8508942733063,236.388301971021 L273.2221581870013,238.68223661165604 L268.5972415015173,239.5090110577133 L262.5375878880547,239.43403906764257 L255.582340704324,238.6437093389808 L249.66665723242278,238.11786413084616 L247.48029687573913,238.60622334394552 L246.76342486051365,239.95988427577728 L246.69094334096854,241.6519604405671 L247.26483811215974,243.00562137239908 L248.23291320197296,243.71993783335023 L256.0132582314816,247.29152013810668 L261.1038438576038,250.26228524465762 L265.22635439391337,253.0070931033567 L267.95185810830867,255.71441496702042 L271.60869970398,259.1350120139955 L274.6201579064432,261.42894665463064 L269.77978245738046,262.4441923535045 L256.8373631797323,267.67036482801535 L253.68292773323537,269.66337023072776 L252.2839351162657,270.90353189981374 L250.634732322236,276.69407685513454 L249.5236799883897,278.6870822578469 L248.12568026894718,279.8147859418268 L241.63610202585528,282.1087205824619 L232.20754709984416,286.5070773332756 L228.6579384371987,289.89122966285527 L226.43484087197777,292.5235795364482 L225.25229991611403,294.44057167145013 L224.104510373731,297.37385078296575 L223.0292023508931,301.6222635536381 L220.16072139246407,306.510020795191 L217.36472195357965,310.00663110987665 L215.53580470698012,311.8486512548078 L209.5128883020542,314.81941636135883 L207.03958055977384,315.90963405030334 L204.38655836492362,317.9026394530158 L203.70543066070653,318.8043858891439 L201.01666415484735,324.29400160654194 L198.04095026339252,327.9415971790089 L194.83786283802337,330.20949987864714 L184.69144299925964,335.25136621090087 L182.82876723670773,334.68907628537073 L181.21828744627015,334.9535608058979 L176.5387613967453,336.44467038619274 L174.050560191545,336.90699765829527 L170.73527534551025,336.77475539803174 L167.70395919248676,335.74805564511917 L163.157481411716,332.5367554037581 L160.6941026447157,328.89332494185066 L156.39982083605986,320.64848858935477 L154.60069051530073,318.95953625748456 L152.61092386916278,318.231683187215 L148.06444608839203,317.60171021509325 L145.00135721447157,317.93283650457215 L142.63329661016095,318.46284682326626 L140.92849155456318,318.29728367852687 L132.68744207205614,309.7869215278639 L127.63557944952666,305.97896919885693 L123.24597947818174,305.15115347515984 L116.7832094683453,303.80165765388745 L113.89983504699642,302.8999112177594 L107.17494008976495,298.8930748595371 L104.96475019240845,297.7674537308369 L95.04967547767109,294.22398592235703 L90.12391084119933,292.7339176197022 L82.3247007586577,289.81938150570414 L77.39893612218653,286.87256578487023 L74.1789694388403,284.1569137000875 L70.17064211825237,281.19239625937564 z"/>
	<path id="tekirdag-kapakli" title="Kapaklı" class="district" d="M593.9101875796609,156.36403279168098 L588.3549259104293,162.4940342575996 L587.0621733289566,164.6286534193344 L584.5114195794907,169.84441311744663 L584.02688558582,172.14771925684053 L584.123196646038,176.75433153562827 L584.7368073183497,180.1749285826034 L583.1868942771227,183.5622047451027 L581.3132966417613,186.5433826280523 L579.8795526113105,190.3044774632652 L571.2224790645663,190.68975019001732 L565.2839589495217,189.40377230477702 L560.9271245966013,188.72694183886114 L555.828595790255,188.72694183886114 L551.6336037344009,189.235085327118 L546.9223049639785,190.0129197241014 L543.629856761089,189.97959883962557 L540.8149922691714,189.6338946631885 L540.0931557663067,189.06327451653937 L539.2760011007518,189.87651235327834 L537.9683550563586,190.45546272104644 L540.1477651303476,192.14649760819628 L538.9513236090918,195.29115608060573 L538.8987000401075,196.7333256118266 L536.8533311324003,198.28691185051366 L535.6181666075516,199.74886565689206 L532.7963518329401,204.1139015232299 L529.9685796731587,207.1461020105332 L528.1158328858875,208.37793345850022 L526.6830817529643,208.6684499200241 L517.505729901542,209.9783771909814 L514.1080345606814,210.17205483199734 L512.0735875257828,210.55941011402922 L507.0108030304448,212.2327432813014 L503.4899883961119,213.9352322224899 L494.31958682738497,204.02018653564153 L487.87468897305274,197.13838261373633 L485.27329744965914,195.5504342129335 L478.1681227391984,190.90945977203 L473.82022446402993,187.36703324119006 L472.1888938255045,185.4125551111528 L471.29627894782186,181.91073840826778 L470.90805601436784,177.63525241895883 L471.37372495500614,174.22715070366212 L473.786465948077,170.8648652045198 L475.54389457266024,167.2505905165287 L478.6804578636535,163.4915782365957 L481.3692243695122,161.53918266183823 L482.8853788947883,161.24970747795413 L486.3674705255284,161.21430403819852 L489.2280083037339,161.72036497117568 L493.777464777089,163.45513351920022 L497.4998376096096,166.13017577602798 L503.9109769479889,171.6239566039855 L511.7012509527782,175.058090260279 L517.9396261212828,177.91431482644415 L521.1109408257556,179.46894234277116 L523.9377200880093,179.54079049992214 L528.901214830546,178.09445585814177 L532.5888362495859,176.54086961945478 L534.3125063582152,174.2989988608133 L535.3808640983577,171.66040132138102 L536.5872345948933,170.2151079572405 L539.8618106422791,167.57546914016842 L546.8240081087051,164.64739641685205 L549.6507873709587,163.74460870308422 L556.1304366387706,162.1170917519664 L561.1634342082675,161.39444506989616 L565.8856548514972,160.3823232039419 L570.7796467670737,159.9845551455113 L577.1222761760192,159.58678708708072 L582.5683191171702,158.39452418942875 L585.8428951645562,157.23766473153256 L588.4274074299739,156.5504214892179 L593.9101875796609,156.36403279168098 z"/>
	<path id="tekirdag-malkara" title="Malkara" class="district" d="M70.17064211825237,281.19239625937564 L74.1789694388403,284.1569137000875 L77.39893612218653,286.87256578487023 L82.3247007586577,289.81938150570414 L90.12391084119933,292.7339176197022 L95.04967547767109,294.22398592235703 L104.96475019240845,297.7674537308369 L107.17494008976495,298.8930748595371 L113.89983504699642,302.8999112177594 L116.7832094683453,303.80165765388745 L123.24597947818174,305.15115347515984 L127.63557944952666,305.97896919885693 L132.68744207205614,309.7869215278639 L140.92849155456318,318.29728367852687 L142.63329661016095,318.46284682326626 L145.00135721447157,317.93283650457215 L148.06444608839203,317.60171021509325 L152.61092386916278,318.231683187215 L154.60069051530073,318.95953625748456 L156.39982083605986,320.64848858935477 L160.6941026447157,328.89332494185066 L163.157481411716,332.5367554037581 L167.70395919248676,335.74805564511917 L170.73527534551025,336.77475539803174 L174.050560191545,336.90699765829527 L176.5387613967453,336.44467038619274 L181.21828744627015,334.9535608058979 L182.82876723670773,334.68907628537073 L184.69144299925964,335.25136621090087 L185.60689452008737,336.5102708775045 L188.35424198009895,341.1127180457328 L193.05859046782382,349.4575170516563 L195.9955813556865,353.8944010751452 L196.68961672776683,355.7489165517548 L197.32109955558332,358.96125807075583 L197.5107429834344,364.88821039689964 L198.42619450426213,369.0272890153856 L199.31086620172127,373.99418335756855 L200.0684470155949,375.7164565739146 L201.77325207119324,378.59767180343675 L206.44682073555006,382.93563445113796 L207.42581769817056,385.285798084326 L208.08808034935512,388.63038186359057 L209.13062275376834,391.2471125725856 L212.41413487890733,398.13412288269006 L213.23526113457424,400.98201722773626 L213.67710053454027,406.4122801196619 L211.33684106101342,408.2418049329146 L207.89148663880883,412.8567474328213 L205.8441319360462,416.7198874767415 L205.29903119316708,418.43799558252806 L205.57108511584278,420.83397543187044 L207.1061046941503,423.8036992607816 L207.20837313953578,425.5207660889283 L206.18568868568275,427.45233611088827 L204.71818613927942,428.70499311165275 L198.4758393806627,431.0655695212396 L194.41687428614537,433.10543241774616 L189.98160102851244,434.9297508427996 L186.33170971553693,436.1813665659242 L181.59062401927534,437.0404206188174 L178.79263878533487,437.3621754095375 L174.97196909754084,438.1139778655241 L170.50393022148327,438.61483241030186 L160.71296769774764,438.685639289813 L154.4368624231785,439.2937454314975 L152.08270238426007,439.75919653651977 L149.8318036882548,440.47455427511085 L146.96630142240957,441.86986631253757 L144.47611442215322,443.6941847375909 L142.6680480236417,444.5532387904843 L133.76473588995006,448.05922060392874 L130.3531399836979,448.91723337918216 L126.48977570219964,450.85400978934155 L121.78443431694703,449.0598884158444 L118.25567650238838,448.2008343629512 L113.44409508163825,447.2657670423473 L105.81665627144346,446.66807367706156 L95.87278752839407,445.77049235149303 L88.53031030873828,444.8489616402075 L83.57674454148224,444.62404566999544 L79.86926517188206,444.997864342709 L77.23212933748003,445.85795967324214 L74.9861951291151,448.28726040706044 L70.56680823192924,450.1563537706283 L66.86032175985737,450.08138178055754 L59.98152768578386,449.5961464003778 L56.84496439479115,449.8949930830208 L54.777751741468315,450.34378374580496 L51.99763866303204,452.2868078218036 L49.404190319862536,452.97717489703797 L50.71481505684001,451.39026777387505 L52.452385730862474,448.3622323971312 L52.79890696813878,446.25989284223215 L52.71947516589727,436.92483880079175 L51.924164245959766,433.4094854885885 L51.19835615298192,431.6507675548469 L49.002066821017586,427.9521493780263 L47.76293070605748,426.37357247598237 L44.00084197241639,422.79990761594627 L41.256473204988545,420.4320422628804 L38.821888466300855,418.575444230991 L36.343616236381266,416.11490516797664 L28.730077991578035,410.1275587387203 L26.118757492903732,407.66701967570606 L23.152972576729617,405.2064806126917 L19.169467694342252,400.79666980783935 L17.88565119062135,397.13033123785476 L17.222395641909085,396.01616416319314 L17.310763521901816,391.65216957449525 L17.930331579382152,388.17117842440763 L19.655987483068447,383.1574265884303 L21.38263628428249,380.46572388936477 L23.950269291724293,371.78459220576303 L24.52515696044383,367.9318649382416 L24.61352484043656,364.91528361553634 L23.37438872547646,358.1844649514124 L21.072852255542337,351.0360939537003 L20.05513228932966,346.81163056874493 L20.010451900568857,344.67597012937034 L20.45328419806315,342.7725146036868 L21.647739924262417,340.63789544195185 L22.798508159229208,338.084682668989 L26.649957670391338,327.54799423113786 L26.78300593914487,324.9479239643807 L25.942021732918263,321.4669328142931 L25.01167674917002,320.0278871159919 L22.002204341762827,317.660021762926 L19.745348260589505,317.1497957193893 L17.53217967064924,317.7068792567202 L14.211930336973563,318.9137200413303 L12.087129627026055,319.0063937512788 L4.917416577244847,318.12443159030835 L2.8363033585298467,317.42781684923483 L2.482831838557157,316.17515984847046 L2.614887209783001,314.503909236478 L3.943384102264705,312.18290137720635 L6.7761207496852816,307.6804168624056 L9.896797680229774,303.3976419296176 L10.494521992093873,302.7707927904155 L13.11676436357542,301.1693077802944 L15.207806557570546,299.3939294043149 L17.63146942345039,297.7580822320781 L22.21269861770128,297.653954468091 L27.291369473487336,297.9319755979365 L33.864351108932766,299.22003603845644 L39.40869090535653,300.1249063075041 L42.89376122868213,300.1603097472597 L48.769728799462314,299.2554394782121 L51.326439934095696,298.5588247371386 L53.84939255277669,296.57414955554515 L61.88292645192847,287.8013854396348 L64.57169295778769,284.42452205353425 L70.17064211825237,281.19239625937564 z"/>
	<path id="tekirdag-marmaraereglisi" title="Marmaraereğlisi" class="district" d="M551.0031138041122,317.49654117346626 L549.2089479709928,318.6304925232854 L547.2638617136157,320.17366598557373 L545.6484174355384,321.86365959508385 L543.6487218141203,322.95908367222773 L542.1484536492935,325.07287728116523 L540.4257764381908,328.50492838217895 L540.3572665087573,330.75929447249894 L539.9601074975527,334.26944139650294 L539.4100422670336,336.3655332855625 L538.5640935731667,337.8077028167833 L537.3517656914627,338.76984335602384 L535.3550487626289,338.9395716113228 L533.8140717991528,338.2419155926094 L531.7577810186383,339.57162713872424 L530.7122599216401,339.65076423935443 L529.3361039478145,341.55734359795764 L529.209013064229,343.0859391732878 L529.5465982237529,343.7981730789593 L531.4638833503469,344.5614295889844 L533.4784724346854,343.88668167834834 L533.6810235303998,344.8540286057882 L532.2780593233175,345.8984300785785 L529.3370968453434,346.63981975816625 L526.3494681835524,346.2347627562566 L521.8665358445733,346.3586747954013 L519.5252834735203,346.72103941407624 L518.5869953095474,345.3580069834855 L517.2823279577386,344.37399961380777 L515.6351109587649,344.0918133734029 L512.2880533918332,344.17928069515193 L510.2545992544633,344.63223646849565 L508.88737935838947,344.46459076847646 L506.69903320664866,344.83424433063067 L501.794119418266,346.1785337637036 L497.5812552069071,345.72766054563965 L496.5694926258619,345.3423878188875 L491.3438729359301,344.0991023168819 L490.48203788161396,342.4518010906065 L488.6213479141174,341.09605760349496 L487.99780826652614,339.0770202597857 L486.6454818333728,337.66088266956166 L484.8969892865413,336.29576768369117 L482.1347483636104,334.87546498290766 L476.18729217081284,332.74605220937207 L471.807621174748,331.54650036824114 L464.69946777170406,330.0866291171425 L456.00367122136726,327.0190251900834 L449.03452347224385,325.8642482874669 L445.0113026887354,325.99440799245076 L445.09470608108944,324.9874925146958 L448.17070262287325,320.0549603346285 L450.8326608954752,316.8592792578654 L452.30314213446223,315.6836768024515 L455.0355961315545,314.1779893351985 L462.18048674313457,311.9007151368014 L466.48866911718255,309.69633037319517 L472.33782845470677,307.08897116295907 L476.0502723119467,306.5370940138276 L479.37747192831813,306.75784487348017 L488.13383522786347,306.574580008863 L491.4610348442349,306.17056428459307 L494.4734859442271,304.81169696456186 L497.8006855605974,303.70898394393885 L499.7616581784227,302.5333814885249 L500.70788952261853,301.5056404579725 L501.75837510725756,298.6400443930486 L503.2646006572531,293.46072941233183 L504.70033048275945,291.18345521393474 L507.22229020391205,290.59617462504764 L509.4632599246373,290.7429947722694 L512.8957066789775,291.36776135619186 L516.9586433636063,292.3955023867442 L520.9520772212737,294.23231614347606 L524.5940253540257,294.92997216218936 L530.1979390021297,294.74670729757213 L535.7671012367539,293.902231131637 L537.0985768218205,293.3388999284669 L538.325798166444,294.2198208117976 L538.325798166444,295.472477812562 L536.7431195067919,296.6918139288505 L537.2276535004614,298.38597264892013 L539.7148618081335,298.38597264892013 L540.3930108197668,300.2821392311246 L537.2921918397831,302.7208114637017 L538.0031064698393,303.8391436489227 L538.583951523727,306.1080876262009 L539.8439384867755,307.2941028580136 L541.2330021284652,309.56304683529174 L543.0410685269771,311.3582094864288 L548.0472578632176,314.57575739362903 L551.0031138041122,317.49654117346626 z"/>
	<path id="tekirdag-muratli" title="Muratlı" class="district" d="M358.88538531384165,216.04069561030846 L361.908758286641,217.44329659121416 L365.771129670611,217.93894474779268 L369.2393207359595,218.06285678693715 L373.1811239221715,218.02224695898218 L375.4280510280642,218.1878101037217 L377.4773915258822,218.6418071547053 L379.9606282434422,219.46858160076266 L382.32571015516965,220.5431801251091 L385.47915270413887,222.4445530955129 L387.68636390891095,224.92487643368486 L389.22336928227514,228.02475996757985 L390.2083236300637,231.7452449748377 L393.3617661790329,241.5415850107409 L395.64741628851937,247.74239335617062 L396.00287360354804,249.89159040486368 L394.9772104571102,252.28861153184596 L392.88914695569815,258.15829358779683 L392.21894112429015,261.05200414899736 L392.3758189337166,263.20120119769047 L393.20389547207867,266.21882379803566 L394.5045912337767,269.64983362140947 L395.41110667685206,272.9569314056386 L395.7804645572723,275.04989946177864 L396.13393607724566,280.28023704684904 L395.6394731082953,284.2860321274315 L395.60372879728567,286.3633810189734 L396.0286889392758,288.9603274528109 L396.7713762902296,291.4094124617866 L397.76129512565785,293.5232060707241 L399.8126214185326,296.2680139294232 L403.06733951535944,301.0172812448732 L396.02173865657943,302.9394797680745 L390.9708689315788,304.0567706756558 L383.88058768403744,303.89745519675546 L376.94321265581146,302.2699382456376 L374.0528879517674,300.8662959870919 L371.162563247721,298.72751171479763 L366.45622896493944,294.3989205658553 L364.9142591039356,293.46281196761163 L362.68321835849054,293.03692941290444 L357.85575057729227,292.39862621966375 L346.82068745095734,290.61179378964573 L341.5871245808009,289.5486493193378 L332.5398423055473,287.5483549731463 L319.59841592542745,284.61299330635086 L311.6472925211003,280.4864100195434 L304.2631136052686,276.57224737126955 L295.0539890329489,272.10412501858457 L288.31916510043675,268.9563427132556 L276.4321958950668,262.48896729201897 L274.6201579064432,261.42894665463064 L271.60869970398,259.1350120139955 L267.95185810830867,255.71441496702042 L265.22635439391337,253.0070931033567 L261.1038438576038,250.26228524465762 L256.0132582314816,247.29152013810668 L248.23291320197296,243.71993783335023 L247.26483811215974,243.00562137239908 L246.69094334096854,241.6519604405671 L246.76342486051365,239.95988427577728 L247.48029687573913,238.60622334394552 L249.66665723242278,238.11786413084616 L255.582340704324,238.6437093389808 L262.5375878880547,239.43403906764257 L268.5972415015173,239.5090110577133 L273.2221581870013,238.68223661165604 L278.8508942733063,236.388301971021 L283.54729958080713,234.24535258816726 L285.8398999729888,232.46164399106868 L288.67760110804977,233.2467673315312 L292.65812729785335,233.8663275272543 L298.2153747621416,234.3630169614726 L303.73389922283707,234.15580271113836 L308.03016682654834,233.49459140982037 L311.1836093755181,232.66781696376313 L320.2884797073957,229.69184546901283 L328.2108090834108,227.7488213930141 L331.7574390534731,227.3354341699855 L336.9602221002609,227.16987102524595 L343.2671071981981,225.76518748906042 L346.8931689705019,224.27720174168527 L354.3816021267751,218.94481894790766 L358.88538531384165,216.04069561030846 z"/>
	<path id="tekirdag-corlu" title="Çorlu" class="district" d="M445.0113026887354,325.99440799245076 L440.50156211650193,325.23427531534514 L432.3061859202828,326.40675393783954 L426.54539446275254,328.36747973371604 L426.51759333196816,328.98183354123967 L422.5469961174441,329.9335613040814 L418.9874584795174,329.5128851375737 L417.6381107389483,329.61701290156077 L417.3402414805448,323.86811905183487 L416.968897805068,321.58667974287823 L418.80774402694755,319.67593527371565 L419.16220844444854,317.1164748349135 L419.939647208883,316.4115298727211 L419.7629114488964,314.7423618160084 L418.52476823146344,313.96348614138515 L417.28662501403164,311.7007898299462 L416.2262104541142,310.21696919313047 L414.3863713347068,308.4363844289518 L412.8305009083102,306.3590355374098 L410.4247101979346,303.9099505284339 L407.4887122076002,301.5733235045642 L406.4630490611635,301.20262866477026 L403.06733951535944,301.0172812448732 L399.8126214185326,296.2680139294232 L397.76129512565785,293.5232060707241 L396.7713762902296,291.4094124617866 L396.0286889392758,288.9603274528109 L395.60372879728567,286.3633810189734 L395.6394731082953,284.2860321274315 L396.13393607724566,280.28023704684904 L395.7804645572723,275.04989946177864 L395.41110667685206,272.9569314056386 L394.5045912337767,269.64983362140947 L393.20389547207867,266.21882379803566 L392.3758189337166,263.20120119769047 L392.21894112429015,261.05200414899736 L392.88914695569815,258.15829358779683 L394.9772104571102,252.28861153184596 L396.00287360354804,249.89159040486368 L395.64741628851937,247.74239335617062 L398.9120633606259,247.90483266799052 L402.16578855992276,249.19497566379027 L407.83920503498916,252.31568475048263 L410.0215938015614,252.98106116235988 L414.4260872358273,253.73078106306687 L420.05978780977216,255.10318499241637 L424.3451335406756,255.93620710431287 L430.1376977191033,256.2267235658368 L435.19651062432916,256.3839564894572 L438.6984602056295,257.6522326548197 L441.413042047217,257.3846243013729 L448.1935392660177,255.40932061853837 L450.96173757411725,254.41802430538144 L453.80936768445895,252.61661398840525 L456.0473587125985,251.65343217152486 L465.8889590102625,248.72431817056867 L467.8469529355035,247.71115502697455 L474.7475907551944,241.765459703313 L479.33279153955795,238.99461990361726 L481.2500766661508,237.67427985626122 L482.7642453963703,234.46610344781973 L484.91883303215826,233.3050788793639 L486.394278758785,233.3196567663221 L487.4884518346554,232.7646557842711 L490.94671392472446,230.07087052992568 L496.83558916336904,226.12442827481584 L498.20280905944287,225.07273785854653 L504.5712538041174,218.11387939129085 L505.0875605186844,217.77858799125258 L507.389096988618,217.56408479743916 L510.5097739191632,220.4702906903182 L515.7125569659504,223.1567870011845 L522.234900827467,224.90821599144692 L530.4272983311006,224.58229609016746 L533.9610206332997,224.62290591812243 L542.6190870775715,224.3375958447978 L549.4293712222119,224.77180862062391 L548.1445618209633,225.66418355799306 L547.2400321729434,226.88351967428162 L546.3682681433476,231.08403367351983 L546.3355025249235,233.01456241784007 L546.820036518593,235.45323465041716 L549.6944748621913,239.21328820799002 L552.6016788242125,241.31250392996938 L555.7660432459901,243.24303267428954 L560.4167752672029,246.96976534738656 L559.5777768560322,247.81632406860143 L558.9314005652953,250.25499630117852 L557.7687175599924,251.91479285913243 L557.1878725061049,253.5069063704946 L554.9588175557146,257.43564690572657 L552.7307555028545,259.0610813015646 L552.9243705208171,261.8048478826239 L551.4062302004854,262.10994223110606 L552.0526064912212,263.43028227846196 L549.1126369107748,266.51350537011905 L548.8872491719171,267.63079627770026 L546.56188316131,270.61093288301015 L546.5936558822065,272.4060955341471 L545.2055851380458,273.4567446727766 L544.3655938293463,274.67608078906517 L543.8482942172515,276.16614909172006 L543.0410685269771,276.6742925799769 L542.8474535090147,277.75826260308224 L541.6520048852866,278.6048213242972 L541.5556938250697,279.3836969989204 L540.1666301833801,281.04349355687424 L539.4557155533228,282.97402230119445 L540.5220874984077,284.1256753708914 L540.9738558736533,286.46334367240104 L539.617557850389,288.32618937012967 L538.325798166444,288.5636006720202 L537.7121874941312,290.22235595233406 L537.7439602150274,291.40837118414674 L537.0340384824989,292.0175186034711 L537.0985768218205,293.3388999284669 L535.7671012367539,293.902231131637 L530.1979390021297,294.74670729757213 L524.5940253540257,294.92997216218936 L520.9520772212737,294.23231614347606 L516.9586433636063,292.3955023867442 L512.8957066789775,291.36776135619186 L509.4632599246373,290.7429947722694 L507.22229020391205,290.59617462504764 L504.70033048275945,291.18345521393474 L503.2646006572531,293.46072941233183 L501.75837510725756,298.6400443930486 L500.70788952261853,301.5056404579725 L499.7616581784227,302.5333814885249 L497.8006855605974,303.70898394393885 L494.4734859442271,304.81169696456186 L491.4610348442349,306.17056428459307 L488.13383522786347,306.574580008863 L479.37747192831813,306.75784487348017 L476.0502723119467,306.5370940138276 L472.33782845470677,307.08897116295907 L466.48866911718255,309.69633037319517 L462.18048674313457,311.9007151368014 L455.0355961315545,314.1779893351985 L452.30314213446223,315.6836768024515 L450.8326608954752,316.8592792578654 L448.17070262287325,320.0549603346285 L445.09470608108944,324.9874925146958 L445.0113026887354,325.99440799245076 z"/>
	<path id="tekirdag-saray" title="Saray" class="district" d="M390.42874688128285,150.27568243135727 L391.9538374843108,148.7148072491912 L397.31449123805334,144.5809350189046 L402.9511705045813,141.2738372346754 L409.3364945072328,137.92612962249123 L415.64238670764234,135.23963331162497 L422.0277107102927,132.34592275042434 L426.0479528012179,130.11342349054175 L430.8565555293849,128.7076986767163 L437.36003433786885,127.38527607408056 L442.0901981613226,127.01353995664672 L447.0169556953221,126.31067754973402 L451.233791496793,125.56720531486636 L455.25502648524485,124.03756846189637 L460.14206811812375,122.46628050333153 L462.3889952240176,121.59889622931928 L468.7346033255486,118.45736158982949 L472.32094919672966,117.25780974869855 L478.9038598074558,115.52199992303406 L482.0960253600177,115.10861270000547 L484.6577009822909,115.10861270000547 L489.3094259010303,115.43973898948434 L495.2211377828194,115.35643677829464 L500.14789531682,115.0680028720505 L505.0746528508196,113.49671491348568 L513.7853428640768,108.78493359307092 L519.5401769364397,105.31227266410227 L522.3391550679079,102.83194932593037 L524.9405465913015,99.19476652986216 L530.2614844439224,92.62222206699857 L532.0347994289538,91.05197538607361 L535.6211453001359,89.64625057224819 L537.9077883071503,89.68790167784303 L542.5982362294835,91.3820603979126 L546.9729427379075,92.12657391042015 L548.7462577229388,91.96101076568068 L550.5205656054981,91.34145056995763 L553.7524470591804,89.72851150579795 L559.269978622347,88.11661371927819 L563.9217035410887,84.27221667287574 L568.0601004378465,82.2469316633273 L569.9128472251176,81.62737146760426 L573.1447286787989,81.3378962837202 L575.206976844482,82.12301962418267 L578.5182901004064,85.96741667058515 L584.8241823008158,90.928063346929 L586.6372131869666,92.78778521173797 L588.135495556738,93.94464466963429 L590.026965347603,94.48194393180755 L593.5348723140733,95.14419651076531 L595.5564116811058,96.07301616552989 L595.3627966631444,98.78242058447339 L593.3611152466698,102.03433065378947 L591.1002875753854,103.28802893219373 L587.8058535774381,104.40531983977493 L583.5741243130478,106.97935816553522 L580.5060709514883,108.36842253712267 L579.1825385466458,109.45239256022802 L578.1807049408802,110.70504956099242 L578.2452432802017,113.17808395568527 L580.2796903151005,115.71880139696967 L582.6060492232352,117.61496797917412 L588.8394599041002,123.47527853636623 L590.5829879632895,125.30376207197914 L593.3928879675661,129.4365930246257 L593.9101875796609,131.77322004849543 L593.9419603005585,133.90679793259056 L594.8137243301531,140.2408898159237 L595.2337199845035,142.2734637689513 L597.0745520014385,143.96658121138097 L598.1409239465247,145.45769079167565 L598.4963812615522,147.01544214092223 L598.7863073397327,150.06326179282365 L597.9790816494585,153.14648488448069 L596.622783626193,153.95868144357974 L593.9101875796609,156.36403279168098 L588.4274074299739,156.5504214892179 L585.8428951645562,157.23766473153256 L582.5683191171702,158.39452418942875 L577.1222761760192,159.58678708708072 L570.7796467670737,159.9845551455113 L565.8856548514972,160.3823232039419 L561.1634342082675,161.39444506989616 L556.1304366387706,162.1170917519664 L549.6507873709587,163.74460870308422 L546.8240081087051,164.64739641685205 L539.8618106422791,167.57546914016842 L536.5872345948933,170.2151079572405 L535.3808640983577,171.66040132138102 L534.3125063582152,174.2989988608133 L532.5888362495859,176.54086961945478 L528.901214830546,178.09445585814177 L523.9377200880093,179.54079049992214 L521.1109408257556,179.46894234277116 L517.9396261212828,177.91431482644415 L511.7012509527782,175.058090260279 L503.9109769479889,171.6239566039855 L497.4998376096096,166.13017577602798 L493.777464777089,163.45513351920022 L489.2280083037339,161.72036497117568 L486.3674705255284,161.21430403819852 L482.8853788947883,161.24970747795413 L481.3692243695122,161.53918266183823 L478.6804578636535,163.4915782365957 L475.54389457266024,167.2505905165287 L473.786465948077,170.8648652045198 L471.37372495500614,174.22715070366212 L465.27236964536763,176.79390008594336 L451.93279135651426,184.24007648865845 L444.69456837729945,188.83106960284823 L442.4545915541031,190.0597772178956 L434.7338203762741,192.66193003993232 L426.5642595157839,193.42102143939812 L423.014650853139,192.44534429083922 L420.42914569019354,190.52939343347725 L417.22407246976655,187.20459392937025 L412.83447249842226,182.23978214246688 L409.8011705503422,178.48076986253386 L407.31991962783763,173.90123080238263 L404.88434199162344,168.50324751729312 L403.6144260532941,165.16074629330834 L402.16578855992276,162.68042295513638 L400.48084145488633,160.26257627535676 L396.90442455898256,156.07768144071662 L392.0858928555372,152.01565736758113 L390.42874688128285,150.27568243135727 z"/>
	<path id="tekirdag-suleymanpasa" title="Süleymanpaşa" class="district" d="M417.6381107389483,329.61701290156077 L416.44266211522006,329.2858866120819 L413.65361295903267,329.912735751284 L411.2656944041618,331.05918243278165 L408.7665713261525,331.386143611701 L404.31342591301535,332.4347101950508 L401.7021054143411,332.4347101950508 L398.0234200730541,333.2281637566322 L390.8427851504644,335.3086364810938 L388.5849361717634,335.19097210778835 L383.9838490269518,337.0715195253949 L380.93267492336685,336.9080389359351 L377.5508659429557,338.08572394662883 L375.33670445548705,338.55429888457064 L373.56835395809657,337.746267436031 L372.0204267119241,337.8847573621339 L368.8560622901465,339.2967298417984 L365.7383640521869,339.1176300877406 L362.59485047849836,340.61915244443423 L359.9100555627512,341.0908512152956 L356.73179057558207,340.9221642376366 L353.8136647407519,340.476497407772 L351.3284422281354,340.5858315599583 L350.89156731580977,340.99817750534714 L348.8124398921513,340.9065450730385 L347.1056490414964,341.95198782346864 L345.607366671725,342.0831888060924 L343.8628457150067,343.19214949255456 L342.2245647937854,344.9644040356144 L341.090675816794,347.03134015075767 L340.3648677238167,347.33331066632013 L338.16758549432404,350.4467308095334 L336.992987718685,352.48659370604 L336.4270361277173,354.14534898635407 L334.44024817416425,358.1438551234574 L334.02819570003857,360.1930895187228 L332.4097727293775,363.11699713147954 L331.0534747061115,364.4966900043082 L328.78271805954716,368.1369966332961 L327.91293982500736,368.6753371731093 L328.14527784656264,369.9290354515135 L327.5137950187456,370.53193520499866 L328.103576150385,371.6315243927021 L327.7898205315339,372.62802709405827 L326.42160773793177,373.8754777066232 L325.44261077531183,375.6164939204871 L324.8160924351345,378.05100104250465 L323.9294349426194,379.5369042346001 L324.79623448457494,381.2133612347919 L324.2451763565271,382.0161862951321 L323.9890087943013,384.9630020159662 L324.8071563573827,389.1270712978089 L324.19155989001445,390.3995125737308 L323.33071773322763,390.7004418116535 L322.9117149764067,392.7434285410797 L321.6705930663906,397.35316465278703 L313.7780506162159,403.7268250864354 L311.15084375709284,405.99993417427305 L308.3250573923686,407.78051893845185 L304.6940311324262,409.7735243411643 L300.09294398761455,412.8723665974194 L295.53455143650706,416.3387798605488 L292.0147296997014,413.4992157366215 L289.89985796503396,412.2403110700179 L284.5630337519643,410.2535533331446 L281.9427771755382,409.9224270436659 L278.026789325055,410.5190791313116 L273.82782567908885,411.81026340475137 L269.50177114953664,411.81026340475137 L264.5760065130643,412.1080688097544 L259.5876893323282,412.2403110700179 L255.1980893609832,412.4725159837092 L244.0835944324068,414.7570791255854 L242.53666008376263,415.18816806849173 L231.89577727604853,418.66499410801987 L229.1494227135647,419.9561783814595 L224.60195203526618,421.28068353937493 L221.9499227379431,421.6118098288539 L219.834058105748,421.21404177042325 L217.1820288084255,419.26060491802593 L216.29835000849357,417.5060520948439 L214.40390152504528,411.81026340475137 L213.67710053454027,406.4122801196619 L213.23526113457424,400.98201722773626 L212.41413487890733,398.13412288269006 L209.13062275376834,391.2471125725856 L208.08808034935512,388.63038186359057 L207.42581769817056,385.285798084326 L206.44682073555006,382.93563445113796 L201.77325207119324,378.59767180343675 L200.0684470155949,375.7164565739146 L199.31086620172127,373.99418335756855 L198.42619450426213,369.0272890153856 L197.5107429834344,364.88821039689964 L197.32109955558332,358.96125807075583 L196.68961672776683,355.7489165517548 L195.9955813556865,353.8944010751452 L193.05859046782382,349.4575170516563 L188.35424198009895,341.1127180457328 L185.60689452008737,336.5102708775045 L184.69144299925964,335.25136621090087 L194.83786283802337,330.20949987864714 L198.04095026339252,327.9415971790089 L201.01666415484735,324.29400160654194 L203.70543066070653,318.8043858891439 L204.38655836492362,317.9026394530158 L207.03958055977384,315.90963405030334 L209.5128883020542,314.81941636135883 L215.53580470698012,311.8486512548078 L217.36472195357965,310.00663110987665 L220.16072139246407,306.510020795191 L223.0292023508931,301.6222635536381 L224.104510373731,297.37385078296575 L225.25229991611403,294.44057167145013 L226.43484087197777,292.5235795364482 L228.6579384371987,289.89122966285527 L232.20754709984416,286.5070773332756 L241.63610202585528,282.1087205824619 L248.12568026894718,279.8147859418268 L249.5236799883897,278.6870822578469 L250.634732322236,276.69407685513454 L252.2839351162657,270.90353189981374 L253.68292773323537,269.66337023072776 L256.8373631797323,267.67036482801535 L269.77978245738046,262.4441923535045 L274.6201579064432,261.42894665463064 L276.4321958950668,262.48896729201897 L288.31916510043675,268.9563427132556 L295.0539890329489,272.10412501858457 L304.2631136052686,276.57224737126955 L311.6472925211003,280.4864100195434 L319.59841592542745,284.61299330635086 L332.5398423055473,287.5483549731463 L341.5871245808009,289.5486493193378 L346.82068745095734,290.61179378964573 L357.85575057729227,292.39862621966375 L362.68321835849054,293.03692941290444 L364.9142591039356,293.46281196761163 L366.45622896493944,294.3989205658553 L371.162563247721,298.72751171479763 L374.0528879517674,300.8662959870919 L376.94321265581146,302.2699382456376 L383.88058768403744,303.89745519675546 L390.9708689315788,304.0567706756558 L396.02173865657943,302.9394797680745 L403.06733951535944,301.0172812448732 L406.4630490611635,301.20262866477026 L407.4887122076002,301.5733235045642 L410.4247101979346,303.9099505284339 L412.8305009083102,306.3590355374098 L414.3863713347068,308.4363844289518 L416.2262104541142,310.21696919313047 L417.28662501403164,311.7007898299462 L418.52476823146344,313.96348614138515 L419.7629114488964,314.7423618160084 L419.939647208883,316.4115298727211 L419.16220844444854,317.1164748349135 L418.80774402694755,319.67593527371565 L416.968897805068,321.58667974287823 L417.3402414805448,323.86811905183487 L417.6381107389483,329.61701290156077 z"/>
	
</g></g></svg>