<svg xmlns="http://www.w3.org/2000/svg" version="1.2" baseProfile="tiny" width="600" height="600" stroke-linecap="round" stroke-linejoin="round" style=""><rect id="backgroundrect" width="100%" height="100%" x="0" y="0" fill="none" stroke="none" class="" style=""/>































































































































































































































































































































































































































































































































































































































<g class="currentLayer" style=""><title>Layer 1</title><g class="city city-60" id="tokat" title="Tokat">
	<path id="tokat-almus" title="Almus" class="district" d="M451.3493269486264,296.9502798427575 L453.2937418079995,297.41520592527934 L455.75976509649377,298.56515153856265 L457.0575687538938,299.85073613738905 L458.9267201636447,301.2719597217586 L460.35410784735046,302.1523335147174 L462.1970806659284,303.87725193464223 L464.04005348450585,306.58406011783825 L466.6101366729134,310.6446989303224 L467.7266535864403,312.57350236625246 L468.71293200888243,314.94163962328105 L469.3615066051927,316.02419228148324 L470.763370162505,316.83632004398015 L475.4879514044475,316.43025616273167 L477.019398988067,316.46437917796254 L479.12219432403555,317.34389989554063 L480.80940452513477,317.78408679202005 L482.0555054649679,318.79924649514106 L482.36637623514724,319.30682634670154 L481.93442948079326,321.6135421763145 L482.4062985866853,324.25381047980994 L483.168750054599,324.18129907244423 L485.08175060456375,324.61892674278124 L485.8284949177729,325.00963526717567 L486.91490645145194,326.03844417638925 L487.8259214242709,326.1391070713205 L489.04911609682836,325.70659785326814 L490.53475114589446,326.4172096454529 L491.84564409888094,326.333608258137 L492.9667422658646,327.35985794120813 L494.25538341635354,329.9566194002842 L495.0885170804336,331.26694318515297 L496.3549064284258,332.2880744159395 L498.72995911259466,332.99783313274344 L502.6443129577333,333.59327974852374 L504.16136231620726,333.5719528640044 L506.4035586501723,332.60371230682586 L508.73999791236076,331.08097275214436 L510.94619868346297,331.08097275214436 L512.9194099931262,332.13025547049637 L514.113153750614,334.12645186150746 L515.1000866378346,334.63403171306805 L516.5791770391082,334.70142466814923 L518.1885059314661,335.8863463720443 L519.6427266711254,338.05145168844865 L521.0184116372657,338.6605475103212 L521.9785114685338,338.7620634806334 L525.093763818118,338.6605475103212 L529.714285160148,339.60831425836113 L530.7522663001571,340.216557004853 L532.9846456624318,342.04384447047096 L534.7497371722699,342.9916112185108 L536.2556606294951,343.26203611421613 L539.5521997229517,344.3787117876494 L541.239409924051,345.4612644458515 L541.8886389851398,346.0703602677242 L542.3559268375774,347.18703594115743 L542.6929761989297,349.72493519896 L543.2381453601072,352.533259352468 L544.4580677087682,355.30746049074503 L545.7532535070501,356.98545976472747 L545.3265424709306,358.0901923828298 L545.1446012622789,359.6462018773616 L545.7676517321956,361.3719733726673 L547.7146844506855,364.1470275863251 L549.4535973693502,366.04170800702434 L551.4785113965803,367.0568677101453 L552.905899080287,367.3946855609318 L553.5289495502038,368.612877204677 L553.5034254238099,370.30452568475187 L552.5426711277618,372.33484509099395 L551.894096531451,374.0264935710688 L549.765122604309,376.9363336948889 L546.9358713632895,379.13556202652427 L546.390702202113,379.4068399976105 L544.8330760273204,379.2370779968363 L543.6393322698328,378.62798217496373 L542.5489939474784,377.6810685023046 L541.6922995513426,375.7181420511437 L540.5240799202487,374.9060142886468 L539.1745735452819,375.1090462292711 L538.3434032755395,375.5151101105194 L537.020075491746,376.70003181441456 L535.9297371693916,380.0492057593333 L534.8132202558646,380.92872647691115 L533.619476498376,381.23327438784764 L532.5029595848491,381.20000444799746 L530.0631148875283,381.16588143276647 L529.0768364650862,380.9628494921423 L526.3248120680274,379.06816907144315 L525.4687721366711,377.78258447261663 L524.0924327057512,374.73710536325353 L522.8725103570911,372.43636106130606 L521.7304693171702,371.28556237264206 L518.7971581762383,368.85003216053224 L517.447651801271,367.8689954726421 L515.6825602914333,366.9212287246023 L513.3199424380724,365.2628501843776 L510.2570472708338,364.2144205414063 L508.64771837847627,363.90987263047 L505.9742297549359,363.84247967538886 L504.5461876064502,364.07878155586326 L503.24838394904964,364.07878155586326 L501.3537084129058,363.1318678832041 L500.31507280811775,362.8273199722679 L498.2122774721488,362.69168098672475 L496.62912717096333,362.0484621496212 L494.448450526255,360.93263955156885 L491.5930206940619,360.6280916406324 L489.59428525800575,359.9507497882978 L486.84291532572604,359.308384026575 L485.15570512462733,358.42886330899705 L484.09154539344587,357.1091556949398 L482.94950435352507,356.16138894689976 L479.0037361989781,354.16519255588867 L478.12086321167027,353.9280376000336 L476.9271194541821,354.1310695406577 L475.3694932793901,355.01144333361646 L473.2411738170272,355.2477452140908 L469.52904958869925,355.04471327346664 L466.3359159303763,354.1310695406577 L463.1172581456585,353.9280376000336 L459.87242176976827,353.2174258078487 L457.22445727262226,353.0485168824554 L454.81079116647345,354.09779960080743 L452.4743519042854,355.34926118440285 L449.82704187191854,357.3454575754141 L449.3335754283075,358.3606172785352 L448.50305962334505,362.28561710547626 L448.269415697127,365.5673980953138 L448.21705851478055,368.37572224882183 L448.00959317973496,370.0682238042775 L447.41272130099065,371.08338350739854 L446.3223829786367,372.4022380460751 L444.9728766036703,373.6886757202824 L444.0383008987946,373.9932236312186 L441.93550556282514,374.0606165862999 L438.0676187170185,373.51891371950825 L434.82278234112823,373.350004794115 L431.16301529514624,372.8424249425545 L427.94435751042846,372.50375401638723 L425.0627490870634,372.0976901351388 L422.38926046352356,371.28556237264206 L418.54755220888944,369.76367589334114 L415.1724773419143,368.9848180706946 L413.56053059043825,368.228140207948 L411.64229432223766,366.8538357695211 L409.46227214230885,364.48484543711174 L407.6710020412982,362.8273199722679 L405.59438529650174,360.0863887738409 L403.3875300606204,358.3606172785352 L395.5221723426995,358.0901923828298 L391.16147351806137,358.46213324884724 L389.78578855192103,359.0712290707198 L389.03315405569845,359.9507497882978 L387.7353503982984,360.96590949141887 L387.1122999283816,361.10154847696197 L384.0232261699701,360.55984561017056 L381.7908468076953,359.6462018773616 L380.57092445903464,359.6462018773616 L379.1690609017218,360.83112358125663 L377.42949351827764,363.7068406898458 L374.93794610338995,365.66891406562604 L372.28998160624303,366.5492878585848 L368.86385848648007,367.15838368045746 L367.05426337164863,368.28017780617523 L365.40108533907494,366.9783847751141 L363.7138751379762,364.77915644347866 L363.272765876712,363.56181787511423 L363.2989444678845,361.9034393348896 L363.81793503788947,358.9935992110695 L364.7780348691581,357.33607374622557 L365.11573869528945,355.84660413139414 L364.59674812528453,352.29439824585126 L364.64845084285184,349.3504351068002 L364.2335201727602,346.8125358489975 L363.58429111167044,344.6474305325932 L362.3120115806638,341.8049833638542 L361.11826782317615,339.40272309159457 L360.650979970739,337.5080426708956 L360.52139594443275,335.10578239863605 L360.10581080956155,332.36485120020916 L359.3269977221646,329.59065006193214 L359.04165107837963,326.81559584827437 L359.0933537959465,323.09448103733814 L359.69022567469034,320.9959156006342 L361.06656510560975,319.8459699873507 L362.0266649368789,318.7292943139176 L362.520131380489,316.7330979229065 L362.8054780242744,313.2482849924446 L362.4677741981426,309.66110301629 L362.7792994331019,307.12405683386817 L364.4665096341992,302.31868321396826 L365.2197985952023,300.5596417788123 L366.75124617882136,298.9353862538185 L368.749981614878,298.0217425210096 L370.69701433336735,297.4126466991369 L371.81287678211567,297.24373777374376 L375.57670372801044,297.24373777374376 L376.6408634591914,296.9391898628074 L377.21221121154133,296.4316100112469 L378.17296550759,294.1982586643806 L379.83399711751576,291.1869025702483 L380.43086899625865,289.7998020011098 L381.3654447011343,285.8748021741687 L381.3654447011343,284.75812650073556 L381.0800980573489,282.4573821987881 L381.287563392395,281.64525443629117 L382.5336643322281,278.803660342933 L383.49376416349725,277.1794048179393 L384.194695942153,276.67182496637884 L386.790957721733,276.3672770554424 L388.2183454054397,276.6044320112976 L389.74979298905834,277.11201186285814 L391.5410630900694,278.1945645210604 L393.1242133912553,278.803660342933 L394.88995936587247,278.1945645210604 L399.01701426429156,274.6756285753677 L401.2349954014227,273.0368707689007 L401.6891939582728,273.39175012730277 L404.1290386555946,276.6061381620592 L405.37513959542775,277.5871748499493 L407.4255777490513,278.7712434784636 L410.09972083737074,279.58337124096045 L411.3975244947707,280.12507410775186 L413.084734695869,281.0728408557919 L414.25295432696373,281.95236157336984 L417.2379681854615,285.06523363781423 L418.5874745604289,285.8091153698491 L420.6385671788315,286.0803933409352 L421.39120167505456,286.4864572221836 L422.7151839236271,287.6364028354669 L424.99926600346964,288.4144075827328 L426.9201201307865,288.7189554936691 L430.45030315046216,288.515923553045 L432.1119892251661,288.651562538588 L434.52630979609444,289.49781331631584 L437.8228488895511,291.18946179639073 L442.20972630536266,294.0651789049798 L443.84523378889406,295.24924753349416 L446.23337576864805,296.0613752959909 L449.45203355336537,296.8061101034066 L451.3493269486264,296.9502798427575 z"/>
	<path id="tokat-artova" title="Artova" class="district" d="M183.45136864476774,365.75934005598805 L183.815251062073,364.33811647161855 L185.47628267199832,362.5116820813814 L187.03390884679033,360.4813626751393 L187.57907800796778,359.4320799567872 L187.81272193418587,357.80782443179356 L187.81272193418587,354.83059135289227 L189.05620501490276,355.3449958074991 L190.27612736356295,356.25863954030797 L192.50850672583817,359.2017496039784 L194.84494598802576,360.5555802332667 L195.85674853686174,360.79273518912186 L199.6729326651029,361.1979459949895 L202.24301585350858,361.0964300246774 L208.0572809530269,361.8070418168621 L209.796193871692,362.11158972779845 L211.48405853756887,362.65329259458986 L212.26221716018534,363.1267494309195 L214.80612175741993,365.46161674809787 L216.64974904077644,366.8154473773863 L218.38866195944158,367.5934521246521 L220.38739739549777,368.2699409016059 L222.28207293164212,368.60861182777325 L225.99419715997,368.3714568719181 L229.03156820081423,368.9464296785597 L230.43343175812706,368.7775207531664 L234.43090263024038,368.6418817676235 L236.5330435014303,367.93126997543857 L240.089405112279,365.46161674809787 L241.5691499783312,363.63432928248 L243.8794106493467,362.01007375748634 L247.50710892114176,360.5990870776861 L247.63669294744756,361.14078994447766 L248.59744724349622,362.2915886331417 L252.2572142894777,364.6256028749394 L256.15127972645774,368.1445388206322 L259.18799630252244,370.6483150632038 L260.979266403533,371.86650670694905 L261.8097822084964,372.780150439758 L263.5755281831126,375.48695862295386 L264.61350932312206,377.31424608857185 L264.6913906318614,379.6491134057502 L264.30198408816364,382.5248305143394 L264.74309334942734,386.3483143709685 L265.4702037192574,389.12251550924543 L266.0932541891742,390.5778621088459 L266.71630465909055,392.7429674252503 L266.84588868539726,394.1641910096199 L266.8197100942243,396.8036062377346 L266.27454093304686,398.29222277718515 L264.2758054969902,399.949748242029 L263.78299351815866,400.5588440639018 L262.38112996084635,403.6384461884957 L261.75807949093,405.8709444599814 L260.486454424702,408.91642356934443 L259.91510667235207,409.5596424064481 L257.63102459250996,413.07857835214077 L256.15127972645774,415.14216769823315 L255.42416935662766,417.03684811893226 L254.5157722429259,418.762619614238 L249.85860087325398,420.3996712699434 L248.2859220085369,420.7588160052491 L245.19684825012627,420.6240300950868 L243.06852878776334,421.19900290172865 L238.99317660691065,421.469427797434 L236.44927200967703,422.62022648609803 L234.96952714362436,423.83841812984326 L232.37391982882383,424.44666087633516 L230.84181778042523,424.3792679212541 L229.2586674792398,423.97320404000556 L227.20822932561626,423.1278063376584 L225.93594979461014,422.1459165743876 L224.11915556720564,418.7967426294689 L223.3665210709826,417.61267400095466 L221.6269536875384,416.2929663868972 L219.9659220776131,415.61562453456276 L218.59023711147373,415.5482315794816 L216.56532308424315,415.00652871268994 L212.93108016465507,413.21336426230323 L210.33547284985457,412.2323275744131 L209.06319331884893,412.0634186490198 L207.3242804001838,412.16493461933175 L204.9099598292559,413.4505192181583 L203.0152842931116,414.3300399357364 L200.91248895714304,415.71714050487486 L199.01781342099824,417.78158292634794 L198.39476295108145,418.1876468075962 L196.55179013250398,418.69522665915684 L193.87764704418456,418.762619614238 L191.1524557030783,418.39067874822064 L189.69888942819858,418.762619614238 L188.01102476232128,418.83001256931914 L185.23413070364813,417.9846148669722 L182.63786892406807,417.2398800595564 L180.40548956179285,416.2588433716662 L179.39303254817827,415.4808386244004 L178.35505140817025,414.1270079951121 L177.00489056842335,412.9770623818287 L175.16191774984588,412.5027524701184 L173.81241137487854,411.9277796634767 L171.8653786563892,410.81110399004353 L170.1002871465511,409.99897622754673 L167.55638254931748,409.01793953965665 L166.12899486561074,407.6982319255993 L165.71340973073953,406.98762013341445 L165.0903592608232,405.1611857431773 L164.4411301997334,402.4543775599815 L166.2153842164822,402.3016770668229 L168.36988227001711,403.0805348894696 L170.23903367976803,403.0464118742385 L172.57547294195652,401.62518828986924 L173.5100486468308,400.6100285867482 L174.39226716936008,398.78274112113024 L175.11937753919017,395.6698690566859 L175.76795213549994,394.5873163984837 L176.67634924920267,393.5388867555124 L178.9610857938243,391.238142453565 L180.7261773036624,390.0873437649008 L183.01025938350404,386.2297368930408 L183.47754723594164,384.8426363239023 L184.56788555829607,380.7828505867989 L184.72364817577525,376.4176638633784 L184.72364817577525,373.40630776924615 L184.23018173216468,370.69949958605025 L183.8931323708124,369.9556178540154 L183.47754723594164,367.58662752160586 L183.45136864476774,365.75934005598805 z"/>
	<path id="tokat-basciftlik" title="Başçiftlik" class="district" d="M496.2037250644029,220.7663829627357 L497.5538859041483,221.0026848432101 L499.7339080840776,221.1383238287532 L503.31644828609933,222.0519675615621 L504.89959858728525,223.06712726468317 L505.95459581155603,225.11877355544465 L503.34720813072806,227.47838005866555 L500.3877183986227,229.30566752428336 L497.89551651895545,230.4556131375667 L496.8830595053405,230.79428406373407 L495.22202789541564,231.67380478131204 L494.1578681642346,232.82460346997618 L493.40523366801165,234.38061296450795 L492.91176722440105,236.24202344535678 L492.1591327281775,241.52000082620555 L491.6656662845669,243.51619721721664 L490.67938786212534,246.73058525197308 L489.563525413377,248.693511703134 L488.9404749434602,249.4041234953188 L486.7597982987523,251.33207385586803 L482.7878515530324,255.96768547499386 L480.84147329932074,261.24651593122337 L479.2576685333562,264.39265793551783 L477.804102258477,266.32146137144787 L476.61035850098926,267.2692281194878 L475.31255484358974,269.06239256987476 L474.3000978299742,270.9570729905738 L472.84653155509545,274.71316389212166 L472.76865024635515,276.0320184307983 L472.4047678290508,278.23124676243367 L471.93747997661274,279.619200406953 L470.66585491038614,280.7358760803861 L468.95246611811496,280.93890802101026 L463.7088943061675,281.10781694640355 L460.3835587624202,281.7570073111725 L458.90381389636894,282.26458716273305 L457.8396541651865,281.72288429594164 L457.2427822864432,280.8774865935946 L455.9705027554366,281.01312557913764 L455.503214902999,281.85852328148474 L453.9717673193804,281.55397537054836 L453.7125992667674,281.01312557913764 L452.25837852710913,280.26839077172195 L452.54437963567364,279.32062402368206 L451.97303188332324,278.84716718735245 L450.5973469171834,278.88129020258344 L449.5593657771754,278.3737103510229 L448.7805526897789,278.4752263213351 L448.10514503751614,278.9828061728955 L447.0409853063347,279.01607611274574 L446.54817332750366,278.4069802908731 L446.54817332750366,276.9183637514224 L446.9892825887683,276.0729660490755 L449.58488990356926,273.839614702209 L450.77928812583554,273.43355082096076 L452.5182010445007,273.5350667912728 L453.3231927230692,273.33203485064854 L457.034662486618,273.5009437760418 L459.2932204400667,273.839614702209 L460.6689054062061,274.3130715385387 L462.3305914809114,274.65174246470593 L464.35485104336055,274.5502264943939 L465.3156053394087,274.21155556822663 L466.5093490968974,273.33203485064854 L467.70374731916365,271.2343224893254 L469.00155097656415,267.9858114393379 L468.9753723853916,265.2116103010609 L468.61214443286633,263.3501998202121 L467.2881621842929,261.4896424147439 L466.1984783267175,260.71163766747804 L463.3430484945255,260.03429581514354 L459.2153391313264,258.3767703502997 L455.3998094678662,257.632035542884 L453.7381233931609,257.46312661749073 L450.49328701727103,257.4972496327217 L448.0272637287768,257.15857870655435 L444.34131809162136,257.2259716616356 L441.07095758933815,257.632035542884 L436.8398427910062,260.10254184560546 L435.20433530747437,259.7979939346692 L434.47722493764473,259.08738214248444 L434.087818393947,257.801797543658 L434.24358101142616,256.718391810075 L434.866631481343,256.1434190034333 L436.11273242117613,255.5343231815607 L439.01986497093554,254.65480246398266 L443.30333695161335,253.63964276086165 L444.49708070910106,253.06466995421994 L444.8864872527988,252.4896971475783 L444.8609631264054,250.28961574056214 L443.90020883035766,249.07227717219774 L442.4466425554775,248.463181350325 L441.641650876909,248.4290583350941 L439.0977462796754,249.00403114173574 L437.2809520522704,249.1737931425099 L435.4896819512598,248.29341934955104 L435.12645399873503,247.5495376175161 L435.02239409882174,244.4025425378408 L435.28221661621376,241.72985736987587 L436.29467362982876,240.44427277104944 L438.0335865484935,239.32759709761632 L439.1501034620208,238.24419136403338 L439.61739131445796,237.50030963199836 L440.9407190982524,234.4548305226352 L442.1089387293471,231.1056565777165 L443.6665649041386,226.9435017949202 L444.2896153740555,226.19876698750448 L447.118866615075,224.84578943359693 L449.3257218509563,224.1693006566432 L451.6615066483648,224.20257059649333 L453.3231927230692,223.99953865586917 L456.33438517274044,222.51092211641853 L458.69634856132285,220.10866184415897 L459.99415221872334,219.36392703674323 L462.25271017217153,218.45113637931505 L464.1990884258818,218.01094948283566 L466.27570517067784,217.19882172033886 L469.8582453726995,216.08214604690568 L472.09062473497477,214.627652522686 L472.8432592311978,213.91704073050124 L474.5049453059031,213.10491296800444 L477.67190037305403,212.22539225042647 L479.04758533919386,211.98823729457126 L481.35784601020845,210.93895457621923 L484.55032520375283,210.1609498289534 L485.7702475524135,210.05943385864123 L488.6256773846055,209.48446105199957 L491.712787748678,208.65271255574498 L493.0112458708576,213.22093121978972 L493.9451671109541,217.61938788306043 L494.5943961720435,219.0747344826609 L496.2037250644029,220.7663829627357 z"/>
	<path id="tokat-erbaa" title="Erbaa" class="district" d="M265.54808502799676,255.70920363461934 L263.3935869744609,252.35917661431995 L261.52443556471,249.8554003717482 L260.53815714226886,246.74252830730399 L259.8634039547852,245.7273686041829 L257.03349824898703,243.25771537684213 L253.65907784679052,240.82133208935159 L252.5687395244356,239.87441841669244 L250.3887173445068,237.1676102334965 L249.32455761332443,235.17141384248538 L247.35134630366213,231.17816798508238 L245.9494827463493,229.41912654992635 L244.91150160634083,227.79487102493266 L244.59081386447218,226.0708056803884 L246.87489594431383,226.10407562023858 L250.1976136289435,225.42758684328481 L251.57329859508428,224.98739994680545 L252.8711022524838,224.34503418508257 L253.59821262231299,223.39726743704267 L254.53278832718865,221.13064615032619 L255.8305919845887,219.13444975931503 L256.5832264808122,217.2730392784662 L256.8168704070303,216.2578795753451 L257.0766929244223,212.80718966011432 L258.08914993803734,208.07006207067633 L260.11340950048697,201.70867895624463 L261.6972142664524,197.00567438203757 L262.57943278898125,189.56173860940368 L262.6317899713272,187.93748308441002 L263.2024832588976,185.53522281215038 L264.8896934599968,181.47543707504698 L265.4093384947799,180.59506328208818 L267.4597766484034,176.29812258912955 L268.1090057094932,175.24969294615832 L269.6358720396569,173.46420617419835 L271.01744718881116,172.25369220888007 L271.766809361137,169.9981609021136 L272.4913018718489,169.02565496803123 L273.17259970712564,167.47732315192644 L274.38663187277234,167.09002692905506 L277.6229602065315,166.81277743030353 L279.7237921481624,167.80916947504753 L281.44372558822755,168.23229486391142 L282.23824583032723,168.16063653192643 L283.1322447188839,167.6726774141237 L284.8338531451268,166.22159619142715 L285.2919784906542,166.04330343684535 L286.32145158853154,166.79656899806884 L287.58391414784836,167.16595063794392 L290.11931070295134,166.5150541224134 L291.5394992740851,165.58520195736972 L291.804557509711,163.83554435140223 L291.67497348340476,163.1087241269828 L290.34182872792155,161.60645838143978 L289.41772445951517,161.13811999739488 L285.5969590778196,160.7576483775697 L284.79000400491293,160.3831482854099 L283.31942164577094,158.6624952423887 L281.73430795024734,157.50060657377458 L276.0856224398985,155.4583441122016 L273.67195633375064,154.2444178453602 L270.9408748096299,152.576655475947 L269.70982655972045,151.47704131012938 L265.8164155875195,147.56313146313826 L265.32164021435074,146.68787612246416 L265.09388647114565,144.98257843629696 L265.15344276606413,139.95711136815734 L265.3026607357508,138.38830574291396 L266.05071397851805,133.84653241567315 L266.53240005610076,133.01478391941856 L267.4263989446579,132.5839808521277 L268.9146518528417,132.37412430845728 L269.5219951680539,131.31460468553595 L269.5089058724679,129.68181840673452 L269.7464765873622,128.57537963787064 L270.7229380381146,126.87520040398806 L271.8309469095108,126.42733582908176 L273.05086925817193,126.5638278900056 L274.5567927153971,127.15415605350121 L275.4723889416714,126.46657729659734 L275.7178132339183,124.70071125839515 L276.2446573812744,123.96962565707187 L277.8997988081858,123.54735334358872 L278.96199514502956,123.83398667152879 L279.87366458262807,124.60687296651005 L280.9999984678452,126.07928107372595 L282.18327078886364,126.57491786995566 L283.8802979616521,125.9385236358982 L285.67287699222175,125.97264665112922 L287.5341748246201,126.275488411304 L289.89155695974625,125.93255210823284 L292.23584979928637,125.19464190386333 L293.96821807015755,124.36971801065482 L298.1273417427645,121.54347927415058 L300.555406074057,120.3133445750745 L305.23024799277164,118.51676782316447 L307.86250533521394,117.97847725789609 L308.9305918550712,118.26681673659769 L311.2919007788741,119.47818377729674 L312.3259551302063,118.99619618715943 L312.9221725441711,117.91449660433804 L313.75661513780926,115.86029108743425 L314.731767659003,114.7035208711047 L315.8947515718624,114.38105837717214 L317.0773694281008,114.71375777567401 L317.92686471166456,115.56171470416332 L319.30320414258347,118.60634073814575 L320.1468092431324,119.28112336433796 L321.8104587121754,118.9910777348748 L322.7587781774166,117.56729492436301 L323.0722668067131,115.80228196154164 L323.84126292241797,114.65916095130447 L324.64625460098745,114.24541939162907 L326.4316345189841,113.95110838526202 L327.73336496506084,114.22579865787128 L330.2877409987638,115.29896748688495 L333.9763044950359,117.6526024624404 L334.95800166402216,118.17894997237798 L337.09941042197204,118.82216880948157 L339.7840249467607,121.17836301117931 L340.7159827925183,122.65674264606069 L341.54911645659837,125.11189359192824 L341.28274929141287,127.48770852738383 L341.94375871853055,128.5207828135011 L343.69379753844356,130.06826155422516 L344.00401384384384,130.83773554768328 L343.97783525267084,132.26237143357588 L342.95359787302743,134.22444480935604 L342.3946849514849,135.59192464473676 L344.69120186213445,136.29400568311377 L355.512776988263,140.26933695752064 L356.72680915391015,140.6429839742996 L361.0416954439949,141.54297850101617 L364.81992061503473,141.50288395811978 L365.76758561549696,142.67500953130326 L366.8808302051271,145.54987356451164 L368.51633768865895,148.25668174770752 L369.5026161111011,149.54226634653395 L372.17610473464094,151.23391482660878 L372.7212738958184,152.5194994254352 L373.47390839204144,153.399873218394 L375.6807636279228,154.85436674261362 L380.74239423121753,156.30971334221408 L382.0140192974441,156.30971334221408 L383.1822389285388,156.03843537112795 L384.81774641206977,156.03843537112795 L385.8040248345128,156.41122931252613 L388.01088007039414,158.7452435543238 L387.9585228880477,160.53926108009156 L387.59529493552293,162.73848941172687 L387.30994829173795,163.61801012930493 L386.06384735190386,165.7157224906282 L385.23333154694143,167.61040291132718 L384.4800425859384,170.1483021691298 L383.7797652720613,171.53540273826832 L383.1043576197985,172.28013754568408 L382.1442577885299,172.78771739724462 L378.35425225146264,173.15965826326206 L376.9268645677559,173.5657221445105 L375.62840644557633,174.71566775779382 L375.00535597566,175.69755752106468 L374.72000933187456,176.71186414880492 L374.74618792304756,179.79146627339907 L374.9019505405272,180.80662597652014 L376.4792106586987,183.2421561886299 L374.4163376742682,184.66508592376096 L373.1440581432612,185.3756977159457 L371.8986116682071,186.55976634446 L371.405145224597,188.25141482453483 L370.02946025845716,190.28173423077698 L369.56217240601956,192.04077566593287 L369.61387512358544,194.57867492373552 L369.2244685798877,195.76274355224984 L367.38149576131025,198.74082970653188 L365.8762267688641,199.31580251317357 L364.5260659291177,200.09380726043943 L360.58095223935123,201.81957875574523 L357.54358119850656,204.29008505846673 L356.3491829762393,206.6240993002644 L351.96230556042826,209.60218545454643 L350.09380861545736,211.36122688970238 L347.7835479444418,213.79761017719292 L346.04398056099853,216.707450301013 L345.62904989090686,218.33170582600673 L345.4471086822542,220.05662424593172 L345.55116858216655,221.8506417716995 L345.1872861648622,222.7642855045084 L343.68201717241567,224.35441801427112 L343.03278811132685,225.3354547021612 L342.33185633267016,227.02710318223603 L341.6315790187926,229.56500244003868 L339.32131834777846,234.436915939639 L336.40829561500465,238.69461516508198 L333.02994842413233,239.04864144810318 L331.26485691429474,239.11603440318436 L328.87671493454076,239.65773726997588 L327.8642579209257,240.13119410630543 L326.12534500226104,241.7213266160682 L324.6194215450349,242.63497034887706 L322.1533982565416,243.2440661707498 L320.0767815117442,243.61686011214792 L313.37964342491847,243.8198920527722 L311.2251453713826,243.98880097816547 L309.953520305156,243.8531619926224 L306.5012185942187,244.05619393324656 L305.3068203719529,244.56377378480707 L298.97291023765155,247.67664584925146 L293.4956944994855,251.02667286955088 L292.0944854069518,252.3796504234585 L290.3287394323346,253.5978420672037 L288.27830127871107,254.54560881524364 L286.98049762131154,254.64712478555572 L284.41041443290493,254.44409284493162 L281.52946047431897,253.4963260968916 L280.02353701709336,253.39481012657953 L274.46843997018846,254.03802896368316 L265.54808502799676,255.70920363461934 z"/>
	<path id="tokat-niksar" title="Niksar" class="district" d="M458.90381389636894,282.26458716273305 L457.9437140650998,283.6184177920215 L456.7264095755564,285.91233749092277 L453.71521712588464,288.4502367487254 L452.728938703443,289.7016983323208 L451.4311350460425,292.0706886647302 L451.2230152462174,293.626698159262 L451.3493269486264,296.9502798427575 L449.45203355336537,296.8061101034066 L446.23337576864805,296.0613752959909 L443.84523378889406,295.24924753349416 L442.20972630536266,294.0651789049798 L437.8228488895511,291.18946179639073 L434.52630979609444,289.49781331631584 L432.1119892251661,288.651562538588 L430.45030315046216,288.515923553045 L426.9201201307865,288.7189554936691 L424.99926600346964,288.4144075827328 L422.7151839236271,287.6364028354669 L421.39120167505456,286.4864572221836 L420.6385671788315,286.0803933409352 L418.5874745604289,285.8091153698491 L417.2379681854615,285.06523363781423 L414.25295432696373,281.95236157336984 L413.084734695869,281.0728408557919 L411.3975244947707,280.12507410775186 L410.09972083737074,279.58337124096045 L407.4255777490513,278.7712434784636 L405.37513959542775,277.5871748499493 L404.1290386555946,276.6061381620592 L401.6891939582728,273.39175012730277 L401.2349954014227,273.0368707689007 L400.2611518097875,272.2750744538696 L397.665544494987,270.650818928876 L394.1353614753113,269.5008733155926 L392.2400314743874,268.5198366277025 L387.7235700322706,264.96677766677874 L384.8681402000785,262.1925765285018 L382.32423560284485,259.1812204343695 L381.07813466301076,256.9137460722722 L380.63702540174614,255.45925254805263 L380.06633211417574,254.3425768746194 L378.3267647307306,252.2448645132962 L376.5616732208939,250.51909301799031 L374.3031152674457,248.7591985074536 L371.55174533516504,247.03428008752866 L369.7866538253279,245.5448104726973 L363.79044751715696,242.4319384082529 L361.76553348992826,241.619810645756 L360.4677298325282,241.41677870513183 L358.02788513520596,241.5182946754439 L355.5873859731056,241.38350876528165 L351.97932164469097,240.8085359586399 L347.4366816114002,239.759253240288 L345.54200607525587,239.48882834458263 L340.3501369808758,238.37215267114948 L336.40829561500465,238.69461516508198 L339.32131834777846,234.436915939639 L341.6315790187926,229.56500244003868 L342.33185633267016,227.02710318223603 L343.03278811132685,225.3354547021612 L343.68201717241567,224.35441801427112 L345.1872861648622,222.7642855045084 L345.55116858216655,221.8506417716995 L345.4471086822542,220.05662424593172 L345.62904989090686,218.33170582600673 L346.04398056099853,216.707450301013 L347.7835479444418,213.79761017719292 L350.09380861545736,211.36122688970238 L351.96230556042826,209.60218545454643 L356.3491829762393,206.6240993002644 L357.54358119850656,204.29008505846673 L360.58095223935123,201.81957875574523 L364.5260659291177,200.09380726043943 L365.8762267688641,199.31580251317357 L367.38149576131025,198.74082970653188 L369.2244685798877,195.76274355224984 L369.61387512358544,194.57867492373552 L369.56217240601956,192.04077566593287 L370.02946025845716,190.28173423077698 L371.405145224597,188.25141482453483 L371.8986116682071,186.55976634446 L373.1440581432612,185.3756977159457 L374.4163376742682,184.66508592376096 L376.4792106586987,183.2421561886299 L378.7174802039874,185.06944365424778 L381.4695046010467,186.4906672386173 L383.4158828547579,187.20127903080203 L384.76604369450337,187.2686719858832 L386.531135204341,187.0997630604899 L389.74979298905834,186.55806019369845 L390.63266597636715,185.98308738705674 L392.9429266473822,184.9346577440855 L396.10988171453266,183.1747632335488 L398.3160824856349,181.31420582808067 L399.01701426429156,180.97553490191336 L401.82008691413813,180.67098699097704 L403.55965429758237,181.00965791714435 L404.5721113111979,181.00965791714435 L407.42754114338896,180.569471020665 L409.4262765794461,180.7051100062081 L410.3084951019749,181.14444382730665 L411.29477352441745,182.9376082776936 L412.22934922929176,184.02101401127655 L412.04806248541956,185.1035666694788 L411.29477352441745,185.91569443197562 L411.29477352441745,187.77625183744368 L411.8399426855949,189.09595945150105 L411.9701811766798,190.00960318431004 L412.6711129553364,191.32931079836737 L412.25552782046566,192.0057995753212 L412.7745183904692,192.98683626321127 L414.3838472828286,194.20502790695653 L415.7078295314011,195.5247355210139 L416.7202865450161,195.79516041671928 L418.355794028548,194.47630587804264 L420.51029208208337,193.697448055396 L422.8984340618378,193.29138417414754 L427.3370141952163,192.9535663233611 L429.4915122487517,193.2581142342974 L431.2827823497627,194.3065438772686 L433.229815068253,194.98303265422243 L435.5400757392676,193.86721005617002 L438.4472082890265,192.1073155456333 L439.51136802020795,191.05888590266204 L441.0172914774336,189.0285664964199 L442.65214449618543,187.97928377806798 L445.37799030207174,185.9489643718258 L448.0776575167846,184.3255619222129 L450.36173959662716,182.66718338198825 L451.7119004363726,181.41572179839275 L452.62029755007535,180.83989591637035 L454.0221611073877,179.55431131754395 L455.1124994297421,177.99830182301213 L456.6439470133612,177.76114686715698 L459.0837917106825,177.82853982223813 L460.5373579855617,178.50588167457272 L462.22456818666046,180.23080009449768 L463.34108510018734,182.80282236753132 L463.8338970790184,185.06944365424778 L464.7946513750671,187.47170392650742 L465.5989885888565,188.89292751087686 L466.14415775003397,189.40050736243737 L468.16907177726404,189.4679003175185 L469.4668754346636,189.1633524065822 L473.4643463067774,189.1974754218132 L475.6450229514862,190.3482741104773 L476.8394211737525,191.768644619466 L477.9035809049344,194.0019959663323 L479.0194433536823,194.5778218483548 L480.70665355478053,195.01715566945336 L483.328439460754,196.9459591053834 L486.3919890927712,200.26186311045194 L488.02684211152354,202.15654353115093 L489.66234959505493,203.74667604091366 L490.4673412736239,205.10050667020204 L491.712787748678,208.65271255574498 L488.6256773846055,209.48446105199957 L485.7702475524135,210.05943385864123 L484.55032520375283,210.1609498289534 L481.35784601020845,210.93895457621923 L479.04758533919386,211.98823729457126 L477.67190037305403,212.22539225042647 L474.5049453059031,213.10491296800444 L472.8432592311978,213.91704073050124 L472.09062473497477,214.627652522686 L469.8582453726995,216.08214604690568 L466.27570517067784,217.19882172033886 L464.1990884258818,218.01094948283566 L462.25271017217153,218.45113637931505 L459.99415221872334,219.36392703674323 L458.69634856132285,220.10866184415897 L456.33438517274044,222.51092211641853 L453.3231927230692,223.99953865586917 L451.6615066483648,224.20257059649333 L449.3257218509563,224.1693006566432 L447.118866615075,224.84578943359693 L444.2896153740555,226.19876698750448 L443.6665649041386,226.9435017949202 L442.1089387293471,231.1056565777165 L440.9407190982524,234.4548305226352 L439.61739131445796,237.50030963199836 L439.1501034620208,238.24419136403338 L438.0335865484935,239.32759709761632 L436.29467362982876,240.44427277104944 L435.28221661621376,241.72985736987587 L435.02239409882174,244.4025425378408 L435.12645399873503,247.5495376175161 L435.4896819512598,248.29341934955104 L437.2809520522704,249.1737931425099 L439.0977462796754,249.00403114173574 L441.641650876909,248.4290583350941 L442.4466425554775,248.463181350325 L443.90020883035766,249.07227717219774 L444.8609631264054,250.28961574056214 L444.8864872527988,252.4896971475783 L444.49708070910106,253.06466995421994 L443.30333695161335,253.63964276086165 L439.01986497093554,254.65480246398266 L436.11273242117613,255.5343231815607 L434.866631481343,256.1434190034333 L434.24358101142616,256.718391810075 L434.087818393947,257.801797543658 L434.47722493764473,259.08738214248444 L435.20433530747437,259.7979939346692 L436.8398427910062,260.10254184560546 L441.07095758933815,257.632035542884 L444.34131809162136,257.2259716616356 L448.0272637287768,257.15857870655435 L450.49328701727103,257.4972496327217 L453.7381233931609,257.46312661749073 L455.3998094678662,257.632035542884 L459.2153391313264,258.3767703502997 L463.3430484945255,260.03429581514354 L466.1984783267175,260.71163766747804 L467.2881621842929,261.4896424147439 L468.61214443286633,263.3501998202121 L468.9753723853916,265.2116103010609 L469.00155097656415,267.9858114393379 L467.70374731916365,271.2343224893254 L466.5093490968974,273.33203485064854 L465.3156053394087,274.21155556822663 L464.35485104336055,274.5502264943939 L462.3305914809114,274.65174246470593 L460.6689054062061,274.3130715385387 L459.2932204400667,273.839614702209 L457.034662486618,273.5009437760418 L453.3231927230692,273.33203485064854 L452.5182010445007,273.5350667912728 L450.77928812583554,273.43355082096076 L449.58488990356926,273.839614702209 L446.9892825887683,276.0729660490755 L446.54817332750366,276.9183637514224 L446.54817332750366,278.4069802908731 L447.0409853063347,279.01607611274574 L448.10514503751614,278.9828061728955 L448.7805526897789,278.4752263213351 L449.5593657771754,278.3737103510229 L450.5973469171834,278.88129020258344 L451.97303188332324,278.84716718735245 L452.54437963567364,279.32062402368206 L452.25837852710913,280.26839077172195 L453.7125992667674,281.01312557913764 L453.9717673193804,281.55397537054836 L455.503214902999,281.85852328148474 L455.9705027554366,281.01312557913764 L457.2427822864432,280.8774865935946 L457.8396541651865,281.72288429594164 L458.90381389636894,282.26458716273305 z"/>
	<path id="tokat-pazar" title="Pazar" class="district" d="M247.50710892114176,360.5990870776861 L243.8794106493467,362.01007375748634 L241.5691499783312,363.63432928248 L240.089405112279,365.46161674809787 L236.5330435014303,367.93126997543857 L234.43090263024038,368.6418817676235 L230.43343175812706,368.7775207531664 L229.03156820081423,368.9464296785597 L225.99419715997,368.3714568719181 L222.28207293164212,368.60861182777325 L220.38739739549777,368.2699409016059 L218.38866195944158,367.5934521246521 L216.64974904077644,366.8154473773863 L214.80612175741993,365.46161674809787 L212.26221716018534,363.1267494309195 L211.48405853756887,362.65329259458986 L209.796193871692,362.11158972779845 L208.0572809530269,361.8070418168621 L202.24301585350858,361.0964300246774 L199.6729326651029,361.1979459949895 L195.85674853686174,360.79273518912186 L194.84494598802576,360.5555802332667 L192.50850672583817,359.2017496039784 L190.27612736356295,356.25863954030797 L189.05620501490276,355.3449958074991 L187.81272193418587,354.83059135289227 L187.57907800796778,353.44349078375376 L186.9560275380505,351.85335827399115 L185.94357052443593,350.5336506599337 L182.82897263963045,345.93216205603875 L182.43956609593363,344.5783314267505 L182.17974357854163,342.68365100605143 L182.33550619602036,341.33067345214386 L183.16602200098276,340.247267718561 L184.3859443496434,339.6381718966883 L188.48747512166955,338.5897422537171 L189.94104139654877,337.7102215361391 L193.83510683352884,333.7852217091978 L196.48241686589574,332.39812114005935 L199.05250005430284,331.2473224513951 L199.95435252021161,331.0297882292978 L200.9511023791225,330.2773757434552 L204.13114674186036,330.1178506472505 L210.70851777406958,331.2686493359147 L212.23276624511658,331.6175571666511 L216.31335414420414,333.33053253124535 L217.41678176214506,333.91062379017166 L218.5313352813343,334.898485081108 L219.93581669776432,335.5690023303963 L220.98426927424208,335.6807552052776 L222.15903355312935,335.27554439940997 L226.75533969832372,333.21024890255626 L227.39606071728235,333.2716703299719 L227.51320991278163,335.0255933128433 L227.80771906347823,335.381325746626 L229.1343191711684,335.2883405301217 L231.2344966480202,333.65726040208165 L232.66450219084368,333.05925456015916 L234.21231139394595,332.9867431527934 L235.4891721784079,335.0827493633551 L236.04284938171645,335.1492892430555 L238.0638366202703,334.716780025003 L241.13393090008094,333.37830475256874 L243.13855651915156,331.95025656515304 L243.55152379490465,331.49556738720037 L244.43374231743343,329.52155095608936 L244.57379778020942,331.77111073519046 L245.04108563264754,333.53100524572716 L246.10524536382803,335.0196217851777 L246.85853432483015,335.7302335773626 L247.97439677357892,339.1135305375122 L250.67406398829178,343.68174920155695 L251.19305455829624,345.4749136519439 L250.9077079145108,349.8059773601335 L250.07719210954747,351.9036897214568 L249.53202294837047,352.81733345426574 L248.07845667349125,356.7082102659758 L247.50710892114176,359.61805038979605 L247.50710892114176,360.5990870776861 z"/>
	<path id="tokat-resadiye" title="Reşadiye" class="district" d="M451.3493269486264,296.9502798427575 L451.2230152462174,293.626698159262 L451.4311350460425,292.0706886647302 L452.728938703443,289.7016983323208 L453.71521712588464,288.4502367487254 L456.7264095755564,285.91233749092277 L457.9437140650998,283.6184177920215 L458.90381389636894,282.26458716273305 L460.3835587624202,281.7570073111725 L463.7088943061675,281.10781694640355 L468.95246611811496,280.93890802101026 L470.66585491038614,280.7358760803861 L471.93747997661274,279.619200406953 L472.4047678290508,278.23124676243367 L472.76865024635515,276.0320184307983 L472.84653155509545,274.71316389212166 L474.3000978299742,270.9570729905738 L475.31255484358974,269.06239256987476 L476.61035850098926,267.2692281194878 L477.804102258477,266.32146137144787 L479.2576685333562,264.39265793551783 L480.84147329932074,261.24651593122337 L482.7878515530324,255.96768547499386 L486.7597982987523,251.33207385586803 L488.9404749434602,249.4041234953188 L489.563525413377,248.693511703134 L490.67938786212534,246.73058525197308 L491.6656662845669,243.51619721721664 L492.1591327281775,241.52000082620555 L492.91176722440105,236.24202344535678 L493.40523366801165,234.38061296450795 L494.1578681642346,232.82460346997618 L495.22202789541564,231.67380478131204 L496.8830595053405,230.79428406373407 L497.89551651895545,230.4556131375667 L500.3877183986227,229.30566752428336 L503.34720813072806,227.47838005866555 L505.95459581155603,225.11877355544465 L507.9107910369564,227.83752479397128 L508.6634255331795,228.54813658615612 L512.2459657352016,230.81561094825338 L513.4920666750348,231.28906778458295 L515.9319113723566,231.69513166583135 L518.7094598958083,232.8118073392645 L522.6028708680097,234.80800373027574 L524.0309130164956,235.34885352168646 L525.2508353651557,235.5186155224604 L527.2757493923854,236.12771134433302 L529.9492380159253,237.48068889824066 L531.2215175469323,238.39433263104962 L533.4015397268616,239.44361534940154 L534.6476406666957,239.815556215419 L536.8021387202307,240.08598111112443 L538.3080621774562,240.1201041263554 L540.4363816398187,239.9170721857312 L542.0718891233505,239.30797636385847 L543.136048854533,238.59736457167378 L544.9011403643701,236.70268415097476 L545.897890223281,236.31538792810335 L547.3285502308845,236.15927513342174 L548.4692823412462,238.37727112343404 L549.3220499487063,239.70380334053766 L551.3836140035781,241.1762114477536 L552.3646567077853,241.60104298737897 L555.0427265847806,242.18710577397076 L558.6933311238519,243.4249181514738 L560.1069750471926,244.06557776243514 L565.1568252844589,247.3260318677534 L566.781861331522,248.06906052440743 L567.8093710350618,247.93427461424517 L568.6228707557614,247.1844213545449 L569.4939633770423,247.11702839946366 L573.2309572669836,248.37957996300918 L574.1439356341413,248.45720982265965 L575.4895152204323,247.90356390053734 L576.543857979924,247.22536897282194 L577.5046122759721,247.76707183961346 L578.5425934159801,248.00337372008786 L579.2697037858103,248.54507658687936 L580.1263981819457,248.54507658687936 L581.2684392218665,247.80034177946365 L583.1375906316174,248.17313572086192 L586.5637137513799,249.76326823062456 L588.9780343223077,250.203455127104 L590.8210071408852,250.13520909664211 L593.3125545557733,250.4738800228094 L595.078300530391,250.98145987436993 L596.3761041877905,252.4026834587394 L596.4539854965308,253.31632719154825 L595.571112509222,257.20720400325854 L594.7405967042596,259.03449146887647 L593.4427930468592,261.09808081496885 L592.7418612682025,262.5193043993381 L592.3007520069374,264.210952879413 L591.6515229458475,265.6995694188636 L589.4453221747458,268.88068751376983 L589.0035584487016,270.3351810379895 L588.822271704828,272.601802324706 L588.1730426437392,276.9328660328956 L587.7836361000404,281.5343546367905 L587.5761707649949,282.6851533254547 L586.0964258989427,285.49347747896263 L585.6036139201117,287.01621703364424 L585.2659100939803,288.8093814840312 L585.6036139201117,292.42983340003605 L585.4995540201993,294.2571208656539 L584.9543848590218,297.33586991486726 L585.0584447589342,299.0616414101731 L585.4314896831487,299.82514387596586 L585.2495484744975,301.3137604154165 L585.5872523006279,303.30995680642764 L586.8071746492891,305.7463400939181 L588.2352167977743,308.1153304263276 L589.0657326027373,309.70546293609027 L589.5591990463483,312.20923917866196 L589.2993765289564,314.2395585849041 L588.44268213282,315.6940521091237 L587.3006410929002,316.9463667680999 L584.7305579044926,321.3789464466017 L584.0558047170089,322.3258601192607 L582.8358823683487,325.10006125753785 L581.5636028373422,326.4197688715951 L577.7218945827085,328.65312021846154 L576.709437569093,329.46524798095834 L575.2820498853862,331.4614443719695 L573.7506023017676,333.1198229121942 L573.4128984756362,333.62740276375473 L572.9456106231986,335.6235991547658 L572.2446788445425,340.8000605653025 L571.5699256570588,342.01825220904766 L570.2721219996583,342.93189594185674 L568.1693266636897,344.9280923328678 L566.7157603888096,346.6538638281737 L565.8073632751078,347.0258046941911 L564.1201530740095,347.19471361958426 L563.0298147516552,347.6007775008327 L561.550069885603,348.54854424887264 L560.2005635106356,348.81896914457803 L558.7725213621499,348.78569920472785 L557.0853111610525,348.3796353234794 L554.775050490037,348.0409643973121 L552.7501364628073,347.9394484270001 L551.5563927053196,348.61593720395376 L548.6230815643872,351.7629322836291 L547.6623272683396,352.9470009121433 L545.7532535070501,356.98545976472747 L544.4580677087682,355.30746049074503 L543.2381453601072,352.533259352468 L542.6929761989297,349.72493519896 L542.3559268375774,347.18703594115743 L541.8886389851398,346.0703602677242 L541.239409924051,345.4612644458515 L539.5521997229517,344.3787117876494 L536.2556606294951,343.26203611421613 L534.7497371722699,342.9916112185108 L532.9846456624318,342.04384447047096 L530.7522663001571,340.216557004853 L529.714285160148,339.60831425836113 L525.093763818118,338.6605475103212 L521.9785114685338,338.7620634806334 L521.0184116372657,338.6605475103212 L519.6427266711254,338.05145168844865 L518.1885059314661,335.8863463720443 L516.5791770391082,334.70142466814923 L515.1000866378346,334.63403171306805 L514.113153750614,334.12645186150746 L512.9194099931262,332.13025547049637 L510.94619868346297,331.08097275214436 L508.73999791236076,331.08097275214436 L506.4035586501723,332.60371230682586 L504.16136231620726,333.5719528640044 L502.6443129577333,333.59327974852374 L498.72995911259466,332.99783313274344 L496.3549064284258,332.2880744159395 L495.0885170804336,331.26694318515297 L494.25538341635354,329.9566194002842 L492.9667422658646,327.35985794120813 L491.84564409888094,326.333608258137 L490.53475114589446,326.4172096454529 L489.04911609682836,325.70659785326814 L487.8259214242709,326.1391070713205 L486.91490645145194,326.03844417638925 L485.8284949177729,325.00963526717567 L485.08175060456375,324.61892674278124 L483.168750054599,324.18129907244423 L482.4062985866853,324.25381047980994 L481.93442948079326,321.6135421763145 L482.36637623514724,319.30682634670154 L482.0555054649679,318.79924649514106 L480.80940452513477,317.78408679202005 L479.12219432403555,317.34389989554063 L477.019398988067,316.46437917796254 L475.4879514044475,316.43025616273167 L470.763370162505,316.83632004398015 L469.3615066051927,316.02419228148324 L468.71293200888243,314.94163962328105 L467.7266535864403,312.57350236625246 L466.6101366729134,310.6446989303224 L464.04005348450585,306.58406011783825 L462.1970806659284,303.87725193464223 L460.35410784735046,302.1523335147174 L458.9267201636447,301.2719597217586 L457.0575687538938,299.85073613738905 L455.75976509649377,298.56515153856265 L453.2937418079995,297.41520592527934 L451.3493269486264,296.9502798427575 z"/>
	<path id="tokat-sulusaray" title="Sulusaray" class="district" d="M164.4411301997334,402.4543775599815 L165.0903592608232,405.1611857431773 L165.71340973073953,406.98762013341445 L166.12899486561074,407.6982319255993 L167.55638254931748,409.01793953965665 L170.1002871465511,409.99897622754673 L171.8653786563892,410.81110399004353 L173.81241137487854,411.9277796634767 L175.16191774984588,412.5027524701184 L177.00489056842335,412.9770623818287 L178.35505140817025,414.1270079951121 L179.39303254817827,415.4808386244004 L180.40548956179285,416.2588433716662 L182.63786892406807,417.2398800595564 L185.23413070364813,417.9846148669722 L184.8964268775163,420.5225141247747 L184.87024828634426,422.58610347086704 L185.38989332112686,425.1572726685199 L185.80482399121854,427.8640808517158 L186.63533979618143,430.267194199356 L187.907619327188,432.43229951576063 L188.63407523223808,434.15807101106634 L189.25712570215535,436.8307561790312 L189.4652455019805,438.3193727184819 L188.97177905836946,440.2140531391809 L186.99922221348623,442.88759138252664 L186.1425278173499,445.0194267590809 L186.11634922617742,446.10197941728296 L186.45405305230878,449.11333551141524 L187.28456885727118,450.19588816961743 L190.42534533324914,453.7148241153102 L190.68516785064068,454.35804295241377 L190.68516785064068,457.50418495670834 L191.12627711190532,460.8883349922387 L191.7755061729951,462.9178013231001 L191.9829715080407,465.3200615953596 L190.86645459451333,468.97463652659536 L190.522860585368,470.89746843486 L188.89651560874728,471.47329431688246 L187.36506802512824,472.894517901252 L185.44421389781093,475.49981011413564 L183.65294379679986,476.54823975710696 L180.6934540646955,476.9201806231244 L179.1620064810769,476.8527876680433 L177.16327104501977,476.1762988910895 L175.65800205257415,475.46568709890477 L173.76267205165027,474.2816184703904 L171.24494604558913,471.1687464059461 L169.24621060953294,469.5786138961834 L166.46866208608026,467.92023535595877 L163.8730547712802,467.4467785196291 L160.42009859556433,467.24374657900495 L156.52668762336378,465.99143192002873 L154.91735873100535,466.1270709055718 L153.33682628893712,466.4597703040737 L153.07765823632465,462.90671134315005 L152.01284404036366,456.17338736270085 L151.31518458560328,453.37188781223904 L148.45713689429402,448.1886017986562 L146.120697632106,444.7029357928137 L144.19984350478916,442.7067394018025 L141.83788011620817,440.6431500557103 L140.3057780678091,438.44392172407476 L139.31949964536747,435.60147455533587 L138.35939981409882,431.84538365378796 L137.5282295443569,429.57876236707153 L136.93135766561258,426.6689222432515 L137.19118018300506,422.3045885952116 L137.47652682679,421.3909448624026 L138.51516243157755,420.1727532186575 L142.5126333036909,416.75533324327677 L143.23908920874098,415.97732849601095 L143.68085293478515,414.150041030393 L143.73255565235107,413.03336535695985 L143.3431491086533,408.4651466929152 L142.64221732999667,406.50307331713486 L144.03819070429648,406.0065834455244 L146.2705700665717,405.8376745201312 L147.49114688001097,405.22857869825856 L149.56776362480747,403.84147812912 L153.02006533574382,402.3861315295195 L154.08422506692528,401.8111587228779 L156.49854563785317,401.3377018865483 L157.2250015429023,401.5066108119416 L159.69102483139656,403.33389827755957 L161.06670979753642,403.6043231732649 L162.88415848972093,402.7248024556868 L164.4411301997334,402.4543775599815 z"/>
	<path id="tokat-merkez" title="Merkez" class="district" d="M336.40829561500465,238.69461516508198 L340.3501369808758,238.37215267114948 L345.54200607525587,239.48882834458263 L347.4366816114002,239.759253240288 L351.97932164469097,240.8085359586399 L355.5873859731056,241.38350876528165 L358.02788513520596,241.5182946754439 L360.4677298325282,241.41677870513183 L361.76553348992826,241.619810645756 L363.79044751715696,242.4319384082529 L369.7866538253279,245.5448104726973 L371.55174533516504,247.03428008752866 L374.3031152674457,248.7591985074536 L376.5616732208939,250.51909301799031 L378.3267647307306,252.2448645132962 L380.06633211417574,254.3425768746194 L380.63702540174614,255.45925254805263 L381.07813466301076,256.9137460722722 L382.32423560284485,259.1812204343695 L384.8681402000785,262.1925765285018 L387.7235700322706,264.96677766677874 L392.2400314743874,268.5198366277025 L394.1353614753113,269.5008733155926 L397.665544494987,270.650818928876 L400.2611518097875,272.2750744538696 L401.2349954014227,273.0368707689007 L399.01701426429156,274.6756285753677 L394.88995936587247,278.1945645210604 L393.1242133912553,278.803660342933 L391.5410630900694,278.1945645210604 L389.74979298905834,277.11201186285814 L388.2183454054397,276.6044320112976 L386.790957721733,276.3672770554424 L384.194695942153,276.67182496637884 L383.49376416349725,277.1794048179393 L382.5336643322281,278.803660342933 L381.287563392395,281.64525443629117 L381.0800980573489,282.4573821987881 L381.3654447011343,284.75812650073556 L381.3654447011343,285.8748021741687 L380.43086899625865,289.7998020011098 L379.83399711751576,291.1869025702483 L378.17296550759,294.1982586643806 L377.21221121154133,296.4316100112469 L376.6408634591914,296.9391898628074 L375.57670372801044,297.24373777374376 L371.81287678211567,297.24373777374376 L370.69701433336735,297.4126466991369 L368.749981614878,298.0217425210096 L366.75124617882136,298.9353862538185 L365.2197985952023,300.5596417788123 L364.4665096341992,302.31868321396826 L362.7792994331019,307.12405683386817 L362.4677741981426,309.66110301629 L362.8054780242744,313.2482849924446 L362.520131380489,316.7330979229065 L362.0266649368789,318.7292943139176 L361.06656510560975,319.8459699873507 L359.69022567469034,320.9959156006342 L359.0933537959465,323.09448103733814 L359.04165107837963,326.81559584827437 L359.3269977221646,329.59065006193214 L360.10581080956155,332.36485120020916 L360.52139594443275,335.10578239863605 L360.650979970739,337.5080426708956 L361.11826782317615,339.40272309159457 L362.3120115806638,341.8049833638542 L363.58429111167044,344.6474305325932 L364.2335201727602,346.8125358489975 L364.64845084285184,349.3504351068002 L364.59674812528453,352.29439824585126 L365.11573869528945,355.84660413139414 L364.7780348691581,357.33607374622557 L363.81793503788947,358.9935992110695 L363.2989444678845,361.9034393348896 L363.272765876712,363.56181787511423 L363.7138751379762,364.77915644347866 L365.40108533907494,366.9783847751141 L367.05426337164863,368.28017780617523 L365.61902211059027,369.4591279824049 L362.866997713531,370.8803515667744 L361.1280847948659,372.50375401638723 L359.72622123755355,374.4999504073984 L358.5324774800649,378.35755727925846 L357.96112972771544,379.2712010120673 L357.15679251392555,381.1317584175354 L353.3406083856853,386.81665275501337 L352.1723887545915,388.37266224954516 L349.9661879834883,390.6401366116425 L347.94127395625964,392.90675789835893 L345.2677853327197,394.0234335717921 L340.1799761382515,397.3734605920916 L338.70023127219935,398.15146533935746 L336.75319855370907,398.8279541163114 L335.04046422621735,399.7757208643511 L334.31335385638823,400.38481668622376 L333.3787781515125,402.21125107646094 L332.7557276815957,405.1219442756618 L331.873509159066,407.2870495920661 L331.4062213066288,407.96353836901994 L328.78443540065535,409.11433705768405 L327.382571843343,410.6029535971347 L326.5258774472067,412.2946020772095 L325.9551841596363,414.08776652759644 L323.7228047973606,418.5203462060981 L323.28104107131736,421.4643093451492 L323.56704217988135,423.8324466021779 L324.08603274988633,426.13319090412534 L324.6829046286292,430.49837762754584 L324.8903699636753,433.3067017810539 L324.8386672461089,435.87787097870665 L324.39755798484424,436.8930306818278 L323.4368036887961,437.43473354861925 L322.16517862256853,438.9907430431509 L322.0611187226562,440.8180305087688 L321.6461880525645,442.4755559736128 L320.78949365642916,443.66047767750786 L318.9203422466783,444.94606227633426 L316.5839029844907,447.1794136232005 L314.27364231347565,448.4308752067961 L312.3266095949858,448.5665141923391 L307.86185087043486,448.6339071474202 L306.1491165429432,448.83693908804435 L304.64319308571754,448.83693908804435 L303.2936867107502,448.5665141923391 L299.9447904349476,447.0437746376575 L297.89435228132453,445.99449191930546 L295.5062103015696,444.3710894696925 L293.4551176831675,442.3740400033006 L292.417136543159,442.13773812282625 L289.74364791961864,442.57707194392486 L287.8227937923018,443.2544137962594 L285.74617704750534,444.9801852915653 L285.2527106038952,446.1301309048485 L283.3318564765779,448.46499822202696 L281.28141832295483,450.1566467021018 L279.5935536570766,451.37483834584714 L277.67269952975977,452.3558750337373 L276.3231931547938,452.76193891498576 L274.03911107495077,452.89757790052874 L272.7406529527712,452.62629992944267 L271.02791862528,451.5778702864713 L269.7818176854459,448.19457332632163 L268.87342057174413,446.7051037114902 L268.0422503020026,446.06273794976744 L266.5108027183831,446.33316284547277 L266.12139617468534,446.67183377164 L264.5899485910663,446.8748657122643 L261.7868759412197,447.0437746376575 L260.59247771895247,447.3824455638249 L260.3594882575134,446.5268109569085 L260.3071310751675,443.9556417592556 L260.9563601362573,440.26779688816976 L260.6186563101259,438.8124502885693 L258.516515438936,435.9026101647491 L257.94516768658553,434.21096168467443 L257.32211721666874,431.33524457608513 L256.2579574854878,429.8457749612537 L254.25922204943112,428.69582934797035 L252.28666520454692,425.6844732538382 L251.6112575522842,424.3988886550118 L249.85860087325398,420.3996712699434 L254.5157722429259,418.762619614238 L255.42416935662766,417.03684811893226 L256.15127972645774,415.14216769823315 L257.63102459250996,413.07857835214077 L259.91510667235207,409.5596424064481 L260.486454424702,408.91642356934443 L261.75807949093,405.8709444599814 L262.38112996084635,403.6384461884957 L263.78299351815866,400.5588440639018 L264.2758054969902,399.949748242029 L266.27454093304686,398.29222277718515 L266.8197100942243,396.8036062377346 L266.84588868539726,394.1641910096199 L266.71630465909055,392.7429674252503 L266.0932541891742,390.5778621088459 L265.4702037192574,389.12251550924543 L264.74309334942734,386.3483143709685 L264.30198408816364,382.5248305143394 L264.6913906318614,379.6491134057502 L264.61350932312206,377.31424608857185 L263.5755281831126,375.48695862295386 L261.8097822084964,372.780150439758 L260.979266403533,371.86650670694905 L259.18799630252244,370.6483150632038 L256.15127972645774,368.1445388206322 L252.2572142894777,364.6256028749394 L248.59744724349622,362.2915886331417 L247.63669294744756,361.14078994447766 L247.50710892114176,360.5990870776861 L247.50710892114176,359.61805038979605 L248.07845667349125,356.7082102659758 L249.53202294837047,352.81733345426574 L250.07719210954747,351.9036897214568 L250.9077079145108,349.8059773601335 L251.19305455829624,345.4749136519439 L250.67406398829178,343.68174920155695 L247.97439677357892,339.1135305375122 L246.85853432483015,335.7302335773626 L246.10524536382803,335.0196217851777 L245.04108563264754,333.53100524572716 L244.57379778020942,331.77111073519046 L244.43374231743343,329.52155095608936 L245.2230268412992,326.3574943687986 L245.19684825012627,322.12794663092126 L245.40431358517185,315.5643846512461 L245.32643227643246,311.740900794617 L244.93702573273424,310.48858613564084 L244.02862861903247,309.3727635375884 L242.44547831784655,307.951539953219 L242.16013167406157,307.1394121907221 L242.21183439162797,304.9060608438557 L243.1719342228966,303.3500513493241 L245.40431358517185,302.03034373526657 L249.84354818332935,299.6280834630071 L251.73822371947324,298.7144397301981 L252.80238345065465,297.6651570118461 L254.07466298166128,295.9061155766901 L254.48959365175295,294.85683285833807 L254.77559476031792,292.1159016599113 L255.26840673914893,289.0712756259289 L255.8659330826723,286.296221412271 L256.69644888763474,284.469787022034 L257.3973806662909,282.40534460056085 L258.5656002973847,280.2402392841565 L261.73190089975606,275.6387506802615 L263.49764687437323,271.74702079317046 L264.25028137059627,269.8864633877024 L264.639687914295,268.22808484747776 L265.3406196929512,261.5288838822596 L265.62596633673616,256.9615182935956 L265.54808502799676,255.70920363461934 L274.46843997018846,254.03802896368316 L280.02353701709336,253.39481012657953 L281.52946047431897,253.4963260968916 L284.41041443290493,254.44409284493162 L286.98049762131154,254.64712478555572 L288.27830127871107,254.54560881524364 L290.3287394323346,253.5978420672037 L292.0944854069518,252.3796504234585 L293.4956944994855,251.02667286955088 L298.97291023765155,247.67664584925146 L305.3068203719529,244.56377378480707 L306.5012185942187,244.05619393324656 L309.953520305156,243.8531619926224 L311.2251453713826,243.98880097816547 L313.37964342491847,243.8198920527722 L320.0767815117442,243.61686011214792 L322.1533982565416,243.2440661707498 L324.6194215450349,242.63497034887706 L326.12534500226104,241.7213266160682 L327.8642579209257,240.13119410630543 L328.87671493454076,239.65773726997588 L331.26485691429474,239.11603440318436 L333.02994842413233,239.04864144810318 L336.40829561500465,238.69461516508198 z"/>
	<path id="tokat-turhal" title="Turhal" class="district" d="M265.54808502799676,255.70920363461934 L265.62596633673616,256.9615182935956 L265.3406196929512,261.5288838822596 L264.639687914295,268.22808484747776 L264.25028137059627,269.8864633877024 L263.49764687437323,271.74702079317046 L261.73190089975606,275.6387506802615 L258.5656002973847,280.2402392841565 L257.3973806662909,282.40534460056085 L256.69644888763474,284.469787022034 L255.8659330826723,286.296221412271 L255.26840673914893,289.0712756259289 L254.77559476031792,292.1159016599113 L254.48959365175295,294.85683285833807 L254.07466298166128,295.9061155766901 L252.80238345065465,297.6651570118461 L251.73822371947324,298.7144397301981 L249.84354818332935,299.6280834630071 L245.40431358517185,302.03034373526657 L243.1719342228966,303.3500513493241 L242.21183439162797,304.9060608438557 L242.16013167406157,307.1394121907221 L242.44547831784655,307.951539953219 L244.02862861903247,309.3727635375884 L244.93702573273424,310.48858613564084 L245.32643227643246,311.740900794617 L245.40431358517185,315.5643846512461 L245.19684825012627,322.12794663092126 L245.2230268412992,326.3574943687986 L244.43374231743343,329.52155095608936 L243.55152379490465,331.49556738720037 L243.13855651915156,331.95025656515304 L241.13393090008094,333.37830475256874 L238.0638366202703,334.716780025003 L236.04284938171645,335.1492892430555 L235.4891721784079,335.0827493633551 L234.21231139394595,332.9867431527934 L232.66450219084368,333.05925456015916 L231.2344966480202,333.65726040208165 L229.1343191711684,335.2883405301217 L227.80771906347823,335.381325746626 L227.51320991278163,335.0255933128433 L227.39606071728235,333.2716703299719 L226.75533969832372,333.21024890255626 L222.15903355312935,335.27554439940997 L220.98426927424208,335.6807552052776 L219.93581669776432,335.5690023303963 L218.5313352813343,334.898485081108 L217.41678176214506,333.91062379017166 L216.31335414420414,333.33053253124535 L212.23276624511658,331.6175571666511 L210.70851777406958,331.2686493359147 L204.13114674186036,330.1178506472505 L200.9511023791225,330.2773757434552 L199.95435252021161,331.0297882292978 L199.05250005430284,331.2473224513951 L196.48241686589574,332.39812114005935 L193.83510683352884,333.7852217091978 L189.94104139654877,337.7102215361391 L188.48747512166955,338.5897422537171 L184.3859443496434,339.6381718966883 L183.16602200098276,340.247267718561 L182.33550619602036,341.33067345214386 L182.17974357854163,342.68365100605143 L182.43956609593363,344.5783314267505 L182.82897263963045,345.93216205603875 L185.94357052443593,350.5336506599337 L186.9560275380505,351.85335827399115 L187.57907800796778,353.44349078375376 L187.81272193418587,354.83059135289227 L187.81272193418587,357.80782443179356 L187.57907800796778,359.4320799567872 L187.03390884679033,360.4813626751393 L185.47628267199832,362.5116820813814 L183.815251062073,364.33811647161855 L183.45136864476774,365.75934005598805 L180.69018174079875,365.6893878747645 L178.74314902230847,365.4863559341404 L175.5761939551585,365.4863559341404 L174.87526217650233,365.3174470087471 L173.39617177522874,363.59167551344126 L172.90270533161817,362.6447618407822 L172.20177355296244,362.0015430036786 L170.77438586925572,361.25766127164366 L168.41176801589378,360.61444243454014 L165.42675415739598,360.2757715083727 L163.8953065737769,359.73492171696216 L162.41556170772472,358.78715496892215 L160.7545300977999,357.02811353376626 L160.10530103670916,355.40385800877254 L159.87165711049107,353.1705066619062 L159.94953841923044,350.97127833027076 L160.4947075804079,348.6031410732422 L161.06605533275734,347.1819174888727 L162.20809637267865,345.422022978336 L163.50590003007915,343.7303744982611 L164.05106919125657,342.78346082560194 L164.93394217856493,339.33191783499046 L165.141407513611,337.87657123539 L159.92335982805747,328.8868628727936 L158.44426942678436,325.2834724644042 L158.32712023128505,320.8176228460523 L159.92335982805747,314.9808810907967 L160.31276637175526,312.03691795174564 L160.10530103670916,309.3531428038306 L159.1969039230074,308.44035214640246 L158.05486288308563,307.8312563245297 L154.60256117215022,306.37590972492933 L154.16079744610653,306.30851676984815 L151.30536761391446,306.6463346206347 L146.5035595280117,306.81609662140863 L145.1533986882648,307.01912856203296 L143.20702043455407,307.0865215171141 L140.4294719111014,307.01912856203296 L135.83447469546513,306.1387547690742 L133.6020953331899,305.0903251261029 L132.25258895822301,304.21080440852495 L124.43893395786947,298.2896081905726 L122.46637711298575,296.3608047546426 L120.98663224693263,294.56764030425563 L119.71500718070604,293.24793269019835 L117.79349858861016,291.82670910582885 L114.8863660388503,288.37516611521727 L113.32873986405875,286.8191566206855 L109.22786355681262,282.38657694218375 L107.46277204697452,281.2699012687507 L104.4254010061303,280.1873486105484 L102.73360955157622,278.7729496292252 L104.78077538130302,278.21077295329513 L106.98697615240576,277.8388320872776 L108.59630504476371,277.1623433103239 L110.28351524586245,276.2486995775149 L113.08724236048809,274.0153482306485 L115.44920574906908,271.7819968837822 L118.097170246216,268.1956679830084 L120.09590568227267,266.09795562168506 L121.65353185706516,265.082795918564 L123.93761393690633,264.13502917052415 L126.24787460792189,264.03351320021204 L127.41609423901613,264.3721841263793 L128.3244913527179,264.98127994825194 L129.10330444011393,265.8608006658299 L130.19364276246833,267.4850561908237 L130.81669323238515,268.0600289974652 L132.32196222483125,268.66912481933787 L135.59297719189402,268.26306093808955 L137.5655340367782,267.51917920605456 L139.77238927265952,266.4698964877026 L141.6408862176309,265.1501888736452 L145.5349516546105,260.8191251654556 L146.70317128570522,259.19572271584263 L147.09257782940298,259.16159970061176 L148.72023173558324,257.99459257971284 L156.22890614877093,260.97609103551804 L159.5948185088363,264.5718037654804 L159.03656005207284,268.8022045787387 L162.25325444245203,270.3641856009358 L169.55904477405042,271.6335617675276 L176.50160715312305,274.7652014903489 L179.93034813200364,277.61532633751483 L180.63978795279095,276.85267694710285 L182.93237807476467,275.20282916068595 L183.90622166639886,274.21838017127277 L187.96455776298976,271.04664590555507 L189.7538644696622,269.74314672373237 L191.16881732256104,269.2227707414603 L193.1891500963358,268.9105451520969 L194.8802870861094,268.24599943047406 L196.03999867507298,267.57804140732793 L197.95692601371354,266.76079519254654 L204.91454108271125,265.01966834038683 L206.76733087297848,264.61275138375754 L209.5468427907688,262.66944566635436 L212.06718665594715,261.61675064647926 L217.22109679312686,259.20084116812734 L218.22177344071403,258.5618877079276 L219.0208749362686,257.23450241544333 L219.4057002265115,255.16408846630475 L220.53203411172862,253.66864732380796 L221.9024833596336,252.99813007451968 L224.3312021557061,254.83480136932604 L225.51054768804872,255.05489481756567 L226.99421934277765,254.7887352987642 L227.72198417738585,254.4065575281775 L229.43733636399523,251.90192821022504 L231.10687601605164,250.3629802233087 L230.9105365822544,248.50327589322137 L230.31366470351102,247.31920726470713 L228.62645450241277,243.25856845222296 L226.9909470188809,237.77755913074992 L226.62771906635658,236.28894259129933 L226.31619383139721,234.02146822920207 L226.86136299257467,231.31466004600617 L227.76976010627644,229.96168249209865 L229.5610302072875,228.40481992218605 L230.9426053564413,227.97828223179908 L232.15663752208755,227.93136308585653 L233.40273846192164,228.43894293741707 L236.28434688528665,228.30330395187397 L238.4388449388225,227.52529920460807 L239.2693607437854,226.7472944573422 L241.1123335623629,226.0708056803884 L244.59081386447218,226.0708056803884 L244.91150160634083,227.79487102493266 L245.9494827463493,229.41912654992635 L247.35134630366213,231.17816798508238 L249.32455761332443,235.17141384248538 L250.3887173445068,237.1676102334965 L252.5687395244356,239.87441841669244 L253.65907784679052,240.82133208935159 L257.03349824898703,243.25771537684213 L259.8634039547852,245.7273686041829 L260.53815714226886,246.74252830730399 L261.52443556471,249.8554003717482 L263.3935869744609,252.35917661431995 L265.54808502799676,255.70920363461934 z"/>
	<path id="tokat-yesilyurt" title="Yeşilyurt" class="district" d="M185.23413070364813,417.9846148669722 L188.01102476232128,418.83001256931914 L189.69888942819858,418.762619614238 L191.1524557030783,418.39067874822064 L193.87764704418456,418.762619614238 L196.55179013250398,418.69522665915684 L198.39476295108145,418.1876468075962 L199.01781342099824,417.78158292634794 L200.91248895714304,415.71714050487486 L203.0152842931116,414.3300399357364 L204.9099598292559,413.4505192181583 L207.3242804001838,412.16493461933175 L209.06319331884893,412.0634186490198 L210.33547284985457,412.2323275744131 L212.93108016465507,413.21336426230323 L216.56532308424315,415.00652871268994 L218.59023711147373,415.5482315794816 L219.9659220776131,415.61562453456276 L221.6269536875384,416.2929663868972 L223.3665210709826,417.61267400095466 L224.11915556720564,418.7967426294689 L225.93594979461014,422.1459165743876 L227.20822932561626,423.1278063376584 L229.2586674792398,423.97320404000556 L230.84181778042523,424.3792679212541 L232.37391982882383,424.44666087633516 L234.96952714362436,423.83841812984326 L236.44927200967703,422.62022648609803 L238.99317660691065,421.469427797434 L243.06852878776334,421.19900290172865 L245.19684825012627,420.6240300950868 L248.2859220085369,420.7588160052491 L249.85860087325398,420.3996712699434 L251.6112575522842,424.3988886550118 L252.28666520454692,425.6844732538382 L254.25922204943112,428.69582934797035 L256.2579574854878,429.8457749612537 L257.32211721666874,431.33524457608513 L257.94516768658553,434.21096168467443 L258.516515438936,435.9026101647491 L260.6186563101259,438.8124502885693 L260.9563601362573,440.26779688816976 L260.3071310751675,443.9556417592556 L260.3594882575134,446.5268109569085 L260.59247771895247,447.3824455638249 L260.12518986651486,447.6187474442993 L258.74950490037503,449.37864195483587 L257.2697600343228,450.83313547905556 L255.06355926322055,452.25435906342517 L253.66169570590773,452.72781589975466 L251.79254429615776,452.96497085560986 L249.94957147758032,453.37103473685823 L248.18447996774222,454.081646529043 L246.49726976664397,453.84449157318784 L245.5626940617687,454.115769544274 L244.39447443067496,455.26571515755734 L243.09667077327447,456.010449964973 L241.66928308956773,455.7059020540368 L240.81258869343236,455.9089339946609 L239.56648775359827,455.4013541431003 L237.4898710088027,453.84449157318784 L236.68487933023323,453.67558264779444 L234.08927201543273,453.7429756028757 L229.80645449953442,455.02856020170213 L228.9235815122256,455.4013541431003 L228.1447684248296,455.36723112786933 L225.73110231868174,454.6566193356847 L223.86195090893082,453.81122163333765 L222.61584996909767,452.9308478403788 L221.52551164674327,452.72781589975466 L220.4613519155618,453.4725507071703 L217.91744731832722,455.9089339946609 L217.4501594658901,456.75433169700784 L217.16481282210418,458.2429482364585 L217.16481282210418,460.4089066282438 L216.82710899597328,463.62329466300014 L216.54176235218736,464.8414863067455 L214.77667084235023,466.8376826977566 L213.24522325873068,467.98762831103994 L210.31191211779927,469.0027880141609 L209.37733641292454,468.93539505907984 L206.02844013712144,468.29217622197626 L204.47146842710848,468.089144281352 L202.42037580870587,468.123267296583 L200.60358158130185,467.98762831103994 L198.83849007146375,468.6649701633745 L197.28086389667126,469.9164317469699 L195.8272976217925,470.32249562821835 L193.6466209770832,470.5596505840735 L192.166876111031,470.5596505840735 L190.522860585368,470.89746843486 L190.86645459451333,468.97463652659536 L191.9829715080407,465.3200615953596 L191.7755061729951,462.9178013231001 L191.12627711190532,460.8883349922387 L190.68516785064068,457.50418495670834 L190.68516785064068,454.35804295241377 L190.42534533324914,453.7148241153102 L187.28456885727118,450.19588816961743 L186.45405305230878,449.11333551141524 L186.11634922617742,446.10197941728296 L186.1425278173499,445.0194267590809 L186.99922221348623,442.88759138252664 L188.97177905836946,440.2140531391809 L189.4652455019805,438.3193727184819 L189.25712570215535,436.8307561790312 L188.63407523223808,434.15807101106634 L187.907619327188,432.43229951576063 L186.63533979618143,430.267194199356 L185.80482399121854,427.8640808517158 L185.38989332112686,425.1572726685199 L184.87024828634426,422.58610347086704 L184.8964268775163,420.5225141247747 L185.23413070364813,417.9846148669722 z"/>
	<path id="tokat-zile" title="Zile" class="district" d="M74.21399786295753,406.3563443516417 L73.46398122585262,406.4015573468228 L70.99795793735835,407.48411000502495 L68.42852921373081,408.1273288421285 L66.24785256902197,407.9916898565855 L65.62480209910517,407.2136851093196 L64.76810770296979,405.55530656909497 L64.14505723305297,403.6273562085457 L63.599888071875995,402.64546644527485 L62.19802451456317,399.36368545543735 L60.277170387245874,398.4841647378593 L57.03233401135559,397.80682288552475 L54.82613324025331,396.7583932425535 L52.90527911293648,396.1834204359119 L51.8411193817541,396.250813390993 L49.478501528394034,396.85990921286555 L48.72586703217098,397.265973094114 L46.54584485224122,397.9765848862989 L45.37762522114696,397.9765848862989 L41.7433823015589,397.5031280499691 L38.70601126071421,396.5212382866984 L36.08422535474074,395.13413771755984 L34.29360971850968,393.8144301035024 L32.943448878763256,393.07054837146757 L29.673088376479534,392.29169054882084 L24.377159382186647,391.75084075741023 L23.183415624699435,391.75084075741023 L20.587808309898456,391.10762192030654 L18.926122235194093,390.32961717304073 L17.966022403924974,389.3485804851506 L17.083149416616628,388.0288728710933 L16.304336329220618,386.37049433086867 L16.123049585347985,384.84860785156786 L16.25263361165422,381.6674897566616 L16.771624181658225,378.48722473713605 L16.771624181658225,376.93036216722356 L16.408396229132947,373.41142622153075 L16.045168276608145,372.02432565239224 L15.084413980559965,369.79182738090674 L13.734907605593072,367.2871980629542 L11.113121699619597,364.0395400883477 L8.516859920040023,361.2986088899208 L6.726244283808494,360.41908817234287 L5.220320826582867,358.76070963211816 L2.7281189469156253,356.9675451817312 L2.494475020697056,356.4940883454017 L2.598534920609861,355.3100197168873 L3.190825545898363,354.17713561121946 L5.413387936483854,351.53260193082014 L7.074419546409146,348.1493049706704 L7.385944781367552,346.99850628200625 L7.3342420638006836,343.4795703363136 L7.567885990019722,341.61901293084543 L8.294341895069799,340.70536919803646 L10.760365183564076,338.33637886562707 L12.5254566934017,336.88188534140744 L15.640709042985755,333.80313629219404 L17.97714830517379,332.07736479688833 L20.416993002495097,329.979652435565 L22.6755509559433,326.86678037112074 L23.688007969558356,326.12204556370506 L27.32159642436735,324.4977900387114 L29.476094477903217,324.05845621761273 L32.79881216253287,323.212205439885 L35.08354870715404,322.80614155863657 L37.26357088708334,322.0955297664517 L40.093476592882425,320.6743061820824 L44.50587813508696,319.5576305086491 L50.03479659081982,318.3402919402847 L51.17749209551971,317.7985890734932 L52.37123585300786,316.9190683559152 L55.46030961141848,312.52061169264437 L56.65470783368475,310.38877631609023 L57.58862907378138,309.2721006426571 L58.7051459873083,308.83191374617763 L61.741862563373914,308.291063954767 L66.10321585279111,307.95239302859966 L70.12686531607788,307.41069016180825 L73.6046911534072,306.2948675637558 L74.40968283197572,305.8546806672765 L75.60408105424341,304.8053979489244 L76.35671555046646,303.85848427626524 L77.135528637862,301.8622878852542 L77.52493518156069,299.6289365383879 L77.70622192543334,293.50470837981135 L78.35545098652312,287.24484123569175 L78.12180706030408,283.5228733493748 L78.53673773039576,281.62819292867573 L79.21018198832036,281.0839308357419 L80.09436390518731,280.6812792560165 L82.17098064998382,280.4782473153924 L84.27377598595281,280.95170415172197 L86.35039273074932,281.6964389591376 L90.14039826781705,282.3729277360914 L92.34659903891932,282.4403206911725 L94.86497950975952,282.2372887505484 L96.39642709337811,281.96686385484304 L98.26492403834948,281.1547360923461 L101.17271105288793,279.4963575521215 L102.73360955157622,278.7729496292252 L104.4254010061303,280.1873486105484 L107.46277204697452,281.2699012687507 L109.22786355681262,282.38657694218375 L113.32873986405875,286.8191566206855 L114.8863660388503,288.37516611521727 L117.79349858861016,291.82670910582885 L119.71500718070604,293.24793269019835 L120.98663224693263,294.56764030425563 L122.46637711298575,296.3608047546426 L124.43893395786947,298.2896081905726 L132.25258895822301,304.21080440852495 L133.6020953331899,305.0903251261029 L135.83447469546513,306.1387547690742 L140.4294719111014,307.01912856203296 L143.20702043455407,307.0865215171141 L145.1533986882648,307.01912856203296 L146.5035595280117,306.81609662140863 L151.30536761391446,306.6463346206347 L154.16079744610653,306.30851676984815 L154.60256117215022,306.37590972492933 L158.05486288308563,307.8312563245297 L159.1969039230074,308.44035214640246 L160.10530103670916,309.3531428038306 L160.31276637175526,312.03691795174564 L159.92335982805747,314.9808810907967 L158.32712023128505,320.8176228460523 L158.44426942678436,325.2834724644042 L159.92335982805747,328.8868628727936 L165.141407513611,337.87657123539 L164.93394217856493,339.33191783499046 L164.05106919125657,342.78346082560194 L163.50590003007915,343.7303744982611 L162.20809637267865,345.422022978336 L161.06605533275734,347.1819174888727 L160.4947075804079,348.6031410732422 L159.94953841923044,350.97127833027076 L159.87165711049107,353.1705066619062 L160.10530103670916,355.40385800877254 L160.7545300977999,357.02811353376626 L162.41556170772472,358.78715496892215 L163.8953065737769,359.73492171696216 L165.42675415739598,360.2757715083727 L168.41176801589378,360.61444243454014 L170.77438586925572,361.25766127164366 L172.20177355296244,362.0015430036786 L172.90270533161817,362.6447618407822 L173.39617177522874,363.59167551344126 L174.87526217650233,365.3174470087471 L175.5761939551585,365.4863559341404 L178.74314902230847,365.4863559341404 L180.69018174079875,365.6893878747645 L183.45136864476774,365.75934005598805 L183.47754723594164,367.58662752160586 L183.8931323708124,369.9556178540154 L184.23018173216468,370.69949958605025 L184.72364817577525,373.40630776924615 L184.72364817577525,376.4176638633784 L184.56788555829607,380.7828505867989 L183.47754723594164,384.8426363239023 L183.01025938350404,386.2297368930408 L180.7261773036624,390.0873437649008 L178.9610857938243,391.238142453565 L176.67634924920267,393.5388867555124 L175.76795213549994,394.5873163984837 L175.11937753919017,395.6698690566859 L174.39226716936008,398.78274112113024 L173.5100486468308,400.6100285867482 L172.57547294195652,401.62518828986924 L170.23903367976803,403.0464118742385 L168.36988227001711,403.0805348894696 L166.2153842164822,402.3016770668229 L164.4411301997334,402.4543775599815 L162.88415848972093,402.7248024556868 L161.06670979753642,403.6043231732649 L159.69102483139656,403.33389827755957 L157.2250015429023,401.5066108119416 L156.49854563785317,401.3377018865483 L154.08422506692528,401.8111587228779 L153.02006533574382,402.3861315295195 L149.56776362480747,403.84147812912 L147.49114688001097,405.22857869825856 L146.2705700665717,405.8376745201312 L144.03819070429648,406.0065834455244 L142.64221732999667,406.50307331713486 L140.51389786763374,404.30384498549955 L139.39738095410684,403.39020125269053 L136.51642699552136,402.0704936386332 L135.6597325993855,401.4613978167605 L134.02422511585365,400.75078602457575 L131.8180243447514,400.6833930694946 L127.58690954641995,401.32575883121757 L126.41868991532618,401.35988184644845 L123.38131887448054,400.9538179652 L121.87604988203447,400.37884515855836 L119.02062004984336,398.6530736632525 L117.7483405188363,398.85610560387676 L116.52841817017517,398.68719667848353 L114.81502937790393,399.1265304995822 L113.51722572050343,399.80387235191665 L110.37644924452644,402.5439504749628 L108.55965501712194,403.1197763569852 L106.74220632493838,403.39020125269053 L104.7951736064481,403.2886852823784 L103.39396451391531,402.6795894605059 L99.34413645945556,400.6160001144135 L98.66938327197234,400.4803611288704 L97.00769719726752,400.71751608472573 L93.47751417759225,402.23940256402653 L89.09063676178069,403.0515303265233 L86.96231729941778,402.81522844604893 L85.5866323332784,402.81522844604893 L82.41967726612701,403.22129232729736 L80.9661109912473,404.64166283628606 L80.03153528637304,405.25075865815865 L76.16364844056547,406.06288642065545 L74.21399786295753,406.3563443516417 z"/>
	
</g></g></svg>