<svg xmlns="http://www.w3.org/2000/svg" version="1.2" baseProfile="tiny" width="600" height="600" stroke-linecap="round" stroke-linejoin="round"><rect id="backgroundrect" width="100%" height="100%" x="0" y="0" fill="none" stroke="none" class="" style=""/>































































































































































































































































































































































































































































































































































































































<g class="currentLayer" style=""><title>Layer 1</title><g class="city city-68" id="aksaray" title="Aksaray">
	<path id="aksaray-agacoren" title="Ağaçören" class="district" d="M307.09914630270964,197.0814956666522 L301.592129509909,193.55746371090567 L299.0719692826943,192.73620186134596 L289.9512378879943,191.72876972113093 L286.02144258419514,190.43482018323962 L281.63661835048174,188.60480583679345 L272.89030469997437,187.4679787427888 L268.37819964670587,188.54142871657004 L264.82494343409513,189.98193784497764 L261.38517928558554,190.71077472754504 L259.0665470226695,190.8692175281033 L255.4740458906938,189.88687216464263 L254.40382633292649,188.87151788439945 L252.33869503562596,185.97201463418628 L255.78588389860835,183.96375213711198 L257.43629185885334,182.68564687927662 L258.60939674576474,180.44896267806473 L259.1227627179738,178.80511862227456 L260.1494946623939,177.38969627062204 L265.17390501437774,174.6512765343094 L266.970685917113,172.73411864755641 L268.18091437639356,169.81216933393046 L269.244769893185,165.61343511914077 L270.60137129495473,161.5044851580003 L273.20532472837635,156.16364242252104 L274.8546720151255,151.7813786304177 L275.11135500123055,150.59437798290324 L276.24839698926763,138.95411356856772 L276.24839698926763,130.3255827215073 L276.5050799753716,128.40842483475436 L276.83494943272336,121.74458471461445 L277.45862544854714,116.22021240182188 L278.0091149931285,112.93384464691252 L279.5120893373874,107.63921439492894 L280.7594413690393,104.89947430194528 L284.57256258824566,94.62841975576572 L285.78279104752625,91.9811046297739 L285.8199146198975,91.25094739053544 L289.91305364212724,93.0545546035551 L291.8678748958119,93.44141910825125 L294.97140554599173,93.09284494702347 L297.11290533502427,91.97318248974611 L303.2573868991038,86.56500156402925 L304.43685582699214,85.21295633260019 L304.99583075954206,83.66681867048739 L305.24402835767745,76.40353662156924 L306.1434794825404,73.35219235415443 L307.757824543912,71.807375048713 L309.6818862662045,70.91877500891606 L315.45407143307983,69.95227392551179 L319.5811520071924,70.64810189129594 L323.1503183222487,70.60981154782796 L326.3779477714952,69.87569323857547 L328.3338296986767,68.94748249863915 L330.3501700151468,66.93922000156526 L333.2001996997101,63.16564063493936 L336.8414918125152,58.01492926012967 L339.0763308692232,56.00666676305581 L341.6421000567788,54.04857781949176 L345.9038861649214,51.318080223206834 L345.91449289988367,54.008967119352036 L345.6037155654671,57.0972813735639 L344.6735049092109,62.020891400907296 L344.6735049092109,72.01335068943864 L344.59607574397995,76.01931283021588 L345.0224664894936,79.78497005681362 L345.7978188152909,80.89539001739178 L347.65930080130005,82.24611489214942 L357.19793755354397,88.71454222493426 L365.14768540832944,92.62411832870553 L370.18800586275563,95.66489974274985 L373.8335406695472,99.4305569693476 L374.8411804910343,104.93380357539914 L377.8269763831234,122.60017583762851 L379.02871945443434,125.54457121466643 L380.6186690253908,128.39258055469844 L381.0843046902673,131.33697593173667 L380.9294463598063,141.61859333128646 L380.26970744510817,143.69419401859784 L377.90440554835334,146.15665921060506 L373.29047583943964,151.51466658281174 L369.5675118674203,154.98984534171933 L364.0615557481165,159.28496559351572 L357.6243282990587,163.4850201649768 L355.41388473276476,165.2226095444306 L347.8915882969898,171.5457976433705 L341.2995025174732,176.7598861384037 L337.7324575494084,177.6286808281306 L336.5688987239656,178.25585024700618 L333.11746716699895,181.34548485788946 L331.79905001109523,181.97265427676552 L326.7194846373051,185.496686232512 L323.7729336645767,186.8474111072697 L321.3683868484611,188.39222841271146 L313.6912320822263,192.4470437503276 L310.0456972754369,194.71541651165097 L307.09914630270964,197.0814956666522 z"/>
	<path id="aksaray-gulagac" title="Gülağaç" class="district" d="M570.726361788099,287.1865959873767 L570.3625507788687,290.6591340329419 L569.543710839722,293.2747605988222 L567.7278378140528,295.66724688724963 L562.3523445347957,300.98696391598776 L559.7886966942328,303.8230900459783 L557.4032420010492,307.72342365305036 L553.8425610739636,314.68170331089374 L550.7093315658874,321.90537465967213 L548.96452366447,326.8699157438262 L548.1817466242,330.06121781840056 L547.8964254536933,333.07427174234755 L547.7903581040638,340.56465513873195 L548.6802631674623,344.28806095184757 L551.4221041554024,350.2705970295876 L553.6643679265843,353.5503630011404 L557.3671791021759,357.0968410202992 L561.7116977430285,360.7753547065898 L567.4075144181708,366.04885925183237 L571.4667118885188,369.1516974294288 L577.3120835266398,374.0568224633735 L578.9730982218492,374.76585399587094 L584.8121058189911,377.83832397002686 L586.9026932802026,380.6770908133596 L579.9627065938992,382.15985135524926 L574.2955281031564,384.91939679830307 L568.9571583962675,391.6162458352255 L562.4276523530319,396.9333221506215 L560.1684178059087,400.0520046082736 L556.3287797492954,397.18418991817197 L553.517994984094,393.9202682266746 L552.599451736297,391.96878106646744 L551.3828592360385,387.6961068780837 L549.8692781568161,384.1971616990924 L548.8966405607066,382.95206535803993 L546.2746556778477,381.67396010020445 L541.0858409339376,380.42886375915197 L539.085410719913,380.19384027165745 L536.3287203030231,381.875974670916 L534.004784672625,382.41335983614204 L529.5722301315801,382.91905644125694 L525.3019586354669,383.2214181189886 L518.383185419088,383.2214181189886 L510.19372535414107,384.16283242563816 L504.2475897338718,385.37491984990737 L496.97773359021653,386.21598704953675 L496.2745070621679,386.51834872726846 L493.7341940385245,388.83953575544484 L490.544748835145,394.15529171416944 L487.95034146318994,397.2171988349548 L486.5990434289014,398.19294241505827 L484.73437942240264,398.96667142445057 L482.6671267781095,399.1013478049249 L480.38455741406676,399.99258855806414 L478.2229048286033,399.41295197935597 L475.7398681737609,396.54381693258273 L475.6242547626639,395.1283945809305 L475.9795803839246,392.5550194285324 L472.5026926630469,383.9713807082972 L471.45898994268543,383.26498988914204 L469.78100447153565,380.47771695599084 L464.710985159212,370.04293818256804 L463.86350703566586,366.7908997011126 L462.39977761076875,363.9521328577799 L460.22433626985446,361.4619401756752 L459.79688485084296,359.149995644198 L459.7671859929476,355.8913553793865 L460.08963073582447,354.84299218236004 L460.6464843213828,348.21876276235986 L462.20991705493134,343.3308023651424 L462.8357144177488,340.69140937917837 L463.53045555782774,334.245428109806 L464.3991471512985,331.90971715824537 L466.03258433560313,328.79499577060704 L468.5347131133807,325.07555102750587 L470.8278892123857,322.4797298116953 L476.22565663506623,317.7805804184761 L489.52119891121345,311.181437775231 L494.21361845885383,308.6489936796439 L504.213648181989,302.72455329544204 L507.9058526226182,301.15068814323143 L521.0348691598432,298.4083073369049 L525.6562235832317,297.3163723697251 L531.4114379741667,295.77155506428363 L536.7243515171435,293.96662749459233 L543.7110078372859,292.1603795682299 L553.3302557752504,290.604999409418 L560.5619276730364,290.11514708435914 L564.4418713225094,289.32557379491124 L570.726361788099,287.1865959873767 z"/>
	<path id="aksaray-guzelyurt" title="Güzelyurt" class="district" d="M560.1684178059087,400.0520046082736 L560.2097840722653,404.5504597874525 L561.072111624758,410.9396657199582 L561.811401051681,414.672314029773 L563.5360561566685,420.39738055660575 L564.9319024778011,422.69744187804116 L565.6308863118643,424.8443418256035 L565.9586344222213,429.54745228883667 L565.9586344222213,432.7691225668516 L565.1790394024397,437.11441637215745 L564.110941191664,439.0566610356659 L562.1805154283945,440.8457443253009 L555.0358187573028,444.68006009880725 L552.8179504765351,445.6003486987158 L549.6560827840583,447.6957547360963 L542.387287313902,455.6192151206734 L532.7362191710484,464.61612547903127 L526.7412925699488,469.7800404205543 L523.2092498272638,471.97843427829787 L521.5249003151349,472.7957350578434 L514.420509236905,472.9488964317165 L511.5057784690657,473.45987446351614 L509.45231458022647,474.32998950991447 L508.1784457111668,476.1190727995499 L505.0993105514011,482.5597726422367 L504.2475897338718,484.8717171737141 L502.52081328189047,482.45018303851754 L494.2846835831058,466.14245779107443 L491.3657101212822,459.1775763498742 L489.21148225029367,452.60220012671243 L487.6469888432472,449.96280714074896 L485.0059118374553,446.07039567370464 L481.5661476889479,441.6141919080077 L476.21398922660705,439.84095289842827 L473.01711930875274,438.0241421186954 L467.6310192945324,436.596836557001 L464.8859962861018,434.3033770189225 L461.79307237088415,430.8862939535524 L458.31724532350233,426.4736619580094 L457.0317090459845,424.2673459602378 L455.7111705430881,419.63949582726946 L455.885120996482,414.66439188974493 L456.71881036457523,407.8724771724875 L457.10171349674056,402.0761113854034 L457.44855373003156,399.9133671577851 L459.9856847331856,395.19837348451 L464.2952011486617,390.2232695469854 L467.6310192945324,388.146348503003 L469.3334002560963,386.5460762173663 L471.45898994268543,383.26498988914204 L472.5026926630469,383.9713807082972 L475.9795803839246,392.5550194285324 L475.6242547626639,395.1283945809305 L475.7398681737609,396.54381693258273 L478.2229048286033,399.41295197935597 L480.38455741406676,399.99258855806414 L482.6671267781095,399.1013478049249 L484.73437942240264,398.96667142445057 L486.5990434289014,398.19294241505827 L487.95034146318994,397.2171988349548 L490.544748835145,394.15529171416944 L493.7341940385245,388.83953575544484 L496.2745070621679,386.51834872726846 L496.97773359021653,386.21598704953675 L504.2475897338718,385.37491984990737 L510.19372535414107,384.16283242563816 L518.383185419088,383.2214181189886 L525.3019586354669,383.2214181189886 L529.5722301315801,382.91905644125694 L534.004784672625,382.41335983614204 L536.3287203030231,381.875974670916 L539.085410719913,380.19384027165745 L541.0858409339376,380.42886375915197 L546.2746556778477,381.67396010020445 L548.8966405607066,382.95206535803993 L549.8692781568161,384.1971616990924 L551.3828592360385,387.6961068780837 L552.599451736297,391.96878106646744 L553.517994984094,393.9202682266746 L556.3287797492954,397.18418991817197 L560.1684178059087,400.0520046082736 z"/>
	<path id="aksaray-ortakoy" title="Ortaköy" class="district" d="M480.177726082288,122.63978653776785 L484.2729864515104,127.60300726525055 L486.9427016417038,131.85851681690724 L495.16716393202944,140.9874628423967 L498.6567797348631,146.08535995035382 L498.86997510761887,148.69966615956267 L497.98007004422243,153.61931511689204 L495.20322683090376,159.11595993958673 L493.45841892948647,161.33151843405767 L492.49744874183705,163.63554082550712 L492.49744874183705,166.69480723294976 L493.3512909063601,170.63871261017528 L493.3873538052345,175.7801814882858 L493.6005491779913,178.3944876974947 L493.45841892948647,180.78829434259333 L492.88883726197207,183.44749267862701 L490.8237059646726,189.91856072475454 L488.7585746673732,195.45877731760302 L486.8716365174498,201.52977729232092 L484.5922491738978,209.66845581432267 L477.9672825159952,213.82229790228757 L466.30517742415486,219.82067826008313 L463.47105784203507,221.08029852452023 L458.08601850130833,222.79412148389025 L452.3764130707152,224.91197358468378 L442.13136776993326,226.12142029561065 L435.08637440749396,225.76756470769746 L430.2677347137952,224.91197358468378 L427.19072090102225,224.10523565850863 L422.9384808543473,223.8530475342873 L420.5095385478154,224.50794444326073 L417.22887542375315,225.71739115418757 L412.53221318212843,226.9281582217858 L408.5239280396024,228.33829914675292 L405.85103082892044,229.49757230416955 L403.5430053009668,230.15378956981436 L400.3440140361198,228.79250184168623 L395.930551618008,228.18777848622258 L394.3109031891541,227.53288157724913 L390.1806405945531,227.83524325498072 L385.68656699072176,229.6494133213713 L380.867927297022,233.22757990064167 L379.0053846375149,234.33667950454847 L374.8348164500552,235.7481407861873 L370.4213540319423,235.69796723267706 L361.95824020494894,233.83362361277665 L356.9773174663133,233.58143548855492 L351.79486676338223,234.74070864597195 L349.4051693762132,234.79088219948179 L342.6433758372869,234.03431782681682 L337.6221475057947,232.72452400886982 L335.07122774718675,231.21139526354006 L333.12807390196235,229.39722519714945 L328.94159561205703,221.60976154971848 L326.7247880047862,213.78400755881935 L324.4167624768325,209.02148104537707 L323.1110734028848,207.8872946647151 L318.16091019564345,204.97590820446004 L310.69058676118743,199.87272966981755 L307.09914630270964,197.0814956666522 L310.0456972754369,194.71541651165097 L313.6912320822263,192.4470437503276 L321.3683868484611,188.39222841271146 L323.7729336645767,186.8474111072697 L326.7194846373051,185.496686232512 L331.79905001109523,181.97265427676552 L333.11746716699895,181.34548485788946 L336.5688987239656,178.25585024700618 L337.7324575494084,177.6286808281306 L341.2995025174732,176.7598861384037 L347.8915882969898,171.5457976433705 L355.41388473276476,165.2226095444306 L357.6243282990587,163.4850201649768 L364.0615557481165,159.28496559351572 L369.5675118674203,154.98984534171933 L373.29047583943964,151.51466658281174 L377.90440554835334,146.15665921060506 L380.26970744510817,143.69419401859784 L380.9294463598063,141.61859333128646 L381.0843046902673,131.33697593173667 L380.6186690253908,128.39258055469844 L379.02871945443434,125.54457121466643 L377.8269763831234,122.60017583762851 L374.8411804910343,104.93380357539914 L373.8335406695472,99.4305569693476 L370.18800586275563,95.66489974274985 L365.14768540832944,92.62411832870553 L357.19793755354397,88.71454222493426 L347.65930080130005,82.24611489214942 L345.7978188152909,80.89539001739178 L345.0224664894936,79.78497005681362 L344.59607574397995,76.01931283021588 L344.6735049092109,72.01335068943864 L344.6735049092109,62.020891400907296 L345.6037155654671,57.0972813735639 L345.91449289988367,54.008967119352036 L345.9038861649214,51.318080223206834 L351.8213836007901,48.58890298359364 L362.0006671448003,44.15910635132324 L369.241885104055,42.25251131794045 L373.5110959266703,41.59893476563831 L376.1150493600919,45.55736406624844 L382.9595754317304,51.94921071209694 L393.8632989737148,58.339737001273726 L397.97022675139647,59.67857866598986 L399.09560133097216,61.01742033070569 L400.12233327539343,63.69510366013766 L400.9528406229981,68.74810864126994 L401.3930201239625,72.94684285605997 L401.29543816230273,77.26837024128245 L401.93078158658784,80.92047679414692 L403.15373812782445,86.09363423236894 L406.47788886523495,91.63253046854614 L409.6079363528215,95.5275826489332 L415.0343419599038,100.15411242522966 L420.4130172596514,103.44048018013936 L424.61858767248975,105.50947908409394 L432.34347274605807,110.25748167415192 L433.9758492568669,112.61563868912495 L435.6623201159863,116.5872715564483 L436.5787420167917,122.24764060638661 L437.0560450901273,130.55664513898807 L437.7889704760722,133.66080367325551 L439.2558819214579,135.71395829715456 L442.4463877983342,139.45716946033988 L444.75653467328164,140.872591811992 L447.90991697778657,141.3294352202681 L451.0272363834183,140.78148720167104 L454.65792176126,139.45716946033988 L459.20078634592176,137.57434084704084 L461.9511127218336,136.71874972402716 L465.49376219948203,135.14356421514518 L468.31727504663854,132.1767227746948 L473.30456182625005,126.10572279997663 L476.12807467340645,124.37077413386518 L480.177726082288,122.63978653776785 z"/>
	<path id="aksaray-sariyahsi" title="Sarıyahşi" class="district" d="M264.4568897308763,66.62365475712005 L259.3433828052044,61.03062389741892 L255.34570439764178,54.54899299792122 L252.48612865161095,52.40341340702986 L249.69867870332996,49.29925487276244 L249.44199571722496,43.729990433145076 L250.10173463192416,41.16849849078879 L253.07268109506668,38.70339258543887 L257.39916828648416,37.01465640282393 L262.4607022108361,35.55434192434662 L267.96135496265873,35.05128603257443 L275.40516155970687,35.188603126391506 L279.32859282252804,36.55781299454788 L282.66547164189456,36.832447182182015 L284.7189355307348,36.69513008836494 L291.21025732810426,36.832447182182015 L295.39037157703046,34.458445887153076 L298.2510079965582,32.4501833900788 L306.3556141818003,24.233603824469636 L309.69249300116894,21.083232806706047 L317.136299598216,15.33175914644681 L320.03299891661703,14.282075592749415 L323.9935537518084,14.235863109253266 L327.02601927773634,9.949985354156407 L330.67579677851217,10.045051034491049 L332.2954452073639,9.641021893067988 L342.5426118551397,5.493781588459531 L350.2505261527656,2.7725264888741425 L354.1134990262982,1.9063725124895887 L355.4987386124696,1.9248575058882733 L356.7588187260754,2.7223529353639155 L357.47795535656843,4.457301601475367 L357.66781591240584,9.833793967080373 L357.9541977564083,11.535733716408913 L360.1731267106718,12.796674337516993 L363.646832411061,18.046412462675814 L365.5539233574121,22.672942238972254 L366.9720438219683,27.055206031075535 L368.0963577280483,28.941995714388277 L369.9048060392438,33.20278669273002 L372.2032855057299,39.288310590832786 L373.5110959266703,41.59893476563831 L369.241885104055,42.25251131794045 L362.0006671448003,44.15910635132324 L351.8213836007901,48.58890298359364 L345.9038861649214,51.318080223206834 L341.6421000567788,54.04857781949176 L339.0763308692232,56.00666676305581 L336.8414918125152,58.01492926012967 L333.2001996997101,63.16564063493936 L330.3501700151468,66.93922000156526 L328.3338296986767,68.94748249863915 L326.3779477714952,69.87569323857547 L323.1503183222487,70.60981154782796 L319.5811520071924,70.64810189129594 L315.45407143307983,69.95227392551179 L309.6818862662045,70.91877500891606 L307.757824543912,71.807375048713 L306.1434794825404,73.35219235415443 L305.24402835767745,76.40353662156924 L304.99583075954206,83.66681867048739 L304.43685582699214,85.21295633260019 L303.2573868991038,86.56500156402925 L297.11290533502427,91.97318248974611 L294.97140554599173,93.09284494702347 L291.8678748958119,93.44141910825125 L289.91305364212724,93.0545546035551 L285.8199146198975,91.25094739053544 L280.8326278402849,84.26626059926559 L277.45862544854714,77.82952182659233 L275.51547160332166,75.82125932951841 L273.387760569741,74.99999747995868 L269.9776952791299,72.39757448079204 L267.08099596072884,69.61294226098315 L264.4568897308763,66.62365475712005 z"/>
	<path id="aksaray-sultanhani" title="Sultanhanı" class="district" d="M247.79476977746737,521.8931978807872 L245.19081634404574,519.9377496505659 L242.70353699521797,519.3964034153257 L239.83547586121648,518.3506809316419 L229.0144848519421,520.9055710906415 L222.01828247033433,523.0537913948751 L211.4306396302477,526.8854664550388 L205.61602752351996,529.8311821887484 L204.70172696970832,525.6905436674964 L202.54962044571135,521.1511574315065 L201.0116438760728,518.2529745379647 L198.41935785111036,516.6672261757121 L195.78252353930282,515.7918297026289 L192.7956669737169,513.8773125292182 L188.79692789265738,510.9236746554806 L186.60027308181748,508.2988055929014 L181.72329634581968,505.1259885117254 L172.71711768871774,497.85214360943706 L165.51090195484164,488.8829607411767 L162.21645007532862,485.7101436600008 L158.17422338092086,480.73371936580475 L156.02105618342813,477.0697296028985 L154.22003258670543,470.8891400244611 L153.0331389443453,463.17693670729506 L150.3093294058403,451.80074362722274 L149.47457936425127,445.2385709707747 L149.25501995051644,437.9092710882907 L149.43109175090308,431.5649572826097 L150.3538776926854,422.81363326511723 L152.06686538921264,419.25923310593015 L154.4830796137906,416.57890906315555 L158.56985459504125,414.0636296042958 L164.80979677378576,406.3170970136755 L169.99436882371066,397.09836673453606 L173.94431692393863,383.88423716798985 L175.67215404941572,368.212923836122 L176.1367290407964,355.682739025318 L193.2432711891562,364.1132163716807 L204.7600640120042,376.6816915259525 L215.3296754026547,391.41027019449996 L232.99943517754974,416.5485408597153 L247.03957024810097,441.2920248802065 L252.2464164414473,453.66508724712315 L254.90658557017213,478.6713222452066 L253.32936408117172,497.39265948781843 L247.79476977746737,521.8931978807872 z"/>
	<path id="aksaray-merkez" title="Merkez" class="district" d="M307.09914630270964,197.0814956666522 L310.69058676118743,199.87272966981755 L318.16091019564345,204.97590820446004 L323.1110734028848,207.8872946647151 L324.4167624768325,209.02148104537707 L326.7247880047862,213.78400755881935 L328.94159561205703,221.60976154971848 L333.12807390196235,229.39722519714945 L335.07122774718675,231.21139526354006 L337.6221475057947,232.72452400886982 L342.6433758372869,234.03431782681682 L349.4051693762132,234.79088219948179 L351.79486676338223,234.74070864597195 L356.9773174663133,233.58143548855492 L361.95824020494894,233.83362361277665 L370.4213540319423,235.69796723267706 L374.8348164500552,235.7481407861873 L379.0053846375149,234.33667950454847 L380.867927297022,233.22757990064167 L385.68656699072176,229.6494133213713 L390.1806405945531,227.83524325498072 L394.3109031891541,227.53288157724913 L395.930551618008,228.18777848622258 L400.3440140361198,228.79250184168623 L403.5430053009668,230.15378956981436 L405.85103082892044,229.49757230416955 L408.5239280396024,228.33829914675292 L412.53221318212843,226.9281582217858 L417.22887542375315,225.71739115418757 L420.5095385478154,224.50794444326073 L422.9384808543473,223.8530475342873 L427.19072090102225,224.10523565850863 L430.2677347137952,224.91197358468378 L435.08637440749396,225.76756470769746 L442.13136776993326,226.12142029561065 L452.3764130707152,224.91197358468378 L458.08601850130833,222.79412148389025 L463.47105784203507,221.08029852452023 L466.30517742415486,219.82067826008313 L477.9672825159952,213.82229790228757 L484.5922491738978,209.66845581432267 L484.34405157576236,211.45885946062907 L483.5252116366179,220.54423371596516 L483.7034047839961,223.07007602819587 L484.7354400958984,228.87700466865033 L487.4062159595867,233.61840547535186 L488.04686275135396,234.4607930316523 L491.6425459038171,237.11999136768603 L499.51062189938614,242.4832801665781 L501.7900092429393,243.50259551683527 L505.49282041852985,246.64900546458483 L509.3738247414997,248.46581624431766 L519.7344834533776,252.23279382758676 L522.9387780857057,253.07518138388764 L530.7718518558974,254.31631665492608 L531.9460174163036,254.93688429044522 L534.9371166758748,257.19733491174094 L535.6138263665165,257.3742627056973 L540.2776077297565,257.4191548325221 L542.9123206945702,258.3500062858011 L545.7252268067633,261.6297722573539 L549.1077145864707,265.0415738960386 L550.9585898375186,268.3662319944162 L552.9165931116918,270.9369664334717 L554.6974639119825,271.51264194216606 L563.7047032425802,272.88713323700745 L567.4796402159195,275.1911556284566 L569.3305154669663,277.1862145588176 L570.6839348482476,279.31330915631025 L570.9681953452564,281.75068757156237 L570.726361788099,287.1865959873767 L564.4418713225094,289.32557379491124 L560.5619276730364,290.11514708435914 L553.3302557752504,290.604999409418 L543.7110078372859,292.1603795682299 L536.7243515171435,293.96662749459233 L531.4114379741667,295.77155506428363 L525.6562235832317,297.3163723697251 L521.0348691598432,298.4083073369049 L507.9058526226182,301.15068814323143 L504.213648181989,302.72455329544204 L494.21361845885383,308.6489936796439 L489.52119891121345,311.181437775231 L476.22565663506623,317.7805804184761 L470.8278892123857,322.4797298116953 L468.5347131133807,325.07555102750587 L466.03258433560313,328.79499577060704 L464.3991471512985,331.90971715824537 L463.53045555782774,334.245428109806 L462.8357144177488,340.69140937917837 L462.20991705493134,343.3308023651424 L460.6464843213828,348.21876276235986 L460.08963073582447,354.84299218236004 L459.7671859929476,355.8913553793865 L459.79688485084296,359.149995644198 L460.22433626985446,361.4619401756752 L462.39977761076875,363.9521328577799 L463.86350703566586,366.7908997011126 L464.710985159212,370.04293818256804 L469.78100447153565,380.47771695599084 L471.45898994268543,383.26498988914204 L469.3334002560963,386.5460762173663 L467.6310192945324,388.146348503003 L464.2952011486617,390.2232695469854 L459.9856847331856,395.19837348451 L457.44855373003156,399.9133671577851 L457.10171349674056,402.0761113854034 L456.71881036457523,407.8724771724875 L455.885120996482,414.66439188974493 L455.7111705430881,419.63949582726946 L457.0317090459845,424.2673459602378 L458.31724532350233,426.4736619580094 L461.79307237088415,430.8862939535524 L464.8859962861018,434.3033770189225 L467.6310192945324,436.596836557001 L473.01711930875274,438.0241421186954 L476.21398922660705,439.84095289842827 L481.5661476889479,441.6141919080077 L485.0059118374553,446.07039567370464 L487.6469888432472,449.96280714074896 L489.21148225029367,452.60220012671243 L491.3657101212822,459.1775763498742 L494.2846835831058,466.14245779107443 L502.52081328189047,482.45018303851754 L504.2475897338718,484.8717171737141 L501.60863407507156,490.48323302681337 L499.63684204544654,496.7205979421178 L498.445705709099,501.1160653009341 L496.7624168704681,505.15503635849467 L494.8319911071976,508.9378582218193 L491.91938168635306,513.4666816044383 L491.05387211337086,514.970567853069 L487.6459281697513,517.5769519222503 L486.2903874414774,517.7816072063044 L480.0080183228805,516.0440178268502 L475.4492436357742,514.4582694645982 L471.46535398366336,513.2831520271254 L465.3876948498515,511.9033793055986 L462.2671934237303,511.3910809171273 L460.99438522816956,510.67544760127305 L455.4905504558574,509.8066529115462 L453.3140484414463,509.8066529115462 L451.13754642703407,510.1644695694731 L445.1426198259344,511.6472301113628 L443.1305222034497,512.5675187112713 L440.5838451388281,514.1004528066708 L435.4098798238666,520.6441404697206 L432.9045690256006,524.6316176171 L428.34579433849547,531.4816280278955 L426.16929232408324,534.0893324537475 L421.2414032602635,538.0253156909451 L418.5313824772113,541.80813755427 L417.4632842664356,543.8018761279595 L416.683689246654,546.614235837866 L415.4925529103065,548.7611357854282 L413.15164650396787,551.828324332899 L407.197025495728,557.2972416654964 L403.65649736507214,559.840248614454 L403.38178292952887,558.7918854174277 L401.93608495407,557.2827177421117 L399.604724609198,555.8316457603339 L394.59622435965974,551.8309650462417 L388.7911583143995,548.4257651909138 L383.6511345513198,542.9555275016451 L378.75824771287637,537.5882776327388 L374.2811448849854,529.0204831925594 L371.62840047073337,522.4147387659577 L369.4720512527532,518.1829956343847 L365.0776809575733,512.8157457654788 L362.42387586982437,510.7520282882094 L357.2000589005377,509.5122133738422 L351.3133209960612,509.7195093712393 L346.586959896539,510.1314606526901 L340.12003358958583,513.5379808646896 L333.40384901100145,516.6342172589292 L325.5994134252094,521.5631087129576 L313.783510676405,531.859250035892 L307.8755593020017,536.1939809878278 L302.52764353364734,540.838995757523 L297.61460389877624,544.7102815178257 L290.96099905647304,549.3539759308499 L285.5505035518364,552.7604961428491 L281.26007925929326,553.0707799606089 L275.9736825537243,551.599902628761 L270.62576678536993,548.8905307392175 L266.64505915374764,546.335640580218 L260.30223164586215,539.9094646609152 L257.8775320333157,537.2779938149795 L255.7010300189035,532.1682134969805 L253.33784946914238,527.7569018581083 L251.28544625379794,524.8917278813495 L247.79476977746737,521.8931978807872 L253.32936408117172,497.39265948781843 L254.90658557017213,478.6713222452066 L252.2464164414473,453.66508724712315 L247.03957024810097,441.2920248802065 L232.99943517754974,416.5485408597153 L215.3296754026547,391.41027019449996 L204.7600640120042,376.6816915259525 L193.2432711891562,364.1132163716807 L176.1367290407964,355.682739025318 L176.41250414983443,348.23856811242985 L176.65964107447297,322.4255951881713 L176.65964107447297,292.617222976506 L174.68466702435842,250.8239732592911 L173.68975528482736,223.06743531485313 L186.64906406264686,221.4935701626425 L214.95525765845997,210.92279465207443 L221.7488714022743,207.86880967131682 L229.48542388430081,203.8760510972524 L236.14857478807153,199.10428208711068 L240.89190666353403,195.45217553424624 L242.55398203223928,193.62612225781425 L246.4721099275793,190.9484389283823 L252.33869503562596,185.97201463418628 L254.40382633292649,188.87151788439945 L255.4740458906938,189.88687216464263 L259.0665470226695,190.8692175281033 L261.38517928558554,190.71077472754504 L264.82494343409513,189.98193784497764 L268.37819964670587,188.54142871657004 L272.89030469997437,187.4679787427888 L281.63661835048174,188.60480583679345 L286.02144258419514,190.43482018323962 L289.9512378879943,191.72876972113093 L299.0719692826943,192.73620186134596 L301.592129509909,193.55746371090567 L307.09914630270964,197.0814956666522 z"/>
	<path id="aksaray-eskil" title="Eskil" class="district" d="M173.68975528482736,223.06743531485313 L174.68466702435842,250.8239732592911 L176.65964107447297,292.617222976506 L176.65964107447297,322.4255951881713 L176.41250414983443,348.23856811242985 L176.1367290407964,355.682739025318 L175.67215404941572,368.212923836122 L173.94431692393863,383.88423716798985 L169.99436882371066,397.09836673453606 L164.80979677378576,406.3170970136755 L158.56985459504125,414.0636296042958 L154.4830796137906,416.57890906315555 L152.06686538921264,419.25923310593015 L150.3538776926854,422.81363326511723 L149.43109175090308,431.5649572826097 L149.25501995051644,437.9092710882907 L149.47457936425127,445.2385709707747 L150.3093294058403,451.80074362722274 L153.0331389443453,463.17693670729506 L154.22003258670543,470.8891400244611 L156.02105618342813,477.0697296028985 L158.17422338092086,480.73371936580475 L162.21645007532862,485.7101436600008 L165.51090195484164,488.8829607411767 L172.71711768871774,497.85214360943706 L181.72329634581968,505.1259885117254 L186.60027308181748,508.2988055929014 L188.79692789265738,510.9236746554806 L192.7956669737169,513.8773125292182 L195.78252353930282,515.7918297026289 L198.41935785111036,516.6672261757121 L201.0116438760728,518.2529745379647 L202.54962044571135,521.1511574315065 L204.70172696970832,525.6905436674964 L205.61602752351996,529.8311821887484 L200.33069149144677,534.2015627708095 L196.59924213145462,538.5547787161436 L190.0697360882213,546.6842147414459 L188.43735957741137,549.2958802373121 L186.19827782671797,554.6961390230008 L184.56590131590912,559.2249624056199 L183.5402300449848,566.4816426711816 L182.14120170336258,571.1266574408766 L180.36881629104153,574.4935669527363 L178.8722059877585,576.5757694234043 L177.19740253709824,578.9061989482794 L171.7869070324616,584.5969362016584 L164.3706779463172,589.0663435340684 L157.51448446622055,592.3183820155235 L148.46693954276412,595.1637506422127 L137.50593963197966,597.1376838658326 L133.35552424094982,597.7754161380789 L129.25071781025983,596.6729183175289 L124.77361498236883,592.2021906284476 L118.33638753331098,583.6093094115125 L114.04596324076996,576.1783420653376 L110.92121912066341,571.0104660538007 L107.37644829602229,567.9908103464973 L102.10596169289681,564.6819965281755 L97.06882325895904,561.3731827098534 L86.94787675724365,555.740541150013 L82.70306142504356,552.8383971864567 L75.89353757878473,545.1737267094583 L73.51550760007385,542.0391999717507 L71.13641694786931,536.7551325731376 L68.15168172927494,532.0533424665758 L64.70025017230935,527.9879642755891 L61.15547934766718,524.9115332314191 L54.57930367059291,519.8598486069582 L51.64123808583739,516.609130482174 L48.609833233406334,512.3707855672448 L47.95645835968406,510.5130437307013 L48.003127993521815,509.0025556987136 L48.888790362932866,506.39089020284746 L51.31455064897625,503.31313880200605 L53.693641301181856,501.1068228042349 L56.44502835058953,498.9586025000012 L58.77744936895738,496.86847788930544 L61.10880971382943,494.31358773030604 L62.741186224638284,492.10727173253434 L65.5869732152162,486.41785483582674 L66.28595704928046,483.6886775962131 L65.72592144323264,480.2636723908155 L64.14021456626045,475.27008345989253 L61.52883641836502,465.6908958094839 L58.12407449523508,455.0078899818534 L56.585037252100676,450.47906659923393 L54.53263403675726,446.93787000676014 L52.62023972292289,444.9058410896025 L47.72311019049843,442.64142939829304 L42.21927541818624,441.59570691460937 L37.97552075948087,441.36464449712867 L34.29074103332755,442.5252380112171 L29.34694186706426,443.7439272188431 L25.10212653486309,443.3385777207487 L20.018318467087596,443.5709604949004 L16.56794758361673,441.88618538229923 L13.16318566048679,438.3449887898258 L10.924103909793388,432.7717632801943 L9.151718497472302,426.26900667395523 L8.778361426774463,423.94649928910746 L8.965039962123384,420.92684358180406 L10.41073793758332,416.97897713456496 L13.535482057688828,411.8124214796992 L16.14792087908114,408.50228730470604 L17.686958122214463,406.876928242314 L25.428813971724253,397.5288030093856 L30.372613137988594,390.85307967920414 L31.632693251595413,388.3562852137427 L32.28500745182083,386.208064909509 L33.68403579344195,379.066255674352 L33.77737506111748,373.5511258582586 L32.79837342402985,369.3708766368672 L32.23833781798308,365.7702639941845 L34.22073658257145,356.90670965962954 L35.89978272721805,350.3273723664542 L40.8128223620881,341.8889728800634 L45.2899251899791,333.1416099325847 L49.64292921880451,324.8590125334097 L53.871834448560094,316.18823027286726 L60.463920228077825,304.7314954358446 L70.78745536758561,284.21711383358365 L77.44106020988875,270.8247361164097 L79.68014196058215,263.31586772662655 L94.9517189603396,233.79137219929456 L105.07902950303196,214.61847297509217 L112.46343838428629,197.54626121495602 L132.1113542297854,213.03668568285383 L146.83138101146574,223.8438050375881 L163.43728526957256,224.31253165590556 L173.68975528482736,223.06743531485313 z"/>
	
</g></g></svg>