<svg xmlns="http://www.w3.org/2000/svg" version="1.2" baseProfile="tiny" width="600" height="600" stroke-linecap="round" stroke-linejoin="round"><rect id="backgroundrect" width="100%" height="100%" x="0" y="0" fill="none" stroke="none" class="" style=""/>































































































































































































































































































































































































































































































































































































































<g class="currentLayer" style=""><title>Layer 1</title><g class="city city-72" id="batman" title="Batman">
	<path id="batman-merkez" title="Merkez" class="district" d="M258.0040190377395,291.4729106901088 L255.77853798324236,293.67720417176633 L254.09166074697652,294.8822540481024 L250.18678306479922,296.71420065785844 L247.2955278460999,298.9130781850155 L245.7046517533609,300.69221923839285 L244.98152625666154,302.6812285286599 L245.75202894107724,305.6654194583733 L246.86165254808077,307.49736606812934 L250.42865607576448,310.5343625542214 L250.86253137378498,313.46574792755587 L249.7055305790651,316.9211268988029 L247.87278147536216,318.3333370347789 L245.9939019520425,318.70026795217996 L238.71526979733488,320.68927724244725 L234.81039211515758,321.109013716227 L231.7258878413062,321.8415215624044 L226.23013406639126,325.92379726707134 L225.41100742616362,328.0712232264749 L227.0492607066176,332.2063044875203 L227.5317599604499,338.1733323583218 L228.15888431362112,339.27277112190035 L231.05013953232043,342.04709381472384 L233.301802716871,349.69035960339534 L236.86132563596772,356.93961470216317 L238.1218081828015,364.8008726594752 L235.24426741317671,367.2800258320274 L234.32789286132652,368.64078440024974 L234.42514077295039,370.4199254536272 L235.91876895406293,372.6188029807842 L239.82364663624014,377.5920032007648 L242.1376482256785,380.1578116453233 L243.5838992190773,383.5075795038128 L247.15090274676106,392.7201181089711 L251.00715647312512,402.98064390995455 L253.89841169182438,408.73915753249116 L255.6339128839021,410.30978433760356 L261.6109191445512,414.0264831134942 L271.6374281867163,418.89542620934225 L284.60381640339267,422.7691876657442 L292.0756976132538,424.6011342755001 L301.6683313573997,427.3754569683232 L318.2017231017612,433.0283594781026 L326.87798229405445,436.7978638103721 L335.554241486349,439.99056898835005 L341.9651230450171,443.28888527908606 L345.34012428564716,444.7552549600656 L350.01550465223744,448.3148910554452 L351.02788034761585,449.7284551800462 L351.94300813137033,453.0782230385356 L352.2322583300493,455.32855213344646 L353.38925912476776,457.7372978974936 L357.82401324849246,462.8147552416066 L359.427357022209,465.58772394580484 L360.8012954659364,468.03302740272966 L359.1343665192352,468.31601102537496 L350.95681456604274,470.40250749664915 L348.9033875090374,472.6934562503127 L347.47583803710484,477.1805745538837 L342.01374700083034,479.1370881171483 L333.387358532446,480.9013352956495 L327.24577888289224,481.44428473431327 L319.33129499832944,480.966326749654 L315.39275457751296,480.500554662621 L308.2998908693717,476.4142169920787 L306.4534273165928,476.30318992482097 L299.4216552452411,474.7379790742091 L294.2986851315544,475.8035681221602 L290.8314230516911,476.0540560178029 L281.86092658832837,475.5192305108897 L275.9200766025138,473.56407093625 L270.49538860917056,468.4392239902586 L267.5804447966145,466.5016662677451 L262.7217895196531,462.2718058029428 L258.82813275035767,461.10466760810954 L255.6750562311284,460.78241831533654 L250.96601312589763,461.18455293699014 L247.71693546314276,463.4308200660256 L247.0050308793239,464.84303020200156 L246.7058065358613,467.4697681346895 L246.85791224378852,469.9150715916143 L246.02257761828986,473.3961763467379 L243.95543611220864,475.49350472701315 L241.78231931781693,475.5517262378923 L240.98812803954576,474.8787938912192 L241.2985732958876,473.15381238284556 L243.1388030081776,471.20677673995635 L243.77590150613105,469.8202923878575 L243.31335054186331,467.7581677118351 L241.06293412541106,465.26141268715645 L238.88108995433527,464.34611637659106 L235.81404043385191,464.3948599670946 L232.87166772314544,465.2939084141587 L228.9094387084722,465.3846256520405 L226.41465574485932,463.9873093909404 L223.66054501691173,463.2602174992636 L221.6482613071326,463.6948478479194 L218.26079238552506,465.1977752217771 L215.1825219521624,465.57418405955383 L209.69674232202982,464.81730441812493 L208.5360012230177,463.2453236243873 L208.45994836905413,460.5711960898213 L207.41889700742718,457.1280030162002 L206.26937682129568,455.6440314830942 L204.4029649789523,454.5594865943914 L203.19235315602998,454.46876935650994 L201.5740481651407,455.50863262058454 L199.8086245387147,458.273477393032 L198.90471766784077,459.10888837471674 L197.0108769273484,459.5381027688724 L195.37262364689443,458.0839189855184 L195.74042023573358,455.4666589732063 L195.45366357324852,453.8066689188375 L193.01747871023122,453.3029851503018 L189.77962196035432,455.23106495243934 L187.56660858683472,455.4084374623272 L183.06577575393138,453.45056991043725 L181.29287151891964,453.2312237531716 L179.4314467489694,453.9447757585974 L176.92419610437898,456.30883989801674 L175.57020595021353,456.9194887679353 L173.98307016176807,456.58776155478637 L172.2338545206145,453.83916464584024 L172.77370510694413,451.6754908229353 L174.19751427458309,450.73988468299353 L177.7370889041165,449.740641077672 L178.791854714818,448.68994590459704 L178.4751756179874,446.407121082684 L177.6049314857539,445.69492306588285 L175.38194396745192,445.4755769086172 L172.22014007153996,445.59066594175033 L170.175440391216,445.35913388685884 L168.7840471941192,444.4655013942949 L167.93001104715685,442.96798997493784 L166.96501253949208,439.22691940379553 L164.22461626062173,437.8553289265723 L162.66366260222833,438.0096836298335 L161.44182986642681,439.72789519508143 L162.33700936061538,442.10820719800165 L161.9442774098225,443.850790558501 L159.74996555776917,447.445630358133 L157.8860472516223,448.9079380732376 L155.0658578144961,448.5477770989618 L149.43295954882677,446.5127321954415 L147.22992032008943,444.8229543913204 L146.77110966011526,442.9409102024361 L147.14264655324658,441.3892392380753 L146.40954691176623,440.4143674280055 L142.30892663824028,440.34125204225023 L140.0472893089087,440.87201558328803 L138.23947556716084,442.0486316984974 L135.81949868941325,444.2014736124012 L133.96929483234095,445.05719442346225 L131.70391719871586,444.87169798182396 L129.1555232069006,443.4689657662237 L129.41609773933095,442.4060846955228 L132.80231989284147,440.2816765427459 L135.57263860605744,438.13695856059263 L136.49400023029943,436.45259671097205 L136.60496259100043,434.6328359988419 L136.058878164182,433.27072344199485 L134.37574123220972,432.125249065163 L132.51306969415984,432.2322141665454 L131.36604304422363,433.2625995102444 L128.01223686125655,437.5330796337994 L125.88400371838458,438.6975098513828 L122.5887956360117,438.60950059075134 L115.12190149854382,435.4438751852749 L115.00719883354793,433.4792376902597 L113.01860371762552,427.7112461473472 L112.80665314100582,424.5659305712477 L113.2654638009814,423.608660613304 L115.76149353269253,422.7217980638657 L117.24514756902397,421.55195189178215 L118.84350427034872,419.3652602622507 L119.49431721737801,417.898890581271 L119.68756627253006,410.5494403242456 L119.49057691308448,404.3576503416779 L119.1963396420137,402.3699950400357 L122.32572756738483,401.0268383239397 L124.51380557894936,399.60244229033793 L128.6206596929614,392.9083225278597 L129.62306124356016,391.88606111591156 L131.29871756694402,391.4433068355047 L133.5316792300283,388.9966493899549 L135.16619220618873,385.2582867960629 L136.0775796856497,383.7580673994555 L138.8765740651143,380.8510538213727 L140.73176499457713,379.7367211829181 L146.57162676447308,376.8324155820853 L155.95979054058773,375.1751335049667 L158.68896590657752,373.4894176667215 L160.2000488410607,372.1936505525039 L161.08650095856524,369.0876006465319 L162.86937933835927,367.67403652193053 L166.61217716782573,367.39646885378573 L168.0708958422034,366.99162625488174 L169.81013733857472,365.74595671979296 L171.33742825832633,363.5931148058893 L173.11157926143503,359.5284409533485 L174.15263062306335,354.35620440547854 L175.01414737861282,352.6258069426052 L177.42290334348112,350.57316018695843 L180.18948175240487,349.02013523397244 L184.6840807448207,348.2524236835425 L185.71391119356716,347.6390668363737 L187.52297170341458,345.33457819645895 L188.89067630665457,341.41478112680386 L189.14875730289094,338.5673430482249 L190.49776038466194,335.0632204864748 L192.5437068330829,331.53201815222207 L194.17323273685145,328.7319696755221 L195.30903847390837,327.43214059542913 L198.00330433316344,325.9942046755764 L200.19512264902016,323.2713335505068 L199.80488423442245,321.21056286310954 L197.38366058857798,318.4727978631638 L196.2590757644003,316.53659412927533 L195.0546977819655,313.00132982914766 L194.67069320785657,311.1043917653868 L195.40254608124135,309.4349237906424 L201.64262041051597,302.80579548216866 L206.6708361487726,296.67899695360586 L208.39386965987416,293.6379385016384 L209.41372596383826,289.8359384423666 L209.40873889144916,285.40027170654963 L210.41737428253396,283.79308720855954 L214.51300748366543,280.1400258980484 L217.3830676447045,278.50305365030664 L219.13477682205337,277.95604224576743 L222.21554079161257,277.5335977947371 L224.6093355393067,276.23241472601944 L225.65911427761773,274.4681675475182 L228.3870428755119,268.8369288557408 L229.45801667148453,266.05177425391656 L234.80665181086408,265.7714986085215 L236.45113893180678,266.3320498993117 L240.301158817682,270.71761905599993 L243.40062430870626,276.6832929381766 L245.93530385144697,282.03831795043436 L247.25064419458153,283.7213258114297 L252.93216641606142,288.77034939441546 L255.74986231699233,290.5549064022931 L258.0040190377395,291.4729106901088 z"/>
	<path id="batman-besiri" title="Beşiri" class="district" d="M359.427357022209,465.58772394580484 L357.82401324849246,462.8147552416066 L353.38925912476776,457.7372978974936 L352.2322583300493,455.32855213344646 L351.94300813137033,453.0782230385356 L351.02788034761585,449.7284551800462 L350.01550465223744,448.3148910554452 L345.34012428564716,444.7552549600656 L341.9651230450171,443.28888527908606 L335.554241486349,439.99056898835005 L326.87798229405445,436.7978638103721 L318.2017231017612,433.0283594781026 L301.6683313573997,427.3754569683232 L292.0756976132538,424.6011342755001 L284.60381640339267,422.7691876657442 L271.6374281867163,418.89542620934225 L261.6109191445512,414.0264831134942 L255.6339128839021,410.30978433760356 L253.89841169182438,408.73915753249116 L251.00715647312512,402.98064390995455 L247.15090274676106,392.7201181089711 L243.5838992190773,383.5075795038128 L242.1376482256785,380.1578116453233 L239.82364663624014,377.5920032007648 L235.91876895406293,372.6188029807842 L234.42514077295039,370.4199254536272 L234.32789286132652,368.64078440024974 L235.24426741317671,367.2800258320274 L238.1218081828015,364.8008726594752 L236.86132563596772,356.93961470216317 L233.301802716871,349.69035960339534 L231.05013953232043,342.04709381472384 L228.15888431362112,339.27277112190035 L227.5317599604499,338.1733323583218 L227.0492607066176,332.2063044875203 L225.41100742616362,328.0712232264749 L226.23013406639126,325.92379726707134 L231.7258878413062,321.8415215624044 L234.81039211515758,321.109013716227 L238.71526979733488,320.68927724244725 L245.9939019520425,318.70026795217996 L247.87278147536216,318.3333370347789 L249.7055305790651,316.9211268988029 L250.86253137378498,313.46574792755587 L250.42865607576448,310.5343625542214 L246.86165254808077,307.49736606812934 L245.75202894107724,305.6654194583733 L244.98152625666154,302.6812285286599 L245.7046517533609,300.69221923839285 L247.2955278460999,298.9130781850155 L250.18678306479922,296.71420065785844 L254.09166074697652,294.8822540481024 L255.77853798324236,293.67720417176633 L258.0040190377395,291.4729106901088 L261.0561073410488,291.6259114047447 L267.2076611353848,291.4214591223549 L272.51265939134163,290.5034548345392 L276.4574336526468,289.38099826433404 L277.7727739957814,288.3113472505078 L280.1678155115724,287.1888906803022 L282.1863330618417,285.8633358163328 L285.37930616019895,285.35288210467127 L289.51109563616603,285.2513329577891 L292.7514459222382,285.81188424857885 L293.7376394875645,286.32233796024036 L297.3058897833466,285.76043268082543 L298.52772251914814,285.0468806753992 L299.4191617090445,286.4753386748764 L300.6871248644653,286.52543625400517 L303.5048207653963,288.2084441150002 L310.59519093734235,288.36144482963607 L312.0040388878085,287.6993443919638 L314.0225564380778,285.60743196618955 L314.1173108135078,279.33575665474115 L314.7269804133109,275.40918964196055 L315.76055116635075,271.6356233438156 L316.74674473167846,269.6466140535486 L319.0470318720396,268.4740599042147 L321.5355809951637,268.06515533943536 L324.96419326399746,269.0860627627584 L333.4160341986947,276.6832929381766 L339.5675879930294,282.8547730913675 L346.04704179707545,295.80702827904355 L349.4282768781942,301.67115301433756 L352.84068116175547,306.38438741829975 L351.4966651523723,307.23063030898527 L349.2150795334761,307.53256977238146 L347.6578661793777,308.9217621017311 L347.156665404079,310.55331839497256 L345.87748133578015,312.42588466348127 L343.09594170968353,312.3649551753523 L342.42892077738315,314.23887543248605 L336.69877460009,315.9300072252319 L334.19526425979313,317.86350298187 L331.69175391949625,318.587886896297 L330.7454569332978,320.46180715343075 L329.8552645114984,320.7637466168274 L328.74314736829956,323.17926232400026 L326.90665796030316,323.6626362631597 L325.29334004180424,323.5421312755259 L324.4031476200063,324.38837416621135 L321.67771255830866,325.29419255640113 L314.89030703411737,330.7927403629193 L313.3330936800175,335.6251257658898 L313.8330476872192,339.9754912183259 L315.00126939481834,342.4532904022529 L317.72795122461287,345.0502405851885 L319.6192984289114,346.5003624026672 L324.4031476200063,349.2801010499907 L327.74199258580046,351.93798072105596 L329.522377429398,355.01965883177616 L331.85882084459485,361.3021660522252 L334.52815134189484,366.1359054438207 L336.4207453142903,368.31041117572636 L338.25598795418847,369.9419674689679 L342.5398831380842,371.9363927137354 L349.27118409787647,375.5610202631195 L358.6169577586653,379.7299512397923 L364.57027542545626,381.7230224959351 L371.9137395212482,382.9321343381463 L380.64735004603995,382.9917098376506 L385.20927451573283,382.8102753618878 L396.2244706594208,382.6288408861246 L404.0130309661112,382.2063964350945 L420.3132770761913,382.50833589849117 L427.3787118861836,382.9917098376506 L433.8319835601749,382.3878309108575 L440.45232215926745,383.29364930104725 L443.95698728206486,383.47508377681004 L448.0177109764602,384.44183165512936 L453.1917985821526,385.95288296073744 L456.7525682693489,387.2215703024529 L461.59252202484276,389.5775105101214 L465.8203126443368,392.9611280842382 L471.88334590373177,396.6453311331266 L479.56094384972243,404.6203241349466 L483.176571333218,408.7892551116198 L484.3447930408172,411.56899375894346 L484.73503145541486,414.4083079057714 L484.9020983805149,418.57723888244425 L484.5679645303162,422.62431088285865 L484.1228683194165,424.1353621884668 L481.452291054021,429.99542495788546 L480.2840693464218,432.95659808097236 L476.6684418629261,440.8706615946629 L475.333153230227,445.34153203473284 L472.9406052506298,455.0076568292987 L471.71752574672996,460.5657801353208 L470.30743102816695,465.9885045788337 L470.9545036709027,467.60381300857387 L467.0957564083434,467.4819540323154 L460.4205600129501,463.857326482931 L449.5450018962117,462.37064697257506 L442.0132758176595,460.69982500920554 L421.5774999273174,463.7205736317963 L402.92210888057264,463.23719969263686 L393.0202766481844,464.32580654721477 L390.38710242572006,464.76856082762146 L383.78546534809385,467.14481086466634 L363.2013240541193,464.97030513276064 L359.427357022209,465.58772394580484 z"/>
	<path id="batman-gercus" title="Gercüş" class="district" d="M142.82633539881002,465.32369616391105 L144.23518334927616,460.90833925747046 L145.28246855139193,456.62296525903884 L147.22992032008943,444.8229543913204 L149.43295954882677,446.5127321954415 L155.0658578144961,448.5477770989618 L157.8860472516223,448.9079380732376 L159.74996555776917,447.445630358133 L161.9442774098225,443.850790558501 L162.33700936061538,442.10820719800165 L161.44182986642681,439.72789519508143 L162.66366260222833,438.0096836298335 L164.22461626062173,437.8553289265723 L166.96501253949208,439.22691940379553 L167.93001104715685,442.96798997493784 L168.7840471941192,444.4655013942949 L170.175440391216,445.35913388685884 L172.22014007153996,445.59066594175033 L175.38194396745192,445.4755769086172 L177.6049314857539,445.69492306588285 L178.4751756179874,446.407121082684 L178.791854714818,448.68994590459704 L177.7370889041165,449.740641077672 L174.19751427458309,450.73988468299353 L172.77370510694413,451.6754908229353 L172.2338545206145,453.83916464584024 L173.98307016176807,456.58776155478637 L175.57020595021353,456.9194887679353 L176.92419610437898,456.30883989801674 L179.4314467489694,453.9447757585974 L181.29287151891964,453.2312237531716 L183.06577575393138,453.45056991043725 L187.56660858683472,455.4084374623272 L189.77962196035432,455.23106495243934 L193.01747871023122,453.3029851503018 L195.45366357324852,453.8066689188375 L195.74042023573358,455.4666589732063 L195.37262364689443,458.0839189855184 L197.0108769273484,459.5381027688724 L198.90471766784077,459.10888837471674 L199.8086245387147,458.273477393032 L201.5740481651407,455.50863262058454 L203.19235315602998,454.46876935650994 L204.4029649789523,454.5594865943914 L206.26937682129568,455.6440314830942 L207.41889700742718,457.1280030162002 L208.45994836905413,460.5711960898213 L208.5360012230177,463.2453236243873 L209.69674232202982,464.81730441812493 L215.1825219521624,465.57418405955383 L218.26079238552506,465.1977752217771 L221.6482613071326,463.6948478479194 L223.66054501691173,463.2602174992636 L222.48733623692357,473.55459301587445 L221.10841072080422,477.24691999651316 L221.04482554781686,478.8838922442552 L221.65449514762133,480.7293787402623 L224.05951080819477,483.8638624073615 L227.29861432616997,490.48080481820944 L228.58153869876094,492.0839273503237 L231.65980913212485,493.3715705327909 L236.053419908622,492.4671061312262 L238.7801017384166,492.4319024269735 L242.2760394845285,494.66056770388303 L244.36063574397912,496.50740818851517 L248.30541000528433,498.4219481044021 L251.12684621050886,499.39817390309656 L255.489287784562,500.02507063651643 L258.6311433909107,499.8504061038789 L261.16582293365286,498.3880983887747 L263.699255708294,495.1832073131705 L266.553107884062,493.0587991603935 L268.89453837164933,491.874059113434 L274.34665526314285,491.3175697885192 L279.5095219559561,491.94446652193875 L284.5763875052437,493.89421014207824 L288.1047412218965,494.52110687549805 L290.89500822467846,495.2874644373028 L295.8022874574518,498.0049196078722 L297.0852118300428,500.5125065415512 L297.4368004336108,503.8907081611678 L300.5163176350705,510.15967549536595 L301.6384089230528,511.8657011629879 L304.3326747823065,514.5127489250523 L306.2564379571473,516.0116143330341 L309.1115369010122,516.638511066454 L311.7733867897237,516.8118216104664 L318.47601208326745,516.359589409684 L320.65660948624486,515.5580281436266 L323.89571300421875,512.3883407722753 L325.6598898625451,511.44867266645815 L327.67965418091273,510.96123676142315 L331.20800789756686,509.04534285691136 L334.67152967313535,506.0151163139449 L337.2373784183214,504.6570657229727 L339.4179758212988,503.8907081611678 L345.0620949998461,503.71604362853043 L347.56435857204605,503.8203007526629 L350.8358780605621,502.88063264684575 L354.81182152430983,500.7914281983212 L357.2168371848833,500.0589203521438 L360.2963543863441,499.5024310272291 L366.26089296601685,497.5174837028374 L372.8363479135884,496.82017956091255 L377.582794061752,495.9847685792277 L379.92297778124237,495.9847685792277 L383.67574975549246,497.4118725900798 L388.9670335623747,502.0100179609085 L394.41915045386685,505.59673382879 L396.6645797979287,507.51262773330154 L399.6792650583066,508.94108573277873 L413.8550183298083,513.1546983340802 L420.23597745413076,515.3495138953618 L423.82791634376963,516.0806677529141 L428.3499442343371,514.3746420852924 L432.4879675507917,511.03029018130326 L435.1498174395059,509.3242645136811 L441.6280244754523,505.6671412372952 L443.6802047643621,503.78645103703553 L445.12396222156434,501.8705571325234 L447.68981096675026,500.6167636656837 L451.6333384599559,500.44209913304616 L455.386110434206,500.72102078981607 L459.1388824084547,500.3378420089137 L464.6221685023921,499.39817390309656 L475.0139805972011,499.1883056662069 L479.0547560020319,499.71094527549394 L481.07452032039953,501.3831212274885 L481.52335683559147,503.9259118654203 L485.3783637938585,508.9641035394054 L484.22759683962744,512.2542958983905 L483.9134112789933,514.2974647336617 L483.24140327430246,522.3293252577358 L482.2103260574564,528.5102833313027 L481.0907283056706,530.7971701190912 L479.700581876672,532.5979749904702 L476.33929508511665,535.1285797307759 L472.8446041071029,535.1285797307759 L471.6788759357004,533.7177235834249 L470.4682641127781,530.9434008906015 L468.1380545380687,526.8069656409309 L465.3153715647459,523.4964634525695 L463.97010878726576,522.8154071741455 L462.67097642940246,522.9128943551526 L461.7745501671143,523.7401814050869 L458.1439614664457,529.6286779356327 L455.3661621446413,534.4962670428558 L454.0208993671612,538.7301894735334 L451.28673692877965,546.1771269115657 L448.0152174402636,550.4110493422432 L446.26849533530526,552.1157210212403 L442.817441240713,553.6240643495979 L436.90152661685477,555.7660743545011 L433.3607052192231,557.8579867802758 L429.8647674731111,560.8272838351128 L428.20656590309386,562.6280887064916 L425.7865890253478,566.3759292207594 L424.3528057129264,567.3494470422042 L418.8844808361618,572.8980924278509 L415.79249595372335,575.4774407586604 L412.07338671811243,577.7155839559451 L404.7286758542235,580.6388453975287 L397.2829767744172,581.3659372892059 L392.75720857955747,583.8965420295118 L389.44080543952305,584.3839779345467 L387.9172548240623,584.3352343440431 L383.97248056275714,582.9243781966926 L382.22451168970315,581.9996039657514 L380.07383672107125,581.7071424227304 L373.7988528850579,583.2642293415918 L371.4237596588301,584.8213162604532 L369.3179683417179,586.5747315299534 L365.64249598952836,590.613679598617 L361.2513787492279,593.9715713888571 L358.830155103382,594.9450892103014 L356.58971283171206,595.3837815248327 L352.46665073242883,595.5300122963438 L348.6128905422601,596.0160942127533 L343.0547983624574,595.9186070317462 L337.4530692992333,594.7988584387913 L329.6994184992802,593.7779510154683 L322.79855707819274,593.4854894724473 L316.255518101162,593.8740842078503 L306.4845965190354,593.9228277983533 L302.09347927873495,593.7779510154683 L283.89689889196444,591.5871974200618 L273.1859141641308,591.0523719131485 L266.10551813696577,591.6846846010683 L262.9237659514905,592.6094588320099 L258.8892243871459,594.5077508843955 L255.79723950470867,594.6539816559056 L252.2564181070769,592.463228060499 L249.8364412293294,591.6846846010683 L247.28181339702536,591.5871974200618 L244.3244794691447,591.8796589630826 L238.58809945136278,594.1665457508709 L232.80683578206106,594.3127765223818 L226.0393785474344,595.1888071628191 L224.9634176790687,595.578755886847 L218.64479695963388,596.8921248531908 L216.04528547581015,596.3085557557743 L212.28004582058247,594.2152893413745 L208.96364268054936,591.9284025535858 L206.23072701026473,589.5914181866689 L201.1663549971737,584.5302087060575 L199.19396786652237,582.8268910156855 L196.0122156810445,581.3171936987026 L188.49171051537155,578.6538980731373 L187.631440527919,578.397994222994 L185.121696347132,576.499702170608 L184.1803864333268,575.4286971681568 L182.56706851482795,571.827087425399 L181.93994416165677,567.0082419086796 L181.49110764646352,564.9637190847839 L181.67064225253978,559.4638172896405 L182.43241756027015,554.2076334470145 L182.56706851482795,551.2884339713058 L182.342650257232,546.5183320450901 L182.07459511621462,545.2523526806247 L179.96755703100416,541.0184302499467 L179.34043267783167,539.315112559575 L179.43019998086982,536.2970719142343 L179.9226733794858,533.0854108955048 L179.071130768716,530.1648574311708 L177.45781285021852,528.0228474262678 L173.4245180539735,524.7624428170346 L168.9423867425352,522.0368637147152 L164.50638585071357,517.1205310169887 L161.50292150321766,513.1303265388284 L161.14509905915943,511.8643471743627 L161.23486636219891,509.5774603865742 L162.66864967462016,503.5901226863965 L163.20600672475322,497.5553953843399 L162.803300629178,495.8520776939682 L160.38332375143042,492.0067499986934 L157.42474305545156,489.4274016678842 L155.8563087884738,488.4051402559359 L154.82523157162777,486.40936102254324 L152.53990564843804,483.1977000038137 L149.7608595585367,480.13091576796967 L146.98306023673362,474.9234755158473 L145.36974231823484,471.4193529540967 L144.11424684379415,468.01271757335326 L142.82633539881002,465.32369616391105 z"/>
	<path id="batman-hasankeyf" title="Hasankeyf" class="district" d="M496.19906411429486,499.69605140061805 L492.47372103819635,501.98429217703153 L490.09862781196864,504.5148969173376 L486.2885045052212,507.1917324291538 L485.3783637938585,508.9641035394054 L481.52335683559147,503.9259118654203 L481.07452032039953,501.3831212274885 L479.0547560020319,499.71094527549394 L475.0139805972011,499.1883056662069 L464.6221685023921,499.39817390309656 L459.1388824084547,500.3378420089137 L455.386110434206,500.72102078981607 L451.6333384599559,500.44209913304616 L447.68981096675026,500.6167636656837 L445.12396222156434,501.8705571325234 L443.6802047643621,503.78645103703553 L441.6280244754523,505.6671412372952 L435.1498174395059,509.3242645136811 L432.4879675507917,511.03029018130326 L428.3499442343371,514.3746420852924 L423.82791634376963,516.0806677529141 L420.23597745413076,515.3495138953618 L413.8550183298083,513.1546983340802 L399.6792650583066,508.94108573277873 L396.6645797979287,507.51262773330154 L394.41915045386685,505.59673382879 L388.9670335623747,502.0100179609085 L383.67574975549246,497.4118725900798 L379.92297778124237,495.9847685792277 L377.582794061752,495.9847685792277 L372.8363479135884,496.82017956091255 L366.26089296601685,497.5174837028374 L360.2963543863441,499.5024310272291 L357.2168371848833,500.0589203521438 L354.81182152430983,500.7914281983212 L350.8358780605621,502.88063264684575 L347.56435857204605,503.8203007526629 L345.0620949998461,503.71604362853043 L339.4179758212988,503.8907081611678 L337.2373784183214,504.6570657229727 L334.67152967313535,506.0151163139449 L331.20800789756686,509.04534285691136 L327.67965418091273,510.96123676142315 L325.6598898625451,511.44867266645815 L323.89571300421875,512.3883407722753 L320.65660948624486,515.5580281436266 L318.47601208326745,516.359589409684 L311.7733867897237,516.8118216104664 L309.1115369010122,516.638511066454 L306.2564379571473,516.0116143330341 L304.3326747823065,514.5127489250523 L301.6384089230528,511.8657011629879 L300.5163176350705,510.15967549536595 L297.4368004336108,503.8907081611678 L297.0852118300428,500.5125065415512 L295.8022874574518,498.0049196078722 L290.89500822467846,495.2874644373028 L288.1047412218965,494.52110687549805 L284.5763875052437,493.89421014207824 L279.5095219559561,491.94446652193875 L274.34665526314285,491.3175697885192 L268.89453837164933,491.874059113434 L266.553107884062,493.0587991603935 L263.699255708294,495.1832073131705 L261.16582293365286,498.3880983887747 L258.6311433909107,499.8504061038789 L255.489287784562,500.02507063651643 L251.12684621050886,499.39817390309656 L248.30541000528433,498.4219481044021 L244.36063574397912,496.50740818851517 L242.2760394845285,494.66056770388303 L238.7801017384166,492.4319024269735 L236.053419908622,492.4671061312262 L231.65980913212485,493.3715705327909 L228.58153869876094,492.0839273503237 L227.29861432616997,490.48080481820944 L224.05951080819477,483.8638624073615 L221.65449514762133,480.7293787402623 L221.04482554781686,478.8838922442552 L221.10841072080422,477.24691999651316 L222.48733623692357,473.55459301587445 L223.66054501691173,463.2602174992636 L226.41465574485932,463.9873093909404 L228.9094387084722,465.3846256520405 L232.87166772314544,465.2939084141587 L235.81404043385191,464.3948599670946 L238.88108995433527,464.34611637659106 L241.06293412541106,465.26141268715645 L243.31335054186331,467.7581677118351 L243.77590150613105,469.8202923878575 L243.1388030081776,471.20677673995635 L241.2985732958876,473.15381238284556 L240.98812803954576,474.8787938912192 L241.78231931781693,475.5517262378923 L243.95543611220864,475.49350472701315 L246.02257761828986,473.3961763467379 L246.85791224378852,469.9150715916143 L246.7058065358613,467.4697681346895 L247.0050308793239,464.84303020200156 L247.71693546314276,463.4308200660256 L250.96601312589763,461.18455293699014 L255.6750562311284,460.78241831533654 L258.82813275035767,461.10466760810954 L262.7217895196531,462.2718058029428 L267.5804447966145,466.5016662677451 L270.49538860917056,468.4392239902586 L275.9200766025138,473.56407093625 L281.86092658832837,475.5192305108897 L290.8314230516911,476.0540560178029 L294.2986851315544,475.8035681221602 L299.4216552452411,474.7379790742091 L306.4534273165928,476.30318992482097 L308.2998908693717,476.4142169920787 L315.39275457751296,480.500554662621 L319.33129499832944,480.966326749654 L327.24577888289224,481.44428473431327 L333.387358532446,480.9013352956495 L342.01374700083034,479.1370881171483 L347.47583803710484,477.1805745538837 L348.9033875090374,472.6934562503127 L350.95681456604274,470.40250749664915 L359.1343665192352,468.31601102537496 L360.8012954659364,468.03302740272966 L359.427357022209,465.58772394580484 L363.2013240541193,464.97030513276064 L383.78546534809385,467.14481086466634 L390.38710242572006,464.76856082762146 L393.0202766481844,464.32580654721477 L402.92210888057264,463.23719969263686 L421.5774999273174,463.7205736317963 L442.0132758176595,460.69982500920554 L449.5450018962117,462.37064697257506 L460.4205600129501,463.857326482931 L467.0957564083434,467.4819540323154 L470.9545036709027,467.60381300857387 L472.581536038476,469.1961036316879 L474.1100737263273,468.3322588888759 L476.3118661869677,468.1995680036166 L481.57073402330775,469.06341274642824 L483.5281599367861,471.18917488783035 L484.6901478038966,475.97010872304685 L489.2146692306593,477.2983715642671 L489.52137418270627,479.1587519351498 L491.9064415537165,480.2202790172259 L492.46374689341405,479.9819770192086 L493.9087511187146,480.9351850112769 L495.0383230152828,484.88476983068415 L495.5332899500927,488.6813539354558 L495.2502735919011,490.4456011139568 L495.3562488802104,497.65423655397205 L496.19906411429486,499.69605140061805 z"/>
	<path id="batman-kozluk" title="Kozluk" class="district" d="M213.29990212454925,170.2421851534429 L214.87581700011407,159.223425722405 L220.23193274807937,158.9661678836366 L224.34626747067978,158.24449194646024 L230.42426194724618,156.56013009683977 L235.774143854724,156.14716356618538 L241.22002690572873,156.59397981246713 L245.49270117674388,157.6257191447909 L247.5186993355989,158.41644850184747 L250.8114138817764,162.47299842263743 L254.41956075668634,165.4978090111036 L256.8569923878033,166.90731116982926 L259.1685004410451,167.4922342558712 L266.5132113049341,168.1800604774205 L276.54720095568626,171.58263389228853 L283.6064019251885,173.54185543280363 L289.8751519207117,173.4051025816689 L293.92714823842437,172.6482229402397 L299.18102900237403,171.926547003063 L302.5049127509954,170.89480767073923 L311.9703761491694,165.2567990358365 L317.6369371534779,161.5103125101936 L324.47421340157797,157.76247199592555 L330.04602003045653,154.0498351859101 L333.7177520783513,152.22736649653012 L338.0228423199085,149.82132870973294 L340.9677085668102,147.89595688484525 L349.4507187039527,143.736503828548 L353.5351309922063,140.91749951109648 L360.02455894103315,135.45144743158087 L363.22127234368264,132.46048655874208 L365.27968647308103,127.71611041640284 L367.84304168207046,123.65956049561288 L370.7554919584327,120.8744058937887 L372.6555665394139,119.77496713021019 L382.37287709333555,115.82132034492756 L387.34374149909354,113.27717571837083 L396.74561972428273,107.91402677436226 L407.12870444240656,102.9976940766358 L414.4098301333107,100.17868975918459 L420.0340010222946,98.52953161381663 L429.3610731616171,98.2086363096688 L431.89325916816273,97.65756293925419 L436.62100379485867,95.36661418559058 L441.81254615392163,93.808173278104 L445.82215235630855,93.16638266980834 L449.80432966054514,92.80892967278245 L449.7108220532148,94.70180577066787 L450.5810661854497,102.66055090898705 L450.8042376749473,108.51790570115544 L450.63093690935847,114.68532388847134 L451.03613654113025,122.42607685814953 L451.8477825727709,126.45419301781263 L453.06462823618057,131.17419736490012 L453.52842596854794,137.34296954084118 L454.5133727657759,145.02143903376478 L455.03576859873624,147.22302453817218 L458.7274489361955,154.8987860538459 L461.26212847893623,159.66482601418667 L463.362932723658,164.29682110064294 L463.2793992611073,168.17870648879537 L461.26212847893623,170.6077620822189 L457.0480523085166,173.87087466870224 L452.49859551979887,179.02686335307078 L451.4612844624667,181.92710698802819 L448.0488801789028,188.263773753481 L446.9118276737488,192.1835708231362 L447.2085584810149,195.0838144580936 L449.482663491324,199.0049655163736 L451.65827382191094,201.95801470770994 L453.43865866550846,205.23466718044406 L458.43321166512476,217.53159187357306 L459.866994977546,222.84870520432833 L459.91686570145623,224.83636050597022 L460.955423526888,227.78940969730624 L460.2135965087235,231.33415191780995 L457.5928899672356,236.64991125993973 L455.9608705272717,238.85285075297222 L450.76808140011286,242.34343342847177 L443.7961541974522,244.9214277706562 L441.86740395022105,245.99514075035788 L438.60336507029206,249.16347413308443 L437.9612794999482,251.14977544610116 L438.25801030721414,256.4127292318523 L438.94996660146967,258.8837584726541 L441.52080241904486,263.23412392509016 L442.65910169229835,264.46896155117827 L442.7077256481102,267.0997614497412 L440.6306099972455,269.51663114553924 L439.1469559609153,269.94719952831997 L430.59288004220235,269.73191533692943 L428.07066818043785,269.51663114553924 L422.581148246013,269.67775579192573 L419.6637108972602,269.94719952831997 L416.20268265788434,272.30990967911384 L410.8615281270919,276.6589211429248 L405.9667165752975,278.3243271517937 L403.7412355207989,279.4521996764995 L396.6695668703205,281.3112260587571 L390.2162951963266,283.7280957545551 L383.59595659723533,284.45247966898165 L380.64735004603995,285.17821757203376 L378.42186899154154,286.1449654503526 L375.97446321564496,288.01753171886173 L371.2616798061205,293.3657867879941 L368.6135443664835,293.6650182741405 L367.78693711767147,294.8985019116034 L366.72095039408805,298.40939441647936 L364.69121193093946,299.380204260674 L362.59290122241305,302.21951840750194 L361.2177160105875,302.63113094953115 L360.49459051388936,304.1624920845157 L358.63690604823,305.58282615224243 L357.3639558204186,305.9930847056465 L355.4726086161215,305.395975721979 L352.84068116175547,306.38438741829975 L349.4282768781942,301.67115301433756 L346.04704179707545,295.80702827904355 L339.5675879930294,282.8547730913675 L333.4160341986947,276.6832929381766 L324.96419326399746,269.0860627627584 L321.5355809951637,268.06515533943536 L319.0470318720396,268.4740599042147 L316.74674473167846,269.6466140535486 L315.76055116635075,271.6356233438156 L314.7269804133109,275.40918964196055 L314.1173108135078,279.33575665474115 L314.0225564380778,285.60743196618955 L312.0040388878085,287.6993443919638 L310.59519093734235,288.36144482963607 L303.5048207653963,288.2084441150002 L300.6871248644653,286.52543625400517 L299.4191617090445,286.4753386748764 L298.52772251914814,285.0468806753992 L297.3058897833466,285.76043268082543 L293.7376394875645,286.32233796024036 L292.7514459222382,285.81188424857885 L289.51109563616603,285.2513329577891 L285.37930616019895,285.35288210467127 L282.1863330618417,285.8633358163328 L280.1678155115724,287.1888906803022 L277.7727739957814,288.3113472505078 L276.4574336526468,289.38099826433404 L272.51265939134163,290.5034548345392 L267.2076611353848,291.4214591223549 L261.0561073410488,291.6259114047447 L258.0040190377395,291.4729106901088 L255.74986231699233,290.5549064022931 L252.93216641606142,288.77034939441546 L247.25064419458153,283.7213258114297 L245.93530385144697,282.03831795043436 L243.40062430870626,276.6832929381766 L240.301158817682,270.71761905599993 L236.45113893180678,266.3320498993117 L234.80665181086408,265.7714986085215 L229.45801667148453,266.05177425391656 L231.07756843047213,261.371035576957 L230.485353584037,257.8994087422087 L230.59132887234625,256.0525682575766 L231.5638079885967,253.6600703570308 L233.998746083517,250.5811002235605 L234.64955903054766,249.2447134505902 L234.46877765637316,247.52108593084176 L233.22574986290738,244.30807092348704 L232.20090648655145,240.91903739487006 L232.15976313932532,238.88399249134932 L232.7482376814669,236.42379515954877 L231.82064221673613,234.9046199221902 L230.6125239300091,234.07868686088102 L227.44199265741048,232.7991676101644 L225.56311313408946,231.55349807507557 L224.7577009429404,229.60917040943627 L225.03947053303358,219.91325786511845 L220.96378562146413,219.05212109955679 L218.6136277571914,217.92695655210136 L215.82211398631114,214.15609823120664 L214.22999112547524,212.94427841174516 L208.3203103421058,211.76495431928606 L206.08984221521808,210.4299215349405 L205.17596119956187,208.76180754882134 L205.46770493443745,202.5266899302506 L207.15458217070193,200.76379674037466 L209.37133584851512,189.86283431972024 L211.0220568099453,183.29598948800097 L212.43339829660664,177.0419160286788 L213.29990212454925,170.2421851534429 z"/>
	<path id="batman-sason" title="Sason" class="district" d="M383.9201163026517,2.2284446424325934 L388.42094913555627,5.547070762544922 L392.418087656967,8.941520245662533 L397.44006955473355,12.838299508691133 L405.2809941215306,20.183687799841074 L409.84167182312785,22.79959382352828 L414.7103012448702,24.580088865530403 L420.5002922908546,27.14048135558838 L427.62432520144114,29.310925121618634 L437.4625722608447,30.59044437233522 L444.7910751394625,30.980393096362988 L446.8407618921758,31.81445008942258 L448.4291444487194,35.0992264939075 L450.6845479375622,41.55369026974382 L452.93870465830804,48.90043254951888 L454.0146655266725,54.01986354100971 L453.29777387046187,58.47177814032795 L453.553361330503,63.75910372133096 L453.50224383849456,70.21492148579239 L453.9124305426568,78.4512342922563 L452.5285179541471,87.18852289000577 L450.2232437413915,91.19632922029218 L449.80432966054514,92.80892967278245 L445.82215235630855,93.16638266980834 L441.81254615392163,93.808173278104 L436.62100379485867,95.36661418559058 L431.89325916816273,97.65756293925419 L429.3610731616171,98.2086363096688 L420.0340010222946,98.52953161381663 L414.4098301333107,100.17868975918459 L407.12870444240656,102.9976940766358 L396.74561972428273,107.91402677436226 L387.34374149909354,113.27717571837083 L382.37287709333555,115.82132034492756 L372.6555665394139,119.77496713021019 L370.7554919584327,120.8744058937887 L367.84304168207046,123.65956049561288 L365.27968647308103,127.71611041640284 L363.22127234368264,132.46048655874208 L360.02455894103315,135.45144743158087 L353.5351309922063,140.91749951109648 L349.4507187039527,143.736503828548 L340.9677085668102,147.89595688484525 L338.0228423199085,149.82132870973294 L333.7177520783513,152.22736649653012 L330.04602003045653,154.0498351859101 L324.47421340157797,157.76247199592555 L317.6369371534779,161.5103125101936 L311.9703761491694,165.2567990358365 L302.5049127509954,170.89480767073923 L299.18102900237403,171.926547003063 L293.92714823842437,172.6482229402397 L289.8751519207117,173.4051025816689 L283.6064019251885,173.54185543280363 L276.54720095568626,171.58263389228853 L266.5132113049341,168.1800604774205 L259.1685004410451,167.4922342558712 L256.8569923878033,166.90731116982926 L254.41956075668634,165.4978090111036 L250.8114138817764,162.47299842263743 L247.5186993355989,158.41644850184747 L245.49270117674388,157.6257191447909 L241.22002690572873,156.59397981246713 L235.774143854724,156.14716356618538 L230.42426194724618,156.56013009683977 L224.34626747067978,158.24449194646024 L220.23193274807937,158.9661678836366 L214.87581700011407,159.223425722405 L216.35822426834727,154.46686368243985 L216.51032997627448,152.38578316566634 L214.39082421008646,147.7524340905852 L212.61043936648895,142.92681863074014 L212.0730823163546,140.76449879646077 L212.39599525367532,138.98806572033374 L215.60268280110563,139.22501372972548 L220.612197017896,137.38494318821904 L222.07340922846765,136.02824658587204 L223.81514426103553,133.2796496769255 L230.31828665893835,121.4566210025804 L232.52381942387092,116.2979243409616 L233.2681399782319,113.01585591372695 L234.57849324897455,111.29222839397885 L240.13783219687554,108.96742992468752 L243.60010720434838,107.28713004094243 L244.6411585659754,106.07937218735637 L244.12125626921033,104.32595691785595 L242.16133681953528,101.46904091890156 L241.3023136001811,99.55991695751528 L240.9282831708545,97.0685778873371 L242.2012333986632,91.91123521434352 L244.76084830335907,86.03086261554807 L245.88543312753677,84.69582983120256 L251.4759412778816,81.93504702463015 L255.73864140411308,81.36230983621448 L257.55019545015443,80.33192449251582 L258.43166049526985,78.69224426752348 L259.4103734520091,74.95658965088137 L261.43761837896375,71.82345997240773 L265.6354865641122,67.66265292748525 L267.7537455622019,65.98235304373976 L272.07753732522417,63.49236796218686 L276.4674077974278,61.27182661702832 L277.66430517127554,61.13236578864333 L280.4321303482976,61.648235454805 L282.5104927672594,61.526376478546496 L284.5427247666046,60.885939858875616 L285.9440921084837,59.515703370277585 L288.220690654988,55.81796043513826 L291.2740257263968,54.308263118155665 L293.7501071685421,53.9711199505065 L295.96187377396336,54.550627082047946 L299.7520487911462,56.50578665668758 L302.54730286631855,56.84157583571158 L304.42867592583343,56.2011392160407 L305.12437252438394,55.10034646383702 L305.7140938346224,51.80744612760159 L306.8498995716793,48.964070014898624 L308.77615628271394,46.59729789822936 L310.0067163952008,45.7050193942906 L313.0837400604664,45.50598306640133 L314.3504564477876,44.6895279254678 L314.55866672011257,42.90226294033998 L318.6592869936385,41.55369026974382 L320.84611823710475,41.683673177753185 L323.833374599331,42.440552819182 L325.2571837669699,42.2807821614207 L334.15536768066517,40.09544452051465 L340.7171081791622,36.640065549267646 L343.97865352289585,34.62939244099874 L352.5551712673687,31.35003199101434 L359.0770151867379,29.688687948020455 L365.15750319950075,27.50199631848931 L371.51851403426,24.571964933779935 L373.8138141022307,23.1299670480517 L378.966706650263,17.095239745995485 L381.26200671823364,11.323186237207922 L383.9201163026517,2.2284446424325934 z"/>
	
</g></g></svg>