<svg xmlns="http://www.w3.org/2000/svg" version="1.2" baseProfile="tiny" width="600" height="600" stroke-linecap="round" stroke-linejoin="round"><rect id="backgroundrect" width="100%" height="100%" x="0" y="0" fill="none" stroke="none" class="" style=""/>































































































































































































































































































































































































































































































































































































































<g class="currentLayer" style=""><title>Layer 1</title><g class="city city-73" id="sirnak" title="Şırnak">
	<path id="sirnak-idil" title="İdil" class="district" d="M118.69491137387936,397.00049906850734 L117.41886976844391,396.7149145784688 L112.1103602785498,397.9831651891825 L101.8050012300436,401.42386522731266 L96.01650604409585,402.81802848858644 L94.20388012301002,403.17843064055194 L89.28788573524974,403.85817647147394 L82.23437464898217,404.6811707526707 L79.92853218570328,405.60453019011123 L78.90755189195409,406.3682177880733 L76.04674893783161,408.0726006231907 L73.05804780436294,408.6264338035525 L70.42731456366405,408.95398917711105 L61.8125636329579,410.53154695115717 L56.80836360426824,411.33720543263905 L53.744687676011075,411.99231617975613 L48.456759502333966,412.74779208311634 L43.222489760221215,413.0333765731547 L40.21320731053603,412.8737047336765 L39.361287828566056,412.5379376655164 L37.528815638272306,412.3618424368344 L36.39022782328395,412.0507104524795 L37.12600987803096,407.2632924996634 L37.15908699337929,403.97678983794356 L36.72908449385195,397.7322522985737 L36.795238724548625,391.32348086716877 L38.51598376966556,384.25777386762473 L38.84675492314888,382.3271132257038 L38.747523577103884,380.3143356377655 L38.05290415478991,378.38276258533324 L37.15100147629362,376.66834323459153 L34.91645857276613,374.44936087109824 L31.665345657535113,373.0013653896578 L30.324619915418218,371.7997207462693 L26.650854970736468,367.67106318261517 L25.037426788749208,366.37726507758504 L21.016719656414264,363.7577344996291 L20.023671148958663,363.23401086614007 L16.946029327553497,362.37178293295716 L10.492316599601075,361.1080943747999 L8.158542350028593,360.245866441617 L6.942774599227942,359.62907693597504 L4.361289508047264,356.70206401570914 L3.070546962456685,353.2823494193389 L2.896340821622723,352.1810699321941 L2.7721178773145794,349.2148233599423 L3.2190264580203656,344.2549598204895 L4.013612273386467,341.05057410478713 L4.683975144444907,340.12630225683523 L6.198171980388147,338.8014821944208 L7.811600162375888,336.7987411221068 L8.779657071568824,334.2713640057927 L8.754665473305183,333.0085878581467 L8.059311003984567,329.0031057135188 L8.406988238644875,326.384487546074 L8.506219584689866,324.47389993540196 L9.052359511440168,321.88539131483026 L10.839258787254751,319.63629940446395 L12.403438819723306,318.00308458922837 L13.222281186345434,315.9081900552726 L13.89264405740388,311.59431315782376 L13.89264405740388,309.4382871196106 L13.594950019269383,305.4328049749825 L13.867652459140727,304.5386426739039 L16.524112345110858,300.96473070112296 L18.013317582791426,297.88352040444687 L18.633697257323092,295.72658195572234 L18.48448271475179,292.0294945639153 L18.98137449198339,290.5194551677061 L20.694034020016613,290.24208237226935 L21.687082527472214,290.45832366344854 L23.573213149331792,292.24482344458346 L27.2719696922767,297.20559939454745 L29.356563006225283,298.9309676714248 L32.19310940909172,299.0176466699988 L35.28618721765915,298.1216595478973 L37.88972371907156,297.0979349542133 L43.53414969150323,294.60249220579493 L47.8929784473976,291.77036997870476 L49.024950839316,291.9464652073867 L52.813383117205014,293.674570715798 L54.961925520827435,294.86526643305064 L57.55590641113993,296.71381012895426 L59.706653955785185,297.8187392581441 L64.4300660275188,299.08516504783523 L68.17807071998192,299.8552395193763 L71.62838137431054,301.0879061201493 L77.43672282946719,303.0295156882057 L79.94323312585841,303.64539278333643 L83.17008948983438,304.1079849125681 L86.27345795650983,304.01491904041495 L88.2588199244144,303.6764147407208 L90.7660652678137,302.6289674737429 L95.25867257911615,299.4857132622981 L97.44690752115685,297.6408192084398 L98.07390261875845,298.2913679030002 L100.01369167218287,299.0203839015325 L102.0703531998369,298.59520060326463 L103.09133349358754,298.6462955918977 L103.63894351435356,299.05596791147354 L103.97265485586729,300.003050022208 L104.26740870597038,302.1317037450819 L104.98775477355511,302.8424715333882 L106.31524966953307,302.8406467123656 L109.02830817509897,301.0295118474257 L112.61827776089801,300.21564167134176 L115.88997199234603,299.7594364156895 L118.87573293778375,299.65177197535564 L120.72143597421694,298.85523759898626 L121.54983395193949,297.3278624030623 L121.56526993910222,296.4382621545401 L120.9463603585853,294.7493902981149 L119.88862771444826,292.6417220170009 L119.89965341956389,291.7740196207501 L120.75745327759621,291.3315005227674 L121.82841676787267,291.96562582812396 L123.35804959097817,293.7037678521597 L125.1089315634135,294.8214707285081 L126.0527319213504,295.01946380946134 L127.63014279995937,294.84884304384707 L129.26635743918743,293.8351549657876 L130.88052066818327,293.39172345729355 L131.99926221396274,293.5431836021699 L134.53737953168655,295.00212800974646 L136.0993544231323,295.5623480636875 L137.98916028003092,295.7402681133919 L142.4986736725123,295.3105227625673 L143.64975728663148,295.44464710772917 L147.00524687696176,296.46107241732267 L150.9965521289869,298.383521364642 L154.1881262365917,300.47202902501857 L157.0187922633958,302.0924700930958 L162.2876092148721,304.8360885005893 L164.15756880256131,306.1116383953934 L163.7474125722429,310.21657328575344 L162.4059517831184,313.7640253537064 L162.14354000135503,315.0669475638497 L161.5018439635988,316.4428626148973 L159.54808901702734,318.36074950966 L153.71549101061515,319.5915912894101 L150.97450071875517,320.49670251662434 L149.5455693357094,322.08977126936253 L148.52458904195973,324.1892278558748 L147.70795181636092,327.0852188187563 L147.59181438913842,329.1481789848164 L147.9865346322941,332.5040248453953 L149.9829223053148,335.736695286948 L152.25715774726007,338.8133435310677 L153.5111479424638,341.2029466601749 L153.86176536515552,344.678318297735 L153.65742229700416,347.5378128401642 L153.62802041669437,349.7458462775217 L152.75331447748405,351.7367260131887 L151.61619675651096,352.24402625747405 L149.37062814786782,352.7139176707961 L146.3664910272369,352.678333660855 L142.69199103554752,351.51957231149817 L140.09654005121982,351.4109954606529 L138.34712817280018,352.06245656572435 L137.82230460927403,353.5834448880696 L138.11338322433855,355.4657477728913 L139.1924322317007,356.8407504134276 L141.37993212673283,358.7230532982494 L144.587677268507,360.71393303391636 L146.74577528322982,362.41557863749966 L147.70795181636092,364.1172242410831 L148.5826577555707,366.18018440714314 L149.4867655750908,369.9812865972388 L149.6036380493209,373.45665823479897 L149.19568696002528,376.0269186451445 L147.3580694406768,379.465793862252 L144.85008905027036,382.1446311234428 L141.93415757056832,383.4110569131338 L138.55073619394395,383.809780306574 L132.9709943581942,382.6829533251125 L128.97895405916097,381.9758351788515 L124.88327213203702,381.4603232399643 L122.446591301381,381.91105403254875 L120.63249528627996,383.84171467446976 L119.90626884263385,386.15832496267274 L119.49170233026928,388.7322350150633 L119.28441907408599,392.33625653471734 L118.5405515022543,395.2906417703222 L118.69491137387936,397.00049906850734 z"/>
	<path id="sirnak-merkez" title="Merkez" class="district" d="M254.838113006347,204.1661871462881 L257.38652098217983,201.37238616067307 L260.69643765802994,199.11325773468238 L264.2040819789629,197.7574157148833 L266.2894103399192,196.77109995216307 L272.36236871786195,193.7318605390068 L278.17071017301856,190.1880581130989 L281.69526057512957,188.92528196545314 L288.2981878456518,187.7537468689379 L290.0358389719482,187.23002323544893 L295.4222634446622,184.8267339486722 L297.3826338143031,184.3030103151833 L299.8648875594398,184.39516377682506 L302.347141304575,184.94990936769833 L304.9536179940188,185.9052031730345 L310.3150508684706,187.4763740735011 L316.04915257584497,189.0174354270949 L322.50286530379736,190.49645286592008 L328.3854465067359,191.57492209028229 L333.20073945443596,192.6223693572602 L336.0306704342334,193.79299204326418 L345.264330945455,199.30851358410163 L347.57237854975773,200.47913627010558 L350.4522927260805,201.71180287087822 L352.26418360015776,202.1123510853412 L355.6895026562232,201.68078091349392 L359.4874905452131,200.20176347466878 L363.06128909684134,200.26380738943743 L365.6927573845488,200.5712897317473 L373.36297291030945,200.01654414087398 L374.97640109229724,199.986434594001 L379.3940336088107,199.55486442215374 L385.4015728030654,199.6470178837955 L389.19882564504724,199.986434594001 L393.5679450590496,199.8632591749749 L393.16513929880875,201.8641754262663 L393.39447396522326,205.33863465331487 L394.43750566920517,209.95086978796036 L394.43750566920517,211.0877332850462 L393.92885313985033,213.83591374509612 L393.1908659440795,215.82588107025177 L392.910813034131,217.59504505167186 L391.9434911719457,220.24833481854603 L391.1040674891076,221.5749797019832 L390.31462700279525,222.30217087949308 L388.5843263465769,224.5448759162803 L388.17711030428944,225.36604537645457 L387.6934493731963,227.29305637633024 L386.7268625580191,228.0512695112245 L383.8763502620061,229.28302370148606 L383.01119993389665,229.1251766830303 L381.4337890552877,230.57864662753886 L380.2885858172299,232.15802922260744 L378.55755011400345,232.56861395269448 L377.18374725653825,233.99014952930733 L375.9870907279389,236.70639562146158 L373.84957402943303,237.18084908734025 L372.7808156801799,238.57045029605734 L371.6863306856555,241.88706250465012 L371.38716655350584,243.43633555284572 L370.33898952046917,244.85148425587943 L369.3841634574166,245.19546301864142 L368.86007494089756,245.9992966791009 L366.21023047799736,247.7201029034215 L363.52877899376415,247.7201029034215 L363.1281783745456,248.33233035650707 L361.80288861959144,248.98287905106747 L360.81719058221347,249.7474790595408 L359.27653205399133,250.4746702370508 L357.4888977311691,250.28306402967667 L356.50246464678304,251.92814018155931 L355.39327871210446,252.88434639740655 L353.54463548764033,253.72558888882978 L352.2193457326852,253.61153757491653 L350.09285473929606,254.03215882062796 L346.9586142982946,255.36792780917818 L344.79904618955607,255.624315162855 L343.73910840439623,255.27303711600263 L343.5649022635622,256.59329512586066 L342.0668764617894,257.79402735873765 L341.96029464566726,259.5175708145923 L340.94592977498655,262.38892669366857 L340.8209717836703,263.55954937967255 L341.3193336549182,264.06776203446935 L340.5004912882965,265.59148758834834 L340.5717908480474,266.2538976195555 L341.33697478310324,266.8725119462202 L340.6607315359834,267.8889372558138 L341.0701527192942,269.16996161368564 L339.8426242163699,269.8323716448929 L339.94920603249244,270.23018262782176 L341.19511071061044,270.36248215196093 L341.90663621410243,270.82689910221495 L342.81441926865955,272.0851131973042 L342.4226392135353,272.9245308677047 L343.0452240290903,273.76394853810496 L344.13088845952143,273.56504304664065 L344.6829087623341,275.442783878906 L345.1452533302011,278.5796512167717 L346.14197707269625,281.6937082918548 L347.47608739174365,283.9473622547778 L347.8502263186828,285.31597802173496 L350.6081226917203,287.6134276892005 L353.8467398078205,288.40904965505814 L357.07947654785835,288.2904362885885 L358.7980164519534,287.89901217923864 L359.6991840834416,288.4939038326095 L359.37649844704396,288.9820434561574 L360.1843151085499,289.7092346336673 L361.26409916291874,289.64627830838725 L361.2288169065476,290.3917176961234 L359.9821771814209,290.5614260512259 L359.6190639595979,291.2630697344193 L359.2147881053418,294.17092203394765 L359.35591713082744,294.84701822282466 L358.50840793090407,295.3488440040421 L358.08428580743816,296.0504876872357 L358.1651409782894,296.952861682916 L357.3168967313585,297.02767934484285 L356.7920731678323,298.1937399782904 L354.15692964508634,300.24848844974883 L353.2506166845439,299.2220266245311 L351.9620792799766,298.2001268518695 L350.45817310214187,297.3999428334554 L345.26800618049407,295.82329746992076 L342.601990683423,295.5121654855656 L338.6283265595845,295.4674573705118 L336.2658854767098,295.64537742021616 L331.98864693867387,296.8889929471246 L329.37555482616057,298.71107673820035 L324.5970142288469,301.66546197380524 L322.77189250863023,301.9984918104314 L318.5299362269664,305.17550521079454 L314.1453808257998,308.0632844790743 L309.59985012994014,310.7293479931066 L305.6622033094799,312.4182198495318 L302.94179433383636,313.15088549010954 L299.0585409919495,314.4173112798006 L295.13853529967525,316.01676690611805 L292.8657699517447,317.28319269580896 L290.6466630353799,317.79414258213967 L288.8751997467281,317.61622253243524 L285.24186238747177,316.6390308748278 L282.7537282662742,315.8169490041422 L280.5529975251027,314.4173112798006 L278.1721802670338,313.39541150713933 L275.631122761279,312.75124968615825 L272.8746964822563,311.7959558808221 L270.35128010468713,311.107085944787 L267.2016036765239,310.04047805707177 L264.2202530131323,309.1873742290018 L261.2778598411524,308.3525186111579 L257.0755960979054,307.4045240899121 L252.271328855321,306.49667563116384 L248.51744378679646,305.9437548613132 L245.17665513662038,305.66729447638784 L242.6944013914842,305.74576178036006 L239.51311794198887,306.29868255021086 L234.6449016097301,306.93098303454514 L231.8135005359184,306.9702166865312 L229.36358885912298,306.45652956866644 L223.95437792916863,305.1536073585233 L217.78218820518083,304.1262331227942 L216.73180603112087,304.4026935077194 L213.70929273529723,305.7065281283739 L212.02309489954285,306.6545226496196 L209.28651488972903,306.93098303454514 L203.20988127674767,308.5103656296137 L201.65084657333193,309.22113341792016 L199.99625575891068,310.7220487090163 L198.85105252085236,311.03774274592786 L195.9873093786999,310.6435814050441 L194.33271856427865,310.68281505703015 L191.94675597715656,311.4328164973227 L190.16500203039624,312.5778916890103 L188.8602935916586,312.65727140349395 L187.1101466662309,311.4328164973227 L186.88742742288684,310.68281505703015 L183.29231250803355,304.75853360712847 L182.46538462432625,304.2448464892638 L180.3014062335411,303.33699803051553 L175.68825121296857,303.29685196801813 L171.01629243177743,303.7776923074756 L170.4745627870733,304.0039701142792 L169.65645546745975,301.79046221385397 L168.35542226376117,297.36892087607106 L165.39024263453993,291.8342387144961 L164.94186395981893,290.24573201431474 L164.62211851145221,286.5121482020556 L164.85659850692147,284.55229042377266 L164.60080214822807,280.07691686582274 L163.36298298719473,276.8989910549482 L162.31774614218904,274.7019065437263 L160.82486566947088,272.0267189245808 L159.6730470083431,270.5440518437107 L158.88360652203124,269.90901412784245 L156.87839828491778,268.7967857145618 L154.97977186392689,267.5522577771423 L152.29170495662365,264.2684923469564 L151.80069355545436,263.50024269643757 L150.67019125755073,260.163557456596 L151.80069355545436,255.18544570691728 L154.2542804672884,250.76390436913442 L159.01150470137745,240.01205890391887 L159.5444137819888,239.16534194942815 L161.63562251900686,234.74288820113384 L164.36558710575122,231.16806381784156 L168.7178004385766,225.76568118040615 L171.49113279877733,223.6215164788398 L172.00272551616357,222.6680474945263 L172.7708496392513,220.20545152451484 L172.77452487428985,218.4134772803122 L174.21668710347453,218.0211407604511 L175.16048746141195,218.14431617947716 L176.45123000700255,218.69906177035045 L181.04306866435044,221.19450451876915 L182.7557281923827,222.2419517857471 L185.1637421897375,223.32042101010938 L187.2983187002129,224.02936397739307 L189.60636630451413,225.23100862078144 L195.01778237549226,229.57499506510345 L199.9323066692373,233.3031044142949 L206.0633337607921,235.46004286301937 L211.44975823350612,236.60055600215034 L212.8897153216675,237.18541113989664 L215.57043175889368,237.49380589271786 L217.85348776493126,237.3085865589227 L220.0130558736698,236.50749012999728 L222.7187639091591,235.02847269117214 L225.22600925255793,232.1014597709065 L232.15088711247074,225.1078332017553 L236.47002332994776,221.37972385256398 L240.3672425649812,219.19176344645507 L244.53716423988746,216.7264302449097 L246.77097209640735,215.8952242691109 L249.07975474771618,214.6415722265783 L250.46972863935176,213.03937936872708 L252.22355079981847,210.61601705070154 L253.4150619993641,208.31583015170233 L254.14349358403402,205.8504969501567 L254.838113006347,204.1661871462881 z"/>
	<path id="sirnak-beytussebap" title="Beytüşşebap" class="district" d="M371.38716655350584,243.43633555284572 L371.6863306856555,241.88706250465012 L372.7808156801799,238.57045029605734 L373.84957402943303,237.18084908734025 L375.9870907279389,236.70639562146158 L377.18374725653825,233.99014952930733 L378.55755011400345,232.56861395269448 L380.2885858172299,232.15802922260744 L381.4337890552877,230.57864662753886 L383.01119993389665,229.1251766830303 L383.8763502620061,229.28302370148606 L386.7268625580191,228.0512695112245 L387.6934493731963,227.29305637633024 L388.17711030428944,225.36604537645457 L388.5843263465769,224.5448759162803 L390.31462700279525,222.30217087949308 L391.1040674891076,221.5749797019832 L391.9434911719457,220.24833481854603 L392.910813034131,217.59504505167186 L393.1908659440795,215.82588107025177 L393.92885313985033,213.83591374509612 L394.43750566920517,211.0877332850462 L394.43750566920517,209.95086978796036 L393.39447396522326,205.33863465331487 L393.16513929880875,201.8641754262663 L393.5679450590496,199.8632591749749 L399.0036176812828,198.9079653696387 L400.9647230979313,198.0138030685599 L403.0250598606249,196.4426321680933 L404.58850484608723,194.00832092393196 L404.9111904824839,192.3449965618234 L405.0354134267926,188.98641346971056 L404.8119591364399,184.85775590605655 L404.58850484608723,182.70081745733205 L404.8612072859576,180.08219928988734 L406.1027016820295,177.43255916505817 L407.7161298640177,172.37962975345235 L407.9145925561077,167.9735993943616 L408.0880636499341,166.6487793319472 L408.7334349227294,165.076696020969 L410.79377168542294,158.6989465469485 L413.0775627384691,158.91427542761653 L419.4570357186392,159.0073412997696 L420.64854691818476,159.2536921378218 L424.3965516106484,161.93435422003532 L426.1584592881993,164.21446808778586 L427.4492018337899,166.15516524533126 L429.2368361566121,168.09677481338773 L431.6691067052215,169.17524403774993 L436.6086225972302,170.46904214278027 L439.28933903445534,170.62323951919072 L442.3919724541237,170.65334906606373 L444.9984491435675,170.4380201853957 L449.9379650355762,170.9617438188846 L452.12252474257787,171.63966482878428 L456.98780088680525,172.71813405314654 L461.6538792919345,173.0265288059674 L466.8668326708222,172.8102875147883 L468.0826004216233,172.84130947217258 L470.8382916536384,172.5028051724785 L473.6674875864273,172.37962975345235 L485.5576079836201,172.2555419239149 L487.4437386054791,172.59495863412016 L490.86905766154456,174.13510757720272 L494.3693515124,175.92251976884873 L497.67044762415736,177.00098899321097 L507.64871075421974,177.6789100031106 L516.510437479526,177.55573458408426 L518.5207910456937,177.3394932929051 L520.8045820987398,176.81576965941613 L524.0806866122341,175.89149781146435 L527.5309972665627,175.18346725469192 L532.3220336630077,174.7518970828447 L536.7396661795217,174.56667774904994 L538.6265318483888,174.65883121069166 L540.2649516286398,174.99824792089711 L544.3606335557641,176.3540899406959 L545.9490701394886,176.78566011254313 L547.6367380692587,176.75463815515874 L549.8462893745227,176.19989256428545 L551.6331886503373,175.55299351177047 L556.2750105042119,172.96448489119874 L558.335347266905,171.4544454949892 L562.1825833054131,169.39057291841806 L564.2179284698434,169.02104666133948 L568.9339900714995,168.7436738659027 L575.015033966528,169.79112113288062 L580.9475983659923,171.2391166143214 L585.6886515659115,172.5028051724785 L591.8939184052472,174.47452428740817 L596.65996320343,176.2920460259272 L596.8319642032402,178.25007898318717 L596.8525455194577,183.53019861210814 L596.7290576221566,188.11871107345974 L596.2329008919327,194.5521175886698 L596.1299943108501,197.90978827027135 L596.3365425200248,201.9855260242697 L596.1505756270665,202.57494321457273 L593.9204430055853,205.72732153113057 L592.9090183229355,207.80396785486025 L591.9791838581456,210.6488638291086 L590.492918808496,212.6999626585216 L589.0059187118397,214.39157174648074 L586.9205903508825,217.10873024914633 L581.3864214296129,224.5932336733795 L578.371258603866,227.13064730531798 L574.778348830036,230.0266382681993 L571.7639210512959,232.3341244512892 L568.2739178585496,235.2474512138853 L565.3278494515301,236.7511037365157 L559.4908411630718,238.46004862418945 L557.1783832767235,239.31406486277058 L548.5327603716928,242.32136990803136 L546.6054671174002,243.03943698042818 L542.3657159767587,245.32958736380297 L541.4300011359065,246.2857935796505 L540.9066476663965,247.44820457105274 L540.4935512480472,250.11335567457402 L540.878715880103,256.91446362583963 L541.4020693496128,262.4856422078667 L541.4843946144798,265.3223264875133 L541.457197875193,269.4236117358283 L540.9889729312636,273.4217945963657 L540.7140653503683,276.53220202940383 L539.8055472488027,281.6927958813435 L539.6401616720619,283.5039307462837 L540.8243224015295,287.6389751835168 L543.990169863863,294.782237076522 L544.2658124917652,295.6024941261849 L539.7989318257331,297.6399067979285 L523.4353153394387,302.30597415274116 L519.4293091472584,303.1864502961502 L516.8713455603257,303.4154653344878 L511.9406502324103,303.68371402481125 L510.4308636785127,304.2950290673854 L506.1778816917334,304.9838990034207 L504.2983664929432,305.06054148637014 L502.17187549955395,304.79229279604647 L493.14255805648276,300.5851679284203 L489.59889643217144,300.50852544547075 L486.2706035811272,299.9346192338599 L484.45209728398004,299.3990342637241 L482.2337254146219,297.9838855606904 L480.4152191174752,296.10979437047035 L477.025917364789,292.0550420582319 L475.8241155071348,290.90722963501054 L475.0839231703418,290.6773021861616 L469.7533622702149,290.10339597455106 L463.6208650846454,288.1143410599065 L456.96427938255783,282.9510099764328 L452.989145164703,278.74297269829526 L450.8626541713128,276.25665405498967 L449.8762210869262,274.80318411048114 L448.36643453302963,271.6663167726154 L446.30168748828993,265.2018883000212 L445.4696142755289,263.480169665189 L444.82277290871787,262.86794221210346 L435.39285484642954,259.15808107313825 L427.9968118545554,257.89530492549255 L424.8537508494617,257.51300492125586 L420.5698968883563,257.47468367978104 L417.48857983191357,257.28307747240694 L413.02022907186523,257.2447562309321 L409.9690489427394,257.05406243406964 L403.3742071893014,257.1307049170191 L400.4163780301577,256.7474925022711 L398.62874370733556,255.98289249379775 L396.9028533331638,254.9117225535259 L395.1776980059993,253.1142738462555 L391.91114910360506,248.86791532664284 L389.5376823156143,247.18451793328572 L388.5211123039112,246.8405391705238 L384.66873093634933,247.26116041623527 L383.37431315571973,246.95550289494813 L379.923267454383,245.7310479887772 L374.8999562034921,244.50750549311755 L373.6981543458379,244.39254176869295 L371.38716655350584,243.43633555284572 z"/>
	<path id="sirnak-cizre" title="Cizre" class="district" d="M164.15756880256131,306.1116383953934 L165.77099698454856,307.1672973569729 L168.21208809725172,308.24211693929004 L169.11105058771707,306.83426752034666 L169.01990475875678,305.9090832618835 L170.4745627870733,304.0039701142792 L171.01629243177743,303.7776923074756 L175.68825121296857,303.29685196801813 L180.3014062335411,303.33699803051553 L182.46538462432625,304.2448464892638 L183.29231250803355,304.75853360712847 L186.88742742288684,310.68281505703015 L187.1101466662309,311.4328164973227 L188.8602935916586,312.65727140349395 L190.16500203039624,312.5778916890103 L191.94675597715656,311.4328164973227 L194.33271856427865,310.68281505703015 L195.9873093786999,310.6435814050441 L198.85105252085236,311.03774274592786 L199.99625575891068,310.7220487090163 L201.65084657333193,309.22113341792016 L203.20988127674767,308.5103656296137 L209.28651488972903,306.93098303454514 L212.02309489954285,306.6545226496196 L213.70929273529723,305.7065281283739 L216.73180603112087,304.4026935077194 L217.78218820518083,304.1262331227942 L223.95437792916863,305.1536073585233 L229.36358885912298,306.45652956866644 L231.8135005359184,306.9702166865312 L234.6449016097301,306.93098303454514 L239.51311794198887,306.29868255021086 L242.6944013914842,305.74576178036006 L245.17665513662038,305.66729447638784 L248.51744378679646,305.9437548613132 L252.271328855321,306.49667563116384 L257.0755960979054,307.4045240899121 L261.2778598411524,308.3525186111579 L264.2202530131323,309.1873742290018 L263.2955638773967,310.4209532402858 L261.94307738315564,310.91730455843543 L261.405022973491,311.6025248524256 L259.81732143677397,311.37989668766704 L258.8926323010374,311.9282554049613 L257.8165234817072,311.87716041632825 L256.94696287155165,312.9045346520574 L255.7598619540522,312.7676730753618 L254.97262660876365,313.86439050994994 L252.91670012811628,314.60070579257297 L252.07433625724718,315.40636427405514 L251.34296448454637,318.0103838733188 L250.76301239544006,319.0213347198447 L249.75599799483743,320.04870895557366 L248.0440735138118,321.0432364128959 L247.14731616436984,321.16276218987696 L244.98039758555424,322.27681542418 L244.93849990611258,324.7777326356664 L245.86318904184918,326.08339207734366 L245.2869121877815,326.656385878443 L243.18835298068586,327.83157061700354 L243.03987348512217,329.8233627631818 L242.82744489988517,335.9483745255707 L242.42831437468237,338.3270287285425 L240.87148481229087,343.82521446966496 L240.15334388572944,345.9018607933945 L234.63975628067638,360.21393207372137 L233.49161285458757,358.4447680923013 L230.79325528917585,357.09622535659287 L228.255137971452,356.09166138364645 L227.56860406622368,355.0460389376909 L227.17902915212176,352.7476768597144 L226.53071769129508,350.24493482720527 L225.7611234741921,349.64000665821015 L224.67986932580763,349.99675916813055 L222.90179061408583,351.4903751751365 L221.77128831618265,352.80242149039276 L219.6381818997235,353.57614560397917 L217.05669680854234,352.9949401082779 L214.64427252914135,350.8188410388159 L211.12560250309275,349.17923935000124 L210.44347887991105,349.36719591533 L209.16890736849084,350.28964294225926 L207.5334277762704,351.02413340385954 L205.45618493239888,351.52778400609986 L202.9614353881314,351.1108124024335 L202.06761822672078,350.08800021926095 L202.78722924729743,348.93562574348306 L202.2653458718022,346.2996717763234 L202.63654461071044,345.4210204539369 L203.76190157955935,344.19747795827726 L206.50068673039652,340.6682741005504 L207.89286576305494,339.29965833359313 L208.06707190388985,337.7877941163612 L207.70689887009772,336.5925363465521 L206.65137136698303,335.84344731677083 L202.5549543928515,335.87173204262115 L202.13744769245503,336.52045591615894 L201.4413581761263,336.5633392101901 L200.5945840232106,337.4419905325767 L200.21162453217863,338.40732085353704 L199.2251914477925,338.5076860097806 L198.5981963501904,340.7257559627627 L197.96826106455785,341.35075716300645 L197.05753782196928,342.8160884441619 L197.68159273153947,343.52138176940053 L197.33906082593293,344.8963844099368 L196.3224908142294,346.2184672408173 L195.61023026372982,347.8005870674199 L194.13793110722818,349.3900061781126 L190.93165605946825,351.94475560976605 L186.42655294903352,356.06520147881844 L182.2897083894761,360.02232586634716 L178.13301756071024,364.2458741231772 L176.56442724619455,365.1126641089167 L168.90817761358093,371.75045057865884 L167.4344083630631,374.4238133767819 L166.69274593225376,377.2121398993294 L166.0223830611958,378.01871079132286 L164.3428006485109,377.7878709319625 L162.4059517831184,377.92838215070344 L160.76753200286652,378.24863824017143 L159.18056551315763,379.169260446078 L156.42928456318867,381.2030234757764 L153.90439809160426,383.7103275608419 L152.5754331016116,385.4749294897054 L150.00938399759315,387.3937287949792 L148.25776697815022,387.9311385861379 L145.76375248088985,387.1638013461305 L144.86773017845593,387.35540755350445 L140.97345113145295,387.2386190080573 L139.63640062437509,387.9940949114179 L137.7414494384227,390.1628946967892 L136.42130501252282,390.5415450589806 L135.5657102955138,391.34811595097403 L132.9489429479615,391.94300760434487 L129.96685723756278,394.27786610277377 L129.4082215116807,395.06983842658633 L127.7448101331671,395.8344384350597 L124.87812680298326,396.7240386835819 L123.97181384244035,397.23590098042393 L121.30065301631556,397.1857184023022 L118.69491137387936,397.00049906850734 L118.5405515022543,395.2906417703222 L119.28441907408599,392.33625653471734 L119.49170233026928,388.7322350150633 L119.90626884263385,386.15832496267274 L120.63249528627996,383.84171467446976 L122.446591301381,381.91105403254875 L124.88327213203702,381.4603232399643 L128.97895405916097,381.9758351788515 L132.9709943581942,382.6829533251125 L138.55073619394395,383.809780306574 L141.93415757056832,383.4110569131338 L144.85008905027036,382.1446311234428 L147.3580694406768,379.465793862252 L149.19568696002528,376.0269186451445 L149.6036380493209,373.45665823479897 L149.4867655750908,369.9812865972388 L148.5826577555707,366.18018440714314 L147.70795181636092,364.1172242410831 L146.74577528322982,362.41557863749966 L144.587677268507,360.71393303391636 L141.37993212673283,358.7230532982494 L139.1924322317007,356.8407504134276 L138.11338322433855,355.4657477728913 L137.82230460927403,353.5834448880696 L138.34712817280018,352.06245656572435 L140.09654005121982,351.4109954606529 L142.69199103554752,351.51957231149817 L146.3664910272369,352.678333660855 L149.37062814786782,352.7139176707961 L151.61619675651096,352.24402625747405 L152.75331447748405,351.7367260131887 L153.62802041669437,349.7458462775217 L153.65742229700416,347.5378128401642 L153.86176536515552,344.678318297735 L153.5111479424638,341.2029466601749 L152.25715774726007,338.8133435310677 L149.9829223053148,335.736695286948 L147.9865346322941,332.5040248453953 L147.59181438913842,329.1481789848164 L147.70795181636092,327.0852188187563 L148.52458904195973,324.1892278558748 L149.5455693357094,322.08977126936253 L150.97450071875517,320.49670251662434 L153.71549101061515,319.5915912894101 L159.54808901702734,318.36074950966 L161.5018439635988,316.4428626148973 L162.14354000135503,315.0669475638497 L162.4059517831184,313.7640253537064 L163.7474125722429,310.21657328575344 L164.15756880256131,306.1116383953934 z"/>
	<path id="sirnak-guclukonak" title="Güçlükonak" class="district" d="M170.4745627870733,304.0039701142792 L169.01990475875678,305.9090832618835 L169.11105058771707,306.83426752034666 L168.21208809725172,308.24211693929004 L165.77099698454856,307.1672973569729 L164.15756880256131,306.1116383953934 L162.2876092148721,304.8360885005893 L157.0187922633958,302.0924700930958 L154.1881262365917,300.47202902501857 L150.9965521289869,298.383521364642 L147.00524687696176,296.46107241732267 L143.64975728663148,295.44464710772917 L142.4986736725123,295.3105227625673 L137.98916028003092,295.7402681133919 L136.0993544231323,295.5623480636875 L134.53737953168655,295.00212800974646 L131.99926221396274,293.5431836021699 L130.88052066818327,293.39172345729355 L129.26635743918743,293.8351549657876 L127.63014279995937,294.84884304384707 L126.0527319213504,295.01946380946134 L125.1089315634135,294.8214707285081 L123.35804959097817,293.7037678521597 L121.82841676787267,291.96562582812396 L120.75745327759621,291.3315005227674 L119.89965341956389,291.7740196207501 L119.88862771444826,292.6417220170009 L120.9463603585853,294.7493902981149 L121.56526993910222,296.4382621545401 L121.54983395193949,297.3278624030623 L120.72143597421694,298.85523759898626 L118.87573293778375,299.65177197535564 L115.88997199234603,299.7594364156895 L112.61827776089801,300.21564167134176 L109.02830817509897,301.0295118474257 L106.31524966953307,302.8406467123656 L104.98775477355511,302.8424715333882 L104.26740870597038,302.1317037450819 L103.97265485586729,300.003050022208 L103.63894351435356,299.05596791147354 L103.09133349358754,298.6462955918977 L102.0703531998369,298.59520060326463 L100.01369167218287,299.0203839015325 L98.07390261875845,298.2913679030002 L97.44690752115685,297.6408192084398 L96.76551894498229,296.2941012937539 L96.29949914207569,294.8251203705531 L95.2674931432094,292.7357002996653 L92.5514944496121,290.0276659021128 L91.88480681359269,288.633502640839 L92.42139112924256,287.46652959688015 L95.36745953626202,285.38805845212784 L96.06060886455981,284.349735290263 L96.19071218492982,283.5851352817897 L95.70558115982242,282.3506438599943 L93.30344753852945,280.3679758189291 L92.85139362876991,278.76669537158915 L93.58644063650931,277.20738580776947 L94.86909766501421,275.6663244541756 L95.01831220758551,274.556833272429 L94.50377930216833,269.4564585142353 L94.21123059308809,267.5194109987352 L93.41223449567534,265.9172181408841 L91.54227490798614,263.8515207432899 L89.68554616643635,260.573229776172 L89.54000685890358,259.74567344241854 L89.95383832426154,259.16902999927396 L91.71868618984342,258.45278774789955 L93.65185982019835,256.8159232906189 L94.19946984096389,256.1069803233351 L94.62212187041413,254.90442326943545 L94.60301064821284,253.09693804654063 L93.84885241827263,251.24930676114857 L93.47544853834107,248.8003969488064 L94.16051234955368,247.9673661519852 L94.86027710092192,247.99930051988096 L95.9907793988246,248.59875422580808 L97.61890852096747,249.94455972998273 L99.06842122023025,249.8332456476035 L103.20894101482526,247.8067819019955 L105.0744903204683,246.52940718616895 L105.45083438843079,246.05130407824515 L105.90288829819083,243.2757513028559 L107.59643660402178,238.70092499917388 L107.18260513866481,236.95822092258177 L105.19944831178358,234.40712113297369 L104.4673414920751,233.78029511170723 L102.1240116314027,232.935402978239 L100.87590181226135,231.7255466402489 L99.16544742525144,227.10966186355807 L98.61195702842404,225.8888565994322 L97.11172608562737,224.93356279409602 L95.16017628007972,224.55217520037073 L88.60502706505996,221.36421287387176 L87.1077363102942,220.04121763248003 L86.90559838316567,218.8943176197697 L88.76232712471594,215.2501500376186 L88.25440964236773,214.20452759166335 L86.2403808411615,212.7209481002818 L85.3693501369907,211.8541581145423 L85.12678462443677,210.07678243852044 L85.43770950871021,207.90524542161506 L85.37155527801355,206.48279743449086 L83.97496596330899,199.65522957839727 L85.41933333351702,198.80121333981617 L89.30111658138867,198.79482646623683 L91.808361924788,199.38059401449448 L99.50356904881136,201.32129117203988 L101.14125378205462,202.3687384390177 L105.36115865348667,205.57312415472012 L107.07381818151894,206.6515933790825 L110.44988908806718,209.05488266585914 L114.04867923795898,211.73554474807256 L117.25054400367131,215.03208392541674 L119.7827809453338,217.40435125480906 L124.54809069650854,220.94815368071693 L126.21150207502208,221.93355703292588 L127.651459163184,222.4581930769262 L130.33217560040964,222.98191671041516 L132.46675211088453,222.95089475303078 L135.495145782771,223.07407017205688 L137.5797390967201,222.95089475303078 L139.61508426114997,222.64250000020994 L141.25350404140184,221.93355703292588 L142.8919238216527,221.65709664800076 L146.565688766334,221.40983339943693 L150.93407313332978,220.9791756381013 L154.7320610223182,220.14705725179124 L157.75971964719753,219.12971953168642 L158.9269742954881,219.00654411266024 L162.50077284711625,219.46913624189187 L164.28840716993844,219.28391690809707 L167.49027193565178,218.45271093229834 L170.54365720580088,218.5758863513244 L172.77452487428985,218.4134772803122 L172.7708496392513,220.20545152451484 L172.00272551616357,222.6680474945263 L171.49113279877733,223.6215164788398 L168.7178004385766,225.76568118040615 L164.36558710575122,231.16806381784156 L161.63562251900686,234.74288820113384 L159.5444137819888,239.16534194942815 L159.01150470137745,240.01205890391887 L154.2542804672884,250.76390436913442 L151.80069355545436,255.18544570691728 L150.67019125755073,260.163557456596 L151.80069355545436,263.50024269643757 L152.29170495662365,264.2684923469564 L154.97977186392689,267.5522577771423 L156.87839828491778,268.7967857145618 L158.88360652203124,269.90901412784245 L159.6730470083431,270.5440518437107 L160.82486566947088,272.0267189245808 L162.31774614218904,274.7019065437263 L163.36298298719473,276.8989910549482 L164.60080214822807,280.07691686582274 L164.85659850692147,284.55229042377266 L164.62211851145221,286.5121482020556 L164.94186395981893,290.24573201431474 L165.39024263453993,291.8342387144961 L168.35542226376117,297.36892087607106 L169.65645546745975,301.79046221385397 L170.4745627870733,304.0039701142792 z"/>
	<path id="sirnak-silopi" title="Silopi" class="district" d="M364.7114696292169,329.3580334024165 L363.93452494203643,329.3899677703122 L363.76913936529473,330.7841310315857 L364.4527330824921,331.4903367673357 L364.2035521468682,333.06059525729125 L363.4883514083387,334.7877883551912 L364.5041863730346,335.4602349020229 L364.29837321086706,336.1372435014109 L363.3222307845894,336.68651462921645 L362.6658338066776,336.5542151050773 L362.6026197640118,335.5140671221898 L362.08073638851755,335.4355998182176 L361.3059968423599,336.33341176134144 L361.48387821823286,337.52866953115074 L360.7723527147414,338.22848839332147 L358.3187658029074,338.8635261091896 L357.467581367945,340.2047695608075 L355.41753526335947,340.49035405084607 L353.86291084199087,339.6007538023239 L353.0940516718955,339.7950972412319 L352.2994658565294,339.4447316048908 L350.605917550698,339.3042203861499 L349.582732115924,340.18378411904763 L350.07888884614795,341.3206476161332 L351.25055377648465,342.64181803650257 L350.97050086653627,344.1719304639607 L352.33474811290057,345.0505817863473 L352.65155337323637,346.37631425927304 L351.9914811602864,346.9374467237254 L351.1270658791846,346.81335889418796 L350.55372921314785,348.17741260858884 L349.654766722683,348.0369013898479 L348.5867434204375,349.276867274711 L347.9127053143405,350.47303745503154 L348.7778556424499,351.1044255288544 L347.9965006732227,352.9967649293006 L348.0442787287257,354.33344632836213 L346.68003148236136,354.69476089083867 L345.9420442865915,354.4839940627272 L346.4411412048465,353.31428378723456 L345.32533984709846,353.29238593496325 L344.5917629333738,354.1016940584906 L343.08859180254717,353.7832627900452 L341.1171957277896,354.0688472800835 L341.3950434967152,355.1363675783102 L340.9613657621493,355.5624632870895 L339.60593907987777,355.67012772742345 L339.38468993054795,356.54877904981 L340.66587686503766,357.1956781023251 L338.26888857279994,359.6701354089836 L338.4034021752156,361.20116024695295 L339.9925738059487,363.35718628516605 L339.78823073779694,363.9712385592744 L338.4291288204869,364.9037221018277 L337.28686577045994,365.3571901259462 L337.14794188599717,367.22215721105334 L335.9108577719719,368.0789106811685 L335.0721691361414,368.1601152166747 L334.2165744191328,368.9311020987271 L333.50063863359475,370.22398779324584 L333.19632917238977,371.3727126269786 L332.2238619811507,371.6473481908814 L331.6983033706169,372.48859068230433 L332.2282722631969,373.7230821040997 L331.4373616828698,374.0843966665765 L329.4181875526093,374.2075720856026 L328.1715478274836,373.960308837039 L328.2891553487218,374.876368990389 L327.83783648597034,375.2750923838293 L326.7992150640346,375.30793916223627 L327.01237869627874,376.5150582686924 L328.3501642503638,377.9648785711555 L328.5456867544228,378.84900435660995 L326.5522392694335,381.1838628550389 L325.57903703118683,381.9539373265802 L325.114487322295,382.956676478504 L323.7642059690782,383.803393432995 L322.99534679898284,384.5798547781155 L323.0475351365325,385.097191538025 L322.3264540219401,386.69208511178584 L322.2617698852592,387.4630719938385 L321.4017648862035,388.40650446252755 L321.26725128378735,389.17749134458006 L319.71262686241874,391.5114374324976 L318.22268657773054,391.9320586782091 L318.3447043810158,394.1802381780643 L316.3813938233435,397.1875432233248 L316.7114299298182,397.7322522985737 L316.5511896821313,398.92386042633757 L317.47587881786785,400.777878585309 L316.3600774601194,401.5379165412259 L315.6176799823024,402.92295569738656 L314.4621860861365,402.77240796302124 L313.84254145861155,401.96127501847144 L312.4694736481544,401.6857270440573 L311.00084972669134,400.7130974390063 L309.38154116864075,400.37368072880105 L307.27122120942187,400.20488478420947 L306.7927056073835,400.48134516913495 L305.625450959093,401.9703991235842 L304.23547706745836,402.41839268463497 L302.57059559492865,402.1328081945967 L301.3842297244368,401.71036212786254 L300.63007149449663,401.95397573438095 L299.3187476326895,402.9548900652821 L297.2143080495315,402.8490504459708 L295.7398037520061,402.6054368394524 L294.93345718451525,403.10178815760236 L294.43509531326896,403.87459986067756 L294.2035555058306,404.95124426401713 L292.63496519131496,405.76055238754435 L290.4312942621119,405.20671920718235 L288.85755861854153,405.2140184912727 L287.8902367563572,404.37551323138376 L286.968487808652,404.8873755282257 L284.76187669141814,404.81164545578747 L283.6784174020103,403.5260590453589 L281.90107373729666,403.31529221724753 L279.473948517741,404.8216819714116 L277.45697952850435,405.6090922426679 L276.4955380423808,406.2058087170611 L276.3139814314688,406.7140213718578 L274.9313580099113,406.2194948747308 L274.4895947582598,406.43573616590993 L274.0640025407786,408.2304476416464 L271.78315167576335,408.59723666719094 L270.43948574561597,408.220411126022 L269.0171697856397,409.49231137878104 L266.2901453869267,410.8955987451677 L264.86047895687386,411.1994314454321 L264.2415693763574,413.5023555759654 L262.91407448037995,413.8107503287865 L262.2018139298804,413.6282682265254 L261.1499616618052,414.1556415020598 L260.68467690590575,414.7368469977607 L259.0866847110808,415.08630022359034 L257.1064680722314,414.89560642672785 L253.59147328122137,413.13465413990946 L251.80236886438345,411.7861114042011 L249.84126344773446,413.1903111810991 L249.61707411037415,414.38009448784067 L248.16021094103482,415.093599507681 L247.19509421987283,414.030641262011 L246.68423654949413,412.1665865874152 L246.85035717324342,410.5406710562701 L247.4317793563649,409.6528956287705 L247.64935327065618,408.4311779541333 L246.78640808357008,407.0187664826336 L245.27221124762687,405.92478627957917 L243.37431987364403,403.4977743195085 L242.46727186609306,402.7514225212611 L241.44702661935096,401.133718684718 L240.92367314984,399.23316758967 L240.24742990271972,397.88644967498414 L239.7622988776123,396.2714830699747 L239.27790289951201,392.7550529594061 L238.2569226057614,390.6163627209078 L237.01910344472898,387.33807175378973 L237.21095071374853,385.7541271061645 L238.34218805865981,383.1501075069009 L240.18348081304686,380.2112332499881 L242.52093029765786,377.1838551734787 L245.4045197090192,375.66925372471275 L245.58093099087694,374.81067543357506 L244.95614103429915,374.01870310976267 L243.66686858272334,373.2103073967465 L243.26700301051338,372.4977147874174 L243.96603271487353,369.73128611714134 L243.9175196123629,368.58803574647663 L243.3015502198774,367.29971210451424 L242.51210973356555,366.50044049661125 L241.03099001297065,365.82160707620045 L239.4543141813693,365.5250736600264 L236.39063825311166,363.43291635760465 L235.70851462992948,362.7075500011174 L234.63975628067638,360.21393207372137 L240.15334388572944,345.9018607933945 L240.87148481229087,343.82521446966496 L242.42831437468237,338.3270287285425 L242.82744489988517,335.9483745255707 L243.03987348512217,329.8233627631818 L243.18835298068586,327.83157061700354 L245.2869121877815,326.656385878443 L245.86318904184918,326.08339207734366 L244.93849990611258,324.7777326356664 L244.98039758555424,322.27681542418 L247.14731616436984,321.16276218987696 L248.0440735138118,321.0432364128959 L249.75599799483743,320.04870895557366 L250.76301239544006,319.0213347198447 L251.34296448454637,318.0103838733188 L252.07433625724718,315.40636427405514 L252.91670012811628,314.60070579257297 L254.97262660876365,313.86439050994994 L255.7598619540522,312.7676730753618 L256.94696287155165,312.9045346520574 L257.8165234817072,311.87716041632825 L258.8926323010374,311.9282554049613 L259.81732143677397,311.37989668766704 L261.405022973491,311.6025248524256 L261.94307738315564,310.91730455843543 L263.2955638773967,310.4209532402858 L264.2202530131323,309.1873742290018 L267.2016036765239,310.04047805707177 L270.35128010468713,311.107085944787 L272.8746964822563,311.7959558808221 L275.631122761279,312.75124968615825 L278.1721802670338,313.39541150713933 L280.5529975251027,314.4173112798006 L282.7537282662742,315.8169490041422 L285.24186238747177,316.6390308748278 L288.8751997467281,317.61622253243524 L290.6466630353799,317.79414258213967 L292.8657699517447,317.28319269580896 L295.13853529967525,316.01676690611805 L299.0585409919495,314.4173112798006 L302.94179433383636,313.15088549010954 L305.6622033094799,312.4182198495318 L309.59985012994014,310.7293479931066 L314.1453808257998,308.0632844790743 L318.5299362269664,305.17550521079454 L322.77189250863023,301.9984918104314 L324.5970142288469,301.66546197380524 L329.37555482616057,298.71107673820035 L331.98864693867387,296.8889929471246 L336.2658854767098,295.64537742021616 L338.6283265595845,295.4674573705118 L342.601990683423,295.5121654855656 L345.26800618049407,295.82329746992076 L350.45817310214187,297.3999428334554 L351.9620792799766,298.2001268518695 L353.2506166845439,299.2220266245311 L354.15692964508634,300.24848844974883 L354.0459375469181,301.8278710448174 L355.11690103719457,304.3652846767559 L353.76000426090735,305.0340815815425 L354.8368481272457,307.1791586936199 L353.9724328461439,307.73390428449324 L354.04079221786435,308.27040166514035 L355.0941145799543,308.6280665855718 L355.3749025369108,309.2676663539967 L354.8214121400829,310.5286176806198 L355.41238993430574,311.19650217489493 L356.74650025335217,311.88263487939605 L357.8380450598452,311.8452260484326 L359.9145528567095,312.36256280834226 L361.6580843590673,311.83610194331953 L362.5599870375636,312.1654821379006 L362.9466217636346,313.2375644886835 L362.75697963563783,314.7339177272235 L362.3556439694117,315.9848325382224 L361.02153365036526,317.64998172135364 L359.96747624126675,317.4054557043239 L359.028086165376,317.94195308497103 L358.36874899943365,317.6691423420908 L357.792472145366,316.03227788481024 L356.8677830096299,316.00399315895953 L356.35986552728167,316.66275354812177 L356.83764608231246,318.0733401985988 L358.19454285859877,319.4282698078866 L359.2177282933727,319.7485258973545 L359.18685631904725,320.68009702939673 L359.5587901049636,322.3644068332653 L360.3849829416623,323.6244457493773 L361.29423609023564,324.33065148512696 L361.3625954619561,325.57244219101284 L362.2490621532897,326.35346558868963 L361.5066646754727,327.2850367207319 L361.74114467094194,328.05602360278436 L362.74962916556075,328.9967188399398 L363.37074388710005,328.9118646623883 L364.7114696292169,329.3580334024165 z"/>
	<path id="sirnak-uludere" title="Uludere" class="district" d="M544.2658124917652,295.6024941261849 L545.4492381742261,298.0623528646626 L546.6605956429802,300.07878009464616 L547.0736920613305,301.1727602977006 L547.7624311075817,304.31692691965674 L548.7260777347285,307.49576514104257 L550.2674713099577,313.6125652088297 L550.4600536259859,315.80052561493864 L550.680567728307,320.96020705636727 L551.1759894115239,327.21478111136145 L550.2057273613071,330.0770128853246 L549.5757920756746,333.0167995527484 L547.8881241459051,332.91734680701626 L545.4286568580087,333.2357780754616 L544.684789286177,334.14818858676654 L544.7825505382058,335.1208181918174 L543.3249523218589,335.910053284096 L542.8280605446272,336.42830245451717 L542.4421608655639,337.7412611802848 L542.4318702074554,339.6062282653917 L542.7016324592959,340.88451539172956 L541.5093862127426,341.2275817439801 L540.003274893885,342.08524762460655 L537.401943533495,341.67740012605356 L535.6679676422376,340.5323249343659 L534.2449166352542,338.6929053435756 L531.8435180609703,338.52502180949546 L530.8519396475294,338.28961989757863 L529.6398471317673,338.4912626205773 L527.963939954121,337.9292177456136 L527.8294263517048,334.4255613822031 L528.1748984453428,333.64910003708263 L527.985256317346,332.24763749171865 L527.0693877457018,332.01132316929073 L523.8844290611678,332.2385133866056 L523.3316737113477,331.82701624600725 L521.8843661531087,331.65092101732523 L521.1970972008718,330.3324878284899 L520.7266671159191,328.52500260559503 L519.3910867028565,326.72207943525683 L519.3830011857717,326.06149422507235 L518.5634237721415,325.90090997508247 L517.1741849275145,325.064229536216 L515.8841774289325,325.32244171091526 L514.1906291231006,325.02773311576397 L512.7925697143803,325.62718682169105 L510.3838206700178,325.590690401239 L508.1037048520102,324.6153235646542 L506.9805530241846,324.4136808416559 L506.3315065163508,323.7056502848832 L505.94487179027976,322.50218082047223 L505.0789864151628,321.4072882069067 L504.16826317257375,321.44925909042655 L502.5812966828649,320.63538891434274 L500.348223873352,321.3488939341831 L499.66095492111566,321.21750682055523 L497.36834330397664,321.54506219411365 L497.2941035561944,320.816046195581 L496.2922344846459,320.4419578859461 L495.20289481917627,321.28320037736904 L494.4075739568021,320.3434175507253 L494.71923388808364,319.5651313845821 L494.00035791451467,319.0112982042201 L492.16274039516617,318.29140631080077 L491.74376360075433,317.4738864926716 L491.97530340819276,316.4994320665983 L491.28435922091734,315.8032628464727 L490.1046087734959,315.45837167319945 L488.72639563398457,315.630817259836 L487.4363881354015,316.5249795609149 L485.55687293661236,315.64085377546047 L485.16582792849476,315.95198575981533 L484.0713429339704,315.47388265189164 L482.88644715749473,316.1344678620764 L482.1381693036164,316.1873876717321 L481.04882963814623,315.53775138768293 L478.795175512417,316.13902991463283 L478.41883144445455,316.88538171288 L477.41181704385184,317.47023685062663 L476.51652978842554,317.47023685062663 L475.70356779786584,317.95381442161806 L474.29815791906844,317.4547258719344 L473.20367292454404,317.7339234883936 L471.6858008535622,317.27680582222973 L470.3311092182983,317.33246286341944 L469.6791225224335,318.0076466417851 L467.13512482864735,317.94833995855015 L465.51728636461297,320.55509678934794 L464.3088690838894,321.41367508048575 L463.15264014071545,321.498529258037 L462.49330297477366,321.9501724611329 L461.1753636898966,322.1527275946426 L458.59314355170784,322.162764110267 L457.78679698421803,322.69196220682375 L456.31302773370015,322.80692593124803 L454.9252589830884,322.132654563394 L454.66946262439455,322.5660495562636 L453.2508218994577,322.85528368834724 L452.284235084281,322.80418869971425 L452.2621836740483,324.8434261924804 L451.82115546940486,326.5852178585613 L449.8651953818101,328.42007539679514 L448.7751206693328,330.8854085983405 L447.31164207692353,331.2102267403652 L446.3788674241022,331.70110359544714 L444.8779014342984,331.9045711394681 L443.9826141788716,332.38541147892556 L442.9697194022071,332.25037472325243 L442.16631302274817,332.55603224453955 L441.97079051868917,333.2385153069957 L440.2845926829348,333.5076764078306 L438.9232856246014,333.3735520626688 L438.07651147168565,333.6153408481646 L437.22973731877045,333.31971984250185 L435.72436104691946,334.9456353736467 L435.3193501456558,335.7896150966036 L432.8510622936662,338.5478320722779 L431.57722582925453,338.32337908649714 L430.96199148377616,337.13724542180097 L429.2537422377901,335.942900062503 L427.66898088910403,336.06790030255183 L426.83617262933535,335.73578287643664 L425.09190607997,336.05056450283695 L422.94997909941657,334.52318930691285 L421.32111493026656,332.9328577857085 L419.0777514626458,332.27683462808034 L417.5209219002533,332.36716326869964 L417.18794560574764,331.9173448866262 L416.12433258554876,331.7376000158992 L413.6927970839465,332.47482770903355 L412.7225350337307,331.368986169332 L411.86105994066037,331.1719054988904 L409.8271848702452,329.75219474330004 L408.6768363031336,328.59343339394314 L406.208548451144,328.83613458995023 L405.49187761859827,328.73668184421774 L404.8766432731204,327.5687963897479 L404.2908108079523,327.13722621790055 L403.68954235562194,326.0322970887104 L402.6619466388018,326.1855820546097 L399.675450646357,324.71203907885234 L398.5662647116784,325.0231710632074 L396.9322552134732,326.5925171426516 L395.20930502733194,326.9474448315491 L393.24746456367575,325.19287941831016 L392.3411516031333,324.77134576208726 L392.4006904107596,322.7877653105108 L391.5362751296583,320.9519953617655 L390.987195014877,320.34524237174764 L392.0074402616191,319.8123946331459 L392.2573562442501,318.49487385482166 L392.1088767486874,316.6143957910226 L391.35104328370767,315.96293468595076 L390.53440605810937,315.77041606806563 L389.4487416276787,314.7266184431331 L388.7092843378927,315.00034159652455 L385.79408790519824,314.11256616902483 L384.9054160728409,313.5423095994594 L383.23538927125696,313.2092797628332 L382.10856220839275,312.52862152139977 L380.81487947477126,312.6910305924119 L379.9320880184763,313.5943169986038 L379.32420414307546,314.66731175989815 L377.791631131939,314.52680054115723 L377.63065583724455,315.5487003138187 L375.97900521085415,318.4939614443103 L374.6015271183504,320.06330752375476 L372.0964869159739,322.3206111287228 L370.3794171058955,324.7859443302681 L368.6623472958162,324.60072499647333 L367.2429715238708,325.54780710720746 L366.3300431402589,327.83978231160523 L365.4648928121495,328.87993029449274 L364.7114696292169,329.3580334024165 L363.37074388710005,328.9118646623883 L362.74962916556075,328.9967188399398 L361.74114467094194,328.05602360278436 L361.5066646754727,327.2850367207319 L362.2490621532897,326.35346558868963 L361.3625954619561,325.57244219101284 L361.29423609023564,324.33065148512696 L360.3849829416623,323.6244457493773 L359.5587901049636,322.3644068332653 L359.18685631904725,320.68009702939673 L359.2177282933727,319.7485258973545 L358.19454285859877,319.4282698078866 L356.83764608231246,318.0733401985988 L356.35986552728167,316.66275354812177 L356.8677830096299,316.00399315895953 L357.792472145366,316.03227788481024 L358.36874899943365,317.6691423420908 L359.028086165376,317.94195308497103 L359.96747624126675,317.4054557043239 L361.02153365036526,317.64998172135364 L362.3556439694117,315.9848325382224 L362.75697963563783,314.7339177272235 L362.9466217636346,313.2375644886835 L362.5599870375636,312.1654821379006 L361.6580843590673,311.83610194331953 L359.9145528567095,312.36256280834226 L357.8380450598452,311.8452260484326 L356.74650025335217,311.88263487939605 L355.41238993430574,311.19650217489493 L354.8214121400829,310.5286176806198 L355.3749025369108,309.2676663539967 L355.0941145799543,308.6280665855718 L354.04079221786435,308.27040166514035 L353.9724328461439,307.73390428449324 L354.8368481272457,307.1791586936199 L353.76000426090735,305.0340815815425 L355.11690103719457,304.3652846767559 L354.0459375469181,301.8278710448174 L354.15692964508634,300.24848844974883 L356.7920731678323,298.1937399782904 L357.3168967313585,297.02767934484285 L358.1651409782894,296.952861682916 L358.08428580743816,296.0504876872357 L358.50840793090407,295.3488440040421 L359.35591713082744,294.84701822282466 L359.2147881053418,294.17092203394765 L359.6190639595979,291.2630697344193 L359.9821771814209,290.5614260512259 L361.2288169065476,290.3917176961234 L361.26409916291874,289.64627830838725 L360.1843151085499,289.7092346336673 L359.37649844704396,288.9820434561574 L359.6991840834416,288.4939038326095 L358.7980164519534,287.89901217923864 L357.07947654785835,288.2904362885885 L353.8467398078205,288.40904965505814 L350.6081226917203,287.6134276892005 L347.8502263186828,285.31597802173496 L347.47608739174365,283.9473622547778 L346.14197707269625,281.6937082918548 L345.1452533302011,278.5796512167717 L344.6829087623341,275.442783878906 L344.13088845952143,273.56504304664065 L343.0452240290903,273.76394853810496 L342.4226392135353,272.9245308677047 L342.81441926865955,272.0851131973042 L341.90663621410243,270.82689910221495 L341.19511071061044,270.36248215196093 L339.94920603249244,270.23018262782176 L339.8426242163699,269.8323716448929 L341.0701527192942,269.16996161368564 L340.6607315359834,267.8889372558138 L341.33697478310324,266.8725119462202 L340.5717908480474,266.2538976195555 L340.5004912882965,265.59148758834834 L341.3193336549182,264.06776203446935 L340.8209717836703,263.55954937967255 L340.94592977498655,262.38892669366857 L341.96029464566726,259.5175708145923 L342.0668764617894,257.79402735873765 L343.5649022635622,256.59329512586066 L343.73910840439623,255.27303711600263 L344.79904618955607,255.624315162855 L346.9586142982946,255.36792780917818 L350.09285473929606,254.03215882062796 L352.2193457326852,253.61153757491653 L353.54463548764033,253.72558888882978 L355.39327871210446,252.88434639740655 L356.50246464678304,251.92814018155931 L357.4888977311691,250.28306402967667 L359.27653205399133,250.4746702370508 L360.81719058221347,249.7474790595408 L361.80288861959144,248.98287905106747 L363.1281783745456,248.33233035650707 L363.52877899376415,247.7201029034215 L366.21023047799736,247.7201029034215 L368.86007494089756,245.9992966791009 L369.3841634574166,245.19546301864142 L370.33898952046917,244.85148425587943 L371.38716655350584,243.43633555284572 L373.6981543458379,244.39254176869295 L374.8999562034921,244.50750549311755 L379.923267454383,245.7310479887772 L383.37431315571973,246.95550289494813 L384.66873093634933,247.26116041623527 L388.5211123039112,246.8405391705238 L389.5376823156143,247.18451793328572 L391.91114910360506,248.86791532664284 L395.1776980059993,253.1142738462555 L396.9028533331638,254.9117225535259 L398.62874370733556,255.98289249379775 L400.4163780301577,256.7474925022711 L403.3742071893014,257.1307049170191 L409.9690489427394,257.05406243406964 L413.02022907186523,257.2447562309321 L417.48857983191357,257.28307747240694 L420.5698968883563,257.47468367978104 L424.8537508494617,257.51300492125586 L427.9968118545554,257.89530492549255 L435.39285484642954,259.15808107313825 L444.82277290871787,262.86794221210346 L445.4696142755289,263.480169665189 L446.30168748828993,265.2018883000212 L448.36643453302963,271.6663167726154 L449.8762210869262,274.80318411048114 L450.8626541713128,276.25665405498967 L452.989145164703,278.74297269829526 L456.96427938255783,282.9510099764328 L463.6208650846454,288.1143410599065 L469.7533622702149,290.10339597455106 L475.0839231703418,290.6773021861616 L475.8241155071348,290.90722963501054 L477.025917364789,292.0550420582319 L480.4152191174752,296.10979437047035 L482.2337254146219,297.9838855606904 L484.45209728398004,299.3990342637241 L486.2706035811272,299.9346192338599 L489.59889643217144,300.50852544547075 L493.14255805648276,300.5851679284203 L502.17187549955395,304.79229279604647 L504.2983664929432,305.06054148637014 L506.1778816917334,304.9838990034207 L510.4308636785127,304.2950290673854 L511.9406502324103,303.68371402481125 L516.8713455603257,303.4154653344878 L519.4293091472584,303.1864502961502 L523.4353153394387,302.30597415274116 L539.7989318257331,297.6399067979285 L544.2658124917652,295.6024941261849 z"/>
	
</g></g></svg>