<svg xmlns="http://www.w3.org/2000/svg" version="1.2" baseProfile="tiny" width="600" height="600" stroke-linecap="round" stroke-linejoin="round"><rect id="backgroundrect" width="100%" height="100%" x="0" y="0" fill="none" stroke="none" class="" style=""/>































































































































































































































































































































































































































































































































































































































<g class="currentLayer" style=""><title>Layer 1</title><g class="city city-79" id="kilis" title="Kilis">
	<path id="kilis-elbeyli" title="Elbeyli" class="district" d="M446.6810685362579,432.1625620651761 L445.4731404739729,425.78941283424535 L443.6713424869167,421.67950879361524 L441.8695444998605,418.88361340742813 L440.60273415041655,412.8835265705027 L440.73563988428754,410.5809025719451 L441.7366387659856,407.45754130657485 L448.27593734272915,398.90819477727644 L450.0104412873202,393.4013793279813 L450.94582847761444,389.28940271849535 L451.6793335405054,379.6726832285699 L453.68806070814657,368.4248520492973 L456.4235635344377,370.64457329363137 L459.626759955872,371.4673831292999 L464.2313548116864,371.71401882311466 L468.7013615825647,370.1513019060018 L472.63806306689196,366.28803355918706 L476.1087533071353,360.1221412138142 L477.30995196517335,356.095139927408 L479.57776119631353,350.75205741770367 L480.7116658118865,344.0928936847018 L479.97816074899345,340.8866296651078 L477.5757634329193,333.73626711333134 L474.3069553200771,328.2273790951804 L472.838262843232,323.8708393607353 L472.9711685771049,316.30803560669693 L474.77296656416297,310.8820503427693 L481.0464536731606,305.37523489347336 L482.7136635752827,303.3192465887307 L483.9821562757878,300.6062539567669 L485.84956595425183,290.74289877302664 L487.7186579837771,285.7272821425054 L488.7768568015729,284.8733837740033 L491.6553594681044,282.76765381672675 L498.3275637787208,282.44018793754367 L503.1996524533404,284.08373504002424 L506.6686603425205,286.7138249177648 L509.93915080642387,290.98953446684146 L514.0760520670891,297.15335424335854 L519.0810464755816,305.86850628110363 L525.8205448286651,315.81476421906723 L527.4877547307872,317.70494701536325 L529.1566469839744,318.36402391143946 L536.0290510709289,318.6106596052549 L541.8348445847813,319.26766393247624 L546.5723451744667,321.89775381021605 L550.7092464351321,326.3371962988844 L553.9124428565663,333.2429957257016 L555.7798525350323,340.80579947974013 L555.7798525350323,343.7633552366631 L554.8461476957993,349.10851031522304 L554.7788536533322,352.0660660721461 L556.3804518640484,357.3283183964828 L560.0513418806318,360.2879467222616 L564.0536550563648,361.1086839890743 L567.9247448492863,363.7408464356699 L575.2648425313879,364.2341178232995 L580.8031422264334,366.94503788640816 L587.0749469843697,371.71401882311466 L589.6102500343188,374.5907443946701 L596.9503477164204,386.6758933916001 L599.8153915744581,393.17339675386665 L583.5840685313876,400.7527810587492 L575.4044776695097,404.35490572976016 L568.2309327425116,407.82231342515803 L557.4941682668807,413.6130708076695 L553.710560729167,415.44107653829735 L551.5874336893305,417.0514625390888 L545.6907932181477,422.6722692754415 L545.0700056763869,424.09819664808583 L544.5501591983298,437.7833688015295 L544.2069595817475,438.970950755781 L535.0465580509083,453.11208805745366 L533.3406540743661,454.4385321250294 L525.3292983186549,453.2385147576447 L519.1685287307874,453.9825669768004 L513.2903941212842,454.3805001970728 L500.58191420136905,445.21352814881016 L487.6345404306918,444.21247739156104 L478.8425737823612,439.9243324293511 L466.89619889338405,436.79889859512525 L455.72370549277923,434.36777532752126 L450.6884287651767,433.6361585214988 L446.6810685362579,432.1625620651761 z"/>
	<path id="kilis-merkez" title="Merkez" class="district" d="M446.6810685362579,432.1625620651761 L437.990042951629,430.58326459721843 L429.5782876432378,428.6930818009232 L424.008023278023,427.1738888297772 L408.2713114470833,423.6629571884122 L404.171421909773,422.30335201914716 L398.07289931119095,420.9002229039145 L398.37067544910616,425.06608630364497 L397.9147583113897,427.05160726729764 L393.60289254031073,427.1821791051997 L391.67660057468777,425.15313419557947 L388.0999222175591,423.942753983917 L385.45526634860414,423.70648113437994 L381.126577066905,422.1727801812449 L374.0859378737818,421.44738108178944 L370.4285066656942,421.6504928296372 L368.85550842302297,420.5706844558762 L366.0072880756016,420.71369170691196 L359.38387194577473,420.1002113256577 L356.0730050563919,418.12298063742764 L353.5242431979489,417.5509516332853 L350.80892858440046,419.20278901118854 L347.8950965455752,419.65253645285054 L343.29218404082206,422.52718945555034 L333.83905342525134,425.93449265413597 L328.6893768254573,430.35942716081524 L319.7981514644844,432.4817376689366 L316.65383733020906,434.2144052322079 L315.8261206078634,433.8890119218805 L313.14277066448625,429.7065679713054 L311.3880785071545,430.2164199097798 L309.83190377510346,427.0764780935648 L304.7983093985641,421.42665539323343 L301.89625381716746,415.5032536039648 L298.9050336295038,418.7944929466379 L289.9650200877453,425.4453664042177 L286.7197648897683,424.1396480251973 L282.31536981029393,419.7748180153302 L276.5869644452799,420.0794856371016 L274.268684682287,430.9915606617693 L271.7973109726805,440.1357344526209 L262.59989771848825,452.56700244843375 L255.80824648249268,449.5700678832545 L252.04482715751777,447.36485462090997 L242.1896146382058,442.98551662905334 L242.5563671696513,434.73462001496 L239.09072398259553,433.55947347384244 L230.1170634196045,428.6723561123672 L227.47240755064564,426.21221688078504 L222.55153069523652,425.70651008002153 L216.76592539412474,425.81428366051216 L216.1485025544904,423.67953773925694 L216.70704310696578,419.22765983745535 L215.8995145973608,410.4150970634979 L211.40427256055614,407.339404881806 L215.14918602385353,402.8336401897591 L214.86991574761385,399.8677941574134 L215.7817500230429,398.29264182716724 L218.33724128573277,396.88122243651253 L225.59322141475099,396.66360270667553 L230.93973308876457,391.7972110337563 L230.6453216529718,390.6759512828835 L232.6288135546905,386.2593070516267 L233.25969520281865,383.34734780952635 L234.81586993487167,382.85822155960807 L234.77212880726773,381.04886894868025 L237.62203150575033,373.99177199540543 L235.11028137066637,372.65289251469574 L233.5675654471052,369.73886070373976 L232.906401479865,367.2434878016127 L230.02958116439476,364.1719407576322 L227.40847821030098,363.6455082683132 L223.5172002046408,363.5874763403566 L222.29413098280077,364.08074772798625 L216.35374938401412,363.3719291793754 L210.22157976419754,363.53151698125566 L208.16069971364044,362.57191760111857 L202.12947115752544,361.27241692866517 L200.83406084003263,355.59772340206706 L201.91413022162843,353.6391458335373 L201.50700126470346,350.88055668675025 L199.51005055449096,349.87743336064625 L199.54706227784797,346.4597673177823 L197.71498197168168,344.9716628794706 L200.41347307461388,341.7426006024655 L200.5396494042379,340.2544961641538 L198.08509920524966,339.97055423093843 L191.3540126074743,342.4472740133651 L189.06433281253027,342.54261218072224 L182.48634016137052,341.17886187374575 L180.70473038705308,340.3954308463337 L175.83264171243354,337.1974571021623 L171.0867293674361,335.3321451321335 L164.38256038665034,329.75278977289264 L161.2264697949404,331.8212134907686 L158.9233311915026,330.8802672303319 L155.93379335490212,332.30619460297635 L155.10775898361766,330.1590132685877 L156.53271033285895,327.9496548685312 L155.65452307866443,326.6480816272228 L153.92338383619582,326.5859045615549 L152.30832681698584,324.987953973897 L149.94125887320538,323.9205810132693 L148.7333308109184,321.52883655392156 L146.94330928129284,322.536105017737 L143.69637173225462,322.82004695095236 L139.37609420586557,324.8366564474394 L136.8441558580369,327.6076810073598 L132.1655375555105,329.2139218704397 L127.53738978483489,329.0564066374151 L125.31332168129674,327.7962847732181 L120.0206452412545,327.57659247452546 L112.1707951874651,325.1827754463222 L107.00597742811212,324.14234588081746 L89.40185591871233,318.15469445702524 L85.09335484975387,316.50492964797775 L75.42656564935129,315.255170628059 L67.37651581922188,314.5898760254151 L65.54275316199043,313.42094719086384 L62.87286202710712,313.37535067604114 L54.49138903782601,311.4540793469115 L49.63948857594917,309.36492994047956 L45.32425810274185,306.3534873933106 L38.31390122872877,302.0052379342883 L33.53770656462518,298.1170987612063 L29.059288038436804,293.46003654270174 L23.983634885352828,291.6776273268964 L21.76293148393715,292.86106414343715 L19.43119291245047,292.99992625676146 L17.758935957144757,291.9553515535455 L10.499591126002095,290.0962572900837 L9.390921776357452,287.91384228515017 L3.6793399219596523,285.6236536997261 L5.718349408712832,281.0142605648993 L5.7940552064880535,276.98518670963745 L3.7617751239817787,271.31671088960616 L1.6857539138716002,268.63066165276473 L1.5814481480455456,265.9819186553239 L2.747317433789867,264.9705050537973 L3.8963632089159432,261.47408139442194 L5.464314398401527,259.87405823790834 L11.379460731259833,257.0387840434643 L13.191352824689332,255.83669410722382 L17.732018340159115,251.02833436226112 L20.837638400016246,248.74850862111532 L25.277362851784417,247.45729822408387 L29.082840953301968,251.16097876901904 L33.41994199030532,257.9030452562447 L39.291347195563674,262.42331793028063 L43.36095441376585,268.7529432152444 L47.965549269578275,270.31566013235727 L51.636439286159685,270.9726644595785 L56.839951119928955,270.31566013235727 L59.842947765025215,268.6721130298767 L66.31663465036287,265.9591203979129 L72.32094558949218,265.30004350183606 L75.65704774480139,265.87621764368896 L81.12973574843897,268.2596718276147 L83.26463924571007,270.4793930719488 L83.39754497958302,275.00173831484045 L83.99814430860306,278.2888325198021 L84.99914319029918,280.6722867037279 L89.13604445096647,285.358364886211 L91.47114772457758,290.29107876250896 L94.80893223094603,294.31808004891525 L99.07873922548626,296.29116559943384 L101.8815360942425,296.044529905619 L105.75094353610271,294.56471574273 L114.29223987624042,293.00407139447276 L118.4964351793748,291.03098584395343 L127.1706372533894,290.86725290436186 L135.11133426450905,287.41435319095353 L140.51672822568153,285.6879033342491 L142.45143194661065,281.905465172802 L143.65263060465074,281.16555809135747 L150.39212895773227,280.3448208245448 L162.26952745318314,276.9748238653597 L167.67492141435366,274.50846692721075 L172.94572729059,273.602754337319 L178.5513210281025,273.27528845813595 L183.7548328618757,271.8763044806145 L186.424723996759,269.65865580513605 L188.75982727036816,265.62958194987414 L192.26584688290532,262.9684035393 L195.13593779412864,265.2316487296017 L198.3391342155649,266.792293077859 L202.07563592355217,269.91772691208485 L203.41142266652247,275.83491099478647 L205.87943167400454,281.5904347067529 L209.21553382931376,286.4402458288275 L214.02032846146818,292.1936969719377 L220.0263217516587,302.38866317257236 L222.29413098280077,305.2653887441277 L225.63023313811,307.40220723423795 L232.9703308202096,309.045754336719 L241.3787214264783,312.82819249816566 L243.78111874255455,313.4851968253868 L250.65352282951102,313.9784682130171 L258.06091455407966,313.07482819198106 L266.4676228092852,312.9919254377571 L275.0089191494269,313.4851968253868 L277.6115162418431,314.2251039068319 L280.6801245783433,315.8686510093125 L289.4216206948249,321.4583692128317 L296.1611190479065,322.6915476819064 L303.10081717733004,323.18481906953616 L310.7740203696446,323.431454763351 L316.512519841028,322.6915476819064 L330.6594099186802,317.595100866017 L332.8616074584184,316.3619223969422 L336.2650036561927,313.4851968253868 L340.00150536417993,311.34837833527655 L347.8749083328345,308.718288457536 L354.013807356898,306.99183860083156 L358.2836143514382,306.6623001527935 L361.7543045916796,307.07266878619976 L365.6237120335378,306.4985672132019 L369.16169631624825,303.9493075208296 L371.2293057710503,297.78341517545687 L371.3622115049252,293.8393166432745 L370.76161217590516,284.46716027830826 L369.69500160280126,273.78099525889957 L370.4285066656942,269.7519214036376 L373.29859757691554,266.54565738404415 L377.6356986139209,265.2316487296017 L381.5724000982501,263.50519887289727 L384.1749971906664,261.86165177041676 L389.2456032905647,257.2584763421569 L392.34785864829735,252.5931238482297 L403.5758696339386,255.476067126352 L410.1824622531492,258.35486526676243 L412.98357677084226,261.14868808409454 L414.9855745342404,264.1912191640964 L418.9895700610328,273.31466726639223 L421.1244735583039,281.37074240806044 L421.05886186689804,286.63299473239704 L419.5901693900548,289.09935167054607 L412.65047126062933,303.0726108949159 L409.247075062857,309.1556004860648 L408.5808640424311,311.78776293266094 L408.713769776304,316.63757405473564 L409.78206270046917,319.51429962629106 L413.6514701423294,326.83046768651406 L416.5215610535527,330.283367399923 L420.7240740056239,333.4067286652931 L422.125472440002,336.119721297257 L423.659776608255,342.7768124614038 L425.0611750426332,347.62869615233353 L428.0641716877274,351.409061744925 L434.2030707117929,355.02569439792484 L441.4758743514274,357.40914858185045 L444.8136588577959,359.0547682531867 L450.08446473403416,363.1646722938168 L453.68806070814657,368.4248520492973 L451.6793335405054,379.6726832285699 L450.94582847761444,389.28940271849535 L450.0104412873202,393.4013793279813 L448.27593734272915,398.90819477727644 L441.7366387659856,407.45754130657485 L440.73563988428754,410.5809025719451 L440.60273415041655,412.8835265705027 L441.8695444998605,418.88361340742813 L443.6713424869167,421.67950879361524 L445.4731404739729,425.78941283424535 L446.6810685362579,432.1625620651761 z"/>
	<path id="kilis-musabeyli" title="Musabeyli" class="district" d="M173.06685656703232,123.75809864720704 L177.40900465722333,122.0627373233362 L180.00487234539463,120.1435385630622 L183.92979737228933,120.1932802155962 L187.84631064387588,119.35388982908367 L189.9997200028245,119.61503350488756 L193.3173162964542,118.62434559191685 L194.77423231586883,118.74662715439644 L196.03263091000068,120.29690865837603 L200.35459078745492,120.91453417734097 L201.56251884973796,121.84511759349937 L203.37104624104302,121.34977363701401 L205.98541979089185,123.26897239728808 L206.03589032274266,127.97577626832712 L208.54932280888983,130.205860356939 L209.10281630818156,132.68258013936625 L210.81208498684424,133.30227822718683 L214.5317631842152,136.89404005391938 L214.03042256783755,138.87541587986135 L214.93552743901972,140.73451014332312 L218.20770025398429,141.37700648855528 L227.14939614680202,140.6370994071102 L232.5547901079745,140.39046371329533 L236.42419754983666,140.88373510092504 L241.294603873393,142.6101849576295 L246.76729187703455,145.73354622299968 L248.10139626894363,148.85690748836993 L248.7692896404307,154.77616413992777 L249.36988896944882,169.90177164800423 L248.9021953743037,174.9982184638937 L247.1676914297126,179.27392801297046 L246.96749165337457,183.30092929937675 L248.5690898640907,190.53626717423214 L250.2362997662127,193.2471872373403 L252.77160281616386,196.1259853777513 L256.9101864278904,198.8389780097151 L259.31090139290734,202.61934360230651 L260.2462885831996,206.72924764293668 L262.2482863465958,209.93551166253013 L264.7835893965449,211.90859721304952 L268.7892672744025,213.57079743523036 L264.09550781231906,223.86939207864432 L262.2264157827938,227.0756560982378 L259.02321936135957,230.36482287205519 L254.08551899533416,233.98145552505505 L249.2151126717739,238.6675337075382 L240.2061227364871,246.55780334075922 L234.20181179735778,249.76406736035267 L231.19881515226348,250.0107030541681 L227.66251322061623,248.5308888912785 L224.99262208573293,249.10706303313148 L220.78842678259855,251.49051721705715 L214.11622247198216,253.79314121561458 L211.91402493224592,254.8605141762422 L206.70883074741346,253.95687415520612 L203.23982285823132,254.20350984902095 L200.77013149968803,255.3537855638719 L196.4330304626827,258.23051113542726 L192.26584688290532,262.9684035393 L188.75982727036816,265.62958194987414 L186.424723996759,269.65865580513605 L183.7548328618757,271.8763044806145 L178.5513210281025,273.27528845813595 L172.94572729059,273.602754337319 L167.67492141435366,274.50846692721075 L162.26952745318314,276.9748238653597 L150.39212895773227,280.3448208245448 L143.65263060465074,281.16555809135747 L142.45143194661065,281.905465172802 L140.51672822568153,285.6879033342491 L135.11133426450905,287.41435319095353 L127.1706372533894,290.86725290436186 L118.4964351793748,291.03098584395343 L114.29223987624042,293.00407139447276 L105.75094353610271,294.56471574273 L101.8815360942425,296.044529905619 L99.07873922548626,296.29116559943384 L94.80893223094603,294.31808004891525 L91.47114772457758,290.29107876250896 L89.13604445096647,285.358364886211 L84.99914319029918,280.6722867037279 L83.99814430860306,278.2888325198021 L83.39754497958302,275.00173831484045 L83.26463924571007,270.4793930719488 L81.12973574843897,268.2596718276147 L75.65704774480139,265.87621764368896 L72.32094558949218,265.30004350183606 L66.31663465036287,265.9591203979129 L59.842947765025215,268.6721130298767 L56.839951119928955,270.31566013235727 L51.636439286159685,270.9726644595785 L47.965549269578275,270.31566013235727 L43.36095441376585,268.7529432152444 L39.291347195563674,262.42331793028063 L33.41994199030532,257.9030452562447 L29.082840953301968,251.16097876901904 L25.277362851784417,247.45729822408387 L34.0609177448068,239.86755107492309 L43.53928362630195,230.44772562627853 L44.41578852943722,229.34304642625028 L46.34712754824386,222.98855031501932 L48.55941919435142,216.93457668784902 L50.43692297918281,209.69509367528227 L50.6842285852492,207.0339152647081 L52.45406190213602,204.2877615310544 L57.16296252377252,203.19759031301575 L60.80861727442952,202.89085012238863 L67.96029163762367,204.8100488826627 L72.3848749298368,205.33440880312605 L75.60657721295256,208.08056253677975 L77.97869220991672,211.04640856912482 L79.85451364368885,214.7977581977382 L81.87333491770329,216.018501253679 L86.19193009302916,216.62990906607754 L89.37830300384914,217.6765563381492 L94.05019190212866,221.9937172643373 L98.86508064065242,225.17718302651977 L102.44175899778111,227.09638178679376 L113.83968744065231,224.8289914587813 L120.53039761294625,221.90666937240275 L121.37998489909194,219.46518326052103 L119.3628459761407,217.2392443096199 L121.27399678220664,216.14907309158127 L124.4250403207289,212.0495318952294 L126.15954426531997,208.25673088950464 L126.90314343458229,205.5085045869952 L128.31968302851547,203.37168609688496 L130.2308338345814,198.3560694663637 L133.13457176703926,193.9953845942074 L134.16080591466175,188.629503827092 L138.09077799474213,182.56723992449855 L140.1432462899911,180.16927775858392 L146.30401587785457,176.28735629206886 L147.7188731207265,169.39606484724118 L150.23230560687566,163.94520875704623 L153.2420316562149,158.32025688298205 L153.85608979373072,153.6963557661663 L155.1296295474196,151.07870130155968 L158.43376703255552,146.48588871757815 L159.47345998867183,143.63610654114515 L160.74699974236466,135.55308800435466 L163.34286743053204,129.91362814830148 L166.22305244812472,125.49283877933348 L170.94372952719579,123.80784029974095 L173.06685656703232,123.75809864720704 z"/>
	<path id="kilis-polateli" title="Polateli" class="district" d="M268.7892672744025,213.57079743523036 L272.18929877005434,214.20914864275125 L284.4014851267735,213.5521443155301 L287.5373875057427,213.63504706975337 L290.4057960659048,214.70242003038098 L297.61298801413346,219.47140096708796 L305.48639098278994,226.4580305792729 L309.0226929144372,228.92438751742188 L314.42808687560967,231.22701151597929 L324.83847524527465,234.6799112293882 L331.443385513422,236.07682263805398 L333.9786885633731,236.15972539227727 L340.0519758960288,234.1037370875347 L344.85508817712196,233.5275629456811 L347.72517908834527,234.1037370875347 L357.1328862252489,238.7898152700178 L361.4043755708504,241.99607928961132 L364.94067750249764,243.88626208590728 L375.34938352110134,247.8324331869453 L392.34785864829735,252.5931238482297 L389.2456032905647,257.2584763421569 L384.1749971906664,261.86165177041676 L381.5724000982501,263.50519887289727 L377.6356986139209,265.2316487296017 L373.29859757691554,266.54565738404415 L370.4285066656942,269.7519214036376 L369.69500160280126,273.78099525889957 L370.76161217590516,284.46716027830826 L371.3622115049252,293.8393166432745 L371.2293057710503,297.78341517545687 L369.16169631624825,303.9493075208296 L365.6237120335378,306.4985672132019 L361.7543045916796,307.07266878619976 L358.2836143514382,306.6623001527935 L354.013807356898,306.99183860083156 L347.8749083328345,308.718288457536 L340.00150536417993,311.34837833527655 L336.2650036561927,313.4851968253868 L332.8616074584184,316.3619223969422 L330.6594099186802,317.595100866017 L316.512519841028,322.6915476819064 L310.7740203696446,323.431454763351 L303.10081717733004,323.18481906953616 L296.1611190479065,322.6915476819064 L289.4216206948249,321.4583692128317 L280.6801245783433,315.8686510093125 L277.6115162418431,314.2251039068319 L275.0089191494269,313.4851968253868 L266.4676228092852,312.9919254377571 L258.06091455407966,313.07482819198106 L250.65352282951102,313.9784682130171 L243.78111874255455,313.4851968253868 L241.3787214264783,312.82819249816566 L232.9703308202096,309.045754336719 L225.63023313811,307.40220723423795 L222.29413098280077,305.2653887441277 L220.0263217516587,302.38866317257236 L214.02032846146818,292.1936969719377 L209.21553382931376,286.4402458288275 L205.87943167400454,281.5904347067529 L203.41142266652247,275.83491099478647 L202.07563592355217,269.91772691208485 L198.3391342155649,266.792293077859 L195.13593779412864,265.2316487296017 L192.26584688290532,262.9684035393 L196.4330304626827,258.23051113542726 L200.77013149968803,255.3537855638719 L203.23982285823132,254.20350984902095 L206.70883074741346,253.95687415520612 L211.91402493224592,254.8605141762422 L214.11622247198216,253.79314121561458 L220.78842678259855,251.49051721705715 L224.99262208573293,249.10706303313148 L227.66251322061623,248.5308888912785 L231.19881515226348,250.0107030541681 L234.20181179735778,249.76406736035267 L240.2061227364871,246.55780334075922 L249.2151126717739,238.6675337075382 L254.08551899533416,233.98145552505505 L259.02321936135957,230.36482287205519 L262.2264157827938,227.0756560982378 L264.09550781231906,223.86939207864432 L268.7892672744025,213.57079743523036 z"/>
	
</g></g></svg>